<?xml version="1.0" standalone="no"?>
<!DOCTYPE svg PUBLIC "-//W3C//DTD SVG 1.1//EN" "http://www.w3.org/Graphics/SVG/1.1/DTD/svg11.dtd" >
<svg xmlns="http://www.w3.org/2000/svg" xmlns:xlink="http://www.w3.org/1999/xlink" version="1.1">
<metadata>
Created by FontForge 20190801 at Sun Apr 14 18:27:55 2019
 By www-data
Copyright (c) 2019 Monotype Imaging Inc. All rights reserved.
</metadata>
<defs>
<font id="HelveticaNowTextLightItalic" horiz-adv-x="640" >
  <font-face 
    font-family="HelveticaNowTextLightItalic"
    font-weight="300"
    font-style="italic"
    font-stretch="normal"
    units-per-em="1000"
    panose-1="2 11 4 4 3 2 2 9 2 4"
    ascent="875"
    descent="-125"
    x-height="516"
    cap-height="712"
    bbox="-373 -324 1671 1104"
    underline-thickness="50"
    underline-position="-300"
    slope="-12"
    unicode-range="U+000D-FEFF"
  />
<missing-glyph horiz-adv-x="899" 
d="M744 0h-547v712h547v-712zM258 659v-606h425v606h-425z" />
    <glyph glyph-name="fi" unicode="fi" horiz-adv-x="567" 
d="M236 514l136 2l-10 -47l-135 2l-6 -29l-94 -442h-60l94 441l7 30l-91 -2l10 47l90 -2l12 59q16 75 54.5 107t110.5 32h60l-11 -51h-52q-45 0 -68.5 -20t-33.5 -68zM504 635l17 77h60l-17 -77h-60zM429 0h-60l110 516h60z" />
    <glyph glyph-name="fl" unicode="fl" horiz-adv-x="573" 
d="M236 514l136 2l-10 -47l-135 2l-6 -29l-94 -442h-60l94 441l7 30l-91 -2l10 47l90 -2l12 59q16 75 54.5 107t110.5 32h60l-11 -51h-52q-45 0 -68.5 -20t-33.5 -68zM372 0l151 712h60l-151 -712h-60z" />
    <glyph glyph-name=".notdef" horiz-adv-x="899" 
d="M744 0h-547v712h547v-712zM258 659v-606h425v606h-425z" />
    <glyph glyph-name=".null" horiz-adv-x="0" 
 />
    <glyph glyph-name="nonmarkingreturn" horiz-adv-x="333" 
 />
    <glyph glyph-name="NULL" horiz-adv-x="0" 
 />
    <glyph glyph-name="NULL" horiz-adv-x="0" 
 />
    <glyph glyph-name="CR" unicode="&#xd;" horiz-adv-x="282" 
 />
    <glyph glyph-name="space" unicode=" " horiz-adv-x="282" 
 />
    <glyph glyph-name="exclam" unicode="!" horiz-adv-x="276" 
d="M133 168h-28l56 339l44 205h60l-44 -205zM121 0h-76l16 75h77z" />
    <glyph glyph-name="quotedbl" unicode="&#x22;" horiz-adv-x="425" 
d="M179 436h-54l58 276h54zM377 436h-53l58 276h53z" />
    <glyph glyph-name="numbersign" unicode="#" horiz-adv-x="671" 
d="M675 514l-10 -50l-125 2l-78 -220l119 3l-10 -50l-125 2l-71 -201h-50l71 201h-189l-71 -201h-50l71 201l-119 -2l10 50l125 -3l78 220l-119 -2l10 50l125 -2l71 200h50l-71 -200h189l71 200h50l-71 -200zM301 466l-78 -220h189l78 220h-189z" />
    <glyph glyph-name="dollar" unicode="$" horiz-adv-x="611" 
d="M581 515h-53q0 5 0.5 10t1 8t0.5 4q0 60 -41 93t-113 33q-86 0 -136.5 -39.5t-50.5 -108.5q0 -42 25.5 -67.5t81.5 -39.5l100 -26q142 -36 142 -160q0 -104 -70.5 -162t-189.5 -59l-31 -145h-52l31 148q-84 10 -129 59t-45 134q0 21 1 30h53q-1 -9 -1 -27
q0 -74 44.5 -111.5t127.5 -37.5q95 0 151 44t56 124q0 45 -26 70.5t-87 42.5l-87 23q-149 41 -149 155q0 94 66 148t176 56l28 133h52l-28 -136q72 -11 113 -55.5t41 -113.5q0 -13 -2 -27z" />
    <glyph glyph-name="percent" unicode="%" horiz-adv-x="1303" 
d="M300 309q-73 0 -111 38.5t-38 113.5q0 40 9 79q48 217 216 217q73 0 111.5 -38t38.5 -110q0 -36 -10 -83q-45 -217 -216 -217zM389 -15h-63l602 742h64zM302 356q63 0 102 43t59 136q9 43 9 74q0 101 -97 101q-63 0 -102.5 -43t-59.5 -136q-9 -43 -9 -74q0 -101 98 -101z
M976 -12q-149 0 -149 152q0 40 9 79q48 217 216 217q73 0 111.5 -38t38.5 -110q0 -36 -10 -83q-45 -217 -216 -217zM977 35q63 0 102.5 43t59.5 136q9 44 9 74q0 101 -97 101q-63 0 -102.5 -43t-59.5 -136q-9 -44 -9 -74q0 -101 97 -101z" />
    <glyph glyph-name="ampersand" unicode="&#x26;" horiz-adv-x="762" 
d="M628 314h58q-32 -98 -108 -185l102 -130h-75l-70 89q-112 -100 -250 -100q-98 0 -155.5 49.5t-57.5 133.5q0 160 222 226q-58 79 -58 152q0 77 56 127q55 49 142 49q75 0 122.5 -39.5t47.5 -104.5q0 -135 -219 -206l162 -206q54 65 81 145zM430 673q-59 0 -97 -35
t-38 -89q0 -61 60 -134q96 31 143 69t47 90q0 45 -31.5 72t-83.5 27zM295 39q118 0 211 87l-182 232q-193 -55 -193 -186q0 -63 43 -98t121 -35z" />
    <glyph glyph-name="quotesingle" unicode="'" horiz-adv-x="226" 
d="M178 436h-53l58 276h53z" />
    <glyph glyph-name="parenleft" unicode="(" horiz-adv-x="333" 
d="M184 -204h-51q-71 150 -71 315q0 83 16 163q54 273 247 473h62q-198 -220 -250 -480q-17 -93 -17 -165q0 -154 64 -306z" />
    <glyph glyph-name="parenright" unicode=")" horiz-adv-x="334" 
d="M14 -204h-62q198 220 250 480q17 93 17 165q0 154 -64 306h51q71 -150 71 -315q0 -72 -17 -163q-53 -271 -246 -473z" />
    <glyph glyph-name="asterisk" unicode="*" horiz-adv-x="547" 
d="M326 496l-122 -133l-40 27l131 130l-143 51l26 44l138 -58l30 155h48l-37 -155l161 58l9 -47l-167 -50l76 -128l-42 -27z" />
    <glyph glyph-name="plus" unicode="+" 
d="M346 336h249v-52h-249v-248h-53v248h-247v52h247v249h53v-249z" />
    <glyph glyph-name="comma" unicode="," horiz-adv-x="286" 
d="M18 -145h-8l7 37h9q27 0 40.5 14t21.5 48l10 50l-58 -5l17 77h95l-28 -133q-19 -88 -106 -88z" />
    <glyph glyph-name="hyphen" unicode="-" horiz-adv-x="379" 
d="M322 222h-280l11 55h280z" />
    <glyph glyph-name="period" unicode="." horiz-adv-x="268" 
d="M124 0h-89l16 78h90z" />
    <glyph glyph-name="slash" unicode="/" horiz-adv-x="452" 
d="M56 0h-65l448 712h65z" />
    <glyph glyph-name="zero" unicode="0" 
d="M273 -10q-90 0 -138 57.5t-48 168.5q0 70 16 147q38 186 112 272.5t194 86.5q90 0 137.5 -58t47.5 -171q0 -67 -16 -144q-35 -183 -110.5 -271t-194.5 -88zM279 44q90 0 148.5 75.5t90.5 236.5q16 77 16 143q0 169 -130 169q-91 0 -150 -76t-90 -236q-17 -90 -17 -145
q0 -167 132 -167z" />
    <glyph glyph-name="one" unicode="1" horiz-adv-x="445" 
d="M345 712h54l-152 -712h-60l128 602q-84 -66 -209 -70l12 55q157 7 227 125z" />
    <glyph glyph-name="two" unicode="2" 
d="M498 0h-465q20 90 78 157.5t163 122.5l119 63q79 42 116.5 87t37.5 109q0 57 -36.5 91.5t-102.5 34.5q-79 0 -131.5 -46.5t-67.5 -136.5l-2 -9h-60l2 11q21 113 91.5 174t173.5 61q89 0 141.5 -48.5t52.5 -126.5q0 -80 -45 -137t-139 -107l-96 -51q-96 -50 -144.5 -95.5
t-66.5 -98.5h393z" />
    <glyph glyph-name="three" unicode="3" 
d="M280 -11q-105 0 -168.5 52t-63.5 139q0 16 4 37h60q-3 -17 -3 -32q0 -67 46 -104t129 -37q98 0 161 51q62 51 62 134q0 57 -38 88.5t-109 31.5h-66l11 53h51q83 0 133 42.5t50 111.5q0 53 -36.5 81.5t-103.5 28.5q-164 0 -199 -158h-61q23 103 91.5 158t175.5 55
q89 0 142 -43t53 -115q0 -69 -41 -118t-111 -66v-3q57 -10 88 -48.5t31 -98.5q0 -111 -81 -175q-82 -65 -207 -65z" />
    <glyph glyph-name="four" unicode="4" 
d="M563 712l-101 -475h112l-12 -54h-112l-39 -183h-60l39 183h-345l13 57l455 472h50zM125 237h276l78 363h-1z" />
    <glyph glyph-name="five" unicode="5" 
d="M267 -16q-95 0 -147.5 52t-52.5 145h58q0 -69 38 -107.5t107 -38.5q100 0 161 69q60 68 60 169q0 66 -35.5 102.5t-103.5 36.5q-103 0 -170 -82l-63 2l143 380h353l-11 -55h-307l-99 -264l2 -2q69 72 168 72q87 0 135.5 -51.5t48.5 -137.5q0 -128 -79 -208
q-79 -82 -206 -82z" />
    <glyph glyph-name="six" unicode="6" 
d="M369 457q84 0 134 -51.5t50 -135.5q0 -120 -74 -200t-191 -80q-98 0 -149 62.5t-51 172.5q0 60 13 119q76 379 317 379q86 0 133 -48t47 -134h-57q0 64 -32.5 97.5t-95.5 33.5q-187 0 -255 -333q79 118 211 118zM293 41q89 0 144 67q55 65 55 159q0 64 -36.5 101.5
t-99.5 37.5q-71 0 -127 -44.5t-81 -120.5q-3 -15 -3 -36q0 -77 39 -120.5t109 -43.5z" />
    <glyph glyph-name="seven" unicode="7" 
d="M200 0h-64q118 410 427 656h-401l12 56h484l-10 -47q-331 -247 -448 -665z" />
    <glyph glyph-name="eight" unicode="8" 
d="M274 -12q-103 0 -166 51q-64 49 -64 133q0 83 53 140.5t143 75.5v1q-45 16 -69.5 50.5t-24.5 80.5q0 97 74 150q73 52 186 52q95 0 151 -43t56 -115q0 -69 -42.5 -117.5t-118.5 -67.5v-1q56 -13 87 -53t31 -98q0 -112 -83 -175q-83 -64 -213 -64zM353 407q94 0 148 39.5
t54 113.5q0 52 -40.5 81.5t-112.5 29.5q-91 0 -145 -39.5t-54 -112.5q0 -54 39 -83t111 -29zM278 39q100 0 166 51q65 51 65 136q0 61 -44.5 95.5t-125.5 34.5q-106 0 -169.5 -48t-63.5 -133q0 -63 45.5 -99.5t126.5 -36.5z" />
    <glyph glyph-name="nine" unicode="9" 
d="M394 723q98 0 149 -62t51 -172q0 -61 -13 -120q-76 -379 -317 -379q-86 0 -133 48t-47 134h57q0 -64 32.5 -97.5t95.5 -33.5q187 0 255 333q-79 -118 -211 -118q-84 0 -134 51.5t-50 135.5q0 120 74 200t191 80zM534 472q3 15 3 36q0 77 -39 120.5t-109 43.5
q-89 0 -144 -66q-55 -67 -55 -159q0 -65 36 -102.5t100 -37.5q71 0 127 44.5t81 120.5z" />
    <glyph glyph-name="colon" unicode=":" horiz-adv-x="268" 
d="M211 409h-89l16 79h89zM124 0h-89l16 78h90z" />
    <glyph glyph-name="semicolon" unicode=";" horiz-adv-x="294" 
d="M217 409h-89l16 79h89zM26 -145h-9l8 37h9q27 0 40.5 14t21.5 48l10 50l-58 -5l17 77h95l-28 -133q-19 -88 -106 -88z" />
    <glyph glyph-name="less" unicode="&#x3c;" 
d="M54 335l532 218v-59l-474 -191l474 -190v-59l-532 217v64z" />
    <glyph glyph-name="equal" unicode="=" 
d="M585 393h-529v52h529v-52zM585 174h-529v52h529v-52z" />
    <glyph glyph-name="greater" unicode="&#x3e;" 
d="M54 494v59l532 -218v-64l-532 -217v59l475 190z" />
    <glyph glyph-name="question" unicode="?" horiz-adv-x="622" 
d="M301 172h-57l6 26q15 69 48 109q32 42 110 79q74 36 106.5 73.5t32.5 87.5q0 60 -43.5 92.5t-120.5 32.5q-87 0 -141.5 -43t-71.5 -124h-57q24 106 93 161.5t178 55.5q101 0 160.5 -46t59.5 -127q0 -115 -140 -189l-54 -29q-50 -26 -71 -56q-22 -33 -35 -91zM276 0h-77
l16 75h76z" />
    <glyph glyph-name="at" unicode="@" horiz-adv-x="1090" 
d="M625 725q203 0 308 -119q106 -119 65 -307q-22 -108 -86 -179q-63 -71 -147 -71q-46 0 -75 23.5t-33 67.5q-65 -93 -164 -93q-88 0 -128.5 64.5t-17.5 170.5q23 103 85 162t143 59q101 0 134 -88l18 78h54l-61 -282q-25 -118 54 -118q57 0 105 60q46 60 66 149
q36 166 -52 269t-272 103q-177 0 -299 -102q-122 -104 -158 -273q-41 -189 54 -305q93 -116 269 -116q98 0 206 38l-11 -54q-94 -33 -204 -33q-200 0 -306 133q-106 132 -62 341q40 191 180 307q137 115 335 115zM505 94q58 0 101.5 40.5t66.5 115.5l13 57q8 69 -21.5 109
t-89.5 40q-62 0 -108 -47.5t-65 -131.5q-19 -87 8.5 -135t94.5 -48z" />
    <glyph glyph-name="A" unicode="A" horiz-adv-x="722" 
d="M633 0h-62l-41 223h-340l-136 -223h-69l443 714h67zM426 610l-204 -334h298l-62 334l-5 48z" />
    <glyph glyph-name="B" unicode="B" horiz-adv-x="734" 
d="M532 375q112 -34 112 -147q0 -102 -71 -165t-181 -63h-347l152 712h307q86 0 133 -40.5t47 -107.5q0 -68 -41 -118.5t-111 -70.5zM489 659h-242l-56 -262h245q82 0 133.5 44t51.5 115q0 49 -33.5 76t-98.5 27zM117 53h275q86 0 139 50t53 128q0 114 -144 114h-260z" />
    <glyph glyph-name="C" unicode="C" horiz-adv-x="742" 
d="M352 -15q-122 0 -193 80q-70 79 -70 207q0 45 11 100q34 163 137 258t243 95q113 0 183 -62q68 -62 68 -166h-60q-2 80 -54.5 126.5t-141.5 46.5q-115 0 -200 -80q-84 -79 -114 -223q-11 -49 -11 -94q0 -109 54.5 -171t152.5 -62q95 0 168 59q72 58 102 152h60
q-35 -122 -125 -193q-91 -73 -210 -73z" />
    <glyph glyph-name="D" unicode="D" horiz-adv-x="730" 
d="M197 712h235q127 0 194 -67.5t67 -189.5q0 -45 -11 -106q-34 -169 -134 -259t-265 -90h-238zM620 356q11 60 11 99q0 204 -216 204h-168l-130 -606h167q276 0 336 303z" />
    <glyph glyph-name="E" unicode="E" horiz-adv-x="671" 
d="M685 712l-12 -53h-426l-56 -263h396l-11 -53h-397l-62 -290h441l-12 -53h-501l152 712h488z" />
    <glyph glyph-name="F" unicode="F" horiz-adv-x="610" 
d="M678 712l-12 -53h-419l-57 -264h357l-11 -54h-357l-73 -341h-61l152 712h481z" />
    <glyph glyph-name="G" unicode="G" horiz-adv-x="823" 
d="M675 314h-244l11 53h304l-78 -367h-46l16 122q-102 -136 -275 -136q-126 0 -200 77q-75 77 -75 204q0 49 12 106q34 161 140 258q106 95 256 95q124 0 195 -60.5t71 -167.5h-59q0 84 -55.5 129t-153.5 45q-126 0 -215 -84t-120 -229q-9 -51 -9 -91q0 -106 57.5 -167
t161.5 -61q102 0 180 59t116 164z" />
    <glyph glyph-name="H" unicode="H" horiz-adv-x="747" 
d="M617 405l66 307h61l-152 -712h-61l75 352h-425l-75 -352h-61l152 712h61l-66 -307h425z" />
    <glyph glyph-name="I" unicode="I" horiz-adv-x="261" 
d="M106 0h-61l152 712h61z" />
    <glyph glyph-name="J" unicode="J" horiz-adv-x="561" 
d="M217 -12q-83 0 -132.5 40t-49.5 114q0 38 16 98h61q-16 -65 -16 -96q0 -101 124 -101q137 0 167 150l111 519h60l-111 -520q-22 -105 -77.5 -154.5t-152.5 -49.5z" />
    <glyph glyph-name="K" unicode="K" horiz-adv-x="713" 
d="M672 712h88l-371 -294l235 -418h-69l-214 382l-184 -144l-51 -238h-61l152 712h61l-85 -397z" />
    <glyph glyph-name="L" unicode="L" horiz-adv-x="608" 
d="M258 712l-141 -659h398l-12 -53h-458l152 712h61z" />
    <glyph glyph-name="M" unicode="M" horiz-adv-x="895" 
d="M436 118l369 594h87l-152 -712h-56l118 551l25 105l-52 -95l-352 -561h-56l-117 561l-13 90l-18 -100l-118 -551h-56l152 712h79l122 -591l8 -60z" />
    <glyph glyph-name="N" unicode="N" horiz-adv-x="749" 
d="M554 83l135 629h57l-152 -712h-62l-296 628l-133 -628h-58l152 712h60z" />
    <glyph glyph-name="O" unicode="O" horiz-adv-x="816" 
d="M366 -15q-127 0 -202 79q-75 80 -75 208q0 51 10 95q35 161 140 259q107 99 254 99q129 0 202 -78q74 -79 74 -207q0 -51 -10 -95q-32 -163 -136 -261q-107 -99 -257 -99zM369 40q124 0 212 85t118 227q8 43 8 86q0 107 -58.5 169.5t-160.5 62.5q-123 0 -212 -85
q-92 -85 -117 -225q-9 -45 -9 -85q0 -107 60 -171q58 -64 159 -64z" />
    <glyph glyph-name="P" unicode="P" horiz-adv-x="653" 
d="M197 712h271q90 0 141.5 -42t51.5 -117q0 -114 -73 -178q-74 -66 -194 -66h-222l-66 -309h-61zM183 362h217q91 0 146 51.5t55 135.5q0 53 -37 81.5t-103 28.5h-214z" />
    <glyph glyph-name="Q" unicode="Q" horiz-adv-x="815" 
d="M759 345q-35 -182 -158 -279l81 -75l-39 -41l-85 85q-89 -50 -192 -50q-127 0 -202 79q-75 80 -75 208q0 51 10 95q35 161 140 259q107 99 254 99q129 0 202 -78q74 -79 74 -207q0 -51 -10 -95zM150 275q0 -107 60 -171q58 -64 159 -64q81 0 146 37l-89 82l39 41l94 -94
q105 82 140 246q8 43 8 86q0 107 -58.5 169.5t-160.5 62.5q-123 0 -212 -85q-90 -85 -117 -225q-9 -45 -9 -85z" />
    <glyph glyph-name="R" unicode="R" horiz-adv-x="727" 
d="M692 559q0 -83 -50 -141.5t-132 -72.5q94 -19 94 -115q0 -8 -2 -32l-19 -198h-61l19 190q2 26 2 35q0 52 -28.5 73.5t-95.5 21.5h-245l-68 -320h-61l152 712h310q87 0 136 -40.5t49 -112.5zM186 374h235q94 0 151 48.5t57 129.5q0 52 -34.5 79.5t-101.5 27.5h-246z" />
    <glyph glyph-name="S" unicode="S" horiz-adv-x="673" 
d="M303 -14q-121 0 -186.5 52t-65.5 153q0 23 1 30h58q-2 -22 -2 -27q0 -77 51 -117t145 -40q109 0 173 47t64 131q0 47 -28.5 74t-94.5 41l-114 24q-161 35 -161 159q0 102 77 158q76 55 201 55q105 0 165.5 -47t60.5 -131q0 -22 -1 -28h-58q0 4 0.5 8t1 7t0.5 5v3
q0 63 -46 98t-128 35q-97 0 -156 -43t-59 -116q0 -83 115 -107l129 -27q154 -34 154 -164q0 -111 -81 -172q-82 -61 -215 -61z" />
    <glyph glyph-name="T" unicode="T" 
d="M136 712h558l-12 -53h-249l-140 -659h-61l141 659h-249z" />
    <glyph glyph-name="U" unicode="U" horiz-adv-x="739" 
d="M327 -14q-112 0 -175.5 47.5t-63.5 136.5q0 32 7 61l102 481h61l-103 -484q-6 -28 -6 -52q0 -136 179 -136q203 0 244 188l103 484h60l-102 -482q-52 -244 -306 -244z" />
    <glyph glyph-name="V" unicode="V" horiz-adv-x="681" 
d="M359 167l317 545h68l-420 -714h-69l-118 714h63l86 -545l15 -105z" />
    <glyph glyph-name="W" unicode="W" horiz-adv-x="953" 
d="M704 217l247 495h65l-358 -714h-56l-48 642l-306 -642h-58l-53 714h58l35 -495l4 -136l63 137l238 494h66l36 -495l5 -136z" />
    <glyph glyph-name="X" unicode="X" horiz-adv-x="683" 
d="M650 712h77l-323 -342l190 -370h-67l-146 290l-15 38l-33 -38l-271 -290h-77l354 374l-179 338h68l133 -261l16 -35l30 34z" />
    <glyph glyph-name="Y" unicode="Y" horiz-adv-x="681" 
d="M678 712h77l-372 -422l-62 -290h-61l62 289l-197 423h66l153 -337l14 -38l29 38z" />
    <glyph glyph-name="Z" unicode="Z" horiz-adv-x="686" 
d="M194 712h504l-11 -49l-585 -608h471l-12 -55h-546l13 59l577 598h-423z" />
    <glyph glyph-name="bracketleft" unicode="[" horiz-adv-x="332" 
d="M183 -204h-181l202 951h181l-11 -52h-124l-180 -847h124z" />
    <glyph glyph-name="backslash" unicode="\" horiz-adv-x="452" 
d="M348 0h-58l-144 712h58z" />
    <glyph glyph-name="bracketright" unicode="]" horiz-adv-x="333" 
d="M135 -204h-183l11 52h126l180 847h-124l11 52h181z" />
    <glyph glyph-name="asciicircum" unicode="^" 
d="M287 714h60l205 -516h-64l-140 366q-15 42 -31 98q-11 -38 -32 -98l-136 -366h-61z" />
    <glyph glyph-name="underscore" unicode="_" horiz-adv-x="500" 
d="M415 -141h-500l11 52h500z" />
    <glyph glyph-name="grave" unicode="`" horiz-adv-x="500" 
d="M411 601h-48l-95 152h75z" />
    <glyph glyph-name="a" unicode="a" horiz-adv-x="574" 
d="M497 46h15l-9 -46h-28q-94 0 -82 95q-65 -108 -208 -108q-72 0 -113.5 36t-41.5 97q0 70 52 113t147 55l135 18q38 5 55 19.5t23 42.5q12 56 -18.5 84t-101.5 28q-69 0 -107.5 -27.5t-55.5 -88.5l-59 2q42 164 231 164q85 0 130 -31t45 -86q0 -17 -5 -47l-53 -249
q-8 -39 3 -55t46 -16zM402 179l21 103q-19 -16 -57 -20l-135 -19q-140 -20 -140 -118q0 -42 30.5 -66t87.5 -24q69 0 119.5 37.5t73.5 106.5z" />
    <glyph glyph-name="b" unicode="b" horiz-adv-x="600" 
d="M368 527q85 0 134.5 -54.5t49.5 -146.5q0 -39 -7 -71q-22 -124 -92 -195t-172 -71q-69 0 -113 37t-57 99l-27 -125h-53l152 712h60l-61 -286q72 101 186 101zM485 262q7 35 7 62q0 71 -36 111t-100 40q-78 0 -134 -56t-78 -157q-7 -32 -7 -66q0 -73 38 -114t105 -41
q78 0 132.5 59.5t72.5 161.5z" />
    <glyph glyph-name="c" unicode="c" horiz-adv-x="555" 
d="M241 -13q-84 0 -138 56q-54 55 -54 152q0 39 7 71q24 124 98 193.5t181 69.5q91 0 139 -48t48 -129h-57q0 57 -34 91.5t-100 34.5q-83 0 -139.5 -57.5t-75.5 -160.5q-7 -29 -7 -63q0 -74 37.5 -116.5t101.5 -42.5q132 0 184 138h57q-28 -89 -92 -139t-156 -50z" />
    <glyph glyph-name="d" unicode="d" horiz-adv-x="601" 
d="M486 406l65 306h60l-151 -712h-53l24 110q-31 -56 -83.5 -88.5t-115.5 -32.5q-85 0 -134.5 54t-49.5 147q0 33 6 69q22 121 93 195q70 73 167 73q65 0 110.5 -32.5t61.5 -88.5zM245 41q76 0 133.5 56.5t77.5 156.5q8 43 8 69q0 70 -38.5 111t-106.5 41q-77 0 -132 -60.5
t-73 -162.5q-5 -32 -5 -61q0 -70 36 -110t100 -40z" />
    <glyph glyph-name="e" unicode="e" horiz-adv-x="579" 
d="M522 250h-408q-6 -30 -6 -56q0 -72 40 -114.5t107 -42.5q127 0 189 125l53 -6q-31 -76 -95 -122.5t-148 -46.5q-95 0 -150 58t-55 154q0 29 8 74q26 116 100 186q75 69 179 69q93 0 145.5 -51.5t52.5 -141.5q0 -40 -12 -85zM335 478q-76 0 -132 -48.5t-80 -135.5h352
q3 21 3 39q0 68 -37.5 106.5t-105.5 38.5z" />
    <glyph glyph-name="f" unicode="f" horiz-adv-x="340" 
d="M403 661h-52q-45 0 -68.5 -20t-33.5 -68l-13 -59l136 2l-10 -47l-135 2l-6 -29l-94 -442h-60l94 441l7 30l-91 -2l10 47l90 -2l12 59q16 75 54.5 107t110.5 32h60z" />
    <glyph glyph-name="g" unicode="g" horiz-adv-x="601" 
d="M492 394l26 122h52l-108 -510q-24 -111 -87 -164t-169 -53q-95 0 -147 40t-52 103l59 1q2 -44 37 -70t104 -26q164 0 197 157l24 110q-33 -53 -83.5 -84t-108.5 -31q-88 0 -137.5 54t-49.5 148q0 135 76 235q75 101 193 101q67 0 113 -36.5t61 -96.5zM246 41q96 0 158 86
q61 85 61 195q0 72 -38.5 112.5t-101.5 40.5q-98 0 -156 -85q-59 -86 -59 -199q0 -71 35.5 -110.5t100.5 -39.5z" />
    <glyph glyph-name="h" unicode="h" horiz-adv-x="589" 
d="M374 529q72 0 112 -37t40 -102q0 -16 -5 -49l-73 -341h-60l71 337q5 22 5 44q0 95 -105 95q-75 0 -131 -49t-76 -142l-61 -285h-60l152 712h60l-61 -287q72 104 192 104z" />
    <glyph glyph-name="i" unicode="i" horiz-adv-x="227" 
d="M224 635h-60l17 77h60zM89 0h-60l110 516h60z" />
    <glyph glyph-name="j" unicode="j" horiz-adv-x="227" 
d="M224 635h-60l16 77h60zM-81 -204h-38l10 51h25q43 0 66 19t32 63l125 587h60l-123 -581q-16 -75 -51.5 -107t-105.5 -32z" />
    <glyph glyph-name="k" unicode="k" horiz-adv-x="559" 
d="M484 516h81l-260 -201l164 -315h-65l-145 283l-128 -97l-40 -186h-60l152 712h60l-98 -460z" />
    <glyph glyph-name="l" unicode="l" horiz-adv-x="233" 
d="M92 0h-60l151 712h60z" />
    <glyph glyph-name="m" unicode="m" horiz-adv-x="862" 
d="M667 529q63 0 98.5 -33.5t35.5 -94.5q0 -24 -6 -51l-74 -350h-60l74 349q5 25 5 40q0 87 -92 87q-57 0 -104 -40.5t-70 -119.5l-68 -316h-60l74 349q5 25 5 40q0 87 -92 87q-59 0 -106.5 -44t-70.5 -129l-64 -303h-60l109 516h58l-24 -98q67 111 177 111q58 0 93 -30.5
t39 -85.5q68 116 183 116z" />
    <glyph glyph-name="n" unicode="n" horiz-adv-x="589" 
d="M374 529q72 0 112 -37t40 -102q0 -16 -5 -49l-73 -341h-60l71 337q5 23 5 44q0 95 -105 95q-73 0 -128 -46t-76 -136l-63 -294h-60l109 516h58l-24 -101q74 114 199 114z" />
    <glyph glyph-name="o" unicode="o" horiz-adv-x="597" 
d="M254 -13q-94 0 -149.5 57t-55.5 154q0 39 7 71q23 120 102 190q77 70 186 70q94 0 149 -56.5t55 -152.5q0 -39 -7 -71q-24 -124 -100 -193t-187 -69zM258 38q84 0 144 59t79 159q7 38 7 62q0 75 -40 117.5t-110 42.5q-84 0 -143 -58t-79 -158q-6 -33 -6 -62
q0 -76 39.5 -119t108.5 -43z" />
    <glyph glyph-name="p" unicode="p" horiz-adv-x="602" 
d="M369 527q85 0 134 -54.5t49 -146.5q0 -135 -74 -236t-191 -101q-64 0 -109.5 32t-63.5 87l-66 -312h-60l153 720h53l-23 -108q31 55 83 87t115 32zM282 41q94 0 152 87q58 86 58 197q0 70 -36.5 110t-99.5 40q-97 0 -159 -86q-61 -85 -61 -196q0 -71 38.5 -111.5
t107.5 -40.5z" />
    <glyph glyph-name="q" unicode="q" horiz-adv-x="602" 
d="M492 390l27 126h52l-153 -720h-60l64 298q-71 -105 -189 -105q-85 0 -134.5 54.5t-49.5 146.5q-3 131 74 234.5t192 102.5q71 0 118 -37t59 -100zM246 41q97 0 159 86q61 85 61 196q0 71 -38.5 111.5t-107.5 40.5q-62 0 -112 -43t-75 -107.5t-23 -133.5q0 -70 36 -110
t100 -40z" />
    <glyph glyph-name="r" unicode="r" horiz-adv-x="390" 
d="M366 530q25 0 43 -5l-13 -58q-25 4 -44 4q-64 0 -122 -47q-58 -49 -77 -138l-61 -286h-60l109 516h56l-23 -109q74 123 192 123z" />
    <glyph glyph-name="s" unicode="s" horiz-adv-x="515" 
d="M218 -13q-93 0 -141.5 42t-48.5 121h58q0 -113 138 -113q75 0 117.5 30.5t42.5 85.5q0 33 -21 52t-67 27l-79 16q-130 25 -130 122q0 76 55.5 116t152.5 40q85 0 132 -39.5t47 -112.5h-57q0 49 -33.5 76.5t-94.5 27.5q-66 0 -105.5 -26t-39.5 -73q0 -33 21.5 -51.5
t68.5 -27.5l79 -15q130 -25 130 -124q0 -84 -60.5 -129t-164.5 -45z" />
    <glyph glyph-name="t" unicode="t" horiz-adv-x="357" 
d="M227 471l-7 -29l-68 -323q-4 -12 -4 -28q0 -40 55 -40h63l-11 -51h-73q-95 0 -95 77q0 12 5 40l69 325l6 29l-90 -2l10 47l89 -2l6 29l27 126h60l-27 -125l-6 -30l130 2l-10 -47z" />
    <glyph glyph-name="u" unicode="u" horiz-adv-x="589" 
d="M435 224l62 292h60l-109 -516h-58l24 101q-74 -114 -200 -114q-72 0 -111.5 36.5t-39.5 102.5q0 16 5 49l73 341h60l-72 -337q-4 -20 -4 -44q0 -95 104 -95q74 0 128.5 46.5t77.5 137.5z" />
    <glyph glyph-name="v" unicode="v" horiz-adv-x="530" 
d="M260 150l215 366h62l-307 -516h-60l-97 516h62l63 -366l11 -98z" />
    <glyph glyph-name="w" unicode="w" horiz-adv-x="768" 
d="M527 163l183 353h65l-278 -516h-60l-23 364l-3 95l-42 -95l-179 -364h-61l-56 516h59l34 -353l6 -100l44 100l175 353h64l24 -353l3 -98z" />
    <glyph glyph-name="x" unicode="x" horiz-adv-x="544" 
d="M466 516h74l-241 -246l156 -270h-67l-125 233l-223 -233h-77l276 275l-142 241h66l112 -203z" />
    <glyph glyph-name="y" unicode="y" horiz-adv-x="541" 
d="M215 58l268 458h65l-378 -625q-35 -57 -65 -75q-32 -20 -86 -20h-51l11 51h39q42 0 64.5 15t47.5 58l47 78l-104 518h61l77 -418z" />
    <glyph glyph-name="z" unicode="z" horiz-adv-x="529" 
d="M122 516h392l-8 -38l-420 -429h345l-11 -49h-421l9 43l415 424h-312z" />
    <glyph glyph-name="braceleft" unicode="{" horiz-adv-x="384" 
d="M235 -205h-68q-88 0 -88 71q0 14 9 58l42 197q9 44 9 58q0 66 -92 66l11 53q60 0 90 24t42 81l50 235q22 109 129 109h68l-11 -52h-51q-35 0 -54 -16t-27 -52l-46 -223q-26 -114 -124 -132v-1q72 -13 72 -89q0 -17 -9 -62l-39 -185q-8 -37 -8 -46q0 -42 55 -42h51z" />
    <glyph glyph-name="bar" unicode="|" horiz-adv-x="462" 
d="M264 -204h-60v951h60v-951z" />
    <glyph glyph-name="braceright" unicode="}" horiz-adv-x="386" 
d="M21 -205h-69l11 52h53q35 0 54 16t27 52l46 223q26 114 124 132v1q-72 13 -72 89q0 17 9 62l39 185q8 37 8 46q0 42 -55 42h-51l11 52h68q88 0 88 -71q0 -14 -9 -58l-42 -197q-9 -43 -9 -58q0 -35 21.5 -50.5t69.5 -15.5l-11 -53q-59 0 -89.5 -24.5t-41.5 -80.5l-50 -235
q-22 -109 -130 -109z" />
    <glyph glyph-name="asciitilde" unicode="~" 
d="M122 246h-53q0 85 36.5 130.5t97.5 45.5q30 0 58 -12.5t48.5 -31t40.5 -36.5t42.5 -30.5t45.5 -12.5q37 0 58.5 31.5t21.5 91.5h53q0 -84 -36.5 -130t-97.5 -46q-34 0 -68.5 18t-57.5 44q-58 62 -109 62q-37 0 -58.5 -32t-21.5 -92z" />
    <glyph glyph-name="uni00A0" unicode="&#xa0;" horiz-adv-x="282" 
 />
    <glyph glyph-name="exclamdown" unicode="&#xa1;" horiz-adv-x="276" 
d="M215 441h-76l16 75h76zM71 -196h-60l44 205l88 339h28l-56 -339z" />
    <glyph glyph-name="cent" unicode="&#xa2;" horiz-adv-x="555" 
d="M248 38q132 0 184 138h57q-27 -85 -85.5 -134t-143.5 -54l-28 -132h-53l29 133q-72 11 -115.5 66t-43.5 140q0 39 7 71q23 120 93.5 189t172.5 74l29 137h53l-30 -140q73 -9 110.5 -55.5t37.5 -118.5h-57q0 57 -34 91.5t-100 34.5q-83 0 -139.5 -57.5t-75.5 -160.5
q-7 -29 -7 -63q0 -74 37.5 -116.5t101.5 -42.5z" />
    <glyph glyph-name="sterling" unicode="&#xa3;" 
d="M396 725q98 0 155 -48t57 -129q0 -2 -0.5 -5.5t-1 -9.5t-0.5 -11h-55q1 5 1 18q0 62 -44 97t-117 35q-86 0 -136 -50q-51 -50 -51 -125q0 -55 50 -140l236 3l-10 -50l-201 3q13 -29 13 -63q0 -61 -41 -113.5t-109 -83.5h374l-11 -53h-523l11 53h10q91 0 161 57t70 134
q0 33 -17 69l-170 -3l11 50l132 -2q-45 80 -45 141q0 98 70 162t181 64z" />
    <glyph glyph-name="currency" unicode="&#xa4;" 
d="M567 360q0 -94 -54 -161l100 -97l-35 -35l-97 99q-65 -55 -161 -55t-161 55l-97 -99l-35 35l100 97q-54 68 -54 161q0 92 54 160l-100 97l35 35l98 -99q68 54 160 54t160 -54l98 99l35 -35l-100 -97q54 -68 54 -160zM181 217q52 -55 139 -55q86 0 140 55q53 56 53 142
q0 87 -53 143q-54 54 -140 54t-139 -54q-54 -56 -54 -143t54 -142z" />
    <glyph glyph-name="yen" unicode="&#xa5;" 
d="M660 712h72l-327 -369h195l-12 -53h-229l-21 -101h229l-11 -52h-229l-29 -137h-61l29 137h-229l11 52h229l21 101h-228l11 53h196l-175 369h71l152 -335l14 -34l29 38z" />
    <glyph glyph-name="brokenbar" unicode="&#xa6;" horiz-adv-x="462" 
d="M264 411h-60v336h60v-336zM264 -204h-60v336h60v-336z" />
    <glyph glyph-name="section" unicode="&#xa7;" horiz-adv-x="641" 
d="M350 469l88 -27q134 -38 134 -141q0 -56 -37 -97t-103 -62q29 -35 29 -85q0 -77 -58.5 -123t-152.5 -46q-83 0 -131.5 37.5t-48.5 102.5h56q0 -43 34 -66.5t93 -23.5q71 0 112 31.5t41 85.5q0 71 -92 97l-89 26q-133 37 -133 141q0 57 37 98.5t102 60.5q-29 35 -29 85
q0 77 58.5 123t152.5 46q83 0 131.5 -37.5t48.5 -102.5h-56q0 43 -34 66.5t-93 23.5q-71 0 -112 -31.5t-41 -85.5q0 -72 93 -96zM391 176q58 11 92 43t34 77q0 72 -103 100l-87 26q-23 6 -54 22q-58 -11 -92.5 -43.5t-34.5 -76.5q0 -72 103 -100l87 -26q30 -9 55 -22z" />
    <glyph glyph-name="dieresis" unicode="&#xa8;" horiz-adv-x="500" 
d="M262 635h-60l17 77h60zM459 635h-60l16 77h60z" />
    <glyph glyph-name="copyright" unicode="&#xa9;" horiz-adv-x="902" 
d="M471 -13q-159 0 -262 105q-103 103 -103 264q0 162 103 265q102 104 262 104q159 0 263 -104q103 -103 103 -265q0 -161 -103 -264q-104 -105 -263 -105zM241 121q89 -92 230 -92t231 92q89 92 89 235q0 144 -89 236q-90 91 -231 91q-142 0 -230 -91q-89 -92 -89 -236
q0 -143 89 -235zM472 172q-73 0 -115.5 49.5t-42.5 136.5q0 86 42.5 135t115.5 49q60 0 97.5 -28.5t48.5 -80.5l-43 -7q-20 74 -103 74q-54 0 -83.5 -36t-29.5 -106t29.5 -106.5t83.5 -36.5q85 0 103 76l43 -7q-12 -54 -50 -83t-96 -29z" />
    <glyph glyph-name="ordfeminine" unicode="&#xaa;" horiz-adv-x="491" 
d="M342 725q137 0 137 -97q0 -23 -7 -54l-43 -202h-42l7 58q-62 -66 -150 -66q-53 0 -83 25.5t-30 68.5q0 46 35.5 76t95.5 35l160 12l2 8q6 26 6 37q0 56 -92 56q-84 0 -112 -52l-46 17q48 78 162 78zM255 407q55 0 97.5 29.5t54.5 70.5l8 36l-134 -9q-98 -8 -98 -70
q0 -27 19 -42t53 -15z" />
    <glyph glyph-name="guillemotleft" unicode="&#xab;" horiz-adv-x="702" 
d="M292 52l-13 -62l-200 235l14 65l299 234l-16 -74l-253 -198zM572 52l-13 -62l-200 235l14 65l299 234l-16 -74l-253 -198z" />
    <glyph glyph-name="logicalnot" unicode="&#xac;" 
d="M564 117h-52v213h-436v52h488v-265z" />
    <glyph glyph-name="uni00AD" unicode="&#xad;" horiz-adv-x="379" 
d="M322 222h-280l11 55h280z" />
    <glyph glyph-name="registered" unicode="&#xae;" horiz-adv-x="650" 
d="M200 654q70 69 174 69t174 -69t70 -168t-70 -168t-174 -69t-174 69q-71 69 -71 168t71 168zM225 341q61 -59 149 -59t150 59q60 59 60 145t-60 146q-62 59 -150 59t-149 -59q-61 -60 -61 -146q0 -87 61 -145zM472 434l3 -42q2 -20 12 -35h-32q-9 10 -10 35l-2 35
q-2 24 -12.5 34t-36.5 10h-82v-114h-31v265h110q41 0 64 -19t23 -54q0 -48 -42 -63q33 -10 36 -52zM312 499h81q54 0 54 47q0 48 -56 48h-79v-95z" />
    <glyph glyph-name="overscore" unicode="&#xaf;" horiz-adv-x="500" 
d="M483 634h-306l10 47h305z" />
    <glyph glyph-name="degree" unicode="&#xb0;" horiz-adv-x="453" 
d="M411 437q-48 -48 -121 -48q-74 0 -120 48q-48 47 -48 120t48 121q47 47 120 47q72 0 121 -47q47 -49 47 -121q0 -73 -47 -120zM203 470q35 -35 87 -35t87 35q34 34 34 87q0 54 -34 88t-87 34t-87 -34t-34 -88q0 -53 34 -87z" />
    <glyph glyph-name="plusminus" unicode="&#xb1;" 
d="M346 575v-179h249v-52h-249v-178h-52v178h-248v52h248v179h52zM585 14h-529v52h529v-52z" />
    <glyph glyph-name="two.sups" unicode="&#xb2;" horiz-adv-x="449" 
d="M410 372h-322q23 124 157 181l82 34q98 41 98 104q0 33 -23 52t-67 19q-101 0 -125 -101h-54q35 147 182 147q65 0 102.5 -29.5t37.5 -80.5q0 -93 -130 -148l-65 -27q-103 -43 -123 -105h260z" />
    <glyph glyph-name="three.sups" unicode="&#xb3;" horiz-adv-x="437" 
d="M253 360q-71 0 -110 34t-42 97l53 6q0 -93 103 -93q59 0 94 27.5t35 70.5q0 68 -94 68h-34l10 46h33q48 0 78.5 22.5t30.5 59.5q0 32 -24.5 49t-67.5 17q-96 0 -119 -83l-52 6q12 56 59 88.5t118 32.5q63 0 101.5 -28t38.5 -74q0 -39 -27 -69t-69 -40v-1q33 -8 52 -32.5
t19 -58.5q0 -63 -51.5 -104t-134.5 -41z" />
    <glyph glyph-name="acute" unicode="&#xb4;" horiz-adv-x="500" 
d="M303 601h-54l100 152h82z" />
    <glyph glyph-name="uni00B5" unicode="&#xb5;" horiz-adv-x="699" 
d="M201 -203h-60v719h60v-337q0 -67 33 -103t96 -36q76 0 122 49t46 144v283h60v-516h-58l3 102q-51 -115 -180 -115q-92 0 -133 68l-2 -2l13 -152v-104z" />
    <glyph glyph-name="paragraph" unicode="&#xb6;" horiz-adv-x="601" 
d="M229 -103h-52l100 461q-84 0 -129 35t-45 99q0 103 67 161q68 59 178 59h250l-174 -815h-52l162 762h-142z" />
    <glyph glyph-name="middot" unicode="&#xb7;" horiz-adv-x="261" 
d="M184 313h-84l17 78h84z" />
    <glyph glyph-name="cedilla" unicode="&#xb8;" horiz-adv-x="500" 
d="M109 -232h-35l8 38h29q92 0 92 52q0 37 -49 37h-40l-21 32l61 73h47l-55 -65h21q42 0 63.5 -19t21.5 -52q0 -45 -38.5 -70.5t-104.5 -25.5z" />
    <glyph glyph-name="one.sups" unicode="&#xb9;" horiz-adv-x="304" 
d="M242 372h-51l63 297h-124l9 41h66q59 0 73 45l11 44h44z" />
    <glyph glyph-name="ordmasculine" unicode="&#xba;" horiz-adv-x="465" 
d="M275 366q-72 0 -116 43.5t-44 112.5q0 87 57 144q56 57 141 57q72 0 115.5 -43t43.5 -113q0 -86 -56 -144q-57 -57 -141 -57zM280 409q63 0 101 42t38 114q0 55 -29 85t-81 30q-65 0 -103.5 -43t-38.5 -114q0 -54 30 -84t83 -30z" />
    <glyph glyph-name="guillemotright" unicode="&#xbb;" horiz-adv-x="702" 
d="M329 224l-300 -234l16 74l253 198l-169 200l14 62l200 -235zM609 224l-300 -234l16 74l253 198l-169 200l14 62l200 -235z" />
    <glyph glyph-name="onequarter" unicode="&#xbc;" horiz-adv-x="1068" 
d="M289 321h-51l63 297h-124l9 41h66q60 0 73 45l11 44h44zM251 -15h-63l602 742h63zM837 0h-51l23 107l-230 -1l9 45l286 276h54l-59 -280l75 1l-9 -42l-75 1zM861 366l-225 -218l182 -1l46 218z" />
    <glyph glyph-name="onehalf" unicode="&#xbd;" horiz-adv-x="1097" 
d="M289 321h-51l63 297h-124l9 41h66q60 0 73 45l11 44h44zM251 -15h-63l602 742h63zM940 0h-321q22 124 157 181l82 34q97 40 97 104q0 33 -23 52t-67 19q-99 0 -125 -101h-53q16 71 62.5 109t119.5 38q64 0 101.5 -29.5t37.5 -80.5q0 -93 -130 -148l-65 -27
q-54 -24 -83 -48t-40 -57h260z" />
    <glyph glyph-name="threequarters" unicode="&#xbe;" horiz-adv-x="1138" 
d="M278 309q-71 0 -109.5 34t-41.5 97l52 6q0 -93 104 -93q57 0 92.5 27.5t35.5 70.5q0 68 -93 68h-34l9 46h33q48 0 78.5 22.5t30.5 59.5q0 32 -24 49t-67 17q-97 0 -120 -83l-52 6q13 57 59.5 89t118.5 32q63 0 101 -28t38 -74q0 -40 -26.5 -69.5t-69.5 -39.5v-1
q33 -8 52 -32.5t19 -58.5q0 -63 -51.5 -104t-134.5 -41zM335 -15h-63l602 742h63zM921 0h-51l23 107l-230 -1l9 45l286 276h54l-59 -280l75 1l-9 -42l-75 1zM945 366l-225 -218l182 -1l46 218z" />
    <glyph glyph-name="questiondown" unicode="&#xbf;" horiz-adv-x="622" 
d="M407 441h-76l15 75h76zM238 -206q-101 0 -160.5 46t-59.5 127q0 115 140 189l54 29q50 26 71 57q22 31 35 90l3 12h57l-6 -26q-15 -68 -47 -109q-34 -42 -111 -79q-74 -36 -106.5 -73.5t-32.5 -87.5q0 -60 43.5 -92.5t120.5 -32.5q87 0 141 43t71 124h58
q-24 -106 -93 -161.5t-178 -55.5z" />
    <glyph glyph-name="Agrave" unicode="&#xc0;" horiz-adv-x="722" 
d="M436 949l68 -152h-48l-96 152h76zM633 0h-62l-41 223h-340l-136 -223h-69l443 714h67zM426 610l-204 -334h298l-62 334l-5 48z" />
    <glyph glyph-name="Aacute" unicode="&#xc1;" horiz-adv-x="722" 
d="M508 949h82l-128 -152h-55zM633 0h-62l-41 223h-340l-136 -223h-69l443 714h67zM426 610l-204 -334h298l-62 334l-5 48z" />
    <glyph glyph-name="Acircumflex" unicode="&#xc2;" horiz-adv-x="722" 
d="M574 791l-70 121l-120 -121h-68l160 158h62l95 -158h-59zM-15 0l443 714h67l138 -714h-62l-41 223h-340l-136 -223h-69zM426 610l-204 -334h298l-62 334l-5 48z" />
    <glyph glyph-name="Atilde" unicode="&#xc3;" horiz-adv-x="722" 
d="M647 959h47q-35 -152 -135 -152q-31 0 -52 16.5t-29.5 36.5t-24.5 36.5t-38 16.5q-54 0 -82 -106h-47q35 152 136 152q29 0 50.5 -15t31.5 -37q9 -22 25.5 -37.5t36.5 -15.5q28 0 47 24.5t34 80.5zM-15 0l443 714h67l138 -714h-62l-41 223h-340l-136 -223h-69zM426 610
l-204 -334h298l-62 334l-5 48z" />
    <glyph glyph-name="Adieresis" unicode="&#xc4;" horiz-adv-x="722" 
d="M363 893h68l-18 -83h-68zM568 893h68l-18 -83h-68zM-15 0l443 714h67l138 -714h-62l-41 223h-340l-136 -223h-69zM426 610l-204 -334h298l-62 334l-5 48z" />
    <glyph glyph-name="Aring" unicode="&#xc5;" horiz-adv-x="722" 
d="M633 0h-62l-41 223h-340l-136 -223h-69l424 683q-70 33 -70 113q0 54 35.5 89.5t89.5 35.5q55 0 90 -35.5t35 -89.5q0 -44 -24 -76t-63 -43zM383 796q0 -36 22.5 -59t58.5 -23t59 22.5t23 59.5q0 38 -23 60.5t-59 22.5t-58.5 -22.5t-22.5 -60.5zM426 610l-204 -334h298
l-62 334l-5 48z" />
    <glyph glyph-name="AE" unicode="&#xc6;" horiz-adv-x="1133" 
d="M1147 712l-12 -53h-426l-56 -263h396l-11 -53h-397l-62 -290h442l-12 -53h-502l45 210h-328l-175 -210h-64l595 712h567zM602 662l-336 -402h297l85 402h-46z" />
    <glyph glyph-name="Ccedilla" unicode="&#xc7;" horiz-adv-x="742" 
d="M357 40q95 0 168 59q72 58 102 152h60q-34 -121 -124 -193q-91 -72 -209 -73l-44 -52h21q42 0 63.5 -19t21.5 -52q0 -45 -38.5 -70.5t-104.5 -25.5h-35l8 38h29q92 0 92 52q0 37 -49 37h-40l-21 32l52 63q-104 14 -162 91q-58 76 -58 193q0 45 11 100q34 163 137 258
t243 95q113 0 183 -62q68 -62 68 -166h-60q-2 80 -54.5 126.5t-141.5 46.5q-115 0 -200 -80q-84 -79 -114 -223q-11 -49 -11 -94q0 -109 54.5 -171t152.5 -62z" />
    <glyph glyph-name="Egrave" unicode="&#xc8;" horiz-adv-x="671" 
d="M425 949l68 -152h-48l-96 152h76zM685 712l-12 -53h-426l-56 -263h396l-11 -53h-397l-62 -290h441l-12 -53h-501l152 712h488z" />
    <glyph glyph-name="Eacute" unicode="&#xc9;" horiz-adv-x="671" 
d="M497 949h82l-128 -152h-55zM685 712l-12 -53h-426l-56 -263h396l-11 -53h-397l-62 -290h441l-12 -53h-501l152 712h488z" />
    <glyph glyph-name="Ecircumflex" unicode="&#xca;" horiz-adv-x="671" 
d="M563 791l-70 121l-120 -121h-68l160 158h62l95 -158h-59zM685 712l-12 -53h-426l-56 -263h396l-11 -53h-397l-62 -290h441l-12 -53h-501l152 712h488z" />
    <glyph glyph-name="Edieresis" unicode="&#xcb;" horiz-adv-x="671" 
d="M352 893h68l-18 -83h-68zM557 893h68l-18 -83h-68zM685 712l-12 -53h-426l-56 -263h396l-11 -53h-397l-62 -290h441l-12 -53h-501l152 712h488z" />
    <glyph glyph-name="Igrave" unicode="&#xcc;" horiz-adv-x="261" 
d="M271 797h-48l-96 152h76zM106 0h-61l152 712h61z" />
    <glyph glyph-name="Iacute" unicode="&#xcd;" horiz-adv-x="261" 
d="M229 797h-55l101 152h82zM106 0h-61l152 712h61z" />
    <glyph glyph-name="Icircumflex" unicode="&#xce;" horiz-adv-x="261" 
d="M150 791h-68l160 158h62l95 -158h-59l-70 121zM106 0h-61l152 712h61z" />
    <glyph glyph-name="Idieresis" unicode="&#xcf;" horiz-adv-x="261" 
d="M179 810h-68l18 83h68zM384 810h-68l18 83h68zM106 0h-61l152 712h61z" />
    <glyph glyph-name="Eth" unicode="&#xd0;" horiz-adv-x="815" 
d="M282 712h235q127 0 194 -67.5t67 -189.5q0 -45 -11 -106q-34 -169 -134 -259t-265 -90h-238l72 337l-153 -3l11 54l152 -4zM705 356q11 60 11 99q0 204 -215 204h-169l-59 -275l202 4l-11 -54l-201 3l-61 -284h167q276 0 336 303z" />
    <glyph glyph-name="Ntilde" unicode="&#xd1;" horiz-adv-x="749" 
d="M425 913q-54 0 -82 -106h-47q35 152 136 152q29 0 50.5 -15t31.5 -37q9 -22 25.5 -37.5t36.5 -15.5q28 0 47 24.5t34 80.5h47q-35 -152 -135 -152q-31 0 -52 16.5t-29.5 36.5t-24.5 36.5t-38 16.5zM554 83l135 629h57l-152 -712h-62l-296 628l-133 -628h-58l152 712h60z
" />
    <glyph glyph-name="Ograve" unicode="&#xd2;" horiz-adv-x="816" 
d="M528 805h-48l-96 152h76zM366 -15q-127 0 -202 79q-75 80 -75 208q0 51 10 95q35 161 140 259q107 99 254 99q129 0 202 -78q74 -79 74 -207q0 -51 -10 -95q-32 -163 -136 -261q-107 -99 -257 -99zM369 40q124 0 212 85t118 227q8 43 8 86q0 107 -58.5 169.5t-160.5 62.5
q-123 0 -212 -85q-92 -85 -117 -225q-9 -45 -9 -85q0 -107 60 -171q58 -64 159 -64z" />
    <glyph glyph-name="Oacute" unicode="&#xd3;" horiz-adv-x="816" 
d="M486 805h-55l101 152h82zM366 -15q-127 0 -202 79q-75 80 -75 208q0 51 10 95q35 161 140 259q107 99 254 99q129 0 202 -78q74 -79 74 -207q0 -51 -10 -95q-32 -163 -136 -261q-107 -99 -257 -99zM369 40q124 0 212 85t118 227q8 43 8 86q0 107 -58.5 169.5t-160.5 62.5
q-123 0 -212 -85q-92 -85 -117 -225q-9 -45 -9 -85q0 -107 60 -171q58 -64 159 -64z" />
    <glyph glyph-name="Ocircumflex" unicode="&#xd4;" horiz-adv-x="816" 
d="M407 799h-68l160 158h62l95 -158h-59l-70 121zM366 -15q-127 0 -202 79q-75 80 -75 208q0 51 10 95q35 161 140 259q107 99 254 99q129 0 202 -78q74 -79 74 -207q0 -51 -10 -95q-32 -163 -136 -261q-107 -99 -257 -99zM369 40q124 0 212 85t118 227q8 43 8 86
q0 107 -58.5 169.5t-160.5 62.5q-123 0 -212 -85q-92 -85 -117 -225q-9 -45 -9 -85q0 -107 60 -171q58 -64 159 -64z" />
    <glyph glyph-name="Otilde" unicode="&#xd5;" horiz-adv-x="816" 
d="M356 815h-47q35 152 136 152q29 0 50.5 -15t31.5 -37q9 -22 25.5 -37.5t36.5 -15.5q28 0 47 24.5t34 80.5h47q-35 -152 -135 -152q-31 0 -52 16.5t-29.5 36.5t-24.5 36.5t-38 16.5q-54 0 -82 -106zM366 -15q-127 0 -202 79q-75 80 -75 208q0 51 10 95q35 161 140 259
q107 99 254 99q129 0 202 -78q74 -79 74 -207q0 -51 -10 -95q-32 -163 -136 -261q-107 -99 -257 -99zM369 40q124 0 212 85t118 227q8 43 8 86q0 107 -58.5 169.5t-160.5 62.5q-123 0 -212 -85q-92 -85 -117 -225q-9 -45 -9 -85q0 -107 60 -171q58 -64 159 -64z" />
    <glyph glyph-name="Odieresis" unicode="&#xd6;" horiz-adv-x="816" 
d="M437 818h-68l18 83h68zM642 818h-68l18 83h68zM366 -15q-127 0 -202 79q-75 80 -75 208q0 51 10 95q35 161 140 259q107 99 254 99q129 0 202 -78q74 -79 74 -207q0 -51 -10 -95q-32 -163 -136 -261q-107 -99 -257 -99zM369 40q124 0 212 85t118 227q8 43 8 86
q0 107 -58.5 169.5t-160.5 62.5q-123 0 -212 -85q-92 -85 -117 -225q-9 -45 -9 -85q0 -107 60 -171q58 -64 159 -64z" />
    <glyph glyph-name="multiply" unicode="&#xd7;" 
d="M320 275l-213 -213l-35 35l213 213l-213 212l35 35l213 -213l212 213l36 -34l-213 -213l213 -214l-36 -34z" />
    <glyph glyph-name="Oslash" unicode="&#xd8;" horiz-adv-x="816" 
d="M790 720l27 -29l-91 -84q43 -68 43 -167q0 -51 -10 -95q-32 -163 -136 -261q-107 -99 -257 -99q-136 0 -213 92l-93 -86l-27 29l97 89q-41 68 -41 163q0 51 10 95q35 161 140 259q107 99 254 99q135 0 209 -86zM150 275q0 -68 26 -123l481 445q-58 73 -169 73
q-123 0 -212 -85q-92 -85 -117 -225q-9 -45 -9 -85zM707 438q0 73 -28 126l-482 -446q58 -78 172 -78q124 0 212 85t118 227q8 43 8 86z" />
    <glyph glyph-name="Ugrave" unicode="&#xd9;" horiz-adv-x="739" 
d="M495 797h-48l-96 152h76zM327 -14q-112 0 -175.5 47.5t-63.5 136.5q0 32 7 61l102 481h61l-103 -484q-6 -28 -6 -52q0 -136 179 -136q203 0 244 188l103 484h60l-102 -482q-52 -244 -306 -244z" />
    <glyph glyph-name="Uacute" unicode="&#xda;" horiz-adv-x="739" 
d="M453 797h-55l101 152h82zM327 -14q-112 0 -175.5 47.5t-63.5 136.5q0 32 7 61l102 481h61l-103 -484q-6 -28 -6 -52q0 -136 179 -136q203 0 244 188l103 484h60l-102 -482q-52 -244 -306 -244z" />
    <glyph glyph-name="Ucircumflex" unicode="&#xdb;" horiz-adv-x="739" 
d="M375 791h-68l160 158h62l95 -158h-59l-70 121zM327 -14q-112 0 -175.5 47.5t-63.5 136.5q0 32 7 61l102 481h61l-103 -484q-6 -28 -6 -52q0 -136 179 -136q203 0 244 188l103 484h60l-102 -482q-52 -244 -306 -244z" />
    <glyph glyph-name="Udieresis" unicode="&#xdc;" horiz-adv-x="739" 
d="M404 810h-68l18 83h68zM609 810h-68l18 83h68zM327 -14q-112 0 -175.5 47.5t-63.5 136.5q0 32 7 61l102 481h61l-103 -484q-6 -28 -6 -52q0 -136 179 -136q203 0 244 188l103 484h60l-102 -482q-52 -244 -306 -244z" />
    <glyph glyph-name="Yacute" unicode="&#xdd;" horiz-adv-x="681" 
d="M487 949h82l-128 -152h-55zM678 712h77l-372 -422l-62 -290h-61l62 289l-197 423h66l153 -337l14 -38l29 38z" />
    <glyph glyph-name="Thorn" unicode="&#xde;" horiz-adv-x="655" 
d="M228 573h212q90 0 141.5 -42t51.5 -117q0 -114 -73 -178q-74 -66 -194 -66h-224l-36 -170h-61l152 712h61zM154 223h218q91 0 146 51t55 135q0 54 -36.5 82t-103.5 28h-216z" />
    <glyph glyph-name="germandbls" unicode="&#xdf;" horiz-adv-x="606" 
d="M409 393q133 -26 133 -160q0 -106 -81 -169q-82 -64 -208 -64h-66l11 51h70q96 0 154 51q59 50 59 130q0 130 -159 130h-58l11 51h48q85 0 137.5 39.5t52.5 105.5q0 54 -35.5 85t-101.5 31q-141 0 -172 -144l-113 -530h-60l110 518q43 207 238 207q93 0 143 -41.5
t50 -113.5q0 -65 -44 -112.5t-119 -64.5z" />
    <glyph glyph-name="agrave" unicode="&#xe0;" horiz-adv-x="574" 
d="M309 753l68 -152h-48l-96 152h76zM497 46h15l-9 -46h-28q-94 0 -82 95q-65 -108 -208 -108q-72 0 -113.5 36t-41.5 97q0 70 52 113t147 55l135 18q38 5 55 19.5t23 42.5q12 56 -18.5 84t-101.5 28q-69 0 -107.5 -27.5t-55.5 -88.5l-59 2q42 164 231 164q85 0 130 -31
t45 -86q0 -17 -5 -47l-53 -249q-8 -39 3 -55t46 -16zM402 179l21 103q-19 -16 -57 -20l-135 -19q-140 -20 -140 -118q0 -42 30.5 -66t87.5 -24q69 0 119.5 37.5t73.5 106.5z" />
    <glyph glyph-name="aacute" unicode="&#xe1;" horiz-adv-x="574" 
d="M381 753h82l-128 -152h-55zM497 46h15l-9 -46h-28q-94 0 -82 95q-65 -108 -208 -108q-72 0 -113.5 36t-41.5 97q0 70 52 113t147 55l135 18q38 5 55 19.5t23 42.5q12 56 -18.5 84t-101.5 28q-69 0 -107.5 -27.5t-55.5 -88.5l-59 2q42 164 231 164q85 0 130 -31t45 -86
q0 -17 -5 -47l-53 -249q-8 -39 3 -55t46 -16zM402 179l21 103q-19 -16 -57 -20l-135 -19q-140 -20 -140 -118q0 -42 30.5 -66t87.5 -24q69 0 119.5 37.5t73.5 106.5z" />
    <glyph glyph-name="acircumflex" unicode="&#xe2;" horiz-adv-x="574" 
d="M447 595l-70 121l-120 -121h-68l160 158h62l95 -158h-59zM497 46h15l-9 -46h-28q-94 0 -82 95q-65 -108 -208 -108q-72 0 -113.5 36t-41.5 97q0 70 52 113t147 55l135 18q38 5 55 19.5t23 42.5q12 56 -18.5 84t-101.5 28q-69 0 -107.5 -27.5t-55.5 -88.5l-59 2
q42 164 231 164q85 0 130 -31t45 -86q0 -17 -5 -47l-53 -249q-8 -39 3 -55t46 -16zM402 179l21 103q-19 -16 -57 -20l-135 -19q-140 -20 -140 -118q0 -42 30.5 -66t87.5 -24q69 0 119.5 37.5t73.5 106.5z" />
    <glyph glyph-name="atilde" unicode="&#xe3;" horiz-adv-x="574" 
d="M275 717q-56 0 -81 -106h-48q36 152 136 152q29 0 50.5 -15t31.5 -37q9 -22 25.5 -37.5t36.5 -15.5q28 0 47 24.5t34 80.5h47q-35 -152 -135 -152q-31 0 -52 16.5t-29.5 36.5t-24.5 36.5t-38 16.5zM501 366l-53 -249q-8 -39 3 -55t46 -16h15l-9 -46h-28q-94 0 -82 95
q-65 -108 -208 -108q-72 0 -113.5 36t-41.5 97q0 70 52 113t147 55l135 18q38 5 55 19.5t23 42.5q12 56 -18.5 84t-101.5 28q-69 0 -107.5 -27.5t-55.5 -88.5l-59 2q42 164 231 164q85 0 130 -31t45 -86q0 -17 -5 -47zM402 179l21 103q-19 -16 -57 -20l-135 -19
q-140 -20 -140 -118q0 -42 30.5 -66t87.5 -24q69 0 119.5 37.5t73.5 106.5z" />
    <glyph glyph-name="adieresis" unicode="&#xe4;" horiz-adv-x="574" 
d="M247 712h60l-16 -77h-60zM444 712h60l-17 -77h-60zM497 46h15l-9 -46h-28q-94 0 -82 95q-65 -108 -208 -108q-72 0 -113.5 36t-41.5 97q0 70 52 113t147 55l135 18q38 5 55 19.5t23 42.5q12 56 -18.5 84t-101.5 28q-69 0 -107.5 -27.5t-55.5 -88.5l-59 2q42 164 231 164
q85 0 130 -31t45 -86q0 -17 -5 -47l-53 -249q-8 -39 3 -55t46 -16zM402 179l21 103q-19 -16 -57 -20l-135 -19q-140 -20 -140 -118q0 -42 30.5 -66t87.5 -24q69 0 119.5 37.5t73.5 106.5z" />
    <glyph glyph-name="aring" unicode="&#xe5;" horiz-adv-x="574" 
d="M377 591q-54 0 -89.5 35.5t-35.5 88.5q0 54 35.5 89.5t89.5 35.5q55 0 90 -35.5t35 -89.5q0 -53 -35 -88.5t-90 -35.5zM377 798q-36 0 -58.5 -22.5t-22.5 -60.5q0 -37 23 -59.5t58 -22.5q36 0 59 22.5t23 59.5q0 38 -23 60.5t-59 22.5zM497 46h15l-9 -46h-28
q-94 0 -82 95q-65 -108 -208 -108q-72 0 -113.5 36t-41.5 97q0 70 52 113t147 55l135 18q38 5 55 19.5t23 42.5q12 56 -18.5 84t-101.5 28q-69 0 -107.5 -27.5t-55.5 -88.5l-59 2q42 164 231 164q85 0 130 -31t45 -86q0 -17 -5 -47l-53 -249q-8 -39 3 -55t46 -16zM402 179
l21 103q-19 -16 -57 -20l-135 -19q-140 -20 -140 -118q0 -42 30.5 -66t87.5 -24q69 0 119.5 37.5t73.5 106.5z" />
    <glyph glyph-name="ae" unicode="&#xe6;" horiz-adv-x="936" 
d="M881 250h-405q-8 -34 -8 -67q0 -70 37.5 -107.5t105.5 -37.5q123 0 189 118l54 -6q-37 -74 -104 -118t-151 -44q-146 0 -178 131q-83 -132 -238 -132q-71 0 -112 36t-41 93q0 83 61.5 130.5t163.5 47.5h174l14 65q4 19 4 35q0 86 -122 86q-66 0 -104.5 -26.5t-57.5 -83.5
h-59q49 160 235 160q148 0 162 -101q81 99 209 99q87 0 136 -48.5t49 -132.5q0 -36 -14 -97zM700 478q-76 0 -133 -48.5t-81 -135.5h348q4 17 4 41q0 68 -35.5 105.5t-102.5 37.5zM197 35q75 0 133.5 44.5t78.5 121.5l10 49l-178 -5q-71 -1 -111 -31.5t-40 -86.5
q0 -40 28.5 -66t78.5 -26z" />
    <glyph glyph-name="ccedilla" unicode="&#xe7;" horiz-adv-x="555" 
d="M248 38q132 0 184 138h57q-27 -87 -89 -137t-151 -52l-46 -54h21q42 0 63.5 -19t21.5 -52q0 -45 -38.5 -70.5t-104.5 -25.5h-35l8 38h29q92 0 92 52q0 37 -49 37h-40l-21 32l54 65q-71 12 -113 66.5t-42 138.5q0 39 7 71q24 124 98 193.5t181 69.5q91 0 139 -48t48 -129
h-57q0 57 -34 91.5t-100 34.5q-83 0 -139.5 -57.5t-75.5 -160.5q-7 -29 -7 -63q0 -74 37.5 -116.5t101.5 -42.5z" />
    <glyph glyph-name="egrave" unicode="&#xe8;" horiz-adv-x="579" 
d="M320 753l68 -152h-48l-96 152h76zM522 250h-408q-6 -30 -6 -56q0 -72 40 -114.5t107 -42.5q127 0 189 125l53 -6q-31 -76 -95 -122.5t-148 -46.5q-95 0 -150 58t-55 154q0 29 8 74q26 116 100 186q75 69 179 69q93 0 145.5 -51.5t52.5 -141.5q0 -40 -12 -85zM335 478
q-76 0 -132 -48.5t-80 -135.5h352q3 21 3 39q0 68 -37.5 106.5t-105.5 38.5z" />
    <glyph glyph-name="eacute" unicode="&#xe9;" horiz-adv-x="579" 
d="M392 753h82l-128 -152h-55zM522 250h-408q-6 -30 -6 -56q0 -72 40 -114.5t107 -42.5q127 0 189 125l53 -6q-31 -76 -95 -122.5t-148 -46.5q-95 0 -150 58t-55 154q0 29 8 74q26 116 100 186q75 69 179 69q93 0 145.5 -51.5t52.5 -141.5q0 -40 -12 -85zM335 478
q-76 0 -132 -48.5t-80 -135.5h352q3 21 3 39q0 68 -37.5 106.5t-105.5 38.5z" />
    <glyph glyph-name="ecircumflex" unicode="&#xea;" horiz-adv-x="579" 
d="M457 595l-70 121l-120 -121h-68l160 158h62l95 -158h-59zM522 250h-408q-6 -30 -6 -56q0 -72 40 -114.5t107 -42.5q127 0 189 125l53 -6q-31 -76 -95 -122.5t-148 -46.5q-95 0 -150 58t-55 154q0 29 8 74q26 116 100 186q75 69 179 69q93 0 145.5 -51.5t52.5 -141.5
q0 -40 -12 -85zM335 478q-76 0 -132 -48.5t-80 -135.5h352q3 21 3 39q0 68 -37.5 106.5t-105.5 38.5z" />
    <glyph glyph-name="edieresis" unicode="&#xeb;" horiz-adv-x="579" 
d="M258 712h60l-16 -77h-60zM455 712h60l-17 -77h-60zM522 250h-408q-6 -30 -6 -56q0 -72 40 -114.5t107 -42.5q127 0 189 125l53 -6q-31 -76 -95 -122.5t-148 -46.5q-95 0 -150 58t-55 154q0 29 8 74q26 116 100 186q75 69 179 69q93 0 145.5 -51.5t52.5 -141.5
q0 -40 -12 -85zM335 478q-76 0 -132 -48.5t-80 -135.5h352q3 21 3 39q0 68 -37.5 106.5t-105.5 38.5z" />
    <glyph glyph-name="igrave" unicode="&#xec;" horiz-adv-x="227" 
d="M212 601h-48l-96 152h76zM89 0h-60l110 516h60z" />
    <glyph glyph-name="iacute" unicode="&#xed;" horiz-adv-x="227" 
d="M170 601h-55l101 152h82zM89 0h-60l110 516h60z" />
    <glyph glyph-name="icircumflex" unicode="&#xee;" horiz-adv-x="227" 
d="M91 595h-68l160 158h62l95 -158h-59l-70 121zM89 0h-60l110 516h60z" />
    <glyph glyph-name="idieresis" unicode="&#xef;" horiz-adv-x="227" 
d="M126 635h-60l16 77h60zM322 635h-60l17 77h60zM89 0h-60l110 516h60z" />
    <glyph glyph-name="eth" unicode="&#xf0;" horiz-adv-x="573" 
d="M556 709l-146 -86q116 -116 116 -274q0 -150 -77 -256q-78 -105 -211 -105q-90 0 -142 52q-54 51 -54 131q0 116 77 201q77 83 191 83q55 0 98 -22.5t63 -64.5q-5 129 -106 227l-114 -78l-23 34l110 68q-45 39 -101 69l31 37q65 -36 115 -77l149 100zM242 39
q80 0 137 55.5t78 158.5l5 23q-4 61 -43.5 94.5t-105.5 33.5q-92 0 -150 -67q-59 -68 -59 -160q0 -62 37 -100t101 -38z" />
    <glyph glyph-name="ntilde" unicode="&#xf1;" horiz-adv-x="589" 
d="M296 717q-54 0 -81 -106h-48q36 152 136 152q29 0 50.5 -15t31.5 -37q9 -22 25.5 -37.5t36.5 -15.5q28 0 47 24.5t34 80.5h47q-35 -152 -135 -152q-31 0 -52 16.5t-29.5 36.5t-24.5 36.5t-38 16.5zM374 529q72 0 112 -37t40 -102q0 -16 -5 -49l-73 -341h-60l71 337
q5 23 5 44q0 95 -105 95q-73 0 -128 -46t-76 -136l-63 -294h-60l109 516h58l-24 -101q74 114 199 114z" />
    <glyph glyph-name="ograve" unicode="&#xf2;" horiz-adv-x="597" 
d="M398 601h-48l-96 152h76zM254 -13q-94 0 -149.5 57t-55.5 154q0 39 7 71q23 120 102 190q77 70 186 70q94 0 149 -56.5t55 -152.5q0 -39 -7 -71q-24 -124 -100 -193t-187 -69zM258 38q84 0 144 59t79 159q7 38 7 62q0 75 -40 117.5t-110 42.5q-84 0 -143 -58t-79 -158
q-6 -33 -6 -62q0 -76 39.5 -119t108.5 -43z" />
    <glyph glyph-name="oacute" unicode="&#xf3;" horiz-adv-x="597" 
d="M356 601h-55l101 152h82zM254 -13q-94 0 -149.5 57t-55.5 154q0 39 7 71q23 120 102 190q77 70 186 70q94 0 149 -56.5t55 -152.5q0 -39 -7 -71q-24 -124 -100 -193t-187 -69zM258 38q84 0 144 59t79 159q7 38 7 62q0 75 -40 117.5t-110 42.5q-84 0 -143 -58t-79 -158
q-6 -33 -6 -62q0 -76 39.5 -119t108.5 -43z" />
    <glyph glyph-name="ocircumflex" unicode="&#xf4;" horiz-adv-x="597" 
d="M277 595h-68l160 158h62l95 -158h-59l-70 121zM254 -13q-94 0 -149.5 57t-55.5 154q0 39 7 71q23 120 102 190q77 70 186 70q94 0 149 -56.5t55 -152.5q0 -39 -7 -71q-24 -124 -100 -193t-187 -69zM258 38q84 0 144 59t79 159q7 38 7 62q0 75 -40 117.5t-110 42.5
q-84 0 -143 -58t-79 -158q-6 -33 -6 -62q0 -76 39.5 -119t108.5 -43z" />
    <glyph glyph-name="otilde" unicode="&#xf5;" horiz-adv-x="597" 
d="M215 611h-48q36 152 136 152q29 0 50.5 -15t31.5 -37q9 -22 25.5 -37.5t36.5 -15.5q28 0 47 24.5t34 80.5h47q-35 -152 -135 -152q-31 0 -52 16.5t-29.5 36.5t-24.5 36.5t-38 16.5q-54 0 -81 -106zM254 -13q-94 0 -149.5 57t-55.5 154q0 39 7 71q23 120 102 190
q77 70 186 70q94 0 149 -56.5t55 -152.5q0 -39 -7 -71q-24 -124 -100 -193t-187 -69zM258 38q84 0 144 59t79 159q7 38 7 62q0 75 -40 117.5t-110 42.5q-84 0 -143 -58t-79 -158q-6 -33 -6 -62q0 -76 39.5 -119t108.5 -43z" />
    <glyph glyph-name="odieresis" unicode="&#xf6;" horiz-adv-x="597" 
d="M312 635h-60l16 77h60zM508 635h-60l17 77h60zM254 -13q-94 0 -149.5 57t-55.5 154q0 39 7 71q23 120 102 190q77 70 186 70q94 0 149 -56.5t55 -152.5q0 -39 -7 -71q-24 -124 -100 -193t-187 -69zM258 38q84 0 144 59t79 159q7 38 7 62q0 75 -40 117.5t-110 42.5
q-84 0 -143 -58t-79 -158q-6 -33 -6 -62q0 -76 39.5 -119t108.5 -43z" />
    <glyph glyph-name="divide" unicode="&#xf7;" 
d="M364 450h-87v84h87v-84zM597 280h-554v58h554v-58zM364 84h-87v84h87v-84z" />
    <glyph glyph-name="oslash" unicode="&#xf8;" horiz-adv-x="597" 
d="M562 529l27 -27l-69 -66q28 -49 28 -116q0 -39 -7 -71q-24 -124 -100 -193t-187 -69q-93 0 -149 56l-59 -56l-28 27l63 60q-32 50 -32 124q0 39 7 71q23 120 102 190q77 70 186 70q98 0 153 -61zM110 200q0 -47 16 -83l329 311q-41 50 -117 50q-84 0 -143 -58t-79 -158
q-6 -33 -6 -62zM488 318q0 41 -13 76l-327 -311q39 -45 110 -45q84 0 144 59t79 159q7 38 7 62z" />
    <glyph glyph-name="ugrave" unicode="&#xf9;" horiz-adv-x="589" 
d="M315 753l68 -152h-48l-96 152h76zM435 224l62 292h60l-109 -516h-58l24 101q-74 -114 -200 -114q-72 0 -111.5 36.5t-39.5 102.5q0 16 5 49l73 341h60l-72 -337q-4 -20 -4 -44q0 -95 104 -95q74 0 128.5 46.5t77.5 137.5z" />
    <glyph glyph-name="uacute" unicode="&#xfa;" horiz-adv-x="589" 
d="M387 753h82l-128 -152h-55zM435 224l62 292h60l-109 -516h-58l24 101q-74 -114 -200 -114q-72 0 -111.5 36.5t-39.5 102.5q0 16 5 49l73 341h60l-72 -337q-4 -20 -4 -44q0 -95 104 -95q74 0 128.5 46.5t77.5 137.5z" />
    <glyph glyph-name="ucircumflex" unicode="&#xfb;" horiz-adv-x="589" 
d="M452 595l-70 121l-120 -121h-68l160 158h62l95 -158h-59zM435 224l62 292h60l-109 -516h-58l24 101q-74 -114 -200 -114q-72 0 -111.5 36.5t-39.5 102.5q0 16 5 49l73 341h60l-72 -337q-4 -20 -4 -44q0 -95 104 -95q74 0 128.5 46.5t77.5 137.5z" />
    <glyph glyph-name="udieresis" unicode="&#xfc;" horiz-adv-x="589" 
d="M253 712h60l-16 -77h-60zM450 712h60l-17 -77h-60zM435 224l62 292h60l-109 -516h-58l24 101q-74 -114 -200 -114q-72 0 -111.5 36.5t-39.5 102.5q0 16 5 49l73 341h60l-72 -337q-4 -20 -4 -44q0 -95 104 -95q74 0 128.5 46.5t77.5 137.5z" />
    <glyph glyph-name="yacute" unicode="&#xfd;" horiz-adv-x="541" 
d="M358 753h82l-128 -152h-55zM215 58l268 458h65l-378 -625q-35 -57 -65 -75q-32 -20 -86 -20h-51l11 51h39q42 0 64.5 15t47.5 58l47 78l-104 518h61l77 -418z" />
    <glyph glyph-name="thorn" unicode="&#xfe;" horiz-adv-x="603" 
d="M370 527q85 0 134 -54.5t49 -146.5q0 -135 -74 -236t-191 -101q-64 0 -109.5 32t-63.5 87l-66 -312h-60l194 916h60l-61 -288q70 103 188 103zM283 41q93 0 152 87q58 86 58 197q0 70 -36.5 110t-99.5 40q-97 0 -159 -86q-61 -85 -61 -196q0 -71 38.5 -111.5t107.5 -40.5
z" />
    <glyph glyph-name="ydieresis" unicode="&#xff;" horiz-adv-x="541" 
d="M224 712h60l-16 -77h-60zM421 712h60l-17 -77h-60zM215 58l268 458h65l-378 -625q-35 -57 -65 -75q-32 -20 -86 -20h-51l11 51h39q42 0 64.5 15t47.5 58l47 78l-104 518h61l77 -418z" />
    <glyph glyph-name="Amacron" unicode="&#x100;" horiz-adv-x="722" 
d="M333 830l10 47h305l-10 -47h-305zM-15 0l443 714h67l138 -714h-62l-41 223h-340l-136 -223h-69zM426 610l-204 -334h298l-62 334l-5 48z" />
    <glyph glyph-name="amacron" unicode="&#x101;" horiz-adv-x="574" 
d="M206 634l10 47h305l-9 -47h-306zM501 366l-53 -249q-8 -39 3 -55t46 -16h15l-9 -46h-28q-94 0 -82 95q-65 -108 -208 -108q-72 0 -113.5 36t-41.5 97q0 70 52 113t147 55l135 18q38 5 55 19.5t23 42.5q12 56 -18.5 84t-101.5 28q-69 0 -107.5 -27.5t-55.5 -88.5l-59 2
q42 164 231 164q85 0 130 -31t45 -86q0 -17 -5 -47zM402 179l21 103q-19 -16 -57 -20l-135 -19q-140 -20 -140 -118q0 -42 30.5 -66t87.5 -24q69 0 119.5 37.5t73.5 106.5z" />
    <glyph glyph-name="Abreve" unicode="&#x102;" horiz-adv-x="722" 
d="M484 795q-69 0 -104.5 26t-35.5 75q0 15 3 32h42q-3 -11 -3 -22q0 -70 101 -70q112 0 138 92h42q-37 -133 -183 -133zM-15 0l443 714h67l138 -714h-62l-41 223h-340l-136 -223h-69zM426 610l-204 -334h298l-62 334l-5 48z" />
    <glyph glyph-name="abreve" unicode="&#x103;" horiz-adv-x="574" 
d="M357 599q-138 0 -138 101q0 15 3 33h41q-3 -12 -3 -23q0 -70 100 -70q116 0 138 93h42q-35 -134 -183 -134zM501 366l-53 -249q-8 -39 3 -55t46 -16h15l-9 -46h-28q-94 0 -82 95q-65 -108 -208 -108q-72 0 -113.5 36t-41.5 97q0 70 52 113t147 55l135 18q38 5 55 19.5
t23 42.5q12 56 -18.5 84t-101.5 28q-69 0 -107.5 -27.5t-55.5 -88.5l-59 2q42 164 231 164q85 0 130 -31t45 -86q0 -17 -5 -47zM402 179l21 103q-19 -16 -57 -20l-135 -19q-140 -20 -140 -118q0 -42 30.5 -66t87.5 -24q69 0 119.5 37.5t73.5 106.5z" />
    <glyph glyph-name="Aogonek" unicode="&#x104;" horiz-adv-x="722" 
d="M489 -115q0 -42 55 -42h40l-9 -44h-47q-47 0 -72 20.5t-25 53.5q0 35 21.5 57t73.5 48l45 22l-41 223h-340l-136 -223h-69l443 714h67l138 -714l-79 -44q-35 -19 -50 -34.5t-15 -36.5zM426 610l-204 -334h298l-62 334l-5 48z" />
    <glyph glyph-name="aogonek" unicode="&#x105;" horiz-adv-x="574" 
d="M503 0l-80 -44q-33 -17 -47 -31.5t-17 -39.5q0 -42 54 -42h41l-9 -44h-48q-47 0 -72 20.5t-25 53.5q0 35 22 57t74 48l50 25q-62 14 -53 92q-65 -108 -208 -108q-72 0 -113.5 36t-41.5 97q0 70 52 113t147 55l135 18q38 5 55 19.5t23 42.5q12 56 -18.5 84t-101.5 28
q-69 0 -107.5 -27.5t-55.5 -88.5l-59 2q42 164 231 164q85 0 130 -31t45 -86q0 -17 -5 -47l-53 -249q-8 -39 3 -55t46 -16h15zM402 179l21 103q-19 -16 -57 -20l-135 -19q-140 -20 -140 -118q0 -42 30.5 -66t87.5 -24q69 0 119.5 37.5t73.5 106.5z" />
    <glyph glyph-name="Cacute" unicode="&#x106;" horiz-adv-x="742" 
d="M471 805h-55l101 152h82zM352 -15q-122 0 -193 80q-70 79 -70 207q0 45 11 100q34 163 137 258t243 95q113 0 183 -62q68 -62 68 -166h-60q-2 80 -54.5 126.5t-141.5 46.5q-115 0 -200 -80q-84 -79 -114 -223q-11 -49 -11 -94q0 -109 54.5 -171t152.5 -62q95 0 168 59
q72 58 102 152h60q-35 -122 -125 -193q-91 -73 -210 -73z" />
    <glyph glyph-name="cacute" unicode="&#x107;" horiz-adv-x="555" 
d="M348 601h-55l101 152h82zM241 -13q-84 0 -138 56q-54 55 -54 152q0 39 7 71q24 124 98 193.5t181 69.5q91 0 139 -48t48 -129h-57q0 57 -34 91.5t-100 34.5q-83 0 -139.5 -57.5t-75.5 -160.5q-7 -29 -7 -63q0 -74 37.5 -116.5t101.5 -42.5q132 0 184 138h57
q-28 -89 -92 -139t-156 -50z" />
    <glyph glyph-name="Ccircumflex" unicode="&#x108;" horiz-adv-x="742" 
d="M392 799h-68l160 158h62l95 -158h-59l-70 121zM352 -15q-122 0 -193 80q-70 79 -70 207q0 45 11 100q34 163 137 258t243 95q113 0 183 -62q68 -62 68 -166h-60q-2 80 -54.5 126.5t-141.5 46.5q-115 0 -200 -80q-84 -79 -114 -223q-11 -49 -11 -94q0 -109 54.5 -171
t152.5 -62q95 0 168 59q72 58 102 152h60q-35 -122 -125 -193q-91 -73 -210 -73z" />
    <glyph glyph-name="ccircumflex" unicode="&#x109;" horiz-adv-x="555" 
d="M270 595h-68l160 158h62l95 -158h-59l-70 121zM241 -13q-84 0 -138 56q-54 55 -54 152q0 39 7 71q24 124 98 193.5t181 69.5q91 0 139 -48t48 -129h-57q0 57 -34 91.5t-100 34.5q-83 0 -139.5 -57.5t-75.5 -160.5q-7 -29 -7 -63q0 -74 37.5 -116.5t101.5 -42.5
q132 0 184 138h57q-28 -89 -92 -139t-156 -50z" />
    <glyph glyph-name="Cdotaccent" unicode="&#x10a;" horiz-adv-x="742" 
d="M524 839h-60l18 77h60zM352 -15q-122 0 -193 80q-70 79 -70 207q0 45 11 100q34 163 137 258t243 95q113 0 183 -62q68 -62 68 -166h-60q-2 80 -54.5 126.5t-141.5 46.5q-115 0 -200 -80q-84 -79 -114 -223q-11 -49 -11 -94q0 -109 54.5 -171t152.5 -62q95 0 168 59
q72 58 102 152h60q-35 -122 -125 -193q-91 -73 -210 -73z" />
    <glyph glyph-name="cdotaccent" unicode="&#x10b;" horiz-adv-x="555" 
d="M401 635h-60l18 77h60zM241 -13q-84 0 -138 56q-54 55 -54 152q0 39 7 71q24 124 98 193.5t181 69.5q91 0 139 -48t48 -129h-57q0 57 -34 91.5t-100 34.5q-83 0 -139.5 -57.5t-75.5 -160.5q-7 -29 -7 -63q0 -74 37.5 -116.5t101.5 -42.5q132 0 184 138h57
q-28 -89 -92 -139t-156 -50z" />
    <glyph glyph-name="Ccaron" unicode="&#x10c;" horiz-adv-x="742" 
d="M511 799h-62l-95 157h61l69 -120l121 120h66zM352 -15q-122 0 -193 80q-70 79 -70 207q0 45 11 100q34 163 137 258t243 95q113 0 183 -62q68 -62 68 -166h-60q-2 80 -54.5 126.5t-141.5 46.5q-115 0 -200 -80q-84 -79 -114 -223q-11 -49 -11 -94q0 -109 54.5 -171
t152.5 -62q95 0 168 59q72 58 102 152h60q-35 -122 -125 -193q-91 -73 -210 -73z" />
    <glyph glyph-name="ccaron" unicode="&#x10d;" horiz-adv-x="555" 
d="M388 595h-62l-94 157h60l70 -120l120 120h66zM241 -13q-84 0 -138 56q-54 55 -54 152q0 39 7 71q24 124 98 193.5t181 69.5q91 0 139 -48t48 -129h-57q0 57 -34 91.5t-100 34.5q-83 0 -139.5 -57.5t-75.5 -160.5q-7 -29 -7 -63q0 -74 37.5 -116.5t101.5 -42.5
q132 0 184 138h57q-28 -89 -92 -139t-156 -50z" />
    <glyph glyph-name="Dcaron" unicode="&#x10e;" horiz-adv-x="730" 
d="M642 948l-160 -157h-62l-95 157h61l69 -120l121 120h66zM197 712h235q127 0 194 -67.5t67 -189.5q0 -45 -11 -106q-34 -169 -134 -259t-265 -90h-238zM620 356q11 60 11 99q0 204 -216 204h-168l-130 -606h167q276 0 336 303z" />
    <glyph glyph-name="dcaron" unicode="&#x10f;" horiz-adv-x="746" 
d="M486 406l65 306h60l-151 -712h-53l24 110q-31 -56 -83.5 -88.5t-115.5 -32.5q-85 0 -134.5 54t-49.5 147q0 33 6 69q22 121 93 195q70 73 167 73q65 0 110.5 -32.5t61.5 -88.5zM673 514l99 198h71l-123 -198h-47zM245 41q76 0 133.5 56.5t77.5 156.5q8 43 8 69
q0 70 -38.5 111t-106.5 41q-77 0 -132 -60.5t-73 -162.5q-5 -32 -5 -61q0 -70 36 -110t100 -40z" />
    <glyph glyph-name="Dcroat" unicode="&#x110;" horiz-adv-x="815" 
d="M282 712h235q127 0 194 -67.5t67 -189.5q0 -45 -11 -106q-34 -169 -134 -259t-265 -90h-238l72 337l-153 -3l11 54l152 -4zM705 356q11 60 11 99q0 204 -215 204h-169l-59 -275l202 4l-11 -54l-201 3l-61 -284h167q276 0 336 303z" />
    <glyph glyph-name="dslash" unicode="&#x111;" horiz-adv-x="728" 
d="M598 650l120 2l-11 -47l-118 2l-129 -607h-53l24 110q-31 -56 -83.5 -88.5t-115.5 -32.5q-85 0 -134.5 54t-49.5 147q0 33 6 69q22 121 93 195q70 73 167 73q65 0 110.5 -32.5t61.5 -88.5l43 202l-170 -3l10 47l169 -3l13 63h60zM245 41q76 0 133.5 56.5t77.5 156.5
q8 43 8 69q0 70 -38.5 111t-106.5 41q-77 0 -132 -60.5t-73 -162.5q-5 -32 -5 -61q0 -70 36 -110t100 -40z" />
    <glyph glyph-name="Emacron" unicode="&#x112;" horiz-adv-x="671" 
d="M333 877h305l-10 -47h-305zM685 712l-12 -53h-426l-56 -263h396l-11 -53h-397l-62 -290h441l-12 -53h-501l152 712h488z" />
    <glyph glyph-name="emacron" unicode="&#x113;" horiz-adv-x="579" 
d="M227 681h305l-9 -47h-306zM522 250h-408q-6 -30 -6 -56q0 -72 40 -114.5t107 -42.5q127 0 189 125l53 -6q-31 -76 -95 -122.5t-148 -46.5q-95 0 -150 58t-55 154q0 29 8 74q26 116 100 186q75 69 179 69q93 0 145.5 -51.5t52.5 -141.5q0 -40 -12 -85zM335 478
q-76 0 -132 -48.5t-80 -135.5h352q3 21 3 39q0 68 -37.5 106.5t-105.5 38.5z" />
    <glyph glyph-name="Ebreve" unicode="&#x114;" horiz-adv-x="671" 
d="M473 795q-69 0 -104.5 26t-35.5 75q0 15 3 32h42q-3 -11 -3 -22q0 -70 101 -70q112 0 138 92h42q-37 -133 -183 -133zM685 712l-12 -53h-426l-56 -263h396l-11 -53h-397l-62 -290h441l-12 -53h-501l152 712h488z" />
    <glyph glyph-name="ebreve" unicode="&#x115;" horiz-adv-x="579" 
d="M367 599q-138 0 -138 101q0 15 3 33h41q-3 -12 -3 -23q0 -70 100 -70q116 0 138 93h42q-35 -134 -183 -134zM336 528q93 0 145.5 -51.5t52.5 -141.5q0 -40 -12 -85h-408q-6 -30 -6 -56q0 -72 40 -114.5t107 -42.5q127 0 189 125l53 -6q-31 -76 -95 -122.5t-148 -46.5
q-95 0 -150 58t-55 154q0 29 8 74q26 116 100 186q75 69 179 69zM335 478q-76 0 -132 -48.5t-80 -135.5h352q3 21 3 39q0 68 -37.5 106.5t-105.5 38.5z" />
    <glyph glyph-name="Edotaccent" unicode="&#x116;" horiz-adv-x="671" 
d="M462 908h60l-18 -77h-60zM685 712l-12 -53h-426l-56 -263h396l-11 -53h-397l-62 -290h441l-12 -53h-501l152 712h488z" />
    <glyph glyph-name="edotaccent" unicode="&#x117;" horiz-adv-x="579" 
d="M357 712h60l-18 -77h-60zM522 250h-408q-6 -30 -6 -56q0 -72 40 -114.5t107 -42.5q127 0 189 125l53 -6q-31 -76 -95 -122.5t-148 -46.5q-95 0 -150 58t-55 154q0 29 8 74q26 116 100 186q75 69 179 69q93 0 145.5 -51.5t52.5 -141.5q0 -40 -12 -85zM335 478
q-76 0 -132 -48.5t-80 -135.5h352q3 21 3 39q0 68 -37.5 106.5t-105.5 38.5z" />
    <glyph glyph-name="Eogonek" unicode="&#x118;" horiz-adv-x="671" 
d="M685 712l-12 -53h-426l-56 -263h396l-11 -53h-397l-62 -290h441l-12 -53l-79 -44q-35 -19 -50 -34.5t-15 -36.5q0 -42 55 -42h40l-9 -44h-47q-47 0 -72 20.5t-25 53.5q0 35 21.5 57t73.5 48l44 22h-438l152 712h488z" />
    <glyph glyph-name="eogonek" unicode="&#x119;" horiz-adv-x="579" 
d="M522 250h-408q-6 -30 -6 -56q0 -72 40 -114.5t107 -42.5q127 0 189 125l53 -6q-43 -107 -147 -151l-67 -37q-35 -19 -50 -34.5t-15 -36.5q0 -42 55 -42h40l-9 -44h-47q-47 0 -72 20.5t-25 53.5t20.5 55t68.5 47q-93 1 -146.5 59t-53.5 153q0 29 8 74q26 116 100 186
q75 69 179 69q93 0 145.5 -51.5t52.5 -141.5q0 -40 -12 -85zM335 478q-76 0 -132 -48.5t-80 -135.5h352q3 21 3 39q0 68 -37.5 106.5t-105.5 38.5z" />
    <glyph glyph-name="Ecaron" unicode="&#x11a;" horiz-adv-x="671" 
d="M651 948l-160 -157h-62l-95 157h61l69 -120l121 120h66zM685 712l-12 -53h-426l-56 -263h396l-11 -53h-397l-62 -290h441l-12 -53h-501l152 712h488z" />
    <glyph glyph-name="ecaron" unicode="&#x11b;" horiz-adv-x="579" 
d="M545 752l-160 -157h-62l-94 157h60l70 -120l120 120h66zM336 528q93 0 145.5 -51.5t52.5 -141.5q0 -40 -12 -85h-408q-6 -30 -6 -56q0 -72 40 -114.5t107 -42.5q127 0 189 125l53 -6q-31 -76 -95 -122.5t-148 -46.5q-95 0 -150 58t-55 154q0 29 8 74q26 116 100 186
q75 69 179 69zM335 478q-76 0 -132 -48.5t-80 -135.5h352q3 21 3 39q0 68 -37.5 106.5t-105.5 38.5z" />
    <glyph glyph-name="Gcircumflex" unicode="&#x11c;" horiz-adv-x="823" 
d="M600 801l-70 121l-120 -121h-68l160 158h62l95 -158h-59zM675 314h-244l11 53h304l-78 -367h-46l16 122q-102 -136 -275 -136q-126 0 -200 77q-75 77 -75 204q0 49 12 106q34 161 140 258q106 95 256 95q124 0 195 -60.5t71 -167.5h-59q0 84 -55.5 129t-153.5 45
q-126 0 -215 -84t-120 -229q-9 -51 -9 -91q0 -106 57.5 -167t161.5 -61q102 0 180 59t116 164z" />
    <glyph glyph-name="gcircumflex" unicode="&#x11d;" horiz-adv-x="601" 
d="M468 595l-70 121l-120 -121h-68l160 158h62l95 -158h-59zM492 394l26 122h52l-108 -510q-24 -111 -87 -164t-169 -53q-95 0 -147 40t-52 103l59 1q2 -44 37 -70t104 -26q164 0 197 157l24 110q-33 -53 -83.5 -84t-108.5 -31q-88 0 -137.5 54t-49.5 148q0 135 76 235
q75 101 193 101q67 0 113 -36.5t61 -96.5zM246 41q96 0 158 86q61 85 61 195q0 72 -38.5 112.5t-101.5 40.5q-98 0 -156 -85q-59 -86 -59 -199q0 -71 35.5 -110.5t100.5 -39.5z" />
    <glyph glyph-name="Gbreve" unicode="&#x11e;" horiz-adv-x="823" 
d="M511 805q-69 0 -104.5 26t-35.5 75q0 16 3 32h42q-3 -10 -3 -22q0 -70 101 -70q112 0 138 92h42q-37 -133 -183 -133zM675 314h-244l11 53h304l-78 -367h-46l16 122q-102 -136 -275 -136q-126 0 -200 77q-75 77 -75 204q0 49 12 106q34 161 140 258q106 95 256 95
q124 0 195 -60.5t71 -167.5h-59q0 84 -55.5 129t-153.5 45q-126 0 -215 -84t-120 -229q-9 -51 -9 -91q0 -106 57.5 -167t161.5 -61q102 0 180 59t116 164z" />
    <glyph glyph-name="gbreve" unicode="&#x11f;" horiz-adv-x="601" 
d="M378 599q-138 0 -138 101q0 15 3 33h41q-3 -12 -3 -23q0 -70 100 -70q115 0 138 93h42q-35 -134 -183 -134zM492 394l26 122h52l-108 -510q-24 -111 -87 -164t-169 -53q-95 0 -147 40t-52 103l59 1q2 -44 37 -70t104 -26q164 0 197 157l24 110q-33 -53 -83.5 -84
t-108.5 -31q-88 0 -137.5 54t-49.5 148q0 135 76 235q75 101 193 101q67 0 113 -36.5t61 -96.5zM246 41q96 0 158 86q61 85 61 195q0 72 -38.5 112.5t-101.5 40.5q-98 0 -156 -85q-59 -86 -59 -199q0 -71 35.5 -110.5t100.5 -39.5z" />
    <glyph glyph-name="Gdotaccent" unicode="&#x120;" horiz-adv-x="823" 
d="M500 918h60l-18 -77h-60zM675 314h-244l11 53h304l-78 -367h-46l16 122q-102 -136 -275 -136q-126 0 -200 77q-75 77 -75 204q0 49 12 106q34 161 140 258q106 95 256 95q124 0 195 -60.5t71 -167.5h-59q0 84 -55.5 129t-153.5 45q-126 0 -215 -84t-120 -229
q-9 -51 -9 -91q0 -106 57.5 -167t161.5 -61q102 0 180 59t116 164z" />
    <glyph glyph-name="gdotaccent" unicode="&#x121;" horiz-adv-x="601" 
d="M368 712h60l-18 -77h-60zM492 394l26 122h52l-108 -510q-24 -111 -87 -164t-169 -53q-95 0 -147 40t-52 103l59 1q2 -44 37 -70t104 -26q164 0 197 157l24 110q-33 -53 -83.5 -84t-108.5 -31q-88 0 -137.5 54t-49.5 148q0 135 76 235q75 101 193 101q67 0 113 -36.5
t61 -96.5zM246 41q96 0 158 86q61 85 61 195q0 72 -38.5 112.5t-101.5 40.5q-98 0 -156 -85q-59 -86 -59 -199q0 -71 35.5 -110.5t100.5 -39.5z" />
    <glyph glyph-name="uni0122" unicode="&#x122;" horiz-adv-x="823" 
d="M675 314h-244l11 53h304l-78 -367h-46l16 122q-102 -136 -275 -136q-126 0 -200 77q-75 77 -75 204q0 49 12 106q34 161 140 258q106 95 256 95q124 0 195 -60.5t71 -167.5h-59q0 84 -55.5 129t-153.5 45q-126 0 -215 -84t-120 -229q-9 -51 -9 -91q0 -106 57.5 -167
t161.5 -61q102 0 180 59t116 164zM348 -135l-53 -3l13 60h82l-23 -106q-10 -52 -67 -52h-25l6 28h23q29 0 35 29z" />
    <glyph glyph-name="uni0123" unicode="&#x123;" horiz-adv-x="601" 
d="M382 692l53 4l-13 -61h-82l22 102q10 52 67 52h25l-6 -28h-22q-28 0 -36 -29zM492 394l26 122h52l-108 -510q-24 -111 -87 -164t-169 -53q-95 0 -147 40t-52 103l59 1q2 -44 37 -70t104 -26q164 0 197 157l24 110q-33 -53 -83.5 -84t-108.5 -31q-88 0 -137.5 54
t-49.5 148q0 135 76 235q75 101 193 101q67 0 113 -36.5t61 -96.5zM246 41q96 0 158 86q61 85 61 195q0 72 -38.5 112.5t-101.5 40.5q-98 0 -156 -85q-59 -86 -59 -199q0 -71 35.5 -110.5t100.5 -39.5z" />
    <glyph glyph-name="Hcircumflex" unicode="&#x124;" horiz-adv-x="747" 
d="M583 791l-70 121l-120 -121h-68l160 158h62l95 -158h-59zM617 405l66 307h61l-152 -712h-61l75 352h-425l-75 -352h-61l152 712h61l-66 -307h425z" />
    <glyph glyph-name="hcircumflex" unicode="&#x125;" horiz-adv-x="589" 
d="M325 791l-70 121l-120 -121h-68l160 158h62l95 -158h-59zM374 529q72 0 112 -37t40 -102q0 -16 -5 -49l-73 -341h-60l71 337q5 22 5 44q0 95 -105 95q-75 0 -131 -49t-76 -142l-61 -285h-60l152 712h60l-61 -287q72 104 192 104z" />
    <glyph glyph-name="Hbar" unicode="&#x126;" horiz-adv-x="747" 
d="M654 575l29 137h61l-152 -712h-61l71 332h-425l-71 -332h-61l152 712h61l-29 -137h425zM217 522l-29 -136h425l29 136h-425z" />
    <glyph glyph-name="hbar" unicode="&#x127;" horiz-adv-x="636" 
d="M422 529q72 0 111.5 -36.5t39.5 -102.5q0 -16 -5 -49l-73 -341h-60l72 337q4 19 4 44q0 95 -104 95q-75 0 -131.5 -49t-76.5 -142l-61 -285h-60l130 607l-124 -2l10 47l123 -2l13 62h60l-13 -63l169 3l-10 -47l-168 3l-39 -183q72 104 193 104z" />
    <glyph glyph-name="Itilde" unicode="&#x128;" horiz-adv-x="261" 
d="M87 807h-48q36 152 136 152q29 0 50.5 -15t31.5 -37q9 -22 25.5 -37.5t36.5 -15.5q28 0 47 24.5t34 80.5h47q-35 -152 -135 -152q-31 0 -52 16.5t-29.5 36.5t-24.5 36.5t-38 16.5q-54 0 -81 -106zM106 0h-61l152 712h61z" />
    <glyph glyph-name="itilde" unicode="&#x129;" horiz-adv-x="227" 
d="M28 611h-48q36 152 136 152q29 0 50.5 -15t31.5 -37q9 -22 25.5 -37.5t36.5 -15.5q28 0 47 24.5t34 80.5h47q-35 -152 -135 -152q-31 0 -52 16.5t-29.5 36.5t-24.5 36.5t-38 16.5q-56 0 -81 -106zM89 0h-60l110 516h60z" />
    <glyph glyph-name="Imacron" unicode="&#x12a;" horiz-adv-x="261" 
d="M405 830h-305l10 47h305zM106 0h-61l152 712h61z" />
    <glyph glyph-name="imacron" unicode="&#x12b;" horiz-adv-x="227" 
d="M347 634h-306l10 47h305zM89 0h-60l110 516h60z" />
    <glyph glyph-name="Ibreve" unicode="&#x12c;" horiz-adv-x="261" 
d="M251 795q-69 0 -104.5 26t-35.5 75q0 15 3 32h42q-3 -11 -3 -22q0 -70 101 -70q112 0 138 92h42q-37 -133 -183 -133zM106 0h-61l152 712h61z" />
    <glyph glyph-name="ibreve" unicode="&#x12d;" horiz-adv-x="227" 
d="M191 599q-138 0 -138 101q0 15 3 33h41q-3 -12 -3 -23q0 -70 100 -70q116 0 138 93h42q-35 -134 -183 -134zM89 0h-60l110 516h60z" />
    <glyph glyph-name="Iogonek" unicode="&#x12e;" horiz-adv-x="261" 
d="M106 0l-93 -74q-26 -20 -26 -44q0 -18 13.5 -28.5t37.5 -10.5h35l-10 -44h-44q-43 0 -67.5 19.5t-24.5 51.5q0 41 41 71l82 59h-5l152 712h61z" />
    <glyph glyph-name="iogonek" unicode="&#x12f;" horiz-adv-x="227" 
d="M164 635l17 77h60l-17 -77h-60zM32 0h-3l110 516h60l-110 -516l-94 -74q-26 -20 -26 -44q0 -18 14 -28.5t38 -10.5h34l-9 -44h-45q-42 0 -66.5 19t-24.5 52q0 41 40 71z" />
    <glyph glyph-name="Idot" unicode="&#x130;" horiz-adv-x="261" 
d="M282 810h-68l18 83h68zM106 0h-61l152 712h61z" />
    <glyph glyph-name="dotlessi" unicode="&#x131;" horiz-adv-x="227" 
d="M89 0h-60l110 516h60z" />
    <glyph glyph-name="IJ" unicode="&#x132;" horiz-adv-x="815" 
d="M106 0h-61l152 712h61zM471 -12q-83 0 -132.5 40t-49.5 114q0 38 16 98h61q-16 -65 -16 -96q0 -101 124 -101q137 0 167 150l111 519h60l-111 -520q-22 -105 -77.5 -154.5t-152.5 -49.5z" />
    <glyph glyph-name="ij" unicode="&#x133;" horiz-adv-x="454" 
d="M224 635h-60l17 77h60zM451 635h-60l16 77h60zM89 0h-60l110 516h60zM146 -204h-38l10 51h25q43 0 66 19t32 63l125 587h60l-123 -581q-16 -75 -51.5 -107t-105.5 -32z" />
    <glyph glyph-name="Jcircumflex" unicode="&#x134;" horiz-adv-x="561" 
d="M451 791h-68l160 158h62l95 -158h-59l-70 121zM217 -12q-83 0 -132.5 40t-49.5 114q0 38 16 98h61q-16 -65 -16 -96q0 -101 124 -101q137 0 167 150l111 519h60l-111 -520q-22 -105 -77.5 -154.5t-152.5 -49.5z" />
    <glyph glyph-name="jcircumflex" unicode="&#x135;" horiz-adv-x="227" 
d="M90 595h-68l160 158h62l95 -158h-59l-70 121zM-81 -204h-38l10 51h25q43 0 66 19t32 63l125 587h60l-123 -581q-16 -75 -51.5 -107t-105.5 -32z" />
    <glyph glyph-name="uni0136" unicode="&#x136;" horiz-adv-x="713" 
d="M672 712h88l-371 -294l235 -418h-69l-214 382l-184 -144l-51 -238h-61l152 712h61l-85 -397zM314 -131l-53 -4l13 61h82l-23 -107q-11 -51 -66 -51h-26l6 28h23q29 0 35 29z" />
    <glyph glyph-name="uni0137" unicode="&#x137;" horiz-adv-x="559" 
d="M484 516h81l-260 -201l164 -315h-65l-145 283l-128 -97l-40 -186h-60l152 712h60l-98 -460zM237 -131l-53 -4l13 61h82l-23 -107q-10 -51 -66 -51h-26l6 28h23q29 0 35 29z" />
    <glyph glyph-name="kgreenlandic" unicode="&#x138;" horiz-adv-x="559" 
d="M484 516h81l-260 -201l164 -315h-65l-145 283l-128 -97l-40 -186h-60l110 516h60l-56 -264z" />
    <glyph glyph-name="Lacute" unicode="&#x139;" horiz-adv-x="608" 
d="M292 949h82l-128 -152h-55zM258 712l-141 -659h398l-12 -53h-458l152 712h61z" />
    <glyph glyph-name="lacute" unicode="&#x13a;" horiz-adv-x="233" 
d="M214 797h-55l101 152h82zM92 0h-60l151 712h60z" />
    <glyph glyph-name="uni013B" unicode="&#x13b;" horiz-adv-x="608" 
d="M258 712l-141 -659h398l-12 -53h-458l152 712h61zM270 -131l-53 -4l13 61h82l-23 -107q-11 -51 -66 -51h-26l6 28h23q29 0 35 29z" />
    <glyph glyph-name="uni013C" unicode="&#x13c;" horiz-adv-x="233" 
d="M92 0h-60l151 712h60zM0 -232h-26l6 28h23q29 0 35 29l9 44l-53 -4l13 61h82l-23 -107q-10 -51 -66 -51z" />
    <glyph glyph-name="Lcaron" unicode="&#x13d;" horiz-adv-x="608" 
d="M197 712h61l-141 -659h398l-12 -53h-458zM464 712h71l-122 -198h-47z" />
    <glyph glyph-name="lcaron" unicode="&#x13e;" horiz-adv-x="369" 
d="M92 0h-60l151 712h60zM344 514h-47l98 198h71z" />
    <glyph glyph-name="Ldot" unicode="&#x13f;" horiz-adv-x="608" 
d="M258 712l-141 -659h398l-12 -53h-458l152 712h61zM355 409h84l-17 -78h-84z" />
    <glyph glyph-name="ldot" unicode="&#x140;" horiz-adv-x="328" 
d="M92 0h-60l151 712h60zM312 316h-83l17 78h83z" />
    <glyph glyph-name="Lslash" unicode="&#x141;" horiz-adv-x="722" 
d="M616 457l-327 -132l-58 -272h399l-12 -53h-459l64 298l-200 -83l24 56l186 74l78 367h61l-72 -340l340 141z" />
    <glyph glyph-name="lslash" unicode="&#x142;" horiz-adv-x="441" 
d="M286 420l151 75l-13 -60l-149 -67l-78 -368h-60l71 336l-153 -77l13 60l151 69l69 324h60z" />
    <glyph glyph-name="Nacute" unicode="&#x143;" horiz-adv-x="749" 
d="M519 949h82l-128 -152h-55zM554 83l135 629h57l-152 -712h-62l-296 628l-133 -628h-58l152 712h60z" />
    <glyph glyph-name="nacute" unicode="&#x144;" horiz-adv-x="589" 
d="M403 753h82l-128 -152h-55zM374 529q72 0 112 -37t40 -102q0 -16 -5 -49l-73 -341h-60l71 337q5 23 5 44q0 95 -105 95q-73 0 -128 -46t-76 -136l-63 -294h-60l109 516h58l-24 -101q74 114 199 114z" />
    <glyph glyph-name="uni0145" unicode="&#x145;" horiz-adv-x="749" 
d="M554 83l135 629h57l-152 -712h-62l-296 628l-133 -628h-58l152 712h60zM309 -131l-53 -4l13 61h82l-23 -107q-10 -51 -66 -51h-26l6 28h23q29 0 35 29z" />
    <glyph glyph-name="uni0146" unicode="&#x146;" horiz-adv-x="589" 
d="M374 529q72 0 112 -37t40 -102q0 -16 -5 -49l-73 -341h-60l71 337q5 23 5 44q0 95 -105 95q-73 0 -128 -46t-76 -136l-63 -294h-60l109 516h58l-24 -101q74 114 199 114zM237 -131l-53 -4l13 61h82l-23 -107q-10 -51 -66 -51h-26l6 28h23q29 0 35 29z" />
    <glyph glyph-name="Ncaron" unicode="&#x147;" horiz-adv-x="749" 
d="M672 948l-160 -157h-62l-95 157h61l69 -120l121 120h66zM554 83l135 629h57l-152 -712h-62l-296 628l-133 -628h-58l152 712h60z" />
    <glyph glyph-name="ncaron" unicode="&#x148;" horiz-adv-x="589" 
d="M556 752l-160 -157h-62l-94 157h60l70 -120l120 120h66zM374 529q72 0 112 -37t40 -102q0 -16 -5 -49l-73 -341h-60l71 337q5 23 5 44q0 95 -105 95q-73 0 -128 -46t-76 -136l-63 -294h-60l109 516h58l-24 -101q74 114 199 114z" />
    <glyph glyph-name="napostrophe" unicode="&#x149;" horiz-adv-x="771" 
d="M122 628l16 77h95l-27 -133q-19 -88 -106 -88h-9l8 37h9q27 0 40.5 14t21.5 49l10 49zM557 529q72 0 111.5 -36.5t39.5 -102.5q0 -16 -5 -49l-73 -341h-60l72 337q4 20 4 44q0 95 -104 95q-74 0 -128.5 -46.5t-77.5 -137.5l-62 -292h-60l109 516h58l-24 -101
q73 114 200 114z" />
    <glyph glyph-name="Eng" unicode="&#x14a;" horiz-adv-x="750" 
d="M689 712h57l-126 -592h1l-39 -183q-15 -73 -55.5 -107t-112.5 -34h-31l11 51h30q43 0 66 19t33 63l15 73l-301 624l-133 -626h-58l151 712h66l295 -614z" />
    <glyph glyph-name="eng" unicode="&#x14b;" horiz-adv-x="589" 
d="M374 529q72 0 112 -37t40 -102q0 -16 -5 -49l-86 -404q-16 -73 -57 -107t-113 -34h-25l10 51h25q43 0 65.5 19t32.5 63l86 408q5 23 5 44q0 95 -105 95q-73 0 -128 -46t-76 -136l-63 -294h-60l109 516h58l-24 -101q74 114 199 114z" />
    <glyph glyph-name="Omacron" unicode="&#x14c;" horiz-adv-x="816" 
d="M662 838h-305l10 47h305zM366 -15q-127 0 -202 79q-75 80 -75 208q0 51 10 95q35 161 140 259q107 99 254 99q129 0 202 -78q74 -79 74 -207q0 -51 -10 -95q-32 -163 -136 -261q-107 -99 -257 -99zM369 40q124 0 212 85t118 227q8 43 8 86q0 107 -58.5 169.5t-160.5 62.5
q-123 0 -212 -85q-92 -85 -117 -225q-9 -45 -9 -85q0 -107 60 -171q58 -64 159 -64z" />
    <glyph glyph-name="omacron" unicode="&#x14d;" horiz-adv-x="597" 
d="M533 634h-306l10 47h305zM254 -13q-94 0 -149.5 57t-55.5 154q0 39 7 71q23 120 102 190q77 70 186 70q94 0 149 -56.5t55 -152.5q0 -39 -7 -71q-24 -124 -100 -193t-187 -69zM258 38q84 0 144 59t79 159q7 38 7 62q0 75 -40 117.5t-110 42.5q-84 0 -143 -58t-79 -158
q-6 -33 -6 -62q0 -76 39.5 -119t108.5 -43z" />
    <glyph glyph-name="Obreve" unicode="&#x14e;" horiz-adv-x="816" 
d="M508 803q-69 0 -104.5 26t-35.5 75q0 16 3 32h42q-3 -11 -3 -22q0 -70 101 -70q112 0 138 92h42q-37 -133 -183 -133zM366 -15q-127 0 -202 79q-75 80 -75 208q0 51 10 95q35 161 140 259q107 99 254 99q129 0 202 -78q74 -79 74 -207q0 -51 -10 -95q-32 -163 -136 -261
q-107 -99 -257 -99zM369 40q124 0 212 85t118 227q8 43 8 86q0 107 -58.5 169.5t-160.5 62.5q-123 0 -212 -85q-92 -85 -117 -225q-9 -45 -9 -85q0 -107 60 -171q58 -64 159 -64z" />
    <glyph glyph-name="obreve" unicode="&#x14f;" horiz-adv-x="597" 
d="M377 599q-138 0 -138 101q0 15 3 33h41q-3 -12 -3 -23q0 -70 100 -70q116 0 138 93h42q-35 -134 -183 -134zM254 -13q-94 0 -149.5 57t-55.5 154q0 39 7 71q23 120 102 190q77 70 186 70q94 0 149 -56.5t55 -152.5q0 -39 -7 -71q-24 -124 -100 -193t-187 -69zM258 38
q84 0 144 59t79 159q7 38 7 62q0 75 -40 117.5t-110 42.5q-84 0 -143 -58t-79 -158q-6 -33 -6 -62q0 -76 39.5 -119t108.5 -43z" />
    <glyph glyph-name="Ohungarumlaut" unicode="&#x150;" horiz-adv-x="816" 
d="M423 798h-53l99 163h70zM605 798h-53l106 163h71zM366 -15q-127 0 -202 79q-75 80 -75 208q0 51 10 95q35 161 140 259q107 99 254 99q129 0 202 -78q74 -79 74 -207q0 -51 -10 -95q-32 -163 -136 -261q-107 -99 -257 -99zM369 40q124 0 212 85t118 227q8 43 8 86
q0 107 -58.5 169.5t-160.5 62.5q-123 0 -212 -85q-92 -85 -117 -225q-9 -45 -9 -85q0 -107 60 -171q58 -64 159 -64z" />
    <glyph glyph-name="ohungarumlaut" unicode="&#x151;" horiz-adv-x="597" 
d="M293 594h-53l99 163h71zM475 594h-53l107 163h70zM254 -13q-94 0 -149.5 57t-55.5 154q0 39 7 71q23 120 102 190q77 70 186 70q94 0 149 -56.5t55 -152.5q0 -39 -7 -71q-24 -124 -100 -193t-187 -69zM258 38q84 0 144 59t79 159q7 38 7 62q0 75 -40 117.5t-110 42.5
q-84 0 -143 -58t-79 -158q-6 -33 -6 -62q0 -76 39.5 -119t108.5 -43z" />
    <glyph glyph-name="OE" unicode="&#x152;" horiz-adv-x="1250" 
d="M1264 712l-12 -53h-426l-56 -263h397l-11 -53h-398l-62 -290h442l-12 -53h-502l29 137q-108 -152 -289 -152q-127 0 -200 79q-75 80 -75 208q0 51 10 95q35 160 140 259q107 99 252 99q97 0 161.5 -47.5t87.5 -135.5l36 170h488zM369 40q124 0 212 85t118 227q8 43 8 86
q0 107 -58.5 169.5t-160.5 62.5q-123 0 -212 -85q-90 -85 -117 -225q-9 -45 -9 -85q0 -107 60 -171q58 -64 159 -64z" />
    <glyph glyph-name="oe" unicode="&#x153;" horiz-adv-x="1005" 
d="M949 250h-408q-5 -42 -5 -66q0 -70 37.5 -108t106.5 -38q123 0 187 118l54 -6q-37 -75 -101 -118.5t-146 -43.5q-74 0 -123.5 34.5t-66.5 95.5q-42 -62 -103 -96.5t-132 -34.5q-93 0 -147 55.5t-54 151.5q0 134 86 235q85 100 216 100q71 0 121.5 -33.5t68.5 -93.5
q86 126 229 126q91 0 142 -48.5t51 -137.5q0 -46 -13 -92zM255 38q103 0 169 88q65 89 65 202q0 71 -38.5 110.5t-106.5 39.5q-103 0 -169 -84q-66 -86 -66 -193q0 -78 38.5 -120.5t107.5 -42.5zM766 478q-77 0 -133 -50t-81 -134h347q6 25 6 53q0 60 -36.5 95.5
t-102.5 35.5z" />
    <glyph glyph-name="Racute" unicode="&#x154;" horiz-adv-x="727" 
d="M481 949h82l-128 -152h-55zM692 559q0 -83 -50 -141.5t-132 -72.5q94 -19 94 -115q0 -8 -2 -32l-19 -198h-61l19 190q2 26 2 35q0 52 -28.5 73.5t-95.5 21.5h-245l-68 -320h-61l152 712h310q87 0 136 -40.5t49 -112.5zM186 374h235q94 0 151 48.5t57 129.5
q0 52 -34.5 79.5t-101.5 27.5h-246z" />
    <glyph glyph-name="racute" unicode="&#x155;" horiz-adv-x="390" 
d="M323 753h82l-128 -152h-55zM366 530q25 0 43 -5l-13 -58q-25 4 -44 4q-64 0 -122 -47q-58 -49 -77 -138l-61 -286h-60l109 516h56l-23 -109q74 123 192 123z" />
    <glyph glyph-name="uni0156" unicode="&#x156;" horiz-adv-x="727" 
d="M692 559q0 -83 -50 -141.5t-132 -72.5q94 -19 94 -115q0 -8 -2 -32l-19 -198h-61l19 190q2 26 2 35q0 52 -28.5 73.5t-95.5 21.5h-245l-68 -320h-61l152 712h310q87 0 136 -40.5t49 -112.5zM186 374h235q94 0 151 48.5t57 129.5q0 52 -34.5 79.5t-101.5 27.5h-246z
M311 -131l-53 -4l13 61h82l-23 -107q-10 -51 -66 -51h-26l6 28h23q29 0 35 29z" />
    <glyph glyph-name="uni0157" unicode="&#x157;" horiz-adv-x="390" 
d="M366 530q25 0 43 -5l-13 -58q-25 4 -44 4q-64 0 -122 -47q-58 -49 -77 -138l-61 -286h-60l109 516h56l-23 -109q74 123 192 123zM46 -131l-53 -4l13 61h82l-23 -107q-11 -51 -66 -51h-26l6 28h23q29 0 35 29z" />
    <glyph glyph-name="Rcaron" unicode="&#x158;" horiz-adv-x="727" 
d="M635 948l-160 -157h-62l-95 157h61l69 -120l121 120h66zM692 559q0 -83 -50 -141.5t-132 -72.5q94 -19 94 -115q0 -8 -2 -32l-19 -198h-61l19 190q2 26 2 35q0 52 -28.5 73.5t-95.5 21.5h-245l-68 -320h-61l152 712h310q87 0 136 -40.5t49 -112.5zM186 374h235
q94 0 151 48.5t57 129.5q0 52 -34.5 79.5t-101.5 27.5h-246z" />
    <glyph glyph-name="rcaron" unicode="&#x159;" horiz-adv-x="390" 
d="M476 752l-160 -157h-62l-94 157h60l70 -120l120 120h66zM197 516l-23 -109q74 123 192 123q25 0 43 -5l-13 -58q-25 4 -44 4q-64 0 -122 -47q-58 -49 -77 -138l-61 -286h-60l109 516h56z" />
    <glyph glyph-name="Sacute" unicode="&#x15a;" horiz-adv-x="673" 
d="M412 807h-55l101 152h82zM303 -14q-121 0 -186.5 52t-65.5 153q0 23 1 30h58q-2 -22 -2 -27q0 -77 51 -117t145 -40q109 0 173 47t64 131q0 47 -28.5 74t-94.5 41l-114 24q-161 35 -161 159q0 102 77 158q76 55 201 55q105 0 165.5 -47t60.5 -131q0 -22 -1 -28h-58
q0 4 0.5 8t1 7t0.5 5v3q0 63 -46 98t-128 35q-97 0 -156 -43t-59 -116q0 -83 115 -107l129 -27q154 -34 154 -164q0 -111 -81 -172q-82 -61 -215 -61z" />
    <glyph glyph-name="sacute" unicode="&#x15b;" horiz-adv-x="515" 
d="M310 608h-55l101 152h82zM218 -13q-93 0 -141.5 42t-48.5 121h58q0 -113 138 -113q75 0 117.5 30.5t42.5 85.5q0 33 -21 52t-67 27l-79 16q-130 25 -130 122q0 76 55.5 116t152.5 40q85 0 132 -39.5t47 -112.5h-57q0 49 -33.5 76.5t-94.5 27.5q-66 0 -105.5 -26
t-39.5 -73q0 -33 21.5 -51.5t68.5 -27.5l79 -15q130 -25 130 -124q0 -84 -60.5 -129t-164.5 -45z" />
    <glyph glyph-name="Scircumflex" unicode="&#x15c;" horiz-adv-x="673" 
d="M333 801h-68l160 158h62l95 -158h-59l-70 121zM303 -14q-121 0 -186.5 52t-65.5 153q0 23 1 30h58q-2 -22 -2 -27q0 -77 51 -117t145 -40q109 0 173 47t64 131q0 47 -28.5 74t-94.5 41l-114 24q-161 35 -161 159q0 102 77 158q76 55 201 55q105 0 165.5 -47t60.5 -131
q0 -22 -1 -28h-58q0 4 0.5 8t1 7t0.5 5v3q0 63 -46 98t-128 35q-97 0 -156 -43t-59 -116q0 -83 115 -107l129 -27q154 -34 154 -164q0 -111 -81 -172q-82 -61 -215 -61z" />
    <glyph glyph-name="scircumflex" unicode="&#x15d;" horiz-adv-x="515" 
d="M232 602h-68l160 158h62l95 -158h-59l-70 121zM218 -13q-93 0 -141.5 42t-48.5 121h58q0 -113 138 -113q75 0 117.5 30.5t42.5 85.5q0 33 -21 52t-67 27l-79 16q-130 25 -130 122q0 76 55.5 116t152.5 40q85 0 132 -39.5t47 -112.5h-57q0 49 -33.5 76.5t-94.5 27.5
q-66 0 -105.5 -26t-39.5 -73q0 -33 21.5 -51.5t68.5 -27.5l79 -15q130 -25 130 -124q0 -84 -60.5 -129t-164.5 -45z" />
    <glyph glyph-name="Scedilla" unicode="&#x15e;" horiz-adv-x="673" 
d="M646 520h-58q0 4 0.5 8t1 7t0.5 5v3q0 63 -46 98t-128 35q-97 0 -156 -43t-59 -116q0 -83 115 -107l129 -27q154 -34 154 -164q0 -107 -77 -169q-77 -61 -207 -64l-49 -58h20q42 0 64 -19t22 -52q0 -45 -38.5 -70.5t-104.5 -25.5h-35l7 38h30q92 0 92 52q0 37 -49 37h-41
l-21 32l57 67q-106 7 -162 58.5t-56 145.5q0 23 1 30h58q-2 -22 -2 -27q0 -77 51 -117t145 -40q109 0 173 47t64 131q0 47 -28.5 74t-94.5 41l-114 24q-161 35 -161 159q0 102 77 158q76 55 201 55q105 0 165.5 -47t60.5 -131q0 -22 -1 -28z" />
    <glyph glyph-name="scedilla" unicode="&#x15f;" horiz-adv-x="515" 
d="M234 300l79 -15q130 -25 130 -124q0 -83 -59 -128t-162 -46l-46 -54h20q42 0 64 -19t22 -52q0 -45 -38.5 -70.5t-104.5 -25.5h-35l7 38h30q92 0 92 52q0 37 -49 37h-41l-21 32l55 64q-149 18 -149 161h58q0 -113 138 -113q75 0 117.5 30.5t42.5 85.5q0 33 -21 52t-67 27
l-79 16q-130 25 -130 122q0 76 55.5 116t152.5 40q85 0 132 -39.5t47 -112.5h-57q0 49 -33.5 76.5t-94.5 27.5q-66 0 -105.5 -26t-39.5 -73q0 -33 21.5 -51.5t68.5 -27.5z" />
    <glyph glyph-name="Scaron" unicode="&#x160;" horiz-adv-x="673" 
d="M452 801h-62l-95 157h61l69 -120l121 120h66zM303 -14q-121 0 -186.5 52t-65.5 153q0 23 1 30h58q-2 -22 -2 -27q0 -77 51 -117t145 -40q109 0 173 47t64 131q0 47 -28.5 74t-94.5 41l-114 24q-161 35 -161 159q0 102 77 158q76 55 201 55q105 0 165.5 -47t60.5 -131
q0 -22 -1 -28h-58q0 4 0.5 8t1 7t0.5 5v3q0 63 -46 98t-128 35q-97 0 -156 -43t-59 -116q0 -83 115 -107l129 -27q154 -34 154 -164q0 -111 -81 -172q-82 -61 -215 -61z" />
    <glyph glyph-name="scaron" unicode="&#x161;" horiz-adv-x="515" 
d="M350 602h-62l-94 157h60l70 -120l120 120h66zM218 -13q-93 0 -141.5 42t-48.5 121h58q0 -113 138 -113q75 0 117.5 30.5t42.5 85.5q0 33 -21 52t-67 27l-79 16q-130 25 -130 122q0 76 55.5 116t152.5 40q85 0 132 -39.5t47 -112.5h-57q0 49 -33.5 76.5t-94.5 27.5
q-66 0 -105.5 -26t-39.5 -73q0 -33 21.5 -51.5t68.5 -27.5l79 -15q130 -25 130 -124q0 -84 -60.5 -129t-164.5 -45z" />
    <glyph glyph-name="uni0162" unicode="&#x162;" 
d="M433 659l-140 -659h-5l-55 -65h20q42 0 64 -19t22 -52q0 -45 -38.5 -70.5t-104.5 -25.5h-35l7 38h30q92 0 92 52q0 37 -49 37h-41l-21 32l62 73h-9l141 659h-249l12 53h558l-12 -53h-249z" />
    <glyph glyph-name="uni0163" unicode="&#x163;" horiz-adv-x="357" 
d="M227 471l-7 -29l-68 -323q-4 -12 -4 -28q0 -40 55 -40h63l-11 -51h-73h-13l-47 -55h20q42 0 64 -18.5t22 -51.5q0 -47 -38 -71.5t-105 -24.5h-35l7 37h30q92 0 92 53q0 36 -49 36h-41l-21 32l61 72q-42 17 -42 68q0 12 5 40l69 325l6 29l-90 -2l10 47l89 -2l6 29l27 126
h60l-27 -125l-6 -30l130 2l-10 -47z" />
    <glyph glyph-name="Tcaron" unicode="&#x164;" 
d="M616 948l-160 -157h-62l-95 157h61l69 -120l121 120h66zM136 712h558l-12 -53h-249l-140 -659h-61l141 659h-249z" />
    <glyph glyph-name="tcaron" unicode="&#x165;" horiz-adv-x="356" 
d="M327 595l98 198h72l-123 -198h-47zM269 669l-27 -125l-6 -30l130 2l-10 -47l-129 2l-7 -29l-68 -323q-4 -12 -4 -28q0 -40 55 -40h63l-11 -51h-73q-95 0 -95 77q0 12 5 40l69 325l6 29l-90 -2l10 47l89 -2l6 29l27 126h60z" />
    <glyph glyph-name="Tbar" unicode="&#x166;" 
d="M694 712l-12 -53h-249l-58 -272l236 3l-12 -53l-234 3l-72 -340h-61l73 340l-226 -3l12 53l224 -3l58 272h-249l12 53h558z" />
    <glyph glyph-name="tbar" unicode="&#x167;" horiz-adv-x="372" 
d="M380 516l-10 -47l-128 2l-39 -177l131 2l-11 -47l-128 3l-29 -133q-3 -15 -3 -28q0 -40 54 -40h64l-11 -51h-74q-95 0 -95 77q0 12 5 40l29 135l-91 -3l11 47l89 -2l38 177l-90 -2l10 47l89 -2l33 155h60l-33 -155z" />
    <glyph glyph-name="Utilde" unicode="&#x168;" horiz-adv-x="739" 
d="M312 807h-48q36 152 136 152q29 0 50.5 -15t31.5 -37q9 -22 25.5 -37.5t36.5 -15.5q28 0 47 24.5t34 80.5h47q-35 -152 -135 -152q-31 0 -52 16.5t-29.5 36.5t-24.5 36.5t-38 16.5q-56 0 -81 -106zM327 -14q-112 0 -175.5 47.5t-63.5 136.5q0 32 7 61l102 481h61
l-103 -484q-6 -28 -6 -52q0 -136 179 -136q203 0 244 188l103 484h60l-102 -482q-52 -244 -306 -244z" />
    <glyph glyph-name="utilde" unicode="&#x169;" horiz-adv-x="589" 
d="M280 717q-54 0 -81 -106h-48q36 152 136 152q29 0 50.5 -15t31.5 -37q9 -22 25.5 -37.5t36.5 -15.5q28 0 47 24.5t34 80.5h47q-35 -152 -135 -152q-31 0 -52 16.5t-29.5 36.5t-24.5 36.5t-38 16.5zM435 224l62 292h60l-109 -516h-58l24 101q-74 -114 -200 -114
q-72 0 -111.5 36.5t-39.5 102.5q0 16 5 49l73 341h60l-72 -337q-4 -20 -4 -44q0 -95 104 -95q74 0 128.5 46.5t77.5 137.5z" />
    <glyph glyph-name="Umacron" unicode="&#x16a;" horiz-adv-x="739" 
d="M630 830h-305l10 47h305zM327 -14q-112 0 -175.5 47.5t-63.5 136.5q0 32 7 61l102 481h61l-103 -484q-6 -28 -6 -52q0 -136 179 -136q203 0 244 188l103 484h60l-102 -482q-52 -244 -306 -244z" />
    <glyph glyph-name="umacron" unicode="&#x16b;" horiz-adv-x="589" 
d="M222 681h305l-9 -47h-306zM435 224l62 292h60l-109 -516h-58l24 101q-74 -114 -200 -114q-72 0 -111.5 36.5t-39.5 102.5q0 16 5 49l73 341h60l-72 -337q-4 -20 -4 -44q0 -95 104 -95q74 0 128.5 46.5t77.5 137.5z" />
    <glyph glyph-name="Ubreve" unicode="&#x16c;" horiz-adv-x="739" 
d="M475 795q-69 0 -104.5 26t-35.5 75q0 15 3 32h42q-3 -11 -3 -22q0 -70 101 -70q112 0 138 92h42q-37 -133 -183 -133zM327 -14q-112 0 -175.5 47.5t-63.5 136.5q0 32 7 61l102 481h61l-103 -484q-6 -28 -6 -52q0 -136 179 -136q203 0 244 188l103 484h60l-102 -482
q-52 -244 -306 -244z" />
    <glyph glyph-name="ubreve" unicode="&#x16d;" horiz-adv-x="589" 
d="M362 599q-138 0 -138 101q0 15 3 33h41q-3 -12 -3 -23q0 -70 100 -70q115 0 138 93h42q-35 -134 -183 -134zM435 224l62 292h60l-109 -516h-58l24 101q-74 -114 -200 -114q-72 0 -111.5 36.5t-39.5 102.5q0 16 5 49l73 341h60l-72 -337q-4 -20 -4 -44q0 -95 104 -95
q74 0 128.5 46.5t77.5 137.5z" />
    <glyph glyph-name="Uring" unicode="&#x16e;" horiz-adv-x="739" 
d="M490 787q-55 0 -90.5 35.5t-35.5 88.5q0 54 35.5 89.5t90.5 35.5q54 0 89 -35.5t35 -89.5q0 -53 -35 -88.5t-89 -35.5zM490 829q36 0 58.5 22.5t22.5 59.5q0 38 -22.5 60.5t-58.5 22.5t-59 -22.5t-23 -60.5q0 -37 23 -59.5t59 -22.5zM327 -14q-112 0 -175.5 47.5
t-63.5 136.5q0 32 7 61l102 481h61l-103 -484q-6 -28 -6 -52q0 -136 179 -136q203 0 244 188l103 484h60l-102 -482q-52 -244 -306 -244z" />
    <glyph glyph-name="uring" unicode="&#x16f;" horiz-adv-x="589" 
d="M472 627q-36 -36 -90 -36t-89 36q-36 35 -36 88q0 54 35.5 89.5t89.5 35.5q55 0 90 -35.5t35 -89.5q0 -53 -35 -88zM382 798q-36 0 -58.5 -22.5t-22.5 -60.5q0 -37 22.5 -59.5t58.5 -22.5t59 22.5t23 59.5q0 38 -23 60.5t-59 22.5zM435 224l62 292h60l-109 -516h-58
l24 101q-74 -114 -200 -114q-72 0 -111.5 36.5t-39.5 102.5q0 16 5 49l73 341h60l-72 -337q-4 -20 -4 -44q0 -95 104 -95q74 0 128.5 46.5t77.5 137.5z" />
    <glyph glyph-name="Uhungarumlaut" unicode="&#x170;" horiz-adv-x="739" 
d="M391 790h-53l99 163h70zM573 790h-53l106 163h71zM327 -14q-112 0 -175.5 47.5t-63.5 136.5q0 32 7 61l102 481h61l-103 -484q-6 -28 -6 -52q0 -136 179 -136q203 0 244 188l103 484h60l-102 -482q-52 -244 -306 -244z" />
    <glyph glyph-name="uhungarumlaut" unicode="&#x171;" horiz-adv-x="589" 
d="M324 757h71l-117 -163h-53zM514 757h70l-124 -163h-53zM435 224l62 292h60l-109 -516h-58l24 101q-74 -114 -200 -114q-72 0 -111.5 36.5t-39.5 102.5q0 16 5 49l73 341h60l-72 -337q-4 -20 -4 -44q0 -95 104 -95q74 0 128.5 46.5t77.5 137.5z" />
    <glyph glyph-name="Uogonek" unicode="&#x172;" horiz-adv-x="739" 
d="M572 228l103 484h60l-102 -482q-47 -222 -259 -242l-67 -37q-35 -19 -50 -34.5t-15 -36.5q0 -42 55 -42h40l-9 -44h-47q-47 0 -72 20.5t-25 53.5q0 35 21.5 57t73.5 48l27 13q-104 5 -161 51.5t-57 132.5q0 32 7 61l102 481h61l-103 -484q-6 -28 -6 -52q0 -136 179 -136
q203 0 244 188z" />
    <glyph glyph-name="uogonek" unicode="&#x173;" horiz-adv-x="589" 
d="M448 0l-86 -48q-58 -31 -58 -67q0 -42 55 -42h40l-9 -44h-48q-47 0 -72 20.5t-25 53.5q0 34 20 55.5t69 46.5l57 28l23 98q-74 -114 -200 -114q-72 0 -111.5 36.5t-39.5 102.5q0 16 5 49l73 341h60l-72 -337q-4 -20 -4 -44q0 -95 104 -95q74 0 128.5 46.5t77.5 137.5
l62 292h60z" />
    <glyph glyph-name="Wcircumflex" unicode="&#x174;" horiz-adv-x="953" 
d="M668 791l-70 121l-120 -121h-68l160 158h62l95 -158h-59zM704 217l247 495h65l-358 -714h-56l-48 642l-306 -642h-58l-53 714h58l35 -495l4 -136l63 137l238 494h66l36 -495l5 -136z" />
    <glyph glyph-name="wcircumflex" unicode="&#x175;" horiz-adv-x="768" 
d="M536 595l-70 121l-120 -121h-68l160 158h62l95 -158h-59zM527 163l183 353h65l-278 -516h-60l-23 364l-3 95l-42 -95l-179 -364h-61l-56 516h59l34 -353l6 -100l44 100l175 353h64l24 -353l3 -98z" />
    <glyph glyph-name="Ycircumflex" unicode="&#x176;" horiz-adv-x="681" 
d="M552 791l-70 121l-120 -121h-68l160 158h62l95 -158h-59zM678 712h77l-372 -422l-62 -290h-61l62 289l-197 423h66l153 -337l14 -38l29 38z" />
    <glyph glyph-name="ycircumflex" unicode="&#x177;" horiz-adv-x="541" 
d="M424 595l-70 121l-120 -121h-68l160 158h62l95 -158h-59zM215 58l268 458h65l-378 -625q-35 -57 -65 -75q-32 -20 -86 -20h-51l11 51h39q42 0 64.5 15t47.5 58l47 78l-104 518h61l77 -418z" />
    <glyph glyph-name="Ydieresis" unicode="&#x178;" horiz-adv-x="681" 
d="M342 893h68l-18 -83h-68zM547 893h68l-18 -83h-68zM678 712h77l-372 -422l-62 -290h-61l62 289l-197 423h66l153 -337l14 -38l29 38z" />
    <glyph glyph-name="Zacute" unicode="&#x179;" horiz-adv-x="686" 
d="M487 949h82l-128 -152h-55zM194 712h504l-11 -49l-585 -608h471l-12 -55h-546l13 59l577 598h-423z" />
    <glyph glyph-name="zacute" unicode="&#x17a;" horiz-adv-x="529" 
d="M367 753h82l-128 -152h-55zM122 516h392l-8 -38l-420 -429h345l-11 -49h-421l9 43l415 424h-312z" />
    <glyph glyph-name="Zdotaccent" unicode="&#x17b;" horiz-adv-x="686" 
d="M452 908h60l-18 -77h-60zM194 712h504l-11 -49l-585 -608h471l-12 -55h-546l13 59l577 598h-423z" />
    <glyph glyph-name="zdotaccent" unicode="&#x17c;" horiz-adv-x="529" 
d="M332 712h60l-18 -77h-60zM122 516h392l-8 -38l-420 -429h345l-11 -49h-421l9 43l415 424h-312z" />
    <glyph glyph-name="Zcaron" unicode="&#x17d;" horiz-adv-x="686" 
d="M641 948l-160 -157h-62l-95 157h61l69 -120l121 120h66zM194 712h504l-11 -49l-585 -608h471l-12 -55h-546l13 59l577 598h-423z" />
    <glyph glyph-name="zcaron" unicode="&#x17e;" horiz-adv-x="529" 
d="M520 752l-160 -157h-62l-94 157h60l70 -120l120 120h66zM423 467h-312l11 49h392l-8 -38l-420 -429h345l-11 -49h-421l9 43z" />
    <glyph glyph-name="uni018F" unicode="&#x18f;" horiz-adv-x="815" 
d="M492 725q128 0 202 -78q74 -79 74 -207q0 -51 -10 -95q-32 -163 -136 -261q-106 -99 -257 -99q-127 0 -202 79q-75 80 -75 208q0 45 9 90h603q6 41 6 76q0 107 -58.5 169.5t-160.5 62.5q-162 0 -261 -143h-68q54 94 141.5 146t192.5 52zM368 40q112 0 198 72
q85 72 121 196h-536q-2 -30 -2 -33q0 -107 60 -171q58 -64 159 -64z" />
    <glyph glyph-name="florin" unicode="&#x192;" 
d="M591 712h52l-20 -50h-38q-40 0 -64.5 -19.5t-43.5 -67.5l-69 -169l117 2l-19 -47l-115 2l-156 -381q-28 -69 -68.5 -100t-105.5 -31h-53l20 50h39q40 0 64 19t44 67l153 376l-116 -2l19 47l115 -2l71 175q29 69 70 100t104 31z" />
    <glyph glyph-name="uni01F4" unicode="&#x1f4;" horiz-adv-x="823" 
d="M535 959h82l-128 -152h-55zM675 314h-244l11 53h304l-78 -367h-46l16 122q-102 -136 -275 -136q-126 0 -200 77q-75 77 -75 204q0 49 12 106q34 161 140 258q106 95 256 95q124 0 195 -60.5t71 -167.5h-59q0 84 -55.5 129t-153.5 45q-126 0 -215 -84t-120 -229
q-9 -51 -9 -91q0 -106 57.5 -167t161.5 -61q102 0 180 59t116 164z" />
    <glyph glyph-name="uni01F5" unicode="&#x1f5;" horiz-adv-x="601" 
d="M403 753h82l-128 -152h-55zM492 394l26 122h52l-108 -510q-24 -111 -87 -164t-169 -53q-95 0 -147 40t-52 103l59 1q2 -44 37 -70t104 -26q164 0 197 157l24 110q-33 -53 -83.5 -84t-108.5 -31q-88 0 -137.5 54t-49.5 148q0 135 76 235q75 101 193 101q67 0 113 -36.5
t61 -96.5zM246 41q96 0 158 86q61 85 61 195q0 72 -38.5 112.5t-101.5 40.5q-98 0 -156 -85q-59 -86 -59 -199q0 -71 35.5 -110.5t100.5 -39.5z" />
    <glyph glyph-name="Aringacute" unicode="&#x1fa;" horiz-adv-x="722" 
d="M553 1104h81l-125 -150h-55zM591 796q0 -44 -24 -75.5t-65 -42.5l131 -678h-62l-41 223h-340l-136 -223h-69l425 685q-32 14 -50.5 43.5t-18.5 67.5q0 54 35.5 89.5t89.5 35.5q55 0 90 -35.5t35 -89.5zM385 796q0 -36 22.5 -58.5t58.5 -22.5t59 22.5t23 58.5
q0 38 -23 60.5t-59 22.5t-58.5 -22.5t-22.5 -60.5zM426 610l-204 -334h298l-62 334l-6 50z" />
    <glyph glyph-name="aringacute" unicode="&#x1fb;" horiz-adv-x="574" 
d="M457 1036h81l-128 -152h-54zM371 583q-54 0 -90 35.5t-36 88.5q0 54 36 89.5t90 35.5q55 0 90 -35.5t35 -89.5q0 -53 -35 -88.5t-90 -35.5zM371 790q-36 0 -58.5 -22.5t-22.5 -60.5q0 -37 23 -59.5t58 -22.5q36 0 59 22.5t23 59.5q0 38 -23 60.5t-59 22.5zM501 366
l-53 -249q-8 -39 3 -55t46 -16h15l-9 -46h-28q-94 0 -82 95q-65 -108 -208 -108q-72 0 -113.5 36t-41.5 97q0 70 52 113t147 55l135 18q38 5 55 19.5t23 42.5q12 56 -18.5 84t-101.5 28q-69 0 -107.5 -27.5t-55.5 -88.5l-59 2q42 164 231 164q85 0 130 -31t45 -86
q0 -17 -5 -47zM402 179l21 103q-19 -16 -57 -20l-135 -19q-140 -20 -140 -118q0 -42 30.5 -66t87.5 -24q69 0 119.5 37.5t73.5 106.5z" />
    <glyph glyph-name="AEacute" unicode="&#x1fc;" horiz-adv-x="1133" 
d="M855 949h82l-128 -152h-55zM1147 712l-12 -53h-426l-56 -263h396l-11 -53h-397l-62 -290h442l-12 -53h-502l45 210h-328l-175 -210h-64l595 712h567zM602 662l-336 -402h297l85 402h-46z" />
    <glyph glyph-name="aeacute" unicode="&#x1fd;" horiz-adv-x="936" 
d="M573 753h82l-128 -152h-55zM881 250h-405q-8 -34 -8 -67q0 -70 37.5 -107.5t105.5 -37.5q123 0 189 118l54 -6q-37 -74 -104 -118t-151 -44q-146 0 -178 131q-83 -132 -238 -132q-71 0 -112 36t-41 93q0 83 61.5 130.5t163.5 47.5h174l14 65q4 19 4 35q0 86 -122 86
q-66 0 -104.5 -26.5t-57.5 -83.5h-59q49 160 235 160q148 0 162 -101q81 99 209 99q87 0 136 -48.5t49 -132.5q0 -36 -14 -97zM700 478q-76 0 -133 -48.5t-81 -135.5h348q4 17 4 41q0 68 -35.5 105.5t-102.5 37.5zM197 35q75 0 133.5 44.5t78.5 121.5l10 49l-178 -5
q-71 -1 -111 -31.5t-40 -86.5q0 -40 28.5 -66t78.5 -26z" />
    <glyph glyph-name="Oslashacute" unicode="&#x1fe;" horiz-adv-x="816" 
d="M532 957h82l-128 -152h-55zM790 720l27 -29l-91 -84q43 -68 43 -167q0 -51 -10 -95q-32 -163 -136 -261q-107 -99 -257 -99q-136 0 -213 92l-93 -86l-27 29l97 89q-41 68 -41 163q0 51 10 95q35 161 140 259q107 99 254 99q135 0 209 -86zM150 275q0 -68 26 -123l481 445
q-58 73 -169 73q-123 0 -212 -85q-92 -85 -117 -225q-9 -45 -9 -85zM707 438q0 73 -28 126l-482 -446q58 -78 172 -78q124 0 212 85t118 227q8 43 8 86z" />
    <glyph glyph-name="oslashacute" unicode="&#x1ff;" horiz-adv-x="597" 
d="M404 761h82l-128 -152h-55zM562 529l27 -27l-69 -66q28 -49 28 -116q0 -39 -7 -71q-24 -124 -100 -193t-187 -69q-93 0 -149 56l-59 -56l-28 27l63 60q-32 50 -32 124q0 39 7 71q23 120 102 190q77 70 186 70q98 0 153 -61zM110 200q0 -47 16 -83l329 311q-41 50 -117 50
q-84 0 -143 -58t-79 -158q-6 -33 -6 -62zM488 318q0 41 -13 76l-327 -311q39 -45 110 -45q84 0 144 59t79 159q7 38 7 62z" />
    <glyph glyph-name="uni0218" unicode="&#x218;" horiz-adv-x="673" 
d="M303 -14q-121 0 -186.5 52t-65.5 153q0 23 1 30h58q-2 -22 -2 -27q0 -77 51 -117t145 -40q109 0 173 47t64 131q0 47 -28.5 74t-94.5 41l-114 24q-161 35 -161 159q0 102 77 158q76 55 201 55q105 0 165.5 -47t60.5 -131q0 -22 -1 -28h-58q0 4 0.5 8t1 7t0.5 5v3
q0 63 -46 98t-128 35q-97 0 -156 -43t-59 -116q0 -83 115 -107l129 -27q154 -34 154 -164q0 -111 -81 -172q-82 -61 -215 -61zM235 -239h-26l6 28h23q29 0 35 29l9 44l-53 -4l13 61h82l-23 -107q-11 -51 -66 -51z" />
    <glyph glyph-name="uni0219" unicode="&#x219;" horiz-adv-x="515" 
d="M218 -13q-93 0 -141.5 42t-48.5 121h58q0 -113 138 -113q75 0 117.5 30.5t42.5 85.5q0 33 -21 52t-67 27l-79 16q-130 25 -130 122q0 76 55.5 116t152.5 40q85 0 132 -39.5t47 -112.5h-57q0 49 -33.5 76.5t-94.5 27.5q-66 0 -105.5 -26t-39.5 -73q0 -33 21.5 -51.5
t68.5 -27.5l79 -15q130 -25 130 -124q0 -84 -60.5 -129t-164.5 -45zM145 -232h-26l6 28h23q29 0 35 29l9 44l-53 -4l13 61h82l-23 -107q-11 -51 -66 -51z" />
    <glyph glyph-name="uni021A" unicode="&#x21a;" 
d="M136 712h558l-12 -53h-249l-140 -659h-61l141 659h-249zM249 -131l-53 -4l13 61h82l-23 -107q-10 -51 -66 -51h-26l6 28h23q29 0 35 29z" />
    <glyph glyph-name="uni021B" unicode="&#x21b;" horiz-adv-x="357" 
d="M227 471l-7 -29l-68 -323q-4 -12 -4 -28q0 -40 55 -40h63l-11 -51h-73q-95 0 -95 77q0 12 5 40l69 325l6 29l-90 -2l10 47l89 -2l6 29l27 126h60l-27 -125l-6 -30l130 2l-10 -47zM93 -123l-53 -4l13 61h82l-23 -107q-10 -51 -66 -51h-26l6 28h23q29 0 35 29z" />
    <glyph glyph-name="uni0237" unicode="&#x237;" horiz-adv-x="227" 
d="M-81 -204h-38l10 51h25q43 0 66 19t32 63l125 587h60l-123 -581q-16 -75 -51.5 -107t-105.5 -32z" />
    <glyph glyph-name="uni0259" unicode="&#x259;" horiz-adv-x="579" 
d="M325 529q95 0 149.5 -58t54.5 -154q0 -37 -8 -74q-24 -116 -99 -185q-74 -70 -179 -70q-93 0 -145.5 51.5t-52.5 141.5q0 36 11 85h409q5 37 5 56q0 72 -40 114.5t-107 42.5q-127 0 -188 -125l-54 6q32 76 96.5 122.5t147.5 46.5zM244 38q75 0 131 48.5t80 135.5h-351
q-3 -21 -3 -39q0 -68 37.5 -106.5t105.5 -38.5z" />
    <glyph glyph-name="h.sups" unicode="&#x2b0;" horiz-adv-x="485" 
d="M359 720q53 0 83 -26.5t30 -74.5q0 -20 -8 -57l-41 -190h-50l42 194q4 23 4 38q0 33 -20.5 51t-58.5 18q-51 0 -88.5 -31.5t-52.5 -87.5l-39 -182h-50l100 470h50l-42 -197q52 75 141 75z" />
    <glyph glyph-name="r.sups" unicode="&#x2b3;" horiz-adv-x="327" 
d="M355 717h31l-10 -48h-31q-110 0 -144 -109l-40 -188h-50l72 340h47l-14 -73q46 78 139 78z" />
    <glyph glyph-name="circumflex" unicode="&#x2c6;" horiz-adv-x="500" 
d="M232 595h-69l160 158h63l94 -158h-59l-69 121z" />
    <glyph glyph-name="caron" unicode="&#x2c7;" horiz-adv-x="500" 
d="M354 595h-63l-94 157h61l69 -120l120 120h67z" />
    <glyph glyph-name="uni02C9" unicode="&#x2c9;" horiz-adv-x="500" 
d="M483 634h-306l10 47h305z" />
    <glyph glyph-name="breve" unicode="&#x2d8;" horiz-adv-x="500" 
d="M331 618q-138 0 -138 101q0 15 3 33h41q-3 -12 -3 -23q0 -70 100 -70q116 0 138 93h42q-35 -134 -183 -134z" />
    <glyph glyph-name="dotaccent" unicode="&#x2d9;" horiz-adv-x="500" 
d="M359 635h-60l18 77h60z" />
    <glyph glyph-name="ring" unicode="&#x2da;" horiz-adv-x="500" 
d="M436 627q-36 -36 -90 -36t-89 36q-36 35 -36 88q0 54 35.5 89.5t89.5 35.5q55 0 90 -35.5t35 -89.5q0 -53 -35 -88zM346 633q36 0 59 22.5t23 59.5q0 38 -23 60.5t-59 22.5t-58.5 -22.5t-22.5 -60.5q0 -37 22.5 -59.5t58.5 -22.5z" />
    <glyph glyph-name="ogonek" unicode="&#x2db;" horiz-adv-x="500" 
d="M226 -201h-48q-47 0 -72 20.5t-25 53.5q0 35 22 57t74 48l70 35l37 -13l-79 -44q-35 -19 -50 -34.5t-15 -36.5q0 -42 55 -42h40z" />
    <glyph glyph-name="tilde" unicode="&#x2dc;" horiz-adv-x="500" 
d="M190 635h-48q36 152 136 152q29 0 50.5 -15t31.5 -37q9 -22 25.5 -37.5t36.5 -15.5q28 0 47 24.5t34 80.5h47q-35 -152 -135 -152q-31 0 -52 16.5t-29.5 36.5t-24.5 36.5t-38 16.5q-56 0 -81 -106z" />
    <glyph glyph-name="hungarumlaut" unicode="&#x2dd;" horiz-adv-x="500" 
d="M237 594h-53l99 163h71zM419 594h-53l107 163h70z" />
    <glyph glyph-name="s.sups" unicode="&#x2e2;" horiz-adv-x="433" 
d="M261 362q-151 0 -161 109l48 3q6 -73 115 -73q54 0 84 17.5t30 48.5q0 39 -71 50l-72 10q-101 17 -101 87q0 49 41 77t112 28q68 0 106 -26.5t43 -74.5l-45 -4q-6 65 -108 65q-48 0 -74.5 -16t-26.5 -45q0 -40 62 -48l83 -12q97 -13 97 -85q0 -51 -43.5 -81t-118.5 -30z
" />
    <glyph glyph-name="gravecomb" unicode="&#x300;" horiz-adv-x="0" 
d="M98 601h-48l-96 152h76z" />
    <glyph glyph-name="acutecomb" unicode="&#x301;" horiz-adv-x="0" 
d="M56 601h-55l101 152h82z" />
    <glyph glyph-name="uni0302" unicode="&#x302;" horiz-adv-x="0" 
d="M-23 595h-68l160 158h62l95 -158h-59l-70 121z" />
    <glyph glyph-name="tildecomb" unicode="&#x303;" horiz-adv-x="0" 
d="M-60 635h-48q36 152 136 152q29 0 50.5 -15t31.5 -37q9 -22 25.5 -37.5t36.5 -15.5q28 0 47 24.5t34 80.5h47q-35 -152 -135 -152q-31 0 -52 16.5t-29.5 36.5t-24.5 36.5t-38 16.5q-56 0 -81 -106z" />
    <glyph glyph-name="uni0304" unicode="&#x304;" horiz-adv-x="0" 
d="M233 634h-306l10 47h305z" />
    <glyph glyph-name="uni0306" unicode="&#x306;" horiz-adv-x="0" 
d="M81 618q-138 0 -138 101q0 15 3 33h41q-3 -12 -3 -23q0 -70 100 -70q116 0 138 93h42q-35 -134 -183 -134z" />
    <glyph glyph-name="uni0307" unicode="&#x307;" horiz-adv-x="0" 
d="M109 635h-60l18 77h60z" />
    <glyph glyph-name="uni0308" unicode="&#x308;" horiz-adv-x="0" 
d="M12 635h-60l16 77h60zM208 635h-60l17 77h60z" />
    <glyph glyph-name="uni030A" unicode="&#x30a;" horiz-adv-x="0" 
d="M186 627q-36 -36 -90 -36t-89 36q-36 35 -36 88q0 54 35.5 89.5t89.5 35.5q55 0 90 -35.5t35 -89.5q0 -53 -35 -88zM96 633q36 0 59 22.5t23 59.5q0 38 -23 60.5t-59 22.5t-58.5 -22.5t-22.5 -60.5q0 -37 22.5 -59.5t58.5 -22.5z" />
    <glyph glyph-name="uni030B" unicode="&#x30b;" horiz-adv-x="0" 
d="M-7 594h-53l99 163h71zM175 594h-53l107 163h70z" />
    <glyph glyph-name="uni030C" unicode="&#x30c;" horiz-adv-x="0" 
d="M96 595h-62l-94 157h60l70 -120l120 120h66z" />
    <glyph glyph-name="uni0312" unicode="&#x312;" horiz-adv-x="0" 
d="M121 635h-82l22 102q10 52 67 52h25l-6 -28h-22q-28 0 -36 -29l-8 -40l53 4z" />
    <glyph glyph-name="uni0313" unicode="&#x313;" horiz-adv-x="0" 
d="M65 634h-26l6 29h23q30 0 35 29l8 39l-52 -3l12 60h82l-22 -102q-10 -52 -66 -52z" />
    <glyph glyph-name="dotbelowcomb" unicode="&#x323;" horiz-adv-x="0" 
d="M-61 -186h-68l18 82h68z" />
    <glyph glyph-name="uni0324" unicode="&#x324;" horiz-adv-x="0" 
d="M-162 -181h-68l18 83h68zM43 -181h-68l17 83h68z" />
    <glyph glyph-name="uni0325" unicode="&#x325;" horiz-adv-x="0" 
d="M-97 -324q-55 0 -90 35.5t-35 89.5q0 53 35 88.5t90 35.5q54 0 89.5 -35.5t35.5 -88.5q0 -54 -35.5 -89.5t-89.5 -35.5zM-97 -282q36 0 58.5 22.5t22.5 60.5q0 37 -23 59.5t-58 22.5q-36 0 -59 -22.5t-23 -59.5q0 -38 23 -60.5t59 -22.5z" />
    <glyph glyph-name="uni0326" unicode="&#x326;" horiz-adv-x="0" 
d="M-116 -232h-26l6 28h23q29 0 35 29l9 44l-53 -4l13 61h82l-23 -107q-10 -51 -66 -51z" />
    <glyph glyph-name="uni0327" unicode="&#x327;" horiz-adv-x="0" 
d="M-122 -232h-35l7 38h30q92 0 92 52q0 37 -49 37h-41l-21 32l62 73h47l-55 -65h20q42 0 64 -19t22 -52q0 -45 -38.5 -70.5t-104.5 -25.5z" />
    <glyph glyph-name="uni0328" unicode="&#x328;" horiz-adv-x="0" 
d="M-113 -201h-47q-47 0 -72 20.5t-25 53.5q0 35 21.5 57t73.5 48l70 35l37 -13l-79 -44q-35 -19 -50 -34.5t-15 -36.5q0 -42 55 -42h40z" />
    <glyph glyph-name="uni032E" unicode="&#x32e;" horiz-adv-x="0" 
d="M-96 -216q-139 0 -139 101q0 14 3 32h41q0 -3 -0.5 -7t-1 -6.5t-0.5 -5.5v-3q0 -71 100 -71q113 0 138 93h42q-38 -133 -183 -133z" />
    <glyph glyph-name="uni0331" unicode="&#x331;" horiz-adv-x="0" 
d="M63 -165h-305l9 47h306z" />
    <glyph glyph-name="uni0335" unicode="&#x335;" horiz-adv-x="0" 
d="M21 352l-141 -3l10 47l139 -3l140 3l-10 -47z" />
    <glyph glyph-name="uni0337" unicode="&#x337;" horiz-adv-x="0" 
d="M300 514l-567 -525l-29 31l567 525z" />
    <glyph glyph-name="uni0338" unicode="&#x338;" horiz-adv-x="0" 
d="M413 688l-758 -700l-28 32l757 700z" />
    <glyph glyph-name="uni0394" unicode="&#x394;" horiz-adv-x="722" 
d="M277 714h66l290 -714h-648zM294 610l-223 -557h474l-219 557l-15 48z" />
    <glyph glyph-name="uni03A9" unicode="&#x3a9;" horiz-adv-x="907" 
d="M389 0h-285v53h200v2q-92 54 -142 137.5t-50 189.5q0 160 91 251q92 92 238 92q147 0 236 -92t89 -251q0 -107 -49 -191t-139 -136v-2h199v-53h-284v48q212 111 212 334q0 137 -70.5 212.5t-193.5 75.5q-121 0 -194 -75q-73 -76 -73 -213q0 -221 215 -334v-48z" />
    <glyph glyph-name="uni03BC" unicode="&#x3bc;" horiz-adv-x="699" 
d="M201 -203h-60v719h60v-337q0 -67 33 -103t96 -36q76 0 122 49t46 144v283h60v-516h-58l3 102q-51 -115 -180 -115q-92 0 -133 68l-2 -2l13 -152v-104z" />
    <glyph glyph-name="pi" unicode="&#x3c0;" horiz-adv-x="754" 
d="M682 516v-56h-126v-328q0 -45 17 -63.5t61 -18.5h19v-50h-29q-66 0 -96.5 31.5t-30.5 102.5v326h-233v-460h-59v460h-118v56h595z" />
    <glyph glyph-name="d.sups" unicode="&#x1d48;" horiz-adv-x="493" 
d="M441 646l41 196h49l-100 -470h-43l10 67q-51 -73 -138 -73q-66 0 -106 40t-40 108q0 87 58 148t143 61q48 0 80.5 -20.5t45.5 -56.5zM270 407q66 0 110 51q44 52 44 117q0 52 -29.5 80t-78.5 28q-66 0 -109 -48q-44 -50 -44 -117q0 -53 29 -82t78 -29z" />
    <glyph glyph-name="t.sups" unicode="&#x1d57;" horiz-adv-x="305" 
d="M346 669l-94 1l-42 -198q-5 -25 -5 -29q0 -31 42 -31h43l-8 -40h-48q-79 0 -79 58q0 14 4 31l44 209l-83 -1l9 44l83 -2l21 102h50l-22 -102l94 2z" />
    <glyph glyph-name="Wgrave" unicode="&#x1e80;" horiz-adv-x="953" 
d="M531 949l68 -152h-48l-96 152h76zM704 217l247 495h65l-358 -714h-56l-48 642l-306 -642h-58l-53 714h58l35 -495l4 -136l63 137l238 494h66l36 -495l5 -136z" />
    <glyph glyph-name="wgrave" unicode="&#x1e81;" horiz-adv-x="768" 
d="M399 753l68 -152h-48l-96 152h76zM527 163l183 353h65l-278 -516h-60l-23 364l-3 95l-42 -95l-179 -364h-61l-56 516h59l34 -353l6 -100l44 100l175 353h64l24 -353l3 -98z" />
    <glyph glyph-name="Wacute" unicode="&#x1e82;" horiz-adv-x="953" 
d="M603 949h82l-128 -152h-55zM704 217l247 495h65l-358 -714h-56l-48 642l-306 -642h-58l-53 714h58l35 -495l4 -136l63 137l238 494h66l36 -495l5 -136z" />
    <glyph glyph-name="wacute" unicode="&#x1e83;" horiz-adv-x="768" 
d="M471 753h82l-128 -152h-55zM527 163l183 353h65l-278 -516h-60l-23 364l-3 95l-42 -95l-179 -364h-61l-56 516h59l34 -353l6 -100l44 100l175 353h64l24 -353l3 -98z" />
    <glyph glyph-name="Wdieresis" unicode="&#x1e84;" horiz-adv-x="953" 
d="M458 893h68l-18 -83h-68zM663 893h68l-18 -83h-68zM704 217l247 495h65l-358 -714h-56l-48 642l-306 -642h-58l-53 714h58l35 -495l4 -136l63 137l238 494h66l36 -495l5 -136z" />
    <glyph glyph-name="wdieresis" unicode="&#x1e85;" horiz-adv-x="768" 
d="M337 712h60l-16 -77h-60zM534 712h60l-17 -77h-60zM527 163l183 353h65l-278 -516h-60l-23 364l-3 95l-42 -95l-179 -364h-61l-56 516h59l34 -353l6 -100l44 100l175 353h64l24 -353l3 -98z" />
    <glyph glyph-name="uni1E9E" unicode="&#x1e9e;" horiz-adv-x="696" 
d="M707 706l-10 -46l-265 -251q95 -1 149 -43.5t54 -115.5q0 -112 -84 -186q-86 -74 -215 -74q-64 0 -127 15l11 53q67 -14 124 -14q103 0 166 54q63 52 63 141q0 56 -42.5 85.5t-121.5 29.5q-33 0 -63 -3l11 51l267 258q-75 8 -160 8q-116 0 -177.5 -52t-83.5 -155
l-98 -461h-60l98 461q57 261 331 261q136 0 233 -16z" />
    <glyph glyph-name="Ygrave" unicode="&#x1ef2;" horiz-adv-x="681" 
d="M415 949l68 -152h-48l-96 152h76zM678 712h77l-372 -422l-62 -290h-61l62 289l-197 423h66l153 -337l14 -38l29 38z" />
    <glyph glyph-name="ygrave" unicode="&#x1ef3;" horiz-adv-x="541" 
d="M286 753l68 -152h-48l-96 152h76zM215 58l268 458h65l-378 -625q-35 -57 -65 -75q-32 -20 -86 -20h-51l11 51h39q42 0 64.5 15t47.5 58l47 78l-104 518h61l77 -418z" />
    <glyph glyph-name="thinspace" unicode="&#x2009;" horiz-adv-x="227" 
 />
    <glyph glyph-name="uni2011" unicode="&#x2011;" horiz-adv-x="379" 
d="M322 222h-280l11 55h280z" />
    <glyph glyph-name="endash" unicode="&#x2013;" horiz-adv-x="534" 
d="M477 222h-435l11 55h435z" />
    <glyph glyph-name="emdash" unicode="&#x2014;" horiz-adv-x="828" 
d="M771 222h-729l11 55h729z" />
    <glyph glyph-name="quoteleft" unicode="&#x2018;" horiz-adv-x="286" 
d="M240 490h-95l28 133q20 89 105 89h9l-8 -38h-8q-27 0 -41.5 -14t-21.5 -48l-10 -50l59 5z" />
    <glyph glyph-name="quoteright" unicode="&#x2019;" horiz-adv-x="286" 
d="M152 484h-9l8 37h9q27 0 40.5 14t21.5 49l10 49l-58 -5l17 77h95l-28 -133q-19 -88 -106 -88z" />
    <glyph glyph-name="quotesinglbase" unicode="&#x201a;" horiz-adv-x="286" 
d="M18 -145h-8l7 37h9q27 0 40.5 14t21.5 48l10 50l-58 -5l17 77h95l-28 -133q-19 -88 -106 -88z" />
    <glyph glyph-name="quotedblleft" unicode="&#x201c;" horiz-adv-x="443" 
d="M240 490h-95l28 133q20 89 105 89h9l-8 -38h-8q-27 0 -41.5 -14t-21.5 -48l-10 -50l59 5zM397 490h-95l27 133q20 89 106 89h9l-8 -38h-9q-27 0 -41 -14t-21 -48l-10 -50l58 5z" />
    <glyph glyph-name="quotedblright" unicode="&#x201d;" horiz-adv-x="442" 
d="M152 483h-9l8 37h9q26 0 40 14t22 48l10 50l-59 -5l17 77h95l-28 -133q-16 -88 -105 -88zM308 483h-8l7 37h9q27 0 40.5 14t21.5 48l10 50l-58 -5l17 77h95l-28 -133q-19 -88 -106 -88z" />
    <glyph glyph-name="quotedblbase" unicode="&#x201e;" horiz-adv-x="443" 
d="M18 -145h-8l7 37h9q27 0 40.5 14t21.5 48l10 50l-58 -5l17 77h95l-28 -133q-19 -88 -106 -88zM175 -145h-9l8 37h9q27 0 40.5 14t21.5 48l10 50l-58 -5l16 77h95l-27 -133q-19 -88 -106 -88z" />
    <glyph glyph-name="dagger" unicode="&#x2020;" horiz-adv-x="645" 
d="M421 581l193 3l-11 -54l-192 3l-136 -638h-59l136 638l-194 -3l11 54l193 -3l57 269h59z" />
    <glyph glyph-name="daggerdbl" unicode="&#x2021;" horiz-adv-x="646" 
d="M615 584l-11 -54l-192 3l-68 -317l193 3l-11 -54l-192 3l-58 -273h-59l58 273l-194 -3l11 54l193 -3l68 317l-194 -3l11 54l193 -3l57 269h59l-57 -269z" />
    <glyph glyph-name="bullet" unicode="&#x2022;" horiz-adv-x="333" 
d="M223 216h-132l29 129h132z" />
    <glyph glyph-name="ellipsis" unicode="&#x2026;" horiz-adv-x="799" 
d="M121 0h-89l16 78h90zM390 0h-90l17 78h89zM658 0h-89l16 78h89z" />
    <glyph glyph-name="perthousand" unicode="&#x2030;" horiz-adv-x="1773" 
d="M300 309q-73 0 -111 38.5t-38 113.5q0 40 9 79q48 217 216 217q73 0 111.5 -38t38.5 -110q0 -36 -10 -83q-45 -217 -216 -217zM389 -15h-63l602 742h64zM302 356q63 0 102 43t59 136q9 43 9 74q0 101 -97 101q-63 0 -102.5 -43t-59.5 -136q-9 -43 -9 -74q0 -101 98 -101z
M976 -12q-149 0 -149 152q0 40 9 79q48 217 216 217q73 0 111.5 -38t38.5 -110q0 -36 -10 -83q-45 -217 -216 -217zM1445 -12q-73 0 -111 38.5t-38 113.5q0 34 9 79q48 217 217 217q72 0 110.5 -38t38.5 -110q0 -38 -9 -83q-46 -217 -217 -217zM977 35q63 0 102.5 43
t59.5 136q9 44 9 74q0 101 -97 101q-63 0 -102.5 -43t-59.5 -136q-9 -44 -9 -74q0 -101 97 -101zM1447 35q63 0 102 43t59 136q10 46 10 74q0 101 -98 101q-63 0 -102.5 -43.5t-58.5 -135.5q-10 -46 -10 -74q0 -101 98 -101z" />
    <glyph glyph-name="guilsinglleft" unicode="&#x2039;" horiz-adv-x="422" 
d="M292 52l-13 -62l-200 235l14 65l299 234l-16 -74l-253 -198z" />
    <glyph glyph-name="guilsinglright" unicode="&#x203a;" horiz-adv-x="422" 
d="M329 224l-300 -234l16 74l253 198l-169 200l14 62l200 -235z" />
    <glyph glyph-name="uni203D" unicode="&#x203d;" horiz-adv-x="621" 
d="M384 722q97 0 159 -44q62 -45 62 -125q0 -114 -149 -197l-46 -25q-46 -25 -64 -49q-19 -25 -36 -79l-8 -31h-40l47 268l21 102h61l-22 -102l-27 -107q25 22 68 46q73 39 105.5 79t32.5 91q0 61 -44.5 92.5t-120.5 31.5q-181 0 -212 -174h-59q17 105 87.5 164t184.5 59z
M284 0h-76l15 75h76z" />
    <glyph glyph-name="fraction" unicode="&#x2044;" horiz-adv-x="325" 
d="M-86 -15h-63l602 742h64z" />
    <glyph glyph-name="zero.sups" unicode="&#x2070;" horiz-adv-x="452" 
d="M257 360q-148 0 -148 152q0 40 9 79q48 217 216 217q73 0 111.5 -38t38.5 -110q0 -36 -10 -83q-45 -217 -217 -217zM259 407q63 0 102.5 43t59.5 136q9 44 9 74q0 101 -98 101q-63 0 -102 -43t-59 -136q-9 -44 -9 -74q0 -101 97 -101z" />
    <glyph glyph-name="four.sups" unicode="&#x2074;" horiz-adv-x="440" 
d="M347 372h-51l22 107l-229 -1l9 45l285 276h54l-59 -280l76 1l-9 -42l-76 1zM371 738l-225 -218l181 -1l46 218z" />
    <glyph glyph-name="five.sups" unicode="&#x2075;" horiz-adv-x="438" 
d="M247 358q-64 0 -103.5 27t-50.5 76l53 12q7 -34 34.5 -52t70.5 -18q61 0 100 32.5t39 83.5q0 40 -26 63t-73 23q-67 0 -109 -45l-50 19l88 220h253l-10 -44h-215l-57 -146l2 -1q49 39 119 39q63 0 97.5 -33t34.5 -87q0 -75 -55 -121q-55 -48 -142 -48z" />
    <glyph glyph-name="six.sups" unicode="&#x2076;" horiz-adv-x="439" 
d="M269 360q-74 0 -116 42t-42 121q0 117 60 201q59 84 159 84q109 0 143 -94l-49 -16q-26 66 -98 66q-62 0 -104 -50t-54 -136q56 69 142 69q61 0 98.5 -34.5t37.5 -90.5q0 -68 -49 -114q-49 -48 -128 -48zM268 404q56 0 90.5 32t34.5 81q0 40 -26 63t-71 23
q-50 0 -86 -27.5t-47 -72.5q0 -47 28 -73t77 -26z" />
    <glyph glyph-name="seven.sups" unicode="&#x2077;" horiz-adv-x="375" 
d="M177 372h-53q68 236 267 383h-260l9 44h325l-9 -42q-212 -146 -279 -385z" />
    <glyph glyph-name="eight.sups" unicode="&#x2078;" horiz-adv-x="451" 
d="M258 364q-74 0 -118 32t-44 84q0 46 33.5 79t89.5 44l1 2q-60 21 -60 81q0 54 48.5 88t125.5 34q67 0 106 -26.5t39 -71.5q0 -38 -28 -68t-73 -38v-2q77 -23 77 -97q0 -62 -56 -101q-55 -40 -141 -40zM304 621q56 0 89 23t33 60q0 30 -25.5 46.5t-69.5 16.5
q-55 0 -88 -22.5t-33 -60.5q0 -30 24.5 -46.5t69.5 -16.5zM262 406q63 0 101.5 28t38.5 73q0 74 -111 74q-65 0 -102.5 -26t-37.5 -70q0 -37 30 -58t81 -21z" />
    <glyph glyph-name="nine.sups" unicode="&#x2079;" horiz-adv-x="438" 
d="M247 360q-109 0 -143 94l49 16q25 -66 98 -66q62 0 104 50t54 136q-55 -69 -142 -69q-61 0 -98.5 34.5t-37.5 90.5q0 67 50 115q50 47 127 47q74 0 116 -42t42 -121q0 -116 -59 -201q-60 -84 -160 -84zM281 565q50 0 86 27.5t47 72.5q0 47 -28 73t-77 26q-56 0 -90.5 -32
t-34.5 -81q0 -40 26 -63t71 -23z" />
    <glyph glyph-name="plus.sups" unicode="&#x207a;" horiz-adv-x="533" 
d="M285 574h183v-42h-183v-160h-46v160h-182v42h182v160h46v-160z" />
    <glyph glyph-name="minus.sups" unicode="&#x207b;" horiz-adv-x="521" 
d="M456 530h-399v43h399v-43z" />
    <glyph glyph-name="parenleft.sups" unicode="&#x207d;" horiz-adv-x="294" 
d="M230 237h-49q-58 109 -58 224q0 112 50.5 218.5t140.5 185.5h50q-92 -80 -141.5 -186t-49.5 -218q0 -117 57 -224z" />
    <glyph glyph-name="parenright.sups" unicode="&#x207e;" horiz-adv-x="295" 
d="M105 237h-49q91 81 140.5 187t49.5 217q0 115 -56 224h48q58 -106 58 -224q0 -112 -50.5 -218.5t-140.5 -185.5z" />
    <glyph glyph-name="n.sups" unicode="&#x207f;" horiz-adv-x="486" 
d="M360 720q53 0 83 -26.5t30 -74.5q0 -20 -8 -57l-41 -190h-50l42 194q4 23 4 38q0 33 -20.5 51t-58.5 18q-49 0 -87 -30.5t-53 -82.5l-40 -188h-50l72 340h49l-13 -68q51 76 141 76z" />
    <glyph glyph-name="zero.subs" unicode="&#x2080;" horiz-adv-x="452" 
d="M141 -186q-148 0 -148 152q0 40 9 79q48 217 216 217q73 0 111.5 -38t38.5 -110q0 -36 -10 -83q-45 -217 -217 -217zM143 -139q63 0 102.5 43t59.5 136q9 44 9 74q0 101 -98 101q-63 0 -102 -43t-59 -136q-9 -43 -9 -74q0 -101 97 -101z" />
    <glyph glyph-name="one.subs" unicode="&#x2081;" horiz-adv-x="304" 
d="M126 -174h-51l63 297h-124l9 41h66q59 0 73 45l11 44h44z" />
    <glyph glyph-name="two.subs" unicode="&#x2082;" horiz-adv-x="449" 
d="M294 -174h-322q23 124 157 181l82 34q98 41 98 104q0 33 -23 52t-67 19q-101 0 -125 -101h-54q35 147 182 147q65 0 102.5 -29.5t37.5 -80.5q0 -93 -130 -148l-65 -27q-103 -43 -123 -105h260z" />
    <glyph glyph-name="three.subs" unicode="&#x2083;" horiz-adv-x="437" 
d="M137 -186q-71 0 -110 34t-42 97l53 6q0 -93 103 -93q59 0 94 27.5t35 70.5q0 68 -94 68h-34l10 46h33q48 0 78.5 22.5t30.5 59.5q0 32 -24.5 49t-67.5 17q-96 0 -119 -83l-52 6q12 56 59 88.5t118 32.5q63 0 101.5 -28t38.5 -74q0 -39 -27 -69t-69 -40v-1q33 -8 52 -32.5
t19 -58.5q0 -63 -51.5 -104t-134.5 -41z" />
    <glyph glyph-name="four.subs" unicode="&#x2084;" horiz-adv-x="440" 
d="M231 -174h-51l22 107l-229 -1l9 45l285 276h54l-59 -280l76 1l-9 -42l-76 1zM255 192l-225 -218l181 -1l46 218z" />
    <glyph glyph-name="five.subs" unicode="&#x2085;" horiz-adv-x="438" 
d="M131 -188q-64 0 -103.5 27t-50.5 76l53 12q7 -34 34.5 -52t70.5 -18q61 0 100 32.5t39 83.5q0 40 -26 63t-73 23q-67 0 -109 -45l-50 19l88 220h253l-10 -44h-215l-57 -146l2 -1q49 39 119 39q63 0 97.5 -33t34.5 -87q0 -74 -55 -122q-56 -47 -142 -47z" />
    <glyph glyph-name="six.subs" unicode="&#x2086;" horiz-adv-x="439" 
d="M153 -186q-74 0 -116 42t-42 121q0 117 60 201q59 84 159 84q109 0 143 -94l-49 -16q-26 66 -98 66q-62 0 -104 -50t-54 -136q56 69 142 69q61 0 98.5 -34.5t37.5 -90.5q0 -67 -49 -115q-50 -47 -128 -47zM152 -142q56 0 90.5 32t34.5 81q0 40 -26 63t-71 23
q-50 0 -86 -27.5t-47 -72.5q0 -47 28 -73t77 -26z" />
    <glyph glyph-name="seven.subs" unicode="&#x2087;" horiz-adv-x="375" 
d="M61 -174h-53q68 236 267 383h-260l9 44h325l-9 -42q-212 -146 -279 -385z" />
    <glyph glyph-name="eight.subs" unicode="&#x2088;" horiz-adv-x="451" 
d="M142 -182q-74 0 -118 32t-44 84q0 46 33.5 79t89.5 44l1 2q-60 21 -60 81q0 54 48.5 88t125.5 34q67 0 106 -26.5t39 -71.5q0 -38 -28 -68t-73 -38v-2q77 -23 77 -97q0 -61 -56 -102q-55 -39 -141 -39zM188 75q56 0 89 23t33 60q0 30 -25.5 46.5t-69.5 16.5
q-55 0 -88 -22.5t-33 -60.5q0 -30 24.5 -46.5t69.5 -16.5zM146 -140q63 0 101.5 28t38.5 73q0 74 -111 74q-65 0 -102.5 -26t-37.5 -70q0 -37 30 -58t81 -21z" />
    <glyph glyph-name="nine.subs" unicode="&#x2089;" horiz-adv-x="438" 
d="M131 -186q-109 0 -143 94l49 16q25 -66 98 -66q62 0 104 50t54 136q-55 -69 -142 -69q-61 0 -98.5 34.5t-37.5 90.5q0 67 50 115q50 47 127 47q74 0 116 -42t42 -121q0 -116 -59 -201q-60 -84 -160 -84zM165 19q50 0 86 27.5t47 72.5q0 47 -28 73t-77 26q-56 0 -90.5 -32
t-34.5 -81q0 -40 26 -63t71 -23z" />
    <glyph glyph-name="plus.subs" unicode="&#x208a;" horiz-adv-x="533" 
d="M174 52h183v-42h-183v-160h-46v160h-182v42h182v160h46v-160z" />
    <glyph glyph-name="minus.subs" unicode="&#x208b;" horiz-adv-x="521" 
d="M345 8h-399v43h399v-43z" />
    <glyph glyph-name="equal.subs" unicode="&#x208c;" horiz-adv-x="521" 
d="M345 86h-399v42h399v-42zM345 -68h-399v43h399v-43z" />
    <glyph glyph-name="uni208D" unicode="&#x208d;" horiz-adv-x="294" 
d="M114 -309h-49q-58 109 -58 224q0 112 50.5 218.5t140.5 185.5h50q-92 -80 -141.5 -186t-49.5 -218q0 -117 57 -224z" />
    <glyph glyph-name="uni208E" unicode="&#x208e;" horiz-adv-x="294" 
d="M-12 -309h-49q91 81 140.5 187t49.5 217q0 115 -56 224h48q58 -106 58 -224q0 -112 -50.5 -218.5t-140.5 -185.5z" />
    <glyph glyph-name="n.subs" unicode="&#x2099;" horiz-adv-x="485" 
d="M243 174q53 0 83 -26.5t30 -74.5q0 -20 -8 -57l-41 -190h-50l42 194q4 23 4 38q0 33 -20.5 51t-58.5 18q-49 0 -87 -30.5t-53 -82.5l-40 -188h-50l72 340h49l-13 -68q51 76 141 76z" />
    <glyph glyph-name="Euro" unicode="&#x20ac;" 
d="M538 668q-92 0 -165.5 -50t-118.5 -142h381l-12 -53h-391q-11 -28 -20 -71q-6 -29 -9 -56h394l-12 -53h-385q2 -96 52.5 -148.5t147.5 -52.5q74 0 149 29l-13 -59q-69 -25 -146 -25q-119 0 -183.5 67.5t-66.5 188.5h-134l12 53h124q3 39 10 66q10 42 16 61h-124l12 53
h132q51 117 142 181.5t207 64.5q82 0 145 -30l-12 -53q-61 29 -132 29z" />
    <glyph glyph-name="uni20B8" unicode="&#x20b8;" horiz-adv-x="641" 
d="M125 659l11 53h558l-11 -53h-558zM338 495h-248l12 53h557l-11 -53h-249l-105 -495h-61z" />
    <glyph glyph-name="uni20B9" unicode="&#x20b9;" 
d="M145 712h544l-11 -53h-273q60 -37 60 -113v-8h188l-12 -53h-184q-16 -57 -60.5 -96t-106.5 -50q45 -7 68 -36t28 -88l17 -215h-61l-14 208q-4 60 -31.5 81.5t-98.5 21.5h-139l11 53h143q70 0 118 32t65 89h-299l11 53h298v14q0 50 -32 78.5t-90 28.5h-151z" />
    <glyph glyph-name="uni20BA" unicode="&#x20ba;" 
d="M524 246h56q-34 -117 -128 -182q-92 -64 -217 -64h-131l52 247l-156 -73l11 58l159 75l27 130l-157 -74l12 58l158 74l46 217h60l-40 -185l251 118l-11 -58l-252 -119l-28 -130l251 118l-11 -58l-253 -119l-47 -224h66q101 0 175 49.5t107 141.5z" />
    <glyph glyph-name="uni20BC" unicode="&#x20bc;" 
d="M426 712l-40 -187q188 -2 188 -159q0 -43 -10 -87l-60 -279h-60l62 289q10 46 10 76q0 57 -33 83t-107 28l-78 -365h-60l78 364q-92 -4 -140.5 -48t-69.5 -144l-61 -283h-60l61 285q27 127 92 183.5t186 56.5h2l40 187h60z" />
    <glyph glyph-name="uni20BF" unicode="&#x20bf;" horiz-adv-x="734" 
d="M532 375q112 -34 112 -147q0 -101 -69 -164q-70 -62 -180 -64l-30 -144h-52l30 144h-113l-30 -144h-52l30 144h-133l152 712h132l29 135h52l-29 -135h113l29 135h52l-28 -138q66 -10 101.5 -49t35.5 -96q0 -68 -41 -118.5t-111 -70.5zM489 659h-242l-56 -262h245
q82 0 133.5 44t51.5 115q0 49 -33.5 76t-98.5 27zM117 53h275q86 0 139 50t53 128q0 114 -144 114h-260z" />
    <glyph glyph-name="uni2105" unicode="&#x2105;" horiz-adv-x="1255" 
d="M392 -15h-63l602 742h63zM321 365q-72 0 -116 41.5t-44 112.5q0 83 56 144q55 60 144 60q67 0 107.5 -33t46.5 -84l-52 -4q-6 35 -32.5 56.5t-70.5 21.5q-69 0 -108 -48t-39 -112q0 -53 29.5 -82t81.5 -29q79 0 118 72l50 -9q-50 -107 -171 -107zM940 -10q-72 0 -116 43
t-44 113q0 87 57 144q55 57 141 57q72 0 115 -43t43 -113q0 -86 -56 -144q-56 -57 -140 -57zM944 33q64 0 102 42t38 114q0 54 -29.5 84.5t-81.5 30.5q-65 0 -103.5 -43.5t-38.5 -113.5q0 -54 30.5 -84t82.5 -30z" />
    <glyph glyph-name="uni2113" unicode="&#x2113;" horiz-adv-x="532" 
d="M392 96l36 -39q-57 -69 -149 -69q-66 0 -102.5 35.5t-36.5 100.5v96l-93 -43l-22 49l115 46v311q0 67 35 103t101 36q73 0 108 -45t35 -140q0 -111 -51 -176q-50 -64 -168 -115v-119q0 -42 22 -64t62 -22q65 0 108 55zM278 669q-78 0 -78 -89v-282q89 43 127 96
q37 50 37 140q0 71 -21 103t-65 32z" />
    <glyph glyph-name="uni2116" unicode="&#x2116;" horiz-adv-x="1203" 
d="M1052 723q72 0 115 -43t43 -113q0 -86 -56 -144q-56 -57 -140 -57q-72 0 -116 43t-44 113q0 87 57 144q55 57 141 57zM257 712l297 -629l135 629h57l-152 -712h-62l-296 628l-133 -628h-58l152 712h60zM1018 409q64 0 102 42t38 114q0 54 -29.5 84.5t-81.5 30.5
q-65 0 -103.5 -43.5t-38.5 -113.5q0 -54 30.5 -84t82.5 -30z" />
    <glyph glyph-name="uni2117" unicode="&#x2117;" horiz-adv-x="901" 
d="M209 621q102 104 262 104q159 0 263 -104q103 -103 103 -265q0 -161 -103 -264q-104 -105 -263 -105t-262 105q-103 103 -103 264q0 162 103 265zM241 121q89 -92 230 -92t231 92q89 92 89 235t-89 235q-90 91 -231 91q-142 0 -230 -91q-89 -92 -89 -235t89 -235z
M356 547h151q56 0 90 -32.5t34 -84.5q0 -53 -35 -85.5t-92 -32.5h-101v-142h-47v377zM403 351h96q41 0 63 21t22 58q0 77 -84 77h-97v-156z" />
    <glyph glyph-name="trademark" unicode="&#x2122;" horiz-adv-x="1057" 
d="M320 330h-46v342h-123v40h293v-40h-124v-342zM604 330h-44v382h93l114 -356h12l111 356h96v-382h-46v356h-15l-111 -356h-83l-113 356h-14v-356z" />
    <glyph glyph-name="uni2126" unicode="&#x2126;" horiz-adv-x="907" 
d="M389 0h-285v53h200v2q-92 54 -142 137.5t-50 189.5q0 160 91 251q92 92 238 92q147 0 236 -92t89 -251q0 -107 -49 -191t-139 -136v-2h199v-53h-284v48q212 111 212 334q0 137 -70.5 212.5t-193.5 75.5q-121 0 -194 -75q-73 -76 -73 -213q0 -221 215 -334v-48z" />
    <glyph glyph-name="estimated" unicode="&#x212e;" horiz-adv-x="903" 
d="M451 722q183 0 293 -110q109 -109 109 -269h-641q-14 0 -14 -13v-175q0 -30 16 -45q98 -96 237 -96q74 0 141 31t110 84h72q-45 -62 -128.5 -102t-194.5 -40q-181 0 -290 103q-111 104 -111 263t109 264t292 105zM451 694q-139 0 -237 -98q-16 -15 -16 -43v-174
q0 -13 14 -13h477q14 0 14 13v174q0 28 -16 43q-100 98 -236 98z" />
    <glyph glyph-name="uni2153" unicode="&#x2153;" horiz-adv-x="1121" 
d="M289 321h-51l63 297h-124l9 41h66q60 0 73 45l11 44h44zM251 -15h-63l602 742h63zM805 -12q-71 0 -109.5 34t-41.5 97l52 6q0 -93 104 -93q57 0 92.5 27.5t35.5 70.5q0 68 -93 68h-34l9 46h33q48 0 78.5 22.5t30.5 59.5q0 32 -24 49t-67 17q-97 0 -120 -83l-52 6
q13 57 59.5 89t118.5 32q63 0 101 -28t38 -74q0 -40 -26.5 -69.5t-69.5 -39.5v-1q33 -8 52 -32.5t19 -58.5q0 -63 -51.5 -104t-134.5 -41z" />
    <glyph glyph-name="uni2154" unicode="&#x2154;" horiz-adv-x="1247" 
d="M435 321h-321q22 124 156 181l83 34q97 40 97 104q0 33 -23 52t-67 19q-101 0 -125 -101h-54q35 147 183 147q64 0 101.5 -29.5t37.5 -80.5q0 -93 -130 -148l-65 -27q-104 -44 -123 -105h260zM377 -15h-63l602 742h63zM931 -12q-71 0 -109.5 34t-41.5 97l52 6
q0 -93 104 -93q57 0 92.5 27.5t35.5 70.5q0 68 -93 68h-34l9 46h33q48 0 78.5 22.5t30.5 59.5q0 32 -24 49t-67 17q-97 0 -120 -83l-52 6q13 57 59.5 89t118.5 32q63 0 101 -28t38 -74q0 -40 -26.5 -69.5t-69.5 -39.5v-1q33 -8 52 -32.5t19 -58.5q0 -63 -51.5 -104
t-134.5 -41z" />
    <glyph glyph-name="uni2155" unicode="&#x2155;" horiz-adv-x="1137" 
d="M289 321h-51l63 297h-124l9 41h66q60 0 73 45l11 44h44zM251 -15h-63l602 742h63zM814 -14q-63 0 -103 27.5t-51 75.5l53 12q16 -70 105 -70q61 0 100 32.5t39 83.5q0 40 -25.5 63t-72.5 23q-67 0 -109 -45l-51 19l89 220h252l-9 -44h-215l-57 -146l1 -1q50 39 119 39
q63 0 98 -33t35 -87q0 -75 -55 -121q-55 -48 -143 -48z" />
    <glyph glyph-name="uni2156" unicode="&#x2156;" horiz-adv-x="1249" 
d="M435 321h-321q22 124 156 181l83 34q97 40 97 104q0 33 -23 52t-67 19q-101 0 -125 -101h-54q35 147 183 147q64 0 101.5 -29.5t37.5 -80.5q0 -93 -130 -148l-65 -27q-104 -44 -123 -105h260zM363 -15h-63l602 742h64zM926 -14q-63 0 -102.5 27.5t-50.5 75.5l52 12
q16 -70 106 -70q61 0 99.5 32.5t38.5 83.5q0 40 -25.5 63t-72.5 23q-67 0 -109 -45l-50 19l88 220h252l-9 -44h-215l-57 -146l2 -1q49 39 119 39q63 0 97.5 -33t34.5 -87q0 -75 -55 -121q-55 -48 -143 -48z" />
    <glyph glyph-name="uni2157" unicode="&#x2157;" horiz-adv-x="1235" 
d="M292 309q-71 0 -109.5 34t-41.5 97l52 6q0 -93 104 -93q57 0 92.5 27.5t35.5 70.5q0 68 -93 68h-34l9 46h33q48 0 78.5 22.5t30.5 59.5q0 32 -24 49t-67 17q-97 0 -120 -83l-52 6q13 57 59.5 89t118.5 32q63 0 101 -28t38 -74q0 -40 -26.5 -69.5t-69.5 -39.5v-1
q33 -8 52 -32.5t19 -58.5q0 -63 -51.5 -104t-134.5 -41zM349 -15h-63l602 742h63zM912 -14q-63 0 -103 27.5t-51 75.5l53 12q16 -70 105 -70q61 0 100 32.5t39 83.5q0 40 -25.5 63t-72.5 23q-67 0 -109 -45l-51 19l89 220h252l-9 -44h-215l-57 -146l1 -1q50 39 119 39
q63 0 98 -33t35 -87q0 -75 -55 -121q-55 -48 -143 -48z" />
    <glyph glyph-name="uni2158" unicode="&#x2158;" horiz-adv-x="1273" 
d="M394 321h-51l22 107l-229 -1l9 45l285 276h54l-59 -280l76 1l-9 -42l-76 1zM387 -15h-64l602 742h64zM418 687l-225 -218l181 -1l46 218zM950 -14q-64 0 -103.5 27t-50.5 76l53 12q7 -34 34.5 -52t70.5 -18q61 0 100 32.5t39 83.5q0 40 -25.5 63t-72.5 23q-67 0 -109 -45
l-51 19l89 220h252l-10 -44h-215l-57 -146l2 -1q50 39 119 39q63 0 97.5 -33t34.5 -87q0 -75 -55 -121q-56 -48 -142 -48z" />
    <glyph glyph-name="uni2159" unicode="&#x2159;" horiz-adv-x="1105" 
d="M289 321h-51l63 297h-124l9 41h66q60 0 73 45l11 44h44zM251 -15h-63l602 742h63zM801 -12q-74 0 -116 42t-42 121q0 117 60 201t159 84q109 0 143 -94l-49 -16q-26 66 -97 66q-63 0 -104.5 -50t-53.5 -136q55 69 141 69q61 0 98.5 -34.5t37.5 -90.5q0 -68 -49 -114
q-49 -48 -128 -48zM800 32q56 0 91 32t35 81q0 40 -26.5 63t-71.5 23q-50 0 -85.5 -27t-47.5 -73q1 -47 29 -73t76 -26z" />
    <glyph glyph-name="uni215A" unicode="&#x215a;" horiz-adv-x="1197" 
d="M286 307q-63 0 -103 27.5t-51 75.5l53 12q16 -70 105 -70q61 0 100 32.5t39 83.5q0 40 -25.5 63t-72.5 23q-67 0 -109 -45l-51 19l89 220h252l-9 -44h-215l-57 -146l1 -1q49 39 119 39q63 0 98 -33t35 -87q0 -75 -55 -121q-55 -48 -143 -48zM344 -15h-64l602 742h64z
M893 -12q-74 0 -116 42t-42 121q0 117 60 201t160 84q52 0 89 -24.5t53 -69.5l-48 -16q-26 66 -98 66q-63 0 -104.5 -50t-53.5 -136q55 69 141 69q61 0 99 -34.5t38 -90.5q0 -67 -50 -114q-49 -48 -128 -48zM893 32q55 0 90 32t35 81q0 40 -26 63t-71 23q-50 0 -86 -27.5
t-47 -72.5q0 -47 28 -73t77 -26z" />
    <glyph glyph-name="oneeighth" unicode="&#x215b;" horiz-adv-x="1130" 
d="M289 321h-51l63 297h-124l9 41h66q60 0 73 45l11 44h44zM251 -15h-63l602 742h63zM803 -8q-74 0 -118 32t-44 84q0 46 33.5 79t89.5 44l1 2q-60 21 -60 81q0 54 48.5 88t125.5 34q67 0 106 -26.5t39 -71.5q0 -38 -28 -68t-73 -38v-2q78 -24 78 -97q0 -62 -56 -101
q-56 -40 -142 -40zM849 249q56 0 89.5 23t33.5 60q0 30 -25.5 46.5t-70.5 16.5q-55 0 -88 -22.5t-33 -60.5q0 -30 24.5 -46.5t69.5 -16.5zM807 34q63 0 101.5 28t38.5 73q0 74 -110 74q-65 0 -103 -26t-38 -70q0 -37 30 -58t81 -21z" />
    <glyph glyph-name="threeeighths" unicode="&#x215c;" horiz-adv-x="1228" 
d="M292 309q-71 0 -109.5 34t-41.5 97l52 6q0 -93 104 -93q57 0 92.5 27.5t35.5 70.5q0 68 -93 68h-34l9 46h33q48 0 78.5 22.5t30.5 59.5q0 32 -24 49t-67 17q-97 0 -120 -83l-52 6q13 57 59.5 89t118.5 32q63 0 101 -28t38 -74q0 -40 -26.5 -69.5t-69.5 -39.5v-1
q33 -8 52 -32.5t19 -58.5q0 -63 -51.5 -104t-134.5 -41zM349 -15h-63l602 742h63zM901 -8q-74 0 -118 32t-44 84q0 46 33.5 79t89.5 44l1 2q-60 21 -60 81q0 54 48.5 88t125.5 34q67 0 106 -26.5t39 -71.5q0 -38 -28 -68t-73 -38v-2q78 -24 78 -97q0 -62 -56 -101
q-56 -40 -142 -40zM947 249q56 0 89.5 23t33.5 60q0 30 -25.5 46.5t-70.5 16.5q-55 0 -88 -22.5t-33 -60.5q0 -30 24.5 -46.5t69.5 -16.5zM905 34q63 0 101.5 28t38.5 73q0 74 -110 74q-65 0 -103 -26t-38 -70q0 -37 30 -58t81 -21z" />
    <glyph glyph-name="fiveeighths" unicode="&#x215d;" horiz-adv-x="1222" 
d="M286 307q-63 0 -103 27.5t-51 75.5l53 12q16 -70 105 -70q61 0 100 32.5t39 83.5q0 40 -25.5 63t-72.5 23q-67 0 -109 -45l-51 19l89 220h252l-9 -44h-215l-57 -146l1 -1q49 39 119 39q63 0 98 -33t35 -87q0 -75 -55 -121q-55 -48 -143 -48zM344 -15h-64l602 742h64z
M896 -8q-74 0 -118 32t-44 84q0 46 33.5 79t89.5 44v2q-60 23 -60 81q0 54 49 88t126 34q66 0 105 -26.5t39 -71.5q0 -39 -27.5 -68.5t-72.5 -37.5l-1 -2q78 -22 78 -97q0 -62 -56 -101q-55 -40 -141 -40zM942 249q55 0 88.5 23t33.5 60q0 30 -25.5 46.5t-70.5 16.5
q-55 0 -87.5 -22.5t-32.5 -60.5q0 -30 24.5 -46.5t69.5 -16.5zM900 34q63 0 101.5 28t38.5 73q0 74 -111 74q-65 0 -103 -26t-38 -70q0 -37 30 -58t82 -21z" />
    <glyph glyph-name="seveneighths" unicode="&#x215e;" horiz-adv-x="1111" 
d="M241 321h-53q68 236 267 383h-260l9 44h325l-9 -42q-212 -146 -279 -385zM232 -15h-63l602 742h63zM784 -8q-74 0 -118 32t-44 84q0 46 33.5 79t89.5 44l1 2q-60 21 -60 81q0 54 48.5 88t125.5 34q67 0 106 -26.5t39 -71.5q0 -38 -28 -68t-73 -38v-2q78 -24 78 -97
q0 -62 -56 -101q-56 -40 -142 -40zM830 249q56 0 89.5 23t33.5 60q0 30 -25.5 46.5t-70.5 16.5q-55 0 -88 -22.5t-33 -60.5q0 -30 24.5 -46.5t69.5 -16.5zM788 34q63 0 101.5 28t38.5 73q0 74 -110 74q-65 0 -103 -26t-38 -70q0 -37 30 -58t81 -21z" />
    <glyph glyph-name="arrowleft" unicode="&#x2190;" horiz-adv-x="1000" 
d="M246 386h635v-60h-635l124 -161l124 -165h-70l-269 356l269 356h70l-124 -165z" />
    <glyph glyph-name="arrowup" unicode="&#x2191;" horiz-adv-x="1000" 
d="M179 457l356 269l356 -269v-70l-165 125l-161 124v-636h-60v637l-160 -125l-166 -125v70z" />
    <glyph glyph-name="arrowright" unicode="&#x2192;" horiz-adv-x="1000" 
d="M548 712h70l270 -356l-270 -356h-70l125 165l123 161h-635v60h635l-123 161z" />
    <glyph glyph-name="arrowdown" unicode="&#x2193;" horiz-adv-x="1000" 
d="M537 76l161 124l165 125v-70l-356 -269l-356 269v70l166 -125l160 -123v635h60v-636z" />
    <glyph glyph-name="arrowboth" unicode="&#x2194;" horiz-adv-x="1306" 
d="M854 712h70l269 -356l-269 -356h-70l125 165l123 161h-856l124 -161l124 -165h-70l-269 356l269 356h70l-124 -165l-124 -161h856l-123 161z" />
    <glyph glyph-name="arrowupdn" unicode="&#x2195;" horiz-adv-x="1097" 
d="M608 -47l160 124l166 125v-71l-356 -269l-356 269v71l165 -125l161 -124v878l-327 -249v70l356 270l356 -270v-70l-166 125l-159 123v-877z" />
    <glyph glyph-name="uni2196" unicode="&#x2196;" horiz-adv-x="1016" 
d="M296 611l566 -568l-43 -43l-567 569l3 -144v-403h-60v646h646v-60h-397z" />
    <glyph glyph-name="uni2197" unicode="&#x2197;" horiz-adv-x="1000" 
d="M196 608v60h646v-646h-61v403l4 144l-567 -569l-43 43l566 568l-149 -3h-396z" />
    <glyph glyph-name="uni2198" unicode="&#x2198;" horiz-adv-x="1016" 
d="M793 243v403h60v-646h-646v60h397l149 -3l-566 568l42 43l567 -569z" />
    <glyph glyph-name="uni2199" unicode="&#x2199;" horiz-adv-x="1000" 
d="M857 625l-566 -568l149 3h396v-60h-646v646h61v-403l-4 -144l567 569z" />
    <glyph glyph-name="partialdiff" unicode="&#x2202;" horiz-adv-x="642" 
d="M324 720q245 0 245 -360q0 -370 -235 -370q-98 0 -155 62q-57 61 -57 163t57 162.5t153 60.5q111 0 177 -82q-1 161 -47.5 236t-141.5 75q-65 0 -134 -32l-20 49q74 36 158 36zM336 42q153 0 171 238q-57 107 -170 107q-72 0 -113.5 -45.5t-41.5 -125.5
q0 -79 41.5 -126.5t112.5 -47.5z" />
    <glyph glyph-name="uni2206" unicode="&#x2206;" horiz-adv-x="722" 
d="M277 714h66l290 -714h-648zM294 610l-223 -557h474l-219 557l-15 48z" />
    <glyph glyph-name="product" unicode="&#x220f;" horiz-adv-x="942" 
d="M197 712h547v-916h-61v860h-425v-860h-61v916z" />
    <glyph glyph-name="summation" unicode="&#x2211;" horiz-adv-x="869" 
d="M545 259l-308 -405h458v-58h-535v52l314 411l-302 401v52h512v-58h-435z" />
    <glyph glyph-name="minus" unicode="&#x2212;" 
d="M585 284h-529v52h529v-52z" />
    <glyph glyph-name="uni2215" unicode="&#x2215;" horiz-adv-x="325" 
d="M-86 -15h-63l602 742h64z" />
    <glyph glyph-name="uni2219" unicode="&#x2219;" horiz-adv-x="305" 
d="M209 216h-132l29 129h132z" />
    <glyph glyph-name="radical" unicode="&#x221a;" 
d="M400 -204h-85l-127 339l-111 -43l-18 49l164 62l130 -355l201 899h58z" />
    <glyph glyph-name="infinity" unicode="&#x221e;" horiz-adv-x="804" 
d="M229 185q-70 0 -111 44.5t-41 114.5q0 71 41.5 116t108.5 45q52 0 97.5 -30t96.5 -97q52 68 96 98t95 30q68 0 110.5 -45t42.5 -115q0 -72 -42 -117t-111 -45q-98 0 -191 124q-52 -66 -96.5 -94.5t-95.5 -28.5zM614 234q45 0 73 31t28 79q0 50 -28 81t-75 31
q-41 0 -78 -27t-81 -86q78 -109 161 -109zM229 235q79 0 159 108q-85 112 -161 112q-45 0 -72.5 -31t-27.5 -80t27.5 -79t74.5 -30z" />
    <glyph glyph-name="integral" unicode="&#x222b;" 
d="M208 -204h-23v51h22q44 0 63.5 20t19.5 68v665q0 77 34.5 112t107.5 35h23v-51h-22q-44 0 -63.5 -20t-19.5 -68v-665q0 -77 -34.5 -112t-107.5 -35z" />
    <glyph glyph-name="approxequal" unicode="&#x2248;" 
d="M122 350h-53q0 85 36.5 130.5t97.5 45.5q30 0 58 -12.5t48.5 -31t40.5 -36.5t42.5 -30.5t45.5 -12.5q37 0 58.5 31.5t21.5 91.5h53q0 -84 -36.5 -130t-97.5 -46q-34 0 -68.5 18t-57.5 44q-58 62 -109 62q-38 0 -59 -31.5t-21 -92.5zM122 108h-53q0 85 36.5 130.5
t97.5 45.5q30 0 58 -12.5t48.5 -30.5t40.5 -36.5t42.5 -31t45.5 -12.5q37 0 58.5 31.5t21.5 91.5h53q0 -84 -36.5 -130t-97.5 -46q-34 0 -68.5 18t-57.5 44q-58 62 -109 62q-37 0 -58.5 -32t-21.5 -92z" />
    <glyph glyph-name="notequal" unicode="&#x2260;" 
d="M585 445v-52h-200l-74 -167h274v-52h-297l-90 -201l-40 15l83 186h-185v52h208l75 167h-283v52h306l92 207l40 -15l-86 -192h177z" />
    <glyph glyph-name="lessequal" unicode="&#x2264;" 
d="M56 395l529 179v-59l-473 -152l473 -151v-59l-529 178v64zM585 14h-529v52h529v-52z" />
    <glyph glyph-name="greaterequal" unicode="&#x2265;" 
d="M56 515v59l529 -179v-64l-529 -178v59l473 151zM585 14h-529v52h529v-52z" />
    <glyph glyph-name="uni2460" unicode="&#x2460;" horiz-adv-x="1182" 
d="M978 31q-141 -140 -361 -140t-361 140q-143 140 -143 351q0 212 143 352q142 139 361 139t361 -139q143 -140 143 -352q0 -211 -143 -351zM298 68q125 -124 319 -124t319 124q126 125 126 314q0 190 -126 314q-125 124 -319 124t-319 -124q-126 -124 -126 -314t126 -314z
M666 167h-51v297h-123v41h66q58 0 63 45l2 44h43v-427z" />
    <glyph glyph-name="uni2461" unicode="&#x2461;" horiz-adv-x="1182" 
d="M978 31q-141 -140 -361 -140t-361 140q-143 140 -143 351q0 212 143 352q142 139 361 139t361 -139q143 -140 143 -352q0 -211 -143 -351zM298 68q125 -124 319 -124t319 124q126 125 126 314q0 190 -126 314q-125 124 -319 124t-319 -124q-126 -124 -126 -314t126 -314z
M782 181h-321q0 124 121 181l73 35q74 36 74 92q0 37 -27 60t-77 23q-102 0 -105 -102h-53q1 71 42 109t116 38q72 0 114.5 -35t42.5 -93q0 -43 -24.5 -74t-79.5 -57l-54 -26q-51 -24 -74 -48t-27 -57h259v-46z" />
    <glyph glyph-name="uni2462" unicode="&#x2462;" horiz-adv-x="1182" 
d="M978 31q-141 -140 -361 -140t-361 140q-143 140 -143 351q0 212 143 352q142 139 361 139t361 -139q143 -140 143 -352q0 -211 -143 -351zM298 68q125 -124 319 -124t319 124q126 125 126 314q0 190 -126 314q-125 124 -319 124t-319 -124q-126 -124 -126 -314t126 -314z
M626 162q-78 0 -124 37t-46 100h53q1 -93 118 -93q54 0 84 22t30 63q0 38 -28.5 59.5t-81.5 21.5h-36v46h36q44 0 67.5 19.5t23.5 53.5q0 36 -27 55.5t-75 19.5q-102 0 -105 -83h-52q0 59 41.5 93t114.5 34q71 0 113.5 -31t42.5 -84q0 -35 -19.5 -61t-53.5 -35v-1
q42 -10 66.5 -39t24.5 -70q0 -57 -45.5 -92t-121.5 -35z" />
    <glyph glyph-name="uni2463" unicode="&#x2463;" horiz-adv-x="1182" 
d="M978 31q-141 -140 -361 -140t-361 140q-143 140 -143 351q0 212 143 352q142 139 361 139t361 -139q143 -140 143 -352q0 -211 -143 -351zM298 68q125 -124 319 -124t319 124q126 125 126 314q0 190 -126 314q-125 124 -319 124t-319 -124q-126 -124 -126 -314t126 -314z
M710 178h-51v107l-229 -1v44l226 277h54v-281l76 2v-42l-76 1v-107zM656 543l-179 -217l182 -2v219h-3z" />
    <glyph glyph-name="uni2464" unicode="&#x2464;" horiz-adv-x="1182" 
d="M978 31q-141 -140 -361 -140t-361 140q-143 140 -143 351q0 212 143 352q142 139 361 139t361 -139q143 -140 143 -352q0 -211 -143 -351zM298 68q125 -124 319 -124t319 124q126 125 126 314q0 190 -126 314q-125 124 -319 124t-319 -124q-126 -124 -126 -314t126 -314z
M621 163q-65 0 -108.5 27.5t-57.5 76.5l52 11q10 -33 40.5 -51.5t73.5 -18.5q56 0 87.5 27t31.5 73t-31 73.5t-85 27.5q-68 0 -102 -43l-55 12l43 226h252v-44h-215l-26 -145l2 -2q41 39 112 39q74 0 115.5 -39t41.5 -103q0 -65 -46 -106t-125 -41z" />
    <glyph glyph-name="uni2465" unicode="&#x2465;" horiz-adv-x="1182" 
d="M978 31q-141 -140 -361 -140t-361 140q-143 140 -143 351q0 212 143 352q142 139 361 139t361 -139q143 -140 143 -352q0 -211 -143 -351zM298 68q125 -124 319 -124t319 124q126 125 126 314q0 190 -126 314q-125 124 -319 124t-319 -124q-126 -124 -126 -314t126 -314z
M629 168q-176 0 -176 212q0 115 45.5 175.5t132.5 60.5q57 0 95.5 -25.5t52.5 -70.5l-50 -13q-23 65 -99 65q-123 0 -127 -178q43 60 134 60q70 0 112.5 -38t42.5 -101q0 -66 -44 -106.5t-119 -40.5zM629 211q51 0 81 27.5t30 74.5q0 45 -29.5 72t-80.5 27q-48 0 -80.5 -23
t-40.5 -60q3 -57 35 -87.5t85 -30.5z" />
    <glyph glyph-name="uni2466" unicode="&#x2466;" horiz-adv-x="1182" 
d="M978 31q-141 -140 -361 -140t-361 140q-143 140 -143 351q0 212 143 352q142 139 361 139t361 -139q143 -140 143 -352q0 -211 -143 -351zM298 68q125 -124 319 -124t319 124q126 125 126 314q0 190 -126 314q-125 124 -319 124t-319 -124q-126 -124 -126 -314t126 -314z
M600 158h-53q18 238 186 383h-260v44h325v-42q-178 -142 -198 -385z" />
    <glyph glyph-name="uni2467" unicode="&#x2467;" horiz-adv-x="1182" 
d="M978 31q-141 -140 -361 -140t-361 140q-143 140 -143 351q0 212 143 352q142 139 361 139t361 -139q143 -140 143 -352q0 -211 -143 -351zM298 68q125 -124 319 -124t319 124q126 125 126 314q0 190 -126 314q-125 124 -319 124t-319 -124q-126 -124 -126 -314t126 -314z
M746 201q-49 -35 -129 -35t-129 35q-48 35 -48 95q0 40 26 69.5t71 39.5v2q-36 11 -56.5 36t-20.5 58q0 50 42.5 79.5t114.5 29.5q73 0 115.5 -29.5t42.5 -79.5q0 -34 -20.5 -59t-57.5 -35v-2q46 -10 71.5 -39t25.5 -70q0 -60 -48 -95zM539 443q28 -19 78 -19t78 19t28 53
q0 35 -28 54t-78 19t-78 -19t-28 -54q0 -34 28 -53zM527 232q31 -24 90 -24q58 0 91 24t33 66q0 85 -124 85q-59 0 -91 -22t-32 -63q0 -42 33 -66z" />
    <glyph glyph-name="uni2468" unicode="&#x2468;" horiz-adv-x="1182" 
d="M978 31q-141 -140 -361 -140t-361 140q-143 140 -143 351q0 212 143 352q142 139 361 139t361 -139q143 -140 143 -352q0 -211 -143 -351zM298 68q125 -124 319 -124t319 124q126 125 126 314q0 190 -126 314q-125 124 -319 124t-319 -124q-126 -124 -126 -314t126 -314z
M616 159q-56 0 -95 25t-54 70l50 14q23 -65 99 -65q124 0 128 178q-45 -61 -135 -61q-70 0 -112 38t-42 102q0 67 44 107t119 40q175 0 175 -212q0 -114 -45 -175t-132 -61zM617 363q48 0 80.5 23t39.5 60q-2 57 -34 87t-86 30q-51 0 -81 -27.5t-30 -73.5q0 -45 30 -72
t81 -27z" />
    <glyph glyph-name="uni24EA" unicode="&#x24ea;" horiz-adv-x="1182" 
d="M978 31q-141 -140 -361 -140t-361 140q-143 140 -143 351q0 212 143 352q142 139 361 139t361 -139q143 -140 143 -352q0 -211 -143 -351zM298 68q125 -124 319 -124t319 124q126 125 126 314q0 190 -126 314q-125 124 -319 124t-319 -124q-126 -124 -126 -314t126 -314z
M617 162q-88 0 -133.5 57t-45.5 167q0 224 179 224q180 0 180 -224t-180 -224zM617 210q64 0 94.5 43t30.5 133q0 177 -125 177q-124 0 -124 -177q0 -90 30.5 -133t93.5 -43z" />
    <glyph glyph-name="uni24FF" unicode="&#x24ff;" horiz-adv-x="1182" 
d="M978 31q-141 -140 -361 -140t-361 140q-143 140 -143 351q0 212 143 352q142 139 361 139t361 -139q143 -140 143 -352q0 -211 -143 -351zM617 162q180 0 180 224t-180 224q-179 0 -179 -224q0 -110 45.5 -167t133.5 -57zM617 210q-63 0 -93.5 43t-30.5 133
q0 177 124 177q125 0 125 -177q0 -90 -30.5 -133t-94.5 -43z" />
    <glyph glyph-name="filledbox" unicode="&#x25a0;" horiz-adv-x="1297" 
d="M1123 -88h-908v888h908v-888z" />
    <glyph glyph-name="uni25A1" unicode="&#x25a1;" horiz-adv-x="1297" 
d="M1123 -88h-908v888h908v-888zM274 747v-782h790v782h-790z" />
    <glyph glyph-name="lozenge" unicode="&#x25ca;" horiz-adv-x="553" 
d="M260 712h75l188 -356l-188 -356h-75l-189 356zM130 356l167 -323l167 323l-167 323z" />
    <glyph glyph-name="circle" unicode="&#x25cb;" horiz-adv-x="1182" 
d="M978 31q-141 -140 -361 -140t-361 140q-143 140 -143 351q0 212 143 352q142 139 361 139t361 -139q143 -140 143 -352q0 -211 -143 -351zM298 68q125 -124 319 -124t319 124q126 125 126 314q0 190 -126 314q-125 124 -319 124t-319 -124q-126 -124 -126 -314t126 -314z
" />
    <glyph glyph-name="uni25CF" unicode="&#x25cf;" horiz-adv-x="1182" 
d="M978 31q-141 -140 -361 -140t-361 140q-143 140 -143 351q0 212 143 352q142 139 361 139t361 -139q143 -140 143 -352q0 -211 -143 -351z" />
    <glyph glyph-name="uni2776" unicode="&#x2776;" horiz-adv-x="1182" 
d="M978 31q-141 -140 -361 -140t-361 140q-143 140 -143 351q0 212 143 352q142 139 361 139t361 -139q143 -140 143 -352q0 -211 -143 -351zM609 470v-297h51v427h-43l-2 -44q-5 -45 -63 -45h-66v-41h123z" />
    <glyph glyph-name="uni2777" unicode="&#x2777;" horiz-adv-x="1182" 
d="M256 734q142 139 361 139t361 -139q143 -140 143 -352q0 -211 -143 -351q-141 -140 -361 -140t-361 140q-143 140 -143 351q0 212 143 352zM782 181v46h-259q4 33 27 57t74 48l54 26q55 26 79.5 57t24.5 74q0 58 -42.5 93t-114.5 35q-75 0 -116 -38t-42 -109h53
q3 102 105 102q50 0 77 -23t27 -60q0 -56 -74 -92l-73 -35q-121 -57 -121 -181h321z" />
    <glyph glyph-name="uni2778" unicode="&#x2778;" horiz-adv-x="1182" 
d="M978 31q-141 -140 -361 -140t-361 140q-143 140 -143 351q0 212 143 352q142 139 361 139t361 -139q143 -140 143 -352q0 -211 -143 -351zM620 162q76 0 121.5 35t45.5 92q0 41 -24.5 70t-66.5 39v1q33 9 52.5 35t19.5 61q0 52 -42 83.5t-113 31.5q-73 0 -115 -34
t-42 -93h53q3 83 104 83q48 0 75.5 -19.5t27.5 -55.5q0 -34 -23.5 -53.5t-67.5 -19.5h-37v-46h37q52 0 80.5 -21.5t28.5 -59.5q0 -41 -29.5 -63t-84.5 -22q-113 0 -118 93h-52q0 -64 46 -100.5t124 -36.5z" />
    <glyph glyph-name="uni2779" unicode="&#x2779;" horiz-adv-x="1182" 
d="M978 31q-141 -140 -361 -140t-361 140q-143 140 -143 351q0 212 143 352q142 139 361 139t361 -139q143 -140 143 -352q0 -211 -143 -351zM652 290v-107h51v107l76 -1v42l-76 -1v280h-54l-226 -277v-44zM652 330l-182 1l179 217h3v-218z" />
    <glyph glyph-name="uni277A" unicode="&#x277a;" horiz-adv-x="1182" 
d="M256 734q142 139 361 139t361 -139q143 -140 143 -352q0 -211 -143 -351q-141 -140 -361 -140t-361 140q-143 140 -143 351q0 212 143 352zM621 162q79 0 125.5 41t46.5 106q0 64 -42 103t-116 39q-71 0 -112 -39l-1 1l26 146h215v44h-252l-44 -226l55 -12q34 43 102 43
q54 0 85 -27.5t31 -73.5t-31.5 -73t-86.5 -27q-43 0 -73.5 18t-40.5 51l-52 -10q14 -49 57 -76.5t108 -27.5z" />
    <glyph glyph-name="uni277B" unicode="&#x277b;" horiz-adv-x="1182" 
d="M978 31q-141 -140 -361 -140t-361 140q-143 140 -143 351q0 212 143 352q142 139 361 139t361 -139q143 -140 143 -352q0 -211 -143 -351zM626 168q75 0 119 40t44 107q0 64 -42 101.5t-112 37.5q-90 0 -135 -60q4 178 128 178q76 0 99 -65l50 13q-32 96 -149 96
q-87 0 -132 -61t-45 -175q0 -212 175 -212zM627 211q-53 0 -85.5 30.5t-34.5 87.5q7 37 39.5 60t80.5 23q51 0 81 -27t30 -72q0 -47 -30 -74.5t-81 -27.5z" />
    <glyph glyph-name="uni277C" unicode="&#x277c;" horiz-adv-x="1182" 
d="M978 31q-141 -140 -361 -140t-361 140q-143 140 -143 351q0 212 143 352q142 139 361 139t361 -139q143 -140 143 -352q0 -211 -143 -351zM550 160h53q18 239 198 385v42h-325v-44h260q-168 -145 -186 -383z" />
    <glyph glyph-name="uni277D" unicode="&#x277d;" horiz-adv-x="1182" 
d="M978 31q-141 -140 -361 -140t-361 140q-143 140 -143 351q0 212 143 352q142 139 361 139t361 -139q143 -140 143 -352q0 -211 -143 -351zM488 201q49 -35 129 -35t129 35q48 35 48 95q0 41 -25.5 70t-71.5 39v2q37 10 57.5 35t20.5 59q0 50 -42.5 79.5t-115.5 29.5
q-72 0 -114.5 -29.5t-42.5 -79.5q0 -33 20.5 -58t56.5 -36v-2q-45 -10 -71 -39.5t-26 -69.5q0 -60 48 -95zM695 443q-28 -19 -78 -19t-78 19t-28 53q0 35 28 54t78 19t78 -19t28 -54q0 -34 -28 -53zM708 232q-33 -24 -91 -24q-59 0 -90 24q-33 24 -33 66q0 41 32 63t91 22
q124 0 124 -85q0 -42 -33 -66z" />
    <glyph glyph-name="uni277E" unicode="&#x277e;" horiz-adv-x="1182" 
d="M978 31q-141 -140 -361 -140t-361 140q-143 140 -143 351q0 212 143 352q142 139 361 139t361 -139q143 -140 143 -352q0 -211 -143 -351zM618 160q87 0 132.5 60.5t45.5 175.5q0 212 -176 212q-75 0 -119 -40.5t-44 -106.5q0 -64 42.5 -102t112.5 -38q91 0 134 61
q-4 -178 -127 -178q-76 0 -99 65l-50 -14q15 -45 53.5 -70t94.5 -25zM619 364q-51 0 -80.5 27t-29.5 72q0 46 30 73.5t81 27.5q53 0 85 -30t35 -87q-8 -37 -40.5 -60t-80.5 -23z" />
    <glyph glyph-name="uni2E18" unicode="&#x2e18;" horiz-adv-x="621" 
d="M337 516h76l-15 -75h-76zM450 17h59q-16 -105 -86.5 -164t-185.5 -59q-97 0 -159 44q-62 45 -62 125q0 114 149 197l46 25q45 25 64 50t36 78l8 31h41l-48 -268l-21 -102h-61l22 102l27 106q-33 -26 -67 -45q-73 -39 -106 -79t-33 -91q0 -61 44.5 -92.5t120.5 -31.5
q181 0 212 174z" />
    <glyph glyph-name="uniF8FF" unicode="&#xf8ff;" horiz-adv-x="1069" 
d="M418 449v180q0 38 -17 55q-18 18 -52 18q-42 0 -66 -25.5t-24 -76.5v-151h-31v380h31v-154q26 56 96 56q46 0 70 -26q24 -24 24 -74v-182h-31zM813 829h32v-380h-32v380zM634 443q-59 0 -93 39.5t-34 105.5q0 65 33.5 104t91.5 39q57 0 90 -37t33 -98v-14h-216
q0 -53 25.5 -83t70.5 -30q65 0 87 63l30 -3q-12 -39 -42.5 -62.5t-75.5 -23.5zM632 704q-40 0 -65 -26t-28 -72h185q-3 46 -27 72t-65 26zM752 137q-58 0 -92 39.5t-34 105.5q0 65 33.5 104t91.5 39q57 0 90 -37t33 -98v-14h-217q1 -53 26.5 -83t70.5 -30q64 0 87 63l29 -3
q-11 -40 -42 -63t-76 -23zM510 223l74 195h32l-107 -275h-31l-110 275h35l74 -195q3 -9 9 -27.5t8 -25.5q4 13 8 27t6 19.5t2 6.5zM816 372q-24 26 -65 26q-40 0 -66 -26q-25 -25 -28 -72h186q-3 46 -27 72zM305 171h-34v43h34v-43zM148 191v-83l69 1v-25l-69 2v-189
q0 -20 7.5 -28t26.5 -8h35v-27h-43q-59 0 -59 59v192l-47 -1v25l47 -1v83h33zM489 89q-46 0 -70 -30.5t-24 -86.5q0 -55 25 -86.5t69 -31.5q70 0 82 74h31q-7 -48 -36.5 -74.5t-78.5 -26.5q-58 0 -91 37.5t-33 105.5t33.5 107t92.5 39q47 0 77 -25.5t36 -68.5h-31
q-10 67 -82 67zM879 -166h-31q-7 23 -10 49q-29 -56 -103 -56q-44 0 -68 21t-24 58q0 71 89 82l69 9q20 3 27.5 10.5t7.5 22.5v8q0 52 -75 52q-37 0 -54.5 -14t-21.5 -45h-31q6 85 110 85q103 0 103 -81v-130q0 -26 12 -71zM304 -166h-32v275h32v-275zM740 -147
q39 0 65.5 21t30.5 57v51q-9 -5 -23 -8l-76 -11q-63 -11 -63 -56q0 -25 17 -39.5t49 -14.5z" />
    <glyph glyph-name="uniFEFF" unicode="&#xfeff;" horiz-adv-x="0" 
 />
    <glyph glyph-name="null" horiz-adv-x="0" 
 />
    <glyph glyph-name="Adieresis.ss01" horiz-adv-x="722" 
d="M426 819q-20 -22 -50.5 -9.5t-27.5 42.5q-3 27 21 38t48 0t21 -38q0 -20 -12 -33zM620 819q-20 -22 -50.5 -9.5t-27.5 42.5q-3 29 27.5 40.5t50.5 -8.5q12 -12 12 -32t-12 -33zM633 0h-62l-41 223h-340l-136 -223h-69l443 714h67zM426 610l-204 -334h298l-62 334l-5 48z
" />
    <glyph glyph-name="Cdotaccent.ss01" horiz-adv-x="742" 
d="M532 827q-22 -22 -50.5 -9.5t-28.5 42.5q-2 27 22 38t48 0t22 -38q0 -20 -13 -33zM352 -15q-122 0 -193 80q-70 79 -70 207q0 45 11 100q34 163 137 258t243 95q113 0 183 -62q68 -62 68 -166h-60q-2 80 -54.5 126.5t-141.5 46.5q-115 0 -200 -80q-84 -79 -114 -223
q-11 -49 -11 -94q0 -109 54.5 -171t152.5 -62q95 0 168 59q72 58 102 152h60q-35 -122 -125 -193q-91 -73 -210 -73z" />
    <glyph glyph-name="Edieresis.ss01" horiz-adv-x="671" 
d="M415 819q-20 -22 -50.5 -9.5t-27.5 42.5q-3 27 21 38t48 0t21 -38q0 -20 -12 -33zM609 819q-20 -22 -50.5 -9.5t-27.5 42.5q-3 29 27.5 40.5t50.5 -8.5q12 -12 12 -32t-12 -33zM685 712l-12 -53h-426l-56 -263h396l-11 -53h-397l-62 -290h441l-12 -53h-501l152 712h488z
" />
    <glyph glyph-name="Edotaccent.ss01" horiz-adv-x="671" 
d="M503 819q-22 -22 -50.5 -9.5t-28.5 42.5q-2 27 22 38t48 0t21 -38q0 -20 -12 -33zM685 712l-12 -53h-426l-56 -263h396l-11 -53h-397l-62 -290h441l-12 -53h-501l152 712h488z" />
    <glyph glyph-name="uni0122.ss01" horiz-adv-x="823" 
d="M675 314h-244l11 53h304l-78 -367h-46l16 122q-102 -136 -275 -136q-126 0 -200 77q-75 77 -75 204q0 49 12 106q34 161 140 258q106 95 256 95q124 0 195 -60.5t71 -167.5h-59q0 84 -55.5 129t-153.5 45q-126 0 -215 -84t-120 -229q-9 -51 -9 -91q0 -106 57.5 -167
t161.5 -61q102 0 180 59t116 164zM342 -70q20 0 32 -11.5t12 -30.5q0 -13 -4 -28l-7 -36q-13 -60 -87 -60h-13l6 28h15q40 0 48 36l6 32q-7 -4 -23 -4q-15 0 -24.5 9.5t-9.5 22.5q0 42 49 42z" />
    <glyph glyph-name="Gdotaccent.ss01" horiz-adv-x="823" 
d="M550 829q-22 -22 -50.5 -9.5t-28.5 42.5q-2 27 22 38t48 0t22 -38q0 -20 -13 -33zM675 314h-244l11 53h304l-78 -367h-46l16 122q-102 -136 -275 -136q-126 0 -200 77q-75 77 -75 204q0 49 12 106q34 161 140 258q106 95 256 95q124 0 195 -60.5t71 -167.5h-59
q0 84 -55.5 129t-153.5 45q-126 0 -215 -84t-120 -229q-9 -51 -9 -91q0 -106 57.5 -167t161.5 -61q102 0 180 59t116 164z" />
    <glyph glyph-name="Idieresis.ss01" horiz-adv-x="261" 
d="M192 819q-20 -21 -50.5 -9t-27.5 42q-3 27 21 38t48 0t22 -38q0 -20 -13 -33zM386 819q-20 -21 -50.5 -9t-27.5 42q-3 27 21 38t48 0t22 -38q0 -20 -13 -33zM106 0h-61l152 712h61z" />
    <glyph glyph-name="Idotaccent.ss01" horiz-adv-x="261" 
d="M290 819q-22 -22 -50.5 -9.5t-28.5 42.5q-2 27 22 38t48 0t22 -38q0 -20 -13 -33zM106 0h-61l152 712h61z" />
    <glyph glyph-name="uni0136.ss01" horiz-adv-x="713" 
d="M672 712h88l-371 -294l235 -418h-69l-214 382l-184 -144l-51 -238h-61l152 712h61l-85 -397zM307 -66q20 0 32 -11.5t12 -30.5q0 -10 -3 -28l-8 -36q-12 -60 -86 -60h-13l6 28h15q40 0 48 35l6 32q-7 -4 -23 -4q-15 0 -24.5 9.5t-9.5 22.5q0 43 48 43z" />
    <glyph glyph-name="uni013B.ss01" horiz-adv-x="608" 
d="M258 712l-141 -659h398l-12 -53h-458l152 712h61zM263 -66q20 0 32 -11.5t12 -30.5q0 -10 -3 -28l-8 -36q-12 -60 -86 -60h-13l6 28h15q40 0 48 35l6 32q-7 -4 -23 -4q-15 0 -24.5 9.5t-9.5 22.5q0 43 48 43z" />
    <glyph glyph-name="Ldot.ss01" horiz-adv-x="608" 
d="M258 712l-141 -659h398l-12 -53h-458l152 712h61zM395 325q-20 0 -33.5 12.5t-13.5 32.5t13.5 32.5t33.5 12.5q30 3 42 -21t0 -48t-42 -21z" />
    <glyph glyph-name="uni0145.ss01" horiz-adv-x="749" 
d="M554 83l135 629h57l-152 -712h-62l-296 628l-133 -628h-58l152 712h60zM302 -66q20 0 32 -11.5t12 -30.5q0 -10 -3 -28l-8 -36q-12 -60 -86 -60h-13l6 28h15q40 0 48 35l6 32q-7 -4 -23 -4q-15 0 -24.5 9.5t-9.5 22.5q0 43 48 43z" />
    <glyph glyph-name="Odieresis.ss01" horiz-adv-x="816" 
d="M449 827q-20 -22 -50.5 -9.5t-27.5 42.5q-3 27 21 38t48 0t21 -38q0 -20 -12 -33zM643 827q-20 -22 -50.5 -9.5t-27.5 42.5q-3 29 27.5 40.5t50.5 -8.5q12 -12 12 -32t-12 -33zM366 -15q-127 0 -202 79q-75 80 -75 208q0 51 10 95q35 161 140 259q107 99 254 99
q129 0 202 -78q74 -79 74 -207q0 -51 -10 -95q-32 -163 -136 -261q-107 -99 -257 -99zM369 40q124 0 212 85t118 227q8 43 8 86q0 107 -58.5 169.5t-160.5 62.5q-123 0 -212 -85q-92 -85 -117 -225q-9 -45 -9 -85q0 -107 60 -171q58 -64 159 -64z" />
    <glyph glyph-name="uni0156.ss01" horiz-adv-x="727" 
d="M692 559q0 -83 -50 -141.5t-132 -72.5q94 -19 94 -115q0 -8 -2 -32l-19 -198h-61l19 190q2 26 2 35q0 52 -28.5 73.5t-95.5 21.5h-245l-68 -320h-61l152 712h310q87 0 136 -40.5t49 -112.5zM186 374h235q94 0 151 48.5t57 129.5q0 52 -34.5 79.5t-101.5 27.5h-246z
M304 -66q20 0 32 -11.5t12 -30.5q0 -10 -3 -28l-8 -36q-12 -60 -86 -60h-13l6 28h15q40 0 48 35l6 32q-7 -4 -23 -4q-15 0 -24.5 9.5t-9.5 22.5q0 43 48 43z" />
    <glyph glyph-name="uni0218.ss01" horiz-adv-x="673" 
d="M646 520h-58q0 4 0.5 8t1 7t0.5 5v3q0 63 -46 98t-128 35q-97 0 -156 -43t-59 -116q0 -83 115 -107l129 -27q154 -34 154 -164q0 -111 -81 -172q-82 -61 -215 -61q-121 0 -186.5 52t-65.5 153q0 23 1 30h58q-2 -22 -2 -27q0 -77 51 -117t145 -40q109 0 173 47t64 131
q0 47 -28.5 74t-94.5 41l-114 24q-161 35 -161 159q0 102 77 158q76 55 201 55q105 0 165.5 -47t60.5 -131q0 -22 -1 -28zM275 -73q20 0 32 -11.5t12 -30.5q0 -10 -3 -28l-8 -36q-12 -60 -86 -60h-13l6 28h15q40 0 48 35l6 32q-7 -4 -23 -4q-15 0 -24.5 9.5t-9.5 22.5
q0 43 48 43z" />
    <glyph glyph-name="uni021A.ss01" 
d="M136 712h558l-12 -53h-249l-140 -659h-61l141 659h-249zM242 -66q20 0 32 -11.5t12 -30.5q0 -10 -3 -28l-8 -36q-12 -60 -86 -60h-13l6 28h15q40 0 48 35l6 32q-7 -4 -23 -4q-15 0 -24.5 9.5t-9.5 22.5q0 43 48 43z" />
    <glyph glyph-name="Udieresis.ss01" horiz-adv-x="739" 
d="M417 819q-20 -22 -50.5 -9.5t-27.5 42.5q-3 27 21 38t48 0t21 -38q0 -20 -12 -33zM611 819q-20 -22 -50.5 -9.5t-27.5 42.5q-3 29 27.5 40.5t50.5 -8.5q12 -12 12 -32t-12 -33zM327 -14q-112 0 -175.5 47.5t-63.5 136.5q0 32 7 61l102 481h61l-103 -484q-6 -28 -6 -52
q0 -136 179 -136q203 0 244 188l103 484h60l-102 -482q-52 -244 -306 -244z" />
    <glyph glyph-name="Wdieresis.ss01" horiz-adv-x="953" 
d="M520 819q-20 -22 -50.5 -9.5t-27.5 42.5q-3 27 21 38t48 0t21 -38q0 -20 -12 -33zM714 819q-20 -22 -50.5 -9.5t-27.5 42.5q-3 29 27.5 40.5t50.5 -8.5q12 -12 12 -32t-12 -33zM704 217l247 495h65l-358 -714h-56l-48 642l-306 -642h-58l-53 714h58l35 -495l4 -136
l63 137l238 494h66l36 -495l5 -136z" />
    <glyph glyph-name="Ydieresis.ss01" horiz-adv-x="681" 
d="M405 819q-20 -22 -50.5 -9.5t-27.5 42.5q-3 27 21 38t48 0t21 -38q0 -20 -12 -33zM599 819q-20 -22 -50.5 -9.5t-27.5 42.5q-3 29 27.5 40.5t50.5 -8.5q12 -12 12 -32t-12 -33zM678 712h77l-372 -422l-62 -290h-61l62 289l-197 423h66l153 -337l14 -38l29 38z" />
    <glyph glyph-name="Zdotaccent.ss01" horiz-adv-x="686" 
d="M502 819q-22 -22 -50.5 -9.5t-28.5 42.5q-2 27 22 38t48 0t22 -38q0 -20 -13 -33zM194 712h504l-11 -49l-585 -608h471l-12 -55h-546l13 59l577 598h-423z" />
    <glyph glyph-name="G.ss03" horiz-adv-x="811" 
d="M687 313h-264l12 56h324q-35 -184 -140 -283q-106 -100 -259 -100q-129 0 -201.5 72.5t-72.5 199.5q0 52 11 105q36 168 147 265q110 98 262 98q122 0 192.5 -62t71.5 -166h-59q-3 81 -58.5 127.5t-150.5 46.5q-124 0 -219 -84q-94 -84 -126 -236q-10 -47 -10 -95
q0 -103 56 -160t160 -57q118 0 203 72t121 201z" />
    <glyph glyph-name="uni01F4.ss03" horiz-adv-x="811" 
d="M558 963h81l-127 -152h-55zM687 313h-264l12 56h324q-35 -184 -140 -283q-106 -100 -259 -100q-129 0 -201.5 72.5t-72.5 199.5q0 52 11 105q36 168 147 265q110 98 262 98q122 0 192.5 -62t71.5 -166h-59q-3 81 -58.5 127.5t-150.5 46.5q-124 0 -219 -84
q-94 -84 -126 -236q-10 -47 -10 -95q0 -103 56 -160t160 -57q118 0 203 72t121 201z" />
    <glyph glyph-name="Gbreve.ss03" horiz-adv-x="811" 
d="M533 809q-138 0 -138 101q0 15 3 33h41q-3 -12 -3 -23q0 -70 100 -70q116 0 138 93h42q-35 -134 -183 -134zM687 313h-264l12 56h324q-35 -184 -140 -283q-106 -100 -259 -100q-129 0 -201.5 72.5t-72.5 199.5q0 52 11 105q36 168 147 265q110 98 262 98q122 0 192.5 -62
t71.5 -166h-59q-3 81 -58.5 127.5t-150.5 46.5q-124 0 -219 -84q-94 -84 -126 -236q-10 -47 -10 -95q0 -103 56 -160t160 -57q118 0 203 72t121 201z" />
    <glyph glyph-name="Gcircumflex.ss03" horiz-adv-x="811" 
d="M623 805l-70 121l-120 -121h-68l160 158h62l95 -158h-59zM687 313h-264l12 56h324q-35 -184 -140 -283q-106 -100 -259 -100q-129 0 -201.5 72.5t-72.5 199.5q0 52 11 105q36 168 147 265q110 98 262 98q122 0 192.5 -62t71.5 -166h-59q-3 81 -58.5 127.5t-150.5 46.5
q-124 0 -219 -84q-94 -84 -126 -236q-10 -47 -10 -95q0 -103 56 -160t160 -57q118 0 203 72t121 201z" />
    <glyph glyph-name="uni0122.ss03" horiz-adv-x="811" 
d="M687 313h-264l12 56h324q-35 -184 -140 -283q-106 -100 -259 -100q-129 0 -201.5 72.5t-72.5 199.5q0 52 11 105q36 168 147 265q110 98 262 98q122 0 192.5 -62t71.5 -166h-59q-3 81 -58.5 127.5t-150.5 46.5q-124 0 -219 -84q-94 -84 -126 -236q-10 -47 -10 -95
q0 -103 56 -160t160 -57q118 0 203 72t121 201zM342 -129l-52 -3l13 60h81l-22 -106q-10 -52 -67 -52h-25l6 28h22q28 0 36 29z" />
    <glyph glyph-name="Gdotaccent.ss03" horiz-adv-x="811" 
d="M522 922h60l-18 -77h-60zM687 313h-264l12 56h324q-35 -184 -140 -283q-106 -100 -259 -100q-129 0 -201.5 72.5t-72.5 199.5q0 52 11 105q36 168 147 265q110 98 262 98q122 0 192.5 -62t71.5 -166h-59q-3 81 -58.5 127.5t-150.5 46.5q-124 0 -219 -84
q-94 -84 -126 -236q-10 -47 -10 -95q0 -103 56 -160t160 -57q118 0 203 72t121 201z" />
    <glyph glyph-name="uni0122.ss01.ss03" horiz-adv-x="811" 
d="M687 313h-264l12 56h324q-35 -184 -140 -283q-106 -100 -259 -100q-129 0 -201.5 72.5t-72.5 199.5q0 52 11 105q36 168 147 265q110 98 262 98q122 0 192.5 -62t71.5 -166h-59q-3 81 -58.5 127.5t-150.5 46.5q-124 0 -219 -84q-94 -84 -126 -236q-10 -47 -10 -95
q0 -103 56 -160t160 -57q118 0 203 72t121 201zM336 -64q20 0 32 -11.5t12 -30.5q0 -10 -3 -28l-8 -36q-12 -60 -86 -60h-13l6 28h15q41 0 48 36l6 32q-7 -4 -23 -4q-15 0 -24.5 9.5t-9.5 22.5q0 42 48 42z" />
    <glyph glyph-name="Gdotaccent.ss01.ss03" horiz-adv-x="811" 
d="M573 833q-22 -22 -50.5 -9.5t-28.5 42.5q-2 27 22 38t48 0t22 -38q0 -20 -13 -33zM687 313h-264l12 56h324q-35 -184 -140 -283q-106 -100 -259 -100q-129 0 -201.5 72.5t-72.5 199.5q0 52 11 105q36 168 147 265q110 98 262 98q122 0 192.5 -62t71.5 -166h-59
q-3 81 -58.5 127.5t-150.5 46.5q-124 0 -219 -84q-94 -84 -126 -236q-10 -47 -10 -95q0 -103 56 -160t160 -57q118 0 203 72t121 201z" />
    <glyph glyph-name="R.ss04" horiz-adv-x="674" 
d="M672 536q0 -96 -66 -160q-67 -66 -170 -76l144 -300h-62l-144 298h-204l-64 -298h-61l152 712h276q97 0 148 -47t51 -129zM181 352h218q95 0 154 50q58 49 58 129q0 61 -37 94.5t-109 33.5h-218z" />
    <glyph glyph-name="Racute.ss04" horiz-adv-x="674" 
d="M477 949h82l-128 -152h-55zM672 536q0 -96 -66 -160q-67 -66 -170 -76l144 -300h-62l-144 298h-204l-64 -298h-61l152 712h276q97 0 148 -47t51 -129zM181 352h218q95 0 154 50q58 49 58 129q0 61 -37 94.5t-109 33.5h-218z" />
    <glyph glyph-name="Rcaron.ss04" horiz-adv-x="674" 
d="M630 948l-160 -157h-62l-94 157h60l70 -120l120 120h66zM672 536q0 -96 -66 -160q-67 -66 -170 -76l144 -300h-62l-144 298h-204l-64 -298h-61l152 712h276q97 0 148 -47t51 -129zM181 352h218q95 0 154 50q58 49 58 129q0 61 -37 94.5t-109 33.5h-218z" />
    <glyph glyph-name="uni0156.ss04" horiz-adv-x="674" 
d="M672 536q0 -96 -66 -160q-67 -66 -170 -76l144 -300h-62l-144 298h-204l-64 -298h-61l152 712h276q97 0 148 -47t51 -129zM181 352h218q95 0 154 50q58 49 58 129q0 61 -37 94.5t-109 33.5h-218zM285 -131l-53 -4l13 61h82l-23 -107q-10 -51 -66 -51h-26l6 28h23
q29 0 35 29z" />
    <glyph glyph-name="uni0156.ss01.ss04" horiz-adv-x="674" 
d="M672 536q0 -96 -66 -160q-67 -66 -170 -76l144 -300h-62l-144 298h-204l-64 -298h-61l152 712h276q97 0 148 -47t51 -129zM181 352h218q95 0 154 50q58 49 58 129q0 61 -37 94.5t-109 33.5h-218zM278 -66q20 0 32 -11.5t12 -30.5q0 -10 -3 -28l-8 -36q-12 -60 -86 -60
h-13l6 28h15q40 0 48 35l6 32q-7 -4 -23 -4q-15 0 -24.5 9.5t-9.5 22.5q0 43 48 43z" />
    <glyph glyph-name="i.loclTRK" horiz-adv-x="227" 
d="M224 635h-60l17 77h60zM89 0h-60l110 516h60z" />
    <glyph glyph-name="adieresis.ss01" horiz-adv-x="574" 
d="M303 641q-13 -13 -33 -13t-32 13q-13 12 -13 32t13 33q19 20 49.5 8.5t27.5 -41.5q0 -19 -12 -32zM497 641q-20 -21 -50.5 -9t-27.5 41q-3 30 27.5 41.5t50.5 -8.5q12 -13 12 -33t-12 -32zM497 46h15l-9 -46h-28q-94 0 -82 95q-65 -108 -208 -108q-72 0 -113.5 36
t-41.5 97q0 70 52 113t147 55l135 18q38 5 55 19.5t23 42.5q12 56 -18.5 84t-101.5 28q-69 0 -107.5 -27.5t-55.5 -88.5l-59 2q42 164 231 164q85 0 130 -31t45 -86q0 -17 -5 -47l-53 -249q-8 -39 3 -55t46 -16zM402 179l21 103q-19 -16 -57 -20l-135 -19
q-140 -20 -140 -118q0 -42 30.5 -66t87.5 -24q69 0 119.5 37.5t73.5 106.5z" />
    <glyph glyph-name="cdotaccent.ss01" horiz-adv-x="555" 
d="M413 641q-13 -13 -33 -13t-32 13q-13 12 -13 32t13 33q19 20 49.5 8.5t27.5 -41.5q0 -19 -12 -32zM241 -13q-84 0 -138 56q-54 55 -54 152q0 39 7 71q24 124 98 193.5t181 69.5q91 0 139 -48t48 -129h-57q0 57 -34 91.5t-100 34.5q-83 0 -139.5 -57.5t-75.5 -160.5
q-7 -29 -7 -63q0 -74 37.5 -116.5t101.5 -42.5q132 0 184 138h57q-28 -89 -92 -139t-156 -50z" />
    <glyph glyph-name="edieresis.ss01" horiz-adv-x="579" 
d="M281 628q-30 -3 -41.5 27.5t9.5 50.5q19 20 49.5 8.5t27.5 -41.5q0 -19 -13 -32t-32 -13zM475 628q-19 0 -32 13t-13 32q-3 30 27.5 41.5t50.5 -8.5t8.5 -50.5t-41.5 -27.5zM522 250h-408q-6 -30 -6 -56q0 -72 40 -114.5t107 -42.5q127 0 189 125l53 -6
q-31 -76 -95 -122.5t-148 -46.5q-95 0 -150 58t-55 154q0 29 8 74q26 116 100 186q75 69 179 69q93 0 145.5 -51.5t52.5 -141.5q0 -40 -12 -85zM335 478q-76 0 -132 -48.5t-80 -135.5h352q3 21 3 39q0 68 -37.5 106.5t-105.5 38.5z" />
    <glyph glyph-name="edotaccent.ss01" horiz-adv-x="579" 
d="M377 628q-30 -3 -41.5 27.5t9.5 50.5q19 20 49.5 8.5t27.5 -41.5q0 -19 -13 -32t-32 -13zM522 250h-408q-6 -30 -6 -56q0 -72 40 -114.5t107 -42.5q127 0 189 125l53 -6q-31 -76 -95 -122.5t-148 -46.5q-95 0 -150 58t-55 154q0 29 8 74q26 116 100 186q75 69 179 69
q93 0 145.5 -51.5t52.5 -141.5q0 -40 -12 -85zM335 478q-76 0 -132 -48.5t-80 -135.5h352q3 21 3 39q0 68 -37.5 106.5t-105.5 38.5z" />
    <glyph glyph-name="uni0123.ss01" horiz-adv-x="601" 
d="M384 628q-20 0 -32 11t-12 30q0 11 3 29l7 30q12 60 86 60h13l-6 -29h-15q-40 0 -48 -35l-5 -26q11 4 23 4q16 0 25 -9t9 -23q0 -42 -48 -42zM492 394l26 122h52l-108 -510q-24 -111 -87 -164t-169 -53q-95 0 -147 40t-52 103l59 1q2 -44 37 -70t104 -26q164 0 197 157
l24 110q-33 -53 -83.5 -84t-108.5 -31q-88 0 -137.5 54t-49.5 148q0 135 76 235q75 101 193 101q67 0 113 -36.5t61 -96.5zM246 41q96 0 158 86q61 85 61 195q0 72 -38.5 112.5t-101.5 40.5q-98 0 -156 -85q-59 -86 -59 -199q0 -71 35.5 -110.5t100.5 -39.5z" />
    <glyph glyph-name="gdotaccent.ss01" horiz-adv-x="601" 
d="M421 641q-13 -13 -33 -13t-32 13q-13 12 -13 32t13 33q19 20 49.5 8.5t27.5 -41.5q0 -19 -12 -32zM492 394l26 122h52l-108 -510q-24 -111 -87 -164t-169 -53q-95 0 -147 40t-52 103l59 1q2 -44 37 -70t104 -26q164 0 197 157l24 110q-33 -53 -83.5 -84t-108.5 -31
q-88 0 -137.5 54t-49.5 148q0 135 76 235q75 101 193 101q67 0 113 -36.5t61 -96.5zM246 41q96 0 158 86q61 85 61 195q0 72 -38.5 112.5t-101.5 40.5q-98 0 -156 -85q-59 -86 -59 -199q0 -71 35.5 -110.5t100.5 -39.5z" />
    <glyph glyph-name="i.ss01" horiz-adv-x="227" 
d="M203 629q-28 -3 -40 21t0 48t40 21q28 3 39.5 -21t-0.5 -48t-39 -21zM89 0h-60l110 516h60z" />
    <glyph glyph-name="idieresis.ss01" horiz-adv-x="227" 
d="M105 628q-30 -3 -41.5 27.5t9.5 50.5q19 20 49.5 8.5t27.5 -41.5q0 -19 -13 -32t-32 -13zM299 628q-19 0 -32 13t-13 32q-3 30 27.5 41.5t50.5 -8.5t8.5 -50.5t-41.5 -27.5zM89 0h-60l110 516h60z" />
    <glyph glyph-name="i.loclTRK.ss01" horiz-adv-x="227" 
d="M203 629q-28 -3 -40 21t0 48t40 21q28 3 39.5 -21t-0.5 -48t-39 -21zM89 0h-60l110 516h60z" />
    <glyph glyph-name="ij.ss01" horiz-adv-x="454" 
d="M203 629q-28 -3 -40 21t0 48t40 21q28 3 39.5 -21t-0.5 -48t-39 -21zM433 629q-28 -3 -40 21t0 48t40 21q28 3 39.5 -21t-0.5 -48t-39 -21zM89 0h-60l110 516h60zM146 -204h-38l10 51h25q43 0 66 19t32 63l125 587h60l-123 -581q-16 -75 -51.5 -107t-105.5 -32z" />
    <glyph glyph-name="iogonek.ss01" horiz-adv-x="227" 
d="M203 719q28 3 39.5 -21t-0.5 -48t-39 -21q-28 -3 -40 21t0 48t40 21zM32 0h-3l110 516h60l-110 -516l-94 -74q-26 -20 -26 -44q0 -18 14 -28.5t38 -10.5h34l-9 -44h-45q-42 0 -66.5 19t-24.5 52q0 41 40 71z" />
    <glyph glyph-name="j.ss01" horiz-adv-x="227" 
d="M206 629q-28 -3 -40 21t0 48t40 21q28 3 39.5 -21t0 -48t-39.5 -21zM-81 -204h-38l10 51h25q43 0 66 19t32 63l125 587h60l-123 -581q-16 -75 -51.5 -107t-105.5 -32z" />
    <glyph glyph-name="uni0137.ss01" horiz-adv-x="559" 
d="M484 516h81l-260 -201l164 -315h-65l-145 283l-128 -97l-40 -186h-60l152 712h60l-98 -460zM230 -66q20 0 32 -11.5t12 -30.5q0 -10 -3 -28l-8 -36q-12 -60 -86 -60h-13l6 28h15q40 0 48 35l6 32q-7 -4 -23 -4q-15 0 -24.5 9.5t-9.5 22.5q0 43 48 43z" />
    <glyph glyph-name="uni013C.ss01" horiz-adv-x="233" 
d="M32 0l151 712h60l-151 -712h-60zM40 -66q20 0 32 -11.5t12 -30.5q0 -10 -3 -28l-8 -36q-12 -60 -86 -60h-13l6 28h15q40 0 48 35l6 32q-7 -4 -23 -4q-15 0 -24.5 9.5t-9.5 22.5q0 43 48 43z" />
    <glyph glyph-name="ldot.ss01" horiz-adv-x="341" 
d="M92 0h-60l151 712h60zM321 323q-13 -13 -34 -13t-35 13q-14 12 -14 32t14 33q14 12 34.5 12t34.5 -12q13 -13 13 -33t-13 -32z" />
    <glyph glyph-name="napostrophe.ss01" horiz-adv-x="854" 
d="M236 720q48 0 48 -50q0 -13 -5 -38l-10 -50q-19 -87 -102 -87h-8l8 37h7q26 0 38.5 12.5t20.5 45.5l8 39h-8q-37 -5 -46 29q-9 30 14 50q14 13 35 12zM640 529q72 0 111.5 -36.5t39.5 -102.5q0 -16 -5 -49l-73 -341h-60l72 337q4 20 4 44q0 95 -104 95
q-74 0 -128.5 -46.5t-77.5 -137.5l-62 -292h-60l109 516h58l-24 -101q74 114 200 114z" />
    <glyph glyph-name="uni0146.ss01" horiz-adv-x="589" 
d="M374 529q72 0 112 -37t40 -102q0 -16 -5 -49l-73 -341h-60l71 337q5 23 5 44q0 95 -105 95q-73 0 -128 -46t-76 -136l-63 -294h-60l109 516h58l-24 -101q74 114 199 114zM230 -66q20 0 32 -11.5t12 -30.5q0 -10 -3 -28l-8 -36q-12 -60 -86 -60h-13l6 28h15q40 0 48 35
l6 32q-7 -4 -23 -4q-15 0 -24.5 9.5t-9.5 22.5q0 43 48 43z" />
    <glyph glyph-name="odieresis.ss01" horiz-adv-x="597" 
d="M291 628q-30 -3 -41.5 27.5t9.5 50.5q19 20 49.5 8.5t27.5 -41.5q0 -19 -13 -32t-32 -13zM485 628q-19 0 -32 13t-13 32q-3 30 27.5 41.5t50.5 -8.5t8.5 -50.5t-41.5 -27.5zM254 -13q-94 0 -149.5 57t-55.5 154q0 39 7 71q23 120 102 190q77 70 186 70q94 0 149 -56.5
t55 -152.5q0 -39 -7 -71q-24 -124 -100 -193t-187 -69zM258 38q84 0 144 59t79 159q7 38 7 62q0 75 -40 117.5t-110 42.5q-84 0 -143 -58t-79 -158q-6 -33 -6 -62q0 -76 39.5 -119t108.5 -43z" />
    <glyph glyph-name="uni0157.ss01" horiz-adv-x="390" 
d="M366 530q25 0 43 -5l-13 -58q-25 4 -44 4q-64 0 -122 -47q-58 -49 -77 -138l-61 -286h-60l109 516h56l-23 -109q74 123 192 123zM39 -66q20 0 32 -11.5t12 -30.5q0 -10 -3 -28l-8 -36q-12 -60 -86 -60h-13l6 28h15q40 0 48 35l6 32q-7 -4 -23 -4q-15 0 -24.5 9.5
t-9.5 22.5q0 43 48 43z" />
    <glyph glyph-name="uni0219.ss01" horiz-adv-x="515" 
d="M234 300l79 -15q130 -25 130 -124q0 -84 -60.5 -129t-164.5 -45q-93 0 -141.5 42t-48.5 121h58q0 -113 138 -113q75 0 117.5 30.5t42.5 85.5q0 33 -21 52t-67 27l-79 16q-130 25 -130 122q0 76 55.5 116t152.5 40q85 0 132 -39.5t47 -112.5h-57q0 49 -33.5 76.5
t-94.5 27.5q-66 0 -105.5 -26t-39.5 -73q0 -33 21.5 -51.5t68.5 -27.5zM186 -66q20 0 32 -11.5t12 -30.5q0 -10 -3 -28l-8 -36q-13 -60 -87 -60h-13l7 28h14q41 0 49 35l6 32q-12 -4 -24 -4q-15 0 -24 9.5t-9 22.5q0 43 48 43z" />
    <glyph glyph-name="uni021B.ss01" horiz-adv-x="357" 
d="M227 471l-7 -29l-68 -323q-4 -12 -4 -28q0 -40 55 -40h63l-11 -51h-73q-95 0 -95 77q0 12 5 40l69 325l6 29l-90 -2l10 47l89 -2l6 29l27 126h60l-27 -125l-6 -30l130 2l-10 -47zM86 -58q20 0 32 -11.5t12 -30.5q0 -10 -3 -28l-8 -36q-12 -60 -86 -60h-13l6 28h15
q40 0 48 35l6 32q-7 -4 -23 -4q-15 0 -24.5 9.5t-9.5 22.5q0 43 48 43z" />
    <glyph glyph-name="udieresis.ss01" horiz-adv-x="589" 
d="M309 641q-13 -13 -33 -13t-32 13q-13 12 -13 32t13 33q19 20 49.5 8.5t27.5 -41.5q0 -19 -12 -32zM503 641q-20 -21 -50.5 -9t-27.5 41q-3 30 27.5 41.5t50.5 -8.5q12 -13 12 -33t-12 -32zM435 224l62 292h60l-109 -516h-58l24 101q-74 -114 -200 -114q-72 0 -111.5 36.5
t-39.5 102.5q0 16 5 49l73 341h60l-72 -337q-4 -20 -4 -44q0 -95 104 -95q74 0 128.5 46.5t77.5 137.5z" />
    <glyph glyph-name="wdieresis.ss01" horiz-adv-x="768" 
d="M393 641q-13 -13 -33 -13t-32 13q-13 12 -13 32t13 33q19 20 49.5 8.5t27.5 -41.5q0 -19 -12 -32zM587 641q-20 -21 -50.5 -9t-27.5 41q-3 30 27.5 41.5t50.5 -8.5q12 -13 12 -33t-12 -32zM527 163l183 353h65l-278 -516h-60l-23 364l-3 95l-42 -95l-179 -364h-61
l-56 516h59l34 -353l6 -100l44 100l175 353h64l24 -353l3 -98z" />
    <glyph glyph-name="ydieresis.ss01" horiz-adv-x="541" 
d="M247 628q-30 -3 -41.5 27.5t9.5 50.5q19 20 49.5 8.5t27.5 -41.5q0 -19 -13 -32t-32 -13zM441 628q-19 0 -32 13t-13 32q-3 30 27.5 41.5t50.5 -8.5t8.5 -50.5t-41.5 -27.5zM215 58l268 458h65l-378 -625q-35 -57 -65 -75q-32 -20 -86 -20h-51l11 51h39q42 0 64.5 15
t47.5 58l47 78l-104 518h61l77 -418z" />
    <glyph glyph-name="zdotaccent.ss01" horiz-adv-x="529" 
d="M385 641q-13 -13 -33 -13t-32 13q-13 12 -13 32t13 33q19 20 49.5 8.5t27.5 -41.5q0 -19 -12 -32zM122 516h392l-8 -38l-420 -429h345l-11 -49h-421l9 43l415 424h-312z" />
    <glyph glyph-name="a.ss02" horiz-adv-x="600" 
d="M496 421l22 95h51l-110 -516h-51l21 107q-37 -56 -89.5 -87.5t-114.5 -31.5q-84 0 -131.5 51.5t-47.5 139.5q0 137 84 244q82 105 209 105q122 0 157 -107zM238 38q98 -1 165.5 92t63.5 203q0 71 -35.5 110t-99.5 39q-67 0 -121 -44t-81 -112t-25 -142q0 -70 34 -108
t99 -38z" />
    <glyph glyph-name="aacute.ss02" horiz-adv-x="600" 
d="M395 753h82l-128 -152h-55zM496 421l22 95h51l-110 -516h-51l21 107q-37 -56 -89.5 -87.5t-114.5 -31.5q-84 0 -131.5 51.5t-47.5 139.5q0 137 84 244q82 105 209 105q122 0 157 -107zM238 38q98 -1 165.5 92t63.5 203q0 71 -35.5 110t-99.5 39q-67 0 -121 -44t-81 -112
t-25 -142q0 -70 34 -108t99 -38z" />
    <glyph glyph-name="abreve.ss02" horiz-adv-x="600" 
d="M371 599q-138 0 -138 101q0 15 3 33h41q-3 -12 -3 -23q0 -70 100 -70q116 0 138 93h42q-35 -134 -183 -134zM496 421l22 95h51l-110 -516h-51l21 107q-37 -56 -89.5 -87.5t-114.5 -31.5q-84 0 -131.5 51.5t-47.5 139.5q0 137 84 244q82 105 209 105q122 0 157 -107z
M238 38q98 -1 165.5 92t63.5 203q0 71 -35.5 110t-99.5 39q-67 0 -121 -44t-81 -112t-25 -142q0 -70 34 -108t99 -38z" />
    <glyph glyph-name="acircumflex.ss02" horiz-adv-x="600" 
d="M461 595l-70 121l-120 -121h-68l160 158h62l95 -158h-59zM496 421l22 95h51l-110 -516h-51l21 107q-37 -56 -89.5 -87.5t-114.5 -31.5q-84 0 -131.5 51.5t-47.5 139.5q0 137 84 244q82 105 209 105q122 0 157 -107zM238 38q98 -1 165.5 92t63.5 203q0 71 -35.5 110
t-99.5 39q-67 0 -121 -44t-81 -112t-25 -142q0 -70 34 -108t99 -38z" />
    <glyph glyph-name="adieresis.ss02" horiz-adv-x="600" 
d="M261 712h60l-16 -77h-60zM458 712h60l-17 -77h-60zM496 421l22 95h51l-110 -516h-51l21 107q-37 -56 -89.5 -87.5t-114.5 -31.5q-84 0 -131.5 51.5t-47.5 139.5q0 137 84 244q82 105 209 105q122 0 157 -107zM238 38q98 -1 165.5 92t63.5 203q0 71 -35.5 110t-99.5 39
q-67 0 -121 -44t-81 -112t-25 -142q0 -70 34 -108t99 -38z" />
    <glyph glyph-name="agrave.ss02" horiz-adv-x="600" 
d="M323 753l68 -152h-48l-96 152h76zM496 421l22 95h51l-110 -516h-51l21 107q-37 -56 -89.5 -87.5t-114.5 -31.5q-84 0 -131.5 51.5t-47.5 139.5q0 137 84 244q82 105 209 105q122 0 157 -107zM238 38q98 -1 165.5 92t63.5 203q0 71 -35.5 110t-99.5 39q-67 0 -121 -44
t-81 -112t-25 -142q0 -70 34 -108t99 -38z" />
    <glyph glyph-name="amacron.ss02" horiz-adv-x="600" 
d="M230 681h305l-9 -47h-306zM496 421l22 95h51l-110 -516h-51l21 107q-37 -56 -89.5 -87.5t-114.5 -31.5q-84 0 -131.5 51.5t-47.5 139.5q0 137 84 244q82 105 209 105q122 0 157 -107zM238 38q98 -1 165.5 92t63.5 203q0 71 -35.5 110t-99.5 39q-67 0 -121 -44t-81 -112
t-25 -142q0 -70 34 -108t99 -38z" />
    <glyph glyph-name="aogonek.ss02" horiz-adv-x="599" 
d="M458 0l-93 -74q-26 -20 -26 -44q0 -18 14 -28.5t37 -10.5h35l-10 -44h-44q-42 0 -66.5 19t-24.5 52q0 41 40 71l89 64l22 109q-70 -115 -197 -115q-84 0 -134 53.5t-50 143.5q-4 126 74.5 229t191.5 102q66 0 113 -34t61 -91l28 114h50zM247 52q97 0 159 84q60 82 60 193
q0 67 -39 106.5t-107 39.5q-92 0 -151 -86q-59 -88 -59 -192q0 -67 36.5 -106t100.5 -39z" />
    <glyph glyph-name="aring.ss02" horiz-adv-x="600" 
d="M391 591q-54 0 -89.5 35.5t-35.5 88.5q0 54 35.5 89.5t89.5 35.5q55 0 90 -35.5t35 -89.5q0 -53 -35 -88.5t-90 -35.5zM391 798q-36 0 -58.5 -22.5t-22.5 -60.5q0 -37 23 -59.5t58 -22.5q36 0 59 22.5t23 59.5q0 38 -23 60.5t-59 22.5zM496 421l22 95h51l-110 -516h-51
l21 107q-37 -56 -89.5 -87.5t-114.5 -31.5q-84 0 -131.5 51.5t-47.5 139.5q0 137 84 244q82 105 209 105q122 0 157 -107zM238 38q98 -1 165.5 92t63.5 203q0 71 -35.5 110t-99.5 39q-67 0 -121 -44t-81 -112t-25 -142q0 -70 34 -108t99 -38z" />
    <glyph glyph-name="aringacute.ss02" horiz-adv-x="600" 
d="M476 1036h82l-128 -152h-55zM387 583q-55 0 -90.5 35t-35.5 88q0 54 35.5 89.5t90.5 35.5q54 0 89.5 -35.5t35.5 -89.5q0 -53 -35.5 -88t-89.5 -35zM387 789q-36 0 -59 -22.5t-23 -60.5q0 -36 23 -58.5t59 -22.5t58.5 22.5t22.5 58.5q0 38 -22.5 60.5t-58.5 22.5z
M496 421l22 95h51l-110 -516h-51l21 107q-37 -56 -89.5 -87.5t-114.5 -31.5q-84 0 -131.5 51.5t-47.5 139.5q0 137 84 244q82 105 209 105q122 0 157 -107zM238 38q98 -1 165.5 92t63.5 203q0 71 -35.5 110t-99.5 39q-67 0 -121 -44t-81 -112t-25 -142q0 -70 34 -108t99 -38
z" />
    <glyph glyph-name="atilde.ss02" horiz-adv-x="600" 
d="M289 717q-56 0 -81 -106h-48q36 152 136 152q29 0 50.5 -15t31.5 -37q9 -22 25.5 -37.5t36.5 -15.5q28 0 47 24.5t34 80.5h47q-35 -152 -135 -152q-31 0 -52 16.5t-29.5 36.5t-24.5 36.5t-38 16.5zM496 421l22 95h51l-110 -516h-51l21 107q-37 -56 -89.5 -87.5
t-114.5 -31.5q-84 0 -131.5 51.5t-47.5 139.5q0 137 84 244q82 105 209 105q122 0 157 -107zM238 38q98 -1 165.5 92t63.5 203q0 71 -35.5 110t-99.5 39q-67 0 -121 -44t-81 -112t-25 -142q0 -70 34 -108t99 -38z" />
    <glyph glyph-name="adieresis.ss01.ss02" horiz-adv-x="600" 
d="M317 641q-13 -13 -33 -13t-32 13q-13 12 -13 32t13 33q19 20 49.5 8.5t27.5 -41.5q0 -19 -12 -32zM511 641q-20 -21 -50.5 -9t-27.5 41q-3 30 27.5 41.5t50.5 -8.5q12 -13 12 -33t-12 -32zM496 421l22 95h51l-110 -516h-51l21 107q-37 -56 -89.5 -87.5t-114.5 -31.5
q-84 0 -131.5 51.5t-47.5 139.5q0 137 84 244q82 105 209 105q122 0 157 -107zM238 38q98 -1 165.5 92t63.5 203q0 71 -35.5 110t-99.5 39q-67 0 -121 -44t-81 -112t-25 -142q0 -70 34 -108t99 -38z" />
    <glyph glyph-name="uni021B.ss01.ss05" horiz-adv-x="343" 
d="M257 514l109 2l-10 -47l-108 2l-101 -471h-60l101 471l-111 -2l10 47l110 -2l33 155h60zM96 -66q20 0 32 -11.5t12 -30.5q0 -10 -3 -28l-8 -36q-12 -60 -86 -60h-13l6 28h15q40 0 48 35l6 32q-7 -4 -23 -4q-15 0 -24.5 9.5t-9.5 22.5q0 43 48 43z" />
    <glyph glyph-name="udieresis.ss01.ss05" horiz-adv-x="589" 
d="M309 641q-13 -13 -33 -13t-32 13q-13 12 -13 32t13 33q19 20 49.5 8.5t27.5 -41.5q0 -19 -12 -32zM503 641q-20 -21 -50.5 -9t-27.5 41q-3 30 27.5 41.5t50.5 -8.5q12 -13 12 -33t-12 -32zM435 224l62 292h60l-109 -516h-58l24 101q-74 -114 -200 -114q-72 0 -111.5 36.5
t-39.5 102.5q0 16 5 49l73 341h60l-72 -337q-4 -20 -4 -44q0 -95 104 -95q74 0 128.5 46.5t77.5 137.5z" />
    <glyph glyph-name="t.ss05" horiz-adv-x="343" 
d="M257 514l109 2l-10 -47l-108 2l-101 -471h-60l101 471l-111 -2l10 47l110 -2l33 155h60z" />
    <glyph glyph-name="tbar.ss05" horiz-adv-x="343" 
d="M366 516l-10 -47l-108 2l-42 -193l111 2l-11 -47l-109 2l-50 -235h-60l50 235l-110 -2l11 47l108 -2l42 193l-111 -2l10 47l110 -2l33 155h60l-33 -155z" />
    <glyph glyph-name="tcaron.ss05" horiz-adv-x="361" 
d="M339 595l99 198h71l-123 -198h-47zM230 669h60l-33 -155l109 2l-10 -47l-108 2l-101 -471h-60l101 471l-111 -2l10 47l110 -2z" />
    <glyph glyph-name="uni0163.ss05" horiz-adv-x="343" 
d="M248 471l-101 -471h-5l-55 -65h20q42 0 64 -19t22 -52q0 -45 -38.5 -70.5t-104.5 -25.5h-35l7 38h30q92 0 92 52q0 37 -49 37h-41l-21 32l62 73h-8l101 471l-111 -2l10 47l110 -2l33 155h60l-33 -155l109 2l-10 -47z" />
    <glyph glyph-name="uni021B.ss05" horiz-adv-x="343" 
d="M257 514l109 2l-10 -47l-108 2l-101 -471h-60l101 471l-111 -2l10 47l110 -2l33 155h60zM103 -131l-53 -4l13 61h82l-23 -107q-10 -51 -66 -51h-26l6 28h23q29 0 35 29z" />
    <glyph glyph-name="udieresis.ss01.ss06" horiz-adv-x="589" 
d="M309 641q-13 -13 -33 -13t-32 13q-13 12 -13 32t13 33q19 20 49.5 8.5t27.5 -41.5q0 -19 -12 -32zM503 641q-20 -21 -50.5 -9t-27.5 41q-3 30 27.5 41.5t50.5 -8.5q12 -13 12 -33t-12 -32zM248 -10q-86 0 -134 38.5t-48 109.5q0 22 6 51l69 327h60l-69 -329
q-5 -22 -5 -43q0 -103 126 -103q145 0 175 146l70 329h60l-71 -335q-20 -93 -81 -142t-158 -49z" />
    <glyph glyph-name="u.ss06" horiz-adv-x="589" 
d="M248 -10q-86 0 -134 38.5t-48 109.5q0 22 6 51l69 327h60l-69 -329q-5 -22 -5 -43q0 -103 126 -103q145 0 175 146l70 329h60l-71 -335q-20 -93 -81 -142t-158 -49z" />
    <glyph glyph-name="uacute.ss06" horiz-adv-x="589" 
d="M341 601h-55l101 152h82zM248 -10q-86 0 -134 38.5t-48 109.5q0 22 6 51l69 327h60l-69 -329q-5 -22 -5 -43q0 -103 126 -103q145 0 175 146l70 329h60l-71 -335q-20 -93 -81 -142t-158 -49z" />
    <glyph glyph-name="ubreve.ss06" horiz-adv-x="589" 
d="M362 599q-138 0 -138 101q0 15 3 33h41q-3 -12 -3 -23q0 -70 100 -70q115 0 138 93h42q-35 -134 -183 -134zM248 -10q-86 0 -134 38.5t-48 109.5q0 22 6 51l69 327h60l-69 -329q-5 -22 -5 -43q0 -103 126 -103q145 0 175 146l70 329h60l-71 -335q-20 -93 -81 -142
t-158 -49z" />
    <glyph glyph-name="ucircumflex.ss06" horiz-adv-x="589" 
d="M262 595h-68l160 158h62l95 -158h-59l-70 121zM248 -10q-86 0 -134 38.5t-48 109.5q0 22 6 51l69 327h60l-69 -329q-5 -22 -5 -43q0 -103 126 -103q145 0 175 146l70 329h60l-71 -335q-20 -93 -81 -142t-158 -49z" />
    <glyph glyph-name="udieresis.ss06" horiz-adv-x="589" 
d="M297 635h-60l16 77h60zM493 635h-60l17 77h60zM248 -10q-86 0 -134 38.5t-48 109.5q0 22 6 51l69 327h60l-69 -329q-5 -22 -5 -43q0 -103 126 -103q145 0 175 146l70 329h60l-71 -335q-20 -93 -81 -142t-158 -49z" />
    <glyph glyph-name="ugrave.ss06" horiz-adv-x="589" 
d="M383 601h-48l-96 152h76zM248 -10q-86 0 -134 38.5t-48 109.5q0 22 6 51l69 327h60l-69 -329q-5 -22 -5 -43q0 -103 126 -103q145 0 175 146l70 329h60l-71 -335q-20 -93 -81 -142t-158 -49z" />
    <glyph glyph-name="uhungarumlaut.ss06" horiz-adv-x="589" 
d="M278 594h-53l99 163h71zM460 594h-53l107 163h70zM248 -10q-86 0 -134 38.5t-48 109.5q0 22 6 51l69 327h60l-69 -329q-5 -22 -5 -43q0 -103 126 -103q145 0 175 146l70 329h60l-71 -335q-20 -93 -81 -142t-158 -49z" />
    <glyph glyph-name="umacron.ss06" horiz-adv-x="589" 
d="M518 634h-306l10 47h305zM248 -10q-86 0 -134 38.5t-48 109.5q0 22 6 51l69 327h60l-69 -329q-5 -22 -5 -43q0 -103 126 -103q145 0 175 146l70 329h60l-71 -335q-20 -93 -81 -142t-158 -49z" />
    <glyph glyph-name="uogonek.ss06" horiz-adv-x="589" 
d="M428 187l70 329h60l-71 -335q-31 -151 -167 -183l-72 -40q-35 -19 -50 -34.5t-15 -36.5q0 -42 55 -42h40l-9 -44h-47q-47 0 -72 20.5t-25 53.5q0 35 21.5 57t73.5 48l20 10q-82 2 -128 40.5t-46 107.5q0 22 6 51l69 327h60l-69 -329q-5 -22 -5 -43q0 -103 126 -103
q145 0 175 146z" />
    <glyph glyph-name="uring.ss06" horiz-adv-x="589" 
d="M472 627q-36 -36 -90 -36t-89 36q-36 35 -36 88q0 54 35.5 89.5t89.5 35.5q55 0 90 -35.5t35 -89.5q0 -53 -35 -88zM382 633q36 0 59 22.5t23 59.5q0 38 -23 60.5t-59 22.5t-58.5 -22.5t-22.5 -60.5q0 -37 22.5 -59.5t58.5 -22.5zM248 -10q-86 0 -134 38.5t-48 109.5
q0 22 6 51l69 327h60l-69 -329q-5 -22 -5 -43q0 -103 126 -103q145 0 175 146l70 329h60l-71 -335q-20 -93 -81 -142t-158 -49z" />
    <glyph glyph-name="utilde.ss06" horiz-adv-x="589" 
d="M199 611h-48q36 152 136 152q29 0 50.5 -15t31.5 -37q9 -22 25.5 -37.5t36.5 -15.5q28 0 47 24.5t34 80.5h47q-35 -152 -135 -152q-31 0 -52 16.5t-29.5 36.5t-24.5 36.5t-38 16.5q-54 0 -81 -106zM248 -10q-86 0 -134 38.5t-48 109.5q0 22 6 51l69 327h60l-69 -329
q-5 -22 -5 -43q0 -103 126 -103q145 0 175 146l70 329h60l-71 -335q-20 -93 -81 -142t-158 -49z" />
    <glyph glyph-name="ydieresis.ss01.ss07" horiz-adv-x="541" 
d="M247 628q-30 -3 -41.5 27.5t9.5 50.5q19 20 49.5 8.5t27.5 -41.5q0 -19 -13 -32t-32 -13zM441 628q-19 0 -32 13t-13 32q-3 30 27.5 41.5t50.5 -8.5t8.5 -50.5t-41.5 -27.5zM218 63l266 453h64l-435 -720h-59l123 198l-104 522h63l77 -417q1 -9 2.5 -18t2 -13t0.5 -5z
" />
    <glyph glyph-name="y.ss07" horiz-adv-x="541" 
d="M218 63l266 453h64l-435 -720h-59l123 198l-104 522h63l77 -417q1 -9 2.5 -18t2 -13t0.5 -5z" />
    <glyph glyph-name="yacute.ss07" horiz-adv-x="541" 
d="M358 753h82l-128 -152h-55zM218 63l266 453h64l-435 -720h-59l123 198l-104 522h63l77 -417q1 -9 2.5 -18t2 -13t0.5 -5z" />
    <glyph glyph-name="ycircumflex.ss07" horiz-adv-x="541" 
d="M424 595l-70 121l-120 -121h-68l160 158h62l95 -158h-59zM218 63l266 453h64l-435 -720h-59l123 198l-104 522h63l77 -417q1 -9 2.5 -18t2 -13t0.5 -5z" />
    <glyph glyph-name="ydieresis.ss07" horiz-adv-x="541" 
d="M224 712h60l-16 -77h-60zM421 712h60l-17 -77h-60zM218 63l266 453h64l-435 -720h-59l123 198l-104 522h63l77 -417q1 -9 2.5 -18t2 -13t0.5 -5z" />
    <glyph glyph-name="ygrave.ss07" horiz-adv-x="541" 
d="M286 753l68 -152h-48l-96 152h76zM218 63l266 453h64l-435 -720h-59l123 198l-104 522h63l77 -417q1 -9 2.5 -18t2 -13t0.5 -5z" />
    <glyph glyph-name="l.ss08" horiz-adv-x="290" 
d="M208 0h-62q-95 0 -95 77q0 13 5 41l127 594h60l-126 -593q-4 -17 -4 -28q0 -40 55 -40h51z" />
    <glyph glyph-name="lacute.ss08" horiz-adv-x="290" 
d="M214 797h-55l101 152h81zM208 0h-62q-95 0 -95 77q0 13 5 41l127 594h60l-126 -593q-4 -17 -4 -28q0 -40 55 -40h51z" />
    <glyph glyph-name="lcaron.ss08" horiz-adv-x="369" 
d="M208 0h-62q-95 0 -95 77q0 13 5 41l127 594h60l-126 -593q-4 -17 -4 -28q0 -40 55 -40h51zM344 514h-47l98 198h71z" />
    <glyph glyph-name="uni013C.ss08" horiz-adv-x="290" 
d="M208 0h-62q-95 0 -95 77q0 13 5 41l127 594h60l-126 -593q-4 -17 -4 -28q0 -40 55 -40h51zM0 -232h-26l6 28h23q29 0 35 29l9 44l-53 -4l13 61h82l-23 -107q-10 -51 -66 -51z" />
    <glyph glyph-name="ldot.ss08" horiz-adv-x="328" 
d="M208 0h-62q-95 0 -95 77q0 13 5 41l127 594h60l-126 -593q-4 -17 -4 -28q0 -40 55 -40h51zM312 316h-83l17 78h83z" />
    <glyph glyph-name="lslash.ss08" horiz-adv-x="441" 
d="M424 435l-149 -67l-53 -249q-4 -17 -4 -28q0 -40 55 -40h51l-11 -51h-61q-95 0 -95 77q0 13 5 41l46 218l-153 -77l13 60l151 69l69 324h60l-62 -292l151 75z" />
    <glyph glyph-name="uni013C.ss01.ss08" horiz-adv-x="290" 
d="M113 91q0 -40 55 -40h51l-11 -51h-62q-95 0 -95 77q0 13 5 41l127 594h60l-126 -593q-4 -17 -4 -28zM40 -66q20 0 32 -11.5t12 -30.5q0 -10 -3 -28l-8 -36q-12 -60 -86 -60h-13l6 28h15q40 0 48 35l6 32q-7 -4 -23 -4q-15 0 -24.5 9.5t-9.5 22.5q0 43 48 43z" />
    <glyph glyph-name="ldot.ss01.ss08" horiz-adv-x="341" 
d="M208 0h-62q-95 0 -95 77q0 13 5 41l127 594h60l-126 -593q-4 -17 -4 -28q0 -40 55 -40h51zM321 323q-13 -13 -34 -13t-35 13q-14 12 -14 32t14 33q14 12 34.5 12t34.5 -12q13 -13 13 -33t-13 -32z" />
    <glyph glyph-name="fi.ss01" horiz-adv-x="567" 
d="M543 719q28 3 39.5 -21t-0.5 -48t-39 -21q-28 -3 -40 21t0 48t40 21zM236 514l136 2l-10 -47l-135 2l-6 -29l-94 -442h-60l94 441l7 30l-91 -2l10 47l90 -2l12 59q16 75 54.5 107t110.5 32h60l-11 -51h-52q-45 0 -68.5 -20t-33.5 -68zM429 0h-60l110 516h60z" />
    <glyph glyph-name="fl.ss08" horiz-adv-x="630" 
d="M249 573l-13 -59l136 2l-10 -47l-135 2l-6 -29l-94 -442h-60l94 441l7 30l-91 -2l10 47l90 -2l12 59q16 75 54.5 107t110.5 32h60l-11 -51h-52q-45 0 -68.5 -20t-33.5 -68zM453 91q0 -40 55 -40h51l-11 -51h-62q-95 0 -95 77q0 13 5 41l127 594h60l-126 -593
q-4 -17 -4 -28z" />
    <glyph glyph-name="ordfeminine.ss02" horiz-adv-x="493" 
d="M442 643l19 70h42l-72 -341h-43l10 67q-51 -73 -138 -73q-66 0 -106 40t-40 108q0 87 58 148t143 61q48 0 81.5 -21.5t45.5 -58.5zM270 407q66 0 110 51q44 52 44 117q0 52 -29.5 80t-78.5 28q-66 0 -109 -48q-44 -50 -44 -117q0 -53 29 -82t78 -29z" />
    <glyph glyph-name="t.sups.ss05" horiz-adv-x="304" 
d="M274 711l95 2l-9 -44l-95 1l-63 -298h-50l63 298l-95 -1l9 44l95 -2l22 102h49z" />
    <glyph glyph-name="zero.ss09" horiz-adv-x="1297" 
d="M1123 -88h-908v888h908v-888zM669 148q179 0 179 224t-179 224t-179 -224q0 -110 45.5 -167t133.5 -57zM669 195q-63 0 -93.5 42.5t-30.5 134.5q0 91 30.5 134t93.5 43t94 -43t31 -134q0 -90 -30 -134q-31 -43 -95 -43z" />
    <glyph glyph-name="one.ss09" horiz-adv-x="1297" 
d="M1123 -88h-908v888h908v-888zM667 453v-297h51v427h-44l-2 -44q-4 -45 -63 -45h-66v-41h124z" />
    <glyph glyph-name="two.ss09" horiz-adv-x="1297" 
d="M215 -88v888h908v-888h-908zM508 160h322v46h-260q4 32 27.5 56t73.5 49l54 25q55 26 79.5 57.5t24.5 74.5q0 58 -42.5 93t-114.5 35q-75 0 -116 -38t-42 -109h53q3 101 105 101q50 0 77.5 -22.5t27.5 -59.5q0 -56 -75 -92l-73 -35q-121 -58 -121 -181z" />
    <glyph glyph-name="three.ss09" horiz-adv-x="1297" 
d="M1123 -88h-908v888h908v-888zM672 147q77 0 122 35t45 92q0 41 -25 70t-67 38v2q34 9 53.5 34.5t19.5 61.5q0 52 -42 83.5t-113 31.5q-73 0 -115 -34t-42 -93h53q3 83 104 83q48 0 75 -20t27 -56q0 -33 -23.5 -52.5t-67.5 -19.5h-36v-46h36q53 0 81.5 -21.5t28.5 -59.5
q0 -85 -114 -85q-116 0 -118 93h-53q0 -64 46 -100.5t125 -36.5z" />
    <glyph glyph-name="four.ss09" horiz-adv-x="1297" 
d="M1123 -88h-908v888h908v-888zM717 267v-107h51v107l75 -1v42l-75 -1v280h-54l-227 -276v-45zM717 307l-182 1l179 217h3v-218z" />
    <glyph glyph-name="five.ss09" horiz-adv-x="1297" 
d="M215 -88v888h908v-888h-908zM671 146q79 0 125 41t46 106q0 64 -41.5 103t-115.5 39q-71 0 -112 -39l-2 1l26 146h215v44h-252l-43 -226l55 -12q34 43 102 43q54 0 85 -27.5t31 -73.5t-31.5 -73t-87.5 -27q-91 0 -114 69l-52 -10q15 -49 58 -76.5t108 -27.5z" />
    <glyph glyph-name="six.ss09" horiz-adv-x="1297" 
d="M1123 -88h-908v888h908v-888zM683 153q75 0 119 40t44 106q0 64 -42 102t-112 38q-90 0 -135 -61q4 178 128 178q77 0 98 -65l51 14q-32 95 -149 95q-87 0 -132.5 -60.5t-45.5 -175.5q0 -211 176 -211zM684 196q-54 0 -86 30t-34 87q7 37 39.5 60t80.5 23q53 0 82 -26.5
t29 -72.5t-30 -73.5t-81 -27.5z" />
    <glyph glyph-name="seven.ss09" horiz-adv-x="1297" 
d="M1123 -88h-908v888h908v-888zM594 158h53q18 239 198 385v42h-325v-44h260q-168 -145 -186 -383z" />
    <glyph glyph-name="eight.ss09" horiz-adv-x="1297" 
d="M1123 -88h-908v888h908v-888zM540 187q49 -35 129 -35t129 35q48 35 48 95q0 41 -25.5 70t-71.5 39v2q36 10 57 35t21 58q0 51 -42.5 80.5t-115.5 29.5t-115.5 -29.5t-42.5 -80.5q0 -33 21 -57.5t57 -35.5v-2q-45 -10 -71 -39.5t-26 -69.5q0 -60 48 -95zM747 428
q-28 -19 -78 -19t-78 19t-28 54t28 54t78 19t78 -19t28 -54t-28 -54zM760 218q-33 -24 -91 -24q-59 0 -90 24q-33 24 -33 66q0 41 32 63t91 22q123 0 123 -85q0 -42 -32 -66z" />
    <glyph glyph-name="nine.ss09" horiz-adv-x="1297" 
d="M1123 -88h-908v888h908v-888zM666 147q87 0 132 61t45 175q0 211 -175 211q-75 0 -119 -40t-44 -106q0 -64 42 -102t112 -38q90 0 135 61q-4 -178 -128 -178q-76 0 -99 65l-50 -14q32 -95 149 -95zM667 351q-53 0 -82 26.5t-29 72.5t30 73.5t81 27.5q54 0 86 -30t34 -87
q-7 -37 -39.5 -60t-80.5 -23z" />
    <glyph glyph-name="zero.ss10" horiz-adv-x="1297" 
d="M1123 -88h-908v888h908v-888zM274 747v-782h790v782h-790zM669 148q-88 0 -133.5 57t-45.5 167q0 224 179 224t179 -224t-179 -224zM669 195q64 0 94.5 43t30.5 134t-31 134t-94 43t-93 -43q-31 -43 -31 -134q0 -92 30.5 -134.5t93.5 -42.5z" />
    <glyph glyph-name="one.ss10" horiz-adv-x="1297" 
d="M1123 -88h-908v888h908v-888zM274 747v-782h790v782h-790zM711 150h-51v297h-124v41h66q58 0 63 45l2 44h44v-427z" />
    <glyph glyph-name="two.ss10" horiz-adv-x="1297" 
d="M1123 -88h-908v888h908v-888zM274 747v-782h790v782h-790zM831 160h-321q0 122 120 181l73 35q75 36 75 92q0 37 -27.5 59.5t-77.5 22.5q-101 0 -104 -101h-54q1 71 42 109t116 38q72 0 115 -35t43 -93q0 -43 -24.5 -74.5t-79.5 -57.5l-54 -25q-51 -24 -74.5 -48
t-27.5 -57h260v-46z" />
    <glyph glyph-name="three.ss10" horiz-adv-x="1297" 
d="M1123 -88h-908v888h908v-888zM274 747v-782h790v782h-790zM673 147q-78 0 -124 37t-46 100h53q1 -45 31 -69t87 -24q54 0 84 22t30 63q0 38 -28.5 59.5t-81.5 21.5h-36v46h36q44 0 67.5 19.5t23.5 53.5q0 36 -27 56t-75 20q-103 0 -104 -84h-53q0 59 41.5 93t114.5 34
q71 0 113.5 -31t42.5 -83q0 -36 -19.5 -61.5t-53.5 -34.5v-2q42 -9 67 -38t25 -70q0 -57 -45.5 -92.5t-122.5 -35.5z" />
    <glyph glyph-name="four.ss10" horiz-adv-x="1297" 
d="M1123 -88h-908v888h908v-888zM274 747v-782h790v782h-790zM771 159h-51v107l-229 -1v45l226 276h54v-280l76 1v-42l-76 1v-107zM717 525l-179 -218l182 -1v219h-3z" />
    <glyph glyph-name="five.ss10" horiz-adv-x="1297" 
d="M1123 -88h-908v888h908v-888zM274 747v-782h790v782h-790zM673 145q-65 0 -108.5 27.5t-57.5 76.5l52 11q10 -33 40.5 -51.5t73.5 -18.5q56 0 87.5 27t31.5 73t-31 74t-85 28q-67 0 -102 -44l-55 12l43 226h252v-44h-215l-26 -145l2 -2q41 39 112 39q74 0 115.5 -39
t41.5 -102q0 -66 -45.5 -107t-125.5 -41z" />
    <glyph glyph-name="six.ss10" horiz-adv-x="1297" 
d="M1123 -88h-908v888h908v-888zM274 747v-782h790v782h-790zM681 147q-175 0 -175 212q0 114 45 175t132 61q117 0 149 -96l-50 -13q-23 65 -99 65q-124 0 -128 -178q45 60 135 60q70 0 112 -37.5t42 -101.5q0 -67 -44 -107t-119 -40zM682 190q51 0 81 27.5t30 74.5
q0 45 -30 72t-81 27q-48 0 -80.5 -23t-39.5 -60q2 -57 34.5 -87.5t85.5 -30.5z" />
    <glyph glyph-name="seven.ss10" horiz-adv-x="1297" 
d="M1123 -88h-908v888h908v-888zM274 747v-782h790v782h-790zM646 150h-53q18 237 186 382h-260v45h325v-43q-178 -142 -198 -384z" />
    <glyph glyph-name="eight.ss10" horiz-adv-x="1297" 
d="M1123 -88h-908v888h908v-888zM274 747v-782h790v782h-790zM798 180q-49 -35 -129 -35t-129 35q-48 34 -48 94q0 41 25.5 70t71.5 39v2q-36 11 -57 36t-21 58q0 50 42.5 79.5t115.5 29.5t115.5 -29.5t42.5 -79.5q0 -70 -78 -94v-2q46 -10 71.5 -39t25.5 -70q0 -60 -48 -94
zM591 421q28 -19 78 -19t78 19t28 53q0 73 -106 73q-49 0 -78 -18q-28 -19 -28 -54t28 -54zM579 210q31 -24 90 -24q58 0 91 24q32 24 32 66q0 41 -32 64q-31 22 -91 22t-91 -22q-32 -23 -32 -64q0 -42 33 -66z" />
    <glyph glyph-name="nine.ss10" horiz-adv-x="1297" 
d="M1123 -88h-908v888h908v-888zM274 747v-782h790v782h-790zM668 145q-117 0 -149 96l51 13q23 -65 98 -65q123 0 128 179q-43 -61 -135 -61q-70 0 -112 37.5t-42 101.5q0 67 44 107t119 40q88 0 132 -54.5t44 -156.5q0 -115 -45.5 -176t-132.5 -61zM669 349
q48 0 80.5 23.5t39.5 60.5q-2 56 -34.5 86.5t-85.5 30.5q-51 0 -81 -27.5t-30 -73.5t29.5 -73t81.5 -27z" />
    <glyph glyph-name="zero.zero" 
d="M409 722q90 0 137.5 -58t47.5 -171q0 -67 -16 -144q-35 -183 -110.5 -271t-194.5 -88q-90 0 -138 57.5t-48 168.5q0 70 16 147q38 186 112 272.5t194 86.5zM164 356q-17 -90 -17 -145q0 -57 15 -95l332 517q-32 35 -90 35q-91 0 -150 -76t-90 -236zM518 356q16 77 16 143
q0 58 -16 97l-331 -518q33 -34 92 -34q90 0 148.5 75.5t90.5 236.5z" />
    <glyph glyph-name="zero.dnom" horiz-adv-x="452" 
d="M178 -12q-148 0 -148 152q0 40 9 79q48 217 216 217q73 0 111.5 -38t38.5 -110q0 -36 -10 -83q-45 -217 -217 -217zM180 35q63 0 102.5 43t59.5 136q9 44 9 74q0 101 -98 101q-63 0 -102 -43t-59 -136q-9 -44 -9 -74q0 -101 97 -101z" />
    <glyph glyph-name="one.dnom" horiz-adv-x="304" 
d="M163 0h-51l63 297h-124l9 41h66q60 0 73 45l11 44h44z" />
    <glyph glyph-name="two.dnom" horiz-adv-x="449" 
d="M331 0h-322q23 124 157 181l82 34q98 41 98 104q0 33 -23 52t-67 19q-101 0 -125 -101h-54q35 147 182 147q65 0 102.5 -29.5t37.5 -80.5q0 -93 -130 -148l-65 -27q-104 -43 -123 -105h260z" />
    <glyph glyph-name="three.dnom" horiz-adv-x="437" 
d="M174 -12q-71 0 -110 34t-42 97l53 6q0 -93 103 -93q59 0 94 27.5t35 70.5q0 68 -94 68h-34l10 46h33q48 0 78.5 22.5t30.5 59.5q0 32 -24.5 49t-67.5 17q-96 0 -119 -83l-52 6q12 56 59 88.5t118 32.5q63 0 101.5 -28t38.5 -74q0 -39 -27 -69t-69 -40v-1q33 -8 52 -32.5
t19 -58.5q0 -63 -51.5 -104t-134.5 -41z" />
    <glyph glyph-name="four.dnom" horiz-adv-x="440" 
d="M268 0h-51l22 107l-229 -1l9 45l285 276h54l-59 -280l76 1l-9 -42l-76 1zM292 366l-225 -218l181 -1l46 218z" />
    <glyph glyph-name="five.dnom" horiz-adv-x="438" 
d="M168 -14q-64 0 -103.5 27t-50.5 76l53 12q7 -34 34.5 -52t70.5 -18q61 0 100 32.5t39 83.5q0 40 -26 63t-73 23q-67 0 -109 -45l-50 19l88 220h253l-10 -44h-215l-57 -146l2 -1q50 39 119 39q63 0 97.5 -33t34.5 -87q0 -75 -55 -121q-56 -48 -142 -48z" />
    <glyph glyph-name="six.dnom" horiz-adv-x="439" 
d="M190 -12q-74 0 -116 42t-42 121q0 117 60 201q58 84 159 84q109 0 143 -94l-49 -16q-25 66 -98 66q-62 0 -104 -50t-54 -136q55 69 142 69q61 0 98.5 -34.5t37.5 -90.5q0 -68 -49 -114q-50 -48 -128 -48zM189 32q56 0 90.5 32t34.5 81q0 40 -26 63t-71 23
q-50 0 -86 -27.5t-47 -72.5q0 -47 28 -73t77 -26z" />
    <glyph glyph-name="seven.dnom" horiz-adv-x="375" 
d="M98 0h-53q68 236 267 383h-260l9 44h325l-9 -42q-212 -146 -279 -385z" />
    <glyph glyph-name="eight.dnom" horiz-adv-x="451" 
d="M179 -8q-74 0 -118 32t-44 84q0 46 33.5 79t89.5 44l1 2q-60 21 -60 81q0 54 48.5 88t125.5 34q67 0 106 -26.5t39 -71.5q0 -38 -28 -68t-73 -38v-2q77 -23 77 -97q0 -62 -56 -101q-55 -40 -141 -40zM225 249q56 0 89 23t33 60q0 30 -25.5 46.5t-69.5 16.5
q-55 0 -88 -22.5t-33 -60.5q0 -30 24.5 -46.5t69.5 -16.5zM183 34q63 0 101.5 28t38.5 73q0 74 -111 74q-65 0 -102.5 -26t-37.5 -70q0 -37 30 -58t81 -21z" />
    <glyph glyph-name="nine.dnom" horiz-adv-x="438" 
d="M168 -12q-109 0 -143 94l49 16q25 -66 98 -66q62 0 104 50t54 136q-56 -69 -142 -69q-61 0 -98.5 34.5t-37.5 90.5q0 67 50 115q50 47 127 47q74 0 116 -42t42 -121q0 -116 -59 -201q-60 -84 -160 -84zM202 193q50 0 86 27.5t47 72.5q0 47 -28 73t-77 26q-56 0 -90.5 -32
t-34.5 -81q0 -40 26 -63t71 -23z" />
    <glyph glyph-name="zero.numr" horiz-adv-x="452" 
d="M246 309q-148 0 -148 152q0 40 9 79q48 217 216 217q73 0 111.5 -38t38.5 -110q0 -36 -10 -83q-45 -217 -217 -217zM248 356q63 0 102.5 43t59.5 136q9 43 9 74q0 101 -98 101q-63 0 -102 -43t-59 -136q-9 -43 -9 -74q0 -101 97 -101z" />
    <glyph glyph-name="one.numr" horiz-adv-x="304" 
d="M231 321h-51l63 297h-124l9 41h66q60 0 73 45l11 44h44z" />
    <glyph glyph-name="two.numr" horiz-adv-x="449" 
d="M399 321h-322q23 124 157 181l82 34q98 41 98 104q0 33 -23 52t-67 19q-101 0 -125 -101h-54q35 147 182 147q65 0 102.5 -29.5t37.5 -80.5q0 -93 -130 -148l-65 -27q-104 -44 -123 -105h260z" />
    <glyph glyph-name="three.numr" horiz-adv-x="437" 
d="M242 309q-71 0 -110 34t-42 97l53 6q0 -93 103 -93q59 0 94 27.5t35 70.5q0 68 -94 68h-34l10 46h33q48 0 78.5 22.5t30.5 59.5q0 32 -24.5 49t-67.5 17q-96 0 -119 -83l-52 6q12 56 59 88.5t118 32.5q63 0 101.5 -28t38.5 -74q0 -39 -27 -69t-69 -40v-1q33 -8 52 -32.5
t19 -58.5q0 -63 -51.5 -104t-134.5 -41z" />
    <glyph glyph-name="four.numr" horiz-adv-x="440" 
d="M336 321h-51l22 107l-229 -1l9 45l285 276h54l-59 -280l76 1l-9 -42l-76 1zM360 687l-225 -218l181 -1l46 218z" />
    <glyph glyph-name="five.numr" horiz-adv-x="438" 
d="M236 307q-64 0 -103.5 27t-50.5 76l53 12q7 -34 34.5 -52t70.5 -18q61 0 100 32.5t39 83.5q0 40 -26 63t-73 23q-67 0 -109 -45l-50 19l88 220h253l-10 -44h-215l-57 -146l2 -1q50 39 119 39q63 0 97.5 -33t34.5 -87q0 -75 -55 -121q-55 -48 -142 -48z" />
    <glyph glyph-name="six.numr" horiz-adv-x="439" 
d="M258 309q-74 0 -116 42t-42 121q0 117 60 201q58 84 159 84q109 0 143 -94l-49 -16q-25 66 -98 66q-62 0 -104 -50t-54 -136q55 69 142 69q61 0 98.5 -34.5t37.5 -90.5q0 -68 -49 -114q-50 -48 -128 -48zM257 353q56 0 90.5 32t34.5 81q0 40 -26 63t-71 23
q-50 0 -86 -27.5t-47 -72.5q0 -47 28 -73t77 -26z" />
    <glyph glyph-name="seven.numr" horiz-adv-x="375" 
d="M166 321h-53q68 236 267 383h-260l9 44h325l-9 -42q-212 -146 -279 -385z" />
    <glyph glyph-name="eight.numr" horiz-adv-x="451" 
d="M247 313q-74 0 -118 32t-44 84q0 46 33.5 79t89.5 44l1 2q-60 21 -60 81q0 54 48.5 88t125.5 34q67 0 106 -26.5t39 -71.5q0 -38 -28 -68t-73 -38v-2q77 -23 77 -97q0 -62 -56 -101q-55 -40 -141 -40zM293 570q56 0 89 23t33 60q0 30 -25.5 46.5t-69.5 16.5
q-55 0 -88 -22.5t-33 -60.5q0 -30 24.5 -46.5t69.5 -16.5zM251 355q63 0 101.5 28t38.5 73q0 74 -111 74q-65 0 -102.5 -26t-37.5 -70q0 -37 30 -58t81 -21z" />
    <glyph glyph-name="nine.numr" horiz-adv-x="438" 
d="M236 309q-109 0 -143 94l49 16q25 -66 98 -66q62 0 104 50t54 136q-56 -69 -142 -69q-61 0 -98.5 34.5t-37.5 90.5q0 67 50 115q50 47 127 47q74 0 116 -42t42 -121q0 -116 -59 -201q-60 -84 -160 -84zM270 514q50 0 86 27.5t47 72.5q0 47 -28 73t-77 26q-56 0 -90.5 -32
t-34.5 -81q0 -40 26 -63t71 -23z" />
    <glyph glyph-name="zero.tf" 
d="M273 -10q-90 0 -138 57.5t-48 168.5q0 70 16 147q38 186 112 272.5t194 86.5q90 0 137.5 -58t47.5 -171q0 -67 -16 -144q-35 -183 -110.5 -271t-194.5 -88zM279 44q90 0 148.5 75.5t90.5 236.5q16 77 16 143q0 169 -130 169q-91 0 -150 -76t-90 -236q-17 -90 -17 -145
q0 -167 132 -167z" />
    <glyph glyph-name="one.tf" 
d="M465 712l-141 -659h216l-12 -53h-481l12 53h205l117 549q-84 -66 -209 -70l12 55q157 7 227 125h54z" />
    <glyph glyph-name="two.tf" 
d="M499 0h-466q21 91 79 158t163 122l118 63q79 42 117 87t38 109q0 57 -36.5 91.5t-102.5 34.5q-80 0 -131.5 -46t-68.5 -137l-1 -9h-61l2 11q21 112 92 173.5t174 61.5q88 0 140.5 -48.5t52.5 -126.5q0 -80 -45 -137t-139 -107l-96 -51q-96 -50 -144.5 -95.5t-66.5 -98.5
h393z" />
    <glyph glyph-name="three.tf" 
d="M280 -11q-105 0 -168.5 52t-63.5 139q0 16 4 37h60q-3 -17 -3 -32q0 -67 46 -104t129 -37q98 0 161 51q62 51 62 134q0 57 -38 88.5t-109 31.5h-66l11 53h51q83 0 133 42.5t50 111.5q0 53 -36.5 81.5t-103.5 28.5q-164 0 -199 -158h-61q23 103 91.5 158t175.5 55
q89 0 142 -43t53 -115q0 -69 -41 -118t-111 -66v-3q57 -10 88 -48.5t31 -98.5q0 -111 -81 -175q-82 -65 -207 -65z" />
    <glyph glyph-name="four.tf" 
d="M563 712l-101 -475h112l-12 -54h-112l-39 -183h-60l39 183h-345l13 57l455 472h50zM125 237h276l78 363h-1z" />
    <glyph glyph-name="five.tf" 
d="M267 -16q-95 0 -147.5 52t-52.5 145h58q0 -69 38 -107.5t107 -38.5q100 0 161 69q60 68 60 169q0 66 -35.5 102.5t-103.5 36.5q-103 0 -170 -82l-63 2l143 380h353l-11 -55h-307l-99 -264l2 -2q69 72 168 72q87 0 135.5 -51.5t48.5 -137.5q0 -128 -79 -208
q-79 -82 -206 -82z" />
    <glyph glyph-name="six.tf" 
d="M369 457q84 0 134 -51.5t50 -135.5q0 -120 -74 -200t-191 -80q-98 0 -149 62.5t-51 172.5q0 60 13 119q76 379 317 379q86 0 133 -48t47 -134h-57q0 64 -32.5 97.5t-95.5 33.5q-187 0 -255 -333q79 118 211 118zM293 41q89 0 144 67q55 65 55 159q0 64 -36.5 101.5
t-99.5 37.5q-71 0 -127 -44.5t-81 -120.5q-3 -15 -3 -36q0 -77 39 -120.5t109 -43.5z" />
    <glyph glyph-name="seven.tf" 
d="M200 0h-64q118 410 427 656h-401l12 56h484l-10 -47q-331 -247 -448 -665z" />
    <glyph glyph-name="eight.tf" 
d="M275 -12q-103 0 -167 51q-64 49 -64 133q0 83 53 140.5t144 75.5v1q-45 16 -69.5 50.5t-24.5 80.5q0 98 73 150t186 52q95 0 151 -43t56 -115q0 -69 -42.5 -117.5t-118.5 -67.5v-1q56 -12 87 -52t31 -99q0 -112 -83 -175q-82 -64 -212 -64zM353 407q94 0 148 39.5
t54 113.5q0 52 -39.5 81.5t-113.5 29.5q-91 0 -144.5 -39.5t-53.5 -112.5q0 -54 38.5 -83t110.5 -29zM279 39q101 0 165 51q65 51 65 136q0 61 -44 95.5t-125 34.5q-107 0 -170.5 -48t-63.5 -133q0 -63 46 -99.5t127 -36.5z" />
    <glyph glyph-name="nine.tf" 
d="M395 723q98 0 148.5 -62t50.5 -172q0 -57 -12 -120q-76 -379 -317 -379q-87 0 -133.5 47.5t-46.5 134.5h57q0 -64 32.5 -97.5t95.5 -33.5q186 0 255 333q-79 -118 -211 -118q-84 0 -134 51.5t-50 135.5q0 120 74 200t191 80zM535 472q3 15 3 36q0 78 -39 121t-110 43
q-87 0 -143 -66q-55 -67 -55 -159q0 -65 36 -102.5t100 -37.5q71 0 127 44.5t81 120.5z" />
    <glyph glyph-name="zero.tf.zero" 
d="M410 722q90 0 137.5 -58t47.5 -171q0 -63 -15 -144q-35 -183 -110.5 -271t-194.5 -88q-91 0 -139 57.5t-48 168.5q0 67 17 147q38 186 111.5 272.5t193.5 86.5zM165 356q-16 -79 -16 -145q0 -59 15 -96l332 519q-33 34 -90 34q-91 0 -150 -75.5t-91 -236.5zM519 356
q17 88 17 143q0 58 -16 97l-332 -518q33 -34 92 -34q90 0 148.5 75.5t90.5 236.5z" />
    <glyph glyph-name="period.ss01" horiz-adv-x="269" 
d="M87 -11q-30 -3 -42 21t0 48t42 22q20 0 33.5 -13t13.5 -33q0 -19 -13.5 -32t-33.5 -13z" />
    <glyph glyph-name="comma.ss01" horiz-adv-x="283" 
d="M94 80q49 0 49 -50q0 -12 -6 -38l-10 -50q-17 -87 -102 -87h-8l8 37h8q26 0 38.5 13t19.5 44l9 40h-8q-37 -5 -48 29q-9 30 14 50q14 13 36 12z" />
    <glyph glyph-name="colon.ss01" horiz-adv-x="268" 
d="M177 396q-30 -3 -42 21t0 48t42 21q20 0 33.5 -12.5t13.5 -32.5t-13.5 -32.5t-33.5 -12.5zM128 2q-22 -21 -52 -9.5t-30 41.5q-2 28 23 40t50 0t23 -40q0 -18 -14 -32z" />
    <glyph glyph-name="semicolon.ss01" horiz-adv-x="268" 
d="M143 474q13 12 34.5 12t34.5 -12q14 -13 14 -33t-14 -32q-14 -13 -35 -13t-34 13q-13 12 -13 32t13 33zM94 80q49 0 49 -50q0 -12 -6 -38l-10 -50q-17 -87 -102 -87h-8l8 37h8q26 0 38.5 13t19.5 44l9 40h-8q-37 -5 -48 29q-9 30 14 50q14 13 36 12z" />
    <glyph glyph-name="ellipsis.ss01" horiz-adv-x="808" 
d="M87 -11q-30 -3 -42 21t0 48t42 22q20 0 33.5 -13t13.5 -33q0 -19 -13.5 -32t-33.5 -13zM356 -11q-20 0 -33.5 13t-13.5 32q0 20 13.5 33t33.5 13q30 2 42 -22t0 -48t-42 -21zM626 -11q-30 -3 -42 21t0 48t42 22q20 0 33.5 -13t13.5 -33q0 -19 -13.5 -32t-33.5 -13z" />
    <glyph glyph-name="exclam.ss01" horiz-adv-x="266" 
d="M109 168h-28l55 339l43 205h61l-43 -205zM97 2q-13 -13 -33 -13t-32 13q-13 12 -13 31t13 31q12 12 32 12t33 -12t13 -31t-13 -31z" />
    <glyph glyph-name="exclamdown.ss01" horiz-adv-x="266" 
d="M193 453q-13 -12 -33 -12t-33 12t-13 31t13 32q13 12 33 12t33 -12q13 -13 13 -32t-13 -31zM44 -204h-60l44 205l88 339h28l-56 -339z" />
    <glyph glyph-name="question.ss01" horiz-adv-x="622" 
d="M301 172h-57l6 26q15 69 48 109q32 42 110 79q74 36 106.5 73.5t32.5 87.5q0 60 -43.5 92.5t-120.5 32.5q-87 0 -141.5 -43t-71.5 -124h-57q24 106 93 161.5t178 55.5q101 0 160.5 -46t59.5 -127q0 -115 -140 -189l-54 -29q-50 -26 -71 -56q-22 -33 -35 -91zM287 2
q-13 -13 -33 -13t-33 13q-13 12 -13 31t13 31t33 12t33 -12t13 -31t-13 -31z" />
    <glyph glyph-name="questiondown.ss01" horiz-adv-x="622" 
d="M399 449q-13 -12 -33 -12t-33 12t-13 31t13 32q13 12 33 12t33 -12q13 -13 13 -32t-13 -31zM237 -209q-101 0 -160.5 46t-59.5 127q0 115 140 189l54 29q50 26 71 56q22 31 35 91l3 12h57l-6 -26q-15 -68 -47 -109q-34 -42 -111 -79q-73 -36 -105.5 -73t-32.5 -88
q0 -61 43 -93t120 -32q87 0 141.5 43t71.5 124h57q-23 -106 -92 -161.5t-179 -55.5z" />
    <glyph glyph-name="periodcentered.ss01" horiz-adv-x="269" 
d="M154 304q-20 0 -33.5 12.5t-13.5 32.5t13.5 32.5t33.5 12.5q30 3 42 -21t0 -48t-42 -21z" />
    <glyph glyph-name="bullet.ss01" horiz-adv-x="340" 
d="M234 225q-23 -22 -59 -22t-59 22t-23 57t23 57t59 22t59 -22t23 -57t-23 -57z" />
    <glyph glyph-name="uni203D.ss01" horiz-adv-x="621" 
d="M384 722q97 0 159 -44q62 -45 62 -125q0 -114 -149 -197l-46 -25q-46 -25 -64 -49q-19 -25 -36 -79l-8 -31h-40l47 268l21 102h61l-22 -102l-27 -107q25 22 68 46q73 39 105.5 79t32.5 91q0 61 -44.5 92.5t-120.5 31.5q-181 0 -212 -174h-59q17 105 87.5 164t184.5 59z
M219 64q13 12 33 12t33 -12t13 -31t-13 -31q-13 -13 -33 -13t-33 13q-13 12 -13 31t13 31z" />
    <glyph glyph-name="uni2E18.ss01" horiz-adv-x="621" 
d="M398 449q-13 -12 -33 -12t-33 12t-13 31t13 32q13 12 33 12t33 -12q13 -13 13 -32t-13 -31zM450 17h59q-16 -105 -86.5 -164t-185.5 -59q-97 0 -159 44q-62 45 -62 125q0 114 149 197l46 25q45 25 64 50t36 78l8 31h41l-48 -268l-21 -102h-61l22 102l27 106
q-33 -26 -67 -45q-73 -39 -106 -79t-33 -91q0 -61 44.5 -92.5t120.5 -31.5q181 0 212 174z" />
    <glyph glyph-name="period.tf.ss01" 
d="M273 -11q-30 -3 -42 21t0 48t42 22q20 0 33.5 -13t13.5 -33q0 -19 -13.5 -32t-33.5 -13z" />
    <glyph glyph-name="comma.tf.ss01" 
d="M273 80q48 0 48 -50q0 -13 -5 -38l-10 -50q-20 -87 -102 -87h-8l8 37h7q26 0 38 12.5t21 44.5l8 40h-8q-35 -4 -46 27t12 52q14 13 37 12z" />
    <glyph glyph-name="colon.tf.ss01" 
d="M357 396q-30 -3 -42 21t0 48t42 21q20 0 33.5 -12.5t13.5 -32.5t-13.5 -32.5t-33.5 -12.5zM308 2q-22 -21 -52 -9.5t-30 41.5q-2 28 23 40t50 0t23 -40q0 -18 -14 -32z" />
    <glyph glyph-name="semicolon.tf.ss01" 
d="M356 486q20 0 33.5 -12.5t13.5 -32.5t-13.5 -32.5t-33.5 -12.5q-30 -3 -42 21t0 48t42 21zM273 80q48 0 48 -50q0 -13 -5 -38l-10 -50q-20 -87 -102 -87h-8l8 37h7q26 0 38 12.5t21 44.5l8 40h-8q-35 -4 -46 27t12 52q14 13 37 12z" />
    <glyph glyph-name="period.tf" 
d="M310 0h-89l16 78h90z" />
    </font>
</defs>
</svg>
