<?xml version="1.0" standalone="no"?>
<!DOCTYPE svg PUBLIC "-//W3C//DTD SVG 1.1//EN" "http://www.w3.org/Graphics/SVG/1.1/DTD/svg11.dtd" >
<svg xmlns="http://www.w3.org/2000/svg" xmlns:xlink="http://www.w3.org/1999/xlink" version="1.1">
<metadata>
Created by FontForge 20190801 at Sun Apr 14 18:27:41 2019
 By www-data
Copyright (c) 2019 Monotype Imaging Inc. All rights reserved.
</metadata>
<defs>
<font id="HelveticaNowMicroExtLtIta" horiz-adv-x="0" >
  <font-face 
    font-family="HelveticaNowMicroExtLtIta"
    font-weight="300"
    font-style="italic"
    font-stretch="normal"
    units-per-em="1000"
    panose-1="2 11 3 4 3 2 2 9 2 4"
    ascent="875"
    descent="-125"
    x-height="548"
    cap-height="768"
    bbox="-437 -350 1811 1109"
    underline-thickness="50"
    underline-position="-300"
    slope="-12"
    unicode-range="U+000D-FEFF"
  />
<missing-glyph horiz-adv-x="1038" 
d="M844 0h-603v768h603v-768zM292 724v-680h501v680h-501z" />
    <glyph glyph-name="fi" unicode="fi" horiz-adv-x="767" 
d="M678 686l19 86h60l-18 -86h-61zM237 544l11 69q18 84 58 119.5t113 35.5h116l-9 -41h-104q-52 0 -81.5 -26t-42.5 -86l-19 -72l208 5l-10 -42l-204 5l-4 -35l-101 -476h-50l101 477l10 33l-142 -4l9 42zM587 0h-50l117 548h50z" />
    <glyph glyph-name="fl" unicode="fl" horiz-adv-x="767" 
d="M237 544l11 69q18 84 58 119.5t113 35.5h116l-9 -41h-104q-52 0 -81.5 -26t-42.5 -86l-19 -72l208 5l-10 -42l-204 5l-4 -35l-101 -476h-50l101 477l10 33l-142 -4l9 42zM538 0l164 768h50l-164 -768h-50z" />
    <glyph glyph-name=".notdef" horiz-adv-x="1038" 
d="M844 0h-603v768h603v-768zM292 724v-680h501v680h-501z" />
    <glyph glyph-name=".null" 
 />
    <glyph glyph-name="nonmarkingreturn" horiz-adv-x="333" 
 />
    <glyph glyph-name="NULL" 
 />
    <glyph glyph-name="NULL" 
 />
    <glyph glyph-name="CR" unicode="&#xd;" horiz-adv-x="338" 
 />
    <glyph glyph-name="space" unicode=" " horiz-adv-x="338" 
 />
    <glyph glyph-name="exclam" unicode="!" horiz-adv-x="343" 
d="M168 190h-28l59 330l53 248h50l-53 -248zM148 0h-70l15 71h71z" />
    <glyph glyph-name="quotedbl" unicode="&#x22;" horiz-adv-x="508" 
d="M203 437h-47l71 331h47zM421 437h-47l71 331h47z" />
    <glyph glyph-name="numbersign" unicode="#" horiz-adv-x="750" 
d="M738 538l-8 -37l-142 3l-84 -238l134 2l-8 -37l-138 3l-82 -234h-40l83 234h-213l-83 -234h-40l82 234l-140 -3l8 37l144 -2l84 238l-137 -3l8 37l140 -2l82 232h40l-82 -232h213l82 232h40l-82 -232zM335 504l-84 -238h213l84 238h-213z" />
    <glyph glyph-name="dollar" unicode="$" horiz-adv-x="721" 
d="M518 912l-30 -145q97 -6 151 -50t54 -119q0 -17 -1 -22l-48 -4q1 5 1 20q0 64 -50 98t-139 34q-110 0 -170.5 -42t-60.5 -126q0 -49 34.5 -79.5t108.5 -46.5l90 -20q168 -36 168 -172q0 -115 -83 -177q-83 -61 -218 -61l-31 -144h-44l31 146q-99 9 -156 60.5t-57 135.5
q0 1 2 23l48 4q-1 -5 -1 -22q0 -77 55.5 -118t155.5 -41q108 0 179 48q69 46 69 139q0 54 -34 86.5t-108 48.5l-91 21q-168 37 -168 164q0 103 71.5 158.5t197.5 58.5l30 144h44z" />
    <glyph glyph-name="percent" unicode="%" horiz-adv-x="1435" 
d="M357 337q-77 0 -120 46.5t-43 128.5q0 35 7 70q21 107 82 166t149 59q77 0 120 -46t43 -128q0 -35 -7 -70q-22 -108 -83 -167t-148 -59zM438 -15h-52l648 798h50zM359 374q69 0 117.5 46.5t68.5 135.5q9 44 9 78q0 66 -33 102t-91 36q-72 0 -121 -50.5t-67 -145.5
q-7 -34 -7 -64q0 -66 33 -102t91 -36zM1057 -9q-77 0 -120.5 46.5t-43.5 128.5q0 32 8 70q22 108 82.5 166.5t147.5 58.5q77 0 120.5 -46t43.5 -128q0 -32 -8 -70q-22 -108 -82.5 -167t-147.5 -59zM1059 28q69 0 117 46.5t68 135.5q10 39 10 78q0 65 -33.5 101.5t-91.5 36.5
q-72 0 -121 -50.5t-67 -145.5q-7 -34 -7 -64q0 -66 32.5 -102t92.5 -36z" />
    <glyph glyph-name="ampersand" unicode="&#x26;" horiz-adv-x="886" 
d="M664 153l122 -153h-63l-92 115q-120 -131 -291 -131q-107 0 -171 52.5t-64 141.5q0 99 76 163q76 65 196 92l-10 12q-70 86 -70 165q0 78 63 131q62 52 163 52q85 0 136 -40.5t51 -111.5q0 -74 -63 -127.5t-198 -92.5l194 -242q56 81 82 177l47 -4q-34 -118 -108 -199z
M396 712q-50 -38 -49 -101.5t58 -134.5l21 -26q234 64 234 190q0 53 -37.5 82t-101.5 29q-77 0 -125 -39zM350 27q150 0 260 114l-212 265q-242 -68 -242 -223q0 -73 51.5 -114.5t142.5 -41.5z" />
    <glyph glyph-name="quotesingle" unicode="'" horiz-adv-x="289" 
d="M203 437h-47l71 331h47z" />
    <glyph glyph-name="parenleft" unicode="(" horiz-adv-x="377" 
d="M207 -204h-41q-75 168 -75 338q0 74 17 167q56 281 263 502h50q-212 -245 -264 -508q-17 -96 -17 -169q0 -159 67 -330z" />
    <glyph glyph-name="parenright" unicode=")" horiz-adv-x="376" 
d="M16 -204h-50q215 246 264 508q17 88 17 169q0 159 -67 330h41q75 -168 75 -338q0 -74 -17 -167q-54 -281 -263 -502z" />
    <glyph glyph-name="asterisk" unicode="*" horiz-adv-x="739" 
d="M417 488l-173 -190l-37 27l182 182l-205 66l23 44l200 -78l43 229h46l-55 -231l232 80l9 -46l-237 -65l101 -182l-41 -26z" />
    <glyph glyph-name="plus" unicode="+" horiz-adv-x="740" 
d="M391 362h253v-44h-253v-252h-44v252h-252v44h252v253h44v-253z" />
    <glyph glyph-name="comma" unicode="," horiz-adv-x="347" 
d="M42 -173h-16l8 34h15q29 0 44 15t22 46l20 92l-72 -14l18 85h105l-35 -162q-11 -52 -36 -74t-73 -22z" />
    <glyph glyph-name="hyphen" unicode="-" horiz-adv-x="410" 
d="M349 271h-289l9 42h289z" />
    <glyph glyph-name="period" unicode="." horiz-adv-x="336" 
d="M157 0h-94l18 85h94z" />
    <glyph glyph-name="slash" unicode="/" horiz-adv-x="501" 
d="M53 0h-57l482 768h57z" />
    <glyph glyph-name="zero" unicode="0" horiz-adv-x="740" 
d="M318 -16q-109 0 -167 65.5t-58 189.5q0 67 18 151q79 393 357 393q110 0 168 -65t58 -191q0 -69 -17 -149q-79 -394 -359 -394zM322 28q235 0 305 355q17 80 17 146q0 210 -179 210q-233 0 -305 -354q-17 -90 -17 -147q0 -210 179 -210z" />
    <glyph glyph-name="one" unicode="1" horiz-adv-x="517" 
d="M382 768h45l-164 -768h-51l144 677q-92 -77 -223 -84l10 44q158 9 239 131z" />
    <glyph glyph-name="two" unicode="2" horiz-adv-x="740" 
d="M580 0h-532q19 95 81 163q61 67 194 137l130 69q95 50 138.5 101.5t43.5 124.5q0 67 -43 104t-122 37q-99 0 -162.5 -49t-79.5 -139l-3 -12h-50l3 13q21 113 98.5 173.5t198.5 60.5q98 0 154 -49.5t56 -134.5q0 -92 -53 -153q-54 -62 -165 -120l-105 -56
q-122 -64 -173 -112q-54 -51 -70 -111h471z" />
    <glyph glyph-name="three" unicode="3" horiz-adv-x="740" 
d="M327 -14q-110 0 -175 53.5t-65 145.5q0 15 3 32l49 4q-2 -26 -2 -30q0 -75 52.5 -118t142.5 -43q110 0 178 60q66 60 66 159q0 65 -46 101t-131 36h-57l9 44h58q97 0 158 49t61 130q0 61 -47 97t-126 36q-94 0 -154 -44.5t-84 -126.5l-49 5q28 100 102.5 155t187.5 55
q101 0 160.5 -47.5t59.5 -125.5q0 -81 -50 -134.5t-136 -69.5v-2q65 -14 99.5 -54t34.5 -101q0 -124 -81 -194q-81 -72 -218 -72z" />
    <glyph glyph-name="four" unicode="4" horiz-adv-x="740" 
d="M652 768l-112 -523l114 5l-9 -42l-112 5l-45 -213h-48l45 213l-418 -5l8 36l513 524h64zM137 250l355 -5l99 462h-2z" />
    <glyph glyph-name="five" unicode="5" horiz-adv-x="740" 
d="M326 -16q-108 0 -172 59q-64 58 -64 155l53 5q0 -83 49.5 -128.5t137.5 -45.5q115 0 182 76t67 193q0 76 -46 119.5t-127 43.5q-115 0 -206 -91l-50 6l153 392h405l-10 -49h-363l-114 -289l2 -1q85 76 193 76q101 0 157.5 -55t56.5 -149q0 -140 -82 -228
q-83 -89 -222 -89z" />
    <glyph glyph-name="six" unicode="6" horiz-adv-x="740" 
d="M480 740q-118 0 -193.5 -94.5t-116.5 -302.5q95 146 254 146q96 0 151.5 -54.5t55.5 -146.5q0 -130 -82 -216q-82 -88 -207 -88q-112 0 -172.5 67t-60.5 184q0 67 16 137q46 202 129 307q83 104 230 104q95 0 152 -45t62 -126l-49 -5q-5 63 -49 98t-120 35zM415 445
q-83 0 -148.5 -46t-107.5 -133q-2 -38 -2 -39q0 -93 48.5 -146t137.5 -53q103 0 171 75q66 73 66 181q0 75 -43.5 118t-121.5 43z" />
    <glyph glyph-name="seven" unicode="7" horiz-adv-x="740" 
d="M246 0h-53q120 423 474 719h-482l11 49h558l-8 -37q-187 -149 -314.5 -336t-185.5 -395z" />
    <glyph glyph-name="eight" unicode="8" horiz-adv-x="740" 
d="M324 -16q-111 0 -178 52q-69 51 -69 140q0 92 62 159q62 66 161 84v2q-57 14 -88 51.5t-31 89.5q0 102 80 164q79 60 203 60q105 0 165.5 -44.5t60.5 -122.5q0 -76 -51.5 -129.5t-139.5 -74.5v-2q66 -15 101.5 -57.5t35.5 -106.5q0 -118 -89 -192q-89 -73 -223 -73z
M403 437q104 0 171 49q66 48 66 130q0 60 -47.5 93t-132.5 33q-100 0 -164 -49q-65 -50 -65 -133q0 -59 45 -91t127 -32zM326 28q112 0 185 61q74 62 74 158q0 70 -49.5 108t-142.5 38q-117 0 -191 -57q-74 -59 -74 -157q0 -70 52.5 -110.5t145.5 -40.5z" />
    <glyph glyph-name="nine" unicode="9" horiz-adv-x="740" 
d="M445 783q112 0 172.5 -67t60.5 -183q0 -58 -17 -137q-47 -209 -131 -310.5t-227 -101.5q-96 0 -153 45t-61 126l48 6q5 -64 48.5 -99t120.5 -35q119 0 194.5 95t116.5 304q-93 -147 -255 -147q-95 0 -150.5 54.5t-55.5 145.5q0 129 82 217q81 87 207 87zM627 502
q2 18 2 38q0 93 -48.5 146.5t-136.5 53.5q-105 0 -171 -74q-67 -74 -67 -182q0 -76 43.5 -119t121.5 -43q83 0 148.5 46.5t107.5 133.5z" />
    <glyph glyph-name="colon" unicode=":" horiz-adv-x="336" 
d="M241 396h-94l18 85h94zM157 0h-94l18 85h94z" />
    <glyph glyph-name="semicolon" unicode=";" horiz-adv-x="347" 
d="M241 396h-94l18 85h94zM42 -173h-16l8 34h15q29 0 44 15t22 46l20 92l-72 -14l18 85h105l-35 -162q-11 -52 -36 -74t-73 -22z" />
    <glyph glyph-name="less" unicode="&#x3c;" horiz-adv-x="740" 
d="M106 359l527 226v-50l-477 -202l477 -201v-50l-527 225v52z" />
    <glyph glyph-name="equal" unicode="=" horiz-adv-x="740" 
d="M634 427h-529v49h529v-49zM634 203h-529v49h529v-49z" />
    <glyph glyph-name="greater" unicode="&#x3e;" horiz-adv-x="740" 
d="M106 535v50l527 -226v-52l-527 -225v50l477 201z" />
    <glyph glyph-name="question" unicode="?" horiz-adv-x="724" 
d="M350 190h-51l8 33q15 68 48 112q33 42 116 80q87 40 125.5 81.5t38.5 96.5q0 68 -51.5 105.5t-144.5 37.5q-199 0 -247 -180l-49 5q55 219 296 219q114 0 180.5 -48t66.5 -134q0 -126 -165 -206l-49 -25q-55 -26 -78.5 -57.5t-37.5 -92.5zM320 0h-70l15 71h70z" />
    <glyph glyph-name="at" unicode="@" horiz-adv-x="1175" 
d="M657 742q212 0 321 -124t68 -315q-26 -115 -88 -185q-65 -71 -150 -71q-48 0 -76 25.5t-29 74.5q-64 -103 -169 -103q-87 0 -128 68q-41 69 -16 180q22 103 82.5 160.5t144.5 57.5q106 0 138 -98l20 85h45l-62 -289q-26 -123 57 -123q63 0 114 62q51 61 72 159
q37 170 -57 282t-289 112q-188 0 -306 -103q-120 -104 -157 -281q-43 -204 56 -329q97 -124 288 -124q101 0 209 39l-9 -46q-99 -34 -205 -34q-137 -2 -236.5 61t-140 179t-8.5 259q40 192 175 307q133 114 336 114zM545 83q66 0 115 54.5t70 153.5q17 78 -14 128.5
t-99 50.5q-67 0 -115 -47.5t-67 -134.5q-21 -97 9.5 -151t100.5 -54z" />
    <glyph glyph-name="A" unicode="A" horiz-adv-x="737" 
d="M649 0h-51l-42 227h-396l-137 -227h-56l468 768h69zM450 706l-263 -435h361l-80 435l-3 27z" />
    <glyph glyph-name="B" unicode="B" horiz-adv-x="814" 
d="M554 402q73 -12 112 -54t39 -109q0 -110 -80 -175q-79 -64 -208 -64h-339l164 768h302q100 0 154 -42t54 -115q0 -82 -53.5 -137.5t-144.5 -71.5zM531 726h-248l-65 -303h251q104 0 166.5 49.5t62.5 134.5q0 58 -42.5 88.5t-124.5 30.5zM137 42h285q103 0 167 55t64 144
q0 139 -189 139h-255z" />
    <glyph glyph-name="C" unicode="C" horiz-adv-x="860" 
d="M411 -17q-138 0 -216 80t-78 221q0 59 14 126q38 179 150 278q111 99 270 99q127 0 203.5 -62.5t86.5 -175.5l-49 -5q-7 93 -71.5 145.5t-172.5 52.5q-142 0 -239.5 -89.5t-130.5 -255.5q-12 -55 -12 -112q0 -123 65 -189.5t183 -66.5q107 0 191 55t128 155l47 -7
q-47 -116 -146 -182q-98 -67 -223 -67z" />
    <glyph glyph-name="D" unicode="D" horiz-adv-x="837" 
d="M242 768h207q332 0 332 -271q0 -49 -13 -117q-40 -195 -148 -287.5t-297 -92.5h-245zM718 386q13 56 13 112q0 119 -71 173.5t-214 54.5h-162l-146 -684h186q162 0 259 82t135 262z" />
    <glyph glyph-name="E" unicode="E" horiz-adv-x="716" 
d="M738 768l-9 -42h-446l-65 -305h396l-10 -42h-395l-72 -337h462l-10 -42h-511l164 768h496z" />
    <glyph glyph-name="F" unicode="F" horiz-adv-x="672" 
d="M724 768l-9 -42h-432l-65 -305h382l-9 -42h-382l-81 -379h-50l164 768h482z" />
    <glyph glyph-name="G" unicode="G" horiz-adv-x="903" 
d="M731 333h-256l9 42h305l-79 -375h-41l24 144q-103 -160 -296 -160q-133 0 -206 82q-74 82 -74 219q0 57 12 116q39 182 147.5 283.5t269.5 101.5q117 0 188.5 -58t87.5 -166l-50 -5q-31 187 -231 187q-134 0 -231 -91q-96 -90 -131 -256q-12 -57 -12 -112
q0 -121 62.5 -190t172.5 -69q107 0 186.5 56t123.5 162z" />
    <glyph glyph-name="H" unicode="H" horiz-adv-x="875" 
d="M719 423l74 345h52l-164 -768h-52l81 378h-500l-81 -378h-51l164 768h51l-74 -345h500z" />
    <glyph glyph-name="I" unicode="I" horiz-adv-x="324" 
d="M129 0h-51l164 768h51z" />
    <glyph glyph-name="J" unicode="J" horiz-adv-x="673" 
d="M254 -12q-96 0 -151 46.5t-55 129.5q0 38 12 81h50q-11 -46 -11 -79q0 -67 41 -101.5t117 -34.5q177 0 218 192l116 546h51l-116 -548q-24 -112 -93 -172t-179 -60z" />
    <glyph glyph-name="K" unicode="K" horiz-adv-x="745" 
d="M734 768h68l-377 -325l234 -443h-55l-218 415l-205 -174l-52 -241h-51l164 768h51l-99 -463z" />
    <glyph glyph-name="L" unicode="L" horiz-adv-x="672" 
d="M292 768l-155 -726h430l-10 -42h-479l164 768h50z" />
    <glyph glyph-name="M" unicode="M" horiz-adv-x="1064" 
d="M520 119l434 649h79l-164 -768h-49l144 676l12 51l-32 -50l-452 -677h-38l-164 677l-10 48l-11 -49l-144 -676h-47l164 768h72l157 -649l12 -61z" />
    <glyph glyph-name="N" unicode="N" horiz-adv-x="875" 
d="M646 65l150 703h48l-164 -768h-53l-351 704l-150 -704h-48l164 768h53z" />
    <glyph glyph-name="O" unicode="O" horiz-adv-x="920" 
d="M415 -16q-139 0 -218 81q-80 82 -80 222q0 52 12 112q38 183 149 285q110 103 274 103q140 0 219 -81q79 -82 79 -223q0 -54 -11 -112q-37 -181 -148 -284q-112 -103 -276 -103zM419 26q143 0 241 95q97 94 130 259q11 61 11 103q0 123 -66.5 192t-186.5 69
q-145 0 -240 -94t-130 -260q-11 -61 -11 -103q0 -123 66.5 -192t185.5 -69z" />
    <glyph glyph-name="P" unicode="P" horiz-adv-x="731" 
d="M242 768h260q210 0 210 -170q0 -121 -74 -192q-75 -72 -201 -72h-237l-71 -334h-51zM209 376h229q103 0 163 60t60 161q0 129 -163 129h-214z" />
    <glyph glyph-name="Q" unicode="Q" horiz-adv-x="955" 
d="M839 371q-43 -205 -175 -307l115 -137l-36 -27l-106 146q-98 -62 -222 -62q-139 0 -218 81q-80 82 -80 222q0 52 12 112q38 183 149 285q110 103 274 103q140 0 219 -81q79 -82 79 -223q0 -54 -11 -112zM167 287q0 -123 66.5 -192t185.5 -69q109 0 191 55l-129 152l35 28
l119 -161q117 92 155 280q11 61 11 103q0 123 -66.5 192t-186.5 69q-143 0 -239.5 -93.5t-130.5 -260.5q-11 -61 -11 -103z" />
    <glyph glyph-name="R" unicode="R" horiz-adv-x="805" 
d="M762 612q0 -93 -58.5 -157.5t-156.5 -83.5q101 -24 101 -135q0 -20 -3 -47l-18 -189h-51l19 185q3 36 3 44q0 63 -34 92t-104 29h-257l-75 -350h-50l164 768h320q95 0 147.5 -40.5t52.5 -115.5zM212 393h249q111 0 181 58q69 59 69 156q0 119 -164 119h-264z" />
    <glyph glyph-name="S" unicode="S" horiz-adv-x="768" 
d="M338 -20q-128 0 -199.5 53t-71.5 150q0 23 1 30l52 4q-1 -7 -1 -31q0 -79 58.5 -120.5t165.5 -41.5q128 0 201.5 52t73.5 149q0 107 -158 142l-96 21q-185 42 -185 174q0 114 81 171.5t228 57.5q118 0 185.5 -46t67.5 -129q0 -3 -2 -27l-49 -5q1 6 1 26q0 67 -55 102
t-153 35q-120 0 -185.5 -45t-65.5 -135q0 -52 37.5 -83.5t121.5 -49.5l94 -21q186 -40 186 -181q0 -124 -90 -188q-91 -64 -243 -64z" />
    <glyph glyph-name="T" unicode="T" horiz-adv-x="629" 
d="M138 768h564l-10 -42h-256l-154 -726h-52l155 726h-257z" />
    <glyph glyph-name="U" unicode="U" horiz-adv-x="855" 
d="M378 -17q-124 0 -188.5 50.5t-64.5 149.5q0 39 10 86l106 499h51l-107 -508q-9 -39 -9 -72q0 -160 205 -160q123 0 190.5 55.5t93.5 176.5l107 508h52l-107 -503q-31 -146 -111 -214t-228 -68z" />
    <glyph glyph-name="V" unicode="V" horiz-adv-x="683" 
d="M307 81l395 687h56l-447 -768h-58l-123 768h50l106 -687l3 -35z" />
    <glyph glyph-name="W" unicode="W" horiz-adv-x="1095" 
d="M765 83l356 685h49l-402 -768h-61l-73 726l-349 -726h-61l-94 768h46l81 -684l3 -48l20 47l327 685h68l66 -684l1 -48z" />
    <glyph glyph-name="X" unicode="X" horiz-adv-x="689" 
d="M684 768h63l-350 -372l204 -396h-54l-173 339l-10 22l-18 -22l-316 -339h-63l373 399l-190 369h55l158 -311l10 -24l20 23z" />
    <glyph glyph-name="Y" unicode="Y" horiz-adv-x="679" 
d="M703 768h60l-387 -437l-71 -331h-52l71 331l-201 437h51l172 -377l8 -23l17 23z" />
    <glyph glyph-name="Z" unicode="Z" horiz-adv-x="780" 
d="M228 768h555l-8 -35l-663 -691h524l-10 -42h-589l8 36l661 690h-487z" />
    <glyph glyph-name="bracketleft" unicode="[" horiz-adv-x="440" 
d="M270 -204h-236l214 1007h236l-10 -44h-186l-195 -919h186z" />
    <glyph glyph-name="backslash" unicode="\" horiz-adv-x="501" 
d="M377 0h-50l-155 768h50z" />
    <glyph glyph-name="bracketright" unicode="]" horiz-adv-x="440" 
d="M202 -204h-236l11 44h184l195 919h-185l10 44h235z" />
    <glyph glyph-name="asciicircum" unicode="^" horiz-adv-x="740" 
d="M341 768h55l225 -548h-54l-181 452q-6 13 -19 52q-13 -39 -19 -52l-181 -452h-49z" />
    <glyph glyph-name="underscore" unicode="_" horiz-adv-x="500" 
d="M413 -137h-500l9 44h500z" />
    <glyph glyph-name="grave" unicode="`" horiz-adv-x="500" 
d="M426 661h-41l-108 179h57z" />
    <glyph glyph-name="a" unicode="a" horiz-adv-x="646" 
d="M549 39h18l-9 -39h-27q-93 0 -81 98q-75 -112 -225 -112q-84 0 -128.5 37.5t-44.5 104.5q0 78 57 120t172 61l120 19q80 13 101 40l6 25q14 65 -22 96t-118 31t-129 -29t-68 -90l-45 5q48 156 247 156q189 0 189 -126q0 -14 -5 -44l-57 -267q-10 -47 1.5 -66.5
t47.5 -19.5zM461 173l30 145q-25 -16 -93 -27l-118 -20q-90 -15 -134 -47.5t-44 -91.5q0 -50 34.5 -78t102.5 -28q73 0 132 39t90 108z" />
    <glyph glyph-name="b" unicode="b" horiz-adv-x="700" 
d="M425 562q93 0 146.5 -56.5t53.5 -155.5q0 -30 -8 -80q-26 -130 -100 -206q-77 -78 -186 -78q-75 0 -124 36.5t-70 99.5l-29 -122h-45l163 768h50l-70 -327q85 121 219 121zM567 276q7 32 7 67q0 83 -43 130.5t-116 47.5q-74 0 -134 -45t-95 -130l-29 -135v-1
q0 -86 46 -134.5t124 -48.5q91 0 156 69q63 68 84 180z" />
    <glyph glyph-name="c" unicode="c" horiz-adv-x="639" 
d="M290 -14q-99 0 -156 59.5t-57 161.5q0 37 9 79q25 128 102.5 201.5t187.5 73.5q93 0 145.5 -45.5t57.5 -126.5l-49 -4q-11 133 -158 133q-90 0 -152.5 -62t-85.5 -176q-7 -32 -7 -70q0 -85 44.5 -132.5t121.5 -47.5q137 0 201 150l49 -4q-74 -190 -253 -190z" />
    <glyph glyph-name="d" unicode="d" horiz-adv-x="700" 
d="M562 428l73 340h50l-163 -768h-48l20 106q-87 -120 -215 -120q-95 0 -149.5 57t-54.5 154q0 34 9 83q25 128 102 205q76 76 182 76q152 0 194 -133zM290 27q71 0 129.5 44.5t93.5 126.5l30 132v7q0 86 -45 134.5t-125 48.5q-89 0 -153 -67q-65 -68 -86 -178
q-7 -41 -7 -72q0 -81 44 -128.5t119 -47.5z" />
    <glyph glyph-name="e" unicode="e" horiz-adv-x="671" 
d="M586 263h-455q-5 -37 -5 -55q0 -85 46.5 -132.5t127.5 -47.5q130 0 206 118l45 -8q-89 -152 -254 -152q-103 0 -162 60t-59 162q0 30 9 76q26 127 107 202q80 76 199 76q98 0 153 -55t55 -149q0 -44 -13 -95zM387 521q-90 0 -156 -58t-92 -160h406q5 33 5 53
q0 78 -42 121.5t-121 43.5z" />
    <glyph glyph-name="f" unicode="f" horiz-adv-x="475" 
d="M526 727h-104q-52 0 -81.5 -26t-42.5 -86l-19 -72l208 5l-10 -42l-204 5l-4 -35l-101 -476h-50l101 477l10 33l-142 -4l9 42l141 -4l11 69q18 84 58 119.5t113 35.5h116z" />
    <glyph glyph-name="g" unicode="g" horiz-adv-x="697" 
d="M562 433l28 115h44l-114 -536q-24 -114 -90 -170.5t-182 -56.5q-100 0 -155 40.5t-58 112.5l48 4q4 -57 47.5 -87.5t121.5 -30.5q93 0 146.5 47t74.5 145l22 105q-84 -111 -213 -111q-95 0 -148.5 56.5t-53.5 153.5q0 139 83 240t210 101q71 0 119 -34.5t70 -93.5z
M291 51q71 0 131 45.5t93 119.5l29 137q-2 77 -48.5 122t-117.5 45q-109 0 -178 -89t-69 -208q0 -80 42 -126t118 -46z" />
    <glyph glyph-name="h" unicode="h" horiz-adv-x="681" 
d="M416 560q79 0 123 -41.5t44 -114.5q0 -26 -6 -55l-75 -349h-50l74 347q6 27 6 50q0 57 -33 88.5t-93 31.5q-122 0 -211 -134l-82 -383h-50l164 768h50l-68 -317q88 109 207 109z" />
    <glyph glyph-name="i" unicode="i" horiz-adv-x="292" 
d="M264 686h-61l19 86h60zM112 0h-50l117 548h50z" />
    <glyph glyph-name="j" unicode="j" horiz-adv-x="292" 
d="M263 686h-60l18 86h61zM-46 -204h-50l9 42h37q41 0 63.5 20t32.5 65l133 625h50l-134 -630q-14 -64 -47.5 -93t-93.5 -29z" />
    <glyph glyph-name="k" unicode="k" horiz-adv-x="640" 
d="M561 548h70l-272 -204l175 -344h-54l-159 318l-166 -122l-42 -196h-50l164 768h50l-110 -517z" />
    <glyph glyph-name="l" unicode="l" horiz-adv-x="292" 
d="M113 0h-50l164 768h50z" />
    <glyph glyph-name="m" unicode="m" horiz-adv-x="1072" 
d="M809 560q77 0 120.5 -42t43.5 -114q0 -26 -6 -54l-74 -350h-50l74 347q5 25 5 50q0 57 -33 88.5t-93 31.5q-121 0 -214 -140q-2 -6 -2 -10l-78 -367h-50l77 361q4 17 4 40q0 52 -35 84t-92 32q-124 0 -212 -136l-81 -381h-50l116 548h46l-19 -100q88 112 214 112
q66 0 110.5 -35.5t52.5 -93.5q91 129 226 129z" />
    <glyph glyph-name="n" unicode="n" horiz-adv-x="681" 
d="M416 560q79 0 123 -41.5t44 -114.5q0 -25 -6 -55l-75 -349h-50l74 347q6 27 6 50q0 57 -33 88.5t-93 31.5q-124 0 -212 -136l-81 -381h-50l116 548h46l-19 -100q90 112 210 112z" />
    <glyph glyph-name="o" unicode="o" horiz-adv-x="695" 
d="M295 -14q-101 0 -160 59t-59 161q0 37 9 79q25 127 109 203q83 74 202 74q103 0 162.5 -59t59.5 -161q0 -38 -9 -81q-27 -129 -109.5 -202t-204.5 -73zM298 30q99 0 169 63.5t93 173.5q8 37 8 72q0 85 -46.5 132t-129.5 47q-98 0 -166.5 -64t-91.5 -176q-8 -40 -8 -69
q0 -83 46.5 -131t125.5 -48z" />
    <glyph glyph-name="p" unicode="p" horiz-adv-x="702" 
d="M421 562q95 0 149.5 -57t54.5 -154q4 -144 -80.5 -255t-211.5 -110q-152 0 -195 136l-69 -326h-50l160 752h47l-20 -107q85 121 215 121zM327 27q110 0 179 97q68 97 68 221q0 81 -44 128.5t-119 47.5q-72 0 -131 -46.5t-93 -124.5l-29 -130v-10q0 -85 45 -134t124 -49z
" />
    <glyph glyph-name="q" unicode="q" horiz-adv-x="702" 
d="M564 425l28 123h47l-160 -752h-50l66 309q-41 -56 -96 -87.5t-118 -31.5q-95 0 -149.5 57t-54.5 154q-4 143 80.5 254t211.5 110q155 0 195 -136zM292 27q72 0 131 47t93 127l28 132v4q0 86 -45 134.5t-124 48.5q-111 0 -178 -96q-69 -96 -69 -221q0 -81 44 -128.5
t120 -47.5z" />
    <glyph glyph-name="r" unicode="r" horiz-adv-x="470" 
d="M421 548h58l-10 -46h-50q-84 0 -140.5 -36.5t-92.5 -120.5l-73 -345h-50l116 548h46l-23 -121q70 121 219 121z" />
    <glyph glyph-name="s" unicode="s" horiz-adv-x="635" 
d="M272 -23q-101 0 -158 44.5t-57 123.5l49 4q0 -131 170 -131q91 0 143.5 35t52.5 101q0 40 -28.5 64t-92.5 35l-73 12q-150 25 -150 135q0 82 63.5 125t172.5 43q97 0 148.5 -39.5t53.5 -110.5l-47 -5q-2 55 -43.5 85t-116.5 30q-85 0 -133.5 -31.5t-48.5 -90.5
q0 -42 30 -65t94 -32l74 -12q76 -13 111.5 -46t35.5 -90q0 -89 -66 -136.5t-184 -47.5z" />
    <glyph glyph-name="t" unicode="t" horiz-adv-x="504" 
d="M273 511l-4 -35l-67 -313q-8 -40 -8 -53q0 -68 86 -68h99l-9 -42h-101q-125 0 -125 104q0 18 6 47l69 326l10 33l-142 -4l9 42l140 -4l3 28l28 130h50l-27 -128l-10 -31l207 5l-9 -42z" />
    <glyph glyph-name="u" unicode="u" horiz-adv-x="681" 
d="M488 167l81 381h50l-117 -548h-46l19 100q-90 -112 -210 -112q-78 0 -122 41.5t-44 114.5q0 25 6 55l74 349h50l-74 -347q-6 -27 -6 -50q0 -57 33.5 -88.5t92.5 -31.5q123 0 213 136z" />
    <glyph glyph-name="v" unicode="v" horiz-adv-x="604" 
d="M266 95l276 453h52l-337 -548h-55l-111 548h50l88 -452l8 -52z" />
    <glyph glyph-name="w" unicode="w" horiz-adv-x="865" 
d="M566 104l235 444h54l-298 -548h-54l-40 391l-5 98l-46 -98l-203 -391h-51l-67 548h47l49 -437l4 -60l26 56l227 441h49l43 -439l3 -60z" />
    <glyph glyph-name="x" unicode="x" horiz-adv-x="586" 
d="M520 548h63l-268 -266l160 -282h-54l-139 250l-245 -250h-62l287 286l-153 262h55l130 -229z" />
    <glyph glyph-name="y" unicode="y" horiz-adv-x="584" 
d="M224 41l296 507h55l-375 -630q-42 -71 -78 -97q-37 -25 -102 -25h-49l9 43h43q47 0 75 19q27 19 62 76l29 49l-98 565h50l82 -497z" />
    <glyph glyph-name="z" unicode="z" horiz-adv-x="628" 
d="M146 548h441l-8 -36l-470 -468h387l-9 -44h-457l7 34l473 470h-373z" />
    <glyph glyph-name="braceleft" unicode="{" horiz-adv-x="488" 
d="M317 -205h-110q-96 0 -96 75q0 16 9 59l44 205q9 43 9 59q0 84 -104 84l9 44q125 0 152 123l52 243q13 60 46 87.5t93 27.5h111l-10 -44h-99q-42 0 -64 -18t-31 -61l-50 -230q-27 -126 -140 -149v-2q82 -16 82 -104q0 -25 -9 -64l-42 -192q-7 -34 -7 -49q0 -50 66 -50h99
z" />
    <glyph glyph-name="bar" unicode="|" horiz-adv-x="536" 
d="M298 -204h-50v1007h50v-1007z" />
    <glyph glyph-name="braceright" unicode="}" horiz-adv-x="488" 
d="M77 -205h-111l11 44h99q42 0 64 18t31 61l49 230q28 127 140 149l1 2q-82 16 -82 104q0 25 9 64l41 192q8 37 8 49q0 50 -66 50h-99l9 44h111q95 0 95 -75q0 -15 -9 -59l-44 -205q-8 -42 -8 -59q0 -84 104 -84l-9 -44q-127 0 -152 -123l-52 -243q-13 -60 -46.5 -87.5
t-93.5 -27.5z" />
    <glyph glyph-name="asciitilde" unicode="~" horiz-adv-x="740" 
d="M156 276h-44q0 85 37 130.5t99 45.5q32 0 60.5 -13.5t49 -33t40.5 -39t44 -33t50 -13.5q42 0 66.5 34.5t24.5 97.5h45q0 -85 -37 -130.5t-99 -45.5q-32 0 -60.5 13.5t-49.5 33t-41 39t-44 33t-50 13.5q-43 0 -67 -34t-24 -98z" />
    <glyph glyph-name="uni00A0" unicode="&#xa0;" horiz-adv-x="338" 
 />
    <glyph glyph-name="exclamdown" unicode="&#xa1;" horiz-adv-x="342" 
d="M249 477h-70l15 71h70zM94 -204h-50l53 248l78 314h28l-56 -314z" />
    <glyph glyph-name="cent" unicode="&#xa2;" horiz-adv-x="639" 
d="M293 30q137 0 201 150l49 -4q-74 -189 -250 -190l-30 -142h-44l31 145q-81 12 -127 69.5t-46 148.5q0 37 9 79q25 126 101.5 200t184.5 75l31 147h44l-32 -149q75 -10 117.5 -54t46.5 -116l-49 -4q-11 133 -158 133q-90 0 -152.5 -62t-85.5 -176q-7 -32 -7 -70
q0 -85 44.5 -132.5t121.5 -47.5z" />
    <glyph glyph-name="sterling" unicode="&#xa3;" horiz-adv-x="707" 
d="M437 786q95 0 152 -43t57 -117q0 -22 -4 -39l-48 -4q3 17 3 33q0 59 -44.5 92.5t-117.5 33.5q-91 0 -145.5 -49t-54.5 -130q0 -53 26 -129l24 -70l232 5l-9 -42l-212 4q31 -105 31 -287h263l-9 -44h-571l10 44h263q0 194 -34 287l-169 -4l8 42l148 -4l-15 42
q-37 92 -37 156q0 101 70 162q68 61 183 61z" />
    <glyph glyph-name="currency" unicode="&#xa4;" horiz-adv-x="740" 
d="M618 385q0 -98 -58 -165l113 -109l-30 -30l-109 113q-67 -58 -165 -58q-97 0 -164 58l-108 -113l-30 30l113 109q-58 67 -58 165q0 95 57 163l-112 109l30 30l108 -113q67 58 164 58q98 0 165 -58l109 113l30 -30l-113 -109q58 -65 58 -163zM225 238q57 -58 145 -58
t145 58q57 57 57 146q0 88 -57 147q-57 57 -145 57t-145 -57q-57 -59 -57 -147q0 -89 57 -146z" />
    <glyph glyph-name="yen" unicode="&#xa5;" horiz-adv-x="776" 
d="M756 768h57l-349 -373h202l-10 -44h-510l10 44h208l-191 373h57l175 -351l8 -20l18 23zM341 178h-231l9 44h510l-9 -44h-227l-38 -178h-52z" />
    <glyph glyph-name="brokenbar" unicode="&#xa6;" horiz-adv-x="536" 
d="M298 447h-50v356h50v-356zM298 -204h-50v356h50v-356z" />
    <glyph glyph-name="section" unicode="&#xa7;" horiz-adv-x="709" 
d="M387 502l86 -24q142 -40 142 -150q0 -59 -40 -103.5t-111 -64.5q35 -38 35 -96q0 -80 -60 -129q-61 -48 -158 -48q-87 0 -136 37.5t-49 105.5l48 3q0 -50 36.5 -76t103.5 -26q77 0 121.5 35.5t44.5 96.5q0 83 -101 109l-86 24q-142 40 -142 149q0 60 40.5 105t110.5 64
q-35 38 -35 96q0 80 61 129q60 48 157 48q87 0 136 -37.5t49 -105.5l-48 -3q0 49 -37 75.5t-103 26.5q-77 0 -121.5 -35.5t-44.5 -96.5q0 -83 101 -109zM426 190q66 12 104.5 47.5t38.5 85.5q0 83 -111 113l-92 25q-29 8 -57 23q-64 -11 -103 -47t-39 -86q0 -83 111 -113
l92 -25q31 -8 56 -23z" />
    <glyph glyph-name="dieresis" unicode="&#xa8;" horiz-adv-x="500" 
d="M263 686h-60l18 86h60zM474 686h-61l19 86h60z" />
    <glyph glyph-name="copyright" unicode="&#xa9;" horiz-adv-x="1035" 
d="M832 97q-116 -114 -291 -114q-176 0 -290 114q-115 112 -115 288t115 288q115 113 290 113t291 -113q114 -113 114 -288t-114 -288zM541 21q159 0 261 103q101 103 101 261q0 157 -102 261q-102 102 -260 102t-260 -102q-102 -104 -102 -261q0 -159 102 -261
q102 -103 260 -103zM540 187q-78 0 -123.5 53t-45.5 146t45.5 146t124.5 53q66 0 105.5 -31t49.5 -86l-39 -5q-19 84 -116 84q-61 0 -95 -41.5t-34 -119.5q0 -77 34 -119t94 -42q103 0 120 98l39 -5q-10 -63 -51 -97t-108 -34z" />
    <glyph glyph-name="ordfeminine" unicode="&#xaa;" horiz-adv-x="612" 
d="M416 776q78 0 116.5 -26.5t38.5 -72.5q0 -22 -8 -62l-54 -253h-39l10 77q-69 -77 -181 -77q-64 0 -99 29.5t-35 76.5q0 56 42.5 90.5t115.5 39.5l192 13l2 10q7 31 7 52q0 64 -111 64q-113 0 -150 -72l-44 13q54 98 197 98zM312 403q62 0 111.5 29.5t68.5 74.5l15 69
l-173 -13q-57 -4 -88 -27t-31 -62q0 -34 25 -52.5t72 -18.5z" />
    <glyph glyph-name="guillemotleft" unicode="&#xab;" horiz-adv-x="819" 
d="M346 50l-11 -55l-220 251l12 56l326 251l-14 -66l-284 -219zM650 50l-11 -55l-220 251l12 56l326 251l-14 -66l-284 -219z" />
    <glyph glyph-name="logicalnot" unicode="&#xac;" horiz-adv-x="740" 
d="M612 197h-44v217h-441v44h485v-261z" />
    <glyph glyph-name="uni00AD" unicode="&#xad;" horiz-adv-x="410" 
d="M349 271h-289l9 42h289z" />
    <glyph glyph-name="registered" unicode="&#xae;" horiz-adv-x="704" 
d="M235 709q71 69 174 69t174 -69q70 -69 70 -168t-70 -168q-71 -69 -174 -69t-174 69t-71 168t71 168zM256 393q61 -61 153 -61t153 61q61 60 61 148t-61 149q-62 60 -153 60t-153 -60q-62 -62 -62 -149q0 -88 62 -148zM507 487l3 -44q2 -21 11 -34h-28q-9 10 -10 34l-3 38
q-3 46 -61 46h-77v-118h-27v269h110q42 0 65 -18t23 -51q0 -53 -57 -67v-5q25 -3 37 -14.5t14 -35.5zM342 653v-102h77q66 0 66 53q0 49 -60 49h-83z" />
    <glyph glyph-name="overscore" unicode="&#xaf;" horiz-adv-x="500" 
d="M505 687h-335l10 41h334z" />
    <glyph glyph-name="degree" unicode="&#xb0;" horiz-adv-x="546" 
d="M475 466q-53 -53 -133 -53q-79 0 -132 53t-53 132q0 80 53 133q52 52 132 52q81 0 133 -52t52 -133q0 -80 -52 -132zM237 493q41 -41 105 -41t105 41q40 40 40 105t-40 105q-41 41 -105 41t-105 -41t-41 -105t41 -105z" />
    <glyph glyph-name="plusminus" unicode="&#xb1;" horiz-adv-x="740" 
d="M392 595v-183h252v-44h-252v-182h-44v182h-253v44h253v183h44zM634 45h-529v50h529v-50z" />
    <glyph glyph-name="two.sups" unicode="&#xb2;" horiz-adv-x="490" 
d="M454 372h-365q11 74 53 117.5t132 76.5l90 33q110 41 110 115q0 40 -32 62t-89 22q-125 0 -157 -110l-38 10q18 64 69.5 100t130.5 36q73 0 115.5 -31t42.5 -86q0 -99 -145 -153l-85 -32q-70 -27 -103 -55t-43 -68h322z" />
    <glyph glyph-name="three.sups" unicode="&#xb3;" horiz-adv-x="487" 
d="M282 362q-79 0 -124.5 37.5t-47.5 101.5l40 6q2 -51 37 -80t95 -29q67 0 110.5 31.5t43.5 80.5q0 80 -120 80h-34l8 36h32q66 0 105.5 25t39.5 69q0 38 -32.5 58.5t-87.5 20.5q-120 0 -151 -91l-40 6q18 55 69.5 87.5t125.5 32.5q70 0 113.5 -29t43.5 -79
q0 -44 -30.5 -75.5t-80.5 -39.5l-1 -1q82 -21 82 -97q0 -67 -55 -109t-141 -42z" />
    <glyph glyph-name="acute" unicode="&#xb4;" horiz-adv-x="500" 
d="M291 661h-46l150 179h63z" />
    <glyph glyph-name="uni00B5" unicode="&#xb5;" horiz-adv-x="797" 
d="M229 -204h-50v752h50v-358q0 -75 40 -117t112 -42q123 0 188 129v388h50v-548h-46l-2 106q-70 -118 -192 -118q-111 0 -157 79l-2 -1l9 -155v-115z" />
    <glyph glyph-name="paragraph" unicode="&#xb6;" horiz-adv-x="681" 
d="M259 -105h-44l109 507q-89 0 -135 36t-46 103q0 106 70 167q71 60 186 60h252l-186 -873h-45l177 829h-161z" />
    <glyph glyph-name="middot" unicode="&#xb7;" horiz-adv-x="328" 
d="M223 345h-87l17 80h87z" />
    <glyph glyph-name="cedilla" unicode="&#xb8;" horiz-adv-x="500" 
d="M104 -253h-80l7 37h73q105 0 105 63q0 43 -54 43h-101l7 34h106q87 0 87 -73q0 -49 -41 -76.5t-109 -27.5z" />
    <glyph glyph-name="one.sups" unicode="&#xb9;" horiz-adv-x="378" 
d="M280 372h-42l64 302h-156l8 38h105q27 0 41 9.5t19 33.5l15 70h42z" />
    <glyph glyph-name="ordmasculine" unicode="&#xba;" horiz-adv-x="578" 
d="M330 364q-83 0 -133.5 50t-50.5 129q0 98 65 165q65 65 162 65q84 0 134 -49t50 -130q0 -100 -64 -164q-65 -66 -163 -66zM334 405q79 0 126.5 51t47.5 138q0 66 -37 102.5t-102 36.5q-78 0 -126 -53t-48 -137q0 -66 36.5 -102t102.5 -36z" />
    <glyph glyph-name="guillemotright" unicode="&#xbb;" horiz-adv-x="819" 
d="M389 246l-327 -251l14 66l284 219l-191 218l11 55l221 -251zM692 246l-326 -251l14 66l284 219l-191 218l11 55l220 -251z" />
    <glyph glyph-name="onequarter" unicode="&#xbc;" horiz-adv-x="1226" 
d="M349 346h-41l63 302h-156l9 38h105q27 0 40.5 9.5t19.5 33.5l15 70h41zM306 -15h-51l648 798h49zM963 0h-42l27 123l-281 -3l9 39l338 294h45l-63 -300l69 4l-8 -37l-68 3zM1006 406l-284 -250l232 -3l54 252z" />
    <glyph glyph-name="onehalf" unicode="&#xbd;" horiz-adv-x="1300" 
d="M349 346h-41l63 302h-156l9 38h105q27 0 40.5 9.5t19.5 33.5l15 70h41zM306 -15h-51l648 798h49zM1106 0h-365q11 74 53.5 117.5t131.5 76.5l90 33q111 41 111 115q0 40 -32 62t-89 22q-127 0 -157 -110l-39 10q18 64 70 100t131 36q72 0 114.5 -31.5t42.5 -85.5
q0 -101 -144 -153l-85 -32q-69 -27 -102.5 -55t-44.5 -68h322z" />
    <glyph glyph-name="threequarters" unicode="&#xbe;" horiz-adv-x="1308" 
d="M336 336q-79 0 -124.5 37t-48.5 102l41 6q1 -51 36 -80t96 -29q67 0 110.5 31.5t43.5 80.5q0 80 -120 80h-34l8 36h32q66 0 105.5 25t39.5 69q0 38 -32.5 58.5t-87.5 20.5q-120 0 -151 -91l-40 6q18 55 69.5 87.5t125.5 32.5q70 0 113 -29t43 -79q0 -44 -30.5 -76
t-79.5 -39l-1 -1q81 -21 81 -97q0 -67 -54 -109q-55 -42 -141 -42zM404 -15h-52l648 798h50zM1060 0h-41l26 123l-280 -3l9 39l337 294h46l-64 -300l70 4l-8 -37l-68 3zM1104 406l-284 -250l232 -3l53 252z" />
    <glyph glyph-name="questiondown" unicode="&#xbf;" horiz-adv-x="724" 
d="M459 477h-70l15 71h70zM288 -222q-115 0 -181.5 48.5t-66.5 134.5q0 125 165 205l50 25q57 28 79 60q22 31 36 91l6 27h51l-8 -34q-15 -69 -48 -111q-33 -43 -116 -81q-88 -41 -125.5 -82t-37.5 -96q0 -68 51.5 -105t144.5 -37q198 0 246 180l49 -6q-55 -219 -295 -219z
" />
    <glyph glyph-name="Agrave" unicode="&#xc0;" horiz-adv-x="737" 
d="M422 1060l92 -179h-41l-108 179h57zM649 0h-51l-42 227h-396l-137 -227h-56l468 768h69zM450 706l-263 -435h361l-80 435l-3 27z" />
    <glyph glyph-name="Aacute" unicode="&#xc1;" horiz-adv-x="737" 
d="M587 1060h63l-167 -179h-46zM-33 0l468 768h69l145 -768h-51l-42 227h-396l-137 -227h-56zM450 706l-263 -435h361l-80 435l-3 27z" />
    <glyph glyph-name="Acircumflex" unicode="&#xc2;" horiz-adv-x="737" 
d="M613 869l-91 151l-156 -151h-54l187 184h50l111 -184h-47zM-33 0l468 768h69l145 -768h-51l-42 227h-396l-137 -227h-56zM450 706l-263 -435h361l-80 435l-3 27z" />
    <glyph glyph-name="Atilde" unicode="&#xc3;" horiz-adv-x="737" 
d="M690 1040h43q-41 -168 -148 -168q-33 0 -55.5 18t-31.5 45q-24 62 -71 62q-65 0 -99 -125h-43q41 168 149 168q33 0 55.5 -18t32.5 -44q22 -63 70 -63q33 0 56.5 29.5t41.5 95.5zM-33 0l468 768h69l145 -768h-51l-42 227h-396l-137 -227h-56zM450 706l-263 -435h361
l-80 435l-3 27z" />
    <glyph glyph-name="Adieresis" unicode="&#xc4;" horiz-adv-x="737" 
d="M372 969h65l-19 -87h-65zM588 969h65l-19 -87h-65zM-33 0l468 768h69l145 -768h-51l-42 227h-396l-137 -227h-56zM450 706l-263 -435h361l-80 435l-3 27z" />
    <glyph glyph-name="Aring" unicode="&#xc5;" horiz-adv-x="737" 
d="M649 0h-51l-42 227h-396l-137 -227h-56l453 744q-37 14 -59 47.5t-22 75.5q0 57 38.5 94.5t96.5 37.5t95.5 -37.5t37.5 -94.5q0 -48 -26.5 -83t-70.5 -46zM403 938q-28 -27 -28 -71t28 -71t71 -27t70 27t27 71t-27 71t-70 27q-42 0 -71 -27zM450 706l-263 -435h361
l-80 435l-3 27z" />
    <glyph glyph-name="AE" unicode="&#xc6;" horiz-adv-x="1231" 
d="M1253 768l-9 -42h-446l-65 -305h396l-10 -42h-395l-72 -337h462l-10 -42h-511l48 227h-419l-199 -227h-56l676 768h610zM660 726l-399 -455h390l97 455h-88z" />
    <glyph glyph-name="Ccedilla" unicode="&#xc7;" horiz-adv-x="860" 
d="M411 -17q-138 0 -216 80t-78 221q0 59 14 126q38 179 150 278q111 99 270 99q127 0 203.5 -62.5t86.5 -175.5l-49 -5q-7 93 -71.5 145.5t-172.5 52.5q-142 0 -239.5 -89.5t-130.5 -255.5q-12 -55 -12 -112q0 -123 65 -189.5t183 -66.5q107 0 191 55t128 155l47 -7
q-47 -116 -146 -182q-98 -67 -223 -67zM336 -258h-80l7 37h73q105 0 105 63q0 43 -54 43h-101l7 34h106q87 0 87 -73q0 -49 -41 -76.5t-109 -27.5z" />
    <glyph glyph-name="Egrave" unicode="&#xc8;" horiz-adv-x="716" 
d="M431 1060l92 -179h-41l-108 179h57zM738 768l-9 -42h-446l-65 -305h396l-10 -42h-395l-72 -337h462l-10 -42h-511l164 768h496z" />
    <glyph glyph-name="Eacute" unicode="&#xc9;" horiz-adv-x="716" 
d="M596 1060h63l-167 -179h-46zM738 768l-9 -42h-446l-65 -305h396l-10 -42h-395l-72 -337h462l-10 -42h-511l164 768h496z" />
    <glyph glyph-name="Ecircumflex" unicode="&#xca;" horiz-adv-x="716" 
d="M622 869l-91 151l-156 -151h-54l187 184h50l111 -184h-47zM738 768l-9 -42h-446l-65 -305h396l-10 -42h-395l-72 -337h462l-10 -42h-511l164 768h496z" />
    <glyph glyph-name="Edieresis" unicode="&#xcb;" horiz-adv-x="716" 
d="M380 969h65l-19 -87h-65zM596 969h65l-19 -87h-65zM738 768l-9 -42h-446l-65 -305h396l-10 -42h-395l-72 -337h462l-10 -42h-511l164 768h496z" />
    <glyph glyph-name="Igrave" unicode="&#xcc;" horiz-adv-x="324" 
d="M313 881h-41l-108 179h57zM129 0h-51l164 768h51z" />
    <glyph glyph-name="Iacute" unicode="&#xcd;" horiz-adv-x="324" 
d="M282 881h-46l150 179h63zM129 0h-51l164 768h51z" />
    <glyph glyph-name="Icircumflex" unicode="&#xce;" horiz-adv-x="324" 
d="M165 869h-54l187 184h50l111 -184h-47l-91 151zM129 0h-51l164 768h51z" />
    <glyph glyph-name="Idieresis" unicode="&#xcf;" horiz-adv-x="324" 
d="M217 882h-66l19 87h65zM432 882h-65l19 87h65zM129 0h-51l164 768h51z" />
    <glyph glyph-name="Eth" unicode="&#xd0;" horiz-adv-x="927" 
d="M332 768h206q333 0 333 -271q0 -49 -13 -117q-40 -195 -149 -287.5t-296 -92.5h-245l78 367l-189 -5l10 44l187 -5zM808 386q13 56 13 112q0 119 -71 173.5t-214 54.5h-162l-69 -325l226 5l-9 -44l-225 5l-69 -325h185q163 0 260 82t135 262z" />
    <glyph glyph-name="Ntilde" unicode="&#xd1;" horiz-adv-x="875" 
d="M487 976q-65 0 -99 -125h-43q41 168 149 168q33 0 55.5 -18t32.5 -44q22 -63 70 -63q33 0 56.5 29.5t41.5 95.5h43q-41 -168 -148 -168q-33 0 -55.5 18t-31.5 45q-24 62 -71 62zM646 65l150 703h48l-164 -768h-53l-351 704l-150 -704h-48l164 768h53z" />
    <glyph glyph-name="Ograve" unicode="&#xd2;" horiz-adv-x="920" 
d="M601 888h-41l-108 179h57zM415 -16q-139 0 -218 81q-80 82 -80 222q0 52 12 112q38 183 149 285q110 103 274 103q140 0 219 -81q79 -82 79 -223q0 -54 -11 -112q-37 -181 -148 -284q-112 -103 -276 -103zM419 26q143 0 241 95q97 94 130 259q11 61 11 103
q0 123 -66.5 192t-186.5 69q-145 0 -240 -94t-130 -260q-11 -61 -11 -103q0 -123 66.5 -192t185.5 -69z" />
    <glyph glyph-name="Oacute" unicode="&#xd3;" horiz-adv-x="920" 
d="M570 888h-46l150 179h63zM415 -16q-139 0 -218 81q-80 82 -80 222q0 52 12 112q38 183 149 285q110 103 274 103q140 0 219 -81q79 -82 79 -223q0 -54 -11 -112q-37 -181 -148 -284q-112 -103 -276 -103zM419 26q143 0 241 95q97 94 130 259q11 61 11 103
q0 123 -66.5 192t-186.5 69q-145 0 -240 -94t-130 -260q-11 -61 -11 -103q0 -123 66.5 -192t185.5 -69z" />
    <glyph glyph-name="Ocircumflex" unicode="&#xd4;" horiz-adv-x="920" 
d="M453 876h-54l187 184h50l111 -184h-47l-91 151zM415 -16q-139 0 -218 81q-80 82 -80 222q0 52 12 112q38 183 149 285q110 103 274 103q140 0 219 -81q79 -82 79 -223q0 -54 -11 -112q-37 -181 -148 -284q-112 -103 -276 -103zM419 26q143 0 241 95q97 94 130 259
q11 61 11 103q0 123 -66.5 192t-186.5 69q-145 0 -240 -94t-130 -260q-11 -61 -11 -103q0 -123 66.5 -192t185.5 -69z" />
    <glyph glyph-name="Otilde" unicode="&#xd5;" horiz-adv-x="920" 
d="M415 879h-43q40 168 149 168q33 0 55.5 -18t32.5 -44q22 -63 70 -63q33 0 56.5 29.5t41.5 95.5h43q-40 -168 -148 -168q-33 0 -55.5 18t-31.5 45q-24 62 -71 62q-65 0 -99 -125zM415 -16q-139 0 -218 81q-80 82 -80 222q0 52 12 112q38 183 149 285q110 103 274 103
q140 0 219 -81q79 -82 79 -223q0 -54 -11 -112q-37 -181 -148 -284q-112 -103 -276 -103zM419 26q143 0 241 95q97 94 130 259q11 61 11 103q0 123 -66.5 192t-186.5 69q-145 0 -240 -94t-130 -260q-11 -61 -11 -103q0 -123 66.5 -192t185.5 -69z" />
    <glyph glyph-name="Odieresis" unicode="&#xd6;" horiz-adv-x="920" 
d="M504 889h-65l19 87h65zM720 889h-65l19 87h65zM415 -16q-139 0 -218 81q-80 82 -80 222q0 52 12 112q38 183 149 285q110 103 274 103q140 0 219 -81q79 -82 79 -223q0 -54 -11 -112q-37 -181 -148 -284q-112 -103 -276 -103zM419 26q143 0 241 95q97 94 130 259
q11 61 11 103q0 123 -66.5 192t-186.5 69q-145 0 -240 -94t-130 -260q-11 -61 -11 -103q0 -123 66.5 -192t185.5 -69z" />
    <glyph glyph-name="multiply" unicode="&#xd7;" horiz-adv-x="740" 
d="M370 310l-216 -215l-29 29l215 216l-215 215l29 29l216 -215l215 215l30 -28l-216 -216l216 -216l-30 -29z" />
    <glyph glyph-name="Oslash" unicode="&#xd8;" horiz-adv-x="920" 
d="M870 786l26 -27l-95 -91q49 -74 49 -185q0 -54 -11 -112q-37 -181 -148 -284q-112 -103 -276 -103q-149 0 -229 92l-97 -93l-26 27l101 97q-47 74 -47 180q0 52 12 112q38 183 149 285q110 103 274 103q146 0 226 -89zM167 287q0 -87 33 -145l544 522q-68 80 -196 80
q-145 0 -240 -94t-130 -260q-11 -61 -11 -103zM801 483q0 90 -36 150l-544 -523q67 -84 198 -84q143 0 241 95q97 94 130 259q11 61 11 103z" />
    <glyph glyph-name="Ugrave" unicode="&#xd9;" horiz-adv-x="855" 
d="M572 881h-41l-108 179h57zM378 -17q-124 0 -188.5 50.5t-64.5 149.5q0 39 10 86l106 499h51l-107 -508q-9 -39 -9 -72q0 -160 205 -160q123 0 190.5 55.5t93.5 176.5l107 508h52l-107 -503q-31 -146 -111 -214t-228 -68z" />
    <glyph glyph-name="Uacute" unicode="&#xda;" horiz-adv-x="855" 
d="M541 881h-46l150 179h63zM378 -17q-124 0 -188.5 50.5t-64.5 149.5q0 39 10 86l106 499h51l-107 -508q-9 -39 -9 -72q0 -160 205 -160q123 0 190.5 55.5t93.5 176.5l107 508h52l-107 -503q-31 -146 -111 -214t-228 -68z" />
    <glyph glyph-name="Ucircumflex" unicode="&#xdb;" horiz-adv-x="855" 
d="M424 869h-54l187 184h50l111 -184h-47l-91 151zM378 -17q-124 0 -188.5 50.5t-64.5 149.5q0 39 10 86l106 499h51l-107 -508q-9 -39 -9 -72q0 -160 205 -160q123 0 190.5 55.5t93.5 176.5l107 508h52l-107 -503q-31 -146 -111 -214t-228 -68z" />
    <glyph glyph-name="Udieresis" unicode="&#xdc;" horiz-adv-x="855" 
d="M475 882h-65l19 87h65zM691 882h-65l19 87h65zM378 -17q-124 0 -188.5 50.5t-64.5 149.5q0 39 10 86l106 499h51l-107 -508q-9 -39 -9 -72q0 -160 205 -160q123 0 190.5 55.5t93.5 176.5l107 508h52l-107 -503q-31 -146 -111 -214t-228 -68z" />
    <glyph glyph-name="Yacute" unicode="&#xdd;" horiz-adv-x="679" 
d="M560 1055h63l-167 -179h-46zM703 768h60l-387 -437l-71 -331h-52l71 331l-201 437h51l172 -377l8 -23l17 23z" />
    <glyph glyph-name="Thorn" unicode="&#xde;" horiz-adv-x="739" 
d="M263 626h216q106 0 158.5 -44t52.5 -126q0 -122 -75 -192q-75 -72 -201 -72h-244l-41 -192h-51l164 768h51zM179 234h236q103 0 163 60t60 161q0 129 -162 129h-222z" />
    <glyph glyph-name="germandbls" unicode="&#xdf;" horiz-adv-x="714" 
d="M475 417q70 -11 108 -54.5t38 -112.5q0 -109 -82 -179q-83 -71 -209 -71h-74l9 44h71q107 0 171 58q64 57 64 148q0 71 -44.5 108t-128.5 37h-54l10 44h51q91 0 148 43.5t57 115.5q0 63 -45.5 97t-129.5 34q-87 0 -136 -41.5t-67 -126.5l-119 -561h-50l119 561
q22 107 84.5 159.5t172.5 52.5q106 0 163 -45.5t57 -124.5q0 -74 -50 -123.5t-134 -62.5z" />
    <glyph glyph-name="agrave" unicode="&#xe0;" horiz-adv-x="646" 
d="M329 854l92 -179h-41l-108 179h57zM549 39h18l-9 -39h-27q-93 0 -81 98q-75 -112 -225 -112q-84 0 -128.5 37.5t-44.5 104.5q0 78 57 120t172 61l120 19q80 13 101 40l6 25q14 65 -22 96t-118 31t-129 -29t-68 -90l-45 5q48 156 247 156q189 0 189 -126q0 -14 -5 -44
l-57 -267q-10 -47 1.5 -66.5t47.5 -19.5zM461 173l30 145q-25 -16 -93 -27l-118 -20q-90 -15 -134 -47.5t-44 -91.5q0 -50 34.5 -78t102.5 -28q73 0 132 39t90 108z" />
    <glyph glyph-name="aacute" unicode="&#xe1;" horiz-adv-x="646" 
d="M494 854h63l-167 -179h-46zM549 39h18l-9 -39h-27q-93 0 -81 98q-75 -112 -225 -112q-84 0 -128.5 37.5t-44.5 104.5q0 78 57 120t172 61l120 19q80 13 101 40l6 25q14 65 -22 96t-118 31t-129 -29t-68 -90l-45 5q48 156 247 156q189 0 189 -126q0 -14 -5 -44l-57 -267
q-10 -47 1.5 -66.5t47.5 -19.5zM461 173l30 145q-25 -16 -93 -27l-118 -20q-90 -15 -134 -47.5t-44 -91.5q0 -50 34.5 -78t102.5 -28q73 0 132 39t90 108z" />
    <glyph glyph-name="acircumflex" unicode="&#xe2;" horiz-adv-x="646" 
d="M521 663l-92 151l-155 -151h-55l187 184h50l111 -184h-46zM557 392l-57 -267q-10 -47 1.5 -66.5t47.5 -19.5h18l-9 -39h-27q-93 0 -81 98q-75 -112 -225 -112q-84 0 -128.5 37.5t-44.5 104.5q0 78 57 120t172 61l120 19q80 13 101 40l6 25q14 65 -22 96t-118 31t-129 -29
t-68 -90l-45 5q48 156 247 156q189 0 189 -126q0 -14 -5 -44zM461 173l30 145q-25 -16 -93 -27l-118 -20q-90 -15 -134 -47.5t-44 -91.5q0 -50 34.5 -78t102.5 -28q73 0 132 39t90 108z" />
    <glyph glyph-name="atilde" unicode="&#xe3;" horiz-adv-x="646" 
d="M597 834h43q-40 -168 -148 -168q-33 0 -55.5 18t-31.5 45q-24 62 -71 62q-65 0 -99 -125h-43q40 168 149 168q33 0 55.5 -18t32.5 -44q22 -63 70 -63q33 0 56.5 29.5t41.5 95.5zM557 392l-57 -267q-10 -47 1.5 -66.5t47.5 -19.5h18l-9 -39h-27q-93 0 -81 98
q-75 -112 -225 -112q-84 0 -128.5 37.5t-44.5 104.5q0 78 57 120t172 61l120 19q80 13 101 40l6 25q14 65 -22 96t-118 31t-129 -29t-68 -90l-45 5q48 156 247 156q189 0 189 -126q0 -14 -5 -44zM461 173l30 145q-25 -16 -93 -27l-118 -20q-90 -15 -134 -47.5t-44 -91.5
q0 -50 34.5 -78t102.5 -28q73 0 132 39t90 108z" />
    <glyph glyph-name="adieresis" unicode="&#xe4;" horiz-adv-x="646" 
d="M288 786h61l-19 -86h-60zM499 786h61l-19 -86h-60zM549 39h18l-9 -39h-27q-93 0 -81 98q-75 -112 -225 -112q-84 0 -128.5 37.5t-44.5 104.5q0 78 57 120t172 61l120 19q80 13 101 40l6 25q14 65 -22 96t-118 31t-129 -29t-68 -90l-45 5q48 156 247 156q189 0 189 -126
q0 -14 -5 -44l-57 -267q-10 -47 1.5 -66.5t47.5 -19.5zM461 173l30 145q-25 -16 -93 -27l-118 -20q-90 -15 -134 -47.5t-44 -91.5q0 -50 34.5 -78t102.5 -28q73 0 132 39t90 108z" />
    <glyph glyph-name="aring" unicode="&#xe5;" horiz-adv-x="646" 
d="M517 679q-38 -38 -96 -38t-96 38t-38 95t38 94.5t96 37.5t96 -37.5t38 -94.5t-38 -95zM492 845q-29 27 -71 27q-43 0 -70 -27q-28 -27 -28 -71t28 -71q27 -27 70 -27q42 0 71 27q27 27 27 71t-27 71zM549 39h18l-9 -39h-27q-93 0 -81 98q-75 -112 -225 -112
q-84 0 -128.5 37.5t-44.5 104.5q0 78 57 120t172 61l120 19q80 13 101 40l6 25q14 65 -22 96t-118 31t-129 -29t-68 -90l-45 5q48 156 247 156q189 0 189 -126q0 -14 -5 -44l-57 -267q-10 -47 1.5 -66.5t47.5 -19.5zM461 173l30 145q-25 -16 -93 -27l-118 -20
q-90 -15 -134 -47.5t-44 -91.5q0 -50 34.5 -78t102.5 -28q73 0 132 39t90 108z" />
    <glyph glyph-name="ae" unicode="&#xe6;" horiz-adv-x="1070" 
d="M984 264l-453 7q-8 -45 -8 -72q0 -83 44.5 -127t123.5 -44q133 0 211 118l43 -7q-45 -73 -114 -113t-151 -40q-87 0 -138 46t-59 129q-43 -86 -114 -130.5t-157 -44.5q-77 0 -120 33t-43 92q0 89 66 137.5t179 50.5l202 2l15 71q4 17 4 38q0 54 -39 82t-112 28
q-80 0 -125 -27.5t-68 -90.5l-46 5q56 155 249 155q85 0 130 -35.5t45 -100.5v-5q90 140 252 140q95 0 146 -52.5t51 -143.5q0 -48 -14 -101zM790 521q-90 0 -158.5 -59.5t-94.5 -160.5l407 2q6 41 6 58q0 76 -41 118t-119 42zM224 27q86 0 153.5 50t102.5 148l9 46
l-217 -13q-79 -4 -125.5 -40.5t-46.5 -98.5q0 -43 32.5 -67.5t91.5 -24.5z" />
    <glyph glyph-name="ccedilla" unicode="&#xe7;" horiz-adv-x="639" 
d="M290 -14q-99 0 -156 59.5t-57 161.5q0 37 9 79q25 128 102.5 201.5t187.5 73.5q93 0 145.5 -45.5t57.5 -126.5l-49 -4q-11 133 -158 133q-90 0 -152.5 -62t-85.5 -176q-7 -32 -7 -70q0 -85 44.5 -132.5t121.5 -47.5q137 0 201 150l49 -4q-74 -190 -253 -190zM205 -257
h-80l7 37h73q105 0 105 63q0 43 -54 43h-101l7 34h106q87 0 87 -73q0 -49 -41 -76.5t-109 -27.5z" />
    <glyph glyph-name="egrave" unicode="&#xe8;" horiz-adv-x="671" 
d="M347 840l92 -179h-41l-108 179h57zM586 263h-455q-5 -37 -5 -55q0 -85 46.5 -132.5t127.5 -47.5q130 0 206 118l45 -8q-89 -152 -254 -152q-103 0 -162 60t-59 162q0 30 9 76q26 127 107 202q80 76 199 76q98 0 153 -55t55 -149q0 -44 -13 -95zM387 521q-90 0 -156 -58
t-92 -160h406q5 33 5 53q0 78 -42 121.5t-121 43.5z" />
    <glyph glyph-name="eacute" unicode="&#xe9;" horiz-adv-x="671" 
d="M512 840h63l-167 -179h-46zM586 263h-455q-5 -37 -5 -55q0 -85 46.5 -132.5t127.5 -47.5q130 0 206 118l45 -8q-89 -152 -254 -152q-103 0 -162 60t-59 162q0 30 9 76q26 127 107 202q80 76 199 76q98 0 153 -55t55 -149q0 -44 -13 -95zM387 521q-90 0 -156 -58t-92 -160
h406q5 33 5 53q0 78 -42 121.5t-121 43.5z" />
    <glyph glyph-name="ecircumflex" unicode="&#xea;" horiz-adv-x="671" 
d="M539 649l-92 151l-155 -151h-55l187 184h50l111 -184h-46zM586 263h-455q-5 -37 -5 -55q0 -85 46.5 -132.5t127.5 -47.5q130 0 206 118l45 -8q-89 -152 -254 -152q-103 0 -162 60t-59 162q0 30 9 76q26 127 107 202q80 76 199 76q98 0 153 -55t55 -149q0 -44 -13 -95z
M387 521q-90 0 -156 -58t-92 -160h406q5 33 5 53q0 78 -42 121.5t-121 43.5z" />
    <glyph glyph-name="edieresis" unicode="&#xeb;" horiz-adv-x="671" 
d="M306 772h61l-19 -86h-60zM517 772h61l-19 -86h-60zM586 263h-455q-5 -37 -5 -55q0 -85 46.5 -132.5t127.5 -47.5q130 0 206 118l45 -8q-89 -152 -254 -152q-103 0 -162 60t-59 162q0 30 9 76q26 127 107 202q80 76 199 76q98 0 153 -55t55 -149q0 -44 -13 -95zM387 521
q-90 0 -156 -58t-92 -160h406q5 33 5 53q0 78 -42 121.5t-121 43.5z" />
    <glyph glyph-name="igrave" unicode="&#xec;" horiz-adv-x="292" 
d="M249 661h-41l-108 179h57zM112 0h-50l117 548h50z" />
    <glyph glyph-name="iacute" unicode="&#xed;" horiz-adv-x="292" 
d="M218 661h-46l150 179h63zM112 0h-50l117 548h50z" />
    <glyph glyph-name="icircumflex" unicode="&#xee;" horiz-adv-x="292" 
d="M102 649h-55l187 184h50l111 -184h-46l-92 151zM112 0h-50l117 548h50z" />
    <glyph glyph-name="idieresis" unicode="&#xef;" horiz-adv-x="292" 
d="M156 686h-60l18 86h60zM372 686h-61l18 86h61zM113 0h-50l116 548h50z" />
    <glyph glyph-name="eth" unicode="&#xf0;" horiz-adv-x="677" 
d="M634 831l-177 -131q148 -138 148 -316q0 -110 -37 -199t-110 -144q-73 -57 -172 -57q-95 0 -154 59t-59 147q0 134 87 231q87 96 215 96q138 0 185 -119q-3 156 -138 276l-102 -84l-16 24l101 75q-37 31 -93 66l25 34q54 -32 102 -74l176 144zM291 28q95 0 161.5 64.5
t92.5 185.5l6 29q-10 81 -56 123.5t-122 42.5q-107 0 -178 -83t-71 -195q0 -76 44 -121.5t123 -45.5z" />
    <glyph glyph-name="ntilde" unicode="&#xf1;" horiz-adv-x="681" 
d="M624 832h43q-41 -168 -148 -168q-33 0 -55.5 18t-31.5 45q-24 62 -71 62q-65 0 -99 -125h-43q41 168 149 168q33 0 55.5 -18t32.5 -44q22 -63 70 -63q33 0 56.5 29.5t41.5 95.5zM416 560q79 0 123 -41.5t44 -114.5q0 -25 -6 -55l-75 -349h-50l74 347q6 27 6 50
q0 57 -33 88.5t-93 31.5q-124 0 -212 -136l-81 -381h-50l116 548h46l-19 -100q90 112 210 112z" />
    <glyph glyph-name="ograve" unicode="&#xf2;" horiz-adv-x="695" 
d="M450 661h-41l-108 179h57zM295 -14q-101 0 -160 59t-59 161q0 37 9 79q25 127 109 203q83 74 202 74q103 0 162.5 -59t59.5 -161q0 -38 -9 -81q-27 -129 -109.5 -202t-204.5 -73zM298 30q99 0 169 63.5t93 173.5q8 37 8 72q0 85 -46.5 132t-129.5 47q-98 0 -166.5 -64
t-91.5 -176q-8 -40 -8 -69q0 -83 46.5 -131t125.5 -48z" />
    <glyph glyph-name="oacute" unicode="&#xf3;" horiz-adv-x="695" 
d="M419 661h-46l150 179h63zM295 -14q-101 0 -160 59t-59 161q0 37 9 79q25 127 109 203q83 74 202 74q103 0 162.5 -59t59.5 -161q0 -38 -9 -81q-27 -129 -109.5 -202t-204.5 -73zM298 30q99 0 169 63.5t93 173.5q8 37 8 72q0 85 -46.5 132t-129.5 47q-98 0 -166.5 -64
t-91.5 -176q-8 -40 -8 -69q0 -83 46.5 -131t125.5 -48z" />
    <glyph glyph-name="ocircumflex" unicode="&#xf4;" horiz-adv-x="695" 
d="M303 649h-55l187 184h50l111 -184h-46l-92 151zM295 -14q-101 0 -160 59t-59 161q0 37 9 79q25 127 109 203q83 74 202 74q103 0 162.5 -59t59.5 -161q0 -38 -9 -81q-27 -129 -109.5 -202t-204.5 -73zM298 30q99 0 169 63.5t93 173.5q8 37 8 72q0 85 -46.5 132t-129.5 47
q-98 0 -166.5 -64t-91.5 -176q-8 -40 -8 -69q0 -83 46.5 -131t125.5 -48z" />
    <glyph glyph-name="otilde" unicode="&#xf5;" horiz-adv-x="695" 
d="M264 652h-43q41 168 149 168q33 0 55.5 -18t32.5 -44q22 -63 70 -63q33 0 56.5 29.5t41.5 95.5h43q-41 -168 -148 -168q-33 0 -55.5 18t-31.5 45q-24 62 -71 62q-65 0 -99 -125zM295 -14q-101 0 -160 59t-59 161q0 37 9 79q25 127 109 203q83 74 202 74q103 0 162.5 -59
t59.5 -161q0 -38 -9 -81q-27 -129 -109.5 -202t-204.5 -73zM298 30q99 0 169 63.5t93 173.5q8 37 8 72q0 85 -46.5 132t-129.5 47q-98 0 -166.5 -64t-91.5 -176q-8 -40 -8 -69q0 -83 46.5 -131t125.5 -48z" />
    <glyph glyph-name="odieresis" unicode="&#xf6;" horiz-adv-x="695" 
d="M359 686h-60l18 86h61zM570 686h-60l18 86h61zM295 -14q-101 0 -160 59t-59 161q0 37 9 79q25 127 109 203q83 74 202 74q103 0 162.5 -59t59.5 -161q0 -38 -9 -81q-27 -129 -109.5 -202t-204.5 -73zM298 30q99 0 169 63.5t93 173.5q8 37 8 72q0 85 -46.5 132t-129.5 47
q-98 0 -166.5 -64t-91.5 -176q-8 -40 -8 -69q0 -83 46.5 -131t125.5 -48z" />
    <glyph glyph-name="divide" unicode="&#xf7;" horiz-adv-x="740" 
d="M411 498h-82v76h82v-76zM654 314h-569v50h569v-50zM411 105h-82v75h82v-75z" />
    <glyph glyph-name="oslash" unicode="&#xf8;" horiz-adv-x="695" 
d="M638 567l24 -23l-77 -74q33 -52 33 -128q0 -38 -9 -81q-27 -129 -109.5 -202t-204.5 -73q-99 0 -157 57l-67 -64l-25 23l70 66q-40 55 -40 138q0 37 9 79q25 127 109 203q83 74 202 74q109 0 169 -65zM126 209q0 -63 27 -105l376 359q-46 55 -137 55q-98 0 -166.5 -64
t-91.5 -176q-8 -40 -8 -69zM568 339q0 56 -21 95l-373 -357q45 -47 124 -47q99 0 169 63.5t93 173.5q8 37 8 72z" />
    <glyph glyph-name="ugrave" unicode="&#xf9;" horiz-adv-x="681" 
d="M342 840l92 -179h-41l-108 179h57zM488 167l81 381h50l-117 -548h-46l19 100q-90 -112 -210 -112q-78 0 -122 41.5t-44 114.5q0 25 6 55l74 349h50l-74 -347q-6 -27 -6 -50q0 -57 33.5 -88.5t92.5 -31.5q123 0 213 136z" />
    <glyph glyph-name="uacute" unicode="&#xfa;" horiz-adv-x="681" 
d="M507 840h63l-167 -179h-46zM488 167l81 381h50l-117 -548h-46l19 100q-90 -112 -210 -112q-78 0 -122 41.5t-44 114.5q0 25 6 55l74 349h50l-74 -347q-6 -27 -6 -50q0 -57 33.5 -88.5t92.5 -31.5q123 0 213 136z" />
    <glyph glyph-name="ucircumflex" unicode="&#xfb;" horiz-adv-x="681" 
d="M534 649l-92 151l-155 -151h-55l187 184h50l111 -184h-46zM488 167l81 381h50l-117 -548h-46l19 100q-90 -112 -210 -112q-78 0 -122 41.5t-44 114.5q0 25 6 55l74 349h50l-74 -347q-6 -27 -6 -50q0 -57 33.5 -88.5t92.5 -31.5q123 0 213 136z" />
    <glyph glyph-name="udieresis" unicode="&#xfc;" horiz-adv-x="681" 
d="M301 772h61l-19 -86h-60zM512 772h61l-19 -86h-60zM488 167l81 381h50l-117 -548h-46l19 100q-90 -112 -210 -112q-78 0 -122 41.5t-44 114.5q0 25 6 55l74 349h50l-74 -347q-6 -27 -6 -50q0 -57 33.5 -88.5t92.5 -31.5q123 0 213 136z" />
    <glyph glyph-name="yacute" unicode="&#xfd;" horiz-adv-x="584" 
d="M450 840h63l-167 -179h-46zM224 41l296 507h55l-375 -630q-42 -71 -78 -97q-37 -25 -102 -25h-49l9 43h43q47 0 75 19q27 19 62 76l29 49l-98 565h50l82 -497z" />
    <glyph glyph-name="thorn" unicode="&#xfe;" horiz-adv-x="703" 
d="M422 562q95 0 149.5 -57t54.5 -154q4 -144 -80.5 -255t-211.5 -110q-152 0 -195 136l-69 -326h-50l206 972h50l-68 -325q86 119 214 119zM328 27q110 0 179 97q68 97 68 221q0 81 -44 128.5t-119 47.5q-72 0 -131 -46.5t-93 -124.5l-29 -130v-10q0 -85 45 -134t124 -49z
" />
    <glyph glyph-name="ydieresis" unicode="&#xff;" horiz-adv-x="584" 
d="M244 772h61l-19 -86h-60zM455 772h61l-19 -86h-60zM224 41l296 507h55l-375 -630q-42 -71 -78 -97q-37 -25 -102 -25h-49l9 43h43q47 0 75 19q27 19 62 76l29 49l-98 565h50l82 -497z" />
    <glyph glyph-name="Amacron" unicode="&#x100;" horiz-adv-x="737" 
d="M331 907l10 41h334l-9 -41h-335zM-33 0l468 768h69l145 -768h-51l-42 227h-396l-137 -227h-56zM450 706l-263 -435h361l-80 435l-3 27z" />
    <glyph glyph-name="amacron" unicode="&#x101;" horiz-adv-x="646" 
d="M238 701l9 41h335l-9 -41h-335zM557 392l-57 -267q-10 -47 1.5 -66.5t47.5 -19.5h18l-9 -39h-27q-93 0 -81 98q-75 -112 -225 -112q-84 0 -128.5 37.5t-44.5 104.5q0 78 57 120t172 61l120 19q80 13 101 40l6 25q14 65 -22 96t-118 31t-129 -29t-68 -90l-45 5
q48 156 247 156q189 0 189 -126q0 -14 -5 -44zM461 173l30 145q-25 -16 -93 -27l-118 -20q-90 -15 -134 -47.5t-44 -91.5q0 -50 34.5 -78t102.5 -28q73 0 132 39t90 108z" />
    <glyph glyph-name="Abreve" unicode="&#x102;" horiz-adv-x="737" 
d="M659 1021h40q-19 -72 -67.5 -109t-134.5 -37q-76 0 -115 29t-39 83q0 16 3 34h37q-2 -18 -2 -25q0 -83 117 -83q134 0 161 108zM-33 0l468 768h69l145 -768h-51l-42 227h-396l-137 -227h-56zM450 706l-263 -435h361l-80 435l-3 27z" />
    <glyph glyph-name="abreve" unicode="&#x103;" horiz-adv-x="646" 
d="M404 669q-76 0 -115 29t-39 83q0 16 3 34h37q-3 -12 -3 -25q0 -83 118 -83q134 0 161 108h39q-38 -146 -201 -146zM557 392l-57 -267q-10 -47 1.5 -66.5t47.5 -19.5h18l-9 -39h-27q-93 0 -81 98q-75 -112 -225 -112q-84 0 -128.5 37.5t-44.5 104.5q0 78 57 120t172 61
l120 19q80 13 101 40l6 25q14 65 -22 96t-118 31t-129 -29t-68 -90l-45 5q48 156 247 156q189 0 189 -126q0 -14 -5 -44zM461 173l30 145q-25 -16 -93 -27l-118 -20q-90 -15 -134 -47.5t-44 -91.5q0 -50 34.5 -78t102.5 -28q73 0 132 39t90 108z" />
    <glyph glyph-name="Aogonek" unicode="&#x104;" horiz-adv-x="737" 
d="M475 -137q0 -24 18 -38t51 -14h38l-8 -37h-45q-48 0 -75 22.5t-27 59.5q0 71 88 111l82 40l-41 220h-396l-137 -227h-56l468 768h69l145 -768l-98 -51q-76 -35 -76 -86zM450 706l-263 -435h361l-80 435l-3 27z" />
    <glyph glyph-name="aogonek" unicode="&#x105;" horiz-adv-x="646" 
d="M558 0l-98 -51q-75 -34 -75 -86t68 -52h39l-8 -37h-45q-49 0 -76 22.5t-27 59.5q0 70 89 111l74 37q-59 17 -49 94q-75 -112 -225 -112q-84 0 -128.5 37.5t-44.5 104.5q0 78 57.5 120.5t171.5 60.5l120 19q80 13 101 40l6 25q14 65 -22 96t-118 31t-129 -29t-68 -90
l-45 5q48 156 247 156q189 0 189 -126q0 -14 -5 -44l-57 -267q-10 -47 1.5 -66.5t47.5 -19.5h18zM461 173l30 145q-25 -16 -93 -27l-118 -20q-90 -15 -134 -47.5t-44 -91.5q0 -50 34.5 -78t102.5 -28q73 0 132 39t90 108z" />
    <glyph glyph-name="Cacute" unicode="&#x106;" horiz-adv-x="860" 
d="M555 881h-46l150 179h63zM411 -17q-138 0 -216 80t-78 221q0 59 14 126q38 179 150 278q111 99 270 99q127 0 203.5 -62.5t86.5 -175.5l-49 -5q-7 93 -71.5 145.5t-172.5 52.5q-142 0 -239.5 -89.5t-130.5 -255.5q-12 -55 -12 -112q0 -123 65 -189.5t183 -66.5
q107 0 191 55t128 155l47 -7q-47 -116 -146 -182q-98 -67 -223 -67z" />
    <glyph glyph-name="cacute" unicode="&#x107;" horiz-adv-x="639" 
d="M396 661h-46l150 179h63zM290 -14q-99 0 -156 59.5t-57 161.5q0 37 9 79q25 128 102.5 201.5t187.5 73.5q93 0 145.5 -45.5t57.5 -126.5l-49 -4q-11 133 -158 133q-90 0 -152.5 -62t-85.5 -176q-7 -32 -7 -70q0 -85 44.5 -132.5t121.5 -47.5q137 0 201 150l49 -4
q-74 -190 -253 -190z" />
    <glyph glyph-name="Ccircumflex" unicode="&#x108;" horiz-adv-x="860" 
d="M439 869h-55l187 184h50l111 -184h-46l-92 151zM411 -17q-138 0 -216 80t-78 221q0 59 14 126q38 179 150 278q111 99 270 99q127 0 203.5 -62.5t86.5 -175.5l-49 -5q-7 93 -71.5 145.5t-172.5 52.5q-142 0 -239.5 -89.5t-130.5 -255.5q-12 -55 -12 -112
q0 -123 65 -189.5t183 -66.5q107 0 191 55t128 155l47 -7q-47 -116 -146 -182q-98 -67 -223 -67z" />
    <glyph glyph-name="ccircumflex" unicode="&#x109;" horiz-adv-x="639" 
d="M280 649h-55l187 184h50l111 -184h-46l-92 151zM290 -14q-99 0 -156 59.5t-57 161.5q0 37 9 79q25 128 102.5 201.5t187.5 73.5q93 0 145.5 -45.5t57.5 -126.5l-49 -4q-11 133 -158 133q-90 0 -152.5 -62t-85.5 -176q-7 -32 -7 -70q0 -85 44.5 -132.5t121.5 -47.5
q137 0 201 150l49 -4q-74 -190 -253 -190z" />
    <glyph glyph-name="Cdotaccent" unicode="&#x10a;" horiz-adv-x="860" 
d="M601 906h-61l19 86h60zM411 -17q-138 0 -216 80t-78 221q0 59 14 126q38 179 150 278q111 99 270 99q127 0 203.5 -62.5t86.5 -175.5l-49 -5q-7 93 -71.5 145.5t-172.5 52.5q-142 0 -239.5 -89.5t-130.5 -255.5q-12 -55 -12 -112q0 -123 65 -189.5t183 -66.5
q107 0 191 55t128 155l47 -7q-47 -116 -146 -182q-98 -67 -223 -67z" />
    <glyph glyph-name="cdotaccent" unicode="&#x10b;" horiz-adv-x="639" 
d="M442 686h-61l19 86h60zM290 -14q-99 0 -156 59.5t-57 161.5q0 37 9 79q25 128 102.5 201.5t187.5 73.5q93 0 145.5 -45.5t57.5 -126.5l-49 -4q-11 133 -158 133q-90 0 -152.5 -62t-85.5 -176q-7 -32 -7 -70q0 -85 44.5 -132.5t121.5 -47.5q137 0 201 150l49 -4
q-74 -190 -253 -190z" />
    <glyph glyph-name="Ccaron" unicode="&#x10c;" horiz-adv-x="860" 
d="M577 861h-50l-107 184h47l91 -150l156 150h54zM411 -17q-138 0 -216 80t-78 221q0 59 14 126q38 179 150 278q111 99 270 99q127 0 203.5 -62.5t86.5 -175.5l-49 -5q-7 93 -71.5 145.5t-172.5 52.5q-142 0 -239.5 -89.5t-130.5 -255.5q-12 -55 -12 -112q0 -123 65 -189.5
t183 -66.5q107 0 191 55t128 155l47 -7q-47 -116 -146 -182q-98 -67 -223 -67z" />
    <glyph glyph-name="ccaron" unicode="&#x10d;" horiz-adv-x="639" 
d="M418 641h-50l-106 184h46l91 -150l156 150h54zM290 -14q-99 0 -156 59.5t-57 161.5q0 37 9 79q25 128 102.5 201.5t187.5 73.5q93 0 145.5 -45.5t57.5 -126.5l-49 -4q-11 133 -158 133q-90 0 -152.5 -62t-85.5 -176q-7 -32 -7 -70q0 -85 44.5 -132.5t121.5 -47.5
q137 0 201 150l49 -4q-74 -190 -253 -190z" />
    <glyph glyph-name="Dcaron" unicode="&#x10e;" horiz-adv-x="837" 
d="M714 1045l-191 -184h-50l-107 184h47l91 -150l156 150h54zM242 768h207q332 0 332 -271q0 -49 -13 -117q-40 -195 -148 -287.5t-297 -92.5h-245zM718 386q13 56 13 112q0 119 -71 173.5t-214 54.5h-162l-146 -684h186q162 0 259 82t135 262z" />
    <glyph glyph-name="dcaron" unicode="&#x10f;" horiz-adv-x="832" 
d="M562 428l73 340h50l-163 -768h-48l20 106q-87 -120 -215 -120q-95 0 -149.5 57t-54.5 154q0 34 9 83q25 128 102 205q76 76 182 76q152 0 194 -133zM739 490l139 278h59l-159 -278h-39zM290 27q71 0 129.5 44.5t93.5 126.5l30 132v7q0 86 -45 134.5t-125 48.5
q-89 0 -153 -67q-65 -68 -86 -178q-7 -41 -7 -72q0 -81 44 -128.5t119 -47.5z" />
    <glyph glyph-name="Dcroat" unicode="&#x110;" horiz-adv-x="927" 
d="M332 768h206q333 0 333 -271q0 -49 -13 -117q-40 -195 -149 -287.5t-296 -92.5h-245l78 367l-189 -5l10 44l187 -5zM808 386q13 56 13 112q0 119 -71 173.5t-214 54.5h-162l-69 -325l226 5l-9 -44l-225 5l-69 -325h185q163 0 260 82t135 262z" />
    <glyph glyph-name="dslash" unicode="&#x111;" horiz-adv-x="810" 
d="M666 681l135 3l-9 -41l-133 4l-137 -647h-48l20 106q-87 -120 -215 -120q-95 0 -149.5 57t-54.5 154q0 34 9 83q25 128 102 205q76 76 182 76q152 0 194 -133l47 220h-196l9 41l194 -8l21 97h50zM290 27q71 0 129.5 44.5t93.5 126.5l30 132v7q0 86 -45 134.5t-125 48.5
q-89 0 -153 -67q-65 -68 -86 -178q-7 -41 -7 -72q0 -81 44 -128.5t119 -47.5z" />
    <glyph glyph-name="Emacron" unicode="&#x112;" horiz-adv-x="716" 
d="M350 948h334l-9 -41h-335zM738 768l-9 -42h-446l-65 -305h396l-10 -42h-395l-72 -337h462l-10 -42h-511l164 768h496z" />
    <glyph glyph-name="emacron" unicode="&#x113;" horiz-adv-x="671" 
d="M265 728h335l-9 -41h-335zM391 562q98 0 153 -55t55 -149q0 -44 -13 -95h-455q-5 -37 -5 -55q0 -85 46.5 -132.5t127.5 -47.5q130 0 206 118l45 -8q-89 -152 -254 -152q-103 0 -162 60t-59 162q0 30 9 76q26 127 107 202q80 76 199 76zM139 303h406q5 33 5 53
q0 78 -42 121.5t-121 43.5q-90 0 -156 -58t-92 -160z" />
    <glyph glyph-name="Ebreve" unicode="&#x114;" horiz-adv-x="716" 
d="M506 875q-76 0 -115 29t-39 83q0 16 3 34h37q-2 -18 -2 -25q0 -83 117 -83q134 0 161 108h40q-19 -72 -67.5 -109t-134.5 -37zM738 768l-9 -42h-446l-65 -305h396l-10 -42h-395l-72 -337h462l-10 -42h-511l164 768h496z" />
    <glyph glyph-name="ebreve" unicode="&#x115;" horiz-adv-x="671" 
d="M422 655q-76 0 -115 29t-39 83q0 16 3 34h37q-3 -12 -3 -25q0 -83 118 -83q134 0 161 108h39q-38 -146 -201 -146zM391 562q98 0 153 -55t55 -149q0 -44 -13 -95h-455q-5 -37 -5 -55q0 -85 46.5 -132.5t127.5 -47.5q130 0 206 118l45 -8q-89 -152 -254 -152
q-103 0 -162 60t-59 162q0 30 9 76q26 127 107 202q80 76 199 76zM139 303h406q5 33 5 53q0 78 -42 121.5t-121 43.5q-90 0 -156 -58t-92 -160z" />
    <glyph glyph-name="Edotaccent" unicode="&#x116;" horiz-adv-x="716" 
d="M496 992h60l-18 -86h-61zM738 768l-9 -42h-446l-65 -305h396l-10 -42h-395l-72 -337h462l-10 -42h-511l164 768h496z" />
    <glyph glyph-name="edotaccent" unicode="&#x117;" horiz-adv-x="671" 
d="M412 772h60l-18 -86h-61zM586 263h-455q-5 -37 -5 -55q0 -85 46.5 -132.5t127.5 -47.5q130 0 206 118l45 -8q-89 -152 -254 -152q-103 0 -162 60t-59 162q0 30 9 76q26 127 107 202q80 76 199 76q98 0 153 -55t55 -149q0 -44 -13 -95zM387 521q-90 0 -156 -58t-92 -160
h406q5 33 5 53q0 78 -42 121.5t-121 43.5z" />
    <glyph glyph-name="Eogonek" unicode="&#x118;" horiz-adv-x="716" 
d="M738 768l-9 -42h-446l-65 -305h396l-10 -42h-395l-72 -337h462l-10 -42l-98 -51q-76 -35 -76 -86q0 -24 18 -38t51 -14h38l-8 -37h-45q-48 0 -75 22.5t-27 59.5q0 71 88 111l67 33h-444l164 768h496z" />
    <glyph glyph-name="eogonek" unicode="&#x119;" horiz-adv-x="671" 
d="M586 263h-455q-5 -37 -5 -55q0 -85 46.5 -132.5t127.5 -47.5q130 0 206 118l45 -8q-49 -88 -132 -126l-98 -51q-76 -35 -76 -86q0 -24 18 -38t51 -14h38l-8 -37h-45q-48 0 -75 22.5t-27 59.5q0 71 88 111l14 7h-2q-103 0 -162 60t-59 162q0 30 9 76q26 127 107 202
q80 76 199 76q98 0 153 -55t55 -149q0 -44 -13 -95zM387 521q-90 0 -156 -58t-92 -160h406q5 33 5 53q0 78 -42 121.5t-121 43.5z" />
    <glyph glyph-name="Ecaron" unicode="&#x11a;" horiz-adv-x="716" 
d="M705 1045l-191 -184h-50l-107 184h47l91 -150l156 150h54zM738 768l-9 -42h-446l-65 -305h396l-10 -42h-395l-72 -337h462l-10 -42h-511l164 768h496z" />
    <glyph glyph-name="ecaron" unicode="&#x11b;" horiz-adv-x="671" 
d="M621 825l-191 -184h-50l-106 184h46l91 -150l156 150h54zM391 562q98 0 153 -55t55 -149q0 -44 -13 -95h-455q-5 -37 -5 -55q0 -85 46.5 -132.5t127.5 -47.5q130 0 206 118l45 -8q-89 -152 -254 -152q-103 0 -162 60t-59 162q0 30 9 76q26 127 107 202q80 76 199 76z
M139 303h406q5 33 5 53q0 78 -42 121.5t-121 43.5q-90 0 -156 -58t-92 -160z" />
    <glyph glyph-name="Gcircumflex" unicode="&#x11c;" horiz-adv-x="903" 
d="M683 869l-92 151l-155 -151h-55l187 184h50l111 -184h-46zM731 333h-256l9 42h305l-79 -375h-41l24 144q-103 -160 -296 -160q-133 0 -206 82q-74 82 -74 219q0 57 12 116q39 182 147.5 283.5t269.5 101.5q117 0 188.5 -58t87.5 -166l-50 -5q-31 187 -231 187
q-134 0 -231 -91q-96 -90 -131 -256q-12 -57 -12 -112q0 -121 62.5 -190t172.5 -69q107 0 186.5 56t123.5 162z" />
    <glyph glyph-name="gcircumflex" unicode="&#x11d;" horiz-adv-x="697" 
d="M556 649l-92 151l-155 -151h-55l187 184h50l111 -184h-46zM562 433l28 115h44l-114 -536q-24 -114 -90 -170.5t-182 -56.5q-100 0 -155 40.5t-58 112.5l48 4q4 -57 47.5 -87.5t121.5 -30.5q93 0 146.5 47t74.5 145l22 105q-84 -111 -213 -111q-95 0 -148.5 56.5
t-53.5 153.5q0 139 83 240t210 101q71 0 119 -34.5t70 -93.5zM291 51q71 0 131 45.5t93 119.5l29 137q-2 77 -48.5 122t-117.5 45q-109 0 -178 -89t-69 -208q0 -80 42 -126t118 -46z" />
    <glyph glyph-name="Gbreve" unicode="&#x11e;" horiz-adv-x="903" 
d="M566 875q-76 0 -115 29t-39 83q0 16 3 34h37q-2 -18 -2 -25q0 -83 117 -83q134 0 161 108h40q-19 -72 -67.5 -109t-134.5 -37zM731 333h-256l9 42h305l-79 -375h-41l24 144q-103 -160 -296 -160q-133 0 -206 82q-74 82 -74 219q0 57 12 116q39 182 147.5 283.5
t269.5 101.5q117 0 188.5 -58t87.5 -166l-50 -5q-31 187 -231 187q-134 0 -231 -91q-96 -90 -131 -256q-12 -57 -12 -112q0 -121 62.5 -190t172.5 -69q107 0 186.5 56t123.5 162z" />
    <glyph glyph-name="gbreve" unicode="&#x11f;" horiz-adv-x="697" 
d="M440 655q-76 0 -115 29t-39 83q0 16 3 34h37q-3 -12 -3 -25q0 -83 118 -83q134 0 161 108h39q-38 -146 -201 -146zM562 433l28 115h44l-114 -536q-24 -114 -90 -170.5t-182 -56.5q-100 0 -155 40.5t-58 112.5l48 4q4 -57 47.5 -87.5t121.5 -30.5q93 0 146.5 47t74.5 145
l22 105q-84 -111 -213 -111q-95 0 -148.5 56.5t-53.5 153.5q0 139 83 240t210 101q71 0 119 -34.5t70 -93.5zM291 51q71 0 131 45.5t93 119.5l29 137q-2 77 -48.5 122t-117.5 45q-109 0 -178 -89t-69 -208q0 -80 42 -126t118 -46z" />
    <glyph glyph-name="Gdotaccent" unicode="&#x120;" horiz-adv-x="903" 
d="M556 992h60l-18 -86h-61zM731 333h-256l9 42h305l-79 -375h-41l24 144q-103 -160 -296 -160q-133 0 -206 82q-74 82 -74 219q0 57 12 116q39 182 147.5 283.5t269.5 101.5q117 0 188.5 -58t87.5 -166l-50 -5q-31 187 -231 187q-134 0 -231 -91q-96 -90 -131 -256
q-12 -57 -12 -112q0 -121 62.5 -190t172.5 -69q107 0 186.5 56t123.5 162z" />
    <glyph glyph-name="gdotaccent" unicode="&#x121;" horiz-adv-x="697" 
d="M429 772h60l-18 -86h-61zM562 433l28 115h44l-114 -536q-24 -114 -90 -170.5t-182 -56.5q-100 0 -155 40.5t-58 112.5l48 4q4 -57 47.5 -87.5t121.5 -30.5q93 0 146.5 47t74.5 145l22 105q-84 -111 -213 -111q-95 0 -148.5 56.5t-53.5 153.5q0 139 83 240t210 101
q71 0 119 -34.5t70 -93.5zM291 51q71 0 131 45.5t93 119.5l29 137q-2 77 -48.5 122t-117.5 45q-109 0 -178 -89t-69 -208q0 -80 42 -126t118 -46z" />
    <glyph glyph-name="uni0122" unicode="&#x122;" horiz-adv-x="903" 
d="M731 333h-256l9 42h305l-79 -375h-41l24 144q-103 -160 -296 -160q-133 0 -206 82q-74 82 -74 219q0 57 12 116q39 182 147.5 283.5t269.5 101.5q117 0 188.5 -58t87.5 -166l-50 -5q-31 187 -231 187q-134 0 -231 -91q-96 -90 -131 -256q-12 -57 -12 -112
q0 -121 62.5 -190t172.5 -69q107 0 186.5 56t123.5 162zM373 -146l-62 -15l13 62h88l-24 -112q-11 -56 -74 -56h-25l5 27h24q20 0 28.5 5.5t12.5 20.5z" />
    <glyph glyph-name="uni0123" unicode="&#x123;" horiz-adv-x="697" 
d="M436 733l62 15l-13 -62h-88l21 97q14 56 74 56h25l-5 -28h-24q-20 0 -28.5 -5.5t-12.5 -20.5zM562 433l28 115h44l-114 -536q-24 -114 -90 -170.5t-182 -56.5q-100 0 -155 40.5t-58 112.5l48 4q4 -57 47.5 -87.5t121.5 -30.5q93 0 146.5 47t74.5 145l22 105
q-84 -111 -213 -111q-95 0 -148.5 56.5t-53.5 153.5q0 139 83 240t210 101q71 0 119 -34.5t70 -93.5zM291 51q71 0 131 45.5t93 119.5l29 137q-2 77 -48.5 122t-117.5 45q-109 0 -178 -89t-69 -208q0 -80 42 -126t118 -46z" />
    <glyph glyph-name="Hcircumflex" unicode="&#x124;" horiz-adv-x="875" 
d="M689 869l-92 151l-155 -151h-55l187 184h50l111 -184h-46zM719 423l74 345h52l-164 -768h-52l81 378h-500l-81 -378h-51l164 768h51l-74 -345h500z" />
    <glyph glyph-name="hcircumflex" unicode="&#x125;" horiz-adv-x="681" 
d="M397 869l-92 151l-155 -151h-55l187 184h50l111 -184h-46zM416 560q79 0 123 -41.5t44 -114.5q0 -26 -6 -55l-75 -349h-50l74 347q6 27 6 50q0 57 -33 88.5t-93 31.5q-122 0 -211 -134l-82 -383h-50l164 768h50l-68 -317q88 109 207 109z" />
    <glyph glyph-name="Hbar" unicode="&#x126;" horiz-adv-x="876" 
d="M759 602l35 166h51l-164 -768h-51l76 354h-501l-76 -354h-51l164 768h51l-35 -166h501zM248 558l-34 -159h501l34 159h-501z" />
    <glyph glyph-name="hbar" unicode="&#x127;" horiz-adv-x="723" 
d="M455 542q78 0 122 -41.5t44 -114.5q0 -26 -6 -54l-71 -332h-50l71 329q6 27 6 50q0 58 -33.5 89.5t-93.5 31.5q-121 0 -213 -140l-77 -360h-50l136 637l-146 -3l8 40l145 -3l23 107h50l-23 -107l191 8l-8 -40l-190 -1l-44 -206q89 110 209 110z" />
    <glyph glyph-name="Itilde" unicode="&#x128;" horiz-adv-x="324" 
d="M127 872h-43q40 168 149 168q33 0 55.5 -18t32.5 -44q22 -63 70 -63q33 0 56.5 29.5t41.5 95.5h43q-40 -168 -148 -168q-33 0 -55.5 18t-31.5 45q-24 62 -71 62q-65 0 -99 -125zM129 0h-51l164 768h51z" />
    <glyph glyph-name="itilde" unicode="&#x129;" horiz-adv-x="292" 
d="M63 652h-43q40 168 149 168q33 0 55.5 -18t32.5 -44q22 -63 70 -63q33 0 56.5 29.5t41.5 95.5h43q-40 -168 -148 -168q-33 0 -55.5 18t-31.5 45q-24 62 -71 62q-65 0 -99 -125zM112 0h-50l117 548h50z" />
    <glyph glyph-name="Imacron" unicode="&#x12a;" horiz-adv-x="324" 
d="M465 907h-335l10 41h334zM129 0h-51l164 768h51z" />
    <glyph glyph-name="imacron" unicode="&#x12b;" horiz-adv-x="292" 
d="M402 687h-335l9 41h335zM112 0h-50l117 548h50z" />
    <glyph glyph-name="Ibreve" unicode="&#x12c;" horiz-adv-x="324" 
d="M296 875q-76 0 -115 29t-39 83q0 16 3 34h37q-2 -18 -2 -25q0 -83 117 -83q134 0 161 108h40q-19 -72 -67.5 -109t-134.5 -37zM129 0h-51l164 768h51z" />
    <glyph glyph-name="ibreve" unicode="&#x12d;" horiz-adv-x="292" 
d="M232 655q-76 0 -115 29t-39 83q0 16 3 34h37q-2 -22 -2 -25q0 -83 117 -83q134 0 161 108h40q-38 -146 -202 -146zM112 0h-50l117 548h50z" />
    <glyph glyph-name="Iogonek" unicode="&#x12e;" horiz-adv-x="324" 
d="M129 0l-97 -76q-42 -34 -42 -65q0 -21 17 -34.5t46 -13.5h28l-8 -37h-34q-45 0 -71.5 21t-26.5 57q0 50 57 91l80 59l164 766h51z" />
    <glyph glyph-name="iogonek" unicode="&#x12f;" horiz-adv-x="292" 
d="M203 686l19 86h60l-18 -86h-61zM-19 -57l82 60l116 545h50l-117 -548l-97 -76q-42 -34 -42 -65q0 -21 17 -34.5t46 -13.5h28l-8 -37h-34q-44 0 -71 22t-27 56q0 50 57 91z" />
    <glyph glyph-name="Idot" unicode="&#x130;" horiz-adv-x="324" 
d="M324 882h-65l19 87h66zM129 0h-51l164 768h51z" />
    <glyph glyph-name="dotlessi" unicode="&#x131;" horiz-adv-x="292" 
d="M112 0h-50l117 548h50z" />
    <glyph glyph-name="IJ" unicode="&#x132;" horiz-adv-x="977" 
d="M129 0h-51l164 768h51zM558 -12q-96 0 -151 46.5t-55 129.5q0 38 12 81h50q-11 -46 -11 -79q0 -67 41 -101.5t117 -34.5q177 0 218 192l116 546h51l-116 -548q-24 -112 -93 -172t-179 -60z" />
    <glyph glyph-name="ij" unicode="&#x133;" horiz-adv-x="583" 
d="M264 686h-61l19 86h60zM555 686h-60l18 86h61zM112 0h-50l117 548h50zM246 -204h-50l9 42h37q41 0 63.5 20t32.5 65l133 625h50l-134 -630q-14 -64 -47.5 -93t-93.5 -29z" />
    <glyph glyph-name="Jcircumflex" unicode="&#x134;" horiz-adv-x="673" 
d="M515 869h-55l187 184h50l111 -184h-46l-92 151zM254 -12q-96 0 -151 46.5t-55 129.5q0 38 12 81h50q-11 -46 -11 -79q0 -67 41 -101.5t117 -34.5q177 0 218 192l116 546h51l-116 -548q-24 -112 -93 -172t-179 -60z" />
    <glyph glyph-name="jcircumflex" unicode="&#x135;" horiz-adv-x="292" 
d="M102 649h-55l187 184h50l111 -184h-46l-92 151zM-46 -204h-50l9 42h37q41 0 63.5 20t32.5 65l133 625h50l-134 -630q-14 -64 -47.5 -93t-93.5 -29z" />
    <glyph glyph-name="uni0136" unicode="&#x136;" horiz-adv-x="745" 
d="M734 768h68l-377 -325l234 -443h-55l-218 415l-205 -174l-52 -241h-51l164 768h51l-99 -463zM324 -144l-62 -15l13 61h88l-24 -112q-14 -56 -74 -56h-25l5 28h24q20 0 28.5 5.5t12.5 20.5z" />
    <glyph glyph-name="uni0137" unicode="&#x137;" horiz-adv-x="640" 
d="M561 548h70l-272 -204l175 -344h-54l-159 318l-166 -122l-42 -196h-50l164 768h50l-110 -517zM262 -144l-62 -15l13 61h88l-24 -112q-14 -56 -74 -56h-25l5 28h24q20 0 28.5 5.5t12.5 20.5z" />
    <glyph glyph-name="kgreenlandic" unicode="&#x138;" horiz-adv-x="640" 
d="M561 548h70l-272 -204l175 -344h-54l-159 318l-167 -122l-41 -196h-50l116 548h50l-63 -297z" />
    <glyph glyph-name="Lacute" unicode="&#x139;" horiz-adv-x="672" 
d="M406 1060h63l-167 -179h-46zM292 768l-155 -726h430l-10 -42h-479l164 768h50z" />
    <glyph glyph-name="lacute" unicode="&#x13a;" horiz-adv-x="292" 
d="M266 881h-46l150 179h63zM113 0h-50l164 768h50z" />
    <glyph glyph-name="uni013B" unicode="&#x13b;" horiz-adv-x="672" 
d="M292 768l-155 -726h430l-10 -42h-479l164 768h50zM318 -144l-62 -15l13 61h88l-24 -112q-14 -56 -74 -56h-25l5 28h24q20 0 28.5 5.5t12.5 20.5z" />
    <glyph glyph-name="uni013C" unicode="&#x13c;" horiz-adv-x="292" 
d="M113 0h-50l164 768h50zM15 -266h-25l5 28h24q20 0 28.5 5.5t12.5 20.5l14 68l-62 -15l13 61h88l-24 -112q-14 -56 -74 -56z" />
    <glyph glyph-name="Lcaron" unicode="&#x13d;" horiz-adv-x="672" 
d="M242 768h50l-155 -726h430l-10 -42h-479zM534 768h59l-160 -278h-39z" />
    <glyph glyph-name="lcaron" unicode="&#x13e;" horiz-adv-x="416" 
d="M113 0h-50l164 768h50zM361 490h-39l139 278h60z" />
    <glyph glyph-name="Ldot" unicode="&#x13f;" horiz-adv-x="672" 
d="M292 768l-155 -726h430l-10 -42h-479l164 768h50zM409 427h87l-17 -80h-87z" />
    <glyph glyph-name="ldot" unicode="&#x140;" horiz-adv-x="431" 
d="M113 0h-50l164 768h50zM403 339h-95l19 90h95z" />
    <glyph glyph-name="Lslash" unicode="&#x141;" horiz-adv-x="815" 
d="M697 495l-350 -137l-67 -316h430l-10 -42h-479l72 336l-265 -111l20 49l252 96l85 398h50l-80 -376l362 152z" />
    <glyph glyph-name="lslash" unicode="&#x142;" horiz-adv-x="516" 
d="M311 412l170 89l-11 -51l-167 -76l-80 -374h-50l74 345l-167 -87l11 50l164 76l82 384h50z" />
    <glyph glyph-name="Nacute" unicode="&#x143;" horiz-adv-x="875" 
d="M647 1039h63l-167 -179h-46zM646 65l150 703h48l-164 -768h-53l-351 704l-150 -704h-48l164 768h53z" />
    <glyph glyph-name="nacute" unicode="&#x144;" horiz-adv-x="681" 
d="M521 852h63l-167 -179h-46zM416 560q79 0 123 -41.5t44 -114.5q0 -25 -6 -55l-75 -349h-50l74 347q6 27 6 50q0 57 -33 88.5t-93 31.5q-124 0 -212 -136l-81 -381h-50l116 548h46l-19 -100q90 112 210 112z" />
    <glyph glyph-name="uni0145" unicode="&#x145;" horiz-adv-x="875" 
d="M646 65l150 703h48l-164 -768h-53l-351 704l-150 -704h-48l164 768h53zM342 -144l-62 -15l13 61h88l-24 -112q-14 -56 -74 -56h-25l5 28h24q20 0 28.5 5.5t12.5 20.5z" />
    <glyph glyph-name="uni0146" unicode="&#x146;" horiz-adv-x="681" 
d="M416 560q79 0 123 -41.5t44 -114.5q0 -25 -6 -55l-75 -349h-50l74 347q6 27 6 50q0 57 -33 88.5t-93 31.5q-124 0 -212 -136l-81 -381h-50l116 548h46l-19 -100q90 112 210 112zM272 -144l-62 -15l13 61h88l-24 -112q-14 -56 -74 -56h-25l5 28h24q20 0 28.5 5.5
t12.5 20.5z" />
    <glyph glyph-name="Ncaron" unicode="&#x147;" horiz-adv-x="875" 
d="M756 1024l-191 -184h-50l-107 184h47l91 -150l156 150h54zM646 65l150 703h48l-164 -768h-53l-351 704l-150 -704h-48l164 768h53z" />
    <glyph glyph-name="ncaron" unicode="&#x148;" horiz-adv-x="681" 
d="M630 837l-191 -184h-50l-106 184h46l91 -150l156 150h54zM416 560q79 0 123 -41.5t44 -114.5q0 -25 -6 -55l-75 -349h-50l74 347q6 27 6 50q0 57 -33 88.5t-93 31.5q-124 0 -212 -136l-81 -381h-50l116 548h46l-19 -100q90 112 210 112z" />
    <glyph glyph-name="napostrophe" unicode="&#x149;" horiz-adv-x="870" 
d="M148 683l18 85h105l-35 -162q-11 -51 -36.5 -73.5t-73.5 -22.5h-15l8 35h14q30 0 45.5 14.5t21.5 45.5l20 93zM605 560q78 0 122 -41.5t44 -114.5q0 -25 -6 -55l-74 -349h-50l74 347q6 27 6 50q0 57 -33.5 88.5t-93.5 31.5q-122 0 -212 -136l-81 -381h-50l116 548h47
l-20 -101q89 113 211 113z" />
    <glyph glyph-name="Eng" unicode="&#x14a;" horiz-adv-x="875" 
d="M795 768h49l-129 -606h1l-51 -237q-30 -129 -149 -129h-84l9 42h78q42 0 64.5 19.5t31.5 64.5l19 86l-362 680l-146 -688h-48l163 768h45l363 -688z" />
    <glyph glyph-name="eng" unicode="&#x14b;" horiz-adv-x="681" 
d="M416 560q79 0 123 -41.5t44 -114.5q0 -25 -6 -55l-90 -424q-30 -129 -150 -129h-44l10 42h36q41 0 64 19.5t33 64.5l90 425q6 27 6 50q0 57 -33 88.5t-93 31.5q-124 0 -212 -136l-81 -381h-50l116 548h46l-19 -100q90 112 210 112z" />
    <glyph glyph-name="Omacron" unicode="&#x14c;" horiz-adv-x="920" 
d="M753 914h-335l10 41h334zM415 -16q-139 0 -218 81q-80 82 -80 222q0 52 12 112q38 183 149 285q110 103 274 103q140 0 219 -81q79 -82 79 -223q0 -54 -11 -112q-37 -181 -148 -284q-112 -103 -276 -103zM419 26q143 0 241 95q97 94 130 259q11 61 11 103
q0 123 -66.5 192t-186.5 69q-145 0 -240 -94t-130 -260q-11 -61 -11 -103q0 -123 66.5 -192t185.5 -69z" />
    <glyph glyph-name="omacron" unicode="&#x14d;" horiz-adv-x="695" 
d="M603 687h-335l9 41h335zM295 -14q-101 0 -160 59t-59 161q0 37 9 79q25 127 109 203q83 74 202 74q103 0 162.5 -59t59.5 -161q0 -38 -9 -81q-27 -129 -109.5 -202t-204.5 -73zM298 30q99 0 169 63.5t93 173.5q8 37 8 72q0 85 -46.5 132t-129.5 47q-98 0 -166.5 -64
t-91.5 -176q-8 -40 -8 -69q0 -83 46.5 -131t125.5 -48z" />
    <glyph glyph-name="Obreve" unicode="&#x14e;" horiz-adv-x="920" 
d="M584 882q-76 0 -115 29t-39 83q0 16 3 34h37q-2 -18 -2 -25q0 -83 117 -83q134 0 161 108h40q-19 -72 -67.5 -109t-134.5 -37zM415 -16q-139 0 -218 81q-80 82 -80 222q0 52 12 112q38 183 149 285q110 103 274 103q140 0 219 -81q79 -82 79 -223q0 -54 -11 -112
q-37 -181 -148 -284q-112 -103 -276 -103zM419 26q143 0 241 95q97 94 130 259q11 61 11 103q0 123 -66.5 192t-186.5 69q-145 0 -240 -94t-130 -260q-11 -61 -11 -103q0 -123 66.5 -192t185.5 -69z" />
    <glyph glyph-name="obreve" unicode="&#x14f;" horiz-adv-x="695" 
d="M434 655q-76 0 -115 29t-39 83q0 16 3 34h37q-3 -12 -3 -25q0 -83 118 -83q134 0 161 108h39q-38 -146 -201 -146zM295 -14q-101 0 -160 59t-59 161q0 37 9 79q25 127 109 203q83 74 202 74q103 0 162.5 -59t59.5 -161q0 -38 -9 -81q-27 -129 -109.5 -202t-204.5 -73z
M298 30q99 0 169 63.5t93 173.5q8 37 8 72q0 85 -46.5 132t-129.5 47q-98 0 -166.5 -64t-91.5 -176q-8 -40 -8 -69q0 -83 46.5 -131t125.5 -48z" />
    <glyph glyph-name="Ohungarumlaut" unicode="&#x150;" horiz-adv-x="920" 
d="M484 868h-48l134 178h63zM691 868h-48l144 178h63zM415 -16q-139 0 -218 81q-80 82 -80 222q0 52 12 112q38 183 149 285q110 103 274 103q140 0 219 -81q79 -82 79 -223q0 -54 -11 -112q-37 -181 -148 -284q-112 -103 -276 -103zM419 26q143 0 241 95q97 94 130 259
q11 61 11 103q0 123 -66.5 192t-186.5 69q-145 0 -240 -94t-130 -260q-11 -61 -11 -103q0 -123 66.5 -192t185.5 -69z" />
    <glyph glyph-name="ohungarumlaut" unicode="&#x151;" horiz-adv-x="695" 
d="M333 641h-48l134 178h63zM540 641h-48l144 178h63zM295 -14q-101 0 -160 59t-59 161q0 37 9 79q25 127 109 203q83 74 202 74q103 0 162.5 -59t59.5 -161q0 -38 -9 -81q-27 -129 -109.5 -202t-204.5 -73zM298 30q99 0 169 63.5t93 173.5q8 37 8 72q0 85 -46.5 132
t-129.5 47q-98 0 -166.5 -64t-91.5 -176q-8 -40 -8 -69q0 -83 46.5 -131t125.5 -48z" />
    <glyph glyph-name="OE" unicode="&#x152;" horiz-adv-x="1348" 
d="M1371 768l-10 -42h-446l-65 -305h396l-9 -42h-396l-72 -337h462l-9 -42h-512l36 170q-57 -90 -142 -138t-189 -48q-136 0 -217 82q-81 81 -81 221q0 52 12 112q38 182 149 284q113 104 270 104q115 0 188.5 -59.5t93.5 -167.5l44 208h497zM421 26q142 0 238.5 93
t130.5 259q11 61 11 104q0 123 -67 192.5t-186 69.5q-143 0 -239.5 -93.5t-130.5 -260.5q-11 -61 -11 -103q0 -123 67 -192t187 -69z" />
    <glyph glyph-name="oe" unicode="&#x153;" horiz-adv-x="1147" 
d="M1061 264l-456 5q-6 -35 -6 -71q0 -81 45 -125.5t126 -44.5q131 0 209 118l42 -7q-91 -153 -255 -153q-85 0 -139 44.5t-65 122.5q-43 -79 -114 -123t-159 -44q-99 0 -156.5 55.5t-57.5 151.5q0 154 92 261t235 107q89 0 143 -43t65 -121q44 77 113.5 120.5t154.5 43.5
q95 0 145.5 -53t50.5 -145q0 -56 -13 -99zM870 521q-95 0 -163 -62q-70 -64 -95 -160l409 4q5 37 5 57q0 76 -40 118.5t-116 42.5zM294 30q123 0 201 94q77 94 77 224q0 81 -45 125.5t-129 44.5q-122 0 -197 -94t-75 -226q0 -81 43.5 -124.5t124.5 -43.5z" />
    <glyph glyph-name="Racute" unicode="&#x154;" horiz-adv-x="805" 
d="M602 1060h63l-167 -179h-46zM762 612q0 -93 -58.5 -157.5t-156.5 -83.5q101 -24 101 -135q0 -20 -3 -47l-18 -189h-51l19 185q3 36 3 44q0 63 -34 92t-104 29h-257l-75 -350h-50l164 768h320q95 0 147.5 -40.5t52.5 -115.5zM212 393h249q111 0 181 58q69 59 69 156
q0 119 -164 119h-264z" />
    <glyph glyph-name="racute" unicode="&#x155;" horiz-adv-x="470" 
d="M438 840h63l-167 -179h-46zM225 548l-23 -121q70 121 219 121h58l-10 -46h-50q-84 0 -140.5 -36.5t-92.5 -120.5l-73 -345h-50l116 548h46z" />
    <glyph glyph-name="uni0156" unicode="&#x156;" horiz-adv-x="805" 
d="M762 612q0 -93 -58.5 -157.5t-156.5 -83.5q101 -24 101 -135q0 -20 -3 -47l-18 -189h-51l19 185q3 36 3 44q0 63 -34 92t-104 29h-257l-75 -350h-50l164 768h320q95 0 147.5 -40.5t52.5 -115.5zM212 393h249q111 0 181 58q69 59 69 156q0 119 -164 119h-264zM347 -144
l-62 -15l13 61h88l-24 -112q-14 -56 -74 -56h-25l5 28h24q20 0 28.5 5.5t12.5 20.5z" />
    <glyph glyph-name="uni0157" unicode="&#x157;" horiz-adv-x="470" 
d="M421 548h58l-10 -46h-50q-84 0 -140.5 -36.5t-92.5 -120.5l-73 -345h-50l116 548h46l-23 -121q70 121 219 121zM74 -144l-62 -15l13 61h88l-24 -112q-14 -56 -74 -56h-25l5 28h24q20 0 28.5 5.5t12.5 20.5z" />
    <glyph glyph-name="Rcaron" unicode="&#x158;" horiz-adv-x="805" 
d="M711 1045l-191 -184h-50l-107 184h47l91 -150l156 150h54zM762 612q0 -93 -58.5 -157.5t-156.5 -83.5q101 -24 101 -135q0 -20 -3 -47l-18 -189h-51l19 185q3 36 3 44q0 63 -34 92t-104 29h-257l-75 -350h-50l164 768h320q95 0 147.5 -40.5t52.5 -115.5zM212 393h249
q111 0 181 58q69 59 69 156q0 119 -164 119h-264z" />
    <glyph glyph-name="rcaron" unicode="&#x159;" horiz-adv-x="470" 
d="M547 825l-191 -184h-50l-106 184h46l91 -150l156 150h54zM225 548l-23 -121q70 121 219 121h58l-10 -46h-50q-84 0 -140.5 -36.5t-92.5 -120.5l-73 -345h-50l116 548h46z" />
    <glyph glyph-name="Sacute" unicode="&#x15a;" horiz-adv-x="768" 
d="M490 892h-46l150 179h63zM338 -20q-128 0 -199.5 53t-71.5 150q0 23 1 30l52 4q-1 -7 -1 -31q0 -79 58.5 -120.5t165.5 -41.5q128 0 201.5 52t73.5 149q0 107 -158 142l-96 21q-185 42 -185 174q0 114 81 171.5t228 57.5q118 0 185.5 -46t67.5 -129q0 -3 -2 -27l-49 -5
q1 6 1 26q0 67 -55 102t-153 35q-120 0 -185.5 -45t-65.5 -135q0 -52 37.5 -83.5t121.5 -49.5l94 -21q186 -40 186 -181q0 -124 -90 -188q-91 -64 -243 -64z" />
    <glyph glyph-name="sacute" unicode="&#x15b;" horiz-adv-x="635" 
d="M390 681h-46l150 179h63zM272 -23q-101 0 -158 44.5t-57 123.5l49 4q0 -131 170 -131q91 0 143.5 35t52.5 101q0 40 -28.5 64t-92.5 35l-73 12q-150 25 -150 135q0 82 63.5 125t172.5 43q97 0 148.5 -39.5t53.5 -110.5l-47 -5q-2 55 -43.5 85t-116.5 30
q-85 0 -133.5 -31.5t-48.5 -90.5q0 -42 30 -65t94 -32l74 -12q76 -13 111.5 -46t35.5 -90q0 -89 -66 -136.5t-184 -47.5z" />
    <glyph glyph-name="Scircumflex" unicode="&#x15c;" horiz-adv-x="768" 
d="M374 880h-55l187 184h50l111 -184h-46l-92 151zM338 -20q-128 0 -199.5 53t-71.5 150q0 23 1 30l52 4q-1 -7 -1 -31q0 -79 58.5 -120.5t165.5 -41.5q128 0 201.5 52t73.5 149q0 107 -158 142l-96 21q-185 42 -185 174q0 114 81 171.5t228 57.5q118 0 185.5 -46t67.5 -129
q0 -3 -2 -27l-49 -5q1 6 1 26q0 67 -55 102t-153 35q-120 0 -185.5 -45t-65.5 -135q0 -52 37.5 -83.5t121.5 -49.5l94 -21q186 -40 186 -181q0 -124 -90 -188q-91 -64 -243 -64z" />
    <glyph glyph-name="scircumflex" unicode="&#x15d;" horiz-adv-x="635" 
d="M274 669h-55l187 184h50l111 -184h-46l-92 151zM272 -23q-101 0 -158 44.5t-57 123.5l49 4q0 -131 170 -131q91 0 143.5 35t52.5 101q0 40 -28.5 64t-92.5 35l-73 12q-150 25 -150 135q0 82 63.5 125t172.5 43q97 0 148.5 -39.5t53.5 -110.5l-47 -5q-2 55 -43.5 85
t-116.5 30q-85 0 -133.5 -31.5t-48.5 -90.5q0 -42 30 -65t94 -32l74 -12q76 -13 111.5 -46t35.5 -90q0 -89 -66 -136.5t-184 -47.5z" />
    <glyph glyph-name="Scedilla" unicode="&#x15e;" horiz-adv-x="768" 
d="M338 -20q-128 0 -199.5 53t-71.5 150q0 23 1 30l52 4q-1 -7 -1 -31q0 -79 58.5 -120.5t165.5 -41.5q128 0 201.5 52t73.5 149q0 107 -158 142l-96 21q-185 42 -185 174q0 114 81 171.5t228 57.5q118 0 185.5 -46t67.5 -129q0 -3 -2 -27l-49 -5q1 6 1 26q0 67 -55 102
t-153 35q-120 0 -185.5 -45t-65.5 -135q0 -52 37.5 -83.5t121.5 -49.5l94 -21q186 -40 186 -181q0 -124 -90 -188q-91 -64 -243 -64zM267 -265h-81l8 37h73q105 0 105 63q0 43 -55 43h-101l8 34h105q88 0 88 -73q0 -49 -41 -76.5t-109 -27.5z" />
    <glyph glyph-name="scedilla" unicode="&#x15f;" horiz-adv-x="635" 
d="M272 -23q-101 0 -158 44.5t-57 123.5l49 4q0 -131 170 -131q91 0 143.5 35t52.5 101q0 40 -28.5 64t-92.5 35l-73 12q-150 25 -150 135q0 82 63.5 125t172.5 43q97 0 148.5 -39.5t53.5 -110.5l-47 -5q-2 55 -43.5 85t-116.5 30q-85 0 -133.5 -31.5t-48.5 -90.5
q0 -42 30 -65t94 -32l74 -12q76 -13 111.5 -46t35.5 -90q0 -89 -66 -136.5t-184 -47.5zM200 -267h-81l8 37h73q105 0 105 63q0 43 -55 43h-101l8 34h105q88 0 88 -73q0 -49 -41 -76.5t-109 -27.5z" />
    <glyph glyph-name="Scaron" unicode="&#x160;" horiz-adv-x="768" 
d="M513 872h-50l-107 184h47l91 -150l156 150h54zM338 -20q-128 0 -199.5 53t-71.5 150q0 23 1 30l52 4q-1 -7 -1 -31q0 -79 58.5 -120.5t165.5 -41.5q128 0 201.5 52t73.5 149q0 107 -158 142l-96 21q-185 42 -185 174q0 114 81 171.5t228 57.5q118 0 185.5 -46t67.5 -129
q0 -3 -2 -27l-49 -5q1 6 1 26q0 67 -55 102t-153 35q-120 0 -185.5 -45t-65.5 -135q0 -52 37.5 -83.5t121.5 -49.5l94 -21q186 -40 186 -181q0 -124 -90 -188q-91 -64 -243 -64z" />
    <glyph glyph-name="scaron" unicode="&#x161;" horiz-adv-x="635" 
d="M412 661h-50l-106 184h46l91 -150l156 150h54zM272 -23q-101 0 -158 44.5t-57 123.5l49 4q0 -131 170 -131q91 0 143.5 35t52.5 101q0 40 -28.5 64t-92.5 35l-73 12q-150 25 -150 135q0 82 63.5 125t172.5 43q97 0 148.5 -39.5t53.5 -110.5l-47 -5q-2 55 -43.5 85
t-116.5 30q-85 0 -133.5 -31.5t-48.5 -90.5q0 -42 30 -65t94 -32l74 -12q76 -13 111.5 -46t35.5 -90q0 -89 -66 -136.5t-184 -47.5z" />
    <glyph glyph-name="uni0162" unicode="&#x162;" horiz-adv-x="629" 
d="M138 768h564l-10 -42h-256l-154 -726h-52l155 726h-257zM147 -76h105q88 0 88 -73q0 -49 -41 -76.5t-109 -27.5h-81l8 37h73q105 0 105 63q0 43 -55 43h-101z" />
    <glyph glyph-name="uni0163" unicode="&#x163;" horiz-adv-x="504" 
d="M273 511l-4 -35l-67 -313q-8 -40 -8 -53q0 -68 86 -68h99l-9 -42h-101q-125 0 -125 104q0 18 6 47l69 326l10 33l-142 -4l9 42l140 -4l3 28l28 130h50l-27 -128l-10 -31l207 5l-9 -42zM116 -66h106q87 0 87 -73q0 -49 -40.5 -76.5t-108.5 -27.5h-81l7 37h74
q50 0 77.5 16.5t27.5 46.5q0 43 -55 43h-101z" />
    <glyph glyph-name="Tcaron" unicode="&#x164;" horiz-adv-x="629" 
d="M647 1045l-191 -184h-50l-107 184h47l91 -150l156 150h54zM138 768h564l-10 -42h-256l-154 -726h-52l155 726h-257z" />
    <glyph glyph-name="tcaron" unicode="&#x165;" horiz-adv-x="496" 
d="M531 911h59l-160 -278h-39zM317 702l-27 -128l-10 -31l207 5l-9 -42l-205 5l-4 -35l-67 -313q-8 -40 -8 -53q0 -68 86 -68h99l-9 -42h-101q-125 0 -125 104q0 18 6 47l69 326l10 33l-142 -4l9 42l140 -4l3 28l28 130h50z" />
    <glyph glyph-name="Tbar" unicode="&#x166;" horiz-adv-x="629" 
d="M702 768l-10 -42h-256l-65 -309l228 3l-9 -41l-227 3l-81 -382h-52l82 382l-228 -3l9 41l226 -3l66 309h-257l10 42h564z" />
    <glyph glyph-name="tbar" unicode="&#x167;" horiz-adv-x="542" 
d="M525 548l-9 -42l-202 4l-43 -200l204 4l-8 -40l-203 4l-26 -123q-6 -30 -6 -45q0 -68 86 -68h99l-9 -42h-101q-125 0 -125 104q0 18 6 47l27 126l-139 -3l9 40l137 -3l42 199l-139 -4l9 42l137 -4l34 158h50l-34 -158z" />
    <glyph glyph-name="Utilde" unicode="&#x168;" horiz-adv-x="855" 
d="M386 872h-43q41 168 149 168q33 0 55.5 -18t32.5 -44q22 -63 70 -63q33 0 56.5 29.5t41.5 95.5h43q-41 -168 -148 -168q-33 0 -55.5 18t-31.5 45q-24 62 -71 62q-65 0 -99 -125zM378 -17q-124 0 -188.5 50.5t-64.5 149.5q0 39 10 86l106 499h51l-107 -508q-9 -39 -9 -72
q0 -160 205 -160q123 0 190.5 55.5t93.5 176.5l107 508h52l-107 -503q-31 -146 -111 -214t-228 -68z" />
    <glyph glyph-name="utilde" unicode="&#x169;" horiz-adv-x="681" 
d="M347 777q-65 0 -99 -125h-43q41 168 149 168q33 0 55.5 -18t32.5 -44q22 -63 70 -63q33 0 56.5 29.5t41.5 95.5h43q-41 -168 -148 -168q-33 0 -55.5 18t-31.5 45q-24 62 -71 62zM488 167l81 381h50l-117 -548h-46l19 100q-90 -112 -210 -112q-78 0 -122 41.5t-44 114.5
q0 25 6 55l74 349h50l-74 -347q-6 -27 -6 -50q0 -57 33.5 -88.5t92.5 -31.5q123 0 213 136z" />
    <glyph glyph-name="Umacron" unicode="&#x16a;" horiz-adv-x="855" 
d="M724 907h-335l10 41h334zM378 -17q-124 0 -188.5 50.5t-64.5 149.5q0 39 10 86l106 499h51l-107 -508q-9 -39 -9 -72q0 -160 205 -160q123 0 190.5 55.5t93.5 176.5l107 508h52l-107 -503q-31 -146 -111 -214t-228 -68z" />
    <glyph glyph-name="umacron" unicode="&#x16b;" horiz-adv-x="681" 
d="M260 728h335l-9 -41h-335zM488 167l81 381h50l-117 -548h-46l19 100q-90 -112 -210 -112q-78 0 -122 41.5t-44 114.5q0 25 6 55l74 349h50l-74 -347q-6 -27 -6 -50q0 -57 33.5 -88.5t92.5 -31.5q123 0 213 136z" />
    <glyph glyph-name="Ubreve" unicode="&#x16c;" horiz-adv-x="855" 
d="M555 875q-76 0 -115 29t-39 83q0 16 3 34h37q-2 -18 -2 -25q0 -83 117 -83q134 0 161 108h40q-19 -72 -67.5 -109t-134.5 -37zM378 -17q-124 0 -188.5 50.5t-64.5 149.5q0 39 10 86l106 499h51l-107 -508q-9 -39 -9 -72q0 -160 205 -160q123 0 190.5 55.5t93.5 176.5
l107 508h52l-107 -503q-31 -146 -111 -214t-228 -68z" />
    <glyph glyph-name="ubreve" unicode="&#x16d;" horiz-adv-x="681" 
d="M417 655q-76 0 -115 29t-39 83q0 16 3 34h37q-3 -12 -3 -25q0 -83 118 -83q134 0 161 108h39q-38 -146 -201 -146zM488 167l81 381h50l-117 -548h-46l19 100q-90 -112 -210 -112q-78 0 -122 41.5t-44 114.5q0 25 6 55l74 349h50l-74 -347q-6 -27 -6 -50q0 -57 33.5 -88.5
t92.5 -31.5q123 0 213 136z" />
    <glyph glyph-name="Uring" unicode="&#x16e;" horiz-adv-x="855" 
d="M650 868q-38 -38 -96 -38t-96 38t-38 95t38 94.5t96 37.5t96 -37.5t38 -94.5t-38 -95zM484 892q27 -27 70 -27q42 0 71 27q27 27 27 71t-27 71q-29 27 -71 27q-43 0 -70 -27q-28 -27 -28 -71t28 -71zM378 -17q-124 0 -188.5 50.5t-64.5 149.5q0 39 10 86l106 499h51
l-107 -508q-9 -39 -9 -72q0 -160 205 -160q123 0 190.5 55.5t93.5 176.5l107 508h52l-107 -503q-31 -146 -111 -214t-228 -68z" />
    <glyph glyph-name="uring" unicode="&#x16f;" horiz-adv-x="681" 
d="M530 665q-38 -38 -96 -38t-96 38t-38 95t38 94.5t96 37.5t96 -37.5t38 -94.5t-38 -95zM505 831q-28 27 -71 27t-70 -27q-28 -27 -28 -71t28 -71q27 -27 70 -27q42 0 71 27q27 27 27 71t-27 71zM488 167l81 381h50l-117 -548h-46l19 100q-90 -112 -210 -112
q-78 0 -122 41.5t-44 114.5q0 25 6 55l74 349h50l-74 -347q-6 -27 -6 -50q0 -57 33.5 -88.5t92.5 -31.5q123 0 213 136z" />
    <glyph glyph-name="Uhungarumlaut" unicode="&#x170;" horiz-adv-x="855" 
d="M455 861h-48l134 178h63zM662 861h-48l144 178h63zM378 -17q-124 0 -188.5 50.5t-64.5 149.5q0 39 10 86l106 499h51l-107 -508q-9 -39 -9 -72q0 -160 205 -160q123 0 190.5 55.5t93.5 176.5l107 508h52l-107 -503q-31 -146 -111 -214t-228 -68z" />
    <glyph glyph-name="uhungarumlaut" unicode="&#x171;" horiz-adv-x="681" 
d="M403 819h63l-149 -178h-48zM620 819h63l-159 -178h-48zM488 167l81 381h50l-117 -548h-46l19 100q-90 -112 -210 -112q-78 0 -122 41.5t-44 114.5q0 25 6 55l74 349h50l-74 -347q-6 -27 -6 -50q0 -57 33.5 -88.5t92.5 -31.5q123 0 213 136z" />
    <glyph glyph-name="Uogonek" unicode="&#x172;" horiz-adv-x="855" 
d="M665 260l107 508h52l-107 -503q-27 -125 -88 -192t-169 -84l-94 -49q-76 -35 -76 -86q0 -24 18 -38t51 -14h38l-8 -37h-45q-48 0 -75 22.5t-27 59.5q0 71 88 111l51 25h-3q-124 0 -188.5 50.5t-64.5 149.5q0 39 10 86l106 499h51l-107 -508q-9 -39 -9 -72
q0 -160 205 -160q123 0 190.5 55.5t93.5 176.5z" />
    <glyph glyph-name="uogonek" unicode="&#x173;" horiz-adv-x="681" 
d="M502 0l-98 -51q-76 -35 -76 -86q0 -24 18 -38t51 -14h38l-7 -37h-46q-48 0 -75 22.5t-27 59.5q0 70 89 111l89 45l17 88q-90 -112 -210 -112q-78 0 -122 41.5t-44 114.5q0 25 6 55l74 349h50l-74 -347q-6 -27 -6 -50q0 -57 33.5 -88.5t92.5 -31.5q123 0 213 136l81 381
h50z" />
    <glyph glyph-name="Wcircumflex" unicode="&#x174;" horiz-adv-x="1095" 
d="M773 869l-91 151l-156 -151h-54l187 184h50l111 -184h-47zM765 83l356 685h49l-402 -768h-61l-73 726l-349 -726h-61l-94 768h46l81 -684l3 -48l20 47l327 685h68l66 -684l1 -48z" />
    <glyph glyph-name="wcircumflex" unicode="&#x175;" horiz-adv-x="865" 
d="M618 649l-92 151l-155 -151h-55l187 184h50l111 -184h-46zM566 104l235 444h54l-298 -548h-54l-40 391l-5 98l-46 -98l-203 -391h-51l-67 548h47l49 -437l4 -60l26 56l227 441h49l43 -439l3 -60z" />
    <glyph glyph-name="Ycircumflex" unicode="&#x176;" horiz-adv-x="679" 
d="M586 864l-91 151l-156 -151h-54l187 184h50l111 -184h-47zM703 768h60l-387 -437l-71 -331h-52l71 331l-201 437h51l172 -377l8 -23l17 23z" />
    <glyph glyph-name="ycircumflex" unicode="&#x177;" horiz-adv-x="584" 
d="M477 649l-92 151l-155 -151h-55l187 184h50l111 -184h-46zM224 41l296 507h55l-375 -630q-42 -71 -78 -97q-37 -25 -102 -25h-49l9 43h43q47 0 75 19q27 19 62 76l29 49l-98 565h50l82 -497z" />
    <glyph glyph-name="Ydieresis" unicode="&#x178;" horiz-adv-x="679" 
d="M344 964h65l-19 -87h-65zM560 964h65l-19 -87h-65zM703 768h60l-387 -437l-71 -331h-52l71 331l-201 437h51l172 -377l8 -23l17 23z" />
    <glyph glyph-name="Zacute" unicode="&#x179;" horiz-adv-x="780" 
d="M613 1060h63l-167 -179h-46zM228 768h555l-8 -35l-663 -691h524l-10 -42h-589l8 36l661 690h-487z" />
    <glyph glyph-name="zacute" unicode="&#x17a;" horiz-adv-x="628" 
d="M481 840h63l-167 -179h-46zM146 548h441l-8 -36l-470 -468h387l-9 -44h-457l7 34l473 470h-373z" />
    <glyph glyph-name="Zdotaccent" unicode="&#x17b;" horiz-adv-x="780" 
d="M513 992h60l-18 -86h-61zM228 768h555l-8 -35l-663 -691h524l-10 -42h-589l8 36l661 690h-487z" />
    <glyph glyph-name="zdotaccent" unicode="&#x17c;" horiz-adv-x="628" 
d="M381 772h60l-18 -86h-61zM146 548h441l-8 -36l-470 -468h387l-9 -44h-457l7 34l473 470h-373z" />
    <glyph glyph-name="Zcaron" unicode="&#x17d;" horiz-adv-x="780" 
d="M723 1045l-191 -184h-50l-107 184h47l91 -150l156 150h54zM228 768h555l-8 -35l-663 -691h524l-10 -42h-589l8 36l661 690h-487z" />
    <glyph glyph-name="zcaron" unicode="&#x17e;" horiz-adv-x="628" 
d="M590 825l-191 -184h-50l-106 184h46l91 -150l156 150h54zM510 504h-373l9 44h441l-8 -36l-470 -468h387l-9 -44h-457l7 34z" />
    <glyph glyph-name="uni018F" unicode="&#x18f;" horiz-adv-x="919" 
d="M551 787q139 0 219 -81q79 -82 79 -223q0 -54 -11 -112q-37 -181 -148 -284q-112 -103 -276 -103q-138 0 -218 81q-79 80 -79 222q0 47 9 102h665q9 51 9 94q0 123 -66.5 192t-186.5 69q-205 0 -310 -187l-51 8q57 108 151 165t214 57zM418 26q134 0 229 84t134 235h-611
q-4 -24 -4 -58q0 -123 66.5 -192t185.5 -69z" />
    <glyph glyph-name="florin" unicode="&#x192;" horiz-adv-x="740" 
d="M673 768h61l-17 -42h-51q-52 0 -86 -24.5t-57 -82.5l-75 -183l137 4l-17 -42l-134 4l-162 -398q-32 -79 -80 -113.5t-121 -34.5h-61l17 43h50q52 0 86 24.5t58 82.5l161 396l-131 -4l16 42l129 -4l75 185q32 78 80.5 112.5t121.5 34.5z" />
    <glyph glyph-name="uni01F4" unicode="&#x1f4;" horiz-adv-x="903" 
d="M656 1060h63l-167 -179h-46zM731 333h-256l9 42h305l-79 -375h-41l24 144q-103 -160 -296 -160q-133 0 -206 82q-74 82 -74 219q0 57 12 116q39 182 147.5 283.5t269.5 101.5q117 0 188.5 -58t87.5 -166l-50 -5q-31 187 -231 187q-134 0 -231 -91q-96 -90 -131 -256
q-12 -57 -12 -112q0 -121 62.5 -190t172.5 -69q107 0 186.5 56t123.5 162z" />
    <glyph glyph-name="uni01F5" unicode="&#x1f5;" horiz-adv-x="697" 
d="M529 840h63l-167 -179h-46zM562 433l28 115h44l-114 -536q-24 -114 -90 -170.5t-182 -56.5q-100 0 -155 40.5t-58 112.5l48 4q4 -57 47.5 -87.5t121.5 -30.5q93 0 146.5 47t74.5 145l22 105q-84 -111 -213 -111q-95 0 -148.5 56.5t-53.5 153.5q0 139 83 240t210 101
q71 0 119 -34.5t70 -93.5zM291 51q71 0 131 45.5t93 119.5l29 137q-2 77 -48.5 122t-117.5 45q-109 0 -178 -89t-69 -208q0 -80 42 -126t118 -46z" />
    <glyph glyph-name="Aringacute" unicode="&#x1fa;" horiz-adv-x="737" 
d="M560 1109h63l-116 -143h-52zM649 0h-51l-48 217h-388l-139 -217h-56l444 694q-66 32 -66 110q0 53 35 88t89 35t89 -35t35 -88q0 -46 -26.5 -79t-70.5 -41zM383 804q0 -39 24 -62.5t62 -23.5t62 23.5t24 62.5q0 38 -24 62t-62 24t-62 -24t-24 -62zM440 653l-250 -392h351
l-86 392l-2 25z" />
    <glyph glyph-name="aringacute" unicode="&#x1fb;" horiz-adv-x="646" 
d="M557 1109h62l-167 -178h-46zM510 654q-38 -38 -96 -38t-96 38q-39 38 -39 94q0 58 38 95.5t97 37.5q58 0 95.5 -37.5t37.5 -95.5q0 -57 -37 -94zM484 819q-27 27 -70 27q-42 0 -71 -27q-28 -27 -28 -71t28 -71q29 -27 71 -27q43 0 70 27t27 71t-27 71zM557 392l-57 -267
q-10 -47 1.5 -66.5t47.5 -19.5h18l-9 -39h-27q-93 0 -81 98q-75 -112 -225 -112q-84 0 -128.5 37.5t-44.5 104.5q0 78 57 120t172 61l120 19q80 13 101 40l6 25q14 65 -22 96t-118 31t-129 -29t-68 -90l-45 5q48 156 247 156q189 0 189 -126q0 -14 -5 -44zM461 173l30 145
q-25 -16 -93 -27l-118 -20q-90 -15 -134 -47.5t-44 -91.5q0 -50 34.5 -78t102.5 -28q73 0 132 39t90 108z" />
    <glyph glyph-name="AEacute" unicode="&#x1fc;" horiz-adv-x="1231" 
d="M1003 1060h63l-167 -179h-46zM1253 768l-9 -42h-446l-65 -305h396l-10 -42h-395l-72 -337h462l-10 -42h-511l48 227h-419l-199 -227h-56l676 768h610zM660 726l-399 -455h390l97 455h-88z" />
    <glyph glyph-name="aeacute" unicode="&#x1fd;" horiz-adv-x="1070" 
d="M714 840h63l-167 -179h-46zM984 264l-453 7q-8 -45 -8 -72q0 -83 44.5 -127t123.5 -44q133 0 211 118l43 -7q-45 -73 -114 -113t-151 -40q-87 0 -138 46t-59 129q-43 -86 -114 -130.5t-157 -44.5q-77 0 -120 33t-43 92q0 89 66 137.5t179 50.5l202 2l15 71q4 17 4 38
q0 54 -39 82t-112 28q-80 0 -125 -27.5t-68 -90.5l-46 5q56 155 249 155q85 0 130 -35.5t45 -100.5v-5q90 140 252 140q95 0 146 -52.5t51 -143.5q0 -48 -14 -101zM790 521q-90 0 -158.5 -59.5t-94.5 -160.5l407 2q6 41 6 58q0 76 -41 118t-119 42zM224 27q86 0 153.5 50
t102.5 148l9 46l-217 -13q-79 -4 -125.5 -40.5t-46.5 -98.5q0 -43 32.5 -67.5t91.5 -24.5z" />
    <glyph glyph-name="Oslashacute" unicode="&#x1fe;" horiz-adv-x="920" 
d="M674 1067h63l-167 -179h-46zM870 786l26 -27l-95 -91q49 -74 49 -185q0 -54 -11 -112q-37 -181 -148 -284q-112 -103 -276 -103q-149 0 -229 92l-97 -93l-26 27l101 97q-47 74 -47 180q0 52 12 112q38 183 149 285q110 103 274 103q146 0 226 -89zM167 287q0 -87 33 -145
l544 522q-68 80 -196 80q-145 0 -240 -94t-130 -260q-11 -61 -11 -103zM801 483q0 90 -36 150l-544 -523q67 -84 198 -84q143 0 241 95q97 94 130 259q11 61 11 103z" />
    <glyph glyph-name="oslashacute" unicode="&#x1ff;" horiz-adv-x="695" 
d="M523 840h63l-167 -179h-46zM638 567l24 -23l-77 -74q33 -52 33 -128q0 -38 -9 -81q-27 -129 -109.5 -202t-204.5 -73q-99 0 -157 57l-67 -64l-25 23l70 66q-40 55 -40 138q0 37 9 79q25 127 109 203q83 74 202 74q109 0 169 -65zM126 209q0 -63 27 -105l376 359
q-46 55 -137 55q-98 0 -166.5 -64t-91.5 -176q-8 -40 -8 -69zM568 339q0 56 -21 95l-373 -357q45 -47 124 -47q99 0 169 63.5t93 173.5q8 37 8 72z" />
    <glyph glyph-name="uni0218" unicode="&#x218;" horiz-adv-x="768" 
d="M338 -20q-128 0 -199.5 53t-71.5 150q0 23 1 30l52 4q-1 -7 -1 -31q0 -79 58.5 -120.5t165.5 -41.5q128 0 201.5 52t73.5 149q0 107 -158 142l-96 21q-185 42 -185 174q0 114 81 171.5t228 57.5q118 0 185.5 -46t67.5 -129q0 -3 -2 -27l-49 -5q1 6 1 26q0 67 -55 102
t-153 35q-120 0 -185.5 -45t-65.5 -135q0 -52 37.5 -83.5t121.5 -49.5l94 -21q186 -40 186 -181q0 -124 -90 -188q-91 -64 -243 -64zM259 -278h-25l5 28h24q20 0 28.5 5.5t12.5 20.5l14 68l-62 -15l13 61h88l-24 -112q-14 -56 -74 -56z" />
    <glyph glyph-name="uni0219" unicode="&#x219;" horiz-adv-x="635" 
d="M272 -23q-101 0 -158 44.5t-57 123.5l49 4q0 -131 170 -131q91 0 143.5 35t52.5 101q0 40 -28.5 64t-92.5 35l-73 12q-150 25 -150 135q0 82 63.5 125t172.5 43q97 0 148.5 -39.5t53.5 -110.5l-47 -5q-2 55 -43.5 85t-116.5 30q-85 0 -133.5 -31.5t-48.5 -90.5
q0 -42 30 -65t94 -32l74 -12q76 -13 111.5 -46t35.5 -90q0 -89 -66 -136.5t-184 -47.5zM190 -266h-25l5 28h24q20 0 29 5.5t12 20.5l14 68l-62 -15l13 61h88l-23 -112q-14 -56 -75 -56z" />
    <glyph glyph-name="uni021A" unicode="&#x21a;" horiz-adv-x="629" 
d="M138 768h564l-10 -42h-256l-154 -726h-52l155 726h-257zM243 -144l-62 -15l13 61h88l-24 -112q-14 -56 -74 -56h-25l5 28h24q20 0 28.5 5.5t12.5 20.5z" />
    <glyph glyph-name="uni021B" unicode="&#x21b;" horiz-adv-x="504" 
d="M273 511l-4 -35l-67 -313q-8 -40 -8 -53q0 -68 86 -68h99l-9 -42h-101q-125 0 -125 104q0 18 6 47l69 326l10 33l-142 -4l9 42l140 -4l3 28l28 130h50l-27 -128l-10 -31l207 5l-9 -42zM141 -141l-62 -15l13 61h88l-24 -112q-14 -56 -74 -56h-25l5 28h24q20 0 28.5 5.5
t12.5 20.5z" />
    <glyph glyph-name="uni0237" unicode="&#x237;" horiz-adv-x="292" 
d="M-46 -204h-50l9 42h37q41 0 63.5 20t32.5 65l133 625h50l-134 -630q-14 -64 -47.5 -93t-93.5 -29z" />
    <glyph glyph-name="uni0259" unicode="&#x259;" horiz-adv-x="671" 
d="M374 562q103 0 162 -60t59 -162q0 -30 -9 -76q-26 -125 -106 -201q-83 -77 -200 -77q-98 0 -152.5 55t-54.5 149q0 44 13 95h454q5 37 5 55q0 85 -47 132.5t-127 47.5q-130 0 -205 -118l-45 8q86 152 253 152zM285 27q90 0 155.5 58t91.5 160h-406q-5 -33 -5 -53
q0 -78 42 -121.5t122 -43.5z" />
    <glyph glyph-name="h.sups" unicode="&#x2b0;" horiz-adv-x="604" 
d="M427 776q60 0 96.5 -31t36.5 -91q0 -21 -7 -57l-48 -225h-48l49 232q6 26 6 42q0 44 -27 66.5t-73 22.5q-97 0 -167 -100l-56 -263h-47l117 555h48l-49 -231q74 80 169 80z" />
    <glyph glyph-name="r.sups" unicode="&#x2b3;" horiz-adv-x="419" 
d="M434 774h42l-9 -43h-45q-136 0 -182 -120l-51 -239h-47l84 396h44l-16 -84q63 90 180 90z" />
    <glyph glyph-name="circumflex" unicode="&#x2c6;" horiz-adv-x="500" 
d="M210 649h-54l187 184h50l111 -184h-47l-91 151z" />
    <glyph glyph-name="caron" unicode="&#x2c7;" horiz-adv-x="500" 
d="M351 641h-50l-107 184h46l91 -150l156 150h54z" />
    <glyph glyph-name="uni02C9" unicode="&#x2c9;" horiz-adv-x="500" 
d="M505 687h-335l10 41h334z" />
    <glyph glyph-name="breve" unicode="&#x2d8;" horiz-adv-x="500" 
d="M337 655q-76 0 -115 29t-39 83q0 16 3 34h37q-3 -12 -3 -25q0 -83 118 -83q134 0 161 108h39q-38 -146 -201 -146z" />
    <glyph glyph-name="dotaccent" unicode="&#x2d9;" horiz-adv-x="500" 
d="M368 686h-61l19 86h60z" />
    <glyph glyph-name="ring" unicode="&#x2da;" horiz-adv-x="500" 
d="M450 665q-38 -38 -96 -38t-96 38t-38 95t38 94.5t96 37.5t96 -37.5t38 -94.5t-38 -95zM284 689q27 -27 70 -27q42 0 71 27q27 27 27 71t-27 71q-29 27 -71 27q-43 0 -70 -27q-28 -27 -28 -71t28 -71z" />
    <glyph glyph-name="ogonek" unicode="&#x2db;" horiz-adv-x="500" 
d="M215 -226h-45q-49 0 -76 22.5t-27 59.5q0 70 89 111l98 49l35 -16l-98 -51q-75 -35 -75 -86q0 -52 68 -52h38z" />
    <glyph glyph-name="tilde" unicode="&#x2dc;" horiz-adv-x="500" 
d="M167 652h-43q40 168 149 168q33 0 55.5 -18t32.5 -44q22 -63 70 -63q33 0 56.5 29.5t41.5 95.5h43q-40 -168 -148 -168q-33 0 -55.5 18t-31.5 45q-24 62 -71 62q-65 0 -99 -125z" />
    <glyph glyph-name="hungarumlaut" unicode="&#x2dd;" horiz-adv-x="500" 
d="M209 641h-48l134 178h63zM416 641h-48l144 178h63z" />
    <glyph glyph-name="s.sups" unicode="&#x2e2;" horiz-adv-x="549" 
d="M313 361q-84 0 -131 32t-54 92l44 5q9 -94 144 -94q70 0 110 23t40 64q0 28 -22 43.5t-73 23.5l-84 11q-115 16 -115 94q0 57 48.5 89.5t132.5 32.5q157 0 173 -111l-43 -6q-11 81 -134 81q-64 0 -99.5 -21t-35.5 -58q0 -27 19.5 -41.5t62.5 -20.5l94 -13
q119 -17 119 -99q0 -58 -53 -92.5t-143 -34.5z" />
    <glyph glyph-name="gravecomb" unicode="&#x300;" 
d="M103 661h-41l-108 179h57z" />
    <glyph glyph-name="acutecomb" unicode="&#x301;" 
d="M72 661h-46l150 179h63z" />
    <glyph glyph-name="uni0302" unicode="&#x302;" 
d="M-44 649h-54l187 184h50l111 -184h-46l-92 151z" />
    <glyph glyph-name="tildecomb" unicode="&#x303;" 
d="M-83 652h-43q41 168 149 168q33 0 55.5 -18t32.5 -44q22 -63 70 -63q33 0 56.5 29.5t41.5 95.5h43q-40 -168 -148 -168q-33 0 -55.5 18t-31.5 45q-24 62 -71 62q-65 0 -99 -125z" />
    <glyph glyph-name="uni0304" unicode="&#x304;" 
d="M256 687h-335l9 41h335z" />
    <glyph glyph-name="uni0306" unicode="&#x306;" 
d="M87 655q-76 0 -115 29t-39 83q0 16 3 34h37q-2 -22 -2 -25q0 -83 117 -83q134 0 161 108h40q-38 -146 -202 -146z" />
    <glyph glyph-name="uni0307" unicode="&#x307;" 
d="M118 686h-61l19 86h60z" />
    <glyph glyph-name="uni0308" unicode="&#x308;" 
d="M12 686h-60l18 86h61zM223 686h-60l18 86h61z" />
    <glyph glyph-name="uni030A" unicode="&#x30a;" 
d="M200 665q-38 -38 -96 -38t-96 38t-38 95t38 94.5t96 37.5t96 -37.5t38 -94.5t-38 -95zM33 689q29 -27 71 -27t71 27q27 27 27 71t-27 71q-29 27 -71 27q-43 0 -71 -27t-28 -71t28 -71z" />
    <glyph glyph-name="uni030B" unicode="&#x30b;" 
d="M-14 641h-48l134 178h63zM193 641h-48l144 178h63z" />
    <glyph glyph-name="uni030C" unicode="&#x30c;" 
d="M94 641h-50l-106 184h46l91 -150l156 150h54z" />
    <glyph glyph-name="uni0312" unicode="&#x312;" 
d="M132 686h-88l21 97q14 56 74 56h25l-5 -28h-24q-20 0 -28.5 -5.5t-12.5 -20.5l-11 -52l62 15z" />
    <glyph glyph-name="uni0313" unicode="&#x313;" 
d="M70 686h-26l5 28h24q21 0 29.5 5.5t11.5 20.5l11 52l-62 -15l13 62h88l-20 -97q-14 -56 -74 -56z" />
    <glyph glyph-name="dotbelowcomb" unicode="&#x323;" 
d="M-69 -201h-65l19 87h65z" />
    <glyph glyph-name="uni0324" unicode="&#x324;" 
d="M-176 -201h-66l19 87h65zM40 -201h-66l19 87h65z" />
    <glyph glyph-name="uni0325" unicode="&#x325;" 
d="M-5 -299q-37 -37 -96 -37t-96 37q-38 38 -38 95q0 58 38 95.5t96 37.5t96 -37.5t38 -95.5q0 -57 -38 -95zM-172 -275q29 -27 71 -27q43 0 70 27q28 27 28 71t-28 71q-27 27 -70 27t-71 -27q-27 -27 -27 -71t27 -71z" />
    <glyph glyph-name="uni0326" unicode="&#x326;" 
d="M-131 -266h-25l5 28h24q20 0 28.5 5.5t12.5 20.5l14 68l-62 -15l13 61h88l-24 -112q-14 -56 -74 -56z" />
    <glyph glyph-name="uni0327" unicode="&#x327;" 
d="M-123 -253h-81l8 37h73q105 0 105 63q0 43 -55 43h-101l8 34h105q88 0 88 -73q0 -49 -41 -76.5t-109 -27.5z" />
    <glyph glyph-name="uni0328" unicode="&#x328;" 
d="M-133 -226h-45q-48 0 -75 22.5t-27 59.5q0 71 88 111l99 49l35 -16l-98 -51q-76 -35 -76 -86q0 -24 18 -38t51 -14h38z" />
    <glyph glyph-name="uni032E" unicode="&#x32e;" 
d="M-106 -253q-76 0 -115 29t-39 83q0 16 3 34h37q-3 -12 -3 -25q0 -84 118 -84q134 0 161 109h40q-39 -146 -202 -146z" />
    <glyph glyph-name="uni0331" unicode="&#x331;" 
d="M71 -180h-335l9 41h335z" />
    <glyph glyph-name="uni0335" unicode="&#x335;" 
d="M27 397l-198 -5l9 42l195 -5l196 5l-8 -42z" />
    <glyph glyph-name="uni0337" unicode="&#x337;" 
d="M302 540l-579 -556l-25 27l579 556z" />
    <glyph glyph-name="uni0338" unicode="&#x338;" 
d="M484 758l-897 -776l-24 27l897 776z" />
    <glyph glyph-name="uni0394" unicode="&#x394;" horiz-adv-x="737" 
d="M272 768h69l308 -768h-682zM298 706l-261 -662h541l-262 662l-9 26z" />
    <glyph glyph-name="uni03A9" unicode="&#x3a9;" horiz-adv-x="1015" 
d="M434 0h-294v47h219v3q-216 114 -216 365q0 168 97 269q98 102 257 102t257 -102q96 -102 96 -269q0 -250 -217 -365v-3h222v-47h-295v46q240 110 240 367q0 147 -81 239q-82 91 -222 91q-141 0 -222 -89q-82 -89 -82 -240q0 -259 241 -368v-46z" />
    <glyph glyph-name="uni03BC" unicode="&#x3bc;" horiz-adv-x="797" 
d="M229 -204h-50v752h50v-358q0 -75 40 -117t112 -42q123 0 188 129v388h50v-548h-46l-2 106q-70 -118 -192 -118q-111 0 -157 79l-2 -1l9 -155v-115z" />
    <glyph glyph-name="pi" unicode="&#x3c0;" horiz-adv-x="829" 
d="M722 548v-47h-134v-370q0 -48 20.5 -68.5t68.5 -20.5h18v-42h-24q-69 0 -100.5 32t-31.5 103v366h-260v-501h-49v501h-134v47h626z" />
    <glyph glyph-name="d.sups" unicode="&#x1d48;" horiz-adv-x="612" 
d="M532 691l50 236h49l-118 -555h-41l11 77q-69 -85 -180 -85q-75 0 -118 43.5t-43 119.5q0 105 70 179q71 74 173 74q112 0 147 -89zM315 403q59 0 107.5 31.5t75.5 85.5l23 111q-7 53 -42 81.5t-92 28.5q-86 0 -141 -61q-56 -62 -56 -148q0 -61 32.5 -95t92.5 -34z" />
    <glyph glyph-name="t.sups" unicode="&#x1d57;" horiz-adv-x="439" 
d="M458 724l-160 3l-49 -231q-5 -28 -5 -36q0 -49 70 -49h78l-9 -39h-85q-102 0 -102 75q0 20 7 52l48 227l-117 -2l9 44l117 -2l24 113h47l-24 -114l161 3z" />
    <glyph glyph-name="Wgrave" unicode="&#x1e80;" horiz-adv-x="1095" 
d="M581 1060l92 -179h-41l-108 179h57zM765 83l356 685h49l-402 -768h-61l-73 726l-349 -726h-61l-94 768h46l81 -684l3 -48l20 47l327 685h68l66 -684l1 -48z" />
    <glyph glyph-name="wgrave" unicode="&#x1e81;" horiz-adv-x="865" 
d="M426 840l92 -179h-41l-108 179h57zM566 104l235 444h54l-298 -548h-54l-40 391l-5 98l-46 -98l-203 -391h-51l-67 548h47l49 -437l4 -60l26 56l227 441h49l43 -439l3 -60z" />
    <glyph glyph-name="Wacute" unicode="&#x1e82;" horiz-adv-x="1095" 
d="M746 1060h63l-167 -179h-46zM765 83l356 685h49l-402 -768h-61l-73 726l-349 -726h-61l-94 768h46l81 -684l3 -48l20 47l327 685h68l66 -684l1 -48z" />
    <glyph glyph-name="wacute" unicode="&#x1e83;" horiz-adv-x="865" 
d="M591 840h63l-167 -179h-46zM566 104l235 444h54l-298 -548h-54l-40 391l-5 98l-46 -98l-203 -391h-51l-67 548h47l49 -437l4 -60l26 56l227 441h49l43 -439l3 -60z" />
    <glyph glyph-name="Wdieresis" unicode="&#x1e84;" horiz-adv-x="1095" 
d="M531 969h65l-19 -87h-65zM747 969h65l-19 -87h-65zM765 83l356 685h49l-402 -768h-61l-73 726l-349 -726h-61l-94 768h46l81 -684l3 -48l20 47l327 685h68l66 -684l1 -48z" />
    <glyph glyph-name="wdieresis" unicode="&#x1e85;" horiz-adv-x="865" 
d="M385 772h61l-19 -86h-60zM596 772h61l-19 -86h-60zM566 104l235 444h54l-298 -548h-54l-40 391l-5 98l-46 -98l-203 -391h-51l-67 548h47l49 -437l4 -60l26 56l227 441h49l43 -439l3 -60z" />
    <glyph glyph-name="uni1E9E" unicode="&#x1e9e;" horiz-adv-x="819" 
d="M807 771l-8 -41l-319 -288h13q112 0 173.5 -44.5t61.5 -127.5q0 -125 -92 -203q-93 -78 -242 -78q-70 0 -144 16l10 47q74 -16 144 -16q125 0 198 61q74 62 74 165q0 132 -195 132q-45 0 -73 -4l10 46l322 295q-81 10 -202 10q-141 0 -209 -61q-69 -62 -92 -172
l-108 -508h-51l108 508q58 279 362 279q146 0 259 -16z" />
    <glyph glyph-name="Ygrave" unicode="&#x1ef2;" horiz-adv-x="679" 
d="M395 1055l92 -179h-41l-108 179h57zM703 768h60l-387 -437l-71 -331h-52l71 331l-201 437h51l172 -377l8 -23l17 23z" />
    <glyph glyph-name="ygrave" unicode="&#x1ef3;" horiz-adv-x="584" 
d="M285 840l92 -179h-41l-108 179h57zM224 41l296 507h55l-375 -630q-42 -71 -78 -97q-37 -25 -102 -25h-49l9 43h43q47 0 75 19q27 19 62 76l29 49l-98 565h50l82 -497z" />
    <glyph glyph-name="thinspace" unicode="&#x2009;" horiz-adv-x="292" 
 />
    <glyph glyph-name="uni2011" unicode="&#x2011;" horiz-adv-x="410" 
d="M349 271h-289l9 42h289z" />
    <glyph glyph-name="endash" unicode="&#x2013;" horiz-adv-x="622" 
d="M560 268h-500l9 44h500z" />
    <glyph glyph-name="emdash" unicode="&#x2014;" horiz-adv-x="862" 
d="M800 268h-740l9 44h740z" />
    <glyph glyph-name="quoteleft" unicode="&#x2018;" horiz-adv-x="346" 
d="M283 545h-105l35 162q11 51 36 73.5t73 22.5h16l-8 -35h-15q-29 0 -44 -14.5t-22 -46.5l-20 -92l72 15z" />
    <glyph glyph-name="quoteright" unicode="&#x2019;" horiz-adv-x="346" 
d="M187 510h-16l8 35h14q30 0 45 14.5t22 45.5l20 93l-72 -15l18 85h105l-35 -162q-11 -51 -36 -73.5t-73 -22.5z" />
    <glyph glyph-name="quotesinglbase" unicode="&#x201a;" horiz-adv-x="347" 
d="M42 -173h-16l8 34h15q29 0 44 15t22 46l20 92l-72 -14l18 85h105l-35 -162q-11 -52 -36 -74t-73 -22z" />
    <glyph glyph-name="quotedblleft" unicode="&#x201c;" horiz-adv-x="568" 
d="M283 545h-105l35 162q11 51 36 73.5t73 22.5h16l-8 -35h-15q-29 0 -44 -14.5t-22 -46.5l-20 -92l72 15zM505 545h-105l34 162q11 51 36.5 73.5t73.5 22.5h15l-7 -35h-15q-30 0 -45.5 -14.5t-21.5 -46.5l-19 -92l72 15z" />
    <glyph glyph-name="quotedblright" unicode="&#x201d;" horiz-adv-x="568" 
d="M187 510h-16l8 35h14q30 0 45 14.5t22 45.5l20 93l-72 -15l18 85h105l-35 -162q-11 -51 -36 -73.5t-73 -22.5zM408 510h-15l7 35h15q30 0 45.5 14.5t21.5 45.5l20 93l-72 -15l18 85h104l-34 -162q-11 -51 -36.5 -73.5t-73.5 -22.5z" />
    <glyph glyph-name="quotedblbase" unicode="&#x201e;" horiz-adv-x="568" 
d="M42 -173h-16l8 34h15q29 0 44 15t22 46l20 92l-72 -14l18 85h105l-35 -162q-11 -52 -36 -74t-73 -22zM263 -173h-15l8 34h14q54 0 67 61l20 92l-72 -14l18 85h104l-34 -162q-10 -52 -35.5 -74t-74.5 -22z" />
    <glyph glyph-name="dagger" unicode="&#x2020;" horiz-adv-x="729" 
d="M459 605l205 5l-9 -44l-203 5l-145 -681h-49l145 681l-206 -5l10 44l203 -5l61 288h49z" />
    <glyph glyph-name="daggerdbl" unicode="&#x2021;" horiz-adv-x="729" 
d="M664 610l-9 -44l-202 5l-75 -349l205 5l-9 -44l-203 5l-63 -298h-49l63 298l-206 -5l10 44l203 -5l75 349l-207 -5l10 44l204 -5l61 288h49l-61 -288z" />
    <glyph glyph-name="bullet" unicode="&#x2022;" horiz-adv-x="419" 
d="M272 224h-147l32 147h147z" />
    <glyph glyph-name="ellipsis" unicode="&#x2026;" horiz-adv-x="1008" 
d="M157 0h-94l18 85h94zM493 0h-95l18 85h95zM829 0h-95l18 85h95z" />
    <glyph glyph-name="perthousand" unicode="&#x2030;" horiz-adv-x="1952" 
d="M357 337q-77 0 -120 46.5t-43 128.5q0 35 7 70q21 107 82 166t149 59q77 0 120 -46t43 -128q0 -35 -7 -70q-22 -108 -83 -167t-148 -59zM438 -15h-52l648 798h50zM359 374q69 0 117.5 46.5t68.5 135.5q9 44 9 78q0 66 -33 102t-91 36q-72 0 -121 -50.5t-67 -145.5
q-7 -34 -7 -64q0 -66 33 -102t91 -36zM1057 -9q-77 0 -120.5 46.5t-43.5 128.5q0 32 8 70q22 108 82.5 166.5t147.5 58.5q77 0 120.5 -46t43.5 -128q0 -32 -8 -70q-22 -108 -82.5 -167t-147.5 -59zM1574 -9q-77 0 -120.5 46.5t-43.5 128.5q0 35 7 70q21 107 82 166t149 59
q77 0 120 -46t43 -128q0 -35 -7 -70q-22 -108 -82.5 -167t-147.5 -59zM1059 28q69 0 117 46.5t68 135.5q10 39 10 78q0 65 -33.5 101.5t-91.5 36.5q-72 0 -121 -50.5t-67 -145.5q-7 -34 -7 -64q0 -66 32.5 -102t92.5 -36zM1575 28q69 0 117.5 46.5t68.5 135.5q9 44 9 78
q0 66 -33 102t-91 36q-72 0 -121 -50.5t-67 -145.5q-7 -34 -7 -64q0 -66 33 -102t91 -36z" />
    <glyph glyph-name="guilsinglleft" unicode="&#x2039;" horiz-adv-x="515" 
d="M346 50l-11 -55l-220 251l12 56l326 251l-14 -66l-284 -219z" />
    <glyph glyph-name="guilsinglright" unicode="&#x203a;" horiz-adv-x="515" 
d="M389 246l-327 -251l14 66l284 219l-191 218l11 55l221 -251z" />
    <glyph glyph-name="uni203D" unicode="&#x203d;" horiz-adv-x="729" 
d="M445 780q114 0 181 -47.5t67 -131.5q0 -127 -172 -209l-47 -23q-59 -29 -81 -61q-23 -33 -45 -118h-35l53 284l24 114h51l-24 -114l-30 -122q32 32 90 59q88 40 128.5 84t40.5 101q0 68 -54 105.5t-147 37.5q-206 0 -253 -179l-49 4q27 106 105.5 161t196.5 55zM326 0
h-71l16 71h70z" />
    <glyph glyph-name="fraction" unicode="&#x2044;" horiz-adv-x="343" 
d="M-102 -15h-52l648 798h50z" />
    <glyph glyph-name="zero.sups" unicode="&#x2070;" horiz-adv-x="508" 
d="M287 363q-77 0 -120.5 46.5t-43.5 128.5q0 32 8 70q21 107 82 166t149 59q77 0 120 -46t43 -128q0 -32 -8 -70q-22 -108 -82.5 -167t-147.5 -59zM289 400q69 0 117 46.5t69 135.5q9 44 9 78q0 66 -33 102t-91 36q-72 0 -121 -50.5t-68 -145.5q-7 -34 -7 -64
q0 -66 33.5 -102t91.5 -36z" />
    <glyph glyph-name="four.sups" unicode="&#x2074;" horiz-adv-x="476" 
d="M385 372h-41l26 123l-280 -3l9 39l337 294h46l-64 -300l70 4l-8 -37l-68 3zM429 778l-284 -250l232 -3l53 252z" />
    <glyph glyph-name="five.sups" unicode="&#x2075;" horiz-adv-x="488" 
d="M280 363q-72 0 -119 32t-56 84l41 12q8 -42 43.5 -67t91.5 -25q72 0 117.5 39t45.5 99q0 48 -32.5 75.5t-87.5 27.5q-82 0 -141 -59l-38 17l94 227h287l-8 -35h-255l-66 -159l2 -1q61 44 135 44q70 0 110.5 -36.5t40.5 -98.5q0 -77 -57 -127q-56 -49 -148 -49z" />
    <glyph glyph-name="six.sups" unicode="&#x2076;" horiz-adv-x="501" 
d="M298 362q-79 0 -124 45.5t-45 128.5q0 123 67 211q68 87 174 87q56 0 96.5 -26t56.5 -71l-35 -16q-29 78 -121 78q-77 0 -129.5 -60t-64.5 -160q66 89 175 89q67 0 106.5 -36t39.5 -96q0 -74 -54 -123q-54 -51 -142 -51zM301 396q68 0 111 40q42 39 42 96q0 47 -32 74.5
t-85 27.5q-111 0 -168 -106q1 -64 36 -98t96 -34z" />
    <glyph glyph-name="seven.sups" unicode="&#x2077;" horiz-adv-x="438" 
d="M194 372h-42q30 119 109.5 227.5t194.5 188.5h-307l8 37h361l-8 -36q-257 -171 -316 -417z" />
    <glyph glyph-name="eight.sups" unicode="&#x2078;" horiz-adv-x="530" 
d="M303 363q-82 0 -131 33.5t-49 88.5q0 48 36.5 82.5t97.5 45.5v2q-70 21 -70 88q0 58 54.5 94.5t141.5 36.5q77 0 120.5 -28t43.5 -76q0 -42 -31.5 -74t-82.5 -42v-1q85 -28 85 -105q0 -66 -59.5 -105.5t-155.5 -39.5zM348 630q74 0 116.5 25.5t42.5 68.5q0 36 -33 56
t-94 20q-70 0 -112.5 -26.5t-42.5 -70.5q0 -73 123 -73zM305 397q78 0 124.5 30t46.5 81q0 42 -35 64.5t-100 22.5q-82 0 -129 -28.5t-47 -77.5q0 -42 38 -67t102 -25z" />
    <glyph glyph-name="nine.sups" unicode="&#x2079;" horiz-adv-x="500" 
d="M280 361q-56 0 -96.5 26t-56.5 71l35 16q29 -78 121 -78q77 0 129.5 60t64.5 160q-66 -89 -175 -89q-67 0 -106.5 36t-39.5 96q0 73 54 124q55 50 142 50q79 0 123.5 -45.5t44.5 -128.5q0 -124 -67 -210q-67 -88 -173 -88zM313 561q109 0 168 105q-1 65 -36.5 99
t-96.5 34q-67 0 -109 -39q-43 -40 -43 -97q0 -47 31.5 -74.5t85.5 -27.5z" />
    <glyph glyph-name="plus.sups" unicode="&#x207a;" horiz-adv-x="628" 
d="M324 592h203v-38h-203v-182h-40v182h-203v38h203v182h40v-182z" />
    <glyph glyph-name="minus.sups" unicode="&#x207b;" horiz-adv-x="613" 
d="M512 554h-431v38h431v-38z" />
    <glyph glyph-name="parenleft.sups" unicode="&#x207d;" horiz-adv-x="352" 
d="M264 224h-40q-65 116 -65 251q0 128 56.5 253.5t160.5 223.5h43q-103 -101 -159 -228.5t-56 -256.5q0 -135 60 -243z" />
    <glyph glyph-name="parenright.sups" unicode="&#x207e;" horiz-adv-x="352" 
d="M110 224h-43q102 102 158.5 230t56.5 255q0 135 -60 243h39q65 -113 65 -250q0 -128 -56.5 -253.5t-159.5 -224.5z" />
    <glyph glyph-name="n.sups" unicode="&#x207f;" horiz-adv-x="604" 
d="M427 776q60 0 96.5 -31t36.5 -91q0 -21 -7 -57l-48 -225h-48l49 232q6 26 6 42q0 44 -27 66.5t-73 22.5q-96 0 -166 -99l-57 -264h-47l84 396h44l-13 -73q75 81 170 81z" />
    <glyph glyph-name="zero.subs" unicode="&#x2080;" horiz-adv-x="508" 
d="M164 -211q-77 0 -120.5 46.5t-43.5 128.5q0 32 8 70q21 107 82 166t149 59q77 0 120 -46t43 -128q0 -32 -8 -70q-22 -108 -82.5 -167t-147.5 -59zM166 -174q69 0 117 46.5t69 135.5q9 44 9 78q0 66 -33 102t-91 36q-72 0 -121 -50.5t-68 -145.5q-7 -34 -7 -64
q0 -66 33.5 -102t91.5 -36z" />
    <glyph glyph-name="one.subs" unicode="&#x2081;" horiz-adv-x="378" 
d="M157 -202h-42l64 302h-156l8 38h105q27 0 41 9.5t19 33.5l15 70h42z" />
    <glyph glyph-name="two.subs" unicode="&#x2082;" horiz-adv-x="490" 
d="M331 -202h-365q11 74 53 117.5t132 76.5l90 33q110 41 110 115q0 40 -32 62t-89 22q-125 0 -157 -110l-38 10q18 64 69.5 100t130.5 36q73 0 115.5 -31t42.5 -86q0 -99 -145 -153l-85 -32q-70 -27 -103 -55t-43 -68h322z" />
    <glyph glyph-name="three.subs" unicode="&#x2083;" horiz-adv-x="487" 
d="M159 -212q-79 0 -124.5 37.5t-47.5 101.5l40 6q1 -51 36 -80t96 -29q67 0 110.5 31.5t43.5 80.5q0 80 -120 80h-34l8 36h32q66 0 105.5 25t39.5 69q0 38 -32.5 58.5t-87.5 20.5q-120 0 -151 -91l-40 6q18 55 69.5 87.5t125.5 32.5q70 0 113.5 -29t43.5 -79
q0 -44 -30.5 -75.5t-80.5 -39.5l-1 -1q82 -21 82 -97q0 -67 -55 -109q-56 -42 -141 -42z" />
    <glyph glyph-name="four.subs" unicode="&#x2084;" horiz-adv-x="476" 
d="M262 -202h-41l26 123l-280 -3l9 39l337 294h46l-64 -300l70 4l-8 -37l-68 3zM306 204l-284 -250l232 -3l53 252z" />
    <glyph glyph-name="five.subs" unicode="&#x2085;" horiz-adv-x="488" 
d="M157 -211q-72 0 -119 32t-56 84l41 12q8 -42 43.5 -67t91.5 -25q72 0 117.5 39t45.5 99q0 48 -32.5 75.5t-87.5 27.5q-82 0 -141 -59l-38 17l94 227h287l-8 -35h-255l-66 -159l2 -1q61 44 135 44q70 0 110.5 -36.5t40.5 -98.5q0 -77 -57 -127q-56 -49 -148 -49z" />
    <glyph glyph-name="six.subs" unicode="&#x2086;" horiz-adv-x="501" 
d="M175 -212q-79 0 -124 45.5t-45 128.5q0 123 67 211q67 87 174 87q56 0 96.5 -26t56.5 -71l-35 -16q-29 78 -121 78q-77 0 -129.5 -60t-64.5 -160q66 89 175 89q67 0 106.5 -36t39.5 -96q0 -73 -54 -124q-55 -50 -142 -50zM178 -178q68 0 111 39q42 40 42 97
q0 47 -32 74.5t-85 27.5q-111 0 -168 -106q1 -64 36 -98t96 -34z" />
    <glyph glyph-name="seven.subs" unicode="&#x2087;" horiz-adv-x="438" 
d="M71 -202h-42q30 119 109.5 227.5t194.5 188.5h-307l8 37h361l-8 -36q-257 -171 -316 -417z" />
    <glyph glyph-name="eight.subs" unicode="&#x2088;" horiz-adv-x="530" 
d="M180 -211q-82 0 -131 33.5t-49 88.5q0 48 36.5 82.5t97.5 45.5v2q-70 21 -70 88q0 58 54.5 94.5t141.5 36.5q77 0 120.5 -28t43.5 -76q0 -42 -31.5 -74t-82.5 -42v-1q85 -28 85 -105q0 -66 -59.5 -105.5t-155.5 -39.5zM225 56q74 0 116.5 25.5t42.5 68.5q0 36 -33 56
t-94 20q-70 0 -112.5 -26.5t-42.5 -70.5q0 -73 123 -73zM182 -177q78 0 124.5 30t46.5 81q0 42 -35 64.5t-100 22.5q-82 0 -129 -28.5t-47 -77.5q0 -42 38 -67t102 -25z" />
    <glyph glyph-name="nine.subs" unicode="&#x2089;" horiz-adv-x="500" 
d="M147 -213q-56 0 -96.5 26t-56.5 71l35 16q28 -78 121 -78q77 0 129.5 60t64.5 160q-65 -89 -175 -89q-67 0 -106.5 36t-39.5 96q0 73 54 124q55 50 142 50q79 0 123.5 -45.5t44.5 -128.5q0 -123 -67 -211q-68 -87 -173 -87zM180 -13q110 0 168 105q-1 64 -36.5 98.5
t-95.5 34.5q-68 0 -110 -39q-43 -40 -43 -97q0 -47 31.5 -74.5t85.5 -27.5z" />
    <glyph glyph-name="plus.subs" unicode="&#x208a;" horiz-adv-x="628" 
d="M212 63h203v-38h-203v-182h-40v182h-203v38h203v182h40v-182z" />
    <glyph glyph-name="minus.subs" unicode="&#x208b;" horiz-adv-x="613" 
d="M400 25h-431v38h431v-38z" />
    <glyph glyph-name="equal.subs" unicode="&#x208c;" horiz-adv-x="613" 
d="M400 108h-431v38h431v-38zM400 -60h-431v39h431v-39z" />
    <glyph glyph-name="uni208D" unicode="&#x208d;" horiz-adv-x="352" 
d="M141 -349h-39q-65 112 -65 250q0 128 56.5 253.5t159.5 223.5h43q-103 -103 -159 -230t-56 -255q0 -133 60 -242z" />
    <glyph glyph-name="uni208E" unicode="&#x208e;" horiz-adv-x="352" 
d="M-12 -349h-43q103 101 159 228t56 256q0 135 -60 243h39q65 -113 65 -250q0 -128 -56.5 -253.5t-159.5 -223.5z" />
    <glyph glyph-name="n.subs" unicode="&#x2099;" horiz-adv-x="605" 
d="M305 202q60 0 96.5 -31t36.5 -90q0 -22 -7 -58l-48 -225h-48l49 232q6 26 6 42q0 44 -27 66.5t-73 22.5q-95 0 -166 -99l-57 -264h-47l84 396h44l-13 -73q75 81 170 81z" />
    <glyph glyph-name="Euro" unicode="&#x20ac;" horiz-adv-x="809" 
d="M626 731q-101 0 -182 -57t-128 -163h407l-10 -47h-604l10 47h143q55 128 150 197t223 69q76 0 139 -26l-11 -48q-57 28 -137 28zM209 274h-141l10 47h604l-10 -47h-413q5 -120 57 -177t159 -57q78 0 153 29l-10 -50q-71 -25 -148 -25q-251 0 -261 280z" />
    <glyph glyph-name="uni20B8" unicode="&#x20b8;" horiz-adv-x="629" 
d="M128 726l10 42h564l-10 -42h-564zM352 570h-256l9 42h563l-9 -42h-256l-121 -570h-52z" />
    <glyph glyph-name="uni20B9" unicode="&#x20b9;" horiz-adv-x="764" 
d="M242 768h559l-10 -44l-224 4q29 -68 12 -163l179 4l-9 -45l-178 4q-44 -147 -190 -181q69 -10 100.5 -43t36.5 -102l14 -202h-52l-11 182q-5 80 -48 111q-43 30 -150 30h-125l10 44h135q98 0 155 39.5t80 122.5l-336 -5l9 45l335 -5q15 89 -3 164l-299 -4z" />
    <glyph glyph-name="uni20BA" unicode="&#x20ba;" horiz-adv-x="721" 
d="M328 548l310 153l-10 -50l-527 -260l10 50l161 79l53 248h50zM623 255l41 -15q-48 -116 -145.5 -178t-229.5 -62h-128l57 269l-161 -79l11 50l527 260l-10 -50l-310 -152l-54 -252h77q118 0 201.5 53.5t123.5 155.5z" />
    <glyph glyph-name="uni20BC" unicode="&#x20bc;" horiz-adv-x="740" 
d="M478 768l-45 -211q220 0 220 -177q0 -34 -11 -86l-62 -294h-52l65 303q9 42 9 76q0 70 -43 104t-134 37l-84 -395h-50l84 395q-114 -4 -177 -57.5t-86 -164.5l-64 -298h-51l63 298q29 134 105.5 196.5t213.5 62.5h4l45 211h50z" />
    <glyph glyph-name="uni20BF" unicode="&#x20bf;" horiz-adv-x="814" 
d="M554 402q73 -12 112 -54t39 -109q0 -107 -74 -170q-75 -64 -197 -69l-30 -144h-44l31 144h-127l-31 -144h-44l31 144h-142l164 768h140l31 144h44l-31 -144h118h9l31 144h44l-32 -147q76 -11 116 -51t40 -103q0 -82 -53.5 -137.5t-144.5 -71.5zM531 726h-248l-65 -303
h251q104 0 166.5 49.5t62.5 134.5q0 58 -42.5 88.5t-124.5 30.5zM137 42h285q103 0 167 55t64 144q0 139 -189 139h-255z" />
    <glyph glyph-name="uni2105" unicode="&#x2105;" horiz-adv-x="1466" 
d="M464 -15h-51l648 798h49zM382 365q-86 0 -135 46.5t-49 129.5q0 97 62 165q61 67 164 67q70 0 115.5 -32.5t59.5 -90.5l-47 -7q-26 89 -129 89q-82 0 -129 -56q-47 -58 -47 -135q0 -65 37 -100t101 -35q105 0 147 99l46 -6q-24 -64 -74.5 -99t-121.5 -35zM1086 -10
q-84 0 -134 49.5t-50 130.5q0 98 65 165q65 65 162 65q84 0 134.5 -49t50.5 -130q0 -100 -65 -165q-65 -66 -163 -66zM1091 32q78 0 125.5 51t47.5 138q0 65 -37 101.5t-102 36.5q-78 0 -126 -52.5t-48 -136.5q0 -66 37 -102t103 -36z" />
    <glyph glyph-name="uni2113" unicode="&#x2113;" horiz-adv-x="573" 
d="M414 92l31 -33q-61 -75 -156 -75q-67 0 -105 38.5t-38 109.5v111l-99 -49l-18 41l117 45v355q0 72 35.5 111.5t102.5 39.5q147 0 147 -198q0 -123 -52 -193q-53 -71 -183 -128v-136q0 -50 25.5 -76.5t72.5 -26.5q74 0 120 64zM286 742q-90 0 -90 -107v-332
q110 56 149 116q40 61 40 165q0 158 -99 158z" />
    <glyph glyph-name="uni2116" unicode="&#x2116;" horiz-adv-x="1438" 
d="M1233 773q84 0 134 -49t50 -130q0 -100 -64 -164q-65 -66 -163 -66q-83 0 -134 50t-51 129q0 98 65 165q65 65 163 65zM295 768l351 -703l150 703h48l-164 -768h-53l-351 704l-150 -704h-48l164 768h53zM1194 405q78 0 126 51t48 138q0 66 -37 102.5t-103 36.5
q-78 0 -126 -53t-48 -137q0 -65 37.5 -101.5t102.5 -36.5z" />
    <glyph glyph-name="uni2117" unicode="&#x2117;" horiz-adv-x="1035" 
d="M251 673q115 113 290 113t291 -113q114 -113 114 -288t-114 -288q-116 -114 -291 -114q-176 0 -290 114q-115 112 -115 288t115 288zM541 21q159 0 261 103q101 103 101 261q0 157 -102 261q-102 102 -260 102t-260 -102q-102 -104 -102 -261q0 -159 102 -261
q102 -103 260 -103zM419 586h162q60 0 95 -33.5t35 -89.5q0 -58 -36 -92t-96 -34h-118v-157h-42v406zM461 373h113q95 0 95 90q0 42 -24.5 64.5t-69.5 22.5h-114v-177z" />
    <glyph glyph-name="trademark" unicode="&#x2122;" horiz-adv-x="1184" 
d="M366 356h-43v376h-135v36h313v-36h-135v-376zM668 356h-39v412h87l132 -387h13l131 387h89v-412h-42v388h-16l-131 -388h-76l-132 388h-16v-388z" />
    <glyph glyph-name="uni2126" unicode="&#x2126;" horiz-adv-x="1015" 
d="M434 0h-294v47h219v3q-216 114 -216 365q0 168 97 269q98 102 257 102t257 -102q96 -102 96 -269q0 -250 -217 -365v-3h222v-47h-295v46q240 110 240 367q0 147 -81 239q-82 91 -222 91q-141 0 -222 -89q-82 -89 -82 -240q0 -259 241 -368v-46z" />
    <glyph glyph-name="estimated" unicode="&#x212e;" horiz-adv-x="983" 
d="M492 785q132 0 233.5 -56t153.5 -151q50 -94 50 -205h-698q-15 0 -15 -14v-190q0 -33 17 -50q107 -104 259 -104q81 0 154 34t119 91h78q-45 -63 -134 -108q-88 -46 -217 -46q-198 0 -317 112q-121 112 -121 286t119 288q119 113 319 113zM492 756q-152 0 -259 -106
q-17 -17 -17 -47v-190q0 -15 15 -15h520q15 0 15 15v190q0 30 -17 47q-109 106 -257 106z" />
    <glyph glyph-name="uni2153" unicode="&#x2153;" horiz-adv-x="1296" 
d="M349 346h-41l63 302h-156l9 38h105q27 0 40.5 9.5t19.5 33.5l15 70h41zM306 -15h-51l648 798h49zM934 -10q-79 0 -124.5 37.5t-47.5 101.5l40 6q1 -51 36 -80t96 -29q67 0 110.5 31.5t43.5 80.5q0 80 -120 80h-34l8 36h32q66 0 105.5 25t39.5 69q0 38 -32.5 58.5
t-87.5 20.5q-120 0 -151 -91l-40 6q18 55 69.5 87.5t125.5 32.5q70 0 113 -29t43 -79q0 -44 -30.5 -76t-79.5 -39l-1 -1q82 -21 82 -97q0 -67 -55 -109t-141 -42z" />
    <glyph glyph-name="uni2154" unicode="&#x2154;" horiz-adv-x="1443" 
d="M520 346h-365q11 74 53 117.5t132 76.5l90 33q110 41 110 115q0 40 -32 62t-89 22q-126 0 -156 -110l-39 10q18 64 69.5 100t130.5 36q73 0 115.5 -31t42.5 -86q0 -99 -145 -153l-85 -32q-69 -27 -102 -55t-44 -68h322zM453 -15h-52l648 798h50zM1080 -10
q-78 0 -123.5 37.5t-48.5 101.5l41 6q1 -51 36 -80t96 -29q67 0 110 31.5t43 80.5q0 80 -120 80h-33l8 36h32q66 0 105.5 25t39.5 69q0 38 -32.5 58.5t-87.5 20.5q-121 0 -152 -91l-39 6q17 56 68.5 88t126.5 32q70 0 113 -29t43 -79q0 -44 -30.5 -75.5t-80.5 -39.5l-1 -1
q82 -21 82 -97q0 -67 -55 -109t-141 -42z" />
    <glyph glyph-name="uni2155" unicode="&#x2155;" horiz-adv-x="1296" 
d="M349 346h-41l63 302h-156l9 38h105q27 0 40.5 9.5t19.5 33.5l15 70h41zM306 -15h-51l648 798h49zM927 -9q-71 0 -118 32t-57 84l42 12q8 -42 43 -67t91 -25q72 0 118 39t46 99q0 48 -32.5 75.5t-88.5 27.5q-82 0 -141 -59l-37 17l94 227h286l-7 -35h-255l-66 -159l2 -1
q59 44 134 44q71 0 111.5 -36t40.5 -99q0 -77 -57 -127q-56 -49 -149 -49z" />
    <glyph glyph-name="uni2156" unicode="&#x2156;" horiz-adv-x="1419" 
d="M520 346h-365q11 74 53 117.5t132 76.5l90 33q110 41 110 115q0 40 -32 62t-89 22q-126 0 -156 -110l-39 10q18 64 69.5 100t130.5 36q73 0 115.5 -31t42.5 -86q0 -99 -145 -153l-85 -32q-69 -27 -102 -55t-44 -68h322zM429 -15h-51l648 798h49zM1050 -9q-71 0 -118 32
t-57 84l41 12q8 -42 43.5 -67t91.5 -25q72 0 117.5 39t45.5 99q0 48 -32.5 75.5t-87.5 27.5q-82 0 -141 -59l-37 17l94 227h286l-7 -35h-255l-66 -159l1 -1q61 44 135 44q71 0 111.5 -36t40.5 -99q0 -77 -57 -126q-59 -50 -149 -50z" />
    <glyph glyph-name="uni2157" unicode="&#x2157;" horiz-adv-x="1409" 
d="M351 336q-78 0 -123.5 37.5t-48.5 101.5l40 6q2 -51 37 -80t95 -29q67 0 110.5 31.5t43.5 80.5q0 80 -120 80h-33l7 36h32q67 0 106 25t39 69q0 38 -32.5 58.5t-87.5 20.5q-120 0 -151 -91l-40 6q18 55 70 87.5t126 32.5q70 0 113 -29t43 -79q0 -44 -30.5 -75.5
t-80.5 -39.5l-1 -1q82 -21 82 -97q0 -67 -55 -109q-56 -42 -141 -42zM419 -15h-51l648 798h49zM1040 -9q-71 0 -118 32t-57 84l41 12q9 -42 44 -67t91 -25q72 0 118 39t46 99q0 48 -33 75.5t-88 27.5q-82 0 -141 -59l-37 17l94 227h286l-7 -35h-255l-66 -159l1 -1
q61 44 135 44q71 0 111.5 -36t40.5 -99q0 -77 -57 -126q-59 -50 -149 -50z" />
    <glyph glyph-name="uni2158" unicode="&#x2158;" horiz-adv-x="1428" 
d="M472 346h-41l26 123l-280 -3l9 39l337 294h46l-64 -300l70 4l-8 -37l-68 3zM439 -15h-52l648 798h50zM516 752l-284 -250l232 -3l53 252zM1060 -9q-72 0 -119 32t-56 84l41 12q8 -42 43.5 -67t91.5 -25q72 0 117.5 39t45.5 99q0 48 -32.5 75.5t-87.5 27.5q-82 0 -141 -59
l-38 17l94 227h286l-7 -35h-255l-66 -159l2 -1q61 44 135 44q70 0 110.5 -36.5t40.5 -98.5q0 -77 -57 -127q-56 -49 -148 -49z" />
    <glyph glyph-name="uni2159" unicode="&#x2159;" horiz-adv-x="1285" 
d="M349 346h-41l63 302h-156l9 38h105q27 0 40.5 9.5t19.5 33.5l15 70h41zM306 -15h-51l648 798h49zM926 -10q-79 0 -123.5 45.5t-44.5 128.5q0 123 67 211q68 87 173 87q56 0 96.5 -26t56.5 -71l-35 -16q-28 78 -121 78q-77 0 -129.5 -60t-64.5 -160q68 89 175 89
q68 0 107 -36t39 -96q0 -74 -54 -123q-54 -51 -142 -51zM930 24q67 0 110 40q42 39 42 96q0 47 -31.5 74.5t-84.5 27.5q-112 0 -169 -106q1 -64 36.5 -98t96.5 -34z" />
    <glyph glyph-name="uni215A" unicode="&#x215a;" horiz-adv-x="1378" 
d="M348 337q-71 0 -118 32t-57 84l41 12q9 -42 44 -67t91 -25q72 0 118 39t46 99q0 48 -33 75.5t-88 27.5q-82 0 -141 -59l-37 17l94 227h286l-7 -35h-255l-66 -159l2 -1q59 44 134 44q71 0 111.5 -36t40.5 -99q0 -77 -57 -127q-56 -49 -149 -49zM400 -15h-52l648 798h50z
M1019 -10q-79 0 -123.5 45.5t-44.5 128.5q0 123 67 211q68 87 173 87q56 0 96.5 -26t56.5 -71l-35 -16q-29 78 -121 78q-76 0 -129 -60q-54 -63 -64 -160q66 89 174 89q68 0 107 -36t39 -96q0 -74 -54 -123q-54 -51 -142 -51zM1023 24q67 0 110 40q42 39 42 96
q0 47 -31.5 74.5t-84.5 27.5q-112 0 -169 -106q1 -64 36.5 -98t96.5 -34z" />
    <glyph glyph-name="oneeighth" unicode="&#x215b;" horiz-adv-x="1325" 
d="M349 346h-41l63 302h-156l9 38h105q27 0 40.5 9.5t19.5 33.5l15 70h41zM306 -15h-51l648 798h49zM942 -9q-82 0 -131 33.5t-49 88.5q0 48 36.5 82.5t97.5 45.5l1 2q-71 21 -71 88q0 58 54.5 94.5t141.5 36.5q77 0 121 -28t44 -76q0 -42 -31.5 -74t-83.5 -42v-1
q85 -28 85 -105q0 -66 -59.5 -105.5t-155.5 -39.5zM988 258q74 0 116.5 25.5t42.5 68.5q0 36 -33.5 56t-94.5 20q-70 0 -112 -26.5t-42 -70.5q0 -73 123 -73zM945 25q78 0 124.5 30t46.5 81q0 42 -35.5 64.5t-100.5 22.5q-82 0 -129 -28.5t-47 -77.5q0 -42 38.5 -67
t102.5 -25z" />
    <glyph glyph-name="threeeighths" unicode="&#x215c;" horiz-adv-x="1438" 
d="M351 336q-78 0 -123.5 37.5t-48.5 101.5l40 6q2 -51 37 -80t95 -29q67 0 110.5 31.5t43.5 80.5q0 80 -120 80h-33l7 36h32q67 0 106 25t39 69q0 38 -32.5 58.5t-87.5 20.5q-120 0 -151 -91l-40 6q18 55 70 87.5t126 32.5q70 0 113 -29t43 -79q0 -44 -30.5 -75.5
t-80.5 -39.5l-1 -1q82 -21 82 -97q0 -67 -55 -109q-56 -42 -141 -42zM419 -15h-51l648 798h49zM1055 -9q-82 0 -131 33.5t-49 88.5q0 48 36.5 82.5t97.5 45.5l1 2q-71 21 -71 88q0 58 54.5 94.5t141.5 36.5q77 0 121 -28t44 -76q0 -42 -32 -74t-83 -42v-1q85 -28 85 -105
q0 -66 -59.5 -105.5t-155.5 -39.5zM1101 258q74 0 116.5 25.5t42.5 68.5q0 36 -33.5 56t-94.5 20q-70 0 -112.5 -26.5t-42.5 -70.5q0 -73 124 -73zM1057 25q78 0 125 30t47 81q0 42 -35.5 64.5t-100.5 22.5q-82 0 -129 -28.5t-47 -77.5q0 -42 38 -67t102 -25z" />
    <glyph glyph-name="fiveeighths" unicode="&#x215d;" horiz-adv-x="1418" 
d="M348 337q-71 0 -118 32t-57 84l41 12q9 -42 44 -67t91 -25q72 0 118 39t46 99q0 48 -33 75.5t-88 27.5q-82 0 -141 -59l-37 17l94 227h286l-7 -35h-255l-66 -159l2 -1q59 44 134 44q71 0 111.5 -36t40.5 -99q0 -77 -57 -127q-56 -49 -149 -49zM400 -15h-52l648 798h50z
M1035 -9q-81 0 -130 33.5t-49 88.5q0 48 36 82.5t97 45.5l1 2q-71 21 -71 88q0 58 54.5 94.5t141.5 36.5q77 0 121 -28t44 -76q0 -42 -31.5 -74t-83.5 -42v-1q85 -28 85 -105q0 -66 -59.5 -105.5t-155.5 -39.5zM1081 258q74 0 116.5 25.5t42.5 68.5q0 36 -33.5 56t-94.5 20
q-70 0 -112 -26.5t-42 -70.5q0 -73 123 -73zM1038 25q78 0 124.5 30t46.5 81q0 42 -35.5 64.5t-100.5 22.5q-81 0 -128.5 -28.5t-47.5 -77.5q0 -42 38.5 -67t102.5 -25z" />
    <glyph glyph-name="seveneighths" unicode="&#x215e;" horiz-adv-x="1286" 
d="M285 346h-42q30 119 109.5 227.5t194.5 188.5h-307l8 37h361l-8 -36q-257 -171 -316 -417zM268 -15h-52l648 798h50zM904 -9q-82 0 -131 33.5t-49 88.5q0 48 36 82.5t97 45.5l1 2q-71 21 -71 88q0 58 54.5 94.5t142.5 36.5q76 0 120 -28t44 -76q0 -42 -31.5 -74
t-83.5 -42v-1q86 -29 86 -105q0 -66 -59.5 -105.5t-155.5 -39.5zM949 258q74 0 116.5 25.5t42.5 68.5q0 36 -33.5 56t-94.5 20q-70 0 -112 -26.5t-42 -70.5q0 -73 123 -73zM906 25q78 0 124.5 30t46.5 81q0 42 -35.5 64.5t-100.5 22.5q-81 0 -128 -28.5t-47 -77.5
q0 -42 38 -67t102 -25z" />
    <glyph glyph-name="arrowleft" unicode="&#x2190;" horiz-adv-x="1000" 
d="M209 409h702v-50h-702l137 -179l135 -180h-61l-289 384l289 384h61l-135 -180z" />
    <glyph glyph-name="arrowup" unicode="&#x2191;" horiz-adv-x="1000" 
d="M159 491l381 289l382 -289v-60l-177 133l-180 138v-702h-50v702l-179 -138l-177 -133v60z" />
    <glyph glyph-name="arrowright" unicode="&#x2192;" horiz-adv-x="1001" 
d="M566 768h61l289 -384l-289 -384h-61l135 180l137 179h-702v50h702l-137 179z" />
    <glyph glyph-name="arrowdown" unicode="&#x2193;" horiz-adv-x="1000" 
d="M531 66l180 138l177 133v-60l-382 -289l-381 289v60l178 -133l178 -138v702h50v-702z" />
    <glyph glyph-name="arrowboth" unicode="&#x2194;" horiz-adv-x="1256" 
d="M822 768h60l290 -384l-290 -384h-60l134 180l138 179h-885l137 -179l135 -180h-61l-289 384l289 384h61l-135 -180l-137 -179h885l-138 179z" />
    <glyph glyph-name="arrowupdn" unicode="&#x2195;" horiz-adv-x="1092" 
d="M594 -60l180 138l179 135v-61l-384 -289l-384 289v61l180 -135l179 -137v887l-180 -138l-180 -135v61l384 289l384 -289v-61l-179 135l-179 137v-887z" />
    <glyph glyph-name="uni2196" unicode="&#x2196;" horiz-adv-x="1014" 
d="M253 662l627 -628l-34 -34l-627 628l3 -138v-473h-49v691h691v-49h-467z" />
    <glyph glyph-name="uni2197" unicode="&#x2197;" horiz-adv-x="1000" 
d="M174 659v49h691v-691h-49v473l3 138l-628 -628l-33 34l627 628l-144 -3h-467z" />
    <glyph glyph-name="uni2198" unicode="&#x2198;" horiz-adv-x="1014" 
d="M826 218v473h48v-691h-690v49h466l145 -3l-628 628l34 34l628 -629z" />
    <glyph glyph-name="uni2199" unicode="&#x2199;" horiz-adv-x="1000" 
d="M876 674l-627 -628l144 3h467v-49h-691v691h49v-473l-3 -138l628 628z" />
    <glyph glyph-name="partialdiff" unicode="&#x2202;" horiz-adv-x="729" 
d="M371 783q259 0 259 -396q0 -198 -63.5 -300.5t-185.5 -102.5q-102 0 -162 68q-61 67 -61 177t62 175t161 65q125 0 199 -102v11q0 186 -52 273t-160 87q-72 0 -147 -35l-19 41q84 39 169 39zM384 28q174 0 193 271q-61 126 -194 126q-81 0 -128 -52.5t-47 -142.5
q0 -91 47.5 -146.5t128.5 -55.5z" />
    <glyph glyph-name="uni2206" unicode="&#x2206;" horiz-adv-x="737" 
d="M272 768h69l308 -768h-682zM298 706l-261 -662h541l-262 662l-9 26z" />
    <glyph glyph-name="product" unicode="&#x220f;" horiz-adv-x="1082" 
d="M241 768h603v-972h-51v928h-501v-928h-51v972z" />
    <glyph glyph-name="summation" unicode="&#x2211;" horiz-adv-x="958" 
d="M607 287l-349 -443h496v-48h-560v43l353 448l-340 438v43h535v-48h-470z" />
    <glyph glyph-name="minus" unicode="&#x2212;" horiz-adv-x="740" 
d="M634 315h-529v50h529v-50z" />
    <glyph glyph-name="uni2215" unicode="&#x2215;" horiz-adv-x="343" 
d="M-102 -15h-52l648 798h50z" />
    <glyph glyph-name="uni2219" unicode="&#x2219;" horiz-adv-x="388" 
d="M257 224h-147l32 147h146z" />
    <glyph glyph-name="radical" unicode="&#x221a;" horiz-adv-x="740" 
d="M455 -204h-68l-130 357l-124 -48l-16 41l167 64l132 -365l198 958h48z" />
    <glyph glyph-name="infinity" unicode="&#x221e;" horiz-adv-x="876" 
d="M257 181q-71 0 -112.5 46t-41.5 121t42 121t111 46q54 0 100.5 -32.5t96.5 -105.5q52 74 97.5 106t99.5 32q69 0 111 -46t42 -121t-41.5 -121.5t-111.5 -46.5q-104 0 -197 135q-52 -72 -97 -103t-99 -31zM651 223q50 0 80 34.5t30 89.5q0 57 -30.5 91.5t-81.5 34.5
q-44 0 -83 -30t-85 -96q42 -65 82.5 -94.5t87.5 -29.5zM257 224q45 0 84 28.5t84 94.5q-47 67 -86.5 96t-82.5 29q-50 0 -80 -34.5t-30 -90.5q0 -55 30.5 -89t80.5 -34z" />
    <glyph glyph-name="integral" unicode="&#x222b;" horiz-adv-x="740" 
d="M271 -204h-37v44h32q79 0 79 84v753q0 62 32 94t92 32h36v-44h-32q-78 0 -78 -84v-753q0 -62 -32 -94t-92 -32z" />
    <glyph glyph-name="approxequal" unicode="&#x2248;" horiz-adv-x="740" 
d="M156 384h-44q0 85 37 130.5t99 45.5q32 0 60.5 -13.5t49 -33t40.5 -39t44 -33t50 -13.5q42 0 66.5 34.5t24.5 97.5h45q0 -85 -37 -130.5t-99 -45.5q-36 0 -71.5 19.5t-58.5 47.5q-60 66 -115 66q-43 0 -67 -34.5t-24 -98.5zM156 134h-44q0 85 37 130.5t99 45.5
q32 0 60.5 -13.5t49 -33t40.5 -39t44 -33t50 -13.5q42 0 66.5 34.5t24.5 97.5h45q0 -85 -37 -130.5t-99 -45.5q-36 0 -71.5 19.5t-58.5 47.5q-60 66 -115 66q-43 0 -67 -34.5t-24 -98.5z" />
    <glyph glyph-name="notequal" unicode="&#x2260;" horiz-adv-x="740" 
d="M634 471v-44h-201l-78 -175h279v-44h-299l-92 -207l-33 13l86 194h-191v44h211l78 175h-289v44h309l92 207l33 -13l-86 -194h181z" />
    <glyph glyph-name="lessequal" unicode="&#x2264;" horiz-adv-x="740" 
d="M105 414l529 183v-48l-480 -161l480 -159v-49l-529 182v52zM634 -2h-529v49h529v-49z" />
    <glyph glyph-name="greaterequal" unicode="&#x2265;" horiz-adv-x="740" 
d="M106 549v48l529 -183v-52l-529 -182v49l480 159zM635 -2h-529v49h529v-49z" />
    <glyph glyph-name="uni2460" unicode="&#x2460;" horiz-adv-x="1298" 
d="M677 -117q-230 0 -382 149t-152 375q0 227 152 376t382 149q231 0 383 -149q151 -148 151 -376q0 -227 -151 -375q-150 -149 -383 -149zM330 64q136 -137 347 -137t348 137t137 343q0 208 -137 345q-137 136 -348 136t-347 -136q-138 -136 -138 -345q0 -207 138 -343z
M738 159h-46v331h-171v43h115q30 0 43 10t13 37v77h46v-498z" />
    <glyph glyph-name="uni2461" unicode="&#x2461;" horiz-adv-x="1298" 
d="M677 -117q-230 0 -382 149t-152 375q0 227 152 376t382 149q231 0 383 -149q151 -148 151 -376q0 -227 -151 -375q-150 -149 -383 -149zM330 64q136 -137 347 -137t348 137t137 343q0 208 -137 345q-137 136 -348 136t-347 -136q-138 -136 -138 -345q0 -207 138 -343z
M888 171h-404q0 79 37 125t128 88l88 38q51 23 73 49t22 62q0 50 -38.5 78.5t-108.5 28.5q-145 0 -152 -123l-45 4q3 73 55 115.5t144 42.5q90 0 140 -39t50 -107q0 -51 -28.5 -85t-95.5 -64l-83 -38q-72 -33 -101.5 -62.5t-31.5 -71.5h351v-41z" />
    <glyph glyph-name="uni2462" unicode="&#x2462;" horiz-adv-x="1298" 
d="M677 -117q-230 0 -382 149t-152 375q0 227 152 376t382 149q231 0 383 -149q151 -148 151 -376q0 -227 -151 -375q-150 -149 -383 -149zM330 64q136 -137 347 -137t348 137t137 343q0 208 -137 345q-137 136 -348 136t-347 -136q-138 -136 -138 -345q0 -207 138 -343z
M688 152q-89 0 -142.5 41t-61.5 113l45 6q5 -58 47 -89t114 -31q70 0 110 29.5t40 79.5q0 49 -39 75t-111 26h-37v40h35q65 0 101 25t36 71q0 45 -38.5 69.5t-105.5 24.5q-68 0 -107 -26t-45 -73l-43 6q9 61 61 96.5t135 35.5q84 0 135.5 -34.5t51.5 -95.5q0 -45 -25.5 -75
t-70.5 -40v-1q53 -8 82.5 -40t29.5 -83q0 -68 -53.5 -109t-143.5 -41z" />
    <glyph glyph-name="uni2463" unicode="&#x2463;" horiz-adv-x="1298" 
d="M677 -117q-230 0 -382 149t-152 375q0 227 152 376t382 149q231 0 383 -149q151 -148 151 -376q0 -227 -151 -375q-150 -149 -383 -149zM330 64q136 -137 347 -137t348 137t137 343q0 208 -137 345q-137 136 -348 136t-347 -136q-138 -136 -138 -345q0 -207 138 -343z
M796 167h-46v136l-308 -4v44l303 322h51v-329l76 4v-41l-76 4v-136zM749 612l-255 -273l256 -3v276h-1z" />
    <glyph glyph-name="uni2464" unicode="&#x2464;" horiz-adv-x="1298" 
d="M677 -117q-230 0 -382 149t-152 375q0 227 152 376t382 149q231 0 383 -149q151 -148 151 -376q0 -227 -151 -375q-150 -149 -383 -149zM330 64q136 -137 347 -137t348 137t137 343q0 208 -137 345q-137 136 -348 136t-347 -136q-138 -136 -138 -345q0 -207 138 -343z
M683 153q-78 0 -132 35t-69 94l44 12q12 -46 54.5 -73.5t105.5 -27.5q72 0 114 36.5t42 99.5q0 61 -41.5 96t-113.5 35q-90 0 -148 -64l-41 9l52 257h315v-38h-281l-35 -175l2 -1q56 48 143 48q89 0 141 -44.5t52 -122.5q0 -81 -54.5 -128.5t-149.5 -47.5z" />
    <glyph glyph-name="uni2465" unicode="&#x2465;" horiz-adv-x="1298" 
d="M677 -117q-230 0 -382 149t-152 375q0 227 152 376t382 149q231 0 383 -149q151 -148 151 -376q0 -227 -151 -375q-150 -149 -383 -149zM330 64q136 -137 347 -137t348 137t137 343q0 208 -137 345q-137 136 -348 136t-347 -136q-138 -136 -138 -345q0 -207 138 -343z
M692 151q-102 0 -157 64t-55 174q0 281 213 281q69 0 117 -29t66 -80l-40 -12q-31 82 -143 82q-86 0 -125.5 -56t-41.5 -179q22 40 67.5 64.5t101.5 24.5q88 0 139 -44.5t51 -118.5q0 -76 -53 -123.5t-140 -47.5zM693 189q66 0 107.5 37t41.5 96q0 57 -41.5 91.5
t-112.5 34.5q-56 0 -99 -30t-60 -79q10 -75 52.5 -112.5t111.5 -37.5z" />
    <glyph glyph-name="uni2466" unicode="&#x2466;" horiz-adv-x="1298" 
d="M677 -117q-230 0 -382 149t-152 375q0 227 152 376t382 149q231 0 383 -149q151 -148 151 -376q0 -227 -151 -375q-150 -149 -383 -149zM330 64q136 -137 347 -137t348 137t137 343q0 208 -137 345q-137 136 -348 136t-347 -136q-138 -136 -138 -345q0 -207 138 -343z
M649 140h-46q5 130 67 249.5t170 208.5h-338v40h397v-38q-244 -190 -250 -460z" />
    <glyph glyph-name="uni2467" unicode="&#x2467;" horiz-adv-x="1298" 
d="M677 -117q-230 0 -382 149t-152 375q0 227 152 376t382 149q231 0 383 -149q151 -148 151 -376q0 -227 -151 -375q-150 -149 -383 -149zM330 64q136 -137 347 -137t348 137t137 343q0 208 -137 345q-137 136 -348 136t-347 -136q-138 -136 -138 -345q0 -207 138 -343z
M682 157q-97 0 -155 40t-58 109q0 50 30 83t85 44v2q-44 10 -70.5 40.5t-26.5 70.5q0 61 51.5 95.5t143.5 34.5t144 -34.5t52 -95.5q0 -41 -26 -70.5t-71 -40.5v-2q53 -11 84 -45t31 -82q0 -69 -58 -109t-156 -40zM682 451q153 0 153 94q0 44 -40.5 68.5t-112.5 24.5
t-112 -24.5t-40 -68.5q0 -94 152 -94zM682 195q78 0 123.5 30t45.5 81q0 52 -43.5 79.5t-125.5 27.5q-80 0 -124 -27.5t-44 -79.5q0 -50 45.5 -80.5t122.5 -30.5z" />
    <glyph glyph-name="uni2468" unicode="&#x2468;" horiz-adv-x="1298" 
d="M677 -117q-230 0 -382 149t-152 375q0 227 152 376t382 149q231 0 383 -149q151 -148 151 -376q0 -227 -151 -375q-150 -149 -383 -149zM330 64q136 -137 347 -137t348 137t137 343q0 208 -137 345q-137 136 -348 136t-347 -136q-138 -136 -138 -345q0 -207 138 -343z
M683 151q-69 0 -117 29t-66 80l40 13q30 -83 143 -83q86 0 125.5 56.5t41.5 178.5q-24 -41 -69 -65t-101 -24q-87 0 -138.5 45t-51.5 118q0 76 53.5 123.5t140.5 47.5q101 0 156 -63.5t55 -174.5q0 -281 -212 -281zM688 373q56 0 98.5 29.5t60.5 80.5q-11 74 -53.5 111.5
t-110.5 37.5q-66 0 -107.5 -37t-41.5 -96q0 -58 41 -92t113 -34z" />
    <glyph glyph-name="uni24EA" unicode="&#x24ea;" horiz-adv-x="1298" 
d="M677 -117q-230 0 -382 149t-152 375q0 227 152 376t382 149q231 0 383 -149q151 -148 151 -376q0 -227 -151 -375q-150 -149 -383 -149zM330 64q136 -137 347 -137t348 137t137 343q0 208 -137 345q-137 136 -348 136t-347 -136q-138 -136 -138 -345q0 -207 138 -343z
M836 222q-57 -69 -159 -69q-103 0 -158 69q-57 68 -57 191q0 124 56 191.5t159 67.5t159 -67.5t56 -191.5q0 -123 -56 -191zM551 250q44 -56 126 -56t126 56t44 163q0 106 -44.5 163t-125.5 57t-125.5 -57t-44.5 -163q0 -107 44 -163z" />
    <glyph glyph-name="uni24FF" unicode="&#x24ff;" horiz-adv-x="1298" 
d="M677 -117q-230 0 -382 149t-152 375q0 227 152 376t382 149q231 0 383 -149q151 -148 151 -376q0 -227 -151 -375q-150 -149 -383 -149zM519 222q55 -69 158 -69q102 0 159 69q56 68 56 191q0 124 -56 191.5t-159 67.5t-159 -67.5t-56 -191.5q0 -123 57 -191zM803 250
q-44 -56 -126 -56t-126 56t-44 163q0 106 44.5 163t125.5 57t125.5 -57t44.5 -163q0 -107 -44 -163z" />
    <glyph glyph-name="filledbox" unicode="&#x25a0;" horiz-adv-x="1434" 
d="M1221 -88h-962v941h962v-941z" />
    <glyph glyph-name="uni25A1" unicode="&#x25a1;" horiz-adv-x="1434" 
d="M1221 -88h-962v941h962v-941zM308 809v-853h864v853h-864z" />
    <glyph glyph-name="lozenge" unicode="&#x25ca;" horiz-adv-x="619" 
d="M299 768h67l208 -384l-208 -384h-67l-208 384zM144 384l189 -354l188 354l-188 354z" />
    <glyph glyph-name="circle" unicode="&#x25cb;" horiz-adv-x="1298" 
d="M677 -117q-230 0 -382 149t-152 375q0 227 152 376t382 149q231 0 383 -149q151 -148 151 -376q0 -227 -151 -375q-150 -149 -383 -149zM330 64q136 -137 347 -137t348 137t137 343q0 208 -137 345q-137 136 -348 136t-347 -136q-138 -136 -138 -345q0 -207 138 -343z
" />
    <glyph glyph-name="uni25CF" unicode="&#x25cf;" horiz-adv-x="1298" 
d="M677 -117q-230 0 -382 149t-152 375q0 227 152 376t382 149q231 0 383 -149q151 -148 151 -376q0 -227 -151 -375q-150 -149 -383 -149z" />
    <glyph glyph-name="uni2776" unicode="&#x2776;" horiz-adv-x="1298" 
d="M677 -117q-230 0 -382 149t-152 375q0 227 152 376t382 149q231 0 383 -149q151 -148 151 -376q0 -227 -151 -375q-150 -149 -383 -149zM694 490v-331h45v498h-45v-77q0 -26 -13.5 -36.5t-43.5 -10.5h-115v-43h172z" />
    <glyph glyph-name="uni2777" unicode="&#x2777;" horiz-adv-x="1298" 
d="M677 932q231 0 383 -149q151 -148 151 -376q0 -227 -151 -375q-150 -149 -383 -149q-230 0 -382 149t-152 375q0 227 152 376t382 149zM480 175h405v41h-351q2 42 32 72.5t101 62.5l82 37q67 30 96 64t29 85q0 68 -50.5 107t-140.5 39q-91 0 -143.5 -42.5t-55.5 -114.5
l45 -4q9 122 152 122q70 0 109 -28.5t39 -78.5q0 -36 -22.5 -62t-72.5 -49l-88 -38q-89 -39 -128 -88q-38 -47 -38 -125z" />
    <glyph glyph-name="uni2778" unicode="&#x2778;" horiz-adv-x="1298" 
d="M677 -117q-230 0 -382 149t-152 375q0 227 152 376t382 149q231 0 383 -149q151 -148 151 -376q0 -227 -151 -375q-150 -149 -383 -149zM686 152q90 0 143 40.5t53 109.5q0 51 -29.5 83t-81.5 40v1q43 10 69 40.5t26 74.5q0 61 -51 95.5t-136 34.5q-83 0 -135 -35.5
t-60 -96.5l42 -6q7 47 46 73t106 26t105.5 -24.5t38.5 -69.5q0 -46 -36 -71t-101 -25h-35v-40h37q72 0 111.5 -26t39.5 -75q0 -50 -40.5 -79.5t-110.5 -29.5q-72 0 -113.5 31t-47.5 89l-44 -6q8 -72 61.5 -113t142.5 -41z" />
    <glyph glyph-name="uni2779" unicode="&#x2779;" horiz-adv-x="1298" 
d="M677 -117q-230 0 -382 149t-152 375q0 227 152 376t382 149q231 0 383 -149q151 -148 151 -376q0 -227 -151 -375q-150 -149 -383 -149zM742 309v-135h46v135l76 -3v41l-76 -4v329h-50l-303 -323v-43zM742 343l-255 3l254 273h1v-276z" />
    <glyph glyph-name="uni277A" unicode="&#x277a;" horiz-adv-x="1298" 
d="M677 932q231 0 383 -149q151 -148 151 -376q0 -227 -151 -375q-150 -149 -383 -149q-230 0 -382 149t-152 375q0 227 152 376t382 149zM682 153q95 0 149.5 47.5t54.5 128.5q0 78 -52 122.5t-142 44.5q-88 0 -143 -48l-2 1l36 175h280v38h-315l-52 -257l41 -9
q58 64 149 64q72 0 113.5 -35t41.5 -96q0 -62 -42 -99t-115 -37q-63 0 -105.5 27.5t-54.5 73.5l-43 -12q14 -59 68.5 -94t132.5 -35z" />
    <glyph glyph-name="uni277B" unicode="&#x277b;" horiz-adv-x="1298" 
d="M677 -117q-230 0 -382 149t-152 375q0 227 152 376t382 149q231 0 383 -149q151 -148 151 -376q0 -227 -151 -375q-150 -149 -383 -149zM688 153q87 0 140 47.5t53 123.5q0 74 -51.5 118.5t-139.5 44.5q-56 0 -101.5 -24.5t-67.5 -64.5q2 122 42 178.5t126 56.5
q112 0 142 -82l40 12q-18 51 -65.5 80t-116.5 29q-214 0 -214 -281q0 -110 55.5 -174t157.5 -64zM689 191q-69 0 -112 38t-52 112q17 49 59.5 79t98.5 30q72 0 113 -34t41 -92q0 -59 -41.5 -96t-106.5 -37z" />
    <glyph glyph-name="uni277C" unicode="&#x277c;" horiz-adv-x="1298" 
d="M677 -117q-230 0 -382 149t-152 375q0 227 152 376t382 149q231 0 383 -149q151 -148 151 -376q0 -227 -151 -375q-150 -149 -383 -149zM595 145h46q8 272 251 460v38h-398v-40h339q-108 -89 -170 -208.5t-68 -249.5z" />
    <glyph glyph-name="uni277D" unicode="&#x277d;" horiz-adv-x="1298" 
d="M677 -117q-230 0 -382 149t-152 375q0 227 152 376t382 149q231 0 383 -149q151 -148 151 -376q0 -227 -151 -375q-150 -149 -383 -149zM678 156q97 0 155 40t58 109q0 48 -31 82t-84 45v2q45 11 71 40.5t26 70.5q0 61 -51.5 95.5t-143.5 34.5t-144 -34.5t-52 -95.5
q0 -40 26.5 -70.5t70.5 -40.5v-2q-55 -11 -85 -44t-30 -83q0 -69 58 -109t156 -40zM678 450q-153 0 -153 94q0 44 40 68.5t113 24.5q72 0 112 -24.5t40 -68.5q0 -94 -152 -94zM802 225q-46 -31 -124 -31q-79 0 -123 31q-46 30 -46 80q0 52 44 79.5t125 27.5t125 -27.5
t44 -79.5q0 -50 -45 -80z" />
    <glyph glyph-name="uni277E" unicode="&#x277e;" horiz-adv-x="1298" 
d="M677 -117q-230 0 -382 149t-152 375q0 227 152 376t382 149q231 0 383 -149q151 -148 151 -376q0 -227 -151 -375q-150 -149 -383 -149zM679 152q213 0 213 281q0 110 -55.5 174t-156.5 64q-87 0 -140 -47.5t-53 -123.5q0 -73 51.5 -118t138.5 -45q56 0 101 24t69 65
q-2 -122 -42 -178.5t-126 -56.5q-112 0 -142 83l-41 -13q18 -51 66 -80t117 -29zM684 374q-71 0 -112.5 34.5t-41.5 91.5q0 59 41.5 96t107.5 37q69 0 111.5 -37.5t52.5 -111.5q-17 -50 -60 -80t-99 -30z" />
    <glyph glyph-name="uni2E18" unicode="&#x2e18;" horiz-adv-x="730" 
d="M404 548h70l-15 -71h-70zM542 8l49 -4q-27 -106 -105.5 -161.5t-196.5 -55.5q-114 0 -181 48t-67 132q0 126 171 208l48 24q59 29 81 61q22 31 45 118h35l-53 -284l-24 -115h-51l24 115l29 120q-35 -33 -89 -58q-89 -40 -129 -83.5t-40 -101.5q0 -68 53.5 -105t147.5 -37
q208 0 253 179z" />
    <glyph glyph-name="uniF8FF" unicode="&#xf8ff;" horiz-adv-x="1352" 
d="M576 484h-27v191q0 39 -21 62q-23 23 -60 23q-70 0 -101 -75v-201h-27v410h27v-172q37 60 105 60q52 0 78 -29q26 -31 26 -79v-190zM1058 894h27v-410h-27v410zM920 562l24 -3q-32 -83 -124 -83q-63 0 -100.5 42.5t-37.5 112.5q0 69 36.5 110.5t99.5 41.5t98 -40t35 -108
v-11h-243q1 -59 31.5 -92t81.5 -33q71 0 99 63zM818 762q-48 0 -77 -31t-33 -85h218q-3 55 -30.5 85.5t-77.5 30.5zM1137 305v-11h-243q1 -59 31.5 -92t81.5 -33q71 0 99 63l24 -3q-32 -83 -124 -83q-63 0 -100.5 42.5t-37.5 112.5q0 69 36.5 110.5t99.5 41.5t98 -40
t35 -108zM685 203l97 243h26l-118 -292h-31l-119 292h28l97 -243q9 -20 10 -27q4 9 10 27zM1004 432q-48 0 -77 -31t-33 -85h218q-3 55 -30.5 85.5t-77.5 30.5zM439 184h-35v49h35v-49zM202 195v-70l-2 -14l110 2v-22l-110 3l2 -26v-167q0 -58 55 -58h53v-22h-57
q-77 0 -77 80v167l2 26l-76 -3v22l75 -2l-1 14v70h26zM672 -162q83 0 99 85l26 -2q-10 -52 -42.5 -79.5t-82.5 -27.5q-62 0 -96.5 41.5t-34.5 111.5q0 72 34 112.5t96 40.5q102 0 123 -92l-27 -1q-16 70 -96 70q-104 0 -104 -130q0 -61 27.5 -95t77.5 -34zM1009 120
q112 0 112 -90v-142v-67h-22q-1 17 -4 53q-29 -60 -113 -60q-48 0 -75 22.5t-27 61.5q0 69 104 87l60 11q38 6 51 18v16q0 35 -20.5 51.5t-66.5 16.5q-45 0 -66.5 -15t-26.5 -48l-25 3q13 82 119 82zM435 -179h-26v292h26v-292zM986 -165q41 0 69.5 20.5t38.5 56.5v79
q-16 -11 -48 -15l-58 -10q-81 -14 -81 -67q0 -30 20.5 -47t58.5 -17z" />
    <glyph glyph-name="uniFEFF" unicode="&#xfeff;" 
 />
    <glyph glyph-name="null" 
 />
    <glyph glyph-name="Adieresis.ss01" horiz-adv-x="737" 
d="M399 883q-26 -2 -37 20.5t0 44.5t37 19q18 0 30 -11.5t12 -29.5q0 -19 -12 -31t-30 -12zM638 895q-12 -12 -31 -12t-31 12t-12 31t12 30t31 11t31 -11q11 -11 11 -30t-11 -31zM-33 0l468 768h69l145 -768h-51l-42 227h-396l-137 -227h-56zM450 706l-263 -435h361l-80 435
l-3 27z" />
    <glyph glyph-name="Cdotaccent.ss01" horiz-adv-x="860" 
d="M606 895q-20 -20 -47 -9t-27 40q0 19 11.5 30t31.5 11q29 3 40 -25t-9 -47zM411 -17q-138 0 -216 80t-78 221q0 59 14 126q38 179 150 278q111 99 270 99q127 0 203.5 -62.5t86.5 -175.5l-49 -5q-7 93 -71.5 145.5t-172.5 52.5q-142 0 -239.5 -89.5t-130.5 -255.5
q-12 -55 -12 -112q0 -123 65 -189.5t183 -66.5q107 0 191 55t128 155l47 -7q-47 -116 -146 -182q-98 -67 -223 -67z" />
    <glyph glyph-name="Edieresis.ss01" horiz-adv-x="716" 
d="M408 883q-26 -2 -37 20.5t0 44.5t37 19q18 0 30 -11.5t12 -29.5q0 -19 -12 -31t-30 -12zM647 895q-12 -12 -31 -12t-31 12t-12 31t12 30t31 11t31 -11q11 -11 11 -30t-11 -31zM738 768l-9 -42h-446l-65 -305h396l-10 -42h-395l-72 -337h462l-10 -42h-511l164 768h496z
" />
    <glyph glyph-name="Edotaccent.ss01" horiz-adv-x="716" 
d="M510 883q-26 -2 -37.5 20.5t-0.5 44.5t38 19q18 0 30 -11.5t12 -29.5q0 -19 -12 -31t-30 -12zM738 768l-9 -42h-446l-65 -305h396l-10 -42h-395l-72 -337h462l-10 -42h-511l164 768h496z" />
    <glyph glyph-name="uni0122.ss01" horiz-adv-x="903" 
d="M731 333h-256l9 42h305l-79 -375h-41l24 144q-103 -160 -296 -160q-133 0 -206 82q-74 82 -74 219q0 57 12 116q39 182 147.5 283.5t269.5 101.5q117 0 188.5 -58t87.5 -166l-50 -5q-31 187 -231 187q-134 0 -231 -91q-96 -90 -131 -256q-12 -57 -12 -112
q0 -121 62.5 -190t172.5 -69q107 0 186.5 56t123.5 162zM360 -92q19 0 30 -10t11 -28q0 -12 -4 -27l-12 -58q-10 -52 -76 -52h-12l6 27h11q34 0 42 30l11 53q-6 -2 -15 -2q-15 0 -24.5 8.5t-9.5 23.5q0 35 42 35z" />
    <glyph glyph-name="Gdotaccent.ss01" horiz-adv-x="903" 
d="M603 895q-20 -20 -47 -9t-27 40q0 19 11.5 30t31.5 11q29 3 40 -25t-9 -47zM731 333h-256l9 42h305l-79 -375h-41l24 144q-103 -160 -296 -160q-133 0 -206 82q-74 82 -74 219q0 57 12 116q39 182 147.5 283.5t269.5 101.5q117 0 188.5 -58t87.5 -166l-50 -5
q-31 187 -231 187q-134 0 -231 -91q-96 -90 -131 -256q-12 -57 -12 -112q0 -121 62.5 -190t172.5 -69q107 0 186.5 56t123.5 162z" />
    <glyph glyph-name="Idieresis.ss01" horiz-adv-x="324" 
d="M197 883q-26 -2 -37 20.5t0 44.5t37 19q18 0 30.5 -11.5t12.5 -29.5q0 -19 -12.5 -31t-30.5 -12zM405 883q-18 0 -30 12t-12 31q0 18 12 29.5t30 11.5q26 3 37 -19t0 -44.5t-37 -20.5zM129 0h-51l164 768h51z" />
    <glyph glyph-name="Idotaccent.ss01" horiz-adv-x="324" 
d="M302 883q-27 -2 -38.5 20.5t0 44.5t38.5 19q18 0 30 -11.5t12 -29.5q0 -19 -12 -31t-30 -12zM129 0h-51l164 768h51z" />
    <glyph glyph-name="uni0136.ss01" horiz-adv-x="745" 
d="M734 768h68l-377 -325l234 -443h-55l-218 415l-205 -174l-52 -241h-51l164 768h51l-99 -463zM310 -92q19 0 30 -10t11 -28q0 -12 -4 -27l-12 -58q-10 -52 -76 -52h-13l7 27h11q34 0 42 30l11 53q-6 -2 -15 -2q-15 0 -24.5 8.5t-9.5 23.5q0 35 42 35z" />
    <glyph glyph-name="uni013B.ss01" horiz-adv-x="672" 
d="M292 768l-155 -726h430l-10 -42h-479l164 768h50zM305 -92q19 0 30 -10t11 -28q0 -12 -4 -27l-12 -58q-10 -52 -76 -52h-13l7 27h11q35 0 42 30l11 53q-6 -2 -15 -2q-15 0 -24.5 8.5t-9.5 23.5q0 35 42 35z" />
    <glyph glyph-name="Ldot.ss01" horiz-adv-x="672" 
d="M292 768l-155 -726h430l-10 -42h-479l164 768h50zM481 357q-21 -20 -48.5 -9t-27.5 39q-2 26 21 37t46 0t21 -37q0 -18 -12 -30z" />
    <glyph glyph-name="uni0145.ss01" horiz-adv-x="875" 
d="M646 65l150 703h48l-164 -768h-53l-351 704l-150 -704h-48l164 768h53zM329 -92q19 0 30 -10t11 -28q0 -12 -4 -27l-12 -58q-10 -52 -76 -52h-13l7 27h11q35 0 42 30l11 53q-6 -2 -15 -2q-15 0 -24.5 8.5t-9.5 23.5q0 35 42 35z" />
    <glyph glyph-name="Odieresis.ss01" horiz-adv-x="920" 
d="M486 890q-26 -2 -37 20.5t0 44.5t37 19q18 0 30 -11.5t12 -29.5q0 -19 -12 -31t-30 -12zM725 902q-12 -12 -31 -12t-31 12t-12 31t12 30t31 11t31 -11q11 -11 11 -30t-11 -31zM415 -16q-139 0 -218 81q-80 82 -80 222q0 52 12 112q38 183 149 285q110 103 274 103
q140 0 219 -81q79 -82 79 -223q0 -54 -11 -112q-37 -181 -148 -284q-112 -103 -276 -103zM419 26q143 0 241 95q97 94 130 259q11 61 11 103q0 123 -66.5 192t-186.5 69q-145 0 -240 -94t-130 -260q-11 -61 -11 -103q0 -123 66.5 -192t185.5 -69z" />
    <glyph glyph-name="uni0156.ss01" horiz-adv-x="805" 
d="M762 612q0 -93 -58.5 -157.5t-156.5 -83.5q101 -24 101 -135q0 -20 -3 -47l-18 -189h-51l19 185q3 36 3 44q0 63 -34 92t-104 29h-257l-75 -350h-50l164 768h320q95 0 147.5 -40.5t52.5 -115.5zM212 393h249q111 0 181 58q69 59 69 156q0 119 -164 119h-264zM334 -92
q19 0 30 -10t11 -28q0 -12 -4 -27l-12 -58q-10 -52 -76 -52h-13l7 27h11q34 0 42 30l11 53q-6 -2 -15 -2q-15 0 -24.5 8.5t-9.5 23.5q0 35 42 35z" />
    <glyph glyph-name="uni0218.ss01" horiz-adv-x="768" 
d="M488 791q118 0 185.5 -46t67.5 -129q0 -3 -2 -27l-49 -5q1 6 1 26q0 67 -55 102t-153 35q-120 0 -185.5 -45t-65.5 -135q0 -52 37.5 -83.5t121.5 -49.5l94 -21q186 -40 186 -181q0 -124 -90 -188q-91 -64 -243 -64q-128 0 -199.5 53t-71.5 150q0 23 1 30l52 4
q-1 -7 -1 -31q0 -79 58.5 -120.5t165.5 -41.5q128 0 201.5 52t73.5 149q0 107 -158 142l-96 21q-185 42 -185 174q0 114 81 171.5t228 57.5zM305 -104q19 0 30 -10t11 -28q0 -12 -4 -27l-12 -58q-10 -52 -76 -52h-13l7 27h11q35 0 42 30l11 53q-6 -2 -15 -2q-15 0 -24.5 8.5
t-9.5 23.5q0 35 42 35z" />
    <glyph glyph-name="uni021A.ss01" horiz-adv-x="629" 
d="M138 768h564l-10 -42h-256l-154 -726h-52l155 726h-257zM229 -92q19 0 30 -10t11 -28q0 -12 -4 -27l-12 -58q-10 -52 -76 -52h-13l7 27h11q35 0 42 30l11 53q-6 -2 -15 -2q-15 0 -24.5 8.5t-9.5 23.5q0 35 42 35z" />
    <glyph glyph-name="Udieresis.ss01" horiz-adv-x="855" 
d="M457 883q-26 -2 -37 20.5t0 44.5t37 19q18 0 30 -11.5t12 -29.5q0 -19 -12 -31t-30 -12zM696 895q-12 -12 -31 -12t-31 12t-12 31t12 30t31 11t31 -11q11 -11 11 -30t-11 -31zM378 -17q-124 0 -188.5 50.5t-64.5 149.5q0 39 10 86l106 499h51l-107 -508q-9 -39 -9 -72
q0 -160 205 -160q123 0 190.5 55.5t93.5 176.5l107 508h52l-107 -503q-31 -146 -111 -214t-228 -68z" />
    <glyph glyph-name="Wdieresis.ss01" horiz-adv-x="1095" 
d="M558 883q-26 -2 -37 20.5t0 44.5t37 19q18 0 30 -11.5t12 -29.5q0 -19 -12 -31t-30 -12zM797 895q-12 -12 -31 -12t-31 12t-12 31t12 30t31 11t31 -11q11 -11 11 -30t-11 -31zM765 83l356 685h49l-402 -768h-61l-73 726l-349 -726h-61l-94 768h46l81 -684l3 -48l20 47
l327 685h68l66 -684l1 -48z" />
    <glyph glyph-name="Ydieresis.ss01" horiz-adv-x="679" 
d="M372 878q-26 -2 -37 20.5t0 44.5t37 19q18 0 30 -11.5t12 -29.5q0 -19 -12 -31t-30 -12zM611 890q-12 -12 -31 -12t-31 12t-12 31t12 30t31 11t31 -11q11 -11 11 -30t-11 -31zM703 768h60l-387 -437l-71 -331h-52l71 331l-201 437h51l172 -377l8 -23l17 23z" />
    <glyph glyph-name="Zdotaccent.ss01" horiz-adv-x="780" 
d="M560 895q-20 -20 -47 -9t-27 40q0 19 11.5 30t31.5 11q29 3 40 -25t-9 -47zM228 768h555l-8 -35l-663 -691h524l-10 -42h-589l8 36l661 690h-487z" />
    <glyph glyph-name="G.ss03" horiz-adv-x="892" 
d="M755 336h-290l9 45h339q-88 -397 -413 -397q-135 0 -209.5 77.5t-74.5 215.5q0 62 13 121q37 182 149 286q111 102 272 102q128 0 202 -64t79 -175l-47 -5q-5 94 -67.5 147.5t-167.5 53.5q-139 0 -237 -93q-99 -94 -133 -260q-13 -56 -13 -113q0 -118 62 -184.5
t175 -66.5q131 0 221 79.5t131 230.5z" />
    <glyph glyph-name="uni01F4.ss03" horiz-adv-x="892" 
d="M671 1068h63l-167 -179h-46zM755 336h-290l9 45h339q-88 -397 -413 -397q-135 0 -209.5 77.5t-74.5 215.5q0 62 13 121q37 182 149 286q111 102 272 102q128 0 202 -64t79 -175l-47 -5q-5 94 -67.5 147.5t-167.5 53.5q-139 0 -237 -93q-99 -94 -133 -260
q-13 -56 -13 -113q0 -118 62 -184.5t175 -66.5q131 0 221 79.5t131 230.5z" />
    <glyph glyph-name="Gbreve.ss03" horiz-adv-x="892" 
d="M581 883q-76 0 -115 29t-39 83q0 16 3 34h37q-2 -22 -2 -25q0 -83 117 -83q134 0 161 108h40q-38 -146 -202 -146zM755 336h-290l9 45h339q-88 -397 -413 -397q-135 0 -209.5 77.5t-74.5 215.5q0 62 13 121q37 182 149 286q111 102 272 102q128 0 202 -64t79 -175l-47 -5
q-5 94 -67.5 147.5t-167.5 53.5q-139 0 -237 -93q-99 -94 -133 -260q-13 -56 -13 -113q0 -118 62 -184.5t175 -66.5q131 0 221 79.5t131 230.5z" />
    <glyph glyph-name="Gcircumflex.ss03" horiz-adv-x="892" 
d="M698 877l-92 151l-155 -151h-55l187 184h50l111 -184h-46zM755 336h-290l9 45h339q-88 -397 -413 -397q-135 0 -209.5 77.5t-74.5 215.5q0 62 13 121q37 182 149 286q111 102 272 102q128 0 202 -64t79 -175l-47 -5q-5 94 -67.5 147.5t-167.5 53.5q-139 0 -237 -93
q-99 -94 -133 -260q-13 -56 -13 -113q0 -118 62 -184.5t175 -66.5q131 0 221 79.5t131 230.5z" />
    <glyph glyph-name="uni0122.ss03" horiz-adv-x="892" 
d="M755 336h-290l9 45h339q-88 -397 -413 -397q-135 0 -209.5 77.5t-74.5 215.5q0 62 13 121q37 182 149 286q111 102 272 102q128 0 202 -64t79 -175l-47 -5q-5 94 -67.5 147.5t-167.5 53.5q-139 0 -237 -93q-99 -94 -133 -260q-13 -56 -13 -113q0 -118 62 -184.5
t175 -66.5q131 0 221 79.5t131 230.5zM374 -140l-62 -16l13 62h88l-24 -112q-12 -56 -74 -56h-25l5 27h24q35 0 41 26z" />
    <glyph glyph-name="Gdotaccent.ss03" horiz-adv-x="892" 
d="M571 1000h60l-18 -86h-61zM755 336h-290l9 45h339q-88 -397 -413 -397q-135 0 -209.5 77.5t-74.5 215.5q0 62 13 121q37 182 149 286q111 102 272 102q128 0 202 -64t79 -175l-47 -5q-5 94 -67.5 147.5t-167.5 53.5q-139 0 -237 -93q-99 -94 -133 -260q-13 -56 -13 -113
q0 -118 62 -184.5t175 -66.5q131 0 221 79.5t131 230.5z" />
    <glyph glyph-name="uni0122.ss01.ss03" horiz-adv-x="892" 
d="M755 336h-290l9 45h339q-88 -397 -413 -397q-135 0 -209.5 77.5t-74.5 215.5q0 62 13 121q37 182 149 286q111 102 272 102q128 0 202 -64t79 -175l-47 -5q-5 94 -67.5 147.5t-167.5 53.5q-139 0 -237 -93q-99 -94 -133 -260q-13 -56 -13 -113q0 -118 62 -184.5
t175 -66.5q131 0 221 79.5t131 230.5zM360 -92q19 0 30 -10t11 -28q0 -12 -4 -27l-12 -58q-10 -52 -76 -52h-12l6 27h11q34 0 42 30l11 53q-6 -2 -15 -2q-15 0 -24.5 8.5t-9.5 23.5q0 35 42 35z" />
    <glyph glyph-name="Gdotaccent.ss01.ss03" horiz-adv-x="892" 
d="M618 903q-20 -20 -47 -9t-27 40q0 19 11.5 30t31.5 11q29 3 40 -25t-9 -47zM755 336h-290l9 45h339q-88 -397 -413 -397q-135 0 -209.5 77.5t-74.5 215.5q0 62 13 121q37 182 149 286q111 102 272 102q128 0 202 -64t79 -175l-47 -5q-5 94 -67.5 147.5t-167.5 53.5
q-139 0 -237 -93q-99 -94 -133 -260q-13 -56 -13 -113q0 -118 62 -184.5t175 -66.5q131 0 221 79.5t131 230.5z" />
    <glyph glyph-name="R.ss04" horiz-adv-x="755" 
d="M749 584q0 -107 -73 -177q-74 -72 -190 -80l165 -327h-55l-164 326h-233l-70 -326h-51l164 768h296q103 0 157 -48t54 -136zM208 368h247q112 0 178 60t66 153q0 145 -169 145h-246z" />
    <glyph glyph-name="Racute.ss04" horiz-adv-x="755" 
d="M590 1060h63l-167 -179h-46zM749 584q0 -107 -73 -177q-74 -72 -190 -80l165 -327h-55l-164 326h-233l-70 -326h-51l164 768h296q103 0 157 -48t54 -136zM208 368h247q112 0 178 60t66 153q0 145 -169 145h-246z" />
    <glyph glyph-name="Rcaron.ss04" horiz-adv-x="755" 
d="M699 1045l-191 -184h-50l-106 184h46l91 -150l156 150h54zM749 584q0 -107 -73 -177q-74 -72 -190 -80l165 -327h-55l-164 326h-233l-70 -326h-51l164 768h296q103 0 157 -48t54 -136zM208 368h247q112 0 178 60t66 153q0 145 -169 145h-246z" />
    <glyph glyph-name="uni0156.ss04" horiz-adv-x="755" 
d="M749 584q0 -107 -73 -177q-74 -72 -190 -80l165 -327h-55l-164 326h-233l-70 -326h-51l164 768h296q103 0 157 -48t54 -136zM208 368h247q112 0 178 60t66 153q0 145 -169 145h-246zM335 -144l-62 -15l13 61h88l-24 -112q-14 -56 -74 -56h-25l5 28h24q20 0 28.5 5.5
t12.5 20.5z" />
    <glyph glyph-name="uni0156.ss01.ss04" horiz-adv-x="755" 
d="M749 584q0 -107 -73 -177q-74 -72 -190 -80l165 -327h-55l-164 326h-233l-70 -326h-51l164 768h296q103 0 157 -48t54 -136zM208 368h247q112 0 178 60t66 153q0 145 -169 145h-246zM322 -92q19 0 30 -10t11 -28q0 -12 -4 -27l-12 -58q-10 -52 -76 -52h-13l7 27h11
q34 0 42 30l11 53q-6 -2 -15 -2q-15 0 -24.5 8.5t-9.5 23.5q0 35 42 35z" />
    <glyph glyph-name="i.loclTRK" horiz-adv-x="292" 
d="M264 686h-61l19 86h60zM112 0h-50l117 548h50z" />
    <glyph glyph-name="adieresis.ss01" horiz-adv-x="646" 
d="M308 696q-26 -2 -37 20.5t0 44.5t37 19q18 0 30 -11.5t12 -29.5q0 -19 -12 -31t-30 -12zM521 696q-26 -2 -37 20.5t0 44.5t37 19q18 0 30 -11.5t12 -29.5q0 -19 -12 -31t-30 -12zM549 39h18l-9 -39h-27q-93 0 -81 98q-75 -112 -225 -112q-84 0 -128.5 37.5t-44.5 104.5
q0 78 57 120t172 61l120 19q80 13 101 40l6 25q14 65 -22 96t-118 31t-129 -29t-68 -90l-45 5q48 156 247 156q189 0 189 -126q0 -14 -5 -44l-57 -267q-10 -47 1.5 -66.5t47.5 -19.5zM461 173l30 145q-25 -16 -93 -27l-118 -20q-90 -15 -134 -47.5t-44 -91.5q0 -50 34.5 -78
t102.5 -28q73 0 132 39t90 108z" />
    <glyph glyph-name="cdotaccent.ss01" horiz-adv-x="639" 
d="M419 682q-18 0 -30 12t-12 31q0 18 12 29.5t30 11.5q26 3 37 -19t0 -44.5t-37 -20.5zM290 -14q-99 0 -156 59.5t-57 161.5q0 37 9 79q25 128 102.5 201.5t187.5 73.5q93 0 145.5 -45.5t57.5 -126.5l-49 -4q-11 133 -158 133q-90 0 -152.5 -62t-85.5 -176q-7 -32 -7 -70
q0 -85 44.5 -132.5t121.5 -47.5q137 0 201 150l49 -4q-74 -190 -253 -190z" />
    <glyph glyph-name="edieresis.ss01" horiz-adv-x="671" 
d="M326 682q-26 -2 -37 20.5t0 44.5t37 19q18 0 30 -11.5t12 -29.5q0 -19 -12 -31t-30 -12zM539 682q-26 -2 -37 20.5t0 44.5t37 19q18 0 30 -11.5t12 -29.5q0 -19 -12 -31t-30 -12zM586 263h-455q-5 -37 -5 -55q0 -85 46.5 -132.5t127.5 -47.5q130 0 206 118l45 -8
q-89 -152 -254 -152q-103 0 -162 60t-59 162q0 30 9 76q26 127 107 202q80 76 199 76q98 0 153 -55t55 -149q0 -44 -13 -95zM387 521q-90 0 -156 -58t-92 -160h406q5 33 5 53q0 78 -42 121.5t-121 43.5z" />
    <glyph glyph-name="edotaccent.ss01" horiz-adv-x="671" 
d="M431 682q-18 0 -30 12t-12 31q0 18 12 29.5t30 11.5q26 3 37 -19t0 -44.5t-37 -20.5zM586 263h-455q-5 -37 -5 -55q0 -85 46.5 -132.5t127.5 -47.5q130 0 206 118l45 -8q-89 -152 -254 -152q-103 0 -162 60t-59 162q0 30 9 76q26 127 107 202q80 76 199 76q98 0 153 -55
t55 -149q0 -44 -13 -95zM387 521q-90 0 -156 -58t-92 -160h406q5 33 5 53q0 78 -42 121.5t-121 43.5z" />
    <glyph glyph-name="uni0123.ss01" horiz-adv-x="697" 
d="M443 682q-19 0 -29.5 10.5t-10.5 28.5q0 8 3 26l9 43q12 51 76 51h13l-7 -27h-10q-38 0 -42 -28l-8 -38q3 1 14 1q15 0 24.5 -8.5t9.5 -22.5q0 -36 -42 -36zM562 433l28 115h44l-114 -536q-24 -114 -90 -170.5t-182 -56.5q-100 0 -155 40.5t-58 112.5l48 4
q4 -57 47.5 -87.5t121.5 -30.5q93 0 146.5 47t74.5 145l22 105q-84 -111 -213 -111q-95 0 -148.5 56.5t-53.5 153.5q0 139 83 240t210 101q71 0 119 -34.5t70 -93.5zM291 51q71 0 131 45.5t93 119.5l29 137q-2 77 -48.5 122t-117.5 45q-109 0 -178 -89t-69 -208
q0 -80 42 -126t118 -46z" />
    <glyph glyph-name="gdotaccent.ss01" horiz-adv-x="697" 
d="M448 682q-18 0 -30 12t-12 31q0 18 12 29.5t30 11.5q26 3 37 -19t0 -44.5t-37 -20.5zM562 433l28 115h44l-114 -536q-24 -114 -90 -170.5t-182 -56.5q-100 0 -155 40.5t-58 112.5l48 4q4 -57 47.5 -87.5t121.5 -30.5q93 0 146.5 47t74.5 145l22 105q-84 -111 -213 -111
q-95 0 -148.5 56.5t-53.5 153.5q0 139 83 240t210 101q71 0 119 -34.5t70 -93.5zM291 51q71 0 131 45.5t93 119.5l29 137q-2 77 -48.5 122t-117.5 45q-109 0 -178 -89t-69 -208q0 -80 42 -126t118 -46z" />
    <glyph glyph-name="i.ss01" horiz-adv-x="292" 
d="M242 682q-18 0 -30 12t-12 31q0 18 12 29.5t30 11.5q26 3 37 -19t0 -44.5t-37 -20.5zM112 0h-50l117 548h50z" />
    <glyph glyph-name="idieresis.ss01" horiz-adv-x="292" 
d="M136 682q-26 -2 -37 20.5t0 44.5t37 19q18 0 30 -11.5t12 -29.5q0 -19 -12 -31t-30 -12zM380 694q-12 -12 -31 -12t-31 12t-12 31t12 30t31 11t31 -11q11 -11 11 -30t-11 -31zM112 0h-50l117 548h50z" />
    <glyph glyph-name="i.loclTRK.ss01" horiz-adv-x="292" 
d="M242 682q-18 0 -30 12t-12 31q0 18 12 29.5t30 11.5q26 3 37 -19t0 -44.5t-37 -20.5zM112 0h-50l117 548h50z" />
    <glyph glyph-name="ij.ss01" horiz-adv-x="583" 
d="M242 682q-18 0 -30 12t-12 31q0 18 12 29.5t30 11.5q26 3 37 -19t0 -44.5t-37 -20.5zM534 682q-18 0 -30 12t-12 31q0 18 12 29.5t30 11.5q26 3 37 -19t0 -44.5t-37 -20.5zM112 0h-50l117 548h50zM246 -204h-50l9 42h37q41 0 63.5 20t32.5 65l133 625h50l-134 -630
q-14 -64 -47.5 -93t-93.5 -29z" />
    <glyph glyph-name="iogonek.ss01" horiz-adv-x="292" 
d="M242 766q26 3 37 -19t0 -44.5t-37 -20.5q-18 0 -30 12t-12 31q0 18 12 29.5t30 11.5zM-19 -57l82 60l116 545h50l-117 -548l-97 -76q-42 -34 -42 -65q0 -21 17 -34.5t46 -13.5h28l-8 -37h-34q-44 0 -71 22t-27 56q0 50 57 91z" />
    <glyph glyph-name="j.ss01" horiz-adv-x="292" 
d="M242 682q-18 0 -30 12t-12 31q0 18 12 29.5t30 11.5q26 3 37 -19t0 -44.5t-37 -20.5zM-46 -204h-50l9 42h37q41 0 63.5 20t32.5 65l133 625h50l-134 -630q-14 -64 -47.5 -93t-93.5 -29z" />
    <glyph glyph-name="uni0137.ss01" horiz-adv-x="640" 
d="M561 548h70l-272 -204l175 -344h-54l-159 318l-166 -122l-42 -196h-50l164 768h50l-110 -517zM249 -92q19 0 30 -10t11 -28q0 -12 -4 -27l-12 -58q-10 -52 -76 -52h-13l7 27h11q35 0 42 30l11 53q-6 -2 -15 -2q-15 0 -24.5 8.5t-9.5 23.5q0 35 42 35z" />
    <glyph glyph-name="uni013C.ss01" horiz-adv-x="292" 
d="M63 0l164 768h50l-164 -768h-50zM61 -92q19 0 30 -10t11 -28q0 -12 -4 -27l-12 -58q-10 -52 -76 -52h-13l7 27h11q35 0 42 30l11 53q-6 -2 -15 -2q-15 0 -24.5 8.5t-9.5 23.5q0 35 42 35z" />
    <glyph glyph-name="ldot.ss01" horiz-adv-x="436" 
d="M113 0h-50l164 768h50zM373 342q-27 -3 -38.5 19.5t0 45t38.5 19.5q27 3 38 -19.5t0 -45t-38 -19.5z" />
    <glyph glyph-name="napostrophe.ss01" horiz-adv-x="963" 
d="M279 784q55 0 55 -56q0 -16 -9 -58l-11 -55q-21 -94 -113 -94h-10l8 36h9q33 0 48 14t23 51l13 59h-14q-28 0 -43.5 13t-15.5 36q0 24 16 39t44 15zM698 560q79 0 123 -41.5t44 -114.5q0 -25 -6 -55l-75 -349h-50l74 347q6 27 6 50q0 57 -33.5 88.5t-92.5 31.5
q-123 0 -213 -136l-81 -381h-50l117 548h46l-19 -100q90 112 210 112z" />
    <glyph glyph-name="uni0146.ss01" horiz-adv-x="681" 
d="M416 560q79 0 123 -41.5t44 -114.5q0 -25 -6 -55l-75 -349h-50l74 347q6 27 6 50q0 57 -33 88.5t-93 31.5q-124 0 -212 -136l-81 -381h-50l116 548h46l-19 -100q90 112 210 112zM259 -92q19 0 30 -10t11 -28q0 -12 -4 -27l-12 -58q-10 -52 -76 -52h-13l7 27h11
q35 0 42 30l11 53q-6 -2 -15 -2q-15 0 -24.5 8.5t-9.5 23.5q0 35 42 35z" />
    <glyph glyph-name="odieresis.ss01" horiz-adv-x="695" 
d="M337 682q-26 -2 -37 20.5t0 44.5t37 19q18 0 30 -11.5t12 -29.5q0 -19 -12 -31t-30 -12zM550 682q-26 -2 -37 20.5t0 44.5t37 19q18 0 30 -11.5t12 -29.5q0 -19 -12 -31t-30 -12zM295 -14q-101 0 -160 59t-59 161q0 37 9 79q25 127 109 203q83 74 202 74q103 0 162.5 -59
t59.5 -161q0 -38 -9 -81q-27 -129 -109.5 -202t-204.5 -73zM298 30q99 0 169 63.5t93 173.5q8 37 8 72q0 85 -46.5 132t-129.5 47q-98 0 -166.5 -64t-91.5 -176q-8 -40 -8 -69q0 -83 46.5 -131t125.5 -48z" />
    <glyph glyph-name="uni0157.ss01" horiz-adv-x="470" 
d="M421 548h58l-10 -46h-50q-84 0 -140.5 -36.5t-92.5 -120.5l-73 -345h-50l116 548h46l-23 -121q70 121 219 121zM61 -92q19 0 30 -10t11 -28q0 -12 -4 -27l-12 -58q-10 -52 -76 -52h-13l7 27h11q35 0 42 30l11 53q-6 -2 -15 -2q-15 0 -24.5 8.5t-9.5 23.5q0 35 42 35z" />
    <glyph glyph-name="uni0219.ss01" horiz-adv-x="635" 
d="M301 309l74 -12q76 -13 111.5 -46t35.5 -90q0 -89 -66 -136.5t-184 -47.5q-101 0 -158 44.5t-57 123.5l49 4q0 -131 170 -131q91 0 143.5 35t52.5 101q0 40 -28.5 64t-92.5 35l-73 12q-150 25 -150 135q0 82 63.5 125t172.5 43q97 0 148.5 -39.5t53.5 -110.5l-47 -5
q-2 55 -43.5 85t-116.5 30q-85 0 -133.5 -31.5t-48.5 -90.5q0 -42 30 -65t94 -32zM236 -92q40 0 40 -38q0 -9 -3 -27l-13 -58q-10 -52 -75 -52h-13l7 27h10q19 0 28.5 6.5t13.5 23.5l11 53q-10 -2 -14 -2q-15 0 -24.5 8.5t-9.5 23.5q0 35 42 35z" />
    <glyph glyph-name="uni021B.ss01" horiz-adv-x="504" 
d="M273 511l-4 -35l-67 -313q-8 -40 -8 -53q0 -68 86 -68h99l-9 -42h-101q-125 0 -125 104q0 18 6 47l69 326l10 33l-142 -4l9 42l140 -4l3 28l28 130h50l-27 -128l-10 -31l207 5l-9 -42zM127 -89q19 0 30 -10t11 -28q0 -12 -4 -27l-12 -58q-10 -52 -76 -52h-13l7 27h11
q35 0 42 30l11 53q-6 -2 -15 -2q-15 0 -24.5 8.5t-9.5 23.5q0 35 42 35z" />
    <glyph glyph-name="udieresis.ss01" horiz-adv-x="681" 
d="M321 682q-26 -2 -37 20.5t0 44.5t37 19q18 0 30 -11.5t12 -29.5q0 -19 -12 -31t-30 -12zM534 682q-26 -2 -37 20.5t0 44.5t37 19q18 0 30 -11.5t12 -29.5q0 -19 -12 -31t-30 -12zM488 167l81 381h50l-117 -548h-46l19 100q-90 -112 -210 -112q-78 0 -122 41.5t-44 114.5
q0 25 6 55l74 349h50l-74 -347q-6 -27 -6 -50q0 -57 33.5 -88.5t92.5 -31.5q123 0 213 136z" />
    <glyph glyph-name="wdieresis.ss01" horiz-adv-x="865" 
d="M405 682q-26 -2 -37 20.5t0 44.5t37 19q18 0 30 -11.5t12 -29.5q0 -19 -12 -31t-30 -12zM618 682q-26 -2 -37 20.5t0 44.5t37 19q18 0 30 -11.5t12 -29.5q0 -19 -12 -31t-30 -12zM566 104l235 444h54l-298 -548h-54l-40 391l-5 98l-46 -98l-203 -391h-51l-67 548h47
l49 -437l4 -60l26 56l227 441h49l43 -439l3 -60z" />
    <glyph glyph-name="ydieresis.ss01" horiz-adv-x="584" 
d="M264 682q-26 -2 -37 20.5t0 44.5t37 19q18 0 30 -11.5t12 -29.5q0 -19 -12 -31t-30 -12zM477 682q-26 -2 -37 20.5t0 44.5t37 19q18 0 30 -11.5t12 -29.5q0 -19 -12 -31t-30 -12zM224 41l296 507h55l-375 -630q-42 -71 -78 -97q-37 -25 -102 -25h-49l9 43h43q47 0 75 19
q27 19 62 76l29 49l-98 565h50l82 -497z" />
    <glyph glyph-name="zdotaccent.ss01" horiz-adv-x="628" 
d="M400 682q-18 0 -30 12t-12 31q0 18 12 29.5t30 11.5q26 3 37 -19t0 -44.5t-37 -20.5zM146 548h441l-8 -36l-470 -468h387l-9 -44h-457l7 34l473 470h-373z" />
    <glyph glyph-name="a.ss02" horiz-adv-x="702" 
d="M564 425l28 123h47l-116 -548h-47l20 106q-81 -120 -217 -120q-94 0 -148 57t-54 160q0 89 34.5 169t102.5 134q68 55 159 55q74 0 122.5 -36.5t68.5 -99.5zM293 27q76 0 134.5 47t89.5 126l27 132v4q0 85 -44.5 134.5t-124.5 49.5q-59 0 -107.5 -29.5t-78 -76
t-45.5 -99.5t-16 -105q0 -85 43.5 -134t121.5 -49z" />
    <glyph glyph-name="aacute.ss02" horiz-adv-x="702" 
d="M525 840h63l-167 -179h-46zM564 425l28 123h47l-116 -548h-47l20 106q-81 -120 -217 -120q-94 0 -148 57t-54 160q0 89 34.5 169t102.5 134q68 55 159 55q74 0 122.5 -36.5t68.5 -99.5zM293 27q76 0 134.5 47t89.5 126l27 132v4q0 85 -44.5 134.5t-124.5 49.5
q-59 0 -107.5 -29.5t-78 -76t-45.5 -99.5t-16 -105q0 -85 43.5 -134t121.5 -49z" />
    <glyph glyph-name="abreve.ss02" horiz-adv-x="702" 
d="M435 655q-76 0 -115 29t-39 83q0 16 3 34h37q-2 -22 -2 -25q0 -83 117 -83q134 0 161 108h40q-38 -146 -202 -146zM564 425l28 123h47l-116 -548h-47l20 106q-81 -120 -217 -120q-94 0 -148 57t-54 160q0 89 34.5 169t102.5 134q68 55 159 55q74 0 122.5 -36.5
t68.5 -99.5zM293 27q76 0 134.5 47t89.5 126l27 132v4q0 85 -44.5 134.5t-124.5 49.5q-59 0 -107.5 -29.5t-78 -76t-45.5 -99.5t-16 -105q0 -85 43.5 -134t121.5 -49z" />
    <glyph glyph-name="acircumflex.ss02" horiz-adv-x="702" 
d="M552 649l-92 151l-155 -151h-55l187 184h50l111 -184h-46zM564 425l28 123h47l-116 -548h-47l20 106q-81 -120 -217 -120q-94 0 -148 57t-54 160q0 89 34.5 169t102.5 134q68 55 159 55q74 0 122.5 -36.5t68.5 -99.5zM293 27q76 0 134.5 47t89.5 126l27 132v4
q0 85 -44.5 134.5t-124.5 49.5q-59 0 -107.5 -29.5t-78 -76t-45.5 -99.5t-16 -105q0 -85 43.5 -134t121.5 -49z" />
    <glyph glyph-name="adieresis.ss02" horiz-adv-x="702" 
d="M319 772h61l-19 -86h-60zM530 772h61l-19 -86h-60zM564 425l28 123h47l-116 -548h-47l20 106q-81 -120 -217 -120q-94 0 -148 57t-54 160q0 89 34.5 169t102.5 134q68 55 159 55q74 0 122.5 -36.5t68.5 -99.5zM293 27q76 0 134.5 47t89.5 126l27 132v4q0 85 -44.5 134.5
t-124.5 49.5q-59 0 -107.5 -29.5t-78 -76t-45.5 -99.5t-16 -105q0 -85 43.5 -134t121.5 -49z" />
    <glyph glyph-name="agrave.ss02" horiz-adv-x="702" 
d="M360 840l92 -179h-41l-108 179h57zM564 425l28 123h47l-116 -548h-47l20 106q-81 -120 -217 -120q-94 0 -148 57t-54 160q0 89 34.5 169t102.5 134q68 55 159 55q74 0 122.5 -36.5t68.5 -99.5zM293 27q76 0 134.5 47t89.5 126l27 132v4q0 85 -44.5 134.5t-124.5 49.5
q-59 0 -107.5 -29.5t-78 -76t-45.5 -99.5t-16 -105q0 -85 43.5 -134t121.5 -49z" />
    <glyph glyph-name="amacron.ss02" horiz-adv-x="702" 
d="M278 728h335l-9 -41h-335zM564 425l28 123h47l-116 -548h-47l20 106q-81 -120 -217 -120q-94 0 -148 57t-54 160q0 89 34.5 169t102.5 134q68 55 159 55q74 0 122.5 -36.5t68.5 -99.5zM293 27q76 0 134.5 47t89.5 126l27 132v4q0 85 -44.5 134.5t-124.5 49.5
q-59 0 -107.5 -29.5t-78 -76t-45.5 -99.5t-16 -105q0 -85 43.5 -134t121.5 -49z" />
    <glyph glyph-name="aogonek.ss02" horiz-adv-x="704" 
d="M525 0l-97 -76q-42 -34 -42 -65q0 -21 17 -34.5t46 -13.5h28l-8 -37h-34q-44 0 -71 22t-27 56q0 50 57 91l85 62l20 108q-84 -113 -217 -113q-95 0 -149 57.5t-54 157.5q0 133 83 240q82 106 209 106q74 0 124 -36.5t71 -101.5l29 125h47zM292 41q74 0 134.5 44.5
t91.5 118.5l28 121v12q0 84 -46 133.5t-123 49.5q-71 0 -130 -47t-88 -115q-29 -70 -29 -140q0 -84 42.5 -130.5t119.5 -46.5z" />
    <glyph glyph-name="aring.ss02" horiz-adv-x="702" 
d="M548 665q-38 -38 -96 -38t-96 38t-38 95t38 94.5t96 37.5t96 -37.5t38 -94.5t-38 -95zM523 831q-29 27 -71 27q-43 0 -70 -27q-28 -27 -28 -71t28 -71q27 -27 70 -27q42 0 71 27q27 27 27 71t-27 71zM564 425l28 123h47l-116 -548h-47l20 106q-81 -120 -217 -120
q-94 0 -148 57t-54 160q0 89 34.5 169t102.5 134q68 55 159 55q74 0 122.5 -36.5t68.5 -99.5zM293 27q76 0 134.5 47t89.5 126l27 132v4q0 85 -44.5 134.5t-124.5 49.5q-59 0 -107.5 -29.5t-78 -76t-45.5 -99.5t-16 -105q0 -85 43.5 -134t121.5 -49z" />
    <glyph glyph-name="aringacute.ss02" horiz-adv-x="702" 
d="M597 1109h62l-167 -178h-46zM536 652q-38 -38 -96 -38t-96 38t-38 95t38 94.5t96 37.5t96 -37.5t38 -94.5t-38 -95zM511 818q-29 27 -71 27q-43 0 -70 -27q-28 -27 -28 -71t28 -71q27 -27 70 -27q42 0 71 27q27 27 27 71t-27 71zM564 425l28 123h47l-116 -548h-47l20 106
q-81 -120 -217 -120q-94 0 -148 57t-54 160q0 89 34.5 169t102.5 134q68 55 159 55q74 0 122.5 -36.5t68.5 -99.5zM293 27q76 0 134.5 47t89.5 126l27 132v4q0 85 -44.5 134.5t-124.5 49.5q-59 0 -107.5 -29.5t-78 -76t-45.5 -99.5t-16 -105q0 -85 43.5 -134t121.5 -49z" />
    <glyph glyph-name="atilde.ss02" horiz-adv-x="702" 
d="M365 777q-65 0 -99 -125h-43q41 168 149 168q33 0 55.5 -18t32.5 -44q22 -63 70 -63q33 0 56.5 29.5t41.5 95.5h43q-41 -168 -148 -168q-33 0 -55.5 18t-31.5 45q-24 62 -71 62zM564 425l28 123h47l-116 -548h-47l20 106q-81 -120 -217 -120q-94 0 -148 57t-54 160
q0 89 34.5 169t102.5 134q68 55 159 55q74 0 122.5 -36.5t68.5 -99.5zM293 27q76 0 134.5 47t89.5 126l27 132v4q0 85 -44.5 134.5t-124.5 49.5q-59 0 -107.5 -29.5t-78 -76t-45.5 -99.5t-16 -105q0 -85 43.5 -134t121.5 -49z" />
    <glyph glyph-name="adieresis.ss01.ss02" horiz-adv-x="702" 
d="M339 682q-26 -2 -37 20.5t0 44.5t37 19q18 0 30 -11.5t12 -29.5q0 -19 -12 -31t-30 -12zM552 682q-26 -2 -37 20.5t0 44.5t37 19q18 0 30 -11.5t12 -29.5q0 -19 -12 -31t-30 -12zM564 425l28 123h47l-116 -548h-47l20 106q-81 -120 -217 -120q-94 0 -148 57t-54 160
q0 89 34.5 169t102.5 134q68 55 159 55q74 0 122.5 -36.5t68.5 -99.5zM293 27q76 0 134.5 47t89.5 126l27 132v4q0 85 -44.5 134.5t-124.5 49.5q-59 0 -107.5 -29.5t-78 -76t-45.5 -99.5t-16 -105q0 -85 43.5 -134t121.5 -49z" />
    <glyph glyph-name="uni021B.ss01.ss05" horiz-adv-x="467" 
d="M316 544l171 4l-9 -42l-169 4l-108 -510h-50l108 510l-172 -4l9 42l170 -4l33 158h50zM149 -91q19 0 30 -10t11 -28q0 -12 -4 -27l-12 -58q-10 -52 -76 -52h-13l7 27h11q35 0 42 30l11 53q-6 -2 -15 -2q-15 0 -24.5 8.5t-9.5 23.5q0 35 42 35z" />
    <glyph glyph-name="udieresis.ss01.ss05" horiz-adv-x="681" 
d="M321 682q-26 -2 -37 20.5t0 44.5t37 19q18 0 30 -11.5t12 -29.5q0 -19 -12 -31t-30 -12zM534 682q-26 -2 -37 20.5t0 44.5t37 19q18 0 30 -11.5t12 -29.5q0 -19 -12 -31t-30 -12zM488 167l81 381h50l-117 -548h-46l19 100q-90 -112 -210 -112q-78 0 -122 41.5t-44 114.5
q0 25 6 55l74 349h50l-74 -347q-6 -27 -6 -50q0 -57 33.5 -88.5t92.5 -31.5q123 0 213 136z" />
    <glyph glyph-name="t.ss05" horiz-adv-x="467" 
d="M316 544l171 4l-9 -42l-169 4l-108 -510h-50l108 510l-172 -4l9 42l170 -4l33 158h50z" />
    <glyph glyph-name="tbar.ss05" horiz-adv-x="467" 
d="M487 548l-9 -42l-169 4l-46 -214l171 4l-8 -42l-170 4l-55 -262h-50l55 262l-171 -4l9 42l169 -4l46 214l-172 -4l9 42l170 -4l33 158h50l-33 -158z" />
    <glyph glyph-name="tcaron.ss05" horiz-adv-x="502" 
d="M559 911h59l-160 -278h-39zM299 702h50l-33 -158l171 4l-9 -42l-169 4l-108 -510h-50l108 510l-172 -4l9 42l170 -4z" />
    <glyph glyph-name="uni0163.ss05" horiz-adv-x="467" 
d="M316 544l171 4l-9 -42l-169 4l-108 -510h-50l108 510l-172 -4l9 42l170 -4l33 158h50zM67 -75h105q87 0 87 -73q0 -49 -40.5 -76.5t-108.5 -27.5h-81l7 37h74q50 0 77.5 16.5t27.5 46.5q0 43 -55 43h-101z" />
    <glyph glyph-name="uni021B.ss05" horiz-adv-x="467" 
d="M316 544l171 4l-9 -42l-169 4l-108 -510h-50l108 510l-172 -4l9 42l170 -4l33 158h50zM162 -143l-62 -15l13 61h88l-24 -112q-14 -56 -74 -56h-25l5 28h24q20 0 28.5 5.5t12.5 20.5z" />
    <glyph glyph-name="udieresis.ss01.ss06" horiz-adv-x="682" 
d="M321 682q-26 -2 -37 20.5t0 44.5t37 19q18 0 30 -11.5t12 -29.5q0 -19 -12 -31t-30 -12zM534 682q-26 -2 -37 20.5t0 44.5t37 19q18 0 30 -11.5t12 -29.5q0 -19 -12 -31t-30 -12zM290 -11q-92 0 -142 38.5t-50 110.5q0 29 7 63l74 348h50l-73 -345q-8 -37 -8 -59
q0 -112 144 -112q169 0 203 166l74 349h50l-76 -356q-42 -203 -253 -203z" />
    <glyph glyph-name="u.ss06" horiz-adv-x="682" 
d="M290 -11q-92 0 -142 38.5t-50 110.5q0 29 7 63l74 348h50l-73 -345q-8 -37 -8 -59q0 -112 144 -112q169 0 203 166l74 349h50l-76 -356q-42 -203 -253 -203z" />
    <glyph glyph-name="uacute.ss06" horiz-adv-x="682" 
d="M403 661h-46l150 179h63zM290 -11q-92 0 -142 38.5t-50 110.5q0 29 7 63l74 348h50l-73 -345q-8 -37 -8 -59q0 -112 144 -112q169 0 203 166l74 349h50l-76 -356q-42 -203 -253 -203z" />
    <glyph glyph-name="ubreve.ss06" horiz-adv-x="682" 
d="M417 655q-76 0 -115 29t-39 83q0 16 3 34h37q-2 -22 -2 -25q0 -83 117 -83q134 0 161 108h40q-38 -146 -202 -146zM290 -11q-92 0 -142 38.5t-50 110.5q0 29 7 63l74 348h50l-73 -345q-8 -37 -8 -59q0 -112 144 -112q169 0 203 166l74 349h50l-76 -356
q-42 -203 -253 -203z" />
    <glyph glyph-name="ucircumflex.ss06" horiz-adv-x="682" 
d="M287 649h-55l187 184h50l111 -184h-46l-92 151zM290 -11q-92 0 -142 38.5t-50 110.5q0 29 7 63l74 348h50l-73 -345q-8 -37 -8 -59q0 -112 144 -112q169 0 203 166l74 349h50l-76 -356q-42 -203 -253 -203z" />
    <glyph glyph-name="udieresis.ss06" horiz-adv-x="682" 
d="M343 686h-60l18 86h61zM554 686h-60l18 86h61zM290 -11q-92 0 -142 38.5t-50 110.5q0 29 7 63l74 348h50l-73 -345q-8 -37 -8 -59q0 -112 144 -112q169 0 203 166l74 349h50l-76 -356q-42 -203 -253 -203z" />
    <glyph glyph-name="ugrave.ss06" horiz-adv-x="682" 
d="M434 661h-41l-108 179h57zM290 -11q-92 0 -142 38.5t-50 110.5q0 29 7 63l74 348h50l-73 -345q-8 -37 -8 -59q0 -112 144 -112q169 0 203 166l74 349h50l-76 -356q-42 -203 -253 -203z" />
    <glyph glyph-name="uhungarumlaut.ss06" horiz-adv-x="682" 
d="M317 641h-48l134 178h63zM524 641h-48l144 178h63zM290 -11q-92 0 -142 38.5t-50 110.5q0 29 7 63l74 348h50l-73 -345q-8 -37 -8 -59q0 -112 144 -112q169 0 203 166l74 349h50l-76 -356q-42 -203 -253 -203z" />
    <glyph glyph-name="umacron.ss06" horiz-adv-x="682" 
d="M586 687h-335l9 41h335zM290 -11q-92 0 -142 38.5t-50 110.5q0 29 7 63l74 348h50l-73 -345q-8 -37 -8 -59q0 -112 144 -112q169 0 203 166l74 349h50l-76 -356q-42 -203 -253 -203z" />
    <glyph glyph-name="uogonek.ss06" horiz-adv-x="682" 
d="M495 199l74 349h50l-76 -356q-36 -173 -193 -198l-88 -46q-76 -35 -76 -86q0 -24 18 -38t51 -14h38l-8 -37h-45q-48 0 -75 22.5t-27 59.5q0 71 88 111l47 23q-84 4 -129.5 42.5t-45.5 106.5q0 29 7 63l74 348h50l-73 -345q-8 -37 -8 -59q0 -112 144 -112q169 0 203 166z
" />
    <glyph glyph-name="uring.ss06" horiz-adv-x="682" 
d="M530 665q-38 -38 -96 -38t-96 38t-38 95t38 94.5t96 37.5t96 -37.5t38 -94.5t-38 -95zM364 689q27 -27 70 -27q42 0 71 27q27 27 27 71t-27 71q-28 27 -71 27t-70 -27q-28 -27 -28 -71t28 -71zM290 -11q-92 0 -142 38.5t-50 110.5q0 29 7 63l74 348h50l-73 -345
q-8 -37 -8 -59q0 -112 144 -112q169 0 203 166l74 349h50l-76 -356q-42 -203 -253 -203z" />
    <glyph glyph-name="utilde.ss06" horiz-adv-x="682" 
d="M248 652h-43q41 168 149 168q33 0 55.5 -18t32.5 -44q22 -63 70 -63q33 0 56.5 29.5t41.5 95.5h43q-41 -168 -148 -168q-33 0 -55.5 18t-31.5 45q-24 62 -71 62q-65 0 -99 -125zM290 -11q-92 0 -142 38.5t-50 110.5q0 29 7 63l74 348h50l-73 -345q-8 -37 -8 -59
q0 -112 144 -112q169 0 203 166l74 349h50l-76 -356q-42 -203 -253 -203z" />
    <glyph glyph-name="ydieresis.ss01.ss07" horiz-adv-x="584" 
d="M265 682q-26 -2 -37 20.5t0 44.5t37 19q18 0 30 -11.5t12 -29.5q0 -19 -12 -31t-30 -12zM478 682q-26 -2 -37 20.5t0 44.5t37 19q18 0 30 -11.5t12 -29.5q0 -19 -12 -31t-30 -12zM225 44l295 504h55l-451 -752h-52l116 188l-97 564h51l82 -498v-3z" />
    <glyph glyph-name="y.ss07" horiz-adv-x="584" 
d="M225 44l295 504h55l-451 -752h-52l116 188l-97 564h51l82 -498v-3z" />
    <glyph glyph-name="yacute.ss07" horiz-adv-x="584" 
d="M451 840h63l-167 -179h-46zM225 44l295 504h55l-451 -752h-52l116 188l-97 564h51l82 -498v-3z" />
    <glyph glyph-name="ycircumflex.ss07" horiz-adv-x="584" 
d="M478 649l-92 151l-155 -151h-55l187 184h50l111 -184h-46zM225 44l295 504h55l-451 -752h-52l116 188l-97 564h51l82 -498v-3z" />
    <glyph glyph-name="ydieresis.ss07" horiz-adv-x="584" 
d="M245 772h61l-19 -86h-60zM456 772h61l-19 -86h-60zM225 44l295 504h55l-451 -752h-52l116 188l-97 564h51l82 -498v-3z" />
    <glyph glyph-name="ygrave.ss07" horiz-adv-x="584" 
d="M286 840l92 -179h-41l-108 179h57zM225 44l295 504h55l-451 -752h-52l116 188l-97 564h51l82 -498v-3z" />
    <glyph glyph-name="l.ss08" horiz-adv-x="410" 
d="M309 0h-96q-125 0 -125 104q0 17 6 47l132 617h50l-129 -605q-8 -40 -8 -53q0 -68 85 -68h94z" />
    <glyph glyph-name="lacute.ss08" horiz-adv-x="410" 
d="M265 881h-46l150 179h63zM309 0h-96q-125 0 -125 104q0 17 6 47l132 617h50l-129 -605q-8 -40 -8 -53q0 -68 85 -68h94z" />
    <glyph glyph-name="lcaron.ss08" horiz-adv-x="416" 
d="M309 0h-96q-125 0 -125 104q0 17 6 47l132 617h50l-129 -605q-8 -40 -8 -53q0 -68 85 -68h94zM361 490h-39l139 278h60z" />
    <glyph glyph-name="uni013C.ss08" horiz-adv-x="410" 
d="M309 0h-96q-125 0 -125 104q0 17 6 47l132 617h50l-129 -605q-8 -40 -8 -53q0 -68 85 -68h94zM15 -266h-25l5 28h24q20 0 28.5 5.5t12.5 20.5l14 68l-62 -15l13 61h88l-24 -112q-14 -56 -74 -56z" />
    <glyph glyph-name="ldot.ss08" horiz-adv-x="432" 
d="M309 0h-96q-125 0 -125 104q0 17 6 47l132 617h50l-129 -605q-8 -40 -8 -53q0 -68 85 -68h94zM404 339h-96l19 90h96z" />
    <glyph glyph-name="lslash.ss08" horiz-adv-x="528" 
d="M470 450l-167 -76l-45 -211q-8 -40 -8 -53q0 -68 85 -68h94l-9 -42h-96q-125 0 -125 104q0 17 6 47l42 194l-167 -87l11 50l164 76l82 384h50l-76 -356l170 89z" />
    <glyph glyph-name="uni013C.ss01.ss08" horiz-adv-x="410" 
d="M224 42h94l-9 -42h-96q-125 0 -125 104q0 17 6 47l132 617h50l-129 -605q-8 -40 -8 -53q0 -68 85 -68zM60 -92q19 0 30 -10t11 -28q0 -12 -4 -27l-12 -58q-10 -52 -76 -52h-13l7 27h11q34 0 42 30l11 53q-6 -2 -15 -2q-15 0 -24.5 8.5t-9.5 23.5q0 35 42 35z" />
    <glyph glyph-name="ldot.ss01.ss08" horiz-adv-x="435" 
d="M309 0h-96q-125 0 -125 104q0 17 6 47l132 617h50l-129 -605q-8 -40 -8 -53q0 -68 85 -68h94zM372 342q-27 -3 -38 19.5t0 45t38 19.5q27 3 38.5 -19.5t0 -45t-38.5 -19.5z" />
    <glyph glyph-name="fi.ss01" horiz-adv-x="767" 
d="M237 544l11 69q18 84 58 119.5t113 35.5h116l-9 -41h-104q-52 0 -81.5 -26t-42.5 -86l-19 -72l208 5l-10 -42l-204 5l-4 -35l-101 -476h-50l101 477l10 33l-142 -4l9 42zM717 766q26 3 37 -19t0 -44.5t-37 -20.5q-18 0 -30 12t-12 31q0 18 12 29.5t30 11.5zM587 0h-50
l117 548h50z" />
    <glyph glyph-name="fl.ss08" horiz-adv-x="885" 
d="M237 544l11 69q18 84 58 119.5t113 35.5h116l-9 -41h-104q-52 0 -81.5 -26t-42.5 -86l-19 -72l208 5l-10 -42l-204 5l-4 -35l-101 -476h-50l101 477l10 33l-142 -4l9 42zM699 42h94l-9 -42h-96q-125 0 -125 104q0 17 6 47l132 617h50l-129 -605q-8 -40 -8 -53
q0 -68 85 -68z" />
    <glyph glyph-name="ordfeminine.ss02" horiz-adv-x="612" 
d="M533 689l21 79h43l-84 -396h-41l11 77q-69 -85 -180 -85q-75 0 -118 43.5t-43 119.5q0 105 70 179q71 74 173 74q114 0 148 -91zM315 403q59 0 107.5 31.5t75.5 85.5l23 111q-7 53 -42 81.5t-92 28.5q-86 0 -141 -61q-56 -62 -56 -148q0 -61 32.5 -95t92.5 -34z" />
    <glyph glyph-name="t.sups.ss05" horiz-adv-x="396" 
d="M326 765l137 3l-10 -44l-135 3l-76 -355h-46l76 355l-138 -3l9 44l137 -3l24 114h46z" />
    <glyph glyph-name="zero.ss09" horiz-adv-x="1434" 
d="M1221 -88h-962v941h962v-941zM582 205q56 -69 158 -69t159 69q56 68 56 191q0 124 -56 191.5t-159 67.5t-159 -67.5t-56 -191.5t57 -191zM866 233q-44 -56 -126 -56t-126 56t-44 163q0 106 44.5 163t125.5 57t125.5 -57t44.5 -163q0 -107 -44 -163z" />
    <glyph glyph-name="one.ss09" horiz-adv-x="1434" 
d="M1221 -88h-962v941h962v-941zM761 473v-331h45v498h-45v-77q0 -26 -13 -36.5t-43 -10.5h-115v-43h171z" />
    <glyph glyph-name="two.ss09" horiz-adv-x="1434" 
d="M259 -88v941h962v-941h-962zM539 148h405v41h-352q2 41 32.5 71.5t100.5 62.5l83 37q67 30 96 64.5t29 84.5q0 69 -50.5 108t-140.5 39t-142 -42.5t-57 -115.5l45 -4q9 122 152 122q70 0 108.5 -28t38.5 -79q0 -36 -22 -62t-72 -49l-88 -38q-90 -40 -128 -87t-38 -125z
" />
    <glyph glyph-name="three.ss09" horiz-adv-x="1434" 
d="M1221 -88h-962v941h962v-941zM746 136q90 0 143.5 41t53.5 109q0 51 -29.5 83t-82.5 40v1q45 10 70.5 40t25.5 75q0 61 -51 95.5t-136 34.5q-83 0 -135 -35.5t-61 -96.5l43 -6q15 99 152 99q67 0 105.5 -24.5t38.5 -69.5q0 -46 -36 -70.5t-101 -24.5h-35v-41h37
q72 0 111 -26t39 -75q0 -50 -40 -79.5t-110 -29.5q-72 0 -113.5 31t-47.5 89l-45 -6q8 -72 61.5 -113t142.5 -41z" />
    <glyph glyph-name="four.ss09" horiz-adv-x="1434" 
d="M1221 -88h-962v941h962v-941zM823 282v-135h46v135l76 -3v41l-76 -4v329h-50l-303 -323v-43zM823 316l-255 3l254 273h1v-276z" />
    <glyph glyph-name="five.ss09" horiz-adv-x="1434" 
d="M259 -88v941h962v-941h-962zM743 142q95 0 149.5 47.5t54.5 128.5q0 78 -52 122.5t-142 44.5q-87 0 -143 -48h-2l36 176h280v38h-315l-52 -257l41 -10q57 64 149 64q72 0 113.5 -34.5t41.5 -95.5q0 -62 -42 -99t-115 -37q-63 0 -106 27.5t-54 73.5l-43 -13
q14 -59 68 -93.5t133 -34.5z" />
    <glyph glyph-name="six.ss09" horiz-adv-x="1434" 
d="M1221 -88h-962v941h962v-941zM753 136q87 0 140 47.5t53 124.5q0 73 -51.5 118t-138.5 45q-56 0 -101.5 -24.5t-67.5 -64.5q2 122 41.5 178.5t125.5 56.5q112 0 143 -82l40 12q-18 51 -66 79.5t-117 28.5q-213 0 -213 -280q0 -110 55.5 -174.5t156.5 -64.5zM754 175
q-68 0 -111 38t-53 112q17 49 60 79t99 30q72 0 113 -34.5t41 -92.5q0 -59 -41.5 -95.5t-107.5 -36.5z" />
    <glyph glyph-name="seven.ss09" horiz-adv-x="1434" 
d="M1221 -88h-962v941h962v-941zM654 138h46q6 270 250 460v38h-397v-40h338q-108 -87 -170 -207.5t-67 -250.5z" />
    <glyph glyph-name="eight.ss09" horiz-adv-x="1434" 
d="M1221 -88h-962v941h962v-941zM584 181q58 -40 156 -40t156 40t58 109q0 48 -31 82t-84 45v2q45 11 71 40.5t26 70.5q0 61 -52 95.5t-144 34.5t-143.5 -34.5t-51.5 -95.5q0 -40 26.5 -70.5t70.5 -40.5v-2q-55 -11 -85.5 -44t-30.5 -83q0 -69 58 -109zM740 435
q-152 0 -152 94q0 44 40 68.5t112 24.5t112.5 -24.5t40.5 -68.5q0 -94 -153 -94zM740 179q-77 0 -122.5 30.5t-45.5 80.5q0 52 44 79.5t124 27.5q82 0 125.5 -27.5t43.5 -79.5q0 -51 -45.5 -81t-123.5 -30z" />
    <glyph glyph-name="nine.ss09" horiz-adv-x="1434" 
d="M1221 -88h-962v941h962v-941zM735 138q213 0 213 281q0 110 -55.5 174t-156.5 64q-87 0 -140.5 -47.5t-53.5 -123.5q0 -73 51.5 -118t138.5 -45q56 0 101 24t69 65q-2 -122 -41.5 -178.5t-125.5 -56.5q-111 0 -143 83l-40 -13q18 -51 66 -80t117 -29zM740 360
q-71 0 -112.5 34.5t-41.5 91.5q0 59 41.5 96t107.5 37q68 0 110.5 -37.5t53.5 -111.5q-17 -50 -60 -80t-99 -30z" />
    <glyph glyph-name="zero.ss10" horiz-adv-x="1434" 
d="M1221 -88h-962v941h962v-941zM308 809v-853h864v853h-864zM899 205q-57 -69 -159 -69t-158 69q-57 67 -57 191t56 191.5t159 67.5t159 -67.5t56 -191.5q0 -123 -56 -191zM614 233q44 -56 126 -56t126 56t44 163q0 106 -44.5 163t-125.5 57t-125.5 -57t-44.5 -163
q0 -107 44 -163z" />
    <glyph glyph-name="one.ss10" horiz-adv-x="1434" 
d="M1221 -88h-962v941h962v-941zM308 809v-853h864v853h-864zM804 142h-45v331h-172v43h115q30 0 43.5 10.5t13.5 36.5v77h45v-498z" />
    <glyph glyph-name="two.ss10" horiz-adv-x="1434" 
d="M1221 -88h-962v941h962v-941zM308 809v-853h864v853h-864zM947 147h-405q0 78 38 125q39 49 128 88l88 38q95 41 95 111q0 51 -38.5 79t-109.5 28q-143 0 -151 -123l-45 4q4 73 55.5 115.5t142.5 42.5q90 0 140.5 -38.5t50.5 -107.5q0 -51 -28.5 -85t-95.5 -64l-83 -38
q-72 -33 -101.5 -62.5t-31.5 -71.5h351v-41z" />
    <glyph glyph-name="three.ss10" horiz-adv-x="1434" 
d="M1221 -88h-962v941h962v-941zM308 809v-853h864v853h-864zM742 136q-89 0 -142.5 41t-61.5 113l44 6q6 -58 47.5 -89t113.5 -31q71 0 111 29t40 80q0 49 -39 75t-112 26h-36v41h34q66 0 102 24.5t36 70.5q0 44 -39 69t-105 25q-68 0 -107 -26t-45 -73l-43 6
q9 61 60.5 96.5t135.5 35.5t135.5 -34.5t51.5 -95.5q0 -45 -25.5 -75t-70.5 -40v-1q53 -8 82.5 -40t29.5 -83q0 -68 -53.5 -109t-143.5 -41z" />
    <glyph glyph-name="four.ss10" horiz-adv-x="1434" 
d="M1221 -88h-962v941h962v-941zM308 809v-853h864v853h-864zM870 146h-46v135l-307 -3v43l302 323h51v-329l76 4v-41l-76 3v-135zM823 591l-254 -273l255 -3v276h-1z" />
    <glyph glyph-name="five.ss10" horiz-adv-x="1434" 
d="M1221 -88h-962v941h962v-941zM308 809v-853h864v853h-864zM745 137q-78 0 -132.5 35t-68.5 94l43 12q12 -46 55 -73.5t106 -27.5q72 0 114 36.5t42 99.5q0 61 -41.5 96t-113.5 35q-91 0 -148 -64l-42 9l53 257h314v-38h-280l-36 -175l2 -1q56 48 144 48q89 0 141 -44.5
t52 -122.5q0 -81 -54.5 -128.5t-149.5 -47.5z" />
    <glyph glyph-name="six.ss10" horiz-adv-x="1434" 
d="M1221 -88h-962v941h962v-941zM308 809v-853h864v853h-864zM755 134q-103 0 -158 63.5t-55 174.5q0 281 214 281q69 0 116.5 -29t65.5 -80l-40 -12q-30 82 -142 82q-86 0 -126 -56.5t-42 -178.5q24 41 69 65t101 24q87 0 138.5 -45t51.5 -118q0 -76 -53 -123.5t-140 -47.5
zM756 172q66 0 107 36.5t41 95.5q0 58 -41 92.5t-112 34.5q-56 0 -99 -30t-60 -79q10 -75 52.5 -112.5t111.5 -37.5z" />
    <glyph glyph-name="seven.ss10" horiz-adv-x="1434" 
d="M1221 -88h-962v941h962v-941zM308 809v-853h864v853h-864zM702 147h-46q5 130 67 250t170 207h-338v41h397v-39q-244 -190 -250 -459z" />
    <glyph glyph-name="eight.ss10" horiz-adv-x="1434" 
d="M1221 -88h-962v941h962v-941zM308 809v-853h864v853h-864zM896 176q-58 -40 -156 -40t-156 40t-58 110q0 49 31 82.5t85 43.5v2q-44 10 -70.5 40.5t-26.5 70.5q0 61 51.5 95.5t143.5 34.5t144 -34.5t52 -95.5q0 -40 -26.5 -70t-70.5 -41v-2q52 -10 83.5 -44t31.5 -82
q0 -70 -58 -110zM740 431q153 0 153 93q0 44 -40.5 68.5t-112.5 24.5t-112 -24.5t-40 -68.5q0 -93 152 -93zM740 175q78 0 123.5 30t45.5 81q0 52 -43.5 79.5t-125.5 27.5q-80 0 -124 -28t-44 -79t45 -81t123 -30z" />
    <glyph glyph-name="nine.ss10" horiz-adv-x="1434" 
d="M1221 -88h-962v941h962v-941zM308 809v-853h864v853h-864zM732 135q-70 0 -117.5 28.5t-65.5 80.5l40 12q32 -83 143 -83q84 0 124.5 57t42.5 178q-24 -40 -69 -64t-101 -24q-87 0 -138.5 44.5t-51.5 117.5q0 77 53.5 124.5t140.5 47.5q101 0 156.5 -64.5t55.5 -174.5
q0 -280 -213 -280zM737 357q56 0 99 29.5t60 79.5q-11 74 -53.5 111.5t-110.5 37.5q-66 0 -107.5 -36.5t-41.5 -95.5q0 -58 41 -92t113 -34z" />
    <glyph glyph-name="zero.zero" horiz-adv-x="740" 
d="M468 783q110 0 168 -65t58 -191q0 -69 -17 -149q-79 -394 -359 -394q-109 0 -167 65.5t-58 189.5q0 67 18 151q79 393 357 393zM143 238q0 -99 40 -151l396 618q-40 34 -114 34q-233 0 -305 -354q-17 -90 -17 -147zM627 383q17 80 17 146q0 99 -41 152l-395 -619
q44 -34 114 -34q235 0 305 355z" />
    <glyph glyph-name="zero.dnom" horiz-adv-x="508" 
d="M207 -9q-77 0 -120.5 46.5t-43.5 128.5q0 32 8 70q21 107 82 166t149 59q77 0 120 -46t43 -128q0 -32 -8 -70q-22 -108 -82.5 -167t-147.5 -59zM209 28q69 0 117 46.5t69 135.5q9 44 9 78q0 66 -33 102t-91 36q-72 0 -121 -50.5t-68 -145.5q-7 -34 -7 -64
q0 -66 33.5 -102t91.5 -36z" />
    <glyph glyph-name="one.dnom" horiz-adv-x="378" 
d="M200 0h-42l64 302h-156l8 38h105q27 0 41 9.5t19 33.5l15 70h42z" />
    <glyph glyph-name="two.dnom" horiz-adv-x="490" 
d="M374 0h-365q11 74 53 117.5t132 76.5l90 33q110 41 110 115q0 40 -32 62t-89 22q-125 0 -157 -110l-38 10q18 64 69.5 100t130.5 36q73 0 115.5 -31t42.5 -86q0 -99 -145 -153l-85 -32q-70 -27 -103 -55t-43 -68h322z" />
    <glyph glyph-name="three.dnom" horiz-adv-x="487" 
d="M202 -10q-79 0 -124.5 37.5t-47.5 101.5l40 6q1 -51 36 -80t96 -29q67 0 110.5 31.5t43.5 80.5q0 80 -120 80h-34l8 36h32q66 0 105.5 25t39.5 69q0 38 -32.5 58.5t-87.5 20.5q-120 0 -151 -91l-40 6q18 55 69.5 87.5t125.5 32.5q70 0 113.5 -29t43.5 -79
q0 -44 -30.5 -75.5t-80.5 -39.5l-1 -1q82 -21 82 -97q0 -67 -55 -109t-141 -42z" />
    <glyph glyph-name="four.dnom" horiz-adv-x="476" 
d="M305 0h-41l26 123l-280 -3l9 39l337 294h46l-64 -300l70 4l-8 -37l-68 3zM349 406l-284 -250l232 -3l53 252z" />
    <glyph glyph-name="five.dnom" horiz-adv-x="488" 
d="M200 -9q-72 0 -119 32t-56 84l41 12q8 -42 43.5 -67t91.5 -25q72 0 117.5 39t45.5 99q0 48 -32.5 75.5t-87.5 27.5q-82 0 -141 -59l-38 17l94 227h287l-8 -35h-255l-66 -159l2 -1q61 44 135 44q70 0 110.5 -36.5t40.5 -98.5q0 -77 -57 -127q-56 -49 -148 -49z" />
    <glyph glyph-name="six.dnom" horiz-adv-x="501" 
d="M218 -10q-79 0 -124 45.5t-45 128.5q0 123 67 211q68 87 174 87q56 0 96.5 -26t56.5 -71l-35 -16q-28 78 -121 78q-77 0 -129.5 -60t-64.5 -160q66 89 175 89q67 0 106.5 -36t39.5 -96q0 -74 -54 -123q-54 -51 -142 -51zM221 24q68 0 111 40q42 39 42 96q0 47 -32 74.5
t-85 27.5q-111 0 -168 -106q1 -64 36 -98t96 -34z" />
    <glyph glyph-name="seven.dnom" horiz-adv-x="438" 
d="M114 0h-42q30 119 109.5 227.5t194.5 188.5h-307l8 37h361l-8 -36q-257 -171 -316 -417z" />
    <glyph glyph-name="eight.dnom" horiz-adv-x="530" 
d="M223 -9q-82 0 -131 33.5t-49 88.5q0 48 36.5 82.5t97.5 45.5v2q-70 21 -70 88q0 58 54.5 94.5t141.5 36.5q77 0 120.5 -28t43.5 -76q0 -42 -31.5 -74t-82.5 -42v-1q85 -28 85 -105q0 -66 -59.5 -105.5t-155.5 -39.5zM268 258q74 0 116.5 25.5t42.5 68.5q0 36 -33 56
t-94 20q-70 0 -112.5 -26.5t-42.5 -70.5q0 -73 123 -73zM225 25q78 0 124.5 30t46.5 81q0 42 -35 64.5t-100 22.5q-82 0 -129 -28.5t-47 -77.5q0 -42 38 -67t102 -25z" />
    <glyph glyph-name="nine.dnom" horiz-adv-x="500" 
d="M190 -11q-56 0 -96.5 26t-56.5 71l35 16q29 -78 121 -78q77 0 129.5 60t64.5 160q-65 -89 -175 -89q-67 0 -106.5 36t-39.5 96q0 73 54 124q55 50 142 50q79 0 123.5 -45.5t44.5 -128.5q0 -124 -67 -210q-67 -88 -173 -88zM223 189q109 0 168 105q-1 64 -36.5 98.5
t-95.5 34.5q-68 0 -110 -39q-43 -40 -43 -97q0 -47 31.5 -74.5t85.5 -27.5z" />
    <glyph glyph-name="zero.numr" horiz-adv-x="508" 
d="M281 337q-77 0 -120.5 46.5t-43.5 128.5q0 32 8 70q21 107 82 166t149 59q77 0 120 -46t43 -128q0 -32 -8 -70q-22 -108 -82.5 -167t-147.5 -59zM283 374q69 0 117 46.5t69 135.5q9 44 9 78q0 66 -33 102t-91 36q-72 0 -121 -50.5t-68 -145.5q-7 -34 -7 -64
q0 -66 33.5 -102t91.5 -36z" />
    <glyph glyph-name="one.numr" horiz-adv-x="378" 
d="M274 346h-42l64 302h-156l8 38h105q27 0 41 9.5t19 33.5l15 70h42z" />
    <glyph glyph-name="two.numr" horiz-adv-x="490" 
d="M448 346h-365q11 74 53 117.5t132 76.5l90 33q110 41 110 115q0 40 -32 62t-89 22q-125 0 -157 -110l-38 10q18 64 69.5 100t130.5 36q73 0 115.5 -31t42.5 -86q0 -99 -145 -153l-85 -32q-70 -27 -103 -55t-43 -68h322z" />
    <glyph glyph-name="three.numr" horiz-adv-x="487" 
d="M276 336q-79 0 -124.5 37.5t-47.5 101.5l40 6q2 -51 37 -80t95 -29q67 0 110.5 31.5t43.5 80.5q0 80 -120 80h-34l8 36h32q66 0 105.5 25t39.5 69q0 38 -32.5 58.5t-87.5 20.5q-120 0 -151 -91l-40 6q18 55 69.5 87.5t125.5 32.5q70 0 113.5 -29t43.5 -79
q0 -44 -30.5 -75.5t-80.5 -39.5l-1 -1q82 -21 82 -97q0 -67 -55 -109t-141 -42z" />
    <glyph glyph-name="four.numr" horiz-adv-x="476" 
d="M379 346h-41l26 123l-280 -3l9 39l337 294h46l-64 -300l70 4l-8 -37l-68 3zM423 752l-284 -250l232 -3l53 252z" />
    <glyph glyph-name="five.numr" horiz-adv-x="488" 
d="M274 337q-72 0 -119 32t-56 84l41 12q8 -42 43.5 -67t91.5 -25q72 0 117.5 39t45.5 99q0 48 -32.5 75.5t-87.5 27.5q-82 0 -141 -59l-38 17l94 227h287l-8 -35h-255l-66 -159l2 -1q61 44 135 44q70 0 110.5 -36.5t40.5 -98.5q0 -77 -57 -127q-56 -49 -148 -49z" />
    <glyph glyph-name="six.numr" horiz-adv-x="501" 
d="M292 336q-79 0 -124 45.5t-45 128.5q0 123 67 211q68 87 174 87q56 0 96.5 -26t56.5 -71l-35 -16q-28 78 -121 78q-77 0 -129.5 -60t-64.5 -160q66 89 175 89q67 0 106.5 -36t39.5 -96q0 -74 -54 -123q-54 -51 -142 -51zM295 370q68 0 111 40q42 39 42 96q0 47 -32 74.5
t-85 27.5q-111 0 -168 -106q1 -64 36 -98t96 -34z" />
    <glyph glyph-name="seven.numr" horiz-adv-x="438" 
d="M188 346h-42q30 119 109.5 227.5t194.5 188.5h-307l8 37h361l-8 -36q-257 -171 -316 -417z" />
    <glyph glyph-name="eight.numr" horiz-adv-x="530" 
d="M297 337q-82 0 -131 33.5t-49 88.5q0 48 36.5 82.5t97.5 45.5v2q-70 21 -70 88q0 58 54.5 94.5t141.5 36.5q77 0 120.5 -28t43.5 -76q0 -42 -31.5 -74t-82.5 -42v-1q85 -28 85 -105q0 -66 -59.5 -105.5t-155.5 -39.5zM342 604q74 0 116.5 25.5t42.5 68.5q0 36 -33 56
t-94 20q-70 0 -112.5 -26.5t-42.5 -70.5q0 -73 123 -73zM299 371q78 0 124.5 30t46.5 81q0 42 -35 64.5t-100 22.5q-82 0 -129 -28.5t-47 -77.5q0 -42 38 -67t102 -25z" />
    <glyph glyph-name="nine.numr" horiz-adv-x="500" 
d="M274 335q-56 0 -96.5 26t-56.5 71l35 16q29 -78 121 -78q77 0 129.5 60t64.5 160q-66 -89 -175 -89q-67 0 -106.5 36t-39.5 96q0 73 54 124q55 50 142 50q79 0 123.5 -45.5t44.5 -128.5q0 -124 -67 -210q-67 -88 -173 -88zM307 535q109 0 168 105q-1 65 -36.5 99
t-96.5 34q-67 0 -109 -39q-43 -40 -43 -97q0 -47 31.5 -74.5t85.5 -27.5z" />
    <glyph glyph-name="zero.tf" horiz-adv-x="740" 
d="M317 -16q-109 0 -167 65.5t-58 189.5q0 67 18 151q80 393 357 393q110 0 168 -65t58 -191q0 -69 -17 -149q-79 -394 -359 -394zM321 28q235 0 305 355q17 80 17 146q0 210 -179 210q-233 0 -305 -354q-17 -90 -17 -147q0 -210 179 -210z" />
    <glyph glyph-name="one.tf" horiz-adv-x="740" 
d="M518 768l-155 -724h229l-9 -44h-484l9 44h204l136 634q-91 -78 -224 -85l10 44q158 9 239 131h45z" />
    <glyph glyph-name="two.tf" horiz-adv-x="740" 
d="M580 0h-532q19 95 81 163q61 67 194 137l130 69q95 50 138.5 101.5t43.5 124.5q0 67 -43 104t-122 37q-99 0 -162.5 -49t-79.5 -139l-3 -12h-50l3 13q21 113 98.5 173.5t198.5 60.5q98 0 154 -49.5t56 -134.5q0 -92 -53 -153q-54 -62 -165 -120l-105 -56
q-122 -64 -173 -112q-54 -51 -70 -111h471z" />
    <glyph glyph-name="three.tf" horiz-adv-x="740" 
d="M327 -14q-110 0 -175 53.5t-65 145.5q0 15 3 32l49 4q-2 -26 -2 -30q0 -75 52.5 -118t142.5 -43q110 0 178 60q66 60 66 159q0 65 -46 101t-131 36h-57l9 44h58q97 0 158 49t61 130q0 61 -47 97t-126 36q-94 0 -154 -44.5t-84 -126.5l-49 5q28 100 102.5 155t187.5 55
q101 0 160.5 -47.5t59.5 -125.5q0 -81 -50 -134.5t-136 -69.5v-2q65 -14 99.5 -54t34.5 -101q0 -124 -81 -194q-81 -72 -218 -72z" />
    <glyph glyph-name="four.tf" horiz-adv-x="740" 
d="M652 768l-112 -523l114 5l-9 -42l-112 5l-45 -213h-48l45 213l-418 -5l8 36l513 524h64zM137 250l355 -5l99 462h-2z" />
    <glyph glyph-name="five.tf" horiz-adv-x="740" 
d="M326 -16q-108 0 -172 59q-64 58 -64 155l53 5q0 -83 49.5 -128.5t137.5 -45.5q115 0 182 76t67 193q0 76 -46 119.5t-127 43.5q-115 0 -206 -91l-50 6l153 392h405l-10 -49h-363l-114 -289l2 -1q85 76 193 76q101 0 157.5 -55t56.5 -149q0 -140 -82 -228
q-83 -89 -222 -89z" />
    <glyph glyph-name="six.tf" horiz-adv-x="740" 
d="M481 740q-119 0 -194.5 -95t-116.5 -304q93 148 255 148q95 0 150.5 -55t55.5 -146q0 -129 -81 -216q-82 -88 -208 -88q-112 0 -172.5 67t-60.5 184q0 58 17 137q46 208 130.5 309.5t227.5 101.5q96 0 153 -45t61 -126l-48 -5q-5 63 -49 98t-120 35zM416 445
q-170 0 -256 -179q-2 -18 -2 -39q0 -93 48.5 -146t136.5 -53q105 0 172 75q66 73 66 181q0 75 -43.5 118t-121.5 43z" />
    <glyph glyph-name="seven.tf" horiz-adv-x="740" 
d="M246 0h-53q120 423 474 719h-482l11 49h558l-8 -37q-187 -149 -314.5 -336t-185.5 -395z" />
    <glyph glyph-name="eight.tf" horiz-adv-x="740" 
d="M324 -16q-111 0 -178 52q-69 51 -69 140q0 92 62 159q62 66 161 84v2q-57 14 -88 51.5t-31 89.5q0 102 80 164q79 60 203 60q105 0 165.5 -44.5t60.5 -122.5q0 -76 -51.5 -129.5t-139.5 -74.5v-2q66 -15 101.5 -57.5t35.5 -106.5q0 -118 -89 -192q-89 -73 -223 -73z
M403 437q104 0 171 49q66 48 66 130q0 60 -47.5 93t-132.5 33q-100 0 -164 -49q-65 -50 -65 -133q0 -59 45 -91t127 -32zM326 28q112 0 185 61q74 62 74 158q0 70 -49.5 108t-142.5 38q-117 0 -191 -57q-74 -59 -74 -157q0 -70 52.5 -110.5t145.5 -40.5z" />
    <glyph glyph-name="nine.tf" horiz-adv-x="740" 
d="M445 783q112 0 172.5 -67t60.5 -183q0 -67 -16 -137q-47 -210 -131.5 -311t-227.5 -101q-94 0 -151.5 45t-62.5 126l49 6q5 -64 48.5 -99t120.5 -35q118 0 193.5 95t116.5 303q-95 -146 -254 -146q-96 0 -151.5 54.5t-55.5 145.5q0 129 82 217q82 87 207 87zM628 502
q2 34 2 38q0 93 -49 146.5t-137 53.5q-104 0 -170 -74q-67 -74 -67 -182q0 -76 43 -119t122 -43q168 0 256 180z" />
    <glyph glyph-name="zero.tf.zero" horiz-adv-x="740" 
d="M461 783q109 0 167 -65.5t58 -190.5q0 -69 -17 -149q-79 -394 -358 -394q-110 0 -167.5 65.5t-57.5 189.5q0 69 17 151q79 393 358 393zM135 238q0 -99 40 -151l396 618q-40 34 -114 34q-233 0 -305 -354q-17 -90 -17 -147zM620 383q16 77 16 146q0 99 -40 151l-396 -618
q44 -34 114 -34q236 0 306 355z" />
    <glyph glyph-name="period.ss01" horiz-adv-x="341" 
d="M121 -8q-21 0 -35 13.5t-14 34.5q0 20 14 33.5t35 13.5q20 0 34 -13.5t14 -33.5q0 -21 -14 -34.5t-34 -13.5z" />
    <glyph glyph-name="comma.ss01" horiz-adv-x="361" 
d="M131 90q55 0 55 -56q0 -16 -9 -58l-11 -56q-21 -93 -113 -93h-9l7 35h9q33 0 48 14.5t23 51.5l13 59h-14q-28 0 -43.5 13t-15.5 36q0 24 16 39t44 15z" />
    <glyph glyph-name="colon.ss01" horiz-adv-x="336" 
d="M240 401q-22 -22 -53 -10t-31 44q0 20 14 33.5t35 13.5q20 0 34 -13.5t14 -33.5q0 -21 -13 -34zM156 6q-21 -22 -53.5 -10t-29.5 44q0 20 13.5 33.5t34.5 13.5t34.5 -13.5t13.5 -33.5q0 -21 -13 -34z" />
    <glyph glyph-name="semicolon.ss01" horiz-adv-x="336" 
d="M205 482q20 0 34 -13.5t14 -33.5q3 -30 -22.5 -42t-51 0t-23.5 42q0 20 14 33.5t35 13.5zM131 90q55 0 55 -56q0 -16 -9 -58l-11 -56q-21 -93 -113 -93h-9l7 35h9q33 0 48 14.5t23 51.5l13 59h-14q-28 0 -43.5 13t-15.5 36q0 24 16 39t44 15z" />
    <glyph glyph-name="ellipsis.ss01" horiz-adv-x="1022" 
d="M121 -8q-21 0 -35 13.5t-14 34.5q0 20 14 33.5t35 13.5q20 0 34 -13.5t14 -33.5q0 -21 -14 -34.5t-34 -13.5zM496 6q-21 -22 -53.5 -10t-29.5 44q0 20 13.5 33.5t34.5 13.5t35 -13.5t14 -33.5t-14 -34zM837 6q-23 -22 -53.5 -10t-30.5 44q0 20 14 33.5t35 13.5
t34.5 -13.5t13.5 -33.5q0 -21 -13 -34z" />
    </font>
</defs>
</svg>
