<?xml version="1.0" standalone="no"?>
<!DOCTYPE svg PUBLIC "-//W3C//DTD SVG 1.1//EN" "http://www.w3.org/Graphics/SVG/1.1/DTD/svg11.dtd" >
<svg xmlns="http://www.w3.org/2000/svg" xmlns:xlink="http://www.w3.org/1999/xlink" version="1.1">
<metadata>
Created by FontForge 20190801 at Sun Apr 14 18:27:54 2019
 By www-data
Copyright (c) 2019 Monotype Imaging Inc. All rights reserved.
</metadata>
<defs>
<font id="HelveticaNowTextExtraLight" horiz-adv-x="640" >
  <font-face 
    font-family="HelveticaNowTextExtraLight"
    font-weight="300"
    font-stretch="normal"
    units-per-em="1000"
    panose-1="2 11 3 4 3 2 2 2 2 4"
    ascent="875"
    descent="-125"
    x-height="516"
    cap-height="712"
    bbox="-318 -322 1613 1101"
    underline-thickness="50"
    underline-position="-300"
    unicode-range="U+000D-FEFF"
  />
<missing-glyph horiz-adv-x="739" 
d="M638 0h-537v712h537v-712zM141 676v-640h456v640h-456z" />
    <glyph glyph-name="fi" unicode="fi" horiz-adv-x="548" 
d="M121 514v57q0 74 32.5 107.5t101.5 33.5h52v-35h-51q-49 0 -72 -23.5t-23 -78.5v-61l146 2v-33l-146 2v-485h-40v485l-94 -2v33zM415 642v70h48v-70h-48zM459 0h-40v516h40v-516z" />
    <glyph glyph-name="fl" unicode="fl" horiz-adv-x="548" 
d="M121 514v57q0 74 32.5 107.5t101.5 33.5h52v-35h-51q-49 0 -72 -23.5t-23 -78.5v-61l146 2v-33l-146 2v-485h-40v485l-94 -2v33zM419 0v712h40v-712h-40z" />
    <glyph glyph-name=".notdef" horiz-adv-x="739" 
d="M638 0h-537v712h537v-712zM141 676v-640h456v640h-456z" />
    <glyph glyph-name=".null" horiz-adv-x="0" 
 />
    <glyph glyph-name="nonmarkingreturn" horiz-adv-x="333" 
 />
    <glyph glyph-name="NULL" horiz-adv-x="0" 
 />
    <glyph glyph-name="NULL" horiz-adv-x="0" 
 />
    <glyph glyph-name="CR" unicode="&#xd;" horiz-adv-x="290" 
 />
    <glyph glyph-name="space" unicode=" " horiz-adv-x="290" 
 />
    <glyph glyph-name="exclam" unicode="!" horiz-adv-x="261" 
d="M141 168h-21l-10 339v205h41v-205zM160 0h-59v59h59v-59z" />
    <glyph glyph-name="quotedbl" unicode="&#x22;" horiz-adv-x="415" 
d="M126 436h-36v276h36v-276zM325 436h-36v276h36v-276z" />
    <glyph glyph-name="numbersign" unicode="#" horiz-adv-x="663" 
d="M612 506v-34l-130 1l-32 -234l124 2v-34l-129 1l-29 -208h-34l29 208h-201l-29 -208h-34l29 208l-125 -1v34l130 -2l32 234l-124 -1v34l129 -1l29 207h34l-29 -207h201l29 207h34l-29 -207zM247 473l-32 -234h201l32 234h-201z" />
    <glyph glyph-name="dollar" unicode="$" 
d="M561 196q0 -88 -57 -139.5t-160 -56.5v-144h-36v144q-206 9 -228 216h39q19 -181 207 -181q95 0 145.5 42t50.5 116q0 59 -34 93.5t-104 50.5l-113 26q-169 37 -169 173q0 81 54 129t152 51v131h36v-132q90 -6 142 -56t58 -134h-38q-7 76 -55.5 116t-131.5 40
q-85 0 -131 -38t-46 -106q0 -55 33 -88.5t106 -50.5l113 -25q87 -20 127 -63t40 -114z" />
    <glyph glyph-name="percent" unicode="%" horiz-adv-x="1242" 
d="M276 312q-175 0 -175 222q0 223 175 223q176 0 176 -223q0 -222 -176 -222zM403 -15h-41l448 742h40zM276 344q71 0 105 46.5t34 143.5q0 190 -139 190t-139 -190t139 -190zM965 -10q-176 0 -176 223t176 223q175 0 175 -223t-175 -223zM965 23q139 0 139 190t-139 190
t-139 -190q0 -97 34 -143.5t105 -46.5z" />
    <glyph glyph-name="ampersand" unicode="&#x26;" horiz-adv-x="748" 
d="M590 129l130 -129h-54l-100 99q-97 -109 -245 -109q-107 0 -169 53t-62 143q0 71 42.5 120.5t138.5 85.5q-55 56 -78 97t-23 82q0 67 48 109t126 42t126 -42t48 -109q0 -121 -182 -191l229 -226q46 65 58 155h39q-14 -102 -72 -180zM343 687q-60 0 -97 -31.5t-37 -83.5
q0 -36 22 -73t74 -88l5 -5q89 33 129 72t40 91t-37 85t-99 33zM322 25q135 0 219 99l-244 242q-90 -33 -129.5 -75.5t-39.5 -103.5q0 -75 51.5 -118.5t142.5 -43.5z" />
    <glyph glyph-name="quotesingle" unicode="'" horiz-adv-x="216" 
d="M126 436h-36v276h36v-276z" />
    <glyph glyph-name="parenleft" unicode="(" horiz-adv-x="317" 
d="M266 -204h-37q-153 206 -153 471q0 275 153 480h37q-150 -209 -150 -480q0 -263 150 -471z" />
    <glyph glyph-name="parenright" unicode=")" horiz-adv-x="317" 
d="M88 -204h-37q150 208 150 471q0 271 -150 480h37q153 -205 153 -480q0 -265 -153 -471z" />
    <glyph glyph-name="asterisk" unicode="*" horiz-adv-x="548" 
d="M275 506l-102 -139l-28 19l106 137l-161 55l11 30l159 -59l-2 163h33l-2 -163l158 59l11 -30l-160 -55l104 -137l-27 -19z" />
    <glyph glyph-name="plus" unicode="+" 
d="M337 328h257v-36h-257v-256h-36v256h-256v36h256v257h36v-257z" />
    <glyph glyph-name="comma" unicode="," horiz-adv-x="255" 
d="M100 -147h-9v25h9q38 0 38 38v87l-47 -5v63h73v-140q0 -68 -64 -68z" />
    <glyph glyph-name="hyphen" unicode="-" horiz-adv-x="377" 
d="M329 231h-280v37h280v-37z" />
    <glyph glyph-name="period" unicode="." horiz-adv-x="250" 
d="M162 0h-74v64h74v-64z" />
    <glyph glyph-name="slash" unicode="/" horiz-adv-x="442" 
d="M93 0h-40l296 712h40z" />
    <glyph glyph-name="zero" unicode="0" 
d="M555 356q0 -364 -235 -364t-235 364t235 364t235 -364zM174 108q47 -80 146 -80t147 80q47 80 47 248t-47 248q-48 80 -147 80t-146 -80q-48 -80 -48 -248t48 -248z" />
    <glyph glyph-name="one" unicode="1" horiz-adv-x="442" 
d="M252 712h38v-712h-40v640q-33 -38 -86.5 -62t-112.5 -28v36q68 5 121.5 37.5t79.5 88.5z" />
    <glyph glyph-name="two" unicode="2" 
d="M544 0h-452q2 90 49 158t145 123l93 54q68 38 98.5 80.5t30.5 98.5q0 74 -48 121t-132 47q-86 0 -134 -49.5t-48 -149.5v-7h-40v8q0 114 60 174.5t162 60.5q104 0 162 -57q58 -58 58 -146q0 -128 -145 -210l-85 -49q-91 -52 -132.5 -105t-44.5 -115h403v-37z" />
    <glyph glyph-name="three" unicode="3" 
d="M323 -9q-116 0 -186 61q-71 62 -72 160h40q2 -84 61 -134t158 -50q96 0 153 46t57 124q0 74 -51.5 117t-142.5 43h-59v37h50q77 0 120.5 39t43.5 103q0 69 -48.5 108t-133.5 39q-88 0 -134.5 -43.5t-48.5 -126.5h-40q2 97 61 151.5t163 54.5q100 0 161 -48.5t61 -131.5
q0 -121 -122 -159v-3q76 -13 118.5 -61t42.5 -119q0 -94 -69 -150q-70 -57 -183 -57z" />
    <glyph glyph-name="four" unicode="4" 
d="M464 712v-483h110v-36h-110v-193h-40v193h-358v37l368 482h30zM109 229h315v409h-2z" />
    <glyph glyph-name="five" unicode="5" 
d="M315 -16q-95 0 -156 52t-72 140h40q10 -72 60.5 -114.5t128.5 -42.5q89 0 141.5 55.5t52.5 148.5q0 91 -50.5 145.5t-136.5 54.5q-117 0 -172 -94l-45 4l65 379h344v-37h-315l-51 -303l2 -1q62 87 178 87q102 0 162 -65q60 -66 60 -169q0 -107 -63 -173q-63 -67 -173 -67
z" />
    <glyph glyph-name="six" unicode="6" 
d="M335 453q100 0 159 -62q58 -61 58 -162q0 -107 -61 -171q-61 -66 -162 -66q-121 0 -182 87q-60 79 -60 258q0 188 62 286t183 98q86 0 140 -48t61 -132h-39q-8 69 -50.5 107t-111.5 38q-206 0 -206 -346q0 -16 1 -20q28 63 82 98t126 35zM330 26q82 0 132 55.5t50 145.5
q0 87 -49 139t-133 52q-78 0 -130.5 -46.5t-67.5 -126.5q8 -95 46 -147q53 -72 152 -72z" />
    <glyph glyph-name="seven" unicode="7" 
d="M246 0h-42q12 200 89 371t212 303h-422v38h473v-32q-288 -266 -310 -680z" />
    <glyph glyph-name="eight" unicode="8" 
d="M506 47q-73 -56 -186 -56q-114 0 -185 56q-72 55 -72 152q0 72 42.5 120t120.5 64v2q-66 16 -101 57.5t-35 100.5q0 81 62 129t168 48t168 -48t62 -129q0 -59 -35.5 -100.5t-101.5 -57.5v-2q80 -16 122 -63.5t42 -120.5q0 -96 -71 -152zM179 437q49 -37 141 -37t142 37
q50 38 50 104q0 68 -51 106t-141 38t-141 -37.5t-51 -106.5q0 -67 51 -104zM163 74q59 -48 157 -48q100 0 158 48q58 46 58 126q0 78 -57 121.5t-159 43.5q-103 0 -159.5 -43.5t-56.5 -121.5q0 -79 59 -126z" />
    <glyph glyph-name="nine" unicode="9" 
d="M493 634q60 -80 60 -258q0 -188 -62 -286t-183 -98q-86 0 -140 48t-61 132h39q8 -70 51 -108t111 -38q206 0 206 347q0 16 -1 20q-28 -63 -82 -98t-126 -35q-99 0 -158 62t-59 162q0 105 62 172q62 65 161 65q121 0 182 -87zM310 295q78 0 130.5 46t67.5 127
q-8 94 -46 146q-53 72 -152 72q-82 0 -132 -55t-50 -145q0 -87 49 -139t133 -52z" />
    <glyph glyph-name="colon" unicode=":" horiz-adv-x="250" 
d="M162 406h-74v64h74v-64zM162 0h-74v64h74v-64z" />
    <glyph glyph-name="semicolon" unicode=";" horiz-adv-x="262" 
d="M166 406h-75v64h75v-64zM106 -147h-8v25h9q38 0 38 38v87l-47 -5v63h73v-140q0 -68 -65 -68z" />
    <glyph glyph-name="less" unicode="&#x3c;" 
d="M59 325l522 223v-40l-485 -205l485 -204v-40l-522 222v44z" />
    <glyph glyph-name="equal" unicode="=" 
d="M584 401h-529v36h529v-36zM584 182h-529v36h529v-36z" />
    <glyph glyph-name="greater" unicode="&#x3e;" 
d="M59 508v40l522 -223v-44l-522 -222v40l484 204z" />
    <glyph glyph-name="question" unicode="?" horiz-adv-x="608" 
d="M305 170h-38v23q0 65 24 105q22 39 92 79q61 35 85.5 71t24.5 85q0 74 -51.5 114t-141.5 40q-96 0 -147 -47.5t-54 -137.5h-38q3 104 65 161t174 57q107 0 169 -49t62 -139q0 -55 -25.5 -96.5t-84.5 -76.5l-34 -21q-50 -32 -66 -62q-16 -31 -16 -91v-15zM317 0h-60v59h60
v-59z" />
    <glyph glyph-name="at" unicode="@" horiz-adv-x="1070" 
d="M538 722q200 0 316 -108q115 -109 115 -292q0 -127 -48.5 -201.5t-132.5 -74.5q-99 0 -103 103q-23 -51 -65.5 -77t-93.5 -26q-88 0 -138.5 61.5t-50.5 166.5q0 102 52 162.5t137 60.5q51 0 93.5 -25.5t65.5 -74.5l3 87h34v-333q0 -74 68 -74q66 0 104.5 63t38.5 178
q0 171 -106 270t-290 99q-188 0 -292 -108q-105 -109 -105 -305t106 -303q106 -108 294 -108q96 0 189 35l1 -38q-94 -31 -189 -31q-205 0 -322 117q-118 118 -118 328t117 329q116 119 320 119zM529 76q62 0 103 40.5t53 110.5v95q-11 67 -52 105.5t-104 38.5
q-72 0 -113.5 -52t-41.5 -140q0 -92 41 -145t114 -53z" />
    <glyph glyph-name="A" unicode="A" horiz-adv-x="716" 
d="M680 0h-45l-95 231h-364l-96 -231h-43l300 714h43zM347 641l-156 -374h334l-155 374l-11 35z" />
    <glyph glyph-name="B" unicode="B" horiz-adv-x="729" 
d="M494 375q159 -31 159 -182q0 -88 -56 -140.5t-148 -52.5h-348v712h321q94 0 146.5 -48t52.5 -126q0 -60 -33 -103t-94 -60zM416 676h-275v-287h272q80 0 123.5 39t43.5 105q0 65 -42.5 104t-121.5 39zM141 36h306q75 0 120 41.5t45 115.5q0 76 -49.5 118t-138.5 42h-283
v-317z" />
    <glyph glyph-name="C" unicode="C" horiz-adv-x="736" 
d="M391 -14q-146 0 -230 104q-85 103 -85 267q0 166 86 267q85 100 228 100q115 0 195 -64q81 -65 94 -164h-41q-15 87 -82 139q-68 53 -165 53q-125 0 -199 -89q-75 -90 -75 -242q0 -150 74 -242t201 -92q102 0 172 61q71 62 78 161h40q-11 -114 -91 -186q-80 -73 -200 -73
z" />
    <glyph glyph-name="D" unicode="D" horiz-adv-x="727" 
d="M101 712h240q156 0 236.5 -93t80.5 -263t-84 -263t-247 -93h-226v712zM141 36h185q146 0 218.5 82t72.5 238q0 155 -71 237.5t-211 82.5h-194v-640z" />
    <glyph glyph-name="E" unicode="E" horiz-adv-x="666" 
d="M141 353v-317h454v-36h-494v712h478v-36h-438v-287h408v-36h-408z" />
    <glyph glyph-name="F" unicode="F" horiz-adv-x="609" 
d="M578 712v-36h-437v-289h376v-36h-376v-351h-40v712h477z" />
    <glyph glyph-name="G" unicode="G" horiz-adv-x="817" 
d="M413 323v36h303v-359h-32l-7 161q-33 -83 -104.5 -128.5t-170.5 -45.5q-150 0 -238 102q-88 101 -88 269q0 169 87 268t241 99q124 0 205 -59t100 -163l-39 -3q-16 85 -84 137t-180 52q-136 0 -213 -89q-76 -88 -76 -243q0 -151 76 -242q77 -92 210 -92q114 0 187 67
t86 185v48h-263z" />
    <glyph glyph-name="H" unicode="H" horiz-adv-x="739" 
d="M597 397v315h41v-712h-41v361h-456v-361h-40v712h40v-315h456z" />
    <glyph glyph-name="I" unicode="I" horiz-adv-x="242" 
d="M141 0h-40v712h40v-712z" />
    <glyph glyph-name="J" unicode="J" horiz-adv-x="561" 
d="M260 -12q-97 0 -150 51.5t-53 151.5v47h40v-46q0 -83 42 -125t121 -42q77 0 118.5 42t41.5 125v520h40v-521q0 -100 -52.5 -151.5t-147.5 -51.5z" />
    <glyph glyph-name="K" unicode="K" horiz-adv-x="704" 
d="M668 0h-51l-304 394l-172 -161v-233h-40v712h40v-429l458 429h55l-312 -292z" />
    <glyph glyph-name="L" unicode="L" horiz-adv-x="607" 
d="M141 712v-676h415v-36h-455v712h40z" />
    <glyph glyph-name="M" unicode="M" horiz-adv-x="890" 
d="M462 87l272 625h55v-712h-38v601l2 64l-25 -64l-263 -601h-37l-268 607l-24 57l2 -63v-601h-37v712h55l274 -625l16 -44z" />
    <glyph glyph-name="N" unicode="N" horiz-adv-x="741" 
d="M601 58v654h38v-712h-43l-457 653v-653h-38v712h42z" />
    <glyph glyph-name="O" unicode="O" horiz-adv-x="811" 
d="M405 -14q-149 0 -239 104t-90 266t90 266q90 102 239 102q150 0 240 -102q90 -104 90 -266t-90 -266t-240 -104zM405 23q131 0 211 92q78 91 78 241q0 149 -78 241q-79 91 -211 91q-131 0 -209 -91q-79 -91 -79 -241q0 -149 79 -240q78 -93 209 -93z" />
    <glyph glyph-name="P" unicode="P" horiz-adv-x="646" 
d="M101 712h278q99 0 157.5 -51.5t58.5 -144.5q0 -95 -59.5 -147t-165.5 -52h-229v-317h-40v712zM141 353h230q88 0 136 42t48 121q0 76 -48 118t-129 42h-237v-323z" />
    <glyph glyph-name="Q" unicode="Q" horiz-adv-x="795" 
d="M735 356q0 -183 -109 -286l109 -88l-21 -27l-113 94q-83 -63 -196 -63q-149 0 -239 104t-90 266t90 266q90 102 239 102q150 0 240 -102q90 -104 90 -266zM117 356q0 -149 79 -240q78 -93 209 -93q95 0 165 51l-120 97l22 27l124 -103q98 93 98 261q0 149 -78 241
q-79 91 -211 91q-131 0 -209 -91q-79 -91 -79 -241z" />
    <glyph glyph-name="R" unicode="R" horiz-adv-x="718" 
d="M603 202l24 -202h-41l-22 188q-7 66 -38 101q-36 39 -136 39h-249v-328h-40v712h315q95 0 151 -50t56 -136q0 -74 -39.5 -120.5t-109.5 -59.5q62 -9 92 -44t37 -100zM141 676v-311h254q89 0 138 41.5t49 116.5q0 73 -44.5 113t-126.5 40h-270z" />
    <glyph glyph-name="S" unicode="S" horiz-adv-x="666" 
d="M341 -13q-259 0 -281 228h39q21 -194 243 -194q107 0 165.5 43.5t58.5 121.5q0 61 -39 97.5t-122 53.5l-132 26q-187 37 -187 175q0 87 65 137t179 50t182 -53t73 -148h-39q-4 80 -61.5 123.5t-155.5 43.5q-96 0 -150 -40t-54 -110q0 -109 154 -140l140 -29
q186 -38 186 -185q0 -94 -68.5 -147t-195.5 -53z" />
    <glyph glyph-name="T" unicode="T" horiz-adv-x="647" 
d="M48 712h551v-36h-256v-676h-40v676h-255v36z" />
    <glyph glyph-name="U" unicode="U" horiz-adv-x="734" 
d="M367 -13q-127 0 -196.5 60.5t-69.5 185.5v479h40v-480q0 -209 226 -209q225 0 225 209v480h40v-479q0 -124 -70 -185t-195 -61z" />
    <glyph glyph-name="V" unicode="V" horiz-adv-x="673" 
d="M375 143l219 569h43l-278 -716h-44l-278 716h44l219 -569l38 -102z" />
    <glyph glyph-name="W" unicode="W" horiz-adv-x="941" 
d="M703 173l161 539h41l-214 -716h-37l-185 666l-184 -666h-38l-210 716h41l158 -539l31 -120l30 120l151 539h43l150 -539l31 -120z" />
    <glyph glyph-name="X" unicode="X" horiz-adv-x="674" 
d="M617 712l-256 -341l277 -371h-51l-226 308l-22 34l-24 -34l-230 -308h-48l279 371l-257 341h51l206 -279l23 -32l22 32l207 279h49z" />
    <glyph glyph-name="Y" unicode="Y" horiz-adv-x="673" 
d="M601 712h46l-288 -424v-288h-41v288l-292 424h48l249 -365l16 -26l15 26z" />
    <glyph glyph-name="Z" unicode="Z" horiz-adv-x="679" 
d="M594 678l-477 -641h491v-37h-538v39l473 636h-447v37h498v-34z" />
    <glyph glyph-name="bracketleft" unicode="[" horiz-adv-x="329" 
d="M279 -204h-178v951h178v-35h-140v-881h140v-35z" />
    <glyph glyph-name="backslash" unicode="\" horiz-adv-x="442" 
d="M389 0h-40l-296 712h40z" />
    <glyph glyph-name="bracketright" unicode="]" horiz-adv-x="330" 
d="M229 -204h-178v35h139v881h-139v35h178v-951z" />
    <glyph glyph-name="asciicircum" unicode="^" 
d="M298 716h41l209 -516h-43l-162 408q-15 40 -25 73q-4 -12 -13 -37.5t-12 -35.5l-160 -408h-41z" />
    <glyph glyph-name="underscore" unicode="_" horiz-adv-x="500" 
d="M500 -133h-500v36h500v-36z" />
    <glyph glyph-name="grave" unicode="`" horiz-adv-x="500" 
d="M345 613h-38l-125 151h54z" />
    <glyph glyph-name="a" unicode="a" horiz-adv-x="576" 
d="M547 32h15v-32h-23q-54 0 -77.5 26t-23.5 85l-1 3q-23 -61 -76 -93.5t-128 -32.5q-83 0 -128.5 39.5t-45.5 106.5q0 128 163 149l129 18q47 6 64.5 24.5t17.5 53.5v7q0 52 -38.5 80.5t-115.5 28.5t-113.5 -29t-44.5 -92h-40q14 155 201 155q93 0 142 -38.5t49 -107.5
v-264q0 -48 16 -67.5t58 -19.5zM239 20q80 0 131.5 43t62.5 121v115q-19 -20 -69 -28l-136 -20q-130 -19 -130 -116q0 -52 37 -83.5t104 -31.5z" />
    <glyph glyph-name="b" unicode="b" horiz-adv-x="596" 
d="M321 528q100 0 160 -71q59 -73 59 -192q0 -123 -59 -200q-60 -77 -162 -77q-68 0 -120 39t-73 103v-130h-36v712h40v-315q22 59 73 95t118 36zM315 24q87 0 136 67q49 65 49 174q0 107 -49 167t-134 60q-86 0 -137.5 -62t-51.5 -170q0 -107 52 -171q53 -65 135 -65z" />
    <glyph glyph-name="c" unicode="c" horiz-adv-x="545" 
d="M285 -12q-106 0 -167 71.5t-61 197.5q0 127 61 199t169 72q89 0 144 -48t64 -125h-38q-9 62 -53 100.5t-117 38.5q-92 0 -141 -61.5t-49 -174.5q0 -111 50 -173.5t140 -62.5q72 0 116 40t54 111h38q-11 -85 -66 -135t-144 -50z" />
    <glyph glyph-name="d" unicode="d" horiz-adv-x="596" 
d="M467 397v315h40v-712h-36v131q-21 -64 -73 -103.5t-120 -39.5q-102 0 -161 77q-60 77 -60 198q0 119 60 193q59 72 159 72q67 0 118 -36t73 -95zM281 24q82 0 135 65q52 64 52 171q0 108 -51.5 170t-136.5 62t-134 -61t-49 -168q0 -109 49 -174t135 -65z" />
    <glyph glyph-name="e" unicode="e" horiz-adv-x="570" 
d="M514 280v-22h-417v-3q0 -108 52 -170.5t143 -62.5q69 0 113.5 35t63.5 93l36 -6q-20 -69 -76 -112.5t-138 -43.5q-109 0 -171 75q-63 73 -63 198q0 121 62 195q61 72 168 72q104 0 166 -68q61 -68 61 -180zM288 494q-83 0 -134 -54.5t-56 -150.5h379q-5 95 -54.5 150
t-134.5 55z" />
    <glyph glyph-name="f" unicode="f" horiz-adv-x="329" 
d="M307 677h-51q-49 0 -72 -23.5t-23 -78.5v-61l146 2v-33l-146 2v-485h-40v485l-94 -2v33l94 -2v57q0 74 32.5 107.5t101.5 33.5h52v-35z" />
    <glyph glyph-name="g" unicode="g" horiz-adv-x="598" 
d="M471 386v130h37v-517q0 -103 -58 -155t-165 -52q-90 0 -143.5 37.5t-63.5 95.5h40q10 -45 52.5 -72.5t115.5 -27.5q184 0 184 171v132q-22 -62 -73.5 -101t-118.5 -39q-102 0 -161 77q-60 77 -60 198q0 119 60 193q59 72 159 72q71 0 122.5 -39t72.5 -103zM281 24
q82 0 135 65q52 64 52 171q0 108 -51.5 170t-136.5 62t-134 -61t-49 -168q0 -109 49 -174t135 -65z" />
    <glyph glyph-name="h" unicode="h" horiz-adv-x="586" 
d="M317 528q85 0 132 -49t47 -137v-342h-40v335q0 76 -37 117t-109 41q-83 0 -131.5 -54t-48.5 -158v-281h-40v712h40v-306q48 122 187 122z" />
    <glyph glyph-name="i" unicode="i" horiz-adv-x="220" 
d="M134 642h-48v70h48v-70zM130 0h-40v516h40v-516z" />
    <glyph glyph-name="j" unicode="j" horiz-adv-x="220" 
d="M134 642h-48v70h48v-70zM-1 -204h-25v35h25q47 0 69 22t22 70v593h40v-588q0 -132 -131 -132z" />
    <glyph glyph-name="k" unicode="k" horiz-adv-x="556" 
d="M520 0h-48l-215 292l-127 -115v-177h-40v712h40v-492l323 296h53l-221 -199z" />
    <glyph glyph-name="l" unicode="l" horiz-adv-x="220" 
d="M130 0h-40v712h40v-712z" />
    <glyph glyph-name="m" unicode="m" horiz-adv-x="859" 
d="M612 528q76 0 117 -46t41 -135v-347h-40v347q0 146 -130 146q-66 0 -108 -52.5t-42 -151.5v-289h-40v347q0 146 -130 146q-66 0 -108 -53.5t-42 -152.5v-287h-40v516h38l-1 -109l1 -1q45 122 164 122q62 0 101.5 -32.5t51.5 -94.5q40 127 167 127z" />
    <glyph glyph-name="n" unicode="n" horiz-adv-x="586" 
d="M317 528q85 0 132 -49t47 -137v-342h-40v335q0 76 -37 117t-109 41q-83 0 -131.5 -54t-48.5 -158v-281h-40v516h38v-116q47 128 189 128z" />
    <glyph glyph-name="o" unicode="o" horiz-adv-x="588" 
d="M294 -12q-107 0 -172 74t-65 196q0 124 66 197q64 73 172 73t172 -73q65 -74 65 -196q0 -123 -66 -196q-66 -75 -172 -75zM151 86q52 -64 143 -64q90 0 144 64t54 173t-53.5 172t-144.5 63q-90 0 -143.5 -63.5t-53.5 -172.5t54 -172z" />
    <glyph glyph-name="p" unicode="p" horiz-adv-x="596" 
d="M321 528q100 0 160 -71q59 -73 59 -192q0 -123 -59 -200q-60 -77 -162 -77q-65 0 -115 36t-74 95v-323h-40v720h36v-130q21 64 72.5 103t122.5 39zM315 24q87 0 136 67q49 65 49 174q0 107 -49 167t-134 60q-86 0 -137.5 -62t-51.5 -170q0 -107 52 -171q53 -65 135 -65z
" />
    <glyph glyph-name="q" unicode="q" horiz-adv-x="596" 
d="M471 386v130h36v-720h-40v324q-24 -59 -74.5 -95.5t-114.5 -36.5q-102 0 -161 77q-60 77 -60 198q0 119 60 193q59 72 159 72q71 0 122.5 -39t72.5 -103zM281 24q82 0 135 65q52 64 52 171q0 108 -51.5 170t-136.5 62t-134 -61t-49 -168q0 -109 49 -174t135 -65z" />
    <glyph glyph-name="r" unicode="r" horiz-adv-x="372" 
d="M309 529q20 0 41 -3v-39q-26 3 -46 3q-77 0 -125 -52.5t-49 -148.5v-289h-40v516h38v-118q21 63 67.5 97t113.5 34z" />
    <glyph glyph-name="s" unicode="s" horiz-adv-x="523" 
d="M266 -12q-96 0 -149.5 43.5t-58.5 125.5h38q10 -136 171 -136q76 0 118.5 30.5t42.5 84.5q0 87 -117 105l-87 15q-77 13 -114.5 43.5t-37.5 86.5q0 66 49.5 102.5t134.5 36.5q87 0 139.5 -40t58.5 -112h-40q-5 57 -46.5 88t-112.5 31q-67 0 -106.5 -27.5t-39.5 -76.5
q0 -41 29.5 -63t94.5 -34l85 -14q149 -26 149 -138q0 -71 -53.5 -111t-147.5 -40z" />
    <glyph glyph-name="t" unicode="t" horiz-adv-x="331" 
d="M301 483l-137 2v-372q0 -41 17.5 -59.5t56.5 -18.5h62v-35h-71q-105 0 -105 108v377l-97 -2v33l97 -2v152h40v-152l137 2v-33z" />
    <glyph glyph-name="u" unicode="u" horiz-adv-x="586" 
d="M456 235v281h40v-516h-38v116q-48 -128 -189 -128q-86 0 -132.5 49t-46.5 137v342h40v-335q0 -76 37 -117t109 -41q83 0 131.5 54t48.5 158z" />
    <glyph glyph-name="v" unicode="v" horiz-adv-x="532" 
d="M293 108l160 408h41l-206 -516h-41l-209 516h43l162 -408l25 -73z" />
    <glyph glyph-name="w" unicode="w" horiz-adv-x="766" 
d="M564 129l122 387h42l-169 -516h-39l-118 399l-18 81l-20 -81l-119 -399h-40l-167 516h43l121 -387l23 -85l22 85l116 387h41l116 -387l21 -83z" />
    <glyph glyph-name="x" unicode="x" horiz-adv-x="554" 
d="M299 273l217 -273h-50l-189 246l-190 -246h-49l218 273l-194 243h49l166 -216l165 216h49z" />
    <glyph glyph-name="y" unicode="y" horiz-adv-x="543" 
d="M275 25l188 491h42l-248 -630q-20 -51 -49 -70.5t-86 -19.5h-36v35h33q47 0 69 15t39 58l32 81l-221 531h43l186 -455z" />
    <glyph glyph-name="z" unicode="z" horiz-adv-x="524" 
d="M452 490l-347 -456h363v-34h-411v29l344 453h-332v34h383v-26z" />
    <glyph glyph-name="braceleft" unicode="{" horiz-adv-x="381" 
d="M331 -205h-67q-105 0 -105 109v247q0 56 -24 79t-85 23v37q61 0 85 23t24 79v246q0 109 105 109h67v-35h-57q-40 0 -58 -19t-18 -62v-238q0 -105 -85 -121v-1q85 -16 85 -121v-239q0 -42 18 -61.5t58 -19.5h57v-35z" />
    <glyph glyph-name="bar" unicode="|" horiz-adv-x="242" 
d="M141 -204h-40v951h40v-951z" />
    <glyph glyph-name="braceright" unicode="}" horiz-adv-x="381" 
d="M117 -205h-67v35h57q40 0 58 19.5t18 61.5v239q0 105 85 121v1q-85 16 -85 121v238q0 43 -18 62t-58 19h-57v35h67q105 0 105 -109v-246q0 -56 24 -79t85 -23v-37q-61 0 -85 -23t-24 -79v-247q0 -109 -105 -109z" />
    <glyph glyph-name="asciitilde" unicode="~" 
d="M109 246h-35q0 85 35 130.5t94 45.5q31 0 58 -14.5t46.5 -35t38.5 -41t42.5 -35t48.5 -14.5q43 0 68.5 37t25.5 103h35q0 -85 -35 -130.5t-94 -45.5q-31 0 -58 14.5t-46.5 35t-38.5 41.5t-42 35.5t-49 14.5q-43 0 -68.5 -37t-25.5 -104z" />
    <glyph glyph-name="uni00A0" unicode="&#xa0;" horiz-adv-x="290" 
 />
    <glyph glyph-name="exclamdown" unicode="&#xa1;" horiz-adv-x="261" 
d="M160 457h-59v59h59v-59zM151 -196h-41v205l10 339h21l10 -339v-205z" />
    <glyph glyph-name="cent" unicode="&#xa2;" 
d="M331 22q72 0 116 40t54 111h38q-10 -80 -59 -129t-129 -55v-133h-36v132q-100 5 -157 76t-57 193t56.5 193.5t157.5 77.5v138h36v-139q81 -6 130 -53.5t58 -118.5h-37q-9 63 -53.5 101t-117.5 38q-92 0 -141 -62t-49 -174q0 -111 50 -173.5t140 -62.5z" />
    <glyph glyph-name="sterling" unicode="&#xa3;" 
d="M189 36h390v-36h-517v36h10q85 0 144 50q58 49 58 120q0 57 -45 114l-167 -2v34l141 -2q-46 50 -65.5 90t-19.5 87q0 85 59 142q59 56 162 56q102 0 164 -55t72 -145h-40q-13 89 -69 127q-55 37 -127 37q-84 0 -132.5 -45.5t-48.5 -120.5q0 -39 18 -77q19 -39 70 -96
l241 2v-34l-215 2q40 -52 40 -112q0 -55 -33 -101t-90 -71z" />
    <glyph glyph-name="currency" unicode="&#xa4;" 
d="M568 360q0 -98 -60 -166l104 -103l-23 -24l-103 104q-70 -59 -166 -59t-166 59l-103 -104l-23 24l104 103q-60 68 -60 166q0 96 59 166l-103 102l23 24l102 -104q67 60 167 60t167 -60l102 104l23 -24l-103 -102q59 -70 59 -166zM168 206q58 -60 152 -60t152 60
q59 61 59 154t-59 154q-59 59 -152 59t-152 -59q-59 -61 -59 -154t59 -154z" />
    <glyph glyph-name="yen" unicode="&#xa5;" 
d="M584 712h47l-267 -386h215v-36h-237v-109h237v-36h-237v-145h-40v145h-236v36h236v109h-236v36h214l-271 386h49l249 -358l16 -25l15 25z" />
    <glyph glyph-name="brokenbar" unicode="&#xa6;" horiz-adv-x="242" 
d="M141 411h-40v336h40v-336zM141 -204h-40v336h40v-336z" />
    <glyph glyph-name="section" unicode="&#xa7;" horiz-adv-x="629" 
d="M553 285q0 -102 -110 -137q53 -42 53 -111t-51 -109q-51 -39 -138 -39q-90 0 -140.5 43t-55.5 121h38q7 -130 159 -130q72 0 111 30t39 83q0 90 -123 119l-100 25q-159 36 -159 149q0 103 110 138q-54 41 -54 110t51 110q51 39 139 39q90 0 140.5 -43t55.5 -121h-38
q-9 130 -159 130q-72 0 -111.5 -30t-39.5 -84q0 -90 122 -119l100 -24q161 -38 161 -150zM407 168q52 11 80.5 41t28.5 74q0 90 -138 120l-106 27q-17 3 -51 16q-51 -10 -79.5 -39.5t-28.5 -74.5q0 -90 136 -121l107 -26q25 -5 51 -17z" />
    <glyph glyph-name="dieresis" unicode="&#xa8;" horiz-adv-x="500" 
d="M177 641h-53v72h53v-72zM376 641h-53v72h53v-72z" />
    <glyph glyph-name="copyright" unicode="&#xa9;" horiz-adv-x="871" 
d="M694 94q-101 -104 -259 -104q-157 0 -258 104t-101 263q0 158 101 262q100 103 258 103q159 0 259 -103t100 -262q0 -160 -100 -263zM435 20q144 0 236 95q91 94 91 242q0 147 -91 241t-236 94q-144 0 -235 -94q-92 -95 -92 -241q0 -147 92 -242t235 -95zM435 173
q-72 0 -113 49t-41 136t41 136t114 49q59 0 96.5 -29.5t46.5 -79.5l-30 -6q-9 39 -37.5 62t-75.5 23q-60 0 -92 -40t-32 -115t32.5 -115t90.5 -40q92 0 115 86l30 -5q-12 -53 -50 -82t-95 -29z" />
    <glyph glyph-name="ordfeminine" unicode="&#xaa;" horiz-adv-x="488" 
d="M247 725q78 0 114.5 -31.5t36.5 -96.5v-225h-29l-4 73q-43 -81 -150 -81q-58 0 -91.5 27.5t-33.5 74.5q0 92 115 100l159 11v25q0 93 -116 93q-94 0 -115 -63l-31 11q28 82 145 82zM221 394q62 0 100.5 34.5t42.5 89.5v32l-148 -10q-91 -7 -91 -73q0 -35 25.5 -54
t70.5 -19z" />
    <glyph glyph-name="guillemotleft" unicode="&#xab;" horiz-adv-x="710" 
d="M340 37v-47l-250 244v46l250 244v-47l-224 -220zM620 37v-47l-250 244v46l250 244v-47l-224 -220z" />
    <glyph glyph-name="logicalnot" unicode="&#xac;" 
d="M560 117h-36v221h-444v36h480v-257z" />
    <glyph glyph-name="uni00AD" unicode="&#xad;" horiz-adv-x="377" 
d="M329 231h-280v37h280v-37z" />
    <glyph glyph-name="registered" unicode="&#xae;" horiz-adv-x="641" 
d="M147 652q71 69 174 69t174 -69q70 -69 70 -168t-70 -168q-71 -69 -174 -69t-174 69t-71 168t71 168zM164 333q65 -62 157 -62t156 62q63 61 63 151t-63 152q-64 62 -156 62q-93 0 -157 -62q-64 -61 -64 -152q0 -90 64 -151zM420 429l3 -45q1 -20 12 -33h-24q-9 12 -10 33
l-3 41q-2 27 -14 37.5t-42 10.5h-90v-122h-23v272h110q41 0 64 -19.5t23 -54.5q0 -49 -47 -66q38 -11 41 -54zM252 493h88q63 0 63 54q0 55 -64 55h-87v-109z" />
    <glyph glyph-name="overscore" unicode="&#xaf;" horiz-adv-x="500" 
d="M398 648h-296v32h296v-32z" />
    <glyph glyph-name="degree" unicode="&#xb0;" horiz-adv-x="443" 
d="M222 395q-71 0 -118 47t-47 118t47 118t118 47t118 -47t47 -118t-47 -118t-118 -47zM127 465q38 -38 95 -38t95 38q37 37 37 95q0 59 -37 96t-95 37t-95 -37q-38 -38 -38 -96q0 -57 38 -95z" />
    <glyph glyph-name="plusminus" unicode="&#xb1;" 
d="M338 575v-187h256v-36h-256v-186h-36v186h-257v36h257v187h36zM585 22h-529v36h529v-36z" />
    <glyph glyph-name="two.sups" unicode="&#xb2;" horiz-adv-x="460" 
d="M389 372h-316q0 116 131 178l65 31q83 39 83 102q0 41 -31 67t-87 26q-116 0 -119 -113h-37q1 71 42 108t114 37q71 0 112.5 -35t41.5 -90q0 -43 -23.5 -73t-79.5 -56l-55 -27q-107 -51 -115 -123h274v-32z" />
    <glyph glyph-name="three.sups" unicode="&#xb3;" horiz-adv-x="433" 
d="M218 363q-77 0 -122.5 36t-45.5 97h36q1 -48 35.5 -75.5t97.5 -27.5q60 0 94 25t34 71q0 42 -32.5 66.5t-89.5 24.5h-34v32h34q48 0 74.5 22t26.5 59q0 39 -31 61.5t-83 22.5q-54 0 -84.5 -24t-31.5 -69h-36q0 57 40.5 90.5t110.5 33.5q68 0 109.5 -30.5t41.5 -81.5
q0 -36 -20 -62t-56 -35v-1q43 -9 70 -39t27 -71q0 -57 -45 -91t-120 -34z" />
    <glyph glyph-name="acute" unicode="&#xb4;" horiz-adv-x="500" 
d="M207 613h-38l109 151h54z" />
    <glyph glyph-name="uni00B5" unicode="&#xb5;" horiz-adv-x="586" 
d="M130 -204h-40v720h40v-335q0 -76 37 -117t109 -41q83 0 131.5 54t48.5 158v281h40v-516h-39l2 119q-48 -131 -188 -131q-107 0 -147 84l-2 -1l8 -163v-112z" />
    <glyph glyph-name="paragraph" unicode="&#xb6;" horiz-adv-x="597" 
d="M297 -103h-36v460q-103 0 -156.5 46t-53.5 132q0 85 54 131t156 46h235v-815h-36v779h-163v-779z" />
    <glyph glyph-name="middot" unicode="&#xb7;" horiz-adv-x="335" 
d="M203 320h-71v64h71v-64z" />
    <glyph glyph-name="cedilla" unicode="&#xb8;" horiz-adv-x="500" 
d="M213 -223h-37v27h34q85 0 85 54q0 46 -63 46h-43l-14 23l45 73h28l-41 -67h30q90 0 90 -74q0 -39 -30 -60.5t-84 -21.5z" />
    <glyph glyph-name="one.sups" unicode="&#xb9;" horiz-adv-x="307" 
d="M217 372h-35v297h-137v29h86q27 0 40 9t14 31l1 61h31v-427z" />
    <glyph glyph-name="ordmasculine" unicode="&#xba;" horiz-adv-x="456" 
d="M230 364q-76 0 -124 51q-49 49 -49 129q0 81 49 131q48 50 124 50q75 0 123 -51t48 -130q0 -80 -48 -129q-48 -51 -123 -51zM230 394q61 0 98.5 41t37.5 109q0 69 -37.5 110t-98.5 41q-63 0 -101 -41t-38 -110q0 -68 38.5 -109t100.5 -41z" />
    <glyph glyph-name="guillemotright" unicode="&#xbb;" horiz-adv-x="710" 
d="M340 234l-250 -244v47l223 220l-223 220v47l250 -244v-46zM620 234l-250 -244v47l223 220l-223 220v47l250 -244v-46z" />
    <glyph glyph-name="onequarter" unicode="&#xbc;" horiz-adv-x="1058" 
d="M272 321h-35v297h-136v29h85q53 0 54 40l1 61h31v-427zM298 -15h-41l448 742h40zM882 0h-35v113l-244 -1v31l242 284h37v-286l75 1v-30l-75 1v-113zM845 383l-207 -241l209 -1v242h-2z" />
    <glyph glyph-name="onehalf" unicode="&#xbd;" horiz-adv-x="1098" 
d="M272 321h-35v297h-136v29h85q53 0 54 40l1 61h31v-427zM298 -15h-41l448 742h40zM996 0h-315q0 117 130 178l66 31q83 41 83 102q0 41 -31.5 67t-87.5 26q-116 0 -119 -113h-36q1 71 42 108t113 37q71 0 112.5 -35t41.5 -90q0 -43 -23.5 -73t-78.5 -56l-56 -27
q-107 -52 -115 -123h274v-32z" />
    <glyph glyph-name="threequarters" unicode="&#xbe;" horiz-adv-x="1131" 
d="M258 312q-77 0 -122.5 36t-45.5 97h36q0 -48 35 -75.5t98 -27.5q60 0 94 25t34 71q0 42 -32.5 66.5t-89.5 24.5h-35v32h35q47 0 74 22.5t27 58.5q0 39 -31 61.5t-83 22.5q-54 0 -84.5 -24t-31.5 -69h-36q0 57 40.5 90.5t110.5 33.5q68 0 109.5 -30.5t41.5 -81.5
q0 -35 -20.5 -61.5t-55.5 -35.5v-1q43 -9 69.5 -38.5t26.5 -71.5q0 -57 -44.5 -91t-119.5 -34zM382 -15h-41l448 742h41zM966 0h-35v113l-243 -1v31l241 284h37v-286l75 1v-30l-75 1v-113zM929 383l-206 -241l208 -1v242h-2z" />
    <glyph glyph-name="questiondown" unicode="&#xbf;" horiz-adv-x="608" 
d="M350 457h-59v59h59v-59zM308 -204q-107 0 -169.5 49t-62.5 139q0 55 26 96.5t85 76.5l34 21q48 31 65 63q16 31 16 90v16h39v-24q0 -64 -23 -105q-24 -40 -93 -79q-62 -35 -86.5 -71t-24.5 -85q0 -75 51.5 -114.5t142.5 -39.5q93 0 144 47.5t56 137.5h39
q-4 -104 -65.5 -161t-173.5 -57z" />
    <glyph glyph-name="Agrave" unicode="&#xc0;" horiz-adv-x="716" 
d="M292 960l109 -151h-38l-125 151h54zM680 0h-45l-95 231h-364l-96 -231h-43l300 714h43zM347 641l-156 -374h334l-155 374l-11 35z" />
    <glyph glyph-name="Aacute" unicode="&#xc1;" horiz-adv-x="716" 
d="M419 960h54l-124 -151h-38zM680 0h-45l-95 231h-364l-96 -231h-43l300 714h43zM347 641l-156 -374h334l-155 374l-11 35z" />
    <glyph glyph-name="Acircumflex" unicode="&#xc2;" horiz-adv-x="716" 
d="M468 800l-110 134l-110 -134h-44l133 160h42l133 -160h-44zM680 0h-45l-95 231h-364l-96 -231h-43l300 714h43zM347 641l-156 -374h334l-155 374l-11 35z" />
    <glyph glyph-name="Atilde" unicode="&#xc3;" horiz-adv-x="716" 
d="M272 936q-62 0 -67 -119h-32q4 151 99 151q30 0 54.5 -17t38.5 -42q34 -60 80 -60q61 0 66 119h32q-4 -151 -99 -151q-30 0 -54.5 17.5t-37.5 42.5q-14 25 -35.5 42t-44.5 17zM680 0h-45l-95 231h-364l-96 -231h-43l300 714h43zM347 641l-156 -374h334l-155 374l-11 35z
" />
    <glyph glyph-name="Adieresis" unicode="&#xc4;" horiz-adv-x="716" 
d="M232 889h53v-72h-53v72zM431 889h53v-72h-53v72zM680 0h-45l-95 231h-364l-96 -231h-43l300 714h43zM347 641l-156 -374h334l-155 374l-11 35z" />
    <glyph glyph-name="Aring" unicode="&#xc5;" horiz-adv-x="716" 
d="M680 0h-45l-95 231h-364l-96 -231h-43l290 690q-39 9 -62.5 39.5t-23.5 72.5q0 50 33 83.5t84 33.5t84 -33.5t33 -83.5q0 -42 -23 -72t-62 -40zM297 865q-25 -24 -25 -63q0 -40 25 -62q24 -24 61 -24t62 24q24 22 24 62q0 39 -24 63q-25 24 -62 24t-61 -24zM347 641
l-156 -374h334l-155 374l-11 35z" />
    <glyph glyph-name="AE" unicode="&#xc6;" horiz-adv-x="1134" 
d="M609 353v-317h454v-36h-494v224h-347l-142 -224h-43l452 712h558v-36h-438v-287h408v-36h-408zM510 678l-266 -420h325v420h-59z" />
    <glyph glyph-name="Ccedilla" unicode="&#xc7;" horiz-adv-x="736" 
d="M642 245h40q-11 -113 -89 -184q-80 -74 -196 -75l-37 -60h30q90 0 90 -74q0 -39 -30 -60.5t-84 -21.5h-37v27h34q85 0 85 54q0 46 -63 46h-43l-14 23l41 67q-136 7 -214 110q-79 101 -79 260q0 166 86 267q85 100 228 100q115 0 195 -64q81 -65 94 -164h-41
q-15 87 -82 139q-68 53 -165 53q-125 0 -199 -89q-75 -90 -75 -242q0 -150 74 -242t201 -92q102 0 172 61q71 62 78 161z" />
    <glyph glyph-name="Egrave" unicode="&#xc8;" horiz-adv-x="666" 
d="M284 960l109 -151h-38l-125 151h54zM141 353v-317h454v-36h-494v712h478v-36h-438v-287h408v-36h-408z" />
    <glyph glyph-name="Eacute" unicode="&#xc9;" horiz-adv-x="666" 
d="M411 960h54l-124 -151h-38zM141 353v-317h454v-36h-494v712h478v-36h-438v-287h408v-36h-408z" />
    <glyph glyph-name="Ecircumflex" unicode="&#xca;" horiz-adv-x="666" 
d="M459 800l-110 134l-110 -134h-44l133 160h42l133 -160h-44zM141 353v-317h454v-36h-494v712h478v-36h-438v-287h408v-36h-408z" />
    <glyph glyph-name="Edieresis" unicode="&#xcb;" horiz-adv-x="666" 
d="M223 889h53v-72h-53v72zM422 889h53v-72h-53v72zM141 353v-317h454v-36h-494v712h478v-36h-438v-287h408v-36h-408z" />
    <glyph glyph-name="Igrave" unicode="&#xcc;" horiz-adv-x="242" 
d="M164 809h-38l-125 151h54zM141 0h-40v712h40v-712z" />
    <glyph glyph-name="Iacute" unicode="&#xcd;" horiz-adv-x="242" 
d="M112 809h-38l108 151h54zM141 0h-40v712h40v-712z" />
    <glyph glyph-name="Icircumflex" unicode="&#xce;" horiz-adv-x="242" 
d="M11 800h-44l133 160h42l133 -160h-44l-110 134zM141 0h-40v712h40v-712z" />
    <glyph glyph-name="Idieresis" unicode="&#xcf;" horiz-adv-x="242" 
d="M48 817h-53v72h53v-72zM247 817h-53v72h53v-72zM141 0h-40v712h40v-712z" />
    <glyph glyph-name="Eth" unicode="&#xd0;" horiz-adv-x="810" 
d="M183 712h241q156 0 236 -93t80 -263t-83.5 -263t-246.5 -93h-227v346l-156 -2v36l156 -3v335zM224 36h185q146 0 218.5 82t72.5 238q0 155 -71 237.5t-211 82.5h-194v-299l215 3v-36l-215 2v-310z" />
    <glyph glyph-name="Ntilde" unicode="&#xd1;" horiz-adv-x="741" 
d="M284 936q-62 0 -67 -119h-32q4 151 99 151q30 0 54.5 -17t38.5 -42q34 -60 80 -60q61 0 66 119h32q-4 -151 -99 -151q-30 0 -54.5 17.5t-37.5 42.5q-14 25 -35.5 42t-44.5 17zM601 58v654h38v-712h-43l-457 653v-653h-38v712h42z" />
    <glyph glyph-name="Ograve" unicode="&#xd2;" horiz-adv-x="811" 
d="M447 809h-38l-125 151h54zM405 -14q-149 0 -239 104t-90 266t90 266q90 102 239 102q150 0 240 -102q90 -104 90 -266t-90 -266t-240 -104zM405 23q131 0 211 92q78 91 78 241q0 149 -78 241q-79 91 -211 91q-131 0 -209 -91q-79 -91 -79 -241q0 -149 79 -240
q78 -93 209 -93z" />
    <glyph glyph-name="Oacute" unicode="&#xd3;" horiz-adv-x="811" 
d="M395 809h-38l108 151h54zM405 -14q-149 0 -239 104t-90 266t90 266q90 102 239 102q150 0 240 -102q90 -104 90 -266t-90 -266t-240 -104zM405 23q131 0 211 92q78 91 78 241q0 149 -78 241q-79 91 -211 91q-131 0 -209 -91q-79 -91 -79 -241q0 -149 79 -240
q78 -93 209 -93z" />
    <glyph glyph-name="Ocircumflex" unicode="&#xd4;" horiz-adv-x="811" 
d="M294 800h-44l133 160h42l133 -160h-44l-110 134zM405 -14q-149 0 -239 104t-90 266t90 266q90 102 239 102q150 0 240 -102q90 -104 90 -266t-90 -266t-240 -104zM405 23q131 0 211 92q78 91 78 241q0 149 -78 241q-79 91 -211 91q-131 0 -209 -91q-79 -91 -79 -241
q0 -149 79 -240q78 -93 209 -93z" />
    <glyph glyph-name="Otilde" unicode="&#xd5;" horiz-adv-x="811" 
d="M251 817h-32q4 151 99 151q30 0 54.5 -17t38.5 -42q34 -60 80 -60q61 0 66 119h32q-4 -151 -99 -151q-30 0 -54.5 17.5t-37.5 42.5q-14 25 -35.5 42t-44.5 17q-62 0 -67 -119zM405 -14q-149 0 -239 104t-90 266t90 266q90 102 239 102q150 0 240 -102q90 -104 90 -266
t-90 -266t-240 -104zM405 23q131 0 211 92q78 91 78 241q0 149 -78 241q-79 91 -211 91q-131 0 -209 -91q-79 -91 -79 -241q0 -149 79 -240q78 -93 209 -93z" />
    <glyph glyph-name="Odieresis" unicode="&#xd6;" horiz-adv-x="811" 
d="M331 817h-53v72h53v-72zM530 817h-53v72h53v-72zM405 -14q-149 0 -239 104t-90 266t90 266q90 102 239 102q150 0 240 -102q90 -104 90 -266t-90 -266t-240 -104zM405 23q131 0 211 92q78 91 78 241q0 149 -78 241q-79 91 -211 91q-131 0 -209 -91q-79 -91 -79 -241
q0 -149 79 -240q78 -93 209 -93z" />
    <glyph glyph-name="multiply" unicode="&#xd7;" 
d="M319 286l-218 -219l-23 25l218 218l-218 217l23 25l218 -219l219 219l24 -24l-218 -218l218 -219l-24 -24z" />
    <glyph glyph-name="Oslash" unicode="&#xd8;" horiz-adv-x="811" 
d="M727 697l-74 -85q82 -98 82 -256q0 -162 -90 -266t-240 -104q-133 0 -222 86l-67 -77l-24 19l70 80q-86 104 -86 262q0 162 90 266q90 102 239 102q138 0 227 -89l72 82zM117 356q0 -140 71 -232l419 482q-76 82 -202 82q-131 0 -209 -91q-79 -91 -79 -241zM405 23
q131 0 211 92q78 91 78 241q0 138 -67 226l-419 -481q80 -78 197 -78z" />
    <glyph glyph-name="Ugrave" unicode="&#xd9;" horiz-adv-x="734" 
d="M410 809h-38l-125 151h54zM367 -13q-127 0 -196.5 60.5t-69.5 185.5v479h40v-480q0 -209 226 -209q225 0 225 209v480h40v-479q0 -124 -70 -185t-195 -61z" />
    <glyph glyph-name="Uacute" unicode="&#xda;" horiz-adv-x="734" 
d="M358 809h-38l108 151h54zM367 -13q-127 0 -196.5 60.5t-69.5 185.5v479h40v-480q0 -209 226 -209q225 0 225 209v480h40v-479q0 -124 -70 -185t-195 -61z" />
    <glyph glyph-name="Ucircumflex" unicode="&#xdb;" horiz-adv-x="734" 
d="M257 800h-44l133 160h42l133 -160h-44l-110 134zM367 -13q-127 0 -196.5 60.5t-69.5 185.5v479h40v-480q0 -209 226 -209q225 0 225 209v480h40v-479q0 -124 -70 -185t-195 -61z" />
    <glyph glyph-name="Udieresis" unicode="&#xdc;" horiz-adv-x="734" 
d="M294 817h-53v72h53v-72zM493 817h-53v72h53v-72zM367 -13q-127 0 -196.5 60.5t-69.5 185.5v479h40v-480q0 -209 226 -209q225 0 225 209v480h40v-479q0 -124 -70 -185t-195 -61z" />
    <glyph glyph-name="Yacute" unicode="&#xdd;" horiz-adv-x="673" 
d="M398 960h54l-124 -151h-38zM601 712h46l-288 -424v-288h-41v288l-292 424h48l249 -365l16 -26l15 26z" />
    <glyph glyph-name="Thorn" unicode="&#xde;" horiz-adv-x="646" 
d="M141 568h238q100 0 158 -51t58 -144q0 -94 -59 -147t-166 -53h-229v-173h-40v712h40v-144zM141 209h230q89 0 136.5 42.5t47.5 120.5q0 75 -48 117.5t-129 42.5h-237v-323z" />
    <glyph glyph-name="germandbls" unicode="&#xdf;" horiz-adv-x="599" 
d="M361 393q182 -27 182 -190q0 -96 -61.5 -149.5t-170.5 -53.5h-74v35h77q90 0 139.5 43.5t49.5 124.5q0 168 -211 168h-55v35h51q84 0 130.5 37t46.5 105q0 66 -44.5 104t-123.5 38q-81 0 -124 -41.5t-43 -119.5v-529h-40v522q0 98 53.5 150t154.5 52q98 0 152.5 -46.5
t54.5 -125.5q0 -64 -37.5 -105.5t-106.5 -53.5z" />
    <glyph glyph-name="agrave" unicode="&#xe0;" horiz-adv-x="576" 
d="M216 764l109 -151h-38l-125 151h54zM547 32h15v-32h-23q-54 0 -77.5 26t-23.5 85l-1 3q-23 -61 -76 -93.5t-128 -32.5q-83 0 -128.5 39.5t-45.5 106.5q0 128 163 149l129 18q47 6 64.5 24.5t17.5 53.5v7q0 52 -38.5 80.5t-115.5 28.5t-113.5 -29t-44.5 -92h-40
q14 155 201 155q93 0 142 -38.5t49 -107.5v-264q0 -48 16 -67.5t58 -19.5zM239 20q80 0 131.5 43t62.5 121v115q-19 -20 -69 -28l-136 -20q-130 -19 -130 -116q0 -52 37 -83.5t104 -31.5z" />
    <glyph glyph-name="aacute" unicode="&#xe1;" horiz-adv-x="576" 
d="M343 764h54l-124 -151h-38zM547 32h15v-32h-23q-54 0 -77.5 26t-23.5 85l-1 3q-23 -61 -76 -93.5t-128 -32.5q-83 0 -128.5 39.5t-45.5 106.5q0 128 163 149l129 18q47 6 64.5 24.5t17.5 53.5v7q0 52 -38.5 80.5t-115.5 28.5t-113.5 -29t-44.5 -92h-40q14 155 201 155
q93 0 142 -38.5t49 -107.5v-264q0 -48 16 -67.5t58 -19.5zM239 20q80 0 131.5 43t62.5 121v115q-19 -20 -69 -28l-136 -20q-130 -19 -130 -116q0 -52 37 -83.5t104 -31.5z" />
    <glyph glyph-name="acircumflex" unicode="&#xe2;" horiz-adv-x="576" 
d="M392 604l-110 134l-110 -134h-44l133 160h42l133 -160h-44zM547 32h15v-32h-23q-54 0 -77.5 26t-23.5 85l-1 3q-23 -61 -76 -93.5t-128 -32.5q-83 0 -128.5 39.5t-45.5 106.5q0 128 163 149l129 18q47 6 64.5 24.5t17.5 53.5v7q0 52 -38.5 80.5t-115.5 28.5t-113.5 -29
t-44.5 -92h-40q14 155 201 155q93 0 142 -38.5t49 -107.5v-264q0 -48 16 -67.5t58 -19.5zM239 20q80 0 131.5 43t62.5 121v115q-19 -20 -69 -28l-136 -20q-130 -19 -130 -116q0 -52 37 -83.5t104 -31.5z" />
    <glyph glyph-name="atilde" unicode="&#xe3;" horiz-adv-x="576" 
d="M196 740q-62 0 -67 -119h-32q4 151 99 151q30 0 54.5 -17t38.5 -42q34 -60 80 -60q61 0 66 119h32q-4 -151 -99 -151q-30 0 -54.5 17.5t-37.5 42.5q-14 25 -35.5 42t-44.5 17zM547 32h15v-32h-23q-54 0 -77.5 26t-23.5 85l-1 3q-23 -61 -76 -93.5t-128 -32.5
q-83 0 -128.5 39.5t-45.5 106.5q0 128 163 149l129 18q47 6 64.5 24.5t17.5 53.5v7q0 52 -38.5 80.5t-115.5 28.5t-113.5 -29t-44.5 -92h-40q14 155 201 155q93 0 142 -38.5t49 -107.5v-264q0 -48 16 -67.5t58 -19.5zM239 20q80 0 131.5 43t62.5 121v115q-19 -20 -69 -28
l-136 -20q-130 -19 -130 -116q0 -52 37 -83.5t104 -31.5z" />
    <glyph glyph-name="adieresis" unicode="&#xe4;" horiz-adv-x="576" 
d="M156 713h53v-72h-53v72zM355 713h53v-72h-53v72zM547 32h15v-32h-23q-54 0 -77.5 26t-23.5 85l-1 3q-23 -61 -76 -93.5t-128 -32.5q-83 0 -128.5 39.5t-45.5 106.5q0 128 163 149l129 18q47 6 64.5 24.5t17.5 53.5v7q0 52 -38.5 80.5t-115.5 28.5t-113.5 -29t-44.5 -92
h-40q14 155 201 155q93 0 142 -38.5t49 -107.5v-264q0 -48 16 -67.5t58 -19.5zM239 20q80 0 131.5 43t62.5 121v115q-19 -20 -69 -28l-136 -20q-130 -19 -130 -116q0 -52 37 -83.5t104 -31.5z" />
    <glyph glyph-name="aring" unicode="&#xe5;" horiz-adv-x="576" 
d="M366 627q-33 -33 -84 -33t-84 33t-33 83t33 84q33 33 84 33t84 -33q33 -34 33 -84t-33 -83zM344 774q-24 22 -62 22t-62 -22q-24 -24 -24 -64q0 -38 24.5 -62t61.5 -24t61.5 24t24.5 62q0 40 -24 64zM547 32h15v-32h-23q-54 0 -77.5 26t-23.5 85l-1 3q-23 -61 -76 -93.5
t-128 -32.5q-83 0 -128.5 39.5t-45.5 106.5q0 128 163 149l129 18q47 6 64.5 24.5t17.5 53.5v7q0 52 -38.5 80.5t-115.5 28.5t-113.5 -29t-44.5 -92h-40q14 155 201 155q93 0 142 -38.5t49 -107.5v-264q0 -48 16 -67.5t58 -19.5zM239 20q80 0 131.5 43t62.5 121v115
q-19 -20 -69 -28l-136 -20q-130 -19 -130 -116q0 -52 37 -83.5t104 -31.5z" />
    <glyph glyph-name="ae" unicode="&#xe6;" horiz-adv-x="944" 
d="M888 280v-22h-418v-3q0 -108 52.5 -170.5t143.5 -62.5q69 0 113.5 35t63.5 93l36 -6q-21 -70 -77 -113t-137 -43q-76 0 -131 39t-80 110q-24 -72 -79.5 -110.5t-136.5 -38.5q-85 0 -132 41.5t-47 109.5q0 69 47.5 109.5t135.5 40.5h190v79q0 61 -40.5 94t-118.5 33
q-73 0 -109 -29.5t-43 -91.5h-40q14 155 195 155q163 0 188 -119q58 118 197 118q104 0 166 -68q61 -68 61 -180zM661 494q-83 0 -134 -54.5t-56 -150.5h380q-5 95 -55 150t-135 55zM241 21q86 0 138 49.5t53 139.5v48l-193 -2q-68 -1 -104.5 -32t-36.5 -85t37.5 -86
t105.5 -32z" />
    <glyph glyph-name="ccedilla" unicode="&#xe7;" horiz-adv-x="545" 
d="M287 22q72 0 116 40t54 111h38q-11 -83 -62.5 -132t-136.5 -53l-37 -61h30q90 0 90 -74q0 -39 -30 -60.5t-84 -21.5h-37v27h34q85 0 85 54q0 46 -63 46h-43l-14 23l42 67q-99 6 -155.5 77.5t-56.5 191.5q0 127 61 199t169 72q89 0 144 -48t64 -125h-38q-9 62 -53 100.5
t-117 38.5q-92 0 -141 -61.5t-49 -174.5q0 -111 50 -173.5t140 -62.5z" />
    <glyph glyph-name="egrave" unicode="&#xe8;" horiz-adv-x="570" 
d="M221 764l109 -151h-38l-125 151h54zM514 280v-22h-417v-3q0 -108 52 -170.5t143 -62.5q69 0 113.5 35t63.5 93l36 -6q-20 -69 -76 -112.5t-138 -43.5q-109 0 -171 75q-63 73 -63 198q0 121 62 195q61 72 168 72q104 0 166 -68q61 -68 61 -180zM288 494q-83 0 -134 -54.5
t-56 -150.5h379q-5 95 -54.5 150t-134.5 55z" />
    <glyph glyph-name="eacute" unicode="&#xe9;" horiz-adv-x="570" 
d="M348 764h54l-124 -151h-38zM514 280v-22h-417v-3q0 -108 52 -170.5t143 -62.5q69 0 113.5 35t63.5 93l36 -6q-20 -69 -76 -112.5t-138 -43.5q-109 0 -171 75q-63 73 -63 198q0 121 62 195q61 72 168 72q104 0 166 -68q61 -68 61 -180zM288 494q-83 0 -134 -54.5
t-56 -150.5h379q-5 95 -54.5 150t-134.5 55z" />
    <glyph glyph-name="ecircumflex" unicode="&#xea;" horiz-adv-x="570" 
d="M397 604l-110 134l-110 -134h-44l133 160h42l133 -160h-44zM514 280v-22h-417v-3q0 -108 52 -170.5t143 -62.5q69 0 113.5 35t63.5 93l36 -6q-20 -69 -76 -112.5t-138 -43.5q-109 0 -171 75q-63 73 -63 198q0 121 62 195q61 72 168 72q104 0 166 -68q61 -68 61 -180z
M288 494q-83 0 -134 -54.5t-56 -150.5h379q-5 95 -54.5 150t-134.5 55z" />
    <glyph glyph-name="edieresis" unicode="&#xeb;" horiz-adv-x="570" 
d="M161 713h53v-72h-53v72zM360 713h53v-72h-53v72zM514 280v-22h-417v-3q0 -108 52 -170.5t143 -62.5q69 0 113.5 35t63.5 93l36 -6q-20 -69 -76 -112.5t-138 -43.5q-109 0 -171 75q-63 73 -63 198q0 121 62 195q61 72 168 72q104 0 166 -68q61 -68 61 -180zM288 494
q-83 0 -134 -54.5t-56 -150.5h379q-5 95 -54.5 150t-134.5 55z" />
    <glyph glyph-name="igrave" unicode="&#xec;" horiz-adv-x="220" 
d="M153 613h-38l-125 151h54zM130 0h-40v516h40v-516z" />
    <glyph glyph-name="iacute" unicode="&#xed;" horiz-adv-x="220" 
d="M101 613h-38l108 151h54zM130 0h-40v516h40v-516z" />
    <glyph glyph-name="icircumflex" unicode="&#xee;" horiz-adv-x="220" 
d="M-44 604h-44l133 160h42l133 -160h-44l-110 134zM86 0h-40v516h40v-516z" />
    <glyph glyph-name="idieresis" unicode="&#xef;" horiz-adv-x="220" 
d="M49 641h-53v72h53v-72zM223 641h-53v72h53v-72zM130 0h-40v516h40v-516z" />
    <glyph glyph-name="eth" unicode="&#xf0;" horiz-adv-x="565" 
d="M451 715l-130 -91q188 -152 188 -369q0 -124 -59.5 -194.5t-165.5 -70.5q-103 0 -165 65t-62 168q0 100 60 166t159 66q61 0 110.5 -27t75.5 -77q-29 144 -167 254l-107 -82l-20 24l104 75q-60 44 -130 77l16 26q83 -39 141 -83l130 99zM470 254v8q-9 74 -61 116t-128 42
q-85 0 -134.5 -54t-49.5 -142t51 -143q51 -56 136 -56q88 0 137 60t49 169z" />
    <glyph glyph-name="ntilde" unicode="&#xf1;" horiz-adv-x="586" 
d="M213 740q-62 0 -67 -119h-32q4 151 99 151q30 0 54.5 -17t38.5 -42q34 -60 80 -60q61 0 66 119h32q-4 -151 -99 -151q-30 0 -54.5 17.5t-37.5 42.5q-14 25 -35.5 42t-44.5 17zM317 528q85 0 132 -49t47 -137v-342h-40v335q0 76 -37 117t-109 41q-83 0 -131.5 -54
t-48.5 -158v-281h-40v516h38v-116q47 128 189 128z" />
    <glyph glyph-name="ograve" unicode="&#xf2;" horiz-adv-x="588" 
d="M339 613h-38l-125 151h54zM294 -12q-107 0 -172 74t-65 196q0 124 66 197q64 73 172 73t172 -73q65 -74 65 -196q0 -123 -66 -196q-66 -75 -172 -75zM151 86q52 -64 143 -64q90 0 144 64t54 173t-53.5 172t-144.5 63q-90 0 -143.5 -63.5t-53.5 -172.5t54 -172z" />
    <glyph glyph-name="oacute" unicode="&#xf3;" horiz-adv-x="588" 
d="M287 613h-38l108 151h54zM294 -12q-107 0 -172 74t-65 196q0 124 66 197q64 73 172 73t172 -73q65 -74 65 -196q0 -123 -66 -196q-66 -75 -172 -75zM151 86q52 -64 143 -64q90 0 144 64t54 173t-53.5 172t-144.5 63q-90 0 -143.5 -63.5t-53.5 -172.5t54 -172z" />
    <glyph glyph-name="ocircumflex" unicode="&#xf4;" horiz-adv-x="588" 
d="M185 604h-44l133 160h42l133 -160h-44l-110 134zM294 -12q-107 0 -172 74t-65 196q0 124 66 197q64 73 172 73t172 -73q65 -74 65 -196q0 -123 -66 -196q-66 -75 -172 -75zM151 86q52 -64 143 -64q90 0 144 64t54 173t-53.5 172t-144.5 63q-90 0 -143.5 -63.5
t-53.5 -172.5t54 -172z" />
    <glyph glyph-name="otilde" unicode="&#xf5;" horiz-adv-x="588" 
d="M142 621h-32q4 151 99 151q30 0 54.5 -17t38.5 -42q34 -60 80 -60q61 0 66 119h32q-4 -151 -99 -151q-30 0 -54.5 17.5t-37.5 42.5q-14 25 -35.5 42t-44.5 17q-62 0 -67 -119zM294 -12q-107 0 -172 74t-65 196q0 124 66 197q64 73 172 73t172 -73q65 -74 65 -196
q0 -123 -66 -196q-66 -75 -172 -75zM151 86q52 -64 143 -64q90 0 144 64t54 173t-53.5 172t-144.5 63q-90 0 -143.5 -63.5t-53.5 -172.5t54 -172z" />
    <glyph glyph-name="odieresis" unicode="&#xf6;" horiz-adv-x="588" 
d="M222 641h-53v72h53v-72zM421 641h-53v72h53v-72zM294 -12q-107 0 -172 74t-65 196q0 124 66 197q64 73 172 73t172 -73q65 -74 65 -196q0 -123 -66 -196q-66 -75 -172 -75zM151 86q52 -64 143 -64q90 0 144 64t54 173t-53.5 172t-144.5 63q-90 0 -143.5 -63.5
t-53.5 -172.5t54 -172z" />
    <glyph glyph-name="divide" unicode="&#xf7;" 
d="M357 451h-74v67h74v-67zM592 289h-544v40h544v-40zM357 100h-74v67h74v-67z" />
    <glyph glyph-name="oslash" unicode="&#xf8;" horiz-adv-x="588" 
d="M521 510l-50 -60q61 -71 61 -191q0 -123 -66 -196q-66 -75 -172 -75q-95 0 -157 58l-48 -58l-23 18l51 62q-60 74 -60 190q0 124 66 197q64 73 172 73q95 0 156 -57l47 57zM97 258q0 -100 45 -161l285 346q-51 51 -133 51q-90 0 -143.5 -63.5t-53.5 -172.5zM294 22
q90 0 144 64t54 173q0 99 -45 161l-286 -345q51 -53 133 -53z" />
    <glyph glyph-name="ugrave" unicode="&#xf9;" horiz-adv-x="586" 
d="M227 764l109 -151h-38l-125 151h54zM456 235v281h40v-516h-38v116q-48 -128 -189 -128q-86 0 -132.5 49t-46.5 137v342h40v-335q0 -76 37 -117t109 -41q83 0 131.5 54t48.5 158z" />
    <glyph glyph-name="uacute" unicode="&#xfa;" horiz-adv-x="586" 
d="M354 764h54l-124 -151h-38zM456 235v281h40v-516h-38v116q-48 -128 -189 -128q-86 0 -132.5 49t-46.5 137v342h40v-335q0 -76 37 -117t109 -41q83 0 131.5 54t48.5 158z" />
    <glyph glyph-name="ucircumflex" unicode="&#xfb;" horiz-adv-x="586" 
d="M403 604l-110 134l-110 -134h-44l133 160h42l133 -160h-44zM456 235v281h40v-516h-38v116q-48 -128 -189 -128q-86 0 -132.5 49t-46.5 137v342h40v-335q0 -76 37 -117t109 -41q83 0 131.5 54t48.5 158z" />
    <glyph glyph-name="udieresis" unicode="&#xfc;" horiz-adv-x="586" 
d="M167 713h53v-72h-53v72zM366 713h53v-72h-53v72zM456 235v281h40v-516h-38v116q-48 -128 -189 -128q-86 0 -132.5 49t-46.5 137v342h40v-335q0 -76 37 -117t109 -41q83 0 131.5 54t48.5 158z" />
    <glyph glyph-name="yacute" unicode="&#xfd;" horiz-adv-x="543" 
d="M333 764h54l-124 -151h-38zM275 25l188 491h42l-248 -630q-20 -51 -49 -70.5t-86 -19.5h-36v35h33q47 0 69 15t39 58l32 81l-221 531h43l186 -455z" />
    <glyph glyph-name="thorn" unicode="&#xfe;" horiz-adv-x="596" 
d="M321 528q100 0 160 -71q59 -73 59 -192q0 -123 -59 -200q-60 -77 -162 -77q-65 0 -115 36t-74 95v-323h-40v916h40v-315q22 59 73 95t118 36zM315 24q87 0 136 67q49 65 49 174q0 107 -49 167t-134 60q-86 0 -137.5 -62t-51.5 -170q0 -107 52 -171q53 -65 135 -65z" />
    <glyph glyph-name="ydieresis" unicode="&#xff;" horiz-adv-x="543" 
d="M146 713h53v-72h-53v72zM345 713h53v-72h-53v72zM275 25l188 491h42l-248 -630q-20 -51 -49 -70.5t-86 -19.5h-36v35h33q47 0 69 15t39 58l32 81l-221 531h43l186 -455z" />
    <glyph glyph-name="Amacron" unicode="&#x100;" horiz-adv-x="716" 
d="M210 876h296v-32h-296v32zM680 0h-45l-95 231h-364l-96 -231h-43l300 714h43zM347 641l-156 -374h334l-155 374l-11 35z" />
    <glyph glyph-name="amacron" unicode="&#x101;" horiz-adv-x="576" 
d="M134 680h296v-32h-296v32zM547 32h15v-32h-23q-54 0 -77.5 26t-23.5 85l-1 3q-23 -61 -76 -93.5t-128 -32.5q-83 0 -128.5 39.5t-45.5 106.5q0 128 163 149l129 18q47 6 64.5 24.5t17.5 53.5v7q0 52 -38.5 80.5t-115.5 28.5t-113.5 -29t-44.5 -92h-40q14 155 201 155
q93 0 142 -38.5t49 -107.5v-264q0 -48 16 -67.5t58 -19.5zM239 20q80 0 131.5 43t62.5 121v115q-19 -20 -69 -28l-136 -20q-130 -19 -130 -116q0 -52 37 -83.5t104 -31.5z" />
    <glyph glyph-name="Abreve" unicode="&#x102;" horiz-adv-x="716" 
d="M488 936h29q-8 -131 -159 -131t-159 131h29q6 -102 130 -102t130 102zM680 0h-45l-95 231h-364l-96 -231h-43l300 714h43zM347 641l-156 -374h334l-155 374l-11 35z" />
    <glyph glyph-name="abreve" unicode="&#x103;" horiz-adv-x="576" 
d="M412 740h29q-8 -131 -159 -131t-159 131h29q6 -102 130 -102t130 102zM547 32h15v-32h-23q-54 0 -77.5 26t-23.5 85l-1 3q-23 -61 -76 -93.5t-128 -32.5q-83 0 -128.5 39.5t-45.5 106.5q0 128 163 149l129 18q47 6 64.5 24.5t17.5 53.5v7q0 52 -38.5 80.5t-115.5 28.5
t-113.5 -29t-44.5 -92h-40q14 155 201 155q93 0 142 -38.5t49 -107.5v-264q0 -48 16 -67.5t58 -19.5zM239 20q80 0 131.5 43t62.5 121v115q-19 -20 -69 -28l-136 -20q-130 -19 -130 -116q0 -52 37 -83.5t104 -31.5z" />
    <glyph glyph-name="Aogonek" unicode="&#x104;" horiz-adv-x="716" 
d="M551 -112q0 -58 77 -58h36v-31h-43q-53 0 -80 21.5t-27 61.5q0 58 74 96l46 24l-94 229h-364l-96 -231h-43l300 714h43l300 -714l-72 -39q-57 -31 -57 -73zM347 641l-156 -374h334l-155 374l-11 35z" />
    <glyph glyph-name="aogonek" unicode="&#x105;" horiz-adv-x="576" 
d="M562 0l-72 -39q-57 -31 -57 -73q0 -58 77 -58h36v-31h-43q-53 0 -80 21.5t-27 61.5q0 58 74 96l46 23q-42 5 -60 31.5t-18 78.5l-1 3q-23 -61 -76 -93.5t-128 -32.5q-83 0 -128.5 39.5t-45.5 106.5q0 128 163 149l129 18q47 6 64.5 24.5t17.5 53.5v8q0 50 -38.5 79
t-115.5 29t-113.5 -29t-44.5 -92h-40q14 155 201 155q92 0 141.5 -38.5t49.5 -106.5v-265q0 -48 16 -67.5t58 -19.5h15v-32zM239 20q80 0 131.5 43t62.5 121v115q-20 -20 -69 -28l-136 -20q-130 -19 -130 -116q0 -52 37 -83.5t104 -31.5z" />
    <glyph glyph-name="Cacute" unicode="&#x106;" horiz-adv-x="736" 
d="M381 809h-38l108 151h54zM391 -14q-146 0 -230 104q-85 103 -85 267q0 166 86 267q85 100 228 100q115 0 195 -64q81 -65 94 -164h-41q-15 87 -82 139q-68 53 -165 53q-125 0 -199 -89q-75 -90 -75 -242q0 -150 74 -242t201 -92q102 0 172 61q71 62 78 161h40
q-11 -114 -91 -186q-80 -73 -200 -73z" />
    <glyph glyph-name="cacute" unicode="&#x107;" horiz-adv-x="545" 
d="M277 613h-38l108 151h54zM285 -12q-106 0 -167 71.5t-61 197.5q0 127 61 199t169 72q89 0 144 -48t64 -125h-38q-9 62 -53 100.5t-117 38.5q-92 0 -141 -61.5t-49 -174.5q0 -111 50 -173.5t140 -62.5q72 0 116 40t54 111h38q-11 -85 -66 -135t-144 -50z" />
    <glyph glyph-name="Ccircumflex" unicode="&#x108;" horiz-adv-x="736" 
d="M280 800h-44l133 160h42l133 -160h-44l-110 134zM391 -14q-146 0 -230 104q-85 103 -85 267q0 166 86 267q85 100 228 100q115 0 195 -64q81 -65 94 -164h-41q-15 87 -82 139q-68 53 -165 53q-125 0 -199 -89q-75 -90 -75 -242q0 -150 74 -242t201 -92q102 0 172 61
q71 62 78 161h40q-11 -114 -91 -186q-80 -73 -200 -73z" />
    <glyph glyph-name="ccircumflex" unicode="&#x109;" horiz-adv-x="545" 
d="M176 604h-44l133 160h42l133 -160h-44l-110 134zM285 -12q-106 0 -167 71.5t-61 197.5q0 127 61 199t169 72q89 0 144 -48t64 -125h-38q-9 62 -53 100.5t-117 38.5q-92 0 -141 -61.5t-49 -174.5q0 -111 50 -173.5t140 -62.5q72 0 116 40t54 111h38q-11 -85 -66 -135
t-144 -50z" />
    <glyph glyph-name="Cdotaccent" unicode="&#x10a;" horiz-adv-x="736" 
d="M417 817h-53v72h53v-72zM391 -14q-146 0 -230 104q-85 103 -85 267q0 166 86 267q85 100 228 100q115 0 195 -64q81 -65 94 -164h-41q-15 87 -82 139q-68 53 -165 53q-125 0 -199 -89q-75 -90 -75 -242q0 -150 74 -242t201 -92q102 0 172 61q71 62 78 161h40
q-11 -114 -91 -186q-80 -73 -200 -73z" />
    <glyph glyph-name="cdotaccent" unicode="&#x10b;" horiz-adv-x="545" 
d="M313 641h-53v72h53v-72zM285 -12q-106 0 -167 71.5t-61 197.5q0 127 61 199t169 72q89 0 144 -48t64 -125h-38q-9 62 -53 100.5t-117 38.5q-92 0 -141 -61.5t-49 -174.5q0 -111 50 -173.5t140 -62.5q72 0 116 40t54 111h38q-11 -85 -66 -135t-144 -50z" />
    <glyph glyph-name="Ccaron" unicode="&#x10c;" horiz-adv-x="736" 
d="M411 804h-42l-133 159h44l110 -133l110 133h44zM391 -14q-146 0 -230 104q-85 103 -85 267q0 166 86 267q85 100 228 100q115 0 195 -64q81 -65 94 -164h-41q-15 87 -82 139q-68 53 -165 53q-125 0 -199 -89q-75 -90 -75 -242q0 -150 74 -242t201 -92q102 0 172 61
q71 62 78 161h40q-11 -114 -91 -186q-80 -73 -200 -73z" />
    <glyph glyph-name="ccaron" unicode="&#x10d;" horiz-adv-x="545" 
d="M307 603h-42l-133 160h44l110 -133l110 133h44zM285 -12q-106 0 -167 71.5t-61 197.5q0 127 61 199t169 72q89 0 144 -48t64 -125h-38q-9 62 -53 100.5t-117 38.5q-92 0 -141 -61.5t-49 -174.5q0 -111 50 -173.5t140 -62.5q72 0 116 40t54 111h38q-11 -85 -66 -135
t-144 -50z" />
    <glyph glyph-name="Dcaron" unicode="&#x10e;" horiz-adv-x="727" 
d="M508 963l-133 -159h-42l-133 159h44l110 -133l110 133h44zM101 712h240q156 0 236.5 -93t80.5 -263t-84 -263t-247 -93h-226v712zM141 36h185q146 0 218.5 82t72.5 238q0 155 -71 237.5t-211 82.5h-194v-640z" />
    <glyph glyph-name="dcaron" unicode="&#x10f;" horiz-adv-x="740" 
d="M467 397v315h40v-712h-36v131q-21 -64 -73 -103.5t-120 -39.5q-102 0 -161 77q-60 77 -60 198q0 119 60 193q59 72 159 72q67 0 118 -36t73 -95zM633 514l61 198h46l-75 -198h-32zM281 24q82 0 135 65q52 64 52 171q0 108 -51.5 170t-136.5 62t-134 -61t-49 -168
q0 -109 49 -174t135 -65z" />
    <glyph glyph-name="Dcroat" unicode="&#x110;" horiz-adv-x="810" 
d="M183 712h241q156 0 236 -93t80 -263t-83.5 -263t-246.5 -93h-227v346l-156 -2v36l156 -3v335zM224 36h185q146 0 218.5 82t72.5 238q0 155 -71 237.5t-211 82.5h-194v-299l215 3v-36l-215 2v-310z" />
    <glyph glyph-name="dslash" unicode="&#x111;" horiz-adv-x="646" 
d="M507 643l129 2v-32l-129 1v-614h-36v131q-21 -64 -73 -103.5t-120 -39.5q-102 0 -161 77q-60 77 -60 198q0 119 60 193q59 72 159 72q67 0 118 -36t73 -95v217l-176 -1v32l176 -2v69h40v-69zM281 24q82 0 135 65q52 64 52 171q0 108 -51.5 170t-136.5 62t-134 -61
t-49 -168q0 -109 49 -174t135 -65z" />
    <glyph glyph-name="Emacron" unicode="&#x112;" horiz-adv-x="666" 
d="M201 876h296v-32h-296v32zM141 353v-317h454v-36h-494v712h478v-36h-438v-287h408v-36h-408z" />
    <glyph glyph-name="emacron" unicode="&#x113;" horiz-adv-x="570" 
d="M139 680h296v-32h-296v32zM514 280v-22h-417v-3q0 -108 52 -170.5t143 -62.5q69 0 113.5 35t63.5 93l36 -6q-20 -69 -76 -112.5t-138 -43.5q-109 0 -171 75q-63 73 -63 198q0 121 62 195q61 72 168 72q104 0 166 -68q61 -68 61 -180zM288 494q-83 0 -134 -54.5
t-56 -150.5h379q-5 95 -54.5 150t-134.5 55z" />
    <glyph glyph-name="Ebreve" unicode="&#x114;" horiz-adv-x="666" 
d="M479 936h29q-8 -131 -159 -131t-159 131h29q6 -102 130 -102t130 102zM141 353v-317h454v-36h-494v712h478v-36h-438v-287h408v-36h-408z" />
    <glyph glyph-name="ebreve" unicode="&#x115;" horiz-adv-x="570" 
d="M417 740h29q-8 -131 -159 -131t-159 131h29q6 -102 130 -102t130 102zM514 280v-22h-417v-3q0 -108 52 -170.5t143 -62.5q69 0 113.5 35t63.5 93l36 -6q-20 -69 -76 -112.5t-138 -43.5q-109 0 -171 75q-63 73 -63 198q0 121 62 195q61 72 168 72q104 0 166 -68
q61 -68 61 -180zM288 494q-83 0 -134 -54.5t-56 -150.5h379q-5 95 -54.5 150t-134.5 55z" />
    <glyph glyph-name="Edotaccent" unicode="&#x116;" horiz-adv-x="666" 
d="M323 889h53v-72h-53v72zM141 353v-317h454v-36h-494v712h478v-36h-438v-287h408v-36h-408z" />
    <glyph glyph-name="edotaccent" unicode="&#x117;" horiz-adv-x="570" 
d="M261 713h53v-72h-53v72zM514 280v-22h-417v-3q0 -108 52 -170.5t143 -62.5q69 0 113.5 35t63.5 93l36 -6q-20 -69 -76 -112.5t-138 -43.5q-109 0 -171 75q-63 73 -63 198q0 121 62 195q61 72 168 72q104 0 166 -68q61 -68 61 -180zM288 494q-83 0 -134 -54.5t-56 -150.5
h379q-5 95 -54.5 150t-134.5 55z" />
    <glyph glyph-name="Eogonek" unicode="&#x118;" horiz-adv-x="666" 
d="M595 0l-72 -39q-57 -31 -57 -73q0 -58 77 -58h36v-31h-43q-53 0 -80 21.5t-27 61.5q0 58 74 96l43 22h-445v712h478v-36h-438v-287h408v-36h-408v-317h454v-36z" />
    <glyph glyph-name="eogonek" unicode="&#x119;" horiz-adv-x="570" 
d="M514 280v-22h-417v-3q0 -108 52 -170.5t143 -62.5q69 0 113.5 35t63.5 93l36 -6q-26 -89 -105 -131h1l-72 -39q-57 -31 -57 -73q0 -58 77 -58h36v-31h-43q-53 0 -80 21.5t-27 61.5q0 55 69 93h-13q-109 0 -171 75q-63 73 -63 198q0 121 62 195q61 72 168 72
q104 0 166 -68q61 -68 61 -180zM288 494q-83 0 -134 -54.5t-56 -150.5h379q-5 95 -54.5 150t-134.5 55z" />
    <glyph glyph-name="Ecaron" unicode="&#x11a;" horiz-adv-x="666" 
d="M503 963l-133 -159h-42l-133 159h44l110 -133l110 133h44zM141 353v-317h454v-36h-494v712h478v-36h-438v-287h408v-36h-408z" />
    <glyph glyph-name="ecaron" unicode="&#x11b;" horiz-adv-x="570" 
d="M441 763l-133 -160h-42l-133 160h44l110 -133l110 133h44zM514 280v-22h-417v-3q0 -108 52 -170.5t143 -62.5q69 0 113.5 35t63.5 93l36 -6q-20 -69 -76 -112.5t-138 -43.5q-109 0 -171 75q-63 73 -63 198q0 121 62 195q61 72 168 72q104 0 166 -68q61 -68 61 -180z
M288 494q-83 0 -134 -54.5t-56 -150.5h379q-5 95 -54.5 150t-134.5 55z" />
    <glyph glyph-name="Gcircumflex" unicode="&#x11c;" horiz-adv-x="817" 
d="M514 800l-110 134l-110 -134h-44l133 160h42l133 -160h-44zM413 323v36h303v-359h-32l-7 161q-33 -83 -104.5 -128.5t-170.5 -45.5q-150 0 -238 102q-88 101 -88 269q0 169 87 268t241 99q124 0 205 -59t100 -163l-39 -3q-16 85 -84 137t-180 52q-136 0 -213 -89
q-76 -88 -76 -243q0 -151 76 -242q77 -92 210 -92q114 0 187 67t86 185v48h-263z" />
    <glyph glyph-name="gcircumflex" unicode="&#x11d;" horiz-adv-x="598" 
d="M388 604l-110 134l-110 -134h-44l133 160h42l133 -160h-44zM471 386v130h37v-517q0 -103 -58 -155t-165 -52q-90 0 -143.5 37.5t-63.5 95.5h40q10 -45 52.5 -72.5t115.5 -27.5q184 0 184 171v132q-22 -62 -73.5 -101t-118.5 -39q-102 0 -161 77q-60 77 -60 198
q0 119 60 193q59 72 159 72q71 0 122.5 -39t72.5 -103zM281 24q82 0 135 65q52 64 52 171q0 108 -51.5 170t-136.5 62t-134 -61t-49 -168q0 -109 49 -174t135 -65z" />
    <glyph glyph-name="Gbreve" unicode="&#x11e;" horiz-adv-x="817" 
d="M534 936h29q-8 -131 -159 -131t-159 131h29q6 -102 130 -102t130 102zM413 323v36h303v-359h-32l-7 161q-33 -83 -104.5 -128.5t-170.5 -45.5q-150 0 -238 102q-88 101 -88 269q0 169 87 268t241 99q124 0 205 -59t100 -163l-39 -3q-16 85 -84 137t-180 52
q-136 0 -213 -89q-76 -88 -76 -243q0 -151 76 -242q77 -92 210 -92q114 0 187 67t86 185v48h-263z" />
    <glyph glyph-name="gbreve" unicode="&#x11f;" horiz-adv-x="598" 
d="M408 740h29q-8 -131 -159 -131t-159 131h29q6 -102 130 -102t130 102zM471 386v130h37v-517q0 -103 -58 -155t-165 -52q-90 0 -143.5 37.5t-63.5 95.5h40q10 -45 52.5 -72.5t115.5 -27.5q184 0 184 171v132q-22 -62 -73.5 -101t-118.5 -39q-102 0 -161 77q-60 77 -60 198
q0 119 60 193q59 72 159 72q71 0 122.5 -39t72.5 -103zM281 24q82 0 135 65q52 64 52 171q0 108 -51.5 170t-136.5 62t-134 -61t-49 -168q0 -109 49 -174t135 -65z" />
    <glyph glyph-name="Gdotaccent" unicode="&#x120;" horiz-adv-x="817" 
d="M378 889h53v-72h-53v72zM413 323v36h303v-359h-32l-7 161q-33 -83 -104.5 -128.5t-170.5 -45.5q-150 0 -238 102q-88 101 -88 269q0 169 87 268t241 99q124 0 205 -59t100 -163l-39 -3q-16 85 -84 137t-180 52q-136 0 -213 -89q-76 -88 -76 -243q0 -151 76 -242
q77 -92 210 -92q114 0 187 67t86 185v48h-263z" />
    <glyph glyph-name="gdotaccent" unicode="&#x121;" horiz-adv-x="598" 
d="M252 713h53v-72h-53v72zM471 386v130h37v-517q0 -103 -58 -155t-165 -52q-90 0 -143.5 37.5t-63.5 95.5h40q10 -45 52.5 -72.5t115.5 -27.5q184 0 184 171v132q-22 -62 -73.5 -101t-118.5 -39q-102 0 -161 77q-60 77 -60 198q0 119 60 193q59 72 159 72q71 0 122.5 -39
t72.5 -103zM281 24q82 0 135 65q52 64 52 171q0 108 -51.5 170t-136.5 62t-134 -61t-49 -168q0 -109 49 -174t135 -65z" />
    <glyph glyph-name="uni0122" unicode="&#x122;" horiz-adv-x="817" 
d="M413 323v36h303v-359h-32l-7 161q-33 -83 -104.5 -128.5t-170.5 -45.5q-150 0 -238 102q-88 101 -88 269q0 169 87 268t241 99q124 0 205 -59t100 -163l-39 -3q-16 85 -84 137t-180 52q-136 0 -213 -89q-76 -88 -76 -243q0 -151 76 -242q77 -92 210 -92q114 0 187 67
t86 185v48h-263zM417 -125l-41 -4v51h63v-100q0 -46 -45 -46h-18v21h17q24 0 24 23v55z" />
    <glyph glyph-name="uni0123" unicode="&#x123;" horiz-adv-x="598" 
d="M276 689l41 4v-51h-62v92q0 46 44 46h18v-21h-18q-23 0 -23 -23v-47zM471 386v130h37v-517q0 -103 -58 -155t-165 -52q-90 0 -143.5 37.5t-63.5 95.5h40q10 -45 52.5 -72.5t115.5 -27.5q184 0 184 171v132q-22 -62 -73.5 -101t-118.5 -39q-102 0 -161 77q-60 77 -60 198
q0 119 60 193q59 72 159 72q71 0 122.5 -39t72.5 -103zM281 24q82 0 135 65q52 64 52 171q0 108 -51.5 170t-136.5 62t-134 -61t-49 -168q0 -109 49 -174t135 -65z" />
    <glyph glyph-name="Hcircumflex" unicode="&#x124;" horiz-adv-x="739" 
d="M480 800l-110 134l-110 -134h-44l133 160h42l133 -160h-44zM597 397v315h41v-712h-41v361h-456v-361h-40v712h40v-315h456z" />
    <glyph glyph-name="hcircumflex" unicode="&#x125;" horiz-adv-x="586" 
d="M264 800h-44l-110 134l-110 -134h-44l133 160h42zM317 528q85 0 132 -49t47 -137v-342h-40v335q0 76 -37 117t-109 41q-83 0 -131.5 -54t-48.5 -158v-281h-40v712h40v-306q48 122 187 122z" />
    <glyph glyph-name="Hbar" unicode="&#x126;" horiz-adv-x="739" 
d="M597 566v146h41v-712h-41v349h-456v-349h-40v712h40v-146h456zM141 530v-145h456v145h-456z" />
    <glyph glyph-name="hbar" unicode="&#x127;" horiz-adv-x="637" 
d="M368 528q85 0 132 -49t47 -137v-342h-40v335q0 76 -37 117t-109 41q-83 0 -131.5 -54t-48.5 -158v-281h-40v614l-131 -1v32l131 -2v69h40v-69l179 2v-32l-179 1v-208q48 122 187 122z" />
    <glyph glyph-name="Itilde" unicode="&#x128;" horiz-adv-x="242" 
d="M-32 817h-32q4 151 99 151q30 0 54.5 -17t38.5 -42q34 -60 80 -60q61 0 66 119h32q-4 -151 -99 -151q-30 0 -54.5 17.5t-37.5 42.5q-14 25 -35.5 42t-44.5 17q-62 0 -67 -119zM141 0h-40v712h40v-712z" />
    <glyph glyph-name="itilde" unicode="&#x129;" horiz-adv-x="220" 
d="M-43 621h-32q4 151 99 151q30 0 54.5 -17t38.5 -42q34 -60 80 -60q61 0 66 119h32q-4 -151 -99 -151q-30 0 -54.5 17.5t-37.5 42.5q-14 25 -35.5 42t-44.5 17q-62 0 -67 -119zM130 0h-40v516h40v-516z" />
    <glyph glyph-name="Imacron" unicode="&#x12a;" horiz-adv-x="242" 
d="M269 844h-296v32h296v-32zM141 0h-40v712h40v-712z" />
    <glyph glyph-name="imacron" unicode="&#x12b;" horiz-adv-x="220" 
d="M258 648h-296v32h296v-32zM130 0h-40v516h40v-516z" />
    <glyph glyph-name="Ibreve" unicode="&#x12c;" horiz-adv-x="242" 
d="M251 936h29q-8 -131 -159 -131t-159 131h29q6 -102 130 -102t130 102zM141 0h-40v712h40v-712z" />
    <glyph glyph-name="ibreve" unicode="&#x12d;" horiz-adv-x="220" 
d="M240 740h29q-8 -131 -159 -131t-159 131h29q6 -102 130 -102t130 102zM130 0h-40v516h40v-516z" />
    <glyph glyph-name="Iogonek" unicode="&#x12e;" horiz-adv-x="242" 
d="M141 0l-51 -41q-30 -23 -41 -37.5t-11 -35.5q0 -56 74 -56h29v-31h-33q-52 0 -79.5 21.5t-27.5 60.5q0 28 15.5 48t56.5 51l28 20v712h40v-712z" />
    <glyph glyph-name="iogonek" unicode="&#x12f;" horiz-adv-x="220" 
d="M83 641v72h53v-72h-53zM61 -20l29 21v515h40v-516l-51 -41q-30 -23 -41 -37.5t-11 -35.5q0 -56 73 -56h30v-31h-33q-52 0 -79.5 21.5t-27.5 60.5q0 28 15 47.5t56 51.5z" />
    <glyph glyph-name="Idot" unicode="&#x130;" horiz-adv-x="242" 
d="M147 817h-53v72h53v-72zM141 0h-40v712h40v-712z" />
    <glyph glyph-name="dotlessi" unicode="&#x131;" horiz-adv-x="220" 
d="M130 0h-40v516h40v-516z" />
    <glyph glyph-name="IJ" unicode="&#x132;" horiz-adv-x="796" 
d="M141 0h-40v712h40v-712zM494 -12q-97 0 -150 51.5t-53 151.5v47h40v-46q0 -83 42 -125t121 -42q77 0 118.5 42t41.5 125v520h40v-521q0 -100 -52.5 -151.5t-147.5 -51.5z" />
    <glyph glyph-name="ij" unicode="&#x133;" horiz-adv-x="439" 
d="M134 642h-48v70h48v-70zM354 642h-48v70h48v-70zM130 0h-40v516h40v-516zM219 -204h-25v35h25q47 0 69 22t22 70v593h40v-588q0 -132 -131 -132z" />
    <glyph glyph-name="Jcircumflex" unicode="&#x134;" horiz-adv-x="561" 
d="M330 800h-44l133 160h42l133 -160h-44l-110 134zM260 -12q-97 0 -150 51.5t-53 151.5v47h40v-46q0 -83 42 -125t121 -42q77 0 118.5 42t41.5 125v520h40v-521q0 -100 -52.5 -151.5t-147.5 -51.5z" />
    <glyph glyph-name="jcircumflex" unicode="&#x135;" horiz-adv-x="220" 
d="M-44 604h-44l133 160h42l133 -160h-44l-110 134zM-45 -204h-25v35h25q47 0 69 22t22 70v593h40v-588q0 -132 -131 -132z" />
    <glyph glyph-name="uni0136" unicode="&#x136;" horiz-adv-x="704" 
d="M654 712l-312 -292l326 -420h-51l-304 394l-172 -161v-233h-40v712h40v-429l458 429h55zM366 -125l-42 -4v51h63v-100q0 -46 -45 -46h-18v21h17q25 0 25 23v55z" />
    <glyph glyph-name="uni0137" unicode="&#x137;" horiz-adv-x="556" 
d="M506 516l-221 -199l235 -317h-48l-215 292l-127 -115v-177h-40v712h40v-492l323 296h53zM295 -125l-42 -4v51h63v-100q0 -46 -45 -46h-18v21h17q25 0 25 23v55z" />
    <glyph glyph-name="kgreenlandic" unicode="&#x138;" horiz-adv-x="556" 
d="M520 0h-48l-215 285l-127 -115v-170h-40v516h40v-302l323 302h53l-221 -206z" />
    <glyph glyph-name="Lacute" unicode="&#x139;" horiz-adv-x="607" 
d="M197 960h54l-124 -151h-38zM141 712v-676h415v-36h-455v712h40z" />
    <glyph glyph-name="lacute" unicode="&#x13a;" horiz-adv-x="220" 
d="M101 809h-38l108 151h54zM130 0h-40v712h40v-712z" />
    <glyph glyph-name="uni013B" unicode="&#x13b;" horiz-adv-x="607" 
d="M141 712v-676h415v-36h-455v712h40zM341 -125l-42 -4v51h63v-100q0 -46 -45 -46h-18v21h17q25 0 25 23v55z" />
    <glyph glyph-name="uni013C" unicode="&#x13c;" horiz-adv-x="220" 
d="M90 712h40v-712h-40v712zM79 -129v51h63v-100q0 -46 -45 -46h-18v21h17q25 0 25 23v55z" />
    <glyph glyph-name="Lcaron" unicode="&#x13d;" horiz-adv-x="607" 
d="M141 712v-676h415v-36h-455v712h40zM403 712h47l-76 -198h-32z" />
    <glyph glyph-name="lcaron" unicode="&#x13e;" horiz-adv-x="342" 
d="M130 0h-40v712h40v-712zM267 514h-32l61 198h46z" />
    <glyph glyph-name="Ldot" unicode="&#x13f;" horiz-adv-x="607" 
d="M141 712v-676h415v-36h-455v712h40zM321 402h71v-64h-71v64z" />
    <glyph glyph-name="ldot" unicode="&#x140;" horiz-adv-x="300" 
d="M130 0h-40v712h40v-712zM272 324h-71v63h71v-63z" />
    <glyph glyph-name="Lslash" unicode="&#x141;" horiz-adv-x="724" 
d="M257 325v-289h415v-36h-455v305l-160 -79v38l160 76v372h40v-352l284 141v-38z" />
    <glyph glyph-name="lslash" unicode="&#x142;" horiz-adv-x="366" 
d="M204 406l107 58v-40l-107 -54v-370h-40v349l-107 -60v41l107 54v328h40v-306z" />
    <glyph glyph-name="Nacute" unicode="&#x143;" horiz-adv-x="741" 
d="M431 960h54l-124 -151h-38zM601 58v654h38v-712h-43l-457 653v-653h-38v712h42z" />
    <glyph glyph-name="nacute" unicode="&#x144;" horiz-adv-x="586" 
d="M360 764h54l-124 -151h-38zM317 528q85 0 132 -49t47 -137v-342h-40v335q0 76 -37 117t-109 41q-83 0 -131.5 -54t-48.5 -158v-281h-40v516h38v-116q47 128 189 128z" />
    <glyph glyph-name="uni0145" unicode="&#x145;" horiz-adv-x="741" 
d="M601 58v654h38v-712h-43l-457 653v-653h-38v712h42zM383 -125l-42 -4v51h63v-100q0 -46 -45 -46h-18v21h17q25 0 25 23v55z" />
    <glyph glyph-name="uni0146" unicode="&#x146;" horiz-adv-x="586" 
d="M317 528q85 0 132 -49t47 -137v-342h-40v335q0 76 -37 117t-109 41q-83 0 -131.5 -54t-48.5 -158v-281h-40v516h38v-116q47 128 189 128zM301 -125l-42 -4v51h63v-100q0 -46 -45 -46h-18v21h17q25 0 25 23v55z" />
    <glyph glyph-name="Ncaron" unicode="&#x147;" horiz-adv-x="741" 
d="M524 963l-133 -159h-42l-133 159h44l110 -133l110 133h44zM601 58v654h38v-712h-43l-457 653v-653h-38v712h42z" />
    <glyph glyph-name="ncaron" unicode="&#x148;" horiz-adv-x="586" 
d="M453 763l-133 -160h-42l-133 160h44l110 -133l110 133h44zM317 528q85 0 132 -49t47 -137v-342h-40v335q0 76 -37 117t-109 41q-83 0 -131.5 -54t-48.5 -158v-281h-40v516h38v-116q47 128 189 128z" />
    <glyph glyph-name="napostrophe" unicode="&#x149;" horiz-adv-x="760" 
d="M92 654l-47 -5v63h73v-140q0 -68 -64 -68h-8v25h8q38 0 38 38v87zM491 528q86 0 132.5 -49t46.5 -137v-342h-40v335q0 76 -37 117t-109 41q-83 0 -131.5 -54t-48.5 -158v-281h-40v516h38v-116q47 128 189 128z" />
    <glyph glyph-name="Eng" unicode="&#x14a;" horiz-adv-x="741" 
d="M601 66v646h38v-784q0 -68 -31 -100t-98 -32h-29v35h29q47 0 69 22t22 70v78l-462 653v-654h-38v712h42z" />
    <glyph glyph-name="eng" unicode="&#x14b;" horiz-adv-x="586" 
d="M317 528q85 0 132 -49t47 -137v-414q0 -132 -131 -132h-25v35h25q47 0 69 22t22 70v412q0 76 -37 117t-109 41q-83 0 -131.5 -54t-48.5 -158v-281h-40v516h38v-116q47 128 189 128z" />
    <glyph glyph-name="Omacron" unicode="&#x14c;" horiz-adv-x="811" 
d="M552 844h-296v32h296v-32zM405 -14q-149 0 -239 104t-90 266t90 266q90 102 239 102q150 0 240 -102q90 -104 90 -266t-90 -266t-240 -104zM405 23q131 0 211 92q78 91 78 241q0 149 -78 241q-79 91 -211 91q-131 0 -209 -91q-79 -91 -79 -241q0 -149 79 -240
q78 -93 209 -93z" />
    <glyph glyph-name="omacron" unicode="&#x14d;" horiz-adv-x="588" 
d="M443 648h-296v32h296v-32zM294 -12q-107 0 -172 74t-65 196q0 124 66 197q64 73 172 73t172 -73q65 -74 65 -196q0 -123 -66 -196q-66 -75 -172 -75zM151 86q52 -64 143 -64q90 0 144 64t54 173t-53.5 172t-144.5 63q-90 0 -143.5 -63.5t-53.5 -172.5t54 -172z" />
    <glyph glyph-name="Obreve" unicode="&#x14e;" horiz-adv-x="811" 
d="M534 936h29q-8 -131 -159 -131t-159 131h29q6 -102 130 -102t130 102zM405 -14q-149 0 -239 104t-90 266t90 266q90 102 239 102q150 0 240 -102q90 -104 90 -266t-90 -266t-240 -104zM405 23q131 0 211 92q78 91 78 241q0 149 -78 241q-79 91 -211 91q-131 0 -209 -91
q-79 -91 -79 -241q0 -149 79 -240q78 -93 209 -93z" />
    <glyph glyph-name="obreve" unicode="&#x14f;" horiz-adv-x="588" 
d="M425 740h29q-8 -131 -159 -131t-159 131h29q6 -102 130 -102t130 102zM294 -12q-107 0 -172 74t-65 196q0 124 66 197q64 73 172 73t172 -73q65 -74 65 -196q0 -123 -66 -196q-66 -75 -172 -75zM151 86q52 -64 143 -64q90 0 144 64t54 173t-53.5 172t-144.5 63
q-90 0 -143.5 -63.5t-53.5 -172.5t54 -172z" />
    <glyph glyph-name="Ohungarumlaut" unicode="&#x150;" horiz-adv-x="811" 
d="M314 798h-37l104 164h47zM493 798h-37l116 164h47zM405 -14q-149 0 -239 104t-90 266t90 266q90 102 239 102q150 0 240 -102q90 -104 90 -266t-90 -266t-240 -104zM405 23q131 0 211 92q78 91 78 241q0 149 -78 241q-79 91 -211 91q-131 0 -209 -91q-79 -91 -79 -241
q0 -149 79 -240q78 -93 209 -93z" />
    <glyph glyph-name="ohungarumlaut" unicode="&#x151;" horiz-adv-x="588" 
d="M205 602h-37l104 164h47zM384 602h-37l116 164h47zM294 -12q-107 0 -172 74t-65 196q0 124 66 197q64 73 172 73t172 -73q65 -74 65 -196q0 -123 -66 -196q-66 -75 -172 -75zM151 86q52 -64 143 -64q90 0 144 64t54 173t-53.5 172t-144.5 63q-90 0 -143.5 -63.5
t-53.5 -172.5t54 -172z" />
    <glyph glyph-name="OE" unicode="&#x152;" horiz-adv-x="1259" 
d="M734 353v-317h454v-36h-495v181q-37 -93 -111.5 -144t-176.5 -51q-150 0 -239 104q-90 104 -90 266t90 266q88 102 239 102q102 0 176.5 -50t111.5 -141v179h478v-36h-437v-287h408v-36h-408zM405 23q124 0 202 82q77 82 86 219v64q-9 137 -86 219q-78 81 -202 81
q-132 0 -210 -91q-78 -92 -78 -241q0 -150 79 -241q78 -92 209 -92z" />
    <glyph glyph-name="oe" unicode="&#x153;" horiz-adv-x="1005" 
d="M950 280v-22h-418v-3q0 -108 52.5 -170.5t143.5 -62.5q67 0 111.5 34t64.5 91l36 -5q-21 -69 -76.5 -111.5t-136.5 -42.5q-78 0 -134 39.5t-81 111.5q-27 -72 -84 -111.5t-134 -39.5q-107 0 -172 74t-65 196q0 124 66 197q64 73 172 73q76 0 133 -38.5t83 -108.5
q25 70 80 108.5t132 38.5q105 0 166 -69q61 -68 61 -179zM151 86q52 -64 143 -64q90 0 144 64t54 173t-53.5 172t-144.5 63q-90 0 -143.5 -63.5t-53.5 -172.5t54 -172zM723 494q-83 0 -134 -54.5t-56 -150.5h379q-5 95 -54.5 150t-134.5 55z" />
    <glyph glyph-name="Racute" unicode="&#x154;" horiz-adv-x="718" 
d="M414 960h54l-124 -151h-38zM603 202l24 -202h-41l-22 188q-7 66 -38 101q-36 39 -136 39h-249v-328h-40v712h315q95 0 151 -50t56 -136q0 -74 -39.5 -120.5t-109.5 -59.5q62 -9 92 -44t37 -100zM141 676v-311h254q89 0 138 41.5t49 116.5q0 73 -44.5 113t-126.5 40h-270z
" />
    <glyph glyph-name="racute" unicode="&#x155;" horiz-adv-x="372" 
d="M285 764h54l-124 -151h-38zM309 529q20 0 41 -3v-39q-26 3 -46 3q-77 0 -125 -52.5t-49 -148.5v-289h-40v516h38v-118q21 63 67.5 97t113.5 34z" />
    <glyph glyph-name="uni0156" unicode="&#x156;" horiz-adv-x="718" 
d="M603 202l24 -202h-41l-22 188q-7 66 -38 101q-36 39 -136 39h-249v-328h-40v712h315q95 0 151 -50t56 -136q0 -74 -39.5 -120.5t-109.5 -59.5q62 -9 92 -44t37 -100zM141 676v-311h254q89 0 138 41.5t49 116.5q0 73 -44.5 113t-126.5 40h-270zM378 -125l-42 -4v51h63
v-100q0 -46 -45 -46h-18v21h17q25 0 25 23v55z" />
    <glyph glyph-name="uni0157" unicode="&#x157;" horiz-adv-x="372" 
d="M309 529q20 0 41 -3v-39q-26 3 -46 3q-77 0 -125 -52.5t-49 -148.5v-289h-40v516h38v-118q21 63 67.5 97t113.5 34zM121 -125l-42 -4v51h63v-100q0 -46 -45 -46h-18v21h17q25 0 25 23v55z" />
    <glyph glyph-name="Rcaron" unicode="&#x158;" horiz-adv-x="718" 
d="M506 963l-133 -159h-42l-133 159h44l110 -133l110 133h44zM603 202l24 -202h-41l-22 188q-7 66 -38 101q-36 39 -136 39h-249v-328h-40v712h315q95 0 151 -50t56 -136q0 -74 -39.5 -120.5t-109.5 -59.5q62 -9 92 -44t37 -100zM141 676v-311h254q89 0 138 41.5t49 116.5
q0 73 -44.5 113t-126.5 40h-270z" />
    <glyph glyph-name="rcaron" unicode="&#x159;" horiz-adv-x="372" 
d="M377 763l-133 -160h-42l-133 160h44l110 -133l110 133h44zM128 516v-118q21 63 67.5 97t113.5 34q20 0 41 -3v-39q-26 3 -46 3q-77 0 -125 -52.5t-49 -148.5v-289h-40v516h38z" />
    <glyph glyph-name="Sacute" unicode="&#x15a;" horiz-adv-x="666" 
d="M322 809h-38l108 151h54zM341 -13q-259 0 -281 228h39q21 -194 243 -194q107 0 165.5 43.5t58.5 121.5q0 61 -39 97.5t-122 53.5l-132 26q-187 37 -187 175q0 87 65 137t179 50t182 -53t73 -148h-39q-4 80 -61.5 123.5t-155.5 43.5q-96 0 -150 -40t-54 -110
q0 -109 154 -140l140 -29q186 -38 186 -185q0 -94 -68.5 -147t-195.5 -53z" />
    <glyph glyph-name="sacute" unicode="&#x15b;" horiz-adv-x="523" 
d="M250 613h-38l108 151h54zM266 -12q-96 0 -149.5 43.5t-58.5 125.5h38q10 -136 171 -136q76 0 118.5 30.5t42.5 84.5q0 87 -117 105l-87 15q-77 13 -114.5 43.5t-37.5 86.5q0 66 49.5 102.5t134.5 36.5q87 0 139.5 -40t58.5 -112h-40q-5 57 -46.5 88t-112.5 31
q-67 0 -106.5 -27.5t-39.5 -76.5q0 -41 29.5 -63t94.5 -34l85 -14q149 -26 149 -138q0 -71 -53.5 -111t-147.5 -40z" />
    <glyph glyph-name="Scircumflex" unicode="&#x15c;" horiz-adv-x="666" 
d="M220 800h-44l133 160h42l133 -160h-44l-110 134zM341 -13q-259 0 -281 228h39q21 -194 243 -194q107 0 165.5 43.5t58.5 121.5q0 61 -39 97.5t-122 53.5l-132 26q-187 37 -187 175q0 87 65 137t179 50t182 -53t73 -148h-39q-4 80 -61.5 123.5t-155.5 43.5q-96 0 -150 -40
t-54 -110q0 -109 154 -140l140 -29q186 -38 186 -185q0 -94 -68.5 -147t-195.5 -53z" />
    <glyph glyph-name="scircumflex" unicode="&#x15d;" horiz-adv-x="523" 
d="M149 604h-44l133 160h42l133 -160h-44l-110 134zM266 -12q-96 0 -149.5 43.5t-58.5 125.5h38q10 -136 171 -136q76 0 118.5 30.5t42.5 84.5q0 87 -117 105l-87 15q-77 13 -114.5 43.5t-37.5 86.5q0 66 49.5 102.5t134.5 36.5q87 0 139.5 -40t58.5 -112h-40
q-5 57 -46.5 88t-112.5 31q-67 0 -106.5 -27.5t-39.5 -76.5q0 -41 29.5 -63t94.5 -34l85 -14q149 -26 149 -138q0 -71 -53.5 -111t-147.5 -40z" />
    <glyph glyph-name="Scedilla" unicode="&#x15e;" horiz-adv-x="666" 
d="M605 187q0 -91 -65.5 -144.5t-187.5 -55.5l-37 -60h30q90 0 90 -74q0 -39 -30 -60.5t-84 -21.5h-37v27h34q85 0 85 54q0 46 -63 46h-43l-14 23l41 66q-243 7 -264 228h39q21 -194 243 -194q107 0 165.5 43.5t58.5 121.5q0 61 -39 97.5t-122 53.5l-132 26
q-187 37 -187 175q0 87 65 137t179 50t182 -53t73 -148h-39q-4 80 -61.5 123.5t-155.5 43.5q-96 0 -150 -40t-54 -110q0 -109 154 -140l140 -29q186 -38 186 -185z" />
    <glyph glyph-name="scedilla" unicode="&#x15f;" horiz-adv-x="523" 
d="M467 139q0 -69 -50.5 -109t-139.5 -42l-37 -61h30q90 0 90 -74q0 -39 -30 -60.5t-84 -21.5h-37v27h34q85 0 85 54q0 46 -63 46h-43l-14 23l42 67q-88 4 -137.5 47t-54.5 122h38q10 -136 171 -136q76 0 118.5 30.5t42.5 84.5q0 87 -117 105l-87 15q-77 13 -114.5 43.5
t-37.5 86.5q0 66 49.5 102.5t134.5 36.5q87 0 139.5 -40t58.5 -112h-40q-5 57 -46.5 88t-112.5 31q-67 0 -106.5 -27.5t-39.5 -76.5q0 -41 29.5 -63t94.5 -34l85 -14q149 -26 149 -138z" />
    <glyph glyph-name="Scaron" unicode="&#x160;" horiz-adv-x="666" 
d="M351 804h-42l-133 159h44l110 -133l110 133h44zM341 -13q-259 0 -281 228h39q21 -194 243 -194q107 0 165.5 43.5t58.5 121.5q0 61 -39 97.5t-122 53.5l-132 26q-187 37 -187 175q0 87 65 137t179 50t182 -53t73 -148h-39q-4 80 -61.5 123.5t-155.5 43.5q-96 0 -150 -40
t-54 -110q0 -109 154 -140l140 -29q186 -38 186 -185q0 -94 -68.5 -147t-195.5 -53z" />
    <glyph glyph-name="scaron" unicode="&#x161;" horiz-adv-x="523" 
d="M280 603h-42l-133 160h44l110 -133l110 133h44zM266 -12q-96 0 -149.5 43.5t-58.5 125.5h38q10 -136 171 -136q76 0 118.5 30.5t42.5 84.5q0 87 -117 105l-87 15q-77 13 -114.5 43.5t-37.5 86.5q0 66 49.5 102.5t134.5 36.5q87 0 139.5 -40t58.5 -112h-40q-5 57 -46.5 88
t-112.5 31q-67 0 -106.5 -27.5t-39.5 -76.5q0 -41 29.5 -63t94.5 -34l85 -14q149 -26 149 -138q0 -71 -53.5 -111t-147.5 -40z" />
    <glyph glyph-name="uni0162" unicode="&#x162;" horiz-adv-x="647" 
d="M343 676v-676h-5l-42 -67h30q91 0 91 -74q0 -38 -30.5 -60t-84.5 -22h-36v27h34q84 0 84 54q0 46 -62 46h-43l-14 23l45 73h-7v676h-255v36h551v-36h-256z" />
    <glyph glyph-name="uni0163" unicode="&#x163;" horiz-adv-x="331" 
d="M301 483l-137 2v-372q0 -41 17.5 -59.5t56.5 -18.5h62v-35h-71h-13l-37 -60h30q44 0 67.5 -19.5t23.5 -54.5q0 -38 -30.5 -60t-84.5 -22h-36v27h34q84 0 84 54q0 46 -63 46h-42l-14 23l43 70q-67 16 -67 104v377l-97 -2v33l97 -2v152h40v-152l137 2v-33z" />
    <glyph glyph-name="Tcaron" unicode="&#x164;" horiz-adv-x="647" 
d="M478 963l-133 -159h-42l-133 159h44l110 -133l110 133h44zM48 712h551v-36h-256v-676h-40v676h-255v36z" />
    <glyph glyph-name="tcaron" unicode="&#x165;" horiz-adv-x="331" 
d="M309 805h46l-75 -198h-32zM164 666v-152l137 2v-33l-137 2v-372q0 -41 17.5 -59.5t56.5 -18.5h62v-35h-71q-105 0 -105 108v377l-97 -2v33l97 -2v152h40z" />
    <glyph glyph-name="Tbar" unicode="&#x166;" horiz-adv-x="647" 
d="M599 712v-36h-256v-296l237 2v-36l-237 2v-348h-40v348l-236 -2v36l236 -2v296h-255v36h551z" />
    <glyph glyph-name="tbar" unicode="&#x167;" horiz-adv-x="334" 
d="M304 516v-33l-138 2v-198l138 2v-32l-138 2l1 -25v-121q0 -41 17.5 -59.5t56.5 -18.5h62v-35h-71q-105 0 -105 108v126l1 25l-98 -2v32l98 -2v198l-98 -2v33l98 -2l-1 18v134h40v-134l-1 -18z" />
    <glyph glyph-name="Utilde" unicode="&#x168;" horiz-adv-x="734" 
d="M214 817h-32q4 151 99 151q30 0 54.5 -17t38.5 -42q34 -60 80 -60q61 0 66 119h32q-4 -151 -99 -151q-30 0 -54.5 17.5t-37.5 42.5q-14 25 -35.5 42t-44.5 17q-62 0 -67 -119zM367 -13q-127 0 -196.5 60.5t-69.5 185.5v479h40v-480q0 -209 226 -209q225 0 225 209v480h40
v-479q0 -124 -70 -185t-195 -61z" />
    <glyph glyph-name="utilde" unicode="&#x169;" horiz-adv-x="586" 
d="M207 740q-62 0 -67 -119h-32q4 151 99 151q30 0 54.5 -17t38.5 -42q34 -60 80 -60q61 0 66 119h32q-4 -151 -99 -151q-30 0 -54.5 17.5t-37.5 42.5q-14 25 -35.5 42t-44.5 17zM456 235v281h40v-516h-38v116q-48 -128 -189 -128q-86 0 -132.5 49t-46.5 137v342h40v-335
q0 -76 37 -117t109 -41q83 0 131.5 54t48.5 158z" />
    <glyph glyph-name="Umacron" unicode="&#x16a;" horiz-adv-x="734" 
d="M515 844h-296v32h296v-32zM367 -13q-127 0 -196.5 60.5t-69.5 185.5v479h40v-480q0 -209 226 -209q225 0 225 209v480h40v-479q0 -124 -70 -185t-195 -61z" />
    <glyph glyph-name="umacron" unicode="&#x16b;" horiz-adv-x="586" 
d="M145 680h296v-32h-296v32zM456 235v281h40v-516h-38v116q-48 -128 -189 -128q-86 0 -132.5 49t-46.5 137v342h40v-335q0 -76 37 -117t109 -41q83 0 131.5 54t48.5 158z" />
    <glyph glyph-name="Ubreve" unicode="&#x16c;" horiz-adv-x="734" 
d="M497 936h29q-8 -131 -159 -131t-159 131h29q6 -102 130 -102t130 102zM367 -13q-127 0 -196.5 60.5t-69.5 185.5v479h40v-480q0 -209 226 -209q225 0 225 209v480h40v-479q0 -124 -70 -185t-195 -61z" />
    <glyph glyph-name="ubreve" unicode="&#x16d;" horiz-adv-x="586" 
d="M423 740h29q-8 -131 -159 -131t-159 131h29q6 -102 130 -102t130 102zM456 235v281h40v-516h-38v116q-48 -128 -189 -128q-86 0 -132.5 49t-46.5 137v342h40v-335q0 -76 37 -117t109 -41q83 0 131.5 54t48.5 158z" />
    <glyph glyph-name="Uring" unicode="&#x16e;" horiz-adv-x="734" 
d="M451 823q-33 -33 -84 -33t-84 33t-33 83t33 84q33 33 84 33t84 -33q33 -34 33 -84t-33 -83zM306 844q27 -23 61 -24t61.5 24t24.5 62q0 39 -24.5 63t-61.5 24t-61.5 -24t-24.5 -63q0 -38 25 -62zM367 -13q-127 0 -196.5 60.5t-69.5 185.5v479h40v-480q0 -209 226 -209
q225 0 225 209v480h40v-479q0 -124 -70 -185t-195 -61z" />
    <glyph glyph-name="uring" unicode="&#x16f;" horiz-adv-x="586" 
d="M377 627q-33 -33 -84 -33t-84 33t-33 83t33 84q33 33 84 33t84 -33q33 -34 33 -84t-33 -83zM355 774q-24 22 -62 22t-62 -22q-24 -24 -24 -64q0 -38 24.5 -62t61.5 -24t61.5 24t24.5 62q0 40 -24 64zM456 235v281h40v-516h-38v116q-48 -128 -189 -128q-86 0 -132.5 49
t-46.5 137v342h40v-335q0 -76 37 -117t109 -41q83 0 131.5 54t48.5 158z" />
    <glyph glyph-name="Uhungarumlaut" unicode="&#x170;" horiz-adv-x="734" 
d="M277 798h-37l104 164h47zM456 798h-37l116 164h47zM367 -13q-127 0 -196.5 60.5t-69.5 185.5v479h40v-480q0 -209 226 -209q225 0 225 209v480h40v-479q0 -124 -70 -185t-195 -61z" />
    <glyph glyph-name="uhungarumlaut" unicode="&#x171;" horiz-adv-x="586" 
d="M270 766h47l-114 -164h-37zM461 766h47l-126 -164h-37zM456 235v281h40v-516h-38v116q-48 -128 -189 -128q-86 0 -132.5 49t-46.5 137v342h40v-335q0 -76 37 -117t109 -41q83 0 131.5 54t48.5 158z" />
    <glyph glyph-name="Uogonek" unicode="&#x172;" horiz-adv-x="734" 
d="M592 232v480h40v-479q0 -210 -196 -241l-67 -36q-57 -31 -57 -73q0 -58 77 -58h36v-31h-43q-53 0 -80 21.5t-27 61.5q0 58 74 96l28 14h-10q-127 0 -196.5 60.5t-69.5 185.5v479h40v-480q0 -209 226 -209q225 0 225 209z" />
    <glyph glyph-name="uogonek" unicode="&#x173;" horiz-adv-x="586" 
d="M496 -7l-73 -38q-56 -29 -56 -69q0 -56 77 -56h36v-31h-43q-107 0 -107 81q0 57 74 93l60 29l-5 127q-45 -131 -190 -131q-86 0 -134 50q-45 46 -45 140v328h40v-325q0 -77 36 -117q38 -41 110 -41q83 0 131.5 54t48.5 158v271h40v-523z" />
    <glyph glyph-name="Wcircumflex" unicode="&#x174;" horiz-adv-x="941" 
d="M581 800l-110 134l-110 -134h-44l133 160h42l133 -160h-44zM703 173l161 539h41l-214 -716h-37l-185 666l-184 -666h-38l-210 716h41l158 -539l31 -120l30 120l151 539h43l150 -539l31 -120z" />
    <glyph glyph-name="wcircumflex" unicode="&#x175;" horiz-adv-x="766" 
d="M492 604l-110 134l-110 -134h-44l133 160h42l133 -160h-44zM564 129l122 387h42l-169 -516h-39l-118 399l-18 81l-20 -81l-119 -399h-40l-167 516h43l121 -387l23 -85l22 85l116 387h41l116 -387l21 -83z" />
    <glyph glyph-name="Ycircumflex" unicode="&#x176;" horiz-adv-x="673" 
d="M447 800l-110 134l-110 -134h-44l133 160h42l133 -160h-44zM601 712h46l-288 -424v-288h-41v288l-292 424h48l249 -365l16 -26l15 26z" />
    <glyph glyph-name="ycircumflex" unicode="&#x177;" horiz-adv-x="543" 
d="M382 604l-110 134l-110 -134h-44l133 160h42l133 -160h-44zM275 25l188 491h42l-248 -630q-20 -51 -49 -70.5t-86 -19.5h-36v35h33q47 0 69 15t39 58l32 81l-221 531h43l186 -455z" />
    <glyph glyph-name="Ydieresis" unicode="&#x178;" horiz-adv-x="673" 
d="M211 889h53v-72h-53v72zM410 889h53v-72h-53v72zM601 712h46l-288 -424v-288h-41v288l-292 424h48l249 -365l16 -26l15 26z" />
    <glyph glyph-name="Zacute" unicode="&#x179;" horiz-adv-x="679" 
d="M401 960h54l-124 -151h-38zM594 678l-477 -641h491v-37h-538v39l473 636h-447v37h498v-34z" />
    <glyph glyph-name="zacute" unicode="&#x17a;" horiz-adv-x="524" 
d="M323 764h54l-124 -151h-38zM452 490l-347 -456h363v-34h-411v29l344 453h-332v34h383v-26z" />
    <glyph glyph-name="Zdotaccent" unicode="&#x17b;" horiz-adv-x="679" 
d="M313 889h53v-72h-53v72zM594 678l-477 -641h491v-37h-538v39l473 636h-447v37h498v-34z" />
    <glyph glyph-name="zdotaccent" unicode="&#x17c;" horiz-adv-x="524" 
d="M236 713h53v-72h-53v72zM452 490l-347 -456h363v-34h-411v29l344 453h-332v34h383v-26z" />
    <glyph glyph-name="Zcaron" unicode="&#x17d;" horiz-adv-x="679" 
d="M493 963l-133 -159h-42l-133 159h44l110 -133l110 133h44zM594 678l-477 -641h491v-37h-538v39l473 636h-447v37h498v-34z" />
    <glyph glyph-name="zcaron" unicode="&#x17e;" horiz-adv-x="524" 
d="M416 763l-133 -160h-42l-133 160h44l110 -133l110 133h44zM452 490l-347 -456h363v-34h-411v29l344 453h-332v34h383v-26z" />
    <glyph glyph-name="uni018F" unicode="&#x18f;" horiz-adv-x="812" 
d="M402 724q151 0 243 -101q90 -101 90 -267q0 -164 -89 -267q-90 -103 -242 -103q-148 0 -237 99q-88 98 -91 252v17h618q0 153 -79 244q-79 90 -214 90q-88 0 -151.5 -41t-96.5 -117h-45q36 93 112.5 143.5t181.5 50.5zM405 23q125 0 202 80q75 78 86 214h-575
q8 -132 84 -213t203 -81z" />
    <glyph glyph-name="florin" unicode="&#x192;" 
d="M494 712h56l-6 -34h-50q-42 0 -64 -21.5t-32 -73.5l-36 -184l127 2l-7 -32l-125 1l-77 -394q-13 -66 -44 -95.5t-91 -29.5h-55l7 34h48q42 0 64 21.5t32 73.5l76 390l-122 -1l7 32l121 -2l36 188q13 67 44.5 96t90.5 29z" />
    <glyph glyph-name="uni01F4" unicode="&#x1f4;" horiz-adv-x="817" 
d="M465 960h54l-124 -151h-38zM413 323v36h303v-359h-32l-7 161q-33 -83 -104.5 -128.5t-170.5 -45.5q-150 0 -238 102q-88 101 -88 269q0 169 87 268t241 99q124 0 205 -59t100 -163l-39 -3q-16 85 -84 137t-180 52q-136 0 -213 -89q-76 -88 -76 -243q0 -151 76 -242
q77 -92 210 -92q114 0 187 67t86 185v48h-263z" />
    <glyph glyph-name="uni01F5" unicode="&#x1f5;" horiz-adv-x="598" 
d="M340 764h54l-124 -151h-38zM471 386v130h37v-517q0 -103 -58 -155t-165 -52q-90 0 -143.5 37.5t-63.5 95.5h40q10 -45 52.5 -72.5t115.5 -27.5q184 0 184 171v132q-22 -62 -73.5 -101t-118.5 -39q-102 0 -161 77q-60 77 -60 198q0 119 60 193q59 72 159 72
q71 0 122.5 -39t72.5 -103zM281 24q82 0 135 65q52 64 52 171q0 108 -51.5 170t-136.5 62t-134 -61t-49 -168q0 -109 49 -174t135 -65z" />
    <glyph glyph-name="Aringacute" unicode="&#x1fa;" horiz-adv-x="716" 
d="M418 1101h54l-124 -149h-38zM680 0h-45l-95 231h-364l-96 -231h-43l290 689q-39 10 -63 40.5t-24 72.5q0 50 33 83t84 33q50 0 83 -33t33 -83q0 -41 -23 -71.5t-60 -40.5zM295 865q-25 -24 -25 -63q0 -40 25 -62q24 -24 62 -24q37 0 61.5 24t24.5 62q0 39 -24 63
q-25 24 -62 24t-62 -24zM347 642l-156 -375h334l-155 375l-11 34z" />
    <glyph glyph-name="aringacute" unicode="&#x1fb;" horiz-adv-x="576" 
d="M343 1016h54l-125 -151h-38zM281 583q-50 0 -83 32.5t-33 82.5q0 51 33 84t83 33q51 0 84 -33t33 -84q0 -50 -33 -82.5t-84 -32.5zM344 762q-25 23 -63 23t-62 -23q-24 -24 -24 -64q0 -38 24.5 -62t61.5 -24t62 24t25 62q0 40 -24 64zM547 32h15v-32h-23q-54 0 -77.5 26
t-23.5 85l-1 3q-23 -61 -76 -93.5t-128 -32.5q-83 0 -128.5 39.5t-45.5 106.5q0 128 163 149l129 18q47 6 64.5 24.5t17.5 53.5v7q0 52 -38.5 80.5t-115.5 28.5t-113.5 -29t-44.5 -92h-40q14 155 201 155q93 0 142 -38.5t49 -107.5v-264q0 -48 16 -67.5t58 -19.5zM239 20
q80 0 131.5 43t62.5 121v115q-19 -20 -69 -28l-136 -20q-130 -19 -130 -116q0 -52 37 -83.5t104 -31.5z" />
    <glyph glyph-name="AEacute" unicode="&#x1fc;" horiz-adv-x="1134" 
d="M678 960h54l-124 -151h-38zM609 353v-317h454v-36h-494v224h-347l-142 -224h-43l452 712h558v-36h-438v-287h408v-36h-408zM510 678l-266 -420h325v420h-59z" />
    <glyph glyph-name="aeacute" unicode="&#x1fd;" horiz-adv-x="944" 
d="M534 764h54l-124 -151h-38zM888 280v-22h-418v-3q0 -108 52.5 -170.5t143.5 -62.5q69 0 113.5 35t63.5 93l36 -6q-21 -70 -77 -113t-137 -43q-76 0 -131 39t-80 110q-24 -72 -79.5 -110.5t-136.5 -38.5q-85 0 -132 41.5t-47 109.5q0 69 47.5 109.5t135.5 40.5h190v79
q0 61 -40.5 94t-118.5 33q-73 0 -109 -29.5t-43 -91.5h-40q14 155 195 155q163 0 188 -119q58 118 197 118q104 0 166 -68q61 -68 61 -180zM661 494q-83 0 -134 -54.5t-56 -150.5h380q-5 95 -55 150t-135 55zM241 21q86 0 138 49.5t53 139.5v48l-193 -2q-68 -1 -104.5 -32
t-36.5 -85t37.5 -86t105.5 -32z" />
    <glyph glyph-name="Oslashacute" unicode="&#x1fe;" horiz-adv-x="811" 
d="M465 960h54l-124 -151h-38zM727 697l-74 -85q82 -98 82 -256q0 -162 -90 -266t-240 -104q-133 0 -222 86l-67 -77l-24 19l70 80q-86 104 -86 262q0 162 90 266q90 102 239 102q138 0 227 -89l72 82zM117 356q0 -140 71 -232l419 482q-76 82 -202 82q-131 0 -209 -91
q-79 -91 -79 -241zM405 23q131 0 211 92q78 91 78 241q0 138 -67 226l-419 -481q80 -78 197 -78z" />
    <glyph glyph-name="oslashacute" unicode="&#x1ff;" horiz-adv-x="588" 
d="M357 769h54l-124 -151h-38zM521 510l-50 -60q61 -71 61 -191q0 -123 -66 -196q-66 -75 -172 -75q-95 0 -157 58l-48 -58l-23 18l51 62q-60 74 -60 190q0 124 66 197q64 73 172 73q95 0 156 -57l47 57zM97 258q0 -100 45 -161l285 346q-51 51 -133 51q-90 0 -143.5 -63.5
t-53.5 -172.5zM294 22q90 0 144 64t54 173q0 99 -45 161l-286 -345q51 -53 133 -53z" />
    <glyph glyph-name="uni0218" unicode="&#x218;" horiz-adv-x="666" 
d="M279 401l140 -29q186 -38 186 -185q0 -94 -68.5 -147t-195.5 -53q-259 0 -281 228h39q21 -194 243 -194q107 0 165.5 43.5t58.5 121.5q0 61 -39 97.5t-122 53.5l-132 26q-187 37 -187 175q0 87 65 137t179 50t182 -53t73 -148h-39q-4 80 -61.5 123.5t-155.5 43.5
q-96 0 -150 -40t-54 -110q0 -109 154 -140zM352 -131l-42 -4v51h63v-100q0 -46 -45 -46h-18v21h17q25 0 25 23v55z" />
    <glyph glyph-name="uni0219" unicode="&#x219;" horiz-adv-x="523" 
d="M233 291l85 -14q149 -26 149 -138q0 -71 -53.5 -111t-147.5 -40q-96 0 -149.5 43.5t-58.5 125.5h38q10 -136 171 -136q76 0 118.5 30.5t42.5 84.5q0 87 -117 105l-87 15q-77 13 -114.5 43.5t-37.5 86.5q0 66 49.5 102.5t134.5 36.5q87 0 139.5 -40t58.5 -112h-40
q-5 57 -46.5 88t-112.5 31q-67 0 -106.5 -27.5t-39.5 -76.5q0 -41 29.5 -63t94.5 -34zM276 -127l-42 -4v51h63v-100q0 -46 -45 -46h-18v21h17q25 0 25 23v55z" />
    <glyph glyph-name="uni021A" unicode="&#x21a;" horiz-adv-x="647" 
d="M48 676v36h551v-36h-256v-676h-40v676h-255zM335 -125l-42 -4v51h63v-100q0 -46 -45 -46h-18v21h17q25 0 25 23v55z" />
    <glyph glyph-name="uni021B" unicode="&#x21b;" horiz-adv-x="331" 
d="M301 483l-137 2v-372q0 -41 17.5 -59.5t56.5 -18.5h62v-35h-71q-105 0 -105 108v377l-97 -2v33l97 -2v152h40v-152l137 2v-33zM159 -118l-42 -4v51h63v-100q0 -46 -45 -46h-18v21h17q25 0 25 23v55z" />
    <glyph glyph-name="uni0237" unicode="&#x237;" horiz-adv-x="220" 
d="M-1 -204h-25v35h25q47 0 69 22t22 70v593h40v-588q0 -132 -131 -132z" />
    <glyph glyph-name="uni0259" unicode="&#x259;" horiz-adv-x="570" 
d="M279 528q109 0 172 -74q62 -76 62 -199q0 -121 -62 -194q-61 -73 -168 -73q-105 0 -166 69q-61 68 -61 179v22h417v3q0 108 -52 170.5t-143 62.5q-69 0 -113.5 -35t-63.5 -93l-36 6q20 69 76 112.5t138 43.5zM282 22q83 0 134 54.5t56 150.5h-379q5 -95 54.5 -150
t134.5 -55z" />
    <glyph glyph-name="h.sups" unicode="&#x2b0;" horiz-adv-x="483" 
d="M261 720q63 0 98 -33t35 -96v-219h-35v213q0 51 -28 77.5t-79 26.5q-59 0 -93.5 -35t-34.5 -99v-183h-34v470h34v-206q34 84 137 84z" />
    <glyph glyph-name="r.sups" unicode="&#x2b3;" horiz-adv-x="308" 
d="M253 716h34v-32h-34q-61 0 -95 -35.5t-34 -105.5v-171h-34v340h32l1 -81q29 85 130 85z" />
    <glyph glyph-name="circumflex" unicode="&#x2c6;" horiz-adv-x="500" 
d="M140 604h-44l133 160h42l133 -160h-44l-110 134z" />
    <glyph glyph-name="caron" unicode="&#x2c7;" horiz-adv-x="500" 
d="M271 603h-42l-133 160h44l110 -133l110 133h44z" />
    <glyph glyph-name="uni02C9" unicode="&#x2c9;" horiz-adv-x="500" 
d="M398 648h-296v32h296v-32z" />
    <glyph glyph-name="breve" unicode="&#x2d8;" horiz-adv-x="500" 
d="M380 751h29q-8 -131 -159 -131t-159 131h29q6 -102 130 -102t130 102z" />
    <glyph glyph-name="dotaccent" unicode="&#x2d9;" horiz-adv-x="500" 
d="M277 641h-53v72h53v-72z" />
    <glyph glyph-name="ring" unicode="&#x2da;" horiz-adv-x="500" 
d="M334 627q-33 -33 -84 -33t-84 33t-33 83t33 84q33 33 84 33t84 -33q33 -34 33 -84t-33 -83zM189 648q27 -23 61 -24t61.5 24t24.5 62q0 40 -24 63.5t-62 23.5t-62 -23.5t-24 -63.5q0 -38 25 -62z" />
    <glyph glyph-name="ogonek" unicode="&#x2db;" horiz-adv-x="500" 
d="M329 -201h-43q-53 0 -80 21.5t-27 61.5q0 58 74 96l63 32l29 -10l-72 -39q-57 -31 -57 -73q0 -58 77 -58h36v-31z" />
    <glyph glyph-name="tilde" unicode="&#x2dc;" horiz-adv-x="500" 
d="M97 635h-32q4 151 99 151q30 0 54.5 -17t38.5 -42q34 -60 80 -60q61 0 66 119h32q-4 -151 -99 -151q-30 0 -54.5 17.5t-37.5 42.5q-14 25 -35.5 42t-44.5 17q-62 0 -67 -119z" />
    <glyph glyph-name="hungarumlaut" unicode="&#x2dd;" horiz-adv-x="500" 
d="M121 602h-37l104 164h47zM300 602h-37l116 164h47z" />
    <glyph glyph-name="s.sups" unicode="&#x2e2;" horiz-adv-x="429" 
d="M220 363q-148 0 -164 106l33 3q10 -81 133 -81q120 0 120 72q0 54 -90 63l-76 9q-108 12 -108 88q0 46 37 71t103 25q67 0 107 -25.5t48 -72.5l-32 -3q-13 73 -124 73q-51 0 -79.5 -17.5t-28.5 -49.5q0 -48 80 -59l83 -10q59 -7 85.5 -28.5t26.5 -60.5q0 -50 -40.5 -76.5
t-113.5 -26.5z" />
    <glyph glyph-name="gravecomb" unicode="&#x300;" horiz-adv-x="0" 
d="M44 613h-38l-125 151h54z" />
    <glyph glyph-name="acutecomb" unicode="&#x301;" horiz-adv-x="0" 
d="M-8 613h-38l108 151h54z" />
    <glyph glyph-name="uni0302" unicode="&#x302;" horiz-adv-x="0" 
d="M-110 604h-44l133 160h42l133 -160h-44l-110 134z" />
    <glyph glyph-name="tildecomb" unicode="&#x303;" horiz-adv-x="0" 
d="M-153 635h-32q4 151 99 151q30 0 54.5 -17t38.5 -42q34 -60 80 -60q61 0 66 119h32q-4 -151 -99 -151q-59 0 -93 60q-13 25 -34.5 42t-44.5 17q-62 0 -67 -119z" />
    <glyph glyph-name="uni0304" unicode="&#x304;" horiz-adv-x="0" 
d="M148 648h-296v32h296v-32z" />
    <glyph glyph-name="uni0306" unicode="&#x306;" horiz-adv-x="0" 
d="M130 751h29q-8 -131 -159 -131t-159 131h29q6 -102 130 -102t130 102z" />
    <glyph glyph-name="uni0307" unicode="&#x307;" horiz-adv-x="0" 
d="M27 641h-54v72h54v-72z" />
    <glyph glyph-name="uni0308" unicode="&#x308;" horiz-adv-x="0" 
d="M-73 641h-53v72h53v-72zM126 641h-53v72h53v-72z" />
    <glyph glyph-name="uni030A" unicode="&#x30a;" horiz-adv-x="0" 
d="M84 627q-33 -33 -84 -33t-84 33t-33 83t33 84q33 33 84 33t84 -33q33 -34 33 -84t-33 -83zM-62 648q38 -39 95 -17t53 79q0 40 -24 63.5t-62 23.5t-62 -23.5t-24 -63.5q0 -38 24 -62z" />
    <glyph glyph-name="uni030B" unicode="&#x30b;" horiz-adv-x="0" 
d="M-90 602h-37l104 164h47zM89 602h-37l116 164h47z" />
    <glyph glyph-name="uni030C" unicode="&#x30c;" horiz-adv-x="0" 
d="M21 603h-42l-133 160h44l110 -133l110 133h44z" />
    <glyph glyph-name="uni0312" unicode="&#x312;" horiz-adv-x="0" 
d="M31 759h-17q-24 0 -24 -23v-47l41 4v-51h-62v92q0 46 44 46h18v-21z" />
    <glyph glyph-name="uni0313" unicode="&#x313;" horiz-adv-x="0" 
d="M-31 730v50h62v-91q0 -47 -44 -47h-18v22h17q24 0 24 23v47z" />
    <glyph glyph-name="dotbelowcomb" unicode="&#x323;" horiz-adv-x="0" 
d="M27 -180h-54v72h54v-72z" />
    <glyph glyph-name="uni0324" unicode="&#x324;" horiz-adv-x="0" 
d="M-73 -177h-53v72h53v-72zM126 -177h-53v72h53v-72z" />
    <glyph glyph-name="uni0325" unicode="&#x325;" horiz-adv-x="0" 
d="M84 -278q-33 -33 -84 -33t-84 33q-33 34 -33 84t33 83t84 33t84 -33t33 -83t-33 -84zM-62 -257q28 -23 62 -24t61.5 24t24.5 63q0 38 -24.5 62t-61.5 24t-61.5 -24t-24.5 -62q0 -39 24 -63z" />
    <glyph glyph-name="uni0326" unicode="&#x326;" horiz-adv-x="0" 
d="M-32 -129v51h63v-100q0 -46 -45 -46h-18v21h17q25 0 25 23v55z" />
    <glyph glyph-name="uni0327" unicode="&#x327;" horiz-adv-x="0" 
d="M-18 -223h-37v27h34q85 0 85 54q0 46 -63 46h-43l-14 23l45 73h28l-41 -67h30q90 0 90 -74q0 -39 -30 -60.5t-84 -21.5z" />
    <glyph glyph-name="uni0328" unicode="&#x328;" horiz-adv-x="0" 
d="M-16 -201h-43q-53 0 -80 21.5t-27 61.5q0 58 74 96l63 32l29 -10l-73 -39q-56 -32 -56 -73q0 -58 77 -58h36v-31z" />
    <glyph glyph-name="uni032E" unicode="&#x32e;" horiz-adv-x="0" 
d="M130 -93h29q-8 -131 -159 -131t-159 131h29q6 -102 130 -102t130 102z" />
    <glyph glyph-name="uni0331" unicode="&#x331;" horiz-adv-x="0" 
d="M148 -164h-296v32h296v-32z" />
    <glyph glyph-name="uni0335" unicode="&#x335;" horiz-adv-x="0" 
d="M-138 358l-138 -2v33l138 -2l137 2v-33z" />
    <glyph glyph-name="uni0337" unicode="&#x337;" horiz-adv-x="0" 
d="M238 516l-453 -521l-23 19l453 522z" />
    <glyph glyph-name="uni0338" unicode="&#x338;" horiz-adv-x="0" 
d="M318 697l-612 -702l-24 19l612 703z" />
    <glyph glyph-name="uni0394" unicode="&#x394;" horiz-adv-x="716" 
d="M338 715h42l300 -715h-643zM348 641l-253 -605h525l-249 605l-11 34z" />
    <glyph glyph-name="uni03A9" unicode="&#x3a9;" horiz-adv-x="813" 
d="M356 0h-280v36h218v2q-100 55 -155 142t-55 201q0 158 89 252q89 92 233 92t233 -92q87 -91 87 -252q0 -114 -54 -201t-153 -142v-2h218v-36h-279v32q227 119 227 349q0 143 -75 226q-76 81 -204 81t-204 -82q-77 -83 -77 -225q0 -231 231 -349v-32z" />
    <glyph glyph-name="uni03BC" unicode="&#x3bc;" horiz-adv-x="586" 
d="M130 -204h-40v720h40v-335q0 -76 37 -117t109 -41q83 0 131.5 54t48.5 158v281h40v-516h-39l2 119q-48 -131 -188 -131q-107 0 -147 84l-2 -1l8 -163v-112z" />
    <glyph glyph-name="pi" unicode="&#x3c0;" horiz-adv-x="641" 
d="M611 516v-38h-134v-351q0 -51 20 -72t69 -21h15v-34h-21q-65 0 -94 30t-29 98v350h-249v-478h-40v478h-121v38h584z" />
    <glyph glyph-name="d.sups" unicode="&#x1d48;" horiz-adv-x="485" 
d="M361 639v203h34v-470h-29l-3 81q-18 -41 -55.5 -65t-87.5 -24q-75 0 -119 49.5t-44 131.5q0 81 44 128t119 47q50 0 86.5 -21.5t54.5 -59.5zM227 392q62 0 99 40.5t37 109.5q0 71 -37.5 110.5t-101.5 39.5q-62 0 -98 -39t-36 -108q0 -72 36 -112.5t101 -40.5z" />
    <glyph glyph-name="t.sups" unicode="&#x1d57;" horiz-adv-x="280" 
d="M250 712v-29h-100v-229q0 -54 57 -54h42v-28h-51q-42 0 -61.5 18.5t-19.5 59.5v233h-90v29l90 -1v101h33v-101z" />
    <glyph glyph-name="Wgrave" unicode="&#x1e80;" horiz-adv-x="941" 
d="M405 960l109 -151h-38l-125 151h54zM703 173l161 539h41l-214 -716h-37l-185 666l-184 -666h-38l-210 716h41l158 -539l31 -120l30 120l151 539h43l150 -539l31 -120z" />
    <glyph glyph-name="wgrave" unicode="&#x1e81;" horiz-adv-x="766" 
d="M316 764l109 -151h-38l-125 151h54zM564 129l122 387h42l-169 -516h-39l-118 399l-18 81l-20 -81l-119 -399h-40l-167 516h43l121 -387l23 -85l22 85l116 387h41l116 -387l21 -83z" />
    <glyph glyph-name="Wacute" unicode="&#x1e82;" horiz-adv-x="941" 
d="M532 960h54l-124 -151h-38zM703 173l161 539h41l-214 -716h-37l-185 666l-184 -666h-38l-210 716h41l158 -539l31 -120l30 120l151 539h43l150 -539l31 -120z" />
    <glyph glyph-name="wacute" unicode="&#x1e83;" horiz-adv-x="766" 
d="M443 764h54l-124 -151h-38zM564 129l122 387h42l-169 -516h-39l-118 399l-18 81l-20 -81l-119 -399h-40l-167 516h43l121 -387l23 -85l22 85l116 387h41l116 -387l21 -83z" />
    <glyph glyph-name="Wdieresis" unicode="&#x1e84;" horiz-adv-x="941" 
d="M345 889h53v-72h-53v72zM544 889h53v-72h-53v72zM703 173l161 539h41l-214 -716h-37l-185 666l-184 -666h-38l-210 716h41l158 -539l31 -120l30 120l151 539h43l150 -539l31 -120z" />
    <glyph glyph-name="wdieresis" unicode="&#x1e85;" horiz-adv-x="766" 
d="M256 713h53v-72h-53v72zM455 713h53v-72h-53v72zM564 129l122 387h42l-169 -516h-39l-118 399l-18 81l-20 -81l-119 -399h-40l-167 516h43l121 -387l23 -85l22 85l116 387h41l116 -387l21 -83z" />
    <glyph glyph-name="uni1E9E" unicode="&#x1e9e;" horiz-adv-x="686" 
d="M369 401h16q112 0 178.5 -54.5t66.5 -147.5q0 -99 -64 -154.5t-181 -55.5q-64 0 -133 15v36q68 -15 132 -15q101 0 153 44.5t52 129.5q0 78 -55 121.5t-152 43.5q-34 0 -64 -3v34l236 278q-77 11 -188 11q-118 0 -171.5 -53.5t-53.5 -160.5v-470h-40v470q0 250 265 250
q134 0 236 -16v-31z" />
    <glyph glyph-name="Ygrave" unicode="&#x1ef2;" horiz-adv-x="673" 
d="M271 960l109 -151h-38l-125 151h54zM601 712h46l-288 -424v-288h-41v288l-292 424h48l249 -365l16 -26l15 26z" />
    <glyph glyph-name="ygrave" unicode="&#x1ef3;" horiz-adv-x="543" 
d="M206 764l109 -151h-38l-125 151h54zM275 25l188 491h42l-248 -630q-20 -51 -49 -70.5t-86 -19.5h-36v35h33q47 0 69 15t39 58l32 81l-221 531h43l186 -455z" />
    <glyph glyph-name="thinspace" unicode="&#x2009;" horiz-adv-x="220" 
 />
    <glyph glyph-name="uni2011" unicode="&#x2011;" horiz-adv-x="377" 
d="M329 231h-280v37h280v-37z" />
    <glyph glyph-name="endash" unicode="&#x2013;" horiz-adv-x="532" 
d="M484 231h-435v37h435v-37z" />
    <glyph glyph-name="emdash" unicode="&#x2014;" horiz-adv-x="826" 
d="M778 231h-729v37h729v-37z" />
    <glyph glyph-name="quoteleft" unicode="&#x2018;" horiz-adv-x="172" 
d="M127 506h-73v140q0 68 65 68h8v-25h-9q-38 0 -38 -38v-87l47 5v-63z" />
    <glyph glyph-name="quoteright" unicode="&#x2019;" horiz-adv-x="172" 
d="M54 504h-8v25h8q38 0 38 38v87l-47 -5v63h73v-140q0 -68 -64 -68z" />
    <glyph glyph-name="quotesinglbase" unicode="&#x201a;" horiz-adv-x="255" 
d="M100 -147h-9v25h9q38 0 38 38v87l-47 -5v63h73v-140q0 -68 -64 -68z" />
    <glyph glyph-name="quotedblleft" unicode="&#x201c;" horiz-adv-x="316" 
d="M271 507h-73v140q0 67 64 67h8v-25h-8q-38 0 -38 -38v-87l47 5v-62zM127 505h-73v140q0 68 65 68h8v-25h-9q-38 0 -38 -38v-87l47 5v-63z" />
    <glyph glyph-name="quotedblright" unicode="&#x201d;" horiz-adv-x="316" 
d="M54 504h-8v25h8q38 0 38 38v87l-47 -5v63h73v-140q0 -68 -64 -68zM198 504h-9v25h9q38 0 38 38v87l-47 -5v63h73v-140q0 -68 -64 -68z" />
    <glyph glyph-name="quotedblbase" unicode="&#x201e;" horiz-adv-x="398" 
d="M100 -147h-9v26h9q38 0 38 38v86l-47 -5v63h73v-140q0 -68 -64 -68zM242 -147h-8v25h9q38 0 38 38v87l-47 -5v63h73v-140q0 -68 -65 -68z" />
    <glyph glyph-name="dagger" unicode="&#x2020;" horiz-adv-x="639" 
d="M339 574l199 1v-36l-199 2v-646h-39v646l-199 -2v36l199 -1v276h39v-276z" />
    <glyph glyph-name="daggerdbl" unicode="&#x2021;" horiz-adv-x="639" 
d="M538 575v-36l-199 2v-332l199 1v-36l-199 2v-281h-39v281l-199 -2v36l199 -1v332l-199 -2v36l199 -1v276h39v-276z" />
    <glyph glyph-name="bullet" unicode="&#x2022;" horiz-adv-x="332" 
d="M230 232h-129v110h129v-110z" />
    <glyph glyph-name="ellipsis" unicode="&#x2026;" horiz-adv-x="754" 
d="M164 0h-74v64h74v-64zM414 0h-74v64h74v-64zM664 0h-75v64h75v-64z" />
    <glyph glyph-name="perthousand" unicode="&#x2030;" horiz-adv-x="1714" 
d="M276 312q-175 0 -175 222q0 223 175 223q176 0 176 -223q0 -222 -176 -222zM403 -15h-41l448 742h40zM276 344q71 0 105 46.5t34 143.5q0 190 -139 190t-139 -190t139 -190zM965 -10q-176 0 -176 223t176 223q175 0 175 -223t-175 -223zM1613 213q0 -223 -176 -223
t-176 223t176 223t176 -223zM965 23q139 0 139 190t-139 190t-139 -190q0 -97 34 -143.5t105 -46.5zM1437 23q139 0 139 190t-139 190t-139 -190q0 -97 34 -143.5t105 -46.5z" />
    <glyph glyph-name="guilsinglleft" unicode="&#x2039;" horiz-adv-x="430" 
d="M340 37v-47l-250 244v46l250 244v-47l-224 -220z" />
    <glyph glyph-name="guilsinglright" unicode="&#x203a;" horiz-adv-x="430" 
d="M340 234l-250 -244v47l223 220l-223 220v47l250 -244v-46z" />
    <glyph glyph-name="uni203D" unicode="&#x203d;" horiz-adv-x="608" 
d="M300 720q107 0 169 -49t62 -139q0 -55 -25.5 -96.5t-83.5 -76.5l-35 -21q-50 -30 -65 -62q-16 -33 -17 -103v-3h-28l-6 269v109h40v-109l-3 -132q23 35 76 66q60 36 84.5 72.5t24.5 86.5q0 74 -52 114.5t-141 40.5q-96 0 -147 -47.5t-54 -137.5h-38q3 104 65 161t174 57z
M321 0h-59v59h59v-59z" />
    <glyph glyph-name="fraction" unicode="&#x2044;" horiz-adv-x="307" 
d="M-50 -15h-41l448 742h41z" />
    <glyph glyph-name="zero.sups" unicode="&#x2070;" horiz-adv-x="448" 
d="M400 585q0 -222 -176 -222t-176 222q0 223 176 223t176 -223zM224 395q139 0 139 190t-139 190t-139 -190q0 -97 34 -143.5t105 -46.5z" />
    <glyph glyph-name="four.sups" unicode="&#x2074;" horiz-adv-x="428" 
d="M315 372h-35v113l-243 -1v31l242 284h36v-286l76 1v-30l-76 1v-113zM278 755l-206 -241l208 -1v242h-2z" />
    <glyph glyph-name="five.sups" unicode="&#x2075;" horiz-adv-x="432" 
d="M214 360q-65 0 -107.5 27t-56.5 76l36 8q10 -37 44 -58.5t84 -21.5q62 0 97.5 30.5t35.5 81.5t-34.5 81.5t-94.5 30.5q-78 0 -116 -51l-40 8l44 227h248v-31h-223l-31 -168l2 -2q42 47 122 47q73 0 115.5 -38.5t42.5 -101.5q0 -65 -45.5 -105t-122.5 -40z" />
    <glyph glyph-name="six.sups" unicode="&#x2076;" horiz-adv-x="433" 
d="M224 363q-174 0 -174 209q0 115 44.5 175.5t130.5 60.5q56 0 94 -26.5t51 -72.5l-34 -9q-23 77 -111 77q-138 0 -141 -201q46 70 145 70q71 0 112.5 -37.5t41.5 -100.5q0 -65 -43.5 -105t-115.5 -40zM224 393q56 0 90 31.5t34 82.5t-33 80.5t-90 29.5q-52 0 -88 -24
t-49 -63q4 -67 40 -102t96 -35z" />
    <glyph glyph-name="seven.sups" unicode="&#x2077;" horiz-adv-x="372" 
d="M137 372h-36q16 241 200 396h-276v31h322v-29q-194 -158 -210 -398z" />
    <glyph glyph-name="eight.sups" unicode="&#x2078;" horiz-adv-x="448" 
d="M351 400q-49 -35 -127 -35t-127 35q-48 34 -48 93q0 41 27 70.5t75 39.5v2q-39 10 -61.5 35.5t-22.5 59.5q0 50 42.5 79t114.5 29t114.5 -29t42.5 -79q0 -34 -22.5 -59.5t-61.5 -35.5v-2q48 -10 75 -39t27 -71q0 -59 -48 -93zM134 638q32 -21 90 -21t90 21t32 59
q0 39 -32.5 60.5t-89.5 21.5t-89.5 -21.5t-32.5 -60.5q0 -38 32 -59zM122 422q37 -28 102 -28t102 28q37 27 37 73q0 45 -36.5 69t-102.5 24q-67 0 -103 -24.5t-36 -68.5q0 -46 37 -73z" />
    <glyph glyph-name="nine.sups" unicode="&#x2079;" horiz-adv-x="433" 
d="M209 363q-57 0 -95 26t-51 74l34 8q23 -77 111 -77q138 0 141 201q-45 -70 -145 -70q-71 0 -112.5 37.5t-41.5 100.5q0 65 43.5 105t115.5 40q174 0 174 -209q0 -115 -44 -175.5t-130 -60.5zM208 555q52 0 88 23.5t49 62.5q-4 67 -40 102t-96 35q-56 0 -90 -31t-34 -82
t33 -80.5t90 -29.5z" />
    <glyph glyph-name="plus.sups" unicode="&#x207a;" horiz-adv-x="537" 
d="M285 567h189v-29h-189v-166h-32v166h-188v29h188v167h32v-167z" />
    <glyph glyph-name="minus.sups" unicode="&#x207b;" horiz-adv-x="524" 
d="M460 537h-395v30h395v-30z" />
    <glyph glyph-name="parenleft.sups" unicode="&#x207d;" horiz-adv-x="287" 
d="M226 237h-35q-113 137 -113 311q0 181 113 317h35q-114 -137 -114 -317q0 -172 114 -311z" />
    <glyph glyph-name="parenright.sups" unicode="&#x207e;" horiz-adv-x="287" 
d="M96 237h-34q113 140 113 311q0 180 -113 317h34q113 -137 113 -317q0 -171 -113 -311z" />
    <glyph glyph-name="n.sups" unicode="&#x207f;" horiz-adv-x="483" 
d="M261 720q63 0 98 -33t35 -96v-219h-35v213q0 51 -28 77.5t-79 26.5q-59 0 -93.5 -35t-34.5 -99v-183h-34v340h33l1 -77q34 85 137 85z" />
    <glyph glyph-name="zero.subs" unicode="&#x2080;" horiz-adv-x="448" 
d="M400 39q0 -223 -176 -223t-176 223t176 223t176 -223zM224 -151q139 0 139 190t-139 190t-139 -190q0 -97 34 -143.5t105 -46.5z" />
    <glyph glyph-name="one.subs" unicode="&#x2081;" horiz-adv-x="307" 
d="M217 -174h-35v297h-137v29h86q27 0 40 9t14 31l1 61h31v-427z" />
    <glyph glyph-name="two.subs" unicode="&#x2082;" horiz-adv-x="460" 
d="M389 -174h-316q0 116 131 178l65 31q83 39 83 102q0 41 -31 67t-87 26q-116 0 -119 -113h-37q1 71 42 108t114 37q71 0 112.5 -35t41.5 -90q0 -43 -23.5 -73t-79.5 -56l-55 -27q-107 -51 -115 -123h274v-32z" />
    <glyph glyph-name="three.subs" unicode="&#x2083;" horiz-adv-x="433" 
d="M218 -184q-77 0 -122.5 36.5t-45.5 97.5h36q1 -48 35.5 -75.5t97.5 -27.5q60 0 94 25t34 71q0 42 -32.5 66.5t-89.5 24.5h-34v32h34q48 0 74.5 22t26.5 59q0 39 -31 61.5t-83 22.5q-54 0 -84.5 -24t-31.5 -69h-36q0 57 40.5 90.5t110.5 33.5q68 0 109.5 -30.5t41.5 -81.5
q0 -36 -20 -62t-56 -35v-1q43 -9 70 -39t27 -71q0 -57 -45 -91.5t-120 -34.5z" />
    <glyph glyph-name="four.subs" unicode="&#x2084;" horiz-adv-x="428" 
d="M315 -174h-35v113l-243 -1v31l242 284h36v-286l76 1v-30l-76 1v-113zM278 209l-206 -241l208 -1v242h-2z" />
    <glyph glyph-name="five.subs" unicode="&#x2085;" horiz-adv-x="432" 
d="M214 -186q-65 0 -107.5 27t-56.5 76l36 8q10 -37 44 -58.5t84 -21.5q62 0 97.5 30.5t35.5 81.5t-34.5 81.5t-94.5 30.5q-78 0 -116 -51l-40 8l44 227h248v-31h-223l-31 -168l2 -2q42 47 122 47q73 0 115.5 -38.5t42.5 -101.5q0 -65 -45.5 -105t-122.5 -40z" />
    <glyph glyph-name="six.subs" unicode="&#x2086;" horiz-adv-x="433" 
d="M224 -183q-174 0 -174 209q0 115 44.5 175.5t130.5 60.5q56 0 94 -26.5t51 -72.5l-34 -9q-23 77 -111 77q-138 0 -141 -201q46 70 145 70q71 0 112.5 -37.5t41.5 -100.5q0 -65 -43.5 -105t-115.5 -40zM224 -153q56 0 90 31.5t34 82.5t-33 80.5t-90 29.5q-52 0 -88 -24
t-49 -63q4 -67 40 -102t96 -35z" />
    <glyph glyph-name="seven.subs" unicode="&#x2087;" horiz-adv-x="372" 
d="M137 -174h-36q16 241 200 396h-276v31h322v-29q-194 -158 -210 -398z" />
    <glyph glyph-name="eight.subs" unicode="&#x2088;" horiz-adv-x="448" 
d="M351 -146q-49 -35 -127 -35t-127 35q-48 34 -48 93q0 41 27 70.5t75 39.5v2q-39 10 -61.5 35.5t-22.5 59.5q0 50 42.5 79t114.5 29t114.5 -29t42.5 -79q0 -34 -22.5 -59.5t-61.5 -35.5v-2q48 -10 75 -39t27 -71q0 -59 -48 -93zM134 92q32 -21 90 -21t90 21t32 59
q0 39 -32.5 60.5t-89.5 21.5t-89.5 -21.5t-32.5 -60.5q0 -38 32 -59zM122 -125q38 -27 102 -27t102 27q37 28 37 74q0 45 -36.5 69t-102.5 24q-67 0 -103 -24.5t-36 -68.5q0 -46 37 -74z" />
    <glyph glyph-name="nine.subs" unicode="&#x2089;" horiz-adv-x="433" 
d="M209 -183q-57 0 -95 26t-51 74l34 8q23 -77 111 -77q138 0 141 201q-45 -70 -145 -70q-71 0 -112.5 37.5t-41.5 100.5q0 65 43.5 105t115.5 40q174 0 174 -209q0 -115 -44 -175.5t-130 -60.5zM208 9q52 0 88 23.5t49 62.5q-4 67 -40 102t-96 35q-56 0 -90 -31t-34 -82
t33 -80.5t90 -29.5z" />
    <glyph glyph-name="plus.subs" unicode="&#x208a;" horiz-adv-x="537" 
d="M285 45h189v-29h-189v-166h-32v166h-188v29h188v167h32v-167z" />
    <glyph glyph-name="minus.subs" unicode="&#x208b;" horiz-adv-x="524" 
d="M460 15h-395v30h395v-30z" />
    <glyph glyph-name="equal.subs" unicode="&#x208c;" horiz-adv-x="524" 
d="M460 90h-395v30h395v-30zM460 -60h-395v31h395v-31z" />
    <glyph glyph-name="uni208D" unicode="&#x208d;" horiz-adv-x="287" 
d="M226 -309h-35q-113 137 -113 311q0 181 113 317h35q-114 -137 -114 -317q0 -172 114 -311z" />
    <glyph glyph-name="uni208E" unicode="&#x208e;" horiz-adv-x="287" 
d="M96 -309h-34q113 140 113 311q0 180 -113 317h34q113 -137 113 -317q0 -171 -113 -311z" />
    <glyph glyph-name="n.subs" unicode="&#x2099;" horiz-adv-x="483" 
d="M261 174q63 0 98 -33t35 -96v-219h-35v213q0 51 -28 77.5t-79 26.5q-59 0 -93.5 -35t-34.5 -99v-183h-34v340h33l1 -77q34 85 137 85z" />
    <glyph glyph-name="Euro" unicode="&#x20ac;" 
d="M458 684q-98 0 -163.5 -57t-88.5 -160h398v-36h-404q-5 -42 -5 -74q0 -44 4 -69h405v-36h-399q21 -106 87 -165.5t165 -59.5q78 0 147 32v-39q-64 -30 -147 -30q-117 0 -194 69t-100 193h-127v36h122q-4 25 -4 69q0 32 5 74h-123v36h129q24 120 100.5 186.5t190.5 66.5
q84 0 148 -30v-39q-69 33 -146 33z" />
    <glyph glyph-name="uni20B8" unicode="&#x20b8;" horiz-adv-x="647" 
d="M48 676v36h551v-36h-551zM303 522h-255v36h551v-36h-256v-522h-40v522z" />
    <glyph glyph-name="uni20B9" unicode="&#x20b9;" 
d="M52 712h536v-36h-281q90 -43 97 -142h184v-36h-184q-5 -61 -42.5 -103t-97.5 -55q53 -5 83 -33t48 -89l62 -218h-42l-60 209q-18 64 -52 88q-35 23 -111 23h-140v36h146q72 0 116 37.5t49 104.5h-311v36h311q-5 67 -49 104.5t-116 37.5h-146v36z" />
    <glyph glyph-name="uni20BA" unicode="&#x20ba;" 
d="M563 246h37q-7 -115 -88 -180q-80 -66 -203 -66h-125v261l-143 -75v39l143 75v150l-143 -75v39l143 75v223h40v-202l238 125v-40l-238 -124v-150l238 124v-39l-238 -124v-245h85q109 0 177 55.5t77 153.5z" />
    <glyph glyph-name="uni20BC" unicode="&#x20bc;" 
d="M341 525h4q120 0 174.5 -57t54.5 -181v-287h-40v289q0 108 -44 154t-149 48v-380h-40v380q-105 -2 -149.5 -48t-44.5 -154v-289h-40v287q0 126 53.5 182t175.5 56h5v187h40v-187z" />
    <glyph glyph-name="uni20BF" unicode="&#x20bf;" 
d="M598 193q0 -86 -53 -138t-141 -55v-144h-35v144h-128v-144h-35v144h-127v712h127v135h35v-135h126h2v135h35v-137q77 -9 119.5 -55.5t42.5 -116.5q0 -60 -33 -103t-94 -60q159 -31 159 -182zM361 676h-242v-287h239q80 0 123.5 39t43.5 105q0 65 -42.5 104t-121.5 39z
M119 36h273q75 0 120 41.5t45 115.5q0 76 -49.5 118t-138.5 42h-250v-317z" />
    <glyph glyph-name="uni2105" unicode="&#x2105;" horiz-adv-x="1197" 
d="M399 -15h-41l448 742h41zM272 365q-80 0 -125.5 48t-45.5 131q0 82 45.5 129t125.5 47q64 0 105 -30.5t51 -78.5l-33 -4q-21 83 -122 83q-66 0 -101.5 -38.5t-35.5 -108.5q0 -71 36 -109.5t101 -38.5q101 0 122 89l33 -4q-12 -54 -52.5 -84.5t-103.5 -30.5zM925 -10
q-76 0 -124 51q-49 50 -49 130q0 81 49 131q48 50 124 50q75 0 123 -51t48 -130t-48 -130t-123 -51zM925 21q61 0 98.5 41t37.5 109q0 69 -37.5 109.5t-98.5 40.5q-63 0 -101 -40.5t-38 -109.5q0 -68 38.5 -109t100.5 -41z" />
    <glyph glyph-name="uni2113" unicode="&#x2113;" horiz-adv-x="483" 
d="M397 85l25 -26q-58 -69 -148 -69q-64 0 -100.5 35.5t-36.5 100.5v102l-95 -43l-15 34l110 45v318q0 66 34.5 102t99.5 36q140 0 140 -182q0 -146 -101 -220q-49 -35 -133 -72v-119q0 -49 26.5 -75t73.5 -26q72 0 120 59zM272 685q-46 0 -70.5 -27.5t-24.5 -77.5v-299
q109 51 153 104t44 151q0 149 -102 149z" />
    <glyph glyph-name="uni2116" unicode="&#x2116;" horiz-adv-x="1197" 
d="M846 675q48 50 124 50t124 -50q47 -52 47 -131t-47 -129q-48 -51 -124 -51t-124 51q-49 49 -49 129q0 81 49 131zM143 712l458 -654v654h38v-712h-43l-457 653v-653h-38v712h42zM970 394q61 0 98.5 40.5t37.5 109.5t-37.5 110t-98.5 41q-62 0 -100 -41t-38 -110
q0 -68 38 -109t100 -41z" />
    <glyph glyph-name="uni2117" unicode="&#x2117;" horiz-adv-x="870" 
d="M177 619q100 103 258 103q159 0 259 -103t100 -262q0 -160 -100 -263q-101 -104 -259 -104q-157 0 -258 104t-101 263q0 158 101 262zM200 115q92 -95 235 -95q144 0 236 95q91 94 91 242q0 147 -91 241t-236 94q-144 0 -235 -94q-92 -95 -92 -241q0 -147 92 -242z
M324 547h146q57 0 90 -31t33 -83q0 -53 -33.5 -84t-91.5 -31h-113v-148h-31v377zM355 345h110q47 0 72 23t25 65q0 41 -25 63.5t-71 22.5h-111v-174z" />
    <glyph glyph-name="trademark" unicode="&#x2122;" horiz-adv-x="967" 
d="M216 330h-32v354h-127v28h288v-28h-129v-354zM495 330h-31v382h69l132 -362h11l131 362h70v-382h-32v362h-15l-130 -362h-59l-132 362h-14v-362z" />
    <glyph glyph-name="uni2126" unicode="&#x2126;" horiz-adv-x="813" 
d="M356 0h-280v36h218v2q-100 55 -155 142t-55 201q0 158 89 252q89 92 233 92t233 -92q87 -91 87 -252q0 -114 -54 -201t-153 -142v-2h218v-36h-279v32q227 119 227 349q0 143 -75 226q-76 81 -204 81t-204 -82q-77 -83 -77 -225q0 -231 231 -349v-32z" />
    <glyph glyph-name="estimated" unicode="&#x212e;" horiz-adv-x="901" 
d="M450 720q184 0 293 -109q108 -110 108 -269h-639q-14 0 -14 -13v-174q0 -31 16 -46q98 -96 236 -96q74 0 141 31t110 84h71q-44 -62 -127.5 -101t-194.5 -39q-180 0 -290 102q-111 102 -111 262q0 159 109 264q110 104 292 104zM450 693q-138 0 -236 -98q-16 -15 -16 -43
v-174q0 -13 14 -13h476q14 0 14 13v174q0 28 -16 43q-100 98 -236 98z" />
    <glyph glyph-name="uni2153" unicode="&#x2153;" horiz-adv-x="1117" 
d="M272 321h-35v297h-136v29h85q53 0 54 40l1 61h31v-427zM298 -15h-41l448 742h40zM852 -10q-78 0 -123.5 36.5t-45.5 97.5h36q1 -48 35.5 -75.5t97.5 -27.5q60 0 94 25t34 71q0 42 -32.5 66.5t-89.5 24.5h-34v32h34q48 0 74.5 22t26.5 59q0 39 -31 61.5t-83 22.5
q-54 0 -84.5 -24t-31.5 -69h-36q0 57 40.5 90.5t111.5 33.5q67 0 108.5 -30.5t41.5 -81.5q0 -36 -20 -62t-56 -35v-1q44 -9 70.5 -38.5t26.5 -71.5q0 -57 -44.5 -91.5t-119.5 -34.5z" />
    <glyph glyph-name="uni2154" unicode="&#x2154;" horiz-adv-x="1234" 
d="M416 321h-315q0 117 130 178l65 31q44 21 64 45t20 57q0 41 -31.5 67t-87.5 26q-116 0 -119 -113h-36q1 71 42 108t113 37q71 0 112.5 -35t41.5 -90q0 -43 -23.5 -73t-78.5 -56l-56 -27q-107 -51 -115 -123h274v-32zM415 -15h-41l448 742h40zM969 -10q-77 0 -123 36.5
t-46 97.5h36q1 -48 35.5 -75.5t97.5 -27.5q60 0 94 25t34 71q0 42 -32.5 66.5t-89.5 24.5h-34v32h34q48 0 74.5 22t26.5 59q0 39 -31 61.5t-83 22.5q-54 0 -84.5 -24t-31.5 -69h-35q0 57 40 90.5t111 33.5q67 0 108.5 -30.5t41.5 -81.5q0 -36 -20 -62t-56 -35v-1
q44 -9 70.5 -38.5t26.5 -71.5q0 -57 -44.5 -91.5t-119.5 -34.5z" />
    <glyph glyph-name="uni2155" unicode="&#x2155;" horiz-adv-x="1133" 
d="M272 321h-35v297h-136v29h85q53 0 54 40l1 61h31v-427zM298 -15h-41l448 742h40zM863 -12q-65 0 -107.5 27t-56.5 76l36 8q10 -37 44.5 -58.5t83.5 -21.5q62 0 97.5 30.5t35.5 81.5t-34.5 81.5t-94.5 30.5q-77 0 -116 -51l-40 8l44 227h248v-31h-223l-31 -168l2 -2
q42 47 122 47q73 0 115.5 -38.5t42.5 -101.5q0 -65 -45.5 -105t-122.5 -40z" />
    <glyph glyph-name="uni2156" unicode="&#x2156;" horiz-adv-x="1239" 
d="M416 321h-315q0 117 130 178l65 31q44 21 64 45t20 57q0 41 -31.5 67t-87.5 26q-116 0 -119 -113h-36q1 71 42 108t113 37q71 0 112.5 -35t41.5 -90q0 -43 -23.5 -73t-78.5 -56l-56 -27q-107 -51 -115 -123h274v-32zM405 -15h-41l448 742h40zM969 -12q-63 0 -106.5 27.5
t-56.5 75.5l36 8q10 -37 44 -58.5t84 -21.5q62 0 97 30.5t35 81.5t-34.5 81.5t-93.5 30.5q-78 0 -116 -51l-40 8l43 227h248v-31h-222l-31 -168l2 -2q42 47 122 47q73 0 115.5 -38.5t42.5 -101.5q0 -65 -46 -105t-123 -40z" />
    <glyph glyph-name="uni2157" unicode="&#x2157;" horiz-adv-x="1228" 
d="M269 312q-77 0 -122.5 36t-45.5 97h35q1 -48 35.5 -75.5t97.5 -27.5q61 0 94.5 25t33.5 71q0 42 -32 66.5t-89 24.5h-35v32h35q47 0 74 22.5t27 58.5q0 39 -31.5 61.5t-83.5 22.5q-54 0 -84 -24t-31 -69h-36q0 57 40.5 90.5t110.5 33.5q67 0 108.5 -30.5t41.5 -81.5
q0 -36 -20 -62t-55 -35v-1q43 -9 69.5 -38.5t26.5 -71.5q0 -57 -44.5 -91t-119.5 -34zM393 -15h-41l448 742h40zM958 -12q-64 0 -107 27.5t-56 75.5l35 8q10 -37 44.5 -58.5t83.5 -21.5q62 0 97.5 30.5t35.5 81.5t-34.5 81.5t-94.5 30.5q-77 0 -116 -51l-40 8l44 227h248
v-31h-222l-31 -168l1 -2q42 47 122 47q74 0 116.5 -38.5t42.5 -101.5q0 -65 -46 -105t-123 -40z" />
    <glyph glyph-name="uni2158" unicode="&#x2158;" horiz-adv-x="1266" 
d="M379 321h-35v113l-243 -1v31l241 284h37v-286l75 1v-30l-75 1v-113zM431 -15h-41l448 742h40zM342 704l-207 -241l209 -1v242h-2zM996 -12q-64 0 -107 27.5t-56 75.5l35 8q10 -37 44.5 -58.5t83.5 -21.5q62 0 97.5 30.5t35.5 81.5t-34.5 81.5t-94.5 30.5q-77 0 -116 -51
l-40 8l44 227h248v-31h-222l-31 -168l1 -2q42 47 122 47q74 0 116.5 -38.5t42.5 -101.5q0 -65 -46 -105t-123 -40z" />
    <glyph glyph-name="uni2159" unicode="&#x2159;" horiz-adv-x="1101" 
d="M272 321h-35v297h-136v29h85q53 0 54 40l1 61h31v-427zM298 -15h-41l448 742h40zM841 -9q-174 0 -174 209q0 115 44.5 175.5t130.5 60.5q116 0 146 -99l-35 -9q-23 77 -111 77q-138 0 -141 -201q21 32 59 51t86 19q71 0 112.5 -37.5t41.5 -100.5q0 -66 -43.5 -105.5
t-115.5 -39.5zM841 21q57 0 90.5 31.5t33.5 82.5t-33 80.5t-90 29.5q-52 0 -88 -24t-49 -63q4 -67 40 -102t96 -35z" />
    <glyph glyph-name="uni215A" unicode="&#x215a;" horiz-adv-x="1190" 
d="M264 309q-64 0 -107 27.5t-56 75.5l35 8q10 -37 44.5 -58.5t83.5 -21.5q62 0 97.5 30.5t35.5 81.5t-34.5 81.5t-94.5 30.5q-77 0 -116 -51l-40 8l44 227h248v-31h-222l-31 -168l1 -2q42 47 122 47q73 0 116 -38.5t43 -101.5q0 -65 -46 -105t-123 -40zM386 -15h-41
l448 742h41zM930 -9q-174 0 -174 209q0 115 44 175.5t130 60.5q116 0 146 -99l-34 -9q-23 77 -111 77q-138 0 -141 -201q43 70 144 70q71 0 113 -37.5t42 -100.5q0 -65 -43.5 -105t-115.5 -40zM930 21q56 0 90 31.5t34 82.5t-33 80.5t-90 29.5q-52 0 -88 -24t-49 -63
q4 -67 40 -102t96 -35z" />
    <glyph glyph-name="oneeighth" unicode="&#x215b;" horiz-adv-x="1130" 
d="M272 321h-35v297h-136v29h85q53 0 54 40l1 61h31v-427zM298 -15h-41l448 742h40zM981 28q-49 -35 -127 -35t-127 35q-48 34 -48 93q0 41 27 70.5t75 39.5v2q-39 10 -61.5 35.5t-22.5 59.5q0 50 42.5 79t114.5 29q73 0 115.5 -29t42.5 -79q0 -34 -23 -59.5t-62 -35.5v-2
q48 -10 75 -39t27 -71q0 -59 -48 -93zM854 245q58 0 90 21t32 59q0 39 -32.5 60.5t-89.5 21.5t-89.5 -21.5t-32.5 -60.5q0 -38 32.5 -59t89.5 -21zM854 22q65 0 102 27.5t37 73.5q0 45 -36.5 69t-102.5 24t-102 -24.5t-36 -68.5q0 -46 37.5 -73.5t100.5 -27.5z" />
    <glyph glyph-name="threeeighths" unicode="&#x215c;" horiz-adv-x="1226" 
d="M269 312q-77 0 -122.5 36t-45.5 97h35q1 -48 35.5 -75.5t97.5 -27.5q61 0 94.5 25t33.5 71q0 42 -32 66.5t-89 24.5h-35v32h35q47 0 74 22.5t27 58.5q0 39 -31.5 61.5t-83.5 22.5q-54 0 -84 -24t-31 -69h-36q0 57 40.5 90.5t110.5 33.5q67 0 108.5 -30.5t41.5 -81.5
q0 -36 -20 -62t-55 -35v-1q43 -9 69.5 -38.5t26.5 -71.5q0 -57 -44.5 -91t-119.5 -34zM393 -15h-41l448 742h40zM949 -7q-79 0 -126.5 35t-47.5 93q0 42 27 71t75 39v2q-40 10 -62.5 35t-22.5 60q0 50 42.5 79t114.5 29q73 0 115.5 -29t42.5 -79q0 -34 -22 -59.5t-63 -35.5
v-2q49 -10 75.5 -39t26.5 -71q0 -58 -47.5 -93t-127.5 -35zM949 245q58 0 90 21t32 59q0 39 -32.5 60.5t-89.5 21.5t-89 -21.5t-32 -60.5q0 -38 32 -59t89 -21zM949 22q65 0 102 27.5t37 73.5q0 45 -36.5 69t-102.5 24t-102 -24.5t-36 -68.5q0 -46 37.5 -73.5t100.5 -27.5z
" />
    <glyph glyph-name="fiveeighths" unicode="&#x215d;" horiz-adv-x="1219" 
d="M264 309q-64 0 -107 27.5t-56 75.5l35 8q10 -37 44.5 -58.5t83.5 -21.5q62 0 97.5 30.5t35.5 81.5t-34.5 81.5t-94.5 30.5q-77 0 -116 -51l-40 8l44 227h248v-31h-222l-31 -168l1 -2q42 47 122 47q73 0 116 -38.5t43 -101.5q0 -65 -46 -105t-123 -40zM386 -15h-41
l448 742h41zM1070 28q-49 -35 -127 -35t-127 35q-48 34 -48 93q0 42 27 71t75 39v2q-40 10 -62 35t-22 60q0 50 42.5 79t114.5 29t114.5 -29t42.5 -79q0 -34 -22.5 -59.5t-61.5 -35.5v-2q48 -10 75 -39t27 -71q0 -59 -48 -93zM853 266q31 -21 90 -21t90 21q32 21 32 59
q0 39 -32.5 60.5t-89.5 21.5t-89.5 -21.5t-32.5 -60.5q0 -38 32 -59zM841 50q37 -28 102 -28t102 28q37 27 37 73q0 45 -36.5 69t-102.5 24q-67 0 -103 -24.5t-36 -68.5q0 -46 37 -73z" />
    <glyph glyph-name="seveneighths" unicode="&#x215e;" horiz-adv-x="1100" 
d="M213 321h-36q14 239 199 396h-275v31h322v-29q-195 -157 -210 -398zM268 -15h-41l448 742h40zM824 -7q-79 0 -126.5 35t-47.5 93q0 42 27 71t75 39v2q-40 10 -62.5 35t-22.5 60q0 50 42.5 79t114.5 29q73 0 115.5 -29t42.5 -79q0 -34 -22 -59.5t-63 -35.5v-2
q49 -10 75.5 -39t26.5 -71q0 -58 -47.5 -93t-127.5 -35zM824 245q58 0 90 21t32 59q0 39 -32.5 60.5t-89.5 21.5t-89.5 -21.5t-32.5 -60.5q0 -38 32.5 -59t89.5 -21zM824 22q65 0 102 27.5t37 73.5q0 45 -36.5 69t-102.5 24t-102 -24.5t-36 -68.5q0 -46 37.5 -73.5
t100.5 -27.5z" />
    <glyph glyph-name="arrowleft" unicode="&#x2190;" horiz-adv-x="877" 
d="M136 376h665v-40h-665l131 -170l126 -166h-48l-269 356l269 356h48l-126 -166z" />
    <glyph glyph-name="arrowup" unicode="&#x2191;" horiz-adv-x="851" 
d="M70 456l356 269l356 -269v-47l-166 125l-170 131v-665h-40v667l-171 -133l-165 -125v47z" />
    <glyph glyph-name="arrowright" unicode="&#x2192;" horiz-adv-x="877" 
d="M484 712h47l270 -356l-270 -356h-47l256 336h-664v40h664z" />
    <glyph glyph-name="arrowdown" unicode="&#x2193;" horiz-adv-x="851" 
d="M446 48l170 130l166 125v-47l-356 -269l-356 269v47l336 -256v665h40v-664z" />
    <glyph glyph-name="arrowboth" unicode="&#x2194;" horiz-adv-x="1184" 
d="M791 712h47l270 -356l-270 -356h-47l125 166l131 170h-911l131 -170l126 -166h-48l-269 356l269 356h48l-126 -166l-131 -170h911l-131 170z" />
    <glyph glyph-name="arrowupdn" unicode="&#x2195;" horiz-adv-x="851" 
d="M782 620l-166 125l-170 130v-943l336 256v-48l-356 -269l-356 269v48l336 -257v945l-336 -256v47l356 269l356 -269v-47z" />
    <glyph glyph-name="uni2196" unicode="&#x2196;" horiz-adv-x="766" 
d="M132 630l601 -602l-28 -28l-601 603l2 -117v-472h-40v654h654v-40h-468z" />
    <glyph glyph-name="uni2197" unicode="&#x2197;" horiz-adv-x="766" 
d="M47 628v40h653v-654h-40v472l2 116l-601 -602l-28 28l602 602l-121 -2h-467z" />
    <glyph glyph-name="uni2198" unicode="&#x2198;" horiz-adv-x="766" 
d="M660 182v472h40v-654h-653v40h467l121 -2l-602 602l28 28l601 -602z" />
    <glyph glyph-name="uni2199" unicode="&#x2199;" horiz-adv-x="766" 
d="M733 640l-601 -602l120 2h468v-40h-654v654h40v-472l-2 -117l601 603z" />
    <glyph glyph-name="partialdiff" unicode="&#x2202;" horiz-adv-x="591" 
d="M275 719q240 0 240 -359q0 -181 -59 -274.5t-172 -93.5q-95 0 -151 62q-57 62 -57 161q0 101 56.5 160.5t150.5 59.5q125 0 192 -105v24q0 329 -202 329q-72 0 -141 -32l-14 33q78 35 157 35zM285 27q166 0 187 250q-59 123 -186 123q-78 0 -124 -50t-46 -134
q0 -85 46 -137t123 -52z" />
    <glyph glyph-name="uni2206" unicode="&#x2206;" horiz-adv-x="716" 
d="M338 715h42l300 -715h-643zM348 641l-253 -605h525l-249 605l-11 34z" />
    <glyph glyph-name="product" unicode="&#x220f;" horiz-adv-x="739" 
d="M101 712h537v-916h-41v878h-456v-878h-40v916z" />
    <glyph glyph-name="summation" unicode="&#x2211;" horiz-adv-x="678" 
d="M448 259l-321 -424h475v-39h-526v35l325 428l-313 418v35h503v-39h-452z" />
    <glyph glyph-name="minus" unicode="&#x2212;" 
d="M584 292h-529v36h529v-36z" />
    <glyph glyph-name="uni2215" unicode="&#x2215;" horiz-adv-x="307" 
d="M-50 -15h-41l448 742h41z" />
    <glyph glyph-name="uni2219" unicode="&#x2219;" horiz-adv-x="309" 
d="M219 232h-129v110h129v-110z" />
    <glyph glyph-name="radical" unicode="&#x221a;" 
d="M383 -204h-55l-135 359l-119 -47l-12 33l154 60l136 -368l214 914h39z" />
    <glyph glyph-name="infinity" unicode="&#x221e;" horiz-adv-x="805" 
d="M207 188q-69 0 -109.5 44t-40.5 114t41 114.5t108 44.5q54 0 100 -31.5t97 -103.5q52 73 97 104t98 31q69 0 110.5 -44t41.5 -114q0 -71 -41.5 -115.5t-110.5 -44.5q-54 0 -99.5 31t-95.5 102q-51 -72 -96.5 -102t-99.5 -30zM207 222q48 0 88.5 28.5t85.5 94.5
q-49 67 -89.5 96.5t-85.5 29.5q-52 0 -83.5 -35.5t-31.5 -89.5t31.5 -89t84.5 -35zM599 221q53 0 84.5 35t31.5 90t-32 90t-85 35q-45 0 -85 -29.5t-88 -96.5q44 -65 85 -94.5t89 -29.5z" />
    <glyph glyph-name="integral" unicode="&#x222b;" 
d="M206 -204h-22v35h21q49 0 72 23.5t23 78.5v673q0 74 32.5 107.5t101.5 33.5h22v-35h-21q-49 0 -72 -23.5t-23 -78.5v-673q0 -74 -32.5 -107.5t-101.5 -33.5z" />
    <glyph glyph-name="approxequal" unicode="&#x2248;" 
d="M109 348h-35q0 85 35 130.5t94 45.5q31 0 58 -14.5t46.5 -35t38.5 -41t42.5 -35t48.5 -14.5q43 0 68.5 37t25.5 103h35q0 -85 -35 -130.5t-94 -45.5q-31 0 -58 14.5t-46.5 35t-38.5 41.5t-42 35.5t-49 14.5q-43 0 -68.5 -37t-25.5 -104zM109 111h-35q0 85 35 130.5
t94 45.5q31 0 58 -14.5t46.5 -35.5t38.5 -41.5t42.5 -35t48.5 -14.5q43 0 68.5 37t25.5 104h35q0 -85 -35 -130.5t-94 -45.5q-31 0 -58 14.5t-46.5 35t-38.5 41t-42 35t-49 14.5q-43 0 -68.5 -37t-25.5 -103z" />
    <glyph glyph-name="notequal" unicode="&#x2260;" 
d="M584 437v-36h-206l-82 -183h288v-36h-304l-91 -204l-28 10l86 194h-192v36h209l81 183h-290v36h306l96 215l28 -10l-91 -205h190z" />
    <glyph glyph-name="lessequal" unicode="&#x2264;" 
d="M56 385l529 185v-40l-492 -167l492 -166v-40l-529 184v44zM585 22h-529v36h529v-36z" />
    <glyph glyph-name="greaterequal" unicode="&#x2265;" 
d="M56 530v40l529 -185v-44l-529 -184v40l492 166zM585 22h-529v36h529v-36z" />
    <glyph glyph-name="uni2460" unicode="&#x2460;" horiz-adv-x="1160" 
d="M941 31q-141 -140 -361 -140t-361 140q-143 140 -143 351q0 212 143 352q142 139 361 139t361 -139q143 -140 143 -352q0 -211 -143 -351zM580 -73q201 0 333 129q131 129 131 326t-131 326q-132 129 -333 129q-202 0 -333 -129q-132 -129 -132 -326t132 -326
q131 -129 333 -129zM622 167h-35v297h-136v29h85q53 0 54 40l1 61h31v-427z" />
    <glyph glyph-name="uni2461" unicode="&#x2461;" horiz-adv-x="1160" 
d="M941 31q-141 -140 -361 -140t-361 140q-143 140 -143 351q0 212 143 352q142 139 361 139t361 -139q143 -140 143 -352q0 -211 -143 -351zM580 -73q201 0 333 129q131 129 131 326t-131 326q-132 129 -333 129q-202 0 -333 -129q-132 -129 -132 -326t132 -326
q131 -129 333 -129zM742 182h-315q0 117 130 178l65 31q83 39 83 102q0 41 -31 67t-87 26q-116 0 -119 -113h-36q1 71 41.5 108t113.5 37q71 0 112.5 -35t41.5 -90q0 -43 -23.5 -73t-78.5 -56l-56 -27q-107 -51 -115 -123h274v-32z" />
    <glyph glyph-name="uni2462" unicode="&#x2462;" horiz-adv-x="1160" 
d="M941 31q-141 -140 -361 -140t-361 140q-143 140 -143 351q0 212 143 352q142 139 361 139t361 -139q143 -140 143 -352q0 -211 -143 -351zM580 -73q201 0 333 129q131 129 131 326t-131 326q-132 129 -333 129q-202 0 -333 -129q-132 -129 -132 -326t132 -326
q131 -129 333 -129zM590 164q-77 0 -122.5 36.5t-45.5 97.5h35q1 -48 35.5 -75.5t97.5 -27.5q60 0 94 25t34 71q0 42 -32 66.5t-89 24.5h-35v32h35q48 0 74.5 22t26.5 59q0 39 -31.5 61.5t-83.5 22.5q-54 0 -84.5 -24t-31.5 -69h-35q0 57 40 90.5t111 33.5q67 0 108.5 -30.5
t41.5 -81.5q0 -36 -20 -62t-55 -35v-1q43 -9 69.5 -38.5t26.5 -71.5q0 -57 -44.5 -91.5t-119.5 -34.5z" />
    <glyph glyph-name="uni2463" unicode="&#x2463;" horiz-adv-x="1160" 
d="M941 31q-141 -140 -361 -140t-361 140q-143 140 -143 351q0 212 143 352q142 139 361 139t361 -139q143 -140 143 -352q0 -211 -143 -351zM580 -73q201 0 333 129q131 129 131 326t-131 326q-132 129 -333 129q-202 0 -333 -129q-132 -129 -132 -326t132 -326
q131 -129 333 -129zM669 176h-35v113l-243 -1v31l241 284h37v-286l75 1v-30l-75 1v-113zM426 318l208 -1v242h-2z" />
    <glyph glyph-name="uni2464" unicode="&#x2464;" horiz-adv-x="1160" 
d="M941 31q-141 -140 -361 -140t-361 140q-143 140 -143 351q0 212 143 352q142 139 361 139t361 -139q143 -140 143 -352q0 -211 -143 -351zM580 -73q201 0 333 129q131 129 131 326t-131 326q-132 129 -333 129q-202 0 -333 -129q-132 -129 -132 -326t132 -326
q131 -129 333 -129zM583 166q-63 0 -106.5 27.5t-56.5 75.5l35 8q11 -37 45.5 -58.5t82.5 -21.5q62 0 97.5 30.5t35.5 81.5t-34.5 81.5t-94.5 30.5q-77 0 -116 -51l-39 8l43 227h248v-31h-222l-31 -168l1 -2q42 47 122 47q74 0 116.5 -38.5t42.5 -101.5q0 -65 -46 -105
t-123 -40z" />
    <glyph glyph-name="uni2465" unicode="&#x2465;" horiz-adv-x="1160" 
d="M941 31q-141 -140 -361 -140t-361 140q-143 140 -143 351q0 212 143 352q142 139 361 139t361 -139q143 -140 143 -352q0 -211 -143 -351zM580 -73q201 0 333 129q131 129 131 326t-131 326q-132 129 -333 129q-202 0 -333 -129q-132 -129 -132 -326t132 -326
q131 -129 333 -129zM593 169q-174 0 -174 209q0 115 44 175.5t130 60.5q118 0 146 -100l-34 -8q-23 77 -111 77q-138 0 -141 -201q43 70 145 70q70 0 112 -38t42 -100q0 -65 -43.5 -105t-115.5 -40zM593 199q56 0 90 31t34 82t-33 80.5t-90 29.5q-52 0 -88 -23.5t-49 -62.5
q4 -67 40 -102t96 -35z" />
    <glyph glyph-name="uni2466" unicode="&#x2466;" horiz-adv-x="1160" 
d="M941 31q-141 -140 -361 -140t-361 140q-143 140 -143 351q0 212 143 352q142 139 361 139t361 -139q143 -140 143 -352q0 -211 -143 -351zM580 -73q201 0 333 129q131 129 131 326t-131 326q-132 129 -333 129q-202 0 -333 -129q-132 -129 -132 -326t132 -326
q131 -129 333 -129zM550 156h-36q16 241 200 396h-276v31h322v-29q-195 -157 -210 -398z" />
    <glyph glyph-name="uni2467" unicode="&#x2467;" horiz-adv-x="1160" 
d="M941 31q-141 -140 -361 -140t-361 140q-143 140 -143 351q0 212 143 352q142 139 361 139t361 -139q143 -140 143 -352q0 -211 -143 -351zM580 -73q201 0 333 129q131 129 131 326t-131 326q-132 129 -333 129q-202 0 -333 -129q-132 -129 -132 -326t132 -326
q131 -129 333 -129zM707 202q-49 -35 -127 -35t-127 35q-48 34 -48 93q0 42 27 71t75 39v2q-40 10 -62.5 35t-22.5 60q0 50 42.5 79t115.5 29q72 0 114.5 -29t42.5 -79q0 -35 -22 -60t-62 -35v-2q48 -10 75 -39t27 -71q0 -59 -48 -93zM580 418q57 0 89.5 21.5t32.5 59.5
q0 39 -32.5 60.5t-89.5 21.5t-89.5 -21.5t-32.5 -60.5q0 -38 32 -59.5t90 -21.5zM580 196q63 0 100.5 27.5t37.5 72.5t-36 69.5t-102 24.5q-67 0 -103 -24.5t-36 -69.5t37 -72.5t102 -27.5z" />
    <glyph glyph-name="uni2468" unicode="&#x2468;" horiz-adv-x="1160" 
d="M941 31q-141 -140 -361 -140t-361 140q-143 140 -143 351q0 212 143 352q142 139 361 139t361 -139q143 -140 143 -352q0 -211 -143 -351zM580 -73q201 0 333 129q131 129 131 326t-131 326q-132 129 -333 129q-202 0 -333 -129q-132 -129 -132 -326t132 -326
q131 -129 333 -129zM578 162q-118 0 -146 99l35 9q23 -78 111 -78q138 0 141 201q-46 -70 -145 -70q-71 0 -112.5 37.5t-41.5 100.5q0 65 43.5 105t115.5 40q174 0 174 -209q0 -115 -44.5 -175t-130.5 -60zM578 353q52 0 88 23.5t49 62.5q-4 67 -40 102t-96 35
q-56 0 -90 -31t-34 -82t33 -80.5t90 -29.5z" />
    <glyph glyph-name="uni24EA" unicode="&#x24ea;" horiz-adv-x="1160" 
d="M941 31q-141 -140 -361 -140t-361 140q-143 140 -143 351q0 212 143 352q142 139 361 139t361 -139q143 -140 143 -352q0 -211 -143 -351zM580 -73q201 0 333 129q131 129 131 326t-131 326q-132 129 -333 129q-202 0 -333 -129q-132 -129 -132 -326t132 -326
q131 -129 333 -129zM756 387q0 -223 -176 -223t-176 223t176 223t176 -223zM580 197q139 0 139 190t-139 190t-139 -190q0 -97 34 -143.5t105 -46.5z" />
    <glyph glyph-name="uni24FF" unicode="&#x24ff;" horiz-adv-x="1160" 
d="M941 31q-141 -140 -361 -140t-361 140q-143 140 -143 351q0 212 143 352q142 139 361 139t361 -139q143 -140 143 -352q0 -211 -143 -351zM404 387q0 -223 176 -223t176 223t-176 223t-176 -223zM580 197q-71 0 -105 46.5t-34 143.5q0 190 139 190t139 -190t-139 -190z
" />
    <glyph glyph-name="filledbox" unicode="&#x25a0;" horiz-adv-x="1110" 
d="M1009 -88h-908v888h908v-888z" />
    <glyph glyph-name="uni25A1" unicode="&#x25a1;" horiz-adv-x="1110" 
d="M1009 -88h-908v888h908v-888zM140 764v-816h829v816h-829z" />
    <glyph glyph-name="lozenge" unicode="&#x25ca;" horiz-adv-x="546" 
d="M250 712h47l198 -356l-198 -356h-47l-199 356zM91 356l182 -331l181 331l-181 331z" />
    <glyph glyph-name="circle" unicode="&#x25cb;" horiz-adv-x="1160" 
d="M941 31q-141 -140 -361 -140t-361 140q-143 140 -143 351q0 212 143 352q142 139 361 139t361 -139q143 -140 143 -352q0 -211 -143 -351zM580 -73q201 0 333 129q131 129 131 326t-131 326q-132 129 -333 129q-202 0 -333 -129q-132 -129 -132 -326t132 -326
q131 -129 333 -129z" />
    <glyph glyph-name="uni25CF" unicode="&#x25cf;" horiz-adv-x="1160" 
d="M941 31q-141 -140 -361 -140t-361 140q-143 140 -143 351q0 212 143 352q142 139 361 139t361 -139q143 -140 143 -352q0 -211 -143 -351z" />
    <glyph glyph-name="uni2776" unicode="&#x2776;" horiz-adv-x="1160" 
d="M941 31q-141 -140 -361 -140t-361 140q-143 140 -143 351q0 212 143 352q142 139 361 139t361 -139q143 -140 143 -352q0 -211 -143 -351zM584 468v-297h35v427h-31l-1 -61q-1 -22 -14 -31t-40 -9h-86v-29h137z" />
    <glyph glyph-name="uni2777" unicode="&#x2777;" horiz-adv-x="1160" 
d="M219 734q142 139 361 139t361 -139q143 -140 143 -352q0 -211 -143 -351q-141 -140 -361 -140t-361 140q-143 140 -143 351q0 212 143 352zM427 182h315v32h-274q8 72 115 123l56 27q55 26 78.5 56t23.5 73q0 55 -41.5 90t-112.5 35q-72 0 -113 -37t-42 -108h36
q3 113 119 113q56 0 87 -26t31 -67q0 -63 -83 -102l-65 -31q-130 -61 -130 -178z" />
    <glyph glyph-name="uni2778" unicode="&#x2778;" horiz-adv-x="1160" 
d="M941 31q-141 -140 -361 -140t-361 140q-143 140 -143 351q0 212 143 352q142 139 361 139t361 -139q143 -140 143 -352q0 -211 -143 -351zM583 164q75 0 120 34.5t45 91.5q0 41 -27 71t-70 39v1q35 9 55.5 35.5t20.5 61.5q0 51 -41.5 81.5t-109.5 30.5
q-70 0 -110.5 -33.5t-40.5 -90.5h36q1 45 31.5 69t84.5 24q52 0 83 -22.5t31 -61.5q0 -37 -26.5 -59t-74.5 -22h-35v-32h35q57 0 89.5 -24.5t32.5 -66.5q0 -46 -34 -71t-94 -25q-63 0 -98 27.5t-35 75.5h-36q0 -61 45.5 -97.5t122.5 -36.5z" />
    <glyph glyph-name="uni2779" unicode="&#x2779;" horiz-adv-x="1160" 
d="M941 31q-141 -140 -361 -140t-361 140q-143 140 -143 351q0 212 143 352q142 139 361 139t361 -139q143 -140 143 -352q0 -211 -143 -351zM626 296v-113h35v113h75v29l-75 -1v286h-37l-241 -284v-30h243zM626 566v-242l-209 1l207 241h2z" />
    <glyph glyph-name="uni277A" unicode="&#x277a;" horiz-adv-x="1160" 
d="M219 734q142 139 361 139t361 -139q143 -140 143 -352q0 -211 -143 -351q-141 -140 -361 -140t-361 140q-143 140 -143 351q0 212 143 352zM584 165q77 0 123 40t46 105q0 63 -43 101.5t-116 38.5q-82 0 -122 -46l-1 1l31 168h222v31h-248l-44 -226l40 -9q39 51 116 51
q60 0 94.5 -30t34.5 -81t-35.5 -82t-97.5 -31q-48 0 -82.5 21.5t-45.5 58.5l-35 -8q13 -48 56.5 -75.5t106.5 -27.5z" />
    <glyph glyph-name="uni277B" unicode="&#x277b;" horiz-adv-x="1160" 
d="M941 31q-141 -140 -361 -140t-361 140q-143 140 -143 351q0 212 143 352q142 139 361 139t361 -139q143 -140 143 -352q0 -211 -143 -351zM592 169q72 0 115.5 39.5t43.5 105.5q0 63 -41.5 100.5t-112.5 37.5q-99 0 -145 -70q3 201 141 201q88 0 111 -77l35 8
q-28 100 -146 100q-86 0 -130.5 -60.5t-44.5 -175.5q0 -209 174 -209zM593 199q-61 0 -96.5 35t-39.5 102q12 38 48 62t88 24q57 0 90 -29.5t33 -80.5t-33.5 -82t-89.5 -31z" />
    <glyph glyph-name="uni277C" unicode="&#x277c;" horiz-adv-x="1160" 
d="M941 31q-141 -140 -361 -140t-361 140q-143 140 -143 351q0 212 143 352q142 139 361 139t361 -139q143 -140 143 -352q0 -211 -143 -351zM516 159h36q15 241 210 398v29h-322v-31h275q-184 -159 -199 -396z" />
    <glyph glyph-name="uni277D" unicode="&#x277d;" horiz-adv-x="1160" 
d="M941 31q-141 -140 -361 -140t-361 140q-143 140 -143 351q0 212 143 352q142 139 361 139t361 -139q143 -140 143 -352q0 -211 -143 -351zM453 202q49 -35 127 -35t127 35q48 34 48 93q0 42 -27 71t-75 39v2q40 10 62 35t22 60q0 50 -42.5 79t-114.5 29q-73 0 -115.5 -29
t-42.5 -79q0 -35 22.5 -60t62.5 -35v-2q-48 -10 -75 -39t-27 -71q0 -59 48 -93zM580 418q-58 0 -90 21.5t-32 59.5q0 39 32.5 60.5t89.5 21.5t89.5 -21.5t32.5 -60.5q0 -38 -32.5 -59.5t-89.5 -21.5zM580 196q-65 0 -102 27.5t-37 72.5t36 69.5t103 24.5q66 0 102 -24.5
t36 -69.5t-37.5 -72.5t-100.5 -27.5z" />
    <glyph glyph-name="uni277E" unicode="&#x277e;" horiz-adv-x="1160" 
d="M941 31q-141 -140 -361 -140t-361 140q-143 140 -143 351q0 212 143 352q142 139 361 139t361 -139q143 -140 143 -352q0 -211 -143 -351zM582 164q86 0 130 60t44 175q0 210 -174 210q-72 0 -115.5 -40.5t-43.5 -104.5q0 -63 42 -101t113 -38q47 0 85 19t59 51
q-3 -201 -141 -201q-89 0 -111 78l-34 -9q28 -99 146 -99zM581 355q-57 0 -90 29.5t-33 80.5t34 82t90 31q61 0 96.5 -34.5t39.5 -101.5q-13 -39 -49 -63t-88 -24z" />
    <glyph glyph-name="uni2E18" unicode="&#x2e18;" horiz-adv-x="608" 
d="M286 516h60v-59h-60v59zM508 14h39q-4 -104 -65.5 -161t-173.5 -57q-107 0 -169.5 49t-62.5 139q0 55 25.5 96.5t84.5 76.5l35 21q43 26 60 54q15 25 20 79l1 36h29l6 -270v-109h-41v109l3 131q-23 -33 -76 -65q-60 -36 -84.5 -72.5t-24.5 -86.5q0 -75 51.5 -115
t142.5 -40q95 0 146.5 48t53.5 137z" />
    <glyph glyph-name="uniF8FF" unicode="&#xf8ff;" horiz-adv-x="1011" 
d="M452 449v179q0 43 -19 62q-21 21 -58 21q-44 0 -70 -28.5t-26 -83.5v-150h-22v380h22v-161q27 63 99 63q46 0 72 -27q24 -26 24 -75v-180h-22zM849 829h21v-380h-21v380zM663 443q-57 0 -90.5 39.5t-33.5 105.5t32.5 104.5t89.5 38.5q56 0 89 -36.5t33 -96.5v-11h-223v-2
q0 -58 28 -91t76 -33q72 0 94 67l20 -1q-10 -37 -40.5 -60.5t-74.5 -23.5zM662 712q-45 0 -72 -29t-30 -80h202q-2 51 -28.5 80t-71.5 29zM785 137q-57 0 -91 39.5t-34 105.5q0 65 33 104t90 39q56 0 88.5 -36.5t32.5 -96.5v-11h-222v-2q0 -58 27.5 -91t76.5 -33q72 0 94 67
l20 -1q-10 -37 -40.5 -60.5t-74.5 -23.5zM539 201l86 217h21l-110 -275h-21l-112 275h23l86 -217q8 -17 14 -40q7 28 13 40zM783 406q-44 0 -71 -29t-30 -80h202q-2 51 -29 80t-72 29zM330 177h-25v37h25v-37zM174 189v-81l72 1v-17l-72 1v-199q0 -42 39 -42h33v-18h-38
q-56 0 -56 57v202l-51 -1v17l51 -1v81h22zM519 97q-49 0 -75 -32.5t-26 -92.5q0 -59 27 -92.5t74 -33.5q38 0 62 21.5t29 58.5h21q-6 -46 -35.5 -72t-77.5 -26q-56 0 -88.5 38t-32.5 105q0 68 32 106.5t90 38.5q47 0 76.5 -25.5t35.5 -66.5h-21q-4 32 -27.5 52.5t-63.5 20.5
zM910 -166h-21q-9 25 -11 57q-28 -63 -108 -63q-45 0 -69 20.5t-24 56.5q0 68 88 80l68 9q25 3 34.5 13t9.5 29v4q0 58 -82 58q-42 0 -61.5 -15.5t-23.5 -49.5h-21q8 83 107 83q49 0 75.5 -20.5t26.5 -57.5v-132q0 -28 12 -72zM328 -166h-21v275h21v-275zM774 -155
q42 0 69.5 22.5t33.5 64.5v61q-10 -10 -37 -15l-73 -10q-69 -12 -69 -62q0 -28 20 -44.5t56 -16.5z" />
    <glyph glyph-name="uniFEFF" unicode="&#xfeff;" horiz-adv-x="0" 
 />
    <glyph glyph-name="null" horiz-adv-x="0" 
 />
    <glyph glyph-name="Adieresis.ss01" horiz-adv-x="716" 
d="M288 827q-10 -10 -26 -10t-26 10t-10 26t10 26q10 9 26 9t26 -9q10 -10 10 -26t-10 -26zM480 827q-10 -10 -26 -10t-26 10t-10 26t10 26q10 9 26 9t26 -9q10 -10 10 -26t-10 -26zM680 0h-45l-95 231h-364l-96 -231h-43l300 714h43zM347 641l-156 -374h334l-155 374
l-11 35z" />
    <glyph glyph-name="Cdotaccent.ss01" horiz-adv-x="736" 
d="M416 827q-16 -17 -39.5 -7.5t-23.5 33.5q0 16 10 25.5t27 9.5q24 0 33.5 -22t-7.5 -39zM391 -14q-146 0 -230 104q-85 103 -85 267q0 166 86 267q85 100 228 100q115 0 195 -64q81 -65 94 -164h-41q-15 87 -82 139q-68 53 -165 53q-125 0 -199 -89q-75 -90 -75 -242
q0 -150 74 -242t201 -92q102 0 172 61q71 62 78 161h40q-11 -114 -91 -186q-80 -73 -200 -73z" />
    <glyph glyph-name="Edieresis.ss01" horiz-adv-x="666" 
d="M279 827q-10 -10 -26 -10t-26 10t-10 26t10 26q10 9 26 9t26 -9q10 -10 10 -26t-10 -26zM471 827q-10 -10 -26 -10t-26 10t-10 26t10 26q10 9 26 9t26 -9q10 -10 10 -26t-10 -26zM141 353v-317h454v-36h-494v712h478v-36h-438v-287h408v-36h-408z" />
    <glyph glyph-name="Edotaccent.ss01" horiz-adv-x="666" 
d="M376 827q-16 -17 -39.5 -7.5t-23.5 33.5q0 16 10 25.5t27 9.5q24 0 33.5 -22t-7.5 -39zM141 353v-317h454v-36h-494v712h478v-36h-438v-287h408v-36h-408z" />
    <glyph glyph-name="uni0122.ss01" horiz-adv-x="817" 
d="M413 323v36h303v-359h-32l-7 161q-33 -83 -104.5 -128.5t-170.5 -45.5q-150 0 -238 102q-88 101 -88 269q0 169 87 268t241 99q124 0 205 -59t100 -163l-39 -3q-16 85 -84 137t-180 52q-136 0 -213 -89q-76 -88 -76 -243q0 -151 76 -242q77 -92 210 -92q114 0 187 67
t86 185v48h-263zM405 -73q38 0 38 -44v-58q0 -49 -55 -49h-9v21h14q28 0 28 25v47q-6 -2 -16 -2q-33 0 -33 30t33 30z" />
    <glyph glyph-name="Gdotaccent.ss01" horiz-adv-x="817" 
d="M430 827q-16 -17 -39.5 -7.5t-23.5 33.5q0 16 10 25.5t27 9.5q24 0 33.5 -22t-7.5 -39zM413 323v36h303v-359h-32l-7 161q-33 -83 -104.5 -128.5t-170.5 -45.5q-150 0 -238 102q-88 101 -88 269q0 169 87 268t241 99q124 0 205 -59t100 -163l-39 -3q-16 85 -84 137
t-180 52q-136 0 -213 -89q-76 -88 -76 -243q0 -151 76 -242q77 -92 210 -92q114 0 187 67t86 185v48h-263z" />
    <glyph glyph-name="Idieresis.ss01" horiz-adv-x="242" 
d="M51 827q-10 -10 -26 -10t-26 10t-10 26t10 26q10 9 26 9t26 -9q10 -10 10 -26t-10 -26zM243 827q-10 -10 -26 -10t-26 10t-10 26t10 26q10 9 26 9t26 -9q10 -10 10 -26t-10 -26zM141 0h-40v712h40v-712z" />
    <glyph glyph-name="Idotaccent.ss01" horiz-adv-x="242" 
d="M148 827q-10 -10 -26.5 -10t-26.5 10t-10 26t10 26q10 9 26.5 9t26.5 -9q10 -10 10 -26t-10 -26zM141 0h-40v712h40v-712z" />
    <glyph glyph-name="uni0136.ss01" horiz-adv-x="704" 
d="M654 712l-312 -292l326 -420h-51l-304 394l-172 -161v-233h-40v712h40v-429l458 429h55zM353 -73q37 0 37 -44v-58q0 -49 -55 -49h-8v21h14q28 0 28 25v48q-5 -3 -16 -3q-33 0 -33 30t33 30z" />
    <glyph glyph-name="uni013B.ss01" horiz-adv-x="607" 
d="M141 712v-676h415v-36h-455v712h40zM328 -73q37 0 37 -44v-58q0 -49 -55 -49h-8v21h14q28 0 28 25v48q-4 -3 -16 -3q-33 0 -33 30t33 30z" />
    <glyph glyph-name="Ldot.ss01" horiz-adv-x="607" 
d="M141 712v-676h415v-36h-455v712h40zM387 344q-11 -10 -27 -10t-26 10t-10 26t10 26t26 10t27 -10t11 -26t-11 -26z" />
    <glyph glyph-name="uni0145.ss01" horiz-adv-x="741" 
d="M601 58v654h38v-712h-43l-457 653v-653h-38v712h42zM370 -73q37 0 37 -44v-58q0 -49 -55 -49h-8v21h14q28 0 28 25v48q-4 -3 -16 -3q-33 0 -33 30t33 30z" />
    <glyph glyph-name="Odieresis.ss01" horiz-adv-x="811" 
d="M334 827q-10 -10 -26 -10t-26 10t-10 26t10 26q10 9 26 9t26 -9q10 -10 10 -26t-10 -26zM526 827q-10 -10 -26 -10t-26 10t-10 26t10 26q10 9 26 9t26 -9q10 -10 10 -26t-10 -26zM405 -14q-149 0 -239 104t-90 266t90 266q90 102 239 102q150 0 240 -102q90 -104 90 -266
t-90 -266t-240 -104zM405 23q131 0 211 92q78 91 78 241q0 149 -78 241q-79 91 -211 91q-131 0 -209 -91q-79 -91 -79 -241q0 -149 79 -240q78 -93 209 -93z" />
    <glyph glyph-name="uni0156.ss01" horiz-adv-x="718" 
d="M603 202l24 -202h-41l-22 188q-7 66 -38 101q-36 39 -136 39h-249v-328h-40v712h315q95 0 151 -50t56 -136q0 -74 -39.5 -120.5t-109.5 -59.5q62 -9 92 -44t37 -100zM141 676v-311h254q89 0 138 41.5t49 116.5q0 73 -44.5 113t-126.5 40h-270zM365 -73q37 0 37 -44v-58
q0 -49 -55 -49h-8v21h14q28 0 28 25v48q-5 -3 -16 -3q-33 0 -33 30t33 30z" />
    <glyph glyph-name="uni0218.ss01" horiz-adv-x="666" 
d="M279 401l140 -29q186 -38 186 -185q0 -94 -68.5 -147t-195.5 -53q-259 0 -281 228h39q21 -194 243 -194q107 0 165.5 43.5t58.5 121.5q0 61 -39 97.5t-122 53.5l-132 26q-187 37 -187 175q0 87 65 137t179 50t182 -53t73 -148h-39q-4 80 -61.5 123.5t-155.5 43.5
q-96 0 -150 -40t-54 -110q0 -109 154 -140zM339 -79q37 0 37 -44v-58q0 -49 -55 -49h-8v21h14q28 0 28 25v48q-5 -3 -16 -3q-33 0 -33 30t33 30z" />
    <glyph glyph-name="uni021A.ss01" horiz-adv-x="647" 
d="M48 676v36h551v-36h-256v-676h-40v676h-255zM322 -73q37 0 37 -44v-58q0 -49 -55 -49h-8v21h14q28 0 28 25v48q-4 -3 -16 -3q-33 0 -33 30t33 30z" />
    <glyph glyph-name="Udieresis.ss01" horiz-adv-x="734" 
d="M297 827q-10 -10 -26 -10t-26 10t-10 26t10 26q10 9 26 9t26 -9q10 -10 10 -26t-10 -26zM489 827q-10 -10 -26 -10t-26 10t-10 26t10 26q10 9 26 9t26 -9q10 -10 10 -26t-10 -26zM367 -13q-127 0 -196.5 60.5t-69.5 185.5v479h40v-480q0 -209 226 -209q225 0 225 209v480
h40v-479q0 -124 -70 -185t-195 -61z" />
    <glyph glyph-name="Wdieresis.ss01" horiz-adv-x="941" 
d="M401 827q-10 -10 -26 -10t-26 10t-10 26t10 26q10 9 26 9t26 -9q10 -10 10 -26t-10 -26zM593 827q-10 -10 -26 -10t-26 10t-10 26t10 26q10 9 26 9t26 -9q10 -10 10 -26t-10 -26zM703 173l161 539h41l-214 -716h-37l-185 666l-184 -666h-38l-210 716h41l158 -539l31 -120
l30 120l151 539h43l150 -539l31 -120z" />
    <glyph glyph-name="Ydieresis.ss01" horiz-adv-x="673" 
d="M267 827q-10 -10 -26 -10t-26 10t-10 26t10 26q10 9 26 9t26 -9q10 -10 10 -26t-10 -26zM459 827q-10 -10 -26 -10t-26 10t-10 26t10 26q10 9 26 9t26 -9q10 -10 10 -26t-10 -26zM601 712h46l-288 -424v-288h-41v288l-292 424h48l249 -365l16 -26l15 26z" />
    <glyph glyph-name="Zdotaccent.ss01" horiz-adv-x="679" 
d="M366 827q-16 -17 -39.5 -7.5t-23.5 33.5q0 16 10 25.5t27 9.5q24 0 33.5 -22t-7.5 -39zM594 678l-477 -641h491v-37h-538v39l473 636h-447v37h498v-34z" />
    <glyph glyph-name="G.ss03" horiz-adv-x="799" 
d="M407 322v38h316v-20q0 -158 -83 -256q-82 -97 -232 -97q-152 0 -242 101q-90 100 -90 269t89 269q89 99 240 99q119 0 200 -62t105 -166h-41q-22 88 -92 140t-173 52q-131 0 -209 -87q-78 -88 -78 -245q0 -154 79 -243q78 -91 212 -91q127 0 198.5 79.5t76.5 219.5h-276z
" />
    <glyph glyph-name="uni01F4.ss03" horiz-adv-x="799" 
d="M466 961h54l-124 -151h-38zM407 322v38h316v-20q0 -158 -83 -256q-82 -97 -232 -97q-152 0 -242 101q-90 100 -90 269t89 269q89 99 240 99q119 0 200 -62t105 -166h-41q-22 88 -92 140t-173 52q-131 0 -209 -87q-78 -88 -78 -245q0 -154 79 -243q78 -91 212 -91
q127 0 198.5 79.5t76.5 219.5h-276z" />
    <glyph glyph-name="Gbreve.ss03" horiz-adv-x="799" 
d="M535 937h29q-8 -131 -159 -131t-159 131h29q6 -102 130 -102t130 102zM407 322v38h316v-20q0 -158 -83 -256q-82 -97 -232 -97q-152 0 -242 101q-90 100 -90 269t89 269q89 99 240 99q119 0 200 -62t105 -166h-41q-22 88 -92 140t-173 52q-131 0 -209 -87
q-78 -88 -78 -245q0 -154 79 -243q78 -91 212 -91q127 0 198.5 79.5t76.5 219.5h-276z" />
    <glyph glyph-name="Gcircumflex.ss03" horiz-adv-x="799" 
d="M515 801l-110 134l-110 -134h-44l133 160h42l133 -160h-44zM407 322v38h316v-20q0 -158 -83 -256q-82 -97 -232 -97q-152 0 -242 101q-90 100 -90 269t89 269q89 99 240 99q119 0 200 -62t105 -166h-41q-22 88 -92 140t-173 52q-131 0 -209 -87q-78 -88 -78 -245
q0 -154 79 -243q78 -91 212 -91q127 0 198.5 79.5t76.5 219.5h-276z" />
    <glyph glyph-name="uni0122.ss03" horiz-adv-x="799" 
d="M407 322v38h316v-20q0 -158 -83 -256q-82 -97 -232 -97q-152 0 -242 101q-90 100 -90 269t89 269q89 99 240 99q119 0 200 -62t105 -166h-41q-22 88 -92 140t-173 52q-131 0 -209 -87q-78 -88 -78 -245q0 -154 79 -243q78 -91 212 -91q127 0 198.5 79.5t76.5 219.5h-276z
M419 -125l-42 -4v51h63v-100q0 -46 -45 -46h-18v21h17q25 0 25 23v55z" />
    <glyph glyph-name="Gdotaccent.ss03" horiz-adv-x="799" 
d="M379 890h53v-72h-53v72zM407 322v38h316v-20q0 -158 -83 -256q-82 -97 -232 -97q-152 0 -242 101q-90 100 -90 269t89 269q89 99 240 99q119 0 200 -62t105 -166h-41q-22 88 -92 140t-173 52q-131 0 -209 -87q-78 -88 -78 -245q0 -154 79 -243q78 -91 212 -91
q127 0 198.5 79.5t76.5 219.5h-276z" />
    <glyph glyph-name="uni0122.ss01.ss03" horiz-adv-x="799" 
d="M407 322v38h316v-20q0 -158 -83 -256q-82 -97 -232 -97q-152 0 -242 101q-90 100 -90 269t89 269q89 99 240 99q119 0 200 -62t105 -166h-41q-22 88 -92 140t-173 52q-131 0 -209 -87q-78 -88 -78 -245q0 -154 79 -243q78 -91 212 -91q127 0 198.5 79.5t76.5 219.5h-276z
M407 -73q38 0 38 -44v-58q0 -49 -55 -49h-9v21h14q28 0 28 25v47q-6 -2 -15 -2q-34 0 -34 30t33 30z" />
    <glyph glyph-name="Gdotaccent.ss01.ss03" horiz-adv-x="799" 
d="M431 828q-17 -17 -40 -7.5t-23 33.5q0 16 10 25.5t27 9.5q24 0 33.5 -22t-7.5 -39zM407 322v38h316v-20q0 -158 -83 -256q-82 -97 -232 -97q-152 0 -242 101q-90 100 -90 269t89 269q89 99 240 99q119 0 200 -62t105 -166h-41q-22 88 -92 140t-173 52q-131 0 -209 -87
q-78 -88 -78 -245q0 -154 79 -243q78 -91 212 -91q127 0 198.5 79.5t76.5 219.5h-276z" />
    <glyph glyph-name="R.ss04" horiz-adv-x="667" 
d="M625 0h-45l-216 305h-223v-305h-40v712h283q102 0 161.5 -55t59.5 -149q0 -87 -52 -141t-144 -61zM384 677h-243v-337h243q84 0 132 45t48 123q0 79 -48 124t-132 45z" />
    <glyph glyph-name="Racute.ss04" horiz-adv-x="667" 
d="M387 960h54l-124 -151h-38zM625 0h-45l-216 305h-223v-305h-40v712h283q102 0 161.5 -55t59.5 -149q0 -87 -52 -141t-144 -61zM384 677h-243v-337h243q84 0 132 45t48 123q0 79 -48 124t-132 45z" />
    <glyph glyph-name="Rcaron.ss04" horiz-adv-x="667" 
d="M480 963l-133 -159h-42l-133 159h44l110 -133l110 133h44zM625 0h-45l-216 305h-223v-305h-40v712h283q102 0 161.5 -55t59.5 -149q0 -87 -52 -141t-144 -61zM384 677h-243v-337h243q84 0 132 45t48 123q0 79 -48 124t-132 45z" />
    <glyph glyph-name="uni0156.ss04" horiz-adv-x="667" 
d="M409 306l216 -306h-45l-216 305h-223v-305h-40v712h283q102 0 161.5 -55t59.5 -149q0 -87 -52 -141t-144 -61zM384 677h-243v-337h243q84 0 132 45t48 123q0 79 -48 124t-132 45zM337 -125l-42 -4v51h63v-100q0 -46 -45 -46h-18v21h17q25 0 25 23v55z" />
    <glyph glyph-name="uni0156.ss01.ss04" horiz-adv-x="667" 
d="M409 306l216 -306h-45l-216 305h-223v-305h-40v712h283q102 0 161.5 -55t59.5 -149q0 -87 -52 -141t-144 -61zM384 677h-243v-337h243q84 0 132 45t48 123q0 79 -48 124t-132 45zM324 -73q37 0 37 -44v-58q0 -49 -55 -49h-8v21h14q28 0 28 25v48q-5 -3 -16 -3
q-33 0 -33 30t33 30z" />
    <glyph glyph-name="i.loclTRK" horiz-adv-x="220" 
d="M134 642h-48v70h48v-70zM130 0h-40v516h40v-516z" />
    <glyph glyph-name="adieresis.ss01" horiz-adv-x="576" 
d="M212 649q-17 -18 -39.5 -8t-22.5 33q0 22 18 31t36 0t18 -31q0 -15 -10 -25zM404 649q-17 -18 -39.5 -8t-22.5 33q0 22 18 31t36 0t18 -31q0 -15 -10 -25zM547 32h15v-32h-23q-54 0 -77.5 26t-23.5 85l-1 3q-23 -61 -76 -93.5t-128 -32.5q-83 0 -128.5 39.5t-45.5 106.5
q0 128 163 149l129 18q47 6 64.5 24.5t17.5 53.5v7q0 52 -38.5 80.5t-115.5 28.5t-113.5 -29t-44.5 -92h-40q14 155 201 155q93 0 142 -38.5t49 -107.5v-264q0 -48 16 -67.5t58 -19.5zM239 20q80 0 131.5 43t62.5 121v115q-19 -20 -69 -28l-136 -20q-130 -19 -130 -116
q0 -52 37 -83.5t104 -31.5z" />
    <glyph glyph-name="cdotaccent.ss01" horiz-adv-x="545" 
d="M313 649q-18 -17 -40.5 -7.5t-22.5 32.5q0 16 10 26t26 10q17 0 27 -10t10 -26q0 -15 -10 -25zM285 -12q-106 0 -167 71.5t-61 197.5q0 127 61 199t169 72q89 0 144 -48t64 -125h-38q-9 62 -53 100.5t-117 38.5q-92 0 -141 -61.5t-49 -174.5q0 -111 50 -173.5t140 -62.5
q72 0 116 40t54 111h38q-11 -85 -66 -135t-144 -50z" />
    <glyph glyph-name="edieresis.ss01" horiz-adv-x="570" 
d="M217 649q-17 -18 -39.5 -8t-22.5 33q0 22 18 31t36 0t18 -31q0 -15 -10 -25zM409 649q-17 -18 -39.5 -8t-22.5 33q0 22 18 31t36 0t18 -31q0 -15 -10 -25zM514 280v-22h-417v-3q0 -108 52 -170.5t143 -62.5q69 0 113.5 35t63.5 93l36 -6q-20 -69 -76 -112.5t-138 -43.5
q-109 0 -171 75q-63 73 -63 198q0 121 62 195q61 72 168 72q104 0 166 -68q61 -68 61 -180zM288 494q-83 0 -134 -54.5t-56 -150.5h379q-5 95 -54.5 150t-134.5 55z" />
    <glyph glyph-name="edotaccent.ss01" horiz-adv-x="570" 
d="M314 649q-18 -17 -40.5 -7.5t-22.5 32.5q0 16 10 26t26 10q17 0 27 -10t10 -26q0 -15 -10 -25zM514 280v-22h-417v-3q0 -108 52 -170.5t143 -62.5q69 0 113.5 35t63.5 93l36 -6q-20 -69 -76 -112.5t-138 -43.5q-109 0 -171 75q-63 73 -63 198q0 121 62 195q61 72 168 72
q104 0 166 -68q61 -68 61 -180zM288 494q-83 0 -134 -54.5t-56 -150.5h379q-5 95 -54.5 150t-134.5 55z" />
    <glyph glyph-name="uni0123.ss01" horiz-adv-x="598" 
d="M280 638q-37 0 -37 44v48q0 50 54 50h9v-22h-14q-27 0 -27 -25v-37q6 2 14 2q34 0 34 -30q0 -13 -9 -21.5t-24 -8.5zM471 386v130h37v-517q0 -103 -58 -155t-165 -52q-90 0 -143.5 37.5t-63.5 95.5h40q10 -45 52.5 -72.5t115.5 -27.5q184 0 184 171v132
q-22 -62 -73.5 -101t-118.5 -39q-102 0 -161 77q-60 77 -60 198q0 119 60 193q59 72 159 72q71 0 122.5 -39t72.5 -103zM281 24q82 0 135 65q52 64 52 171q0 108 -51.5 170t-136.5 62t-134 -61t-49 -168q0 -109 49 -174t135 -65z" />
    <glyph glyph-name="gdotaccent.ss01" horiz-adv-x="598" 
d="M306 649q-18 -17 -40.5 -7.5t-22.5 32.5q0 16 10 26t26 10q17 0 27 -10t10 -26q0 -15 -10 -25zM471 386v130h37v-517q0 -103 -58 -155t-165 -52q-90 0 -143.5 37.5t-63.5 95.5h40q10 -45 52.5 -72.5t115.5 -27.5q184 0 184 171v132q-22 -62 -73.5 -101t-118.5 -39
q-102 0 -161 77q-60 77 -60 198q0 119 60 193q59 72 159 72q71 0 122.5 -39t72.5 -103zM281 24q82 0 135 65q52 64 52 171q0 108 -51.5 170t-136.5 62t-134 -61t-49 -168q0 -109 49 -174t135 -65z" />
    <glyph glyph-name="i.ss01" horiz-adv-x="220" 
d="M110 639q-24 0 -33.5 19t0 38t33.5 19q23 2 33 -18t0 -40t-33 -18zM130 0h-40v516h40v-516z" />
    <glyph glyph-name="idieresis.ss01" horiz-adv-x="220" 
d="M40 649q-17 -18 -39.5 -8t-22.5 33q0 22 18 31t36 0t18 -31q0 -15 -10 -25zM206 638q-16 0 -26 10.5t-10 25.5q-2 22 17 31.5t37.5 0t16.5 -31.5q0 -15 -10 -25.5t-25 -10.5zM130 0h-40v516h40v-516z" />
    <glyph glyph-name="i.loclTRK.ss01" horiz-adv-x="220" 
d="M110 639q-24 0 -33.5 19t0 38t33.5 19q23 2 33 -18t0 -40t-33 -18zM130 0h-40v516h40v-516z" />
    <glyph glyph-name="ij.ss01" horiz-adv-x="439" 
d="M110 639q-24 0 -33.5 19t0 38t33.5 19q23 2 33 -18t0 -40t-33 -18zM330 639q-25 0 -35.5 24t8.5 41q18 17 41.5 7t23.5 -34q0 -17 -11 -27.5t-27 -10.5zM130 0h-40v516h40v-516zM219 -204h-25v35h25q47 0 69 21.5t22 70.5v593h40v-588q0 -132 -131 -132z" />
    <glyph glyph-name="iogonek.ss01" horiz-adv-x="220" 
d="M110 710q16 0 26 -10t10 -26q2 -22 -17 -31.5t-38.5 0t-17.5 31.5q0 16 10 26t27 10zM61 -20l29 21v515h40v-516l-51 -41q-30 -23 -41 -37.5t-11 -35.5q0 -56 73 -56h30v-31h-33q-52 0 -79.5 21.5t-27.5 60.5q0 28 15 47.5t56 51.5z" />
    <glyph glyph-name="j.ss01" horiz-adv-x="220" 
d="M110 639q-25 0 -35.5 24t8.5 41q18 17 41.5 7t23.5 -34q0 -17 -11 -27.5t-27 -10.5zM-1 -204h-25v35h25q47 0 69 21.5t22 70.5v593h40v-588q0 -132 -131 -132z" />
    <glyph glyph-name="uni0137.ss01" horiz-adv-x="556" 
d="M506 516l-221 -199l235 -317h-48l-215 292l-127 -115v-177h-40v712h40v-492l323 296h53zM282 -73q37 0 37 -44v-58q0 -49 -55 -49h-8v21h14q28 0 28 25v48q-5 -3 -16 -3q-33 0 -33 30t33 30z" />
    <glyph glyph-name="uni013C.ss01" horiz-adv-x="220" 
d="M90 712h40v-712h-40v712zM108 -73q37 0 37 -44v-58q0 -49 -55 -49h-8v21h14q28 0 28 25v48q-5 -3 -16 -3q-33 0 -33 30t33 30z" />
    <glyph glyph-name="ldot.ss01" horiz-adv-x="306" 
d="M130 0h-40v712h40v-712zM267 329q-11 -10 -26.5 -10t-26.5 10q-10 10 -10 26t10 26t26 10t27 -10t11 -26t-11 -26z" />
    <glyph glyph-name="napostrophe.ss01" horiz-adv-x="828" 
d="M132 714q40 0 40 -44v-98q0 -68 -65 -68h-7v25h8q38 0 38 38v76h-14q-25 -2 -36 16.5t0 37.5t36 17zM559 528q86 0 132.5 -49t46.5 -137v-342h-40v335q0 76 -37 117t-109 41q-83 0 -131.5 -54t-48.5 -158v-281h-40v516h38v-116q47 128 189 128z" />
    <glyph glyph-name="uni0146.ss01" horiz-adv-x="586" 
d="M317 528q85 0 132 -49t47 -137v-342h-40v335q0 76 -37 117t-109 41q-83 0 -131.5 -54t-48.5 -158v-281h-40v516h38v-116q47 128 189 128zM288 -73q37 0 37 -44v-58q0 -49 -55 -49h-8v21h14q28 0 28 25v48q-5 -3 -16 -3q-33 0 -33 30t33 30z" />
    <glyph glyph-name="odieresis.ss01" horiz-adv-x="588" 
d="M225 649q-17 -18 -39.5 -8t-22.5 33q0 22 18 31t36 0t18 -31q0 -15 -10 -25zM417 649q-17 -18 -39.5 -8t-22.5 33q0 22 18 31t36 0t18 -31q0 -15 -10 -25zM294 -12q-107 0 -172 74t-65 196q0 124 66 197q64 73 172 73t172 -73q65 -74 65 -196q0 -123 -66 -196
q-66 -75 -172 -75zM151 86q52 -64 143 -64q90 0 144 64t54 173t-53.5 172t-144.5 63q-90 0 -143.5 -63.5t-53.5 -172.5t54 -172z" />
    <glyph glyph-name="uni0157.ss01" horiz-adv-x="372" 
d="M309 529q20 0 41 -3v-39q-26 3 -46 3q-77 0 -125 -52.5t-49 -148.5v-289h-40v516h38v-118q21 63 67.5 97t113.5 34zM108 -73q37 0 37 -44v-58q0 -49 -55 -49h-8v21h14q28 0 28 25v48q-5 -3 -16 -3q-33 0 -33 30t33 30z" />
    <glyph glyph-name="uni0219.ss01" horiz-adv-x="523" 
d="M233 291l85 -14q149 -26 149 -138q0 -71 -53.5 -111t-147.5 -40q-96 0 -149.5 43.5t-58.5 125.5h38q10 -136 171 -136q76 0 118.5 30.5t42.5 84.5q0 87 -117 105l-87 15q-77 13 -114.5 43.5t-37.5 86.5q0 66 49.5 102.5t134.5 36.5q87 0 139.5 -40t58.5 -112h-40
q-5 57 -46.5 88t-112.5 31q-67 0 -106.5 -27.5t-39.5 -76.5q0 -41 29.5 -63t94.5 -34zM263 -73q38 0 38 -44v-58q0 -49 -55 -49h-9v21h14q28 0 28 25v47q-6 -2 -15 -2q-34 0 -34 30t33 30z" />
    <glyph glyph-name="uni021B.ss01" horiz-adv-x="331" 
d="M301 483l-137 2v-372q0 -41 17.5 -59.5t56.5 -18.5h62v-35h-71q-105 0 -105 108v377l-97 -2v33l97 -2v152h40v-152l137 2v-33zM146 -66q37 0 37 -44v-58q0 -49 -55 -49h-8v21h14q28 0 28 25v48q-4 -3 -16 -3q-33 0 -33 30t33 30z" />
    <glyph glyph-name="udieresis.ss01" horiz-adv-x="586" 
d="M223 649q-17 -18 -39.5 -8t-22.5 33q0 22 18 31t36 0t18 -31q0 -15 -10 -25zM415 649q-17 -18 -39.5 -8t-22.5 33q0 22 18 31t36 0t18 -31q0 -15 -10 -25zM456 235v281h40v-516h-38v116q-48 -128 -189 -128q-86 0 -132.5 49t-46.5 137v342h40v-335q0 -76 37 -117t109 -41
q83 0 131.5 54t48.5 158z" />
    <glyph glyph-name="wdieresis.ss01" horiz-adv-x="766" 
d="M312 649q-17 -18 -39.5 -8t-22.5 33q0 22 18 31t36 0t18 -31q0 -15 -10 -25zM504 649q-17 -18 -39.5 -8t-22.5 33q0 22 18 31t36 0t18 -31q0 -15 -10 -25zM564 129l122 387h42l-169 -516h-39l-118 399l-18 81l-20 -81l-119 -399h-40l-167 516h43l121 -387l23 -85l22 85
l116 387h41l116 -387l21 -83z" />
    <glyph glyph-name="ydieresis.ss01" horiz-adv-x="543" 
d="M202 649q-17 -18 -39.5 -8t-22.5 33q0 22 18 31t36 0t18 -31q0 -15 -10 -25zM394 649q-17 -18 -39.5 -8t-22.5 33q0 22 18 31t36 0t18 -31q0 -15 -10 -25zM275 25l188 491h42l-248 -630q-20 -51 -49 -70.5t-86 -19.5h-36v35h33q47 0 69 15t39 58l32 81l-221 531h43
l186 -455z" />
    <glyph glyph-name="zdotaccent.ss01" horiz-adv-x="524" 
d="M289 649q-18 -17 -40.5 -7.5t-22.5 32.5q0 16 10 26t26 10q17 0 27 -10t10 -26q0 -15 -10 -25zM452 490l-347 -456h363v-34h-411v29l344 453h-332v34h383v-26z" />
    <glyph glyph-name="a.ss02" horiz-adv-x="597" 
d="M471 396l2 120h34v-516h-34l-1 127q-25 -64 -74.5 -101.5t-117.5 -37.5q-103 0 -163 75t-60 197t60 195t162 73q141 0 192 -132zM282 21q86 0 137 64.5t51 172.5q0 109 -51.5 173t-137.5 64q-87 0 -136.5 -63t-49.5 -171q0 -111 49.5 -175.5t137.5 -64.5z" />
    <glyph glyph-name="aacute.ss02" horiz-adv-x="597" 
d="M350 764h54l-124 -151h-38zM471 396l2 120h34v-516h-34l-1 127q-25 -64 -74.5 -101.5t-117.5 -37.5q-103 0 -163 75t-60 197t60 195t162 73q141 0 192 -132zM282 21q86 0 137 64.5t51 172.5q0 109 -51.5 173t-137.5 64q-87 0 -136.5 -63t-49.5 -171q0 -111 49.5 -175.5
t137.5 -64.5z" />
    <glyph glyph-name="abreve.ss02" horiz-adv-x="597" 
d="M419 740h29q-8 -131 -159 -131t-159 131h29q6 -102 130 -102t130 102zM471 396l2 120h34v-516h-34l-1 127q-25 -64 -74.5 -101.5t-117.5 -37.5q-103 0 -163 75t-60 197t60 195t162 73q141 0 192 -132zM282 21q86 0 137 64.5t51 172.5q0 109 -51.5 173t-137.5 64
q-87 0 -136.5 -63t-49.5 -171q0 -111 49.5 -175.5t137.5 -64.5z" />
    <glyph glyph-name="acircumflex.ss02" horiz-adv-x="597" 
d="M399 604l-110 134l-110 -134h-44l133 160h42l133 -160h-44zM471 396l2 120h34v-516h-34l-1 127q-25 -64 -74.5 -101.5t-117.5 -37.5q-103 0 -163 75t-60 197t60 195t162 73q141 0 192 -132zM282 21q86 0 137 64.5t51 172.5q0 109 -51.5 173t-137.5 64q-87 0 -136.5 -63
t-49.5 -171q0 -111 49.5 -175.5t137.5 -64.5z" />
    <glyph glyph-name="adieresis.ss02" horiz-adv-x="597" 
d="M163 713h53v-72h-53v72zM362 713h53v-72h-53v72zM471 396l2 120h34v-516h-34l-1 127q-25 -64 -74.5 -101.5t-117.5 -37.5q-103 0 -163 75t-60 197t60 195t162 73q141 0 192 -132zM282 21q86 0 137 64.5t51 172.5q0 109 -51.5 173t-137.5 64q-87 0 -136.5 -63t-49.5 -171
q0 -111 49.5 -175.5t137.5 -64.5z" />
    <glyph glyph-name="agrave.ss02" horiz-adv-x="597" 
d="M223 764l109 -151h-38l-125 151h54zM471 396l2 120h34v-516h-34l-1 127q-25 -64 -74.5 -101.5t-117.5 -37.5q-103 0 -163 75t-60 197t60 195t162 73q141 0 192 -132zM282 21q86 0 137 64.5t51 172.5q0 109 -51.5 173t-137.5 64q-87 0 -136.5 -63t-49.5 -171
q0 -111 49.5 -175.5t137.5 -64.5z" />
    <glyph glyph-name="amacron.ss02" horiz-adv-x="597" 
d="M141 680h296v-32h-296v32zM471 396l2 120h34v-516h-34l-1 127q-25 -64 -74.5 -101.5t-117.5 -37.5q-103 0 -163 75t-60 197t60 195t162 73q141 0 192 -132zM282 21q86 0 137 64.5t51 172.5q0 109 -51.5 173t-137.5 64q-87 0 -136.5 -63t-49.5 -171q0 -111 49.5 -175.5
t137.5 -64.5z" />
    <glyph glyph-name="aogonek.ss02" horiz-adv-x="597" 
d="M507 0l-51 -41q-30 -23 -41 -37.5t-11 -35.5q0 -56 74 -56h29v-31h-33q-52 0 -79.5 21.5t-27.5 60.5q0 28 15.5 48t56.5 51l38 27l-5 129q-24 -62 -74.5 -99t-117.5 -37q-102 0 -162 74q-61 73 -61 187q0 121 60 195q60 72 162 72q141 0 192 -132l2 120h34v-516zM282 33
q84 0 137 63q51 63 51 164q0 108 -52 171.5t-137 63.5q-87 0 -136.5 -62.5t-49.5 -170.5q0 -103 50 -166t137 -63z" />
    <glyph glyph-name="aring.ss02" horiz-adv-x="597" 
d="M373 627q-33 -33 -84 -33t-84 33t-33 83t33 84q33 33 84 33t84 -33q33 -34 33 -84t-33 -83zM351 774q-24 22 -62 22t-62 -22q-24 -24 -24 -64q0 -38 24.5 -62t61.5 -24t61.5 24t24.5 62q0 40 -24 64zM471 396l2 120h34v-516h-34l-1 127q-25 -64 -74.5 -101.5
t-117.5 -37.5q-103 0 -163 75t-60 197t60 195t162 73q141 0 192 -132zM282 21q86 0 137 64.5t51 172.5q0 109 -51.5 173t-137.5 64q-87 0 -136.5 -63t-49.5 -171q0 -111 49.5 -175.5t137.5 -64.5z" />
    <glyph glyph-name="aringacute.ss02" horiz-adv-x="597" 
d="M351 1016h53l-124 -151h-38zM373 617q-33 -33 -84 -33t-84 33q-33 31 -33 82t33 84t84 33t83.5 -33t32.5 -84q0 -50 -32 -82zM351 763q-24 23 -62 23t-62 -23q-24 -24 -24 -64q0 -38 24.5 -62t61.5 -24t61.5 24t24.5 62q0 40 -24 64zM471 396l2 120h34v-516h-34l-1 127
q-25 -64 -74.5 -101.5t-117.5 -37.5q-103 0 -163 75t-60 197t60 195t162 73q141 0 192 -132zM282 21q86 0 137 64.5t51 172.5q0 109 -51.5 173t-137.5 64q-87 0 -136.5 -63t-49.5 -171q0 -111 49.5 -175.5t137.5 -64.5z" />
    <glyph glyph-name="atilde.ss02" horiz-adv-x="597" 
d="M203 740q-62 0 -67 -119h-32q4 151 99 151q30 0 54.5 -17t38.5 -42q34 -60 80 -60q61 0 66 119h32q-4 -151 -99 -151q-30 0 -54.5 17.5t-37.5 42.5q-14 25 -35.5 42t-44.5 17zM471 396l2 120h34v-516h-34l-1 127q-25 -64 -74.5 -101.5t-117.5 -37.5q-103 0 -163 75
t-60 197t60 195t162 73q141 0 192 -132zM282 21q86 0 137 64.5t51 172.5q0 109 -51.5 173t-137.5 64q-87 0 -136.5 -63t-49.5 -171q0 -111 49.5 -175.5t137.5 -64.5z" />
    <glyph glyph-name="adieresis.ss01.ss02" horiz-adv-x="597" 
d="M219 649q-17 -18 -39.5 -8t-22.5 33q0 22 18 31t36 0t18 -31q0 -15 -10 -25zM411 649q-17 -18 -39.5 -8t-22.5 33q0 22 18 31t36 0t18 -31q0 -15 -10 -25zM471 396l2 120h34v-516h-34l-1 127q-25 -64 -74.5 -101.5t-117.5 -37.5q-103 0 -163 75t-60 197t60 195t162 73
q141 0 192 -132zM282 21q86 0 137 64.5t51 172.5q0 109 -51.5 173t-137.5 64q-87 0 -136.5 -63t-49.5 -171q0 -111 49.5 -175.5t137.5 -64.5z" />
    <glyph glyph-name="uni021B.ss01.ss05" horiz-adv-x="328" 
d="M185 666v-152l116 2v-33l-116 2v-485h-40v485l-118 -2v33l118 -2v152h40zM163 -73q37 0 37 -44v-58q0 -49 -55 -49h-8v21h14q28 0 28 25v48q-5 -3 -16 -3q-33 0 -33 30t33 30z" />
    <glyph glyph-name="udieresis.ss01.ss05" horiz-adv-x="586" 
d="M223 649q-17 -18 -39.5 -8t-22.5 33q0 22 18 31t36 0t18 -31q0 -15 -10 -25zM415 649q-17 -18 -39.5 -8t-22.5 33q0 22 18 31t36 0t18 -31q0 -15 -10 -25zM456 235v281h40v-516h-38v116q-48 -128 -189 -128q-86 0 -132.5 49t-46.5 137v342h40v-335q0 -76 37 -117t109 -41
q83 0 131.5 54t48.5 158z" />
    <glyph glyph-name="t.ss05" horiz-adv-x="328" 
d="M185 514l116 2v-33l-116 2v-485h-40v485l-118 -2v33l118 -2v152h40v-152z" />
    <glyph glyph-name="tbar.ss05" horiz-adv-x="328" 
d="M185 272l117 1v-32l-117 2v-243h-40v243l-117 -2v32l117 -1v213l-118 -2v33l118 -2v152h40v-152l116 2v-33l-116 2v-213z" />
    <glyph glyph-name="tcaron.ss05" horiz-adv-x="328" 
d="M319 805h47l-76 -198h-32zM145 666h40v-152l116 2v-33l-116 2v-485h-40v485l-118 -2v33l118 -2v152z" />
    <glyph glyph-name="uni0163.ss05" horiz-adv-x="328" 
d="M185 485v-485h-6l-41 -67h30q90 0 90 -74q0 -39 -30 -60.5t-84 -21.5h-37v27h34q85 0 85 54q0 46 -63 46h-43l-14 23l45 73h-6v485l-118 -2v33l118 -2v152h40v-152l116 2v-33z" />
    <glyph glyph-name="uni021B.ss05" horiz-adv-x="328" 
d="M185 666v-152l116 2v-33l-116 2v-485h-40v485l-118 -2v33l118 -2v152h40zM176 -125l-42 -4v51h63v-100q0 -46 -45 -46h-18v21h17q25 0 25 23v55z" />
    <glyph glyph-name="udieresis.ss01.ss06" horiz-adv-x="586" 
d="M223 649q-17 -18 -39.5 -8t-22.5 33q0 22 18 31t36 0t18 -31q0 -15 -10 -25zM415 649q-17 -18 -39.5 -8t-22.5 33q0 22 18 31t36 0t18 -31q0 -15 -10 -25zM443 42q-55 -50 -150 -50q-96 0 -149 50q-54 50 -54 142v332h40v-330q0 -78 42 -119t121 -41t121 41t42 119v330
h40v-332q0 -92 -53 -142z" />
    <glyph glyph-name="u.ss06" horiz-adv-x="586" 
d="M443 42q-55 -50 -150 -50q-96 0 -149 50q-54 50 -54 142v332h40v-330q0 -78 42 -119t121 -41t121 41t42 119v330h40v-332q0 -92 -53 -142z" />
    <glyph glyph-name="uacute.ss06" horiz-adv-x="586" 
d="M284 613h-38l108 151h54zM443 42q-55 -50 -150 -50q-96 0 -149 50q-54 50 -54 142v332h40v-330q0 -78 42 -119t121 -41t121 41t42 119v330h40v-332q0 -92 -53 -142z" />
    <glyph glyph-name="ubreve.ss06" horiz-adv-x="586" 
d="M423 740h29q-8 -131 -159 -131t-159 131h29q6 -102 130 -102t130 102zM443 42q-55 -50 -150 -50q-96 0 -149 50q-54 50 -54 142v332h40v-330q0 -78 42 -119t121 -41t121 41t42 119v330h40v-332q0 -92 -53 -142z" />
    <glyph glyph-name="ucircumflex.ss06" horiz-adv-x="586" 
d="M183 604h-44l133 160h42l133 -160h-44l-110 134zM443 42q-55 -50 -150 -50q-96 0 -149 50q-54 50 -54 142v332h40v-330q0 -78 42 -119t121 -41t121 41t42 119v330h40v-332q0 -92 -53 -142z" />
    <glyph glyph-name="udieresis.ss06" horiz-adv-x="586" 
d="M220 641h-53v72h53v-72zM419 641h-53v72h53v-72zM443 42q-55 -50 -150 -50q-96 0 -149 50q-54 50 -54 142v332h40v-330q0 -78 42 -119t121 -41t121 41t42 119v330h40v-332q0 -92 -53 -142z" />
    <glyph glyph-name="ugrave.ss06" horiz-adv-x="586" 
d="M336 613h-38l-125 151h54zM443 42q-55 -50 -150 -50q-96 0 -149 50q-54 50 -54 142v332h40v-330q0 -78 42 -119t121 -41t121 41t42 119v330h40v-332q0 -92 -53 -142z" />
    <glyph glyph-name="uhungarumlaut.ss06" horiz-adv-x="586" 
d="M203 602h-37l104 164h47zM382 602h-37l116 164h47zM443 42q-55 -50 -150 -50q-96 0 -149 50q-54 50 -54 142v332h40v-330q0 -78 42 -119t121 -41t121 41t42 119v330h40v-332q0 -92 -53 -142z" />
    <glyph glyph-name="umacron.ss06" horiz-adv-x="586" 
d="M441 648h-296v32h296v-32zM443 42q-55 -50 -150 -50q-96 0 -149 50q-54 50 -54 142v332h40v-330q0 -78 42 -119t121 -41t121 41t42 119v330h40v-332q0 -92 -53 -142z" />
    <glyph glyph-name="uogonek.ss06" horiz-adv-x="586" 
d="M456 186v330h40v-332q0 -147 -128 -183l-67 -36q-57 -31 -57 -73q0 -58 77 -58h36v-31h-43q-53 0 -80 21.5t-27 61.5q0 58 74 96l20 10h-8q-97 0 -150 50t-53 142v332h40v-330q0 -78 42 -119t121 -41t121 41t42 119z" />
    <glyph glyph-name="uring.ss06" horiz-adv-x="586" 
d="M377 627q-33 -33 -84 -33t-84 33t-33 83t33 84q33 33 84 33t84 -33q33 -34 33 -84t-33 -83zM232 648q27 -23 61 -24t61.5 24t24.5 62q0 40 -23.5 63.5t-62.5 23.5t-62.5 -23.5t-23.5 -63.5q0 -38 25 -62zM443 42q-55 -50 -150 -50q-96 0 -149 50q-54 50 -54 142v332h40
v-330q0 -78 42 -119t121 -41t121 41t42 119v330h40v-332q0 -92 -53 -142z" />
    <glyph glyph-name="utilde.ss06" horiz-adv-x="586" 
d="M140 621h-32q4 151 99 151q30 0 54.5 -17t38.5 -42q34 -60 80 -60q61 0 66 119h32q-4 -151 -99 -151q-30 0 -54.5 17.5t-37.5 42.5q-14 25 -35.5 42t-44.5 17q-62 0 -67 -119zM443 42q-55 -50 -150 -50q-96 0 -149 50q-54 50 -54 142v332h40v-330q0 -78 42 -119t121 -41
t121 41t42 119v330h40v-332q0 -92 -53 -142z" />
    <glyph glyph-name="ydieresis.ss01.ss07" horiz-adv-x="543" 
d="M202 649q-17 -18 -39.5 -8t-22.5 33q0 22 18 31t36 0t18 -31q0 -15 -10 -25zM394 649q-17 -18 -39.5 -8t-22.5 33q0 22 18 31t36 0t18 -31q0 -15 -10 -25zM277 30l186 486h42l-283 -720h-40l77 190l-221 530h43l186 -455q2 -4 10 -31z" />
    <glyph glyph-name="y.ss07" horiz-adv-x="543" 
d="M277 30l186 486h42l-283 -720h-40l77 190l-221 530h43l186 -455q2 -4 10 -31z" />
    <glyph glyph-name="yacute.ss07" horiz-adv-x="543" 
d="M333 764h54l-124 -151h-38zM277 30l186 486h42l-283 -720h-40l77 190l-221 530h43l186 -455q2 -4 10 -31z" />
    <glyph glyph-name="ycircumflex.ss07" horiz-adv-x="543" 
d="M382 604l-110 134l-110 -134h-44l133 160h42l133 -160h-44zM277 30l186 486h42l-283 -720h-40l77 190l-221 530h43l186 -455q2 -4 10 -31z" />
    <glyph glyph-name="ydieresis.ss07" horiz-adv-x="543" 
d="M146 713h53v-72h-53v72zM345 713h53v-72h-53v72zM277 30l186 486h42l-283 -720h-40l77 190l-221 530h43l186 -455q2 -4 10 -31z" />
    <glyph glyph-name="ygrave.ss07" horiz-adv-x="543" 
d="M206 764l109 -151h-38l-125 151h54zM277 30l186 486h42l-283 -720h-40l77 190l-221 530h43l186 -455q2 -4 10 -31z" />
    <glyph glyph-name="l.ss08" horiz-adv-x="287" 
d="M259 0h-65q-104 0 -104 108v604h40v-599q0 -41 17.5 -59.5t56.5 -18.5h55v-35z" />
    <glyph glyph-name="lacute.ss08" horiz-adv-x="287" 
d="M101 809h-38l108 151h54zM259 0h-65q-104 0 -104 108v604h40v-599q0 -41 17.5 -59.5t56.5 -18.5h55v-35z" />
    <glyph glyph-name="lcaron.ss08" horiz-adv-x="342" 
d="M259 0h-65q-104 0 -104 108v604h40v-599q0 -41 17.5 -59.5t56.5 -18.5h55v-35zM267 514h-32l61 198h46z" />
    <glyph glyph-name="uni013C.ss08" horiz-adv-x="287" 
d="M204 35h55v-35h-65q-104 0 -104 108v604h40v-599q0 -41 17.5 -59.5t56.5 -18.5zM121 -125l-42 -4v51h63v-100q0 -46 -45 -46h-18v21h17q25 0 25 23v55z" />
    <glyph glyph-name="ldot.ss08" horiz-adv-x="314" 
d="M259 0h-65q-104 0 -104 108v604h40v-599q0 -41 17.5 -59.5t56.5 -18.5h55v-35zM272 324h-71v63h71v-63z" />
    <glyph glyph-name="lslash.ss08" horiz-adv-x="369" 
d="M278 35h54v-35h-64q-104 0 -104 108v241l-107 -60v41l107 54v328h40v-306l107 58v-40l-107 -54v-257q0 -41 17 -59.5t57 -18.5z" />
    <glyph glyph-name="uni013C.ss01.ss08" horiz-adv-x="287" 
d="M204 35h55v-35h-65q-104 0 -104 108v604h40v-599q0 -41 17.5 -59.5t56.5 -18.5zM108 -73q37 0 37 -44v-58q0 -49 -55 -49h-8v21h14q28 0 28 25v48q-5 -3 -16 -3q-33 0 -33 30t33 30z" />
    <glyph glyph-name="ldot.ss01.ss08" horiz-adv-x="322" 
d="M259 0h-65q-104 0 -104 108v604h40v-599q0 -41 17.5 -59.5t56.5 -18.5h55v-35zM267 329q-11 -10 -26.5 -10t-26.5 10q-10 10 -10 26t10 26t26 10t27 -10t11 -26t-11 -26z" />
    <glyph glyph-name="fi.ss01" horiz-adv-x="548" 
d="M412 705q10 11 27 11t28 -11t11 -28t-11 -27t-28 -10t-27 10t-10 27t10 28zM121 514v57q0 74 32.5 107.5t101.5 33.5h52v-35h-51q-49 0 -72 -23.5t-23 -78.5v-61l146 2v-33l-146 2v-485h-40v485l-94 -2v33zM459 0h-40v516h40v-516z" />
    <glyph glyph-name="fl.ss08" horiz-adv-x="616" 
d="M121 514v57q0 74 32.5 107.5t101.5 33.5h52v-35h-51q-49 0 -72 -23.5t-23 -78.5v-61l146 2v-33l-146 2v-485h-40v485l-94 -2v33zM533 35h55v-35h-65q-104 0 -104 108v604h40v-599q0 -41 17.5 -59.5t56.5 -18.5z" />
    <glyph glyph-name="ordfeminine.ss02" horiz-adv-x="485" 
d="M363 634l3 79h29v-341h-29l-3 81q-18 -41 -55.5 -65t-87.5 -24q-75 0 -119 49.5t-44 131.5q0 81 44 128t119 47q51 0 89 -23t54 -63zM227 392q62 0 99 40.5t37 109.5q0 71 -37.5 110.5t-101.5 39.5q-62 0 -98 -39t-36 -108q0 -72 36 -112.5t101 -40.5z" />
    <glyph glyph-name="t.sups.ss05" horiz-adv-x="293" 
d="M164 711l102 1v-29h-102v-311h-34v311h-103v29l103 -1v101h34v-101z" />
    <glyph glyph-name="zero.ss09" horiz-adv-x="1110" 
d="M1009 -88h-908v888h908v-888zM379 373q0 -222 176 -222t176 222q0 223 -176 223t-176 -223zM555 183q-71 0 -105 46.5t-34 143.5q0 190 139 190t139 -190t-139 -190z" />
    <glyph glyph-name="one.ss09" horiz-adv-x="1110" 
d="M1009 -88h-908v888h908v-888zM562 451v-297h35v427h-31l-1 -61q-1 -22 -14 -31t-40 -9h-86v-29h137z" />
    <glyph glyph-name="two.ss09" horiz-adv-x="1110" 
d="M101 -88v888h908v-888h-908zM712 160v32h-274q7 72 116 123l55 27q55 26 79 56.5t24 72.5q0 55 -42 90t-113 35q-73 0 -113.5 -37t-41.5 -108h36q3 113 119 113q56 0 87.5 -26t31.5 -67q0 -61 -83 -102l-66 -31q-130 -61 -130 -178h315z" />
    <glyph glyph-name="three.ss09" horiz-adv-x="1110" 
d="M1009 -88h-908v888h908v-888zM558 149q75 0 119.5 34t44.5 91q0 42 -26.5 72t-69.5 38v1q35 9 55.5 35.5t20.5 62.5q0 51 -41 81t-110 30q-70 0 -110.5 -33.5t-40.5 -90.5h36q1 45 31.5 69.5t84.5 24.5q52 0 83 -23t31 -62q0 -36 -27 -58.5t-74 -22.5h-35v-32h35
q57 0 89.5 -24.5t32.5 -66.5q0 -46 -34 -71t-94 -25q-63 0 -98 27.5t-35 75.5h-36q0 -61 45.5 -97t122.5 -36z" />
    <glyph glyph-name="four.ss09" horiz-adv-x="1110" 
d="M1009 -88h-908v888h908v-888zM615 273v-113h35v113l76 -1v30l-76 -1v286h-36l-242 -284v-31zM615 301l-208 1l206 241h2v-242z" />
    <glyph glyph-name="five.ss09" horiz-adv-x="1110" 
d="M101 -88v888h908v-888h-908zM556 148q77 0 123 40t46 105q0 63 -43 101.5t-116 38.5q-80 0 -122 -47l-1 2l31 168h222v31h-248l-44 -227l40 -8q39 51 116 51q60 0 94.5 -30.5t34.5 -81.5t-35.5 -81.5t-97.5 -30.5q-49 0 -83.5 21.5t-44.5 58.5l-35 -8q12 -47 55.5 -75
t107.5 -28z" />
    <glyph glyph-name="six.ss09" horiz-adv-x="1110" 
d="M1009 -88h-908v888h908v-888zM570 155q72 0 115.5 40t43.5 105q0 63 -42 100.5t-113 37.5q-101 0 -144 -70q3 201 141 201q88 0 111 -77l34 8q-28 100 -146 100q-86 0 -130 -60.5t-44 -175.5q0 -209 174 -209zM570 185q-60 0 -96 35t-40 102q13 39 49 62.5t88 23.5
q57 0 90 -29.5t33 -80.5t-34 -82t-90 -31z" />
    <glyph glyph-name="seven.ss09" horiz-adv-x="1110" 
d="M1009 -88h-908v888h908v-888zM486 159h36q15 241 210 398v29h-322v-31h276q-184 -155 -200 -396z" />
    <glyph glyph-name="eight.ss09" horiz-adv-x="1110" 
d="M1009 -88h-908v888h908v-888zM555 153q79 0 126.5 35t47.5 93q0 42 -26.5 71t-75.5 39v2q41 10 63 35.5t22 59.5q0 50 -42.5 79t-114.5 29q-73 0 -115.5 -29t-42.5 -79q0 -35 22.5 -60t62.5 -35v-2q-48 -10 -75 -39t-27 -71q0 -58 47.5 -93t127.5 -35zM555 405
q-58 0 -90 21t-32 59q0 39 32.5 60.5t89.5 21.5t89.5 -21.5t32.5 -60.5q0 -38 -32.5 -59t-89.5 -21zM555 182q-65 0 -102 27.5t-37 73.5q0 44 36 68.5t103 24.5q66 0 102 -24t36 -69q0 -46 -37.5 -73.5t-100.5 -27.5z" />
    <glyph glyph-name="nine.ss09" horiz-adv-x="1110" 
d="M1009 -88h-908v888h908v-888zM552 149q86 0 130.5 60t44.5 175q0 209 -174 209q-72 0 -115.5 -39.5t-43.5 -105.5q0 -63 41.5 -100.5t112.5 -37.5q99 0 145 70q-3 -201 -141 -201q-88 0 -111 78l-35 -9q28 -99 146 -99zM552 340q-57 0 -90 29.5t-33 80.5t33.5 82t90.5 31
q61 0 96.5 -34.5t39.5 -101.5q-13 -39 -49 -63t-88 -24z" />
    <glyph glyph-name="zero.ss10" horiz-adv-x="1110" 
d="M1009 -88h-908v888h908v-888zM140 764v-816h829v816h-829zM731 373q0 -222 -176 -222t-176 222q0 223 176 223t176 -223zM555 183q139 0 139 190t-139 190t-139 -190q0 -97 34 -143.5t105 -46.5z" />
    <glyph glyph-name="one.ss10" horiz-adv-x="1110" 
d="M1009 -88h-908v888h908v-888zM140 764v-816h829v816h-829zM588 150h-34v297h-137v29h86q51 0 54 40l1 61h30v-427z" />
    <glyph glyph-name="two.ss10" horiz-adv-x="1110" 
d="M1009 -88h-908v888h908v-888zM140 764v-816h829v816h-829zM714 160h-315q0 117 130 178l66 31q83 41 83 102q0 41 -31.5 67t-87.5 26q-116 0 -119 -113h-36q1 71 42 108t113 37q71 0 112.5 -35t41.5 -90q0 -43 -23.5 -73t-78.5 -56l-56 -27q-107 -52 -115 -123h274v-32z
" />
    <glyph glyph-name="three.ss10" horiz-adv-x="1110" 
d="M1009 -88h-908v888h908v-888zM140 764v-816h829v816h-829zM559 150q-77 0 -122.5 36.5t-45.5 97.5h36q0 -48 35 -75.5t98 -27.5q60 0 94 25t34 71q0 42 -32.5 66.5t-89.5 24.5h-35v32h35q48 0 74.5 22t26.5 59q0 39 -31 61.5t-83 22.5q-54 0 -84.5 -24.5t-31.5 -69.5h-36
q0 57 40.5 91t110.5 34q68 0 109.5 -30.5t41.5 -81.5q0 -35 -20.5 -61.5t-55.5 -35.5v-1q43 -9 69.5 -38.5t26.5 -71.5q0 -57 -44.5 -91.5t-119.5 -34.5z" />
    <glyph glyph-name="four.ss10" horiz-adv-x="1110" 
d="M1009 -88h-908v888h908v-888zM140 764v-816h829v816h-829zM654 159h-35v113l-243 -1v31l241 284h37v-286h75v-29l-75 1v-113zM617 542l-206 -242h208v242h-2z" />
    <glyph glyph-name="five.ss10" horiz-adv-x="1110" 
d="M1009 -88h-908v888h908v-888zM140 764v-816h829v816h-829zM560 147q-63 0 -106.5 27.5t-56.5 75.5l35 8q11 -37 45 -58t84 -21q62 0 97 30.5t35 81.5t-34.5 81.5t-94.5 30.5q-77 0 -116 -52l-39 9l43 227h248v-31h-222l-31 -169l1 -1q44 47 122 47q74 0 116.5 -39
t42.5 -102q0 -64 -46 -104.5t-123 -40.5z" />
    <glyph glyph-name="six.ss10" horiz-adv-x="1110" 
d="M1009 -88h-908v888h908v-888zM140 764v-816h829v816h-829zM569 150q-174 0 -174 210q0 115 44 175t130 60q117 0 146 -99l-34 -9q-23 78 -111 78q-138 0 -141 -201q21 32 59 51t85 19q71 0 113 -37.5t42 -100.5q0 -65 -43.5 -105.5t-115.5 -40.5zM569 181q56 0 90 31
t34 82t-33 80.5t-90 29.5q-52 0 -88 -24t-49 -63q4 -67 39.5 -101.5t96.5 -34.5z" />
    <glyph glyph-name="seven.ss10" horiz-adv-x="1110" 
d="M1009 -88h-908v888h908v-888zM140 764v-816h829v816h-829zM520 149h-36q14 239 199 396h-276v31h322v-29q-194 -159 -209 -398z" />
    <glyph glyph-name="eight.ss10" horiz-adv-x="1110" 
d="M1009 -88h-908v888h908v-888zM140 764v-816h829v816h-829zM682 180q-48 -36 -127 -36q-78 0 -127 35q-48 34 -48 94q0 41 27 70.5t75 39.5v2q-40 9 -62.5 34t-22.5 60q0 50 42.5 79t115.5 29q72 0 114.5 -29t42.5 -79q0 -34 -22 -59t-63 -35v-2q48 -10 75 -39t27 -71
q0 -58 -47 -93zM555 396q57 0 89.5 21.5t32.5 58.5q0 39 -32.5 60.5t-89.5 21.5t-89.5 -21t-32.5 -60q0 -38 32 -59.5t90 -21.5zM555 174q64 0 101 27t37 73q0 45 -36 69.5t-102 24.5q-67 0 -103 -24.5t-36 -69.5q0 -46 37 -73t102 -27z" />
    <glyph glyph-name="nine.ss10" horiz-adv-x="1110" 
d="M1009 -88h-908v888h908v-888zM140 764v-816h829v816h-829zM555 148q-118 0 -146 100l35 8q23 -77 111 -77q138 0 141 201q-46 -70 -145 -70q-71 0 -112.5 37.5t-41.5 100.5q0 66 43.5 105.5t115.5 39.5q174 0 174 -209q0 -115 -44.5 -175.5t-130.5 -60.5zM555 340
q52 0 88 23.5t49 62.5q-4 67 -40 102t-96 35q-57 0 -90.5 -31t-33.5 -82t33 -80.5t90 -29.5z" />
    <glyph glyph-name="zero.zero" 
d="M320 720q235 0 235 -364t-235 -364t-235 364t235 364zM126 356q0 -182 57 -263l240 561q-42 30 -103 30q-99 0 -146.5 -80t-47.5 -248zM320 28q99 0 146.5 80t47.5 248q0 200 -67 276l-241 -564q43 -40 114 -40z" />
    <glyph glyph-name="zero.dnom" horiz-adv-x="448" 
d="M400 213q0 -223 -176 -223t-176 223t176 223t176 -223zM224 23q139 0 139 190t-139 190t-139 -190q0 -97 34 -143.5t105 -46.5z" />
    <glyph glyph-name="one.dnom" horiz-adv-x="307" 
d="M217 0h-35v297h-137v29h86q27 0 40 9t14 31l1 61h31v-427z" />
    <glyph glyph-name="two.dnom" horiz-adv-x="460" 
d="M389 0h-316q0 116 131 178l65 31q83 39 83 102q0 41 -31 67t-87 26q-116 0 -119 -113h-37q1 71 42 108t114 37q71 0 112.5 -35t41.5 -90q0 -43 -23.5 -73t-79.5 -56l-55 -27q-107 -51 -115 -123h274v-32z" />
    <glyph glyph-name="three.dnom" horiz-adv-x="433" 
d="M218 -10q-77 0 -122.5 36.5t-45.5 97.5h36q1 -48 35.5 -75.5t97.5 -27.5q60 0 94 25t34 71q0 42 -32.5 66.5t-89.5 24.5h-34v32h34q48 0 74.5 22t26.5 59q0 39 -31 61.5t-83 22.5q-54 0 -84.5 -24t-31.5 -69h-36q0 57 40.5 90.5t110.5 33.5q68 0 109.5 -30.5t41.5 -81.5
q0 -36 -20 -62t-56 -35v-1q43 -9 70 -39t27 -71q0 -57 -45 -91.5t-120 -34.5z" />
    <glyph glyph-name="four.dnom" horiz-adv-x="428" 
d="M315 0h-35v113l-243 -1v31l242 284h36v-286l76 1v-30l-76 1v-113zM278 383l-206 -241l208 -1v242h-2z" />
    <glyph glyph-name="five.dnom" horiz-adv-x="432" 
d="M214 -12q-65 0 -107.5 27t-56.5 76l36 8q10 -37 44 -58.5t84 -21.5q62 0 97.5 30.5t35.5 81.5t-34.5 81.5t-94.5 30.5q-78 0 -116 -51l-40 8l44 227h248v-31h-223l-31 -168l2 -2q42 47 122 47q73 0 115.5 -38.5t42.5 -101.5q0 -65 -45.5 -105t-122.5 -40z" />
    <glyph glyph-name="six.dnom" horiz-adv-x="433" 
d="M224 -9q-174 0 -174 209q0 115 44.5 175.5t130.5 60.5q56 0 94 -26.5t51 -72.5l-34 -9q-23 77 -111 77q-138 0 -141 -201q46 70 145 70q71 0 112.5 -37.5t41.5 -100.5q0 -65 -43.5 -105t-115.5 -40zM224 21q56 0 90 31.5t34 82.5t-33 80.5t-90 29.5q-52 0 -88 -24
t-49 -63q4 -67 40 -102t96 -35z" />
    <glyph glyph-name="seven.dnom" horiz-adv-x="372" 
d="M137 0h-36q16 241 200 396h-276v31h322v-29q-194 -158 -210 -398z" />
    <glyph glyph-name="eight.dnom" horiz-adv-x="448" 
d="M351 28q-49 -35 -127 -35t-127 35q-48 34 -48 93q0 41 27 70.5t75 39.5v2q-39 10 -61.5 35.5t-22.5 59.5q0 50 42.5 79t114.5 29t114.5 -29t42.5 -79q0 -34 -22.5 -59.5t-61.5 -35.5v-2q48 -10 75 -39t27 -71q0 -59 -48 -93zM134 266q32 -21 90 -21t90 21t32 59
q0 39 -32.5 60.5t-89.5 21.5t-89.5 -21.5t-32.5 -60.5q0 -38 32 -59zM122 50q37 -28 102 -28t102 28q37 27 37 73q0 45 -36.5 69t-102.5 24q-67 0 -103 -24.5t-36 -68.5q0 -46 37 -73z" />
    <glyph glyph-name="nine.dnom" horiz-adv-x="433" 
d="M209 -9q-57 0 -95 26t-51 74l34 8q23 -77 111 -77q138 0 141 201q-45 -70 -145 -70q-71 0 -112.5 37.5t-41.5 100.5q0 65 43.5 105t115.5 40q174 0 174 -209q0 -115 -44 -175.5t-130 -60.5zM208 183q52 0 88 23.5t49 62.5q-4 67 -40 102t-96 35q-56 0 -90 -31t-34 -82
t33 -80.5t90 -29.5z" />
    <glyph glyph-name="zero.numr" horiz-adv-x="448" 
d="M400 534q0 -222 -176 -222t-176 222q0 223 176 223t176 -223zM224 344q139 0 139 190t-139 190t-139 -190q0 -97 34 -143.5t105 -46.5z" />
    <glyph glyph-name="one.numr" horiz-adv-x="307" 
d="M217 321h-35v297h-137v29h86q27 0 40 9t14 31l1 61h31v-427z" />
    <glyph glyph-name="two.numr" horiz-adv-x="460" 
d="M389 321h-316q0 116 131 178l65 31q83 39 83 102q0 41 -31 67t-87 26q-116 0 -119 -113h-37q1 71 42 108t114 37q71 0 112.5 -35t41.5 -90q0 -43 -23.5 -73t-79.5 -56l-55 -27q-107 -51 -115 -123h274v-32z" />
    <glyph glyph-name="three.numr" horiz-adv-x="433" 
d="M218 312q-77 0 -122.5 36t-45.5 97h36q1 -48 35.5 -75.5t97.5 -27.5q60 0 94 25t34 71q0 42 -32.5 66.5t-89.5 24.5h-34v32h34q48 0 74.5 22t26.5 59q0 39 -31 61.5t-83 22.5q-54 0 -84.5 -24t-31.5 -69h-36q0 57 40.5 90.5t110.5 33.5q68 0 109.5 -30.5t41.5 -81.5
q0 -36 -20 -62t-56 -35v-1q43 -9 70 -39t27 -71q0 -57 -45 -91t-120 -34z" />
    <glyph glyph-name="four.numr" horiz-adv-x="428" 
d="M315 321h-35v113l-243 -1v31l242 284h36v-286l76 1v-30l-76 1v-113zM278 704l-206 -241l208 -1v242h-2z" />
    <glyph glyph-name="five.numr" horiz-adv-x="432" 
d="M214 309q-65 0 -107.5 27t-56.5 76l36 8q10 -37 44 -58.5t84 -21.5q62 0 97.5 30.5t35.5 81.5t-34.5 81.5t-94.5 30.5q-78 0 -116 -51l-40 8l44 227h248v-31h-223l-31 -168l2 -2q42 47 122 47q73 0 115.5 -38.5t42.5 -101.5q0 -65 -45.5 -105t-122.5 -40z" />
    <glyph glyph-name="six.numr" horiz-adv-x="433" 
d="M224 312q-174 0 -174 209q0 115 44.5 175.5t130.5 60.5q56 0 94 -26.5t51 -72.5l-34 -9q-23 77 -111 77q-138 0 -141 -201q46 70 145 70q71 0 112.5 -37.5t41.5 -100.5q0 -65 -43.5 -105t-115.5 -40zM224 342q56 0 90 31.5t34 82.5t-33 80.5t-90 29.5q-52 0 -88 -24
t-49 -63q4 -67 40 -102t96 -35z" />
    <glyph glyph-name="seven.numr" horiz-adv-x="372" 
d="M137 321h-36q16 241 200 396h-276v31h322v-29q-194 -158 -210 -398z" />
    <glyph glyph-name="eight.numr" horiz-adv-x="448" 
d="M351 349q-49 -35 -127 -35t-127 35q-48 35 -48 93q0 41 27 70.5t75 39.5v2q-39 10 -61.5 35.5t-22.5 59.5q0 50 42.5 79t114.5 29t114.5 -29t42.5 -79q0 -34 -22.5 -59.5t-61.5 -35.5v-2q48 -10 75 -39t27 -71q0 -58 -48 -93zM134 587q32 -21 90 -21t90 21t32 59
q0 39 -32.5 60.5t-89.5 21.5t-89.5 -21.5t-32.5 -60.5q0 -38 32 -59zM122 371q37 -28 102 -28t102 28q37 27 37 73q0 45 -36.5 69t-102.5 24q-67 0 -103 -24.5t-36 -68.5q0 -46 37 -73z" />
    <glyph glyph-name="nine.numr" horiz-adv-x="433" 
d="M209 312q-57 0 -95 26t-51 74l34 8q23 -77 111 -77q138 0 141 201q-45 -70 -145 -70q-71 0 -112.5 37.5t-41.5 100.5q0 65 43.5 105t115.5 40q174 0 174 -209q0 -115 -44 -175.5t-130 -60.5zM208 504q52 0 88 23.5t49 62.5q-4 67 -40 102t-96 35q-56 0 -90 -31t-34 -82
t33 -80.5t90 -29.5z" />
    <glyph glyph-name="zero.tf" 
d="M555 356q0 -364 -235 -364t-235 364t235 364t235 -364zM174 108q47 -80 146 -80t147 80q47 80 47 248t-47 248q-48 80 -147 80t-146 -80q-48 -80 -48 -248t48 -248z" />
    <glyph glyph-name="one.tf" 
d="M366 712v-676h225v-36h-491v36h226v604q-33 -38 -86.5 -62t-112.5 -28v36q68 5 121.5 37.5t79.5 88.5h38z" />
    <glyph glyph-name="two.tf" 
d="M544 0h-452q2 90 49 158t145 123l93 54q68 38 98.5 80.5t30.5 98.5q0 74 -48 121t-132 47q-86 0 -134 -49.5t-48 -149.5v-7h-40v8q0 114 60 174.5t162 60.5q104 0 162 -57q58 -58 58 -146q0 -128 -145 -210l-85 -49q-91 -52 -132.5 -105t-44.5 -115h403v-37z" />
    <glyph glyph-name="three.tf" 
d="M323 -9q-116 0 -186 61q-71 62 -72 160h40q2 -84 61 -134t158 -50q96 0 153 46t57 124q0 74 -51.5 117t-142.5 43h-59v37h50q77 0 120.5 39t43.5 103q0 69 -48.5 108t-133.5 39q-88 0 -134.5 -43.5t-48.5 -126.5h-40q2 97 61 151.5t163 54.5q100 0 161 -48.5t61 -131.5
q0 -121 -122 -159v-3q76 -13 118.5 -61t42.5 -119q0 -94 -69 -150q-70 -57 -183 -57z" />
    <glyph glyph-name="four.tf" 
d="M464 712v-483h110v-36h-110v-193h-40v193h-358v37l368 482h30zM109 229h315v409h-2z" />
    <glyph glyph-name="five.tf" 
d="M315 -16q-95 0 -156 52t-72 140h40q10 -72 60.5 -114.5t128.5 -42.5q89 0 141.5 55.5t52.5 148.5q0 91 -50.5 145.5t-136.5 54.5q-117 0 -172 -94l-45 4l65 379h344v-37h-315l-51 -303l2 -1q62 87 178 87q102 0 162 -65q60 -66 60 -169q0 -107 -63 -173q-63 -67 -173 -67
z" />
    <glyph glyph-name="six.tf" 
d="M335 453q100 0 159 -62q58 -61 58 -162q0 -107 -61 -171q-61 -66 -162 -66q-121 0 -182 87q-60 79 -60 258q0 188 62 286t183 98q86 0 140 -48t61 -132h-39q-8 69 -50.5 107t-111.5 38q-206 0 -206 -346q0 -16 1 -20q28 63 82 98t126 35zM330 26q82 0 132 55.5t50 145.5
q0 87 -49 139t-133 52q-78 0 -130.5 -46.5t-67.5 -126.5q8 -95 46 -147q53 -72 152 -72z" />
    <glyph glyph-name="seven.tf" 
d="M246 0h-42q12 200 89 371t212 303h-422v38h473v-32q-288 -266 -310 -680z" />
    <glyph glyph-name="eight.tf" 
d="M506 47q-73 -56 -186 -56q-114 0 -185 56q-72 55 -72 152q0 72 42.5 120t120.5 64v2q-66 16 -101 57.5t-35 100.5q0 81 62 129t168 48t168 -48t62 -129q0 -59 -35.5 -100.5t-101.5 -57.5v-2q80 -16 122 -63.5t42 -120.5q0 -96 -71 -152zM179 437q49 -37 141 -37t142 37
q50 38 50 104q0 68 -51 106t-141 38t-141 -37.5t-51 -106.5q0 -67 51 -104zM163 74q59 -48 157 -48q100 0 158 48q58 46 58 126q0 78 -57 121.5t-159 43.5q-103 0 -159.5 -43.5t-56.5 -121.5q0 -79 59 -126z" />
    <glyph glyph-name="nine.tf" 
d="M493 633q60 -83 60 -258q0 -188 -62 -286.5t-183 -98.5q-86 0 -140 48.5t-61 132.5h39q8 -70 51 -108t111 -38q206 0 206 347q0 15 -1 20q-28 -63 -82 -98t-126 -35q-99 0 -158 62t-59 162q0 105 62 172q62 65 161 65q121 0 182 -87zM310 293q78 0 130.5 46.5t67.5 127.5
q-8 94 -46 146q-53 72 -152 72q-82 0 -132 -55t-50 -145q0 -87 49 -139.5t133 -52.5z" />
    <glyph glyph-name="zero.tf.zero" 
d="M320 720q235 0 235 -364t-235 -364t-235 364t235 364zM126 356q0 -192 62 -269l241 562q-43 35 -109 35q-99 0 -146.5 -80t-47.5 -248zM320 28q99 0 146.5 80t47.5 248q0 192 -62 269l-240 -562q41 -35 108 -35z" />
    <glyph glyph-name="period.ss01" horiz-adv-x="254" 
d="M154 1q-10 -10 -26 -10t-27 10t-11 26t11 26t27 10t26 -10t10 -26t-10 -26z" />
    <glyph glyph-name="comma.ss01" horiz-adv-x="256" 
d="M129 63q39 0 39 -44v-98q0 -68 -65 -68h-6v25h7q38 0 38 38v75h-13q-26 0 -36.5 18t0.5 36t36 18z" />
    <glyph glyph-name="colon.ss01" horiz-adv-x="250" 
d="M152 407q-11 -10 -26.5 -10t-26.5 10q-11 9 -11 25t11 26t26.5 10t26.5 -10q10 -10 10 -26t-10 -25zM152 1q-10 -10 -26 -10t-27 10t-11 26t11 26t27 10t26 -10t10 -26t-10 -26z" />
    <glyph glyph-name="semicolon.ss01" horiz-adv-x="258" 
d="M129 397q-23 -2 -32.5 16.5t0 37.5t32.5 17q23 2 32 -17t0 -37.5t-32 -16.5zM130 63q40 0 40 -44v-98q0 -68 -65 -68h-7v25h8q38 0 38 38v75h-14q-26 0 -36 18t0 36t36 18z" />
    <glyph glyph-name="ellipsis.ss01" horiz-adv-x="763" 
d="M154 1q-10 -10 -26 -10t-27 10t-11 26t11 26t27 10t26 -10t10 -26t-10 -26zM381 -9q-23 -2 -32 17t0 38t32 17q24 0 33.5 -18t0 -36t-33.5 -18zM636 -9q-24 0 -33.5 18t0 36t33.5 18q23 2 32 -17t0 -38t-32 -17z" />
    <glyph glyph-name="exclam.ss01" horiz-adv-x="262" 
d="M142 168h-22l-9 339v205h40v-205zM157 1q-10 -10 -26 -10t-26 10t-10 25t10 25t26 10t26 -10t10 -25t-10 -25z" />
    <glyph glyph-name="exclamdown.ss01" horiz-adv-x="262" 
d="M157 469q-17 -16 -39.5 -7.5t-22.5 31.5q0 22 18 31t36 0t18 -31q0 -15 -10 -24zM151 -204h-40v205l9 339h22l9 -339v-205z" />
    <glyph glyph-name="question.ss01" horiz-adv-x="608" 
d="M305 170h-38v23q0 65 24 105q22 39 92 79q61 35 85.5 71t24.5 85q0 74 -51.5 114t-141.5 40q-189 0 -200 -185h-39q3 104 65 161t174 57q107 0 169 -49t62 -139q0 -55 -25.5 -96.5t-84.5 -76.5l-34 -21q-50 -32 -66 -62q-16 -31 -16 -91v-15zM287 -9q-22 -1 -31.5 17
t0 36t31.5 17q23 0 32 -17.5t0 -35t-32 -17.5z" />
    <glyph glyph-name="questiondown.ss01" horiz-adv-x="608" 
d="M320 454q-22 -2 -31.5 16t0 36t31.5 17q16 0 26.5 -9.5t10.5 -25.5q0 -15 -10.5 -24.5t-26.5 -9.5zM308 -211q-106 0 -169 49.5t-63 138.5q0 55 26 96.5t85 77.5l34 21q48 29 65 62q16 31 16 91v19h39v-27q0 -65 -23 -105q-23 -39 -93 -80q-61 -34 -86 -70.5t-25 -85.5
q0 -74 51.5 -113.5t142.5 -39.5q189 0 200 184h39q-4 -103 -65.5 -160.5t-173.5 -57.5z" />
    <glyph glyph-name="periodcentered.ss01" horiz-adv-x="254" 
d="M154 323q-10 -10 -26.5 -10t-26.5 10q-11 10 -11 26t11 26q10 10 26.5 10t26.5 -10t10 -26t-10 -26z" />
    <glyph glyph-name="bullet.ss01" horiz-adv-x="308" 
d="M200 240q-21 -16 -46 -17t-45.5 17t-18.5 45q0 27 18 44.5t46 17.5t46 -17.5t18 -44.5q0 -29 -18 -45z" />
    <glyph glyph-name="uni203D.ss01" horiz-adv-x="608" 
d="M300 720q107 0 169 -49t62 -139q0 -55 -25.5 -96.5t-83.5 -76.5l-35 -21q-50 -30 -65 -62q-16 -33 -17 -103v-3h-28l-6 269v109h40v-109l-3 -132q23 35 76 66q60 36 84.5 72.5t24.5 86.5q0 74 -52 114.5t-141 40.5q-96 0 -147 -47.5t-54 -137.5h-38q3 104 65 161t174 57z
M292 61q22 1 31.5 -17t0 -36t-31.5 -17q-23 0 -32 17.5t0 35t32 17.5z" />
    <glyph glyph-name="uni2E18.ss01" horiz-adv-x="608" 
d="M342 469q-17 -16 -39.5 -7.5t-22.5 31.5q0 22 18 31t36 0t18 -31q0 -15 -10 -24zM508 14h39q-4 -104 -65.5 -161t-173.5 -57q-107 0 -169.5 49t-62.5 139q0 55 25.5 96.5t84.5 76.5l35 21q43 26 60 54q15 25 20 79l1 36h29l6 -270v-109h-41v109l3 131q-23 -33 -76 -65
q-60 -36 -84.5 -72.5t-24.5 -86.5q0 -75 51.5 -115t142.5 -40q95 0 146.5 48t53.5 137z" />
    <glyph glyph-name="period.tf.ss01" 
d="M347 1q-11 -10 -27 -10t-26 10t-10 26t10 26t26 10t27 -10t11 -26t-11 -26z" />
    <glyph glyph-name="comma.tf.ss01" 
d="M321 63q40 0 40 -44v-98q0 -68 -65 -68h-7v25h8q38 0 38 38v75h-14q-25 0 -36 18t0 36t36 18z" />
    <glyph glyph-name="colon.tf.ss01" 
d="M347 407q-11 -10 -27 -10t-26 10q-10 9 -10 25t10 26t26.5 10t26.5 -10q11 -10 11 -26t-11 -25zM347 1q-11 -10 -27 -10t-26 10t-10 26t10 26t26 10t27 -10t11 -26t-11 -26z" />
    <glyph glyph-name="semicolon.tf.ss01" 
d="M320 397q-23 -2 -32.5 16.5t0 37.5t32.5 17q23 2 32 -17t0 -37.5t-32 -16.5zM321 63q40 0 40 -44v-98q0 -68 -65 -68h-7v25h8q38 0 38 38v75h-14q-25 0 -36 18t0 36t36 18z" />
    <glyph glyph-name="period.tf" 
d="M358 0h-75v64h75v-64z" />
    <glyph glyph-name="comma.tf" 
d="M292 -147h-8v25h9q38 0 38 38v87l-47 -5v63h73v-140q0 -68 -65 -68z" />
    <glyph glyph-name="colon.tf" 
d="M358 406h-75v64h75v-64zM358 0h-75v64h75v-64z" />
    <glyph glyph-name="semicolon.tf" 
d="M355 406h-75v64h75v-64zM296 -147h-8v25h8q38 0 38 38v87l-47 -5v63h73v-140q0 -68 -64 -68z" />
    <glyph glyph-name="parenleft.case" horiz-adv-x="251" 
d="M213 -35h-40q-119 172 -119 387q0 225 119 395h40q-118 -172 -118 -395q0 -215 118 -387z" />
    <glyph glyph-name="parenright.case" horiz-adv-x="251" 
d="M78 -35h-40q118 172 118 387q0 223 -118 395h40q118 -169 118 -395q0 -215 -118 -387z" />
    <glyph glyph-name="braceleft.case" horiz-adv-x="305" 
d="M267 -36h-62q-85 0 -85 93v202q0 43 -18 61.5t-64 19.5v33q46 0 64 19.5t18 62.5v199q0 93 85 93h62v-34h-47q-61 0 -61 -66v-194q0 -85 -65 -96v-1q65 -11 65 -96v-194q0 -67 61 -67h47v-35z" />
    <glyph glyph-name="braceright.case" horiz-adv-x="305" 
d="M100 -36h-62v35h47q60 0 60 67v194q0 86 66 96v1q-66 11 -66 96v194q0 66 -59 66h-48v34h62q85 0 85 -93v-199q0 -44 18 -63t64 -19v-33q-46 -1 -64 -19.5t-18 -61.5v-202q0 -93 -85 -93z" />
    <glyph glyph-name="bracketleft.case" horiz-adv-x="267" 
d="M228 -35h-153v782h153v-34h-113v-714h113v-34z" />
    <glyph glyph-name="bracketright.case" horiz-adv-x="267" 
d="M191 -35h-153v34h114v714h-114v34h153v-782z" />
    <glyph glyph-name="hyphen.case" horiz-adv-x="377" 
d="M329 338h-280v37h280v-37z" />
    <glyph glyph-name="endash.case" horiz-adv-x="532" 
d="M484 338h-435v37h435v-37z" />
    <glyph glyph-name="emdash.case" horiz-adv-x="826" 
d="M778 338h-729v37h729v-37z" />
    <glyph glyph-name="hyphen.tf" 
d="M460 231h-280v37h280v-37z" />
    <glyph glyph-name="guillemotleft.case" horiz-adv-x="710" 
d="M340 130v-46l-250 244v46l250 244v-47l-224 -220zM620 130v-46l-250 244v46l250 244v-47l-224 -220z" />
    <glyph glyph-name="guillemotright.case" horiz-adv-x="710" 
d="M340 328l-250 -244v46l223 221l-223 220v47l250 -244v-46zM620 328l-250 -244v46l223 221l-223 220v47l250 -244v-46z" />
    <glyph glyph-name="guilsinglleft.case" horiz-adv-x="430" 
d="M340 130v-46l-250 244v46l250 244v-47l-224 -220z" />
    <glyph glyph-name="guilsinglright.case" horiz-adv-x="430" 
d="M340 328l-250 -244v46l223 221l-223 220v47l250 -244v-46z" />
    <glyph glyph-name="quotesinglbase.ss01" horiz-adv-x="263" 
d="M132 63q40 0 40 -44v-98q0 -68 -65 -68h-7v25h8q38 0 38 38v75h-14q-26 0 -36 18t0 36t36 18z" />
    <glyph glyph-name="quotedblbase.ss01" horiz-adv-x="402" 
d="M132 63q40 0 40 -44v-98q0 -68 -65 -68h-7v25h8q38 0 38 38v75h-14q-26 0 -36 18t0 36t36 18zM271 63q40 0 40 -44v-98q0 -68 -65 -68h-7v25h8q38 0 38 38v75h-14q-25 0 -36 18t0 36t36 18z" />
    <glyph glyph-name="quotedblleft.ss01" horiz-adv-x="319" 
d="M80 576h13q25 2 36 -17t0 -37.5t-36 -16.5q-39 0 -39 44v98q0 67 65 67h6v-25h-7q-38 0 -38 -38v-75zM219 576h13q26 2 36.5 -17t0 -37.5t-36.5 -16.5q-39 0 -39 44v98q0 67 65 67h6v-25h-7q-38 0 -38 -38v-75z" />
    <glyph glyph-name="quotedblright.ss01" horiz-adv-x="318" 
d="M86 714q40 0 40 -44v-98q0 -68 -65 -68h-7v25h8q38 0 38 38v76h-14q-25 -2 -36 16.5t0 37.5t36 17zM225 714q39 0 39 -44v-98q0 -68 -64 -68h-7v25h7q38 0 38 38v76h-13q-25 -2 -36 16.5t0 37.5t36 17z" />
    <glyph glyph-name="quoteleft.ss01" horiz-adv-x="180" 
d="M80 576h13q25 2 36 -17t0 -37.5t-36 -16.5q-39 0 -39 44v98q0 67 65 67h6v-25h-7q-38 0 -38 -38v-75z" />
    <glyph glyph-name="quoteright.ss01" horiz-adv-x="180" 
d="M86 714q40 0 40 -44v-98q0 -68 -65 -68h-7v25h8q38 0 38 38v76h-14q-25 -2 -36 16.5t0 37.5t36 17z" />
    <glyph glyph-name="hyphen.dnom" horiz-adv-x="332" 
d="M270 157h-208v31h208v-31z" />
    <glyph glyph-name="parenleft.dnom" horiz-adv-x="287" 
d="M226 -135h-35q-113 137 -113 311q0 181 113 317h35q-114 -137 -114 -317q0 -172 114 -311z" />
    <glyph glyph-name="parenright.dnom" horiz-adv-x="287" 
d="M96 -135h-34q113 140 113 311q0 180 -113 317h34q113 -137 113 -317q0 -171 -113 -311z" />
    <glyph glyph-name="braceleft.dnom" horiz-adv-x="341" 
d="M279 -135h-59q-80 0 -80 78v162q0 32 -17 46.5t-61 15.5v26q44 0 61 14.5t17 47.5v160q0 37 21 57.5t59 20.5h59v-27h-47q-59 0 -59 -59v-156q0 -64 -60 -70v-2q60 -7 60 -71v-157q0 -58 59 -58h47v-28z" />
    <glyph glyph-name="braceright.dnom" horiz-adv-x="341" 
d="M120 -135h-58v27h46q60 0 60 59v158q0 63 60 71v1q-60 7 -60 70v156q0 59 -60 59h-46v27h58q39 0 60 -20.5t21 -57.5v-159q0 -34 17 -48.5t61 -14.5v-26q-44 0 -61 -14.5t-17 -47.5v-162q0 -78 -81 -78z" />
    <glyph glyph-name="bracketleft.dnom" horiz-adv-x="305" 
d="M243 -135h-145v628h145v-27h-112v-573h112v-28z" />
    <glyph glyph-name="bracketright.dnom" horiz-adv-x="305" 
d="M207 -135h-145v28h112v573h-112v27h145v-628z" />
    <glyph glyph-name="period.dnom" horiz-adv-x="228" 
d="M139 0h-49v47h49v-47z" />
    <glyph glyph-name="comma.dnom" horiz-adv-x="230" 
d="M97 -92h-7v21h6q23 0 23 23v54l-29 -4v44h51v-91q0 -47 -44 -47z" />
    <glyph glyph-name="hyphen.numr" horiz-adv-x="332" 
d="M270 529h-208v31h208v-31z" />
    <glyph glyph-name="parenleft.numr" horiz-adv-x="287" 
d="M226 237h-35q-113 137 -113 311q0 181 113 317h35q-114 -137 -114 -317q0 -172 114 -311z" />
    <glyph glyph-name="parenright.numr" horiz-adv-x="287" 
d="M96 237h-34q113 140 113 311q0 180 -113 317h34q113 -137 113 -317q0 -171 -113 -311z" />
    <glyph glyph-name="braceleft.numr" horiz-adv-x="341" 
d="M279 237h-59q-80 0 -80 78v162q0 32 -17 46.5t-61 15.5v26q44 0 61 14.5t17 47.5v160q0 37 21 57.5t59 20.5h59v-27h-47q-59 0 -59 -59v-156q0 -64 -60 -70v-2q60 -7 60 -71v-157q0 -58 59 -58h47v-28z" />
    <glyph glyph-name="braceright.numr" horiz-adv-x="341" 
d="M120 237h-58v27h46q60 0 60 59v158q0 63 60 71v1q-60 7 -60 70v156q0 59 -60 59h-46v27h58q39 0 60 -20.5t21 -57.5v-159q0 -34 17 -48.5t61 -14.5v-26q-44 0 -61 -14.5t-17 -47.5v-162q0 -78 -81 -78z" />
    <glyph glyph-name="bracketleft.numr" horiz-adv-x="305" 
d="M243 237h-145v628h145v-27h-112v-573h112v-28z" />
    <glyph glyph-name="bracketright.numr" horiz-adv-x="305" 
d="M207 237h-145v28h112v573h-112v27h145v-628z" />
    <glyph glyph-name="period.numr" horiz-adv-x="228" 
d="M139 372h-49v47h49v-47z" />
    <glyph glyph-name="comma.numr" horiz-adv-x="230" 
d="M97 280h-7v22h6q23 0 23 23v53l-29 -4v44h51v-91q0 -47 -44 -47z" />
    <glyph glyph-name="period.dnom.ss01" horiz-adv-x="240" 
d="M142 1q-14 -13 -33 -6t-19 26q0 17 15 23.5t30 0t15 -23.5q0 -12 -8 -20z" />
    <glyph glyph-name="comma.dnom.ss01" horiz-adv-x="236" 
d="M119 48q27 0 27 -31v-64q0 -47 -44 -47h-5v21h5q23 0 23 23v48h-6q-29 0 -29 24q0 11 8 18.5t21 7.5z" />
    <glyph glyph-name="period.numr.ss01" horiz-adv-x="240" 
d="M142 375q-14 -13 -33 -6t-19 26q0 17 15 23.5t30 0t15 -23.5q0 -12 -8 -20z" />
    <glyph glyph-name="comma.numr.ss01" horiz-adv-x="236" 
d="M119 422q27 0 27 -31v-64q0 -47 -44 -47h-5v21h5q23 0 23 23v48h-6q-29 0 -29 24q0 11 8 18.5t21 7.5z" />
    <glyph glyph-name="period.subs.ss01" horiz-adv-x="240" 
d="M142 -172q-14 -12 -33 -5t-19 26q0 17 15 23.5t30 0t15 -23.5q0 -13 -8 -21z" />
    <glyph glyph-name="comma.subs.ss01" horiz-adv-x="236" 
d="M119 -124q27 0 27 -31v-64q0 -47 -44 -47h-5v21h5q23 0 23 23v48h-6q-29 0 -29 24q0 11 8 18.5t21 7.5z" />
    <glyph glyph-name="period.sups.ss01" horiz-adv-x="240" 
d="M142 375q-14 -13 -33 -6t-19 26q0 17 15 23.5t30 0t15 -23.5q0 -12 -8 -20z" />
    <glyph glyph-name="comma.sups.ss01" horiz-adv-x="236" 
d="M119 422q27 0 27 -31v-64q0 -47 -44 -47h-5v21h5q23 0 23 23v48h-6q-29 0 -29 24q0 11 8 18.5t21 7.5z" />
    <glyph glyph-name="hyphen.subs" horiz-adv-x="332" 
d="M270 -17h-208v31h208v-31z" />
    <glyph glyph-name="braceleft.subs" horiz-adv-x="341" 
d="M279 -309h-59q-80 0 -80 78v162q0 32 -17 46.5t-61 15.5v26q44 0 61 14.5t17 47.5v160q0 37 21 57.5t59 20.5h59v-27h-47q-59 0 -59 -59v-156q0 -64 -60 -70v-2q60 -7 60 -71v-157q0 -58 59 -58h47v-28z" />
    <glyph glyph-name="braceright.subs" horiz-adv-x="341" 
d="M120 -309h-58v27h46q60 0 60 59v158q0 63 60 71v1q-60 7 -60 70v156q0 59 -60 59h-46v27h58q39 0 60 -20.5t21 -57.5v-159q0 -34 17 -48.5t61 -14.5v-26q-44 0 -61 -14.5t-17 -47.5v-162q0 -78 -81 -78z" />
    <glyph glyph-name="bracketleft.subs" horiz-adv-x="305" 
d="M243 -309h-145v628h145v-27h-112v-573h112v-28z" />
    <glyph glyph-name="bracketright.subs" horiz-adv-x="305" 
d="M207 -309h-145v28h112v573h-112v27h145v-628z" />
    <glyph glyph-name="period.subs" horiz-adv-x="228" 
d="M139 -174h-49v47h49v-47z" />
    <glyph glyph-name="comma.subs" horiz-adv-x="230" 
d="M97 -266h-7v21h6q23 0 23 23v54l-29 -4v44h51v-91q0 -47 -44 -47z" />
    <glyph glyph-name="hyphen.sups" horiz-adv-x="332" 
d="M270 529h-208v31h208v-31z" />
    <glyph glyph-name="braceleft.sups" horiz-adv-x="341" 
d="M279 237h-59q-80 0 -80 78v162q0 32 -17 46.5t-61 15.5v26q44 0 61 14.5t17 47.5v160q0 37 21 57.5t59 20.5h59v-27h-47q-59 0 -59 -59v-156q0 -64 -60 -70v-2q60 -7 60 -71v-157q0 -58 59 -58h47v-28z" />
    <glyph glyph-name="braceright.sups" horiz-adv-x="341" 
d="M120 237h-58v27h46q60 0 60 59v158q0 63 60 71v1q-60 7 -60 70v156q0 59 -60 59h-46v27h58q39 0 60 -20.5t21 -57.5v-159q0 -34 17 -48.5t61 -14.5v-26q-44 0 -61 -14.5t-17 -47.5v-162q0 -78 -81 -78z" />
    <glyph glyph-name="bracketleft.sups" horiz-adv-x="305" 
d="M243 237h-145v628h145v-27h-112v-573h112v-28z" />
    <glyph glyph-name="bracketright.sups" horiz-adv-x="305" 
d="M207 237h-145v28h112v573h-112v27h145v-628z" />
    <glyph glyph-name="period.sups" horiz-adv-x="228" 
d="M139 372h-49v47h49v-47z" />
    <glyph glyph-name="comma.sups" horiz-adv-x="230" 
d="M97 280h-7v22h6q23 0 23 23v53l-29 -4v44h51v-91q0 -47 -44 -47z" />
    <glyph glyph-name="Euro.micro" 
d="M469 683q-102 0 -168 -55t-89 -159h392v-37h-568v37h133q24 120 101.5 185.5t198.5 65.5q75 0 135 -24v-39q-60 26 -135 26zM166 255h-130v37h568v-37h-396q22 -110 89.5 -169t171.5 -59q72 0 135 26v-39q-63 -24 -135 -24q-126 0 -204 69.5t-99 195.5z" />
    <glyph glyph-name="uni20BA.micro" 
d="M224 510l238 125v-40l-421 -220v39l143 75v223h40v-202zM563 246h37q-7 -115 -88 -180q-80 -66 -203 -66h-125v260l-143 -74v39l421 220v-39l-238 -125v-244h85q109 0 177 55.5t77 153.5z" />
    <glyph glyph-name="uni20B9.micro" 
d="M588 712v-36h-208q24 -72 25 -142h183v-36h-184q-5 -61 -42.5 -103t-97.5 -55q53 -5 83 -33t48 -89l62 -218h-42l-60 209q-18 64 -52 88q-35 23 -111 23h-140v36h146q72 0 116 37.5t49 104.5h-311v36h312q-1 70 -25 142h-287v36h536z" />
    <glyph glyph-name="sterling.micro" 
d="M326 36h253v-36h-517v36h227q-1 156 -73 272l-154 -4v34l137 -3l-30 46q-57 90 -57 160q0 84 55 133.5t149 49.5q92 0 147.5 -49.5t62.5 -135.5h-39q-7 71 -52.5 110.5t-118.5 39.5q-75 0 -119 -40t-44 -109q0 -66 49 -142l40 -64l211 4v-34l-195 4q67 -113 68 -272z" />
    <glyph glyph-name="yen.micro" 
d="M584 712h47l-267 -386h215v-36h-513v36h214l-271 386h49l249 -358l16 -25l15 25zM302 145h-236v36h513v-36h-237v-145h-40v145z" />
    <glyph glyph-name="equal.sups" horiz-adv-x="524" 
d="M460 612h-395v30h395v-30zM460 462h-395v31h395v-31z" />
    <glyph glyph-name="uni2219.ss01" horiz-adv-x="308" 
d="M200 240q-21 -16 -46 -17t-45.5 17t-18.5 45q0 27 18 44.5t46 17.5t46 -17.5t18 -44.5q0 -29 -18 -45z" />
    <glyph glyph-name="divide.ss01" 
d="M348 456q-10 -10 -27 -10t-28 10t-11 26t11 27t28 11t27 -11t10 -27t-10 -26zM572 291h-505v36h505v-36zM348 110q-10 -10 -27 -10t-28 10t-11 26t11 27t28 11t27 -11t10 -27t-10 -26z" />
    <glyph glyph-name="plus.tf" 
d="M338 328h257v-36h-257v-256h-36v256h-256v36h256v257h36v-257z" />
    <glyph glyph-name="minus.tf" 
d="M585 292h-529v36h529v-36z" />
    <glyph glyph-name="cent.dnom" horiz-adv-x="454" 
d="M234 -6q50 0 81.5 24t37.5 66h35q-7 -51 -43 -82.5t-94 -35.5v-83h-31v82q-71 5 -112 51.5t-41 120.5q0 75 40.5 120.5t112.5 49.5v88h31v-87q59 -4 95 -35.5t42 -77.5h-35q-6 37 -36 60.5t-82 23.5q-63 0 -97.5 -37.5t-34.5 -104.5q0 -68 34.5 -105.5t96.5 -37.5z" />
    <glyph glyph-name="dollar.dnom" horiz-adv-x="427" 
d="M385 63q0 -56 -42 -89t-114 -36v-87h-26v87q-74 3 -115 39.5t-46 100.5h34q7 -112 142 -112q62 0 98 25.5t36 69.5q0 73 -99 87l-70 11q-64 10 -96.5 35t-32.5 73q0 53 39.5 83.5t109.5 32.5v81h26v-82q66 -5 104 -37.5t42 -87.5h-33q-5 46 -40 72.5t-94 26.5
q-54 0 -87.5 -23.5t-33.5 -62.5q0 -36 25 -54t78 -27l70 -12q125 -20 125 -114z" />
    <glyph glyph-name="Euro.dnom" horiz-adv-x="421" 
d="M301 401q-63 0 -104 -31.5t-54 -91.5h250v-25h-364v25h78q17 73 67 113t125 40q53 0 94 -16v-31q-43 17 -92 17zM106 151h-77v26h364v-26h-251q27 -128 160 -128q46 0 91 17v-31q-45 -16 -94 -16q-76 0 -127 41.5t-66 116.5z" />
    <glyph glyph-name="plus.dnom" horiz-adv-x="537" 
d="M285 195h189v-29h-189v-166h-32v166h-188v29h188v167h32v-167z" />
    <glyph glyph-name="minus.dnom" horiz-adv-x="524" 
d="M460 165h-395v30h395v-30z" />
    <glyph glyph-name="equal.dnom" horiz-adv-x="524" 
d="M460 240h-395v30h395v-30zM460 90h-395v31h395v-31z" />
    <glyph glyph-name="cent.numr" horiz-adv-x="454" 
d="M234 366q51 0 82 24t37 66l35 -1q-7 -51 -43.5 -82t-93.5 -35v-83h-31v82q-71 5 -112 51t-41 121t40.5 120t112.5 49v89h31v-88q59 -4 95 -35t42 -77h-35q-6 37 -36 60.5t-82 23.5q-63 0 -97.5 -38t-34.5 -105t34.5 -104.5t96.5 -37.5z" />
    </font>
</defs>
</svg>
