<?xml version="1.0" standalone="no"?>
<!DOCTYPE svg PUBLIC "-//W3C//DTD SVG 1.1//EN" "http://www.w3.org/Graphics/SVG/1.1/DTD/svg11.dtd" >
<svg xmlns="http://www.w3.org/2000/svg" xmlns:xlink="http://www.w3.org/1999/xlink" version="1.1">
<metadata>
Created by FontForge 20190801 at Sun Apr 14 18:27:44 2019
 By www-data
Copyright (c) 2019 Monotype Imaging Inc. All rights reserved.
</metadata>
<defs>
<font id="HelveticaNowMicroExtBdIta" horiz-adv-x="769" >
  <font-face 
    font-family="HelveticaNowMicroExtBdIta"
    font-weight="800"
    font-style="italic"
    font-stretch="normal"
    units-per-em="1000"
    panose-1="2 11 9 4 3 2 2 9 2 4"
    ascent="875"
    descent="-125"
    x-height="548"
    cap-height="768"
    bbox="-411 -360 1872 1109"
    underline-thickness="50"
    underline-position="-300"
    slope="-12"
    unicode-range="U+000D-FEFF"
  />
<missing-glyph horiz-adv-x="1002" 
d="M857 0h-665v768h665v-768zM396 595v-422h257v422h-257z" />
    <glyph glyph-name="fi" unicode="fi" horiz-adv-x="842" 
d="M658 648l34 159h200l-34 -159h-200zM552 548l-27 -122l-158 6l-1 -46l-83 -386h-200l83 386l18 46l-131 -6l27 122l128 -6v45q15 68 37.5 103.5t70.5 56.5q49 21 131 21h152l-26 -123h-99q-30 0 -44.5 -12t-20.5 -39l-20 -52zM720 0h-200l116 548h200z" />
    <glyph glyph-name="fl" unicode="fl" horiz-adv-x="843" 
d="M552 548l-27 -122l-158 6l-1 -46l-83 -386h-200l83 386l18 46l-131 -6l27 122l128 -6v45q15 68 37.5 103.5t70.5 56.5q49 21 131 21h152l-26 -123h-99q-30 0 -44.5 -12t-20.5 -39l-20 -52zM520 0l164 768h200l-164 -768h-200z" />
    <glyph glyph-name=".notdef" horiz-adv-x="1002" 
d="M857 0h-665v768h665v-768zM396 595v-422h257v422h-257z" />
    <glyph glyph-name=".null" horiz-adv-x="0" 
 />
    <glyph glyph-name="nonmarkingreturn" horiz-adv-x="333" 
 />
    <glyph glyph-name="NULL" horiz-adv-x="0" 
 />
    <glyph glyph-name="NULL" horiz-adv-x="0" 
 />
    <glyph glyph-name="CR" unicode="&#xd;" horiz-adv-x="255" 
 />
    <glyph glyph-name="space" unicode=" " horiz-adv-x="255" 
 />
    <glyph glyph-name="exclam" unicode="!" horiz-adv-x="373" 
d="M235 271h-98l11 283l46 214h196l-45 -214zM227 0h-198l41 192h198z" />
    <glyph glyph-name="quotedbl" unicode="&#x22;" horiz-adv-x="576" 
d="M250 373h-165l84 395h164zM534 373h-164l83 395h164z" />
    <glyph glyph-name="numbersign" unicode="#" horiz-adv-x="741" 
d="M761 580l-26 -121l-133 7l-57 -163l116 7l-26 -121l-128 7l-69 -196h-117l70 199h-126l-70 -199h-118l69 196l-119 -7l26 121l131 -7l57 163l-115 -7l26 121l127 -7l69 195h118l-70 -198h126l70 198h117l-69 -195zM360 469l-59 -169h126l59 169h-126z" />
    <glyph glyph-name="dollar" unicode="$" horiz-adv-x="725" 
d="M709 579v-9l-183 -17v6q0 34 -28 52.5t-75 18.5t-74.5 -20.5t-27.5 -60.5q0 -45 64 -60l63 -16q110 -26 163 -77t53 -132q0 -119 -82 -186q-83 -68 -217 -75l-31 -147h-145l33 157q-87 19 -134.5 68t-47.5 123v9l188 19v-6q0 -38 31.5 -60.5t81.5 -22.5q53 0 85.5 22.5
t32.5 65.5q0 27 -18.5 42t-64.5 27l-67 18q-194 54 -194 195q0 111 70.5 175.5t196.5 76.5l31 147h145l-33 -153q86 -17 135 -65.5t49 -114.5z" />
    <glyph glyph-name="percent" unicode="%" horiz-adv-x="1439" 
d="M469 -15h-146l694 798h144zM327 308q-87 0 -136.5 49.5t-49.5 135.5q0 28 6 61q43 225 254 225q86 0 135.5 -49t49.5 -134q0 -29 -6 -62q-43 -226 -253 -226zM340 415q90 0 115 127q4 20 4 46q0 84 -71 84q-92 0 -116 -128q-4 -19 -4 -44q0 -41 19 -63t53 -22zM1087 -9
q-87 0 -137 49.5t-50 135.5q0 28 6 61q44 225 254 225q86 0 135.5 -49t49.5 -134q0 -29 -6 -62q-43 -226 -252 -226zM1099 98q90 0 115 127q4 20 4 46q0 41 -18.5 62.5t-51.5 21.5q-93 0 -117 -128q-4 -19 -4 -44q0 -41 19 -63t53 -22z" />
    <glyph glyph-name="ampersand" unicode="&#x26;" horiz-adv-x="892" 
d="M700 380l144 -52q-59 -72 -165 -143l131 -185h-228l-51 77q-106 -104 -248 -104q-110 0 -173 54t-63 145q0 89 65 153t191 96l-2 2q-55 82 -55 154q0 95 80 160q79 64 203 64q97 0 160 -48q62 -48 62 -127q0 -153 -223 -226l92 -130q43 50 80 110zM509 672
q-38 0 -62.5 -25.5t-24.5 -62.5q0 -34 27 -72l22 -31q49 18 79 53t30 74q0 30 -19.5 47t-51.5 17zM336 122q57 0 134 47l-110 164q-112 -54 -112 -131q0 -38 23.5 -59t64.5 -21z" />
    <glyph glyph-name="quotesingle" unicode="'" horiz-adv-x="292" 
d="M251 383h-164l82 385h164z" />
    <glyph glyph-name="parenleft" unicode="(" horiz-adv-x="435" 
d="M289 -204h-171q-60 164 -60 344q0 93 16 172q54 281 237 491h191q-183 -261 -231 -504q-21 -108 -21 -214q0 -145 39 -289z" />
    <glyph glyph-name="parenright" unicode=")" horiz-adv-x="435" 
d="M134 -204h-191q183 261 231 504q21 108 21 214q0 145 -39 289h171q60 -169 60 -344q0 -93 -16 -172q-54 -280 -237 -491z" />
    <glyph glyph-name="asterisk" unicode="*" horiz-adv-x="707" 
d="M386 395l-148 -194l-112 95l186 163l-199 48l70 137l177 -92l22 216h151l-70 -217l206 93l21 -148l-221 -41l119 -159l-135 -95z" />
    <glyph glyph-name="plus" unicode="+" 
d="M461 413h216v-146h-216v-220h-155v220h-215v146h215v221h155v-221z" />
    <glyph glyph-name="comma" unicode="," horiz-adv-x="357" 
d="M-13 -221h-27l19 92h46q86 0 99 73l21 100l-137 -30l40 188h229l-48 -234q-22 -109 -74 -150q-51 -39 -168 -39z" />
    <glyph glyph-name="hyphen" unicode="-" horiz-adv-x="372" 
d="M325 201h-308l32 157h309z" />
    <glyph glyph-name="period" unicode="." horiz-adv-x="354" 
d="M233 0h-228l43 203h228z" />
    <glyph glyph-name="slash" unicode="/" horiz-adv-x="554" 
d="M145 0h-177l485 768h178z" />
    <glyph glyph-name="zero" unicode="0" 
d="M345 -16q-127 0 -197.5 78t-70.5 216q0 63 13 125q40 193 133.5 287t246.5 94q128 0 199 -77t71 -214q0 -55 -14 -128q-38 -193 -132 -287t-249 -94zM362 152q61 0 101 53t64 174q15 74 15 122q0 114 -88 114q-59 0 -99 -52.5t-66 -173.5q-14 -72 -14 -121
q0 -116 87 -116z" />
    <glyph glyph-name="one" unicode="1" horiz-adv-x="516" 
d="M347 0h-200l101 475h-168l28 129h8q83 0 138 32q53 31 94 123l4 9h159z" />
    <glyph glyph-name="two" unicode="2" 
d="M653 0h-653q25 120 99 203q75 83 242 164l83 40q66 32 92.5 61.5t26.5 69.5q0 36 -23.5 56t-66.5 20q-97 0 -133 -112l-2 -7h-194l2 7q46 145 131.5 213.5t224.5 68.5q122 0 199 -60q76 -60 76 -158q0 -88 -48 -156q-23 -31 -61 -58q-38 -28 -75 -49q-41 -23 -94 -49
l-82 -41q-39 -20 -50 -40h342z" />
    <glyph glyph-name="three" unicode="3" 
d="M352 -16q-138 0 -218 67q-82 66 -82 182q0 22 1 29l203 15q-1 -5 -1 -20q0 -102 107 -102q58 0 91 28.5t33 77.5q0 34 -24 53t-67 19h-63l29 138h63q58 0 91.5 21.5t33.5 60.5q0 65 -90 65q-101 0 -135 -88l-188 19q40 114 129 174.5t218 60.5q121 0 194 -51
q74 -53 74 -142q0 -147 -156 -186l-1 -4q50 -16 78.5 -55.5t28.5 -93.5q0 -132 -95 -200t-254 -68z" />
    <glyph glyph-name="four" unicode="4" 
d="M708 769l-98 -458l107 15l-34 -161l-100 15l-39 -180h-185l39 180l-360 -15l38 179l412 425h220zM246 321l180 -10l54 250h-4z" />
    <glyph glyph-name="five" unicode="5" 
d="M340 -9q-131 0 -210 61q-80 60 -80 173l203 14q3 -38 29.5 -59t72.5 -21q65 0 105.5 38.5t40.5 98.5q0 39 -25.5 61t-73.5 22q-71 0 -115 -50l-187 19l158 420h515l-36 -171h-348l-47 -120l3 -2q67 46 154 46q96 0 152.5 -56t56.5 -150q0 -153 -100 -238
q-101 -86 -268 -86z" />
    <glyph glyph-name="six" unicode="6" 
d="M480 520q100 0 160 -60q60 -62 60 -158q0 -147 -91 -232q-92 -86 -245 -86q-138 0 -211 82q-74 83 -74 217q0 45 11 108q73 393 397 393q113 0 183 -52t79 -139l-182 -21q-14 56 -95 56q-62 0 -103.5 -41.5t-67.5 -135.5q75 69 179 69zM374 155q59 0 93 37t34 96
q0 41 -21.5 64.5t-62.5 23.5q-49 0 -89 -28.5t-53 -72.5q-1 -5 -1 -21q0 -46 27 -72.5t73 -26.5z" />
    <glyph glyph-name="seven" unicode="7" 
d="M395 0h-228q73 326 354 587h-373l38 181h606l-36 -171q-137 -113 -229.5 -266t-131.5 -331z" />
    <glyph glyph-name="eight" unicode="8" 
d="M347 -16q-138 0 -223 62q-85 61 -85 160q0 88 52 141t149 67l1 3q-96 37 -96 137q0 113 91 171q91 59 235 59q130 0 207 -53q76 -54 76 -142q0 -145 -166 -182l-1 -3q60 -15 92.5 -55t32.5 -97q0 -132 -103 -199q-103 -69 -262 -69zM433 464q57 0 92.5 28.5t35.5 75.5
q0 72 -99 72q-62 0 -97 -27t-35 -76q0 -73 103 -73zM358 140q65 0 105.5 32.5t40.5 86.5q0 36 -29 56.5t-83 20.5q-65 0 -103.5 -31.5t-38.5 -85.5q0 -79 108 -79z" />
    <glyph glyph-name="nine" unicode="9" 
d="M452 784q138 0 211 -82q74 -83 74 -217q0 -45 -11 -108q-37 -196 -134.5 -294.5t-263.5 -98.5q-113 0 -182.5 52t-79.5 139l182 21q14 -56 96 -56q62 0 103 41t67 135q-74 -68 -178 -68q-100 0 -160 61q-61 60 -61 157q0 147 92 233q91 85 245 85zM398 392
q49 0 89.5 28.5t53.5 72.5q1 5 1 21q0 46 -27 72.5t-74 26.5q-59 0 -92.5 -37t-33.5 -96q0 -41 21 -64.5t62 -23.5z" />
    <glyph glyph-name="colon" unicode=":" horiz-adv-x="355" 
d="M302 323h-228l43 203h228zM233 0h-228l43 203h228z" />
    <glyph glyph-name="semicolon" unicode=";" horiz-adv-x="357" 
d="M302 323h-228l43 203h228zM-13 -221h-27l19 92h46q86 0 99 73l21 100l-137 -30l40 188h229l-48 -234q-22 -109 -74 -150q-51 -39 -168 -39z" />
    <glyph glyph-name="less" unicode="&#x3c;" 
d="M110 430l547 189v-157l-423 -128l423 -129v-157l-547 189v193z" />
    <glyph glyph-name="equal" unicode="=" 
d="M676 409h-585v146h585v-146zM676 124h-585v146h585v-146z" />
    <glyph glyph-name="greater" unicode="&#x3e;" 
d="M110 462v157l547 -189v-193l-547 -189v157l424 129z" />
    <glyph glyph-name="question" unicode="?" horiz-adv-x="760" 
d="M449 262h-200l6 27q15 78 57.5 124.5t127.5 72.5q58 17 80.5 33.5t22.5 41.5q0 57 -102 57q-54 0 -84 -16.5t-43 -54.5l-198 28q64 210 345 210q141 0 218 -52t77 -145q0 -141 -181 -214l-40 -16q-40 -16 -58.5 -33.5t-24.5 -46.5zM406 0h-226l39 183h226z" />
    <glyph glyph-name="at" unicode="@" horiz-adv-x="1140" 
d="M640 750q214 0 336 -116q60 -57 82 -143t0 -194q-25 -120 -93 -189.5t-165 -69.5q-112 0 -147 92q-59 -83 -150 -83q-87 0 -136 67q-49 66 -26 186q19 99 83 157q62 57 141 57q90 0 127 -70l30 58h115l-58 -272q-15 -73 42 -73q88 0 121 156t-52 244q-86 89 -263 89
q-166 0 -271 -86t-139 -242q-39 -186 49 -292q87 -107 271 -107q101 0 210 33l-22 -110q-99 -25 -202 -25q-242 0 -357 139t-67 373q41 190 180 305q140 116 361 116zM553 165q66 -7 98 80l7 43l7 49q-7 64 -71 64q-40 0 -67 -28.5t-36 -75.5q-23 -124 62 -132z" />
    <glyph glyph-name="A" unicode="A" horiz-adv-x="833" 
d="M755 0h-212l-10 115h-296l-58 -115h-217l417 768h271zM452 542l-138 -273h206l-24 273l-4 89z" />
    <glyph glyph-name="B" unicode="B" horiz-adv-x="811" 
d="M636 409q49 -20 75.5 -64t26.5 -97q0 -118 -87 -182q-89 -66 -231 -66h-391l164 768h362q114 0 171 -51q56 -51 56 -124q0 -66 -39 -116t-107 -68zM342 460h135q39 0 65 26.5t26 65.5q0 58 -59 58h-135zM278 157h144q46 0 73.5 28t27.5 73q0 60 -68 60h-143z" />
    <glyph glyph-name="C" unicode="C" horiz-adv-x="861" 
d="M406 -17q-149 0 -237 86q-87 85 -87 230q0 51 12 107q37 176 157 278q119 99 288 99q142 0 225 -69t96 -198l-205 -24q-5 57 -39.5 89t-93.5 32q-84 0 -142 -61q-59 -62 -78 -158q-9 -42 -9 -83q0 -157 138 -157q125 0 184 129l197 -23q-53 -132 -160 -204
q-107 -73 -246 -73z" />
    <glyph glyph-name="D" unicode="D" horiz-adv-x="848" 
d="M193 768h291q163 0 248.5 -79.5t85.5 -220.5q0 -53 -11 -103q-34 -181 -143.5 -273t-304.5 -92h-330zM599 384q8 43 8 80q0 138 -138 138h-107l-94 -436h109q180 0 222 218z" />
    <glyph glyph-name="E" unicode="E" horiz-adv-x="728" 
d="M782 768l-37 -172h-385l-26 -121h350l-34 -164h-351l-29 -139h385l-37 -172h-589l164 768h589z" />
    <glyph glyph-name="F" unicode="F" horiz-adv-x="696" 
d="M750 768l-36 -172h-354l-26 -121h321l-35 -164h-321l-66 -311h-204l164 768h557z" />
    <glyph glyph-name="G" unicode="G" horiz-adv-x="910" 
d="M635 288h-170l32 147h360l-92 -435h-139l-15 75q-78 -92 -223 -92q-147 0 -226 88q-80 89 -80 228q0 51 11 103q39 182 157 281.5t300 99.5q141 0 224.5 -64.5t96.5 -185.5l-198 -38q-13 115 -141 115q-89 0 -148.5 -56.5t-83.5 -168.5q-8 -40 -8 -78q0 -75 38 -115
t107 -40q141 0 195 124z" />
    <glyph glyph-name="H" unicode="H" horiz-adv-x="839" 
d="M591 479l62 289h204l-164 -768h-204l65 306h-256l-65 -306h-204l164 768h204l-62 -289h256z" />
    <glyph glyph-name="I" unicode="I" horiz-adv-x="380" 
d="M233 0h-204l164 768h204z" />
    <glyph glyph-name="J" unicode="J" horiz-adv-x="706" 
d="M286 -16q-112 0 -179 58q-68 57 -68 150q0 40 15 96h197q-12 -40 -12 -66q0 -66 67 -66q72 0 92 89l110 523h215l-110 -523q-55 -261 -327 -261z" />
    <glyph glyph-name="K" unicode="K" horiz-adv-x="840" 
d="M651 768h257l-352 -341l210 -427h-226l-147 304l-120 -115l-40 -189h-204l164 768h204l-70 -328z" />
    <glyph glyph-name="L" unicode="L" horiz-adv-x="666" 
d="M408 768l-127 -593h332l-37 -175h-547l164 768h215z" />
    <glyph glyph-name="M" unicode="M" horiz-adv-x="1099" 
d="M562 289l239 479h316l-164 -768h-181l115 540l27 104l-47 -103l-274 -541h-205l-40 539l-4 103l-18 -103l-116 -539h-181l164 768h306l34 -479l-1 -72z" />
    <glyph glyph-name="N" unicode="N" horiz-adv-x="881" 
d="M594 265l108 503h197l-164 -768h-242l-159 507l-108 -507h-197l164 768h246z" />
    <glyph glyph-name="O" unicode="O" horiz-adv-x="921" 
d="M415 -16q-155 0 -244 84q-89 83 -89 227q0 52 12 109q37 173 162 277q124 103 298 103q154 0 243 -84q89 -86 89 -230q0 -45 -11 -106q-38 -177 -158 -278q-121 -102 -302 -102zM436 152q86 0 146.5 59t83.5 173q8 42 8 78q0 77 -37 115.5t-104 38.5q-86 0 -147.5 -59
t-84.5 -173q-8 -40 -8 -77q0 -76 38 -115.5t105 -39.5z" />
    <glyph glyph-name="P" unicode="P" horiz-adv-x="764" 
d="M193 768h308q130 0 201.5 -61t71.5 -167q0 -145 -92 -225t-252 -80h-147l-50 -235h-204zM318 399h115q57 0 93 34.5t36 91.5q0 75 -96 75h-105z" />
    <glyph glyph-name="Q" unicode="Q" horiz-adv-x="924" 
d="M875 364q-43 -205 -196 -306l82 -129l-135 -82l-63 158q-67 -21 -148 -21q-155 0 -244 84q-89 83 -89 227q0 52 12 109q37 173 162 277q124 103 298 103q154 0 243 -84q89 -86 89 -230q0 -45 -11 -106zM293 307q0 -76 38 -115.5t105 -39.5q19 0 49 5l-91 143l137 82
l63 -159q52 60 72 161q8 42 8 78q0 77 -37 115.5t-104 38.5q-86 0 -147.5 -59t-84.5 -173q-8 -40 -8 -77z" />
    <glyph glyph-name="R" unicode="R" horiz-adv-x="802" 
d="M812 598q0 -90 -56 -149t-155 -81q108 -28 108 -150q0 -7 -2 -47l-14 -171h-194l16 170q2 24 2 45q0 36 -18.5 51t-65.5 15h-140l-60 -281h-204l164 768h412q98 0 152.5 -46.5t54.5 -123.5zM327 439h115q67 0 107 29t40 82q0 59 -90 59h-136z" />
    <glyph glyph-name="S" unicode="S" horiz-adv-x="786" 
d="M351 -16q-148 0 -230.5 54.5t-82.5 156.5v10l201 20v-6q0 -85 127 -85q142 0 142 90q0 28 -19 44t-66 26l-96 21q-98 21 -151 73.5t-53 129.5q0 129 92.5 197.5t257.5 68.5q147 0 226.5 -51.5t79.5 -147.5v-7l-194 -18v7q0 34 -33.5 53t-91.5 19q-122 0 -122 -83
q0 -48 76 -61l87 -19q224 -45 224 -207q0 -143 -100 -213q-101 -72 -274 -72z" />
    <glyph glyph-name="T" unicode="T" horiz-adv-x="745" 
d="M149 768h657l-37 -172h-226l-128 -596h-204l128 596h-227z" />
    <glyph glyph-name="U" unicode="U" horiz-adv-x="852" 
d="M384 -16q-136 0 -219 59t-83 171q0 33 10 82l100 472h216l-103 -482q-4 -17 -4 -38q0 -85 101 -85q123 0 150 123l102 482h215l-104 -491q-62 -293 -381 -293z" />
    <glyph glyph-name="V" unicode="V" horiz-adv-x="790" 
d="M411 274l239 494h225l-407 -768h-250l-93 768h212l34 -494l1 -91z" />
    <glyph glyph-name="W" unicode="W" horiz-adv-x="1152" 
d="M837 340l182 428h217l-364 -768h-238l-17 508l-207 -508h-238l-47 768h193l12 -428l-5 -143l53 143l174 428h233l3 -428l-8 -146z" />
    <glyph glyph-name="X" unicode="X" horiz-adv-x="815" 
d="M634 768h239l-332 -375l195 -393h-223l-84 202l-15 45l-33 -46l-171 -201h-248l369 406l-178 362h220l70 -170l14 -43l32 42z" />
    <glyph glyph-name="Y" unicode="Y" horiz-adv-x="766" 
d="M623 768h234l-363 -469l-65 -299h-204l64 297h-1l-169 471h206l77 -244l15 -50l34 51z" />
    <glyph glyph-name="Z" unicode="Z" horiz-adv-x="775" 
d="M180 768h633l-32 -149l-476 -453h386l-35 -166h-653l32 149l466 453h-356z" />
    <glyph glyph-name="bracketleft" unicode="[" horiz-adv-x="489" 
d="M342 -204h-357l214 1007h357l-34 -165h-168l-145 -677h168z" />
    <glyph glyph-name="backslash" unicode="\" horiz-adv-x="554" 
d="M459 0h-158l-159 768h159z" />
    <glyph glyph-name="bracketright" unicode="]" horiz-adv-x="489" 
d="M300 -204h-358l35 165h169l145 677h-169l35 165h357z" />
    <glyph glyph-name="asciicircum" unicode="^" 
d="M264 768h239l189 -547h-212l-69 225q-30 106 -31 111q-21 -76 -32 -111l-69 -225h-203z" />
    <glyph glyph-name="underscore" unicode="_" horiz-adv-x="500" 
d="M409 -154h-500l17 79h500z" />
    <glyph glyph-name="grave" unicode="`" horiz-adv-x="500" 
d="M496 658h-157l-132 181h210z" />
    <glyph glyph-name="a" unicode="a" horiz-adv-x="693" 
d="M389 564q247 0 247 -147q0 -15 -5 -45l-52 -242q-11 -69 -11 -91q0 -18 4 -39h-183v63q-65 -80 -188 -80q-87 0 -136 40t-49 112q0 96 77 139q66 36 188 55l117 19q24 4 40 13q4 12 4 25q0 52 -79 52q-46 0 -70 -16t-37 -55l-168 14q24 90 101 136.5t200 46.5zM292 101
q61 0 100 52l23 107q-24 -6 -35 -8l-77 -14q-45 -9 -64.5 -28t-19.5 -50q0 -28 19 -43.5t54 -15.5z" />
    <glyph glyph-name="b" unicode="b" horiz-adv-x="709" 
d="M478 563q90 0 139 -61q50 -62 50 -159q0 -41 -9 -86q-25 -126 -100 -199q-77 -74 -178 -74q-118 0 -169 99l-29 -83h-177l163 768h200l-58 -275q67 70 168 70zM460 271q5 30 5 44q0 89 -78 89q-45 0 -77.5 -33t-46.5 -93q-4 -17 -4 -42q0 -43 20.5 -67.5t56.5 -24.5
q46 0 80 34t44 93z" />
    <glyph glyph-name="c" unicode="c" horiz-adv-x="667" 
d="M299 -17q-122 0 -189 63t-67 172q0 37 8 75q28 132 113.5 200.5t220.5 68.5q110 0 178.5 -52t75.5 -145l-190 -29q-5 83 -72 83q-96 0 -126 -144q-7 -27 -7 -58q0 -87 74 -87q71 0 108 88l182 -20q-37 -104 -115 -159.5t-194 -55.5z" />
    <glyph glyph-name="d" unicode="d" horiz-adv-x="709" 
d="M489 479l62 289h200l-164 -768h-185l7 60q-78 -75 -178 -75q-85 0 -137 58.5t-52 160.5q0 44 10 91q26 125 102 197q75 72 173 72q116 0 162 -85zM325 144q43 0 75.5 34t45.5 93q4 17 4 42q0 42 -20.5 66.5t-56.5 24.5q-44 0 -78 -33.5t-46 -94.5q-5 -32 -5 -47
q0 -42 21 -63.5t60 -21.5z" />
    <glyph glyph-name="e" unicode="e" horiz-adv-x="699" 
d="M643 235h-410q-1 -3 -1 -14q0 -46 24 -72.5t68 -26.5q69 0 112 49l170 -32q-46 -74 -121 -114.5t-169 -40.5q-127 0 -199.5 62.5t-72.5 173.5q0 38 7 70q24 127 114 200q91 74 229 74q124 0 192.5 -65t68.5 -177q0 -40 -12 -87zM381 438q-93 0 -128 -105h216v10
q0 44 -23.5 69.5t-64.5 25.5z" />
    <glyph glyph-name="f" unicode="f" horiz-adv-x="515" 
d="M573 645h-99q-30 0 -44.5 -12t-20.5 -39l-20 -52l163 6l-27 -122l-158 6l-1 -46l-83 -386h-200l83 386l18 46l-131 -6l27 122l128 -6v45q15 68 37.5 103.5t70.5 56.5q49 21 131 21h152z" />
    <glyph glyph-name="g" unicode="g" horiz-adv-x="691" 
d="M482 482l23 74h182l-105 -497q-28 -129 -104 -191.5t-205 -62.5q-114 0 -177.5 41.5t-71.5 119.5l186 24q14 -44 73 -44q41 0 64.5 23t35.5 77l12 55q-62 -59 -154 -59q-82 0 -136 54t-54 148q0 137 74 229q73 91 201 91q107 0 156 -82zM252 272q0 -37 20 -59.5t55 -22.5
q51 0 83 44q31 43 31 100q0 34 -20 54.5t-53 20.5q-52 0 -84 -41t-32 -96z" />
    <glyph glyph-name="h" unicode="h" horiz-adv-x="680" 
d="M480 563q73 0 114.5 -43.5t41.5 -117.5q0 -30 -6 -64l-73 -338h-200l68 318q3 15 3 25q0 52 -54 52q-38 0 -66.5 -28t-40.5 -77l-62 -290h-200l164 768h200l-60 -280q77 75 171 75z" />
    <glyph glyph-name="i" unicode="i" horiz-adv-x="327" 
d="M343 648h-200l34 159h200zM205 0h-200l116 548h200z" />
    <glyph glyph-name="j" unicode="j" horiz-adv-x="327" 
d="M343 648h-200l34 159h200zM-48 -214h-82l30 138h35q54 0 66 58l119 566h200l-119 -567q-22 -107 -79 -152q-55 -43 -170 -43z" />
    <glyph glyph-name="k" unicode="k" horiz-adv-x="693" 
d="M498 548h223l-270 -237l159 -311h-202l-88 206l-87 -74l-28 -132h-200l164 768h200l-91 -428z" />
    <glyph glyph-name="l" unicode="l" horiz-adv-x="328" 
d="M205 0h-200l164 768h200z" />
    <glyph glyph-name="m" unicode="m" horiz-adv-x="1033" 
d="M832 563q74 0 117.5 -41.5t43.5 -111.5q0 -25 -6 -52l-76 -358h-200l68 318l2 22q0 55 -54 55q-38 0 -66.5 -28.5t-40.5 -76.5l-62 -290h-200l68 318q0 3 0.5 7t1 6.5t0.5 4.5v4q0 55 -54 55q-38 0 -66 -27.5t-40 -73.5l-63 -294h-200l117 548h188l-10 -69q80 84 179 84
q59 0 99.5 -26.5t54.5 -74.5h5q83 101 194 101z" />
    <glyph glyph-name="n" unicode="n" horiz-adv-x="680" 
d="M480 563q73 0 114.5 -43.5t41.5 -118.5q0 -32 -8 -72l-71 -329h-200l68 318q3 15 3 25q0 52 -54 52q-38 0 -65.5 -26.5t-40.5 -74.5l-63 -294h-200l117 548h185l-8 -70q79 85 181 85z" />
    <glyph glyph-name="o" unicode="o" horiz-adv-x="691" 
d="M297 -17q-119 0 -187 62t-68 168q0 30 7 68q26 136 115 209.5t230 73.5q120 0 187.5 -62t67.5 -170q0 -35 -8 -72q-26 -136 -113 -206.5t-231 -70.5zM316 133q94 0 124 138q7 29 7 61q0 83 -71 83q-96 0 -125 -144q-6 -31 -6 -56q0 -82 71 -82z" />
    <glyph glyph-name="p" unicode="p" horiz-adv-x="710" 
d="M478 563q85 0 137 -58.5t52 -160.5q4 -140 -79 -250.5t-206 -109.5q-115 0 -162 86l-59 -274h-200l161 752h185l-7 -61q77 76 178 76zM337 144q60 0 94 54q34 52 34 121q0 41 -21.5 63t-58.5 22q-57 0 -91 -52q-35 -53 -35 -117q0 -43 20 -67t58 -24z" />
    <glyph glyph-name="q" unicode="q" horiz-adv-x="710" 
d="M497 462l30 86h177l-160 -752h-200l54 254q-74 -65 -167 -65q-85 0 -137 58.5t-52 160.5q-4 140 79 250.5t206 109.5q127 0 170 -102zM244 229q0 -41 21.5 -63t59.5 -22q41 0 71 29t45 78l7 34q2 24 2 28q0 42 -20.5 66.5t-56.5 24.5q-59 0 -94 -53q-35 -55 -35 -122z
" />
    <glyph glyph-name="r" unicode="r" horiz-adv-x="524" 
d="M484 564h42l-37 -172h-40q-142 0 -184 -111l-60 -281h-200l117 548h185l-12 -99q67 115 189 115z" />
    <glyph glyph-name="s" unicode="s" horiz-adv-x="636" 
d="M280 -23q-119 0 -189 44t-73 126l187 18q9 -67 85 -67q83 0 83 55q0 32 -53 46l-97 25q-64 15 -102.5 52.5t-38.5 96.5q0 101 78 149t206 48q115 0 177.5 -42.5t66.5 -117.5l-185 -17q-2 28 -22.5 43t-52.5 15q-75 0 -75 -47q0 -34 45 -43l83 -18q88 -19 125.5 -56
t37.5 -107q0 -98 -75.5 -150.5t-210.5 -52.5z" />
    <glyph glyph-name="t" unicode="t" horiz-adv-x="551" 
d="M362 432l-1 -46l-36 -172q-4 -12 -4 -24q0 -17 10 -23.5t35 -6.5h101l-35 -160h-139q-92 0 -136 29t-44 91q0 24 6 52l46 214l18 45l-131 -6l27 123l129 -7v48l26 123h197l-26 -121l-21 -50l165 7l-26 -123z" />
    <glyph glyph-name="u" unicode="u" horiz-adv-x="680" 
d="M413 258l61 290h200l-117 -548h-184l8 72q-79 -87 -182 -87q-72 0 -114 43.5t-42 118.5q0 29 9 72l70 329h200l-67 -318q-3 -15 -3 -25q0 -52 54 -52q38 0 66.5 28.5t39.5 76.5h1z" />
    <glyph glyph-name="v" unicode="v" horiz-adv-x="669" 
d="M357 322l118 226h210l-301 -548h-239l-76 548h203l24 -226l6 -118z" />
    <glyph glyph-name="w" unicode="w" horiz-adv-x="1019" 
d="M697 301l125 247h213l-298 -548h-190l-33 265l-6 85l-40 -85l-129 -265h-195l-75 548h197l26 -249l5 -76l33 74l117 251h183l23 -245l4 -84z" />
    <glyph glyph-name="x" unicode="x" horiz-adv-x="675" 
d="M477 548h213l-263 -265l159 -283h-209l-74 149l-134 -149h-216l282 279l-154 269h207l69 -136z" />
    <glyph glyph-name="y" unicode="y" horiz-adv-x="671" 
d="M304 218l169 330h214l-328 -572q-67 -116 -126 -153t-170 -37h-112l31 147h98q32 0 50 10.5t39 42.5l-100 562h203z" />
    <glyph glyph-name="z" unicode="z" horiz-adv-x="625" 
d="M107 548h518l-28 -132l-335 -273h288l-31 -143h-529l28 129l338 275h-280z" />
    <glyph glyph-name="braceleft" unicode="{" horiz-adv-x="508" 
d="M362 -204h-127q-135 0 -135 99q0 23 12 78l25 112q9 42 9 57q0 39 -26 56t-87 19l34 165q75 0 109.5 26.5t48.5 94.5l32 152q16 77 62 112.5t130 35.5h127l-34 -165h-44q-36 0 -53.5 -14t-24.5 -50l-20 -96q-33 -156 -205 -178v-2q134 -20 134 -126q0 -18 -8 -60l-17 -84
q-4 -15 -4 -35q0 -17 12.5 -24.5t42.5 -7.5h42z" />
    <glyph glyph-name="bar" unicode="|" horiz-adv-x="589" 
d="M399 -204h-200v1007h200v-1007z" />
    <glyph glyph-name="braceright" unicode="}" horiz-adv-x="508" 
d="M71 -204h-129l35 165h45q36 0 53.5 14t24.5 50l20 95q33 157 205 179v2q-135 19 -135 126q0 18 8 60l18 84q4 21 4 34q0 33 -55 33h-42l34 165h128q134 0 134 -99q0 -22 -12 -78l-24 -112q-9 -44 -9 -57q0 -39 26 -56t87 -19l-35 -165q-75 0 -109.5 -26.5t-48.5 -94.5
l-32 -152q-16 -77 -62 -112.5t-129 -35.5z" />
    <glyph glyph-name="asciitilde" unicode="~" 
d="M237 234h-163q0 110 45.5 169.5t134.5 59.5q44 0 91 -17.5t83 -35t54 -17.5q49 0 49 70h163q0 -110 -46 -169.5t-135 -59.5q-44 0 -90.5 17.5t-82.5 35t-54 17.5q-49 0 -49 -70z" />
    <glyph glyph-name="uni00A0" unicode="&#xa0;" horiz-adv-x="255" 
 />
    <glyph glyph-name="exclamdown" unicode="&#xa1;" horiz-adv-x="372" 
d="M302 356h-197l40 192h198zM182 -204h-196l43 199l108 282h98l-10 -282z" />
    <glyph glyph-name="cent" unicode="&#xa2;" horiz-adv-x="667" 
d="M318 130q71 0 108 88l182 -20q-66 -189 -257 -212l-30 -142h-145l32 150q-80 21 -122.5 79.5t-42.5 144.5q0 37 8 75q25 117 95.5 184.5t181.5 81.5l32 149h145l-33 -156q74 -18 118 -66.5t49 -120.5l-190 -29q-5 83 -72 83q-96 0 -126 -144q-7 -27 -7 -58q0 -87 74 -87z
" />
    <glyph glyph-name="sterling" unicode="&#xa3;" horiz-adv-x="786" 
d="M773 539l-194 -18q2 18 2 23q0 38 -28 59t-74 21q-54 0 -87 -28t-33 -74q0 -33 23 -93l10 -27l279 24l-33 -154l-211 22q9 -54 12 -130h279l-35 -164h-698l36 164h279q-6 72 -30 132l-226 -24l33 154l134 -18l-10 18q-41 74 -41 131q0 101 92 169q91 67 239 67
q132 0 208.5 -55t76.5 -155q0 -21 -3 -44z" />
    <glyph glyph-name="currency" unicode="&#xa4;" 
d="M738 632l-120 -113q33 -61 33 -135t-33 -135l120 -113l-106 -106l-113 120q-61 -33 -136 -33q-74 0 -134 33l-113 -120l-106 106l121 113q-33 61 -33 135t33 135l-121 113l106 106l113 -120q60 33 134 33q75 0 136 -33l113 120zM384 257q54 0 88.5 35.5t34.5 91.5
t-34.5 91.5t-88.5 35.5q-53 0 -88 -36t-35 -91t35 -91t88 -36z" />
    <glyph glyph-name="yen" unicode="&#xa5;" horiz-adv-x="826" 
d="M665 768h222l-275 -338h175l-21 -101h-681l22 101h179l-137 338h218l77 -229l11 -45l39 61zM284 139h-240l22 101h681l-22 -101h-237l-31 -139h-204z" />
    <glyph glyph-name="brokenbar" unicode="&#xa6;" horiz-adv-x="589" 
d="M399 447h-200v356h200v-356zM399 -204h-200v356h200v-356z" />
    <glyph glyph-name="section" unicode="&#xa7;" horiz-adv-x="752" 
d="M428 544l122 -32q149 -41 149 -160q0 -57 -36.5 -101t-102.5 -68q32 -41 32 -100q0 -99 -77 -152t-210 -53q-110 0 -172.5 37t-66.5 107l180 23q6 -45 79 -45q93 0 93 61q0 22 -16 35.5t-54 23.5l-122 32q-149 41 -149 160q0 57 36.5 101t102.5 68q-32 41 -32 100
q0 98 77.5 151.5t209.5 53.5q108 0 171.5 -37.5t67.5 -106.5l-180 -23q-6 45 -79 45q-93 0 -93 -61q0 -22 16 -35.5t54 -23.5zM319 286l105 -30q95 17 95 68q0 37 -62 54l-107 30q-93 -20 -93 -69q0 -36 62 -53z" />
    <glyph glyph-name="dieresis" unicode="&#xa8;" horiz-adv-x="500" 
d="M269 648h-191l33 159h191zM583 648h-191l33 159h191z" />
    <glyph glyph-name="copyright" unicode="&#xa9;" horiz-adv-x="972" 
d="M803 93q-115 -115 -294 -115q-178 0 -293 115q-116 116 -116 292t116 292q116 114 293 114q179 0 295 -114q115 -115 115 -292q0 -176 -116 -292zM509 71q134 0 221 89q86 89 86 225t-86 225q-87 88 -221 88t-219 -88q-87 -88 -87 -225t87 -225q86 -89 219 -89zM512 178
q-91 0 -146.5 56.5t-55.5 151.5q0 97 53.5 152.5t148.5 55.5q75 0 125 -34.5t69 -99.5l-123 -25q-21 55 -68 55q-69 0 -69 -103q0 -102 69 -102q47 0 69 57l123 -19q-17 -69 -68.5 -107t-126.5 -38z" />
    <glyph glyph-name="ordfeminine" unicode="&#xaa;" horiz-adv-x="604" 
d="M391 777q224 0 224 -129q0 -26 -9 -66l-48 -221h-140l-1 55q-77 -57 -177 -57q-63 0 -98 27t-35 78q0 56 41.5 90t119.5 42l178 21q5 25 5 32q0 38 -69 38q-32 0 -49.5 -9t-26.5 -31l-149 16q23 59 79 86.5t155 27.5zM277 489q0 -36 50 -36q46 0 91 33l13 62l-98 -12
q-56 -6 -56 -47z" />
    <glyph glyph-name="guillemotleft" unicode="&#xab;" horiz-adv-x="751" 
d="M312 158l-36 -173l-234 188l44 202l313 188l-43 -198l-178 -104zM661 158l-35 -173l-234 188l43 202l313 188l-42 -198l-179 -104z" />
    <glyph glyph-name="logicalnot" unicode="&#xac;" 
d="M659 164h-150v199h-400v146h550v-345z" />
    <glyph glyph-name="uni00AD" unicode="&#xad;" horiz-adv-x="372" 
d="M325 201h-308l32 157h309z" />
    <glyph glyph-name="registered" unicode="&#xae;" horiz-adv-x="678" 
d="M392 784q113 0 191 -75q77 -75 77 -184t-77 -184q-78 -75 -191 -75q-112 0 -189 75q-78 75 -78 184t78 184q77 75 189 75zM248 383q58 -57 144 -57t145 57q58 57 58 142t-58 142q-59 57 -145 57t-144 -57t-58 -142t58 -142zM504 462l2 -35q1 -22 10 -29h-73q-7 10 -8 29
l-2 38q-1 17 -7.5 23t-23.5 6h-48v-96h-67v258h126q45 0 70.5 -18t25.5 -51q0 -27 -17 -44.5t-48 -20.5v-4q30 -4 44 -17t16 -39zM354 543h48q38 0 38 30q0 14 -10.5 22t-26.5 8h-49v-60z" />
    <glyph glyph-name="overscore" unicode="&#xaf;" horiz-adv-x="500" 
d="M529 648h-399l26 121h399z" />
    <glyph glyph-name="degree" unicode="&#xb0;" horiz-adv-x="562" 
d="M341 327q-99 0 -164 65q-64 64 -64 163q0 100 64 164t164 64q99 0 163 -64t64 -164q0 -99 -64 -163q-65 -65 -163 -65zM341 456q42 0 70 28t28 71t-28 71t-70 28q-43 0 -71 -28t-28 -71t28 -71t71 -28z" />
    <glyph glyph-name="plusminus" unicode="&#xb1;" 
d="M462 674v-150h215v-145h-215v-151h-155v151h-216v145h216v150h155zM676 2h-585v146h585v-146z" />
    <glyph glyph-name="two.sups" unicode="&#xb2;" horiz-adv-x="525" 
d="M496 364h-431q19 166 180 213l111 33q75 22 75 64q0 47 -72 47q-75 0 -101 -60l-114 23q52 142 227 142q84 0 134.5 -35.5t50.5 -98.5q0 -122 -177 -165l-76 -19q-51 -14 -61 -38h277z" />
    <glyph glyph-name="three.sups" unicode="&#xb3;" horiz-adv-x="521" 
d="M287 348q-94 0 -142.5 37.5t-48.5 107.5l120 17q8 -63 79 -63q42 0 67 16t25 43q0 41 -69 41h-38l21 96h34q82 0 82 49q0 42 -68 42q-67 0 -93 -53l-114 17q22 60 80.5 94t139.5 34q80 0 130.5 -32.5t50.5 -85.5q0 -37 -24 -65t-67 -40l-1 -2q69 -23 69 -91
q0 -72 -64 -117t-169 -45z" />
    <glyph glyph-name="acute" unicode="&#xb4;" horiz-adv-x="500" 
d="M354 658h-176l117 181h229z" />
    <glyph glyph-name="uni00B5" unicode="&#xb5;" horiz-adv-x="796" 
d="M321 -204h-200v752h200v-318q0 -36 18.5 -56.5t51.5 -20.5q37 0 59 28t24 75v292h200v-548h-184l-7 72q-67 -87 -161 -87q-31 0 -56 13l-2 -2l57 -104v-96z" />
    <glyph glyph-name="paragraph" unicode="&#xb6;" horiz-adv-x="816" 
d="M383 -105h-145l100 441q-243 0 -243 167q0 136 81 200.5t240 64.5h418l-186 -873h-145l155 728h-120z" />
    <glyph glyph-name="middot" unicode="&#xb7;" horiz-adv-x="324" 
d="M264 286h-198l41 192h197z" />
    <glyph glyph-name="cedilla" unicode="&#xb8;" horiz-adv-x="500" 
d="M90 -260h-87l16 74h82q71 0 71 42q0 27 -35 27h-104l14 66h130q61 0 90.5 -21t29.5 -68q0 -120 -207 -120z" />
    <glyph glyph-name="one.sups" unicode="&#xb9;" horiz-adv-x="345" 
d="M301 364h-129l57 269h-121l21 98h25q98 0 111 72l3 14h129z" />
    <glyph glyph-name="ordmasculine" unicode="&#xba;" horiz-adv-x="605" 
d="M342 361q-111 0 -171.5 47t-60.5 132q0 110 73.5 172.5t202.5 62.5q111 0 172.5 -47.5t61.5 -133.5q0 -110 -74 -171.5t-204 -61.5zM354 470q103 0 103 118q0 42 -20 61t-63 19q-101 0 -101 -122q0 -41 19 -58.5t62 -17.5z" />
    <glyph glyph-name="guillemotright" unicode="&#xbb;" horiz-adv-x="751" 
d="M316 173l-313 -188l42 198l179 104l-135 103l36 173l234 -188zM665 173l-313 -188l43 198l178 104l-134 103l36 173l234 -188z" />
    <glyph glyph-name="onequarter" unicode="&#xbc;" horiz-adv-x="1302" 
d="M345 -15h-146l694 798h144zM347 317h-129l57 270h-121l21 97h25q98 0 111 72l3 14h129zM1079 0h-126l22 103l-250 -11l22 105l278 256h150l-56 -267l79 10l-22 -104l-75 11zM1021 329l-152 -136l124 -7l30 142z" />
    <glyph glyph-name="onehalf" unicode="&#xbd;" horiz-adv-x="1300" 
d="M345 -15h-146l694 798h144zM347 317h-129l57 270h-121l21 97h25q98 0 111 72l3 14h129zM1155 0h-431q20 167 179 214l112 33q75 23 75 63q0 47 -72 47q-76 0 -102 -60l-113 24q53 141 226 141q85 0 135.5 -35t50.5 -98q0 -123 -177 -166l-76 -19q-52 -12 -61 -38h276z
" />
    <glyph glyph-name="threequarters" unicode="&#xbe;" horiz-adv-x="1398" 
d="M465 -15h-146l694 798h144zM291 302q-93 0 -141.5 37t-49.5 107l120 17q8 -62 79 -62q42 0 67 16t25 43q0 40 -69 40h-38l21 97h34q82 0 82 49q0 41 -67 41q-69 0 -93 -53l-115 18q22 60 80.5 93.5t139.5 33.5q80 0 130.5 -32t50.5 -85q0 -37 -24 -65t-66 -40l-1 -2
q68 -23 68 -92q0 -72 -64 -116.5t-169 -44.5zM1199 0h-126l22 103l-250 -11l22 105l278 256h150l-56 -267l79 10l-22 -104l-75 11zM1141 329l-152 -136l124 -7l30 142z" />
    <glyph glyph-name="questiondown" unicode="&#xbf;" horiz-adv-x="760" 
d="M543 375h-226l36 173h226zM301 -227q-141 0 -218 52t-77 144q0 141 181 214l40 16q40 16 58.5 34t24.5 47l3 16h200l-6 -27q-15 -79 -57.5 -125t-127.5 -72q-58 -18 -80.5 -34.5t-22.5 -41.5q0 -57 102 -57q54 0 84 16.5t43 54.5l198 -28q-65 -209 -345 -209z" />
    <glyph glyph-name="Agrave" unicode="&#xc0;" horiz-adv-x="833" 
d="M549 1059l78 -181h-157l-132 181h211zM755 0h-212l-10 115h-296l-58 -115h-217l417 768h271zM452 542l-138 -273h206l-24 273l-4 89z" />
    <glyph glyph-name="Aacute" unicode="&#xc1;" horiz-adv-x="833" 
d="M535 1059h230l-170 -181h-176zM-38 0l417 768h271l105 -768h-212l-10 115h-296l-58 -115h-217zM452 542l-138 -273h206l-24 273l-4 89z" />
    <glyph glyph-name="Acircumflex" unicode="&#xc2;" horiz-adv-x="833" 
d="M626 868l-65 98l-107 -98h-171l197 179h175l118 -179h-147zM-38 0l417 768h271l105 -768h-212l-10 115h-296l-58 -115h-217zM452 542l-138 -273h206l-24 273l-4 89z" />
    <glyph glyph-name="Atilde" unicode="&#xc3;" horiz-adv-x="833" 
d="M698 1050h134q-22 -98 -70.5 -151.5t-121.5 -53.5q-66 0 -102 40q-37 39 -63 39q-41 0 -59 -70h-134q22 97 70 151t120 54q65 0 104 -39q38 -40 63 -40q41 0 59 70zM-38 0l417 768h271l105 -768h-212l-10 115h-296l-58 -115h-217zM452 542l-138 -273h206l-24 273l-4 89z
" />
    <glyph glyph-name="Adieresis" unicode="&#xc4;" horiz-adv-x="833" 
d="M322 1033h191l-32 -151h-191zM605 882l31 151h192l-32 -151h-191zM-38 0l417 768h271l105 -768h-212l-10 115h-296l-58 -115h-217zM452 542l-138 -273h206l-24 273l-4 89z" />
    <glyph glyph-name="Aring" unicode="&#xc5;" horiz-adv-x="833" 
d="M755 0h-212l-10 115h-296l-58 -115h-217l412 758q-20 35 -20 80q0 69 46 114q45 45 115 45q69 0 115 -45q45 -45 45 -114q0 -47 -23 -85zM563 889q-19 18 -48 18t-48 -19t-19 -50t19 -50q29 -31 74 -13.5t41 63.5q0 32 -19 51zM452 542l-138 -273h206l-24 273l-4 89z" />
    <glyph glyph-name="AE" unicode="&#xc6;" horiz-adv-x="1260" 
d="M1313 768l-36 -172h-385l-26 -121h350l-35 -164h-350l-29 -139h384l-36 -172h-589l35 166h-287l-118 -166h-229l553 768h798zM615 596l-196 -276h210l59 276h-73z" />
    <glyph glyph-name="Ccedilla" unicode="&#xc7;" horiz-adv-x="861" 
d="M406 -17q-149 0 -237 86q-87 85 -87 230q0 51 12 107q37 176 157 278q119 99 288 99q142 0 225 -69t96 -198l-205 -24q-5 57 -39.5 89t-93.5 32q-84 0 -142 -61q-59 -62 -78 -158q-9 -42 -9 -83q0 -157 138 -157q125 0 184 129l197 -23q-53 -132 -160 -204
q-107 -73 -246 -73zM305 -276h-87l16 74h82q71 0 71 42q0 27 -35 27h-104l14 66h130q61 0 90.5 -21t29.5 -68q0 -120 -207 -120z" />
    <glyph glyph-name="Egrave" unicode="&#xc8;" horiz-adv-x="728" 
d="M518 1059l78 -181h-157l-132 181h211zM782 768l-37 -172h-385l-26 -121h350l-34 -164h-351l-29 -139h385l-37 -172h-589l164 768h589z" />
    <glyph glyph-name="Eacute" unicode="&#xc9;" horiz-adv-x="728" 
d="M504 1059h230l-170 -181h-176zM782 768l-37 -172h-385l-26 -121h350l-34 -164h-351l-29 -139h385l-37 -172h-589l164 768h589z" />
    <glyph glyph-name="Ecircumflex" unicode="&#xca;" horiz-adv-x="728" 
d="M595 868l-65 98l-107 -98h-171l197 179h175l118 -179h-147zM782 768l-37 -172h-385l-26 -121h350l-34 -164h-351l-29 -139h385l-37 -172h-589l164 768h589z" />
    <glyph glyph-name="Edieresis" unicode="&#xcb;" horiz-adv-x="728" 
d="M291 1033h191l-32 -151h-191zM605 1033h192l-32 -151h-191zM193 768h589l-37 -172h-385l-26 -121h350l-34 -164h-351l-29 -139h385l-37 -172h-589z" />
    <glyph glyph-name="Igrave" unicode="&#xcc;" horiz-adv-x="380" 
d="M403 878h-157l-132 181h211zM233 0h-204l164 768h204z" />
    <glyph glyph-name="Iacute" unicode="&#xcd;" horiz-adv-x="380" 
d="M371 878h-176l116 181h230zM233 0h-204l164 768h204z" />
    <glyph glyph-name="Icircumflex" unicode="&#xce;" horiz-adv-x="380" 
d="M231 868h-171l197 179h175l118 -179h-147l-65 98zM233 0h-204l164 768h204z" />
    <glyph glyph-name="Idieresis" unicode="&#xcf;" horiz-adv-x="380" 
d="M258 882h-192l32 151h191zM572 882h-191l32 151h191zM233 0h-204l164 768h204z" />
    <glyph glyph-name="Eth" unicode="&#xd0;" horiz-adv-x="940" 
d="M285 768h290q164 0 249 -79.5t85 -220.5q0 -56 -10 -103q-71 -365 -448 -365h-330l70 326l-163 -15l31 146l157 -14zM691 384q8 43 8 80q0 138 -138 138h-107l-34 -157l139 12l-31 -146l-134 13l-34 -158h109q178 0 222 218z" />
    <glyph glyph-name="Ntilde" unicode="&#xd1;" horiz-adv-x="881" 
d="M512 924q-43 0 -59 -70h-134q22 97 70 151t120 54q65 0 104 -39q38 -40 63 -40q43 0 59 70h134q-22 -98 -70.5 -151.5t-121.5 -53.5q-66 0 -102 40q-37 39 -63 39zM594 265l108 503h197l-164 -768h-242l-159 507l-108 -507h-197l164 768h246z" />
    <glyph glyph-name="Ograve" unicode="&#xd2;" horiz-adv-x="921" 
d="M651 879h-157l-132 181h211zM415 -16q-155 0 -244 84q-89 83 -89 227q0 52 12 109q37 173 162 277q124 103 298 103q154 0 243 -84q89 -86 89 -230q0 -45 -11 -106q-38 -177 -158 -278q-121 -102 -302 -102zM436 152q86 0 146.5 59t83.5 173q8 42 8 78q0 77 -37 115.5
t-104 38.5q-86 0 -147.5 -59t-84.5 -173q-8 -40 -8 -77q0 -76 38 -115.5t105 -39.5z" />
    <glyph glyph-name="Oacute" unicode="&#xd3;" horiz-adv-x="921" 
d="M619 879h-176l116 181h230zM415 -16q-155 0 -244 84q-89 83 -89 227q0 52 12 109q37 173 162 277q124 103 298 103q154 0 243 -84q89 -86 89 -230q0 -45 -11 -106q-38 -177 -158 -278q-121 -102 -302 -102zM436 152q86 0 146.5 59t83.5 173q8 42 8 78q0 77 -37 115.5
t-104 38.5q-86 0 -147.5 -59t-84.5 -173q-8 -40 -8 -77q0 -76 38 -115.5t105 -39.5z" />
    <glyph glyph-name="Ocircumflex" unicode="&#xd4;" horiz-adv-x="921" 
d="M479 869h-171l197 179h175l118 -179h-147l-65 98zM415 -16q-155 0 -244 84q-89 83 -89 227q0 52 12 109q37 173 162 277q124 103 298 103q154 0 243 -84q89 -86 89 -230q0 -45 -11 -106q-38 -177 -158 -278q-121 -102 -302 -102zM436 152q86 0 146.5 59t83.5 173
q8 42 8 78q0 77 -37 115.5t-104 38.5q-86 0 -147.5 -59t-84.5 -173q-8 -40 -8 -77q0 -76 38 -115.5t105 -39.5z" />
    <glyph glyph-name="Otilde" unicode="&#xd5;" horiz-adv-x="921" 
d="M440 855h-134q22 97 70 151t120 54q65 0 104 -39q38 -40 63 -40q41 0 59 70h134q-22 -98 -70.5 -151.5t-121.5 -53.5q-66 0 -102 40q-37 39 -63 39q-41 0 -59 -70zM415 -16q-155 0 -244 84q-89 83 -89 227q0 52 12 109q37 173 162 277q124 103 298 103q154 0 243 -84
q89 -86 89 -230q0 -45 -11 -106q-38 -177 -158 -278q-121 -102 -302 -102zM436 152q86 0 146.5 59t83.5 173q8 42 8 78q0 77 -37 115.5t-104 38.5q-86 0 -147.5 -59t-84.5 -173q-8 -40 -8 -77q0 -76 38 -115.5t105 -39.5z" />
    <glyph glyph-name="Odieresis" unicode="&#xd6;" horiz-adv-x="921" 
d="M505 883h-191l32 151h191zM820 883h-191l31 151h192zM415 -16q-155 0 -244 84q-89 83 -89 227q0 52 12 109q37 173 162 277q124 103 298 103q154 0 243 -84q89 -86 89 -230q0 -45 -11 -106q-38 -177 -158 -278q-121 -102 -302 -102zM436 152q86 0 146.5 59t83.5 173
q8 42 8 78q0 77 -37 115.5t-104 38.5q-86 0 -147.5 -59t-84.5 -173q-8 -40 -8 -77q0 -76 38 -115.5t105 -39.5z" />
    <glyph glyph-name="multiply" unicode="&#xd7;" 
d="M384 245l-189 -189l-97 98l189 189l-189 188l97 98l189 -189l188 189l98 -98l-188 -188l188 -189l-98 -98z" />
    <glyph glyph-name="Oslash" unicode="&#xd8;" horiz-adv-x="921" 
d="M845 830l62 -56l-91 -95q70 -82 70 -209q0 -45 -11 -106q-38 -177 -158 -278q-121 -102 -302 -102q-129 0 -211 57l-100 -104l-62 57l100 105q-60 78 -60 196q0 52 12 109q37 173 162 277q124 103 298 103q116 0 199 -50zM293 307q0 -22 4 -47l321 333q-34 23 -85 23
q-86 0 -147.5 -59t-84.5 -173q-8 -40 -8 -77zM674 462q0 31 -8 61l-326 -340q37 -31 96 -31q86 0 146.5 59t83.5 173q8 42 8 78z" />
    <glyph glyph-name="Ugrave" unicode="&#xd9;" horiz-adv-x="852" 
d="M636 878h-157l-132 181h211zM384 -16q-136 0 -219 59t-83 171q0 33 10 82l100 472h216l-103 -482q-4 -17 -4 -38q0 -85 101 -85q123 0 150 123l102 482h215l-104 -491q-62 -293 -381 -293z" />
    <glyph glyph-name="Uacute" unicode="&#xda;" horiz-adv-x="852" 
d="M604 878h-176l116 181h230zM384 -16q-136 0 -219 59t-83 171q0 33 10 82l100 472h216l-103 -482q-4 -17 -4 -38q0 -85 101 -85q123 0 150 123l102 482h215l-104 -491q-62 -293 -381 -293z" />
    <glyph glyph-name="Ucircumflex" unicode="&#xdb;" horiz-adv-x="852" 
d="M464 868h-171l197 179h175l118 -179h-147l-65 98zM384 -16q-136 0 -219 59t-83 171q0 33 10 82l100 472h216l-103 -482q-4 -17 -4 -38q0 -85 101 -85q123 0 150 123l102 482h215l-104 -491q-62 -293 -381 -293z" />
    <glyph glyph-name="Udieresis" unicode="&#xdc;" horiz-adv-x="852" 
d="M490 882h-191l32 151h191zM805 882h-191l31 151h192zM384 -16q-136 0 -219 59t-83 171q0 33 10 82l100 472h216l-103 -482q-4 -17 -4 -38q0 -85 101 -85q123 0 150 123l102 482h215l-104 -491q-62 -293 -381 -293z" />
    <glyph glyph-name="Yacute" unicode="&#xdd;" horiz-adv-x="766" 
d="M504 1058h230l-170 -181h-176zM623 768h234l-363 -469l-65 -299h-204l64 297h-1l-169 471h206l77 -244l15 -50l34 51z" />
    <glyph glyph-name="Thorn" unicode="&#xde;" 
d="M374 662h109q130 0 202 -61t72 -167q0 -144 -92 -224q-94 -80 -252 -80h-152l-28 -130h-204l164 768h204zM296 293h119q58 0 93.5 34.5t35.5 91.5q0 75 -96 75h-110z" />
    <glyph glyph-name="germandbls" unicode="&#xdf;" horiz-adv-x="742" 
d="M205 0h-200l118 553q47 219 308 219q129 0 203 -48.5t74 -132.5q0 -65 -44.5 -112t-120.5 -64v-2q141 -31 141 -161q0 -114 -81 -183q-83 -69 -212 -69h-82l31 150h24q55 0 85.5 29.5t30.5 79.5q0 74 -78 74h-23l32 149h14q43 0 67.5 21t24.5 56q0 64 -86 64
q-52 0 -77 -20t-35 -69z" />
    <glyph glyph-name="agrave" unicode="&#xe0;" horiz-adv-x="693" 
d="M434 839l78 -181h-157l-132 181h211zM389 564q247 0 247 -147q0 -15 -5 -45l-52 -242q-11 -69 -11 -91q0 -18 4 -39h-183v63q-65 -80 -188 -80q-87 0 -136 40t-49 112q0 96 77 139q66 36 188 55l117 19q24 4 40 13q4 12 4 25q0 52 -79 52q-46 0 -70 -16t-37 -55l-168 14
q24 90 101 136.5t200 46.5zM292 101q61 0 100 52l23 107q-24 -6 -35 -8l-77 -14q-45 -9 -64.5 -28t-19.5 -50q0 -28 19 -43.5t54 -15.5z" />
    <glyph glyph-name="aacute" unicode="&#xe1;" horiz-adv-x="693" 
d="M420 839h230l-170 -181h-176zM389 564q247 0 247 -147q0 -15 -5 -45l-52 -242q-11 -69 -11 -91q0 -18 4 -39h-183v63q-65 -80 -188 -80q-87 0 -136 40t-49 112q0 96 77 139q66 36 188 55l117 19q24 4 40 13q4 12 4 25q0 52 -79 52q-46 0 -70 -16t-37 -55l-168 14
q24 90 101 136.5t200 46.5zM292 101q61 0 100 52l23 107q-24 -6 -35 -8l-77 -14q-45 -9 -64.5 -28t-19.5 -50q0 -28 19 -43.5t54 -15.5z" />
    <glyph glyph-name="acircumflex" unicode="&#xe2;" horiz-adv-x="693" 
d="M511 648l-65 98l-107 -98h-171l196 179h175l119 -179h-147zM389 564q247 0 247 -147q0 -15 -5 -45l-52 -242q-11 -69 -11 -91q0 -18 4 -39h-183v63q-65 -80 -188 -80q-87 0 -136 40t-49 112q0 96 77 139q66 36 188 55l117 19q24 4 40 13q4 12 4 25q0 52 -79 52
q-46 0 -70 -16t-37 -55l-168 14q24 90 101 136.5t200 46.5zM292 101q61 0 100 52l23 107q-24 -6 -35 -8l-77 -14q-45 -9 -64.5 -28t-19.5 -50q0 -28 19 -43.5t54 -15.5z" />
    <glyph glyph-name="atilde" unicode="&#xe3;" horiz-adv-x="693" 
d="M583 830h133q-22 -98 -70 -151.5t-121 -53.5q-66 0 -102 40q-37 39 -63 39q-43 0 -59 -70h-134q45 205 190 205q65 0 104 -39q38 -40 63 -40q43 0 59 70zM389 564q247 0 247 -147q0 -15 -5 -45l-52 -242q-11 -69 -11 -91q0 -18 4 -39h-183v63q-65 -80 -188 -80
q-87 0 -136 40t-49 112q0 96 77 139q66 36 188 55l117 19q24 4 40 13q4 12 4 25q0 52 -79 52q-46 0 -70 -16t-37 -55l-168 14q24 90 101 136.5t200 46.5zM292 101q61 0 100 52l23 107q-24 -6 -35 -8l-77 -14q-45 -9 -64.5 -28t-19.5 -50q0 -28 19 -43.5t54 -15.5z" />
    <glyph glyph-name="adieresis" unicode="&#xe4;" horiz-adv-x="693" 
d="M206 807h191l-33 -159h-191zM487 648l33 159h191l-33 -159h-191zM389 564q247 0 247 -147q0 -15 -5 -45l-52 -242q-11 -69 -11 -91q0 -18 4 -39h-183v63q-65 -80 -188 -80q-87 0 -136 40t-49 112q0 96 77 139q66 36 188 55l117 19q24 4 40 13q4 12 4 25q0 52 -79 52
q-46 0 -70 -16t-37 -55l-168 14q24 90 101 136.5t200 46.5zM292 101q61 0 100 52l23 107q-24 -6 -35 -8l-77 -14q-45 -9 -64.5 -28t-19.5 -50q0 -28 19 -43.5t54 -15.5z" />
    <glyph glyph-name="aring" unicode="&#xe5;" horiz-adv-x="693" 
d="M566 659q-45 -45 -115 -45t-115 45q-45 43 -45 113t45 115t115 45t115 -45t45 -115t-45 -113zM500 823q-29 31 -75 13.5t-42 -64.5q0 -30 19.5 -49.5t48.5 -19.5t48.5 19.5t19.5 49.5q0 32 -19 51zM389 564q247 0 247 -147q0 -15 -5 -45l-52 -242q-11 -69 -11 -91
q0 -18 4 -39h-183v63q-65 -80 -188 -80q-87 0 -136 40t-49 112q0 96 77 139q66 36 188 55l117 19q24 4 40 13q4 12 4 25q0 52 -79 52q-46 0 -70 -16t-37 -55l-168 14q24 90 101 136.5t200 46.5zM292 101q61 0 100 52l23 107q-24 -6 -35 -8l-77 -14q-45 -9 -64.5 -28
t-19.5 -50q0 -28 19 -43.5t54 -15.5z" />
    <glyph glyph-name="ae" unicode="&#xe6;" horiz-adv-x="1076" 
d="M1021 236l-403 13q-3 -18 -3 -34q0 -92 101 -92q66 0 110 48l155 -36q-50 -72 -125 -111.5t-163 -39.5q-85 0 -139.5 38t-72.5 105q-46 -67 -121.5 -105.5t-164.5 -38.5q-86 0 -134 36.5t-48 99.5q0 96 71.5 146t197.5 54l170 7l7 32q4 17 4 26q0 54 -93 54
q-46 0 -71.5 -15t-43.5 -56l-161 16q36 89 109 135t176 46q77 0 125.5 -29.5t61.5 -83.5q96 113 243 113q107 0 167 -59.5t60 -160.5q0 -40 -15 -108zM783 438q-55 0 -95.5 -32.5t-54.5 -86.5l232 11q1 4 1 16q0 43 -22 67.5t-61 24.5zM284 105q78 0 136 67l17 82l-134 -16
q-39 -5 -63 -28.5t-24 -54.5q0 -50 68 -50z" />
    <glyph glyph-name="ccedilla" unicode="&#xe7;" horiz-adv-x="667" 
d="M299 -17q-122 0 -189 63t-67 172q0 37 8 75q28 132 113.5 200.5t220.5 68.5q110 0 178.5 -52t75.5 -145l-190 -29q-5 83 -72 83q-96 0 -126 -144q-7 -27 -7 -58q0 -87 74 -87q71 0 108 88l182 -20q-37 -104 -115 -159.5t-194 -55.5zM196 -276h-87l16 74h82q71 0 71 42
q0 27 -35 27h-104l14 66h130q61 0 90.5 -21t29.5 -68q0 -120 -207 -120z" />
    <glyph glyph-name="egrave" unicode="&#xe8;" horiz-adv-x="699" 
d="M438 839l78 -181h-157l-132 181h211zM643 235h-410q-1 -3 -1 -14q0 -46 24 -72.5t68 -26.5q69 0 112 49l170 -32q-46 -74 -121 -114.5t-169 -40.5q-127 0 -199.5 62.5t-72.5 173.5q0 38 7 70q24 127 114 200q91 74 229 74q124 0 192.5 -65t68.5 -177q0 -40 -12 -87z
M381 438q-93 0 -128 -105h216v10q0 44 -23.5 69.5t-64.5 25.5z" />
    <glyph glyph-name="eacute" unicode="&#xe9;" horiz-adv-x="699" 
d="M424 839h230l-170 -181h-176zM643 235h-410q-1 -3 -1 -14q0 -46 24 -72.5t68 -26.5q69 0 112 49l170 -32q-46 -74 -121 -114.5t-169 -40.5q-127 0 -199.5 62.5t-72.5 173.5q0 38 7 70q24 127 114 200q91 74 229 74q124 0 192.5 -65t68.5 -177q0 -40 -12 -87zM381 438
q-93 0 -128 -105h216v10q0 44 -23.5 69.5t-64.5 25.5z" />
    <glyph glyph-name="ecircumflex" unicode="&#xea;" horiz-adv-x="699" 
d="M516 648l-65 98l-107 -98h-171l196 179h175l119 -179h-147zM394 564q124 0 192.5 -65t68.5 -177q0 -40 -12 -87h-410q-1 -3 -1 -14q0 -46 24 -72.5t68 -26.5q69 0 112 49l170 -32q-46 -74 -121 -114.5t-169 -40.5q-127 0 -199.5 62.5t-72.5 173.5q0 38 7 70
q24 127 114 200q91 74 229 74zM381 438q-93 0 -128 -105h216v10q0 44 -23.5 69.5t-64.5 25.5z" />
    <glyph glyph-name="edieresis" unicode="&#xeb;" horiz-adv-x="699" 
d="M210 807h191l-33 -159h-191zM491 648l33 159h191l-33 -159h-191zM394 564q124 0 192.5 -65t68.5 -177q0 -40 -12 -87h-410q-1 -3 -1 -14q0 -46 24 -72.5t68 -26.5q69 0 112 49l170 -32q-46 -74 -121 -114.5t-169 -40.5q-127 0 -199.5 62.5t-72.5 173.5q0 38 7 70
q24 127 114 200q91 74 229 74zM381 438q-93 0 -128 -105h216v10q0 44 -23.5 69.5t-64.5 25.5z" />
    <glyph glyph-name="igrave" unicode="&#xec;" horiz-adv-x="327" 
d="M329 658h-157l-132 181h211zM205 0h-200l116 548h200z" />
    <glyph glyph-name="iacute" unicode="&#xed;" horiz-adv-x="327" 
d="M297 658h-176l116 181h230zM205 0h-200l116 548h200z" />
    <glyph glyph-name="icircumflex" unicode="&#xee;" horiz-adv-x="327" 
d="M157 648h-171l196 179h175l119 -179h-147l-65 98zM205 0h-200l116 548h200z" />
    <glyph glyph-name="idieresis" unicode="&#xef;" horiz-adv-x="327" 
d="M181 648h-191l33 159h191zM496 648h-191l33 159h191zM205 0h-200l116 548h200z" />
    <glyph glyph-name="eth" unicode="&#xf0;" horiz-adv-x="694" 
d="M713 842l-168 -96q124 -109 124 -293q0 -276 -168 -403q-87 -66 -206 -66q-110 0 -183 62q-72 62 -72 158q0 127 83 215q83 87 209 87q51 0 90.5 -16.5t58.5 -45.5q5 35 5 53q0 98 -86 157l-100 -78l-33 48l93 54q-50 24 -109 41l76 134q103 -26 178 -77l172 130z
M321 129q48 0 78 37t47 118l1 3q-5 39 -26.5 62t-56.5 23q-52 0 -85 -50q-33 -51 -33 -113q0 -37 19.5 -58.5t55.5 -21.5z" />
    <glyph glyph-name="ntilde" unicode="&#xf1;" horiz-adv-x="680" 
d="M580 845h133q-22 -98 -70 -151.5t-121 -53.5q-66 0 -102 40q-37 39 -63 39q-41 0 -59 -70h-134q45 205 190 205q65 0 104 -39q38 -40 63 -40q41 0 59 70zM480 563q73 0 114.5 -43.5t41.5 -118.5q0 -32 -8 -72l-71 -329h-200l68 318q3 15 3 25q0 52 -54 52
q-38 0 -65.5 -26.5t-40.5 -74.5l-63 -294h-200l117 548h185l-8 -70q79 85 181 85z" />
    <glyph glyph-name="ograve" unicode="&#xf2;" horiz-adv-x="691" 
d="M515 658h-157l-132 181h211zM297 -17q-119 0 -187 62t-68 168q0 30 7 68q26 136 115 209.5t230 73.5q120 0 187.5 -62t67.5 -170q0 -35 -8 -72q-26 -136 -113 -206.5t-231 -70.5zM316 133q94 0 124 138q7 29 7 61q0 83 -71 83q-96 0 -125 -144q-6 -31 -6 -56
q0 -82 71 -82z" />
    <glyph glyph-name="oacute" unicode="&#xf3;" horiz-adv-x="691" 
d="M483 658h-176l116 181h230zM297 -17q-119 0 -187 62t-68 168q0 30 7 68q26 136 115 209.5t230 73.5q120 0 187.5 -62t67.5 -170q0 -35 -8 -72q-26 -136 -113 -206.5t-231 -70.5zM316 133q94 0 124 138q7 29 7 61q0 83 -71 83q-96 0 -125 -144q-6 -31 -6 -56q0 -82 71 -82
z" />
    <glyph glyph-name="ocircumflex" unicode="&#xf4;" horiz-adv-x="691" 
d="M343 648h-171l196 179h175l119 -179h-147l-65 98zM297 -17q-119 0 -187 62t-68 168q0 30 7 68q26 136 115 209.5t230 73.5q120 0 187.5 -62t67.5 -170q0 -35 -8 -72q-26 -136 -113 -206.5t-231 -70.5zM316 133q94 0 124 138q7 29 7 61q0 83 -71 83q-96 0 -125 -144
q-6 -31 -6 -56q0 -82 71 -82z" />
    <glyph glyph-name="otilde" unicode="&#xf5;" horiz-adv-x="691" 
d="M304 634h-134q45 205 190 205q65 0 104 -39q38 -40 63 -40q41 0 59 70h133q-22 -98 -70 -151.5t-121 -53.5q-66 0 -102 40q-37 39 -63 39q-41 0 -59 -70zM297 -17q-119 0 -187 62t-68 168q0 30 7 68q26 136 115 209.5t230 73.5q120 0 187.5 -62t67.5 -170q0 -35 -8 -72
q-26 -136 -113 -206.5t-231 -70.5zM316 133q94 0 124 138q7 29 7 61q0 83 -71 83q-96 0 -125 -144q-6 -31 -6 -56q0 -82 71 -82z" />
    <glyph glyph-name="odieresis" unicode="&#xf6;" horiz-adv-x="691" 
d="M367 648h-191l33 159h191zM681 648h-191l33 159h191zM297 -17q-119 0 -187 62t-68 168q0 30 7 68q26 136 115 209.5t230 73.5q120 0 187.5 -62t67.5 -170q0 -35 -8 -72q-26 -136 -113 -206.5t-231 -70.5zM316 133q94 0 124 138q7 29 7 61q0 83 -71 83q-96 0 -125 -144
q-6 -31 -6 -56q0 -82 71 -82z" />
    <glyph glyph-name="divide" unicode="&#xf7;" 
d="M461 516h-154v156h154v-156zM706 267h-644v146h644v-146zM461 6h-154v156h154v-156z" />
    <glyph glyph-name="oslash" unicode="&#xf8;" horiz-adv-x="691" 
d="M650 587l41 -39l-83 -76q41 -59 41 -140q0 -35 -8 -72q-26 -136 -113 -206.5t-231 -70.5q-101 0 -169 48l-76 -70l-41 39l76 70q-45 58 -45 143q0 30 7 68q26 136 115 209.5t230 73.5q109 0 175 -51zM245 215l188 173q-17 27 -57 27q-96 0 -125 -144q-6 -31 -6 -56z
M440 271q6 36 7 53l-185 -170q18 -21 54 -21q94 0 124 138z" />
    <glyph glyph-name="ugrave" unicode="&#xf9;" horiz-adv-x="680" 
d="M418 839l78 -181h-157l-132 181h211zM413 258l61 290h200l-117 -548h-184l8 72q-79 -87 -182 -87q-72 0 -114 43.5t-42 118.5q0 29 9 72l70 329h200l-67 -318q-3 -15 -3 -25q0 -52 54 -52q38 0 66.5 28.5t39.5 76.5h1z" />
    <glyph glyph-name="uacute" unicode="&#xfa;" horiz-adv-x="680" 
d="M404 839h230l-170 -181h-176zM413 258l61 290h200l-117 -548h-184l8 72q-79 -87 -182 -87q-72 0 -114 43.5t-42 118.5q0 29 9 72l70 329h200l-67 -318q-3 -15 -3 -25q0 -52 54 -52q38 0 66.5 28.5t39.5 76.5h1z" />
    <glyph glyph-name="ucircumflex" unicode="&#xfb;" horiz-adv-x="680" 
d="M496 648l-65 98l-107 -98h-171l196 179h175l119 -179h-147zM413 258l61 290h200l-117 -548h-184l8 72q-79 -87 -182 -87q-72 0 -114 43.5t-42 118.5q0 29 9 72l70 329h200l-67 -318q-3 -15 -3 -25q0 -52 54 -52q38 0 66.5 28.5t39.5 76.5h1z" />
    <glyph glyph-name="udieresis" unicode="&#xfc;" horiz-adv-x="680" 
d="M190 807h191l-33 -159h-191zM504 807h191l-33 -159h-191zM412 258h1l61 290h200l-117 -548h-184l8 72q-79 -87 -182 -87q-72 0 -114 43.5t-42 118.5q0 29 9 72l70 329h200l-67 -318q-3 -15 -3 -25q0 -52 54 -52q38 0 66.5 28.5t39.5 76.5z" />
    <glyph glyph-name="yacute" unicode="&#xfd;" horiz-adv-x="671" 
d="M395 839h230l-170 -181h-176zM304 218l169 330h214l-328 -572q-67 -116 -126 -153t-170 -37h-112l31 147h98q32 0 50 10.5t39 42.5l-100 562h203z" />
    <glyph glyph-name="thorn" unicode="&#xfe;" horiz-adv-x="711" 
d="M479 563q85 0 137 -58.5t52 -160.5q4 -140 -79 -250.5t-206 -109.5q-115 0 -162 86l-59 -274h-200l206 972h200l-57 -272q73 67 168 67zM338 144q60 0 94 54q34 52 34 121q0 41 -21.5 63t-58.5 22q-57 0 -91 -52q-35 -53 -35 -117q0 -43 20 -67t58 -24z" />
    <glyph glyph-name="ydieresis" unicode="&#xff;" horiz-adv-x="671" 
d="M181 807h191l-33 -159h-191zM495 807h191l-33 -159h-191zM304 218l169 330h214l-328 -572q-67 -116 -126 -153t-170 -37h-112l31 147h98q32 0 50 10.5t39 42.5l-100 562h203z" />
    <glyph glyph-name="Amacron" unicode="&#x100;" horiz-adv-x="833" 
d="M367 989h399l-26 -121h-399zM-38 0l417 768h271l105 -768h-212l-10 115h-296l-58 -115h-217zM452 542l-138 -273h206l-24 273l-4 89z" />
    <glyph glyph-name="amacron" unicode="&#x101;" horiz-adv-x="693" 
d="M251 769h399l-26 -121h-399zM389 564q247 0 247 -147q0 -15 -5 -45l-52 -242q-11 -69 -11 -91q0 -18 4 -39h-183v63q-65 -80 -188 -80q-87 0 -136 40t-49 112q0 96 77 139q66 36 188 55l117 19q24 4 40 13q4 12 4 25q0 52 -79 52q-46 0 -70 -16t-37 -55l-168 14
q24 90 101 136.5t200 46.5zM292 101q61 0 100 52l23 107q-24 -6 -35 -8l-77 -14q-45 -9 -64.5 -28t-19.5 -50q0 -28 19 -43.5t54 -15.5z" />
    <glyph glyph-name="Abreve" unicode="&#x102;" horiz-adv-x="833" 
d="M546 856q-102 0 -151 30.5t-49 96.5q0 26 7 65h119q-3 -14 -3 -26q0 -57 88 -57q54 0 82 19t38 64h125q-23 -105 -79 -148q-58 -44 -177 -44zM-38 0l417 768h271l105 -768h-212l-10 115h-296l-58 -115h-217zM452 542l-138 -273h206l-24 273l-4 89z" />
    <glyph glyph-name="abreve" unicode="&#x103;" horiz-adv-x="693" 
d="M432 636q-102 0 -151 30.5t-49 96.5q0 33 7 65h119q-3 -14 -3 -26q0 -57 88 -57q54 0 82 19.5t38 63.5h125q-23 -105 -79 -148q-59 -44 -177 -44zM389 564q247 0 247 -147q0 -15 -5 -45l-52 -242q-11 -69 -11 -91q0 -18 4 -39h-183v63q-65 -80 -188 -80q-87 0 -136 40
t-49 112q0 96 77 139q66 36 188 55l117 19q24 4 40 13q4 12 4 25q0 52 -79 52q-46 0 -70 -16t-37 -55l-168 14q24 90 101 136.5t200 46.5zM292 101q61 0 100 52l23 107q-24 -6 -35 -8l-77 -14q-45 -9 -64.5 -28t-19.5 -50q0 -28 19 -43.5t54 -15.5z" />
    <glyph glyph-name="Aogonek" unicode="&#x104;" horiz-adv-x="833" 
d="M575 -115q0 -42 57 -42h33l-20 -92h-94q-67 0 -103 29t-36 77q0 79 99 126l37 17h-5l-10 115h-296l-58 -115h-217l417 768h271l105 -768l-127 -55q-53 -24 -53 -60zM452 542l-138 -273h206l-24 273l-4 89z" />
    <glyph glyph-name="aogonek" unicode="&#x105;" horiz-adv-x="693" 
d="M389 564q247 0 247 -147q0 -15 -5 -45l-52 -242q-11 -69 -11 -91q0 -18 4 -39l-128 -55q-53 -24 -53 -60q0 -19 15.5 -30.5t41.5 -11.5h33l-19 -92h-94q-67 0 -103 29t-36 77q0 79 99 126l61 28v52q-65 -80 -188 -80q-87 0 -136 40t-49 112q0 96 77 139q66 36 188 55
l117 19q24 4 40 13q4 12 4 25q0 52 -79 52q-46 0 -70 -16t-37 -55l-168 14q24 90 101 136.5t200 46.5zM292 101q61 0 100 52l23 107q-24 -6 -35 -8l-77 -14q-45 -9 -64.5 -28t-19.5 -50q0 -28 19 -43.5t54 -15.5z" />
    <glyph glyph-name="Cacute" unicode="&#x106;" horiz-adv-x="861" 
d="M595 878h-176l116 181h230zM406 -17q-149 0 -237 86q-87 85 -87 230q0 51 12 107q37 176 157 278q119 99 288 99q142 0 225 -69t96 -198l-205 -24q-5 57 -39.5 89t-93.5 32q-84 0 -142 -61q-59 -62 -78 -158q-9 -42 -9 -83q0 -157 138 -157q125 0 184 129l197 -23
q-53 -132 -160 -204q-107 -73 -246 -73z" />
    <glyph glyph-name="cacute" unicode="&#x107;" horiz-adv-x="667" 
d="M467 658h-176l116 181h230zM299 -17q-122 0 -189 63t-67 172q0 37 8 75q28 132 113.5 200.5t220.5 68.5q110 0 178.5 -52t75.5 -145l-190 -29q-5 83 -72 83q-96 0 -126 -144q-7 -27 -7 -58q0 -87 74 -87q71 0 108 88l182 -20q-37 -104 -115 -159.5t-194 -55.5z" />
    <glyph glyph-name="Ccircumflex" unicode="&#x108;" horiz-adv-x="861" 
d="M455 868h-171l196 179h175l119 -179h-147l-65 98zM406 -17q-149 0 -237 86q-87 85 -87 230q0 51 12 107q37 176 157 278q119 99 288 99q142 0 225 -69t96 -198l-205 -24q-5 57 -39.5 89t-93.5 32q-84 0 -142 -61q-59 -62 -78 -158q-9 -42 -9 -83q0 -157 138 -157
q125 0 184 129l197 -23q-53 -132 -160 -204q-107 -73 -246 -73z" />
    <glyph glyph-name="ccircumflex" unicode="&#x109;" horiz-adv-x="667" 
d="M327 648h-171l196 179h175l119 -179h-147l-65 98zM299 -17q-122 0 -189 63t-67 172q0 37 8 75q28 132 113.5 200.5t220.5 68.5q110 0 178.5 -52t75.5 -145l-190 -29q-5 83 -72 83q-96 0 -126 -144q-7 -27 -7 -58q0 -87 74 -87q71 0 108 88l182 -20q-37 -104 -115 -159.5
t-194 -55.5z" />
    <glyph glyph-name="Cdotaccent" unicode="&#x10a;" horiz-adv-x="861" 
d="M636 868h-191l33 159h191zM406 -17q-149 0 -237 86q-87 85 -87 230q0 51 12 107q37 176 157 278q119 99 288 99q142 0 225 -69t96 -198l-205 -24q-5 57 -39.5 89t-93.5 32q-84 0 -142 -61q-59 -62 -78 -158q-9 -42 -9 -83q0 -157 138 -157q125 0 184 129l197 -23
q-53 -132 -160 -204q-107 -73 -246 -73z" />
    <glyph glyph-name="cdotaccent" unicode="&#x10b;" horiz-adv-x="667" 
d="M508 648h-191l33 159h191zM299 -17q-122 0 -189 63t-67 172q0 37 8 75q28 132 113.5 200.5t220.5 68.5q110 0 178.5 -52t75.5 -145l-190 -29q-5 83 -72 83q-96 0 -126 -144q-7 -27 -7 -58q0 -87 74 -87q71 0 108 88l182 -20q-37 -104 -115 -159.5t-194 -55.5z" />
    <glyph glyph-name="Ccaron" unicode="&#x10c;" horiz-adv-x="861" 
d="M627 858h-175l-119 180h148l64 -98l108 98h170zM406 -17q-149 0 -237 86q-87 85 -87 230q0 51 12 107q37 176 157 278q119 99 288 99q142 0 225 -69t96 -198l-205 -24q-5 57 -39.5 89t-93.5 32q-84 0 -142 -61q-59 -62 -78 -158q-9 -42 -9 -83q0 -157 138 -157
q125 0 184 129l197 -23q-53 -132 -160 -204q-107 -73 -246 -73z" />
    <glyph glyph-name="ccaron" unicode="&#x10d;" horiz-adv-x="667" 
d="M499 638h-174l-118 180h147l64 -98l108 98h170zM299 -17q-122 0 -189 63t-67 172q0 37 8 75q28 132 113.5 200.5t220.5 68.5q110 0 178.5 -52t75.5 -145l-190 -29q-5 83 -72 83q-96 0 -126 -144q-7 -27 -7 -58q0 -87 74 -87q71 0 108 88l182 -20q-37 -104 -115 -159.5
t-194 -55.5z" />
    <glyph glyph-name="Dcaron" unicode="&#x10e;" horiz-adv-x="848" 
d="M813 1038l-196 -180h-175l-119 180h148l64 -98l108 98h170zM193 768h291q163 0 248.5 -79.5t85.5 -220.5q0 -53 -11 -103q-34 -181 -143.5 -273t-304.5 -92h-330zM599 384q8 43 8 80q0 138 -138 138h-107l-94 -436h109q180 0 222 218z" />
    <glyph glyph-name="dcaron" unicode="&#x10f;" horiz-adv-x="980" 
d="M489 479l62 289h200l-164 -768h-185l7 60q-78 -75 -178 -75q-85 0 -137 58.5t-52 160.5q0 44 10 91q26 125 102 197q75 72 173 72q116 0 162 -85zM781 451l114 317h190l-170 -317h-134zM325 144q43 0 75.5 34t45.5 93q4 17 4 42q0 42 -20.5 66.5t-56.5 24.5
q-44 0 -78 -33.5t-46 -94.5q-5 -32 -5 -47q0 -42 21 -63.5t60 -21.5z" />
    <glyph glyph-name="Dcroat" unicode="&#x110;" horiz-adv-x="940" 
d="M285 768h290q164 0 249 -79.5t85 -220.5q0 -56 -10 -103q-71 -365 -448 -365h-330l70 326l-163 -15l31 146l157 -14zM691 384q8 43 8 80q0 138 -138 138h-107l-34 -157l139 12l-31 -146l-134 13l-34 -158h109q178 0 222 218z" />
    <glyph glyph-name="dslash" unicode="&#x111;" horiz-adv-x="833" 
d="M739 714l84 4l-26 -121l-82 5l-128 -602h-185l7 60q-78 -75 -178 -75q-85 0 -137 58.5t-52 160.5q0 44 10 91q26 125 102 197q75 72 173 72q116 0 162 -85l27 128h-144l26 121l142 -11l11 52h200zM325 144q43 0 75.5 34t45.5 93q4 17 4 42q0 42 -20.5 66.5t-56.5 24.5
q-44 0 -78 -33.5t-46 -94.5q-5 -32 -5 -47q0 -42 21 -63.5t60 -21.5z" />
    <glyph glyph-name="Emacron" unicode="&#x112;" horiz-adv-x="728" 
d="M336 989h399l-26 -121h-399zM782 768l-37 -172h-385l-26 -121h350l-34 -164h-351l-29 -139h385l-37 -172h-589l164 768h589z" />
    <glyph glyph-name="emacron" unicode="&#x113;" horiz-adv-x="699" 
d="M256 769h399l-26 -121h-399zM394 564q124 0 192.5 -65t68.5 -177q0 -40 -12 -87h-410q-1 -3 -1 -14q0 -46 24 -72.5t68 -26.5q69 0 112 49l170 -32q-46 -74 -121 -114.5t-169 -40.5q-127 0 -199.5 62.5t-72.5 173.5q0 38 7 70q24 127 114 200q91 74 229 74zM381 438
q-93 0 -128 -105h216v10q0 44 -23.5 69.5t-64.5 25.5z" />
    <glyph glyph-name="Ebreve" unicode="&#x114;" horiz-adv-x="728" 
d="M516 856q-102 0 -151 30.5t-49 96.5q0 26 7 65h119q-3 -14 -3 -26q0 -57 88 -57q54 0 82 19t38 64h125q-23 -105 -79 -148q-58 -44 -177 -44zM782 768l-37 -172h-385l-26 -121h350l-34 -164h-351l-29 -139h385l-37 -172h-589l164 768h589z" />
    <glyph glyph-name="ebreve" unicode="&#x115;" horiz-adv-x="699" 
d="M436 636q-102 0 -151 30.5t-49 96.5q0 33 7 65h119q-3 -14 -3 -26q0 -57 88 -57q54 0 82 19.5t38 63.5h125q-23 -105 -79 -148q-59 -44 -177 -44zM394 564q124 0 192.5 -65t68.5 -177q0 -40 -12 -87h-410q-1 -3 -1 -14q0 -46 24 -72.5t68 -26.5q69 0 112 49l170 -32
q-46 -74 -121 -114.5t-169 -40.5q-127 0 -199.5 62.5t-72.5 173.5q0 38 7 70q24 127 114 200q91 74 229 74zM381 438q-93 0 -128 -105h216v10q0 44 -23.5 69.5t-64.5 25.5z" />
    <glyph glyph-name="Edotaccent" unicode="&#x116;" horiz-adv-x="728" 
d="M447 1027h191l-33 -159h-191zM782 768l-37 -172h-385l-26 -121h350l-34 -164h-351l-29 -139h385l-37 -172h-589l164 768h589z" />
    <glyph glyph-name="edotaccent" unicode="&#x117;" horiz-adv-x="699" 
d="M367 807h191l-33 -159h-191zM643 235h-410q-1 -3 -1 -14q0 -46 24 -72.5t68 -26.5q69 0 112 49l170 -32q-46 -74 -121 -114.5t-169 -40.5q-127 0 -199.5 62.5t-72.5 173.5q0 38 7 70q24 127 114 200q91 74 229 74q124 0 192.5 -65t68.5 -177q0 -40 -12 -87zM381 438
q-93 0 -128 -105h216v10q0 44 -23.5 69.5t-64.5 25.5z" />
    <glyph glyph-name="Eogonek" unicode="&#x118;" horiz-adv-x="728" 
d="M782 768l-37 -172h-385l-26 -121h350l-34 -164h-351l-29 -139h385l-37 -172l-127 -55q-53 -24 -53 -60q0 -42 57 -42h33l-20 -92h-94q-67 0 -103 29t-36 77q0 79 99 126l37 17h-382l164 768h589z" />
    <glyph glyph-name="eogonek" unicode="&#x119;" horiz-adv-x="699" 
d="M643 235h-410q-1 -3 -1 -14q0 -46 24 -72.5t68 -26.5q69 0 112 49l170 -32q-56 -89 -150 -128l-124 -54q-53 -24 -53 -60q0 -42 57 -42h33l-20 -92h-94q-67 0 -103 29t-36 77q0 79 99 126l2 1q-82 21 -127.5 79.5t-45.5 144.5q0 38 7 70q24 127 114 200q91 74 229 74
q124 0 192.5 -65t68.5 -177q0 -40 -12 -87zM381 438q-93 0 -128 -105h216v10q0 44 -23.5 69.5t-64.5 25.5z" />
    <glyph glyph-name="Ecaron" unicode="&#x11a;" horiz-adv-x="728" 
d="M793 1038l-196 -180h-175l-119 180h148l64 -98l108 98h170zM193 768h589l-37 -172h-385l-26 -121h350l-34 -164h-351l-29 -139h385l-37 -172h-589z" />
    <glyph glyph-name="ecaron" unicode="&#x11b;" horiz-adv-x="699" 
d="M713 818l-197 -180h-174l-118 180h147l64 -98l108 98h170zM394 564q124 0 192.5 -65t68.5 -177q0 -40 -12 -87h-410q-1 -3 -1 -14q0 -46 24 -72.5t68 -26.5q69 0 112 49l170 -32q-46 -74 -121 -114.5t-169 -40.5q-127 0 -199.5 62.5t-72.5 173.5q0 38 7 70
q24 127 114 200q91 74 229 74zM381 438q-93 0 -128 -105h216v10q0 44 -23.5 69.5t-64.5 25.5z" />
    <glyph glyph-name="Gcircumflex" unicode="&#x11c;" horiz-adv-x="910" 
d="M643 868l-65 98l-107 -98h-171l196 179h175l119 -179h-147zM635 288h-170l32 147h360l-92 -435h-139l-15 75q-78 -92 -223 -92q-147 0 -226 88q-80 89 -80 228q0 51 11 103q39 182 157 281.5t300 99.5q141 0 224.5 -64.5t96.5 -185.5l-198 -38q-13 115 -141 115
q-89 0 -148.5 -56.5t-83.5 -168.5q-8 -40 -8 -78q0 -75 38 -115t107 -40q141 0 195 124z" />
    <glyph glyph-name="gcircumflex" unicode="&#x11d;" horiz-adv-x="691" 
d="M539 648l-65 98l-107 -98h-171l196 179h175l119 -179h-147zM482 482l23 74h182l-105 -497q-28 -129 -104 -191.5t-205 -62.5q-114 0 -177.5 41.5t-71.5 119.5l186 24q14 -44 73 -44q41 0 64.5 23t35.5 77l12 55q-62 -59 -154 -59q-82 0 -136 54t-54 148q0 137 74 229
q73 91 201 91q107 0 156 -82zM252 272q0 -37 20 -59.5t55 -22.5q51 0 83 44q31 43 31 100q0 34 -20 54.5t-53 20.5q-52 0 -84 -41t-32 -96z" />
    <glyph glyph-name="Gbreve" unicode="&#x11e;" horiz-adv-x="910" 
d="M563 856q-102 0 -151 30.5t-49 96.5q0 26 7 65h119q-3 -13 -3 -26q0 -57 88 -57q54 0 82 19t38 64h125q-23 -105 -79 -148q-58 -44 -177 -44zM635 288h-170l32 147h360l-92 -435h-139l-15 75q-78 -92 -223 -92q-147 0 -226 88q-80 89 -80 228q0 51 11 103
q39 182 157 281.5t300 99.5q141 0 224.5 -64.5t96.5 -185.5l-198 -38q-13 115 -141 115q-89 0 -148.5 -56.5t-83.5 -168.5q-8 -40 -8 -78q0 -75 38 -115t107 -40q141 0 195 124z" />
    <glyph glyph-name="gbreve" unicode="&#x11f;" horiz-adv-x="691" 
d="M459 636q-102 0 -151 30.5t-49 96.5q0 33 7 65h119q-3 -14 -3 -26q0 -57 88 -57q54 0 82 19.5t38 63.5h125q-23 -105 -79 -148q-59 -44 -177 -44zM482 482l23 74h182l-105 -497q-28 -129 -104 -191.5t-205 -62.5q-114 0 -177.5 41.5t-71.5 119.5l186 24q14 -44 73 -44
q41 0 64.5 23t35.5 77l12 55q-62 -59 -154 -59q-82 0 -136 54t-54 148q0 137 74 229q73 91 201 91q107 0 156 -82zM252 272q0 -37 20 -59.5t55 -22.5q51 0 83 44q31 43 31 100q0 34 -20 54.5t-53 20.5q-52 0 -84 -41t-32 -96z" />
    <glyph glyph-name="Gdotaccent" unicode="&#x120;" horiz-adv-x="910" 
d="M495 1027h191l-33 -159h-191zM635 288h-170l32 147h360l-92 -435h-139l-15 75q-78 -92 -223 -92q-147 0 -226 88q-80 89 -80 228q0 51 11 103q39 182 157 281.5t300 99.5q141 0 224.5 -64.5t96.5 -185.5l-198 -38q-13 115 -141 115q-89 0 -148.5 -56.5t-83.5 -168.5
q-8 -40 -8 -78q0 -75 38 -115t107 -40q141 0 195 124z" />
    <glyph glyph-name="gdotaccent" unicode="&#x121;" horiz-adv-x="691" 
d="M390 807h191l-33 -159h-191zM482 482l23 74h182l-105 -497q-28 -129 -104 -191.5t-205 -62.5q-114 0 -177.5 41.5t-71.5 119.5l186 24q14 -44 73 -44q41 0 64.5 23t35.5 77l12 55q-62 -59 -154 -59q-82 0 -136 54t-54 148q0 137 74 229q73 91 201 91q107 0 156 -82z
M252 272q0 -37 20 -59.5t55 -22.5q51 0 83 44q31 43 31 100q0 34 -20 54.5t-53 20.5q-52 0 -84 -41t-32 -96z" />
    <glyph glyph-name="uni0122" unicode="&#x122;" horiz-adv-x="910" 
d="M635 288h-170l32 147h360l-92 -435h-139l-15 75q-78 -92 -223 -92q-147 0 -226 88q-80 89 -80 228q0 51 11 103q39 182 157 281.5t300 99.5q141 0 224.5 -64.5t96.5 -185.5l-198 -38q-13 115 -141 115q-89 0 -148.5 -56.5t-83.5 -168.5q-8 -40 -8 -78q0 -75 38 -115
t107 -40q141 0 195 124zM379 -198l-144 -23l27 130h219l-27 -123q-18 -83 -57 -112q-40 -28 -136 -28h-55l15 69h71q66 0 80 57z" />
    <glyph glyph-name="uni0123" unicode="&#x123;" horiz-adv-x="691" 
d="M447 767l143 24l-30 -143h-218l29 135q18 86 60 119q41 33 135 33h55l-15 -70h-71q-68 0 -80 -56zM482 482l23 74h182l-105 -497q-28 -129 -104 -191.5t-205 -62.5q-114 0 -177.5 41.5t-71.5 119.5l186 24q14 -44 73 -44q41 0 64.5 23t35.5 77l12 55q-62 -59 -154 -59
q-82 0 -136 54t-54 148q0 137 74 229q73 91 201 91q107 0 156 -82zM252 272q0 -37 20 -59.5t55 -22.5q51 0 83 44q31 43 31 100q0 34 -20 54.5t-53 20.5q-52 0 -84 -41t-32 -96z" />
    <glyph glyph-name="Hcircumflex" unicode="&#x124;" horiz-adv-x="839" 
d="M634 868l-65 98l-107 -98h-171l196 179h175l119 -179h-147zM591 479l62 289h204l-164 -768h-204l65 306h-256l-65 -306h-204l164 768h204l-62 -289h256z" />
    <glyph glyph-name="hcircumflex" unicode="&#x125;" horiz-adv-x="680" 
d="M377 868l-65 98l-107 -98h-171l196 179h175l119 -179h-147zM480 563q73 0 114.5 -43.5t41.5 -117.5q0 -30 -6 -64l-73 -338h-200l68 318q3 15 3 25q0 52 -54 52q-38 0 -66.5 -28t-40.5 -77l-62 -290h-200l164 768h200l-60 -280q77 75 171 75z" />
    <glyph glyph-name="Hbar" unicode="&#x126;" horiz-adv-x="840" 
d="M632 667l22 101h204l-164 -768h-204l57 266h-257l-57 -266h-204l164 768h204l-22 -101h257zM344 522l-23 -111h257l23 111h-257z" />
    <glyph glyph-name="hbar" unicode="&#x127;" horiz-adv-x="711" 
d="M508 543q72 0 114 -43.5t42 -117.5q0 -35 -7 -64l-70 -318h-200l65 298q3 15 3 25q0 24 -15 38t-41 14q-36 0 -63 -25t-40 -69l-60 -281h-200l128 601l-85 -5l26 121l83 -5l18 85h200l-17 -82l146 12l-26 -121h-144l-29 -139q76 76 172 76z" />
    <glyph glyph-name="Itilde" unicode="&#x128;" horiz-adv-x="380" 
d="M193 854h-134q45 205 190 205q65 0 104 -39q38 -40 63 -40q43 0 59 70h133q-22 -98 -70 -151.5t-121 -53.5q-66 0 -102 40q-37 39 -63 39q-43 0 -59 -70zM233 0h-204l164 768h204z" />
    <glyph glyph-name="itilde" unicode="&#x129;" horiz-adv-x="327" 
d="M119 634h-134q45 205 190 205q65 0 104 -39q38 -40 63 -40q43 0 59 70h133q-22 -98 -70 -151.5t-121 -53.5q-66 0 -102 40q-37 39 -63 39q-43 0 -59 -70zM205 0h-200l116 548h200z" />
    <glyph glyph-name="Imacron" unicode="&#x12a;" horiz-adv-x="380" 
d="M516 868h-399l26 121h399zM233 0h-204l164 768h204z" />
    <glyph glyph-name="imacron" unicode="&#x12b;" horiz-adv-x="327" 
d="M442 648h-399l26 121h399zM205 0h-200l116 548h200z" />
    <glyph glyph-name="Ibreve" unicode="&#x12c;" horiz-adv-x="380" 
d="M323 856q-102 0 -151 30.5t-49 96.5q0 26 7 65h119q-3 -14 -3 -26q0 -57 88 -57q54 0 82 19t38 64h125q-23 -105 -79 -148q-58 -44 -177 -44zM233 0h-204l164 768h204z" />
    <glyph glyph-name="ibreve" unicode="&#x12d;" horiz-adv-x="327" 
d="M249 636q-102 0 -151 30.5t-49 96.5q0 33 7 65h119q-3 -14 -3 -26q0 -57 88 -57q54 0 82 19.5t38 63.5h125q-23 -105 -79 -148q-59 -44 -177 -44zM205 0h-200l116 548h200z" />
    <glyph glyph-name="Iogonek" unicode="&#x12e;" horiz-adv-x="380" 
d="M233 0l-73 -50q-50 -33 -50 -65q0 -19 15.5 -30.5t41.5 -11.5h33l-20 -92h-83q-68 0 -103.5 28.5t-35.5 77.5q0 43 24 72.5t74 55.5l30 15h-57l164 768h204z" />
    <glyph glyph-name="iogonek" unicode="&#x12f;" horiz-adv-x="327" 
d="M143 648l34 159h200l-34 -159h-200zM58 0h-53l116 547h200l-116 -547l-73 -50q-49 -31 -49 -65q0 -42 57 -42h32l-19 -92h-83q-68 0 -104 28.5t-36 77.5q0 77 98 128z" />
    <glyph glyph-name="Idot" unicode="&#x130;" horiz-adv-x="380" 
d="M415 882h-191l32 151h192zM233 0h-204l164 768h204z" />
    <glyph glyph-name="dotlessi" unicode="&#x131;" horiz-adv-x="327" 
d="M205 0h-200l116 548h200z" />
    <glyph glyph-name="IJ" unicode="&#x132;" horiz-adv-x="1075" 
d="M233 0h-204l164 768h204zM655 -16q-112 0 -179 58q-68 57 -68 150q0 40 15 96h197q-12 -40 -12 -66q0 -66 67 -66q72 0 92 89l110 523h215l-110 -523q-56 -261 -327 -261z" />
    <glyph glyph-name="ij" unicode="&#x133;" horiz-adv-x="654" 
d="M343 648h-200l34 159h200zM670 648h-200l34 159h200zM205 0h-200l116 548h200zM279 -214h-82l30 138h35q54 0 66 58l119 566h200l-119 -567q-22 -107 -79 -152q-55 -43 -170 -43z" />
    <glyph glyph-name="Jcircumflex" unicode="&#x134;" horiz-adv-x="706" 
d="M551 868h-171l196 179h175l119 -179h-147l-65 98zM286 -16q-112 0 -179 58q-68 57 -68 150q0 40 15 96h197q-12 -40 -12 -66q0 -66 67 -66q72 0 92 89l110 523h215l-110 -523q-55 -261 -327 -261z" />
    <glyph glyph-name="jcircumflex" unicode="&#x135;" horiz-adv-x="327" 
d="M158 648h-171l196 179h175l119 -179h-147l-65 98zM-48 -214h-82l30 138h35q54 0 66 58l119 566h200l-119 -567q-22 -107 -79 -152q-55 -43 -170 -43z" />
    <glyph glyph-name="uni0136" unicode="&#x136;" horiz-adv-x="840" 
d="M651 768h257l-352 -341l210 -427h-226l-147 304l-120 -115l-40 -189h-204l164 768h204l-70 -328zM372 -198l-144 -23l27 130h219l-27 -123q-18 -83 -57 -112q-40 -28 -135 -28h-55l14 69h71q67 0 80 57z" />
    <glyph glyph-name="uni0137" unicode="&#x137;" horiz-adv-x="693" 
d="M498 548h223l-270 -237l159 -311h-202l-88 206l-87 -74l-28 -132h-200l164 768h200l-91 -428zM273 -198l-144 -23l27 130h219l-27 -123q-18 -83 -57 -112q-40 -28 -135 -28h-55l14 69h71q66 0 80 57z" />
    <glyph glyph-name="kgreenlandic" unicode="&#x138;" horiz-adv-x="693" 
d="M498 548h223l-270 -237l159 -311h-202l-88 206l-87 -75l-28 -131h-200l116 548h200l-44 -209z" />
    <glyph glyph-name="Lacute" unicode="&#x139;" horiz-adv-x="666" 
d="M318 1059h230l-170 -181h-176zM408 768l-127 -593h332l-37 -175h-547l164 768h215z" />
    <glyph glyph-name="lacute" unicode="&#x13a;" horiz-adv-x="328" 
d="M345 878h-176l116 181h230zM205 0h-200l164 768h200z" />
    <glyph glyph-name="uni013B" unicode="&#x13b;" horiz-adv-x="666" 
d="M408 768l-127 -593h332l-37 -175h-547l164 768h215zM291 -198l-144 -23l27 130h219l-27 -123q-18 -83 -57 -112q-40 -28 -135 -28h-55l14 69h71q66 0 80 57z" />
    <glyph glyph-name="uni013C" unicode="&#x13c;" horiz-adv-x="328" 
d="M205 0h-200l164 768h200zM-25 -354h-55l14 69h71q67 0 80 57l7 30l-144 -23l27 130h219l-27 -123q-18 -83 -57 -112q-40 -28 -135 -28z" />
    <glyph glyph-name="Lcaron" unicode="&#x13d;" horiz-adv-x="666" 
d="M193 768h215l-127 -593h332l-37 -175h-547zM561 768h190l-169 -317h-134z" />
    <glyph glyph-name="lcaron" unicode="&#x13e;" horiz-adv-x="589" 
d="M205 0h-200l164 768h200zM524 451h-134l114 317h190z" />
    <glyph glyph-name="Ldot" unicode="&#x13f;" horiz-adv-x="666" 
d="M193 768h215l-127 -593h332l-37 -175h-547zM440 353l41 192h197l-40 -192h-198z" />
    <glyph glyph-name="ldot" unicode="&#x140;" horiz-adv-x="591" 
d="M205 0h-200l164 768h200zM567 277h-211l44 208h211z" />
    <glyph glyph-name="Lslash" unicode="&#x141;" horiz-adv-x="828" 
d="M737 465l-249 -81l-45 -209h332l-37 -175h-546l62 292l-254 -116l73 172l207 64l76 356h214l-56 -263l297 131z" />
    <glyph glyph-name="lslash" unicode="&#x142;" horiz-adv-x="556" 
d="M419 493l151 75l-34 -162l-144 -43l-78 -363h-200l58 271l-139 -68l34 163l133 37l78 365h200z" />
    <glyph glyph-name="Nacute" unicode="&#x143;" horiz-adv-x="881" 
d="M572 1059h230l-170 -181h-176zM594 265l108 503h197l-164 -768h-242l-159 507l-108 -507h-197l164 768h246z" />
    <glyph glyph-name="nacute" unicode="&#x144;" horiz-adv-x="680" 
d="M417 854h230l-170 -181h-176zM480 563q73 0 114.5 -43.5t41.5 -118.5q0 -32 -8 -72l-71 -329h-200l68 318q3 15 3 25q0 52 -54 52q-38 0 -65.5 -26.5t-40.5 -74.5l-63 -294h-200l117 548h185l-8 -70q79 85 181 85z" />
    <glyph glyph-name="uni0145" unicode="&#x145;" horiz-adv-x="881" 
d="M594 265l108 503h197l-164 -768h-242l-159 507l-108 -507h-197l164 768h246zM369 -198l-144 -23l27 130h219l-27 -123q-18 -83 -57 -112q-40 -28 -135 -28h-55l14 69h71q66 0 80 57z" />
    <glyph glyph-name="uni0146" unicode="&#x146;" horiz-adv-x="680" 
d="M480 563q73 0 114.5 -43.5t41.5 -118.5q0 -32 -8 -72l-71 -329h-200l68 318q3 15 3 25q0 52 -54 52q-38 0 -65.5 -26.5t-40.5 -74.5l-63 -294h-200l117 548h185l-8 -70q79 85 181 85zM267 -198l-144 -23l27 130h219l-27 -123q-18 -83 -57 -112q-40 -28 -135 -28h-55
l14 69h71q66 0 80 57z" />
    <glyph glyph-name="Ncaron" unicode="&#x147;" horiz-adv-x="881" 
d="M861 1038l-196 -180h-175l-119 180h148l64 -98l108 98h170zM594 265l108 503h197l-164 -768h-242l-159 507l-108 -507h-197l164 768h246z" />
    <glyph glyph-name="ncaron" unicode="&#x148;" horiz-adv-x="680" 
d="M706 833l-197 -180h-174l-118 180h147l64 -98l108 98h170zM480 563q73 0 114.5 -43.5t41.5 -118.5q0 -32 -8 -72l-71 -329h-200l68 318q3 15 3 25q0 52 -54 52q-38 0 -65.5 -26.5t-40.5 -74.5l-63 -294h-200l117 548h185l-8 -70q79 85 181 85z" />
    <glyph glyph-name="napostrophe" unicode="&#x149;" horiz-adv-x="965" 
d="M137 767h228l-48 -233q-23 -110 -73 -150q-52 -40 -169 -40h-27l20 92h45q87 0 100 73l21 100l-137 -30zM766 563q73 0 114.5 -43.5t41.5 -118.5q0 -29 -9 -72l-70 -329h-200l67 318q4 12 4 25q0 52 -55 52q-38 0 -65.5 -27t-39.5 -73l-63 -295h-200l117 548h185l-8 -70
q79 85 181 85z" />
    <glyph glyph-name="Eng" unicode="&#x14a;" horiz-adv-x="861" 
d="M879 768l-52 -247l-81 -378l-30 -143l-4 -18q-22 -102 -84 -149t-173 -47h-113l29 138h78q54 0 66 58l4 20l-190 486l-104 -488h-196l163 768h225l175 -425l90 425h197z" />
    <glyph glyph-name="eng" unicode="&#x14b;" horiz-adv-x="680" 
d="M480 563q73 0 114.5 -43.5t41.5 -118.5q0 -32 -8 -72l-74 -347q-22 -101 -85 -148.5t-174 -47.5h-72l30 138h35q53 0 66 58l71 336q3 15 3 25q0 52 -54 52q-38 0 -65.5 -26.5t-40.5 -74.5l-63 -294h-200l117 548h185l-8 -70q79 85 181 85z" />
    <glyph glyph-name="Omacron" unicode="&#x14c;" horiz-adv-x="921" 
d="M764 869h-399l26 121h399zM415 -16q-155 0 -244 84q-89 83 -89 227q0 52 12 109q37 173 162 277q124 103 298 103q154 0 243 -84q89 -86 89 -230q0 -45 -11 -106q-38 -177 -158 -278q-121 -102 -302 -102zM436 152q86 0 146.5 59t83.5 173q8 42 8 78q0 77 -37 115.5
t-104 38.5q-86 0 -147.5 -59t-84.5 -173q-8 -40 -8 -77q0 -76 38 -115.5t105 -39.5z" />
    <glyph glyph-name="omacron" unicode="&#x14d;" horiz-adv-x="691" 
d="M628 648h-399l26 121h399zM297 -17q-119 0 -187 62t-68 168q0 30 7 68q26 136 115 209.5t230 73.5q120 0 187.5 -62t67.5 -170q0 -35 -8 -72q-26 -136 -113 -206.5t-231 -70.5zM316 133q94 0 124 138q7 29 7 61q0 83 -71 83q-96 0 -125 -144q-6 -31 -6 -56q0 -82 71 -82z
" />
    <glyph glyph-name="Obreve" unicode="&#x14e;" horiz-adv-x="921" 
d="M571 857q-102 0 -151 30.5t-49 96.5q0 26 7 65h119q-3 -13 -3 -26q0 -57 88 -57q54 0 82 19t38 64h125q-23 -105 -79 -148q-58 -44 -177 -44zM415 -16q-155 0 -244 84q-89 83 -89 227q0 52 12 109q37 173 162 277q124 103 298 103q154 0 243 -84q89 -86 89 -230
q0 -45 -11 -106q-38 -177 -158 -278q-121 -102 -302 -102zM436 152q86 0 146.5 59t83.5 173q8 42 8 78q0 77 -37 115.5t-104 38.5q-86 0 -147.5 -59t-84.5 -173q-8 -40 -8 -77q0 -76 38 -115.5t105 -39.5z" />
    <glyph glyph-name="obreve" unicode="&#x14f;" horiz-adv-x="691" 
d="M435 636q-102 0 -151 30.5t-49 96.5q0 33 7 65h119q-3 -14 -3 -26q0 -57 88 -57q54 0 82 19.5t38 63.5h125q-23 -105 -79 -148q-59 -44 -177 -44zM297 -17q-119 0 -187 62t-68 168q0 30 7 68q26 136 115 209.5t230 73.5q120 0 187.5 -62t67.5 -170q0 -35 -8 -72
q-26 -136 -113 -206.5t-231 -70.5zM316 133q94 0 124 138q7 29 7 61q0 83 -71 83q-96 0 -125 -144q-6 -31 -6 -56q0 -82 71 -82z" />
    <glyph glyph-name="Ohungarumlaut" unicode="&#x150;" horiz-adv-x="921" 
d="M478 868h-177l108 201h221zM790 868h-176l117 201h220zM415 -16q-155 0 -244 84q-89 83 -89 227q0 52 12 109q37 173 162 277q124 103 298 103q154 0 243 -84q89 -86 89 -230q0 -45 -11 -106q-38 -177 -158 -278q-121 -102 -302 -102zM436 152q86 0 146.5 59t83.5 173
q8 42 8 78q0 77 -37 115.5t-104 38.5q-86 0 -147.5 -59t-84.5 -173q-8 -40 -8 -77q0 -76 38 -115.5t105 -39.5z" />
    <glyph glyph-name="ohungarumlaut" unicode="&#x151;" horiz-adv-x="691" 
d="M342 647h-177l108 201h221zM655 647h-177l117 201h220zM297 -17q-119 0 -187 62t-68 168q0 30 7 68q26 136 115 209.5t230 73.5q120 0 187.5 -62t67.5 -170q0 -35 -8 -72q-26 -136 -113 -206.5t-231 -70.5zM316 133q94 0 124 138q7 29 7 61q0 83 -71 83q-96 0 -125 -144
q-6 -31 -6 -56q0 -82 71 -82z" />
    <glyph glyph-name="OE" unicode="&#x152;" horiz-adv-x="1284" 
d="M1338 768l-37 -172h-385l-26 -121h350l-35 -164h-350l-29 -139h385l-37 -172h-589l18 85q-99 -101 -233 -101q-128 0 -207 87q-81 87 -81 224q0 52 12 109q36 173 152 277q115 103 265 103q156 0 216 -118l22 102h589zM439 152q84 0 144 59t83 173q8 42 8 77
q0 76 -39 115.5t-107 39.5q-87 0 -145 -59t-82 -170q-8 -40 -8 -77q0 -77 39 -117.5t107 -40.5z" />
    <glyph glyph-name="oe" unicode="&#x153;" horiz-adv-x="1056" 
d="M1000 236l-396 11q-2 -26 -2 -31q0 -43 24 -68t69 -25q65 0 110 48l154 -36q-103 -151 -266 -151q-71 0 -122.5 30.5t-78.5 85.5q-89 -116 -226 -116q-100 0 -161 64q-62 65 -62 168q0 140 91 244q92 104 226 104q69 0 119 -30t74 -84q93 114 236 114q104 0 164 -60.5
t60 -162.5q0 -57 -13 -105zM762 438q-48 0 -85 -32t-56 -85l223 8v16q0 44 -21.5 68.5t-60.5 24.5zM304 133q61 0 95 61q34 59 34 135q0 86 -74 86q-60 0 -95 -60q-34 -59 -34 -135q0 -41 19.5 -64t54.5 -23z" />
    <glyph glyph-name="Racute" unicode="&#x154;" horiz-adv-x="802" 
d="M502 1059h230l-170 -181h-176zM812 598q0 -90 -56 -149t-155 -81q108 -28 108 -150q0 -7 -2 -47l-14 -171h-194l16 170q2 24 2 45q0 36 -18.5 51t-65.5 15h-140l-60 -281h-204l164 768h412q98 0 152.5 -46.5t54.5 -123.5zM327 439h115q67 0 107 29t40 82q0 59 -90 59
h-136z" />
    <glyph glyph-name="racute" unicode="&#x155;" horiz-adv-x="524" 
d="M317 839h230l-170 -181h-176zM307 548l-12 -99q67 115 189 115h42l-37 -172h-40q-142 0 -184 -111l-60 -281h-200l117 548h185z" />
    <glyph glyph-name="uni0156" unicode="&#x156;" horiz-adv-x="802" 
d="M812 598q0 -90 -56 -149t-155 -81q108 -28 108 -150q0 -7 -2 -47l-14 -171h-194l16 170q2 24 2 45q0 36 -18.5 51t-65.5 15h-140l-60 -281h-204l164 768h412q98 0 152.5 -46.5t54.5 -123.5zM327 439h115q67 0 107 29t40 82q0 59 -90 59h-136zM353 -198l-144 -23l27 130
h219l-27 -123q-18 -83 -57 -112q-40 -28 -135 -28h-55l14 69h71q66 0 80 57z" />
    <glyph glyph-name="uni0157" unicode="&#x157;" horiz-adv-x="524" 
d="M484 564h42l-37 -172h-40q-142 0 -184 -111l-60 -281h-200l117 548h185l-12 -99q67 115 189 115zM91 -198l-144 -23l27 130h219l-27 -123q-18 -83 -57 -112q-40 -28 -135 -28h-55l14 69h71q66 0 80 57z" />
    <glyph glyph-name="Rcaron" unicode="&#x158;" horiz-adv-x="802" 
d="M790 1038l-196 -180h-175l-119 180h148l64 -98l108 98h170zM812 598q0 -90 -56 -149t-155 -81q108 -28 108 -150q0 -7 -2 -47l-14 -171h-194l16 170q2 24 2 45q0 36 -18.5 51t-65.5 15h-140l-60 -281h-204l164 768h412q98 0 152.5 -46.5t54.5 -123.5zM327 439h115
q67 0 107 29t40 82q0 59 -90 59h-136z" />
    <glyph glyph-name="rcaron" unicode="&#x159;" horiz-adv-x="524" 
d="M606 818l-197 -180h-174l-118 180h147l64 -98l108 98h170zM307 548l-12 -99q67 115 189 115h42l-37 -172h-40q-142 0 -184 -111l-60 -281h-200l117 548h185z" />
    <glyph glyph-name="Sacute" unicode="&#x15a;" horiz-adv-x="786" 
d="M559 880h-176l116 181h230zM351 -16q-148 0 -230.5 54.5t-82.5 156.5v10l201 20v-6q0 -85 127 -85q142 0 142 90q0 28 -19 44t-66 26l-96 21q-98 21 -151 73.5t-53 129.5q0 129 92.5 197.5t257.5 68.5q147 0 226.5 -51.5t79.5 -147.5v-7l-194 -18v7q0 34 -33.5 53
t-91.5 19q-122 0 -122 -83q0 -48 76 -61l87 -19q224 -45 224 -207q0 -143 -100 -213q-101 -72 -274 -72z" />
    <glyph glyph-name="sacute" unicode="&#x15b;" horiz-adv-x="636" 
d="M451 680h-176l116 181h230zM280 -23q-119 0 -189 44t-73 126l187 18q9 -67 85 -67q83 0 83 55q0 32 -53 46l-97 25q-64 15 -102.5 52.5t-38.5 96.5q0 101 78 149t206 48q115 0 177.5 -42.5t66.5 -117.5l-185 -17q-2 28 -22.5 43t-52.5 15q-75 0 -75 -47q0 -34 45 -43
l83 -18q88 -19 125.5 -56t37.5 -107q0 -98 -75.5 -150.5t-210.5 -52.5z" />
    <glyph glyph-name="Scircumflex" unicode="&#x15c;" horiz-adv-x="786" 
d="M419 870h-171l196 179h175l119 -179h-147l-65 98zM351 -16q-148 0 -230.5 54.5t-82.5 156.5v10l201 20v-6q0 -85 127 -85q142 0 142 90q0 28 -19 44t-66 26l-96 21q-98 21 -151 73.5t-53 129.5q0 129 92.5 197.5t257.5 68.5q147 0 226.5 -51.5t79.5 -147.5v-7l-194 -18v7
q0 34 -33.5 53t-91.5 19q-122 0 -122 -83q0 -48 76 -61l87 -19q224 -45 224 -207q0 -143 -100 -213q-101 -72 -274 -72z" />
    <glyph glyph-name="scircumflex" unicode="&#x15d;" horiz-adv-x="636" 
d="M311 670h-171l196 179h175l119 -179h-147l-65 98zM280 -23q-119 0 -189 44t-73 126l187 18q9 -67 85 -67q83 0 83 55q0 32 -53 46l-97 25q-64 15 -102.5 52.5t-38.5 96.5q0 101 78 149t206 48q115 0 177.5 -42.5t66.5 -117.5l-185 -17q-2 28 -22.5 43t-52.5 15
q-75 0 -75 -47q0 -34 45 -43l83 -18q88 -19 125.5 -56t37.5 -107q0 -98 -75.5 -150.5t-210.5 -52.5z" />
    <glyph glyph-name="Scedilla" unicode="&#x15e;" horiz-adv-x="786" 
d="M351 -16q-148 0 -230.5 54.5t-82.5 156.5v10l201 20v-6q0 -85 127 -85q142 0 142 90q0 28 -19 44t-66 26l-96 21q-98 21 -151 73.5t-53 129.5q0 129 92.5 197.5t257.5 68.5q147 0 226.5 -51.5t79.5 -147.5v-7l-194 -18v7q0 34 -33.5 53t-91.5 19q-122 0 -122 -83
q0 -48 76 -61l87 -19q224 -45 224 -207q0 -143 -100 -213q-101 -72 -274 -72zM269 -277h-88l16 74h82q72 0 72 42q0 27 -35 27h-105l14 67h130q120 0 120 -90q0 -120 -206 -120z" />
    <glyph glyph-name="scedilla" unicode="&#x15f;" horiz-adv-x="636" 
d="M280 -23q-119 0 -189 44t-73 126l187 18q9 -67 85 -67q83 0 83 55q0 32 -53 46l-97 25q-64 15 -102.5 52.5t-38.5 96.5q0 101 78 149t206 48q115 0 177.5 -42.5t66.5 -117.5l-185 -17q-2 28 -22.5 43t-52.5 15q-75 0 -75 -47q0 -34 45 -43l83 -18q88 -19 125.5 -56
t37.5 -107q0 -98 -75.5 -150.5t-210.5 -52.5zM198 -286h-88l16 74h82q72 0 72 42q0 27 -35 27h-105l14 67h130q120 0 120 -90q0 -120 -206 -120z" />
    <glyph glyph-name="Scaron" unicode="&#x160;" horiz-adv-x="786" 
d="M592 860h-175l-119 180h148l64 -98l108 98h170zM351 -16q-148 0 -230.5 54.5t-82.5 156.5v10l201 20v-6q0 -85 127 -85q142 0 142 90q0 28 -19 44t-66 26l-96 21q-98 21 -151 73.5t-53 129.5q0 129 92.5 197.5t257.5 68.5q147 0 226.5 -51.5t79.5 -147.5v-7l-194 -18v7
q0 34 -33.5 53t-91.5 19q-122 0 -122 -83q0 -48 76 -61l87 -19q224 -45 224 -207q0 -143 -100 -213q-101 -72 -274 -72z" />
    <glyph glyph-name="scaron" unicode="&#x161;" horiz-adv-x="636" 
d="M483 660h-174l-118 180h147l64 -98l108 98h170zM280 -23q-119 0 -189 44t-73 126l187 18q9 -67 85 -67q83 0 83 55q0 32 -53 46l-97 25q-64 15 -102.5 52.5t-38.5 96.5q0 101 78 149t206 48q115 0 177.5 -42.5t66.5 -117.5l-185 -17q-2 28 -22.5 43t-52.5 15
q-75 0 -75 -47q0 -34 45 -43l83 -18q88 -19 125.5 -56t37.5 -107q0 -98 -75.5 -150.5t-210.5 -52.5z" />
    <glyph glyph-name="uni0162" unicode="&#x162;" horiz-adv-x="745" 
d="M149 768h657l-37 -172h-226l-128 -596h-204l128 596h-227zM190 -66h130q120 0 120 -90q0 -120 -206 -120h-88l16 74h82q72 0 72 42q0 27 -35 27h-105z" />
    <glyph glyph-name="uni0163" unicode="&#x163;" horiz-adv-x="551" 
d="M362 432l-1 -46l-36 -172q-4 -12 -4 -24q0 -17 10 -23.5t35 -6.5h101l-35 -160h-139q-92 0 -136 29t-44 91q0 24 6 52l46 214l18 45l-131 -6l27 123l129 -7v48l26 123h197l-26 -121l-21 -50l165 7l-26 -123zM117 -56h130q61 0 90.5 -21t29.5 -68q0 -120 -206 -120h-88
l16 74h82q72 0 72 42q0 27 -35 27h-105z" />
    <glyph glyph-name="Tcaron" unicode="&#x164;" horiz-adv-x="745" 
d="M782 1038l-196 -180h-175l-119 180h148l64 -98l108 98h170zM149 768h657l-37 -172h-226l-128 -596h-204l128 596h-227z" />
    <glyph glyph-name="tcaron" unicode="&#x165;" horiz-adv-x="584" 
d="M486 622l114 317h190l-170 -317h-134zM431 712l-26 -121l-21 -50l165 7l-26 -123l-161 7l-1 -46l-36 -172q-4 -12 -4 -24q0 -17 10 -23.5t35 -6.5h101l-35 -160h-139q-92 0 -136 29t-44 91q0 24 6 52l46 214l18 45l-131 -6l27 123l129 -7v48l26 123h197z" />
    <glyph glyph-name="Tbar" unicode="&#x166;" horiz-adv-x="745" 
d="M806 768l-37 -172h-226l-38 -177l173 9l-31 -144l-169 9l-63 -293h-204l63 293l-174 -9l31 144l170 -9l38 177h-227l37 172h657z" />
    <glyph glyph-name="tbar" unicode="&#x167;" horiz-adv-x="591" 
d="M588 548l-26 -123l-152 7l-15 -73l156 6l-27 -123l-152 7l-8 -36q-3 -14 -3 -23q0 -17 10 -23.5t34 -6.5h101l-35 -160h-138q-93 0 -137 28.5t-44 91.5q0 24 6 52l16 76l-120 -6l26 123l118 -5l15 71l-121 -6l26 123l119 -6l36 170h197l-36 -171z" />
    <glyph glyph-name="Utilde" unicode="&#x168;" horiz-adv-x="852" 
d="M425 854h-134q45 205 190 205q65 0 104 -39q38 -40 63 -40q43 0 59 70h133q-22 -98 -70 -151.5t-121 -53.5q-66 0 -102 40q-37 39 -63 39q-43 0 -59 -70zM384 -16q-136 0 -219 59t-83 171q0 33 10 82l100 472h216l-103 -482q-4 -17 -4 -38q0 -85 101 -85q123 0 150 123
l102 482h215l-104 -491q-62 -293 -381 -293z" />
    <glyph glyph-name="utilde" unicode="&#x169;" horiz-adv-x="680" 
d="M344 704q-43 0 -59 -70h-134q45 205 190 205q65 0 104 -39q38 -40 63 -40q43 0 59 70h133q-22 -98 -70 -151.5t-121 -53.5q-66 0 -102 40q-37 39 -63 39zM412 258h1l61 290h200l-117 -548h-184l8 72q-79 -87 -182 -87q-72 0 -114 43.5t-42 118.5q0 29 9 72l70 329h200
l-67 -318q-3 -15 -3 -25q0 -52 54 -52q38 0 66.5 28.5t39.5 76.5z" />
    <glyph glyph-name="Umacron" unicode="&#x16a;" horiz-adv-x="852" 
d="M749 868h-399l26 121h399zM384 -16q-136 0 -219 59t-83 171q0 33 10 82l100 472h216l-103 -482q-4 -17 -4 -38q0 -85 101 -85q123 0 150 123l102 482h215l-104 -491q-62 -293 -381 -293z" />
    <glyph glyph-name="umacron" unicode="&#x16b;" horiz-adv-x="680" 
d="M236 769h399l-26 -121h-399zM413 258l61 290h200l-117 -548h-184l8 72q-79 -87 -182 -87q-72 0 -114 43.5t-42 118.5q0 29 9 72l70 329h200l-67 -318q-3 -15 -3 -25q0 -52 54 -52q38 0 66.5 28.5t39.5 76.5h1z" />
    <glyph glyph-name="Ubreve" unicode="&#x16c;" horiz-adv-x="852" 
d="M556 856q-102 0 -151 30.5t-49 96.5q0 26 7 65h119q-3 -14 -3 -26q0 -57 88 -57q54 0 82 19t38 64h125q-23 -105 -79 -148q-58 -44 -177 -44zM384 -16q-136 0 -219 59t-83 171q0 33 10 82l100 472h216l-103 -482q-4 -17 -4 -38q0 -85 101 -85q123 0 150 123l102 482h215
l-104 -491q-62 -293 -381 -293z" />
    <glyph glyph-name="ubreve" unicode="&#x16d;" horiz-adv-x="680" 
d="M416 636q-102 0 -151 30.5t-49 96.5q0 33 7 65h119q-3 -14 -3 -26q0 -57 88 -57q54 0 82 19.5t38 63.5h125q-23 -105 -79 -148q-59 -44 -177 -44zM413 258l61 290h200l-117 -548h-184l8 72q-79 -87 -182 -87q-72 0 -114 43.5t-42 118.5q0 29 9 72l70 329h200l-67 -318
q-3 -15 -3 -25q0 -52 54 -52q38 0 66.5 28.5t39.5 76.5h1z" />
    <glyph glyph-name="Uring" unicode="&#x16e;" horiz-adv-x="852" 
d="M552 791q-69 0 -114 45q-46 45 -46 114t46 114q45 45 114 45q70 0 116 -45q45 -45 45 -114t-45 -114q-46 -45 -116 -45zM504 900q19 -19 48.5 -19t48.5 19t19 50t-19 50q-30 31 -75 14t-41 -64q0 -31 19 -50zM384 -16q-136 0 -219 59t-83 171q0 33 10 82l100 472h216
l-103 -482q-4 -17 -4 -38q0 -85 101 -85q123 0 150 123l102 482h215l-104 -491q-62 -293 -381 -293z" />
    <glyph glyph-name="uring" unicode="&#x16f;" horiz-adv-x="680" 
d="M551 659q-45 -45 -115 -45t-115 45q-45 43 -45 113t45 115t115 45t115 -45t45 -115t-45 -113zM485 823q-29 31 -75 13.5t-42 -64.5q0 -30 19 -49.5t49 -19.5t49 19.5t19 49.5q0 32 -19 51zM413 258l61 290h200l-117 -548h-184l8 72q-79 -87 -182 -87q-72 0 -114 43.5
t-42 118.5q0 29 9 72l70 329h200l-67 -318q-3 -15 -3 -25q0 -52 54 -52q38 0 66.5 28.5t39.5 76.5h1z" />
    <glyph glyph-name="Uhungarumlaut" unicode="&#x170;" horiz-adv-x="852" 
d="M463 867h-177l108 201h221zM775 867h-176l117 201h220zM384 -16q-136 0 -219 59t-83 171q0 33 10 82l100 472h216l-103 -482q-4 -17 -4 -38q0 -85 101 -85q123 0 150 123l102 482h215l-104 -491q-62 -293 -381 -293z" />
    <glyph glyph-name="uhungarumlaut" unicode="&#x171;" horiz-adv-x="680" 
d="M254 848h221l-152 -201h-177zM796 848l-160 -201h-177l117 201h220zM412 258h1l61 290h200l-117 -548h-184l8 72q-79 -87 -182 -87q-72 0 -114 43.5t-42 118.5q0 29 9 72l70 329h200l-67 -318q-3 -15 -3 -25q0 -52 54 -52q38 0 66.5 28.5t39.5 76.5z" />
    <glyph glyph-name="Uogonek" unicode="&#x172;" horiz-adv-x="852" 
d="M552 286l102 482h215l-104 -491q-46 -217 -236 -274l-125 -54q-53 -24 -53 -60q0 -42 57 -42h33l-20 -92h-94q-67 0 -103 29t-36 77q0 79 99 126l9 4q-101 18 -157.5 75t-56.5 148q0 33 10 82l100 472h216l-103 -482q-4 -17 -4 -38q0 -85 101 -85q123 0 150 123z" />
    <glyph glyph-name="uogonek" unicode="&#x173;" horiz-adv-x="680" 
d="M557 0l-127 -55q-53 -24 -53 -60q0 -19 15.5 -30.5t41.5 -11.5h33l-20 -92h-93q-68 0 -104 29t-36 77q0 80 100 126l60 28l7 61q-79 -87 -182 -87q-72 0 -114 43.5t-42 118.5q0 29 9 72l70 329h200l-67 -318q-3 -15 -3 -25q0 -52 54 -52q38 0 66.5 28.5t39.5 76.5h1
l61 290h200z" />
    <glyph glyph-name="Wcircumflex" unicode="&#x174;" horiz-adv-x="1152" 
d="M764 868l-65 98l-107 -98h-171l197 179h175l118 -179h-147zM837 340l182 428h217l-364 -768h-238l-17 508l-207 -508h-238l-47 768h193l12 -428l-5 -143l53 143l174 428h233l3 -428l-8 -146z" />
    <glyph glyph-name="wcircumflex" unicode="&#x175;" horiz-adv-x="1019" 
d="M660 648l-65 98l-107 -98h-171l196 179h175l119 -179h-147zM697 301l125 247h213l-298 -548h-190l-33 265l-6 85l-40 -85l-129 -265h-195l-75 548h197l26 -249l5 -76l33 74l117 251h183l23 -245l4 -84z" />
    <glyph glyph-name="Ycircumflex" unicode="&#x176;" horiz-adv-x="766" 
d="M595 867l-65 98l-107 -98h-171l197 179h175l118 -179h-147zM623 768h234l-363 -469l-65 -299h-204l64 297h-1l-169 471h206l77 -244l15 -50l34 51z" />
    <glyph glyph-name="ycircumflex" unicode="&#x177;" horiz-adv-x="671" 
d="M487 648l-65 98l-107 -98h-171l196 179h175l119 -179h-147zM304 218l169 330h214l-328 -572q-67 -116 -126 -153t-170 -37h-112l31 147h98q32 0 50 10.5t39 42.5l-100 562h203z" />
    <glyph glyph-name="Ydieresis" unicode="&#x178;" horiz-adv-x="766" 
d="M291 1032h191l-32 -151h-191zM605 1032h192l-32 -151h-191zM623 768h234l-363 -469l-65 -299h-204l64 297h-1l-169 471h206l77 -244l15 -50l34 51z" />
    <glyph glyph-name="Zacute" unicode="&#x179;" horiz-adv-x="775" 
d="M509 1059h230l-170 -181h-176zM180 768h633l-32 -149l-476 -453h386l-35 -166h-653l32 149l466 453h-356z" />
    <glyph glyph-name="zacute" unicode="&#x17a;" horiz-adv-x="625" 
d="M387 839h230l-170 -181h-176zM107 548h518l-28 -132l-335 -273h288l-31 -143h-529l28 129l338 275h-280z" />
    <glyph glyph-name="Zdotaccent" unicode="&#x17b;" horiz-adv-x="775" 
d="M452 1027h191l-33 -159h-191zM180 768h633l-32 -149l-476 -453h386l-35 -166h-653l32 149l466 453h-356z" />
    <glyph glyph-name="zdotaccent" unicode="&#x17c;" horiz-adv-x="625" 
d="M330 807h191l-33 -159h-191zM107 548h518l-28 -132l-335 -273h288l-31 -143h-529l28 129l338 275h-280z" />
    <glyph glyph-name="Zcaron" unicode="&#x17d;" horiz-adv-x="775" 
d="M798 1038l-196 -180h-175l-119 180h148l64 -98l108 98h170zM180 768h633l-32 -149l-476 -453h386l-35 -166h-653l32 149l466 453h-356z" />
    <glyph glyph-name="zcaron" unicode="&#x17e;" horiz-adv-x="625" 
d="M676 818l-197 -180h-174l-118 180h147l64 -98l108 98h170zM356 404h-280l31 144h518l-28 -132l-335 -273h288l-31 -143h-529l28 129z" />
    <glyph glyph-name="uni018F" unicode="&#x18f;" horiz-adv-x="920" 
d="M553 784q155 0 243 -84q89 -86 89 -230q0 -45 -11 -106q-38 -177 -158 -278q-122 -102 -302 -102q-156 0 -244 84q-89 83 -89 227q0 82 26 158h566v9q0 77 -37 115.5t-104 38.5q-94 0 -157 -69l-193 57q63 87 159 133.5t212 46.5zM435 152q140 0 203 142h-346
q4 -71 41.5 -106.5t101.5 -35.5z" />
    <glyph glyph-name="florin" unicode="&#x192;" 
d="M685 768h108l-56 -142h-55q-30 0 -47 -11.5t-28 -39.5l-42 -104l111 5l-49 -121l-107 5l-142 -351q-36 -88 -103.5 -134t-180.5 -46h-108l56 142h55q30 0 47 11.5t28 39.5l137 339l-121 -6l48 121l118 -5l47 116q36 88 103.5 134.5t180.5 46.5z" />
    <glyph glyph-name="uni01F4" unicode="&#x1f4;" horiz-adv-x="910" 
d="M552 1059h230l-170 -181h-176zM635 288h-170l32 147h360l-92 -435h-139l-15 75q-78 -92 -223 -92q-147 0 -226 88q-80 89 -80 228q0 51 11 103q39 182 157 281.5t300 99.5q141 0 224.5 -64.5t96.5 -185.5l-198 -38q-13 115 -141 115q-89 0 -148.5 -56.5t-83.5 -168.5
q-8 -40 -8 -78q0 -75 38 -115t107 -40q141 0 195 124z" />
    <glyph glyph-name="uni01F5" unicode="&#x1f5;" horiz-adv-x="691" 
d="M447 839h230l-170 -181h-176zM482 482l23 74h182l-105 -497q-28 -129 -104 -191.5t-205 -62.5q-114 0 -177.5 41.5t-71.5 119.5l186 24q14 -44 73 -44q41 0 64.5 23t35.5 77l12 55q-62 -59 -154 -59q-82 0 -136 54t-54 148q0 137 74 229q73 91 201 91q107 0 156 -82z
M252 272q0 -37 20 -59.5t55 -22.5q51 0 83 44q31 43 31 100q0 34 -20 54.5t-53 20.5q-52 0 -84 -41t-32 -96z" />
    <glyph glyph-name="Aringacute" unicode="&#x1fa;" horiz-adv-x="833" 
d="M515 1109h229l-128 -149h-177zM755 0h-212l-14 115h-289l-61 -115h-217l397 678q-20 38 -20 81q0 69 45 114q46 44 114 44t115 -44q45 -45 45 -114q0 -59 -34 -100zM498 828q-28 0 -47 -19t-19 -49t19 -49t47 -19q29 0 48 19t19 49t-19 49t-48 19zM425 465l-104 -196h190
l-23 196l-8 128z" />
    <glyph glyph-name="aringacute" unicode="&#x1fb;" horiz-adv-x="693" 
d="M503 1109h230l-170 -181h-176zM445 586q-69 0 -114 45q-46 45 -46 114t46 114q45 45 114 45t116 -45q45 -45 45 -114t-45 -114q-47 -45 -116 -45zM494 795q-30 31 -75 14t-41 -64q-4 -46 41 -63.5t75 13.5q20 19 20 50t-20 50zM389 564q247 0 247 -147q0 -15 -5 -45
l-52 -242q-11 -69 -11 -91q0 -18 4 -39h-183v63q-65 -80 -188 -80q-87 0 -136 40t-49 112q0 96 77 139q66 36 188 55l117 19q24 4 40 13q4 12 4 25q0 52 -79 52q-46 0 -70 -16t-37 -55l-168 14q24 90 101 136.5t200 46.5zM292 101q61 0 100 52l23 107q-24 -6 -35 -8l-77 -14
q-45 -9 -64.5 -28t-19.5 -50q0 -28 19 -43.5t54 -15.5z" />
    <glyph glyph-name="AEacute" unicode="&#x1fc;" horiz-adv-x="1260" 
d="M945 1059h230l-170 -181h-176zM1313 768l-36 -172h-385l-26 -121h350l-35 -164h-350l-29 -139h384l-36 -172h-589l35 166h-287l-118 -166h-229l553 768h798zM615 596l-196 -276h210l59 276h-73z" />
    <glyph glyph-name="aeacute" unicode="&#x1fd;" horiz-adv-x="1076" 
d="M615 839h230l-170 -181h-176zM1021 236l-403 13q-3 -18 -3 -34q0 -92 101 -92q66 0 110 48l155 -36q-50 -72 -125 -111.5t-163 -39.5q-85 0 -139.5 38t-72.5 105q-46 -67 -121.5 -105.5t-164.5 -38.5q-86 0 -134 36.5t-48 99.5q0 96 71.5 146t197.5 54l170 7l7 32
q4 17 4 26q0 54 -93 54q-46 0 -71.5 -15t-43.5 -56l-161 16q36 89 109 135t176 46q77 0 125.5 -29.5t61.5 -83.5q96 113 243 113q107 0 167 -59.5t60 -160.5q0 -40 -15 -108zM783 438q-55 0 -95.5 -32.5t-54.5 -86.5l232 11q1 4 1 16q0 43 -22 67.5t-61 24.5zM284 105
q78 0 136 67l17 82l-134 -16q-39 -5 -63 -28.5t-24 -54.5q0 -50 68 -50z" />
    <glyph glyph-name="Oslashacute" unicode="&#x1fe;" horiz-adv-x="921" 
d="M559 1060h230l-170 -181h-176zM845 830l62 -56l-91 -95q70 -82 70 -209q0 -45 -11 -106q-38 -177 -158 -278q-121 -102 -302 -102q-129 0 -211 57l-100 -104l-62 57l100 105q-60 78 -60 196q0 52 12 109q37 173 162 277q124 103 298 103q116 0 199 -50zM293 307
q0 -22 4 -47l321 333q-34 23 -85 23q-86 0 -147.5 -59t-84.5 -173q-8 -40 -8 -77zM674 462q0 31 -8 61l-326 -340q37 -31 96 -31q86 0 146.5 59t83.5 173q8 42 8 78z" />
    <glyph glyph-name="oslashacute" unicode="&#x1ff;" horiz-adv-x="691" 
d="M423 839h230l-170 -181h-176zM650 587l41 -39l-83 -76q41 -59 41 -140q0 -35 -8 -72q-26 -136 -113 -206.5t-231 -70.5q-101 0 -169 48l-76 -70l-41 39l76 70q-45 58 -45 143q0 30 7 68q26 136 115 209.5t230 73.5q109 0 175 -51zM245 215l188 173q-17 27 -57 27
q-96 0 -125 -144q-6 -31 -6 -56zM440 271q6 36 7 53l-185 -170q18 -21 54 -21q94 0 124 138z" />
    <glyph glyph-name="uni0218" unicode="&#x218;" horiz-adv-x="786" 
d="M351 -16q-148 0 -230.5 54.5t-82.5 156.5v10l201 20v-6q0 -85 127 -85q142 0 142 90q0 28 -19 44t-66 26l-96 21q-98 21 -151 73.5t-53 129.5q0 129 92.5 197.5t257.5 68.5q147 0 226.5 -51.5t79.5 -147.5v-7l-194 -18v7q0 34 -33.5 53t-91.5 19q-122 0 -122 -83
q0 -48 76 -61l87 -19q224 -45 224 -207q0 -143 -100 -213q-101 -72 -274 -72zM218 -355h-55l14 69h71q66 0 80 57l7 30l-144 -23l27 130h219l-27 -123q-18 -83 -57 -112q-40 -28 -135 -28z" />
    <glyph glyph-name="uni0219" unicode="&#x219;" horiz-adv-x="636" 
d="M280 -23q-119 0 -189 44t-73 126l187 18q9 -67 85 -67q83 0 83 55q0 32 -53 46l-97 25q-64 15 -102.5 52.5t-38.5 96.5q0 101 78 149t206 48q115 0 177.5 -42.5t66.5 -117.5l-185 -17q-2 28 -22.5 43t-52.5 15q-75 0 -75 -47q0 -34 45 -43l83 -18q88 -19 125.5 -56
t37.5 -107q0 -98 -75.5 -150.5t-210.5 -52.5zM151 -354h-55l14 69h71q67 0 80 57l7 30l-144 -23l27 130h219l-27 -123q-18 -83 -57 -112q-40 -28 -135 -28z" />
    <glyph glyph-name="uni021A" unicode="&#x21a;" horiz-adv-x="745" 
d="M149 768h657l-37 -172h-226l-128 -596h-204l128 596h-227zM300 -198l-144 -23l27 130h219l-27 -123q-18 -83 -57 -112q-40 -28 -135 -28h-55l14 69h71q67 0 80 57z" />
    <glyph glyph-name="uni021B" unicode="&#x21b;" horiz-adv-x="551" 
d="M362 432l-1 -46l-36 -172q-4 -12 -4 -24q0 -17 10 -23.5t35 -6.5h101l-35 -160h-139q-92 0 -136 29t-44 91q0 24 6 52l46 214l18 45l-131 -6l27 123l129 -7v48l26 123h197l-26 -121l-21 -50l165 7l-26 -123zM189 -189l-144 -23l27 130h219l-27 -123q-18 -83 -57 -112
q-40 -28 -135 -28h-55l14 69h71q66 0 80 57z" />
    <glyph glyph-name="uni0237" unicode="&#x237;" horiz-adv-x="327" 
d="M-48 -214h-82l30 138h35q54 0 66 58l119 566h200l-119 -567q-22 -107 -79 -152q-55 -43 -170 -43z" />
    <glyph glyph-name="uni0259" unicode="&#x259;" horiz-adv-x="699" 
d="M384 564q126 0 198.5 -62.5t72.5 -173.5q0 -38 -7 -70q-24 -127 -114 -200q-91 -74 -229 -74q-124 0 -192 64.5t-68 177.5q0 43 11 87h411q1 3 1 14q0 46 -24 72.5t-69 26.5q-69 0 -112 -49l-169 32q46 74 120.5 114.5t169.5 40.5zM318 110q94 0 128 105h-216v-10
q0 -44 23.5 -69.5t64.5 -25.5z" />
    <glyph glyph-name="h.sups" unicode="&#x2b0;" horiz-adv-x="609" 
d="M472 780q66 0 107 -33t41 -97q0 -24 -6 -52l-51 -234h-166l43 200q3 15 3 26q0 25 -15 38t-39 13q-30 0 -57 -19.5t-39 -47.5l-44 -210h-166l120 567h166l-44 -206q67 55 147 55z" />
    <glyph glyph-name="r.sups" unicode="&#x2b3;" horiz-adv-x="469" 
d="M489 781h28l-31 -144h-52q-115 0 -145 -81l-40 -192h-166l85 404h154l-8 -68q64 81 175 81z" />
    <glyph glyph-name="circumflex" unicode="&#x2c6;" horiz-adv-x="500" 
d="M255 648h-170l196 179h175l118 -179h-147l-65 98z" />
    <glyph glyph-name="caron" unicode="&#x2c7;" horiz-adv-x="500" 
d="M414 638h-175l-118 180h147l64 -98l108 98h170z" />
    <glyph glyph-name="uni02C9" unicode="&#x2c9;" horiz-adv-x="500" 
d="M529 648h-399l26 121h399z" />
    <glyph glyph-name="breve" unicode="&#x2d8;" horiz-adv-x="500" 
d="M336 636q-102 0 -151 30.5t-49 96.5q0 33 7 65h119q-3 -14 -3 -26q0 -57 88 -57q54 0 82 19.5t38 63.5h125q-23 -105 -79 -148q-59 -44 -177 -44z" />
    <glyph glyph-name="dotaccent" unicode="&#x2d9;" horiz-adv-x="500" 
d="M425 648h-191l33 159h191z" />
    <glyph glyph-name="ring" unicode="&#x2da;" horiz-adv-x="500" 
d="M470 659q-45 -45 -115 -45t-115 45q-45 43 -45 113t45 115t115 45t115 -45t45 -115t-45 -113zM307 722q21 -18 48 -19t48.5 19t19.5 50q3 43 -32.5 61t-71 0t-32.5 -61q0 -30 20 -50z" />
    <glyph glyph-name="ogonek" unicode="&#x2db;" horiz-adv-x="500" 
d="M240 -249h-94q-67 0 -103 29t-36 77q0 81 99 126l81 37l162 -20l-127 -55q-53 -24 -53 -60q0 -19 15.5 -30.5t41.5 -11.5h33z" />
    <glyph glyph-name="tilde" unicode="&#x2dc;" horiz-adv-x="500" 
d="M207 634h-134q45 205 190 205q65 0 104 -39q38 -40 63 -40q43 0 59 70h133q-22 -98 -70 -151.5t-121 -53.5q-66 0 -102 40q-37 39 -63 39q-43 0 -59 -70z" />
    <glyph glyph-name="hungarumlaut" unicode="&#x2dd;" horiz-adv-x="500" 
d="M232 647h-177l108 201h221zM544 647h-176l117 201h220z" />
    <glyph glyph-name="s.sups" unicode="&#x2e2;" horiz-adv-x="572" 
d="M332 346q-193 0 -234 122l151 20q10 -23 31.5 -33t63.5 -10q67 0 67 31q0 23 -50 31l-79 11q-154 22 -154 121q0 64 61 104t162 40q94 0 155 -31t75 -85l-156 -15q-14 32 -80 32t-66 -27q0 -20 40 -27l92 -12q84 -12 121.5 -38t37.5 -79q0 -73 -63.5 -114t-174.5 -41z
" />
    <glyph glyph-name="gravecomb" unicode="&#x300;" horiz-adv-x="0" 
d="M166 658h-157l-132 181h211z" />
    <glyph glyph-name="acutecomb" unicode="&#x301;" horiz-adv-x="0" 
d="M134 658h-176l116 181h230z" />
    <glyph glyph-name="uni0302" unicode="&#x302;" horiz-adv-x="0" 
d="M-7 648h-171l196 179h175l119 -179h-147l-65 98z" />
    <glyph glyph-name="tildecomb" unicode="&#x303;" horiz-adv-x="0" 
d="M-43 634h-134q45 205 190 205q65 0 104 -39q38 -40 63 -40q43 0 59 70h133q-22 -98 -70 -151.5t-121 -53.5q-66 0 -102 40q-37 39 -63 39q-43 0 -59 -70z" />
    <glyph glyph-name="uni0304" unicode="&#x304;" horiz-adv-x="0" 
d="M279 648h-399l26 121h399z" />
    <glyph glyph-name="uni0306" unicode="&#x306;" horiz-adv-x="0" 
d="M86 636q-102 0 -151 30.5t-49 96.5q0 33 7 65h119q-3 -14 -3 -26q0 -57 88 -57q54 0 82 19.5t38 63.5h125q-23 -105 -79 -148q-59 -44 -177 -44z" />
    <glyph glyph-name="uni0307" unicode="&#x307;" horiz-adv-x="0" 
d="M175 648h-191l33 159h191z" />
    <glyph glyph-name="uni0308" unicode="&#x308;" horiz-adv-x="0" 
d="M18 648h-191l33 159h191zM332 648h-191l33 159h191z" />
    <glyph glyph-name="uni030A" unicode="&#x30a;" horiz-adv-x="0" 
d="M220 659q-45 -45 -115 -45t-115 45q-45 43 -45 113t45 115t115 45t115 -45t45 -115t-45 -113zM57 722q21 -18 48 -19t48.5 19t19.5 50q3 43 -32.5 61t-71 0t-32.5 -61q0 -30 20 -50z" />
    <glyph glyph-name="uni030B" unicode="&#x30b;" horiz-adv-x="0" 
d="M-7 647h-177l108 201h221zM306 647h-177l117 201h220z" />
    <glyph glyph-name="uni030C" unicode="&#x30c;" horiz-adv-x="0" 
d="M165 638h-174l-118 180h147l64 -98l108 98h170z" />
    <glyph glyph-name="uni0312" unicode="&#x312;" horiz-adv-x="0" 
d="M188 648h-218l29 135q18 86 60 119q41 33 135 33h55l-15 -70h-71q-68 0 -80 -56l-8 -42l143 24z" />
    <glyph glyph-name="uni0313" unicode="&#x313;" horiz-adv-x="0" 
d="M26 648h-55l14 69h71q68 0 80 56l9 42l-144 -23l30 143h218l-29 -136q-18 -86 -59 -118q-42 -33 -135 -33z" />
    <glyph glyph-name="dotbelowcomb" unicode="&#x323;" horiz-adv-x="0" 
d="M-19 -265h-191l32 151h192z" />
    <glyph glyph-name="uni0324" unicode="&#x324;" horiz-adv-x="0" 
d="M-176 -265h-192l33 151h191zM139 -265h-192l33 151h191z" />
    <glyph glyph-name="uni0325" unicode="&#x325;" horiz-adv-x="0" 
d="M1 -319q-43 -41 -105 -41t-105 41q-41 41 -41 104t41 104q43 41 105 41t105 -41q42 -40 42 -104q0 -63 -42 -104zM-149 -262q18 -17 45 -17t44 17q18 18 18 47t-18 46q-17 17 -44 17t-45 -17q-17 -17 -17 -46t17 -47z" />
    <glyph glyph-name="uni0326" unicode="&#x326;" horiz-adv-x="0" 
d="M-188 -354h-55l14 69h71q66 0 80 57l7 30l-144 -23l27 130h219l-27 -123q-18 -84 -58 -112q-38 -28 -134 -28z" />
    <glyph glyph-name="uni0327" unicode="&#x327;" horiz-adv-x="0" 
d="M-137 -276h-88l16 74h82q72 0 72 42q0 27 -35 27h-105l14 67h130q120 0 120 -90q0 -120 -206 -120z" />
    <glyph glyph-name="uni0328" unicode="&#x328;" horiz-adv-x="0" 
d="M-168 -249h-94q-67 0 -103 29t-36 77q0 79 99 126l81 37l163 -20l-127 -55q-53 -24 -53 -60q0 -42 57 -42h33z" />
    <glyph glyph-name="uni032E" unicode="&#x32e;" horiz-adv-x="0" 
d="M-109 -280q-102 0 -151 30.5t-49 96.5q0 24 7 65h119q-3 -15 -3 -27q0 -57 88 -57q54 0 82 19.5t38 64.5h125q-23 -106 -79 -149t-177 -43z" />
    <glyph glyph-name="uni0331" unicode="&#x331;" horiz-adv-x="0" 
d="M94 -221h-399l26 121h399z" />
    <glyph glyph-name="uni0335" unicode="&#x335;" horiz-adv-x="0" 
d="M19 362l-238 -11l26 123l235 -11l236 11l-26 -123z" />
    <glyph glyph-name="uni0337" unicode="&#x337;" horiz-adv-x="0" 
d="M315 529l-572 -595l-64 60l573 595z" />
    <glyph glyph-name="uni0338" unicode="&#x338;" horiz-adv-x="0" 
d="M456 770l-804 -837l-63 61l805 836z" />
    <glyph glyph-name="uni0394" unicode="&#x394;" horiz-adv-x="833" 
d="M217 768h271l267 -768h-793zM330 542l-113 -388h273l-116 388l-22 88z" />
    <glyph glyph-name="uni03A9" unicode="&#x3a9;" horiz-adv-x="1003" 
d="M439 0h-334v188h145v4q-138 88 -138 258q0 151 101 243q100 91 280 91q179 0 279 -91t100 -243q0 -169 -137 -258v-4h145v-188h-334v170q63 35 93 89t30 142q0 105 -44.5 160t-131.5 55t-132 -55t-45 -160q0 -87 30.5 -142t92.5 -89v-170z" />
    <glyph glyph-name="uni03BC" unicode="&#x3bc;" horiz-adv-x="796" 
d="M321 -204h-200v752h200v-318q0 -36 18.5 -56.5t51.5 -20.5q37 0 59 28t24 75v292h200v-548h-184l-7 72q-67 -87 -161 -87q-31 0 -56 13l-2 -2l57 -104v-96z" />
    <glyph glyph-name="pi" unicode="&#x3c0;" horiz-adv-x="966" 
d="M887 548v-173h-139v-167q0 -26 11 -37t37 -11h52v-160h-126q-77 0 -119 44t-42 126v205h-153v-375h-197v375h-132v173h808z" />
    <glyph glyph-name="d.sups" unicode="&#x1d48;" horiz-adv-x="638" 
d="M503 724l44 207h167l-120 -567h-135l-7 51q-66 -63 -161 -63q-85 0 -135 46t-50 126q0 110 75 183q76 74 190 74q91 0 132 -57zM278 556q0 -68 81 -68q69 0 103 39l16 74q-20 50 -90 50q-50 0 -80 -26.5t-30 -68.5z" />
    <glyph glyph-name="t.sups" unicode="&#x1d57;" horiz-adv-x="501" 
d="M520 643l-138 6l-19 -87q-7 -27 -7 -40q0 -25 42 -25h90l-28 -133h-131q-147 0 -147 103q0 20 10 64l25 118l-118 -6l27 126l115 -6l27 128h166l-28 -129l140 7z" />
    <glyph glyph-name="Wgrave" unicode="&#x1e80;" horiz-adv-x="1152" 
d="M687 1059l78 -181h-157l-132 181h211zM837 340l182 428h217l-364 -768h-238l-17 508l-207 -508h-238l-47 768h193l12 -428l-5 -143l53 143l174 428h233l3 -428l-8 -146z" />
    <glyph glyph-name="wgrave" unicode="&#x1e81;" horiz-adv-x="1019" 
d="M583 839l78 -181h-157l-132 181h211zM697 301l125 247h213l-298 -548h-190l-33 265l-6 85l-40 -85l-129 -265h-195l-75 548h197l26 -249l5 -76l33 74l117 251h183l23 -245l4 -84z" />
    <glyph glyph-name="Wacute" unicode="&#x1e82;" horiz-adv-x="1152" 
d="M673 1059h230l-170 -181h-176zM837 340l182 428h217l-364 -768h-238l-17 508l-207 -508h-238l-47 768h193l12 -428l-5 -143l53 143l174 428h233l3 -428l-8 -146z" />
    <glyph glyph-name="wacute" unicode="&#x1e83;" horiz-adv-x="1019" 
d="M569 839h230l-170 -181h-176zM697 301l125 247h213l-298 -548h-190l-33 265l-6 85l-40 -85l-129 -265h-195l-75 548h197l26 -249l5 -76l33 74l117 251h183l23 -245l4 -84z" />
    <glyph glyph-name="Wdieresis" unicode="&#x1e84;" horiz-adv-x="1152" 
d="M460 1033h191l-32 -151h-191zM774 1033h192l-32 -151h-191zM837 340l182 428h217l-364 -768h-238l-17 508l-207 -508h-238l-47 768h193l12 -428l-5 -143l53 143l174 428h233l3 -428l-8 -146z" />
    <glyph glyph-name="wdieresis" unicode="&#x1e85;" horiz-adv-x="1019" 
d="M355 807h191l-33 -159h-191zM669 807h191l-33 -159h-191zM697 301l125 247h213l-298 -548h-190l-33 265l-6 85l-40 -85l-129 -265h-195l-75 548h197l26 -249l5 -76l33 74l117 251h183l23 -245l4 -84z" />
    <glyph glyph-name="uni1E9E" unicode="&#x1e9e;" horiz-adv-x="880" 
d="M895 761l-35 -160l-188 -141q158 -32 158 -171q0 -134 -104 -215q-103 -82 -273 -82q-46 0 -108 8l33 153q52 -4 81 -4q164 0 164 110q0 37 -33 51t-106 14q-42 0 -55 -1l24 115l240 188q-83 8 -134 8q-102 0 -154 -35t-69 -114l-103 -485h-204l100 465q36 171 136 245
q101 74 308 74q118 0 322 -23z" />
    <glyph glyph-name="Ygrave" unicode="&#x1ef2;" horiz-adv-x="766" 
d="M518 1058l78 -181h-157l-132 181h211zM623 768h234l-363 -469l-65 -299h-204l64 297h-1l-169 471h206l77 -244l15 -50l34 51z" />
    <glyph glyph-name="ygrave" unicode="&#x1ef3;" horiz-adv-x="671" 
d="M409 839l78 -181h-157l-132 181h211zM304 218l169 330h214l-328 -572q-67 -116 -126 -153t-170 -37h-112l31 147h98q32 0 50 10.5t39 42.5l-100 562h203z" />
    <glyph glyph-name="thinspace" unicode="&#x2009;" horiz-adv-x="327" 
 />
    <glyph glyph-name="uni2011" unicode="&#x2011;" horiz-adv-x="372" 
d="M325 201h-308l32 157h309z" />
    <glyph glyph-name="endash" unicode="&#x2013;" horiz-adv-x="564" 
d="M517 201h-500l32 157h500z" />
    <glyph glyph-name="emdash" unicode="&#x2014;" horiz-adv-x="804" 
d="M757 201h-740l32 157h740z" />
    <glyph glyph-name="quoteleft" unicode="&#x2018;" horiz-adv-x="356" 
d="M312 362h-229l48 234q22 109 74 150q51 39 168 39h27l-20 -92h-45q-87 0 -100 -73l-20 -100l137 30z" />
    <glyph glyph-name="quoteright" unicode="&#x2019;" horiz-adv-x="357" 
d="M107 344h-27l20 92h45q87 0 100 73l20 100l-137 -30l40 188h229l-48 -233q-22 -109 -74 -150q-50 -40 -168 -40z" />
    <glyph glyph-name="quotesinglbase" unicode="&#x201a;" horiz-adv-x="357" 
d="M-13 -221h-27l19 92h46q86 0 99 73l21 100l-137 -30l40 188h229l-48 -234q-22 -109 -74 -150q-51 -39 -168 -39z" />
    <glyph glyph-name="quotedblleft" unicode="&#x201c;" horiz-adv-x="681" 
d="M312 362h-229l48 234q22 109 74 150q51 39 168 39h27l-20 -92h-45q-87 0 -100 -73l-20 -100l137 30zM637 362h-228l48 234q22 109 73 149q50 40 168 40h27l-19 -92h-46q-86 0 -99 -73l-21 -100l137 30z" />
    <glyph glyph-name="quotedblright" unicode="&#x201d;" horiz-adv-x="682" 
d="M107 344h-27l20 92h45q87 0 100 73l20 100l-137 -30l40 188h229l-48 -233q-22 -109 -74 -150q-50 -40 -168 -40zM432 344h-27l20 92h45q87 0 100 73l20 100l-136 -30l40 188h228l-48 -233q-22 -109 -74 -150q-50 -40 -168 -40z" />
    <glyph glyph-name="quotedblbase" unicode="&#x201e;" horiz-adv-x="682" 
d="M-13 -221h-27l19 92h46q86 0 99 73l21 100l-137 -30l40 188h229l-48 -234q-22 -109 -74 -150q-51 -39 -168 -39zM312 -221h-27l20 92h45q87 0 100 73l20 100l-137 -30l41 188h228l-48 -234q-22 -109 -74 -150q-51 -39 -168 -39z" />
    <glyph glyph-name="dagger" unicode="&#x2020;" horiz-adv-x="745" 
d="M530 612l203 21l-34 -163l-194 21l-128 -601h-183l127 600l-192 -20l34 163l184 -21l60 281h183z" />
    <glyph glyph-name="daggerdbl" unicode="&#x2021;" horiz-adv-x="746" 
d="M738 651l-35 -163l-194 21l-49 -235l203 21l-35 -163l-194 21l-56 -263h-183l56 263l-193 -21l35 163l184 -20l49 234l-193 -21l35 163l184 -20l56 262h183l-56 -262z" />
    <glyph glyph-name="bullet" unicode="&#x2022;" horiz-adv-x="569" 
d="M449 119h-394l75 351h393z" />
    <glyph glyph-name="ellipsis" unicode="&#x2026;" horiz-adv-x="1063" 
d="M233 0h-228l43 203h228zM587 0h-227l43 203h227zM942 0h-228l43 203h228z" />
    <glyph glyph-name="perthousand" unicode="&#x2030;" horiz-adv-x="1965" 
d="M334 336q-87 0 -137 49.5t-50 135.5q0 28 6 61q41 225 254 225q86 0 136 -49t50 -134q0 -29 -6 -62q-40 -226 -253 -226zM463 -15h-146l695 798h144zM346 443q43 0 73 32.5t42 94.5q5 32 5 46q0 41 -19 62.5t-52 21.5q-91 0 -117 -128q-4 -19 -4 -44q0 -41 19.5 -63
t52.5 -22zM1081 -9q-87 0 -136.5 49.5t-49.5 135.5q0 28 6 61q42 225 253 225q86 0 136 -49t50 -134q0 -29 -6 -62q-43 -226 -253 -226zM1613 -9q-87 0 -136.5 49.5t-49.5 135.5q0 28 6 61q43 225 254 225q86 0 135.5 -49t49.5 -134q0 -29 -6 -62q-43 -226 -253 -226z
M1093 98q43 0 73 32.5t42 94.5q5 32 5 46q0 41 -19 62.5t-52 21.5q-92 0 -116 -128q-4 -19 -4 -44q0 -41 19 -63t52 -22zM1626 98q90 0 114 127q5 23 5 46q0 41 -19 62.5t-52 21.5q-92 0 -116 -128q-4 -19 -4 -44q0 -41 19 -63t53 -22z" />
    <glyph glyph-name="guilsinglleft" unicode="&#x2039;" horiz-adv-x="401" 
d="M312 158l-36 -173l-234 188l44 202l313 188l-43 -198l-178 -104z" />
    <glyph glyph-name="guilsinglright" unicode="&#x203a;" horiz-adv-x="401" 
d="M316 173l-313 -188l42 198l179 104l-135 103l36 173l234 -188z" />
    <glyph glyph-name="uni203D" unicode="&#x203d;" horiz-adv-x="810" 
d="M478 784q158 0 242.5 -53.5t84.5 -152.5q0 -139 -182 -210l-37 -14q-68 -26 -101 -49q-30 -22 -44 -55h-100l15 182l25 116h148l-24 -112h1l2 1q90 37 90 104q0 43 -34.5 62.5t-108.5 19.5q-71 0 -104.5 -20t-44.5 -69l-193 23q54 227 365 227zM451 0h-226l38 183h227z
" />
    <glyph glyph-name="fraction" unicode="&#x2044;" horiz-adv-x="478" 
d="M-11 -15h-146l695 798h144z" />
    <glyph glyph-name="zero.sups" unicode="&#x2070;" horiz-adv-x="551" 
d="M308 355q-87 0 -136.5 49t-49.5 135q0 29 6 62q42 224 253 224q86 0 136 -48.5t50 -133.5q0 -29 -6 -62q-43 -226 -253 -226zM320 461q43 0 73 33t42 95q5 22 5 45q0 41 -18.5 63t-52.5 22q-92 0 -116 -128q-4 -20 -4 -44q0 -42 19 -64t52 -22z" />
    <glyph glyph-name="four.sups" unicode="&#x2074;" horiz-adv-x="512" 
d="M422 364h-126l22 103l-250 -11l22 105l278 256h150l-56 -268l79 11l-22 -104l-74 11zM364 693l-152 -137l124 -7l30 143z" />
    <glyph glyph-name="five.sups" unicode="&#x2075;" horiz-adv-x="523" 
d="M289 355q-133 0 -193 89l113 55q27 -41 88 -41q43 0 70 18.5t27 47.5q0 24 -20.5 37t-56.5 13q-47 0 -84 -24l-101 46l91 221h337l-21 -98h-249l-30 -72l2 -1q46 18 102 18q76 0 118 -34t42 -94q0 -81 -65 -131t-170 -50z" />
    <glyph glyph-name="six.sups" unicode="&#x2076;" horiz-adv-x="523" 
d="M303 355q-91 0 -144 47.5t-53 137.5q0 120 77 203t200 83q125 0 174 -85l-109 -41q-30 33 -78 33q-93 0 -126 -114q62 39 139 39q71 0 110.5 -33t39.5 -91q0 -76 -63 -127q-62 -52 -167 -52zM310 447q42 0 68.5 21t26.5 52q0 53 -70 53q-63 0 -103 -46q0 -80 78 -80z" />
    <glyph glyph-name="seven.sups" unicode="&#x2077;" horiz-adv-x="463" 
d="M277 364h-129q24 97 86 190t141 156h-254l24 107h403l-23 -108q-103 -68 -161 -147.5t-87 -197.5z" />
    <glyph glyph-name="eight.sups" unicode="&#x2078;" horiz-adv-x="540" 
d="M299 355q-93 0 -148 33t-55 91q0 46 32 80.5t83 42.5v2q-56 24 -56 82q0 64 63.5 102t167.5 38q88 0 136.5 -29t48.5 -82q0 -39 -26.5 -70t-69.5 -41v-2q69 -20 69 -89q0 -70 -68 -114q-70 -44 -177 -44zM352 643q93 0 93 50q0 40 -74 40q-45 0 -69.5 -14t-24.5 -38
q0 -38 75 -38zM310 447q49 0 78 17t29 45q0 46 -85 46q-50 0 -78.5 -15.5t-28.5 -42.5q0 -50 85 -50z" />
    <glyph glyph-name="nine.sups" unicode="&#x2079;" horiz-adv-x="522" 
d="M275 354q-125 0 -174 85l109 42q28 -34 78 -34q93 0 126 114q-61 -39 -139 -39q-71 0 -110.5 33t-39.5 91q0 76 63 128q63 51 167 51q91 0 144 -47.5t53 -137.5q0 -120 -77 -203t-200 -83zM323 607q63 0 103 46q0 80 -78 80q-42 0 -68.5 -21t-26.5 -52q0 -53 70 -53z" />
    <glyph glyph-name="plus.sups" unicode="&#x207a;" horiz-adv-x="609" 
d="M362 641h195v-123h-195v-155h-130v155h-193v123h193v156h130v-156z" />
    <glyph glyph-name="minus.sups" unicode="&#x207b;" horiz-adv-x="606" 
d="M553 518h-514v123h514v-123z" />
    <glyph glyph-name="parenleft.sups" unicode="&#x207d;" horiz-adv-x="372" 
d="M322 213h-139q-68 131 -68 275q0 130 55 251.5t159 217.5h151q-207 -221 -207 -495q0 -126 49 -249z" />
    <glyph glyph-name="parenright.sups" unicode="&#x207e;" horiz-adv-x="372" 
d="M175 213h-151q101 107 154 234t53 260q0 125 -49 250h139q68 -134 68 -276q0 -130 -55 -251.5t-159 -216.5z" />
    <glyph glyph-name="n.sups" unicode="&#x207f;" horiz-adv-x="609" 
d="M472 780q66 0 107 -33t41 -97q0 -24 -6 -52l-51 -234h-166l43 200q3 15 3 26q0 25 -15 38t-39 13q-29 0 -56 -19t-39 -47l-45 -211h-166l85 404h154l-5 -50q70 62 155 62z" />
    <glyph glyph-name="zero.subs" unicode="&#x2080;" horiz-adv-x="551" 
d="M187 -217q-87 0 -137 49.5t-50 135.5q0 28 6 61q44 225 254 225q86 0 136 -49t50 -134q0 -29 -6 -62q-43 -226 -253 -226zM199 -110q43 0 73 32.5t42 94.5q5 32 5 46q0 41 -19 62.5t-52 21.5q-91 0 -117 -128q-4 -19 -4 -44q0 -41 19 -63t53 -22z" />
    <glyph glyph-name="one.subs" unicode="&#x2081;" horiz-adv-x="345" 
d="M180 -208h-129l57 270h-121l20 97h26q96 0 111 72l3 14h129z" />
    <glyph glyph-name="two.subs" unicode="&#x2082;" horiz-adv-x="525" 
d="M375 -208h-431q20 167 179 214l112 33q75 23 75 63q0 47 -72 47q-76 0 -102 -60l-113 24q53 141 226 141q85 0 135.5 -35t50.5 -98q0 -122 -177 -166l-76 -19q-52 -12 -61 -38h277z" />
    <glyph glyph-name="three.subs" unicode="&#x2083;" horiz-adv-x="521" 
d="M165 -224q-93 0 -141.5 37.5t-48.5 107.5l120 17q8 -62 79 -62q42 0 66.5 16t24.5 43q0 40 -68 40h-38l20 97h35q82 0 82 49q0 41 -68 41q-67 0 -93 -53l-114 17q21 60 79.5 94t140.5 34q80 0 130.5 -32.5t50.5 -85.5q0 -37 -24 -65t-67 -39l-1 -2q69 -23 69 -92
q0 -73 -64 -117.5t-170 -44.5z" />
    <glyph glyph-name="four.subs" unicode="&#x2084;" horiz-adv-x="512" 
d="M301 -208h-126l22 103l-250 -11l22 105l278 256h150l-56 -267l79 10l-22 -104l-75 11zM243 121l-152 -136l124 -7l30 142z" />
    <glyph glyph-name="five.subs" unicode="&#x2085;" horiz-adv-x="523" 
d="M168 -216q-135 0 -193 88l113 55q29 -41 87 -41q42 0 70 19t28 47q0 24 -20.5 37t-56.5 13q-51 0 -84 -24l-101 47l91 220h337l-22 -97h-248l-30 -72l2 -1q48 17 102 17q76 0 118 -34t42 -94q0 -81 -65 -131q-64 -49 -170 -49z" />
    <glyph glyph-name="six.subs" unicode="&#x2086;" horiz-adv-x="523" 
d="M182 -217q-90 0 -143.5 48t-53.5 137q0 121 77 204q76 82 200 82q125 0 174 -85l-110 -41q-26 33 -77 33q-48 0 -78.5 -27t-48.5 -86q62 39 140 39q71 0 110.5 -33.5t39.5 -91.5q0 -76 -63 -128q-63 -51 -167 -51zM189 -125q42 0 68.5 21t26.5 53q0 53 -70 53
q-62 0 -103 -47q0 -80 78 -80z" />
    <glyph glyph-name="seven.subs" unicode="&#x2087;" horiz-adv-x="463" 
d="M156 -208h-129q26 102 87 193t140 153h-254l23 107h404l-23 -108q-103 -67 -162 -147.5t-86 -197.5z" />
    <glyph glyph-name="eight.subs" unicode="&#x2088;" horiz-adv-x="540" 
d="M177 -217q-93 0 -147.5 33.5t-54.5 90.5q0 46 32.5 81t82.5 42v2q-57 26 -57 82q0 64 63.5 102t168.5 38q88 0 136.5 -29t48.5 -82q0 -39 -26.5 -70t-69.5 -41v-2q69 -20 69 -89q0 -71 -69 -114q-70 -44 -177 -44zM231 71q93 0 93 51q0 39 -75 39q-93 0 -93 -51
q0 -39 75 -39zM189 -124q49 0 78 16.5t29 44.5q0 46 -85 46q-50 0 -78.5 -15.5t-28.5 -42.5q0 -49 85 -49z" />
    <glyph glyph-name="nine.subs" unicode="&#x2089;" horiz-adv-x="522" 
d="M353 -135q-76 -82 -201 -82t-174 85l110 41q27 -34 78 -34q92 0 126 114q-61 -39 -140 -39q-71 0 -110.5 33.5t-39.5 91.5q0 75 63 128q63 51 167 51q90 0 143.5 -48t53.5 -137q0 -122 -76 -204zM200 35q61 0 104 46q-2 80 -79 80q-42 0 -68.5 -21t-26.5 -52
q0 -53 70 -53z" />
    <glyph glyph-name="plus.subs" unicode="&#x208a;" horiz-adv-x="609" 
d="M248 105h195v-123h-195v-155h-130v155h-193v123h193v156h130v-156z" />
    <glyph glyph-name="minus.subs" unicode="&#x208b;" horiz-adv-x="606" 
d="M439 -18h-514v123h514v-123z" />
    <glyph glyph-name="equal.subs" unicode="&#x208c;" horiz-adv-x="606" 
d="M439 88h-514v123h514v-123zM439 -124h-514v123h514v-123z" />
    <glyph glyph-name="uni208D" unicode="&#x208d;" horiz-adv-x="372" 
d="M200 -358h-140q-67 131 -67 275q0 130 55 251.5t159 216.5h151q-207 -219 -207 -494q0 -126 49 -249z" />
    <glyph glyph-name="uni208E" unicode="&#x208e;" horiz-adv-x="372" 
d="M54 -358h-151q207 219 207 494q0 125 -50 249h140q68 -131 68 -275q0 -130 -55 -251.5t-159 -216.5z" />
    <glyph glyph-name="n.subs" unicode="&#x2099;" horiz-adv-x="610" 
d="M350 209q66 0 107.5 -33t41.5 -97q0 -23 -6 -52l-51 -235h-166l43 200q3 17 3 26q0 51 -54 51q-30 0 -56.5 -18.5t-38.5 -45.5l-45 -213h-166l85 405h154l-5 -51q70 63 154 63z" />
    <glyph glyph-name="Euro" unicode="&#x20ac;" horiz-adv-x="784" 
d="M635 631q-149 0 -204 -100h319l-21 -102h-652l22 102h120q57 123 172 188.5t267 65.5q75 0 143 -16l-32 -152q-79 14 -134 14zM168 238h-131l22 102h651l-21 -102h-322q10 -54 48 -79t111 -25q56 0 144 17l-33 -152q-74 -16 -148 -16q-144 0 -226 65t-95 190z" />
    <glyph glyph-name="uni20B8" unicode="&#x20b8;" horiz-adv-x="745" 
d="M116 614l33 154h657l-33 -154h-657zM289 360h-226l32 154h657l-33 -154h-226l-77 -360h-204z" />
    <glyph glyph-name="uni20B9" unicode="&#x20b9;" horiz-adv-x="781" 
d="M193 768h649l-21 -101l-243 12q30 -51 24 -113l199 11l-21 -101l-199 10q-45 -107 -167 -148q76 -8 105 -36t33 -105l14 -197h-185l-4 152q-1 71 -25 93q-25 20 -105 20h-161l25 121h155q80 0 117 21q35 21 55 80l-307 -11l21 101l304 -12q11 57 6 113l-290 -11z" />
    <glyph glyph-name="uni20BA" unicode="&#x20ba;" horiz-adv-x="725" 
d="M400 656l231 100l-25 -116l-602 -260l26 116l145 63l45 209h203zM510 312l180 -50q-59 -129 -164.5 -195.5t-249.5 -66.5h-220l50 237l-147 -63l26 116l603 260l-25 -116l-232 -100l-35 -161h18q70 0 117.5 33.5t78.5 105.5z" />
    <glyph glyph-name="uni20BC" unicode="&#x20bc;" 
d="M538 768l-44 -206q223 -4 223 -190q0 -36 -11 -91l-60 -281h-181l68 317q6 27 6 45q0 30 -17.5 43t-57.5 15l-75 -352h-162l75 350q-95 -12 -117 -118l-64 -300h-163l66 307q28 130 102 192t206 63l44 206h162z" />
    <glyph glyph-name="uni20BF" unicode="&#x20bf;" horiz-adv-x="811" 
d="M636 409q49 -20 75.5 -64t26.5 -97q0 -100 -64.5 -163.5t-177.5 -79.5l-32 -149h-117l31 144h-100l-31 -144h-117l31 144h-132l164 768h130l31 144h117l-31 -144h100l31 144h117l-34 -157q63 -20 95.5 -63t32.5 -99q0 -66 -39 -116t-107 -68zM342 460h135q39 0 65 26.5
t26 65.5q0 58 -59 58h-135zM278 157h144q46 0 73.5 28t27.5 73q0 60 -68 60h-143z" />
    <glyph glyph-name="uni2105" unicode="&#x2105;" horiz-adv-x="1529" 
d="M521 -15h-146l695 798h144zM388 361q-112 0 -174.5 49.5t-62.5 136.5q0 105 74 166.5t202 61.5q189 0 229 -141l-160 -20q-4 55 -73 55q-50 0 -79 -32.5t-29 -82.5q0 -84 83 -84q69 0 93 60l152 -15q-58 -154 -255 -154zM1146 -15q-111 0 -171 47t-60 132
q0 110 73.5 172.5t201.5 62.5q111 0 172.5 -48t61.5 -133q0 -110 -74 -171.5t-204 -61.5zM1158 93q103 0 103 119q0 42 -20 61t-62 19q-102 0 -102 -122q0 -41 19.5 -59t61.5 -18z" />
    <glyph glyph-name="uni2113" unicode="&#x2113;" horiz-adv-x="723" 
d="M432 134q60 0 137 45l53 -129q-124 -66 -243 -66q-97 0 -153.5 48t-56.5 136v23l-106 -41l-38 145l144 22v264q0 205 230 205q121 0 179.5 -58.5t58.5 -181.5q0 -136 -63.5 -206.5t-204.5 -95.5v-52q0 -58 63 -58zM409 641q-21 0 -30.5 -12.5t-9.5 -41.5v-209
q56 32 74 69q18 36 18 101q0 49 -12 71t-40 22z" />
    <glyph glyph-name="uni2116" unicode="&#x2116;" horiz-adv-x="1460" 
d="M1241 775q112 0 173 -47.5t61 -133.5q0 -110 -74 -171.5t-204 -61.5q-110 0 -171 47.5t-61 131.5q0 110 73.5 172.5t202.5 62.5zM439 768l155 -503l108 503h197l-164 -768h-242l-159 507l-108 -507h-197l164 768h246zM1209 470q103 0 103 118q0 42 -20 61t-63 19
q-101 0 -101 -122q0 -41 19 -58.5t62 -17.5z" />
    <glyph glyph-name="uni2117" unicode="&#x2117;" horiz-adv-x="972" 
d="M509 791q179 0 295 -114q115 -115 115 -292q0 -176 -116 -292q-115 -115 -294 -115q-178 0 -293 115q-116 116 -116 292t116 292q116 114 293 114zM509 71q134 0 221 89q86 89 86 225t-86 225q-87 88 -221 88t-219 -88q-87 -88 -87 -225t87 -225q86 -89 219 -89zM367 594
h182q75 0 117 -38t42 -104q0 -65 -43.5 -103.5t-119.5 -38.5h-70v-123h-108v407zM475 398h69q26 0 41 14.5t15 39.5q0 51 -56 51h-69v-105z" />
    <glyph glyph-name="trademark" unicode="&#x2122;" horiz-adv-x="1229" 
d="M404 356h-130v311h-122v101h373v-101h-121v-311zM716 356h-103v412h204l70 -304h21l70 304h204v-412h-104v314h-22l-75 -314h-168l-75 314h-22v-314z" />
    <glyph glyph-name="uni2126" unicode="&#x2126;" horiz-adv-x="1003" 
d="M439 0h-334v188h145v4q-138 88 -138 258q0 151 101 243q100 91 280 91q179 0 279 -91t100 -243q0 -169 -137 -258v-4h145v-188h-334v170q63 35 93 89t30 142q0 105 -44.5 160t-131.5 55t-132 -55t-45 -160q0 -87 30.5 -142t92.5 -89v-170z" />
    <glyph glyph-name="estimated" unicode="&#x212e;" horiz-adv-x="981" 
d="M491 784q131 0 232.5 -55.5t153.5 -150.5q50 -94 50 -205h-697q-6 0 -10.5 -4.5t-4.5 -10.5v-189q0 -33 18 -50q107 -104 258 -104q80 0 153 33.5t119 90.5h78q-48 -68 -139 -110.5t-211 -42.5q-198 0 -317 112q-120 111 -120 285t119 288q119 113 318 113zM491 754
q-152 0 -258 -106q-18 -16 -18 -47v-189q0 -15 15 -15h519q15 0 15 15v189q0 30 -17 47q-106 106 -256 106z" />
    <glyph glyph-name="uni2153" unicode="&#x2153;" horiz-adv-x="1313" 
d="M345 -15h-146l694 798h144zM347 317h-129l57 270h-121l21 97h25q98 0 111 72l3 14h129zM962 -16q-93 0 -141.5 37.5t-49.5 107.5l121 17q8 -62 78 -62q43 0 67.5 16t24.5 43q0 40 -68 40h-38l20 97h34q82 0 82 49q0 41 -67 41q-69 0 -93 -53l-115 17q22 60 80.5 94
t139.5 34q80 0 130.5 -32.5t50.5 -85.5q0 -37 -24 -65t-66 -39l-1 -2q69 -22 69 -92q0 -72 -64 -117t-170 -45z" />
    <glyph glyph-name="uni2154" unicode="&#x2154;" horiz-adv-x="1493" 
d="M525 -15h-146l695 798h144zM530 317h-432q19 166 180 214l111 33q76 22 76 64q0 46 -73 46q-76 0 -101 -60l-114 24q55 141 227 141q85 0 135.5 -35t50.5 -98q0 -61 -46 -103.5t-132 -62.5l-75 -18q-52 -13 -61 -39h276zM1142 -16q-93 0 -141.5 37.5t-49.5 107.5l121 17
q8 -62 79 -62q42 0 66.5 16t24.5 43q0 40 -68 40h-38l20 97h34q82 0 82 49q0 41 -67 41q-69 0 -93 -53l-115 17q21 60 80 94t141 34q80 0 130 -32.5t50 -85.5q0 -37 -24 -65t-66 -39l-1 -2q69 -22 69 -92q0 -72 -64 -117t-170 -45z" />
    <glyph glyph-name="uni2155" unicode="&#x2155;" horiz-adv-x="1319" 
d="M345 -15h-146l694 798h144zM347 317h-129l57 270h-121l21 97h25q98 0 111 72l3 14h129zM971 -8q-135 0 -193 88l113 55q29 -41 87 -41q42 0 70 19t28 47q0 24 -20.5 37t-56.5 13q-51 0 -84 -24l-101 47l91 220h337l-22 -97h-248l-30 -72l2 -1q49 17 102 17q76 0 118 -34
t42 -94q0 -80 -65 -130t-170 -50z" />
    <glyph glyph-name="uni2156" unicode="&#x2156;" horiz-adv-x="1493" 
d="M518 -15h-145l694 798h144zM530 317h-432q19 166 180 214l111 33q76 22 76 64q0 46 -73 46q-76 0 -101 -60l-114 24q55 141 227 141q85 0 135.5 -35t50.5 -98q0 -61 -46 -103.5t-132 -62.5l-75 -18q-52 -13 -61 -39h276zM1144 -8q-134 0 -192 88l113 55q29 -41 87 -41
q42 0 69.5 19t27.5 47q0 50 -76 50q-51 0 -84 -24l-102 47l92 220h337l-22 -97h-248l-31 -72l2 -1q49 17 103 17q76 0 117.5 -34t41.5 -94q0 -81 -64 -130q-65 -50 -171 -50z" />
    <glyph glyph-name="uni2157" unicode="&#x2157;" horiz-adv-x="1463" 
d="M489 -15h-146l694 798h144zM315 302q-93 0 -141.5 37t-49.5 107l120 17q8 -62 79 -62q42 0 67 16t25 43q0 40 -69 40h-38l21 97h34q82 0 82 49q0 41 -68 41t-92 -53l-115 18q22 60 80.5 93.5t139.5 33.5q80 0 130.5 -32t50.5 -85q0 -37 -24 -65t-66 -40l-1 -2
q68 -24 68 -92q0 -72 -64 -116.5t-169 -44.5zM1115 -8q-135 0 -193 88l113 55q29 -41 87 -41q42 0 70 19t28 47q0 24 -20.5 37t-56.5 13q-51 0 -84 -24l-101 47l91 220h337l-22 -97h-248l-30 -72l2 -1q49 17 102 17q76 0 118 -34t42 -94q0 -80 -65 -130t-170 -50z" />
    <glyph glyph-name="uni2158" unicode="&#x2158;" horiz-adv-x="1504" 
d="M530 -15h-146l695 798h144zM471 317h-127l23 103l-251 -10l23 104l278 256h150l-57 -267l80 11l-23 -104l-74 10zM412 646l-152 -136l124 -7l30 142zM1156 -8q-135 0 -193 88l113 55q29 -41 88 -41q42 0 69.5 19t27.5 47q0 24 -20.5 37t-56.5 13q-50 0 -84 -24l-101 47
l91 220h337l-21 -97h-249l-30 -72l2 -1q49 17 102 17q76 0 118 -34t42 -94q0 -80 -65 -130t-170 -50z" />
    <glyph glyph-name="uni2159" unicode="&#x2159;" horiz-adv-x="1319" 
d="M345 -15h-146l694 798h144zM347 317h-129l57 270h-121l21 97h25q98 0 111 72l3 14h129zM975 -9q-90 0 -143.5 48t-53.5 137q0 121 77 204q76 82 200 82q125 0 174 -85l-109 -41q-28 33 -78 33q-93 0 -126 -113q62 39 139 39q71 0 110.5 -33.5t39.5 -91.5q0 -76 -63 -127
q-62 -52 -167 -52zM982 83q42 0 68.5 20.5t26.5 53.5q0 53 -70 53q-62 0 -103 -47q0 -80 78 -80z" />
    <glyph glyph-name="uni215A" unicode="&#x215a;" horiz-adv-x="1440" 
d="M466 -15h-146l695 798h144zM307 309q-135 0 -193 88l113 55q29 -41 87 -41q43 0 70.5 19t27.5 48q0 49 -77 49q-51 0 -84 -24l-101 47l91 220h337l-22 -97h-248l-30 -72l2 -1q46 18 102 18q75 0 117.5 -34.5t42.5 -94.5q0 -80 -65 -130t-170 -50zM1097 -9
q-90 0 -143.5 48t-53.5 137q0 121 77 204q76 82 200 82q125 0 174 -85l-110 -41q-25 33 -78 33q-91 0 -126 -113q61 39 140 39q71 0 110.5 -33.5t39.5 -91.5q0 -76 -63 -127q-62 -52 -167 -52zM1104 83q41 0 68 21.5t27 52.5q0 53 -70 53q-62 0 -104 -47q2 -80 79 -80z" />
    <glyph glyph-name="oneeighth" unicode="&#x215b;" horiz-adv-x="1348" 
d="M345 -15h-146l694 798h144zM347 317h-129l57 270h-121l21 97h25q98 0 111 72l3 14h129zM986 -9q-93 0 -147.5 33t-54.5 91q0 46 32.5 81t82.5 42v2q-57 26 -57 82q0 64 63.5 102t168.5 38q88 0 136.5 -29t48.5 -82q0 -39 -26.5 -70t-69.5 -41v-2q69 -19 69 -89
q0 -71 -69 -114q-70 -44 -177 -44zM1040 279q93 0 93 51q0 39 -75 39q-93 0 -93 -51q0 -39 75 -39zM998 84q49 0 78 16.5t29 44.5q0 46 -85 46q-50 0 -78.5 -15.5t-28.5 -42.5q0 -49 85 -49z" />
    <glyph glyph-name="threeeighths" unicode="&#x215c;" horiz-adv-x="1492" 
d="M489 -15h-146l694 798h144zM315 302q-93 0 -141.5 37t-49.5 107l120 17q8 -62 79 -62q42 0 67 16t25 43q0 40 -69 40h-38l21 97h34q82 0 82 49q0 41 -68 41t-92 -53l-115 18q22 60 80.5 93.5t139.5 33.5q80 0 130.5 -32t50.5 -85q0 -37 -24 -65t-66 -40l-1 -2
q68 -24 68 -92q0 -72 -64 -116.5t-169 -44.5zM1130 -9q-93 0 -147.5 33t-54.5 91q0 46 32.5 81t82.5 42v2q-57 26 -57 82q0 64 63.5 102t168.5 38q88 0 136.5 -29t48.5 -82q0 -39 -26.5 -70t-69.5 -41v-2q69 -19 69 -89q0 -71 -69 -114q-70 -44 -177 -44zM1184 279
q93 0 93 51q0 39 -75 39q-93 0 -93 -51q0 -39 75 -39zM1142 84q49 0 78 16.5t29 44.5q0 46 -85 46q-50 0 -78.5 -15.5t-28.5 -42.5q0 -49 85 -49z" />
    <glyph glyph-name="fiveeighths" unicode="&#x215d;" horiz-adv-x="1470" 
d="M466 -15h-146l695 798h144zM307 309q-135 0 -193 88l113 55q29 -41 87 -41q43 0 70.5 19t27.5 48q0 49 -77 49q-51 0 -84 -24l-101 47l91 220h337l-22 -97h-248l-30 -72l2 -1q46 18 102 18q75 0 117.5 -34.5t42.5 -94.5q0 -80 -65 -130t-170 -50zM1108 -9q-93 0 -148 33
t-55 91q0 46 32.5 81t83.5 42v2q-57 26 -57 82q0 64 63.5 102t167.5 38q89 0 137.5 -29t48.5 -82q0 -39 -26.5 -70t-70.5 -41v-2q69 -19 69 -89t-68 -114q-70 -44 -177 -44zM1161 279q94 0 94 51q0 39 -75 39q-93 0 -93 -51q0 -39 74 -39zM1119 84q49 0 78 16.5t29 44.5
q0 46 -84 46q-50 0 -79 -15.5t-29 -42.5q0 -49 85 -49z" />
    <glyph glyph-name="seveneighths" unicode="&#x215e;" horiz-adv-x="1381" 
d="M378 -15h-146l694 798h144zM326 317h-129q26 102 87 193t140 153h-253l23 107h404l-24 -108q-101 -67 -160 -147.5t-88 -197.5zM1019 -9q-93 0 -147.5 33.5t-54.5 90.5q0 46 32.5 81t82.5 42v2q-57 26 -57 82q0 64 63.5 102t168.5 38q88 0 136.5 -29t48.5 -82
q0 -39 -26.5 -70t-69.5 -41v-2q69 -19 69 -89q0 -71 -69 -114q-70 -44 -177 -44zM1073 279q93 0 93 51q0 39 -75 39q-93 0 -93 -51q0 -39 75 -39zM1031 84q49 0 78 16.5t29 44.5q0 46 -85 46q-50 0 -78.5 -15.5t-28.5 -42.5q0 -49 85 -49z" />
    <glyph glyph-name="arrowleft" unicode="&#x2190;" horiz-adv-x="1000" 
d="M404 483h500v-200h-498l86 -104l135 -179h-217l-290 384l290 384h217l-135 -178z" />
    <glyph glyph-name="arrowup" unicode="&#x2191;" horiz-adv-x="1000" 
d="M141 494l383 290l383 -290v-216l-177 135l-107 88v-501h-200v499l-104 -86l-178 -135v216z" />
    <glyph glyph-name="arrowright" unicode="&#x2192;" horiz-adv-x="1000" 
d="M419 768h217l290 -384l-290 -384h-217l135 179l86 104h-498v200h500l-88 107z" />
    <glyph glyph-name="arrowdown" unicode="&#x2193;" horiz-adv-x="1000" 
d="M622 267l107 88l177 135v-216l-383 -290l-383 290v216l178 -135l104 -86v499h200v-501z" />
    <glyph glyph-name="arrowboth" unicode="&#x2194;" horiz-adv-x="1341" 
d="M761 768h216l290 -384l-290 -384h-216l135 179l86 104h-576l86 -104l135 -179h-217l-290 384l290 384h217l-135 -178l-88 -107h580l-88 107z" />
    <glyph glyph-name="arrowupdn" unicode="&#x2195;" horiz-adv-x="1077" 
d="M661 94l107 88l178 134v-216l-384 -290l-384 290v216l179 -134l104 -86v577l-105 -87l-179 -134v216l384 290l384 -290v-216l-178 134l-106 87v-579z" />
    <glyph glyph-name="uni2196" unicode="&#x2196;" horiz-adv-x="1056" 
d="M523 529l391 -387l-142 -142l-388 388l7 -181v-137h-186v638h638v-186h-135z" />
    <glyph glyph-name="uni2197" unicode="&#x2197;" horiz-adv-x="1000" 
d="M205 522v186h638v-638h-186v137l7 180l-388 -387l-142 142l391 387l-184 -7h-136z" />
    <glyph glyph-name="uni2198" unicode="&#x2198;" horiz-adv-x="1056" 
d="M699 501v137h185v-638h-637v186h135l185 -7l-391 387l142 142l387 -387z" />
    <glyph glyph-name="uni2199" unicode="&#x2199;" horiz-adv-x="1000" 
d="M900 566l-391 -387l184 7h136v-186h-638v638h186v-137l-7 -180l388 387z" />
    <glyph glyph-name="partialdiff" unicode="&#x2202;" horiz-adv-x="772" 
d="M394 788q156 0 237 -106.5t81 -316.5q0 -176 -84 -278q-84 -103 -235 -103q-133 0 -208 76q-76 76 -76 199q0 119 71 190q70 70 178 70q74 0 144 -36q-10 77 -40.5 110.5t-88.5 33.5t-156 -32l-50 152q126 41 227 41zM400 150q51 0 77 39.5t31 126.5q-47 53 -108 53
q-45 0 -70.5 -29t-25.5 -80t25.5 -80.5t70.5 -29.5z" />
    <glyph glyph-name="uni2206" unicode="&#x2206;" horiz-adv-x="833" 
d="M217 768h271l267 -768h-793zM330 542l-113 -388h273l-116 388l-22 88z" />
    <glyph glyph-name="product" unicode="&#x220f;" horiz-adv-x="1046" 
d="M192 768h665v-972h-204v799h-257v-799h-204v972z" />
    <glyph glyph-name="summation" unicode="&#x2211;" horiz-adv-x="956" 
d="M640 289l-278 -343h426v-150h-628v140l294 353l-283 339v140h605v-150h-400z" />
    <glyph glyph-name="minus" unicode="&#x2212;" 
d="M676 267h-585v146h585v-146z" />
    <glyph glyph-name="uni2215" unicode="&#x2215;" horiz-adv-x="478" 
d="M-11 -15h-146l695 798h144z" />
    <glyph glyph-name="uni2219" unicode="&#x2219;" horiz-adv-x="521" 
d="M425 119h-394l75 351h393z" />
    <glyph glyph-name="radical" unicode="&#x221a;" 
d="M560 -204h-236l-107 299l-129 -49l-48 133l265 97l130 -363l184 890h148z" />
    <glyph glyph-name="infinity" unicode="&#x221e;" horiz-adv-x="910" 
d="M263 131q-90 0 -142 57t-52 156q0 101 52 157.5t142 56.5q59 0 105.5 -29t101.5 -96q55 67 101.5 96t105.5 29q90 0 142 -56.5t52 -157.5q0 -99 -52 -156t-142 -57q-59 0 -106.5 29t-100.5 95q-55 -67 -101.5 -95.5t-105.5 -28.5zM667 265q35 0 55 21t20 58q0 39 -20 61
t-55 22q-55 0 -117 -83q60 -79 117 -79zM274 262q55 0 116 82q-61 79 -117 79q-35 0 -55 -21t-20 -58q0 -39 20.5 -60.5t55.5 -21.5z" />
    <glyph glyph-name="integral" unicode="&#x222b;" 
d="M264 -204h-89v168h41q38 0 53 15.5t15 53.5v551q0 114 53 166.5t168 52.5h89v-168h-42q-38 0 -53 -15.5t-15 -53.5v-551q0 -114 -53 -166.5t-167 -52.5z" />
    <glyph glyph-name="approxequal" unicode="&#x2248;" 
d="M237 381h-163q0 110 45.5 169.5t134.5 59.5q44 0 91 -17.5t83 -35t54 -17.5q49 0 49 70h163q0 -110 -46 -169.5t-135 -59.5q-44 0 -90.5 17.5t-82.5 35t-54 17.5q-49 0 -49 -70zM237 85h-163q0 110 45.5 169.5t134.5 59.5q44 0 91 -17.5t83 -35t54 -17.5q49 0 49 70h163
q0 -110 -45 -169.5t-136 -59.5q-44 0 -90.5 17.5t-82.5 35t-54 17.5q-49 0 -49 -70z" />
    <glyph glyph-name="notequal" unicode="&#x2260;" 
d="M676 554v-145h-225l-54 -139h279v-145h-336l-66 -167l-72 26l55 141h-166v145h223l55 139h-278v145h335l69 176l72 -26l-59 -150h168z" />
    <glyph glyph-name="lessequal" unicode="&#x2264;" 
d="M91 593l585 158v-148l-458 -107l458 -107v-148l-585 158v194zM676 0h-585v146h585v-146z" />
    <glyph glyph-name="greaterequal" unicode="&#x2265;" 
d="M91 603v148l585 -158v-194l-585 -158v148l459 107zM676 0h-585v146h585v-146z" />
    <glyph glyph-name="uni2460" unicode="&#x2460;" horiz-adv-x="1226" 
d="M641 -117q-230 0 -382 149t-152 375q0 227 152 376t382 149q231 0 383 -149q151 -148 151 -376q0 -227 -151 -375q-150 -149 -383 -149zM345 113q118 -116 296 -116t296 116q117 115 117 294t-117 295q-118 116 -296 116t-296 -116q-117 -116 -117 -295t117 -294z
M743 158h-142v297h-133v108h28q55 0 80 18t25 60v15h142v-498z" />
    <glyph glyph-name="uni2461" unicode="&#x2461;" horiz-adv-x="1226" 
d="M641 -117q-230 0 -382 149t-152 375q0 227 152 376t382 149q231 0 383 -149q151 -148 151 -376q0 -227 -151 -375q-150 -149 -383 -149zM345 113q118 -116 296 -116t296 116q117 115 117 294t-117 295q-118 116 -296 116t-296 -116q-117 -116 -117 -295t117 -294z
M873 172h-475q0 180 160 235l103 35q67 22 67 64q0 57 -84 57t-100 -66l-133 19q14 79 73.5 121.5t158.5 42.5q104 0 163 -43.5t59 -122.5q0 -124 -150 -164l-85 -22q-52 -13 -58 -39h301v-117z" />
    <glyph glyph-name="uni2462" unicode="&#x2462;" horiz-adv-x="1226" 
d="M641 -117q-230 0 -382 149t-152 375q0 227 152 376t382 149q231 0 383 -149q151 -148 151 -376q0 -227 -151 -375q-150 -149 -383 -149zM345 113q118 -116 296 -116t296 116q117 115 117 294t-117 295q-118 116 -296 116t-296 -116q-117 -116 -117 -295t117 -294z
M639 141q-99 0 -157 41t-71 119l133 19q10 -38 32.5 -53.5t64.5 -15.5q88 0 88 58q0 51 -84 51h-62v106h57q79 0 79 47q0 53 -82 53q-71 0 -92 -59l-130 19q19 67 78 103.5t151 36.5q95 0 153.5 -37.5t58.5 -102.5q0 -69 -77 -104v-2q97 -30 97 -119q0 -75 -62 -117.5
t-175 -42.5z" />
    <glyph glyph-name="uni2463" unicode="&#x2463;" horiz-adv-x="1226" 
d="M641 -117q-230 0 -382 149t-152 375q0 227 152 376t382 149q231 0 383 -149q151 -148 151 -376q0 -227 -151 -375q-150 -149 -383 -149zM345 113q118 -116 296 -116t296 116q117 115 117 294t-117 295q-118 116 -296 116t-296 -116q-117 -116 -117 -295t117 -294z
M791 163h-139v114l-273 -12v115l246 281h166v-293l84 12v-115l-84 12v-114zM649 525l-134 -150l137 -7v157h-3z" />
    <glyph glyph-name="uni2464" unicode="&#x2464;" horiz-adv-x="1226" 
d="M641 -117q-230 0 -382 149t-152 375q0 227 152 376t382 149q231 0 383 -149q151 -148 151 -376q0 -227 -151 -375q-150 -149 -383 -149zM345 113q118 -116 296 -116t296 116q117 115 117 294t-117 295q-118 116 -296 116t-296 -116q-117 -116 -117 -295t117 -294z
M641 148q-160 0 -227 97l129 61q27 -40 96 -40q45 0 71 16t26 46q0 59 -94 59q-54 0 -90 -24l-129 34l56 258h371v-107h-274l-17 -77l2 -2q45 19 115 19q96 0 147.5 -41.5t51.5 -117.5q0 -84 -61.5 -132.5t-172.5 -48.5z" />
    <glyph glyph-name="uni2465" unicode="&#x2465;" horiz-adv-x="1226" 
d="M641 -117q-230 0 -382 149t-152 375q0 227 152 376t382 149q231 0 383 -149q151 -148 151 -376q0 -227 -151 -375q-150 -149 -383 -149zM345 113q118 -116 296 -116t296 116q117 115 117 294t-117 295q-118 116 -296 116t-296 -116q-117 -116 -117 -295t117 -294z
M650 152q-119 0 -184 66t-65 187q0 119 61 192t194 73q143 0 210 -94l-121 -44q-34 33 -88 33q-56 0 -82 -26.5t-30 -89.5q50 35 136 35q94 0 145.5 -41.5t51.5 -115.5q0 -80 -61 -127.5t-167 -47.5zM649 257q42 0 66.5 18.5t24.5 51.5q0 32 -24 50t-66 18q-68 0 -103 -50
q13 -88 102 -88z" />
    <glyph glyph-name="uni2466" unicode="&#x2466;" horiz-adv-x="1226" 
d="M641 -117q-230 0 -382 149t-152 375q0 227 152 376t382 149q231 0 383 -149q151 -148 151 -376q0 -227 -151 -375q-150 -149 -383 -149zM345 113q118 -116 296 -116t296 116q117 115 117 294t-117 295q-118 116 -296 116t-296 -116q-117 -116 -117 -295t117 -294z
M673 138h-142q3 110 50 212q47 101 119 169h-279v117h444v-118q-95 -72 -141 -160q-47 -89 -51 -220z" />
    <glyph glyph-name="uni2467" unicode="&#x2467;" horiz-adv-x="1226" 
d="M641 -117q-230 0 -382 149t-152 375q0 227 152 376t382 149q231 0 383 -149q151 -148 151 -376q0 -227 -151 -375q-150 -149 -383 -149zM345 113q118 -116 296 -116t296 116q117 115 117 294t-117 295q-118 116 -296 116t-296 -116q-117 -116 -117 -295t117 -294z
M642 148q-112 0 -177.5 39.5t-65.5 112.5q0 45 26.5 77.5t71.5 42.5v2q-80 26 -80 107q0 66 58.5 101.5t166.5 35.5q107 0 166.5 -35.5t59.5 -101.5q0 -79 -82 -107v-2q47 -11 72.5 -42.5t25.5 -77.5q0 -73 -65.5 -112.5t-176.5 -39.5zM642 465q91 0 91 49q0 50 -91 50
q-92 0 -92 -50q0 -49 92 -49zM642 250q49 0 76.5 16t27.5 44q0 58 -104 58q-105 0 -105 -58q0 -28 27.5 -44t77.5 -16z" />
    <glyph glyph-name="uni2468" unicode="&#x2468;" horiz-adv-x="1226" 
d="M641 -117q-230 0 -382 149t-152 375q0 227 152 376t382 149q231 0 383 -149q151 -148 151 -376q0 -227 -151 -375q-150 -149 -383 -149zM345 113q118 -116 296 -116t296 116q117 115 117 294t-117 295q-118 116 -296 116t-296 -116q-117 -116 -117 -295t117 -294z
M637 147q-141 0 -212 95l122 45q33 -34 89 -34q54 0 80 26.5t31 88.5q-49 -34 -137 -34q-93 0 -145 41.5t-52 114.5q0 81 60.5 128t167.5 47q120 0 184.5 -65.5t64.5 -187.5q0 -56 -13.5 -102t-42.5 -83.5t-79 -58.5t-118 -21zM641 422q70 0 103 51q-12 87 -102 87
q-42 0 -66.5 -18.5t-24.5 -51.5q0 -31 25 -49.5t65 -18.5z" />
    <glyph glyph-name="uni24EA" unicode="&#x24ea;" horiz-adv-x="1226" 
d="M641 -117q-230 0 -382 149t-152 375q0 227 152 376t382 149q231 0 383 -149q151 -148 151 -376q0 -227 -151 -375q-150 -149 -383 -149zM345 113q118 -116 296 -116t296 116q117 115 117 294t-117 295q-118 116 -296 116t-296 -116q-117 -116 -117 -295t117 -294z
M820 216q-62 -68 -177 -68t-178 68t-63 192t62.5 191t178.5 67q115 0 177 -67t62 -191t-62 -192zM643 266q99 0 99 142q0 141 -99 141q-102 0 -102 -141q0 -142 102 -142z" />
    <glyph glyph-name="uni24FF" unicode="&#x24ff;" horiz-adv-x="1226" 
d="M641 -117q-230 0 -382 149t-152 375q0 227 152 376t382 149q231 0 383 -149q151 -148 151 -376q0 -227 -151 -375q-150 -149 -383 -149zM465 216q63 -68 178 -68t177 68t62 192t-62 191t-177 67q-116 0 -178.5 -67t-62.5 -191t63 -192zM643 266q-102 0 -102 142
q0 141 102 141q99 0 99 -141q0 -142 -99 -142z" />
    <glyph glyph-name="filledbox" unicode="&#x25a0;" horiz-adv-x="1337" 
d="M1172 -88h-962v941h962v-941z" />
    <glyph glyph-name="uni25A1" unicode="&#x25a1;" horiz-adv-x="1337" 
d="M1172 -88h-962v941h962v-941zM336 735v-705h711v705h-711z" />
    <glyph glyph-name="lozenge" unicode="&#x25ca;" horiz-adv-x="728" 
d="M274 768h226l207 -384l-207 -384h-226l-207 384zM233 384l154 -298l154 298l-154 298z" />
    <glyph glyph-name="circle" unicode="&#x25cb;" horiz-adv-x="1226" 
d="M641 -117q-230 0 -382 149t-152 375q0 227 152 376t382 149q231 0 383 -149q151 -148 151 -376q0 -227 -151 -375q-150 -149 -383 -149zM345 113q118 -116 296 -116t296 116q117 115 117 294t-117 295q-118 116 -296 116t-296 -116q-117 -116 -117 -295t117 -294z" />
    <glyph glyph-name="uni25CF" unicode="&#x25cf;" horiz-adv-x="1226" 
d="M641 -117q-230 0 -382 149t-152 375q0 227 152 376t382 149q231 0 383 -149q151 -148 151 -376q0 -227 -151 -375q-150 -149 -383 -149z" />
    <glyph glyph-name="uni2776" unicode="&#x2776;" horiz-adv-x="1226" 
d="M641 -117q-230 0 -382 149t-152 375q0 227 152 376t382 149q231 0 383 -149q151 -148 151 -376q0 -227 -151 -375q-150 -149 -383 -149zM592 455v-297h141v498h-141v-15q0 -42 -25 -60t-80 -18h-28v-108h133z" />
    <glyph glyph-name="uni2777" unicode="&#x2777;" horiz-adv-x="1226" 
d="M641 932q231 0 383 -149q151 -148 151 -376q0 -227 -151 -375q-150 -149 -383 -149q-230 0 -382 149t-152 375q0 227 152 376t382 149zM397 172h476v117h-301q5 26 58 39l85 23q150 39 150 163q0 79 -59 122.5t-163 43.5q-99 0 -158.5 -42.5t-73.5 -121.5l133 -19
q16 66 100 66t84 -56q0 -43 -67 -65l-104 -35q-160 -55 -160 -235z" />
    <glyph glyph-name="uni2778" unicode="&#x2778;" horiz-adv-x="1226" 
d="M640 -122q-230 0 -382 149t-152 375q0 227 152 376t382 149q231 0 383 -149q151 -148 151 -376q0 -227 -151 -375q-150 -149 -383 -149zM639 137q113 0 175 42.5t62 117.5q0 89 -97 120v2q77 32 77 103q0 65 -58.5 103t-153.5 38q-92 0 -151 -36.5t-78 -104.5l130 -18
q21 58 92 58q82 0 82 -53q0 -47 -79 -47h-57v-106h62q84 0 84 -51q0 -58 -88 -58q-42 0 -64 15.5t-32 53.5l-134 -19q13 -78 71 -119t157 -41z" />
    <glyph glyph-name="uni2779" unicode="&#x2779;" horiz-adv-x="1226" 
d="M641 -117q-230 0 -382 149t-152 375q0 227 152 376t382 149q231 0 383 -149q151 -148 151 -376q0 -227 -151 -375q-150 -149 -383 -149zM653 282v-114h139v114l85 -12v115l-85 -12v293h-165l-246 -281v-115zM653 373l-137 7l134 150h3v-157z" />
    <glyph glyph-name="uni277A" unicode="&#x277a;" horiz-adv-x="1226" 
d="M641 932q231 0 383 -149q151 -148 151 -376q0 -227 -151 -375q-150 -149 -383 -149q-230 0 -382 149t-152 375q0 227 152 376t382 149zM639 144q112 0 173.5 48t61.5 132q0 76 -52 117.5t-148 41.5q-67 0 -114 -19l-3 2l17 78h274v107h-371l-56 -258l129 -35q36 24 90 24
q94 0 94 -58q0 -30 -26 -46.5t-71 -16.5q-69 0 -96 40l-128 -61q68 -96 226 -96z" />
    <glyph glyph-name="uni277B" unicode="&#x277b;" horiz-adv-x="1226" 
d="M641 -117q-230 0 -382 149t-152 375q0 227 152 376t382 149q231 0 383 -149q151 -148 151 -376q0 -227 -151 -375q-150 -149 -383 -149zM653 149q105 0 166.5 48t61.5 127q0 74 -51.5 115.5t-145.5 41.5q-87 0 -136 -35q4 62 30 89t81 27t89 -33l121 45q-69 93 -211 93
q-132 0 -193 -73q-62 -74 -62 -191q0 -122 65 -188t185 -66zM652 254q-90 0 -102 89q35 50 103 50q42 0 65.5 -18t23.5 -51q0 -32 -24.5 -51t-65.5 -19z" />
    <glyph glyph-name="uni277C" unicode="&#x277c;" horiz-adv-x="1226" 
d="M641 -117q-230 0 -382 149t-152 375q0 227 152 376t382 149q231 0 383 -149q151 -148 151 -376q0 -227 -151 -375q-150 -149 -383 -149zM533 144h141q4 130 50 218t143 161v119h-445v-118h279q-71 -65 -118 -167q-47 -103 -50 -213z" />
    <glyph glyph-name="uni277D" unicode="&#x277d;" horiz-adv-x="1226" 
d="M641 -117q-230 0 -382 149t-152 375q0 227 152 376t382 149q231 0 383 -149q151 -148 151 -376q0 -227 -151 -375q-150 -149 -383 -149zM641 148q111 0 177 39.5t66 112.5q0 46 -26 77.5t-72 42.5v2q82 27 82 107q0 65 -60 101t-167 36q-108 0 -166.5 -35.5t-58.5 -101.5
q0 -81 80 -107v-2q-45 -10 -71.5 -42.5t-26.5 -77.5q0 -73 65.5 -112.5t177.5 -39.5zM732 514q0 -49 -91 -49t-91 49q0 50 91 50t91 -50zM718 266q-28 -16 -77 -16q-50 0 -76 16q-28 16 -28 44q0 58 104 58t104 -58q0 -28 -27 -44z" />
    <glyph glyph-name="uni277E" unicode="&#x277e;" horiz-adv-x="1226" 
d="M641 -117q-230 0 -382 149t-152 375q0 227 152 376t382 149q231 0 383 -149q151 -148 151 -376q0 -227 -151 -375q-150 -149 -383 -149zM638 147q131 0 193 74q61 73 61 191q0 121 -65 187t-184 66q-107 0 -168 -47t-61 -128q0 -72 52.5 -114t145.5 -42q88 0 137 34
q-5 -62 -31.5 -89t-80.5 -27t-88 34l-122 -44q69 -95 211 -95zM643 422q-40 0 -65 18.5t-25 49.5q0 33 24.5 51.5t66.5 18.5q90 0 101 -87q-31 -51 -102 -51z" />
    <glyph glyph-name="uni2E18" unicode="&#x2e18;" horiz-adv-x="810" 
d="M359 548h227l-39 -183h-226zM506 24l194 -23q-56 -227 -366 -227q-158 0 -242 53.5t-84 152.5q0 143 181 210l37 14q75 29 102 49q29 20 44 55h100l-16 -182l-24 -116h-148l23 112q-1 0 -1 -0.5t-1 -0.5q-90 -37 -90 -104q0 -43 34.5 -62.5t108.5 -19.5q71 0 104 20
t44 69z" />
    <glyph glyph-name="uniF8FF" unicode="&#xf8ff;" horiz-adv-x="1437" 
d="M658 669v-194h-107v170q0 19 -11 30q-10 10 -26 10q-20 0 -32 -15.5t-13 -39.5v-155h-107v410h107v-151q35 41 87 41q47 0 74 -27q28 -27 28 -79zM1142 885h106v-410h-106v410zM903 466q-77 0 -121 41t-44 113q0 71 43 113.5t117 42.5q76 0 119.5 -44.5t43.5 -115.5v-16
h-222q6 -60 64 -60q35 0 52 26l95 -20q-41 -80 -147 -80zM840 652h117q-8 56 -59 56q-50 0 -58 -56zM1284 292v-16h-222q4 -60 64 -60q36 0 53 26l94 -20q-37 -81 -147 -81q-77 0 -121 41.5t-44 112.5q0 72 43 114t118 42q76 0 119 -44t43 -115zM779 322l32 120h109
l-101 -292h-128l-100 292h113l32 -120l21 -89q1 5 10.5 42t11.5 47zM1122 383q-52 0 -59 -55h117q-7 55 -58 55zM497 169h-107v84h107v-84zM222 203v-67l-3 -25l85 4v-65l-86 3l4 -37v-80q0 -16 6 -22t22 -6h54v-85h-79q-60 0 -83.5 18.5t-23.5 66.5v108l4 37l-69 -3v65
l68 -3l-3 24v67h104zM737 -107q40 0 50 46l98 -10q-11 -53 -51.5 -84t-100.5 -31q-71 0 -113.5 42t-42.5 113t41.5 112.5t114.5 41.5q58 0 98 -27.5t53 -77.5l-98 -15q-10 43 -49 43q-54 0 -54 -76q0 -77 54 -77zM1111 123q143 0 143 -95v-136v-69h-90l-6 36
q-32 -45 -101 -45q-48 0 -77 24.5t-29 65.5q0 42 28.5 63t93.5 31l59 10q15 3 21 7v9q0 32 -48 32q-24 0 -35 -8t-17 -30l-89 9q15 96 147 96zM497 -177h-107v292h107v-292zM1097 -124q39 0 55 30v55l-4 -1q-4 -1 -8.5 -2t-6.5 -1l-38 -8q-39 -7 -39 -36q0 -37 41 -37z" />
    <glyph glyph-name="uniFEFF" unicode="&#xfeff;" horiz-adv-x="0" 
 />
    <glyph glyph-name="null" horiz-adv-x="0" 
 />
    <glyph glyph-name="Adieresis.ss01" horiz-adv-x="833" 
d="M479 898q-28 -26 -68 -26q-41 0 -67 26q-27 26 -27 67t27 67q26 26 67 26q40 0 68 -26q26 -26 26 -67t-26 -67zM645 1032q26 26 67 26q40 0 68 -26q26 -26 26 -67t-26 -67q-28 -26 -68 -26q-41 0 -67 26q-27 26 -27 67t27 67zM-38 0l417 768h271l105 -768h-212l-10 115
h-296l-58 -115h-217zM452 542l-138 -273h206l-24 273l-4 89z" />
    <glyph glyph-name="Cdotaccent.ss01" horiz-adv-x="861" 
d="M561 872q-42 0 -68.5 26t-26.5 67t26.5 67t68.5 26q41 0 67 -26t26 -67t-26 -67t-67 -26zM406 -17q-149 0 -237 86q-87 85 -87 230q0 51 12 107q37 176 157 278q119 99 288 99q142 0 225 -69t96 -198l-205 -24q-5 57 -39.5 89t-93.5 32q-84 0 -142 -61q-59 -62 -78 -158
q-9 -42 -9 -83q0 -157 138 -157q125 0 184 129l197 -23q-53 -132 -160 -204q-107 -73 -246 -73z" />
    <glyph glyph-name="Edieresis.ss01" horiz-adv-x="728" 
d="M448 898q-28 -26 -68 -26q-41 0 -67 26q-27 26 -27 67t27 67q26 26 67 26q40 0 68 -26q26 -26 26 -67t-26 -67zM749 898q-28 -26 -68 -26q-41 0 -67 26q-27 26 -27 67t27 67q26 26 67 26q40 0 68 -26q26 -26 26 -67t-26 -67zM782 768l-37 -172h-385l-26 -121h350
l-34 -164h-351l-29 -139h385l-37 -172h-589l164 768h589z" />
    <glyph glyph-name="Edotaccent.ss01" horiz-adv-x="728" 
d="M519 872q-42 0 -68.5 26t-26.5 67t26.5 67t68.5 26q41 0 67.5 -26t26.5 -67t-26.5 -67t-67.5 -26zM782 768l-37 -172h-385l-26 -121h350l-34 -164h-351l-29 -139h385l-37 -172h-589l164 768h589z" />
    <glyph glyph-name="uni0122.ss01" horiz-adv-x="910" 
d="M635 288h-170l32 147h360l-92 -435h-139l-15 75q-78 -92 -223 -92q-147 0 -226 88q-80 89 -80 228q0 51 11 103q39 182 157 281.5t300 99.5q141 0 224.5 -64.5t96.5 -185.5l-198 -38q-13 115 -141 115q-89 0 -148.5 -56.5t-83.5 -168.5q-8 -40 -8 -78q0 -75 38 -115
t107 -40q141 0 195 124zM348 -71q55 0 88.5 -25t33.5 -69q0 -22 -6 -46l-6 -28q-14 -63 -57 -89t-130 -26h-53l13 64h58q50 0 70 13t28 52l1 3q-31 -7 -54 -7q-46 0 -70.5 20t-24.5 56q0 40 28.5 61t80.5 21z" />
    <glyph glyph-name="Gdotaccent.ss01" horiz-adv-x="910" 
d="M578 872q-42 0 -68.5 26t-26.5 67t26.5 67t68.5 26q41 0 67 -26t26 -67t-26.5 -67t-66.5 -26zM635 288h-170l32 147h360l-92 -435h-139l-15 75q-78 -92 -223 -92q-147 0 -226 88q-80 89 -80 228q0 51 11 103q39 182 157 281.5t300 99.5q141 0 224.5 -64.5t96.5 -185.5
l-198 -38q-13 115 -141 115q-89 0 -148.5 -56.5t-83.5 -168.5q-8 -40 -8 -78q0 -75 38 -115t107 -40q141 0 195 124z" />
    <glyph glyph-name="Idieresis.ss01" horiz-adv-x="380" 
d="M188 872q-41 0 -67.5 26t-26.5 67t26.5 67t67.5 26t67 -26t26 -67t-26.5 -67t-66.5 -26zM488 872q-40 0 -66.5 26t-26.5 67t26 67t67 26t67.5 -26t26.5 -67t-26.5 -67t-67.5 -26zM233 0h-204l164 768h204z" />
    <glyph glyph-name="Idotaccent.ss01" horiz-adv-x="380" 
d="M337 872q-42 0 -68.5 26t-26.5 67t26.5 67t68.5 26q41 0 67.5 -26t26.5 -67t-26.5 -67t-67.5 -26zM233 0h-204l164 768h204z" />
    <glyph glyph-name="uni0136.ss01" horiz-adv-x="840" 
d="M651 768h257l-352 -341l210 -427h-226l-147 304l-120 -115l-40 -189h-204l164 768h204l-70 -328zM342 -71q55 0 88.5 -25t33.5 -69q0 -22 -6 -46l-6 -28q-13 -62 -56.5 -88.5t-130.5 -26.5h-52l12 64h58q50 0 70 13t28 52l1 3q-25 -7 -54 -7q-46 0 -70.5 20t-24.5 56
q0 40 28.5 61t80.5 21z" />
    <glyph glyph-name="uni013B.ss01" horiz-adv-x="666" 
d="M408 768l-127 -593h332l-37 -175h-547l164 768h215zM261 -71q55 0 88.5 -25t33.5 -69q0 -22 -6 -46l-6 -28q-13 -62 -56.5 -88.5t-130.5 -26.5h-52l12 64h58q50 0 70 13t28 52l1 3q-25 -7 -54 -7q-46 0 -70.5 20t-24.5 56q0 40 28.5 61t80.5 21z" />
    <glyph glyph-name="Ldot.ss01" horiz-adv-x="666" 
d="M193 768h215l-127 -593h332l-37 -175h-547zM547 561q53 0 87.5 -33t34.5 -83q0 -51 -34.5 -84t-87.5 -33t-87 33t-34 84q0 50 34.5 83t86.5 33z" />
    <glyph glyph-name="uni0145.ss01" horiz-adv-x="881" 
d="M594 265l108 503h197l-164 -768h-242l-159 507l-108 -507h-197l164 768h246zM339 -71q55 0 88.5 -25t33.5 -69q0 -22 -6 -46l-6 -28q-13 -62 -56.5 -88.5t-130.5 -26.5h-52l12 64h58q50 0 70 13t28 52l1 3q-25 -7 -54 -7q-46 0 -70.5 20t-24.5 56q0 40 28.5 61t80.5 21z
" />
    <glyph glyph-name="Odieresis.ss01" horiz-adv-x="921" 
d="M503 899q-28 -26 -68 -26q-41 0 -67 26q-27 26 -27 67q0 42 27 67q26 26 67 26q40 0 68 -26q26 -26 26 -67t-26 -67zM804 899q-28 -26 -68 -26q-41 0 -67 26q-27 26 -27 67q0 42 27 67q26 26 67 26q40 0 68 -26q26 -26 26 -67t-26 -67zM415 -16q-155 0 -244 84
q-89 83 -89 227q0 52 12 109q37 173 162 277q124 103 298 103q154 0 243 -84q89 -86 89 -230q0 -45 -11 -106q-38 -177 -158 -278q-121 -102 -302 -102zM436 152q86 0 146.5 59t83.5 173q8 42 8 78q0 77 -37 115.5t-104 38.5q-86 0 -147.5 -59t-84.5 -173q-8 -40 -8 -77
q0 -76 38 -115.5t105 -39.5z" />
    <glyph glyph-name="uni0156.ss01" horiz-adv-x="802" 
d="M812 598q0 -90 -56 -149t-155 -81q108 -28 108 -150q0 -7 -2 -47l-14 -171h-194l16 170q2 24 2 45q0 36 -18.5 51t-65.5 15h-140l-60 -281h-204l164 768h412q98 0 152.5 -46.5t54.5 -123.5zM327 439h115q67 0 107 29t40 82q0 59 -90 59h-136zM323 -71q55 0 88.5 -25
t33.5 -69q0 -22 -6 -46l-6 -28q-13 -62 -56.5 -88.5t-130.5 -26.5h-52l12 64h58q50 0 70 13t28 52l1 3q-25 -7 -54 -7q-46 0 -70.5 20t-24.5 56q0 40 28.5 61t80.5 21z" />
    <glyph glyph-name="uni0218.ss01" horiz-adv-x="786" 
d="M779 585v-7l-194 -18v7q0 34 -33.5 53t-91.5 19q-122 0 -122 -83q0 -48 76 -61l87 -19q224 -45 224 -207q0 -143 -100 -213q-101 -72 -274 -72q-148 0 -230.5 54.5t-82.5 156.5v10l201 20v-6q0 -85 127 -85q142 0 142 90q0 28 -19 44t-66 26l-96 21q-98 21 -151 73.5
t-53 129.5q0 129 92.5 197.5t257.5 68.5q147 0 226.5 -51.5t79.5 -147.5zM305 -72q55 0 88.5 -25t33.5 -69q0 -22 -6 -46l-6 -28q-13 -62 -56.5 -88.5t-130.5 -26.5h-52l12 64h58q50 0 70 13t28 52l1 3q-25 -7 -54 -7q-46 0 -70.5 20t-24.5 56q0 40 28.5 61t80.5 21z" />
    <glyph glyph-name="uni021A.ss01" horiz-adv-x="745" 
d="M149 768h657l-37 -172h-226l-128 -596h-204l128 596h-227zM270 -71q55 0 88.5 -25t33.5 -69q0 -22 -6 -46l-6 -28q-13 -62 -56.5 -88.5t-130.5 -26.5h-52l12 64h58q50 0 70 13t28 52l1 3q-25 -7 -54 -7q-46 0 -70.5 20t-24.5 56q0 40 28.5 61t80.5 21z" />
    <glyph glyph-name="Udieresis.ss01" horiz-adv-x="852" 
d="M488 898q-28 -26 -68 -26q-41 0 -67 26q-27 26 -27 67t27 67q26 26 67 26q40 0 68 -26q26 -26 26 -67t-26 -67zM789 898q-28 -26 -68 -26q-41 0 -67 26q-27 26 -27 67t27 67q26 26 67 26q40 0 68 -26q26 -26 26 -67t-26 -67zM384 -16q-136 0 -219 59t-83 171q0 33 10 82
l100 472h216l-103 -482q-4 -17 -4 -38q0 -85 101 -85q123 0 150 123l102 482h215l-104 -491q-62 -293 -381 -293z" />
    <glyph glyph-name="Wdieresis.ss01" horiz-adv-x="1152" 
d="M617 898q-28 -26 -68 -26q-41 0 -67 26q-27 26 -27 67t27 67q26 26 67 26q40 0 68 -26q26 -26 26 -67t-26 -67zM918 898q-28 -26 -68 -26q-41 0 -67 26q-27 26 -27 67t27 67q26 26 67 26q40 0 68 -26q26 -26 26 -67t-26 -67zM837 340l182 428h217l-364 -768h-238l-17 508
l-207 -508h-238l-47 768h193l12 -428l-5 -143l53 143l174 428h233l3 -428l-8 -146z" />
    <glyph glyph-name="Ydieresis.ss01" horiz-adv-x="766" 
d="M448 897q-28 -26 -68 -26q-41 0 -67 26q-27 25 -27 67t27 67q26 26 67 26q40 0 68 -26q26 -26 26 -67t-26 -67zM749 897q-28 -26 -68 -26q-41 0 -67 26q-27 25 -27 67t27 67q26 26 67 26q40 0 68 -26q26 -26 26 -67t-26 -67zM623 768h234l-363 -469l-65 -299h-204l64 297
h-1l-169 471h206l77 -244l15 -50l34 51z" />
    <glyph glyph-name="Zdotaccent.ss01" horiz-adv-x="775" 
d="M535 872q-42 0 -68.5 26t-26.5 67t26.5 67t68.5 26q41 0 67 -26t26 -67t-26 -67t-67 -26zM180 768h633l-32 -149l-476 -453h386l-35 -166h-653l32 149l466 453h-356z" />
    <glyph glyph-name="G.ss03" horiz-adv-x="890" 
d="M625 281h-171l33 155h368q-25 -205 -143 -329q-117 -124 -301 -124q-151 0 -240 79q-91 79 -91 223q0 51 12 109q37 177 158 284q119 106 294 106q141 0 222 -69t90 -180l-194 -37q-1 118 -124 118q-90 0 -153.5 -65.5t-88.5 -182.5q-10 -44 -10 -85q0 -136 134 -136
q70 0 124 35.5t81 98.5z" />
    <glyph glyph-name="uni01F4.ss03" horiz-adv-x="890" 
d="M574 1075h230l-170 -181h-176zM625 281h-171l33 155h368q-25 -205 -143 -329q-117 -124 -301 -124q-151 0 -240 79q-91 79 -91 223q0 51 12 109q37 177 158 284q119 106 294 106q141 0 222 -69t90 -180l-194 -37q-1 118 -124 118q-90 0 -153.5 -65.5t-88.5 -182.5
q-10 -44 -10 -85q0 -136 134 -136q70 0 124 35.5t81 98.5z" />
    <glyph glyph-name="Gbreve.ss03" horiz-adv-x="890" 
d="M586 872q-102 0 -151 30.5t-49 96.5q0 33 7 65h119q-3 -13 -3 -26q0 -57 88 -57q54 0 82 19.5t38 63.5h125q-23 -105 -79 -148q-59 -44 -177 -44zM625 281h-171l33 155h368q-25 -205 -143 -329q-117 -124 -301 -124q-151 0 -240 79q-91 79 -91 223q0 51 12 109
q37 177 158 284q119 106 294 106q141 0 222 -69t90 -180l-194 -37q-1 118 -124 118q-90 0 -153.5 -65.5t-88.5 -182.5q-10 -44 -10 -85q0 -136 134 -136q70 0 124 35.5t81 98.5z" />
    <glyph glyph-name="Gcircumflex.ss03" horiz-adv-x="890" 
d="M666 884l-65 98l-107 -98h-171l196 179h175l119 -179h-147zM625 281h-171l33 155h368q-25 -205 -143 -329q-117 -124 -301 -124q-151 0 -240 79q-91 79 -91 223q0 51 12 109q37 177 158 284q119 106 294 106q141 0 222 -69t90 -180l-194 -37q-1 118 -124 118
q-90 0 -153.5 -65.5t-88.5 -182.5q-10 -44 -10 -85q0 -136 134 -136q70 0 124 35.5t81 98.5z" />
    <glyph glyph-name="uni0122.ss03" horiz-adv-x="890" 
d="M625 281h-171l33 155h368q-25 -205 -143 -329q-117 -124 -301 -124q-151 0 -240 79q-91 79 -91 223q0 51 12 109q37 177 158 284q119 106 294 106q141 0 222 -69t90 -180l-194 -37q-1 118 -124 118q-90 0 -153.5 -65.5t-88.5 -182.5q-10 -44 -10 -85q0 -136 134 -136
q70 0 124 35.5t81 98.5zM401 -197l-144 -24l28 130h218l-26 -122q-18 -84 -58 -112t-135 -28h-55l15 69h70q66 0 80 56z" />
    <glyph glyph-name="Gdotaccent.ss03" horiz-adv-x="890" 
d="M517 1043h191l-33 -159h-191zM625 281h-171l33 155h368q-25 -205 -143 -329q-117 -124 -301 -124q-151 0 -240 79q-91 79 -91 223q0 51 12 109q37 177 158 284q119 106 294 106q141 0 222 -69t90 -180l-194 -37q-1 118 -124 118q-90 0 -153.5 -65.5t-88.5 -182.5
q-10 -44 -10 -85q0 -136 134 -136q70 0 124 35.5t81 98.5z" />
    <glyph glyph-name="uni0122.ss01.ss03" horiz-adv-x="890" 
d="M625 281h-171l33 155h368q-25 -205 -143 -329q-117 -124 -301 -124q-151 0 -240 79q-91 79 -91 223q0 51 12 109q37 177 158 284q119 106 294 106q141 0 222 -69t90 -180l-194 -37q-1 118 -124 118q-90 0 -153.5 -65.5t-88.5 -182.5q-10 -44 -10 -85q0 -136 134 -136
q70 0 124 35.5t81 98.5zM370 -71q55 0 88.5 -25t33.5 -69q0 -22 -6 -46l-6 -28q-13 -63 -56 -89t-131 -26h-52l13 64h58q49 0 69 13t28 52l1 3q-25 -7 -54 -7q-45 0 -69.5 20t-24.5 56q0 40 28 61t80 21z" />
    <glyph glyph-name="Gdotaccent.ss01.ss03" horiz-adv-x="890" 
d="M600 888q-42 0 -68.5 26t-26.5 67t26.5 67t68.5 26q41 0 67 -26t26 -67t-26.5 -67t-66.5 -26zM625 281h-171l33 155h368q-25 -205 -143 -329q-117 -124 -301 -124q-151 0 -240 79q-91 79 -91 223q0 51 12 109q37 177 158 284q119 106 294 106q141 0 222 -69t90 -180
l-194 -37q-1 118 -124 118q-90 0 -153.5 -65.5t-88.5 -182.5q-10 -44 -10 -85q0 -136 134 -136q70 0 124 35.5t81 98.5z" />
    <glyph glyph-name="R.ss04" horiz-adv-x="800" 
d="M798 555q0 -89 -51.5 -156.5t-140.5 -98.5l115 -300h-210l-96 263h-126l-56 -263h-204l164 768h345q123 0 191.5 -55.5t68.5 -157.5zM511 606h-149l-39 -185h135q63 0 98.5 30t35.5 77q0 35 -21.5 56.5t-59.5 21.5z" />
    <glyph glyph-name="Racute.ss04" horiz-adv-x="800" 
d="M524 1059h230l-170 -181h-176zM798 555q0 -89 -51.5 -156.5t-140.5 -98.5l115 -300h-210l-96 263h-126l-56 -263h-204l164 768h345q123 0 191.5 -55.5t68.5 -157.5zM511 606h-149l-39 -185h135q63 0 98.5 30t35.5 77q0 35 -21.5 56.5t-59.5 21.5z" />
    <glyph glyph-name="Rcaron.ss04" horiz-adv-x="800" 
d="M813 1038l-197 -180h-174l-118 180h147l64 -98l108 98h170zM193 768h345q123 0 191.5 -55.5t68.5 -157.5q0 -89 -51.5 -156.5t-140.5 -98.5l115 -300h-210l-96 263h-126l-56 -263h-204zM511 606h-149l-39 -185h135q63 0 98.5 30t35.5 77q0 35 -21.5 56.5t-59.5 21.5z" />
    <glyph glyph-name="uni0156.ss04" horiz-adv-x="800" 
d="M798 555q0 -89 -51.5 -156.5t-140.5 -98.5l115 -300h-210l-96 263h-126l-56 -263h-204l164 768h345q123 0 191.5 -55.5t68.5 -157.5zM511 606h-149l-39 -185h135q63 0 98.5 30t35.5 77q0 35 -21.5 56.5t-59.5 21.5zM352 -198l-144 -23l27 130h219l-27 -123
q-18 -83 -57 -112q-40 -28 -135 -28h-55l14 69h71q67 0 80 57z" />
    <glyph glyph-name="uni0156.ss01.ss04" horiz-adv-x="800" 
d="M798 555q0 -89 -51.5 -156.5t-140.5 -98.5l115 -300h-210l-96 263h-126l-56 -263h-204l164 768h345q123 0 191.5 -55.5t68.5 -157.5zM511 606h-149l-39 -185h135q63 0 98.5 30t35.5 77q0 35 -21.5 56.5t-59.5 21.5zM322 -71q55 0 88.5 -25t33.5 -69q0 -22 -6 -46l-6 -28
q-13 -62 -56.5 -88.5t-130.5 -26.5h-52l12 64h58q50 0 70 13t28 52l1 3q-25 -7 -54 -7q-46 0 -70.5 20t-24.5 56q0 40 28.5 61t80.5 21z" />
    <glyph glyph-name="i.loclTRK" horiz-adv-x="327" 
d="M343 648h-200l34 159h200zM205 0h-200l116 548h200z" />
    <glyph glyph-name="adieresis.ss01" horiz-adv-x="693" 
d="M359 665q-25 -27 -67 -27t-67 27q-27 25 -27 67q0 40 26.5 66t67.5 26t67 -26t26 -66q0 -41 -26 -67zM525 798q26 26 67 26q40 0 68 -26q26 -26 26 -66q0 -41 -26.5 -67.5t-67.5 -26.5t-67 26.5t-26 67.5q0 40 26 66zM389 564q247 0 247 -147q0 -15 -5 -45l-52 -242
q-11 -69 -11 -91q0 -18 4 -39h-183v63q-65 -80 -188 -80q-87 0 -136 40t-49 112q0 96 77 139q66 36 188 55l117 19q24 4 40 13q4 12 4 25q0 52 -79 52q-46 0 -70 -16t-37 -55l-168 14q24 90 101 136.5t200 46.5zM292 101q61 0 100 52l23 107q-24 -6 -35 -8l-77 -14
q-45 -9 -64.5 -28t-19.5 -50q0 -28 19 -43.5t54 -15.5z" />
    <glyph glyph-name="cdotaccent.ss01" horiz-adv-x="667" 
d="M498 665q-27 -27 -68 -27q-42 0 -67 27q-27 25 -27 67q0 40 26.5 66t67.5 26t67.5 -26t26.5 -66q0 -41 -26 -67zM299 -17q-122 0 -189 63t-67 172q0 37 8 75q28 132 113.5 200.5t220.5 68.5q110 0 178.5 -52t75.5 -145l-190 -29q-5 83 -72 83q-96 0 -126 -144
q-7 -27 -7 -58q0 -87 74 -87q71 0 108 88l182 -20q-37 -104 -115 -159.5t-194 -55.5z" />
    <glyph glyph-name="edieresis.ss01" horiz-adv-x="699" 
d="M363 665q-25 -27 -67 -27q-41 0 -67 27q-27 25 -27 67q0 40 26.5 66t67.5 26t67 -26t26 -66q0 -41 -26 -67zM529 798q26 26 67 26q40 0 68 -26q26 -26 26 -66q0 -41 -26.5 -67.5t-67.5 -26.5t-67 26.5t-26 67.5q0 40 26 66zM394 564q124 0 192.5 -65t68.5 -177
q0 -40 -12 -87h-410q-1 -3 -1 -14q0 -46 24 -72.5t68 -26.5q69 0 112 49l170 -32q-46 -74 -121 -114.5t-169 -40.5q-127 0 -199.5 62.5t-72.5 173.5q0 38 7 70q24 127 114 200q91 74 229 74zM381 438q-93 0 -128 -105h216v10q0 44 -23.5 69.5t-64.5 25.5z" />
    <glyph glyph-name="edotaccent.ss01" horiz-adv-x="699" 
d="M515 665q-27 -27 -68 -27t-67 27q-27 25 -27 67q0 40 26.5 66t67.5 26t67.5 -26t26.5 -66q0 -41 -26 -67zM643 235h-410q-1 -3 -1 -14q0 -46 24 -72.5t68 -26.5q69 0 112 49l170 -32q-46 -74 -121 -114.5t-169 -40.5q-127 0 -199.5 62.5t-72.5 173.5q0 38 7 70
q24 127 114 200q91 74 229 74q124 0 192.5 -65t68.5 -177q0 -40 -12 -87zM381 438q-93 0 -128 -105h216v10q0 44 -23.5 69.5t-64.5 25.5z" />
    <glyph glyph-name="uni0123.ss01" horiz-adv-x="691" 
d="M473 638q-55 0 -88 25t-33 68q0 19 5 47l6 28q14 64 59.5 94t129.5 30h53l-13 -64h-68q-75 0 -88 -65l-2 -12q27 6 53 6q46 0 70.5 -19.5t24.5 -55.5q0 -40 -28.5 -61t-80.5 -21zM482 482l23 74h182l-105 -497q-28 -129 -104 -191.5t-205 -62.5q-114 0 -177.5 41.5
t-71.5 119.5l186 24q14 -44 73 -44q41 0 64.5 23t35.5 77l12 55q-62 -59 -154 -59q-82 0 -136 54t-54 148q0 137 74 229q73 91 201 91q107 0 156 -82zM252 272q0 -37 20 -59.5t55 -22.5q51 0 83 44q31 43 31 100q0 34 -20 54.5t-53 20.5q-52 0 -84 -41t-32 -96z" />
    <glyph glyph-name="gdotaccent.ss01" horiz-adv-x="691" 
d="M538 665q-27 -27 -68 -27q-42 0 -67 27q-27 25 -27 67q0 40 26.5 66t67.5 26t67.5 -26t26.5 -66q0 -41 -26 -67zM482 482l23 74h182l-105 -497q-28 -129 -104 -191.5t-205 -62.5q-114 0 -177.5 41.5t-71.5 119.5l186 24q14 -44 73 -44q41 0 64.5 23t35.5 77l12 55
q-62 -59 -154 -59q-82 0 -136 54t-54 148q0 137 74 229q73 91 201 91q107 0 156 -82zM252 272q0 -37 20 -59.5t55 -22.5q51 0 83 44q31 43 31 100q0 34 -20 54.5t-53 20.5q-52 0 -84 -41t-32 -96z" />
    <glyph glyph-name="i.ss01" horiz-adv-x="327" 
d="M263 637q-48 0 -78 30.5t-30 78.5q0 47 30 76.5t78 29.5t78.5 -29.5t30.5 -76.5q0 -48 -31 -78.5t-78 -30.5zM205 0h-200l116 548h200z" />
    <glyph glyph-name="idieresis.ss01" horiz-adv-x="327" 
d="M179 665q-27 -27 -68 -27t-67 27q-27 25 -27 67q0 40 26.5 66t67.5 26t67.5 -26t26.5 -66q0 -41 -26 -67zM480 665q-27 -27 -68 -27q-42 0 -67 27q-27 25 -27 67q0 40 26.5 66t67.5 26t67.5 -26t26.5 -66q0 -41 -26 -67zM205 0h-200l116 548h200z" />
    <glyph glyph-name="i.loclTRK.ss01" horiz-adv-x="327" 
d="M263 637q-48 0 -78 30.5t-30 78.5q0 47 30 76.5t78 29.5t78.5 -29.5t30.5 -76.5q0 -48 -31 -78.5t-78 -30.5zM205 0h-200l116 548h200z" />
    <glyph glyph-name="ij.ss01" horiz-adv-x="654" 
d="M263 637q-48 0 -78 30.5t-30 78.5q0 47 30 76.5t78 29.5t78.5 -29.5t30.5 -76.5q0 -48 -31 -78.5t-78 -30.5zM590 637q-48 0 -78 30.5t-30 78.5q0 47 30 76.5t78 29.5t78.5 -29.5t30.5 -76.5q0 -48 -31 -78.5t-78 -30.5zM205 0h-200l116 548h200zM279 -214h-82l30 138h35
q54 0 66 58l119 566h200l-119 -567q-22 -107 -79 -152q-55 -43 -170 -43z" />
    <glyph glyph-name="iogonek.ss01" horiz-adv-x="327" 
d="M185 823q31 29 78 29t79 -29q30 -30 30 -77q0 -48 -31 -78.5t-78 -30.5q-48 0 -78 30.5t-30 78.5q0 47 30 77zM58 0h-53l116 548h200l-116 -548l-73 -50q-49 -31 -49 -65q0 -42 57 -42h32l-19 -92h-83q-68 0 -104 28.5t-36 77.5q0 77 98 128z" />
    <glyph glyph-name="j.ss01" horiz-adv-x="327" 
d="M263 637q-48 0 -78 30.5t-30 78.5q0 47 30 76.5t78 29.5t78.5 -29.5t30.5 -76.5q0 -48 -31 -78.5t-78 -30.5zM-48 -214h-82l30 138h35q54 0 66 58l119 566h200l-119 -567q-22 -107 -79 -152q-55 -43 -170 -43z" />
    <glyph glyph-name="uni0137.ss01" horiz-adv-x="693" 
d="M498 548h223l-270 -237l159 -311h-202l-88 206l-87 -74l-28 -132h-200l164 768h200l-91 -428zM243 -71q55 0 88.5 -25t33.5 -69q0 -22 -6 -46l-6 -28q-13 -62 -56.5 -88.5t-130.5 -26.5h-52l12 64h58q50 0 70 13t28 52l1 3q-25 -7 -54 -7q-46 0 -70.5 20t-24.5 56
q0 40 28.5 61t80.5 21z" />
    <glyph glyph-name="uni013C.ss01" horiz-adv-x="328" 
d="M5 0l164 768h200l-164 -768h-200zM62 -71q55 0 88.5 -25t33.5 -69q0 -22 -6 -46l-6 -28q-13 -62 -56.5 -88.5t-130.5 -26.5h-52l12 64h58q50 0 70 13t28 52l1 3q-25 -7 -54 -7q-46 0 -70.5 20t-24.5 56q0 40 28.5 61t80.5 21z" />
    <glyph glyph-name="ldot.ss01" horiz-adv-x="609" 
d="M205 0h-200l164 768h200zM571 298q-35 -33 -87 -33t-87 33q-34 31 -34 83q0 51 34 84q35 32 87 32t87 -32q34 -33 34 -84q0 -52 -34 -83z" />
    <glyph glyph-name="napostrophe.ss01" horiz-adv-x="1042" 
d="M380 567l-9 -42q-41 -192 -221 -192h-41l19 92h33q88 0 105 77l7 35h-8q-55 0 -87.5 28.5t-32.5 78.5q0 55 34.5 90.5t93.5 35.5q57 0 87.5 -33.5t30.5 -92.5q0 -22 -11 -77zM843 563q73 0 114.5 -43.5t41.5 -118.5q0 -29 -9 -72l-70 -329h-200l67 318q4 12 4 25
q0 52 -55 52q-38 0 -65.5 -27t-39.5 -73l-63 -295h-200l117 548h185l-8 -70q79 85 181 85z" />
    <glyph glyph-name="uni0146.ss01" horiz-adv-x="680" 
d="M480 563q73 0 114.5 -43.5t41.5 -118.5q0 -32 -8 -72l-71 -329h-200l68 318q3 15 3 25q0 52 -54 52q-38 0 -65.5 -26.5t-40.5 -74.5l-63 -294h-200l117 548h185l-8 -70q79 85 181 85zM237 -71q55 0 88.5 -25t33.5 -69q0 -22 -6 -46l-6 -28q-13 -62 -56.5 -88.5
t-130.5 -26.5h-52l12 64h58q50 0 70 13t28 52l1 3q-25 -7 -54 -7q-46 0 -70.5 20t-24.5 56q0 40 28.5 61t80.5 21z" />
    <glyph glyph-name="odieresis.ss01" horiz-adv-x="691" 
d="M362 665q-26 -27 -67 -27q-42 0 -67 27q-27 25 -27 67q0 40 26.5 66t67.5 26t67 -26t26 -66q0 -41 -26 -67zM663 665q-27 -27 -68 -27t-67 27q-26 26 -26 67q0 40 26 66t67 26t67.5 -26t26.5 -66q0 -41 -26 -67zM297 -17q-119 0 -187 62t-68 168q0 30 7 68
q26 136 115 209.5t230 73.5q120 0 187.5 -62t67.5 -170q0 -35 -8 -72q-26 -136 -113 -206.5t-231 -70.5zM316 133q94 0 124 138q7 29 7 61q0 83 -71 83q-96 0 -125 -144q-6 -31 -6 -56q0 -82 71 -82z" />
    <glyph glyph-name="uni0157.ss01" horiz-adv-x="524" 
d="M484 564h42l-37 -172h-40q-142 0 -184 -111l-60 -281h-200l117 548h185l-12 -99q67 115 189 115zM61 -71q55 0 88.5 -25t33.5 -69q0 -22 -6 -46l-6 -28q-13 -62 -56.5 -88.5t-130.5 -26.5h-52l12 64h58q50 0 70 13t28 52l1 3q-25 -7 -54 -7q-46 0 -70.5 20t-24.5 56
q0 40 28.5 61t80.5 21z" />
    <glyph glyph-name="uni0219.ss01" horiz-adv-x="636" 
d="M320 361l83 -18q88 -19 125.5 -56t37.5 -107q0 -98 -75.5 -150.5t-210.5 -52.5q-119 0 -189 44t-73 126l187 18q9 -67 85 -67q83 0 83 55q0 32 -53 46l-97 25q-64 15 -102.5 52.5t-38.5 96.5q0 101 78 149t206 48q115 0 177.5 -42.5t66.5 -117.5l-185 -17q-2 28 -22.5 43
t-52.5 15q-75 0 -75 -47q0 -34 45 -43zM237 -71q55 0 88.5 -25t33.5 -69q0 -22 -6 -46l-6 -28q-13 -63 -56 -89t-131 -26h-52l12 64h58q50 0 70 13t28 52l1 3q-25 -7 -54 -7q-45 0 -70 20t-25 56q0 40 28.5 61t80.5 21z" />
    <glyph glyph-name="uni021B.ss01" horiz-adv-x="551" 
d="M362 432l-1 -46l-36 -172q-4 -12 -4 -24q0 -17 10 -23.5t35 -6.5h101l-35 -160h-139q-92 0 -136 29t-44 91q0 24 6 52l46 214l18 45l-131 -6l27 123l129 -7v48l26 123h197l-26 -121l-21 -50l165 7l-26 -123zM159 -62q55 0 88.5 -25t33.5 -69q0 -22 -6 -46l-6 -28
q-13 -62 -56.5 -88.5t-130.5 -26.5h-52l12 64h58q50 0 70 13t28 52l1 3q-25 -7 -54 -7q-46 0 -70.5 20t-24.5 56q0 40 28.5 61t80.5 21z" />
    <glyph glyph-name="udieresis.ss01" horiz-adv-x="680" 
d="M343 665q-25 -27 -67 -27t-67 27q-27 25 -27 67q0 40 26.5 66t67.5 26t67 -26t26 -66q0 -41 -26 -67zM644 665q-27 -27 -68 -27q-42 0 -67 27q-26 26 -26 67q0 40 26 66t67 26t67.5 -26t26.5 -66q0 -41 -26 -67zM413 258l61 290h200l-117 -548h-184l8 72
q-79 -87 -182 -87q-72 0 -114 43.5t-42 118.5q0 29 9 72l70 329h200l-67 -318q-3 -15 -3 -25q0 -52 54 -52q38 0 66.5 28.5t39.5 76.5h1z" />
    <glyph glyph-name="wdieresis.ss01" horiz-adv-x="1019" 
d="M508 665q-26 -27 -67 -27t-67 27q-27 25 -27 67q0 40 26.5 66t67.5 26t67 -26t26 -66q0 -41 -26 -67zM809 665q-27 -27 -68 -27t-67 27q-26 26 -26 67q0 40 26 66t67 26t67.5 -26t26.5 -66q0 -41 -26 -67zM697 301l125 247h213l-298 -548h-190l-33 265l-6 85l-40 -85
l-129 -265h-195l-75 548h197l26 -249l5 -76l33 74l117 251h183l23 -245l4 -84z" />
    <glyph glyph-name="ydieresis.ss01" horiz-adv-x="671" 
d="M334 665q-26 -27 -67 -27t-67 27q-27 25 -27 67q0 40 26.5 66t67.5 26t67 -26t26 -66q0 -41 -26 -67zM635 665q-27 -27 -68 -27t-67 27q-26 26 -26 67q0 40 26 66t67 26t67.5 -26t26.5 -66q0 -41 -26 -67zM304 218l169 330h214l-328 -572q-67 -116 -126 -153t-170 -37
h-112l31 147h98q32 0 50 10.5t39 42.5l-100 562h203z" />
    <glyph glyph-name="zdotaccent.ss01" horiz-adv-x="625" 
d="M478 665q-27 -27 -68 -27q-42 0 -67 27q-27 25 -27 67q0 40 26.5 66t67.5 26t67.5 -26t26.5 -66q0 -41 -26 -67zM107 548h518l-28 -132l-335 -273h288l-31 -143h-529l28 129l338 275h-280z" />
    <glyph glyph-name="a.ss02" horiz-adv-x="710" 
d="M502 476l26 72h177l-116 -548h-177l5 65q-71 -80 -184 -80q-90 0 -142 57t-52 153q0 93 41 177.5t114 137.5q74 54 161 54q110 0 147 -88zM322 148q40 0 71.5 27t47.5 73l11 54q1 3 1 16q0 42 -20 65.5t-57 23.5q-57 0 -93 -54q-37 -53 -37 -117q0 -40 20 -64t56 -24z
" />
    <glyph glyph-name="aacute.ss02" horiz-adv-x="710" 
d="M425 839h230l-170 -181h-176zM502 476l26 72h177l-116 -548h-177l5 65q-71 -80 -184 -80q-90 0 -142 57t-52 153q0 93 41 177.5t114 137.5q74 54 161 54q110 0 147 -88zM322 148q40 0 71.5 27t47.5 73l11 54q1 3 1 16q0 42 -20 65.5t-57 23.5q-57 0 -93 -54
q-37 -53 -37 -117q0 -40 20 -64t56 -24z" />
    <glyph glyph-name="abreve.ss02" horiz-adv-x="710" 
d="M437 636q-102 0 -151 30.5t-49 96.5q0 33 7 65h119q-3 -14 -3 -26q0 -57 88 -57q54 0 82 19.5t38 63.5h125q-23 -105 -79 -148q-59 -44 -177 -44zM502 476l26 72h177l-116 -548h-177l5 65q-71 -80 -184 -80q-90 0 -142 57t-52 153q0 93 41 177.5t114 137.5q74 54 161 54
q110 0 147 -88zM322 148q40 0 71.5 27t47.5 73l11 54q1 3 1 16q0 42 -20 65.5t-57 23.5q-57 0 -93 -54q-37 -53 -37 -117q0 -40 20 -64t56 -24z" />
    <glyph glyph-name="acircumflex.ss02" horiz-adv-x="710" 
d="M516 648l-65 98l-107 -98h-171l196 179h175l119 -179h-147zM502 476l26 72h177l-116 -548h-177l5 65q-71 -80 -184 -80q-90 0 -142 57t-52 153q0 93 41 177.5t114 137.5q74 54 161 54q110 0 147 -88zM322 148q40 0 71.5 27t47.5 73l11 54q1 3 1 16q0 42 -20 65.5
t-57 23.5q-57 0 -93 -54q-37 -53 -37 -117q0 -40 20 -64t56 -24z" />
    <glyph glyph-name="adieresis.ss02" horiz-adv-x="710" 
d="M211 807h191l-33 -159h-191zM525 807h191l-33 -159h-191zM502 476l26 72h177l-116 -548h-177l5 65q-71 -80 -184 -80q-90 0 -142 57t-52 153q0 93 41 177.5t114 137.5q74 54 161 54q110 0 147 -88zM322 148q40 0 71.5 27t47.5 73l11 54q1 3 1 16q0 42 -20 65.5t-57 23.5
q-57 0 -93 -54q-37 -53 -37 -117q0 -40 20 -64t56 -24z" />
    <glyph glyph-name="agrave.ss02" horiz-adv-x="710" 
d="M439 839l78 -181h-157l-132 181h211zM502 476l26 72h177l-116 -548h-177l5 65q-71 -80 -184 -80q-90 0 -142 57t-52 153q0 93 41 177.5t114 137.5q74 54 161 54q110 0 147 -88zM322 148q40 0 71.5 27t47.5 73l11 54q1 3 1 16q0 42 -20 65.5t-57 23.5q-57 0 -93 -54
q-37 -53 -37 -117q0 -40 20 -64t56 -24z" />
    <glyph glyph-name="amacron.ss02" horiz-adv-x="710" 
d="M257 769h399l-26 -121h-399zM502 476l26 72h177l-116 -548h-177l5 65q-71 -80 -184 -80q-90 0 -142 57t-52 153q0 93 41 177.5t114 137.5q74 54 161 54q110 0 147 -88zM322 148q40 0 71.5 27t47.5 73l11 54q1 3 1 16q0 42 -20 65.5t-57 23.5q-57 0 -93 -54
q-37 -53 -37 -117q0 -40 20 -64t56 -24z" />
    <glyph glyph-name="aogonek.ss02" horiz-adv-x="710" 
d="M587 0l-73 -50q-50 -33 -50 -65q0 -19 15.5 -30.5t41.5 -11.5h33l-20 -92h-83q-68 0 -103.5 28.5t-35.5 77.5q0 77 98 128l45 22l-22 80q-77 -87 -202 -87q-82 0 -135 56q-54 55 -54 149q-3 140 79 250t207 109q124 0 169 -102l31 86h176zM325 145q56 0 90 52
q35 52 35 116q0 42 -20.5 66.5t-56.5 24.5q-59 0 -94 -54q-35 -55 -35 -120q0 -42 21 -63.5t60 -21.5z" />
    <glyph glyph-name="aring.ss02" horiz-adv-x="710" 
d="M572 659q-45 -45 -115 -45t-115 45q-45 43 -45 113t45 115t115 45t115 -45t45 -115t-45 -113zM506 823q-29 31 -75 13.5t-42 -64.5q0 -30 19.5 -49.5t48.5 -19.5t48.5 19.5t19.5 49.5q0 32 -19 51zM502 476l26 72h177l-116 -548h-177l5 65q-71 -80 -184 -80
q-90 0 -142 57t-52 153q0 93 41 177.5t114 137.5q74 54 161 54q110 0 147 -88zM322 148q40 0 71.5 27t47.5 73l11 54q1 3 1 16q0 42 -20 65.5t-57 23.5q-57 0 -93 -54q-37 -53 -37 -117q0 -40 20 -64t56 -24z" />
    <glyph glyph-name="aringacute.ss02" horiz-adv-x="710" 
d="M518 1109h230l-170 -181h-176zM450 582q-69 0 -114 45q-46 45 -46 114t46 114q45 45 114 45q70 0 116 -45q45 -45 45 -114t-45 -114q-46 -45 -116 -45zM499 791q-30 31 -75 14t-41 -64q-4 -46 41 -63.5t75 13.5q19 19 19 50t-19 50zM502 476l26 72h177l-116 -548h-177
l5 65q-71 -80 -184 -80q-90 0 -142 57t-52 153q0 93 41 177.5t114 137.5q74 54 161 54q110 0 147 -88zM322 148q40 0 71.5 27t47.5 73l11 54q1 3 1 16q0 42 -20 65.5t-57 23.5q-57 0 -93 -54q-37 -53 -37 -117q0 -40 20 -64t56 -24z" />
    <glyph glyph-name="atilde.ss02" horiz-adv-x="710" 
d="M365 704q-41 0 -59 -70h-134q45 205 190 205q65 0 104 -39q38 -40 63 -40q41 0 59 70h133q-22 -98 -70 -151.5t-121 -53.5q-66 0 -102 40q-37 39 -63 39zM502 476l26 72h177l-116 -548h-177l5 65q-71 -80 -184 -80q-90 0 -142 57t-52 153q0 93 41 177.5t114 137.5
q74 54 161 54q110 0 147 -88zM322 148q40 0 71.5 27t47.5 73l11 54q1 3 1 16q0 42 -20 65.5t-57 23.5q-57 0 -93 -54q-37 -53 -37 -117q0 -40 20 -64t56 -24z" />
    <glyph glyph-name="adieresis.ss01.ss02" horiz-adv-x="710" 
d="M364 665q-26 -27 -67 -27q-42 0 -67 27q-27 25 -27 67q0 40 26.5 66t67.5 26t67 -26t26 -66q0 -41 -26 -67zM665 665q-27 -27 -68 -27t-67 27q-26 26 -26 67q0 40 26 66t67 26t67.5 -26t26.5 -66q0 -41 -26 -67zM502 476l26 72h177l-116 -548h-177l5 65q-71 -80 -184 -80
q-90 0 -142 57t-52 153q0 93 41 177.5t114 137.5q74 54 161 54q110 0 147 -88zM322 148q40 0 71.5 27t47.5 73l11 54q1 3 1 16q0 42 -20 65.5t-57 23.5q-57 0 -93 -54q-37 -53 -37 -117q0 -40 20 -64t56 -24z" />
    <glyph glyph-name="uni021B.ss01.ss05" horiz-adv-x="512" 
d="M411 542l138 6l-26 -123l-136 6l-92 -431h-197l92 431l-138 -6l27 123l135 -6l36 170h197zM154 -71q55 0 88.5 -25t33.5 -69q0 -22 -6 -46l-6 -28q-13 -62 -56.5 -88.5t-130.5 -26.5h-52l12 64h58q50 0 70 13t28 52l1 3q-25 -7 -54 -7q-46 0 -70.5 20t-24.5 56
q0 40 28.5 61t80.5 21z" />
    <glyph glyph-name="udieresis.ss01.ss05" horiz-adv-x="680" 
d="M343 665q-25 -27 -67 -27t-67 27q-27 25 -27 67q0 40 26.5 66t67.5 26t67 -26t26 -66q0 -41 -26 -67zM644 665q-27 -27 -68 -27q-42 0 -67 27q-26 26 -26 67q0 40 26 66t67 26t67.5 -26t26.5 -66q0 -41 -26 -67zM413 258l61 290h200l-117 -548h-184l8 72
q-79 -87 -182 -87q-72 0 -114 43.5t-42 118.5q0 29 9 72l70 329h200l-67 -318q-3 -15 -3 -25q0 -52 54 -52q38 0 66.5 28.5t39.5 76.5h1z" />
    <glyph glyph-name="t.ss05" horiz-adv-x="512" 
d="M411 542l138 6l-26 -123l-136 6l-92 -431h-197l92 431l-138 -6l27 123l135 -6l36 170h197z" />
    <glyph glyph-name="tbar.ss05" horiz-adv-x="512" 
d="M549 548l-26 -123l-136 6l-28 -130l139 6l-26 -123l-136 6l-41 -190h-197l41 190l-138 -6l26 123l135 -6l28 130l-138 -6l27 123l135 -6l36 170h197l-36 -170z" />
    <glyph glyph-name="tcaron.ss05" horiz-adv-x="683" 
d="M510 622l114 317h190l-170 -317h-134zM250 712h197l-36 -170l138 6l-26 -123l-136 6l-92 -431h-197l92 431l-138 -6l27 123l135 -6z" />
    <glyph glyph-name="uni0163.ss05" horiz-adv-x="512" 
d="M411 542l138 6l-26 -123l-136 6l-92 -431h-197l92 431l-138 -6l27 123l135 -6l36 170h197zM74 -66h130q120 0 120 -90q0 -120 -206 -120h-88l16 74h82q72 0 72 42q0 27 -35 27h-105z" />
    <glyph glyph-name="uni021B.ss05" horiz-adv-x="512" 
d="M411 542l138 6l-26 -123l-136 6l-92 -431h-197l92 431l-138 -6l27 123l135 -6l36 170h197zM184 -198l-144 -23l27 130h219l-27 -123q-18 -83 -57 -112q-40 -28 -135 -28h-55l14 69h71q67 0 80 57z" />
    <glyph glyph-name="udieresis.ss01.ss06" horiz-adv-x="680" 
d="M343 665q-25 -27 -67 -27t-67 27q-27 25 -27 67q0 40 26.5 66t67.5 26t67 -26t26 -66q0 -41 -26 -67zM644 665q-27 -27 -68 -27q-42 0 -67 27q-26 26 -26 67q0 40 26 66t67 26t67.5 -26t26.5 -66q0 -41 -26 -67zM290 -15q-244 0 -244 176q0 27 8 70l68 317h200l-71 -328
q-4 -19 -4 -31q0 -55 67 -55q73 0 88 77l72 337h200l-69 -327q-26 -121 -102 -178.5t-213 -57.5z" />
    <glyph glyph-name="u.ss06" horiz-adv-x="680" 
d="M290 -15q-244 0 -244 176q0 27 8 70l68 317h200l-71 -328q-4 -19 -4 -31q0 -55 67 -55q73 0 88 77l72 337h200l-69 -327q-26 -121 -102 -178.5t-213 -57.5z" />
    <glyph glyph-name="uacute.ss06" horiz-adv-x="680" 
d="M464 658h-176l116 181h230zM290 -15q-244 0 -244 176q0 27 8 70l68 317h200l-71 -328q-4 -19 -4 -31q0 -55 67 -55q73 0 88 77l72 337h200l-69 -327q-26 -121 -102 -178.5t-213 -57.5z" />
    <glyph glyph-name="ubreve.ss06" horiz-adv-x="680" 
d="M416 636q-102 0 -151 30.5t-49 96.5q0 33 7 65h119q-3 -14 -3 -26q0 -57 88 -57q54 0 82 19.5t38 63.5h125q-23 -105 -79 -148q-59 -44 -177 -44zM290 -15q-244 0 -244 176q0 27 8 70l68 317h200l-71 -328q-4 -19 -4 -31q0 -55 67 -55q73 0 88 77l72 337h200l-69 -327
q-26 -121 -102 -178.5t-213 -57.5z" />
    <glyph glyph-name="ucircumflex.ss06" horiz-adv-x="680" 
d="M324 648h-171l196 179h175l119 -179h-147l-65 98zM290 -15q-244 0 -244 176q0 27 8 70l68 317h200l-71 -328q-4 -19 -4 -31q0 -55 67 -55q73 0 88 77l72 337h200l-69 -327q-26 -121 -102 -178.5t-213 -57.5z" />
    <glyph glyph-name="udieresis.ss06" horiz-adv-x="680" 
d="M348 648h-191l33 159h191zM662 648h-191l33 159h191zM290 -15q-244 0 -244 176q0 27 8 70l68 317h200l-71 -328q-4 -19 -4 -31q0 -55 67 -55q73 0 88 77l72 337h200l-69 -327q-26 -121 -102 -178.5t-213 -57.5z" />
    <glyph glyph-name="ugrave.ss06" horiz-adv-x="680" 
d="M496 658h-157l-132 181h211zM290 -15q-244 0 -244 176q0 27 8 70l68 317h200l-71 -328q-4 -19 -4 -31q0 -55 67 -55q73 0 88 77l72 337h200l-69 -327q-26 -121 -102 -178.5t-213 -57.5z" />
    <glyph glyph-name="uhungarumlaut.ss06" horiz-adv-x="680" 
d="M323 647h-177l108 201h221zM636 647h-177l117 201h220zM290 -15q-244 0 -244 176q0 27 8 70l68 317h200l-71 -328q-4 -19 -4 -31q0 -55 67 -55q73 0 88 77l72 337h200l-69 -327q-26 -121 -102 -178.5t-213 -57.5z" />
    <glyph glyph-name="umacron.ss06" horiz-adv-x="680" 
d="M609 648h-399l26 121h399zM290 -15q-244 0 -244 176q0 27 8 70l68 317h200l-71 -328q-4 -19 -4 -31q0 -55 67 -55q73 0 88 77l72 337h200l-69 -327q-26 -121 -102 -178.5t-213 -57.5z" />
    <glyph glyph-name="uogonek.ss06" horiz-adv-x="680" 
d="M402 211l72 337h200l-69 -327q-39 -181 -197 -223l-84 -36q-53 -24 -53 -60q0 -42 57 -42h33l-20 -92h-94q-67 0 -103 29t-36 77q0 73 86 120q-148 31 -148 167q0 27 8 70l68 317h200l-71 -328q-4 -19 -4 -31q0 -55 67 -55q73 0 88 77z" />
    <glyph glyph-name="uring.ss06" horiz-adv-x="680" 
d="M551 659q-45 -45 -115 -45t-115 45q-45 43 -45 113t45 115t115 45t115 -45t45 -115t-45 -113zM388 722q21 -18 48 -19t48.5 19t19.5 50q3 43 -32.5 61t-71 0t-32.5 -61q0 -30 20 -50zM290 -15q-244 0 -244 176q0 27 8 70l68 317h200l-71 -328q-4 -19 -4 -31q0 -55 67 -55
q73 0 88 77l72 337h200l-69 -327q-26 -121 -102 -178.5t-213 -57.5z" />
    <glyph glyph-name="utilde.ss06" horiz-adv-x="680" 
d="M285 634h-134q45 205 190 205q65 0 104 -39q38 -40 63 -40q43 0 59 70h133q-22 -98 -70 -151.5t-121 -53.5q-66 0 -102 40q-37 39 -63 39q-43 0 -59 -70zM290 -15q-244 0 -244 176q0 27 8 70l68 317h200l-71 -328q-4 -19 -4 -31q0 -55 67 -55q73 0 88 77l72 337h200
l-69 -327q-26 -121 -102 -178.5t-213 -57.5z" />
    <glyph glyph-name="ydieresis.ss01.ss07" horiz-adv-x="671" 
d="M334 665q-26 -27 -67 -27t-67 27q-27 25 -27 67q0 40 26.5 66t67.5 26t67 -26t26 -66q0 -41 -26 -67zM635 665q-27 -27 -68 -27t-67 27q-26 26 -26 67q0 40 26 66t67 26t67.5 -26t26.5 -66q0 -41 -26 -67zM309 208l170 340h208l-448 -752h-178l119 184l-111 568h207z" />
    <glyph glyph-name="y.ss07" horiz-adv-x="671" 
d="M309 208l170 340h208l-448 -752h-178l119 184l-111 568h207z" />
    <glyph glyph-name="yacute.ss07" horiz-adv-x="671" 
d="M395 839h230l-170 -181h-176zM309 208l170 340h208l-448 -752h-178l119 184l-111 568h207z" />
    <glyph glyph-name="ycircumflex.ss07" horiz-adv-x="671" 
d="M487 648l-65 98l-107 -98h-171l196 179h175l119 -179h-147zM309 208l170 340h208l-448 -752h-178l119 184l-111 568h207z" />
    <glyph glyph-name="ydieresis.ss07" horiz-adv-x="671" 
d="M181 807h191l-33 -159h-191zM495 807h191l-33 -159h-191zM309 208l170 340h208l-448 -752h-178l119 184l-111 568h207z" />
    <glyph glyph-name="ygrave.ss07" horiz-adv-x="671" 
d="M409 839l78 -181h-157l-132 181h211zM309 208l170 340h208l-448 -752h-178l119 184l-111 568h207z" />
    <glyph glyph-name="l.ss08" horiz-adv-x="407" 
d="M313 0h-96q-93 0 -137 28.5t-44 91.5q0 24 6 52l127 596h200l-118 -554q-4 -17 -4 -24q0 -17 10 -23.5t35 -6.5h55z" />
    <glyph glyph-name="lacute.ss08" horiz-adv-x="407" 
d="M345 878h-176l116 181h230zM313 0h-96q-93 0 -137 28.5t-44 91.5q0 24 6 52l127 596h200l-118 -554q-4 -17 -4 -24q0 -17 10 -23.5t35 -6.5h55z" />
    <glyph glyph-name="lcaron.ss08" horiz-adv-x="589" 
d="M313 0h-96q-93 0 -137 28.5t-44 91.5q0 24 6 52l127 596h200l-118 -554q-4 -17 -4 -24q0 -17 10 -23.5t35 -6.5h55zM524 451h-134l114 317h190z" />
    <glyph glyph-name="uni013C.ss08" horiz-adv-x="407" 
d="M313 0h-96q-93 0 -137 28.5t-44 91.5q0 24 6 52l127 596h200l-118 -554q-4 -17 -4 -24q0 -17 10 -23.5t35 -6.5h55zM-25 -354h-55l14 69h71q67 0 80 57l7 30l-144 -23l27 130h219l-27 -123q-18 -83 -57 -112q-40 -28 -135 -28z" />
    <glyph glyph-name="ldot.ss08" horiz-adv-x="600" 
d="M313 0h-96q-93 0 -137 28.5t-44 91.5q0 24 6 52l127 596h200l-118 -554q-4 -17 -4 -24q0 -17 10 -23.5t35 -6.5h55zM567 277h-211l44 208h211z" />
    <glyph glyph-name="lslash.ss08" horiz-adv-x="557" 
d="M536 406l-144 -43l-32 -149q-4 -17 -4 -24q0 -17 10 -23.5t35 -6.5h55l-34 -160h-96q-93 0 -137 28.5t-44 91.5q0 24 6 52l21 99l-139 -68l34 163l133 37l78 365h200l-59 -275l151 75z" />
    <glyph glyph-name="uni013C.ss01.ss08" horiz-adv-x="407" 
d="M247 190q0 -17 10 -23.5t35 -6.5h55l-34 -160h-96q-93 0 -137 28.5t-44 91.5q0 24 6 52l127 596h200l-118 -554q-4 -17 -4 -24zM62 -71q55 0 88.5 -25t33.5 -69q0 -22 -6 -46l-6 -28q-13 -62 -56.5 -88.5t-130.5 -26.5h-52l12 64h58q50 0 70 13t28 52l1 3q-25 -7 -54 -7
q-46 0 -70.5 20t-24.5 56q0 40 28.5 61t80.5 21z" />
    <glyph glyph-name="ldot.ss01.ss08" horiz-adv-x="609" 
d="M313 0h-96q-93 0 -137 28.5t-44 91.5q0 24 6 52l127 596h200l-118 -554q-4 -17 -4 -24q0 -17 10 -23.5t35 -6.5h55zM571 298q-35 -33 -87 -33t-87 33q-34 31 -34 83q0 51 34 84q35 32 87 32t87 -32q34 -33 34 -84q0 -52 -34 -83z" />
    <glyph glyph-name="fi.ss01" horiz-adv-x="842" 
d="M700 823q31 29 78 29t79 -29q30 -30 30 -77q0 -48 -31 -78.5t-78 -30.5q-48 0 -78 30.5t-30 78.5q0 47 30 77zM552 548l-27 -122l-158 6l-1 -46l-83 -386h-200l83 386l18 46l-131 -6l27 122l128 -6v45q15 68 37.5 103.5t70.5 56.5q49 21 131 21h152l-26 -123h-99
q-30 0 -44.5 -12t-20.5 -39l-20 -52zM720 0h-200l116 548h200z" />
    <glyph glyph-name="fl.ss08" horiz-adv-x="922" 
d="M389 542l163 6l-27 -122l-158 6l-1 -46l-83 -386h-200l83 386l18 46l-131 -6l27 122l128 -6v45q15 68 37.5 103.5t70.5 56.5q49 21 131 21h152l-26 -123h-99q-30 0 -44.5 -12t-20.5 -39zM762 190q0 -17 10 -23.5t35 -6.5h55l-34 -160h-96q-93 0 -137 28.5t-44 91.5
q0 24 6 52l127 596h200l-118 -554q-4 -17 -4 -24z" />
    <glyph glyph-name="ordfeminine.ss02" horiz-adv-x="639" 
d="M510 714l22 55h149l-87 -405h-135l-7 51q-66 -63 -161 -63q-85 0 -135 46t-50 126q0 110 75 183q76 74 190 74q99 0 139 -67zM278 556q0 -68 81 -68q69 0 103 39l16 74q-20 50 -90 50q-50 0 -80 -26.5t-30 -68.5z" />
    <glyph glyph-name="t.sups.ss05" horiz-adv-x="453" 
d="M413 762l124 7l-26 -126l-122 6l-61 -285h-165l61 285l-125 -6l27 126l122 -7l28 129h165z" />
    <glyph glyph-name="zero.ss09" horiz-adv-x="1337" 
d="M1172 -88h-962v941h962v-941zM515 200q63 -68 178 -68t177 68t62 192q0 123 -62 191q-61 67 -177 67q-115 0 -178 -67t-63 -191t63 -192zM693 250q-101 0 -101 142q0 141 101 141q100 0 100 -141q0 -69 -26 -105.5t-74 -36.5z" />
    <glyph glyph-name="one.ss09" horiz-adv-x="1337" 
d="M1172 -88h-962v941h962v-941zM647 439v-297h142v498h-142v-15q0 -42 -25 -60t-80 -18h-28v-108h133z" />
    <glyph glyph-name="two.ss09" horiz-adv-x="1337" 
d="M210 -88v941h962v-941h-962zM449 142h476v117h-301q6 26 58 39l85 23q150 39 150 163q0 79 -59 122.5t-163 43.5q-99 0 -158.5 -42.5t-73.5 -121.5l133 -19q16 66 100 66t84 -56q0 -43 -67 -65l-104 -35q-160 -55 -160 -235z" />
    <glyph glyph-name="three.ss09" horiz-adv-x="1337" 
d="M1172 -88h-962v941h962v-941zM684 126q113 0 175.5 42t62.5 117q0 90 -98 120v2q78 33 78 104q0 65 -58.5 102.5t-153.5 37.5q-92 0 -151 -36t-78 -104l130 -19q21 59 92 59q39 0 60.5 -14t21.5 -39q0 -47 -79 -47h-58v-106h63q84 0 84 -51q0 -58 -89 -58q-78 0 -96 68
l-134 -18q30 -160 228 -160z" />
    <glyph glyph-name="four.ss09" horiz-adv-x="1337" 
d="M1172 -88h-962v941h962v-941zM713 256v-114h139v114l84 -12v115l-84 -12v293h-165l-246 -281v-115zM713 347l-137 7l134 150h3v-157z" />
    <glyph glyph-name="five.ss09" horiz-adv-x="1337" 
d="M210 -88v941h962v-941h-962zM688 134q111 0 173 48.5t62 132.5q0 75 -52 116.5t-148 41.5q-69 0 -114 -19l-3 2l17 78h274v107h-371l-56 -258l129 -35q36 24 90 24q94 0 94 -58q0 -30 -26 -46.5t-71 -16.5q-68 0 -97 41l-127 -62q69 -96 226 -96z" />
    <glyph glyph-name="six.ss09" horiz-adv-x="1337" 
d="M1172 -88h-962v941h962v-941zM702 132q106 0 167.5 47.5t61.5 127.5q0 73 -52 115t-146 42q-86 0 -135 -34q4 62 30 88.5t81 26.5q53 0 88 -33l122 45q-69 93 -211 93q-132 0 -193 -73q-62 -74 -62 -191q0 -122 65 -188t184 -66zM702 237q-90 0 -102 89q35 50 103 50
q40 0 64.5 -18.5t24.5 -50.5t-24.5 -51t-65.5 -19z" />
    <glyph glyph-name="seven.ss09" horiz-adv-x="1337" 
d="M1172 -88h-962v941h962v-941zM584 139h141q4 131 51 220q45 86 142 160v118h-444v-117h278q-71 -67 -118 -168q-47 -103 -50 -213z" />
    <glyph glyph-name="eight.ss09" horiz-adv-x="1337" 
d="M1172 -88h-962v941h962v-941zM691 133q111 0 177 39.5t66 112.5q0 46 -25.5 77.5t-72.5 42.5v2q82 27 82 107q0 65 -60 101t-167 36t-165.5 -35.5t-58.5 -101.5q0 -81 80 -107v-2q-45 -10 -71.5 -42.5t-26.5 -77.5q0 -73 65 -112.5t177 -39.5zM691 450q-91 0 -91 49
q0 50 91 50q92 0 92 -50q0 -49 -92 -49zM691 235q-49 0 -76.5 16t-27.5 44q0 58 104 58q105 0 105 -58q0 -28 -27.5 -44t-77.5 -16z" />
    <glyph glyph-name="nine.ss09" horiz-adv-x="1337" 
d="M1172 -88h-962v941h962v-941zM679 132q131 0 193 74q61 73 61 191q0 122 -64.5 187.5t-184.5 65.5q-107 0 -168 -47t-61 -128q0 -72 52.5 -114t145.5 -42q87 0 136 34q-4 -62 -30 -88.5t-81 -26.5t-88 34l-122 -45q69 -95 211 -95zM684 407q-40 0 -65 18.5t-25 49.5
q0 33 24 51.5t66 18.5q92 0 102 -87q-32 -51 -102 -51z" />
    <glyph glyph-name="zero.ss10" horiz-adv-x="1337" 
d="M1172 -88h-962v941h962v-941zM336 735v-705h711v705h-711zM870 200q-62 -68 -177 -68t-178 68t-63 192t63 191t178 67q116 0 177 -67q62 -68 62 -191q0 -124 -62 -192zM693 250q48 0 74 36.5t26 105.5q0 141 -100 141q-101 0 -101 -141q0 -142 101 -142z" />
    <glyph glyph-name="one.ss10" horiz-adv-x="1337" 
d="M1172 -88h-962v941h962v-941zM336 735v-705h711v705h-711zM796 142h-142v297h-133v108h28q55 0 80 18t25 60v15h142v-498z" />
    <glyph glyph-name="two.ss10" horiz-adv-x="1337" 
d="M1172 -88h-962v941h962v-941zM336 735v-705h711v705h-711zM927 142h-476q0 180 160 235l104 35q67 22 67 65q0 56 -84 56t-100 -66l-133 19q14 79 73.5 121.5t158.5 42.5q104 0 163 -43.5t59 -122.5q0 -124 -150 -163l-85 -23q-52 -13 -58 -39h301v-117z" />
    <glyph glyph-name="three.ss10" horiz-adv-x="1337" 
d="M1172 -88h-962v941h962v-941zM336 735v-705h711v705h-711zM686 126q-200 0 -228 160l134 18q10 -37 32.5 -52.5t63.5 -15.5q89 0 89 58q0 51 -85 51h-62v106h57q80 0 80 47q0 25 -21.5 39t-60.5 14q-72 0 -92 -59l-130 19q18 67 77 103.5t151 36.5q95 0 153.5 -37.5
t58.5 -102.5q0 -71 -77 -104v-2q98 -30 98 -120q0 -75 -62.5 -117t-175.5 -42z" />
    <glyph glyph-name="four.ss10" horiz-adv-x="1337" 
d="M1172 -88h-962v941h962v-941zM336 735v-705h711v705h-711zM854 142h-139v113l-272 -11v115l246 281h165v-293l85 12v-115l-85 11v-113zM713 504l-135 -150l137 -7v157h-2z" />
    <glyph glyph-name="five.ss10" horiz-adv-x="1337" 
d="M1172 -88h-962v941h962v-941zM336 735v-705h711v705h-711zM688 134q-160 0 -227 97l129 61q25 -40 96 -40q45 0 71 16t26 46q0 59 -94 59q-55 0 -90 -24l-129 34l56 258h371v-107h-274l-18 -77l3 -2q47 19 115 19q96 0 147.5 -41.5t51.5 -117.5q0 -84 -61.5 -132.5
t-172.5 -48.5z" />
    <glyph glyph-name="six.ss10" horiz-adv-x="1337" 
d="M1172 -88h-962v941h962v-941zM336 735v-705h711v705h-711zM704 127q-119 0 -184 66t-65 188q0 117 62 191q61 73 193 73q142 0 211 -93l-122 -45q-34 33 -88 33q-55 0 -81 -27t-30 -89q49 35 135 35q94 0 146 -42t52 -115q0 -80 -61.5 -127.5t-167.5 -47.5zM704 232
q41 0 65.5 19t24.5 51t-24.5 50.5t-64.5 18.5q-68 0 -103 -50q12 -89 102 -89z" />
    <glyph glyph-name="seven.ss10" horiz-adv-x="1337" 
d="M1172 -88h-962v941h962v-941zM336 735v-705h711v705h-711zM722 133h-141q3 110 50 213q47 102 118 167h-279v118h445v-119q-97 -73 -143 -161t-50 -218z" />
    <glyph glyph-name="eight.ss10" horiz-adv-x="1337" 
d="M1172 -88h-962v941h962v-941zM336 735v-705h711v705h-711zM691 128q-112 0 -177 39.5t-65 112.5q0 45 26.5 77.5t71.5 42.5v2q-80 26 -80 107q0 66 58.5 101.5t165.5 35.5q108 0 167.5 -35.5t59.5 -101.5q0 -79 -82 -107v-2q47 -11 72.5 -42.5t25.5 -77.5
q0 -73 -66 -112.5t-177 -39.5zM691 445q92 0 92 49q0 50 -92 50q-91 0 -91 -50q0 -49 91 -49zM691 230q50 0 77.5 16t27.5 44q0 58 -105 58q-104 0 -104 -58q0 -28 27.5 -44t76.5 -16z" />
    <glyph glyph-name="nine.ss10" horiz-adv-x="1337" 
d="M1172 -88h-962v941h962v-941zM336 735v-705h711v705h-711zM682 129q-141 0 -212 95l122 44q34 -34 89 -34q54 0 80 27t31 89q-49 -34 -137 -34q-93 0 -145 41.5t-52 114.5q0 81 60.5 128t167.5 47q119 0 184 -66t65 -187q0 -56 -13.5 -102t-42.5 -83.5t-79 -58.5
t-118 -21zM686 404q70 0 103 51q-12 87 -102 87q-42 0 -66.5 -18.5t-24.5 -51.5q0 -31 25 -49.5t65 -18.5z" />
    <glyph glyph-name="zero.zero" 
d="M470 784q128 0 199 -77t71 -214q0 -55 -14 -128q-38 -193 -132 -287t-249 -94q-127 0 -197.5 78t-70.5 216q0 63 13 125q40 193 133.5 287t246.5 94zM289 389q-14 -72 -14 -121q0 -7 2 -31l232 362q-19 16 -55 16q-59 0 -99 -52.5t-66 -173.5zM527 379q15 74 15 122
q0 4 -2 34l-234 -365q21 -18 56 -18q61 0 101 53t64 174z" />
    <glyph glyph-name="zero.dnom" horiz-adv-x="551" 
d="M231 -9q-87 0 -137 49.5t-50 135.5q0 28 6 61q44 225 254 225q86 0 136 -49t50 -134q0 -29 -6 -62q-43 -226 -253 -226zM243 98q43 0 73 32.5t42 94.5q5 32 5 46q0 41 -19 62.5t-52 21.5q-91 0 -117 -128q-4 -19 -4 -44q0 -41 19 -63t53 -22z" />
    <glyph glyph-name="one.dnom" horiz-adv-x="345" 
d="M224 0h-129l57 270h-121l20 97h26q96 0 111 72l3 14h129z" />
    <glyph glyph-name="two.dnom" horiz-adv-x="525" 
d="M419 0h-431q20 167 179 214l112 33q75 23 75 63q0 47 -72 47q-76 0 -102 -60l-113 24q53 141 226 141q85 0 135.5 -35t50.5 -98q0 -123 -177 -166l-76 -19q-52 -12 -61 -38h277z" />
    <glyph glyph-name="three.dnom" horiz-adv-x="521" 
d="M209 -16q-93 0 -141.5 37.5t-48.5 107.5l120 17q8 -62 79 -62q42 0 66.5 16t24.5 43q0 40 -68 40h-38l20 97h35q82 0 82 49q0 41 -68 41q-67 0 -93 -53l-114 17q21 60 79.5 94t140.5 34q80 0 130.5 -32.5t50.5 -85.5q0 -37 -24 -65t-67 -39l-1 -2q69 -22 69 -92
q0 -73 -64 -117.5t-170 -44.5z" />
    <glyph glyph-name="four.dnom" horiz-adv-x="512" 
d="M345 0h-126l22 103l-250 -11l22 105l278 256h150l-56 -267l79 10l-22 -104l-75 11zM287 329l-152 -136l124 -7l30 142z" />
    <glyph glyph-name="five.dnom" horiz-adv-x="523" 
d="M212 -8q-135 0 -193 88l113 55q29 -41 87 -41q42 0 70 19t28 47q0 24 -20.5 37t-56.5 13q-51 0 -84 -24l-101 47l91 220h337l-22 -97h-248l-30 -72l2 -1q48 17 102 17q76 0 118 -34t42 -94q0 -80 -65 -130t-170 -50z" />
    <glyph glyph-name="six.dnom" horiz-adv-x="523" 
d="M226 -9q-90 0 -143.5 48t-53.5 137q0 121 77 204q76 82 200 82q125 0 174 -85l-110 -41q-26 33 -77 33q-48 0 -78.5 -27t-48.5 -86q61 39 140 39q71 0 110.5 -33.5t39.5 -91.5q0 -76 -63 -127q-62 -52 -167 -52zM233 83q42 0 68.5 20.5t26.5 53.5q0 53 -70 53
q-62 0 -103 -47q0 -80 78 -80z" />
    <glyph glyph-name="seven.dnom" horiz-adv-x="463" 
d="M200 0h-129q26 102 87 193t140 153h-254l23 107h404l-23 -108q-103 -67 -162 -147.5t-86 -197.5z" />
    <glyph glyph-name="eight.dnom" horiz-adv-x="540" 
d="M221 -9q-93 0 -147.5 33.5t-54.5 90.5q0 46 32.5 81t82.5 42v2q-57 26 -57 82q0 64 63.5 102t168.5 38q88 0 136.5 -29t48.5 -82q0 -39 -26.5 -70t-69.5 -41v-2q69 -19 69 -89q0 -71 -69 -114q-70 -44 -177 -44zM275 279q93 0 93 51q0 39 -75 39q-93 0 -93 -51
q0 -39 75 -39zM233 84q49 0 78 16.5t29 44.5q0 46 -85 46q-50 0 -78.5 -15.5t-28.5 -42.5q0 -49 85 -49z" />
    <glyph glyph-name="nine.dnom" horiz-adv-x="522" 
d="M397 74q-77 -83 -201 -83q-125 0 -174 85l110 41q27 -34 78 -34q92 0 126 114q-62 -39 -140 -39q-71 0 -110.5 33.5t-39.5 91.5q0 75 63 128q63 51 167 51q90 0 143.5 -48t53.5 -137q0 -121 -76 -203zM244 243q61 0 104 46q-2 80 -79 80q-42 0 -68.5 -21t-26.5 -52
q0 -53 70 -53z" />
    <glyph glyph-name="zero.numr" horiz-adv-x="551" 
d="M298 308q-87 0 -136.5 49.5t-49.5 135.5q0 28 6 61q44 225 254 225q86 0 135.5 -49t49.5 -134q0 -29 -6 -62q-43 -226 -253 -226zM311 415q90 0 115 127q4 20 4 46q0 84 -71 84q-92 0 -116 -128q-4 -19 -4 -44q0 -41 19 -63t53 -22z" />
    <glyph glyph-name="one.numr" horiz-adv-x="345" 
d="M291 317h-129l57 270h-121l21 97h25q97 0 112 72l2 14h129z" />
    <glyph glyph-name="two.numr" horiz-adv-x="525" 
d="M487 317h-432q19 166 180 214l111 33q75 22 75 64q0 46 -72 46q-75 0 -101 -60l-114 24q56 141 227 141q84 0 135 -35.5t51 -97.5q0 -60 -46 -102.5t-132 -63.5l-76 -18q-51 -14 -60 -39h276z" />
    <glyph glyph-name="three.numr" horiz-adv-x="521" 
d="M277 302q-93 0 -141.5 37t-49.5 107l121 17q4 -33 22.5 -47.5t55.5 -14.5q43 0 67.5 16t24.5 43q0 40 -69 40h-38l21 97h34q82 0 82 49q0 41 -67 41q-69 0 -93 -53l-115 18q22 60 80.5 93.5t139.5 33.5q80 0 130.5 -32t50.5 -85q0 -37 -24 -65t-66 -40l-1 -2
q69 -23 69 -92q0 -73 -64 -116q-64 -45 -170 -45z" />
    <glyph glyph-name="four.numr" horiz-adv-x="512" 
d="M413 317h-127l23 103l-251 -10l23 104l278 256h150l-57 -267l80 11l-23 -104l-74 10zM354 646l-152 -136l124 -7l30 142z" />
    <glyph glyph-name="five.numr" horiz-adv-x="523" 
d="M279 309q-134 0 -192 88l113 55q26 -41 87 -41q43 0 70 19t27 48q0 49 -77 49q-50 0 -83 -24l-102 47l91 220h337l-21 -97h-249l-30 -72l2 -1q46 18 102 18q76 0 118 -34.5t42 -94.5q0 -80 -65 -130t-170 -50z" />
    <glyph glyph-name="six.numr" horiz-adv-x="523" 
d="M294 308q-91 0 -144.5 48t-53.5 137q0 121 77 204q76 82 201 82q124 0 173 -85l-109 -41q-26 33 -78 33q-93 0 -126 -113q62 39 140 39q70 0 109.5 -33.5t39.5 -91.5q0 -76 -63 -127q-62 -52 -166 -52zM301 401q42 0 68.5 21t26.5 52q0 53 -70 53q-64 0 -104 -46
q0 -80 79 -80z" />
    <glyph glyph-name="seven.numr" horiz-adv-x="463" 
d="M267 317h-129q26 102 87 193t140 153h-253l23 107h404l-24 -108q-101 -67 -160 -147.5t-88 -197.5z" />
    <glyph glyph-name="eight.numr" horiz-adv-x="540" 
d="M289 308q-93 0 -148 33t-55 91q0 46 32.5 81t83.5 42v2q-57 25 -57 82q0 64 63.5 102t167.5 38q89 0 137.5 -29t48.5 -82q0 -39 -26.5 -70t-70.5 -41v-2q69 -18 69 -89q0 -70 -68 -114q-70 -44 -177 -44zM342 596q94 0 94 51q0 40 -75 40q-45 0 -69 -14t-24 -38
q0 -39 74 -39zM300 401q49 0 78 16.5t29 45.5q0 45 -84 45q-50 0 -79 -15.5t-29 -42.5q0 -49 85 -49z" />
    <glyph glyph-name="nine.numr" horiz-adv-x="522" 
d="M466 391q-77 -83 -201 -83q-125 0 -174 85l110 41q25 -33 77 -33q48 0 78.5 27t48.5 86q-62 -39 -140 -39q-71 0 -110.5 33.5t-39.5 91.5q0 76 63 128q63 51 167 51q90 0 143.5 -48t53.5 -137q0 -121 -76 -203zM313 560q62 0 103 47q0 80 -78 80q-42 0 -68.5 -20.5
t-26.5 -53.5q0 -53 70 -53z" />
    <glyph glyph-name="zero.tf" 
d="M344 -16q-127 0 -197.5 78t-70.5 216q0 63 13 125q40 193 133.5 287t246.5 94q128 0 199 -77t71 -214q0 -55 -14 -128q-38 -193 -132 -287t-249 -94zM361 152q61 0 101 53t64 174q15 74 15 122q0 114 -88 114q-59 0 -99 -52.5t-66 -173.5q-14 -72 -14 -121
q0 -116 87 -116z" />
    <glyph glyph-name="one.tf" 
d="M622 768l-127 -595h170l-38 -173h-538l37 173h169l64 302h-168l28 129h8q83 0 138 32q53 31 94 123l4 9h159z" />
    <glyph glyph-name="two.tf" 
d="M654 0h-653q25 120 99 203q75 83 242 164l83 40q66 32 92.5 61.5t26.5 69.5q0 36 -23.5 56t-66.5 20q-97 0 -133 -112l-2 -7h-195l3 7q46 145 131.5 213.5t224.5 68.5q123 0 199 -60t76 -158q0 -88 -48 -156q-23 -31 -61 -58q-38 -28 -75 -49q-41 -23 -94 -49l-82 -41
q-39 -20 -50 -40h342z" />
    <glyph glyph-name="three.tf" 
d="M353 -16q-138 0 -218 67q-82 66 -82 182q0 22 1 29l202 15q-1 -5 -1 -20q0 -102 108 -102q58 0 91 28.5t33 77.5q0 34 -24 53t-67 19h-63l29 138h63q58 0 91.5 21.5t33.5 60.5q0 65 -90 65q-101 0 -135 -88l-188 19q39 114 127.5 174.5t219.5 60.5q120 0 194 -51
q74 -53 74 -142q0 -147 -156 -186l-1 -4q50 -16 78.5 -55.5t28.5 -93.5q0 -132 -95 -200t-254 -68z" />
    <glyph glyph-name="four.tf" 
d="M709 769l-98 -458l107 15l-34 -161l-100 15l-39 -180h-185l39 180l-360 -15l38 179l412 425h220zM247 321l180 -10l54 250h-4z" />
    <glyph glyph-name="five.tf" 
d="M341 -9q-131 0 -210 61q-80 60 -80 173l203 14q3 -38 29.5 -59t72.5 -21q65 0 105.5 38.5t40.5 98.5q0 39 -25.5 61t-73.5 22q-71 0 -115 -50l-187 19l158 420h515l-36 -171h-348l-47 -120l3 -2q67 46 153 46q97 0 153.5 -56t56.5 -150q0 -153 -100 -238
q-101 -86 -268 -86z" />
    <glyph glyph-name="six.tf" 
d="M482 520q100 0 160 -60q60 -62 60 -158q0 -147 -91 -232q-92 -86 -245 -86q-138 0 -211 82q-74 83 -74 217q0 45 11 108q73 393 397 393q113 0 183 -52t79 -139l-182 -21q-14 56 -95 56q-62 0 -103.5 -41t-67.5 -136q73 69 179 69zM376 155q59 0 93 37t34 96
q0 41 -21.5 64.5t-62.5 23.5q-49 0 -89 -28.5t-53 -72.5q-1 -5 -1 -21q0 -46 27 -72.5t73 -26.5z" />
    <glyph glyph-name="seven.tf" 
d="M395 0h-228q73 326 354 587h-373l38 181h606l-36 -171q-137 -113 -229.5 -266t-131.5 -331z" />
    <glyph glyph-name="eight.tf" 
d="M348 -16q-138 0 -223 62q-85 61 -85 160q0 88 52 141t149 67l1 3q-96 37 -96 137q0 113 91 171q91 59 235 59q130 0 207 -53q76 -54 76 -142q0 -145 -166 -182l-1 -3q60 -15 92 -54.5t32 -97.5q0 -131 -102 -199q-104 -69 -262 -69zM434 464q57 0 92 28.5t35 75.5
q0 72 -98 72q-62 0 -97 -27t-35 -76q0 -73 103 -73zM359 140q65 0 105.5 32.5t40.5 86.5q0 36 -29 56.5t-83 20.5q-65 0 -103.5 -31.5t-38.5 -85.5q0 -79 108 -79z" />
    <glyph glyph-name="nine.tf" 
d="M453 784q138 0 211 -82q74 -83 74 -217q0 -45 -11 -108q-37 -196 -134.5 -294.5t-263.5 -98.5q-113 0 -182.5 52t-79.5 139l182 21q14 -56 96 -56q62 0 103 41t67 135q-74 -68 -178 -68q-100 0 -160 61q-61 60 -61 157q0 147 92 233q91 85 245 85zM399 392
q49 0 89.5 28.5t53.5 72.5q1 5 1 21q0 46 -27 72.5t-74 26.5q-59 0 -92.5 -37t-33.5 -96q0 -41 21 -64.5t62 -23.5z" />
    <glyph glyph-name="zero.tf.zero" 
d="M469 784q128 0 199 -77t71 -214q0 -55 -14 -128q-38 -193 -132 -287t-249 -94q-127 0 -197.5 78t-70.5 216q0 63 13 125q40 194 132.5 287.5t247.5 93.5zM288 389q-14 -72 -14 -121q0 -7 2 -31l232 362q-19 16 -55 16q-59 0 -99 -52.5t-66 -173.5zM526 379q15 74 15 122
q0 4 -2 34l-234 -365q21 -18 56 -18q61 0 101 53t64 174z" />
    <glyph glyph-name="period.ss01" horiz-adv-x="376" 
d="M239 16q-35 -33 -88 -33t-87 33t-34 84t34 84t87 33t88 -33q34 -33 34 -84t-34 -84z" />
    <glyph glyph-name="comma.ss01" horiz-adv-x="382" 
d="M155 216q57 0 88 -33.5t31 -92.5q0 -22 -11 -77l-9 -42q-42 -192 -222 -192h-41l20 92h32q88 0 105 77l8 35h-9q-54 0 -86.5 28.5t-32.5 78.5q0 56 34 91t93 35z" />
    <glyph glyph-name="colon.ss01" horiz-adv-x="354" 
d="M312 362q-34 -33 -87 -33t-87 33t-34 84t34 84t87 33t87 -33t34 -84t-34 -84zM239 16q-35 -33 -88 -33t-87 33t-34 84t34 84t87 33t88 -33q34 -33 34 -84t-34 -84z" />
    <glyph glyph-name="semicolon.ss01" horiz-adv-x="354" 
d="M137 530q35 33 87 33t87 -33q34 -33 34 -84t-34 -84q-35 -33 -87 -33t-87 33q-34 33 -34 84t34 84zM155 216q57 0 88 -33.5t31 -92.5q0 -22 -11 -77l-9 -42q-42 -192 -222 -192h-41l20 92h32q88 0 105 77l8 35h-9q-54 0 -86.5 28.5t-32.5 78.5q0 56 34 91t93 35z" />
    <glyph glyph-name="ellipsis.ss01" horiz-adv-x="1127" 
d="M239 16q-35 -33 -88 -33t-87 33t-34 84t34 84t87 33t88 -33q34 -33 34 -84t-34 -84zM614 16q-34 -33 -87 -33t-87 33q-35 33 -35 84t35 84q34 33 87 33t87 -33t34 -84t-34 -84zM990 16q-34 -33 -88 -33q-52 0 -87 33q-34 33 -34 84t34 84q35 33 87 33q54 0 88 -33t34 -84
t-34 -84z" />
    <glyph glyph-name="exclam.ss01" horiz-adv-x="344" 
d="M199 271h-98l11 283l45 214h196l-44 -214zM112 -17q-49 0 -80 30t-31 77t31 76.5t80 29.5q48 0 79.5 -30t31.5 -76q0 -47 -31.5 -77t-79.5 -30z" />
    <glyph glyph-name="exclamdown.ss01" horiz-adv-x="344" 
d="M270 383q-32 -30 -80 -30q-47 0 -79 30q-32 29 -32 76q0 46 31.5 76t79.5 30t79.5 -30t31.5 -76q0 -48 -31 -76zM146 -204h-196l45 214l106 267h99l-8 -267z" />
    <glyph glyph-name="question.ss01" horiz-adv-x="760" 
d="M449 262h-200l6 27q15 78 57.5 124.5t127.5 72.5q58 17 80.5 33.5t22.5 41.5q0 57 -102 57q-54 0 -84 -16.5t-43 -54.5l-198 28q64 210 345 210q141 0 218 -52t77 -145q0 -141 -181 -214l-40 -16q-40 -16 -58.5 -33.5t-24.5 -46.5zM395 13q-31 -30 -80 -30q-47 0 -79 30
t-32 77q0 46 31.5 76t79.5 30t79.5 -30t31.5 -76q0 -47 -31 -77z" />
    <glyph glyph-name="questiondown.ss01" horiz-adv-x="760" 
d="M517 383q-31 -30 -80 -30q-47 0 -79 30q-32 29 -32 76q0 46 31.5 76t79.5 30t79.5 -30t31.5 -76q0 -48 -31 -76zM301 -227q-141 0 -218 52t-77 145q0 141 181 213l40 17q41 16 59 33.5t24 46.5l3 16h200l-6 -27q-15 -78 -57.5 -124.5t-127.5 -72.5q-58 -18 -80.5 -34.5
t-22.5 -41.5q0 -56 102 -56q54 0 84 16.5t43 54.5l198 -29q-65 -209 -345 -209z" />
    <glyph glyph-name="periodcentered.ss01" horiz-adv-x="375" 
d="M297 293q-35 -33 -88 -33t-87 33t-34 84q0 50 34.5 83t86.5 33q53 0 87.5 -33t34.5 -83q0 -51 -34 -84z" />
    <glyph glyph-name="bullet.ss01" horiz-adv-x="557" 
d="M434 149q-58 -57 -151 -57t-151 57q-60 55 -60 144t60 146q59 57 151 57q93 0 151 -57q59 -57 59 -146q0 -88 -59 -144z" />
    <glyph glyph-name="uni203D.ss01" horiz-adv-x="810" 
d="M478 784q158 0 242.5 -53.5t84.5 -152.5q0 -141 -182 -210l-37 -14q-73 -29 -101 -48q-29 -21 -44 -56h-100l15 182l25 116h148l-24 -112h1l2 1q90 37 90 104q0 43 -34.5 62.5t-108.5 19.5q-71 0 -104.5 -20t-44.5 -69l-193 23q54 227 365 227zM277 166q31 30 79 30
t80 -30q31 -30 31 -76q0 -47 -31.5 -77t-79.5 -30t-79.5 30t-31.5 77q0 46 32 76z" />
    <glyph glyph-name="uni2E18.ss01" horiz-adv-x="810" 
d="M527 383q-31 -30 -80 -30q-47 0 -79 30q-32 29 -32 76q0 46 31.5 76t79.5 30t79.5 -30t31.5 -76q0 -48 -31 -76zM506 24l194 -23q-56 -227 -366 -227q-158 0 -242 53.5t-84 152.5q0 143 181 210l37 14q75 29 102 49q29 20 44 55h100l-16 -182l-24 -116h-148l23 112
q-1 0 -1 -0.5t-1 -0.5q-90 -37 -90 -104q0 -43 34.5 -62.5t108.5 -19.5q71 0 104 20t44 69z" />
    <glyph glyph-name="period.tf.ss01" 
d="M435 16q-35 -33 -87 -33t-87 33t-35 84t35 84t87 33t87 -33q34 -33 34 -84t-34 -84z" />
    <glyph glyph-name="comma.tf.ss01" 
d="M349 216q57 0 87.5 -33.5t30.5 -92.5q0 -22 -11 -77l-9 -42q-41 -192 -221 -192h-41l19 92h33q88 0 105 77l7 35h-8q-55 0 -87.5 28.5t-32.5 78.5q0 55 34.5 90.5t93.5 35.5z" />
    <glyph glyph-name="colon.tf.ss01" 
d="M509 362q-35 -33 -87 -33t-87 33t-35 84t35 84t87 33t87 -33q34 -33 34 -84t-34 -84zM435 16q-35 -33 -87 -33t-87 33t-35 84t35 84t87 33t87 -33q34 -33 34 -84t-34 -84z" />
    <glyph glyph-name="semicolon.tf.ss01" 
d="M331 530q35 33 87 33t87 -33q34 -33 34 -84t-34 -84q-35 -33 -87 -33t-87 33t-35 84t35 84zM349 216q57 0 87.5 -33.5t30.5 -92.5q0 -22 -11 -77l-9 -42q-41 -192 -221 -192h-41l19 92h33q88 0 105 77l7 35h-8q-55 0 -87.5 28.5t-32.5 78.5q0 55 34.5 90.5t93.5 35.5z
" />
    <glyph glyph-name="period.tf" 
d="M440 0h-227l42 203h228z" />
    <glyph glyph-name="comma.tf" 
d="M193 -221h-27l19 92h46q86 0 99 73l21 100l-137 -30l40 188h228l-48 -234q-23 -110 -73 -150q-51 -39 -168 -39z" />
    <glyph glyph-name="colon.tf" 
d="M509 323h-227l42 203h228zM440 0h-227l42 203h228z" />
    <glyph glyph-name="semicolon.tf" 
d="M508 323h-228l43 203h228zM193 -221h-27l19 92h46q86 0 99 73l21 100l-137 -30l40 188h228l-48 -234q-23 -110 -73 -150q-51 -39 -168 -39z" />
    <glyph glyph-name="parenleft.case" horiz-adv-x="380" 
d="M285 -35h-181q-54 123 -54 264q0 77 17 159q50 229 215 414h181q-149 -201 -195 -418q-19 -89 -19 -179q0 -129 36 -240z" />
    <glyph glyph-name="parenright.case" horiz-adv-x="380" 
d="M144 -35h-181q147 195 196 418q19 89 19 179q0 128 -37 240h181q54 -123 54 -264q0 -77 -17 -159q-50 -229 -215 -414z" />
    <glyph glyph-name="braceleft.case" horiz-adv-x="477" 
d="M366 -34h-116q-128 0 -128 90q0 19 7 51l18 82q7 32 7 48q0 33 -23 47.5t-80 16.5l35 166q73 0 102 23q28 22 39 78l22 103q13 67 55.5 99.5t123.5 32.5h116l-35 -166h-31q-31 0 -46 -11t-21 -40l-10 -47q-28 -135 -191 -155v-1q131 -17 131 -110q0 -15 -5 -37l-8 -40
q-5 -27 -5 -33q0 -32 49 -32h29z" />
    <glyph glyph-name="braceright.case" horiz-adv-x="476" 
d="M95 -34h-117l36 166h31q31 0 46 11t21 40l10 46q28 136 191 156v1q-131 17 -131 110q0 18 4 37l9 40q5 27 5 33q0 32 -49 32h-29l34 165h117q128 0 128 -90q0 -18 -7 -52l-18 -81q-7 -32 -7 -48q0 -33 23 -47.5t80 -16.5l-35 -166q-71 0 -100.5 -22.5t-41.5 -79.5
l-21 -102q-15 -67 -57 -99.5t-122 -32.5z" />
    <glyph glyph-name="bracketleft.case" horiz-adv-x="471" 
d="M361 -35h-340l178 837h340l-35 -165h-150l-108 -506h150z" />
    <glyph glyph-name="bracketright.case" horiz-adv-x="470" 
d="M317 -35h-340l36 166h150l108 506h-150l34 165h340z" />
    <glyph glyph-name="hyphen.case" horiz-adv-x="451" 
d="M388 310h-308l33 156h308z" />
    <glyph glyph-name="endash.case" horiz-adv-x="564" 
d="M540 309h-500l33 157h500z" />
    </font>
</defs>
</svg>
