<?xml version="1.0" standalone="no"?>
<!DOCTYPE svg PUBLIC "-//W3C//DTD SVG 1.1//EN" "http://www.w3.org/Graphics/SVG/1.1/DTD/svg11.dtd" >
<svg xmlns="http://www.w3.org/2000/svg" xmlns:xlink="http://www.w3.org/1999/xlink" version="1.1">
<metadata>
Created by FontForge 20190801 at Sun Apr 14 18:27:42 2019
 By www-data
Copyright (c) 2019 Monotype Imaging Inc. All rights reserved.
</metadata>
<defs>
<font id="HelveticaNowMicroRegIta" horiz-adv-x="0" >
  <font-face 
    font-family="HelveticaNowMicroRegIta"
    font-weight="400"
    font-style="italic"
    font-stretch="normal"
    units-per-em="1000"
    panose-1="2 11 5 4 3 2 2 9 2 4"
    ascent="875"
    descent="-125"
    x-height="548"
    cap-height="768"
    bbox="-411 -360 1858 1109"
    underline-thickness="50"
    underline-position="-300"
    slope="-12"
    unicode-range="U+000D-FEFF"
  />
<missing-glyph horiz-adv-x="1026" 
d="M850 0h-627v768h627v-768zM326 681v-594h421v594h-421z" />
    <glyph glyph-name="fi" unicode="fi" horiz-adv-x="795" 
d="M672 667l26 122h100l-26 -122h-100zM327 617l-24 -77l195 8l-16 -78l-191 8l-6 -58l-90 -420h-100l90 422l19 56l-133 -8l16 78l131 -8l8 71q19 87 58 122t119 35h145l-16 -75h-122q-38 0 -56.5 -17t-26.5 -59zM630 0h-100l117 548h100z" />
    <glyph glyph-name="fl" unicode="fl" horiz-adv-x="796" 
d="M327 617l-24 -77l195 8l-16 -78l-191 8l-6 -58l-90 -420h-100l90 422l19 56l-133 -8l16 78l131 -8l8 71q19 87 58 122t119 35h145l-16 -75h-122q-38 0 -56.5 -17t-26.5 -59zM531 0l164 768h100l-164 -768h-100z" />
    <glyph glyph-name=".notdef" horiz-adv-x="1026" 
d="M850 0h-627v768h627v-768zM326 681v-594h421v594h-421z" />
    <glyph glyph-name=".null" 
 />
    <glyph glyph-name="nonmarkingreturn" horiz-adv-x="333" 
 />
    <glyph glyph-name="NULL" 
 />
    <glyph glyph-name="NULL" 
 />
    <glyph glyph-name="CR" unicode="&#xd;" horiz-adv-x="320" 
 />
    <glyph glyph-name="space" unicode=" " horiz-adv-x="320" 
 />
    <glyph glyph-name="exclam" unicode="!" horiz-adv-x="351" 
d="M185 195h-51l45 328l52 245h101l-53 -245zM174 0h-114l25 115h114z" />
    <glyph glyph-name="quotedbl" unicode="&#x22;" horiz-adv-x="530" 
d="M232 428h-92l72 340h93zM455 428h-92l73 340h92z" />
    <glyph glyph-name="numbersign" unicode="#" horiz-adv-x="734" 
d="M735 554l-15 -69l-128 4l-74 -209l117 4l-15 -69l-124 4l-77 -219h-75l78 220h-178l-78 -220h-74l77 219l-123 -4l15 69l130 -4l73 209l-119 -4l15 69l126 -4l77 218h74l-77 -219h178l77 219h75l-77 -218zM339 490l-75 -211h178l75 211h-178z" />
    <glyph glyph-name="dollar" unicode="$" horiz-adv-x="716" 
d="M692 581v-9l-94 -9v6q0 115 -152 115q-181 0 -181 -135q0 -40 26 -64.5t85 -37.5l86 -18q171 -37 171 -183q0 -116 -80 -178q-79 -61 -211 -66l-31 -146h-84l32 149q-93 13 -146.5 67.5t-53.5 141.5v9l97 9v-9q0 -139 167 -139q90 0 149 36q59 35 59 109q0 47 -28 73.5
t-91 40.5l-85 19q-78 17 -120.5 63t-42.5 112q0 105 68 163.5t188 65.5l31 146h84l-31 -148q91 -10 139.5 -58t48.5 -125z" />
    <glyph glyph-name="percent" unicode="%" horiz-adv-x="1448" 
d="M356 336q-84 0 -131.5 48.5t-47.5 133.5q0 30 6 63q20 107 83 165t155 58q84 0 131 -48t47 -132q0 -31 -6 -64q-20 -109 -82.5 -166.5t-154.5 -57.5zM463 -15h-95l653 798h93zM360 402q58 0 97.5 36t54.5 106q10 40 10 80q0 56 -28 86t-77 30q-62 0 -103.5 -44
t-54.5 -126q-5 -35 -5 -51q0 -57 27.5 -87t78.5 -30zM1080 -8q-84 0 -131 48.5t-47 133.5q0 30 6 63q20 107 83 165t155 58q84 0 131 -48t47 -132q0 -31 -6 -64q-20 -109 -82.5 -166.5t-155.5 -57.5zM1085 58q58 0 97.5 36t54.5 106q10 40 10 80q0 56 -28 86t-78 30
q-61 0 -102.5 -44t-54.5 -126q-5 -35 -5 -51q0 -57 27.5 -87t78.5 -30z" />
    <glyph glyph-name="ampersand" unicode="&#x26;" horiz-adv-x="894" 
d="M668 170l131 -170h-126l-74 98q-118 -115 -276 -115q-108 0 -170.5 51.5t-62.5 141.5q0 93 68.5 161t188.5 94l-6 8q-64 83 -64 156q0 83 69 142q68 59 175 59q89 0 144 -44.5t55 -118.5q0 -149 -237 -222l148 -192q43 74 65 136l91 -12q-44 -106 -119 -173zM516 715
q-61 0 -100.5 -34t-39.5 -86q0 -45 41 -98l26 -33q84 25 132 68.5t48 95.5q0 41 -29.5 64t-77.5 23zM347 66q117 0 215 81l-177 234q-92 -30 -142.5 -79.5t-50.5 -114.5q0 -59 40 -90t115 -31z" />
    <glyph glyph-name="quotesingle" unicode="'" horiz-adv-x="306" 
d="M232 428h-92l72 340h92z" />
    <glyph glyph-name="parenleft" unicode="(" horiz-adv-x="395" 
d="M234 -204h-80q-74 183 -74 351q0 77 15 159q56 287 258 497h95q-207 -260 -255 -508q-16 -81 -16 -166q0 -139 57 -333z" />
    <glyph glyph-name="parenright" unicode=")" horiz-adv-x="394" 
d="M52 -204h-95q207 260 255 508q16 81 16 166q0 140 -57 333h80q74 -178 74 -351q0 -76 -15 -159q-55 -288 -258 -497z" />
    <glyph glyph-name="asterisk" unicode="*" horiz-adv-x="740" 
d="M412 456l-159 -187l-71 54l178 167l-194 60l43 83l185 -86l34 221h89l-61 -224l220 89l15 -88l-228 -58l107 -166l-79 -52z" />
    <glyph glyph-name="plus" unicode="+" horiz-adv-x="751" 
d="M417 382h234v-84h-234v-233h-85v233h-233v84h233v234h85v-234z" />
    <glyph glyph-name="comma" unicode="," horiz-adv-x="371" 
d="M24 -190h-15l14 63h14q77 0 94 77l16 76l-98 -25l29 135h156l-37 -175q-17 -81 -56.5 -116t-116.5 -35z" />
    <glyph glyph-name="hyphen" unicode="-" horiz-adv-x="397" 
d="M339 250h-291l18 81h290z" />
    <glyph glyph-name="period" unicode="." horiz-adv-x="360" 
d="M195 0h-146l29 136h146z" />
    <glyph glyph-name="slash" unicode="/" horiz-adv-x="535" 
d="M88 0h-111l483 768h111z" />
    <glyph glyph-name="zero" unicode="0" horiz-adv-x="751" 
d="M327 -16q-112 0 -173 68.5t-61 197.5q0 68 16 145q40 197 129 292.5t233 95.5q114 0 175 -69t61 -198q0 -69 -16 -143q-40 -197 -130 -293t-234 -96zM334 71q194 0 258 313q16 80 16 136q0 177 -145 177q-194 0 -255 -313q-16 -80 -16 -136q0 -177 142 -177z" />
    <glyph glyph-name="one" unicode="1" horiz-adv-x="532" 
d="M300 0h-103l116 544h-198l16 73h19q104 0 156 37q40 27 71 102l5 12h82z" />
    <glyph glyph-name="two" unicode="2" horiz-adv-x="751" 
d="M599 0h-558q20 100 80 171t174 130l141 74q87 45 125.5 89.5t38.5 110.5q0 55 -35.5 86t-98.5 31q-78 0 -129.5 -40t-66.5 -115l-3 -14h-100l3 15q25 121 103 183t203 62q103 0 164 -54t61 -145q0 -100 -57 -165q-59 -65 -180 -128l-82 -43q-99 -52 -136 -82
q-41 -32 -55 -74h428z" />
    <glyph glyph-name="three" unicode="3" horiz-adv-x="751" 
d="M334 -14q-115 0 -181 57.5t-66 157.5q0 19 1 24l99 9q-1 -5 -1 -22q0 -67 40.5 -103t117.5 -36q88 0 144 51q55 49 55 130q0 54 -36.5 82.5t-106.5 28.5h-72l18 85h72q79 0 126.5 39.5t47.5 107.5q0 49 -35 76t-97 27q-149 0 -199 -146l-97 11q33 108 110 164.5t193 56.5
q104 0 164.5 -50t60.5 -130q0 -152 -163 -197v-2q115 -34 115 -148q0 -126 -83 -200q-83 -73 -227 -73z" />
    <glyph glyph-name="four" unicode="4" horiz-adv-x="751" 
d="M662 768l-108 -507l120 10l-17 -82l-117 11l-42 -200h-95l42 200l-387 -11l16 73l459 506h129zM187 270l271 -9l86 398h-2z" />
    <glyph glyph-name="five" unicode="5" horiz-adv-x="751" 
d="M324 -15q-112 0 -177 59t-65 153l105 11q1 -68 39.5 -102t106.5 -34q95 0 155 65q59 65 59 158q0 61 -36.5 94t-106.5 33q-84 0 -163 -62l-100 14l153 394h431l-20 -96h-347l-85 -213l2 -2q73 49 155 49q105 0 162.5 -55.5t57.5 -149.5q0 -139 -90 -228q-91 -88 -236 -88
z" />
    <glyph glyph-name="six" unicode="6" horiz-adv-x="751" 
d="M442 496q97 0 154 -55t57 -148q0 -136 -85 -222q-86 -87 -219 -87q-118 0 -183.5 69.5t-65.5 190.5q0 59 16 129q39 178 118 289q87 121 260 121q100 0 158.5 -44.5t63.5 -123.5l-95 -12q-4 46 -38 71.5t-97 25.5q-99 0 -164 -73t-103 -233q84 102 223 102zM352 70
q90 0 145 61t55 151q0 63 -34 97t-98 34q-71 0 -130 -39.5t-91 -113.5q-2 -22 -2 -33q0 -74 41.5 -115.5t113.5 -41.5z" />
    <glyph glyph-name="seven" unicode="7" horiz-adv-x="751" 
d="M284 0h-107q132 403 418 671h-413l22 97h556l-17 -75q-329 -277 -459 -693z" />
    <glyph glyph-name="eight" unicode="8" horiz-adv-x="751" 
d="M325 -16q-107 0 -179 54q-72 52 -72 146q0 87 56 152t143 86v2q-94 40 -94 138q0 105 81 165q82 59 213 59q106 0 168 -47.5t62 -130.5q0 -67 -42.5 -117.5t-119.5 -77.5v-2q54 -18 84 -58.5t30 -97.5q0 -124 -94 -197q-95 -74 -236 -74zM415 455q82 0 135 40
q54 41 54 106q0 49 -36 74.5t-102 25.5q-85 0 -137 -39.5t-52 -105.5q0 -49 35.5 -75t102.5 -26zM331 70q95 0 159 51q63 49 63 131q0 56 -41.5 88t-116.5 32q-98 0 -157 -49q-61 -49 -61 -133q0 -57 39.5 -88.5t114.5 -31.5z" />
    <glyph glyph-name="nine" unicode="9" horiz-adv-x="751" 
d="M449 784q118 0 183.5 -69.5t65.5 -190.5q0 -59 -16 -129q-31 -145 -86 -241q-32 -56 -70 -90q-86 -79 -221 -79q-101 0 -159.5 44.5t-62.5 123.5l95 12q9 -97 134 -97q99 0 165 73t103 235q-84 -104 -224 -104q-96 0 -153 55t-57 148q0 136 85 222q84 87 218 87zM599 508
q2 22 2 33q0 74 -41 115.5t-113 41.5q-91 0 -146 -61t-55 -151q0 -63 34.5 -97t98.5 -34q70 0 129 39.5t91 113.5z" />
    <glyph glyph-name="colon" unicode=":" horiz-adv-x="360" 
d="M277 385h-146l29 136h146zM195 0h-146l29 136h146z" />
    <glyph glyph-name="semicolon" unicode=";" horiz-adv-x="371" 
d="M277 385h-146l29 136h146zM24 -190h-15l14 63h14q77 0 94 77l16 76l-98 -25l29 135h156l-37 -175q-17 -81 -56.5 -116t-116.5 -35z" />
    <glyph glyph-name="less" unicode="&#x3c;" horiz-adv-x="751" 
d="M102 386l547 206v-95l-455 -164l455 -163v-95l-547 205v106z" />
    <glyph glyph-name="equal" unicode="=" horiz-adv-x="751" 
d="M642 409h-533v94h533v-94zM642 176h-533v94h533v-94z" />
    <glyph glyph-name="greater" unicode="&#x3e;" horiz-adv-x="751" 
d="M102 497v95l547 -206v-106l-547 -205v95l454 163z" />
    <glyph glyph-name="question" unicode="?" horiz-adv-x="724" 
d="M380 194h-101l8 40q15 68 54 112.5t121 82.5q72 36 102 69.5t30 78.5q0 57 -41.5 87t-117.5 30q-86 0 -136.5 -38.5t-71.5 -119.5l-97 16q58 228 307 228q121 0 191 -51t70 -142q0 -128 -152 -208l-64 -34q-45 -23 -65.5 -49.5t-30.5 -74.5zM348 0h-117l24 114h117z" />
    <glyph glyph-name="at" unicode="@" horiz-adv-x="1169" 
d="M654 743q215 0 330 -124q116 -125 72 -323q-24 -107 -86 -179q-63 -71 -154 -71q-50 0 -85 21.5t-47 61.5q-63 -81 -160 -81q-88 0 -132 69q-44 68 -20 177q21 100 85 158t151 58q90 0 127 -69l16 57h84l-57 -269q-24 -112 50 -112q47 0 86.5 50.5t57.5 131.5
q36 163 -51 264t-272 101q-173 0 -286 -93q-114 -94 -148 -256q-40 -187 53 -301q91 -115 269 -115q103 0 208 37l-16 -83q-99 -31 -206 -31q-216 0 -328 142q-113 143 -67 359q40 195 181 308q139 112 345 112zM547 122q48 0 85.5 30.5t58.5 87.5l17 79q3 55 -22 86t-73 31
q-58 0 -98 -38.5t-56 -110.5q-16 -75 7 -119.5t81 -45.5z" />
    <glyph glyph-name="A" unicode="A" horiz-adv-x="764" 
d="M676 0h-102l-30 197h-360l-111 -197h-111l444 768h144zM446 661l-214 -379h299l-57 379l-5 45z" />
    <glyph glyph-name="B" unicode="B" horiz-adv-x="808" 
d="M587 401q59 -13 92.5 -55.5t33.5 -102.5q0 -113 -81 -178q-82 -65 -213 -65h-359l164 768h321q102 0 158.5 -44.5t56.5 -120.5q0 -74 -47.5 -129t-125.5 -73zM516 686h-209l-52 -246h211q86 0 136 40.5t50 111.5q0 94 -136 94zM179 82h250q80 0 130 47t50 118
q0 55 -37 83t-104 28h-231z" />
    <glyph glyph-name="C" unicode="C" horiz-adv-x="851" 
d="M409 -18q-141 0 -223 84q-82 83 -82 227q0 61 13 119q37 176 155 276q116 98 276 98q121 0 196 -57t96 -165l-98 -11q-13 70 -65.5 108t-135.5 38q-121 0 -209 -79q-90 -79 -120 -230q-10 -49 -10 -96q0 -107 56 -164t159 -57q185 0 269 171l94 -11q-50 -120 -148 -185
q-99 -66 -223 -66z" />
    <glyph glyph-name="D" unicode="D" horiz-adv-x="834" 
d="M224 769h244q157 0 238.5 -71t81.5 -209q0 -43 -12 -117q-74 -372 -435 -372h-281zM676 383q12 60 12 107q0 104 -57 149.5t-169 45.5h-153l-128 -602h162q118 0 203 60q94 67 130 240z" />
    <glyph glyph-name="E" unicode="E" horiz-adv-x="718" 
d="M753 768l-18 -83h-429l-53 -248h397l-19 -83h-395l-58 -271h435l-18 -83h-535l164 768h529z" />
    <glyph glyph-name="F" unicode="F" horiz-adv-x="678" 
d="M729 768l-19 -83h-404l-53 -249h371l-17 -81h-371l-76 -355h-100l164 768h505z" />
    <glyph glyph-name="G" unicode="G" horiz-adv-x="898" 
d="M691 317h-220l17 81h319l-85 -398h-77l7 97q-100 -114 -260 -114q-135 0 -212 83t-77 221q0 53 11 108q39 186 150 288t288 102q114 0 187 -59t92 -165l-101 -13q-34 154 -191 154q-120 0 -207 -84t-117 -233q-10 -47 -10 -96q0 -105 53.5 -163.5t147.5 -58.5
q87 0 155.5 40.5t110.5 118.5z" />
    <glyph glyph-name="H" unicode="H" horiz-adv-x="864" 
d="M678 441l70 327h103l-164 -768h-103l76 354h-421l-76 -354h-103l164 768h103l-70 -327h421z" />
    <glyph glyph-name="I" unicode="I" horiz-adv-x="339" 
d="M163 0h-103l164 768h103z" />
    <glyph glyph-name="J" unicode="J" horiz-adv-x="673" 
d="M259 -13q-97 0 -156.5 49.5t-59.5 132.5q0 35 14 88h101q-13 -49 -13 -82q0 -104 119 -104q145 0 178 154l116 543h102l-116 -543q-24 -113 -97 -175.5t-188 -62.5z" />
    <glyph glyph-name="K" unicode="K" horiz-adv-x="750" 
d="M672 769h134l-360 -334l227 -435h-110l-195 374l-155 -138l-50 -236h-103l164 769h103l-87 -407z" />
    <glyph glyph-name="L" unicode="L" horiz-adv-x="669" 
d="M325 768l-146 -685h401l-19 -83h-501l164 768h101z" />
    <glyph glyph-name="M" unicode="M" horiz-adv-x="1067" 
d="M549 213l346 555h159l-164 -768h-97l132 617l15 71l-43 -71l-385 -617h-77l-121 617l-14 72l-15 -72l-131 -617h-94l164 768h147l107 -555l15 -97z" />
    <glyph glyph-name="N" unicode="N" horiz-adv-x="868" 
d="M623 128l135 641h97l-164 -769h-108l-290 640l-136 -640h-97l164 769h109z" />
    <glyph glyph-name="O" unicode="O" horiz-adv-x="925" 
d="M422 -17q-148 0 -232 86q-85 85 -85 229q0 54 10 101q34 173 151 281q115 106 281 106q149 0 235 -86q85 -86 85 -230q0 -51 -11 -101q-35 -176 -150 -281q-116 -105 -284 -105zM429 66q129 0 215 87q86 85 114 231q9 45 9 84q0 109 -60 171.5t-167 62.5q-128 0 -212 -86
q-84 -87 -114 -232q-9 -45 -9 -84q0 -109 59 -171.5t165 -62.5z" />
    <glyph glyph-name="P" unicode="P" horiz-adv-x="733" 
d="M224 768h271q109 0 166 -50.5t57 -139.5q0 -125 -78 -200q-77 -76 -206 -76h-207l-64 -302h-103zM245 384h191q82 0 130 52.5t48 137.5q0 111 -128 111h-177z" />
    <glyph glyph-name="Q" unicode="Q" horiz-adv-x="962" 
d="M856 369q-37 -186 -160 -289l109 -123l-70 -53l-90 139q-97 -60 -223 -60q-148 0 -232 86q-85 85 -85 229q0 54 10 101q34 173 151 281q115 106 281 106q149 0 235 -86q85 -86 85 -230q0 -51 -11 -101zM205 300q0 -109 59 -171.5t165 -62.5q94 0 164 46l-117 133l68 54
l97 -148q89 86 117 233q9 45 9 84q0 109 -60 171.5t-167 62.5q-128 0 -212 -86q-84 -87 -114 -232q-9 -45 -9 -84z" />
    <glyph glyph-name="R" unicode="R" horiz-adv-x="799" 
d="M772 604q0 -88 -54 -151.5t-146 -88.5q87 -26 87 -122q0 -1 -2 -39l-16 -203h-100l16 195q2 30 2 37q0 48 -25.5 70t-82.5 22h-222l-69 -324h-100l164 768h340q99 0 153.5 -44t54.5 -120zM247 406h199q102 0 162.5 49.5t60.5 135.5q0 95 -142 95h-221z" />
    <glyph glyph-name="S" unicode="S" horiz-adv-x="781" 
d="M340 -20q-134 0 -208 55.5t-74 159.5v20l103 10v-22q0 -138 189 -138q112 0 176 39.5t64 117.5q0 91 -142 119l-92 20q-187 42 -187 187q0 120 85 181.5t238 61.5q130 0 198.5 -50t68.5 -138v-18l-100 -10v17q0 114 -176 114q-207 0 -207 -146q0 -42 30 -67t102 -41
l93 -19q97 -21 146.5 -71.5t49.5 -121.5q0 -129 -94 -194.5t-263 -65.5z" />
    <glyph glyph-name="T" unicode="T" horiz-adv-x="653" 
d="M137 768h590l-18 -83h-244l-145 -685h-103l145 685h-243z" />
    <glyph glyph-name="U" unicode="U" horiz-adv-x="846" 
d="M373 -17q-265 0 -265 204q0 35 12 93l103 488h103l-106 -505q-8 -40 -8 -65q0 -65 40.5 -96t128.5 -31q107 0 163.5 45t77.5 147l107 505h104l-105 -497q-31 -150 -115 -219t-240 -69z" />
    <glyph glyph-name="V" unicode="V" horiz-adv-x="709" 
d="M331 138l341 630h112l-429 -768h-122l-108 768h101l78 -629l3 -51z" />
    <glyph glyph-name="W" unicode="W" horiz-adv-x="1134" 
d="M806 154l305 614h99l-392 -768h-121l-50 685l-318 -685h-121l-83 768h90l60 -612l3 -87l35 85l281 614h135l39 -612l-1 -85z" />
    <glyph glyph-name="X" unicode="X" horiz-adv-x="716" 
d="M654 768h124l-343 -376l194 -392h-109l-135 283l-15 37l-30 -36l-255 -284h-123l361 398l-181 370h110l122 -261l14 -37l32 37z" />
    <glyph glyph-name="Y" unicode="Y" horiz-adv-x="704" 
d="M670 769h118l-379 -458h-1l-66 -311h-104l67 312l-186 457h102l132 -344l12 -39l29 39z" />
    <glyph glyph-name="Z" unicode="Z" horiz-adv-x="781" 
d="M209 768h586l-15 -67l-606 -618h484l-19 -83h-615l15 68l601 617h-450z" />
    <glyph glyph-name="bracketleft" unicode="[" horiz-adv-x="432" 
d="M272 -204h-256l214 1007h256l-19 -85h-157l-177 -837h157z" />
    <glyph glyph-name="backslash" unicode="\" horiz-adv-x="535" 
d="M417 0h-97l-155 768h97z" />
    <glyph glyph-name="bracketright" unicode="]" horiz-adv-x="433" 
d="M213 -204h-256l19 85h156l177 837h-155l18 85h255z" />
    <glyph glyph-name="asciicircum" unicode="^" horiz-adv-x="751" 
d="M318 768h110l212 -547h-107l-140 388q-1 3 -6 16.5t-8 23.5q-3 8 -5 14.5t-4 10.5l-1 5q-6 -20 -23 -71l-137 -387h-99z" />
    <glyph glyph-name="underscore" unicode="_" horiz-adv-x="500" 
d="M409 -154h-500l17 79h500z" />
    <glyph glyph-name="grave" unicode="`" horiz-adv-x="500" 
d="M442 656h-76l-109 169h113z" />
    <glyph glyph-name="a" unicode="a" horiz-adv-x="652" 
d="M571 386l-56 -262q-5 -28 2.5 -39.5t32.5 -11.5h20l-16 -73h-45q-36 0 -59.5 19t-27.5 51q-74 -86 -206 -86q-82 0 -127.5 37.5t-45.5 106.5q0 81 58.5 124t182.5 65l138 24q23 4 45 13l6 30q11 51 -16 76t-92 25q-70 0 -107.5 -24.5t-55.5 -82.5l-88 10q47 176 262 176
q101 0 150.5 -35t49.5 -98q0 -15 -5 -45zM425 165l25 116q-16 -6 -36 -9l-130 -24q-73 -13 -107 -38.5t-34 -71.5q0 -80 105 -80q55 0 103 28.5t74 78.5z" />
    <glyph glyph-name="b" unicode="b" horiz-adv-x="702" 
d="M434 564q94 0 148 -57.5t54 -157.5q0 -41 -9 -85q-26 -128 -102 -203q-76 -76 -183 -76q-125 0 -179 102l-25 -87h-89l163 768h100l-61 -285q78 81 183 81zM527 273q6 30 6 60q0 70 -34 111t-90 41q-123 0 -186 -132l-32 -150q5 -67 42.5 -103t96.5 -36q74 0 126 56
t71 153z" />
    <glyph glyph-name="c" unicode="c" horiz-adv-x="641" 
d="M291 -15q-107 0 -165.5 58.5t-58.5 161.5q0 39 9 81q26 130 106 204t197 74q96 0 151 -48t59 -132l-96 -9q-4 50 -35.5 77.5t-87.5 27.5q-156 0 -197 -204q-7 -32 -7 -65q0 -68 33.5 -105t97.5 -37q109 0 164 127l95 -10q-36 -97 -104 -149t-161 -52z" />
    <glyph glyph-name="d" unicode="d" horiz-adv-x="702" 
d="M536 469l64 299h100l-164 -768h-93l11 69q-79 -85 -185 -85q-95 0 -149 57.5t-54 159.5q0 39 9 84q25 126 102 203q75 75 180 75q128 0 179 -94zM295 63q117 0 182 128l33 151q-5 69 -42 105.5t-98 36.5q-72 0 -125 -57t-70 -153q-6 -32 -6 -60q0 -69 34.5 -110t91.5 -41
z" />
    <glyph glyph-name="e" unicode="e" horiz-adv-x="677" 
d="M597 244h-430q-3 -19 -3 -37q0 -70 36.5 -106t103.5 -36q110 0 174 90l86 -16q-40 -73 -109 -114t-158 -41q-110 0 -170.5 60t-60.5 163q0 31 9 77q24 124 108 202t210 78q104 0 161.5 -57t57.5 -154q0 -55 -15 -109zM385 488q-73 0 -125 -44t-77 -127h332q2 32 2 35
q0 136 -132 136z" />
    <glyph glyph-name="f" unicode="f" horiz-adv-x="482" 
d="M532 693h-122q-38 0 -56.5 -17t-26.5 -59l-24 -77l195 8l-16 -78l-191 8l-6 -58l-90 -420h-100l90 422l19 56l-133 -8l16 78l131 -8l8 71q19 87 58 122t119 35h145z" />
    <glyph glyph-name="g" unicode="g" horiz-adv-x="692" 
d="M533 469l24 80h87l-114 -536q-47 -227 -275 -227q-107 0 -163.5 43t-60.5 122l95 9q6 -99 137 -99q71 0 112 37.5t59 119.5l17 77q-76 -70 -177 -70q-93 0 -147.5 55.5t-54.5 150.5q0 137 82 234q83 98 208 98q116 0 171 -94zM207 140q31 -36 90 -36t106 34q49 36 76 89
l28 134q-5 58 -42 90.5t-90 32.5q-89 0 -145 -74t-56 -171q0 -63 33 -99z" />
    <glyph glyph-name="h" unicode="h" horiz-adv-x="676" 
d="M424 563q80 0 124.5 -41.5t44.5 -114.5q0 -29 -7 -53l-75 -354h-100l73 344q6 24 6 44q0 43 -24.5 67t-69.5 24q-102 0 -169 -114l-78 -365h-100l164 768h100l-61 -284q73 79 172 79z" />
    <glyph glyph-name="i" unicode="i" horiz-adv-x="313" 
d="M290 667h-100l26 122h100zM148 0h-100l117 548h100z" />
    <glyph glyph-name="j" unicode="j" horiz-adv-x="313" 
d="M289 667h-100l26 122h100zM-34 -205h-61l17 81h34q36 0 53.5 14.5t25.5 51.5l129 606h100l-130 -612q-15 -75 -53.5 -108t-114.5 -33z" />
    <glyph glyph-name="k" unicode="k" horiz-adv-x="647" 
d="M517 548h132l-260 -209l157 -339h-106l-126 286l-124 -95l-41 -191h-100l164 768h100l-100 -466z" />
    <glyph glyph-name="l" unicode="l" horiz-adv-x="314" 
d="M149 0h-100l164 768h100z" />
    <glyph glyph-name="m" unicode="m" horiz-adv-x="1039" 
d="M792 563q75 0 119.5 -42t44.5 -114q0 -25 -6 -52l-76 -355h-100l73 344q5 22 5 44q0 44 -24 67.5t-69 23.5q-106 0 -172 -123l-76 -356h-100l73 344q5 22 5 45q0 90 -92 90q-102 0 -171 -116l-77 -363h-100l117 548h91l-11 -70q76 85 184 85q60 0 102 -29.5t56 -80.5
q80 110 204 110z" />
    <glyph glyph-name="n" unicode="n" horiz-adv-x="676" 
d="M424 563q80 0 124.5 -41.5t44.5 -114.5q0 -23 -7 -54l-75 -353h-100l73 344q6 26 6 44q0 43 -24.5 67t-69.5 24q-101 0 -170 -116l-77 -363h-100l117 548h91l-11 -71q77 86 178 86z" />
    <glyph glyph-name="o" unicode="o" horiz-adv-x="698" 
d="M297 -16q-109 0 -170 58.5t-61 161.5q0 36 9 80q28 132 112.5 206t212.5 74q108 0 169.5 -59t61.5 -161q0 -32 -8 -80q-28 -131 -113 -205.5t-213 -74.5zM305 68q86 0 142 54t77 152q7 29 7 65q0 67 -35 104t-103 37q-86 0 -142.5 -54t-77.5 -152q-7 -29 -7 -66
q0 -67 35.5 -103.5t103.5 -36.5z" />
    <glyph glyph-name="p" unicode="p" horiz-adv-x="703" 
d="M433 564q94 0 148.5 -57.5t54.5 -159.5q0 -145 -81 -253q-82 -109 -210 -109t-179 97l-61 -286h-100l160 752h93l-11 -69q79 85 186 85zM331 64q58 0 106.5 41t73 102.5t22.5 126.5q0 69 -34.5 110t-92.5 41q-56 0 -103.5 -34t-78.5 -93l-33 -146q4 -72 41 -110t99 -38z
" />
    <glyph glyph-name="q" unicode="q" horiz-adv-x="703" 
d="M539 465l23 83h93l-160 -752h-100l58 269q-79 -81 -182 -81q-95 0 -149 57.5t-54 159.5q0 145 82 254q82 108 209 108q129 0 180 -98zM299 63q55 0 102 34t78 92l33 155q-5 67 -42 103.5t-98 36.5q-60 0 -107 -41q-94 -82 -94 -229q0 -69 35 -110t93 -41z" />
    <glyph glyph-name="r" unicode="r" horiz-adv-x="485" 
d="M443 550h40l-19 -90h-27q-66 0 -116 -20q-60 -25 -102 -110l-70 -330h-100l117 548h91l-17 -102q72 104 203 104z" />
    <glyph glyph-name="s" unicode="s" horiz-adv-x="636" 
d="M274 -21q-109 0 -166.5 46t-58.5 130l98 10q0 -59 32 -84.5t102 -25.5q71 0 112.5 25t41.5 75q0 31 -22.5 49.5t-78.5 30.5l-61 13q-151 30 -151 144q0 86 66.5 131.5t179.5 45.5q102 0 158 -43t58 -121l-95 -10q-2 49 -36.5 74t-93.5 25q-64 0 -102 -23.5t-38 -66.5
q0 -29 23 -45.5t78 -27.5l65 -12q77 -15 113.5 -50.5t36.5 -98.5q0 -92 -69 -141.5t-192 -49.5z" />
    <glyph glyph-name="t" unicode="t" horiz-adv-x="500" 
d="M291 477l-6 -57l-50 -233q-9 -45 -9 -56q0 -50 61 -50h111l-17 -81h-120q-66 0 -101.5 29t-35.5 85q0 14 5 44l56 264l18 54l-132 -7l16 79l130 -8l4 48l25 119h100l-24 -114l-18 -53l194 8l-17 -79z" />
    <glyph glyph-name="u" unicode="u" horiz-adv-x="676" 
d="M450 183l78 365h100l-117 -548h-92l11 69q-76 -84 -177 -84q-80 0 -124.5 41t-44.5 115q0 25 6 54l76 353h100l-74 -344q-6 -26 -6 -44q0 -43 24.5 -67t69.5 -24q100 0 170 114z" />
    <glyph glyph-name="v" unicode="v" horiz-adv-x="612" 
d="M289 160l218 388h105l-322 -548h-110l-98 548h101l59 -389l8 -72z" />
    <glyph glyph-name="w" unicode="w" horiz-adv-x="888" 
d="M592 176l188 372h108l-296 -548h-107l-21 284l-7 150l-69 -151l-139 -283h-102l-65 548h94l35 -368l4 -77l33 73l181 372h97l26 -367l3 -84z" />
    <glyph glyph-name="x" unicode="x" horiz-adv-x="596" 
d="M483 548h120l-257 -268l148 -280h-108l-103 212l-196 -212h-121l279 288l-137 260h109l92 -192z" />
    <glyph glyph-name="y" unicode="y" horiz-adv-x="593" 
d="M247 109l237 439h109l-355 -627q-40 -69 -82 -99q-42 -27 -114 -27h-74l17 82h64q35 0 58.5 16t48.5 57l22 38l-96 560h101l63 -429z" />
    <glyph glyph-name="z" unicode="z" horiz-adv-x="630" 
d="M141 548h452l-15 -71l-410 -393h349l-18 -84h-484l14 67l414 397h-320z" />
    <glyph glyph-name="braceleft" unicode="{" horiz-adv-x="476" 
d="M314 -205h-123q-50 0 -73.5 18t-23.5 58q0 16 9 61l40 190q9 45 9 60q0 75 -97 75l19 84q61 0 94 27.5t46 88.5l49 228q13 61 47 89t96 28h123l-19 -85h-94q-29 0 -43 -11.5t-21 -41.5l-44 -204q-14 -66 -54.5 -108t-100.5 -52l-1 -2q94 -16 94 -114q0 -20 -9 -63
l-37 -169q-7 -35 -7 -40q0 -32 45 -32h94z" />
    <glyph glyph-name="bar" unicode="|" horiz-adv-x="549" 
d="M330 -204h-100v1007h100v-1007z" />
    <glyph glyph-name="braceright" unicode="}" horiz-adv-x="477" 
d="M80 -205h-123l19 85h94q30 0 44 12t20 41l44 205q14 66 54.5 107.5t100.5 51.5l1 2q-93 17 -93 114q0 19 9 63l36 169q7 29 7 41q0 17 -10.5 24t-34.5 7h-94l19 85h122q98 0 98 -76q0 -16 -9 -61l-41 -190q-9 -43 -9 -60q0 -75 97 -75l-18 -84q-61 0 -94 -27.5t-46 -88.5
l-49 -228q-13 -61 -47.5 -89t-96.5 -28z" />
    <glyph glyph-name="asciitilde" unicode="~" horiz-adv-x="751" 
d="M200 273h-86q0 87 38.5 133.5t105.5 46.5q39 2 86.5 -22.5t87 -49t60.5 -22.5q59 0 59 94h86q0 -86 -38.5 -133t-104.5 -47q-40 -2 -86.5 23t-86 49.5t-62.5 22.5q-59 0 -59 -95z" />
    <glyph glyph-name="uni00A0" unicode="&#xa0;" horiz-adv-x="320" 
 />
    <glyph glyph-name="exclamdown" unicode="&#xa1;" horiz-adv-x="350" 
d="M266 433h-115l25 115h114zM123 -204h-101l52 244l92 313h51l-42 -313z" />
    <glyph glyph-name="cent" unicode="&#xa2;" horiz-adv-x="641" 
d="M297 69q109 0 164 127l95 -10q-34 -91 -96 -142.5t-146 -57.5l-30 -142h-84l31 146q-79 16 -121.5 72t-42.5 143q0 39 9 81q24 123 96.5 196t180.5 81l31 145h84l-32 -149q70 -13 110 -58.5t43 -116.5l-96 -9q-4 50 -35.5 77.5t-87.5 27.5q-156 0 -197 -204
q-7 -32 -7 -65q0 -68 33.5 -105t97.5 -37z" />
    <glyph glyph-name="sterling" unicode="&#xa3;" horiz-adv-x="718" 
d="M660 583l-97 -8q2 14 2 23q0 49 -33.5 75.5t-89.5 26.5q-74 0 -119.5 -41.5t-45.5 -110.5q0 -37 23 -112l19 -57l220 10l-17 -82l-184 10q20 -84 21 -231h261l-18 -86h-601l18 86h256q-1 158 -25 232l-184 -11l17 82l140 -9l-3 7q-44 103 -44 164q0 104 75 170t197 66
q99 0 157 -45t58 -122q0 -16 -3 -37z" />
    <glyph glyph-name="currency" unicode="&#xa4;" horiz-adv-x="751" 
d="M694 644l-116 -108q47 -65 47 -152t-47 -152l116 -108l-58 -58l-108 116q-67 -47 -153 -47t-151 47l-108 -116l-58 58l116 108q-48 63 -48 152t48 152l-116 108l58 58l108 -116q65 47 151 47t153 -47l108 116zM376 218q69 0 116 47q45 47 45 119t-45 119q-47 47 -116 47
q-71 0 -116 -47t-45 -119t45 -119t116 -47z" />
    <glyph glyph-name="yen" unicode="&#xa5;" horiz-adv-x="788" 
d="M722 768h112l-316 -348h175l-18 -82h-540l17 82h180l-168 348h112l136 -306l11 -34l31 42zM317 158h-220l17 82h540l-17 -82h-216l-33 -158h-104z" />
    <glyph glyph-name="brokenbar" unicode="&#xa6;" horiz-adv-x="549" 
d="M330 447h-100v356h100v-356zM330 -204h-100v356h100v-356z" />
    <glyph glyph-name="section" unicode="&#xa7;" horiz-adv-x="713" 
d="M398 519l95 -32q140 -48 140 -156q0 -60 -37 -106t-104 -73q20 -35 20 -77q0 -84 -64 -136t-165 -52q-90 0 -142 40t-53 111l95 7q0 -76 106 -76q59 0 93 27.5t34 73.5q0 59 -74 85l-95 32q-140 48 -140 156q0 60 37 106t104 73q-20 35 -20 77q0 84 64 136t165 52
q91 0 142.5 -39.5t52.5 -111.5l-95 -7q0 76 -106 76q-59 0 -93 -27.5t-34 -73.5q0 -59 74 -85zM435 209q48 12 77.5 41.5t29.5 67.5q0 61 -82 89l-104 35q-26 7 -51 23q-48 -12 -77.5 -41.5t-29.5 -66.5q0 -62 82 -90l104 -34q28 -11 51 -24z" />
    <glyph glyph-name="dieresis" unicode="&#xa8;" horiz-adv-x="500" 
d="M263 667h-99l26 122h99zM503 667h-99l26 122h99z" />
    <glyph glyph-name="copyright" unicode="&#xa9;" horiz-adv-x="1008" 
d="M528 -17q-177 0 -291 114q-115 112 -115 288t115 288q115 113 291 113q175 0 291 -113q114 -113 114 -288t-114 -288q-115 -114 -291 -114zM294 146q91 -94 234 -94t234 94q91 92 91 239q0 145 -91 239q-92 93 -234 93t-234 -93q-92 -95 -92 -239q0 -145 92 -239z
M528 186q-82 0 -130 53.5t-48 146.5t48 146.5t130 53.5q134 0 163 -119l-73 -13q-21 62 -90 62q-47 0 -74 -32.5t-27 -97.5t27 -97.5t74 -32.5q70 0 91 64l72 -12q-14 -59 -56 -90.5t-107 -31.5z" />
    <glyph glyph-name="ordfeminine" unicode="&#xaa;" horiz-adv-x="600" 
d="M400 776q82 0 126.5 -31t44.5 -83q0 -25 -9 -64l-50 -237h-76l3 58q-68 -58 -158 -58q-62 0 -96.5 29.5t-34.5 78.5q0 56 43 91t118 42l163 13q6 33 6 40q0 50 -86 50q-78 0 -105 -45l-80 28q57 88 191 88zM313 435q48 0 85 22q38 23 51 42l11 55l-122 -12
q-90 -9 -90 -60q0 -47 65 -47z" />
    <glyph glyph-name="guillemotleft" unicode="&#xab;" horiz-adv-x="812" 
d="M335 93l-22 -103l-218 228l23 112l315 228l-26 -124l-236 -170zM667 93l-23 -103l-218 228l24 112l315 228l-27 -124l-235 -170z" />
    <glyph glyph-name="logicalnot" unicode="&#xac;" horiz-adv-x="751" 
d="M628 195h-85v199h-421v84h506v-283z" />
    <glyph glyph-name="uni00AD" unicode="&#xad;" horiz-adv-x="397" 
d="M339 250h-291l18 81h290z" />
    <glyph glyph-name="registered" unicode="&#xae;" horiz-adv-x="680" 
d="M398 783q104 0 174 -69q71 -71 71 -170t-71 -168q-70 -70 -174 -70q-105 0 -175 70q-72 69 -72 168q0 100 72 170q71 69 175 69zM398 354q83 0 138 55q56 56 56 135q0 81 -56 137q-55 55 -138 55q-85 0 -140 -55q-56 -56 -56 -137t56 -135q55 -55 140 -55zM494 495l3 -36
q1 -23 12 -39h-48q-7 10 -9 39l-2 26q-3 37 -44 37h-59v-102h-45v254h109q90 0 90 -65q0 -48 -59 -63v-6q28 -3 39 -12t13 -33zM347 562h58q49 0 49 36t-44 36h-63v-72z" />
    <glyph glyph-name="overscore" unicode="&#xaf;" horiz-adv-x="500" 
d="M514 671h-359l17 78h359z" />
    <glyph glyph-name="degree" unicode="&#xb0;" horiz-adv-x="532" 
d="M334 407q-81 0 -134 53q-54 52 -54 135t54 135q53 53 134 53t136 -53q53 -53 53 -135t-53 -135q-55 -53 -136 -53zM334 479q50 0 82 33t32 83t-32 83t-82 33q-49 0 -81 -33t-32 -83t32 -83t81 -33z" />
    <glyph glyph-name="plusminus" unicode="&#xb1;" horiz-adv-x="751" 
d="M418 601v-164h233v-85h-233v-163h-85v163h-234v85h234v164h85zM643 23h-533v94h533v-94z" />
    <glyph glyph-name="two.sups" unicode="&#xb2;" horiz-adv-x="505" 
d="M476 371h-387q9 84 53 133.5t123 75.5l103 33q89 30 89 87q0 32 -26 50t-74 18q-103 0 -137 -94l-70 22q24 63 79 100t136 37q78 0 124 -33.5t46 -92.5q0 -109 -156 -158l-86 -27q-96 -30 -107 -83h304z" />
    <glyph glyph-name="three.sups" unicode="&#xb3;" horiz-adv-x="502" 
d="M293 361q-83 0 -131.5 38.5t-54.5 105.5l76 13q2 -43 31.5 -67t81.5 -24q54 0 88.5 24.5t34.5 61.5q0 58 -98 58h-38l13 66h35q57 0 89.5 19.5t32.5 53.5q0 60 -98 60t-130 -71l-73 12q21 57 77 89.5t135 32.5q74 0 119.5 -29t45.5 -82q0 -42 -26.5 -73.5t-68.5 -38.5
l-1 -2q66 -23 66 -91q0 -69 -57 -112q-58 -44 -149 -44z" />
    <glyph glyph-name="acute" unicode="&#xb4;" horiz-adv-x="500" 
d="M321 656h-87l108 169h124z" />
    <glyph glyph-name="uni00B5" unicode="&#xb5;" horiz-adv-x="792" 
d="M265 -204h-100v752h100v-343q0 -65 30.5 -100t88.5 -35q94 0 144 99v379h100v-548h-92l-4 73q-64 -88 -158 -88q-78 0 -128 47l-2 -1l21 -121v-114z" />
    <glyph glyph-name="paragraph" unicode="&#xb6;" horiz-adv-x="694" 
d="M293 -105h-85l109 492q-88 0 -135.5 38.5t-47.5 109.5q0 108 70 171q71 62 186 62h291l-186 -873h-85l168 788h-117z" />
    <glyph glyph-name="middot" unicode="&#xb7;" horiz-adv-x="329" 
d="M232 327h-114l25 115h115z" />
    <glyph glyph-name="cedilla" unicode="&#xb8;" horiz-adv-x="500" 
d="M96 -275h-85l14 66h70q93 0 93 48q0 29 -37 29h-110l13 61h122q96 0 96 -82q0 -57 -47.5 -89.5t-128.5 -32.5z" />
    <glyph glyph-name="one.sups" unicode="&#xb9;" horiz-adv-x="385" 
d="M300 371h-77l59 279h-148l14 68h84q63 0 77 56l10 50h77z" />
    <glyph glyph-name="ordmasculine" unicode="&#xba;" horiz-adv-x="574" 
d="M328 363q-87 0 -139.5 49t-52.5 130q0 101 67 167q67 65 169 65q87 0 139 -49.5t52 -130.5q0 -102 -66 -166q-67 -65 -169 -65zM336 439q64 0 98 39t34 116q0 105 -104 105q-65 0 -99 -41t-34 -115q0 -104 105 -104z" />
    <glyph glyph-name="guillemotright" unicode="&#xbb;" horiz-adv-x="812" 
d="M362 218l-315 -228l27 124l235 170l-163 171l22 103l218 -228zM694 218l-315 -228l26 124l236 170l-164 171l22 103l218 -228z" />
    <glyph glyph-name="onequarter" unicode="&#xbc;" horiz-adv-x="1251" 
d="M358 344h-77l59 278h-148l14 69h84q65 0 77 56l10 50h77zM329 -15h-95l653 798h93zM1006 0h-78l25 116l-270 -6l17 74l314 269h88l-60 -284l71 9l-15 -68l-67 6zM1004 370l-225 -195l185 -6l42 200z" />
    <glyph glyph-name="onehalf" unicode="&#xbd;" horiz-adv-x="1306" 
d="M358 344h-77l59 278h-148l14 69h84q65 0 77 56l10 50h77zM329 -15h-95l653 798h93zM1130 0h-387q9 84 53 133.5t124 74.5l102 33q89 29 89 88q0 31 -26.5 49.5t-73.5 18.5q-103 0 -136 -94l-71 21q24 63 79.5 100.5t136.5 37.5q78 0 123.5 -33.5t45.5 -93.5
q0 -107 -156 -157l-86 -27q-97 -32 -107 -83h305z" />
    <glyph glyph-name="threequarters" unicode="&#xbe;" horiz-adv-x="1348" 
d="M336 333q-85 0 -133 39t-53 106l76 13q2 -43 32 -67.5t81 -24.5q54 0 88.5 24.5t34.5 61.5q0 59 -98 59h-38l13 65h35q57 0 89.5 19.5t32.5 53.5q0 61 -99 61q-97 0 -130 -71l-72 11q21 58 76.5 90.5t135.5 32.5q73 0 119 -29.5t46 -82.5q0 -42 -27 -73.5t-69 -38.5
l-1 -2q67 -22 67 -90q0 -70 -57 -113q-58 -44 -149 -44zM437 -15h-95l653 798h93zM1114 0h-78l25 116l-270 -6l17 74l314 269h88l-60 -284l71 9l-15 -68l-67 6zM1112 370l-225 -195l185 -6l42 200z" />
    <glyph glyph-name="questiondown" unicode="&#xbf;" horiz-adv-x="724" 
d="M469 434h-117l24 114h117zM287 -232q-120 0 -190.5 51.5t-70.5 142.5q0 130 152 208l64 34q45 23 65.5 49t30.5 74l6 27h101l-8 -40q-15 -67 -54 -111.5t-121 -83.5q-72 -35 -102 -68.5t-30 -78.5q0 -57 41.5 -87t117.5 -30q86 0 136.5 38.5t71.5 119.5l97 -17
q-58 -228 -307 -228z" />
    <glyph glyph-name="Agrave" unicode="&#xc0;" horiz-adv-x="764" 
d="M463 1045l73 -169h-76l-109 169h112zM676 0h-102l-30 197h-360l-111 -197h-111l444 768h144zM446 661l-214 -379h299l-57 379l-5 45z" />
    <glyph glyph-name="Aacute" unicode="&#xc1;" horiz-adv-x="764" 
d="M522 1045h123l-145 -169h-87zM676 0h-102l-30 197h-360l-111 -197h-111l444 768h144zM446 661l-214 -379h299l-57 379l-5 45z" />
    <glyph glyph-name="Acircumflex" unicode="&#xc2;" horiz-adv-x="764" 
d="M590 869l-65 124l-118 -124h-101l173 184h98l101 -184h-88zM-38 0l444 768h144l126 -768h-102l-30 197h-360l-111 -197h-111zM446 661l-214 -379h299l-57 379l-5 45z" />
    <glyph glyph-name="Atilde" unicode="&#xc3;" horiz-adv-x="764" 
d="M665 1026h81q-18 -85 -60.5 -128t-102.5 -43q-32 0 -55.5 13t-33.5 32q-25 45 -61 45q-24 0 -39.5 -20.5t-30.5 -68.5h-81q18 85 61 128t102 43q32 0 56 -13t35 -32q25 -45 59 -45q24 0 39.5 20.5t30.5 68.5zM-38 0l444 768h144l126 -768h-102l-30 197h-360l-111 -197
h-111zM446 661l-214 -379h299l-57 379l-5 45z" />
    <glyph glyph-name="Adieresis" unicode="&#xc4;" horiz-adv-x="764" 
d="M348 1004h109l-26 -122h-109zM571 882l27 122h108l-26 -122h-109zM-38 0l444 768h144l126 -768h-102l-30 197h-360l-111 -197h-111zM446 661l-214 -379h299l-57 379l-5 45z" />
    <glyph glyph-name="Aring" unicode="&#xc5;" horiz-adv-x="764" 
d="M676 0h-102l-30 197h-360l-111 -197h-111l427 738q-57 44 -57 120q0 66 43 109t109 43q67 0 110 -43t43 -109q0 -45 -21.5 -80.5t-58.5 -53.5zM548 924q-26 24 -64 24q-39 0 -63 -24q-25 -25 -25 -66t25 -65q24 -24 63 -24q38 0 64 24q25 24 25 65t-25 66zM446 661
l-214 -379h299l-57 379l-5 45z" />
    <glyph glyph-name="AE" unicode="&#xc6;" horiz-adv-x="1207" 
d="M1243 768l-19 -83h-429l-53 -248h397l-18 -83h-396l-58 -271h436l-19 -83h-535l43 200h-360l-161 -200h-109l621 768h660zM621 685l-320 -399h309l85 399h-74z" />
    <glyph glyph-name="Ccedilla" unicode="&#xc7;" horiz-adv-x="851" 
d="M409 -18q-141 0 -223 84q-82 83 -82 227q0 61 13 119q37 176 155 276q116 98 276 98q121 0 196 -57t96 -165l-98 -11q-13 70 -65.5 108t-135.5 38q-121 0 -209 -79q-90 -79 -120 -230q-10 -49 -10 -96q0 -107 56 -164t159 -57q185 0 269 171l94 -11q-50 -120 -148 -185
q-99 -66 -223 -66zM323 -276h-85l14 66h70q93 0 93 48q0 29 -37 29h-110l13 61h122q96 0 96 -82q0 -57 -47.5 -89.5t-128.5 -32.5z" />
    <glyph glyph-name="Egrave" unicode="&#xc8;" horiz-adv-x="718" 
d="M475 1045l73 -169h-76l-109 169h112zM753 768l-18 -83h-429l-53 -248h397l-19 -83h-395l-58 -271h435l-18 -83h-535l164 768h529z" />
    <glyph glyph-name="Eacute" unicode="&#xc9;" horiz-adv-x="718" 
d="M534 1045h123l-145 -169h-87zM753 768l-18 -83h-429l-53 -248h397l-19 -83h-395l-58 -271h435l-18 -83h-535l164 768h529z" />
    <glyph glyph-name="Ecircumflex" unicode="&#xca;" horiz-adv-x="718" 
d="M602 869l-65 124l-118 -124h-101l173 184h98l101 -184h-88zM753 768l-18 -83h-429l-53 -248h397l-19 -83h-395l-58 -271h435l-18 -83h-535l164 768h529z" />
    <glyph glyph-name="Edieresis" unicode="&#xcb;" horiz-adv-x="718" 
d="M360 1004h109l-26 -122h-109zM610 1004h108l-26 -122h-109zM753 768l-18 -83h-429l-53 -248h397l-19 -83h-395l-58 -271h435l-18 -83h-535l164 768h529z" />
    <glyph glyph-name="Igrave" unicode="&#xcc;" horiz-adv-x="339" 
d="M335 876h-76l-109 169h112zM163 0h-103l164 768h103z" />
    <glyph glyph-name="Iacute" unicode="&#xcd;" horiz-adv-x="339" 
d="M299 876h-87l109 169h123zM163 0h-103l164 768h103z" />
    <glyph glyph-name="Icircumflex" unicode="&#xce;" horiz-adv-x="339" 
d="M205 869h-101l173 184h98l101 -184h-88l-65 124zM163 0h-103l164 768h103z" />
    <glyph glyph-name="Idieresis" unicode="&#xcf;" horiz-adv-x="339" 
d="M229 882h-108l26 122h109zM479 882h-109l26 122h109zM163 0h-103l164 768h103z" />
    <glyph glyph-name="Eth" unicode="&#xd0;" horiz-adv-x="909" 
d="M299 769h245q156 0 238 -71t82 -209q0 -49 -13 -117q-73 -372 -435 -372h-281l75 351l-166 -9l19 84l161 -9zM751 383q12 60 12 107q0 105 -57 150t-169 45h-153l-57 -268l193 9l-19 -84l-188 9l-57 -268h162q273 0 333 300z" />
    <glyph glyph-name="Ntilde" unicode="&#xd1;" horiz-adv-x="868" 
d="M489 945q-24 0 -39.5 -20.5t-30.5 -68.5h-81q18 85 61 128t102 43q32 0 56 -13t35 -32q25 -45 59 -45q24 0 39.5 20.5t30.5 68.5h81q-18 -85 -60.5 -128t-102.5 -43q-32 0 -55.5 13t-33.5 32q-25 45 -61 45zM623 128l135 641h97l-164 -769h-108l-290 640l-136 -640h-97
l164 769h109z" />
    <glyph glyph-name="Ograve" unicode="&#xd2;" horiz-adv-x="925" 
d="M607 890h-76l-109 169h112zM422 -17q-148 0 -232 86q-85 85 -85 229q0 54 10 101q34 173 151 281q115 106 281 106q149 0 235 -86q85 -86 85 -230q0 -51 -11 -101q-35 -176 -150 -281q-116 -105 -284 -105zM429 66q129 0 215 87q86 85 114 231q9 45 9 84q0 109 -60 171.5
t-167 62.5q-128 0 -212 -86q-84 -87 -114 -232q-9 -45 -9 -84q0 -109 59 -171.5t165 -62.5z" />
    <glyph glyph-name="Oacute" unicode="&#xd3;" horiz-adv-x="925" 
d="M571 890h-87l109 169h123zM422 -17q-148 0 -232 86q-85 85 -85 229q0 54 10 101q34 173 151 281q115 106 281 106q149 0 235 -86q85 -86 85 -230q0 -51 -11 -101q-35 -176 -150 -281q-116 -105 -284 -105zM429 66q129 0 215 87q86 85 114 231q9 45 9 84q0 109 -60 171.5
t-167 62.5q-128 0 -212 -86q-84 -87 -114 -232q-9 -45 -9 -84q0 -109 59 -171.5t165 -62.5z" />
    <glyph glyph-name="Ocircumflex" unicode="&#xd4;" horiz-adv-x="925" 
d="M477 883h-101l173 184h98l101 -184h-88l-65 124zM422 -17q-148 0 -232 86q-85 85 -85 229q0 54 10 101q34 173 151 281q115 106 281 106q149 0 235 -86q85 -86 85 -230q0 -51 -11 -101q-35 -176 -150 -281q-116 -105 -284 -105zM429 66q129 0 215 87q86 85 114 231
q9 45 9 84q0 109 -60 171.5t-167 62.5q-128 0 -212 -86q-84 -87 -114 -232q-9 -45 -9 -84q0 -109 59 -171.5t165 -62.5z" />
    <glyph glyph-name="Otilde" unicode="&#xd5;" horiz-adv-x="925" 
d="M434 870h-81q18 85 61 128t102 43q32 0 56 -13t35 -32q25 -45 59 -45q24 0 39.5 20.5t30.5 68.5h81q-18 -85 -60.5 -128t-102.5 -43q-32 0 -55.5 13t-33.5 32q-25 45 -61 45q-24 0 -39.5 -20.5t-30.5 -68.5zM422 -17q-148 0 -232 86q-85 85 -85 229q0 54 10 101
q34 173 151 281q115 106 281 106q149 0 235 -86q85 -86 85 -230q0 -51 -11 -101q-35 -176 -150 -281q-116 -105 -284 -105zM429 66q129 0 215 87q86 85 114 231q9 45 9 84q0 109 -60 171.5t-167 62.5q-128 0 -212 -86q-84 -87 -114 -232q-9 -45 -9 -84q0 -109 59 -171.5
t165 -62.5z" />
    <glyph glyph-name="Odieresis" unicode="&#xd6;" horiz-adv-x="925" 
d="M502 896h-109l26 122h109zM751 896h-109l27 122h108zM422 -17q-148 0 -232 86q-85 85 -85 229q0 54 10 101q34 173 151 281q115 106 281 106q149 0 235 -86q85 -86 85 -230q0 -51 -11 -101q-35 -176 -150 -281q-116 -105 -284 -105zM429 66q129 0 215 87q86 85 114 231
q9 45 9 84q0 109 -60 171.5t-167 62.5q-128 0 -212 -86q-84 -87 -114 -232q-9 -45 -9 -84q0 -109 59 -171.5t165 -62.5z" />
    <glyph glyph-name="multiply" unicode="&#xd7;" horiz-adv-x="751" 
d="M375 284l-203 -203l-56 56l203 203l-203 202l56 56l203 -202l203 202l56 -55l-203 -203l203 -204l-56 -55z" />
    <glyph glyph-name="Oslash" unicode="&#xd8;" horiz-adv-x="925" 
d="M873 787l47 -49l-98 -90q45 -75 45 -178q0 -51 -11 -101q-35 -176 -150 -281q-116 -105 -284 -105q-143 0 -229 83l-96 -89l-47 48l101 93q-46 76 -46 180q0 54 10 101q34 173 151 281q115 106 281 106q148 0 233 -85zM205 300q0 -64 21 -112l484 448q-62 66 -170 66
q-128 0 -212 -86q-84 -87 -114 -232q-9 -45 -9 -84zM767 468q0 59 -20 110l-485 -448q58 -64 167 -64q129 0 215 87q86 85 114 231q9 45 9 84z" />
    <glyph glyph-name="Ugrave" unicode="&#xd9;" horiz-adv-x="846" 
d="M577 876h-76l-109 169h112zM373 -17q-265 0 -265 204q0 35 12 93l103 488h103l-106 -505q-8 -40 -8 -65q0 -65 40.5 -96t128.5 -31q107 0 163.5 45t77.5 147l107 505h104l-105 -497q-31 -150 -115 -219t-240 -69z" />
    <glyph glyph-name="Uacute" unicode="&#xda;" horiz-adv-x="846" 
d="M541 876h-87l109 169h123zM373 -17q-265 0 -265 204q0 35 12 93l103 488h103l-106 -505q-8 -40 -8 -65q0 -65 40.5 -96t128.5 -31q107 0 163.5 45t77.5 147l107 505h104l-105 -497q-31 -150 -115 -219t-240 -69z" />
    <glyph glyph-name="Ucircumflex" unicode="&#xdb;" horiz-adv-x="846" 
d="M447 869h-101l173 184h98l101 -184h-88l-65 124zM373 -17q-265 0 -265 204q0 35 12 93l103 488h103l-106 -505q-8 -40 -8 -65q0 -65 40.5 -96t128.5 -31q107 0 163.5 45t77.5 147l107 505h104l-105 -497q-31 -150 -115 -219t-240 -69z" />
    <glyph glyph-name="Udieresis" unicode="&#xdc;" horiz-adv-x="846" 
d="M472 882h-109l26 122h109zM721 882h-109l27 122h108zM373 -17q-265 0 -265 204q0 35 12 93l103 488h103l-106 -505q-8 -40 -8 -65q0 -65 40.5 -96t128.5 -31q107 0 163.5 45t77.5 147l107 505h104l-105 -497q-31 -150 -115 -219t-240 -69z" />
    <glyph glyph-name="Yacute" unicode="&#xdd;" horiz-adv-x="704" 
d="M496 1036h123l-145 -169h-87zM670 769h118l-379 -458h-1l-66 -311h-104l67 312l-186 457h102l132 -344l12 -39l29 39z" />
    <glyph glyph-name="Thorn" unicode="&#xde;" horiz-adv-x="746" 
d="M300 640h181q109 0 165.5 -50.5t56.5 -139.5q0 -126 -78 -201q-77 -76 -206 -76h-219l-37 -173h-103l164 768h103zM218 256h204q81 0 129.5 52.5t48.5 137.5q0 111 -128 111h-190z" />
    <glyph glyph-name="germandbls" unicode="&#xdf;" horiz-adv-x="720" 
d="M149 0h-100l117 554q24 114 88.5 166.5t181.5 52.5q113 0 174 -46.5t61 -128.5q0 -67 -39.5 -111.5t-110.5 -65.5v-4q118 -37 118 -159q0 -107 -85 -182q-85 -76 -213 -76h-63l19 84h52q89 0 139 47.5t50 126.5q0 117 -137 117h-43l18 84h36q70 0 115.5 35.5t45.5 92.5
q0 49 -36.5 75.5t-107.5 26.5q-69 0 -108.5 -33.5t-54.5 -103.5z" />
    <glyph glyph-name="agrave" unicode="&#xe0;" horiz-adv-x="652" 
d="M371 841l73 -169h-76l-109 169h112zM571 386l-56 -262q-5 -28 2.5 -39.5t32.5 -11.5h20l-16 -73h-45q-36 0 -59.5 19t-27.5 51q-74 -86 -206 -86q-82 0 -127.5 37.5t-45.5 106.5q0 81 58.5 124t182.5 65l138 24q23 4 45 13l6 30q11 51 -16 76t-92 25q-70 0 -107.5 -24.5
t-55.5 -82.5l-88 10q47 176 262 176q101 0 150.5 -35t49.5 -98q0 -15 -5 -45zM425 165l25 116q-16 -6 -36 -9l-130 -24q-73 -13 -107 -38.5t-34 -71.5q0 -80 105 -80q55 0 103 28.5t74 78.5z" />
    <glyph glyph-name="aacute" unicode="&#xe1;" horiz-adv-x="652" 
d="M430 841h123l-145 -169h-87zM571 386l-56 -262q-5 -28 2.5 -39.5t32.5 -11.5h20l-16 -73h-45q-36 0 -59.5 19t-27.5 51q-74 -86 -206 -86q-82 0 -127.5 37.5t-45.5 106.5q0 81 58.5 124t182.5 65l138 24q23 4 45 13l6 30q11 51 -16 76t-92 25q-70 0 -107.5 -24.5
t-55.5 -82.5l-88 10q47 176 262 176q101 0 150.5 -35t49.5 -98q0 -15 -5 -45zM425 165l25 116q-16 -6 -36 -9l-130 -24q-73 -13 -107 -38.5t-34 -71.5q0 -80 105 -80q55 0 103 28.5t74 78.5z" />
    <glyph glyph-name="acircumflex" unicode="&#xe2;" horiz-adv-x="652" 
d="M498 665l-65 124l-118 -124h-100l173 184h98l100 -184h-88zM376 564q101 0 150.5 -35t49.5 -98q0 -15 -5 -45l-56 -262q-5 -28 2.5 -39.5t32.5 -11.5h20l-16 -73h-45q-36 0 -59.5 19t-27.5 51q-74 -86 -206 -86q-82 0 -127.5 37.5t-45.5 106.5q0 81 58.5 124t182.5 65
l138 24q23 4 45 13l6 30q11 51 -16 76t-92 25q-70 0 -107.5 -24.5t-55.5 -82.5l-88 10q47 176 262 176zM425 165l25 116q-16 -6 -36 -9l-130 -24q-73 -13 -107 -38.5t-34 -71.5q0 -80 105 -80q55 0 103 28.5t74 78.5z" />
    <glyph glyph-name="atilde" unicode="&#xe3;" horiz-adv-x="652" 
d="M573 822h82q-18 -85 -60.5 -128t-103.5 -43q-32 0 -55.5 13t-33.5 32q-25 45 -61 45q-24 0 -39.5 -20.5t-30.5 -68.5h-81q18 84 61 127.5t102 43.5q32 0 56 -13t35 -32q25 -45 59 -45q24 0 39.5 20.5t30.5 68.5zM376 564q101 0 150.5 -35t49.5 -98q0 -15 -5 -45l-56 -262
q-5 -28 2.5 -39.5t32.5 -11.5h20l-16 -73h-45q-36 0 -59.5 19t-27.5 51q-74 -86 -206 -86q-82 0 -127.5 37.5t-45.5 106.5q0 81 58.5 124t182.5 65l138 24q23 4 45 13l6 30q11 51 -16 76t-92 25q-70 0 -107.5 -24.5t-55.5 -82.5l-88 10q47 176 262 176zM425 165l25 116
q-16 -6 -36 -9l-130 -24q-73 -13 -107 -38.5t-34 -71.5q0 -80 105 -80q55 0 103 28.5t74 78.5z" />
    <glyph glyph-name="adieresis" unicode="&#xe4;" horiz-adv-x="652" 
d="M267 805h99l-26 -122h-99zM481 683l26 122h99l-26 -122h-99zM376 564q101 0 150.5 -35t49.5 -98q0 -15 -5 -45l-56 -262q-5 -28 2.5 -39.5t32.5 -11.5h20l-16 -73h-45q-36 0 -59.5 19t-27.5 51q-74 -86 -206 -86q-82 0 -127.5 37.5t-45.5 106.5q0 81 58.5 124t182.5 65
l138 24q23 4 45 13l6 30q11 51 -16 76t-92 25q-70 0 -107.5 -24.5t-55.5 -82.5l-88 10q47 176 262 176zM425 165l25 116q-16 -6 -36 -9l-130 -24q-73 -13 -107 -38.5t-34 -71.5q0 -80 105 -80q55 0 103 28.5t74 78.5z" />
    <glyph glyph-name="aring" unicode="&#xe5;" horiz-adv-x="652" 
d="M544 682q-44 -44 -110 -44q-65 0 -109 44t-44 108t44 108q43 43 109 43q67 0 110 -43t43 -108t-43 -108zM498 855q-25 24 -64 24t-63 -24q-25 -24 -25 -65t25 -65q24 -24 63 -24q38 0 64 24q24 24 24 65t-24 65zM376 564q101 0 150.5 -35t49.5 -98q0 -15 -5 -45l-56 -262
q-5 -28 2.5 -39.5t32.5 -11.5h20l-16 -73h-45q-36 0 -59.5 19t-27.5 51q-74 -86 -206 -86q-82 0 -127.5 37.5t-45.5 106.5q0 81 58.5 124t182.5 65l138 24q23 4 45 13l6 30q11 51 -16 76t-92 25q-70 0 -107.5 -24.5t-55.5 -82.5l-88 10q47 176 262 176zM425 165l25 116
q-16 -6 -36 -9l-130 -24q-73 -13 -107 -38.5t-34 -71.5q0 -80 105 -80q55 0 103 28.5t74 78.5z" />
    <glyph glyph-name="ae" unicode="&#xe6;" horiz-adv-x="1052" 
d="M972 246l-427 12q-6 -32 -6 -57q0 -68 36 -102t103 -34q111 0 177 90l82 -15q-45 -73 -118 -114.5t-160 -41.5q-155 0 -190 131q-92 -131 -258 -131q-80 0 -125.5 33.5t-45.5 95.5q0 93 71 144q71 52 184 53l180 2l11 52q4 17 4 31q0 90 -134 90q-65 0 -100.5 -24.5
t-53.5 -82.5l-88 11q27 86 94.5 130.5t164.5 44.5q77 0 122.5 -30t53.5 -84q90 114 236 114q100 0 152 -53t52 -148q0 -54 -17 -117zM764 488q-73 0 -128 -47t-79 -130l335 5q3 21 3 40q0 132 -131 132zM238 61q68 0 126.5 35t85.5 97l14 67l-207 -23q-52 -6 -83.5 -35.5
t-31.5 -73.5q0 -67 96 -67z" />
    <glyph glyph-name="ccedilla" unicode="&#xe7;" horiz-adv-x="641" 
d="M291 -15q-107 0 -165.5 58.5t-58.5 161.5q0 39 9 81q26 130 106 204t197 74q96 0 151 -48t59 -132l-96 -9q-4 50 -35.5 77.5t-87.5 27.5q-156 0 -197 -204q-7 -32 -7 -65q0 -68 33.5 -105t97.5 -37q109 0 164 127l95 -10q-36 -97 -104 -149t-161 -52zM196 -276h-85l14 66
h70q93 0 93 48q0 29 -37 29h-110l13 61h122q96 0 96 -82q0 -57 -47.5 -89.5t-128.5 -32.5z" />
    <glyph glyph-name="egrave" unicode="&#xe8;" horiz-adv-x="677" 
d="M383 825l73 -169h-76l-109 169h112zM597 244h-430q-3 -19 -3 -37q0 -70 36.5 -106t103.5 -36q110 0 174 90l86 -16q-40 -73 -109 -114t-158 -41q-110 0 -170.5 60t-60.5 163q0 31 9 77q24 124 108 202t210 78q104 0 161.5 -57t57.5 -154q0 -55 -15 -109zM385 488
q-73 0 -125 -44t-77 -127h332q2 32 2 35q0 136 -132 136z" />
    <glyph glyph-name="eacute" unicode="&#xe9;" horiz-adv-x="677" 
d="M442 825h123l-145 -169h-87zM597 244h-430q-3 -19 -3 -37q0 -70 36.5 -106t103.5 -36q110 0 174 90l86 -16q-40 -73 -109 -114t-158 -41q-110 0 -170.5 60t-60.5 163q0 31 9 77q24 124 108 202t210 78q104 0 161.5 -57t57.5 -154q0 -55 -15 -109zM385 488q-73 0 -125 -44
t-77 -127h332q2 32 2 35q0 136 -132 136z" />
    <glyph glyph-name="ecircumflex" unicode="&#xea;" horiz-adv-x="677" 
d="M509 649l-65 124l-118 -124h-100l173 184h98l100 -184h-88zM597 244h-430q-3 -19 -3 -37q0 -70 36.5 -106t103.5 -36q110 0 174 90l86 -16q-40 -73 -109 -114t-158 -41q-110 0 -170.5 60t-60.5 163q0 31 9 77q24 124 108 202t210 78q104 0 161.5 -57t57.5 -154
q0 -55 -15 -109zM385 488q-73 0 -125 -44t-77 -127h332q2 32 2 35q0 136 -132 136z" />
    <glyph glyph-name="edieresis" unicode="&#xeb;" horiz-adv-x="677" 
d="M279 789h99l-26 -122h-99zM519 789h99l-26 -122h-99zM393 564q104 0 161.5 -57t57.5 -154q0 -55 -15 -109h-430q-3 -19 -3 -37q0 -70 36.5 -106t103.5 -36q110 0 174 90l86 -16q-40 -73 -109 -114t-158 -41q-110 0 -170.5 60t-60.5 163q0 31 9 77q24 124 108 202t210 78z
M385 488q-73 0 -125 -44t-77 -127h332q2 32 2 35q0 136 -132 136z" />
    <glyph glyph-name="igrave" unicode="&#xec;" horiz-adv-x="313" 
d="M274 656h-76l-109 169h112zM148 0h-100l117 548h100z" />
    <glyph glyph-name="iacute" unicode="&#xed;" horiz-adv-x="313" 
d="M238 656h-87l109 169h123zM148 0h-100l117 548h100z" />
    <glyph glyph-name="icircumflex" unicode="&#xee;" horiz-adv-x="313" 
d="M144 649h-100l173 184h98l100 -184h-88l-65 124zM148 0h-100l117 548h100z" />
    <glyph glyph-name="idieresis" unicode="&#xef;" horiz-adv-x="313" 
d="M165 667h-99l26 122h99zM414 667h-99l26 122h99zM149 0h-100l116 548h100z" />
    <glyph glyph-name="eth" unicode="&#xf0;" horiz-adv-x="684" 
d="M669 806l-179 -102q133 -129 133 -308q0 -244 -151 -355q-76 -57 -181 -57q-102 0 -164 61q-64 60 -64 148q0 129 87 221t214 92q115 0 169 -79q-5 133 -115 233l-98 -71l-25 42l94 54q-39 31 -90 60l47 64q62 -33 115 -79l179 128zM303 68q164 0 210 213l3 15
q-9 60 -47.5 93.5t-101.5 33.5q-87 0 -144 -66q-58 -67 -58 -157q0 -60 36 -96t102 -36z" />
    <glyph glyph-name="ntilde" unicode="&#xf1;" horiz-adv-x="676" 
d="M588 821h82q-18 -85 -60.5 -128t-103.5 -43q-32 0 -55.5 13t-33.5 32q-25 45 -61 45q-24 0 -39.5 -20.5t-30.5 -68.5h-81q18 84 61 127.5t102 43.5q32 0 56 -13t35 -32q25 -45 59 -45q24 0 39.5 20.5t30.5 68.5zM424 563q80 0 124.5 -41.5t44.5 -114.5q0 -23 -7 -54
l-75 -353h-100l73 344q6 26 6 44q0 43 -24.5 67t-69.5 24q-101 0 -170 -116l-77 -363h-100l117 548h91l-11 -71q77 86 178 86z" />
    <glyph glyph-name="ograve" unicode="&#xf2;" horiz-adv-x="698" 
d="M466 656h-76l-109 169h112zM297 -16q-109 0 -170 58.5t-61 161.5q0 36 9 80q28 132 112.5 206t212.5 74q108 0 169.5 -59t61.5 -161q0 -32 -8 -80q-28 -131 -113 -205.5t-213 -74.5zM305 68q86 0 142 54t77 152q7 29 7 65q0 67 -35 104t-103 37q-86 0 -142.5 -54
t-77.5 -152q-7 -29 -7 -66q0 -67 35.5 -103.5t103.5 -36.5z" />
    <glyph glyph-name="oacute" unicode="&#xf3;" horiz-adv-x="698" 
d="M430 656h-87l109 169h123zM297 -16q-109 0 -170 58.5t-61 161.5q0 36 9 80q28 132 112.5 206t212.5 74q108 0 169.5 -59t61.5 -161q0 -32 -8 -80q-28 -131 -113 -205.5t-213 -74.5zM305 68q86 0 142 54t77 152q7 29 7 65q0 67 -35 104t-103 37q-86 0 -142.5 -54
t-77.5 -152q-7 -29 -7 -66q0 -67 35.5 -103.5t103.5 -36.5z" />
    <glyph glyph-name="ocircumflex" unicode="&#xf4;" horiz-adv-x="698" 
d="M336 649h-100l173 184h98l100 -184h-88l-65 124zM297 -16q-109 0 -170 58.5t-61 161.5q0 36 9 80q28 132 112.5 206t212.5 74q108 0 169.5 -59t61.5 -161q0 -32 -8 -80q-28 -131 -113 -205.5t-213 -74.5zM305 68q86 0 142 54t77 152q7 29 7 65q0 67 -35 104t-103 37
q-86 0 -142.5 -54t-77.5 -152q-7 -29 -7 -66q0 -67 35.5 -103.5t103.5 -36.5z" />
    <glyph glyph-name="otilde" unicode="&#xf5;" horiz-adv-x="698" 
d="M293 636h-81q18 84 61 127.5t102 43.5q32 0 56 -13t35 -32q25 -45 59 -45q24 0 39.5 20.5t30.5 68.5h82q-18 -85 -60.5 -128t-103.5 -43q-32 0 -55.5 13t-33.5 32q-25 45 -61 45q-24 0 -39.5 -20.5t-30.5 -68.5zM297 -16q-109 0 -170 58.5t-61 161.5q0 36 9 80
q28 132 112.5 206t212.5 74q108 0 169.5 -59t61.5 -161q0 -32 -8 -80q-28 -131 -113 -205.5t-213 -74.5zM305 68q86 0 142 54t77 152q7 29 7 65q0 67 -35 104t-103 37q-86 0 -142.5 -54t-77.5 -152q-7 -29 -7 -66q0 -67 35.5 -103.5t103.5 -36.5z" />
    <glyph glyph-name="odieresis" unicode="&#xf6;" horiz-adv-x="698" 
d="M362 667h-99l26 122h99zM602 667h-99l26 122h99zM297 -16q-109 0 -170 58.5t-61 161.5q0 36 9 80q28 132 112.5 206t212.5 74q108 0 169.5 -59t61.5 -161q0 -32 -8 -80q-28 -131 -113 -205.5t-213 -74.5zM305 68q86 0 142 54t77 152q7 29 7 65q0 67 -35 104t-103 37
q-86 0 -142.5 -54t-77.5 -152q-7 -29 -7 -66q0 -67 35.5 -103.5t103.5 -36.5z" />
    <glyph glyph-name="divide" unicode="&#xf7;" horiz-adv-x="751" 
d="M431 482h-111v112h111v-112zM662 292h-574v94h574v-94zM431 84h-111v112h111v-112z" />
    <glyph glyph-name="oslash" unicode="&#xf8;" horiz-adv-x="698" 
d="M633 569l42 -39l-72 -67q28 -50 28 -119q0 -32 -8 -80q-28 -131 -113 -205.5t-213 -74.5q-100 0 -159 49l-59 -54l-42 39l63 58q-34 52 -34 128q0 36 9 80q28 132 112.5 206t212.5 74q105 0 167 -56zM166 208q0 -38 10 -62l320 297q-34 37 -103 37q-86 0 -142.5 -54
t-77.5 -152q-7 -29 -7 -66zM531 339q0 28 -6 52l-317 -292q35 -31 97 -31q86 0 142 54t77 152q7 29 7 65z" />
    <glyph glyph-name="ugrave" unicode="&#xf9;" horiz-adv-x="676" 
d="M372 825l73 -169h-76l-109 169h112zM450 183l78 365h100l-117 -548h-92l11 69q-76 -84 -177 -84q-80 0 -124.5 41t-44.5 115q0 25 6 54l76 353h100l-74 -344q-6 -26 -6 -44q0 -43 24.5 -67t69.5 -24q100 0 170 114z" />
    <glyph glyph-name="uacute" unicode="&#xfa;" horiz-adv-x="676" 
d="M431 825h123l-145 -169h-87zM450 183l78 365h100l-117 -548h-92l11 69q-76 -84 -177 -84q-80 0 -124.5 41t-44.5 115q0 25 6 54l76 353h100l-74 -344q-6 -26 -6 -44q0 -43 24.5 -67t69.5 -24q100 0 170 114z" />
    <glyph glyph-name="ucircumflex" unicode="&#xfb;" horiz-adv-x="676" 
d="M498 649l-65 124l-118 -124h-100l173 184h98l100 -184h-88zM450 183l78 365h100l-117 -548h-92l11 69q-76 -84 -177 -84q-80 0 -124.5 41t-44.5 115q0 25 6 54l76 353h100l-74 -344q-6 -26 -6 -44q0 -43 24.5 -67t69.5 -24q100 0 170 114z" />
    <glyph glyph-name="udieresis" unicode="&#xfc;" horiz-adv-x="676" 
d="M268 789h99l-26 -122h-99zM508 789h99l-26 -122h-99zM450 183l78 365h100l-117 -548h-92l11 69q-76 -84 -177 -84q-80 0 -124.5 41t-44.5 115q0 25 6 54l76 353h100l-74 -344q-6 -26 -6 -44q0 -43 24.5 -67t69.5 -24q100 0 170 114z" />
    <glyph glyph-name="yacute" unicode="&#xfd;" horiz-adv-x="593" 
d="M382 825h123l-145 -169h-87zM247 109l237 439h109l-355 -627q-40 -69 -82 -99q-42 -27 -114 -27h-74l17 82h64q35 0 58.5 16t48.5 57l22 38l-96 560h101l63 -429z" />
    <glyph glyph-name="thorn" unicode="&#xfe;" horiz-adv-x="704" 
d="M434 564q94 0 148.5 -57.5t54.5 -159.5q0 -145 -81 -253q-82 -109 -210 -109t-179 97l-61 -286h-100l206 972h100l-60 -285q80 81 182 81zM332 64q58 0 106.5 41t73 102.5t22.5 126.5q0 69 -34.5 110t-92.5 41q-56 0 -103.5 -34t-78.5 -93l-33 -146q4 -72 41 -110t99 -38
z" />
    <glyph glyph-name="ydieresis" unicode="&#xff;" horiz-adv-x="593" 
d="M219 789h99l-26 -122h-99zM459 789h99l-26 -122h-99zM247 109l237 439h109l-355 -627q-40 -69 -82 -99q-42 -27 -114 -27h-74l17 82h64q35 0 58.5 16t48.5 57l22 38l-96 560h101l63 -429z" />
    <glyph glyph-name="Amacron" unicode="&#x100;" horiz-adv-x="764" 
d="M323 891l17 78h359l-17 -78h-359zM-38 0l444 768h144l126 -768h-102l-30 197h-360l-111 -197h-111zM446 661l-214 -379h299l-57 379l-5 45z" />
    <glyph glyph-name="amacron" unicode="&#x101;" horiz-adv-x="652" 
d="M232 687l17 78h359l-17 -78h-359zM376 564q101 0 150.5 -35t49.5 -98q0 -15 -5 -45l-56 -262q-5 -28 2.5 -39.5t32.5 -11.5h20l-16 -73h-45q-36 0 -59.5 19t-27.5 51q-74 -86 -206 -86q-82 0 -127.5 37.5t-45.5 106.5q0 81 58.5 124t182.5 65l138 24q23 4 45 13l6 30
q11 51 -16 76t-92 25q-70 0 -107.5 -24.5t-55.5 -82.5l-88 10q47 176 262 176zM425 165l25 116q-16 -6 -36 -9l-130 -24q-73 -13 -107 -38.5t-34 -71.5q0 -80 105 -80q55 0 103 28.5t74 78.5z" />
    <glyph glyph-name="Abreve" unicode="&#x102;" horiz-adv-x="764" 
d="M510 874q-78 0 -119.5 30t-41.5 85q0 22 4 39h69q-2 -16 -2 -20q0 -65 92 -65q108 0 127 85h74q-19 -77 -67.5 -115.5t-135.5 -38.5zM-38 0l444 768h144l126 -768h-102l-30 197h-360l-111 -197h-111zM446 661l-214 -379h299l-57 379l-5 45z" />
    <glyph glyph-name="abreve" unicode="&#x103;" horiz-adv-x="652" 
d="M417 670q-78 0 -119 30t-41 85q0 14 4 39h68q0 -4 -0.5 -7.5t-1 -5.5t-0.5 -4v-3q0 -65 92 -65q108 0 127 85h74q-19 -77 -67 -115.5t-136 -38.5zM376 564q101 0 150.5 -35t49.5 -98q0 -15 -5 -45l-56 -262q-5 -28 2.5 -39.5t32.5 -11.5h20l-16 -73h-45q-36 0 -59.5 19
t-27.5 51q-74 -86 -206 -86q-82 0 -127.5 37.5t-45.5 106.5q0 81 58.5 124t182.5 65l138 24q23 4 45 13l6 30q11 51 -16 76t-92 25q-70 0 -107.5 -24.5t-55.5 -82.5l-88 10q47 176 262 176zM425 165l25 116q-16 -6 -36 -9l-130 -24q-73 -13 -107 -38.5t-34 -71.5
q0 -80 105 -80q55 0 103 28.5t74 78.5z" />
    <glyph glyph-name="Aogonek" unicode="&#x104;" horiz-adv-x="764" 
d="M517 -123q0 -40 55 -40h34l-14 -67h-54q-55 0 -85 25t-30 66q0 67 78 108l72 38l-29 190h-360l-111 -197h-111l444 768h144l126 -768l-105 -61q-54 -29 -54 -62zM446 661l-214 -379h299l-57 379l-5 45z" />
    <glyph glyph-name="aogonek" unicode="&#x105;" horiz-adv-x="652" 
d="M571 386l-56 -262q-5 -28 2.5 -39.5t32.5 -11.5h20l-16 -73l-105 -61q-54 -29 -54 -62q0 -40 55 -40h34l-14 -67h-54q-55 0 -85 25t-30 66q0 67 77 108l82 43q-33 19 -38 58q-74 -86 -206 -86q-82 0 -127.5 37.5t-45.5 106.5q0 81 58.5 124t182.5 65l138 24q23 4 45 13
l6 30q11 51 -16 76t-92 25q-70 0 -107.5 -24.5t-55.5 -82.5l-88 10q47 176 262 176q101 0 150.5 -35t49.5 -98q0 -15 -5 -45zM425 165l25 116q-16 -6 -36 -9l-130 -24q-73 -13 -107 -38.5t-34 -71.5q0 -80 105 -80q55 0 103 28.5t74 78.5z" />
    <glyph glyph-name="Cacute" unicode="&#x106;" horiz-adv-x="851" 
d="M562 876h-87l109 169h123zM409 -18q-141 0 -223 84q-82 83 -82 227q0 61 13 119q37 176 155 276q116 98 276 98q121 0 196 -57t96 -165l-98 -11q-13 70 -65.5 108t-135.5 38q-121 0 -209 -79q-90 -79 -120 -230q-10 -49 -10 -96q0 -107 56 -164t159 -57q185 0 269 171
l94 -11q-50 -120 -148 -185q-99 -66 -223 -66z" />
    <glyph glyph-name="cacute" unicode="&#x107;" horiz-adv-x="641" 
d="M405 656h-87l109 169h123zM291 -15q-107 0 -165.5 58.5t-58.5 161.5q0 39 9 81q26 130 106 204t197 74q96 0 151 -48t59 -132l-96 -9q-4 50 -35.5 77.5t-87.5 27.5q-156 0 -197 -204q-7 -32 -7 -65q0 -68 33.5 -105t97.5 -37q109 0 164 127l95 -10q-36 -97 -104 -149
t-161 -52z" />
    <glyph glyph-name="Ccircumflex" unicode="&#x108;" horiz-adv-x="851" 
d="M468 869h-100l173 184h98l100 -184h-88l-65 124zM409 -18q-141 0 -223 84q-82 83 -82 227q0 61 13 119q37 176 155 276q116 98 276 98q121 0 196 -57t96 -165l-98 -11q-13 70 -65.5 108t-135.5 38q-121 0 -209 -79q-90 -79 -120 -230q-10 -49 -10 -96q0 -107 56 -164
t159 -57q185 0 269 171l94 -11q-50 -120 -148 -185q-99 -66 -223 -66z" />
    <glyph glyph-name="ccircumflex" unicode="&#x109;" horiz-adv-x="641" 
d="M311 649h-100l173 184h98l100 -184h-88l-65 124zM291 -15q-107 0 -165.5 58.5t-58.5 161.5q0 39 9 81q26 130 106 204t197 74q96 0 151 -48t59 -132l-96 -9q-4 50 -35.5 77.5t-87.5 27.5q-156 0 -197 -204q-7 -32 -7 -65q0 -68 33.5 -105t97.5 -37q109 0 164 127l95 -10
q-36 -97 -104 -149t-161 -52z" />
    <glyph glyph-name="Cdotaccent" unicode="&#x10a;" horiz-adv-x="851" 
d="M614 887h-99l26 122h99zM409 -18q-141 0 -223 84q-82 83 -82 227q0 61 13 119q37 176 155 276q116 98 276 98q121 0 196 -57t96 -165l-98 -11q-13 70 -65.5 108t-135.5 38q-121 0 -209 -79q-90 -79 -120 -230q-10 -49 -10 -96q0 -107 56 -164t159 -57q185 0 269 171
l94 -11q-50 -120 -148 -185q-99 -66 -223 -66z" />
    <glyph glyph-name="cdotaccent" unicode="&#x10b;" horiz-adv-x="641" 
d="M457 667h-99l26 122h99zM291 -15q-107 0 -165.5 58.5t-58.5 161.5q0 39 9 81q26 130 106 204t197 74q96 0 151 -48t59 -132l-96 -9q-4 50 -35.5 77.5t-87.5 27.5q-156 0 -197 -204q-7 -32 -7 -65q0 -68 33.5 -105t97.5 -37q109 0 164 127l95 -10q-36 -97 -104 -149
t-161 -52z" />
    <glyph glyph-name="Ccaron" unicode="&#x10c;" horiz-adv-x="851" 
d="M602 864h-98l-93 183h87l65 -124l118 124h102zM409 -18q-141 0 -223 84q-82 83 -82 227q0 61 13 119q37 176 155 276q116 98 276 98q121 0 196 -57t96 -165l-98 -11q-13 70 -65.5 108t-135.5 38q-121 0 -209 -79q-90 -79 -120 -230q-10 -49 -10 -96q0 -107 56 -164
t159 -57q185 0 269 171l94 -11q-50 -120 -148 -185q-99 -66 -223 -66z" />
    <glyph glyph-name="ccaron" unicode="&#x10d;" horiz-adv-x="641" 
d="M445 644h-99l-93 183h87l65 -124l118 124h102zM291 -15q-107 0 -165.5 58.5t-58.5 161.5q0 39 9 81q26 130 106 204t197 74q96 0 151 -48t59 -132l-96 -9q-4 50 -35.5 77.5t-87.5 27.5q-156 0 -197 -204q-7 -32 -7 -65q0 -68 33.5 -105t97.5 -37q109 0 164 127l95 -10
q-36 -97 -104 -149t-161 -52z" />
    <glyph glyph-name="Dcaron" unicode="&#x10e;" horiz-adv-x="834" 
d="M741 1047l-181 -183h-98l-93 183h87l65 -124l118 124h102zM224 769h244q157 0 238.5 -71t81.5 -209q0 -43 -12 -117q-74 -372 -435 -372h-281zM676 383q12 60 12 107q0 104 -57 149.5t-169 45.5h-153l-128 -602h162q118 0 203 60q94 67 130 240z" />
    <glyph glyph-name="dcaron" unicode="&#x10f;" horiz-adv-x="874" 
d="M536 469l64 299h100l-164 -768h-93l11 69q-79 -85 -185 -85q-95 0 -149 57.5t-54 159.5q0 39 9 84q25 126 102 203q75 75 180 75q128 0 179 -94zM741 487l122 281h116l-164 -281h-74zM295 63q117 0 182 128l33 151q-5 69 -42 105.5t-98 36.5q-72 0 -125 -57t-70 -153
q-6 -32 -6 -60q0 -69 34.5 -110t91.5 -41z" />
    <glyph glyph-name="Dcroat" unicode="&#x110;" horiz-adv-x="909" 
d="M299 769h245q156 0 238 -71t82 -209q0 -49 -13 -117q-73 -372 -435 -372h-281l75 351l-166 -9l19 84l161 -9zM751 383q12 60 12 107q0 105 -57 150t-169 45h-153l-57 -268l193 9l-19 -84l-188 9l-57 -268h162q273 0 333 300z" />
    <glyph glyph-name="dslash" unicode="&#x111;" horiz-adv-x="810" 
d="M686 705l118 6l-17 -76l-114 6l-137 -641h-93l11 69q-79 -85 -185 -85q-95 0 -149 57.5t-54 159.5q0 39 9 84q25 126 102 203q75 75 180 75q128 0 179 -94l37 175l-163 1l17 76l160 -15l17 81h100zM295 63q117 0 182 128l33 151q-5 69 -42 105.5t-98 36.5q-72 0 -125 -57
t-70 -153q-6 -32 -6 -60q0 -69 34.5 -110t91.5 -41z" />
    <glyph glyph-name="Emacron" unicode="&#x112;" horiz-adv-x="718" 
d="M352 969h359l-17 -78h-359zM753 768l-18 -83h-429l-53 -248h397l-19 -83h-395l-58 -271h435l-18 -83h-535l164 768h529z" />
    <glyph glyph-name="emacron" unicode="&#x113;" horiz-adv-x="677" 
d="M260 749h359l-17 -78h-359zM393 564q104 0 161.5 -57t57.5 -154q0 -55 -15 -109h-430q-3 -19 -3 -37q0 -70 36.5 -106t103.5 -36q110 0 174 90l86 -16q-40 -73 -109 -114t-158 -41q-110 0 -170.5 60t-60.5 163q0 31 9 77q24 124 108 202t210 78zM385 488q-73 0 -125 -44
t-77 -127h332q2 32 2 35q0 136 -132 136z" />
    <glyph glyph-name="Ebreve" unicode="&#x114;" horiz-adv-x="718" 
d="M521 874q-78 0 -119.5 30t-41.5 85q0 22 4 39h69q-2 -16 -2 -20q0 -65 92 -65q108 0 127 85h74q-19 -77 -67.5 -115.5t-135.5 -38.5zM753 768l-18 -83h-429l-53 -248h397l-19 -83h-395l-58 -271h435l-18 -83h-535l164 768h529z" />
    <glyph glyph-name="ebreve" unicode="&#x115;" horiz-adv-x="677" 
d="M429 654q-78 0 -119 30t-41 85q0 14 4 39h68q0 -4 -0.5 -7.5t-1 -5.5t-0.5 -4v-3q0 -65 92 -65q108 0 127 85h74q-19 -77 -67 -115.5t-136 -38.5zM393 564q104 0 161.5 -57t57.5 -154q0 -55 -15 -109h-430q-3 -19 -3 -37q0 -70 36.5 -106t103.5 -36q110 0 174 90l86 -16
q-40 -73 -109 -114t-158 -41q-110 0 -170.5 60t-60.5 163q0 31 9 77q24 124 108 202t210 78zM385 488q-73 0 -125 -44t-77 -127h332q2 32 2 35q0 136 -132 136z" />
    <glyph glyph-name="Edotaccent" unicode="&#x116;" horiz-adv-x="718" 
d="M491 1009h99l-26 -122h-99zM753 768l-18 -83h-429l-53 -248h397l-19 -83h-395l-58 -271h435l-18 -83h-535l164 768h529z" />
    <glyph glyph-name="edotaccent" unicode="&#x117;" horiz-adv-x="677" 
d="M399 789h99l-26 -122h-99zM597 244h-430q-3 -19 -3 -37q0 -70 36.5 -106t103.5 -36q110 0 174 90l86 -16q-40 -73 -109 -114t-158 -41q-110 0 -170.5 60t-60.5 163q0 31 9 77q24 124 108 202t210 78q104 0 161.5 -57t57.5 -154q0 -55 -15 -109zM385 488q-73 0 -125 -44
t-77 -127h332q2 32 2 35q0 136 -132 136z" />
    <glyph glyph-name="Eogonek" unicode="&#x118;" horiz-adv-x="718" 
d="M753 768l-18 -83h-429l-53 -248h397l-19 -83h-395l-58 -271h435l-18 -83l-105 -61q-54 -29 -54 -62q0 -40 55 -40h34l-14 -67h-54q-55 0 -85 25t-30 66q0 67 78 108l59 31h-419l164 768h529z" />
    <glyph glyph-name="eogonek" unicode="&#x119;" horiz-adv-x="677" 
d="M597 244h-430q-3 -19 -3 -37q0 -70 36.5 -106t103.5 -36q110 0 174 90l86 -16q-49 -87 -136 -128l-93 -54q-54 -29 -54 -62q0 -40 55 -40h34l-14 -67h-54q-55 0 -85 25t-30 66q0 67 75 107q-93 10 -144.5 68.5t-51.5 152.5q0 31 9 77q24 124 108 202t210 78
q104 0 161.5 -57t57.5 -154q0 -55 -15 -109zM385 488q-73 0 -125 -44t-77 -127h332q2 32 2 35q0 136 -132 136z" />
    <glyph glyph-name="Ecaron" unicode="&#x11a;" horiz-adv-x="718" 
d="M732 1047l-181 -183h-98l-93 183h87l65 -124l118 124h102zM753 768l-18 -83h-429l-53 -248h397l-19 -83h-395l-58 -271h435l-18 -83h-535l164 768h529z" />
    <glyph glyph-name="ecaron" unicode="&#x11b;" horiz-adv-x="677" 
d="M640 827l-180 -183h-99l-93 183h87l65 -124l118 124h102zM393 564q104 0 161.5 -57t57.5 -154q0 -55 -15 -109h-430q-3 -19 -3 -37q0 -70 36.5 -106t103.5 -36q110 0 174 90l86 -16q-40 -73 -109 -114t-158 -41q-110 0 -170.5 60t-60.5 163q0 31 9 77q24 124 108 202
t210 78zM385 488q-73 0 -125 -44t-77 -127h332q2 32 2 35q0 136 -132 136z" />
    <glyph glyph-name="Gcircumflex" unicode="&#x11c;" horiz-adv-x="898" 
d="M642 869l-65 124l-118 -124h-100l173 184h98l100 -184h-88zM691 317h-220l17 81h319l-85 -398h-77l7 97q-100 -114 -260 -114q-135 0 -212 83t-77 221q0 53 11 108q39 186 150 288t288 102q114 0 187 -59t92 -165l-101 -13q-34 154 -191 154q-120 0 -207 -84t-117 -233
q-10 -47 -10 -96q0 -105 53.5 -163.5t147.5 -58.5q87 0 155.5 40.5t110.5 118.5z" />
    <glyph glyph-name="gcircumflex" unicode="&#x11d;" horiz-adv-x="692" 
d="M526 649l-65 124l-118 -124h-100l173 184h98l100 -184h-88zM533 469l24 80h87l-114 -536q-47 -227 -275 -227q-107 0 -163.5 43t-60.5 122l95 9q6 -99 137 -99q71 0 112 37.5t59 119.5l17 77q-76 -70 -177 -70q-93 0 -147.5 55.5t-54.5 150.5q0 137 82 234q83 98 208 98
q116 0 171 -94zM207 140q31 -36 90 -36t106 34q49 36 76 89l28 134q-5 58 -42 90.5t-90 32.5q-89 0 -145 -74t-56 -171q0 -63 33 -99z" />
    <glyph glyph-name="Gbreve" unicode="&#x11e;" horiz-adv-x="898" 
d="M562 874q-78 0 -119.5 30t-41.5 85q0 22 4 39h69q-2 -16 -2 -20q0 -65 92 -65q108 0 127 85h74q-19 -77 -67.5 -115.5t-135.5 -38.5zM691 317h-220l17 81h319l-85 -398h-77l7 97q-100 -114 -260 -114q-135 0 -212 83t-77 221q0 53 11 108q39 186 150 288t288 102
q114 0 187 -59t92 -165l-101 -13q-34 154 -191 154q-120 0 -207 -84t-117 -233q-10 -47 -10 -96q0 -105 53.5 -163.5t147.5 -58.5q87 0 155.5 40.5t110.5 118.5z" />
    <glyph glyph-name="gbreve" unicode="&#x11f;" horiz-adv-x="692" 
d="M446 654q-78 0 -119 30t-41 85q0 14 4 39h68q0 -4 -0.5 -7.5t-1 -5.5t-0.5 -4v-3q0 -65 92 -65q108 0 127 85h74q-19 -77 -67 -115.5t-136 -38.5zM533 469l24 80h87l-114 -536q-47 -227 -275 -227q-107 0 -163.5 43t-60.5 122l95 9q6 -99 137 -99q71 0 112 37.5t59 119.5
l17 77q-76 -70 -177 -70q-93 0 -147.5 55.5t-54.5 150.5q0 137 82 234q83 98 208 98q116 0 171 -94zM207 140q31 -36 90 -36t106 34q49 36 76 89l28 134q-5 58 -42 90.5t-90 32.5q-89 0 -145 -74t-56 -171q0 -63 33 -99z" />
    <glyph glyph-name="Gdotaccent" unicode="&#x120;" horiz-adv-x="898" 
d="M531 1009h99l-26 -122h-99zM691 317h-220l17 81h319l-85 -398h-77l7 97q-100 -114 -260 -114q-135 0 -212 83t-77 221q0 53 11 108q39 186 150 288t288 102q114 0 187 -59t92 -165l-101 -13q-34 154 -191 154q-120 0 -207 -84t-117 -233q-10 -47 -10 -96
q0 -105 53.5 -163.5t147.5 -58.5q87 0 155.5 40.5t110.5 118.5z" />
    <glyph glyph-name="gdotaccent" unicode="&#x121;" horiz-adv-x="692" 
d="M416 789h99l-26 -122h-99zM533 469l24 80h87l-114 -536q-47 -227 -275 -227q-107 0 -163.5 43t-60.5 122l95 9q6 -99 137 -99q71 0 112 37.5t59 119.5l17 77q-76 -70 -177 -70q-93 0 -147.5 55.5t-54.5 150.5q0 137 82 234q83 98 208 98q116 0 171 -94zM207 140
q31 -36 90 -36t106 34q49 36 76 89l28 134q-5 58 -42 90.5t-90 32.5q-89 0 -145 -74t-56 -171q0 -63 33 -99z" />
    <glyph glyph-name="uni0122" unicode="&#x122;" horiz-adv-x="898" 
d="M691 317h-220l17 81h319l-85 -398h-77l7 97q-100 -114 -260 -114q-135 0 -212 83t-77 221q0 53 11 108q39 186 150 288t288 102q114 0 187 -59t92 -165l-101 -13q-34 154 -191 154q-120 0 -207 -84t-117 -233q-10 -47 -10 -96q0 -105 53.5 -163.5t147.5 -58.5
q87 0 155.5 40.5t110.5 118.5zM360 -167l-91 -22l20 93h136l-19 -91q-21 -94 -127 -94h-29l9 46h29q58 0 66 38z" />
    <glyph glyph-name="uni0123" unicode="&#x123;" horiz-adv-x="692" 
d="M437 740l92 21l-20 -94h-137l20 93q21 94 127 94h29l-9 -45h-29q-58 0 -66 -39zM533 469l24 80h87l-114 -536q-47 -227 -275 -227q-107 0 -163.5 43t-60.5 122l95 9q6 -99 137 -99q71 0 112 37.5t59 119.5l17 77q-76 -70 -177 -70q-93 0 -147.5 55.5t-54.5 150.5
q0 137 82 234q83 98 208 98q116 0 171 -94zM207 140q31 -36 90 -36t106 34q49 36 76 89l28 134q-5 58 -42 90.5t-90 32.5q-89 0 -145 -74t-56 -171q0 -63 33 -99z" />
    <glyph glyph-name="Hcircumflex" unicode="&#x124;" horiz-adv-x="864" 
d="M651 869l-65 124l-118 -124h-100l173 184h98l100 -184h-88zM678 441l70 327h103l-164 -768h-103l76 354h-421l-76 -354h-103l164 768h103l-70 -327h421z" />
    <glyph glyph-name="hcircumflex" unicode="&#x125;" horiz-adv-x="676" 
d="M375 869l-65 124l-118 -124h-100l173 184h98l100 -184h-88zM424 563q80 0 124.5 -41.5t44.5 -114.5q0 -29 -7 -53l-75 -354h-100l73 344q6 24 6 44q0 43 -24.5 67t-69.5 24q-102 0 -169 -114l-78 -365h-100l164 768h100l-61 -284q73 79 172 79z" />
    <glyph glyph-name="Hbar" unicode="&#x126;" horiz-adv-x="864" 
d="M716 620l32 148h103l-164 -768h-103l67 314h-421l-67 -314h-103l164 768h103l-32 -148h421zM277 535l-29 -136h421l29 136h-421z" />
    <glyph glyph-name="hbar" unicode="&#x127;" horiz-adv-x="710" 
d="M453 543q80 0 124.5 -41t44.5 -115q0 -26 -6 -53l-72 -334h-100l70 324q6 24 6 44q0 43 -24.5 67t-69.5 24q-103 0 -172 -118l-73 -341h-100l133 622l-127 -6l16 76l124 -6l22 103h100l-21 -101l165 14l-15 -76l-164 -1l-35 -163q77 81 174 81z" />
    <glyph glyph-name="Itilde" unicode="&#x128;" horiz-adv-x="339" 
d="M161 856h-81q18 84 61 127.5t102 43.5q32 0 56 -13t35 -32q25 -45 59 -45q24 0 39.5 20.5t30.5 68.5h82q-18 -85 -60.5 -128t-103.5 -43q-32 0 -55.5 13t-33.5 32q-25 45 -61 45q-24 0 -39.5 -20.5t-30.5 -68.5zM163 0h-103l164 768h103z" />
    <glyph glyph-name="itilde" unicode="&#x129;" horiz-adv-x="313" 
d="M100 636h-81q18 84 61 127.5t102 43.5q32 0 56 -13t35 -32q25 -45 59 -45q24 0 39.5 20.5t30.5 68.5h82q-18 -85 -60.5 -128t-103.5 -43q-32 0 -55.5 13t-33.5 32q-25 45 -61 45q-24 0 -39.5 -20.5t-30.5 -68.5zM148 0h-100l117 548h100z" />
    <glyph glyph-name="Imacron" unicode="&#x12a;" horiz-adv-x="339" 
d="M481 891h-359l17 78h359zM163 0h-103l164 768h103z" />
    <glyph glyph-name="imacron" unicode="&#x12b;" horiz-adv-x="313" 
d="M420 671h-359l17 78h359zM148 0h-100l117 548h100z" />
    <glyph glyph-name="Ibreve" unicode="&#x12c;" horiz-adv-x="339" 
d="M308 874q-78 0 -119.5 30t-41.5 85q0 22 4 39h69q-2 -16 -2 -20q0 -65 92 -65q108 0 127 85h74q-19 -77 -67.5 -115.5t-135.5 -38.5zM163 0h-103l164 768h103z" />
    <glyph glyph-name="ibreve" unicode="&#x12d;" horiz-adv-x="313" 
d="M247 654q-78 0 -119 30t-41 85q0 14 4 39h68q0 -4 -0.5 -7.5t-1 -5.5t-0.5 -4v-3q0 -65 92 -65q108 0 127 85h74q-19 -77 -67 -115.5t-136 -38.5zM148 0h-100l117 548h100z" />
    <glyph glyph-name="Iogonek" unicode="&#x12e;" horiz-adv-x="339" 
d="M163 0l-74 -60q-28 -23 -36.5 -34t-8.5 -28q0 -41 56 -41h28l-13 -67h-46q-55 0 -87 25t-32 68q0 60 70 106l45 31h-5l164 768h103z" />
    <glyph glyph-name="iogonek" unicode="&#x12f;" horiz-adv-x="313" 
d="M190 667l26 122h100l-26 -122h-100zM50 0h-2l117 547h100l-117 -547l-74 -60q-3 -2 -7 -6q-23 -20 -29.5 -29t-9.5 -27q0 -41 56 -41h29l-14 -67h-46q-55 0 -86.5 25t-31.5 68q0 61 70 106z" />
    <glyph glyph-name="Idot" unicode="&#x130;" horiz-adv-x="339" 
d="M354 882h-109l27 122h108zM163 0h-103l164 768h103z" />
    <glyph glyph-name="dotlessi" unicode="&#x131;" horiz-adv-x="313" 
d="M148 0h-100l117 548h100z" />
    <glyph glyph-name="IJ" unicode="&#x132;" horiz-adv-x="983" 
d="M163 0h-103l164 768h103zM569 -13q-97 0 -156.5 49.5t-59.5 132.5q0 35 14 88h101q-13 -49 -13 -82q0 -104 119 -104q145 0 178 154l116 543h102l-116 -543q-24 -113 -97 -175.5t-188 -62.5z" />
    <glyph glyph-name="ij" unicode="&#x133;" horiz-adv-x="626" 
d="M290 667h-100l26 122h100zM602 667h-100l26 122h100zM148 0h-100l117 548h100zM279 -205h-61l17 81h34q36 0 53.5 14.5t25.5 51.5l129 606h100l-130 -612q-15 -75 -53.5 -108t-114.5 -33z" />
    <glyph glyph-name="Jcircumflex" unicode="&#x134;" horiz-adv-x="673" 
d="M539 869h-100l173 184h98l100 -184h-88l-65 124zM259 -13q-97 0 -156.5 49.5t-59.5 132.5q0 35 14 88h101q-13 -49 -13 -82q0 -104 119 -104q145 0 178 154l116 543h102l-116 -543q-24 -113 -97 -175.5t-188 -62.5z" />
    <glyph glyph-name="jcircumflex" unicode="&#x135;" horiz-adv-x="313" 
d="M144 650h-100l173 184h98l100 -184h-88l-65 124zM-34 -205h-61l17 81h34q36 0 53.5 14.5t25.5 51.5l129 606h100l-130 -612q-15 -75 -53.5 -108t-114.5 -33z" />
    <glyph glyph-name="uni0136" unicode="&#x136;" horiz-adv-x="750" 
d="M672 769h134l-360 -334l227 -435h-110l-195 374l-155 -138l-50 -236h-103l164 769h103l-87 -407zM337 -167l-91 -22l20 93h136l-19 -91q-21 -94 -128 -94h-29l10 46h29q58 0 66 38z" />
    <glyph glyph-name="uni0137" unicode="&#x137;" horiz-adv-x="647" 
d="M517 548h132l-260 -209l157 -339h-106l-126 286l-124 -95l-41 -191h-100l164 768h100l-100 -466zM259 -167l-91 -22l20 93h136l-19 -91q-21 -94 -128 -94h-29l10 46h29q58 0 66 38z" />
    <glyph glyph-name="kgreenlandic" unicode="&#x138;" horiz-adv-x="647" 
d="M517 548h132l-260 -209l157 -339h-106l-126 286l-125 -95l-40 -191h-100l116 548h100l-52 -247z" />
    <glyph glyph-name="Lacute" unicode="&#x139;" horiz-adv-x="669" 
d="M338 1045h123l-145 -169h-87zM325 768l-146 -685h401l-19 -83h-501l164 768h101z" />
    <glyph glyph-name="lacute" unicode="&#x13a;" horiz-adv-x="314" 
d="M286 876h-87l109 169h123zM149 0h-100l164 768h100z" />
    <glyph glyph-name="uni013B" unicode="&#x13b;" horiz-adv-x="669" 
d="M325 768l-146 -685h401l-19 -83h-501l164 768h101zM307 -167l-91 -22l20 93h136l-19 -91q-21 -94 -128 -94h-29l10 46h29q58 0 66 38z" />
    <glyph glyph-name="uni013C" unicode="&#x13c;" horiz-adv-x="314" 
d="M149 0h-100l164 768h100zM1 -281h-29l10 46h29q58 0 66 38l6 30l-91 -22l20 93h136l-19 -91q-21 -94 -128 -94z" />
    <glyph glyph-name="Lcaron" unicode="&#x13d;" horiz-adv-x="669" 
d="M224 768h101l-146 -685h401l-19 -83h-501zM524 768h116l-165 -281h-74z" />
    <glyph glyph-name="lcaron" unicode="&#x13e;" horiz-adv-x="476" 
d="M149 0h-100l164 768h100zM417 487h-74l122 281h116z" />
    <glyph glyph-name="Ldot" unicode="&#x13f;" horiz-adv-x="669" 
d="M325 768l-146 -685h401l-19 -83h-501l164 768h101zM410 453h115l-26 -115h-114z" />
    <glyph glyph-name="ldot" unicode="&#x140;" horiz-adv-x="475" 
d="M149 0h-100l164 768h100zM448 316h-133l28 135h133z" />
    <glyph glyph-name="Lslash" unicode="&#x141;" horiz-adv-x="796" 
d="M365 359l-59 -276h401l-19 -83h-502l67 312l-238 -107l39 91l212 79l84 393h102l-74 -347l328 147l-38 -92z" />
    <glyph glyph-name="lslash" unicode="&#x142;" horiz-adv-x="514" 
d="M340 449l157 87l-20 -97l-153 -63l-80 -376h-100l68 319l-146 -80l20 96l142 58l80 375h100z" />
    <glyph glyph-name="Nacute" unicode="&#x143;" horiz-adv-x="868" 
d="M578 1045h123l-145 -169h-87zM623 128l135 641h97l-164 -769h-108l-290 640l-136 -640h-97l164 769h109z" />
    <glyph glyph-name="nacute" unicode="&#x144;" horiz-adv-x="676" 
d="M445 840h123l-145 -169h-87zM424 563q80 0 124.5 -41.5t44.5 -114.5q0 -23 -7 -54l-75 -353h-100l73 344q6 26 6 44q0 43 -24.5 67t-69.5 24q-101 0 -170 -116l-77 -363h-100l117 548h91l-11 -71q77 86 178 86z" />
    <glyph glyph-name="uni0145" unicode="&#x145;" horiz-adv-x="868" 
d="M623 128l135 641h97l-164 -769h-108l-290 640l-136 -640h-97l164 769h109zM338 -167l-91 -22l20 93h136l-19 -91q-21 -94 -128 -94h-29l10 46h29q58 0 66 38z" />
    <glyph glyph-name="uni0146" unicode="&#x146;" horiz-adv-x="676" 
d="M424 563q80 0 124.5 -41.5t44.5 -114.5q0 -23 -7 -54l-75 -353h-100l73 344q6 26 6 44q0 43 -24.5 67t-69.5 24q-101 0 -170 -116l-77 -363h-100l117 548h91l-11 -71q77 86 178 86zM264 -167l-91 -22l20 93h136l-19 -91q-21 -94 -128 -94h-29l10 46h29q58 0 66 38z" />
    <glyph glyph-name="Ncaron" unicode="&#x147;" horiz-adv-x="868" 
d="M776 1047l-181 -183h-98l-93 183h87l65 -124l118 124h102zM623 128l135 641h97l-164 -769h-108l-290 640l-136 -640h-97l164 769h109z" />
    <glyph glyph-name="ncaron" unicode="&#x148;" horiz-adv-x="676" 
d="M643 842l-180 -183h-99l-93 183h87l65 -124l118 124h102zM424 563q80 0 124.5 -41.5t44.5 -114.5q0 -23 -7 -54l-75 -353h-100l73 344q6 26 6 44q0 43 -24.5 67t-69.5 24q-101 0 -170 -116l-77 -363h-100l117 548h91l-11 -71q77 86 178 86z" />
    <glyph glyph-name="napostrophe" unicode="&#x149;" horiz-adv-x="883" 
d="M158 768h157l-37 -176q-17 -81 -56.5 -115.5t-116.5 -34.5h-15l13 63h15q76 0 93 77l16 76l-98 -25zM630 563q80 0 124.5 -41.5t44.5 -114.5q0 -25 -6 -54l-76 -353h-100l74 344q5 32 5 44q0 43 -24 67t-69 24q-100 0 -171 -116l-77 -363h-100l117 548h91l-11 -71
q77 86 178 86z" />
    <glyph glyph-name="Eng" unicode="&#x14a;" horiz-adv-x="867" 
d="M756 769h97l-122 -578l-51 -241q-16 -73 -62.5 -114t-119.5 -41h-90l17 81h77q36 0 53.5 14.5t25.5 51.5l15 73l-309 597l-130 -612h-97l163 769h91l313 -607z" />
    <glyph glyph-name="eng" unicode="&#x14b;" horiz-adv-x="676" 
d="M424 563q80 0 124.5 -41.5t44.5 -114.5q0 -23 -7 -54l-86 -403q-15 -73 -62 -114t-120 -41h-51l18 81h34q37 0 54.5 15t24.5 51l86 402q6 26 6 44q0 43 -24.5 67t-69.5 24q-101 0 -170 -116l-77 -363h-100l117 548h91l-11 -71q77 86 178 86z" />
    <glyph glyph-name="Omacron" unicode="&#x14c;" horiz-adv-x="925" 
d="M753 905h-359l17 78h359zM422 -17q-148 0 -232 86q-85 85 -85 229q0 54 10 101q34 173 151 281q115 106 281 106q149 0 235 -86q85 -86 85 -230q0 -51 -11 -101q-35 -176 -150 -281q-116 -105 -284 -105zM429 66q129 0 215 87q86 85 114 231q9 45 9 84q0 109 -60 171.5
t-167 62.5q-128 0 -212 -86q-84 -87 -114 -232q-9 -45 -9 -84q0 -109 59 -171.5t165 -62.5z" />
    <glyph glyph-name="omacron" unicode="&#x14d;" horiz-adv-x="698" 
d="M612 671h-359l17 78h359zM297 -16q-109 0 -170 58.5t-61 161.5q0 36 9 80q28 132 112.5 206t212.5 74q108 0 169.5 -59t61.5 -161q0 -32 -8 -80q-28 -131 -113 -205.5t-213 -74.5zM305 68q86 0 142 54t77 152q7 29 7 65q0 67 -35 104t-103 37q-86 0 -142.5 -54
t-77.5 -152q-7 -29 -7 -66q0 -67 35.5 -103.5t103.5 -36.5z" />
    <glyph glyph-name="Obreve" unicode="&#x14e;" horiz-adv-x="925" 
d="M580 888q-78 0 -119.5 30t-41.5 85q0 22 4 39h69q-2 -16 -2 -20q0 -65 92 -65q108 0 127 85h74q-19 -77 -67.5 -115.5t-135.5 -38.5zM422 -17q-148 0 -232 86q-85 85 -85 229q0 54 10 101q34 173 151 281q115 106 281 106q149 0 235 -86q85 -86 85 -230q0 -51 -11 -101
q-35 -176 -150 -281q-116 -105 -284 -105zM429 66q129 0 215 87q86 85 114 231q9 45 9 84q0 109 -60 171.5t-167 62.5q-128 0 -212 -86q-84 -87 -114 -232q-9 -45 -9 -84q0 -109 59 -171.5t165 -62.5z" />
    <glyph glyph-name="obreve" unicode="&#x14f;" horiz-adv-x="698" 
d="M439 654q-78 0 -119 30t-41 85q0 14 4 39h68q0 -4 -0.5 -7.5t-1 -5.5t-0.5 -4v-3q0 -65 92 -65q108 0 127 85h74q-19 -77 -67 -115.5t-136 -38.5zM297 -16q-109 0 -170 58.5t-61 161.5q0 36 9 80q28 132 112.5 206t212.5 74q108 0 169.5 -59t61.5 -161q0 -32 -8 -80
q-28 -131 -113 -205.5t-213 -74.5zM305 68q86 0 142 54t77 152q7 29 7 65q0 67 -35 104t-103 37q-86 0 -142.5 -54t-77.5 -152q-7 -29 -7 -66q0 -67 35.5 -103.5t103.5 -36.5z" />
    <glyph glyph-name="Ohungarumlaut" unicode="&#x150;" horiz-adv-x="925" 
d="M485 871h-91l108 179h124zM715 871h-91l108 179h123zM422 -17q-148 0 -232 86q-85 85 -85 229q0 54 10 101q34 173 151 281q115 106 281 106q149 0 235 -86q85 -86 85 -230q0 -51 -11 -101q-35 -176 -150 -281q-116 -105 -284 -105zM429 66q129 0 215 87q86 85 114 231
q9 45 9 84q0 109 -60 171.5t-167 62.5q-128 0 -212 -86q-84 -87 -114 -232q-9 -45 -9 -84q0 -109 59 -171.5t165 -62.5z" />
    <glyph glyph-name="ohungarumlaut" unicode="&#x151;" horiz-adv-x="698" 
d="M344 637h-91l108 179h124zM573 637h-90l108 179h123zM297 -16q-109 0 -170 58.5t-61 161.5q0 36 9 80q28 132 112.5 206t212.5 74q108 0 169.5 -59t61.5 -161q0 -32 -8 -80q-28 -131 -113 -205.5t-213 -74.5zM305 68q86 0 142 54t77 152q7 29 7 65q0 67 -35 104t-103 37
q-86 0 -142.5 -54t-77.5 -152q-7 -29 -7 -66q0 -67 35.5 -103.5t103.5 -36.5z" />
    <glyph glyph-name="OE" unicode="&#x152;" horiz-adv-x="1335" 
d="M1370 768l-18 -83h-429l-53 -248h397l-18 -83h-396l-58 -271h435l-18 -83h-535l25 118q-114 -135 -288 -135q-138 0 -224 87q-85 86 -85 228q0 54 10 101q35 173 151 280t271 107q101 0 170.5 -45.5t99.5 -130.5l34 158h529zM430 66q128 0 213 85q86 86 114 230
q9 45 9 85q0 109 -60 172.5t-166 63.5q-129 0 -213 -86q-85 -88 -113 -232q-9 -45 -9 -84q0 -109 59 -171.5t166 -62.5z" />
    <glyph glyph-name="oe" unicode="&#x153;" horiz-adv-x="1112" 
d="M1032 245l-428 11q-4 -21 -4 -55q0 -136 143 -136q107 0 172 90l83 -15q-46 -74 -113.5 -115t-149.5 -41q-74 0 -125 34.5t-73 95.5q-91 -130 -249 -130q-102 0 -162 58.5t-60 155.5q0 154 93 260q91 106 237 106q77 0 129.5 -33.5t73.5 -94.5q92 128 247 128
q98 0 149.5 -54t51.5 -151q0 -60 -15 -114zM830 488q-76 0 -133 -49t-82 -131l337 8q3 21 3 41q0 131 -125 131zM300 68q102 0 167 80t65 188q0 69 -37.5 106.5t-106.5 37.5q-100 0 -161 -81q-61 -82 -61 -193q0 -66 34.5 -102t99.5 -36z" />
    <glyph glyph-name="Racute" unicode="&#x154;" horiz-adv-x="799" 
d="M527 1045h123l-145 -169h-87zM772 604q0 -88 -54 -151.5t-146 -88.5q87 -26 87 -122q0 -1 -2 -39l-16 -203h-100l16 195q2 30 2 37q0 48 -25.5 70t-82.5 22h-222l-69 -324h-100l164 768h340q99 0 153.5 -44t54.5 -120zM247 406h199q102 0 162.5 49.5t60.5 135.5
q0 95 -142 95h-221z" />
    <glyph glyph-name="racute" unicode="&#x155;" horiz-adv-x="485" 
d="M358 825h123l-145 -169h-87zM443 550h40l-19 -90h-27q-66 0 -116 -20q-60 -25 -102 -110l-70 -330h-100l117 548h91l-17 -102q72 104 203 104z" />
    <glyph glyph-name="uni0156" unicode="&#x156;" horiz-adv-x="799" 
d="M772 604q0 -88 -54 -151.5t-146 -88.5q87 -26 87 -122q0 -1 -2 -39l-16 -203h-100l16 195q2 30 2 37q0 48 -25.5 70t-82.5 22h-222l-69 -324h-100l164 768h340q99 0 153.5 -44t54.5 -120zM247 406h199q102 0 162.5 49.5t60.5 135.5q0 95 -142 95h-221zM339 -167l-91 -22
l20 93h136l-19 -91q-21 -94 -128 -94h-29l10 46h29q58 0 66 38z" />
    <glyph glyph-name="uni0157" unicode="&#x157;" horiz-adv-x="485" 
d="M443 550h40l-19 -90h-27q-66 0 -116 -20q-60 -25 -102 -110l-70 -330h-100l117 548h91l-17 -102q72 104 203 104zM82 -167l-91 -22l20 93h136l-19 -91q-21 -94 -128 -94h-29l10 46h29q58 0 66 38z" />
    <glyph glyph-name="Rcaron" unicode="&#x158;" horiz-adv-x="799" 
d="M726 1047l-181 -183h-98l-93 183h87l65 -124l118 124h102zM772 604q0 -88 -54 -151.5t-146 -88.5q87 -26 87 -122q0 -1 -2 -39l-16 -203h-100l16 195q2 30 2 37q0 48 -25.5 70t-82.5 22h-222l-69 -324h-100l164 768h340q99 0 153.5 -44t54.5 -120zM247 406h199
q102 0 162.5 49.5t60.5 135.5q0 95 -142 95h-221z" />
    <glyph glyph-name="rcaron" unicode="&#x159;" horiz-adv-x="485" 
d="M556 827l-180 -183h-99l-93 183h87l65 -124l118 124h102zM257 548l-17 -102q72 104 203 104h40l-19 -90h-27q-66 0 -116 -20q-60 -25 -102 -110l-70 -330h-100l117 548h91z" />
    <glyph glyph-name="Sacute" unicode="&#x15a;" horiz-adv-x="781" 
d="M511 897h-87l109 169h123zM340 -20q-134 0 -208 55.5t-74 159.5v20l103 10v-22q0 -138 189 -138q112 0 176 39.5t64 117.5q0 91 -142 119l-92 20q-187 42 -187 187q0 120 85 181.5t238 61.5q130 0 198.5 -50t68.5 -138v-18l-100 -10v17q0 114 -176 114q-207 0 -207 -146
q0 -42 30 -67t102 -41l93 -19q97 -21 146.5 -71.5t49.5 -121.5q0 -129 -94 -194.5t-263 -65.5z" />
    <glyph glyph-name="sacute" unicode="&#x15b;" horiz-adv-x="636" 
d="M403 677h-87l109 169h123zM274 -21q-109 0 -166.5 46t-58.5 130l98 10q0 -59 32 -84.5t102 -25.5q71 0 112.5 25t41.5 75q0 31 -22.5 49.5t-78.5 30.5l-61 13q-151 30 -151 144q0 86 66.5 131.5t179.5 45.5q102 0 158 -43t58 -121l-95 -10q-2 49 -36.5 74t-93.5 25
q-64 0 -102 -23.5t-38 -66.5q0 -29 23 -45.5t78 -27.5l65 -12q77 -15 113.5 -50.5t36.5 -98.5q0 -92 -69 -141.5t-192 -49.5z" />
    <glyph glyph-name="Scircumflex" unicode="&#x15c;" horiz-adv-x="781" 
d="M417 890h-100l173 184h98l100 -184h-88l-65 124zM340 -20q-134 0 -208 55.5t-74 159.5v20l103 10v-22q0 -138 189 -138q112 0 176 39.5t64 117.5q0 91 -142 119l-92 20q-187 42 -187 187q0 120 85 181.5t238 61.5q130 0 198.5 -50t68.5 -138v-18l-100 -10v17
q0 114 -176 114q-207 0 -207 -146q0 -42 30 -67t102 -41l93 -19q97 -21 146.5 -71.5t49.5 -121.5q0 -129 -94 -194.5t-263 -65.5z" />
    <glyph glyph-name="scircumflex" unicode="&#x15d;" horiz-adv-x="636" 
d="M309 670h-100l173 184h98l100 -184h-88l-65 124zM274 -21q-109 0 -166.5 46t-58.5 130l98 10q0 -59 32 -84.5t102 -25.5q71 0 112.5 25t41.5 75q0 31 -22.5 49.5t-78.5 30.5l-61 13q-151 30 -151 144q0 86 66.5 131.5t179.5 45.5q102 0 158 -43t58 -121l-95 -10
q-2 49 -36.5 74t-93.5 25q-64 0 -102 -23.5t-38 -66.5q0 -29 23 -45.5t78 -27.5l65 -12q77 -15 113.5 -50.5t36.5 -98.5q0 -92 -69 -141.5t-192 -49.5z" />
    <glyph glyph-name="Scedilla" unicode="&#x15e;" horiz-adv-x="781" 
d="M340 -20q-134 0 -208 55.5t-74 159.5v20l103 10v-22q0 -138 189 -138q112 0 176 39.5t64 117.5q0 91 -142 119l-92 20q-187 42 -187 187q0 120 85 181.5t238 61.5q130 0 198.5 -50t68.5 -138v-18l-100 -10v17q0 114 -176 114q-207 0 -207 -146q0 -42 30 -67t102 -41
l93 -19q97 -21 146.5 -71.5t49.5 -121.5q0 -129 -94 -194.5t-263 -65.5zM269 -285h-84l14 66h70q92 0 92 48q0 29 -37 29h-109l13 60h122q96 0 96 -81q0 -58 -47.5 -90t-129.5 -32z" />
    <glyph glyph-name="scedilla" unicode="&#x15f;" horiz-adv-x="636" 
d="M274 -21q-109 0 -166.5 46t-58.5 130l98 10q0 -59 32 -84.5t102 -25.5q71 0 112.5 25t41.5 75q0 31 -22.5 49.5t-78.5 30.5l-61 13q-151 30 -151 144q0 86 66.5 131.5t179.5 45.5q102 0 158 -43t58 -121l-95 -10q-2 49 -36.5 74t-93.5 25q-64 0 -102 -23.5t-38 -66.5
q0 -29 23 -45.5t78 -27.5l65 -12q77 -15 113.5 -50.5t36.5 -98.5q0 -92 -69 -141.5t-192 -49.5zM198 -286h-84l14 66h70q92 0 92 48q0 29 -37 29h-109l13 60h122q96 0 96 -81q0 -58 -47.5 -90t-129.5 -32z" />
    <glyph glyph-name="Scaron" unicode="&#x160;" horiz-adv-x="781" 
d="M550 885h-98l-93 183h87l65 -124l118 124h102zM340 -20q-134 0 -208 55.5t-74 159.5v20l103 10v-22q0 -138 189 -138q112 0 176 39.5t64 117.5q0 91 -142 119l-92 20q-187 42 -187 187q0 120 85 181.5t238 61.5q130 0 198.5 -50t68.5 -138v-18l-100 -10v17
q0 114 -176 114q-207 0 -207 -146q0 -42 30 -67t102 -41l93 -19q97 -21 146.5 -71.5t49.5 -121.5q0 -129 -94 -194.5t-263 -65.5z" />
    <glyph glyph-name="scaron" unicode="&#x161;" horiz-adv-x="636" 
d="M443 665h-99l-93 183h87l65 -124l118 124h102zM274 -21q-109 0 -166.5 46t-58.5 130l98 10q0 -59 32 -84.5t102 -25.5q71 0 112.5 25t41.5 75q0 31 -22.5 49.5t-78.5 30.5l-61 13q-151 30 -151 144q0 86 66.5 131.5t179.5 45.5q102 0 158 -43t58 -121l-95 -10
q-2 49 -36.5 74t-93.5 25q-64 0 -102 -23.5t-38 -66.5q0 -29 23 -45.5t78 -27.5l65 -12q77 -15 113.5 -50.5t36.5 -98.5q0 -92 -69 -141.5t-192 -49.5z" />
    <glyph glyph-name="uni0162" unicode="&#x162;" horiz-adv-x="653" 
d="M137 768h590l-18 -83h-244l-145 -685h-103l145 685h-243zM159 -73h122q96 0 96 -81q0 -58 -47.5 -90t-129.5 -32h-84l14 66h70q92 0 92 48q0 29 -37 29h-109z" />
    <glyph glyph-name="uni0163" unicode="&#x163;" horiz-adv-x="500" 
d="M291 477l-6 -57l-50 -233q-9 -45 -9 -56q0 -50 61 -50h111l-17 -81h-120q-66 0 -101.5 29t-35.5 85q0 14 5 44l56 264l18 54l-132 -7l16 79l130 -8l4 48l25 119h100l-24 -114l-18 -53l194 8l-17 -79zM118 -62h122q96 0 96 -82q0 -58 -47.5 -90t-129.5 -32h-84l14 66h70
q92 0 92 48q0 29 -37 29h-109z" />
    <glyph glyph-name="Tcaron" unicode="&#x164;" horiz-adv-x="653" 
d="M676 1047l-181 -183h-98l-93 183h87l65 -124l118 124h102zM137 768h590l-18 -83h-244l-145 -685h-103l145 685h-243z" />
    <glyph glyph-name="tcaron" unicode="&#x165;" horiz-adv-x="511" 
d="M523 900h116l-164 -281h-74zM346 707l-24 -114l-18 -53l194 8l-17 -79l-190 8l-6 -57l-50 -233q-9 -45 -9 -56q0 -50 61 -50h111l-17 -81h-120q-66 0 -101.5 29t-35.5 85q0 14 5 44l56 264l18 54l-132 -7l16 79l130 -8l4 48l25 119h100z" />
    <glyph glyph-name="Tbar" unicode="&#x166;" horiz-adv-x="653" 
d="M727 768l-18 -83h-244l-55 -261l217 6l-17 -78l-214 6l-76 -358h-103l76 358l-214 -6l17 78l211 -6l55 261h-243l18 83h590z" />
    <glyph glyph-name="tbar" unicode="&#x167;" horiz-adv-x="531" 
d="M529 548l-17 -79l-184 8l-33 -151l188 7l-15 -76l-186 7l-20 -92q-6 -28 -6 -41q0 -50 62 -50h111l-17 -81h-121q-66 0 -101 29t-35 85q0 14 5 44l22 105l-125 -6l16 76l123 -6l32 149l-127 -7l17 79l124 -7l35 166h100l-36 -167z" />
    <glyph glyph-name="Utilde" unicode="&#x168;" horiz-adv-x="846" 
d="M404 856h-81q18 84 61 127.5t102 43.5q32 0 56 -13t35 -32q25 -45 59 -45q24 0 39.5 20.5t30.5 68.5h82q-18 -85 -60.5 -128t-103.5 -43q-32 0 -55.5 13t-33.5 32q-25 45 -61 45q-24 0 -39.5 -20.5t-30.5 -68.5zM373 -17q-265 0 -265 204q0 35 12 93l103 488h103
l-106 -505q-8 -40 -8 -65q0 -65 40.5 -96t128.5 -31q107 0 163.5 45t77.5 147l107 505h104l-105 -497q-31 -150 -115 -219t-240 -69z" />
    <glyph glyph-name="utilde" unicode="&#x169;" horiz-adv-x="676" 
d="M342 725q-24 0 -39.5 -20.5t-30.5 -68.5h-81q18 84 61 127.5t102 43.5q32 0 56 -13t35 -32q25 -45 59 -45q24 0 39.5 20.5t30.5 68.5h82q-18 -85 -60.5 -128t-103.5 -43q-32 0 -55.5 13t-33.5 32q-25 45 -61 45zM450 183l78 365h100l-117 -548h-92l11 69
q-76 -84 -177 -84q-80 0 -124.5 41t-44.5 115q0 25 6 54l76 353h100l-74 -344q-6 -26 -6 -44q0 -43 24.5 -67t69.5 -24q100 0 170 114z" />
    <glyph glyph-name="Umacron" unicode="&#x16a;" horiz-adv-x="846" 
d="M723 891h-359l17 78h359zM373 -17q-265 0 -265 204q0 35 12 93l103 488h103l-106 -505q-8 -40 -8 -65q0 -65 40.5 -96t128.5 -31q107 0 163.5 45t77.5 147l107 505h104l-105 -497q-31 -150 -115 -219t-240 -69z" />
    <glyph glyph-name="umacron" unicode="&#x16b;" horiz-adv-x="676" 
d="M249 749h359l-17 -78h-359zM450 183l78 365h100l-117 -548h-92l11 69q-76 -84 -177 -84q-80 0 -124.5 41t-44.5 115q0 25 6 54l76 353h100l-74 -344q-6 -26 -6 -44q0 -43 24.5 -67t69.5 -24q100 0 170 114z" />
    <glyph glyph-name="Ubreve" unicode="&#x16c;" horiz-adv-x="846" 
d="M550 874q-78 0 -119.5 30t-41.5 85q0 22 4 39h69q-2 -16 -2 -20q0 -65 92 -65q108 0 127 85h74q-19 -77 -67.5 -115.5t-135.5 -38.5zM373 -17q-265 0 -265 204q0 35 12 93l103 488h103l-106 -505q-8 -40 -8 -65q0 -65 40.5 -96t128.5 -31q107 0 163.5 45t77.5 147
l107 505h104l-105 -497q-31 -150 -115 -219t-240 -69z" />
    <glyph glyph-name="ubreve" unicode="&#x16d;" horiz-adv-x="676" 
d="M418 654q-78 0 -119 30t-41 85q0 14 4 39h68q0 -4 -0.5 -7.5t-1 -5.5t-0.5 -4v-3q0 -65 92 -65q108 0 127 85h74q-19 -77 -67 -115.5t-136 -38.5zM450 183l78 365h100l-117 -548h-92l11 69q-76 -84 -177 -84q-80 0 -124.5 41t-44.5 115q0 25 6 54l76 353h100l-74 -344
q-6 -26 -6 -44q0 -43 24.5 -67t69.5 -24q100 0 170 114z" />
    <glyph glyph-name="Uring" unicode="&#x16e;" horiz-adv-x="846" 
d="M547 806q-67 0 -110 43t-43 108q0 66 43 109t110 43q66 0 109 -43t43 -109q0 -65 -43 -108t-109 -43zM483 892q25 -24 64 -24t64 24q24 24 24 65t-24 66q-25 24 -64 24t-64 -24q-25 -25 -25 -66t25 -65zM373 -17q-265 0 -265 204q0 35 12 93l103 488h103l-106 -505
q-8 -40 -8 -65q0 -65 40.5 -96t128.5 -31q107 0 163.5 45t77.5 147l107 505h104l-105 -497q-31 -150 -115 -219t-240 -69z" />
    <glyph glyph-name="uring" unicode="&#x16f;" horiz-adv-x="676" 
d="M544 666q-44 -44 -110 -44q-65 0 -109 44t-44 108t44 108q43 43 109 43q67 0 110 -43t43 -108t-43 -108zM498 839q-25 24 -64 24t-63 -24q-25 -24 -25 -65t25 -65q24 -24 63 -24q38 0 64 24q24 24 24 65t-24 65zM450 183l78 365h100l-117 -548h-92l11 69
q-76 -84 -177 -84q-80 0 -124.5 41t-44.5 115q0 25 6 54l76 353h100l-74 -344q-6 -26 -6 -44q0 -43 24.5 -67t69.5 -24q100 0 170 114z" />
    <glyph glyph-name="Uhungarumlaut" unicode="&#x170;" horiz-adv-x="846" 
d="M455 857h-91l108 179h124zM685 857h-91l108 179h123zM373 -17q-265 0 -265 204q0 35 12 93l103 488h103l-106 -505q-8 -40 -8 -65q0 -65 40.5 -96t128.5 -31q107 0 163.5 45t77.5 147l107 505h104l-105 -497q-31 -150 -115 -219t-240 -69z" />
    <glyph glyph-name="uhungarumlaut" unicode="&#x171;" horiz-adv-x="676" 
d="M340 816h124l-141 -179h-91zM693 816l-141 -179h-90l108 179h123zM450 183l78 365h100l-117 -548h-92l11 69q-76 -84 -177 -84q-80 0 -124.5 41t-44.5 115q0 25 6 54l76 353h100l-74 -344q-6 -26 -6 -44q0 -43 24.5 -67t69.5 -24q100 0 170 114z" />
    <glyph glyph-name="Uogonek" unicode="&#x172;" horiz-adv-x="846" 
d="M622 263l107 505h104l-105 -497q-24 -118 -79.5 -184.5t-151.5 -90.5l-102 -59q-54 -29 -54 -62q0 -40 55 -40h34l-14 -67h-54q-55 0 -85 25t-30 66q0 67 78 108l31 16q-248 8 -248 204q0 35 12 93l103 488h103l-106 -505q-8 -40 -8 -65q0 -65 40.5 -96t128.5 -31
q107 0 163.5 45t77.5 147z" />
    <glyph glyph-name="uogonek" unicode="&#x173;" horiz-adv-x="676" 
d="M511 0l-105 -61q-54 -29 -54 -62q0 -40 55 -40h34l-14 -67h-55q-54 0 -84 25t-30 66q0 67 77 108l86 46l9 54q-76 -84 -177 -84q-80 0 -124.5 41t-44.5 115q0 25 6 54l76 353h100l-74 -344q-6 -26 -6 -44q0 -43 24.5 -67t69.5 -24q100 0 170 114l78 365h100z" />
    <glyph glyph-name="Wcircumflex" unicode="&#x174;" horiz-adv-x="1134" 
d="M754 869l-65 124l-118 -124h-101l173 184h98l101 -184h-88zM806 154l305 614h99l-392 -768h-121l-50 685l-318 -685h-121l-83 768h90l60 -612l3 -87l35 85l281 614h135l39 -612l-1 -85z" />
    <glyph glyph-name="wcircumflex" unicode="&#x175;" horiz-adv-x="888" 
d="M598 649l-65 124l-118 -124h-100l173 184h98l100 -184h-88zM592 176l188 372h108l-296 -548h-107l-21 284l-7 150l-69 -151l-139 -283h-102l-65 548h94l35 -368l4 -77l33 73l181 372h97l26 -367l3 -84z" />
    <glyph glyph-name="Ycircumflex" unicode="&#x176;" horiz-adv-x="704" 
d="M564 860l-65 124l-118 -124h-101l173 184h98l101 -184h-88zM670 769h118l-379 -458h-1l-66 -311h-104l67 312l-186 457h102l132 -344l12 -39l29 39z" />
    <glyph glyph-name="ycircumflex" unicode="&#x177;" horiz-adv-x="593" 
d="M449 649l-65 124l-118 -124h-100l173 184h98l100 -184h-88zM247 109l237 439h109l-355 -627q-40 -69 -82 -99q-42 -27 -114 -27h-74l17 82h64q35 0 58.5 16t48.5 57l22 38l-96 560h101l63 -429z" />
    <glyph glyph-name="Ydieresis" unicode="&#x178;" horiz-adv-x="704" 
d="M322 995h109l-26 -122h-109zM572 995h108l-26 -122h-109zM670 769h118l-379 -458h-1l-66 -311h-104l67 312l-186 457h102l132 -344l12 -39l29 39z" />
    <glyph glyph-name="Zacute" unicode="&#x179;" horiz-adv-x="781" 
d="M541 1045h123l-145 -169h-87zM209 768h586l-15 -67l-606 -618h484l-19 -83h-615l15 68l601 617h-450z" />
    <glyph glyph-name="zacute" unicode="&#x17a;" horiz-adv-x="630" 
d="M404 825h123l-145 -169h-87zM141 548h452l-15 -71l-410 -393h349l-18 -84h-484l14 67l414 397h-320z" />
    <glyph glyph-name="Zdotaccent" unicode="&#x17b;" horiz-adv-x="781" 
d="M498 1009h99l-26 -122h-99zM209 768h586l-15 -67l-606 -618h484l-19 -83h-615l15 68l601 617h-450z" />
    <glyph glyph-name="zdotaccent" unicode="&#x17c;" horiz-adv-x="630" 
d="M361 789h99l-26 -122h-99zM141 548h452l-15 -71l-410 -393h349l-18 -84h-484l14 67l414 397h-320z" />
    <glyph glyph-name="Zcaron" unicode="&#x17d;" horiz-adv-x="781" 
d="M739 1047l-181 -183h-98l-93 183h87l65 -124l118 124h102zM209 768h586l-15 -67l-606 -618h484l-19 -83h-615l15 68l601 617h-450z" />
    <glyph glyph-name="zcaron" unicode="&#x17e;" horiz-adv-x="630" 
d="M602 827l-180 -183h-99l-93 183h87l65 -124l118 124h102zM443 464h-320l18 84h452l-15 -71l-410 -393h349l-18 -84h-484l14 67z" />
    <glyph glyph-name="uni018F" unicode="&#x18f;" horiz-adv-x="924" 
d="M546 786q149 0 235 -86q85 -86 85 -230q0 -51 -11 -101q-35 -176 -150 -281t-284 -105q-148 0 -232 86q-85 85 -85 229q0 50 12 108h645q5 42 5 62q0 109 -60 171.5t-167 62.5q-169 0 -263 -151l-98 21q60 102 155 158t213 56zM428 66q112 0 193 67.5t120 186.5h-536
q-1 -5 -1 -20q0 -109 59 -171.5t165 -62.5z" />
    <glyph glyph-name="florin" unicode="&#x192;" horiz-adv-x="751" 
d="M667 768h87l-32 -80h-64q-37 0 -59 -17t-39 -59l-66 -161l115 7l-32 -79l-110 7l-157 -385q-31 -79 -80.5 -115.5t-129.5 -36.5h-87l32 80h64q37 0 59 17t39 59l155 381l-117 -7l32 79l112 -7l67 166q31 79 81 115t130 36z" />
    <glyph glyph-name="uni01F4" unicode="&#x1f4;" horiz-adv-x="898" 
d="M574 1045h123l-145 -169h-87zM691 317h-220l17 81h319l-85 -398h-77l7 97q-100 -114 -260 -114q-135 0 -212 83t-77 221q0 53 11 108q39 186 150 288t288 102q114 0 187 -59t92 -165l-101 -13q-34 154 -191 154q-120 0 -207 -84t-117 -233q-10 -47 -10 -96
q0 -105 53.5 -163.5t147.5 -58.5q87 0 155.5 40.5t110.5 118.5z" />
    <glyph glyph-name="uni01F5" unicode="&#x1f5;" horiz-adv-x="692" 
d="M459 825h123l-145 -169h-87zM533 469l24 80h87l-114 -536q-47 -227 -275 -227q-107 0 -163.5 43t-60.5 122l95 9q6 -99 137 -99q71 0 112 37.5t59 119.5l17 77q-76 -70 -177 -70q-93 0 -147.5 55.5t-54.5 150.5q0 137 82 234q83 98 208 98q116 0 171 -94zM207 140
q31 -36 90 -36t106 34q49 36 76 89l28 134q-5 58 -42 90.5t-90 32.5q-89 0 -145 -74t-56 -171q0 -63 33 -99z" />
    <glyph glyph-name="Aringacute" unicode="&#x1fa;" horiz-adv-x="764" 
d="M524 1109h124l-95 -130h-98zM676 0h-102l-36 197h-348l-117 -197h-111l418 696q-41 38 -41 99q0 59 39.5 98.5t99.5 39.5t99 -39.5t39 -98.5q0 -87 -75 -124zM478 867q-31 0 -51 -19.5t-20 -52.5q0 -32 20 -51.5t51 -19.5t50.5 19.5t19.5 51.5q0 33 -20 52.5t-50 19.5z
M436 611l-195 -329h281l-61 329l-4 45z" />
    <glyph glyph-name="aringacute" unicode="&#x1fb;" horiz-adv-x="652" 
d="M528 1109h123l-145 -169h-87zM426 905q66 0 109 -43t43 -109q0 -65 -43 -108t-109 -43q-67 0 -110 43t-43 108q0 66 43 109t110 43zM362 688q26 -24 64 -24t64 24q24 24 24 65t-24 66q-25 24 -64 24q-38 0 -64 -24q-25 -25 -25 -66t25 -65zM376 564q101 0 150.5 -35
t49.5 -98q0 -15 -5 -45l-56 -262q-5 -28 2.5 -39.5t32.5 -11.5h20l-16 -73h-45q-36 0 -59.5 19t-27.5 51q-74 -86 -206 -86q-82 0 -127.5 37.5t-45.5 106.5q0 81 58.5 124t182.5 65l138 24q23 4 45 13l6 30q11 51 -16 76t-92 25q-70 0 -107.5 -24.5t-55.5 -82.5l-88 10
q47 176 262 176zM425 165l25 116q-16 -6 -36 -9l-130 -24q-73 -13 -107 -38.5t-34 -71.5q0 -80 105 -80q55 0 103 28.5t74 78.5z" />
    <glyph glyph-name="AEacute" unicode="&#x1fc;" horiz-adv-x="1207" 
d="M930 1045h123l-145 -169h-87zM1243 768l-19 -83h-429l-53 -248h397l-18 -83h-396l-58 -271h436l-19 -83h-535l43 200h-360l-161 -200h-109l621 768h660zM621 685l-320 -399h309l85 399h-74z" />
    <glyph glyph-name="aeacute" unicode="&#x1fd;" horiz-adv-x="1052" 
d="M633 825h123l-145 -169h-87zM972 246l-427 12q-6 -32 -6 -57q0 -68 36 -102t103 -34q111 0 177 90l82 -15q-45 -73 -118 -114.5t-160 -41.5q-155 0 -190 131q-92 -131 -258 -131q-80 0 -125.5 33.5t-45.5 95.5q0 93 71 144q71 52 184 53l180 2l11 52q4 17 4 31
q0 90 -134 90q-65 0 -100.5 -24.5t-53.5 -82.5l-88 11q27 86 94.5 130.5t164.5 44.5q77 0 122.5 -30t53.5 -84q90 114 236 114q100 0 152 -53t52 -148q0 -54 -17 -117zM764 488q-73 0 -128 -47t-79 -130l335 5q3 21 3 40q0 132 -131 132zM238 61q68 0 126.5 35t85.5 97
l14 67l-207 -23q-52 -6 -83.5 -35.5t-31.5 -73.5q0 -67 96 -67z" />
    <glyph glyph-name="Oslashacute" unicode="&#x1fe;" horiz-adv-x="925" 
d="M593 1059h123l-145 -169h-87zM873 787l47 -49l-98 -90q45 -75 45 -178q0 -51 -11 -101q-35 -176 -150 -281q-116 -105 -284 -105q-143 0 -229 83l-96 -89l-47 48l101 93q-46 76 -46 180q0 54 10 101q34 173 151 281q115 106 281 106q148 0 233 -85zM205 300
q0 -64 21 -112l484 448q-62 66 -170 66q-128 0 -212 -86q-84 -87 -114 -232q-9 -45 -9 -84zM767 468q0 59 -20 110l-485 -448q58 -64 167 -64q129 0 215 87q86 85 114 231q9 45 9 84z" />
    <glyph glyph-name="oslashacute" unicode="&#x1ff;" horiz-adv-x="698" 
d="M452 825h123l-145 -169h-87zM633 569l42 -39l-72 -67q28 -50 28 -119q0 -32 -8 -80q-28 -131 -113 -205.5t-213 -74.5q-100 0 -159 49l-59 -54l-42 39l63 58q-34 52 -34 128q0 36 9 80q28 132 112.5 206t212.5 74q105 0 167 -56zM166 208q0 -38 10 -62l320 297
q-34 37 -103 37q-86 0 -142.5 -54t-77.5 -152q-7 -29 -7 -66zM531 339q0 28 -6 52l-317 -292q35 -31 97 -31q86 0 142 54t77 152q7 29 7 65z" />
    <glyph glyph-name="uni0218" unicode="&#x218;" horiz-adv-x="781" 
d="M340 -20q-134 0 -208 55.5t-74 159.5v20l103 10v-22q0 -138 189 -138q112 0 176 39.5t64 117.5q0 91 -142 119l-92 20q-187 42 -187 187q0 120 85 181.5t238 61.5q130 0 198.5 -50t68.5 -138v-18l-100 -10v17q0 114 -176 114q-207 0 -207 -146q0 -42 30 -67t102 -41
l93 -19q97 -21 146.5 -71.5t49.5 -121.5q0 -129 -94 -194.5t-263 -65.5zM240 -290h-29l10 46h29q58 0 66 38l6 30l-91 -22l20 93h136l-19 -91q-21 -94 -128 -94z" />
    <glyph glyph-name="uni0219" unicode="&#x219;" horiz-adv-x="636" 
d="M274 -21q-109 0 -166.5 46t-58.5 130l98 10q0 -59 32 -84.5t102 -25.5q71 0 112.5 25t41.5 75q0 31 -22.5 49.5t-78.5 30.5l-61 13q-151 30 -151 144q0 86 66.5 131.5t179.5 45.5q102 0 158 -43t58 -121l-95 -10q-2 49 -36.5 74t-93.5 25q-64 0 -102 -23.5t-38 -66.5
q0 -29 23 -45.5t78 -27.5l65 -12q77 -15 113.5 -50.5t36.5 -98.5q0 -92 -69 -141.5t-192 -49.5zM171 -281h-29l10 46h29q58 0 66 38l6 30l-91 -22l20 93h136l-19 -91q-21 -94 -128 -94z" />
    <glyph glyph-name="uni021A" unicode="&#x21a;" horiz-adv-x="653" 
d="M137 768h590l-18 -83h-244l-145 -685h-103l145 685h-243zM253 -167l-91 -22l20 93h136l-19 -91q-21 -94 -128 -94h-29l10 46h29q58 0 66 38z" />
    <glyph glyph-name="uni021B" unicode="&#x21b;" horiz-adv-x="500" 
d="M291 477l-6 -57l-50 -233q-9 -45 -9 -56q0 -50 61 -50h111l-17 -81h-120q-66 0 -101.5 29t-35.5 85q0 14 5 44l56 264l18 54l-132 -7l16 79l130 -8l4 48l25 119h100l-24 -114l-18 -53l194 8l-17 -79zM147 -160l-91 -22l20 93h136l-19 -91q-21 -94 -128 -94h-29l10 46h29
q58 0 66 38z" />
    <glyph glyph-name="uni0237" unicode="&#x237;" horiz-adv-x="313" 
d="M-34 -205h-61l17 81h34q36 0 53.5 14.5t25.5 51.5l129 606h100l-130 -612q-15 -75 -53.5 -108t-114.5 -33z" />
    <glyph glyph-name="uni0259" unicode="&#x259;" horiz-adv-x="677" 
d="M379 564q110 0 171 -60t61 -163q0 -31 -9 -77q-24 -124 -108 -202t-210 -78q-104 0 -162 57t-58 154q0 52 16 109h430q2 34 2 37q0 70 -36.5 106t-102.5 36q-109 0 -174 -90l-87 16q42 73 110.5 114t156.5 41zM292 60q73 0 125 44t77 127h-332q-2 -32 -2 -35
q0 -136 132 -136z" />
    <glyph glyph-name="h.sups" unicode="&#x2b0;" horiz-adv-x="602" 
d="M440 778q60 0 96 -31.5t36 -91.5q0 -25 -6 -53l-49 -231h-93l50 237q3 15 3 25q0 32 -19 48.5t-53 16.5q-77 0 -133 -84l-52 -243h-93l118 554h93l-44 -206q65 59 146 59z" />
    <glyph glyph-name="r.sups" unicode="&#x2b3;" horiz-adv-x="438" 
d="M449 774h35l-17 -81h-43q-59 0 -96 -21.5t-59 -69.5l-49 -231h-93l85 397h85l-9 -65q62 71 161 71z" />
    <glyph glyph-name="circumflex" unicode="&#x2c6;" horiz-adv-x="500" 
d="M245 649h-101l173 184h98l101 -184h-88l-65 124z" />
    <glyph glyph-name="caron" unicode="&#x2c7;" horiz-adv-x="500" 
d="M373 644h-98l-93 183h87l65 -124l118 124h102z" />
    <glyph glyph-name="uni02C9" unicode="&#x2c9;" horiz-adv-x="500" 
d="M514 671h-359l17 78h359z" />
    <glyph glyph-name="breve" unicode="&#x2d8;" horiz-adv-x="500" 
d="M340 654q-78 0 -119 30t-41 85q0 14 4 39h68q0 -4 -0.5 -7.5t-1 -5.5t-0.5 -4v-3q0 -65 92 -65q108 0 127 85h74q-19 -77 -67 -115.5t-136 -38.5z" />
    <glyph glyph-name="dotaccent" unicode="&#x2d9;" horiz-adv-x="500" 
d="M383 667h-99l26 122h99z" />
    <glyph glyph-name="ring" unicode="&#x2da;" horiz-adv-x="500" 
d="M466 666q-44 -44 -110 -44q-65 0 -109 44t-44 108t44 108q43 43 109 43q67 0 110 -43t43 -108t-43 -108zM293 709q24 -24 63 -24q38 0 64 24q24 24 24 65t-24 65q-26 24 -64 24q-39 0 -63 -24q-25 -24 -25 -65t25 -65z" />
    <glyph glyph-name="ogonek" unicode="&#x2db;" horiz-adv-x="500" 
d="M221 -230h-54q-54 0 -84.5 25t-30.5 66q0 67 78 108l106 56l70 -25l-105 -61q-54 -29 -54 -62q0 -40 55 -40h34z" />
    <glyph glyph-name="tilde" unicode="&#x2dc;" horiz-adv-x="500" 
d="M194 636h-81q18 84 61 127.5t102 43.5q32 0 56 -13t35 -32q25 -45 59 -45q24 0 39.5 20.5t30.5 68.5h82q-18 -85 -60.5 -128t-103.5 -43q-32 0 -55.5 13t-33.5 32q-25 45 -61 45q-24 0 -39.5 -20.5t-30.5 -68.5z" />
    <glyph glyph-name="hungarumlaut" unicode="&#x2dd;" horiz-adv-x="500" 
d="M232 637h-91l108 179h124zM462 637h-91l108 179h123z" />
    <glyph glyph-name="s.sups" unicode="&#x2e2;" horiz-adv-x="550" 
d="M315 355q-84 0 -135.5 31.5t-62.5 91.5l86 11q11 -71 118 -71q116 0 116 60q0 38 -72 48l-79 12q-126 20 -126 107q0 62 51.5 98t140.5 36q162 0 184 -112l-83 -10q-16 58 -109 58q-49 0 -76 -15t-27 -41q0 -39 61 -48l100 -16q118 -18 118 -104q0 -61 -56 -98.5
t-149 -37.5z" />
    <glyph glyph-name="gravecomb" unicode="&#x300;" 
d="M117 656h-76l-109 169h112z" />
    <glyph glyph-name="acutecomb" unicode="&#x301;" 
d="M81 656h-87l109 169h123z" />
    <glyph glyph-name="uni0302" unicode="&#x302;" 
d="M-12 649h-100l173 184h98l100 -184h-88l-65 124z" />
    <glyph glyph-name="tildecomb" unicode="&#x303;" 
d="M-56 636h-81q18 84 61 127.5t102 43.5q32 0 56 -13t35 -32q25 -45 59 -45q24 0 39.5 20.5t30.5 68.5h82q-18 -85 -60.5 -128t-103.5 -43q-32 0 -55.5 13t-33.5 32q-25 45 -61 45q-24 0 -39.5 -20.5t-30.5 -68.5z" />
    <glyph glyph-name="uni0304" unicode="&#x304;" 
d="M264 671h-359l17 78h359z" />
    <glyph glyph-name="uni0306" unicode="&#x306;" 
d="M90 654q-78 0 -119 30t-41 85q0 14 4 39h68q0 -4 -0.5 -7.5t-1 -5.5t-0.5 -4v-3q0 -65 92 -65q108 0 127 85h74q-19 -77 -67 -115.5t-136 -38.5z" />
    <glyph glyph-name="uni0307" unicode="&#x307;" 
d="M133 667h-99l26 122h99z" />
    <glyph glyph-name="uni0308" unicode="&#x308;" 
d="M13 667h-99l26 122h99zM253 667h-99l26 122h99z" />
    <glyph glyph-name="uni030A" unicode="&#x30a;" 
d="M216 666q-44 -44 -110 -44q-64 0 -110 44q-43 43 -43 108t43 108q44 43 110 43q67 0 110 -43t43 -108t-43 -108zM43 709q24 -24 63 -24q38 0 64 24q24 24 24 65t-24 65q-26 24 -64 24q-39 0 -63 -24q-25 -24 -25 -65t25 -65z" />
    <glyph glyph-name="uni030B" unicode="&#x30b;" 
d="M-5 637h-91l108 179h124zM224 637h-90l108 179h123z" />
    <glyph glyph-name="uni030C" unicode="&#x30c;" 
d="M121 644h-99l-93 183h87l65 -124l118 124h102z" />
    <glyph glyph-name="uni0312" unicode="&#x312;" 
d="M153 667h-137l20 93q21 94 127 94h29l-9 -45h-29q-58 0 -66 -39l-7 -30l92 21z" />
    <glyph glyph-name="uni0313" unicode="&#x313;" 
d="M45 667h-29l10 46h29q59 0 66 39l6 30l-91 -22l20 94h137l-20 -92q-21 -95 -128 -95z" />
    <glyph glyph-name="dotbelowcomb" unicode="&#x323;" 
d="M-54 -236h-109l27 122h108z" />
    <glyph glyph-name="uni0324" unicode="&#x324;" 
d="M-179 -236h-108l26 122h109zM70 -236h-108l26 122h109z" />
    <glyph glyph-name="uni0325" unicode="&#x325;" 
d="M7 -317q-43 -43 -109 -43t-109 43t-43 108t43 107q43 43 109 43t109 -43q42 -42 42 -107t-42 -108zM-166 -274q25 -24 64 -24t63 24q25 24 25 65q0 40 -24.5 64.5t-63.5 24.5t-63.5 -24.5t-24.5 -64.5q0 -41 24 -65z" />
    <glyph glyph-name="uni0326" unicode="&#x326;" 
d="M-156 -281h-29l10 46h29q58 0 66 38l6 30l-91 -22l20 93h136l-19 -91q-21 -94 -128 -94z" />
    <glyph glyph-name="uni0327" unicode="&#x327;" 
d="M-127 -276h-84l14 66h70q92 0 92 48q0 29 -37 29h-109l13 60h122q96 0 96 -81q0 -58 -47.5 -90t-129.5 -32z" />
    <glyph glyph-name="uni0328" unicode="&#x328;" 
d="M-142 -230h-54q-55 0 -85 25t-30 66q0 67 78 108l106 56l69 -25l-105 -61q-54 -29 -54 -62q0 -40 55 -40h34z" />
    <glyph glyph-name="uni032E" unicode="&#x32e;" 
d="M-104 -260q-78 0 -119 30t-41 85q0 24 4 39h68q-2 -16 -2 -19q0 -65 92 -65q108 0 127 84h74q-19 -77 -67.5 -115.5t-135.5 -38.5z" />
    <glyph glyph-name="uni0331" unicode="&#x331;" 
d="M78 -201h-359l17 78h359z" />
    <glyph glyph-name="uni0335" unicode="&#x335;" 
d="M24 385l-208 -10l17 79l203 -10l208 10l-17 -79z" />
    <glyph glyph-name="uni0337" unicode="&#x337;" 
d="M322 531l-598 -552l-44 49l597 552z" />
    <glyph glyph-name="uni0338" unicode="&#x338;" 
d="M457 738l-824 -761l-44 48l823 762z" />
    <glyph glyph-name="uni0394" unicode="&#x394;" horiz-adv-x="764" 
d="M243 768h144l289 -768h-714zM302 661l-206 -576h441l-206 576l-15 46z" />
    <glyph glyph-name="uni03A9" unicode="&#x3a9;" horiz-adv-x="1021" 
d="M434 0h-310v93h184v5q-177 116 -177 328q0 162 102 261t266 99q165 0 266 -99t101 -262q0 -208 -182 -327v-5h190v-93h-310v90q105 58 153 136t48 193q0 129 -70 206q-71 77 -196 77q-126 0 -197 -75t-71 -207q0 -116 48.5 -194t154.5 -136v-90z" />
    <glyph glyph-name="uni03BC" unicode="&#x3bc;" horiz-adv-x="792" 
d="M265 -204h-100v752h100v-343q0 -65 30.5 -100t88.5 -35q94 0 144 99v379h100v-548h-92l-4 73q-64 -88 -158 -88q-78 0 -128 47l-2 -1l21 -121v-114z" />
    <glyph glyph-name="pi" unicode="&#x3c0;" horiz-adv-x="836" 
d="M749 548v-92h-121v-308q0 -36 14 -51t50 -15h26v-82h-43q-75 0 -110 36t-35 116v304h-224v-456h-98v456h-121v92h662z" />
    <glyph glyph-name="d.sups" unicode="&#x1d48;" horiz-adv-x="615" 
d="M508 724l44 201h94l-117 -554h-77l-1 52q-60 -57 -152 -57q-76 0 -121 44t-45 120q0 104 72 179q71 74 175 74q87 0 128 -59zM327 438q89 0 141 79l26 120q-25 73 -109 73q-70 0 -114 -50q-44 -52 -44 -120q0 -48 27 -75t73 -27z" />
    <glyph glyph-name="t.sups" unicode="&#x1d57;" horiz-adv-x="430" 
d="M457 684l-146 5l-35 -168q-6 -29 -6 -41q0 -34 49 -34h88l-16 -75h-105q-53 0 -81.5 21.5t-28.5 60.5q0 22 10 72l35 163l-104 -4l17 83l102 -5l26 120h90l-25 -120l148 5z" />
    <glyph glyph-name="Wgrave" unicode="&#x1e80;" horiz-adv-x="1134" 
d="M627 1045l73 -169h-76l-109 169h112zM806 154l305 614h99l-392 -768h-121l-50 685l-318 -685h-121l-83 768h90l60 -612l3 -87l35 85l281 614h135l39 -612l-1 -85z" />
    <glyph glyph-name="wgrave" unicode="&#x1e81;" horiz-adv-x="888" 
d="M471 825l73 -169h-76l-109 169h112zM592 176l188 372h108l-296 -548h-107l-21 284l-7 150l-69 -151l-139 -283h-102l-65 548h94l35 -368l4 -77l33 73l181 372h97l26 -367l3 -84z" />
    <glyph glyph-name="Wacute" unicode="&#x1e82;" horiz-adv-x="1134" 
d="M686 1045h123l-145 -169h-87zM806 154l305 614h99l-392 -768h-121l-50 685l-318 -685h-121l-83 768h90l60 -612l3 -87l35 85l281 614h135l39 -612l-1 -85z" />
    <glyph glyph-name="wacute" unicode="&#x1e83;" horiz-adv-x="888" 
d="M530 825h123l-145 -169h-87zM592 176l188 372h108l-296 -548h-107l-21 284l-7 150l-69 -151l-139 -283h-102l-65 548h94l35 -368l4 -77l33 73l181 372h97l26 -367l3 -84z" />
    <glyph glyph-name="Wdieresis" unicode="&#x1e84;" horiz-adv-x="1134" 
d="M512 1004h109l-26 -122h-109zM762 1004h108l-26 -122h-109zM806 154l305 614h99l-392 -768h-121l-50 685l-318 -685h-121l-83 768h90l60 -612l3 -87l35 85l281 614h135l39 -612l-1 -85z" />
    <glyph glyph-name="wdieresis" unicode="&#x1e85;" horiz-adv-x="888" 
d="M367 789h99l-26 -122h-99zM607 789h99l-26 -122h-99zM592 176l188 372h108l-296 -548h-107l-21 284l-7 150l-69 -151l-139 -283h-102l-65 548h94l35 -368l4 -77l33 73l181 372h97l26 -367l3 -84z" />
    <glyph glyph-name="uni1E9E" unicode="&#x1e9e;" horiz-adv-x="812" 
d="M806 764l-16 -79l-256 -230q96 -8 147.5 -53t51.5 -122q0 -129 -95 -209t-247 -80q-65 0 -128 15l19 90q59 -15 128 -15q103 0 161 48t58 133q0 102 -160 102q-29 0 -67 -3l19 84l255 239q-66 7 -144 7q-131 0 -193 -62q-52 -54 -75 -150l-102 -479h-102l101 477
q66 303 389 303q140 0 256 -16z" />
    <glyph glyph-name="Ygrave" unicode="&#x1ef2;" horiz-adv-x="704" 
d="M437 1036l73 -169h-76l-109 169h112zM670 769h118l-379 -458h-1l-66 -311h-104l67 312l-186 457h102l132 -344l12 -39l29 39z" />
    <glyph glyph-name="ygrave" unicode="&#x1ef3;" horiz-adv-x="593" 
d="M323 825l73 -169h-76l-109 169h112zM247 109l237 439h109l-355 -627q-40 -69 -82 -99q-42 -27 -114 -27h-74l17 82h64q35 0 58.5 16t48.5 57l22 38l-96 560h101l63 -429z" />
    <glyph glyph-name="thinspace" unicode="&#x2009;" horiz-adv-x="313" 
 />
    <glyph glyph-name="uni2011" unicode="&#x2011;" horiz-adv-x="397" 
d="M339 250h-291l18 81h290z" />
    <glyph glyph-name="endash" unicode="&#x2013;" horiz-adv-x="607" 
d="M548 247h-500l18 84h500z" />
    <glyph glyph-name="emdash" unicode="&#x2014;" horiz-adv-x="847" 
d="M788 247h-740l18 84h740z" />
    <glyph glyph-name="quoteleft" unicode="&#x2018;" horiz-adv-x="370" 
d="M306 477h-156l37 175q17 82 56.5 116.5t116.5 34.5h15l-13 -63h-15q-76 0 -93 -77l-17 -76l98 25z" />
    <glyph glyph-name="quoteright" unicode="&#x2019;" horiz-adv-x="370" 
d="M158 442h-15l13 63h15q42 0 63 19t30 58l17 76l-98 -25l29 135h156l-37 -176q-17 -81 -56.5 -115.5t-116.5 -34.5z" />
    <glyph glyph-name="quotesinglbase" unicode="&#x201a;" horiz-adv-x="371" 
d="M24 -190h-15l14 63h14q77 0 94 77l16 76l-98 -25l29 135h156l-37 -175q-17 -81 -56.5 -116t-116.5 -35z" />
    <glyph glyph-name="quotedblleft" unicode="&#x201c;" horiz-adv-x="636" 
d="M306 477h-156l37 175q17 82 56.5 116.5t116.5 34.5h15l-13 -63h-15q-76 0 -93 -77l-17 -76l98 25zM572 477h-157l37 175q17 82 57 116.5t117 34.5h15l-14 -63h-14q-77 0 -94 -77l-16 -76l98 25z" />
    <glyph glyph-name="quotedblright" unicode="&#x201d;" horiz-adv-x="636" 
d="M158 442h-15l13 63h15q42 0 63 19t30 58l17 76l-98 -25l29 135h156l-37 -176q-17 -81 -56.5 -115.5t-116.5 -34.5zM424 442h-15l13 63h15q76 0 93 77l17 76l-99 -25l29 135h157l-37 -176q-17 -81 -56.5 -115.5t-116.5 -34.5z" />
    <glyph glyph-name="quotedblbase" unicode="&#x201e;" horiz-adv-x="637" 
d="M24 -190h-15l14 63h14q77 0 94 77l16 76l-98 -25l29 135h156l-37 -175q-17 -81 -56.5 -116t-116.5 -35zM290 -190h-15l13 63h15q76 0 93 77l17 76l-98 -25l28 135h157l-37 -175q-17 -81 -56.5 -116t-116.5 -35z" />
    <glyph glyph-name="dagger" unicode="&#x2020;" horiz-adv-x="717" 
d="M479 617l196 11l-19 -86l-190 12l-141 -664h-97l141 664l-195 -12l19 86l190 -10l58 275h97z" />
    <glyph glyph-name="daggerdbl" unicode="&#x2021;" horiz-adv-x="717" 
d="M675 630l-18 -86l-190 11l-67 -317l194 11l-18 -86l-190 11l-60 -284h-97l60 284l-195 -11l18 86l191 -11l67 317l-195 -11l18 86l191 -11l58 274h97l-58 -274z" />
    <glyph glyph-name="bullet" unicode="&#x2022;" horiz-adv-x="474" 
d="M337 185h-238l50 236h238z" />
    <glyph glyph-name="ellipsis" unicode="&#x2026;" horiz-adv-x="1079" 
d="M195 0h-146l29 136h146zM555 0h-147l29 136h147zM914 0h-146l29 136h146z" />
    <glyph glyph-name="perthousand" unicode="&#x2030;" horiz-adv-x="1983" 
d="M356 338q-84 0 -131 48.5t-47 133.5q0 30 6 63q20 108 82.5 165.5t155.5 57.5q84 0 130.5 -48t46.5 -132q0 -31 -6 -64q-20 -109 -82 -166.5t-155 -57.5zM463 -15h-95l652 798h93zM361 404q58 0 97.5 35.5t54.5 106.5q9 37 9 80q0 56 -28 86t-77 30q-61 0 -103 -44
t-54 -126q-5 -35 -5 -51q0 -117 106 -117zM1080 -8q-84 0 -131.5 48.5t-47.5 133.5q0 30 6 63q21 108 83.5 165.5t155.5 57.5q84 0 130.5 -48t46.5 -132q0 -31 -6 -64q-20 -109 -82 -166.5t-155 -57.5zM1615 -8q-84 0 -131.5 48.5t-47.5 133.5q0 30 6 63q20 107 83 165
t155 58q84 0 131 -48t47 -132q0 -31 -6 -64q-20 -109 -82.5 -166.5t-154.5 -57.5zM1085 58q58 0 97.5 35.5t54.5 106.5q9 38 9 80q0 56 -28 86t-77 30q-61 0 -103 -44t-55 -126q-5 -35 -5 -51q0 -57 28 -87t79 -30zM1619 58q57 0 97.5 36t55.5 106q9 45 9 80q0 56 -28 86
t-77 30q-62 0 -103.5 -44t-54.5 -126q-5 -35 -5 -51q0 -57 27.5 -87t78.5 -30z" />
    <glyph glyph-name="guilsinglleft" unicode="&#x2039;" horiz-adv-x="481" 
d="M335 93l-22 -103l-218 228l23 112l315 228l-26 -124l-236 -170z" />
    <glyph glyph-name="guilsinglright" unicode="&#x203a;" horiz-adv-x="481" 
d="M362 218l-315 -228l27 124l235 170l-163 171l22 103l218 -228z" />
    <glyph glyph-name="uni203D" unicode="&#x203d;" horiz-adv-x="739" 
d="M451 780q120 0 191.5 -50t71.5 -137q0 -131 -164 -215l-60 -31q-51 -25 -71 -52q-22 -28 -44 -102h-63l43 280l21 100h97l-21 -100l-23 -83q27 19 49 29q72 35 106.5 73.5t34.5 88.5q0 58 -46 88.5t-125 30.5q-183 0 -223 -157l-95 13q27 107 110.5 165.5t210.5 58.5z
M362 0h-117l25 114h116z" />
    <glyph glyph-name="fraction" unicode="&#x2044;" horiz-adv-x="364" 
d="M-72 -15h-95l652 798h93z" />
    <glyph glyph-name="zero.sups" unicode="&#x2070;" horiz-adv-x="515" 
d="M295 363q-84 0 -131.5 48.5t-47.5 134.5q0 29 6 62q21 108 84 166t155 58q84 0 130.5 -48t46.5 -133q0 -31 -6 -64q-20 -109 -82 -166.5t-155 -57.5zM300 430q57 0 97 35.5t55 105.5q9 47 9 81q0 56 -28 85.5t-77 29.5q-61 0 -103 -44t-55 -126q-5 -33 -5 -51
q0 -57 28 -86.5t79 -29.5z" />
    <glyph glyph-name="four.sups" unicode="&#x2074;" horiz-adv-x="485" 
d="M402 371h-78l25 116l-270 -6l17 74l314 269h88l-60 -283l71 8l-15 -68l-68 6zM400 741l-225 -194l185 -6l42 199z" />
    <glyph glyph-name="five.sups" unicode="&#x2075;" horiz-adv-x="503" 
d="M288 362q-71 0 -120.5 28.5t-67.5 74.5l75 27q29 -65 115 -65q60 0 100 32t40 79q0 38 -27 58.5t-72 20.5q-74 0 -119 -46l-70 29l93 224h312l-14 -62h-254l-46 -113l1 -1q53 29 120 29q72 0 113 -36t41 -99q0 -79 -62 -129q-62 -51 -158 -51z" />
    <glyph glyph-name="six.sups" unicode="&#x2076;" horiz-adv-x="526" 
d="M308 361q-82 0 -129.5 47t-47.5 127q0 126 72 212t186 86q115 0 157 -83l-66 -32q-28 52 -99 52q-127 0 -167 -159q66 63 163 63q66 0 105.5 -36t39.5 -95q0 -77 -60 -129q-61 -53 -154 -53zM316 422q56 0 93 32.5t37 80.5q0 36 -25.5 57.5t-67.5 21.5q-45 0 -85.5 -24
t-62.5 -63q2 -51 31.5 -78t79.5 -27z" />
    <glyph glyph-name="seven.sups" unicode="&#x2077;" horiz-adv-x="444" 
d="M227 371h-77q24 102 98 210t173 175h-284l14 68h378l-15 -69q-235 -150 -287 -384z" />
    <glyph glyph-name="eight.sups" unicode="&#x2078;" horiz-adv-x="522" 
d="M293 361q-90 0 -142 33.5t-52 90.5q0 45 33 79t85 45v1q-56 26 -56 85q0 62 58 100t155 38q83 0 129.5 -29t46.5 -78q0 -40 -27.5 -73t-71.5 -43v-1q71 -32 71 -98q0 -68 -64 -108q-64 -42 -165 -42zM340 638q135 0 135 74q0 60 -109 60q-63 0 -97.5 -20t-34.5 -56
q0 -58 106 -58zM299 424q66 0 105.5 23t39.5 63q0 67 -120 67q-69 0 -107.5 -22t-38.5 -60q0 -34 32 -52.5t89 -18.5z" />
    <glyph glyph-name="nine.sups" unicode="&#x2079;" horiz-adv-x="526" 
d="M295 360q-115 0 -157 83l66 31q28 -51 99 -51q127 0 167 159q-66 -63 -163 -63q-66 0 -105.5 36t-39.5 95q0 78 60 130q59 52 154 52q82 0 129.5 -47t47.5 -127q0 -126 -72 -212t-186 -86zM331 579q45 0 85.5 24t62.5 63q-2 51 -31.5 78t-79.5 27q-54 0 -92 -33
q-38 -35 -38 -80q0 -36 25 -57.5t68 -21.5z" />
    <glyph glyph-name="plus.sups" unicode="&#x207a;" horiz-adv-x="616" 
d="M336 612h188v-72h-188v-168h-74v168h-189v72h189v168h74v-168z" />
    <glyph glyph-name="minus.sups" unicode="&#x207b;" horiz-adv-x="604" 
d="M513 540h-440v72h440v-72z" />
    <glyph glyph-name="parenleft.sups" unicode="&#x207d;" horiz-adv-x="370" 
d="M290 224h-76q-62 119 -62 256q0 128 55 251.5t156 218.5h81q-99 -104 -152.5 -230t-53.5 -256q0 -129 52 -240z" />
    <glyph glyph-name="parenright.sups" unicode="&#x207e;" horiz-adv-x="370" 
d="M141 224h-81q100 105 153 231t53 256q0 129 -52 239h76q62 -119 62 -255q0 -128 -55 -251.5t-156 -219.5z" />
    <glyph glyph-name="n.sups" unicode="&#x207f;" horiz-adv-x="602" 
d="M440 778q60 0 96 -31.5t36 -91.5q0 -25 -6 -53l-49 -231h-93l50 237q3 15 3 25q0 32 -19 48.5t-53 16.5q-79 0 -134 -85l-51 -242h-93l85 397h85l-7 -53q68 63 150 63z" />
    <glyph glyph-name="zero.subs" unicode="&#x2080;" horiz-adv-x="515" 
d="M172 -211q-84 0 -131 48.5t-47 133.5q0 30 6 63q20 108 82.5 165.5t155.5 57.5q84 0 130.5 -48t46.5 -132q0 -31 -6 -64q-20 -109 -82 -166.5t-155 -57.5zM177 -145q58 0 97.5 35.5t54.5 106.5q9 37 9 80q0 56 -28 86t-77 30q-61 0 -103 -44t-54 -126q-5 -35 -5 -51
q0 -57 27.5 -87t78.5 -30z" />
    <glyph glyph-name="one.subs" unicode="&#x2081;" horiz-adv-x="385" 
d="M177 -203h-77l59 278h-148l15 69h83q66 0 77 56l10 50h77z" />
    <glyph glyph-name="two.subs" unicode="&#x2082;" horiz-adv-x="505" 
d="M353 -203h-387q9 84 53 133.5t124 74.5l102 33q89 29 89 88q0 31 -26.5 49.5t-73.5 18.5q-103 0 -136 -94l-71 21q24 63 79.5 100.5t136.5 37.5q78 0 123.5 -33.5t45.5 -93.5q0 -107 -156 -157l-86 -27q-95 -32 -107 -83h304z" />
    <glyph glyph-name="three.subs" unicode="&#x2083;" horiz-adv-x="502" 
d="M171 -213q-85 0 -133 38.5t-54 105.5l76 13q2 -43 32 -67.5t81 -24.5q54 0 89 24.5t35 61.5q0 59 -99 59h-38l14 65h34q57 0 89.5 19.5t32.5 53.5q0 61 -98 61t-130 -71l-73 12q21 57 77.5 89.5t134.5 32.5q73 0 119 -29.5t46 -81.5q0 -42 -26 -73.5t-69 -39.5l-1 -2
q66 -23 66 -90q0 -69 -56.5 -112.5t-148.5 -43.5z" />
    <glyph glyph-name="four.subs" unicode="&#x2084;" horiz-adv-x="485" 
d="M279 -203h-78l25 116l-270 -6l17 74l314 269h88l-60 -284l71 9l-15 -68l-67 6zM277 167l-225 -195l185 -6l42 200z" />
    <glyph glyph-name="five.subs" unicode="&#x2085;" horiz-adv-x="503" 
d="M165 -213q-71 0 -120.5 28.5t-67.5 75.5l75 27q27 -65 116 -65q60 0 99.5 31.5t39.5 79.5q0 38 -27 58.5t-72 20.5q-73 0 -119 -46l-70 28l93 225h312l-13 -63h-255l-46 -113l1 -1q53 30 120 30q73 0 113.5 -36t40.5 -99q0 -79 -62 -130t-158 -51z" />
    <glyph glyph-name="six.subs" unicode="&#x2086;" horiz-adv-x="526" 
d="M185 -213q-82 0 -129.5 47t-47.5 127q0 126 73 212q72 86 185 86q56 0 97 -22t60 -61l-65 -32q-31 52 -100 52q-61 0 -103.5 -40.5t-62.5 -119.5q64 63 162 63q66 0 105.5 -35.5t39.5 -94.5q0 -77 -60 -130q-59 -52 -154 -52zM193 -152q56 0 93 33t37 79q0 36 -25 57.5
t-68 21.5q-45 0 -85.5 -23.5t-62.5 -62.5q2 -51 32 -78t79 -27z" />
    <glyph glyph-name="seven.subs" unicode="&#x2087;" horiz-adv-x="444" 
d="M104 -203h-77q23 100 98 210q72 105 173 175h-284l15 68h377l-15 -69q-233 -152 -287 -384z" />
    <glyph glyph-name="eight.subs" unicode="&#x2088;" horiz-adv-x="522" 
d="M171 -213q-90 0 -142.5 33.5t-52.5 90.5q0 45 32.5 79t85.5 45v1q-55 24 -55 85q0 62 58 100t154 38q83 0 129.5 -29t46.5 -78q0 -40 -27.5 -73t-71.5 -43v-1q71 -32 71 -98q0 -69 -63 -109q-65 -41 -165 -41zM217 64q135 0 135 73q0 61 -108 61q-63 0 -98 -20.5
t-35 -56.5q0 -57 106 -57zM176 -151q66 0 105.5 23.5t39.5 63.5q0 67 -120 67q-69 0 -107.5 -22t-38.5 -60q0 -34 32 -53t89 -19z" />
    <glyph glyph-name="nine.subs" unicode="&#x2089;" horiz-adv-x="526" 
d="M153 -215q-56 0 -97 22t-60 61l65 32q30 -51 99 -51q128 0 167 159q-65 -63 -162 -63q-66 0 -105.5 36t-39.5 94q0 77 60 130q59 52 154 52q82 0 129.5 -47t47.5 -127q0 -125 -72 -212q-74 -86 -186 -86zM189 5q46 0 86 24t61 63q-1 50 -31 77.5t-79 27.5
q-56 0 -93 -32.5t-37 -80.5q0 -36 25 -57.5t68 -21.5z" />
    <glyph glyph-name="plus.subs" unicode="&#x208a;" horiz-adv-x="616" 
d="M223 78h188v-72h-188v-168h-74v168h-189v72h189v168h74v-168z" />
    <glyph glyph-name="minus.subs" unicode="&#x208b;" horiz-adv-x="604" 
d="M400 6h-440v72h440v-72z" />
    <glyph glyph-name="equal.subs" unicode="&#x208c;" horiz-adv-x="604" 
d="M400 95h-440v72h440v-72zM400 -84h-440v72h440v-72z" />
    <glyph glyph-name="uni208D" unicode="&#x208d;" horiz-adv-x="370" 
d="M167 -351h-75q-63 119 -63 256q0 128 55 251.5t156 219.5h81q-99 -105 -152.5 -231.5t-53.5 -255.5t52 -240z" />
    <glyph glyph-name="uni208E" unicode="&#x208e;" horiz-adv-x="370" 
d="M18 -351h-81q99 105 152.5 231.5t53.5 255.5q0 126 -51 240h75q62 -119 62 -256q0 -128 -55 -251.5t-156 -219.5z" />
    <glyph glyph-name="n.subs" unicode="&#x2099;" horiz-adv-x="603" 
d="M319 203q60 0 95.5 -31t35.5 -92q0 -24 -6 -53l-49 -230h-93l50 237q3 13 3 25q0 31 -19.5 48t-52.5 17q-78 0 -134 -86l-51 -241h-93l85 396h85l-7 -52q68 62 151 62z" />
    <glyph glyph-name="Euro" unicode="&#x20ac;" horiz-adv-x="806" 
d="M790 752l-20 -91q-60 28 -142 28q-81 0 -145 -40t-108 -119h368l-19 -86h-628l18 86h151q57 119 154.5 183.5t226.5 64.5q78 0 144 -26zM208 254h-153l18 86h629l-19 -86h-374q8 -89 53 -131t130 -42q81 0 161 31l-20 -94q-74 -25 -151 -25q-254 0 -274 261z" />
    <glyph glyph-name="uni20B8" unicode="&#x20b8;" horiz-adv-x="653" 
d="M119 686l18 82h590l-18 -82h-590zM325 509h-244l18 82h590l-17 -82h-244l-108 -509h-103z" />
    <glyph glyph-name="uni20B9" unicode="&#x20b9;" horiz-adv-x="762" 
d="M224 768h584l-18 -82l-226 10q22 -56 13 -126l190 8l-18 -82l-187 9q-44 -122 -166 -158q61 -12 89 -45.5t34 -99.5l16 -202h-103l-9 165q-4 77 -43 107t-132 30h-124l18 83h144q85 0 126.5 26.5t62.5 94.5l-310 -10l18 82l307 -9q10 59 7 127l-291 -10z" />
    <glyph glyph-name="uni20BA" unicode="&#x20ba;" horiz-adv-x="716" 
d="M366 596l273 129l-19 -90l-549 -260l19 90l165 78l48 225h101zM582 265l81 -29q-57 -115 -156 -175.5t-224 -60.5h-144l54 252l-165 -78l19 90l549 260l-18 -90l-273 -129l-46 -214h43q194 0 280 174z" />
    <glyph glyph-name="uni20BC" unicode="&#x20bc;" horiz-adv-x="751" 
d="M507 768l-43 -202q209 0 209 -185q0 -35 -11 -90l-62 -291h-102l66 310q9 39 9 69q0 54 -30 82t-94 33l-81 -378h-98l81 378q-84 -10 -131.5 -56.5t-66.5 -136.5l-64 -301h-100l64 301q30 136 102 200.5t200 64.5h11l43 202h98z" />
    <glyph glyph-name="uni20BF" unicode="&#x20bf;" horiz-adv-x="808" 
d="M587 401q59 -13 92.5 -55.5t33.5 -102.5q0 -104 -69.5 -168.5t-187.5 -73.5l-31 -145h-82l31 144h-90l-31 -144h-82l31 144h-142l164 768h140l31 144h82l-31 -144h90l31 144h82l-32 -151q69 -15 106 -56.5t37 -101.5q0 -74 -47.5 -129t-125.5 -73zM516 686h-209l-52 -246
h211q86 0 136 40.5t50 111.5q0 94 -136 94zM179 82h250q80 0 130 47t50 118q0 55 -37 83t-104 28h-231z" />
    <glyph glyph-name="uni2105" unicode="&#x2105;" horiz-adv-x="1448" 
d="M474 -15h-95l652 798h93zM373 363q-90 0 -141.5 46.5t-51.5 130.5q0 100 66 168q64 66 174 66q77 0 125.5 -34.5t58.5 -97.5l-92 -11q-15 68 -95 68q-66 0 -104 -45t-38 -114q0 -49 28 -75.5t77 -26.5q79 0 114 80l90 -9q-53 -146 -211 -146zM1077 -16q-87 0 -140 49
t-53 130q0 101 67 167q68 65 170 65q87 0 139 -49.5t52 -130.5q0 -102 -66 -166q-68 -65 -169 -65zM1085 61q63 0 97.5 39t34.5 115q0 105 -105 105q-65 0 -98.5 -41t-33.5 -115q0 -103 105 -103z" />
    <glyph glyph-name="uni2113" unicode="&#x2113;" horiz-adv-x="592" 
d="M421 122l55 -64q-68 -74 -167 -74q-73 0 -113.5 39.5t-40.5 111.5v91l-98 -50l-32 79l130 41v335q0 75 38.5 115t112.5 40q157 0 157 -206q0 -120 -50 -194.5t-158 -114.5v-136q0 -66 66 -66q55 0 100 53zM309 701q-54 0 -54 -70v-288q64 41 91 94.5t27 136.5
q0 127 -64 127z" />
    <glyph glyph-name="uni2116" unicode="&#x2116;" horiz-adv-x="1433" 
d="M1231 774q87 0 139 -49.5t52 -130.5q0 -102 -66 -166q-67 -65 -169 -65q-87 0 -139.5 49t-52.5 130q0 101 67 167q67 65 169 65zM333 769l290 -641l135 641h97l-164 -769h-108l-290 640l-136 -640h-97l164 769h109zM1195 439q64 0 98 39t34 116q0 105 -104 105
q-65 0 -99 -41t-34 -115q0 -104 105 -104z" />
    <glyph glyph-name="uni2117" unicode="&#x2117;" horiz-adv-x="1008" 
d="M528 786q175 0 291 -113q114 -113 114 -288t-114 -288q-115 -114 -291 -114q-177 0 -291 114q-115 112 -115 288t115 288q115 113 291 113zM294 146q91 -94 234 -94t234 94q91 92 91 239q0 145 -91 239q-92 93 -234 93t-234 -93q-92 -95 -92 -239q0 -145 92 -239z
M397 590h170q60 0 97.5 -37t37.5 -95q0 -59 -38.5 -95.5t-100.5 -36.5h-89v-142h-77v406zM474 391h79q72 0 72 67t-70 67h-81v-134z" />
    <glyph glyph-name="trademark" unicode="&#x2122;" horiz-adv-x="1201" 
d="M382 356h-79v346h-125v66h329v-66h-125v-346zM695 356h-73v412h148l89 -368h14l86 368h153v-412h-78v369h-15l-87 -369h-132l-90 369h-15v-369z" />
    <glyph glyph-name="uni2126" unicode="&#x2126;" horiz-adv-x="1021" 
d="M434 0h-310v93h184v5q-177 116 -177 328q0 162 102 261t266 99q165 0 266 -99t101 -262q0 -208 -182 -327v-5h190v-93h-310v90q105 58 153 136t48 193q0 129 -70 206q-71 77 -196 77q-126 0 -197 -75t-71 -207q0 -116 48.5 -194t154.5 -136v-90z" />
    <glyph glyph-name="estimated" unicode="&#x212e;" horiz-adv-x="983" 
d="M492 785q132 0 233.5 -56t153.5 -151q50 -94 50 -205h-698q-15 0 -15 -14v-190q0 -33 17 -50q107 -104 259 -104q81 0 154 34t119 91h78q-45 -63 -134 -108q-88 -46 -217 -46q-198 0 -317 112q-121 112 -121 286t119 288q119 113 319 113zM492 756q-152 0 -259 -106
q-17 -17 -17 -47v-190q0 -15 15 -15h520q15 0 15 15v190q0 30 -17 47q-109 106 -257 106z" />
    <glyph glyph-name="uni2153" unicode="&#x2153;" horiz-adv-x="1301" 
d="M358 344h-77l59 278h-148l14 69h84q65 0 77 56l10 50h77zM329 -15h-95l653 798h93zM948 -10q-85 0 -133 38.5t-53 105.5l75 13q3 -43 32.5 -67.5t81.5 -24.5q54 0 88.5 24.5t34.5 61.5q0 59 -99 59h-38l14 65h35q57 0 89.5 19.5t32.5 53.5q0 61 -99 61q-97 0 -130 -71
l-72 12q21 57 77 89.5t135 32.5q73 0 119 -29.5t46 -81.5q0 -42 -26.5 -73.5t-69.5 -39.5l-1 -2q66 -22 66 -90q0 -69 -56.5 -112.5t-148.5 -43.5z" />
    <glyph glyph-name="uni2154" unicode="&#x2154;" horiz-adv-x="1458" 
d="M527 344h-386q9 85 53 134t123 74l103 33q88 28 88 87q0 33 -25.5 51t-73.5 18q-104 0 -137 -95l-70 22q24 64 79 101t136 37q78 0 123.5 -33.5t45.5 -93.5q0 -107 -155 -157l-87 -28q-95 -30 -107 -82h305zM486 -15h-95l652 798h93zM1105 -10q-85 0 -133 38.5t-53 105.5
l75 13q2 -43 32 -67.5t81 -24.5q54 0 89 24.5t35 61.5q0 59 -99 59h-38l14 65h35q57 0 89.5 19.5t32.5 53.5q0 61 -99 61q-97 0 -130 -71l-72 12q21 57 77 89.5t134 32.5q73 0 119.5 -29.5t46.5 -81.5q0 -42 -26.5 -73.5t-69.5 -39.5l-1 -2q66 -22 66 -90
q0 -69 -56.5 -112.5t-148.5 -43.5z" />
    <glyph glyph-name="uni2155" unicode="&#x2155;" horiz-adv-x="1307" 
d="M358 344h-77l59 278h-148l14 69h84q65 0 77 56l10 50h77zM329 -15h-95l653 798h93zM943 -10q-71 0 -120.5 28.5t-67.5 75.5l75 27q27 -65 116 -65q60 0 99.5 31.5t39.5 79.5q0 38 -27 58.5t-72 20.5q-73 0 -119 -46l-70 28l93 225h312l-13 -63h-255l-46 -113l1 -1
q53 30 120 30q73 0 113.5 -36t40.5 -99q0 -79 -62 -130q-61 -51 -158 -51z" />
    <glyph glyph-name="uni2156" unicode="&#x2156;" horiz-adv-x="1439" 
d="M527 344h-386q9 85 53 134t123 74l103 33q88 28 88 87q0 33 -25.5 51t-73.5 18q-104 0 -137 -95l-70 22q24 64 79 101t136 37q78 0 123.5 -33.5t45.5 -93.5q0 -107 -155 -157l-87 -28q-95 -30 -107 -82h305zM462 -15h-96l653 798h93zM1076 -10q-71 0 -120.5 28.5
t-68.5 75.5l75 27q27 -65 116 -65q60 0 100 32t40 79q0 37 -27.5 58t-72.5 21q-73 0 -119 -46l-69 28l92 225h312l-13 -63h-255l-45 -113l1 -1q52 30 119 30q73 0 114 -36t41 -99q0 -79 -62 -130t-158 -51z" />
    <glyph glyph-name="uni2157" unicode="&#x2157;" horiz-adv-x="1426" 
d="M347 333q-85 0 -133 39t-53 106l76 13q2 -43 32 -67.5t81 -24.5q54 0 88.5 24.5t34.5 61.5q0 59 -98 59h-38l13 65h35q57 0 89.5 19.5t32.5 53.5q0 30 -26 45.5t-72 15.5q-98 0 -131 -71l-72 11q21 58 76.5 90.5t135.5 32.5q73 0 119 -29.5t46 -82.5q0 -42 -27 -73.5
t-69 -38.5l-1 -2q67 -22 67 -90q0 -70 -57 -113q-58 -44 -149 -44zM448 -15h-95l653 798h93zM1062 -10q-71 0 -120.5 28.5t-67.5 75.5l75 27q27 -65 116 -65q60 0 99.5 31.5t39.5 79.5q0 38 -27 58.5t-72 20.5q-73 0 -119 -46l-70 28l93 225h312l-13 -63h-255l-46 -113l1 -1
q52 30 120 30q73 0 113.5 -36t40.5 -99q0 -79 -62 -130t-158 -51z" />
    <glyph glyph-name="uni2158" unicode="&#x2158;" horiz-adv-x="1459" 
d="M478 344h-77l24 116l-269 -7l16 75l314 269h88l-59 -284l70 8l-14 -68l-68 7zM481 -15h-95l652 798h93zM477 714l-225 -195l185 -6l42 200zM1095 -10q-71 0 -120.5 28.5t-67.5 75.5l75 27q27 -65 115 -65q60 0 100 32t40 79q0 38 -27 58.5t-72 20.5q-73 0 -119 -46
l-70 28l93 225h312l-14 -63h-254l-46 -113l1 -1q53 30 120 30q72 0 113 -36t41 -99q0 -79 -62 -130q-61 -51 -158 -51z" />
    <glyph glyph-name="uni2159" unicode="&#x2159;" horiz-adv-x="1300" 
d="M358 344h-77l59 278h-148l14 69h84q65 0 77 56l10 50h77zM329 -15h-95l653 798h93zM943 -10q-83 0 -130 46.5t-47 127.5q0 126 73 212q72 86 185 86q56 0 97 -22t60 -61l-66 -32q-28 52 -99 52q-127 0 -167 -160q67 63 163 63q66 0 105.5 -35.5t39.5 -94.5
q0 -76 -60 -129q-61 -53 -154 -53zM951 51q56 0 93 33t37 79q0 36 -25.5 57.5t-67.5 21.5q-45 0 -85.5 -23.5t-62.5 -62.5q2 -51 31.5 -78t79.5 -27z" />
    <glyph glyph-name="uni215A" unicode="&#x215a;" horiz-adv-x="1404" 
d="M340 334q-71 0 -120.5 28.5t-67.5 75.5l75 27q27 -65 116 -65q60 0 99.5 31.5t39.5 78.5q0 38 -27 59t-72 21q-73 0 -119 -46l-70 28l93 225h312l-13 -63h-255l-46 -113l1 -1q53 29 120 29q73 0 113.5 -35.5t40.5 -98.5q0 -79 -62 -130t-158 -51zM433 -15h-95l652 798h93
zM1046 -10q-82 0 -129.5 47t-47.5 127q0 126 73 212q72 86 185 86q56 0 97 -22t60 -61l-65 -32q-31 52 -99 52q-61 0 -104 -40.5t-63 -119.5q65 63 162 63q67 0 106 -35.5t39 -94.5q0 -76 -60 -129q-61 -53 -154 -53zM1054 51q56 0 93 32t37 80q0 36 -25 57.5t-68 21.5
q-45 0 -85.5 -23.5t-61.5 -62.5q1 -50 31 -77.5t79 -27.5z" />
    <glyph glyph-name="oneeighth" unicode="&#x215b;" horiz-adv-x="1317" 
d="M358 344h-77l59 278h-148l14 69h84q65 0 77 56l10 50h77zM329 -15h-95l653 798h93zM940 -10q-90 0 -142.5 33.5t-52.5 90.5q0 45 32.5 79t85.5 45v1q-55 24 -55 85q0 62 58 100t154 38q83 0 129.5 -29t46.5 -78q0 -40 -27.5 -73t-71.5 -43v-1q71 -32 71 -98
q0 -68 -63 -109q-65 -41 -165 -41zM986 267q135 0 135 73q0 61 -108 61q-63 0 -98 -20.5t-35 -56.5q0 -57 106 -57zM945 52q66 0 105.5 23.5t39.5 63.5q0 67 -120 67q-69 0 -107.5 -22t-38.5 -60q0 -34 32 -53t89 -19z" />
    <glyph glyph-name="threeeighths" unicode="&#x215c;" horiz-adv-x="1436" 
d="M347 333q-85 0 -133 39t-53 106l76 13q2 -43 32 -67.5t81 -24.5q54 0 88.5 24.5t34.5 61.5q0 59 -98 59h-38l13 65h35q57 0 89.5 19.5t32.5 53.5q0 30 -26 45.5t-72 15.5q-98 0 -131 -71l-72 11q21 58 76.5 90.5t135.5 32.5q73 0 119 -29.5t46 -82.5q0 -42 -27 -73.5
t-69 -38.5l-1 -2q67 -22 67 -90q0 -70 -57 -113q-58 -44 -149 -44zM448 -15h-95l653 798h93zM1059 -10q-90 0 -142.5 33.5t-52.5 90.5q0 45 32.5 79t85.5 45v1q-55 24 -55 85q0 62 58 100t154 38q83 0 129.5 -29t46.5 -78q0 -40 -27.5 -73t-71.5 -43v-1q71 -32 71 -98
q0 -68 -63 -109q-65 -41 -165 -41zM1105 267q135 0 135 73q0 61 -108 61q-63 0 -98 -20.5t-35 -56.5q0 -57 106 -57zM1064 52q66 0 105.5 23.5t39.5 63.5q0 67 -120 67q-69 0 -107.5 -22t-38.5 -60q0 -34 32 -53t89 -19z" />
    <glyph glyph-name="fiveeighths" unicode="&#x215d;" horiz-adv-x="1420" 
d="M340 334q-71 0 -120.5 28.5t-67.5 75.5l75 27q27 -65 116 -65q60 0 99.5 31.5t39.5 78.5q0 38 -27 59t-72 21q-73 0 -119 -46l-70 28l93 225h312l-13 -63h-255l-46 -113l1 -1q53 29 120 29q73 0 113.5 -35.5t40.5 -98.5q0 -79 -62 -130t-158 -51zM433 -15h-95l652 798h93
zM1043 -10q-90 0 -142 33.5t-52 90.5q0 45 32.5 79t84.5 45v1q-55 24 -55 85q0 62 58 100t155 38q81 0 128 -29t47 -78q0 -40 -27 -73t-71 -43v-1q71 -32 71 -98q0 -69 -64 -109q-65 -41 -165 -41zM1090 267q134 0 134 73q0 61 -108 61q-63 0 -98 -20.5t-35 -56.5
q0 -57 107 -57zM1049 52q66 0 105.5 23.5t39.5 63.5q0 67 -121 67q-68 0 -106.5 -22t-38.5 -60q0 -34 32 -53t89 -19z" />
    <glyph glyph-name="seveneighths" unicode="&#x215e;" horiz-adv-x="1288" 
d="M305 344h-77q24 102 98 210q72 105 173 175h-285l15 68h377l-14 -69q-235 -152 -287 -384zM300 -15h-95l653 798h93zM911 -10q-90 0 -142.5 33.5t-52.5 90.5q0 45 32.5 79t85.5 45v1q-55 24 -55 85q0 62 58 100t154 38q83 0 129.5 -29t46.5 -78q0 -40 -27.5 -73
t-71.5 -43v-1q71 -32 71 -98q0 -68 -63 -109q-65 -41 -165 -41zM957 267q135 0 135 73q0 61 -108 61q-63 0 -98 -20.5t-35 -56.5q0 -57 106 -57zM916 52q66 0 105.5 23.5t39.5 63.5q0 67 -120 67q-69 0 -107.5 -22t-38.5 -60q0 -34 32 -53t89 -19z" />
    <glyph glyph-name="arrowleft" unicode="&#x2190;" horiz-adv-x="1000" 
d="M280 433h630v-100h-628l119 -154l133 -179h-118l-289 383l289 385h118l-133 -178z" />
    <glyph glyph-name="arrowup" unicode="&#x2191;" horiz-adv-x="1000" 
d="M151 494l382 289l384 -289v-119l-177 133l-157 122v-630h-100v628l-154 -120l-178 -133v119z" />
    <glyph glyph-name="arrowright" unicode="&#x2192;" horiz-adv-x="1000" 
d="M513 768h118l289 -385l-289 -383h-118l133 179l119 154h-628v100h630l-121 157z" />
    <glyph glyph-name="arrowdown" unicode="&#x2193;" horiz-adv-x="1000" 
d="M562 138l157 122l177 133v-119l-384 -289l-382 289v119l178 -133l154 -120v628h100v-630z" />
    <glyph glyph-name="arrowboth" unicode="&#x2194;" horiz-adv-x="1270" 
d="M782 768h119l289 -385l-289 -383h-119l133 179l120 154h-753l119 -154l133 -179h-118l-289 383l289 385h118l-133 -178l-121 -157h757l-122 157z" />
    <glyph glyph-name="arrowupdn" unicode="&#x2195;" horiz-adv-x="1081" 
d="M613 5l157 121l178 134v-119l-385 -289l-383 289v119l179 -134l154 -119v755l-155 -120l-179 -134v119l383 289l385 -289v-119l-178 134l-156 120v-757z" />
    <glyph glyph-name="uni2196" unicode="&#x2196;" horiz-adv-x="1026" 
d="M342 617l548 -549l-68 -68l-547 548l5 -198v-315h-96v673h673v-96h-304z" />
    <glyph glyph-name="uni2197" unicode="&#x2197;" horiz-adv-x="1000" 
d="M185 612v96h673v-673h-96v315l5 199l-547 -549l-68 68l548 549l-212 -5h-303z" />
    <glyph glyph-name="uni2198" unicode="&#x2198;" horiz-adv-x="1026" 
d="M780 358v315h97v-673h-674v96h304l211 -5l-548 549l68 68l548 -549z" />
    <glyph glyph-name="uni2199" unicode="&#x2199;" horiz-adv-x="1000" 
d="M882 640l-548 -549l212 5h303v-96h-673v673h96v-315l-5 -199l547 549z" />
    <glyph glyph-name="partialdiff" unicode="&#x2202;" horiz-adv-x="725" 
d="M367 783q273 0 273 -397q0 -198 -67 -300t-196 -102q-107 0 -172 69q-64 67 -64 180q0 111 65 178q64 66 168 66q94 0 165 -56q-7 145 -50.5 210t-128.5 65q-66 0 -137 -33l-35 81q87 39 179 39zM382 70q73 0 111 57.5t45 179.5q-26 41 -67.5 64t-88.5 23
q-66 0 -103.5 -41.5t-37.5 -117.5t37.5 -120.5t103.5 -44.5z" />
    <glyph glyph-name="uni2206" unicode="&#x2206;" horiz-adv-x="764" 
d="M243 768h144l289 -768h-714zM302 661l-206 -576h441l-206 576l-15 46z" />
    <glyph glyph-name="product" unicode="&#x220f;" horiz-adv-x="1070" 
d="M223 768h627v-972h-103v885h-421v-885h-103v972z" />
    <glyph glyph-name="summation" unicode="&#x2211;" horiz-adv-x="954" 
d="M612 287l-308 -398h460v-93h-585v83l317 408l-303 398v83h559v-93h-435z" />
    <glyph glyph-name="minus" unicode="&#x2212;" horiz-adv-x="751" 
d="M642 293h-533v94h533v-94z" />
    <glyph glyph-name="uni2215" unicode="&#x2215;" horiz-adv-x="364" 
d="M-72 -15h-95l652 798h93z" />
    <glyph glyph-name="uni2219" unicode="&#x2219;" horiz-adv-x="452" 
d="M326 185h-238l50 236h238z" />
    <glyph glyph-name="radical" unicode="&#x221a;" horiz-adv-x="751" 
d="M489 -204h-137l-120 329l-108 -41l-29 79l189 71l128 -356l190 925h94z" />
    <glyph glyph-name="infinity" unicode="&#x221e;" horiz-adv-x="863" 
d="M255 177q-74 0 -118 47t-44 123t44.5 123.5t114.5 47.5q50 0 95 -28.5t100 -88.5q58 64 100 91t92 27q71 0 117 -48q45 -48 45 -122q0 -76 -45 -125t-117 -49q-90 0 -192 113q-61 -61 -102 -86t-90 -25zM641 257q36 0 57.5 24t21.5 65q0 43 -22 67.5t-61 24.5
q-31 0 -62 -22t-76 -71q72 -88 142 -88zM255 258q65 0 140 87q-83 92 -142 92q-36 0 -57.5 -25.5t-21.5 -65.5t22 -64t59 -24z" />
    <glyph glyph-name="integral" unicode="&#x222b;" horiz-adv-x="751" 
d="M270 -204h-45v87h33q38 0 53 17.5t15 59.5v683q0 160 155 160h45v-87h-32q-38 0 -53 -17.5t-15 -59.5v-683q0 -160 -156 -160z" />
    <glyph glyph-name="approxequal" unicode="&#x2248;" horiz-adv-x="751" 
d="M200 384h-86q0 87 38.5 133.5t105.5 46.5q39 2 86.5 -22.5t87 -49t60.5 -22.5q59 0 59 94h86q0 -86 -38.5 -133t-104.5 -47q-40 -2 -86.5 23t-86 50t-62.5 23q-59 0 -59 -96zM200 130h-86q0 87 38.5 133.5t105.5 46.5q39 2 86.5 -22.5t87 -49t60.5 -22.5q59 0 59 94h86
q0 -86 -38.5 -133t-104.5 -47q-40 -2 -86.5 23t-86 50t-62.5 23q-59 0 -59 -96z" />
    <glyph glyph-name="notequal" unicode="&#x2260;" horiz-adv-x="751" 
d="M642 494v-85h-192l-61 -139h253v-85h-290l-85 -192l-60 23l74 169h-172v85h210l61 139h-271v85h308l85 192l60 -23l-74 -169h154z" />
    <glyph glyph-name="lessequal" unicode="&#x2264;" horiz-adv-x="751" 
d="M109 453l533 167v-94l-445 -125l445 -125v-94l-533 166v105zM642 -5h-533v94h533v-94z" />
    <glyph glyph-name="greaterequal" unicode="&#x2265;" horiz-adv-x="751" 
d="M110 526v94l533 -167v-105l-533 -166v94l444 125zM643 -5h-533v94h533v-94z" />
    <glyph glyph-name="uni2460" unicode="&#x2460;" horiz-adv-x="1270" 
d="M663 -117q-230 0 -382 149t-152 375q0 227 152 376t382 149q231 0 383 -149q151 -148 151 -376q0 -227 -151 -375q-150 -149 -383 -149zM347 91q125 -126 316 -126t317 126q125 125 125 316t-125 318q-127 125 -317 125q-191 0 -316 -125q-126 -126 -126 -318
q0 -191 126 -316zM736 164h-84v306h-163v75h91q72 0 72 62v55h84v-498z" />
    <glyph glyph-name="uni2461" unicode="&#x2461;" horiz-adv-x="1270" 
d="M663 -117q-230 0 -382 149t-152 375q0 227 152 376t382 149q231 0 383 -149q151 -148 151 -376q0 -227 -151 -375q-150 -149 -383 -149zM347 91q125 -126 316 -126t317 126q125 125 125 316t-125 318q-127 125 -317 125q-191 0 -316 -125q-126 -126 -126 -318
q0 -191 126 -316zM890 173h-434q0 92 38 145.5t122 83.5l100 36q77 29 77 87q0 40 -32 62t-91 22q-60 0 -91.5 -25.5t-38.5 -80.5l-84 10q6 75 63.5 121.5t154.5 46.5t150.5 -40.5t53.5 -115.5q0 -57 -33 -94.5t-102 -61.5l-84 -31q-99 -38 -99 -90h330v-75z" />
    <glyph glyph-name="uni2462" unicode="&#x2462;" horiz-adv-x="1270" 
d="M663 -117q-230 0 -382 149t-152 375q0 227 152 376t382 149q231 0 383 -149q151 -148 151 -376q0 -227 -151 -375q-150 -149 -383 -149zM347 91q125 -126 316 -126t317 126q125 125 125 316t-125 318q-127 125 -317 125q-191 0 -316 -125q-126 -126 -126 -318
q0 -191 126 -316zM670 152q-93 0 -148 41.5t-67 119.5l83 13q18 -102 135 -102q58 0 91 22t33 61q0 76 -123 76h-44v72h40q117 0 117 73q0 74 -119 74q-110 0 -130 -77l-80 12q15 64 70 99.5t142 35.5q89 0 144 -36t55 -101q0 -87 -81 -109v-2q94 -19 94 -116
q0 -72 -57 -114t-155 -42z" />
    <glyph glyph-name="uni2463" unicode="&#x2463;" horiz-adv-x="1270" 
d="M663 -117q-230 0 -382 149t-152 375q0 227 152 376t382 149q231 0 383 -149q151 -148 151 -376q0 -227 -151 -375q-150 -149 -383 -149zM347 91q125 -126 316 -126t317 126q125 125 125 316t-125 318q-127 125 -317 125q-191 0 -316 -125q-126 -126 -126 -318
q0 -191 126 -316zM800 169h-86v127l-294 -7v82l283 296h97v-312l77 9v-75l-77 7v-127zM712 574l-203 -213l205 -6v219h-2z" />
    <glyph glyph-name="uni2464" unicode="&#x2464;" horiz-adv-x="1270" 
d="M663 -117q-230 0 -382 149t-152 375q0 227 152 376t382 149q231 0 383 -149q151 -148 151 -376q0 -227 -151 -375q-150 -149 -383 -149zM347 91q125 -126 316 -126t317 126q125 125 125 316t-125 318q-127 125 -317 125q-191 0 -316 -125q-126 -126 -126 -318
q0 -191 126 -316zM661 151q-76 0 -132.5 30.5t-79.5 83.5l79 30q38 -72 137 -72q60 0 95.5 29.5t35.5 78.5q0 48 -34 74.5t-94 26.5q-78 0 -129 -51l-77 21l52 258h343v-69h-280l-25 -124l3 -1q53 32 128 32q93 0 145.5 -44t52.5 -123q0 -84 -59 -132t-161 -48z" />
    <glyph glyph-name="uni2465" unicode="&#x2465;" horiz-adv-x="1270" 
d="M663 -117q-230 0 -382 149t-152 375q0 227 152 376t382 149q231 0 383 -149q151 -148 151 -376q0 -227 -151 -375q-150 -149 -383 -149zM347 91q125 -126 316 -126t317 126q125 125 125 316t-125 318q-127 125 -317 125q-191 0 -316 -125q-126 -126 -126 -318
q0 -191 126 -316zM675 149q-107 0 -167 67t-60 180q0 132 59.5 202t169.5 70q142 0 191 -103l-73 -25q-34 58 -118 58q-136 0 -142 -174q51 66 158 66q86 0 138 -45.5t52 -118.5q0 -80 -57 -128.5t-151 -48.5zM586 247q37 -30 91 -30q55 0 89 30q35 29 35 78q0 47 -33.5 74
t-90.5 27q-48 0 -86 -25.5t-52 -67.5q11 -58 47 -86z" />
    <glyph glyph-name="uni2466" unicode="&#x2466;" horiz-adv-x="1270" 
d="M663 -117q-230 0 -382 149t-152 375q0 227 152 376t382 149q231 0 383 -149q151 -148 151 -376q0 -227 -151 -375q-150 -149 -383 -149zM347 91q125 -126 316 -126t317 126q125 125 125 316t-125 318q-127 125 -317 125q-191 0 -316 -125q-126 -126 -126 -318
q0 -191 126 -316zM657 139h-84q1 112 59 230q55 116 149 193h-313v75h416v-76q-222 -165 -227 -422z" />
    <glyph glyph-name="uni2467" unicode="&#x2467;" horiz-adv-x="1270" 
d="M663 -117q-230 0 -382 149t-152 375q0 227 152 376t382 149q231 0 383 -149q151 -148 151 -376q0 -227 -151 -375q-150 -149 -383 -149zM347 91q125 -126 316 -126t317 126q125 125 125 316t-125 318q-127 125 -317 125q-191 0 -316 -125q-126 -126 -126 -318
q0 -191 126 -316zM673 155q-108 0 -169 40.5t-61 112.5q0 45 28 77.5t74 42.5v1q-37 11 -59.5 41.5t-22.5 67.5q0 65 55 100.5t155 35.5q101 0 156.5 -35.5t55.5 -100.5q0 -37 -23 -66.5t-59 -42.5v-1q45 -10 72.5 -42.5t27.5 -77.5q0 -72 -61.5 -112.5t-168.5 -40.5z
M574 478q32 -18 99 -18q69 0 100 18t31 57q0 72 -131 72q-130 0 -130 -72q0 -39 31 -57zM673 224q69 0 107 22.5t38 62.5q0 84 -145 84q-144 0 -144 -84q0 -40 38.5 -62.5t105.5 -22.5z" />
    <glyph glyph-name="uni2468" unicode="&#x2468;" horiz-adv-x="1270" 
d="M663 -117q-230 0 -382 149t-152 375q0 227 152 376t382 149q231 0 383 -149q151 -148 151 -376q0 -227 -151 -375q-150 -149 -383 -149zM347 91q125 -126 316 -126t317 126q125 125 125 316t-125 318q-127 125 -317 125q-191 0 -316 -125q-126 -126 -126 -318
q0 -191 126 -316zM668 152q-143 0 -190 104l73 24q35 -59 117 -59q137 0 143 175q-55 -67 -159 -67q-86 0 -138 46t-52 119q0 80 57 128.5t152 48.5q106 0 166 -67t60 -180q0 -131 -59.5 -201.5t-169.5 -70.5zM669 394q48 0 86 26t52 68q-11 56 -47.5 85.5t-90.5 29.5
q-55 0 -90 -30t-35 -78q0 -47 34 -74t91 -27z" />
    <glyph glyph-name="uni24EA" unicode="&#x24ea;" horiz-adv-x="1270" 
d="M663 -117q-230 0 -382 149t-152 375q0 227 152 376t382 149q231 0 383 -149q151 -148 151 -376q0 -227 -151 -375q-150 -149 -383 -149zM347 91q125 -126 316 -126t317 126q125 125 125 316t-125 318q-127 125 -317 125q-191 0 -316 -125q-126 -126 -126 -318
q0 -191 126 -316zM663 153q-107 0 -167 68t-60 192q0 123 59.5 191t167.5 68t167 -68t59 -191q0 -124 -59 -192t-167 -68zM558 273q38 -47 105 -47t105 48q37 46 37 139q0 91 -37 139t-105 48t-105 -48t-37 -139q0 -94 37 -140z" />
    <glyph glyph-name="uni24FF" unicode="&#x24ff;" horiz-adv-x="1270" 
d="M663 -117q-230 0 -382 149t-152 375q0 227 152 376t382 149q231 0 383 -149q151 -148 151 -376q0 -227 -151 -375q-150 -149 -383 -149zM663 153q108 0 167 68t59 192q0 123 -59 191t-167 68t-167.5 -68t-59.5 -191q0 -124 60 -192t167 -68zM768 274q-38 -48 -105 -48
t-105 47q-37 46 -37 140q0 91 37 139t105 48t105 -48t37 -139q0 -93 -37 -139z" />
    <glyph glyph-name="filledbox" unicode="&#x25a0;" horiz-adv-x="1397" 
d="M1203 -88h-962v941h962v-941z" />
    <glyph glyph-name="uni25A1" unicode="&#x25a1;" horiz-adv-x="1397" 
d="M1203 -88h-962v941h962v-941zM333 770v-775h777v775h-777z" />
    <glyph glyph-name="lozenge" unicode="&#x25ca;" horiz-adv-x="630" 
d="M271 768h134l189 -384l-189 -384h-134l-189 384zM184 384l154 -330l154 330l-154 330z" />
    <glyph glyph-name="circle" unicode="&#x25cb;" horiz-adv-x="1270" 
d="M663 -117q-230 0 -382 149t-152 375q0 227 152 376t382 149q231 0 383 -149q151 -148 151 -376q0 -227 -151 -375q-150 -149 -383 -149zM347 91q125 -126 316 -126t317 126q125 125 125 316t-125 318q-127 125 -317 125q-191 0 -316 -125q-126 -126 -126 -318
q0 -191 126 -316z" />
    <glyph glyph-name="uni25CF" unicode="&#x25cf;" horiz-adv-x="1270" 
d="M663 -117q-230 0 -382 149t-152 375q0 227 152 376t382 149q231 0 383 -149q151 -148 151 -376q0 -227 -151 -375q-150 -149 -383 -149z" />
    <glyph glyph-name="uni2776" unicode="&#x2776;" horiz-adv-x="1270" 
d="M663 -117q-230 0 -382 149t-152 375q0 227 152 376t382 149q231 0 383 -149q151 -148 151 -376q0 -227 -151 -375q-150 -149 -383 -149zM654 470v-306h85v498h-85v-55q0 -62 -72 -62h-91v-75h163z" />
    <glyph glyph-name="uni2777" unicode="&#x2777;" horiz-adv-x="1270" 
d="M663 932q231 0 383 -149q151 -148 151 -376q0 -227 -151 -375q-150 -149 -383 -149q-230 0 -382 149t-152 375q0 227 152 376t382 149zM452 179h433v75h-330q1 54 99 90l84 30q69 25 102 62.5t33 94.5q0 74 -54 115t-150 41t-154 -47t-64 -121l84 -10q13 106 130 106
q123 0 123 -85q0 -57 -77 -86l-99 -36q-83 -30 -121.5 -84t-38.5 -145z" />
    <glyph glyph-name="uni2778" unicode="&#x2778;" horiz-adv-x="1270" 
d="M663 -117q-230 0 -382 149t-152 375q0 227 152 376t382 149q231 0 383 -149q151 -148 151 -376q0 -227 -151 -375q-150 -149 -383 -149zM671 152q98 0 155 42t57 114q0 45 -24.5 75.5t-69.5 39.5v2q81 25 81 110q0 65 -54.5 100.5t-144.5 35.5q-87 0 -142 -35t-70 -99
l80 -13q19 78 130 78q119 0 119 -74q0 -73 -117 -73h-40v-72h44q123 0 123 -76q0 -39 -33 -61t-91 -22q-116 0 -136 102l-82 -13q12 -78 67 -119.5t148 -41.5z" />
    <glyph glyph-name="uni2779" unicode="&#x2779;" horiz-adv-x="1270" 
d="M663 -117q-230 0 -382 149t-152 375q0 227 152 376t382 149q231 0 383 -149q151 -148 151 -376q0 -227 -151 -375q-150 -149 -383 -149zM708 300v-127h86v127l76 -7v75l-76 -9v312h-98l-283 -296v-82zM708 359l-205 6l203 213h2v-219z" />
    <glyph glyph-name="uni277A" unicode="&#x277a;" horiz-adv-x="1270" 
d="M663 932q231 0 383 -149q151 -148 151 -376q0 -227 -151 -375q-150 -149 -383 -149q-230 0 -382 149t-152 375q0 227 152 376t382 149zM664 150q102 0 160.5 48.5t58.5 132.5q0 79 -52.5 123t-144.5 44q-76 0 -129 -32l-2 1l25 123h280v69h-343l-52 -258l77 -20
q51 51 129 51q60 0 94 -27t34 -75q0 -49 -35.5 -78t-95.5 -29q-48 0 -84.5 19t-52.5 52l-80 -29q23 -54 79.5 -84.5t133.5 -30.5z" />
    <glyph glyph-name="uni277B" unicode="&#x277b;" horiz-adv-x="1270" 
d="M663 -117q-230 0 -382 149t-152 375q0 227 152 376t382 149q231 0 383 -149q151 -148 151 -376q0 -227 -151 -375q-150 -149 -383 -149zM672 153q95 0 151.5 48.5t56.5 128.5q0 73 -52 118.5t-138 45.5q-105 0 -158 -66q6 174 143 174q83 0 117 -58l73 24
q-50 104 -190 104q-111 0 -170 -70.5t-59 -202.5q0 -113 59.5 -179.5t166.5 -66.5zM764 251q-36 -30 -90 -30q-53 0 -90 29q-37 28 -48 86q14 42 52 67.5t86 25.5q57 0 91 -27t34 -73q0 -49 -35 -78z" />
    <glyph glyph-name="uni277C" unicode="&#x277c;" horiz-adv-x="1270" 
d="M663 -117q-230 0 -382 149t-152 375q0 227 152 376t382 149q231 0 383 -149q151 -148 151 -376q0 -227 -151 -375q-150 -149 -383 -149zM565 144h85q4 256 226 423v75h-415v-74h313q-93 -77 -150 -193q-58 -120 -59 -231z" />
    <glyph glyph-name="uni277D" unicode="&#x277d;" horiz-adv-x="1270" 
d="M663 -117q-230 0 -382 149t-152 375q0 227 152 376t382 149q231 0 383 -149q151 -148 151 -376q0 -227 -151 -375q-150 -149 -383 -149zM664 154q106 0 167.5 40.5t61.5 112.5q0 45 -27.5 77.5t-72.5 42.5v1q37 13 59.5 42t22.5 67q0 66 -54.5 101t-156.5 35
q-100 0 -155 -35.5t-55 -100.5q0 -37 22.5 -67.5t59.5 -41.5v-1q-46 -10 -74 -42.5t-28 -77.5q0 -72 61 -112.5t169 -40.5zM764 477q-32 -18 -100 -18t-99 18q-32 18 -32 57q0 72 131 72t131 -72q0 -39 -31 -57zM664 223q-68 0 -106.5 22.5t-38.5 62.5q0 84 145 84t145 -84
q0 -40 -38 -62.5t-107 -22.5z" />
    <glyph glyph-name="uni277E" unicode="&#x277e;" horiz-adv-x="1270" 
d="M663 -117q-230 0 -382 149t-152 375q0 227 152 376t382 149q231 0 383 -149q151 -148 151 -376q0 -227 -151 -375q-150 -149 -383 -149zM663 151q110 0 169 70.5t59 201.5q0 113 -59.5 180t-166.5 67q-94 0 -151 -48.5t-57 -128.5q0 -75 51.5 -120t137.5 -45
q105 0 159 67q-6 -174 -142 -174q-83 0 -118 59l-73 -25q50 -104 191 -104zM663 393q-57 0 -91 27t-34 74q0 48 35 78t90 30t91 -29.5t48 -85.5q-15 -42 -53 -68t-86 -26z" />
    <glyph glyph-name="uni2E18" unicode="&#x2e18;" horiz-adv-x="740" 
d="M378 548h116l-24 -114h-117zM516 15l95 -13q-26 -107 -109.5 -165.5t-210.5 -58.5q-120 0 -191 49q-73 49 -73 138q0 131 165 215l60 31q50 26 71 53t43 101h63l-42 -280l-22 -100h-97l22 100l23 83q-34 -22 -50 -29q-72 -35 -106.5 -73.5t-34.5 -88.5q0 -58 46 -88.5
t125 -30.5q186 0 223 157z" />
    <glyph glyph-name="uniF8FF" unicode="&#xf8ff;" horiz-adv-x="1352" 
d="M590 483h-53v184q0 37 -17 54q-18 18 -45 18q-55 0 -78 -62v-194h-53v410h53v-153q31 43 88 43q50 0 78 -28q27 -29 27 -82v-190zM1061 893h54v-410h-54v410zM914 566l47 -8q-16 -39 -50.5 -61.5t-82.5 -22.5q-67 0 -105.5 42.5t-38.5 112.5t38 112.5t106 42.5t103.5 -41
t35.5 -114v-15h-230q6 -96 94 -96q61 0 83 48zM738 653h177q-7 90 -88 90q-80 0 -89 -90zM1156 299q0 -11 -1 -15h-229q8 -96 94 -96q58 0 83 49l47 -9q-16 -39 -51 -61t-82 -22q-68 0 -106 42.5t-38 112.5q0 69 37 112t106 43t105 -42q35 -44 35 -114zM693 235l74 211h52
l-108 -292h-63l-112 292h57l74 -211q0 -1 5 -15l8 -25q11 36 13 40zM927 323h177q-9 91 -89 91q-81 0 -88 -91zM449 177h-53v65h53v-65zM204 198v-65l-4 -24l103 4v-42l-104 5l5 -47v-122q0 -42 39 -42h59v-44h-70q-37 0 -59.5 22t-22.5 62v124l4 47l-70 -5v42l70 -4l-4 24
v65h54zM681 -140q63 0 78 66l50 -5q-22 -106 -128 -106q-65 0 -102 41t-37 112q0 72 35.5 113t100.5 41q107 0 130 -95l-52 -6q-14 57 -77 57q-84 0 -84 -110q0 -108 86 -108zM1022 121q63 0 89.5 -23.5t26.5 -70.5v-151v-55h-42q-6 32 -7 36q-31 -45 -101 -45
q-47 0 -75.5 23t-28.5 63q0 39 26.5 59.5t84.5 32.5l68 13q16 4 23 7v16q0 28 -14 41t-51 13q-40 0 -57.5 -12.5t-20.5 -44.5l-48 6q11 92 127 92zM449 -179h-53v292h53v-292zM1000 -148q29 0 52 14.5t33 39.5v65q-7 -3 -19 -5l-63 -12q-65 -14 -65 -54q0 -48 62 -48z" />
    <glyph glyph-name="uniFEFF" unicode="&#xfeff;" 
 />
    <glyph glyph-name="null" 
 />
    <glyph glyph-name="Adieresis.ss01" horiz-adv-x="764" 
d="M445 897q-29 -31 -73.5 -14t-40.5 62q0 28 18.5 46t47.5 18t47.5 -18t18.5 -46q0 -30 -18 -48zM585 991q28 30 72.5 13t40.5 -59q0 -30 -18.5 -48.5t-47.5 -18.5t-47.5 18.5t-18.5 48.5q0 28 19 46zM-38 0l444 768h144l126 -768h-102l-30 197h-360l-111 -197h-111z
M446 661l-214 -379h299l-57 379l-5 45z" />
    <glyph glyph-name="Cdotaccent.ss01" horiz-adv-x="851" 
d="M624 897q-21 -18 -47.5 -19t-48 18.5t-19.5 48.5q0 28 19 46t48 18t48 -18t19 -46q0 -30 -19 -48zM409 -18q-141 0 -223 84q-82 83 -82 227q0 61 13 119q37 176 155 276q116 98 276 98q121 0 196 -57t96 -165l-98 -11q-13 70 -65.5 108t-135.5 38q-121 0 -209 -79
q-90 -79 -120 -230q-10 -49 -10 -96q0 -107 56 -164t159 -57q185 0 269 171l94 -11q-50 -120 -148 -185q-99 -66 -223 -66z" />
    <glyph glyph-name="Edieresis.ss01" horiz-adv-x="718" 
d="M457 897q-29 -31 -73.5 -14t-40.5 62q0 28 18.5 46t47.5 18t47.5 -18t18.5 -46q0 -30 -18 -48zM692 897q-29 -31 -73.5 -14t-40.5 62q0 28 18.5 46t47.5 18t47.5 -18t18.5 -46q0 -30 -18 -48zM753 768l-18 -83h-429l-53 -248h397l-19 -83h-395l-58 -271h435l-18 -83h-535
l164 768h529z" />
    <glyph glyph-name="Edotaccent.ss01" horiz-adv-x="718" 
d="M569 897q-21 -18 -47.5 -19t-48 18.5t-19.5 48.5q0 28 19 46t48 18t47.5 -18t18.5 -46q0 -30 -18 -48zM753 768l-18 -83h-429l-53 -248h397l-19 -83h-395l-58 -271h435l-18 -83h-535l164 768h529z" />
    <glyph glyph-name="uni0122.ss01" horiz-adv-x="898" 
d="M691 317h-220l17 81h319l-85 -398h-77l7 97q-100 -114 -260 -114q-135 0 -212 83t-77 221q0 53 11 108q39 186 150 288t288 102q114 0 187 -59t92 -165l-101 -13q-34 154 -191 154q-120 0 -207 -84t-117 -233q-10 -47 -10 -96q0 -105 53.5 -163.5t147.5 -58.5
q87 0 155.5 40.5t110.5 118.5zM346 -85q67 0 67 -61q0 -16 -3 -32l-5 -23q-8 -37 -41 -58.5t-85 -21.5h-18l10 45h20q57 0 64 42l2 10q-16 -2 -22 -2q-25 0 -40.5 13t-15.5 36q0 24 18 38t49 14z" />
    <glyph glyph-name="Gdotaccent.ss01" horiz-adv-x="898" 
d="M614 897q-21 -18 -47.5 -19t-48 18.5t-19.5 48.5q0 28 19 46t48 18t48 -18t19 -46q0 -30 -19 -48zM691 317h-220l17 81h319l-85 -398h-77l7 97q-100 -114 -260 -114q-135 0 -212 83t-77 221q0 53 11 108q39 186 150 288t288 102q114 0 187 -59t92 -165l-101 -13
q-34 154 -191 154q-120 0 -207 -84t-117 -233q-10 -47 -10 -96q0 -105 53.5 -163.5t147.5 -58.5q87 0 155.5 40.5t110.5 118.5z" />
    <glyph glyph-name="Idieresis.ss01" horiz-adv-x="339" 
d="M243 897q-29 -31 -73.5 -14t-40.5 62q0 28 18.5 46t47.5 18t48 -18t19 -46q0 -30 -19 -48zM479 897q-21 -18 -47.5 -19t-48 18.5t-19.5 48.5q0 28 19 46t48 18t47.5 -18t18.5 -46q0 -30 -18 -48zM163 0h-103l164 768h103z" />
    <glyph glyph-name="Idotaccent.ss01" horiz-adv-x="339" 
d="M361 897q-21 -18 -47.5 -19t-48 18.5t-19.5 48.5q0 28 19 46t48 18t47.5 -18t18.5 -46q0 -30 -18 -48zM163 0h-103l164 768h103z" />
    <glyph glyph-name="uni0136.ss01" horiz-adv-x="750" 
d="M672 769h134l-360 -334l227 -435h-110l-195 374l-155 -138l-50 -236h-103l164 769h103l-87 -407zM274 -99q18 14 49 14t49 -16q18 -17 18 -45q0 -16 -3 -32l-5 -23q-8 -37 -41.5 -58.5t-84.5 -21.5h-19l11 45h20q56 0 64 42l2 10q-16 -2 -22 -2q-25 0 -40.5 13t-15.5 36
q0 25 18 38z" />
    <glyph glyph-name="uni013B.ss01" horiz-adv-x="669" 
d="M325 768l-146 -685h401l-19 -83h-501l164 768h101zM244 -99q18 14 49 14t49 -16q18 -17 18 -45q0 -16 -3 -32l-5 -23q-8 -37 -41.5 -58.5t-84.5 -21.5h-19l11 45h20q56 0 64 42l2 10q-16 -2 -22 -2q-25 0 -40.5 13t-15.5 36q0 25 18 38z" />
    <glyph glyph-name="Ldot.ss01" horiz-adv-x="669" 
d="M325 768l-146 -685h401l-19 -83h-501l164 768h101zM514 346q-23 -18 -51 -19t-51 19t-20 49q0 31 19.5 50t51.5 19t51.5 -19t19.5 -50q0 -29 -20 -49z" />
    <glyph glyph-name="uni0145.ss01" horiz-adv-x="868" 
d="M623 128l135 641h97l-164 -769h-108l-290 640l-136 -640h-97l164 769h109zM275 -99q18 14 49 14t49 -16q18 -17 18 -45q0 -16 -3 -32l-5 -23q-8 -37 -41.5 -58.5t-84.5 -21.5h-19l11 45h20q57 0 64 42l2 10q-16 -2 -22 -2q-25 0 -40.5 13t-15.5 36q0 25 18 38z" />
    <glyph glyph-name="Odieresis.ss01" horiz-adv-x="925" 
d="M516 911q-29 -31 -73.5 -14t-40.5 62q0 28 18.5 46t47.5 18t47.5 -18t18.5 -46q0 -30 -18 -48zM751 911q-29 -31 -73.5 -14t-40.5 62q0 28 18.5 46t47.5 18t47.5 -18t18.5 -46q0 -30 -18 -48zM422 -17q-148 0 -232 86q-85 85 -85 229q0 54 10 101q34 173 151 281
q115 106 281 106q149 0 235 -86q85 -86 85 -230q0 -51 -11 -101q-35 -176 -150 -281q-116 -105 -284 -105zM429 66q129 0 215 87q86 85 114 231q9 45 9 84q0 109 -60 171.5t-167 62.5q-128 0 -212 -86q-84 -87 -114 -232q-9 -45 -9 -84q0 -109 59 -171.5t165 -62.5z" />
    <glyph glyph-name="uni0156.ss01" horiz-adv-x="799" 
d="M772 604q0 -88 -54 -151.5t-146 -88.5q87 -26 87 -122q0 -1 -2 -39l-16 -203h-100l16 195q2 30 2 37q0 48 -25.5 70t-82.5 22h-222l-69 -324h-100l164 768h340q99 0 153.5 -44t54.5 -120zM247 406h199q102 0 162.5 49.5t60.5 135.5q0 95 -142 95h-221zM276 -99
q18 14 49 14t49 -16q18 -17 18 -45q0 -16 -3 -32l-5 -23q-8 -37 -41.5 -58.5t-84.5 -21.5h-19l11 45h20q56 0 64 42l2 10q-16 -2 -22 -2q-25 0 -40.5 13t-15.5 36q0 25 18 38z" />
    <glyph glyph-name="uni0218.ss01" horiz-adv-x="781" 
d="M759 603v-18l-100 -10v17q0 114 -176 114q-207 0 -207 -146q0 -42 30 -67t102 -41l93 -19q97 -21 146.5 -71.5t49.5 -121.5q0 -129 -94 -194.5t-263 -65.5q-134 0 -208 55.5t-74 159.5v20l103 10v-22q0 -138 189 -138q112 0 176 39.5t64 117.5q0 91 -142 119l-92 20
q-187 42 -187 187q0 120 85 181.5t238 61.5q130 0 198.5 -50t68.5 -138zM259 -108q18 14 49 14t49 -16t18 -45q0 -15 -3 -32l-5 -23q-8 -37 -41.5 -58.5t-84.5 -21.5h-19l11 45h20q57 0 64 42l2 10q-16 -2 -22 -2q-25 0 -40.5 13t-15.5 36q0 24 18 38z" />
    <glyph glyph-name="uni021A.ss01" horiz-adv-x="653" 
d="M137 768h590l-18 -83h-244l-145 -685h-103l145 685h-243zM190 -99q18 14 49 14t49 -16q18 -17 18 -45q0 -16 -3 -32l-5 -23q-8 -37 -41.5 -58.5t-84.5 -21.5h-19l11 45h20q56 0 64 42l2 10q-16 -2 -22 -2q-25 0 -40.5 13t-15.5 36q0 25 18 38z" />
    <glyph glyph-name="Udieresis.ss01" horiz-adv-x="846" 
d="M486 897q-29 -31 -73.5 -14t-40.5 62q0 28 18.5 46t47.5 18t47.5 -18t18.5 -46q0 -30 -18 -48zM721 897q-29 -31 -73.5 -14t-40.5 62q0 28 18.5 46t47.5 18t47.5 -18t18.5 -46q0 -30 -18 -48zM373 -17q-265 0 -265 204q0 35 12 93l103 488h103l-106 -505q-8 -40 -8 -65
q0 -65 40.5 -96t128.5 -31q107 0 163.5 45t77.5 147l107 505h104l-105 -497q-31 -150 -115 -219t-240 -69z" />
    <glyph glyph-name="Wdieresis.ss01" horiz-adv-x="1134" 
d="M609 897q-29 -31 -73.5 -14t-40.5 62q0 28 18.5 46t47.5 18t47.5 -18t18.5 -46q0 -30 -18 -48zM844 897q-29 -31 -73.5 -14t-40.5 62q0 28 18.5 46t47.5 18t47.5 -18t18.5 -46q0 -30 -18 -48zM806 154l305 614h99l-392 -768h-121l-50 685l-318 -685h-121l-83 768h90
l60 -612l3 -87l35 85l281 614h135l39 -612l-1 -85z" />
    <glyph glyph-name="Ydieresis.ss01" horiz-adv-x="704" 
d="M419 888q-29 -31 -73.5 -14t-40.5 62q0 28 18.5 46t47.5 18t47.5 -18t18.5 -46q0 -30 -18 -48zM654 888q-29 -31 -73.5 -14t-40.5 62q0 28 18.5 46t47.5 18t47.5 -18t18.5 -46q0 -30 -18 -48zM670 769h118l-379 -458h-1l-66 -311h-104l67 312l-186 457h102l132 -344
l12 -39l29 39z" />
    <glyph glyph-name="Zdotaccent.ss01" horiz-adv-x="781" 
d="M581 897q-21 -18 -47.5 -19t-48 18.5t-19.5 48.5q0 28 19 46t48 18t48 -18t19 -46q0 -30 -19 -48zM209 768h586l-15 -67l-606 -618h484l-19 -83h-615l15 68l601 617h-450z" />
    <glyph glyph-name="G.ss03" horiz-adv-x="871" 
d="M696 323h-246l18 87h344q-45 -207 -153.5 -317t-270.5 -110q-133 0 -210 80t-77 216q0 58 13 117q38 178 152 283q115 106 278 106q122 0 194.5 -60t81.5 -164l-95 -11q-5 71 -54.5 111t-129.5 40q-121 0 -207 -85q-87 -84 -119 -235q-12 -55 -12 -103q0 -100 50 -156
t140 -56q102 0 183 67.5t120 189.5z" />
    <glyph glyph-name="uni01F4.ss03" horiz-adv-x="871" 
d="M596 1062h123l-145 -169h-87zM696 323h-246l18 87h344q-45 -207 -153.5 -317t-270.5 -110q-133 0 -210 80t-77 216q0 58 13 117q38 178 152 283q115 106 278 106q122 0 194.5 -60t81.5 -164l-95 -11q-5 71 -54.5 111t-129.5 40q-121 0 -207 -85q-87 -84 -119 -235
q-12 -55 -12 -103q0 -100 50 -156t140 -56q102 0 183 67.5t120 189.5z" />
    <glyph glyph-name="Gbreve.ss03" horiz-adv-x="871" 
d="M583 891q-78 0 -119 30t-41 85q0 14 4 39h68q0 -4 -0.5 -7.5t-1 -5.5t-0.5 -4v-3q0 -65 92 -65q108 0 127 85h74q-19 -77 -67 -115.5t-136 -38.5zM696 323h-246l18 87h344q-45 -207 -153.5 -317t-270.5 -110q-133 0 -210 80t-77 216q0 58 13 117q38 178 152 283
q115 106 278 106q122 0 194.5 -60t81.5 -164l-95 -11q-5 71 -54.5 111t-129.5 40q-121 0 -207 -85q-87 -84 -119 -235q-12 -55 -12 -103q0 -100 50 -156t140 -56q102 0 183 67.5t120 189.5z" />
    <glyph glyph-name="Gcircumflex.ss03" horiz-adv-x="871" 
d="M663 886l-65 124l-118 -124h-100l173 184h98l100 -184h-88zM696 323h-246l18 87h344q-45 -207 -153.5 -317t-270.5 -110q-133 0 -210 80t-77 216q0 58 13 117q38 178 152 283q115 106 278 106q122 0 194.5 -60t81.5 -164l-95 -11q-5 71 -54.5 111t-129.5 40
q-121 0 -207 -85q-87 -84 -119 -235q-12 -55 -12 -103q0 -100 50 -156t140 -56q102 0 183 67.5t120 189.5z" />
    <glyph glyph-name="uni0122.ss03" horiz-adv-x="871" 
d="M696 323h-246l18 87h344q-45 -207 -153.5 -317t-270.5 -110q-133 0 -210 80t-77 216q0 58 13 117q38 178 152 283q115 106 278 106q122 0 194.5 -60t81.5 -164l-95 -11q-5 71 -54.5 111t-129.5 40q-121 0 -207 -85q-87 -84 -119 -235q-12 -55 -12 -103q0 -100 50 -156
t140 -56q102 0 183 67.5t120 189.5zM365 -158l-91 -21l19 93h137l-20 -92q-21 -94 -127 -94h-29l9 46h30q59 0 66 39z" />
    <glyph glyph-name="Gdotaccent.ss03" horiz-adv-x="871" 
d="M553 1026h99l-26 -122h-99zM696 323h-246l18 87h344q-45 -207 -153.5 -317t-270.5 -110q-133 0 -210 80t-77 216q0 58 13 117q38 178 152 283q115 106 278 106q122 0 194.5 -60t81.5 -164l-95 -11q-5 71 -54.5 111t-129.5 40q-121 0 -207 -85q-87 -84 -119 -235
q-12 -55 -12 -103q0 -100 50 -156t140 -56q102 0 183 67.5t120 189.5z" />
    <glyph glyph-name="uni0122.ss01.ss03" horiz-adv-x="871" 
d="M696 323h-246l18 87h344q-45 -207 -153.5 -317t-270.5 -110q-133 0 -210 80t-77 216q0 58 13 117q38 178 152 283q115 106 278 106q122 0 194.5 -60t81.5 -164l-95 -11q-5 71 -54.5 111t-129.5 40q-121 0 -207 -85q-87 -84 -119 -235q-12 -55 -12 -103q0 -100 50 -156
t140 -56q102 0 183 67.5t120 189.5zM300 -99q18 14 49 14t49 -16q18 -17 18 -45q0 -16 -3 -32l-5 -23q-8 -37 -41.5 -58.5t-84.5 -21.5h-19l10 45h20q57 0 65 42l2 10q-16 -2 -22 -2q-57 0 -57 49q0 25 19 38z" />
    <glyph glyph-name="Gdotaccent.ss01.ss03" horiz-adv-x="871" 
d="M636 914q-21 -18 -47.5 -19t-48 18.5t-19.5 48.5q0 28 19 46t48 18t48 -18t19 -46q0 -30 -19 -48zM696 323h-246l18 87h344q-45 -207 -153.5 -317t-270.5 -110q-133 0 -210 80t-77 216q0 58 13 117q38 178 152 283q115 106 278 106q122 0 194.5 -60t81.5 -164l-95 -11
q-5 71 -54.5 111t-129.5 40q-121 0 -207 -85q-87 -84 -119 -235q-12 -55 -12 -103q0 -100 50 -156t140 -56q102 0 183 67.5t120 189.5z" />
    <glyph glyph-name="R.ss04" horiz-adv-x="757" 
d="M758 570q0 -103 -67 -171q-66 -69 -178 -86l152 -313h-110l-148 307h-178l-66 -307h-103l164 768h307q111 0 169 -53t58 -145zM246 389h198q100 0 157 48t57 126q0 123 -143 123h-206z" />
    <glyph glyph-name="Racute.ss04" horiz-adv-x="757" 
d="M522 1045h123l-145 -169h-87zM758 570q0 -103 -67 -171q-66 -69 -178 -86l152 -313h-110l-148 307h-178l-66 -307h-103l164 768h307q111 0 169 -53t58 -145zM246 389h198q100 0 157 48t57 126q0 123 -143 123h-206z" />
    <glyph glyph-name="Rcaron.ss04" horiz-adv-x="757" 
d="M720 1047l-180 -183h-99l-93 183h87l65 -124l118 124h102zM758 570q0 -103 -67 -171q-66 -69 -178 -86l152 -313h-110l-148 307h-178l-66 -307h-103l164 768h307q111 0 169 -53t58 -145zM246 389h198q100 0 157 48t57 126q0 123 -143 123h-206z" />
    <glyph glyph-name="uni0156.ss04" horiz-adv-x="757" 
d="M758 570q0 -103 -67 -171q-66 -69 -178 -86l152 -313h-110l-148 307h-178l-66 -307h-103l164 768h307q111 0 169 -53t58 -145zM246 389h198q100 0 157 48t57 126q0 123 -143 123h-206zM326 -167l-91 -22l20 93h136l-19 -91q-21 -94 -128 -94h-29l10 46h29q58 0 66 38z
" />
    <glyph glyph-name="uni0156.ss01.ss04" horiz-adv-x="757" 
d="M758 570q0 -103 -67 -171q-66 -69 -178 -86l152 -313h-110l-148 307h-178l-66 -307h-103l164 768h307q111 0 169 -53t58 -145zM246 389h198q100 0 157 48t57 126q0 123 -143 123h-206zM263 -99q18 14 49 14t49 -16q18 -17 18 -45q0 -16 -3 -32l-5 -23q-8 -37 -41.5 -58.5
t-84.5 -21.5h-19l11 45h20q57 0 64 42l2 10q-16 -2 -22 -2q-25 0 -40.5 13t-15.5 36q0 25 18 38z" />
    <glyph glyph-name="i.loclTRK" horiz-adv-x="313" 
d="M290 667h-100l26 122h100zM148 0h-100l117 548h100z" />
    <glyph glyph-name="adieresis.ss01" horiz-adv-x="652" 
d="M354 697q-19 -19 -48 -19t-47 19q-19 18 -19 47t19 47q18 18 47 18t48 -18t19 -47t-19 -47zM494 791q19 18 48 18t48 -18q18 -18 18 -47t-18 -47q-19 -19 -48 -19t-48 19q-19 18 -19 47t19 47zM376 564q101 0 150.5 -35t49.5 -98q0 -15 -5 -45l-56 -262q-5 -28 2.5 -39.5
t32.5 -11.5h20l-16 -73h-45q-36 0 -59.5 19t-27.5 51q-74 -86 -206 -86q-82 0 -127.5 37.5t-45.5 106.5q0 81 58.5 124t182.5 65l138 24q23 4 45 13l6 30q11 51 -16 76t-92 25q-70 0 -107.5 -24.5t-55.5 -82.5l-88 10q47 176 262 176zM425 165l25 116q-16 -6 -36 -9
l-130 -24q-73 -13 -107 -38.5t-34 -71.5q0 -80 105 -80q55 0 103 28.5t74 78.5z" />
    <glyph glyph-name="cdotaccent.ss01" horiz-adv-x="641" 
d="M468 681q-19 -19 -48 -19t-47 19q-19 18 -19 47t19 47q18 18 47 18t48 -18q18 -18 18 -47t-18 -47zM291 -15q-107 0 -165.5 58.5t-58.5 161.5q0 39 9 81q26 130 106 204t197 74q96 0 151 -48t59 -132l-96 -9q-4 50 -35.5 77.5t-87.5 27.5q-156 0 -197 -204q-7 -32 -7 -65
q0 -68 33.5 -105t97.5 -37q109 0 164 127l95 -10q-36 -97 -104 -149t-161 -52z" />
    <glyph glyph-name="edieresis.ss01" horiz-adv-x="677" 
d="M366 681q-19 -19 -48 -19t-47 19q-19 18 -19 47t19 47q18 18 47 18t48 -18t19 -47t-19 -47zM602 681q-19 -19 -48 -19t-48 19q-19 18 -19 47t19 47t48 18t48 -18q18 -18 18 -47t-18 -47zM393 564q104 0 161.5 -57t57.5 -154q0 -55 -15 -109h-430q-3 -19 -3 -37
q0 -70 36.5 -106t103.5 -36q110 0 174 90l86 -16q-40 -73 -109 -114t-158 -41q-110 0 -170.5 60t-60.5 163q0 31 9 77q24 124 108 202t210 78zM385 488q-73 0 -125 -44t-77 -127h332q2 32 2 35q0 136 -132 136z" />
    <glyph glyph-name="edotaccent.ss01" horiz-adv-x="677" 
d="M483 681q-19 -19 -48 -19t-47 19q-19 18 -19 47t19 47q18 18 47 18t48 -18q18 -18 18 -47t-18 -47zM597 244h-430q-3 -19 -3 -37q0 -70 36.5 -106t103.5 -36q110 0 174 90l86 -16q-40 -73 -109 -114t-158 -41q-110 0 -170.5 60t-60.5 163q0 31 9 77q24 124 108 202
t210 78q104 0 161.5 -57t57.5 -154q0 -55 -15 -109zM385 488q-73 0 -125 -44t-77 -127h332q2 32 2 35q0 136 -132 136z" />
    <glyph glyph-name="uni0123.ss01" horiz-adv-x="692" 
d="M445 662q-32 0 -50 16.5t-18 45.5q0 18 4 31l5 23q8 37 41.5 59t84.5 22h18l-10 -45h-20q-56 0 -64 -42l-2 -10q16 2 22 2q25 0 40.5 -13t15.5 -37t-18 -38t-49 -14zM533 469l24 80h87l-114 -536q-47 -227 -275 -227q-107 0 -163.5 43t-60.5 122l95 9q6 -99 137 -99
q71 0 112 37.5t59 119.5l17 77q-76 -70 -177 -70q-93 0 -147.5 55.5t-54.5 150.5q0 137 82 234q83 98 208 98q116 0 171 -94zM207 140q31 -36 90 -36t106 34q49 36 76 89l28 134q-5 58 -42 90.5t-90 32.5q-89 0 -145 -74t-56 -171q0 -63 33 -99z" />
    <glyph glyph-name="gdotaccent.ss01" horiz-adv-x="692" 
d="M500 681q-19 -19 -48 -19t-47 19q-19 18 -19 47t19 47q18 18 47 18t48 -18q18 -18 18 -47t-18 -47zM533 469l24 80h87l-114 -536q-47 -227 -275 -227q-107 0 -163.5 43t-60.5 122l95 9q6 -99 137 -99q71 0 112 37.5t59 119.5l17 77q-76 -70 -177 -70q-93 0 -147.5 55.5
t-54.5 150.5q0 137 82 234q83 98 208 98q116 0 171 -94zM207 140q31 -36 90 -36t106 34q49 36 76 89l28 134q-5 58 -42 90.5t-90 32.5q-89 0 -145 -74t-56 -171q0 -63 33 -99z" />
    <glyph glyph-name="i.ss01" horiz-adv-x="313" 
d="M254 662q-30 0 -49 18.5t-19 48.5q0 29 19.5 47.5t48.5 18.5t48 -18.5t19 -47.5q0 -30 -19 -48.5t-48 -18.5zM148 0h-100l117 548h100z" />
    <glyph glyph-name="idieresis.ss01" horiz-adv-x="313" 
d="M184 681q-19 -19 -48 -19t-47 19q-19 18 -19 47t19 47q18 18 47 18t48 -18q18 -18 18 -47t-18 -47zM419 681q-19 -19 -48 -19t-47 19q-19 18 -19 47t19 47q18 18 47 18t48 -18q18 -18 18 -47t-18 -47zM148 0h-100l117 548h100z" />
    <glyph glyph-name="i.loclTRK.ss01" horiz-adv-x="313" 
d="M254 662q-30 0 -49 18.5t-19 48.5q0 29 19.5 47.5t48.5 18.5t48 -18.5t19 -47.5q0 -30 -19 -48.5t-48 -18.5zM148 0h-100l117 548h100z" />
    <glyph glyph-name="ij.ss01" horiz-adv-x="626" 
d="M254 662q-30 0 -49 18.5t-19 48.5q0 29 19.5 47.5t48.5 18.5t48 -18.5t19 -47.5q0 -30 -19 -48.5t-48 -18.5zM567 662q-30 0 -49 18.5t-19 48.5q0 29 19.5 47.5t48.5 18.5t48 -18.5t19 -47.5q0 -30 -19 -48.5t-48 -18.5zM148 0h-100l117 548h100zM279 -205h-61l17 81h34
q36 0 53.5 14.5t25.5 51.5l129 606h100l-130 -612q-15 -75 -53.5 -108t-114.5 -33z" />
    <glyph glyph-name="iogonek.ss01" horiz-adv-x="313" 
d="M206 777q29 30 74 12.5t41 -60.5q0 -30 -19 -48.5t-48 -18.5q-30 0 -49 18.5t-19 48.5q0 28 20 48zM50 0h-2l117 548h100l-117 -548l-74 -60q-3 -2 -7 -6q-23 -20 -29.5 -29t-9.5 -27q0 -41 56 -41h29l-14 -67h-46q-55 0 -86.5 25t-31.5 68q0 61 70 106z" />
    <glyph glyph-name="j.ss01" horiz-adv-x="313" 
d="M254 662q-30 0 -49 18.5t-19 48.5q0 29 19.5 47.5t48.5 18.5t48 -18.5t19 -47.5q0 -30 -19 -48.5t-48 -18.5zM-34 -205h-61l17 81h34q36 0 53.5 14.5t25.5 51.5l129 606h100l-130 -612q-15 -75 -53.5 -108t-114.5 -33z" />
    <glyph glyph-name="uni0137.ss01" horiz-adv-x="647" 
d="M517 548h132l-260 -209l157 -339h-106l-126 286l-124 -95l-41 -191h-100l164 768h100l-100 -466zM196 -99q18 14 49 14t49 -16q18 -17 18 -45q0 -16 -3 -32l-5 -23q-8 -37 -41.5 -58.5t-84.5 -21.5h-19l11 45h20q56 0 64 42l2 10q-16 -2 -22 -2q-25 0 -40.5 13t-15.5 36
q0 25 18 38z" />
    <glyph glyph-name="uni013C.ss01" horiz-adv-x="314" 
d="M49 0l164 768h100l-164 -768h-100zM20 -99q18 14 49 14t49 -16q18 -17 18 -45q0 -16 -3 -32l-5 -23q-8 -37 -41.5 -58.5t-84.5 -21.5h-19l11 45h20q56 0 64 42l2 10q-16 -2 -22 -2q-25 0 -40.5 13t-15.5 36q0 25 18 38z" />
    <glyph glyph-name="ldot.ss01" horiz-adv-x="496" 
d="M149 0h-100l164 768h100zM462 335q-21 -19 -52 -19t-51 19q-20 20 -20 49.5t20 49.5t51 20t52 -20q20 -20 20 -50t-20 -49z" />
    <glyph glyph-name="napostrophe.ss01" horiz-adv-x="997" 
d="M379 696q0 -30 -9 -71l-6 -29q-14 -67 -63 -105.5t-120 -38.5h-15l14 63h14q49 0 73 21t35 73l3 13h-18q-40 0 -64 21t-24 57q0 37 25 62t68 25q87 0 87 -91zM744 563q80 0 124.5 -41.5t44.5 -114.5q0 -25 -6 -54l-76 -353h-100l74 344q5 32 5 44q0 43 -24 67t-69 24
q-100 0 -171 -116l-77 -363h-100l117 548h91l-11 -71q77 86 178 86z" />
    <glyph glyph-name="uni0146.ss01" horiz-adv-x="676" 
d="M424 563q80 0 124.5 -41.5t44.5 -114.5q0 -23 -7 -54l-75 -353h-100l73 344q6 26 6 44q0 43 -24.5 67t-69.5 24q-101 0 -170 -116l-77 -363h-100l117 548h91l-11 -71q77 86 178 86zM201 -99q18 14 49 14t49 -16q18 -17 18 -45q0 -16 -3 -32l-5 -23q-8 -37 -41.5 -58.5
t-84.5 -21.5h-19l11 45h20q57 0 64 42l2 10q-16 -2 -22 -2q-25 0 -40.5 13t-15.5 36q0 25 18 38z" />
    <glyph glyph-name="odieresis.ss01" horiz-adv-x="698" 
d="M376 681q-19 -19 -48 -19t-47 19q-19 18 -19 47t19 47q18 18 47 18t48 -18t19 -47t-19 -47zM612 681q-19 -19 -48 -19t-48 19q-19 18 -19 47t19 47t48 18t48 -18q18 -18 18 -47t-18 -47zM297 -16q-109 0 -170 58.5t-61 161.5q0 36 9 80q28 132 112.5 206t212.5 74
q108 0 169.5 -59t61.5 -161q0 -32 -8 -80q-28 -131 -113 -205.5t-213 -74.5zM305 68q86 0 142 54t77 152q7 29 7 65q0 67 -35 104t-103 37q-86 0 -142.5 -54t-77.5 -152q-7 -29 -7 -66q0 -67 35.5 -103.5t103.5 -36.5z" />
    <glyph glyph-name="uni0157.ss01" horiz-adv-x="485" 
d="M443 550h40l-19 -90h-27q-66 0 -116 -20q-60 -25 -102 -110l-70 -330h-100l117 548h91l-17 -102q72 104 203 104zM19 -99q18 14 49 14t49 -16q18 -17 18 -45q0 -16 -3 -32l-5 -23q-8 -37 -41.5 -58.5t-84.5 -21.5h-19l11 45h20q57 0 64 42l2 10q-16 -2 -22 -2
q-25 0 -40.5 13t-15.5 36q0 25 18 38z" />
    <glyph glyph-name="uni0219.ss01" horiz-adv-x="636" 
d="M320 331l65 -12q77 -15 113.5 -50.5t36.5 -98.5q0 -92 -69 -141.5t-192 -49.5q-109 0 -166.5 46t-58.5 130l98 10q0 -59 32 -84.5t102 -25.5q71 0 112.5 25t41.5 75q0 31 -22.5 49.5t-78.5 30.5l-61 13q-151 30 -151 144q0 86 66.5 131.5t179.5 45.5q102 0 158 -43
t58 -121l-95 -10q-2 49 -36.5 74t-93.5 25q-64 0 -102 -23.5t-38 -66.5q0 -29 23 -45.5t78 -27.5zM190 -99q18 14 49 14t49 -16q18 -17 18 -45q0 -16 -3 -32l-5 -23q-8 -37 -41.5 -58.5t-84.5 -21.5h-19l11 45h20q56 0 64 42l2 10q-16 -2 -22 -2q-56 0 -56 49q0 25 18 38z
" />
    <glyph glyph-name="uni021B.ss01" horiz-adv-x="500" 
d="M291 477l-6 -57l-50 -233q-9 -45 -9 -56q0 -50 61 -50h111l-17 -81h-120q-66 0 -101.5 29t-35.5 85q0 14 5 44l56 264l18 54l-132 -7l16 79l130 -8l4 48l25 119h100l-24 -114l-18 -53l194 8l-17 -79zM84 -92q18 14 49 14t49 -16t18 -45q0 -15 -3 -32l-5 -23
q-8 -37 -41.5 -58.5t-84.5 -21.5h-19l11 45h20q56 0 64 42l2 10q-16 -2 -22 -2q-25 0 -40.5 13t-15.5 36q0 24 18 38z" />
    <glyph glyph-name="udieresis.ss01" horiz-adv-x="676" 
d="M355 681q-19 -19 -48 -19t-47 19q-19 18 -19 47t19 47q18 18 47 18t48 -18t19 -47t-19 -47zM591 681q-19 -19 -48 -19t-48 19q-19 18 -19 47t19 47t48 18t48 -18q18 -18 18 -47t-18 -47zM450 183l78 365h100l-117 -548h-92l11 69q-76 -84 -177 -84q-80 0 -124.5 41
t-44.5 115q0 25 6 54l76 353h100l-74 -344q-6 -26 -6 -44q0 -43 24.5 -67t69.5 -24q100 0 170 114z" />
    <glyph glyph-name="wdieresis.ss01" horiz-adv-x="888" 
d="M454 681q-19 -19 -48 -19t-47 19q-19 18 -19 47t19 47q18 18 47 18t48 -18t19 -47t-19 -47zM690 681q-19 -19 -48 -19t-48 19q-19 18 -19 47t19 47t48 18t48 -18q18 -18 18 -47t-18 -47zM592 176l188 372h108l-296 -548h-107l-21 284l-7 150l-69 -151l-139 -283h-102
l-65 548h94l35 -368l4 -77l33 73l181 372h97l26 -367l3 -84z" />
    <glyph glyph-name="ydieresis.ss01" horiz-adv-x="593" 
d="M306 681q-19 -19 -48 -19t-47 19q-19 18 -19 47t19 47q18 18 47 18t48 -18t19 -47t-19 -47zM542 681q-19 -19 -48 -19t-48 19q-19 18 -19 47t19 47t48 18t48 -18q18 -18 18 -47t-18 -47zM247 109l237 439h109l-355 -627q-40 -69 -82 -99q-42 -27 -114 -27h-74l17 82h64
q35 0 58.5 16t48.5 57l22 38l-96 560h101l63 -429z" />
    <glyph glyph-name="zdotaccent.ss01" horiz-adv-x="630" 
d="M445 681q-19 -19 -48 -19t-47 19q-19 18 -19 47t19 47q18 18 47 18t48 -18q18 -18 18 -47t-18 -47zM141 548h452l-15 -71l-410 -393h349l-18 -84h-484l14 67l414 397h-320z" />
    <glyph glyph-name="a.ss02" horiz-adv-x="702" 
d="M538 468l22 80h93l-116 -548h-93l10 66q-76 -82 -185 -82q-94 0 -148 56.5t-54 160.5q0 130 76 242q37 55 96 87.5t127 32.5q121 0 172 -95zM301 64q113 0 175 117l35 167q-6 62 -41.5 99t-97.5 37q-68 0 -115 -46t-67 -105q-20 -60 -20 -116q0 -70 33.5 -111.5
t97.5 -41.5z" />
    <glyph glyph-name="aacute.ss02" horiz-adv-x="702" 
d="M448 825h123l-145 -169h-87zM538 468l22 80h93l-116 -548h-93l10 66q-76 -82 -185 -82q-94 0 -148 56.5t-54 160.5q0 130 76 242q37 55 96 87.5t127 32.5q121 0 172 -95zM301 64q113 0 175 117l35 167q-6 62 -41.5 99t-97.5 37q-68 0 -115 -46t-67 -105q-20 -60 -20 -116
q0 -70 33.5 -111.5t97.5 -41.5z" />
    <glyph glyph-name="abreve.ss02" horiz-adv-x="702" 
d="M435 654q-78 0 -119 30t-41 85q0 14 4 39h68q0 -4 -0.5 -7.5t-1 -5.5t-0.5 -4v-3q0 -65 92 -65q108 0 127 85h74q-19 -77 -67 -115.5t-136 -38.5zM538 468l22 80h93l-116 -548h-93l10 66q-76 -82 -185 -82q-94 0 -148 56.5t-54 160.5q0 130 76 242q37 55 96 87.5
t127 32.5q121 0 172 -95zM301 64q113 0 175 117l35 167q-6 62 -41.5 99t-97.5 37q-68 0 -115 -46t-67 -105q-20 -60 -20 -116q0 -70 33.5 -111.5t97.5 -41.5z" />
    <glyph glyph-name="acircumflex.ss02" horiz-adv-x="702" 
d="M516 649l-65 124l-118 -124h-100l173 184h98l100 -184h-88zM538 468l22 80h93l-116 -548h-93l10 66q-76 -82 -185 -82q-94 0 -148 56.5t-54 160.5q0 130 76 242q37 55 96 87.5t127 32.5q121 0 172 -95zM301 64q113 0 175 117l35 167q-6 62 -41.5 99t-97.5 37
q-68 0 -115 -46t-67 -105q-20 -60 -20 -116q0 -70 33.5 -111.5t97.5 -41.5z" />
    <glyph glyph-name="adieresis.ss02" horiz-adv-x="702" 
d="M285 789h99l-26 -122h-99zM525 789h99l-26 -122h-99zM538 468l22 80h93l-116 -548h-93l10 66q-76 -82 -185 -82q-94 0 -148 56.5t-54 160.5q0 130 76 242q37 55 96 87.5t127 32.5q121 0 172 -95zM301 64q113 0 175 117l35 167q-6 62 -41.5 99t-97.5 37q-68 0 -115 -46
t-67 -105q-20 -60 -20 -116q0 -70 33.5 -111.5t97.5 -41.5z" />
    <glyph glyph-name="agrave.ss02" horiz-adv-x="702" 
d="M389 825l73 -169h-76l-109 169h112zM538 468l22 80h93l-116 -548h-93l10 66q-76 -82 -185 -82q-94 0 -148 56.5t-54 160.5q0 130 76 242q37 55 96 87.5t127 32.5q121 0 172 -95zM301 64q113 0 175 117l35 167q-6 62 -41.5 99t-97.5 37q-68 0 -115 -46t-67 -105
q-20 -60 -20 -116q0 -70 33.5 -111.5t97.5 -41.5z" />
    <glyph glyph-name="amacron.ss02" horiz-adv-x="702" 
d="M266 749h359l-17 -78h-359zM538 468l22 80h93l-116 -548h-93l10 66q-76 -82 -185 -82q-94 0 -148 56.5t-54 160.5q0 130 76 242q37 55 96 87.5t127 32.5q121 0 172 -95zM301 64q113 0 175 117l35 167q-6 62 -41.5 99t-97.5 37q-68 0 -115 -46t-67 -105q-20 -60 -20 -116
q0 -70 33.5 -111.5t97.5 -41.5z" />
    <glyph glyph-name="aogonek.ss02" horiz-adv-x="704" 
d="M539 0l-74 -60q-28 -23 -36.5 -34t-8.5 -28q0 -41 56 -41h28l-13 -67h-46q-55 0 -87 25t-32 68q0 61 70 106l55 37l8 73q-76 -79 -187 -79q-95 0 -149 57.5t-54 158.5q0 88 35.5 166.5t102.5 129.5t152 51q125 0 180 -102l24 87h93zM298 78q56 0 104 32t78 85l33 147
q-6 67 -44.5 104.5t-95.5 37.5q-87 1 -145.5 -83.5t-55.5 -177.5q0 -70 33 -107.5t93 -37.5z" />
    <glyph glyph-name="aring.ss02" horiz-adv-x="702" 
d="M561 666q-44 -44 -110 -44q-65 0 -109 44t-44 108t44 108q43 43 109 43q67 0 110 -43t43 -108t-43 -108zM515 839q-25 24 -64 24t-63 -24q-25 -24 -25 -65t25 -65q24 -24 63 -24t64 24q24 24 24 65t-24 65zM538 468l22 80h93l-116 -548h-93l10 66q-76 -82 -185 -82
q-94 0 -148 56.5t-54 160.5q0 130 76 242q37 55 96 87.5t127 32.5q121 0 172 -95zM301 64q113 0 175 117l35 167q-6 62 -41.5 99t-97.5 37q-68 0 -115 -46t-67 -105q-20 -60 -20 -116q0 -70 33.5 -111.5t97.5 -41.5z" />
    <glyph glyph-name="aringacute.ss02" horiz-adv-x="702" 
d="M548 1109h123l-145 -169h-87zM441 600q-67 0 -110 43t-43 108q0 66 43 109t110 43q66 0 109 -43t43 -109q0 -65 -43 -108t-109 -43zM505 817q-26 24 -64 24q-39 0 -64 -24q-25 -25 -25 -66t25 -65t64 -24t64 24q24 24 24 65t-24 66zM538 468l22 80h93l-116 -548h-93
l10 66q-76 -82 -185 -82q-94 0 -148 56.5t-54 160.5q0 130 76 242q37 55 96 87.5t127 32.5q121 0 172 -95zM301 64q113 0 175 117l35 167q-6 62 -41.5 99t-97.5 37q-68 0 -115 -46t-67 -105q-20 -60 -20 -116q0 -70 33.5 -111.5t97.5 -41.5z" />
    <glyph glyph-name="atilde.ss02" horiz-adv-x="702" 
d="M359 725q-24 0 -39.5 -20.5t-30.5 -68.5h-81q18 84 61 127.5t102 43.5q32 0 56 -13t35 -32q25 -45 59 -45q24 0 39.5 20.5t30.5 68.5h82q-18 -85 -60.5 -128t-103.5 -43q-32 0 -55.5 13t-33.5 32q-25 45 -61 45zM538 468l22 80h93l-116 -548h-93l10 66q-76 -82 -185 -82
q-94 0 -148 56.5t-54 160.5q0 130 76 242q37 55 96 87.5t127 32.5q121 0 172 -95zM301 64q113 0 175 117l35 167q-6 62 -41.5 99t-97.5 37q-68 0 -115 -46t-67 -105q-20 -60 -20 -116q0 -70 33.5 -111.5t97.5 -41.5z" />
    <glyph glyph-name="adieresis.ss01.ss02" horiz-adv-x="702" 
d="M372 681q-19 -19 -48 -19t-47 19q-19 18 -19 47t19 47q18 18 47 18t48 -18t19 -47t-19 -47zM608 681q-19 -19 -48 -19t-48 19q-19 18 -19 47t19 47t48 18t48 -18q18 -18 18 -47t-18 -47zM538 468l22 80h93l-116 -548h-93l10 66q-76 -82 -185 -82q-94 0 -148 56.5
t-54 160.5q0 130 76 242q37 55 96 87.5t127 32.5q121 0 172 -95zM301 64q113 0 175 117l35 167q-6 62 -41.5 99t-97.5 37q-68 0 -115 -46t-67 -105q-20 -60 -20 -116q0 -70 33.5 -111.5t97.5 -41.5z" />
    <glyph glyph-name="uni021B.ss01.ss05" horiz-adv-x="469" 
d="M342 540l156 8l-17 -79l-153 8l-101 -477h-100l101 477l-157 -8l16 79l155 -8l35 167h100zM98 -97q18 14 49 14t49 -16q18 -17 18 -45q0 -16 -3 -32l-5 -23q-8 -37 -41.5 -58.5t-84.5 -21.5h-19l11 45h20q56 0 64 42l2 10q-16 -2 -22 -2q-25 0 -40.5 13t-15.5 36
q0 25 18 38z" />
    <glyph glyph-name="udieresis.ss01.ss05" horiz-adv-x="676" 
d="M355 681q-19 -19 -48 -19t-47 19q-19 18 -19 47t19 47q18 18 47 18t48 -18t19 -47t-19 -47zM591 681q-19 -19 -48 -19t-48 19q-19 18 -19 47t19 47t48 18t48 -18q18 -18 18 -47t-18 -47zM450 183l78 365h100l-117 -548h-92l11 69q-76 -84 -177 -84q-80 0 -124.5 41
t-44.5 115q0 25 6 54l76 353h100l-74 -344q-6 -26 -6 -44q0 -43 24.5 -67t69.5 -24q100 0 170 114z" />
    <glyph glyph-name="t.ss05" horiz-adv-x="469" 
d="M342 540l156 8l-17 -79l-153 8l-101 -477h-100l101 477l-157 -8l16 79l155 -8l35 167h100z" />
    <glyph glyph-name="tbar.ss05" horiz-adv-x="469" 
d="M498 548l-17 -79l-153 8l-35 -165l157 8l-17 -79l-153 8l-53 -249h-100l53 249l-158 -8l17 79l154 -8l35 165l-157 -8l16 79l155 -8l35 167h100l-35 -167z" />
    <glyph glyph-name="tcaron.ss05" horiz-adv-x="536" 
d="M433 619l122 281h116l-164 -281h-74zM277 707h100l-35 -167l156 8l-17 -79l-153 8l-101 -477h-100l101 477l-157 -8l16 79l155 -8z" />
    <glyph glyph-name="uni0163.ss05" horiz-adv-x="469" 
d="M342 540l156 8l-17 -79l-153 8l-101 -477h-100l101 477l-157 -8l16 79l155 -8l35 167h100zM67 -71h122q96 0 96 -81q0 -58 -47.5 -90t-129.5 -32h-84l14 66h70q92 0 92 48q0 29 -37 29h-109z" />
    <glyph glyph-name="uni021B.ss05" horiz-adv-x="469" 
d="M342 540l156 8l-17 -79l-153 8l-101 -477h-100l101 477l-157 -8l16 79l155 -8l35 167h100zM161 -165l-91 -22l20 93h136l-19 -91q-21 -94 -128 -94h-29l10 46h29q58 0 66 38z" />
    <glyph glyph-name="udieresis.ss01.ss06" horiz-adv-x="677" 
d="M356 681q-19 -19 -48 -19t-47 19q-19 18 -19 47t19 47q18 18 47 18t48 -18t19 -47t-19 -47zM592 681q-19 -19 -48 -19t-48 19q-19 18 -19 47t19 47t48 18t48 -18q18 -18 18 -47t-18 -47zM293 -15q-100 0 -154.5 40t-54.5 113q0 30 9 71l72 339h100l-70 -335
q-9 -41 -9 -61q0 -83 111 -83q70 0 106.5 31.5t52.5 103.5l73 344h100l-76 -353q-22 -107 -84 -158.5t-176 -51.5z" />
    <glyph glyph-name="u.ss06" horiz-adv-x="677" 
d="M293 -15q-100 0 -154.5 40t-54.5 113q0 30 9 71l72 339h100l-70 -335q-9 -41 -9 -61q0 -83 111 -83q70 0 106.5 31.5t52.5 103.5l73 344h100l-76 -353q-22 -107 -84 -158.5t-176 -51.5z" />
    <glyph glyph-name="uacute.ss06" horiz-adv-x="677" 
d="M410 656h-87l109 169h123zM293 -15q-100 0 -154.5 40t-54.5 113q0 30 9 71l72 339h100l-70 -335q-9 -41 -9 -61q0 -83 111 -83q70 0 106.5 31.5t52.5 103.5l73 344h100l-76 -353q-22 -107 -84 -158.5t-176 -51.5z" />
    <glyph glyph-name="ubreve.ss06" horiz-adv-x="677" 
d="M419 654q-78 0 -119 30t-41 85q0 14 4 39h68q0 -4 -0.5 -7.5t-1 -5.5t-0.5 -4v-3q0 -65 92 -65q108 0 127 85h74q-19 -77 -67 -115.5t-136 -38.5zM293 -15q-100 0 -154.5 40t-54.5 113q0 30 9 71l72 339h100l-70 -335q-9 -41 -9 -61q0 -83 111 -83q70 0 106.5 31.5
t52.5 103.5l73 344h100l-76 -353q-22 -107 -84 -158.5t-176 -51.5z" />
    <glyph glyph-name="ucircumflex.ss06" horiz-adv-x="677" 
d="M316 649h-100l173 184h98l100 -184h-88l-65 124zM293 -15q-100 0 -154.5 40t-54.5 113q0 30 9 71l72 339h100l-70 -335q-9 -41 -9 -61q0 -83 111 -83q70 0 106.5 31.5t52.5 103.5l73 344h100l-76 -353q-22 -107 -84 -158.5t-176 -51.5z" />
    <glyph glyph-name="udieresis.ss06" horiz-adv-x="677" 
d="M342 667h-99l26 122h99zM582 667h-99l26 122h99zM293 -15q-100 0 -154.5 40t-54.5 113q0 30 9 71l72 339h100l-70 -335q-9 -41 -9 -61q0 -83 111 -83q70 0 106.5 31.5t52.5 103.5l73 344h100l-76 -353q-22 -107 -84 -158.5t-176 -51.5z" />
    <glyph glyph-name="ugrave.ss06" horiz-adv-x="677" 
d="M446 656h-76l-109 169h112zM293 -15q-100 0 -154.5 40t-54.5 113q0 30 9 71l72 339h100l-70 -335q-9 -41 -9 -61q0 -83 111 -83q70 0 106.5 31.5t52.5 103.5l73 344h100l-76 -353q-22 -107 -84 -158.5t-176 -51.5z" />
    <glyph glyph-name="uhungarumlaut.ss06" horiz-adv-x="677" 
d="M324 637h-91l108 179h124zM553 637h-90l108 179h123zM293 -15q-100 0 -154.5 40t-54.5 113q0 30 9 71l72 339h100l-70 -335q-9 -41 -9 -61q0 -83 111 -83q70 0 106.5 31.5t52.5 103.5l73 344h100l-76 -353q-22 -107 -84 -158.5t-176 -51.5z" />
    <glyph glyph-name="umacron.ss06" horiz-adv-x="677" 
d="M592 671h-359l17 78h359zM293 -15q-100 0 -154.5 40t-54.5 113q0 30 9 71l72 339h100l-70 -335q-9 -41 -9 -61q0 -83 111 -83q70 0 106.5 31.5t52.5 103.5l73 344h100l-76 -353q-22 -107 -84 -158.5t-176 -51.5z" />
    <glyph glyph-name="uogonek.ss06" horiz-adv-x="677" 
d="M456 204l73 344h100l-76 -353q-33 -157 -155 -196l-102 -59q-54 -28 -54 -62q0 -40 55 -40h34l-14 -67h-54q-55 0 -85 25t-30 66q0 68 78 108l31 16q-84 8 -128.5 47t-44.5 105q0 30 9 71l72 339h100l-70 -335q-9 -41 -9 -61q0 -83 111 -83q70 0 106.5 31.5t52.5 103.5z
" />
    <glyph glyph-name="uring.ss06" horiz-adv-x="677" 
d="M545 666q-44 -44 -110 -44q-65 0 -109 44t-44 108t44 108q43 43 109 43q67 0 110 -43t43 -108t-43 -108zM372 709q24 -24 63 -24t64 24q24 24 24 65t-24 65q-26 24 -64 24q-39 0 -63 -24q-25 -24 -25 -65t25 -65zM293 -15q-100 0 -154.5 40t-54.5 113q0 30 9 71l72 339
h100l-70 -335q-9 -41 -9 -61q0 -83 111 -83q70 0 106.5 31.5t52.5 103.5l73 344h100l-76 -353q-22 -107 -84 -158.5t-176 -51.5z" />
    <glyph glyph-name="utilde.ss06" horiz-adv-x="677" 
d="M273 636h-81q18 84 61 127.5t102 43.5q32 0 56 -13t35 -32q25 -45 59 -45q24 0 39.5 20.5t30.5 68.5h82q-18 -85 -60.5 -128t-103.5 -43q-32 0 -55.5 13t-33.5 32q-25 45 -61 45q-24 0 -39.5 -20.5t-30.5 -68.5zM293 -15q-100 0 -154.5 40t-54.5 113q0 30 9 71l72 339
h100l-70 -335q-9 -41 -9 -61q0 -83 111 -83q70 0 106.5 31.5t52.5 103.5l73 344h100l-76 -353q-22 -107 -84 -158.5t-176 -51.5z" />
    <glyph glyph-name="ydieresis.ss01.ss07" horiz-adv-x="593" 
d="M306 681q-19 -19 -48 -19t-47 19q-19 18 -19 47t19 47q18 18 47 18t48 -18t19 -47t-19 -47zM542 681q-19 -19 -48 -19t-48 19q-19 18 -19 47t19 47t48 18t48 -18q18 -18 18 -47t-18 -47zM248 107l237 441h108l-435 -752h-100l119 194l-95 558h102l62 -430q0 -5 2 -11z
" />
    <glyph glyph-name="y.ss07" horiz-adv-x="593" 
d="M248 107l237 441h108l-435 -752h-100l119 194l-95 558h102l62 -430q0 -5 2 -11z" />
    <glyph glyph-name="yacute.ss07" horiz-adv-x="593" 
d="M382 825h123l-145 -169h-87zM248 107l237 441h108l-435 -752h-100l119 194l-95 558h102l62 -430q0 -5 2 -11z" />
    <glyph glyph-name="ycircumflex.ss07" horiz-adv-x="593" 
d="M449 649l-65 124l-118 -124h-100l173 184h98l100 -184h-88zM248 107l237 441h108l-435 -752h-100l119 194l-95 558h102l62 -430q0 -5 2 -11z" />
    <glyph glyph-name="ydieresis.ss07" horiz-adv-x="593" 
d="M219 789h99l-26 -122h-99zM459 789h99l-26 -122h-99zM248 107l237 441h108l-435 -752h-100l119 194l-95 558h102l62 -430q0 -5 2 -11z" />
    <glyph glyph-name="ygrave.ss07" horiz-adv-x="593" 
d="M323 825l73 -169h-76l-109 169h112zM248 107l237 441h108l-435 -752h-100l119 194l-95 558h102l62 -430q0 -5 2 -11z" />
    <glyph glyph-name="l.ss08" horiz-adv-x="418" 
d="M320 0h-108q-66 0 -101 29t-35 85q0 20 6 45l130 609h100l-124 -579q-9 -39 -9 -58q0 -50 61 -50h98z" />
    <glyph glyph-name="lacute.ss08" horiz-adv-x="418" 
d="M285 876h-87l109 169h123zM320 0h-108q-66 0 -101 29t-35 85q0 20 6 45l130 609h100l-124 -579q-9 -39 -9 -58q0 -50 61 -50h98z" />
    <glyph glyph-name="lcaron.ss08" horiz-adv-x="476" 
d="M320 0h-108q-66 0 -101 29t-35 85q0 20 6 45l130 609h100l-124 -579q-9 -39 -9 -58q0 -50 61 -50h98zM417 487h-74l122 281h116z" />
    <glyph glyph-name="uni013C.ss08" horiz-adv-x="418" 
d="M320 0h-108q-66 0 -101 29t-35 85q0 20 6 45l130 609h100l-124 -579q-9 -39 -9 -58q0 -50 61 -50h98zM0 -281h-29l10 46h29q58 0 66 38l6 30l-91 -22l20 93h136l-19 -91q-21 -94 -128 -94z" />
    <glyph glyph-name="ldot.ss08" horiz-adv-x="477" 
d="M320 0h-108q-66 0 -101 29t-35 85q0 20 6 45l130 609h100l-124 -579q-9 -39 -9 -58q0 -50 61 -50h98zM449 316h-133l28 135h133z" />
    <glyph glyph-name="lslash.ss08" horiz-adv-x="526" 
d="M477 439l-153 -63l-40 -187q-9 -39 -9 -58q0 -50 61 -50h98l-18 -81h-108q-66 0 -101 29t-35 85q0 20 6 45l34 160l-146 -80l20 96l142 58l80 375h100l-68 -319l157 87z" />
    <glyph glyph-name="uni013C.ss01.ss08" horiz-adv-x="418" 
d="M240 81h98l-18 -81h-108q-66 0 -101 29t-35 85q0 20 6 45l130 609h100l-124 -579q-9 -39 -9 -58q0 -50 61 -50zM19 -99q18 14 49 14t49 -16q18 -17 18 -45q0 -16 -3 -32l-5 -23q-8 -37 -41.5 -58.5t-84.5 -21.5h-19l11 45h20q57 0 64 42l2 10q-16 -2 -22 -2
q-25 0 -40.5 13t-15.5 36q0 25 18 38z" />
    <glyph glyph-name="ldot.ss01.ss08" horiz-adv-x="495" 
d="M320 0h-108q-66 0 -101 29t-35 85q0 20 6 45l130 609h100l-124 -579q-9 -39 -9 -58q0 -50 61 -50h98zM461 335q-21 -19 -52 -19t-51 19q-20 20 -20 49.5t20 49.5t51 20t52 -20q20 -20 20 -50t-20 -49z" />
    <glyph glyph-name="fi.ss01" horiz-adv-x="795" 
d="M688 777q29 30 74 12.5t41 -60.5q0 -30 -19 -48.5t-48 -18.5q-30 0 -49 18.5t-19 48.5q0 28 20 48zM327 617l-24 -77l195 8l-16 -78l-191 8l-6 -58l-90 -420h-100l90 422l19 56l-133 -8l16 78l131 -8l8 71q19 87 58 122t119 35h145l-16 -75h-122q-38 0 -56.5 -17
t-26.5 -59zM630 0h-100l117 548h100z" />
    <glyph glyph-name="fl.ss08" horiz-adv-x="900" 
d="M218 540l8 71q19 87 58 122t119 35h145l-16 -75h-122q-38 0 -56.5 -17t-26.5 -59l-24 -77l195 8l-16 -78l-191 8l-6 -58l-90 -420h-100l90 422l19 56l-133 -8l16 78zM722 81h98l-18 -81h-108q-66 0 -101 29t-35 85q0 20 6 45l130 609h100l-124 -579q-9 -39 -9 -58
q0 -50 61 -50z" />
    <glyph glyph-name="ordfeminine.ss02" horiz-adv-x="615" 
d="M512 719l18 48h83l-84 -396h-77l-1 52q-60 -57 -152 -57q-76 0 -121 44t-45 120q0 104 72 179q71 74 175 74q92 0 132 -64zM327 438q89 0 141 79l26 120q-25 73 -109 73q-70 0 -114 -50q-44 -52 -44 -120q0 -48 27 -75t73 -27z" />
    <glyph glyph-name="t.sups.ss05" horiz-adv-x="398" 
d="M349 762l125 5l-18 -83l-123 4l-67 -317h-91l67 317l-125 -4l17 83l124 -5l25 120h91z" />
    <glyph glyph-name="zero.ss09" horiz-adv-x="1397" 
d="M1203 -88h-962v941h962v-941zM722 136q107 0 166.5 68t59.5 192q0 123 -59 191t-167 68q-109 0 -168 -68t-59 -191q0 -124 59.5 -192t167.5 -68zM722 209q-69 0 -106 47.5t-37 139.5q0 90 37 138.5t106 48.5q67 0 104 -48.5t37 -138.5q0 -92 -36 -139.5t-105 -47.5z" />
    <glyph glyph-name="one.ss09" horiz-adv-x="1397" 
d="M1203 -88h-962v941h962v-941zM724 453v-306h84v498h-84v-55q0 -62 -72 -62h-91v-75h163z" />
    <glyph glyph-name="two.ss09" horiz-adv-x="1397" 
d="M241 -88v941h962v-941h-962zM505 147h433v75h-330q0 52 99 90l84 30q69 25 102 62.5t33 94.5q0 75 -53.5 115.5t-150.5 40.5q-96 0 -152.5 -46t-65.5 -122l84 -10q13 106 130 106q123 0 123 -85q0 -57 -77 -86l-99 -36q-83 -30 -121.5 -84t-38.5 -145z" />
    <glyph glyph-name="three.ss09" horiz-adv-x="1397" 
d="M1203 -88h-962v941h962v-941zM725 135q97 0 154 42.5t57 114.5q0 96 -93 115v2q80 23 80 109q0 65 -55 101t-144 36q-87 0 -142 -35.5t-70 -99.5l80 -12q20 77 130 77q119 0 119 -74q0 -73 -117 -73h-39v-72h43q123 0 123 -76q0 -39 -33 -61t-90 -22q-119 0 -136 103
l-82 -14q11 -78 66 -119.5t149 -41.5z" />
    <glyph glyph-name="four.ss09" horiz-adv-x="1397" 
d="M1203 -88h-962v941h962v-941zM780 274v-127h86v127l77 -7v75l-77 -9v312h-98l-283 -296v-82zM780 333l-205 6l203 213h2v-219z" />
    <glyph glyph-name="five.ss09" horiz-adv-x="1397" 
d="M241 -88v941h962v-941h-962zM722 143q102 0 160.5 48t58.5 132q0 80 -52 124t-145 44q-73 0 -129 -32l-2 1l25 123h280v69h-343l-52 -258l77 -20q51 51 129 51q60 0 94 -27t34 -75q0 -49 -35.5 -78t-95.5 -29q-100 0 -136 71l-81 -29q24 -54 80.5 -84.5t132.5 -30.5z" />
    <glyph glyph-name="six.ss09" horiz-adv-x="1397" 
d="M1203 -88h-962v941h962v-941zM733 137q94 0 150.5 48.5t56.5 128.5q0 73 -51.5 118.5t-137.5 45.5q-107 0 -159 -67q4 90 39 132.5t104 42.5q84 0 118 -58l72 24q-50 104 -190 104q-111 0 -170 -70.5t-59 -202.5q0 -112 60 -179t167 -67zM824 235q-36 -30 -90 -30
q-53 0 -90 29q-37 28 -48 86q14 41 52 67t86 26q58 0 91.5 -27t33.5 -73q0 -49 -35 -78z" />
    <glyph glyph-name="seven.ss09" horiz-adv-x="1397" 
d="M1203 -88h-962v941h962v-941zM622 144h85q4 255 226 422v76h-416v-75h314q-93 -77 -150 -193q-58 -118 -59 -230z" />
    <glyph glyph-name="eight.ss09" horiz-adv-x="1397" 
d="M1203 -88h-962v941h962v-941zM723 139q106 0 167.5 40.5t61.5 112.5q0 45 -27.5 77.5t-72.5 42.5v1q36 13 59 43t23 66q0 66 -54.5 101t-156.5 35q-101 0 -156 -35.5t-55 -100.5q0 -37 22.5 -67.5t59.5 -41.5v-1q-46 -10 -74 -42.5t-28 -77.5q0 -72 61.5 -112.5
t169.5 -40.5zM822 462q-32 -18 -99 -18t-99 18t-32 57q0 72 131 72q130 0 130 -72q0 -39 -31 -57zM829 231q-38 -23 -106 -23t-106 23q-39 23 -39 62q0 84 145 84q144 0 144 -84q0 -39 -38 -62z" />
    <glyph glyph-name="nine.ss09" horiz-adv-x="1397" 
d="M1203 -88h-962v941h962v-941zM715 137q110 0 169 70.5t59 201.5q0 113 -60 180t-166 67q-94 0 -151 -48.5t-57 -128.5q0 -75 51.5 -120t137.5 -45q105 0 160 67q-7 -175 -143 -175q-83 0 -118 59l-73 -24q50 -104 191 -104zM715 379q-57 0 -91 27t-34 74q0 48 35.5 78
t90.5 30q54 0 90 -29.5t48 -85.5q-15 -42 -53 -68t-86 -26z" />
    <glyph glyph-name="zero.ss10" horiz-adv-x="1397" 
d="M1203 -88h-962v941h962v-941zM333 770v-775h777v775h-777zM722 136q-108 0 -167.5 68t-59.5 192q0 123 59 191t168 68q108 0 167 -68t59 -191q0 -124 -59.5 -192t-166.5 -68zM722 209q69 0 105 47.5t36 139.5q0 90 -37 138.5t-104 48.5q-69 0 -106 -48.5t-37 -138.5
q0 -92 37 -139.5t106 -47.5z" />
    <glyph glyph-name="one.ss10" horiz-adv-x="1397" 
d="M1203 -88h-962v941h962v-941zM333 770v-775h777v775h-777zM804 147h-84v306h-163v75h91q72 0 72 62v55h84v-498z" />
    <glyph glyph-name="two.ss10" horiz-adv-x="1397" 
d="M1203 -88h-962v941h962v-941zM333 770v-775h777v775h-777zM941 147h-433q0 91 38.5 145t121.5 84l99 36q77 29 77 86q0 85 -123 85q-117 0 -130 -106l-83 10q9 76 65 122t152 46q97 0 150.5 -40.5t53.5 -115.5q0 -57 -33 -94.5t-102 -62.5l-84 -30q-99 -38 -99 -90h330
v-75z" />
    <glyph glyph-name="three.ss10" horiz-adv-x="1397" 
d="M1203 -88h-962v941h962v-941zM333 770v-775h777v775h-777zM719 135q-93 0 -148.5 41.5t-66.5 119.5l82 14q19 -103 136 -103q57 0 90 22t33 61q0 76 -122 76h-44v72h40q116 0 116 73q0 74 -119 74q-109 0 -130 -77l-80 12q16 64 71.5 99.5t141.5 35.5q89 0 144 -36
t55 -101q0 -86 -81 -109v-2q93 -20 93 -115q0 -72 -56.5 -114.5t-154.5 -42.5z" />
    <glyph glyph-name="four.ss10" horiz-adv-x="1397" 
d="M1203 -88h-962v941h962v-941zM333 770v-775h777v775h-777zM870 145h-86v128l-295 -8v82l283 296h98v-312l76 9v-75l-76 8v-128zM781 550l-202 -213l205 -6v219h-3z" />
    <glyph glyph-name="five.ss10" horiz-adv-x="1397" 
d="M1203 -88h-962v941h962v-941zM333 770v-775h777v775h-777zM719 137q-76 0 -132.5 30.5t-79.5 83.5l80 30q16 -33 52 -52.5t84 -19.5q60 0 95.5 29.5t35.5 78.5q0 48 -34 74.5t-94 26.5q-76 0 -129 -51l-77 21l52 258h343v-69h-280l-24 -124l2 -1q53 32 128 32
q93 0 145.5 -44t52.5 -123q0 -84 -59 -132t-161 -48z" />
    <glyph glyph-name="six.ss10" horiz-adv-x="1397" 
d="M1203 -88h-962v941h962v-941zM333 770v-775h777v775h-777zM736 131q-107 0 -167 67t-60 179q0 132 59 202.5t170 70.5q140 0 190 -104l-72 -24q-34 58 -118 58q-137 0 -143 -174q53 66 159 66q86 0 137.5 -45.5t51.5 -118.5q0 -80 -56.5 -128.5t-150.5 -48.5zM647 228
q37 -29 90 -29q54 0 90 30q35 29 35 78q0 46 -33.5 73t-91.5 27q-48 0 -86 -25.5t-52 -67.5q11 -58 48 -86z" />
    <glyph glyph-name="seven.ss10" horiz-adv-x="1397" 
d="M1203 -88h-962v941h962v-941zM333 770v-775h777v775h-777zM710 145h-85q1 111 59 231q57 116 150 193h-313v74h415v-75q-222 -167 -226 -423z" />
    <glyph glyph-name="eight.ss10" horiz-adv-x="1397" 
d="M1203 -88h-962v941h962v-941zM333 770v-775h777v775h-777zM723 135q-108 0 -169.5 40.5t-61.5 112.5q0 45 28 77.5t74 42.5v1q-37 11 -59.5 41.5t-22.5 67.5q0 65 55 100.5t156 35.5t156 -35.5t55 -100.5q0 -37 -23 -66.5t-59 -42.5v-1q45 -10 72.5 -42.5t27.5 -77.5
q0 -72 -61.5 -112.5t-167.5 -40.5zM624 458q32 -18 99 -18t99 18q31 18 31 57q0 72 -130 72q-131 0 -131 -72q0 -39 32 -57zM617 227q38 -23 106 -23t106 23t38 62q0 84 -144 84q-145 0 -145 -84q0 -39 39 -62z" />
    <glyph glyph-name="nine.ss10" horiz-adv-x="1397" 
d="M1203 -88h-962v941h962v-941zM333 770v-775h777v775h-777zM713 133q-143 0 -190 104l73 25q35 -59 117 -59q137 0 143 174q-55 -67 -159 -67q-86 0 -138 46t-52 119q0 80 57 128.5t152 48.5q107 0 166.5 -67t59.5 -180q0 -131 -59.5 -201.5t-169.5 -70.5zM714 375
q48 0 86 26t52 68q-11 56 -47.5 85.5t-90.5 29.5q-55 0 -90 -30t-35 -78q0 -47 34 -74t91 -27z" />
    <glyph glyph-name="zero.zero" horiz-adv-x="751" 
d="M471 783q114 0 175 -69t61 -198q0 -69 -16 -143q-40 -197 -130 -293t-234 -96q-112 0 -173 68.5t-61 197.5q0 68 16 145q40 197 129 292.5t233 95.5zM208 384q-16 -80 -16 -136q0 -62 18 -103l339 529q-35 23 -86 23q-194 0 -255 -313zM592 384q16 80 16 136
q0 66 -19 104l-339 -530q32 -23 84 -23q194 0 258 313z" />
    <glyph glyph-name="zero.dnom" horiz-adv-x="515" 
d="M215 -8q-84 0 -131 48.5t-47 133.5q0 30 6 63q20 108 82.5 165.5t155.5 57.5q84 0 130.5 -48t46.5 -132q0 -31 -6 -64q-20 -109 -82 -166.5t-155 -57.5zM220 58q58 0 97.5 35.5t54.5 106.5q9 38 9 80q0 56 -28 86t-77 30q-61 0 -103 -44t-54 -126q-5 -35 -5 -51
q0 -57 27.5 -87t78.5 -30z" />
    <glyph glyph-name="one.dnom" horiz-adv-x="385" 
d="M220 0h-77l59 278h-148l15 69h83q66 0 77 56l10 50h77z" />
    <glyph glyph-name="two.dnom" horiz-adv-x="505" 
d="M396 0h-387q9 84 53 133.5t124 74.5l102 33q89 29 89 88q0 31 -26.5 49.5t-73.5 18.5q-103 0 -136 -94l-71 21q24 63 79.5 100.5t136.5 37.5q78 0 123.5 -33.5t45.5 -93.5q0 -107 -156 -157l-86 -27q-95 -32 -107 -83h304z" />
    <glyph glyph-name="three.dnom" horiz-adv-x="502" 
d="M214 -10q-85 0 -133 38.5t-54 105.5l76 13q2 -43 32 -67.5t81 -24.5q54 0 89 24.5t35 61.5q0 59 -99 59h-38l14 65h34q57 0 89.5 19.5t32.5 53.5q0 61 -98 61t-130 -71l-73 12q21 57 77.5 89.5t134.5 32.5q73 0 119 -29.5t46 -81.5q0 -42 -26 -73.5t-69 -39.5l-1 -2
q66 -22 66 -90q0 -69 -56.5 -112.5t-148.5 -43.5z" />
    <glyph glyph-name="four.dnom" horiz-adv-x="485" 
d="M322 0h-78l25 116l-270 -6l17 74l314 269h88l-60 -284l71 9l-15 -68l-67 6zM320 370l-225 -195l185 -6l42 200z" />
    <glyph glyph-name="five.dnom" horiz-adv-x="503" 
d="M208 -10q-71 0 -120.5 28.5t-67.5 75.5l75 27q27 -65 116 -65q60 0 99.5 31.5t39.5 79.5q0 38 -27 58.5t-72 20.5q-73 0 -119 -46l-70 28l93 225h312l-13 -63h-255l-46 -113l1 -1q52 30 120 30q73 0 113.5 -36t40.5 -99q0 -79 -62 -130t-158 -51z" />
    <glyph glyph-name="six.dnom" horiz-adv-x="526" 
d="M228 -10q-82 0 -129.5 47t-47.5 127q0 126 73 212q72 86 185 86q56 0 97 -22t60 -61l-65 -32q-31 52 -100 52q-61 0 -103.5 -40.5t-62.5 -119.5q65 63 162 63q66 0 105.5 -35.5t39.5 -94.5q0 -76 -60 -129q-61 -53 -154 -53zM236 51q56 0 93 33t37 79q0 36 -25 57.5
t-68 21.5q-45 0 -85.5 -23.5t-62.5 -62.5q2 -51 32 -78t79 -27z" />
    <glyph glyph-name="seven.dnom" horiz-adv-x="444" 
d="M147 0h-77q24 102 98 210q72 105 173 175h-284l15 68h377l-15 -69q-233 -152 -287 -384z" />
    <glyph glyph-name="eight.dnom" horiz-adv-x="522" 
d="M214 -10q-90 0 -142.5 33.5t-52.5 90.5q0 45 32.5 79t85.5 45v1q-55 24 -55 85q0 62 58 100t154 38q83 0 129.5 -29t46.5 -78q0 -40 -27.5 -73t-71.5 -43v-1q71 -32 71 -98q0 -68 -63 -109q-65 -41 -165 -41zM260 267q135 0 135 73q0 61 -108 61q-63 0 -98 -20.5
t-35 -56.5q0 -57 106 -57zM219 52q66 0 105.5 23.5t39.5 63.5q0 67 -120 67q-69 0 -107.5 -22t-38.5 -60q0 -34 32 -53t89 -19z" />
    <glyph glyph-name="nine.dnom" horiz-adv-x="526" 
d="M196 -12q-56 0 -97 22t-60 61l65 32q30 -51 99 -51q128 0 167 159q-64 -63 -162 -63q-66 0 -105.5 36t-39.5 94q0 78 60 130q59 52 154 52q82 0 129.5 -47t47.5 -127q0 -125 -72 -211q-74 -87 -186 -87zM232 208q46 0 86 24t61 63q-1 50 -31 77.5t-79 27.5
q-56 0 -93 -32.5t-37 -80.5q0 -36 25 -57.5t68 -21.5z" />
    <glyph glyph-name="zero.numr" horiz-adv-x="515" 
d="M289 336q-84 0 -131.5 48.5t-47.5 133.5q0 30 6 63q20 107 83 165t155 58q84 0 131 -48t47 -132q0 -31 -6 -64q-20 -109 -82.5 -166.5t-154.5 -57.5zM293 402q58 0 97.5 36t54.5 106q10 40 10 80q0 56 -28 86t-77 30q-62 0 -103.5 -44t-54.5 -126q-5 -35 -5 -51
q0 -57 27.5 -87t78.5 -30z" />
    <glyph glyph-name="one.numr" horiz-adv-x="385" 
d="M294 344h-77l59 278h-148l14 69h84q65 0 76 56l11 50h77z" />
    <glyph glyph-name="two.numr" horiz-adv-x="505" 
d="M469 344h-386q9 85 53 134t123 74l103 33q89 30 89 87q0 32 -26 50.5t-74 18.5q-104 0 -137 -95l-70 22q24 64 79 101t136 37q78 0 123.5 -33.5t45.5 -93.5q0 -107 -155 -157l-86 -28q-96 -30 -108 -82h305z" />
    <glyph glyph-name="three.numr" horiz-adv-x="502" 
d="M287 333q-85 0 -133 39t-53 106l75 13q3 -43 33 -67.5t81 -24.5q54 0 88.5 24.5t34.5 61.5q0 59 -98 59h-38l13 65h35q57 0 89.5 19.5t32.5 53.5q0 61 -99 61q-97 0 -130 -71l-72 11q21 58 76.5 90.5t135.5 32.5q73 0 119 -29.5t46 -82.5q0 -42 -27 -73.5t-69 -38.5
l-1 -2q66 -22 66 -90q0 -69 -56 -113q-58 -44 -149 -44z" />
    <glyph glyph-name="four.numr" horiz-adv-x="485" 
d="M395 344h-77l24 116l-269 -7l16 75l314 269h88l-59 -284l70 8l-14 -68l-68 7zM394 714l-225 -195l185 -6l42 200z" />
    <glyph glyph-name="five.numr" horiz-adv-x="503" 
d="M282 334q-71 0 -120.5 28.5t-68.5 75.5l75 27q29 -65 116 -65q60 0 100 31.5t40 78.5q0 38 -27 59t-72 21q-74 0 -120 -46l-69 28l93 225h312l-14 -63h-254l-46 -113l1 -1q53 29 120 29q72 0 113 -35.5t41 -98.5q0 -79 -62 -130t-158 -51z" />
    <glyph glyph-name="six.numr" horiz-adv-x="526" 
d="M301 334q-82 0 -129 46.5t-47 127.5q0 125 72 212q72 86 185 86q56 0 97.5 -22t60.5 -61l-66 -32q-31 52 -99 52q-127 0 -167 -160q64 63 162 63q67 0 106.5 -35.5t39.5 -94.5q0 -76 -60 -129q-62 -53 -155 -53zM309 394q56 0 93 32.5t37 80.5q0 36 -25 57.5t-68 21.5
q-45 0 -85 -24t-62 -63q2 -50 31.5 -77.5t78.5 -27.5z" />
    <glyph glyph-name="seven.numr" horiz-adv-x="444" 
d="M221 344h-77q24 102 98 210q72 105 173 175h-285l15 68h377l-14 -69q-235 -152 -287 -384z" />
    <glyph glyph-name="eight.numr" horiz-adv-x="522" 
d="M287 334q-90 0 -142 33.5t-52 90.5q0 45 32.5 79t84.5 45v1q-55 24 -55 85q0 62 58 100t155 38q81 0 128 -29t47 -78q0 -40 -27 -73t-71 -43v-1q71 -33 71 -98q0 -69 -64 -109q-65 -41 -165 -41zM334 611q134 0 134 73q0 60 -108 60q-63 0 -98 -20t-35 -56q0 -57 107 -57
zM293 396q66 0 105.5 23.5t39.5 62.5q0 68 -121 68q-68 0 -106.5 -22t-38.5 -60q0 -34 32 -53t89 -19z" />
    <glyph glyph-name="nine.numr" horiz-adv-x="526" 
d="M289 332q-56 0 -97 22t-60 61l65 32q31 -52 100 -52q61 0 103.5 40.5t62.5 119.5q-65 -63 -162 -63q-66 0 -105.5 35.5t-39.5 94.5q0 78 60 130q59 52 154 52q82 0 129.5 -47t47.5 -127q0 -126 -72 -211q-73 -87 -186 -87zM325 552q45 0 85.5 23.5t62.5 62.5
q-2 51 -32 78t-79 27q-56 0 -93 -33t-37 -79q0 -36 25 -57.5t68 -21.5z" />
    <glyph glyph-name="zero.tf" horiz-adv-x="751" 
d="M326 -16q-112 0 -173 68.5t-61 197.5q0 68 16 145q40 197 129 292.5t233 95.5q114 0 175 -69t61 -198q0 -69 -16 -143q-40 -197 -130 -293t-234 -96zM333 71q194 0 258 313q16 80 16 136q0 177 -145 177q-194 0 -255 -313q-16 -80 -16 -136q0 -177 142 -177z" />
    <glyph glyph-name="one.tf" horiz-adv-x="751" 
d="M551 768l-145 -681h196l-18 -87h-497l19 87h197l97 457h-198l16 73h19q104 0 156 37q40 27 71 102l5 12h82z" />
    <glyph glyph-name="two.tf" horiz-adv-x="751" 
d="M599 0h-558q20 100 80 171t174 130l141 74q87 45 125.5 89.5t38.5 110.5q0 55 -35.5 86t-98.5 31q-78 0 -129.5 -40t-66.5 -115l-3 -14h-99l2 15q25 121 103 183t203 62q103 0 164 -54t61 -145q0 -100 -57 -165q-59 -65 -180 -128l-82 -43q-99 -52 -136 -82
q-41 -32 -55 -74h428z" />
    <glyph glyph-name="three.tf" horiz-adv-x="751" 
d="M334 -14q-115 0 -181 57.5t-66 157.5q0 19 1 24l100 9q-1 -5 -1 -22q0 -67 40 -103t117 -36q88 0 144 51q55 49 55 130q0 54 -36.5 82.5t-106.5 28.5h-72l18 85h72q79 0 126.5 39.5t47.5 107.5q0 49 -35 76t-97 27q-149 0 -199 -146l-97 11q69 221 303 221
q104 0 164.5 -50t60.5 -130q0 -152 -163 -197v-2q115 -34 115 -148q0 -126 -83 -200q-83 -73 -227 -73z" />
    <glyph glyph-name="four.tf" horiz-adv-x="751" 
d="M662 768l-108 -507l120 10l-17 -82l-117 11l-42 -200h-95l42 200l-387 -11l16 73l459 506h129zM187 270l271 -9l86 398h-2z" />
    <glyph glyph-name="five.tf" horiz-adv-x="751" 
d="M324 -15q-112 0 -177 59t-65 153l105 11q1 -68 39.5 -102t106.5 -34q95 0 155 65q59 65 59 158q0 61 -36.5 94t-106.5 33q-84 0 -163 -62l-100 14l153 394h431l-20 -96h-347l-85 -213l2 -2q76 49 156 49q104 0 161.5 -55.5t57.5 -149.5q0 -139 -90 -228q-91 -88 -236 -88
z" />
    <glyph glyph-name="six.tf" horiz-adv-x="751" 
d="M443 496q97 0 154 -55t57 -148q0 -136 -85 -222q-85 -87 -219 -87q-118 0 -183.5 69.5t-65.5 190.5q0 59 16 129q39 178 118 289q87 121 260 121q100 0 158.5 -44.5t63.5 -123.5l-95 -12q-4 46 -38 71.5t-97 25.5q-99 0 -164 -73t-103 -234q85 103 223 103zM353 70
q90 0 145 61t55 151q0 63 -34 97t-98 34q-71 0 -130 -39.5t-91 -113.5q-2 -22 -2 -33q0 -74 41.5 -115.5t113.5 -41.5z" />
    <glyph glyph-name="seven.tf" horiz-adv-x="751" 
d="M284 0h-107q132 403 418 671h-413l22 97h556l-17 -75q-329 -277 -459 -693z" />
    <glyph glyph-name="eight.tf" horiz-adv-x="751" 
d="M325 -16q-107 0 -179 54q-72 52 -72 146q0 87 56 152t143 86v2q-94 40 -94 138q0 105 81 165q82 59 213 59q106 0 168 -47.5t62 -130.5q0 -67 -42.5 -117.5t-119.5 -77.5v-2q54 -18 84.5 -58.5t30.5 -97.5q0 -123 -95 -197t-236 -74zM415 455q81 0 136 40q54 41 54 106
q0 48 -36.5 74t-102.5 26q-85 0 -137 -39.5t-52 -105.5q0 -49 35.5 -75t102.5 -26zM331 70q95 0 159 51q63 49 63 131q0 56 -41.5 88t-116.5 32q-98 0 -157 -49q-61 -49 -61 -133q0 -57 40 -88.5t114 -31.5z" />
    <glyph glyph-name="nine.tf" horiz-adv-x="751" 
d="M450 784q118 0 183.5 -69.5t65.5 -190.5q0 -59 -16 -129q-31 -145 -86 -241q-32 -56 -70 -90q-86 -79 -221 -79q-101 0 -159.5 44.5t-62.5 123.5l95 12q9 -97 134 -97q99 0 165 73t103 235q-84 -104 -224 -104q-96 0 -153 55t-57 148q0 136 85 222q84 87 218 87zM600 508
q2 22 2 33q0 74 -41 115.5t-113 41.5q-91 0 -146 -61t-55 -151q0 -63 34.5 -97t98.5 -34q70 0 129 39.5t91 113.5z" />
    <glyph glyph-name="zero.tf.zero" horiz-adv-x="751" 
d="M457 783q114 0 175 -69t61 -198q0 -69 -16 -143q-40 -197 -130 -293t-234 -96q-112 0 -173 68.5t-61 197.5q0 68 16 145q40 197 129 292.5t233 95.5zM194 384q-16 -80 -16 -136q0 -62 18 -103l339 529q-35 23 -86 23q-194 0 -255 -313zM578 384q16 80 16 136
q0 66 -19 104l-339 -530q32 -23 84 -23q194 0 258 313z" />
    <glyph glyph-name="period.ss01" horiz-adv-x="370" 
d="M196 10q-22 -21 -55 -21t-55 22q-22 21 -22 54t22 54q16 16 40 19.5t44.5 -4t34.5 -26.5t12 -43q0 -34 -21 -55z" />
    <glyph glyph-name="comma.ss01" horiz-adv-x="401" 
d="M156 145q86 0 86 -91q0 -30 -9 -71l-6 -29q-14 -67 -62.5 -105.5t-119.5 -38.5h-15l13 63h15q49 0 73 21t35 73l2 13h-17q-41 0 -65 20.5t-24 57.5t25.5 62t68.5 25z" />
    <glyph glyph-name="colon.ss01" horiz-adv-x="360" 
d="M280 406q-22 -22 -55 -22t-55 22q-22 21 -22 54t22 54t55 21t55 -21t22 -54t-22 -54zM197 10q-22 -21 -55 -21t-55 22q-22 21 -22 54t22 54q16 16 40 19.5t44.5 -4t34.5 -26.5t12 -43q0 -34 -21 -55z" />
    <glyph glyph-name="semicolon.ss01" horiz-adv-x="360" 
d="M170 514q22 21 55 21t55 -21t22 -54t-22 -54q-22 -22 -55 -22t-55 22q-22 21 -22 54t22 54zM156 145q86 0 86 -91q0 -30 -9 -71l-6 -29q-14 -67 -62.5 -105.5t-119.5 -38.5h-15l13 63h15q49 0 73 21t35 73l2 13h-17q-41 0 -65 20.5t-24 57.5t25.5 62t68.5 25z" />
    <glyph glyph-name="ellipsis.ss01" horiz-adv-x="1111" 
d="M196 10q-22 -21 -55 -21t-55 22q-22 21 -22 54t22 54q16 16 40 19.5t44.5 -4t34.5 -26.5t12 -43q0 -34 -21 -55zM566 11q-25 -21 -55 -22t-54.5 21t-21.5 55q-2 24 12 43t34.5 26.5t44.5 4t40 -19.5q22 -21 22 -54t-22 -54zM937 10q-22 -21 -55 -21t-55 22q-22 21 -22 54
t22 54q16 16 40 19.5t44.5 -4t34.5 -26.5t12 -43q0 -34 -21 -55z" />
    <glyph glyph-name="exclam.ss01" horiz-adv-x="347" 
d="M160 195h-51l45 328l52 245h101l-53 -245zM159 10q-31 -34 -80 -15t-45 66q0 31 21 51t52 20q48 4 66.5 -43.5t-14.5 -78.5z" />
    <glyph glyph-name="exclamdown.ss01" horiz-adv-x="347" 
d="M199 421q-32 0 -52.5 20t-20.5 51q0 32 20.5 52.5t52.5 20.5t52 -20.5t20 -52.5q0 -31 -20.5 -51t-51.5 -20zM100 -204h-101l53 245l92 318h50l-42 -318z" />
    </font>
</defs>
</svg>
