<?xml version="1.0" standalone="no"?>
<!DOCTYPE svg PUBLIC "-//W3C//DTD SVG 1.1//EN" "http://www.w3.org/Graphics/SVG/1.1/DTD/svg11.dtd" >
<svg xmlns="http://www.w3.org/2000/svg" xmlns:xlink="http://www.w3.org/1999/xlink" version="1.1">
<metadata>
Created by FontForge 20190801 at Sun Apr 14 18:27:54 2019
 By www-data
Copyright (c) 2019 Monotype Imaging Inc. All rights reserved.
</metadata>
<defs>
<font id="HelveticaNowTextThinItalic" horiz-adv-x="0" >
  <font-face 
    font-family="HelveticaNowTextThinItalic"
    font-weight="265"
    font-style="italic"
    font-stretch="normal"
    units-per-em="1000"
    panose-1="2 11 2 4 3 2 2 9 2 4"
    ascent="875"
    descent="-125"
    x-height="516"
    cap-height="712"
    bbox="-368 -323 1686 1098"
    underline-thickness="50"
    underline-position="-300"
    slope="-12"
    unicode-range="U+000D-FEFF"
  />
<missing-glyph horiz-adv-x="904" 
d="M736 0h-526v712h526v-712zM228 695v-678h490v678h-490z" />
    <glyph glyph-name="fi" unicode="fi" horiz-adv-x="522" 
d="M206 577l-13 -61h158l-4 -16h-157l-2 -10l-105 -490h-18l105 490l2 10h-99l3 16h99l13 61q15 73 51 104t100 31h54l-4 -17h-50q-55 0 -88 -27.5t-45 -90.5zM496 664l11 48h18l-11 -48h-18zM373 0h-18l110 516h18z" />
    <glyph glyph-name="fl" unicode="fl" horiz-adv-x="522" 
d="M206 577l-13 -61h158l-4 -16h-157l-2 -10l-105 -490h-18l105 490l2 10h-99l3 16h99l13 61q15 73 51 104t100 31h54l-4 -17h-50q-55 0 -88 -27.5t-45 -90.5zM355 0l152 712h18l-152 -712h-18z" />
    <glyph glyph-name=".notdef" horiz-adv-x="904" 
d="M736 0h-526v712h526v-712zM228 695v-678h490v678h-490z" />
    <glyph glyph-name=".null" 
 />
    <glyph glyph-name="nonmarkingreturn" horiz-adv-x="333" 
 />
    <glyph glyph-name="NULL" 
 />
    <glyph glyph-name="NULL" 
 />
    <glyph glyph-name="CR" unicode="&#xd;" horiz-adv-x="298" 
 />
    <glyph glyph-name="space" unicode=" " horiz-adv-x="298" 
 />
    <glyph glyph-name="exclam" unicode="!" horiz-adv-x="267" 
d="M122 168h-14l70 339l44 205h18l-44 -205zM99 0h-41l9 41h41z" />
    <glyph glyph-name="quotedbl" unicode="&#x22;" horiz-adv-x="405" 
d="M150 436h-17l58 276h17zM349 436h-17l58 276h17z" />
    <glyph glyph-name="numbersign" unicode="#" horiz-adv-x="664" 
d="M658 497l-4 -16h-133l-88 -249h131l-4 -16h-133l-76 -216h-16l76 216h-216l-76 -216h-16l76 216h-131l4 16h133l88 249h-131l4 16h132l76 215h16l-76 -215h216l76 215h16l-76 -215h132zM289 481l-88 -249h216l88 249h-216z" />
    <glyph glyph-name="dollar" unicode="$" horiz-adv-x="608" 
d="M437 847l-27 -130q76 -7 120.5 -49t44.5 -109q0 -15 -3 -32h-17q3 17 3 31q0 68 -48.5 105.5t-129.5 37.5q-95 0 -157 -47t-62 -129q0 -51 31.5 -83t98.5 -51l99 -27q69 -19 102 -54.5t33 -94.5q0 -101 -69.5 -158t-185.5 -57h-13l-30 -144h-17l31 145q-88 7 -136 53.5
t-48 130.5q0 23 1 30h17q-1 -7 -1 -27q0 -83 52 -127t144 -44q109 0 173.5 52t64.5 146q0 52 -30 83t-95 49l-97 27q-142 40 -142 150q0 92 68 143t169 51h12l27 129h17z" />
    <glyph glyph-name="percent" unicode="%" horiz-adv-x="1325" 
d="M306 314q-70 0 -106 37.5t-36 108.5q0 36 9 81q47 216 212 216q69 0 105 -37t36 -108q0 -37 -9 -82q-47 -216 -211 -216zM306 331q77 0 124 49t70 153q10 47 10 79q0 129 -126 129q-150 0 -194 -203q-10 -47 -10 -79q0 -128 126 -128zM377 -15h-21l603 742h22zM991 -7
q-142 0 -142 146q0 36 9 81q46 216 212 216q69 0 105 -37t36 -108q0 -37 -9 -82q-46 -216 -211 -216zM991 10q77 0 124 49.5t69 152.5q10 47 10 79q0 129 -126 129q-149 0 -193 -203q-10 -47 -10 -79q0 -128 126 -128z" />
    <glyph glyph-name="ampersand" unicode="&#x26;" horiz-adv-x="738" 
d="M652 304l18 -1q-34 -102 -114 -182l97 -121h-23l-87 108q-121 -115 -264 -115q-93 0 -146.5 47.5t-53.5 126.5q0 84 59 136t179 87q-75 94 -75 172q0 70 49.5 113.5t127.5 43.5q74 0 118.5 -38.5t44.5 -99.5q0 -68 -59 -116.5t-177 -82.5l200 -248q76 79 106 170z
M419 702q-71 0 -115 -38.5t-44 -101.5q0 -71 75 -167q114 32 171.5 76t57.5 109q0 54 -39.5 88t-105.5 34zM280 10q139 0 253 111l-205 255q-117 -34 -174 -82.5t-57 -126.5q0 -73 49 -115t134 -42z" />
    <glyph glyph-name="quotesingle" unicode="'" horiz-adv-x="206" 
d="M150 436h-17l58 276h17z" />
    <glyph glyph-name="parenleft" unicode="(" horiz-adv-x="315" 
d="M159 -204h-16q-73 145 -73 309q0 72 17 165q54 275 254 477h21q-201 -204 -257 -480q-17 -83 -17 -163q0 -160 71 -308z" />
    <glyph glyph-name="parenright" unicode=")" horiz-adv-x="316" 
d="M-19 -204h-22q203 207 258 480q17 83 17 163q0 159 -72 308h17q73 -145 73 -309q0 -72 -17 -165q-54 -274 -254 -477z" />
    <glyph glyph-name="asterisk" unicode="*" horiz-adv-x="550" 
d="M331 516l-139 -144l-14 9l142 145l-157 59l8 16l156 -61l37 172h16l-37 -172l179 61l4 -16l-182 -59l78 -145l-15 -9z" />
    <glyph glyph-name="plus" unicode="+" horiz-adv-x="640" 
d="M328 319h266v-18h-266v-265h-17v265h-266v18h266v266h17v-266z" />
    <glyph glyph-name="comma" unicode="," horiz-adv-x="249" 
d="M16 -149h-7l4 16h7q20 0 30 10.5t15 36.5l18 88l-43 -5l10 48h58l-29 -139q-10 -55 -63 -55z" />
    <glyph glyph-name="hyphen" unicode="-" horiz-adv-x="377" 
d="M325 241h-280l4 18h280z" />
    <glyph glyph-name="period" unicode="." horiz-adv-x="248" 
d="M99 0h-59l10 48h59z" />
    <glyph glyph-name="slash" unicode="/" horiz-adv-x="431" 
d="M23 0h-20l448 712h20z" />
    <glyph glyph-name="zero" unicode="0" horiz-adv-x="640" 
d="M272 -6q-178 0 -178 214q0 67 17 152q38 182 111.5 270t187.5 88q177 0 177 -220q0 -69 -16 -146q-70 -358 -299 -358zM273 11q211 0 280 345q16 77 16 143q0 202 -160 202q-213 0 -280 -345q-17 -91 -17 -148q0 -197 161 -197z" />
    <glyph glyph-name="one" unicode="1" horiz-adv-x="439" 
d="M354 712h20l-152 -712h-18l145 684q-41 -45 -106 -77q-66 -32 -123 -38l4 16q61 7 124 41t106 86z" />
    <glyph glyph-name="two" unicode="2" horiz-adv-x="640" 
d="M484 0h-443q19 87 83.5 155.5t182.5 126.5l90 44q96 47 141 99t45 125q0 68 -44 109.5t-125 41.5q-95 0 -158.5 -54t-80.5 -162l-1 -6h-18l1 7q20 116 88 174t170 58q88 0 137 -46t49 -121q0 -79 -47 -134t-147 -104l-89 -44q-218 -108 -254 -252h423z" />
    <glyph glyph-name="three" unicode="3" horiz-adv-x="640" 
d="M282 -7q-101 0 -164 48q-63 47 -63 128q0 16 4 37h18q-3 -20 -3 -36q0 -74 56.5 -116.5t151.5 -42.5q111 0 185 59q73 58 73 155q0 66 -46 105t-128 39h-54l3 17h51q94 0 153 51q58 49 58 130q0 62 -45 99t-123 37q-96 0 -158.5 -48.5t-80.5 -133.5h-18q20 94 87 146.5
t171 52.5q84 0 134.5 -41.5t50.5 -108.5q0 -74 -46.5 -126.5t-120.5 -64.5l-1 -2q62 -11 96.5 -51.5t34.5 -100.5q0 -107 -77 -169q-78 -63 -199 -63z" />
    <glyph glyph-name="four" unicode="4" horiz-adv-x="640" 
d="M557 712l-105 -492h108l-4 -17h-108l-43 -203h-18l43 203h-371l3 17l480 492h15zM86 220h348l97 455h-1z" />
    <glyph glyph-name="five" unicode="5" horiz-adv-x="640" 
d="M263 -16q-89 0 -139 49.5t-50 136.5h18q0 -78 44 -123.5t127 -45.5q116 0 190 77q72 76 72 191q0 77 -43.5 122t-122.5 45q-125 0 -207 -109l-23 6l142 379h337l-3 -17h-323l-130 -345l2 -1q81 103 207 103q86 0 134 -49.5t48 -132.5q0 -126 -78 -205q-78 -81 -202 -81z
" />
    <glyph glyph-name="six" unicode="6" horiz-adv-x="640" 
d="M417 702q-127 0 -202 -127q-67 -113 -97 -285q89 158 244 158q85 0 133.5 -48.5t48.5 -131.5q0 -115 -70 -194q-70 -81 -181 -81q-97 0 -146.5 59.5t-49.5 166.5q0 55 12 117q37 187 116 285t193 98q170 0 170 -178h-17q0 161 -154 161zM360 431q-160 0 -244 -175
q-3 -16 -3 -40q0 -97 47.5 -151.5t133.5 -54.5q102 0 167 78q65 77 65 181q0 75 -44 118.5t-122 43.5z" />
    <glyph glyph-name="seven" unicode="7" horiz-adv-x="640" 
d="M183 0h-20q49 195 168 377q118 181 284 317h-434l4 18h462l-3 -15q-176 -142 -292 -320q-119 -180 -169 -377z" />
    <glyph glyph-name="eight" unicode="8" horiz-adv-x="639" 
d="M276 -6q-104 0 -163.5 47t-59.5 128q0 89 59 146t161 69v2q-59 11 -91 48.5t-32 89.5q0 92 73 143q74 51 181 51q97 0 151 -41t54 -110q0 -77 -51 -125t-141 -59v-2q70 -10 106.5 -51t36.5 -105q0 -108 -81 -169q-83 -62 -203 -62zM348 391q113 0 178.5 45t65.5 130
q0 64 -49 100t-139 36q-101 0 -169 -47q-67 -46 -67 -132q0 -62 47 -97t133 -35zM276 11q116 0 190 58q75 57 75 156q0 70 -50.5 109.5t-144.5 39.5q-126 0 -200.5 -53t-74.5 -151q0 -74 54 -116.5t151 -42.5z" />
    <glyph glyph-name="nine" unicode="9" horiz-adv-x="640" 
d="M389 719q97 0 146.5 -59.5t49.5 -166.5q0 -55 -12 -117q-37 -187 -115.5 -285t-193.5 -98q-170 0 -170 178h17q0 -161 154 -161q127 0 202 127q66 113 97 286q-88 -159 -244 -159q-85 0 -133.5 48.5t-48.5 131.5q0 113 71 195q71 80 180 80zM566 456q3 33 3 40
q0 97 -47.5 151.5t-133.5 54.5q-102 0 -167 -77q-65 -79 -65 -182q0 -75 44 -118.5t122 -43.5q80 0 142 46t102 129z" />
    <glyph glyph-name="colon" unicode=":" horiz-adv-x="248" 
d="M184 402h-59l10 48h59zM99 0h-59l10 48h59z" />
    <glyph glyph-name="semicolon" unicode=";" horiz-adv-x="251" 
d="M185 402h-59l10 48h59zM17 -149h-7l4 16h7q20 0 30 10.5t15 36.5l18 88l-43 -5l10 48h58l-29 -139q-10 -55 -63 -55z" />
    <glyph glyph-name="less" unicode="&#x3c;" horiz-adv-x="640" 
d="M64 313l511 230v-18l-493 -222l493 -221v-18l-511 229v20z" />
    <glyph glyph-name="equal" unicode="=" horiz-adv-x="640" 
d="M584 410h-529v18h529v-18zM584 191h-529v18h529v-18z" />
    <glyph glyph-name="greater" unicode="&#x3e;" horiz-adv-x="640" 
d="M64 525v18l511 -230v-20l-511 -229v18l493 221z" />
    <glyph glyph-name="question" unicode="?" horiz-adv-x="618" 
d="M279 167h-17l4 20q13 64 43 105q29 38 108 77q81 41 119.5 85.5t38.5 103.5q0 70 -49.5 107t-137.5 37q-102 0 -167 -51.5t-82 -144.5h-18q19 101 88.5 157t178.5 56q95 0 150 -42t55 -118q0 -117 -153 -196l-34 -18q-58 -29 -84 -64t-39 -96zM257 0h-41l8 41h41z" />
    <glyph glyph-name="at" unicode="@" horiz-adv-x="1079" 
d="M620 719q205 0 299 -118t55 -304q-24 -110 -86 -178q-63 -69 -138 -69q-98 0 -79 123q-64 -130 -178 -130q-87 0 -125 64t-14 174q24 109 81.5 167.5t136.5 58.5q61 0 98.5 -36.5t43.5 -94.5l27 121h17l-66 -306q-27 -126 62 -126q67 0 124 67q55 66 78 167
q39 178 -50 291q-90 113 -290 113q-183 0 -310 -112q-129 -113 -167 -296q-43 -203 52 -327q95 -123 279 -123q102 0 198 35l-3 -18q-91 -33 -198 -33q-190 0 -291 128q-100 127 -55 339q41 193 174 308q131 115 325 115zM496 59q72 0 124.5 60t76.5 173q18 87 -16 142
q-35 56 -110 56q-71 0 -124 -55t-76 -157q-23 -103 12 -161t113 -58z" />
    <glyph glyph-name="A" unicode="A" horiz-adv-x="717" 
d="M622 0h-19l-53 240h-390l-155 -240h-20l463 717h16zM442 677l-270 -419h374l-91 417l-3 18z" />
    <glyph glyph-name="B" unicode="B" horiz-adv-x="741" 
d="M513 372q135 -24 135 -153q0 -93 -66 -156t-165 -63h-359l152 712h309q84 0 127.5 -39t43.5 -105q0 -76 -48.5 -129t-128.5 -67zM517 695h-293l-67 -316h297q95 0 157 53q61 52 61 135q0 59 -39 93.5t-116 34.5zM80 17h337q89 0 151 60q61 58 61 143q0 69 -44.5 106
t-127.5 37h-304z" />
    <glyph glyph-name="C" unicode="C" horiz-adv-x="745" 
d="M358 -12q-121 0 -190 79t-69 206q0 44 11 101q35 165 134 257q99 93 239 93q114 0 182 -62t68 -166h-18q-1 98 -63.5 154.5t-170.5 56.5q-133 0 -226 -87.5t-126 -243.5q-12 -56 -12 -103q0 -120 65 -194t178 -74q119 0 204 78q76 70 101 157h18q-31 -110 -121 -182
q-88 -70 -204 -70z" />
    <glyph glyph-name="D" unicode="D" horiz-adv-x="741" 
d="M210 712h221q130 0 197.5 -66t67.5 -188q0 -44 -11 -105q-34 -169 -135.5 -261t-265.5 -92h-226zM667 356q11 61 11 103q0 113 -63 174.5t-186 61.5h-205l-144 -678h204q157 0 254.5 88.5t128.5 250.5z" />
    <glyph glyph-name="E" unicode="E" horiz-adv-x="674" 
d="M677 712l-4 -17h-449l-66 -313h420l-3 -17h-421l-74 -348h468l-4 -17h-486l152 712h467z" />
    <glyph glyph-name="F" unicode="F" horiz-adv-x="620" 
d="M683 712l-4 -17h-455l-67 -317h397l-3 -17h-398l-77 -361h-18l152 712h473z" />
    <glyph glyph-name="G" unicode="G" horiz-adv-x="831" 
d="M494 707q-139 0 -237 -92q-98 -94 -131 -252q-11 -57 -11 -101q0 -120 65.5 -188.5t183.5 -68.5q122 0 217 77q94 76 127 212l8 38h-282l4 18h299l-74 -350h-16l38 187q-47 -95 -132 -147t-190 -52q-125 0 -196 75q-70 74 -70 200q0 46 11 104q34 164 137 261
q102 96 249 96q123 0 193 -60.5t70 -167.5h-18q0 99 -65.5 155t-179.5 56z" />
    <glyph glyph-name="H" unicode="H" horiz-adv-x="752" 
d="M649 388l69 324h18l-152 -712h-18l79 370h-490l-79 -370h-18l152 712h18l-69 -324h490z" />
    <glyph glyph-name="I" unicode="I" horiz-adv-x="244" 
d="M76 0h-18l152 712h18z" />
    <glyph glyph-name="J" unicode="J" horiz-adv-x="572" 
d="M216 -12q-82 0 -130 38t-48 109q0 23 17 102h18q-16 -65 -16 -102q0 -64 42 -97t117 -33q172 0 211 186l111 521h18l-111 -521q-44 -203 -229 -203z" />
    <glyph glyph-name="K" unicode="K" horiz-adv-x="706" 
d="M724 712h28l-380 -295l240 -417h-22l-233 406l-233 -180l-48 -226h-18l152 712h18l-99 -462z" />
    <glyph glyph-name="L" unicode="L" horiz-adv-x="619" 
d="M228 712l-148 -695h433l-4 -17h-451l152 712h18z" />
    <glyph glyph-name="M" unicode="M" horiz-adv-x="907" 
d="M421 52l445 660h25l-152 -712h-17l139 655l11 38l-23 -37l-443 -656h-15l-163 656l-6 37l-7 -38l-139 -655h-18l152 712h22l164 -659l6 -32z" />
    <glyph glyph-name="N" unicode="N" horiz-adv-x="753" 
d="M574 27l146 685h17l-152 -712h-16l-347 686l-146 -686h-18l152 712h16z" />
    <glyph glyph-name="O" unicode="O" horiz-adv-x="825" 
d="M365 -12q-125 0 -195 78q-71 77 -71 205q0 51 10 98q32 160 138 257q106 98 253 98q128 0 198 -76t70 -205q0 -53 -10 -100q-32 -160 -136 -257q-107 -98 -257 -98zM367 5q141 0 242 95q99 93 131 247q10 47 10 96q0 123 -66.5 193.5t-185.5 70.5q-140 0 -240 -94
q-101 -95 -131 -248q-10 -44 -10 -93q0 -121 67 -194t183 -73z" />
    <glyph glyph-name="P" unicode="P" horiz-adv-x="650" 
d="M210 712h259q87 0 136.5 -39.5t49.5 -110.5q0 -109 -73 -173t-192 -64h-245l-69 -325h-18zM149 342h241q112 0 180 60q67 58 67 159q0 64 -46 99t-123 35h-244z" />
    <glyph glyph-name="Q" unicode="Q" horiz-adv-x="825" 
d="M758 343q-38 -186 -166 -282l86 -88l-12 -13l-88 91q-94 -63 -213 -63q-125 0 -195 78q-71 77 -71 205q0 51 10 98q33 160 138 257q106 98 253 98q128 0 198 -76t70 -205q0 -53 -10 -100zM461 197l118 -123q127 95 161 273q10 47 10 96q0 123 -66.5 193.5t-185.5 70.5
q-141 0 -239 -94q-101 -95 -132 -248q-10 -44 -10 -93q0 -121 67 -194t183 -73q110 0 198 59l-116 119z" />
    <glyph glyph-name="R" unicode="R" horiz-adv-x="734" 
d="M686 566q0 -89 -55 -148t-148 -72q57 -9 83 -38t26 -83q0 -12 -2 -34l-18 -191h-18l18 188q2 26 2 37q0 62 -37 87.5t-124 25.5h-265l-72 -338h-18l152 712h297q86 0 132.5 -38.5t46.5 -107.5zM152 355h275q107 0 174 58q67 57 67 152q0 62 -42.5 96t-120.5 34h-281z" />
    <glyph glyph-name="S" unicode="S" horiz-adv-x="672" 
d="M299 -12q-118 0 -181 47.5t-63 142.5q0 4 2 30h18q-2 -24 -2 -27q0 -87 59 -131.5t168 -44.5q125 0 198.5 54t73.5 154q0 104 -131 131l-138 28q-150 30 -150 149q0 99 76 151q74 52 193 52q102 0 161.5 -42.5t59.5 -119.5q0 -16 -3 -33h-18q3 15 3 31q0 70 -55 108.5
t-149 38.5q-111 0 -181 -48q-70 -49 -70 -138q0 -103 136 -131l140 -29q143 -29 143 -147q0 -108 -78 -167t-212 -59z" />
    <glyph glyph-name="T" unicode="T" horiz-adv-x="641" 
d="M141 712h543l-4 -17h-263l-148 -695h-18l148 695h-262z" />
    <glyph glyph-name="U" unicode="U" horiz-adv-x="750" 
d="M331 -12q-108 0 -169 44.5t-61 135.5q0 32 9 72l100 472h18l-101 -476q-8 -40 -8 -66q0 -84 56 -124.5t156 -40.5q235 0 284 231l101 476h18l-101 -476q-53 -248 -302 -248z" />
    <glyph glyph-name="V" unicode="V" horiz-adv-x="671" 
d="M344 116l365 596h20l-439 -718h-17l-136 718h19l111 -596l18 -101z" />
    <glyph glyph-name="W" unicode="W" horiz-adv-x="936" 
d="M673 124l302 588h19l-368 -718h-15l-56 689l-330 -689h-16l-72 718h18l58 -586l9 -102l330 688h17l48 -588l7 -100z" />
    <glyph glyph-name="X" unicode="X" horiz-adv-x="672" 
d="M683 712h25l-336 -343l205 -369h-20l-182 328l-15 30l-29 -30l-321 -328h-25l365 371l-191 341h21l166 -299l16 -31l28 30z" />
    <glyph glyph-name="Y" unicode="Y" horiz-adv-x="669" 
d="M714 712h24l-387 -426l-61 -286h-19l62 286l-208 426h20l192 -397l6 -15l12 15z" />
    <glyph glyph-name="Z" unicode="Z" horiz-adv-x="689" 
d="M203 712h490l-4 -17l-636 -678h506l-4 -17h-530l4 18l636 677h-466z" />
    <glyph glyph-name="bracketleft" unicode="[" horiz-adv-x="344" 
d="M188 -204h-173l202 951h173l-3 -17h-155l-196 -917h155z" />
    <glyph glyph-name="backslash" unicode="\" horiz-adv-x="431" 
d="M317 0h-17l-144 712h17z" />
    <glyph glyph-name="bracketright" unicode="]" horiz-adv-x="344" 
d="M133 -204h-175l3 17h158l196 917h-157l3 17h174z" />
    <glyph glyph-name="asciicircum" unicode="^" horiz-adv-x="640" 
d="M310 718h20l213 -516h-19l-187 454q-2 6 -8.5 22.5t-8.5 22.5q-14 -35 -17 -45l-187 -454h-19z" />
    <glyph glyph-name="underscore" unicode="_" horiz-adv-x="500" 
d="M418 -123h-500l5 17h500z" />
    <glyph glyph-name="grave" unicode="`" horiz-adv-x="500" 
d="M398 626h-18l-89 150h21z" />
    <glyph glyph-name="a" unicode="a" horiz-adv-x="578" 
d="M500 16h16l-3 -16h-15q-56 0 -73.5 29t-3.5 95l1 6q-70 -142 -232 -142q-75 0 -115.5 35t-40.5 93q0 135 188 161l132 18q61 9 86.5 30.5t34.5 63.5q14 61 -27 91.5t-125 30.5q-88 0 -134 -35.5t-65 -109.5l-18 1q39 161 220 161q84 0 127 -28.5t43 -77.5q0 -18 -3 -33
l-56 -268q-12 -57 2 -81t61 -24zM195 4q171 0 238 181l30 145q-26 -40 -108 -50l-130 -19q-173 -24 -173 -144q0 -52 36.5 -82.5t106.5 -30.5z" />
    <glyph glyph-name="b" unicode="b" horiz-adv-x="597" 
d="M363 528q85 0 132.5 -55t47.5 -148q0 -31 -8 -77q-23 -123 -92 -191.5t-171 -68.5q-80 0 -126.5 46.5t-54.5 126.5l-35 -161h-17l152 712h18l-74 -343q34 72 94.5 115.5t133.5 43.5zM517 251q8 45 8 74q0 86 -44 136t-121 50q-89 0 -156.5 -67.5t-91.5 -185.5
q-8 -43 -8 -71q0 -85 45 -133.5t123 -48.5q93 0 158 65.5t87 180.5z" />
    <glyph glyph-name="c" unicode="c" horiz-adv-x="547" 
d="M240 -12q-83 0 -134 57.5t-51 153.5q0 37 7 71q24 124 94.5 191t174.5 67q91 0 135 -50q42 -50 42 -119h-18q0 60 -38 107q-38 45 -121 45q-98 0 -163.5 -63.5t-87.5 -180.5q-7 -32 -7 -68q0 -89 46 -141.5t122 -52.5q80 0 134.5 43.5t81.5 121.5h18q-28 -86 -87.5 -134
t-147.5 -48z" />
    <glyph glyph-name="d" unicode="d" horiz-adv-x="598" 
d="M508 358l75 354h18l-152 -712h-17l34 157q-32 -75 -94 -122t-138 -47q-84 0 -133 55t-49 148q0 29 8 72q23 122 93 194q71 71 167 71q81 0 130.5 -44.5t57.5 -125.5zM236 5q89 0 156.5 67.5t93.5 185.5q9 39 9 75q0 81 -47 129.5t-127 48.5q-89 0 -157 -68
q-66 -68 -86 -182q-7 -41 -7 -70q0 -87 43.5 -136.5t121.5 -49.5z" />
    <glyph glyph-name="e" unicode="e" horiz-adv-x="573" 
d="M515 267h-435q-7 -32 -7 -69q0 -88 48 -140.5t127 -52.5q87 0 143 47q55 46 78 105l17 -1q-22 -63 -84 -116q-61 -52 -154 -52q-87 0 -140 57.5t-53 153.5q0 38 8 76q26 117 100 185t175 68q87 0 137 -50t50 -134q0 -38 -10 -77zM338 511q-91 0 -161 -62
q-68 -61 -94 -166h418q7 35 7 60q0 77 -45.5 122.5t-124.5 45.5z" />
    <glyph glyph-name="f" unicode="f" horiz-adv-x="316" 
d="M389 695h-50q-55 0 -88 -27.5t-45 -90.5l-13 -61h158l-4 -16h-157l-2 -10l-105 -490h-18l105 490l2 10h-99l4 16h98l13 61q15 73 51 104t100 31h54z" />
    <glyph glyph-name="g" unicode="g" horiz-adv-x="599" 
d="M508 353l35 163h17l-111 -524q-44 -197 -247 -197q-54 0 -93 14.5t-57.5 37.5t-26 43.5t-7.5 40.5h17q1 -34 32 -73q36 -46 138 -46q190 0 227 181l35 162q-34 -75 -95.5 -121t-134.5 -46q-87 0 -135 54t-48 148q-3 135 75 237t197 101q81 0 128.5 -47.5t53.5 -127.5z
M239 5q72 0 134 50q61 50 92 123q31 72 31 153q0 84 -46.5 132t-122.5 48q-117 0 -186 -95q-69 -96 -69 -227q0 -86 43.5 -135t123.5 -49z" />
    <glyph glyph-name="h" unicode="h" horiz-adv-x="582" 
d="M362 528q71 0 109.5 -36.5t38.5 -103.5q0 -24 -6 -54l-71 -334h-18l71 334q6 29 6 53q0 61 -34 92.5t-98 31.5q-86 0 -150 -54.5t-90 -159.5l-63 -297h-18l152 712h18l-70 -330q36 70 93.5 108t129.5 38z" />
    <glyph glyph-name="i" unicode="i" horiz-adv-x="205" 
d="M198 664h-18l11 48h18zM57 0h-18l110 516h18z" />
    <glyph glyph-name="j" unicode="j" horiz-adv-x="205" 
d="M198 664h-18l10 48h18zM-103 -204h-29l3 17h26q101 0 124 104l128 599h18l-129 -601q-26 -119 -141 -119z" />
    <glyph glyph-name="k" unicode="k" horiz-adv-x="553" 
d="M530 516h26l-272 -205l176 -311h-20l-170 301l-178 -135l-35 -166h-18l152 712h18l-112 -523z" />
    <glyph glyph-name="l" unicode="l" horiz-adv-x="206" 
d="M57 0h-18l152 712h18z" />
    <glyph glyph-name="m" unicode="m" horiz-adv-x="857" 
d="M657 528q63 0 97 -32.5t34 -93.5q0 -31 -7 -58l-73 -344h-18l73 344q7 32 7 56q0 111 -118 111q-68 0 -124 -53t-80 -149l-66 -309h-18l74 344q6 40 6 56q0 111 -118 111q-71 0 -127.5 -57t-79.5 -161l-62 -293h-18l110 516h18l-25 -113l-1 -5l-2 -9q33 66 83 102.5
t109 36.5q63 0 97 -32t34 -94q0 -14 -1 -19q32 69 83 107t113 38z" />
    <glyph glyph-name="n" unicode="n" horiz-adv-x="582" 
d="M362 528q71 0 109.5 -36.5t38.5 -103.5q0 -22 -6 -54l-71 -334h-18l71 334q6 29 6 53q0 61 -34 92.5t-98 31.5q-86 0 -150 -54.5t-90 -159.5l-63 -297h-18l110 516h18l-30 -137q74 149 225 149z" />
    <glyph glyph-name="o" unicode="o" horiz-adv-x="591" 
d="M251 -12q-90 0 -143 57t-53 153q0 39 7 73q23 119 99 188q75 69 180 69q90 0 143 -56.5t53 -151.5q0 -29 -8 -74q-22 -120 -96.5 -189t-181.5 -69zM251 5q99 0 168 65t92 179q8 45 8 71q0 89 -48.5 140t-130.5 51q-97 0 -167 -65t-93 -179q-7 -32 -7 -69q0 -89 48.5 -141
t129.5 -52z" />
    <glyph glyph-name="p" unicode="p" horiz-adv-x="598" 
d="M364 528q84 0 131.5 -54.5t47.5 -148.5q0 -137 -73 -237t-193 -100q-80 0 -129.5 45t-57.5 121l-76 -358h-18l153 720h17l-32 -151q34 74 94.5 118.5t135.5 44.5zM278 5q73 0 131.5 47t88.5 120.5t27 152.5q0 87 -43.5 136.5t-120.5 49.5q-110 0 -184 -101
q-74 -103 -74 -227q0 -82 47 -130t128 -48z" />
    <glyph glyph-name="q" unicode="q" horiz-adv-x="600" 
d="M510 355l34 161h17l-153 -720h-18l77 359q-32 -74 -94 -120.5t-137 -46.5q-84 0 -133 55t-49 148q-4 131 73.5 234.5t193.5 102.5q83 0 132 -45.5t57 -127.5zM237 5q110 -1 187 102.5t73 225.5q0 82 -47 130t-128 48q-112 0 -180 -96q-69 -97 -69 -224q0 -87 43 -136.5
t121 -49.5z" />
    <glyph glyph-name="r" unicode="r" horiz-adv-x="399" 
d="M345 529q37 0 61 -6l-4 -17q-33 5 -59 5q-79 0 -140 -56.5t-83 -163.5h-1l-61 -291h-18l109 516h17l-27 -129q33 68 87 105t119 37z" />
    <glyph glyph-name="s" unicode="s" horiz-adv-x="529" 
d="M224 -12q-88 0 -136.5 38t-48.5 106h17q0 -61 44.5 -94t125.5 -33q90 0 141.5 37.5t51.5 106.5q0 44 -27.5 68t-89.5 34l-67 11q-66 12 -99.5 39t-33.5 76q0 69 55.5 108t146.5 39q80 0 125.5 -37.5t45.5 -102.5h-18q0 59 -41 91.5t-114 32.5q-82 0 -132.5 -35t-50.5 -95
q0 -44 30 -67t92 -32l67 -11q68 -10 98.5 -38.5t30.5 -79.5q0 -79 -57 -120.5t-156 -41.5z" />
    <glyph glyph-name="t" unicode="t" horiz-adv-x="331" 
d="M197 500l-2 -10l-82 -382q-4 -23 -4 -37q0 -54 69 -54h59l-3 -17h-59q-85 0 -85 68q0 14 5 39l82 383l2 10h-105l3 16h105l2 8l29 139h18l-29 -139l-2 -8h144l-3 -16h-144z" />
    <glyph glyph-name="u" unicode="u" horiz-adv-x="582" 
d="M462 219l63 297h18l-110 -516h-18l30 137q-74 -149 -225 -149q-71 0 -109.5 36.5t-38.5 103.5q0 22 6 54l71 334h18l-71 -334q-6 -29 -6 -53q0 -61 34 -92.5t98 -31.5q86 0 150 54.5t90 159.5z" />
    <glyph glyph-name="v" unicode="v" horiz-adv-x="534" 
d="M228 61l282 455h20l-320 -516h-20l-106 516h18l93 -455l8 -46z" />
    <glyph glyph-name="w" unicode="w" horiz-adv-x="763" 
d="M512 91l228 425h19l-278 -516h-17l-43 437l-4 58l-28 -58l-229 -437h-17l-59 516h18l48 -425l7 -69l33 69l223 425h17l43 -425l6 -67z" />
    <glyph glyph-name="x" unicode="x" horiz-adv-x="530" 
d="M498 516h24l-249 -245l163 -271h-20l-154 261l-265 -261h-24l281 274l-147 242h19l140 -231z" />
    <glyph glyph-name="y" unicode="y" horiz-adv-x="545" 
d="M206 -4l315 520h20l-387 -636q-29 -50 -59 -67t-87 -17h-31l4 17h26q52 0 79.5 16t54.5 60l53 88l-110 539h18l101 -498z" />
    <glyph glyph-name="z" unicode="z" horiz-adv-x="522" 
d="M126 516h376l-3 -13l-466 -486h379l-4 -17h-404l3 14l465 485h-350z" />
    <glyph glyph-name="braceleft" unicode="{" horiz-adv-x="392" 
d="M236 -205h-66q-83 0 -83 72q0 15 8 57l47 220q9 43 9 58q0 32 -21.5 46.5t-71.5 14.5l4 17q62 0 91 22.5t40 77.5l54 258q22 109 126 109h65l-3 -17h-63q-88 0 -108 -93l-54 -257q-20 -95 -97 -108v-1q56 -11 56 -67q0 -16 -9 -60l-47 -219q-8 -40 -8 -53q0 -60 71 -60
h63z" />
    <glyph glyph-name="bar" unicode="|" horiz-adv-x="446" 
d="M235 -204h-18v951h18v-951z" />
    <glyph glyph-name="braceright" unicode="}" horiz-adv-x="392" 
d="M25 -205h-67l3 17h65q87 0 107 93l54 257q20 95 97 108v1q-56 11 -56 67q0 16 9 60l47 219q8 40 8 53q0 60 -71 60h-63l3 17h66q83 0 83 -72q0 -15 -8 -57l-47 -220q-9 -44 -9 -58q0 -32 21.5 -46.5t71.5 -14.5l-3 -17q-62 0 -91 -22.5t-41 -77.5l-54 -258
q-22 -109 -125 -109z" />
    <glyph glyph-name="asciitilde" unicode="~" horiz-adv-x="640" 
d="M95 246h-16q0 85 34 130.5t90 45.5q32 0 58 -16.5t44 -40t36 -46.5t42.5 -39.5t53.5 -16.5q50 0 79 42t29 117h16q0 -85 -34 -130.5t-90 -45.5q-32 0 -58 16.5t-44 40t-36 46.5t-42.5 39.5t-53.5 16.5q-50 0 -79 -42t-29 -117z" />
    <glyph glyph-name="uni00A0" unicode="&#xa0;" horiz-adv-x="298" 
 />
    <glyph glyph-name="exclamdown" unicode="&#xa1;" horiz-adv-x="267" 
d="M200 475h-41l9 41h41zM46 -196h-18l44 205l74 339h14l-70 -339z" />
    <glyph glyph-name="cent" unicode="&#xa2;" horiz-adv-x="547" 
d="M331 511q-98 0 -163.5 -63.5t-87.5 -180.5q-7 -32 -7 -68q0 -89 46 -141.5t122 -52.5q80 0 134.5 43.5t81.5 121.5h18q-28 -86 -87.5 -134t-147.5 -48h-2l-28 -132h-17l28 133q-75 7 -120.5 63.5t-45.5 146.5q0 37 7 71q24 124 94.5 191t174.5 67h5l29 138h17l-29 -139
q77 -6 116 -52.5t39 -115.5h-18q0 60 -38 107q-38 45 -121 45z" />
    <glyph glyph-name="sterling" unicode="&#xa3;" horiz-adv-x="640" 
d="M398 725q96 0 153 -48t57 -130q0 -14 -1 -20h-18l2 19q0 75 -52 118.5t-142 43.5q-104 0 -166 -56t-62 -144q0 -35 13.5 -70t50.5 -95h245l-3 -16h-231q28 -43 28 -95q0 -72 -53 -131q-54 -60 -134 -84h416l-3 -17h-509l3 17h10q96 0 175 65q77 65 77 150q0 48 -32 95
h-164l3 16h151q-32 53 -47 91q-14 36 -14 75q0 95 69 156q68 60 178 60z" />
    <glyph glyph-name="currency" unicode="&#xa4;" horiz-adv-x="640" 
d="M612 641l-109 -109q65 -68 65 -171q0 -102 -65 -173l109 -109l-11 -11l-109 109q-68 -65 -172 -65t-172 65l-109 -109l-11 11l109 109q-65 71 -65 173q0 103 65 171l-109 109l11 11l109 -109q68 65 172 65t172 -65l109 109zM154 194q65 -65 166 -65t166 65t65 166
t-65 166t-166 65t-166 -65t-65 -166t65 -166z" />
    <glyph glyph-name="yen" unicode="&#xa5;" horiz-adv-x="640" 
d="M701 712h22l-375 -405h237l-4 -17h-245l-25 -118h246l-5 -18h-244l-33 -154h-18l33 154h-245l4 18h244l25 118h-245l5 17h237l-205 405h22l194 -387l6 -14l12 15z" />
    <glyph glyph-name="brokenbar" unicode="&#xa6;" horiz-adv-x="446" 
d="M235 411h-18v336h18v-336zM235 -204h-18v336h18v-336z" />
    <glyph glyph-name="section" unicode="&#xa7;" horiz-adv-x="640" 
d="M406 703q-86 0 -136.5 -38t-50.5 -102q0 -92 117 -116l80 -17q145 -31 145 -133q0 -57 -43 -96.5t-114 -52.5q54 -34 54 -102q0 -71 -56.5 -114t-147.5 -43q-83 0 -131.5 34t-48.5 94h18q0 -53 43.5 -82t118.5 -29q85 0 136 38t51 101q0 93 -117 117l-81 17
q-144 31 -144 133q0 57 43 96.5t114 51.5q-55 34 -55 103q0 71 56.5 114t148.5 43q82 0 130.5 -34.5t48.5 -94.5h-17q0 53 -44 82.5t-118 29.5zM410 414l-80 18q-28 4 -55 17q-71 -10 -115 -47t-44 -89q0 -90 134 -119l79 -17q25 -4 52 -17q75 10 118.5 46t43.5 89
q0 91 -133 119z" />
    <glyph glyph-name="dieresis" unicode="&#xa8;" horiz-adv-x="500" 
d="M259 664h-18l9 48h18zM432 664h-18l10 48h18z" />
    <glyph glyph-name="copyright" unicode="&#xa9;" horiz-adv-x="893" 
d="M722 96q-99 -103 -254 -103q-156 0 -253 103q-99 102 -99 261q0 158 99 260q97 102 253 102q155 0 254 -102q98 -103 98 -260q0 -158 -98 -261zM468 9q147 0 242 98q93 97 93 250q0 151 -93 249q-93 97 -242 97t-242 -97q-94 -97 -94 -249q0 -153 94 -250q93 -98 242 -98
zM468 173q-72 0 -111.5 49.5t-39.5 136.5t40 135.5t112 48.5q59 0 96 -31t44 -78l-16 -3q-7 42 -39.5 69t-84.5 27q-66 0 -101 -43.5t-35 -124.5t35.5 -125.5t99.5 -44.5q48 0 82 26t44 71l16 -2q-11 -52 -48.5 -81.5t-93.5 -29.5z" />
    <glyph glyph-name="ordfeminine" unicode="&#xaa;" horiz-adv-x="490" 
d="M347 725q125 0 125 -93q0 -16 -6 -48l-46 -212h-15l18 91q-28 -47 -73 -73t-99 -26q-53 0 -83 25t-30 67q0 46 35.5 75t98.5 33l174 10l5 22q4 19 4 36q0 40 -26 58.5t-82 18.5q-104 0 -142 -74l-16 6q45 84 158 84zM252 380q66 0 114 37.5t69 104.5l8 37l-168 -10
q-57 -3 -88.5 -27.5t-31.5 -64.5q0 -37 26 -57t71 -20z" />
    <glyph glyph-name="guillemotleft" unicode="&#xab;" horiz-adv-x="719" 
d="M292 11l-5 -21l-196 257l5 22l305 255l-6 -26l-289 -243zM572 11l-5 -21l-196 257l5 22l305 255l-6 -26l-289 -243z" />
    <glyph glyph-name="logicalnot" unicode="&#xac;" horiz-adv-x="640" 
d="M554 117h-17v230h-452v18h469v-248z" />
    <glyph glyph-name="uni00AD" unicode="&#xad;" horiz-adv-x="377" 
d="M325 241h-280l4 18h280z" />
    <glyph glyph-name="registered" unicode="&#xae;" horiz-adv-x="669" 
d="M209 650q71 69 174 69t174 -69q70 -69 70 -168t-70 -168q-71 -69 -174 -69t-174 69t-71 168t71 168zM383 258q97 0 164 66q66 64 66 158t-66 158q-68 65 -164 65q-97 0 -164 -65q-67 -64 -67 -158q0 -95 67 -159q67 -65 164 -65zM484 423l3 -49q2 -18 11 -29h-14
q-9 12 -10 29l-3 48q-2 28 -16.5 40t-49.5 12h-99v-129h-14v279h111q41 0 63.5 -19.5t22.5 -55.5q0 -54 -50 -68q42 -9 45 -58zM306 487h98q72 0 72 62t-73 62h-97v-124z" />
    <glyph glyph-name="overscore" unicode="&#xaf;" horiz-adv-x="500" 
d="M479 663h-286l3 16h286z" />
    <glyph glyph-name="degree" unicode="&#xb0;" horiz-adv-x="450" 
d="M406 447q-46 -46 -116 -46t-116 46t-46 116q0 71 46 117q46 45 116 45t116 -45q46 -46 46 -117q0 -70 -46 -116zM186 459q41 -42 104 -42q64 0 104 42q41 41 41 104q0 62 -41 105q-41 41 -104 41t-104 -41q-41 -43 -41 -105q0 -63 41 -104z" />
    <glyph glyph-name="plusminus" unicode="&#xb1;" horiz-adv-x="640" 
d="M329 575v-196h265v-18h-265v-195h-18v195h-266v18h266v196h18zM585 31h-529v18h529v-18z" />
    <glyph glyph-name="two.sups" unicode="&#xb2;" horiz-adv-x="472" 
d="M417 372h-310q21 110 177 174l62 26q121 51 121 130q0 40 -29 65t-84 25q-132 0 -162 -127h-18q15 71 63 107t118 36q62 0 95.5 -28.5t33.5 -76.5q0 -92 -130 -144l-63 -26q-135 -56 -162 -145h292z" />
    <glyph glyph-name="three.sups" unicode="&#xb3;" horiz-adv-x="427" 
d="M249 365q-71 0 -109.5 35t-39.5 95h17q0 -54 34.5 -84t98.5 -30q72 0 116 34.5t44 89.5q0 41 -29.5 64t-84.5 23h-34l4 16h32q59 0 96.5 27.5t37.5 73.5q0 39 -30.5 61t-81.5 22q-60 0 -99 -27.5t-50 -77.5l-17 1q11 55 56 87.5t111 32.5q59 0 93.5 -25.5t34.5 -72.5
q0 -41 -28 -70.5t-74 -38.5v-1q38 -7 59.5 -31.5t21.5 -62.5q0 -60 -49 -100q-50 -41 -130 -41z" />
    <glyph glyph-name="acute" unicode="&#xb4;" horiz-adv-x="500" 
d="M294 626h-20l118 150h23z" />
    <glyph glyph-name="uni00B5" unicode="&#xb5;" horiz-adv-x="692" 
d="M167 -204h-18v720h18v-334q0 -85 42 -131t122 -46q90 0 142 59t52 173v279h18v-516h-18l1 137q-44 -149 -196 -149q-124 0 -164 103h-1l2 -175v-120z" />
    <glyph glyph-name="paragraph" unicode="&#xb6;" horiz-adv-x="605" 
d="M212 -103h-18l99 458q-184 0 -184 134q0 104 69.5 163.5t188.5 59.5h221l-174 -815h-17l170 798h-185z" />
    <glyph glyph-name="middot" unicode="&#xb7;" horiz-adv-x="246" 
d="M166 328h-57l10 47h57z" />
    <glyph glyph-name="cedilla" unicode="&#xb8;" horiz-adv-x="500" 
d="M117 -213h-39l3 15h36q105 0 105 67q0 46 -62 46h-42l-8 13l60 72h18l-57 -69h32q37 0 57 -16.5t20 -44.5q0 -41 -33 -62t-90 -21z" />
    <glyph glyph-name="one.sups" unicode="&#xb9;" horiz-adv-x="308" 
d="M238 372h-16l63 297h-152l4 16h107q24 0 35 7t16 28l18 79h16z" />
    <glyph glyph-name="ordmasculine" unicode="&#xba;" horiz-adv-x="461" 
d="M274 366q-69 0 -111.5 43t-42.5 112q0 87 55 145q55 57 137 57q68 0 109.5 -43t41.5 -112q0 -87 -54 -144q-55 -58 -135 -58zM276 382q72 0 121 52q49 50 49 132q0 64 -37 102.5t-98 38.5q-75 0 -124 -52q-50 -53 -50 -132q0 -64 38 -102.5t101 -38.5z" />
    <glyph glyph-name="guillemotright" unicode="&#xbb;" horiz-adv-x="719" 
d="M341 245l-304 -255l5 26l289 243l-185 244l5 21l195 -257zM621 245l-304 -255l5 26l289 243l-185 244l5 21l195 -257z" />
    <glyph glyph-name="onequarter" unicode="&#xbc;" horiz-adv-x="1075" 
d="M295 321h-17l63 297h-151l4 16h107q24 0 35 7t16 28l17 79h17zM248 -15h-22l604 742h21zM831 0h-17l26 119h-259l3 15l321 293h17l-62 -292h75l-3 -16h-76zM899 404l-294 -269h238l57 268z" />
    <glyph glyph-name="onehalf" unicode="&#xbd;" horiz-adv-x="1127" 
d="M295 321h-17l63 297h-151l4 16h107q24 0 35 7t16 28l17 79h17zM248 -15h-22l604 742h21zM958 0h-309q21 109 176 174l63 26q120 50 120 130q0 40 -29.5 65t-82.5 25q-134 0 -162 -127h-18q15 71 62.5 107t117.5 36q62 0 96 -28.5t34 -76.5q0 -92 -130 -144l-64 -26
q-135 -56 -161 -145h291z" />
    <glyph glyph-name="threequarters" unicode="&#xbe;" horiz-adv-x="1127" 
d="M283 314q-72 0 -110.5 35t-38.5 95h17q0 -54 34 -84t99 -30q72 0 116 34.5t44 89.5q0 41 -29.5 64t-84.5 23h-34l4 16h32q59 0 96.5 27.5t37.5 72.5q0 40 -30.5 62t-81.5 22q-60 0 -99 -27.5t-50 -77.5l-17 1q12 55 56 87.5t110 32.5q59 0 94 -26t35 -72q0 -40 -28.5 -70
t-73.5 -39v-1q38 -7 59 -31.5t21 -62.5q0 -61 -49.5 -101t-128.5 -40zM318 -15h-21l604 742h21zM902 0h-17l25 119h-258l3 15l320 293h18l-62 -292h75l-4 -16h-75zM969 404l-293 -269h238l57 268z" />
    <glyph glyph-name="questiondown" unicode="&#xbf;" horiz-adv-x="618" 
d="M394 475h-41l8 41h41zM229 -203q-94 0 -149 42t-55 118q0 63 38 109.5t115 86.5l34 18q57 30 83.5 65t39.5 95l3 18h18l-4 -20q-13 -65 -43 -104t-108 -78q-83 -41 -120.5 -84.5t-37.5 -104.5q0 -70 49.5 -107t136.5 -37q102 0 167 51.5t83 144.5h18q-19 -101 -89 -157
t-179 -56z" />
    <glyph glyph-name="Agrave" unicode="&#xc0;" horiz-adv-x="717" 
d="M403 972l85 -150h-18l-89 150h22zM622 0h-19l-53 240h-390l-155 -240h-20l463 717h15zM442 677l-270 -419h374l-91 417l-3 18z" />
    <glyph glyph-name="Aacute" unicode="&#xc1;" horiz-adv-x="717" 
d="M533 972h23l-121 -150h-20zM622 0h-19l-53 240h-390l-155 -240h-20l463 717h15zM442 677l-270 -419h374l-91 417l-3 18z" />
    <glyph glyph-name="Acircumflex" unicode="&#xc2;" horiz-adv-x="717" 
d="M603 810l-96 147l-158 -147h-23l173 162h18l106 -162h-20zM-15 0l463 717h15l159 -717h-19l-53 240h-390l-155 -240h-20zM442 677l-270 -419h374l-91 417l-3 18z" />
    <glyph glyph-name="Atilde" unicode="&#xc3;" horiz-adv-x="717" 
d="M676 978h16q-20 -79 -50 -115t-73 -36q-31 0 -51 21t-28 46.5t-26 46.5t-46 21q-69 0 -105 -135h-17q39 151 124 151q31 0 51 -21t28 -46.5t26 -46.5t47 -21q34 0 59 32t45 103zM-15 0l463 717h15l159 -717h-19l-53 240h-390l-155 -240h-20zM442 677l-270 -419h374
l-91 417l-3 18z" />
    <glyph glyph-name="Adieresis" unicode="&#xc4;" horiz-adv-x="717" 
d="M377 884h36l-12 -60h-37zM569 884h36l-13 -60h-36zM622 0h-19l-53 240h-390l-155 -240h-20l463 717h15zM442 677l-270 -419h374l-91 417l-3 18z" />
    <glyph glyph-name="Aring" unicode="&#xc5;" horiz-adv-x="717" 
d="M622 0h-19l-53 240h-390l-155 -240h-20l454 703q-38 8 -61.5 36.5t-23.5 67.5q0 47 30.5 77.5t77.5 30.5t77.5 -30.5t30.5 -77.5q0 -45 -29 -74.5t-74 -31.5zM371 807q0 -39 26 -64.5t65 -25.5q40 0 66 24.5t26 65.5t-26 66.5t-66 25.5t-65.5 -25.5t-25.5 -66.5zM442 677
l-270 -419h374l-91 417l-3 18z" />
    <glyph glyph-name="AE" unicode="&#xc6;" horiz-adv-x="1135" 
d="M1138 712l-4 -17h-449l-66 -313h420l-3 -17h-421l-74 -348h469l-5 -17h-486l51 239h-358l-206 -239h-21l614 712h539zM606 695l-379 -439h347l93 439h-61z" />
    <glyph glyph-name="Ccedilla" unicode="&#xc7;" horiz-adv-x="745" 
d="M481 707q-133 0 -226 -87.5t-126 -243.5q-12 -56 -12 -103q0 -120 65 -194t178 -74q119 0 204 78q76 70 101 157h18q-31 -110 -121 -182q-88 -70 -204 -70h-12l-52 -63h32q37 0 57 -16.5t20 -44.5q0 -41 -33 -62t-90 -21h-39l3 15h36q105 0 105 67q0 46 -62 46h-42l-8 13
l56 67q-108 10 -169 88q-61 76 -61 196q0 44 11 101q35 165 134 257q99 93 239 93q114 0 182 -62t68 -166h-18q-1 98 -63.5 154.5t-170.5 56.5z" />
    <glyph glyph-name="Egrave" unicode="&#xc8;" horiz-adv-x="674" 
d="M402 972l85 -150h-18l-89 150h22zM677 712l-4 -17h-449l-66 -313h420l-3 -17h-421l-74 -348h468l-4 -17h-486l152 712h467z" />
    <glyph glyph-name="Eacute" unicode="&#xc9;" horiz-adv-x="674" 
d="M532 972h23l-121 -150h-20zM677 712l-4 -17h-449l-66 -313h420l-3 -17h-421l-74 -348h468l-4 -17h-486l152 712h467z" />
    <glyph glyph-name="Ecircumflex" unicode="&#xca;" horiz-adv-x="674" 
d="M602 810l-96 147l-158 -147h-23l173 162h18l106 -162h-20zM677 712l-4 -17h-449l-66 -313h420l-3 -17h-421l-74 -348h468l-4 -17h-486l152 712h467z" />
    <glyph glyph-name="Edieresis" unicode="&#xcb;" horiz-adv-x="674" 
d="M376 884h36l-12 -60h-37zM568 884h36l-13 -60h-36zM677 712l-4 -17h-449l-66 -313h420l-3 -17h-421l-74 -348h468l-4 -17h-486l152 712h467z" />
    <glyph glyph-name="Igrave" unicode="&#xcc;" horiz-adv-x="244" 
d="M252 822h-18l-89 150h22zM76 0h-18l152 712h18z" />
    <glyph glyph-name="Iacute" unicode="&#xcd;" horiz-adv-x="244" 
d="M199 822h-20l118 150h23zM76 0h-18l152 712h18z" />
    <glyph glyph-name="Icircumflex" unicode="&#xce;" horiz-adv-x="244" 
d="M114 810h-23l173 162h18l106 -162h-20l-96 147zM76 0h-18l152 712h18z" />
    <glyph glyph-name="Idieresis" unicode="&#xcf;" horiz-adv-x="244" 
d="M165 824h-36l12 60h37zM357 824h-37l13 60h37zM76 0h-18l152 712h18z" />
    <glyph glyph-name="Eth" unicode="&#xd0;" horiz-adv-x="822" 
d="M291 712h221q130 0 197.5 -66t67.5 -188q0 -44 -11 -105q-34 -169 -135.5 -261t-265.5 -92h-226l76 355l-172 -1l3 17h172zM748 356q11 61 11 103q0 113 -63 174.5t-186 61.5h-205l-69 -324h219l-3 -17l-219 1l-72 -338h204q156 0 253 88.5t130 250.5z" />
    <glyph glyph-name="Ntilde" unicode="&#xd1;" horiz-adv-x="753" 
d="M437 962q-69 0 -105 -135h-16q37 151 123 151q31 0 51 -21t28 -46.5t26 -46.5t47 -21q34 0 59 32t45 103h16q-37 -151 -122 -151q-30 0 -50.5 19.5t-29.5 48.5q-22 67 -72 67zM574 27l146 685h17l-152 -712h-16l-347 686l-146 -686h-18l152 712h16z" />
    <glyph glyph-name="Ograve" unicode="&#xd2;" horiz-adv-x="825" 
d="M520 823h-18l-89 150h22zM365 -12q-125 0 -195 78q-71 77 -71 205q0 51 10 98q32 160 138 257q106 98 253 98q128 0 198 -76t70 -205q0 -53 -10 -100q-32 -160 -136 -257q-107 -98 -257 -98zM367 5q141 0 242 95q99 93 131 247q10 47 10 96q0 123 -66.5 193.5
t-185.5 70.5q-140 0 -240 -94q-101 -95 -131 -248q-10 -44 -10 -93q0 -121 67 -194t183 -73z" />
    <glyph glyph-name="Oacute" unicode="&#xd3;" horiz-adv-x="825" 
d="M467 823h-20l118 150h23zM365 -12q-125 0 -195 78q-71 77 -71 205q0 51 10 98q32 160 138 257q106 98 253 98q128 0 198 -76t70 -205q0 -53 -10 -100q-32 -160 -136 -257q-107 -98 -257 -98zM367 5q141 0 242 95q99 93 131 247q10 47 10 96q0 123 -66.5 193.5
t-185.5 70.5q-140 0 -240 -94q-101 -95 -131 -248q-10 -44 -10 -93q0 -121 67 -194t183 -73z" />
    <glyph glyph-name="Ocircumflex" unicode="&#xd4;" horiz-adv-x="825" 
d="M381 811h-23l173 162h18l106 -162h-20l-96 147zM365 -12q-125 0 -195 78q-71 77 -71 205q0 51 10 98q32 160 138 257q106 98 253 98q128 0 198 -76t70 -205q0 -53 -10 -100q-32 -160 -136 -257q-107 -98 -257 -98zM367 5q141 0 242 95q99 93 131 247q10 47 10 96
q0 123 -66.5 193.5t-185.5 70.5q-140 0 -240 -94q-101 -95 -131 -248q-10 -44 -10 -93q0 -121 67 -194t183 -73z" />
    <glyph glyph-name="Otilde" unicode="&#xd5;" horiz-adv-x="825" 
d="M345 828h-16q37 151 123 151q31 0 51 -21t28 -46.5t26 -46.5t47 -21q34 0 59 32t45 103h16q-37 -151 -122 -151q-30 0 -50.5 19.5t-29.5 48.5q-22 67 -72 67q-69 0 -105 -135zM365 -12q-125 0 -195 78q-71 77 -71 205q0 51 10 98q32 160 138 257q106 98 253 98
q128 0 198 -76t70 -205q0 -53 -10 -100q-32 -160 -136 -257q-107 -98 -257 -98zM367 5q141 0 242 95q99 93 131 247q10 47 10 96q0 123 -66.5 193.5t-185.5 70.5q-140 0 -240 -94q-101 -95 -131 -248q-10 -44 -10 -93q0 -121 67 -194t183 -73z" />
    <glyph glyph-name="Odieresis" unicode="&#xd6;" horiz-adv-x="825" 
d="M433 825h-37l13 60h36zM624 825h-36l13 60h36zM365 -12q-125 0 -195 78q-71 77 -71 205q0 51 10 98q32 160 138 257q106 98 253 98q128 0 198 -76t70 -205q0 -53 -10 -100q-32 -160 -136 -257q-107 -98 -257 -98zM367 5q141 0 242 95q99 93 131 247q10 47 10 96
q0 123 -66.5 193.5t-185.5 70.5q-140 0 -240 -94q-101 -95 -131 -248q-10 -44 -10 -93q0 -121 67 -194t183 -73z" />
    <glyph glyph-name="multiply" unicode="&#xd7;" horiz-adv-x="640" 
d="M319 298l-224 -225l-12 13l225 224l-225 223l12 13l224 -225l224 225l13 -12l-225 -224l225 -225l-13 -12z" />
    <glyph glyph-name="Oslash" unicode="&#xd8;" horiz-adv-x="825" 
d="M808 713l10 -10l-95 -88q45 -70 45 -172q0 -53 -10 -100q-32 -160 -136 -257q-107 -98 -257 -98q-142 0 -214 102l-99 -91l-9 10l100 92q-44 71 -44 170q0 51 10 98q32 160 138 257q106 98 253 98q142 0 215 -97zM117 272q0 -93 40 -158l544 501q-68 92 -203 92
q-140 0 -240 -94q-101 -95 -131 -248q-10 -44 -10 -93zM750 443q0 95 -41 160l-545 -501q67 -97 203 -97q141 0 242 95q99 93 131 247q10 47 10 96z" />
    <glyph glyph-name="Ugrave" unicode="&#xd9;" horiz-adv-x="750" 
d="M486 822h-18l-89 150h22zM331 -12q-108 0 -169 44.5t-61 135.5q0 32 9 72l100 472h18l-101 -476q-8 -40 -8 -66q0 -84 56 -124.5t156 -40.5q235 0 284 231l101 476h18l-101 -476q-53 -248 -302 -248z" />
    <glyph glyph-name="Uacute" unicode="&#xda;" horiz-adv-x="750" 
d="M433 822h-20l118 150h23zM331 -12q-108 0 -169 44.5t-61 135.5q0 32 9 72l100 472h18l-101 -476q-8 -40 -8 -66q0 -84 56 -124.5t156 -40.5q235 0 284 231l101 476h18l-101 -476q-53 -248 -302 -248z" />
    <glyph glyph-name="Ucircumflex" unicode="&#xdb;" horiz-adv-x="750" 
d="M347 810h-23l173 162h18l106 -162h-20l-96 147zM331 -12q-108 0 -169 44.5t-61 135.5q0 32 9 72l100 472h18l-101 -476q-8 -40 -8 -66q0 -84 56 -124.5t156 -40.5q235 0 284 231l101 476h18l-101 -476q-53 -248 -302 -248z" />
    <glyph glyph-name="Udieresis" unicode="&#xdc;" horiz-adv-x="750" 
d="M399 824h-37l13 60h36zM590 824h-36l13 60h36zM331 -12q-108 0 -169 44.5t-61 135.5q0 32 9 72l100 472h18l-101 -476q-8 -40 -8 -66q0 -84 56 -124.5t156 -40.5q235 0 284 231l101 476h18l-101 -476q-53 -248 -302 -248z" />
    <glyph glyph-name="Yacute" unicode="&#xdd;" horiz-adv-x="669" 
d="M510 972h23l-121 -150h-20zM714 712h24l-387 -426l-62 -286h-18l62 286l-208 426h20l192 -397l6 -15l12 15z" />
    <glyph glyph-name="Thorn" unicode="&#xde;" horiz-adv-x="651" 
d="M196 563h242q88 0 137 -39t49 -111q0 -109 -73 -173t-192 -64h-245l-38 -176h-18l152 712h18zM117 193h243q112 0 179 60t67 160q0 63 -45.5 98t-123.5 35h-244z" />
    <glyph glyph-name="germandbls" unicode="&#xdf;" horiz-adv-x="602" 
d="M379 391q152 -24 152 -163q0 -102 -77 -165q-76 -63 -196 -63h-82l4 17h80q111 0 182 59t71 152q0 153 -200 153h-56l3 17h53q104 0 170 45t66 125q0 65 -45 102t-125 37q-84 0 -137.5 -46t-71.5 -133l-112 -528h-19l112 527q20 96 78.5 146.5t150.5 50.5q87 0 137 -41
t50 -114q0 -70 -51.5 -118t-136.5 -60z" />
    <glyph glyph-name="agrave" unicode="&#xe0;" horiz-adv-x="578" 
d="M281 776l85 -150h-18l-89 150h22zM500 16h16l-3 -16h-15q-56 0 -73.5 29t-3.5 95l1 6q-70 -142 -232 -142q-75 0 -115.5 35t-40.5 93q0 135 188 161l132 18q61 9 86.5 30.5t34.5 63.5q14 61 -27 91.5t-125 30.5q-88 0 -134 -35.5t-65 -109.5l-18 1q39 161 220 161
q84 0 127 -28.5t43 -77.5q0 -18 -3 -33l-56 -268q-12 -57 2 -81t61 -24zM195 4q171 0 238 181l30 145q-26 -40 -108 -50l-130 -19q-173 -24 -173 -144q0 -52 36.5 -82.5t106.5 -30.5z" />
    <glyph glyph-name="aacute" unicode="&#xe1;" horiz-adv-x="578" 
d="M411 776h23l-121 -150h-20zM500 16h16l-3 -16h-15q-56 0 -73.5 29t-3.5 95l1 6q-70 -142 -232 -142q-75 0 -115.5 35t-40.5 93q0 135 188 161l132 18q61 9 86.5 30.5t34.5 63.5q14 61 -27 91.5t-125 30.5q-88 0 -134 -35.5t-65 -109.5l-18 1q39 161 220 161
q84 0 127 -28.5t43 -77.5q0 -18 -3 -33l-56 -268q-12 -57 2 -81t61 -24zM195 4q171 0 238 181l30 145q-26 -40 -108 -50l-130 -19q-173 -24 -173 -144q0 -52 36.5 -82.5t106.5 -30.5z" />
    <glyph glyph-name="acircumflex" unicode="&#xe2;" horiz-adv-x="578" 
d="M482 614l-96 147l-159 -147h-22l173 162h18l105 -162h-19zM500 16h16l-3 -16h-15q-56 0 -73.5 29t-3.5 95l1 6q-70 -142 -232 -142q-75 0 -115.5 35t-40.5 93q0 135 188 161l132 18q61 9 86.5 30.5t34.5 63.5q14 61 -27 91.5t-125 30.5q-88 0 -134 -35.5t-65 -109.5
l-18 1q39 161 220 161q84 0 127 -28.5t43 -77.5q0 -18 -3 -33l-56 -268q-12 -57 2 -81t61 -24zM195 4q171 0 238 181l30 145q-26 -40 -108 -50l-130 -19q-173 -24 -173 -144q0 -52 36.5 -82.5t106.5 -30.5z" />
    <glyph glyph-name="atilde" unicode="&#xe3;" horiz-adv-x="578" 
d="M294 766q-68 0 -104 -135h-17q39 151 124 151q57 0 79 -67q22 -68 73 -68q34 0 58.5 31.5t44.5 103.5h17q-39 -151 -123 -151q-32 0 -52 21t-28 46.5t-26 46.5t-46 21zM493 389l-56 -268q-12 -57 2 -81t61 -24h16l-3 -16h-15q-56 0 -73.5 29t-3.5 95l1 6
q-70 -142 -232 -142q-75 0 -115.5 35t-40.5 93q0 135 188 161l132 18q61 9 86.5 30.5t34.5 63.5q14 61 -27 91.5t-125 30.5q-88 0 -134 -35.5t-65 -109.5l-18 1q39 161 220 161q84 0 127 -28.5t43 -77.5q0 -18 -3 -33zM195 4q171 0 238 181l30 145q-26 -40 -108 -50
l-130 -19q-173 -24 -173 -144q0 -52 36.5 -82.5t106.5 -30.5z" />
    <glyph glyph-name="adieresis" unicode="&#xe4;" horiz-adv-x="578" 
d="M278 712h18l-10 -48h-18zM452 712h18l-10 -48h-18zM500 16h16l-3 -16h-15q-56 0 -73.5 29t-3.5 95l1 6q-70 -142 -232 -142q-75 0 -115.5 35t-40.5 93q0 135 188 161l132 18q61 9 86.5 30.5t34.5 63.5q14 61 -27 91.5t-125 30.5q-88 0 -134 -35.5t-65 -109.5l-18 1
q39 161 220 161q84 0 127 -28.5t43 -77.5q0 -18 -3 -33l-56 -268q-12 -57 2 -81t61 -24zM195 4q171 0 238 181l30 145q-26 -40 -108 -50l-130 -19q-173 -24 -173 -144q0 -52 36.5 -82.5t106.5 -30.5z" />
    <glyph glyph-name="aring" unicode="&#xe5;" horiz-adv-x="578" 
d="M451 628q-31 -30 -78 -30t-77 30q-31 30 -31 76q0 47 30.5 77.5t77.5 30.5t77.5 -30.5t30.5 -77.5q0 -46 -30 -76zM373 796q-40 0 -65.5 -25.5t-25.5 -66.5q0 -39 26 -64.5t65 -25.5q40 0 66 24.5t26 65.5t-26 66.5t-66 25.5zM500 16h16l-3 -16h-15q-56 0 -73.5 29
t-3.5 95l1 6q-70 -142 -232 -142q-75 0 -115.5 35t-40.5 93q0 135 188 161l132 18q61 9 86.5 30.5t34.5 63.5q14 61 -27 91.5t-125 30.5q-88 0 -134 -35.5t-65 -109.5l-18 1q39 161 220 161q84 0 127 -28.5t43 -77.5q0 -18 -3 -33l-56 -268q-12 -57 2 -81t61 -24zM195 4
q171 0 238 181l30 145q-26 -40 -108 -50l-130 -19q-173 -24 -173 -144q0 -52 36.5 -82.5t106.5 -30.5z" />
    <glyph glyph-name="ae" unicode="&#xe6;" horiz-adv-x="958" 
d="M469 259v-1l-4 -16q-5 -32 -5 -62q0 -82 44 -128.5t124 -46.5t135 42q55 40 85 96l18 -1q-27 -59 -91 -107q-64 -47 -149 -47q-84 0 -131.5 47t-50.5 131q-33 -85 -101 -131.5t-157 -46.5q-71 0 -110.5 37.5t-39.5 94.5q0 77 58.5 120t154.5 43h208l18 87q4 17 4 36
q0 105 -150 105q-81 0 -127 -32.5t-70 -100.5h-18q46 150 219 150q80 0 122 -30.5t42 -87.5q0 -15 -3 -33q39 72 101 111.5t139 39.5q85 0 132 -48.5t47 -130.5q0 -25 -12 -82h-430l-2 -7v-1zM731 511q-92 0 -161 -61.5t-96 -166.5h413q8 37 8 62q0 77 -42.5 121.5
t-121.5 44.5zM188 4q95 0 163 54t91 157l11 52h-209q-89 0 -139.5 -37.5t-50.5 -108.5q0 -50 35.5 -83.5t98.5 -33.5z" />
    <glyph glyph-name="ccedilla" unicode="&#xe7;" horiz-adv-x="547" 
d="M331 511q-98 0 -163.5 -63.5t-87.5 -180.5q-7 -32 -7 -68q0 -89 46 -141.5t122 -52.5q80 0 134.5 43.5t81.5 121.5h18q-28 -86 -87.5 -134t-147.5 -48h-4l-52 -63h32q37 0 57 -16.5t20 -44.5q0 -41 -33 -62t-90 -21h-39l3 15h36q105 0 105 67q0 46 -62 46h-42l-8 13
l56 67q-75 8 -119.5 64.5t-44.5 145.5q0 37 7 71q24 124 94.5 191t174.5 67q91 0 135 -50q42 -50 42 -119h-18q0 60 -38 107q-38 45 -121 45z" />
    <glyph glyph-name="egrave" unicode="&#xe8;" horiz-adv-x="573" 
d="M287 776l85 -150h-18l-89 150h22zM515 267h-435q-7 -32 -7 -69q0 -88 48 -140.5t127 -52.5q87 0 143 47q55 46 78 105l17 -1q-22 -63 -84 -116q-61 -52 -154 -52q-87 0 -140 57.5t-53 153.5q0 38 8 76q26 117 100 185t175 68q87 0 137 -50t50 -134q0 -38 -10 -77z
M338 511q-91 0 -161 -62q-68 -61 -94 -166h418q7 35 7 60q0 77 -45.5 122.5t-124.5 45.5z" />
    <glyph glyph-name="eacute" unicode="&#xe9;" horiz-adv-x="573" 
d="M417 776h23l-121 -150h-20zM515 267h-435q-7 -32 -7 -69q0 -88 48 -140.5t127 -52.5q87 0 143 47q55 46 78 105l17 -1q-22 -63 -84 -116q-61 -52 -154 -52q-87 0 -140 57.5t-53 153.5q0 38 8 76q26 117 100 185t175 68q87 0 137 -50t50 -134q0 -38 -10 -77zM338 511
q-91 0 -161 -62q-68 -61 -94 -166h418q7 35 7 60q0 77 -45.5 122.5t-124.5 45.5z" />
    <glyph glyph-name="ecircumflex" unicode="&#xea;" horiz-adv-x="573" 
d="M488 614l-96 147l-159 -147h-22l173 162h18l105 -162h-19zM515 267h-435q-7 -32 -7 -69q0 -88 48 -140.5t127 -52.5q87 0 143 47q55 46 78 105l17 -1q-22 -63 -84 -116q-61 -52 -154 -52q-87 0 -140 57.5t-53 153.5q0 38 8 76q26 117 100 185t175 68q87 0 137 -50
t50 -134q0 -38 -10 -77zM338 511q-91 0 -161 -62q-68 -61 -94 -166h418q7 35 7 60q0 77 -45.5 122.5t-124.5 45.5z" />
    <glyph glyph-name="edieresis" unicode="&#xeb;" horiz-adv-x="573" 
d="M284 712h18l-10 -48h-18zM458 712h18l-10 -48h-18zM515 267h-435q-7 -32 -7 -69q0 -88 48 -140.5t127 -52.5q87 0 143 47q55 46 78 105l17 -1q-22 -63 -84 -116q-61 -52 -154 -52q-87 0 -140 57.5t-53 153.5q0 38 8 76q26 117 100 185t175 68q87 0 137 -50t50 -134
q0 -38 -10 -77zM338 511q-91 0 -161 -62q-68 -61 -94 -166h418q7 35 7 60q0 77 -45.5 122.5t-124.5 45.5z" />
    <glyph glyph-name="igrave" unicode="&#xec;" horiz-adv-x="205" 
d="M191 626h-18l-89 150h22zM57 0h-18l110 516h18z" />
    <glyph glyph-name="iacute" unicode="&#xed;" horiz-adv-x="205" 
d="M138 626h-20l118 150h23zM57 0h-18l110 516h18z" />
    <glyph glyph-name="icircumflex" unicode="&#xee;" horiz-adv-x="205" 
d="M51 614h-22l173 162h18l105 -162h-19l-96 147zM57 0h-18l110 516h18z" />
    <glyph glyph-name="idieresis" unicode="&#xef;" horiz-adv-x="205" 
d="M112 664h-18l10 48h18zM285 664h-18l10 48h18zM57 0h-17l109 516h18z" />
    <glyph glyph-name="eth" unicode="&#xf0;" horiz-adv-x="564" 
d="M542 721l-150 -95q122 -116 122 -275q0 -149 -76 -253q-76 -105 -204 -105q-84 0 -135.5 49.5t-51.5 129.5q0 116 78 200q77 83 191 83q70 0 118.5 -33.5t60.5 -94.5q1 5 1 23q0 155 -120 266l-135 -87l-7 13l131 84q-48 44 -126 85l10 14q79 -42 132 -89l152 98z
M485 255l3 10l2 11q-4 78 -49.5 120t-126.5 42q-107 0 -178 -77q-71 -79 -71 -188q0 -72 46.5 -117.5t123.5 -45.5q95 0 160 64t90 181z" />
    <glyph glyph-name="ntilde" unicode="&#xf1;" horiz-adv-x="582" 
d="M571 782h17q-39 -151 -123 -151q-32 0 -52 21t-28 46.5t-26 46.5t-46 21q-68 0 -104 -135h-17q39 151 124 151q57 0 79 -67q22 -68 73 -68q34 0 58.5 31.5t44.5 103.5zM362 528q71 0 109.5 -36.5t38.5 -103.5q0 -22 -6 -54l-71 -334h-18l71 334q6 29 6 53q0 61 -34 92.5
t-98 31.5q-86 0 -150 -54.5t-90 -159.5l-63 -297h-18l110 516h18l-30 -137q74 149 225 149z" />
    <glyph glyph-name="ograve" unicode="&#xf2;" horiz-adv-x="591" 
d="M384 626h-18l-89 150h22zM251 -12q-90 0 -143 57t-53 153q0 39 7 73q23 119 99 188q75 69 180 69q90 0 143 -56.5t53 -151.5q0 -29 -8 -74q-22 -120 -96.5 -189t-181.5 -69zM251 5q99 0 168.5 65t91.5 179q8 45 8 71q0 89 -48.5 140t-130.5 51q-96 0 -167 -65
q-70 -66 -93 -179q-7 -32 -7 -69q0 -89 48.5 -141t129.5 -52z" />
    <glyph glyph-name="oacute" unicode="&#xf3;" horiz-adv-x="591" 
d="M331 626h-20l118 150h23zM251 -12q-90 0 -143 57t-53 153q0 39 7 73q23 119 99 188q75 69 180 69q90 0 143 -56.5t53 -151.5q0 -29 -8 -74q-22 -120 -96.5 -189t-181.5 -69zM251 5q99 0 168.5 65t91.5 179q8 45 8 71q0 89 -48.5 140t-130.5 51q-96 0 -167 -65
q-70 -66 -93 -179q-7 -32 -7 -69q0 -89 48.5 -141t129.5 -52z" />
    <glyph glyph-name="ocircumflex" unicode="&#xf4;" horiz-adv-x="591" 
d="M245 614h-22l173 162h18l105 -162h-19l-96 147zM251 -12q-90 0 -143 57t-53 153q0 39 7 73q23 119 99 188q75 69 180 69q90 0 143 -56.5t53 -151.5q0 -29 -8 -74q-22 -120 -96.5 -189t-181.5 -69zM251 5q99 0 168.5 65t91.5 179q8 45 8 71q0 89 -48.5 140t-130.5 51
q-96 0 -167 -65q-70 -66 -93 -179q-7 -32 -7 -69q0 -89 48.5 -141t129.5 -52z" />
    <glyph glyph-name="otilde" unicode="&#xf5;" horiz-adv-x="591" 
d="M207 631h-17q39 151 124 151q57 0 79 -67q22 -68 73 -68q34 0 58.5 31.5t44.5 103.5h17q-39 -151 -123 -151q-32 0 -52 21t-28 46.5t-26 46.5t-46 21q-68 0 -104 -135zM251 -12q-90 0 -143 57t-53 153q0 39 7 73q23 119 99 188q75 69 180 69q90 0 143 -56.5t53 -151.5
q0 -29 -8 -74q-22 -120 -96.5 -189t-181.5 -69zM251 5q99 0 168.5 65t91.5 179q8 45 8 71q0 89 -48.5 140t-130.5 51q-96 0 -167 -65q-70 -66 -93 -179q-7 -32 -7 -69q0 -89 48.5 -141t129.5 -52z" />
    <glyph glyph-name="odieresis" unicode="&#xf6;" horiz-adv-x="591" 
d="M304 664h-18l10 48h18zM478 664h-18l10 48h18zM251 -12q-90 0 -143 57t-53 153q0 39 7 73q23 119 99 188q75 69 180 69q90 0 143 -56.5t53 -151.5q0 -29 -8 -74q-22 -120 -96.5 -189t-181.5 -69zM251 5q99 0 168.5 65t91.5 179q8 45 8 71q0 89 -48.5 140t-130.5 51
q-96 0 -167 -65q-70 -66 -93 -179q-7 -32 -7 -69q0 -89 48.5 -141t129.5 -52z" />
    <glyph glyph-name="divide" unicode="&#xf7;" horiz-adv-x="640" 
d="M350 452h-60v50h60v-50zM587 300h-534v18h534v-18zM350 116h-60v50h60v-50z" />
    <glyph glyph-name="oslash" unicode="&#xf8;" horiz-adv-x="591" 
d="M566 528l11 -10l-73 -72q33 -52 33 -126q0 -29 -8 -74q-22 -120 -96.5 -189t-181.5 -69q-97 0 -149 64l-67 -65l-11 10l69 67q-38 53 -38 134q0 39 7 73q23 119 99 188q75 69 180 69q101 0 154 -69zM73 198q0 -72 33 -121l376 369q-48 65 -142 65q-97 0 -167 -65
t-93 -179q-7 -32 -7 -69zM519 320q0 67 -28 113l-376 -368q48 -60 136 -60q99 0 168 65t92 179q8 45 8 71z" />
    <glyph glyph-name="ugrave" unicode="&#xf9;" horiz-adv-x="582" 
d="M284 776l85 -150h-18l-89 150h22zM462 219l63 297h18l-110 -516h-18l30 137q-74 -149 -225 -149q-71 0 -109.5 36.5t-38.5 103.5q0 22 6 54l71 334h18l-71 -334q-6 -29 -6 -53q0 -61 34 -92.5t98 -31.5q86 0 150 54.5t90 159.5z" />
    <glyph glyph-name="uacute" unicode="&#xfa;" horiz-adv-x="582" 
d="M414 776h23l-121 -150h-20zM462 219l63 297h18l-110 -516h-18l30 137q-74 -149 -225 -149q-71 0 -109.5 36.5t-38.5 103.5q0 22 6 54l71 334h18l-71 -334q-6 -29 -6 -53q0 -61 34 -92.5t98 -31.5q86 0 150 54.5t90 159.5z" />
    <glyph glyph-name="ucircumflex" unicode="&#xfb;" horiz-adv-x="582" 
d="M485 614l-96 147l-159 -147h-22l173 162h18l105 -162h-19zM462 219l63 297h18l-110 -516h-18l30 137q-74 -149 -225 -149q-71 0 -109.5 36.5t-38.5 103.5q0 22 6 54l71 334h18l-71 -334q-6 -29 -6 -53q0 -61 34 -92.5t98 -31.5q86 0 150 54.5t90 159.5z" />
    <glyph glyph-name="udieresis" unicode="&#xfc;" horiz-adv-x="582" 
d="M281 712h18l-10 -48h-18zM455 712h18l-10 -48h-18zM462 219l63 297h18l-110 -516h-18l30 137q-74 -149 -225 -149q-71 0 -109.5 36.5t-38.5 103.5q0 22 6 54l71 334h18l-71 -334q-6 -29 -6 -53q0 -61 34 -92.5t98 -31.5q86 0 150 54.5t90 159.5z" />
    <glyph glyph-name="yacute" unicode="&#xfd;" horiz-adv-x="545" 
d="M391 776h23l-121 -150h-20zM206 -4l315 520h20l-387 -635q-29 -50 -59 -68q-32 -17 -87 -17h-31l4 17h26q52 0 79.5 16t54.5 60l53 88l-111 539h19l101 -498z" />
    <glyph glyph-name="thorn" unicode="&#xfe;" horiz-adv-x="599" 
d="M365 528q84 0 131.5 -54.5t47.5 -148.5q0 -137 -73 -237t-193 -100q-80 0 -129.5 45t-57.5 121l-76 -358h-18l194 916h18l-72 -343q34 72 94.5 115.5t133.5 43.5zM279 5q73 0 131.5 47t88.5 120.5t27 152.5q0 87 -43.5 136.5t-120.5 49.5q-110 0 -184 -101
q-74 -103 -74 -227q0 -82 47 -130t128 -48z" />
    <glyph glyph-name="ydieresis" unicode="&#xff;" horiz-adv-x="545" 
d="M258 712h18l-10 -48h-18zM432 712h18l-10 -48h-18zM206 -4l315 520h20l-387 -635q-29 -50 -59 -68q-32 -17 -87 -17h-31l4 17h26q52 0 79.5 16t54.5 60l53 88l-111 539h19l101 -498z" />
    <glyph glyph-name="Amacron" unicode="&#x100;" horiz-adv-x="717" 
d="M343 859l3 16h286l-3 -16h-286zM-15 0l463 717h15l159 -717h-19l-53 240h-390l-155 -240h-20zM442 677l-270 -419h374l-91 417l-3 18z" />
    <glyph glyph-name="amacron" unicode="&#x101;" horiz-adv-x="578" 
d="M224 679h286l-3 -16h-286zM500 16h16l-3 -16h-15q-56 0 -73.5 29t-3.5 95l1 6q-70 -142 -232 -142q-75 0 -115.5 35t-40.5 93q0 135 188 161l132 18q61 9 86.5 30.5t34.5 63.5q14 61 -27 91.5t-125 30.5q-88 0 -134 -35.5t-65 -109.5l-18 1q39 161 220 161
q84 0 127 -28.5t43 -77.5q0 -18 -3 -33l-56 -268q-12 -57 2 -81t61 -24zM195 4q171 0 238 181l30 145q-26 -40 -108 -50l-130 -19q-173 -24 -173 -144q0 -52 36.5 -82.5t106.5 -30.5z" />
    <glyph glyph-name="Abreve" unicode="&#x102;" horiz-adv-x="717" 
d="M480 816q-138 0 -138 98q0 14 3 31h16q-3 -15 -3 -29q0 -84 122 -84q135 0 167 113h16q-35 -129 -183 -129zM-15 0l463 717h15l159 -717h-19l-53 240h-390l-155 -240h-20zM442 677l-270 -419h374l-91 417l-3 18z" />
    <glyph glyph-name="abreve" unicode="&#x103;" horiz-adv-x="578" 
d="M358 620q-136 0 -136 99q0 13 3 30h15q-2 -26 -2 -29q0 -84 121 -84q137 0 166 113h16q-35 -129 -183 -129zM493 389l-56 -268q-12 -57 2 -81t61 -24h16l-3 -16h-15q-56 0 -73.5 29t-3.5 95l1 6q-70 -142 -232 -142q-75 0 -115.5 35t-40.5 93q0 135 188 161l132 18
q61 9 86.5 30.5t34.5 63.5q14 61 -27 91.5t-125 30.5q-88 0 -134 -35.5t-65 -109.5l-18 1q39 161 220 161q84 0 127 -28.5t43 -77.5q0 -18 -3 -33zM195 4q171 0 238 181l30 145q-26 -40 -108 -50l-130 -19q-173 -24 -173 -144q0 -52 36.5 -82.5t106.5 -30.5z" />
    <glyph glyph-name="Aogonek" unicode="&#x104;" horiz-adv-x="717" 
d="M455 -129q0 -25 19 -40.5t52 -15.5h38l-3 -16h-37q-41 0 -64 19t-23 52q0 39 31 61q22 17 27 19q3 1 8 4t14 7.5t16 8.5l69 35l-52 235h-390l-155 -240h-20l463 717h15l159 -717l-83 -42q-35 -18 -57 -34q-27 -19 -27 -53zM442 677l-270 -419h374l-91 417l-3 18z" />
    <glyph glyph-name="aogonek" unicode="&#x105;" horiz-adv-x="578" 
d="M513 0l-84 -42q-38 -19 -57 -34q-26 -19 -26 -53q0 -25 19 -40.5t52 -15.5h38l-3 -16h-37q-41 0 -64 19t-23 52q0 39 31 61q22 17 27 19q3 1 8 4t14 7.5t16 8.5l61 30q-47 4 -62 33.5t-2 90.5l1 6q-70 -142 -232 -142q-75 0 -115.5 35t-40.5 93q0 135 188 161l132 18
q61 9 86.5 30.5t34.5 63.5q14 61 -27 91.5t-125 30.5q-88 0 -134 -35.5t-65 -109.5l-18 1q39 161 220 161q84 0 127 -28.5t43 -77.5q0 -18 -3 -33l-56 -268q-12 -57 2 -81t61 -24h16zM195 4q171 0 238 181l30 145q-26 -40 -108 -50l-130 -19q-85 -11 -129 -48.5t-44 -95.5
q0 -52 36.5 -82.5t106.5 -30.5z" />
    <glyph glyph-name="Cacute" unicode="&#x106;" horiz-adv-x="745" 
d="M453 823h-20l118 150h23zM358 -12q-121 0 -190 79t-69 206q0 44 11 101q35 165 134 257q99 93 239 93q114 0 182 -62t68 -166h-18q-1 98 -63.5 154.5t-170.5 56.5q-133 0 -226 -87.5t-126 -243.5q-12 -56 -12 -103q0 -120 65 -194t178 -74q119 0 204 78q76 70 101 157h18
q-31 -110 -121 -182q-88 -70 -204 -70z" />
    <glyph glyph-name="cacute" unicode="&#x107;" horiz-adv-x="547" 
d="M321 626h-20l118 150h23zM240 -12q-83 0 -134 57.5t-51 153.5q0 37 7 71q24 124 94.5 191t174.5 67q91 0 135 -50q42 -50 42 -119h-18q0 60 -38 107q-38 45 -121 45q-98 0 -163.5 -63.5t-87.5 -180.5q-7 -32 -7 -68q0 -89 46 -141.5t122 -52.5q80 0 134.5 43.5
t81.5 121.5h18q-28 -86 -87.5 -134t-147.5 -48z" />
    <glyph glyph-name="Ccircumflex" unicode="&#x108;" horiz-adv-x="745" 
d="M367 811h-22l173 162h18l105 -162h-19l-96 147zM358 -12q-121 0 -190 79t-69 206q0 44 11 101q35 165 134 257q99 93 239 93q114 0 182 -62t68 -166h-18q-1 98 -63.5 154.5t-170.5 56.5q-133 0 -226 -87.5t-126 -243.5q-12 -56 -12 -103q0 -120 65 -194t178 -74
q119 0 204 78q76 70 101 157h18q-31 -110 -121 -182q-88 -70 -204 -70z" />
    <glyph glyph-name="ccircumflex" unicode="&#x109;" horiz-adv-x="547" 
d="M235 614h-22l173 162h18l105 -162h-19l-96 147zM240 -12q-83 0 -134 57.5t-51 153.5q0 37 7 71q24 124 94.5 191t174.5 67q91 0 135 -50q42 -50 42 -119h-18q0 60 -38 107q-38 45 -121 45q-98 0 -163.5 -63.5t-87.5 -180.5q-7 -32 -7 -68q0 -89 46 -141.5t122 -52.5
q80 0 134.5 43.5t81.5 121.5h18q-28 -86 -87.5 -134t-147.5 -48z" />
    <glyph glyph-name="Cdotaccent" unicode="&#x10a;" horiz-adv-x="745" 
d="M512 860h-18l11 49h18zM358 -12q-121 0 -190 79t-69 206q0 44 11 101q35 165 134 257q99 93 239 93q114 0 182 -62t68 -166h-18q-1 98 -63.5 154.5t-170.5 56.5q-133 0 -226 -87.5t-126 -243.5q-12 -56 -12 -103q0 -120 65 -194t178 -74q119 0 204 78q76 70 101 157h18
q-31 -110 -121 -182q-88 -70 -204 -70z" />
    <glyph glyph-name="cdotaccent" unicode="&#x10b;" horiz-adv-x="547" 
d="M380 663h-18l11 49h18zM240 -12q-83 0 -134 57.5t-51 153.5q0 37 7 71q24 124 94.5 191t174.5 67q91 0 135 -50q42 -50 42 -119h-18q0 60 -38 107q-38 45 -121 45q-98 0 -163.5 -63.5t-87.5 -180.5q-7 -32 -7 -68q0 -89 46 -141.5t122 -52.5q80 0 134.5 43.5t81.5 121.5
h18q-28 -86 -87.5 -134t-147.5 -48z" />
    <glyph glyph-name="Ccaron" unicode="&#x10c;" horiz-adv-x="745" 
d="M494 809h-19l-105 162h20l96 -147l158 147h23zM358 -12q-121 0 -190 79t-69 206q0 44 11 101q35 165 134 257q99 93 239 93q114 0 182 -62t68 -166h-18q-1 98 -63.5 154.5t-170.5 56.5q-133 0 -226 -87.5t-126 -243.5q-12 -56 -12 -103q0 -120 65 -194t178 -74
q119 0 204 78q76 70 101 157h18q-31 -110 -121 -182q-88 -70 -204 -70z" />
    <glyph glyph-name="ccaron" unicode="&#x10d;" horiz-adv-x="547" 
d="M362 612h-18l-106 162h20l96 -147l159 147h22zM240 -12q-83 0 -134 57.5t-51 153.5q0 37 7 71q24 124 94.5 191t174.5 67q91 0 135 -50q42 -50 42 -119h-18q0 60 -38 107q-38 45 -121 45q-98 0 -163.5 -63.5t-87.5 -180.5q-7 -32 -7 -68q0 -89 46 -141.5t122 -52.5
q80 0 134.5 43.5t81.5 121.5h18q-28 -86 -87.5 -134t-147.5 -48z" />
    <glyph glyph-name="Dcaron" unicode="&#x10e;" horiz-adv-x="741" 
d="M652 970l-173 -162h-19l-105 162h20l96 -147l158 147h23zM210 712h221q130 0 197.5 -66t67.5 -188q0 -44 -11 -105q-34 -169 -135.5 -261t-265.5 -92h-226zM667 356q11 61 11 103q0 113 -63 174.5t-186 61.5h-205l-144 -678h204q157 0 254.5 88.5t128.5 250.5z" />
    <glyph glyph-name="dcaron" unicode="&#x10f;" horiz-adv-x="717" 
d="M508 358l75 354h18l-152 -712h-17l34 157q-32 -75 -94 -122t-138 -47q-84 0 -133 55t-49 148q0 29 8 72q23 122 93 194q71 71 167 71q81 0 130.5 -44.5t57.5 -125.5zM684 514l110 198h20l-111 -198h-19zM236 5q89 0 156.5 67.5t93.5 185.5q9 39 9 75q0 81 -47 129.5
t-127 48.5q-89 0 -157 -68q-66 -68 -86 -182q-7 -41 -7 -70q0 -87 43.5 -136.5t121.5 -49.5z" />
    <glyph glyph-name="Dcroat" unicode="&#x110;" horiz-adv-x="822" 
d="M291 712h221q130 0 197.5 -66t67.5 -188q0 -44 -11 -105q-34 -169 -135.5 -261t-265.5 -92h-226l76 355l-172 -1l3 17h172zM748 356q11 61 11 103q0 113 -63 174.5t-186 61.5h-205l-69 -324h219l-3 -17l-219 1l-72 -338h204q156 0 253 88.5t130 250.5z" />
    <glyph glyph-name="dslash" unicode="&#x111;" horiz-adv-x="730" 
d="M585 637h135l-4 -16h-134l-133 -621h-17l34 157q-32 -75 -94 -122t-138 -47q-84 0 -133 55t-49 148q0 29 8 72q23 122 93 194q71 71 167 71q81 0 130.5 -44.5t57.5 -125.5l56 263h-188l4 16h187l16 75h18zM236 5q89 0 156.5 67.5t93.5 185.5q9 39 9 75q0 81 -47 129.5
t-127 48.5q-89 0 -157 -68q-66 -68 -86 -182q-7 -41 -7 -70q0 -87 43.5 -136.5t121.5 -49.5z" />
    <glyph glyph-name="Emacron" unicode="&#x112;" horiz-adv-x="674" 
d="M345 875h286l-3 -16h-286zM677 712l-4 -17h-449l-66 -313h420l-3 -17h-421l-74 -348h468l-4 -17h-486l152 712h467z" />
    <glyph glyph-name="emacron" unicode="&#x113;" horiz-adv-x="573" 
d="M230 679h286l-3 -16h-286zM515 267h-435q-7 -32 -7 -69q0 -88 48 -140.5t127 -52.5q87 0 143 47q55 46 78 105l17 -1q-22 -63 -84 -116q-61 -52 -154 -52q-87 0 -140 57.5t-53 153.5q0 38 8 76q26 117 100 185t175 68q87 0 137 -50t50 -134q0 -38 -10 -77zM338 511
q-91 0 -161 -62q-68 -61 -94 -166h418q7 35 7 60q0 77 -45.5 122.5t-124.5 45.5z" />
    <glyph glyph-name="Ebreve" unicode="&#x114;" horiz-adv-x="674" 
d="M479 816q-138 0 -138 98q0 14 3 31h16q-3 -15 -3 -29q0 -84 122 -84q135 0 167 113h16q-34 -129 -183 -129zM677 712l-4 -17h-449l-66 -313h420l-3 -17h-421l-74 -348h468l-4 -17h-486l152 712h467z" />
    <glyph glyph-name="ebreve" unicode="&#x115;" horiz-adv-x="573" 
d="M363 620q-136 0 -136 99q0 13 3 30h15q-2 -26 -2 -29q0 -84 121 -84q137 0 166 113h16q-34 -129 -183 -129zM338 528q87 0 137 -50t50 -134q0 -38 -10 -77h-435q-7 -32 -7 -69q0 -88 48 -140.5t127 -52.5q87 0 143 47q55 46 78 105l17 -1q-22 -63 -84 -116
q-61 -52 -154 -52q-87 0 -140 57.5t-53 153.5q0 38 8 76q26 117 100 185t175 68zM83 283h418q7 35 7 60q0 77 -45.5 122.5t-124.5 45.5q-91 0 -161 -62q-68 -61 -94 -166z" />
    <glyph glyph-name="Edotaccent" unicode="&#x116;" horiz-adv-x="674" 
d="M486 908h18l-11 -49h-18zM677 712l-4 -17h-449l-66 -313h420l-3 -17h-421l-74 -348h468l-4 -17h-486l152 712h467z" />
    <glyph glyph-name="edotaccent" unicode="&#x117;" horiz-adv-x="573" 
d="M371 712h18l-11 -49h-18zM515 267h-435q-7 -32 -7 -69q0 -88 48 -140.5t127 -52.5q87 0 143 47q55 46 78 105l17 -1q-22 -63 -84 -116q-61 -52 -154 -52q-87 0 -140 57.5t-53 153.5q0 38 8 76q26 117 100 185t175 68q87 0 137 -50t50 -134q0 -38 -10 -77zM338 511
q-91 0 -161 -62q-68 -61 -94 -166h418q7 35 7 60q0 77 -45.5 122.5t-124.5 45.5z" />
    <glyph glyph-name="Eogonek" unicode="&#x118;" horiz-adv-x="674" 
d="M677 712l-4 -17h-449l-66 -313h420l-3 -17h-421l-74 -348h468l-4 -17l-83 -42q-35 -18 -57 -34q-27 -19 -27 -53q0 -25 19 -40.5t52 -15.5h38l-3 -16h-37q-41 0 -64 19t-23 52q0 39 31 61q22 17 27 19q3 1 8 4t14 7.5t16 8.5l60 30h-457l152 712h467z" />
    <glyph glyph-name="eogonek" unicode="&#x119;" horiz-adv-x="573" 
d="M515 267h-435q-7 -32 -7 -69q0 -88 48 -140.5t127 -52.5q87 0 143 47q55 46 78 105l17 -1q-15 -45 -51.5 -86t-86.5 -62l-79 -40q-35 -17 -57 -34q-27 -19 -27 -53q0 -25 19 -40.5t52 -15.5h38l-3 -16h-37q-41 0 -64 19t-23 52q0 39 31 61q22 16 27 19q3 1 8 4t14 7.5
t16 8.5l21 10q-32 -2 -36 -2q-87 0 -140 57.5t-53 153.5q0 38 8 76q26 117 100 185t175 68q87 0 137 -50t50 -134q0 -38 -10 -77zM338 511q-91 0 -161 -62q-68 -61 -94 -166h418q7 35 7 60q0 77 -45.5 122.5t-124.5 45.5z" />
    <glyph glyph-name="Ecaron" unicode="&#x11a;" horiz-adv-x="674" 
d="M648 970l-173 -162h-19l-105 162h20l96 -147l158 147h23zM677 712l-4 -17h-449l-66 -313h420l-3 -17h-421l-74 -348h468l-4 -17h-486l152 712h467z" />
    <glyph glyph-name="ecaron" unicode="&#x11b;" horiz-adv-x="573" 
d="M533 774l-173 -162h-18l-106 162h20l96 -147l159 147h22zM338 528q87 0 137 -50t50 -134q0 -38 -10 -77h-435q-7 -32 -7 -69q0 -88 48 -140.5t127 -52.5q87 0 143 47q55 46 78 105l17 -1q-22 -63 -84 -116q-61 -52 -154 -52q-87 0 -140 57.5t-53 153.5q0 38 8 76
q26 117 100 185t175 68zM83 283h418q7 35 7 60q0 77 -45.5 122.5t-124.5 45.5q-91 0 -161 -62q-68 -61 -94 -166z" />
    <glyph glyph-name="Gcircumflex" unicode="&#x11c;" horiz-adv-x="831" 
d="M633 811l-96 147l-159 -147h-22l173 162h18l105 -162h-19zM494 707q-139 0 -237 -92q-98 -94 -131 -252q-11 -57 -11 -101q0 -120 65.5 -188.5t183.5 -68.5q122 0 217 77q94 76 127 212l8 38h-282l4 18h299l-74 -350h-16l38 187q-47 -95 -132 -147t-190 -52
q-125 0 -196 75q-70 74 -70 200q0 46 11 104q34 164 137 261q102 96 249 96q123 0 193 -60.5t70 -167.5h-18q0 99 -65.5 155t-179.5 56z" />
    <glyph glyph-name="gcircumflex" unicode="&#x11d;" horiz-adv-x="599" 
d="M509 614l-96 147l-159 -147h-22l173 162h18l105 -162h-19zM508 353l35 163h17l-111 -524q-44 -197 -247 -197q-54 0 -93 14.5t-57.5 37.5t-26.5 44t-8 40h18q1 -34 32 -73q36 -46 138 -46q190 0 227 181l35 162q-34 -75 -95.5 -121t-134.5 -46q-87 0 -135 54t-48 148
q-3 135 75 237t197 101q81 0 128.5 -47.5t53.5 -127.5zM239 5q72 0 134 50q61 50 92 123q31 72 31 153q0 84 -46.5 132t-122.5 48q-117 0 -186 -95q-69 -96 -69 -227q0 -86 43.5 -135t123.5 -49z" />
    <glyph glyph-name="Gbreve" unicode="&#x11e;" horiz-adv-x="831" 
d="M509 817q-138 0 -138 98q0 15 3 31h16q-3 -15 -3 -29q0 -84 122 -84q135 0 167 113h16q-34 -129 -183 -129zM494 707q-139 0 -237 -92q-98 -94 -131 -252q-11 -57 -11 -101q0 -120 65.5 -188.5t183.5 -68.5q122 0 217 77q94 76 127 212l8 38h-282l4 18h299l-74 -350h-16
l38 187q-47 -95 -132 -147t-190 -52q-125 0 -196 75q-70 74 -70 200q0 46 11 104q34 164 137 261q102 96 249 96q123 0 193 -60.5t70 -167.5h-18q0 99 -65.5 155t-179.5 56z" />
    <glyph glyph-name="gbreve" unicode="&#x11f;" horiz-adv-x="599" 
d="M385 620q-136 0 -136 99q0 13 3 30h15q-2 -26 -2 -29q0 -84 121 -84q137 0 166 113h16q-34 -129 -183 -129zM508 353l35 163h17l-111 -524q-44 -197 -247 -197q-54 0 -93 14.5t-57.5 37.5t-26.5 44t-8 40h18q1 -34 32 -73q36 -46 138 -46q190 0 227 181l35 162
q-34 -75 -95.5 -121t-134.5 -46q-87 0 -135 54t-48 148q-3 135 75 237t197 101q81 0 128.5 -47.5t53.5 -127.5zM239 5q72 0 134 50q61 50 92 123q31 72 31 153q0 84 -46.5 132t-122.5 48q-117 0 -186 -95q-69 -96 -69 -227q0 -86 43.5 -135t123.5 -49z" />
    <glyph glyph-name="Gdotaccent" unicode="&#x120;" horiz-adv-x="831" 
d="M516 909h18l-11 -49h-18zM494 707q-139 0 -237 -92q-98 -94 -131 -252q-11 -57 -11 -101q0 -120 65.5 -188.5t183.5 -68.5q122 0 217 77q94 76 127 212l8 38h-282l4 18h299l-74 -350h-16l38 187q-47 -95 -132 -147t-190 -52q-125 0 -196 75q-70 74 -70 200q0 46 11 104
q34 164 137 261q102 96 249 96q123 0 193 -60.5t70 -167.5h-18q0 99 -65.5 155t-179.5 56z" />
    <glyph glyph-name="gdotaccent" unicode="&#x121;" horiz-adv-x="599" 
d="M392 712h18l-11 -49h-18zM508 353l35 163h17l-111 -524q-44 -197 -247 -197q-54 0 -93 14.5t-57.5 37.5t-26.5 44t-8 40h18q1 -34 32 -73q36 -46 138 -46q190 0 227 181l35 162q-34 -75 -95.5 -121t-134.5 -46q-87 0 -135 54t-48 148q-3 135 75 237t197 101
q81 0 128.5 -47.5t53.5 -127.5zM239 5q72 0 134 50q61 50 92 123q31 72 31 153q0 84 -46.5 132t-122.5 48q-117 0 -186 -95q-69 -96 -69 -227q0 -86 43.5 -135t123.5 -49z" />
    <glyph glyph-name="uni0122" unicode="&#x122;" horiz-adv-x="831" 
d="M494 707q-139 0 -237 -92q-98 -94 -131 -252q-11 -57 -11 -101q0 -120 65.5 -188.5t183.5 -68.5q122 0 217 77q94 76 127 212l8 38h-282l4 18h299l-74 -350h-16l38 187q-47 -95 -132 -147t-190 -52q-125 0 -196 75q-70 74 -70 200q0 46 11 104q34 164 137 261
q102 96 249 96q123 0 193 -60.5t70 -167.5h-18q0 99 -65.5 155t-179.5 56zM347 -121l-31 -3l9 39h43l-21 -101q-7 -30 -33 -30h-17l3 14h14q10 0 14 4.5t7 16.5z" />
    <glyph glyph-name="uni0123" unicode="&#x123;" horiz-adv-x="599" 
d="M390 700l31 3l-9 -39h-43l19 91q6 30 33 30h17l-3 -14h-14q-17 0 -21 -22zM508 353l35 163h17l-111 -524q-44 -197 -247 -197q-54 0 -93 14.5t-57.5 37.5t-26.5 44t-8 40h18q1 -34 32 -73q36 -46 138 -46q190 0 227 181l35 162q-34 -75 -95.5 -121t-134.5 -46
q-87 0 -135 54t-48 148q-3 135 75 237t197 101q81 0 128.5 -47.5t53.5 -127.5zM239 5q72 0 134 50q61 50 92 123q31 72 31 153q0 84 -46.5 132t-122.5 48q-117 0 -186 -95q-69 -96 -69 -227q0 -86 43.5 -135t123.5 -49z" />
    <glyph glyph-name="Hcircumflex" unicode="&#x124;" horiz-adv-x="752" 
d="M623 810l-96 147l-159 -147h-22l173 162h18l105 -162h-19zM649 388l69 324h18l-152 -712h-18l79 370h-490l-79 -370h-18l152 712h18l-69 -324h490z" />
    <glyph glyph-name="hcircumflex" unicode="&#x125;" horiz-adv-x="582" 
d="M349 810l-96 147l-159 -147h-22l173 162h18l105 -162h-19zM362 528q71 0 109.5 -36.5t38.5 -103.5q0 -24 -6 -54l-71 -334h-18l71 334q6 29 6 53q0 61 -34 92.5t-98 31.5q-86 0 -150 -54.5t-90 -159.5l-63 -297h-18l152 712h18l-70 -330q36 70 93.5 108t129.5 38z" />
    <glyph glyph-name="Hbar" unicode="&#x126;" horiz-adv-x="752" 
d="M685 557l33 155h18l-152 -712h-18l79 368h-490l-79 -368h-18l152 712h18l-33 -155h490zM191 539l-33 -154h490l33 154h-490z" />
    <glyph glyph-name="hbar" unicode="&#x127;" horiz-adv-x="639" 
d="M289 490q58 38 129 38q73 0 111 -37q38 -38 38 -103q0 -24 -6 -54l-71 -334h-18l71 334q6 29 6 53q0 60 -34.5 92t-97.5 32q-86 0 -150 -54.5t-90 -159.5l-63 -297h-18l133 621h-142l3 16h142l16 75h18l-16 -75h187l-3 -16h-187l-51 -239q34 69 93 108z" />
    <glyph glyph-name="Itilde" unicode="&#x128;" horiz-adv-x="244" 
d="M76 827h-17q39 151 124 151q57 0 79 -67q22 -68 73 -68q34 0 58.5 31.5t44.5 103.5h17q-39 -151 -123 -151q-32 0 -52 21t-28 46.5t-26 46.5t-46 21q-68 0 -104 -135zM76 0h-18l152 712h18z" />
    <glyph glyph-name="itilde" unicode="&#x129;" horiz-adv-x="205" 
d="M14 631h-17q39 151 124 151q57 0 79 -67q22 -68 73 -68q34 0 58.5 31.5t44.5 103.5h17q-39 -151 -123 -151q-32 0 -52 21t-28 46.5t-26 46.5t-46 21q-68 0 -104 -135zM57 0h-18l110 516h18z" />
    <glyph glyph-name="Imacron" unicode="&#x12a;" horiz-adv-x="244" 
d="M393 859h-286l3 16h286zM76 0h-18l152 712h18z" />
    <glyph glyph-name="imacron" unicode="&#x12b;" horiz-adv-x="205" 
d="M332 663h-286l3 16h286zM57 0h-18l110 516h18z" />
    <glyph glyph-name="Ibreve" unicode="&#x12c;" horiz-adv-x="244" 
d="M244 816q-138 0 -138 98q0 14 3 31h16q-3 -15 -3 -29q0 -84 122 -84q135 0 167 113h16q-35 -129 -183 -129zM76 0h-18l152 712h18z" />
    <glyph glyph-name="ibreve" unicode="&#x12d;" horiz-adv-x="205" 
d="M182 620q-136 0 -136 99q0 13 3 30h15q-2 -26 -2 -29q0 -84 121 -84q137 0 166 113h16q-35 -129 -183 -129zM57 0h-18l110 516h18z" />
    <glyph glyph-name="Iogonek" unicode="&#x12e;" horiz-adv-x="244" 
d="M76 0l-105 -84q-31 -22 -31 -52q0 -22 18 -35.5t50 -13.5h29l-4 -16h-30q-38 0 -59.5 17.5t-21.5 45.5q0 34 35 63l102 80l151 707h18z" />
    <glyph glyph-name="iogonek" unicode="&#x12f;" horiz-adv-x="205" 
d="M180 664l11 48h18l-11 -48h-18zM-62 -75l102 80l109 511h18l-110 -516l-106 -84q-30 -22 -30 -52q0 -22 18 -35.5t50 -13.5h28l-3 -16h-30q-38 0 -59.5 17.5t-21.5 45.5q0 36 35 63z" />
    <glyph glyph-name="Idot" unicode="&#x130;" horiz-adv-x="244" 
d="M261 824h-37l13 60h37zM76 0h-18l152 712h18z" />
    <glyph glyph-name="dotlessi" unicode="&#x131;" horiz-adv-x="205" 
d="M57 0h-18l110 516h18z" />
    <glyph glyph-name="IJ" unicode="&#x132;" horiz-adv-x="807" 
d="M76 0h-18l152 712h18zM450 -12q-82 0 -130 38t-48 109q0 23 17 102h18q-16 -65 -16 -102q0 -64 42 -97t117 -33q172 0 211 186l111 521h18l-111 -521q-44 -203 -229 -203z" />
    <glyph glyph-name="ij" unicode="&#x133;" horiz-adv-x="410" 
d="M198 664h-18l11 48h18zM403 664h-18l10 48h18zM57 0h-18l110 516h18zM102 -204h-29l3 17h26q101 0 124 104l128 599h18l-129 -601q-26 -119 -141 -119z" />
    <glyph glyph-name="Jcircumflex" unicode="&#x134;" horiz-adv-x="572" 
d="M441 810h-22l173 162h18l105 -162h-19l-96 147zM216 -12q-82 0 -130 38t-48 109q0 23 17 102h18q-16 -65 -16 -102q0 -64 42 -97t117 -33q172 0 211 186l111 521h18l-111 -521q-44 -203 -229 -203z" />
    <glyph glyph-name="jcircumflex" unicode="&#x135;" horiz-adv-x="205" 
d="M51 614h-22l173 162h18l105 -162h-19l-96 147zM-103 -204h-29l3 17h26q101 0 124 104l128 599h18l-129 -601q-26 -119 -141 -119z" />
    <glyph glyph-name="uni0136" unicode="&#x136;" horiz-adv-x="706" 
d="M724 712h28l-380 -295l240 -417h-22l-233 406l-233 -180l-48 -226h-18l152 712h18l-99 -462zM314 -120l-31 -4l8 40h44l-21 -101q-8 -30 -33 -30h-17l3 14h13q10 0 14.5 4.5t6.5 16.5z" />
    <glyph glyph-name="uni0137" unicode="&#x137;" horiz-adv-x="553" 
d="M530 516h26l-272 -205l176 -311h-20l-170 301l-178 -135l-35 -166h-18l152 712h18l-112 -523zM241 -120l-31 -4l8 40h44l-21 -101q-7 -30 -33 -30h-17l3 14h13q10 0 14.5 4.5t6.5 16.5z" />
    <glyph glyph-name="kgreenlandic" unicode="&#x138;" horiz-adv-x="553" 
d="M530 516h26l-272 -205l176 -311h-20l-170 301l-178 -135l-35 -166h-18l110 516h18l-70 -327z" />
    <glyph glyph-name="Lacute" unicode="&#x139;" horiz-adv-x="618" 
d="M308 972h23l-121 -150h-20zM228 712l-148 -695h433l-4 -17h-451l152 712h18z" />
    <glyph glyph-name="lacute" unicode="&#x13a;" horiz-adv-x="206" 
d="M180 822h-20l118 150h23zM57 0h-18l152 712h18z" />
    <glyph glyph-name="uni013B" unicode="&#x13b;" horiz-adv-x="618" 
d="M228 712l-148 -695h433l-4 -17h-451l152 712h18zM272 -120l-31 -4l8 40h44l-21 -101q-8 -30 -33 -30h-17l3 14h13q10 0 14.5 4.5t6.5 16.5z" />
    <glyph glyph-name="uni013C" unicode="&#x13c;" horiz-adv-x="206" 
d="M57 0h-18l152 712h18zM2 -215h-17l3 14h13q10 0 14.5 4.5t6.5 16.5l13 60l-31 -4l8 40h44l-21 -101q-7 -30 -33 -30z" />
    <glyph glyph-name="Lcaron" unicode="&#x13d;" horiz-adv-x="618" 
d="M210 712h18l-148 -695h433l-4 -17h-451zM502 712h20l-112 -198h-18z" />
    <glyph glyph-name="lcaron" unicode="&#x13e;" horiz-adv-x="313" 
d="M57 0h-18l152 712h18zM298 514h-18l110 198h20z" />
    <glyph glyph-name="Ldot" unicode="&#x13f;" horiz-adv-x="618" 
d="M228 712l-148 -695h433l-4 -17h-451l152 712h18zM361 394h57l-10 -47h-57z" />
    <glyph glyph-name="ldot" unicode="&#x140;" horiz-adv-x="269" 
d="M57 0h-18l152 712h18zM255 332h-58l10 47h58z" />
    <glyph glyph-name="Lslash" unicode="&#x141;" horiz-adv-x="720" 
d="M249 331l-67 -314h433l-4 -17h-451l69 323l-212 -85l8 19l207 82l80 373h18l-78 -365l350 142l-8 -20z" />
    <glyph glyph-name="lslash" unicode="&#x142;" horiz-adv-x="441" 
d="M257 390l170 80l-4 -18l-170 -81l-79 -371h-18l77 362l-167 -80l3 19l168 80l71 331h18z" />
    <glyph glyph-name="Nacute" unicode="&#x143;" horiz-adv-x="753" 
d="M552 972h23l-121 -150h-20zM574 27l146 685h17l-152 -712h-16l-347 686l-146 -686h-18l152 712h16z" />
    <glyph glyph-name="nacute" unicode="&#x144;" horiz-adv-x="582" 
d="M430 776h23l-121 -150h-20zM362 528q71 0 109.5 -36.5t38.5 -103.5q0 -22 -6 -54l-71 -334h-18l71 334q6 29 6 53q0 61 -34 92.5t-98 31.5q-86 0 -150 -54.5t-90 -159.5l-63 -297h-18l110 516h18l-30 -137q74 149 225 149z" />
    <glyph glyph-name="uni0145" unicode="&#x145;" horiz-adv-x="753" 
d="M574 27l146 685h17l-152 -712h-16l-347 686l-146 -686h-18l152 712h16zM309 -120l-31 -4l8 40h44l-21 -101q-7 -30 -33 -30h-17l3 14h13q10 0 14.5 4.5t6.5 16.5z" />
    <glyph glyph-name="uni0146" unicode="&#x146;" horiz-adv-x="582" 
d="M362 528q71 0 109.5 -36.5t38.5 -103.5q0 -22 -6 -54l-71 -334h-18l71 334q6 29 6 53q0 61 -34 92.5t-98 31.5q-86 0 -150 -54.5t-90 -159.5l-63 -297h-18l110 516h18l-30 -137q74 149 225 149zM232 -120l-31 -4l8 40h44l-21 -101q-8 -30 -33 -30h-17l3 14h13
q10 0 14.5 4.5t6.5 16.5z" />
    <glyph glyph-name="Ncaron" unicode="&#x147;" horiz-adv-x="753" 
d="M668 970l-173 -162h-19l-105 162h20l96 -147l158 147h23zM574 27l146 685h17l-152 -712h-16l-347 686l-146 -686h-18l152 712h16z" />
    <glyph glyph-name="ncaron" unicode="&#x148;" horiz-adv-x="582" 
d="M546 774l-173 -162h-18l-106 162h20l96 -147l159 147h22zM362 528q71 0 109.5 -36.5t38.5 -103.5q0 -22 -6 -54l-71 -334h-18l71 334q6 29 6 53q0 61 -34 92.5t-98 31.5q-86 0 -150 -54.5t-90 -159.5l-63 -297h-18l110 516h18l-30 -137q74 149 225 149z" />
    <glyph glyph-name="napostrophe" unicode="&#x149;" horiz-adv-x="742" 
d="M134 669l10 47h58l-28 -138q-12 -55 -64 -55h-7l4 16h7q20 0 30 10.5t15 36.5l18 88zM522 528q71 0 109.5 -36.5t38.5 -103.5q0 -22 -6 -54l-71 -334h-18l71 334q6 28 6 53q0 61 -34 92.5t-98 31.5q-86 0 -150 -55.5t-90 -161.5l-63 -294h-18l110 516h18l-30 -137
q74 149 225 149z" />
    <glyph glyph-name="Eng" unicode="&#x14a;" horiz-adv-x="754" 
d="M720 712h17l-113 -534l-55 -259q-27 -123 -146 -123h-26l3 17h27q101 0 124 104l18 86l-347 679l-145 -682h-18l151 712h17l349 -681z" />
    <glyph glyph-name="eng" unicode="&#x14b;" horiz-adv-x="582" 
d="M362 528q71 0 109.5 -36.5t38.5 -103.5q0 -22 -6 -54l-88 -416q-26 -122 -147 -122h-25l4 17h26q100 0 123 104l89 417q6 29 6 53q0 61 -34 92.5t-98 31.5q-86 0 -150 -54.5t-90 -159.5l-63 -297h-18l110 516h18l-30 -137q74 149 225 149z" />
    <glyph glyph-name="Omacron" unicode="&#x14c;" horiz-adv-x="825" 
d="M661 860h-286l3 16h286zM365 -12q-125 0 -195 78q-71 77 -71 205q0 51 10 98q32 160 138 257q106 98 253 98q128 0 198 -76t70 -205q0 -53 -10 -100q-32 -160 -136 -257q-107 -98 -257 -98zM367 5q141 0 242 95q99 93 131 247q10 47 10 96q0 123 -66.5 193.5t-185.5 70.5
q-140 0 -240 -94q-101 -95 -131 -248q-10 -44 -10 -93q0 -121 67 -194t183 -73z" />
    <glyph glyph-name="omacron" unicode="&#x14d;" horiz-adv-x="591" 
d="M525 663h-286l3 16h286zM251 -12q-90 0 -143 57t-53 153q0 39 7 73q23 119 99 188q75 69 180 69q90 0 143 -56.5t53 -151.5q0 -29 -8 -74q-22 -120 -96.5 -189t-181.5 -69zM251 5q99 0 168.5 65t91.5 179q8 45 8 71q0 89 -48.5 140t-130.5 51q-96 0 -167 -65
q-70 -66 -93 -179q-7 -32 -7 -69q0 -89 48.5 -141t129.5 -52z" />
    <glyph glyph-name="Obreve" unicode="&#x14e;" horiz-adv-x="825" 
d="M512 817q-138 0 -138 98q0 15 3 31h16q-3 -15 -3 -29q0 -84 122 -84q135 0 167 113h16q-35 -129 -183 -129zM365 -12q-125 0 -195 78q-71 77 -71 205q0 51 10 98q32 160 138 257q106 98 253 98q128 0 198 -76t70 -205q0 -53 -10 -100q-32 -160 -136 -257
q-107 -98 -257 -98zM367 5q141 0 242 95q99 93 131 247q10 47 10 96q0 123 -66.5 193.5t-185.5 70.5q-140 0 -240 -94q-101 -95 -131 -248q-10 -44 -10 -93q0 -121 67 -194t183 -73z" />
    <glyph glyph-name="obreve" unicode="&#x14f;" horiz-adv-x="591" 
d="M375 620q-136 0 -136 99q0 13 3 30h15q-2 -26 -2 -29q0 -84 121 -84q137 0 166 113h16q-34 -129 -183 -129zM251 -12q-90 0 -143 57t-53 153q0 39 7 73q23 119 99 188q75 69 180 69q90 0 143 -56.5t53 -151.5q0 -29 -8 -74q-22 -120 -96.5 -189t-181.5 -69zM251 5
q99 0 168.5 65t91.5 179q8 45 8 71q0 89 -48.5 140t-130.5 51q-96 0 -167 -65q-70 -66 -93 -179q-7 -32 -7 -69q0 -89 48.5 -141t129.5 -52z" />
    <glyph glyph-name="Ohungarumlaut" unicode="&#x150;" horiz-adv-x="825" 
d="M411 809h-19l110 164h21zM586 809h-19l127 164h21zM365 -12q-125 0 -195 78q-71 77 -71 205q0 51 10 98q32 160 138 257q106 98 253 98q128 0 198 -76t70 -205q0 -53 -10 -100q-32 -160 -136 -257q-107 -98 -257 -98zM367 5q141 0 242 95q99 93 131 247q10 47 10 96
q0 123 -66.5 193.5t-185.5 70.5q-140 0 -240 -94q-101 -95 -131 -248q-10 -44 -10 -93q0 -121 67 -194t183 -73z" />
    <glyph glyph-name="ohungarumlaut" unicode="&#x151;" horiz-adv-x="591" 
d="M275 612h-19l110 164h21zM450 612h-19l127 164h21zM251 -12q-90 0 -143 57t-53 153q0 39 7 73q23 119 99 188q75 69 180 69q90 0 143 -56.5t53 -151.5q0 -29 -8 -74q-22 -120 -96.5 -189t-181.5 -69zM251 5q99 0 168.5 65t91.5 179q8 45 8 71q0 89 -48.5 140t-130.5 51
q-96 0 -167 -65q-70 -66 -93 -179q-7 -32 -7 -69q0 -89 48.5 -141t129.5 -52z" />
    <glyph glyph-name="OE" unicode="&#x152;" horiz-adv-x="1282" 
d="M1286 712l-4 -17h-449l-66 -313h420l-3 -17h-421l-74 -348h468l-4 -17h-486l46 215q-52 -107 -142 -167t-206 -60q-125 0 -195 78q-71 77 -71 205q0 51 10 98q33 160 138 257q106 98 253 98q121 0 190.5 -71t74.5 -195l54 254h467zM367 5q141 0 242 95q99 93 131 247
q10 47 10 96q0 123 -66.5 193.5t-185.5 70.5q-141 0 -239 -94q-101 -95 -132 -248q-10 -44 -10 -93q0 -121 67 -194t183 -73z" />
    <glyph glyph-name="oe" unicode="&#x153;" horiz-adv-x="1023" 
d="M966 267h-433l-3 -18q-6 -33 -6 -68q0 -82 45 -129t125 -47q142 0 218 138l17 -1q-31 -63 -90 -108q-59 -46 -146 -46t-136.5 51t-49.5 139q-38 -87 -107 -138.5t-154 -51.5q-89 0 -140.5 55.5t-51.5 153.5q-4 127 83.5 230t210.5 101q87 0 138.5 -49.5t52.5 -136.5
q36 86 102 136t151 50q86 0 134.5 -49t48.5 -133q0 -34 -9 -79zM246 5q122 0 198 99q76 98 76 231q0 83 -46 129.5t-127 46.5q-79 0 -144 -46.5t-99 -118t-32 -148.5q0 -91 46.5 -142t127.5 -51zM791 511q-95 0 -162 -64t-92 -164h414q6 28 6 64q0 75 -43.5 119.5
t-122.5 44.5z" />
    <glyph glyph-name="Racute" unicode="&#x154;" horiz-adv-x="734" 
d="M512 972h23l-121 -150h-20zM686 566q0 -89 -55 -148t-148 -72q57 -9 83 -38t26 -83q0 -12 -2 -34l-18 -191h-19l19 188q2 26 2 37q0 62 -37 87.5t-124 25.5h-265l-72 -338h-18l152 712h297q86 0 132.5 -38.5t46.5 -107.5zM152 355h275q107 0 174 58q67 57 67 152
q0 62 -42.5 96t-120.5 34h-281z" />
    <glyph glyph-name="racute" unicode="&#x155;" horiz-adv-x="399" 
d="M355 776h23l-121 -150h-20zM345 529q37 0 61 -6l-4 -17q-33 5 -59 5q-79 0 -140 -56.5t-83 -163.5h-1l-61 -291h-18l109 516h17l-27 -131q33 69 87.5 106.5t118.5 37.5z" />
    <glyph glyph-name="uni0156" unicode="&#x156;" horiz-adv-x="734" 
d="M686 566q0 -89 -55 -148t-148 -72q57 -9 83 -38t26 -83q0 -12 -2 -34l-18 -191h-19l19 188q2 26 2 37q0 62 -37 87.5t-124 25.5h-265l-72 -338h-18l152 712h297q86 0 132.5 -38.5t46.5 -107.5zM152 355h275q107 0 174 58q67 57 67 152q0 62 -42.5 96t-120.5 34h-281z
M315 -120l-31 -4l8 40h44l-21 -101q-7 -30 -33 -30h-17l3 14h13q10 0 14.5 4.5t6.5 16.5z" />
    <glyph glyph-name="uni0157" unicode="&#x157;" horiz-adv-x="399" 
d="M345 529q37 0 61 -6l-4 -17q-33 5 -59 5q-79 0 -140 -56.5t-83 -163.5h-1l-61 -291h-18l109 516h17l-27 -131q33 69 87.5 106.5t118.5 37.5zM34 -120l-31 -4l8 40h44l-21 -101q-8 -30 -33 -30h-17l3 14h13q10 0 14.5 4.5t6.5 16.5z" />
    <glyph glyph-name="Rcaron" unicode="&#x158;" horiz-adv-x="734" 
d="M628 970l-173 -162h-19l-105 162h20l96 -147l158 147h23zM686 566q0 -89 -55 -148t-148 -72q57 -9 83 -38t26 -83q0 -12 -2 -34l-18 -191h-19l19 188q2 26 2 37q0 62 -37 87.5t-124 25.5h-265l-72 -338h-18l152 712h297q86 0 132.5 -38.5t46.5 -107.5zM152 355h275
q107 0 174 58q67 57 67 152q0 62 -42.5 96t-120.5 34h-281z" />
    <glyph glyph-name="rcaron" unicode="&#x159;" horiz-adv-x="399" 
d="M471 774l-173 -162h-18l-106 162h20l96 -147l159 147h22zM166 516l-27 -131q33 69 87.5 106.5t118.5 37.5q37 0 61 -6l-4 -17q-33 5 -59 5q-79 0 -140 -56.5t-83 -163.5h-1l-61 -291h-18l109 516h17z" />
    <glyph glyph-name="Sacute" unicode="&#x15a;" horiz-adv-x="672" 
d="M391 823h-20l118 150h23zM299 -12q-118 0 -181 47.5t-63 142.5q0 4 2 30h18q-2 -24 -2 -27q0 -87 59 -131.5t168 -44.5q125 0 198.5 54t73.5 154q0 104 -131 131l-138 28q-150 30 -150 149q0 99 76 151q74 52 193 52q102 0 161.5 -42.5t59.5 -119.5q0 -16 -3 -33h-18
q3 15 3 31q0 70 -55 108.5t-149 38.5q-111 0 -181 -48q-70 -49 -70 -138q0 -103 136 -131l140 -29q143 -29 143 -147q0 -108 -78 -167t-212 -59z" />
    <glyph glyph-name="sacute" unicode="&#x15b;" horiz-adv-x="529" 
d="M298 627h-20l118 150h23zM224 -12q-88 0 -137 38t-49 106h18q0 -61 44.5 -94t125.5 -33q90 0 141.5 37.5t51.5 106.5q0 44 -27.5 68t-89.5 34l-67 11q-66 12 -99.5 39t-33.5 76q0 69 55.5 108t146.5 39q80 0 125.5 -37.5t45.5 -102.5h-18q0 59 -41 91.5t-114 32.5
q-82 0 -132.5 -35t-50.5 -95q0 -44 30 -67t92 -32l67 -11q68 -10 98.5 -38.5t30.5 -79.5q0 -79 -57 -120.5t-156 -41.5z" />
    <glyph glyph-name="Scircumflex" unicode="&#x15c;" horiz-adv-x="672" 
d="M305 811h-22l173 162h18l105 -162h-19l-96 147zM299 -12q-118 0 -181 47.5t-63 142.5q0 4 2 30h18q-2 -24 -2 -27q0 -87 59 -131.5t168 -44.5q125 0 198.5 54t73.5 154q0 104 -131 131l-138 28q-150 30 -150 149q0 99 76 151q74 52 193 52q102 0 161.5 -42.5t59.5 -119.5
q0 -16 -3 -33h-18q3 15 3 31q0 70 -55 108.5t-149 38.5q-111 0 -181 -48q-70 -49 -70 -138q0 -103 136 -131l140 -29q143 -29 143 -147q0 -108 -78 -167t-212 -59z" />
    <glyph glyph-name="scircumflex" unicode="&#x15d;" horiz-adv-x="529" 
d="M212 615h-22l173 162h18l105 -162h-19l-96 147zM224 -12q-88 0 -137 38t-49 106h18q0 -61 44.5 -94t125.5 -33q90 0 141.5 37.5t51.5 106.5q0 44 -27.5 68t-89.5 34l-67 11q-66 12 -99.5 39t-33.5 76q0 69 55.5 108t146.5 39q80 0 125.5 -37.5t45.5 -102.5h-18
q0 59 -41 91.5t-114 32.5q-82 0 -132.5 -35t-50.5 -95q0 -44 30 -67t92 -32l67 -11q68 -10 98.5 -38.5t30.5 -79.5q0 -79 -57 -120.5t-156 -41.5z" />
    <glyph glyph-name="Scedilla" unicode="&#x15e;" horiz-adv-x="672" 
d="M422 724q102 0 161.5 -42.5t59.5 -119.5q0 -16 -3 -33h-18q3 15 3 31q0 70 -55 108.5t-149 38.5q-111 0 -181 -48q-70 -49 -70 -138q0 -103 136 -131l140 -29q143 -29 143 -147q0 -107 -77 -166t-210 -60l-52 -63h33q37 0 56.5 -16.5t19.5 -44.5q0 -41 -33 -62t-90 -21
h-38l2 15h36q106 0 106 67q0 46 -63 46h-41l-8 13l54 66q-111 3 -170 50.5t-59 139.5q0 4 2 30h18q-2 -24 -2 -27q0 -87 59 -131.5t168 -44.5q125 0 198.5 54t73.5 154q0 104 -131 131l-138 28q-150 30 -150 149q0 99 76 151q74 52 193 52z" />
    <glyph glyph-name="scedilla" unicode="&#x15f;" horiz-adv-x="529" 
d="M302 508q-82 0 -132.5 -35t-50.5 -95q0 -44 30 -67t92 -32l67 -11q68 -10 98.5 -38.5t30.5 -79.5q0 -79 -57 -120.5t-156 -41.5h-7l-52 -63h33q37 0 56.5 -16.5t19.5 -44.5q0 -41 -33 -62t-90 -21h-38l2 15h36q106 0 106 67q0 46 -63 46h-41l-8 13l55 67q-77 5 -119.5 42
t-42.5 101h18q0 -61 44.5 -94t125.5 -33q90 0 141.5 37.5t51.5 106.5q0 44 -27.5 68t-89.5 34l-67 11q-66 12 -99.5 39t-33.5 76q0 69 55.5 108t146.5 39q80 0 125.5 -37.5t45.5 -102.5h-18q0 59 -41 91.5t-114 32.5z" />
    <glyph glyph-name="Scaron" unicode="&#x160;" horiz-adv-x="672" 
d="M432 809h-19l-105 162h20l96 -147l158 147h23zM299 -12q-118 0 -181 47.5t-63 142.5q0 4 2 30h18q-2 -24 -2 -27q0 -87 59 -131.5t168 -44.5q125 0 198.5 54t73.5 154q0 104 -131 131l-138 28q-150 30 -150 149q0 99 76 151q74 52 193 52q102 0 161.5 -42.5t59.5 -119.5
q0 -16 -3 -33h-18q3 15 3 31q0 70 -55 108.5t-149 38.5q-111 0 -181 -48q-70 -49 -70 -138q0 -103 136 -131l140 -29q143 -29 143 -147q0 -108 -78 -167t-212 -59z" />
    <glyph glyph-name="scaron" unicode="&#x161;" horiz-adv-x="529" 
d="M339 613h-18l-106 162h20l96 -147l159 147h22zM224 -12q-88 0 -137 38t-49 106h18q0 -61 44.5 -94t125.5 -33q90 0 141.5 37.5t51.5 106.5q0 44 -27.5 68t-89.5 34l-67 11q-66 12 -99.5 39t-33.5 76q0 69 55.5 108t146.5 39q80 0 125.5 -37.5t45.5 -102.5h-18
q0 59 -41 91.5t-114 32.5q-82 0 -132.5 -35t-50.5 -95q0 -44 30 -67t92 -32l67 -11q68 -10 98.5 -38.5t30.5 -79.5q0 -79 -57 -120.5t-156 -41.5z" />
    <glyph glyph-name="uni0162" unicode="&#x162;" horiz-adv-x="641" 
d="M684 712l-4 -17h-263l-148 -695h1l-57 -69h33q37 0 56.5 -16.5t19.5 -44.5q0 -41 -33 -62t-90 -21h-38l2 15h36q106 0 106 67q0 46 -63 46h-41l-8 13l59 72h-1l148 695h-262l4 17h543z" />
    <glyph glyph-name="uni0163" unicode="&#x163;" horiz-adv-x="331" 
d="M197 500l-2 -10l-82 -382q-4 -23 -4 -37q0 -54 69 -54h59l-3 -17h-59q-5 0 -27 2l-52 -65h32q37 0 56.5 -16t19.5 -44q0 -41 -32.5 -62t-90.5 -21h-38l3 15h36q105 0 105 67q0 46 -62 46h-42l-8 12l58 72q-43 13 -43 62q0 14 5 39l82 383l2 10h-105l2 16h106l2 8l29 139
h18l-29 -139l-2 -8h144l-3 -16h-144z" />
    <glyph glyph-name="Tcaron" unicode="&#x164;" horiz-adv-x="641" 
d="M607 970l-173 -162h-19l-105 162h20l96 -147l158 147h23zM141 712h543l-4 -17h-263l-148 -695h-18l148 695h-262z" />
    <glyph glyph-name="tcaron" unicode="&#x165;" horiz-adv-x="331" 
d="M434 821h20l-112 -198h-18zM231 663l-29 -139l-2 -8h144l-3 -16h-144l-2 -10l-82 -382q-4 -23 -4 -37q0 -54 69 -54h59l-3 -17h-59q-85 0 -85 68q0 14 5 39l82 383l2 10h-105l2 16h106l2 8l29 139h18z" />
    <glyph glyph-name="Tbar" unicode="&#x166;" horiz-adv-x="641" 
d="M684 712l-4 -17h-263l-69 -323l254 1l-3 -18l-254 1l-76 -356h-18l76 356l-234 -1l3 18l234 -1l69 323h-262l4 17h543z" />
    <glyph glyph-name="tbar" unicode="&#x167;" horiz-adv-x="351" 
d="M363 516l-3 -16h-144l-46 -219h145l-4 -16h-145l-33 -157q-5 -25 -5 -37q0 -54 70 -54h58l-3 -17h-59q-84 0 -84 68q0 14 5 39l34 158h-107l4 16h106l46 219h-105l3 16h106l31 147h18l-31 -147h143z" />
    <glyph glyph-name="Utilde" unicode="&#x168;" horiz-adv-x="750" 
d="M310 827h-17q39 151 124 151q57 0 79 -67q22 -68 73 -68q34 0 58.5 31.5t44.5 103.5h17q-39 -151 -123 -151q-32 0 -52 21t-28 46.5t-26 46.5t-46 21q-68 0 -104 -135zM331 -12q-108 0 -169 44.5t-61 135.5q0 32 9 72l100 472h18l-101 -476q-8 -40 -8 -66
q0 -84 56 -124.5t156 -40.5q235 0 284 231l101 476h18l-101 -476q-53 -248 -302 -248z" />
    <glyph glyph-name="utilde" unicode="&#x169;" horiz-adv-x="582" 
d="M297 766q-68 0 -104 -135h-17q39 151 124 151q57 0 79 -67q22 -68 73 -68q34 0 58.5 31.5t44.5 103.5h17q-39 -151 -123 -151q-32 0 -52 21t-28 46.5t-26 46.5t-46 21zM462 219l63 297h18l-110 -516h-18l30 137q-74 -149 -225 -149q-71 0 -109.5 36.5t-38.5 103.5
q0 22 6 54l71 334h18l-71 -334q-6 -29 -6 -53q0 -61 34 -92.5t98 -31.5q86 0 150 54.5t90 159.5z" />
    <glyph glyph-name="Umacron" unicode="&#x16a;" horiz-adv-x="750" 
d="M627 859h-286l3 16h286zM331 -12q-108 0 -169 44.5t-61 135.5q0 32 9 72l100 472h18l-101 -476q-8 -40 -8 -66q0 -84 56 -124.5t156 -40.5q235 0 284 231l101 476h18l-101 -476q-53 -248 -302 -248z" />
    <glyph glyph-name="umacron" unicode="&#x16b;" horiz-adv-x="582" 
d="M227 679h286l-3 -16h-286zM462 219l63 297h18l-110 -516h-18l30 137q-74 -149 -225 -149q-71 0 -109.5 36.5t-38.5 103.5q0 22 6 54l71 334h18l-71 -334q-6 -29 -6 -53q0 -61 34 -92.5t98 -31.5q86 0 150 54.5t90 159.5z" />
    <glyph glyph-name="Ubreve" unicode="&#x16c;" horiz-adv-x="750" 
d="M478 816q-138 0 -138 98q0 14 3 31h16q-3 -15 -3 -29q0 -84 122 -84q135 0 167 113h16q-35 -129 -183 -129zM331 -12q-108 0 -169 44.5t-61 135.5q0 32 9 72l100 472h18l-101 -476q-8 -40 -8 -66q0 -84 56 -124.5t156 -40.5q235 0 284 231l101 476h18l-101 -476
q-53 -248 -302 -248z" />
    <glyph glyph-name="ubreve" unicode="&#x16d;" horiz-adv-x="582" 
d="M361 620q-136 0 -136 99q0 13 3 30h15q-2 -26 -2 -29q0 -84 121 -84q137 0 166 113h16q-34 -129 -183 -129zM462 219l63 297h18l-110 -516h-18l30 137q-74 -149 -225 -149q-71 0 -109.5 36.5t-38.5 103.5q0 22 6 54l71 334h18l-71 -334q-6 -29 -6 -53q0 -61 34 -92.5
t98 -31.5q86 0 150 54.5t90 159.5z" />
    <glyph glyph-name="Uring" unicode="&#x16e;" horiz-adv-x="750" 
d="M493 794q-47 0 -78 30t-31 76q0 47 31 77.5t78 30.5t77 -30.5t30 -77.5q0 -46 -30.5 -76t-76.5 -30zM493 810q39 0 65 25.5t26 64.5q0 41 -25.5 66.5t-65.5 25.5t-66 -25.5t-26 -66.5t26 -65.5t66 -24.5zM331 -12q-108 0 -169 44.5t-61 135.5q0 32 9 72l100 472h18
l-101 -476q-8 -40 -8 -66q0 -84 56 -124.5t156 -40.5q235 0 284 231l101 476h18l-101 -476q-53 -248 -302 -248z" />
    <glyph glyph-name="uring" unicode="&#x16f;" horiz-adv-x="582" 
d="M455 628q-31 -30 -78 -30t-77 30q-31 30 -31 76q0 47 30.5 77.5t77.5 30.5t77.5 -30.5t30.5 -77.5q0 -46 -30 -76zM377 796q-40 0 -65.5 -25.5t-25.5 -66.5q0 -39 26 -64.5t65 -25.5q40 0 66 24.5t26 65.5t-26 66.5t-66 25.5zM462 219l63 297h18l-110 -516h-18l30 137
q-74 -149 -225 -149q-71 0 -109.5 36.5t-38.5 103.5q0 22 6 54l71 334h18l-71 -334q-6 -29 -6 -53q0 -61 34 -92.5t98 -31.5q86 0 150 54.5t90 159.5z" />
    <glyph glyph-name="Uhungarumlaut" unicode="&#x170;" horiz-adv-x="750" 
d="M377 808h-19l110 164h21zM552 808h-19l127 164h21zM331 -12q-108 0 -169 44.5t-61 135.5q0 32 9 72l100 472h18l-101 -476q-8 -40 -8 -66q0 -84 56 -124.5t156 -40.5q235 0 284 231l101 476h18l-101 -476q-53 -248 -302 -248z" />
    <glyph glyph-name="uhungarumlaut" unicode="&#x171;" horiz-adv-x="582" 
d="M351 776h21l-112 -164h-19zM543 776h21l-129 -164h-19zM462 219l63 297h18l-110 -516h-18l30 137q-74 -149 -225 -149q-71 0 -109.5 36.5t-38.5 103.5q0 22 6 54l71 334h18l-71 -334q-6 -29 -6 -53q0 -61 34 -92.5t98 -31.5q86 0 150 54.5t90 159.5z" />
    <glyph glyph-name="Uogonek" unicode="&#x172;" horiz-adv-x="750" 
d="M615 236l101 476h18l-101 -476q-47 -224 -253 -246l-82 -41q-35 -17 -57 -34q-27 -19 -27 -53q0 -25 19 -40.5t52 -15.5h38l-3 -16h-37q-41 0 -64 19t-23 52q0 39 31 61q22 17 27 19q3 1 8 4t14 7.5t16 8.5l54 27h-15q-108 0 -169 44.5t-61 135.5q0 32 9 72l100 472h18
l-101 -476q-8 -40 -8 -66q0 -84 56 -124.5t156 -40.5q235 0 284 231z" />
    <glyph glyph-name="uogonek" unicode="&#x173;" horiz-adv-x="582" 
d="M433 0l-98 -50q-36 -18 -51 -33.5t-18 -45.5q0 -25 19 -40.5t52 -15.5h38l-3 -16h-37q-41 0 -63.5 19t-22.5 52q0 44 39 69q14 9 42 24l86 43l29 131q-74 -149 -225 -149q-71 0 -109.5 36.5t-38.5 103.5q0 22 6 54l71 334h18l-71 -334q-6 -29 -6 -53q0 -61 34 -92.5
t98 -31.5q86 0 150 54.5t90 159.5l63 297h18z" />
    <glyph glyph-name="Wcircumflex" unicode="&#x174;" horiz-adv-x="936" 
d="M693 810l-96 147l-158 -147h-23l173 162h18l106 -162h-20zM673 124l302 588h19l-368 -718h-15l-56 689l-330 -689h-16l-72 718h18l58 -586l9 -102l330 688h17l48 -588l7 -100z" />
    <glyph glyph-name="wcircumflex" unicode="&#x175;" horiz-adv-x="763" 
d="M570 614l-96 147l-159 -147h-22l173 162h18l105 -162h-19zM512 91l228 425h19l-278 -516h-17l-43 437l-4 58l-28 -58l-229 -437h-17l-60 516h19l48 -425l7 -69l33 69l223 425h17l43 -425l6 -67z" />
    <glyph glyph-name="Ycircumflex" unicode="&#x176;" horiz-adv-x="669" 
d="M581 810l-96 147l-158 -147h-23l173 162h18l106 -162h-20zM714 712h24l-387 -426l-62 -286h-18l62 286l-208 426h20l192 -397l6 -15l12 15z" />
    <glyph glyph-name="ycircumflex" unicode="&#x177;" horiz-adv-x="545" 
d="M462 614l-96 147l-159 -147h-22l173 162h18l105 -162h-19zM206 -4l315 520h20l-387 -635q-29 -50 -59 -68q-32 -17 -87 -17h-31l4 17h26q52 0 79.5 16t54.5 60l53 88l-111 539h19l101 -498z" />
    <glyph glyph-name="Ydieresis" unicode="&#x178;" horiz-adv-x="669" 
d="M354 884h36l-12 -60h-37zM546 884h36l-13 -60h-36zM714 712h24l-387 -426l-62 -286h-18l62 286l-208 426h20l192 -397l6 -15l12 15z" />
    <glyph glyph-name="Zacute" unicode="&#x179;" horiz-adv-x="689" 
d="M520 972h23l-121 -150h-20zM203 712h490l-4 -17l-636 -678h506l-4 -17h-530l4 18l636 677h-466z" />
    <glyph glyph-name="zacute" unicode="&#x17a;" horiz-adv-x="522" 
d="M394 776h23l-121 -150h-20zM126 516h376l-3 -13l-466 -486h379l-4 -17h-404l3 14l465 485h-350z" />
    <glyph glyph-name="Zdotaccent" unicode="&#x17b;" horiz-adv-x="689" 
d="M474 908h18l-11 -49h-18zM203 712h490l-4 -17l-636 -678h506l-4 -17h-530l4 18l636 677h-466z" />
    <glyph glyph-name="zdotaccent" unicode="&#x17c;" horiz-adv-x="522" 
d="M348 712h18l-11 -49h-18zM126 516h376l-3 -13l-466 -486h379l-4 -17h-404l3 14l465 485h-350z" />
    <glyph glyph-name="Zcaron" unicode="&#x17d;" horiz-adv-x="689" 
d="M636 970l-173 -162h-19l-105 162h20l96 -147l158 147h23zM203 712h490l-4 -17l-636 -678h506l-4 -17h-530l4 18l636 677h-466z" />
    <glyph glyph-name="zcaron" unicode="&#x17e;" horiz-adv-x="522" 
d="M510 774l-173 -162h-18l-106 162h20l96 -147l159 147h22zM472 499h-350l4 17h376l-3 -13l-466 -486h379l-4 -17h-404l3 14z" />
    <glyph glyph-name="uni018F" unicode="&#x18f;" horiz-adv-x="824" 
d="M499 724q128 0 198 -76t70 -205q0 -53 -10 -100q-32 -160 -136 -257q-107 -98 -257 -98q-124 0 -195 78q-71 77 -71 205q0 25 5 73h635q1 1 1 3q10 47 10 96q0 123 -66.5 193.5t-185.5 70.5q-96 0 -175.5 -46t-131.5 -130h-21q54 91 140 142t190 51zM366 5q136 0 236 89
q99 90 133 233h-616q-3 -29 -3 -55q0 -121 67 -194t183 -73z" />
    <glyph glyph-name="florin" unicode="&#x192;" horiz-adv-x="640" 
d="M592 712h42l-7 -17h-40q-45 0 -74 -23.5t-53 -80.5l-80 -198h133l-6 -16h-134l-165 -407q-25 -63 -60 -91t-89 -28h-42l7 17h40q45 0 74 23.5t53 80.5l164 405h-128l6 16h129l81 200q26 64 60.5 91.5t88.5 27.5z" />
    <glyph glyph-name="uni01F4" unicode="&#x1f4;" horiz-adv-x="831" 
d="M562 973h23l-121 -150h-20zM494 707q-139 0 -237 -92q-98 -94 -131 -252q-11 -57 -11 -101q0 -120 65.5 -188.5t183.5 -68.5q122 0 217 77q94 76 127 212l8 38h-282l4 18h299l-74 -350h-16l38 187q-47 -95 -132 -147t-190 -52q-125 0 -196 75q-70 74 -70 200q0 46 11 104
q34 164 137 261q102 96 249 96q123 0 193 -60.5t70 -167.5h-18q0 99 -65.5 155t-179.5 56z" />
    <glyph glyph-name="uni01F5" unicode="&#x1f5;" horiz-adv-x="599" 
d="M438 776h23l-121 -150h-20zM508 353l35 163h17l-111 -524q-44 -197 -247 -197q-54 0 -93 14.5t-57.5 37.5t-26.5 44t-8 40h18q1 -34 32 -73q36 -46 138 -46q190 0 227 181l35 162q-34 -75 -95.5 -121t-134.5 -46q-87 0 -135 54t-48 148q-3 135 75 237t197 101
q81 0 128.5 -47.5t53.5 -127.5zM239 5q72 0 134 50q61 50 92 123q31 72 31 153q0 84 -46.5 132t-122.5 48q-117 0 -186 -95q-69 -96 -69 -227q0 -86 43.5 -135t123.5 -49z" />
    <glyph glyph-name="Aringacute" unicode="&#x1fa;" horiz-adv-x="717" 
d="M576 1098h23l-121 -149h-20zM622 0h-19l-53 240h-390l-155 -240h-20l454 703q-39 6 -63.5 35t-24.5 69q0 47 30.5 77.5t77.5 30.5t77.5 -30.5t30.5 -77.5q0 -43 -28 -73t-72 -33zM367 807q0 -39 26.5 -64.5t65.5 -25.5t65.5 25.5t26.5 64.5q0 41 -26 66.5t-66 25.5
t-66 -25.5t-26 -66.5zM442 677l-270 -419h374l-91 417l-2 21z" />
    <glyph glyph-name="aringacute" unicode="&#x1fb;" horiz-adv-x="578" 
d="M474 1014h24l-121 -149h-20zM368 589q-47 0 -78 30.5t-31 76.5t31 76.5t78 30.5q46 0 76.5 -30.5t30.5 -76.5t-30.5 -76.5t-76.5 -30.5zM368 787q-40 0 -66 -25t-26 -66t26 -66t66 -25t65.5 25t25.5 66t-25.5 66t-65.5 25zM500 16h16l-3 -16h-15q-56 0 -73.5 29t-3.5 95
l1 6q-70 -142 -232 -142q-75 0 -115.5 35t-40.5 93q0 135 188 161l132 18q61 9 86.5 30.5t34.5 63.5q14 61 -27 91.5t-125 30.5q-88 0 -134 -35.5t-65 -109.5l-18 1q39 161 220 161q84 0 127 -28.5t43 -77.5q0 -18 -3 -33l-56 -268q-12 -57 2 -81t61 -24zM195 4
q171 0 238 181l30 145q-26 -40 -108 -50l-130 -19q-173 -24 -173 -144q0 -52 36.5 -82.5t106.5 -30.5z" />
    <glyph glyph-name="AEacute" unicode="&#x1fc;" horiz-adv-x="1135" 
d="M888 972h23l-121 -150h-20zM1138 712l-4 -17h-449l-66 -313h420l-3 -17h-421l-74 -348h469l-5 -17h-486l51 239h-358l-206 -239h-21l614 712h539zM606 695l-379 -439h347l93 439h-61z" />
    <glyph glyph-name="aeacute" unicode="&#x1fd;" horiz-adv-x="958" 
d="M614 776h23l-121 -150h-20zM469 259v-1l-4 -16q-5 -32 -5 -62q0 -82 44 -128.5t124 -46.5q75 0 131.5 38.5t88.5 99.5l18 -1q-27 -59 -91 -107q-64 -47 -149 -47q-84 0 -131.5 47t-50.5 131q-33 -85 -101 -131.5t-157 -46.5q-71 0 -110.5 37.5t-39.5 94.5q0 77 58.5 120
t154.5 43h208l18 87q4 17 4 36q0 105 -150 105q-81 0 -127 -32.5t-71 -100.5h-17q46 150 219 150q80 0 122 -30.5t42 -87.5q0 -15 -3 -33q39 72 101 111.5t139 39.5q85 0 132 -48.5t47 -130.5q0 -25 -12 -82h-430l-2 -7v-1zM731 511q-92 0 -161 -61.5t-96 -166.5h413
q8 37 8 62q0 77 -42.5 121.5t-121.5 44.5zM188 4q95 0 163 54t91 157l11 52h-209q-89 0 -139.5 -37.5t-50.5 -108.5q0 -50 35.5 -83.5t98.5 -33.5z" />
    <glyph glyph-name="Oslashacute" unicode="&#x1fe;" horiz-adv-x="825" 
d="M565 973h23l-121 -150h-20zM808 713l10 -10l-95 -88q45 -70 45 -172q0 -53 -10 -100q-32 -160 -136 -257q-107 -98 -257 -98q-142 0 -214 102l-99 -91l-9 10l100 92q-44 71 -44 170q0 51 10 98q32 160 138 257q106 98 253 98q142 0 215 -97zM117 272q0 -93 40 -158
l544 501q-68 92 -203 92q-140 0 -240 -94q-101 -95 -131 -248q-10 -44 -10 -93zM750 443q0 95 -41 160l-545 -501q67 -97 203 -97q141 0 242 95q99 93 131 247q10 47 10 96z" />
    <glyph glyph-name="oslashacute" unicode="&#x1ff;" horiz-adv-x="591" 
d="M429 777h23l-121 -150h-20zM566 528l11 -10l-73 -72q33 -52 33 -126q0 -29 -8 -74q-22 -120 -96.5 -189t-181.5 -69q-97 0 -149 64l-67 -65l-11 10l69 67q-38 53 -38 134q0 39 7 73q23 119 99 188q75 69 180 69q101 0 154 -69zM73 198q0 -72 33 -121l376 369
q-48 65 -142 65q-96 0 -167 -65q-70 -66 -93 -179q-7 -32 -7 -69zM519 320q0 67 -28 113l-376 -368q48 -60 136 -60q99 0 168.5 65t91.5 179q8 45 8 71z" />
    <glyph glyph-name="uni0218" unicode="&#x218;" horiz-adv-x="672" 
d="M299 -12q-118 0 -181 47.5t-63 142.5q0 4 2 30h18q-2 -24 -2 -27q0 -87 59 -131.5t168 -44.5q125 0 198.5 54t73.5 154q0 104 -131 131l-138 28q-150 30 -150 149q0 99 76 151q74 52 193 52q102 0 161.5 -42.5t59.5 -119.5q0 -16 -3 -33h-18q3 15 3 31q0 70 -55 108.5
t-149 38.5q-111 0 -181 -48q-70 -49 -70 -138q0 -103 136 -131l140 -29q143 -29 143 -147q0 -108 -78 -167t-212 -59zM251 -221h-17l3 14h13q10 0 14.5 4.5t6.5 16.5l13 60l-31 -4l8 40h44l-21 -101q-8 -30 -33 -30z" />
    <glyph glyph-name="uni0219" unicode="&#x219;" horiz-adv-x="529" 
d="M224 -12q-88 0 -137 38t-49 106h18q0 -61 44.5 -94t125.5 -33q90 0 141.5 37.5t51.5 106.5q0 44 -27.5 68t-89.5 34l-67 11q-66 12 -99.5 39t-33.5 76q0 69 55.5 108t146.5 39q80 0 125.5 -37.5t45.5 -102.5h-18q0 59 -41 91.5t-114 32.5q-82 0 -132.5 -35t-50.5 -95
q0 -44 30 -67t92 -32l67 -11q68 -10 98.5 -38.5t30.5 -79.5q0 -79 -57 -120.5t-156 -41.5zM167 -215h-17l3 14h13q10 0 14.5 4.5t6.5 16.5l13 60l-31 -4l8 40h44l-21 -101q-8 -30 -33 -30z" />
    <glyph glyph-name="uni021A" unicode="&#x21a;" horiz-adv-x="641" 
d="M141 712h543l-4 -17h-263l-148 -695h-18l148 695h-262zM247 -120l-31 -4l8 40h44l-21 -101q-7 -30 -33 -30h-17l3 14h13q10 0 14.5 4.5t6.5 16.5z" />
    <glyph glyph-name="uni021B" unicode="&#x21b;" horiz-adv-x="331" 
d="M197 500l-2 -10l-82 -382q-4 -23 -4 -37q0 -54 69 -54h59l-3 -17h-59q-85 0 -85 68q0 14 5 39l82 383l2 10h-105l2 16h106l2 8l29 139h18l-29 -139l-2 -8h144l-3 -16h-144zM82 -114l-31 -4l8 40h44l-21 -101q-8 -30 -33 -30h-17l3 14h13q10 0 14.5 4.5t6.5 16.5z" />
    <glyph glyph-name="uni0237" unicode="&#x237;" horiz-adv-x="205" 
d="M-103 -204h-29l3 17h26q101 0 124 104l128 599h18l-129 -601q-26 -119 -141 -119z" />
    <glyph glyph-name="uni0259" unicode="&#x259;" horiz-adv-x="573" 
d="M325 528q87 0 140 -57.5t53 -153.5q0 -38 -8 -76q-26 -117 -99 -184q-75 -69 -176 -69q-87 0 -137 50t-50 134q0 38 10 77h435q7 32 7 69q0 88 -48 140.5t-127 52.5q-87 0 -143 -47q-57 -48 -79 -105l-16 1q22 63 84 116q61 52 154 52zM235 5q92 0 160.5 61.5t93.5 165.5
h-417q-7 -27 -7 -59q0 -77 45.5 -122.5t124.5 -45.5z" />
    <glyph glyph-name="h.sups" unicode="&#x2b0;" horiz-adv-x="482" 
d="M344 720q56 0 86 -27.5t30 -76.5q0 -25 -7 -49l-41 -195h-17l43 199q5 28 5 43q0 42 -26.5 66t-74.5 24q-58 0 -101.5 -34t-63.5 -99l-42 -199h-17l100 470h17l-45 -212q50 90 154 90z" />
    <glyph glyph-name="r.sups" unicode="&#x2b3;" horiz-adv-x="332" 
d="M344 716h37l-3 -16h-36q-125 0 -165 -130l-41 -198h-17l72 340h16l-18 -88q48 92 155 92z" />
    <glyph glyph-name="circumflex" unicode="&#x2c6;" horiz-adv-x="500" 
d="M200 614h-23l173 162h18l106 -162h-20l-96 147z" />
    <glyph glyph-name="caron" unicode="&#x2c7;" horiz-adv-x="500" 
d="M335 612h-19l-105 162h20l96 -147l159 147h22z" />
    <glyph glyph-name="uni02C9" unicode="&#x2c9;" horiz-adv-x="500" 
d="M479 663h-286l3 16h286z" />
    <glyph glyph-name="breve" unicode="&#x2d8;" horiz-adv-x="500" 
d="M330 622q-136 0 -136 99q0 13 3 30h15q-2 -26 -2 -29q0 -84 121 -84q137 0 166 113h16q-35 -129 -183 -129z" />
    <glyph glyph-name="dotaccent" unicode="&#x2d9;" horiz-adv-x="500" 
d="M344 663h-18l11 49h18z" />
    <glyph glyph-name="ring" unicode="&#x2da;" horiz-adv-x="500" 
d="M422 628q-32 -30 -78 -30q-47 0 -77 30q-31 30 -31 76q0 47 30.5 77.5t77.5 30.5t77.5 -30.5t30.5 -77.5q0 -46 -30 -76zM344 614q40 0 66 24.5t26 65.5t-26 66.5t-66 25.5t-65.5 -25.5t-25.5 -66.5q0 -39 26 -64.5t65 -25.5z" />
    <glyph glyph-name="ogonek" unicode="&#x2db;" horiz-adv-x="500" 
d="M214 -201h-38q-41 0 -63.5 19t-22.5 52q0 39 31 61q22 17 27 19l38 20l79 40l9 -10l-83 -42q-38 -19 -57 -34q-26 -19 -26 -53q0 -25 18.5 -40.5t51.5 -15.5h39z" />
    <glyph glyph-name="tilde" unicode="&#x2dc;" horiz-adv-x="500" 
d="M165 634h-17q39 151 124 151q57 0 79 -67q22 -68 73 -68q34 0 58.5 31.5t44.5 103.5h17q-39 -151 -123 -151q-32 0 -52 21t-28 46.5t-26 46.5t-46 21q-68 0 -104 -135z" />
    <glyph glyph-name="hungarumlaut" unicode="&#x2dd;" horiz-adv-x="500" 
d="M226 612h-19l109 164h21zM401 612h-19l127 164h21z" />
    <glyph glyph-name="s.sups" unicode="&#x2e2;" horiz-adv-x="434" 
d="M257 364q-146 0 -152 107l16 1q6 -93 136 -93q68 0 106.5 23.5t38.5 66.5q0 29 -21.5 45t-71.5 22l-74 10q-93 12 -93 75q0 45 40 71t108 26q136 0 143 -96l-16 -2q-6 83 -127 83q-62 0 -97 -21.5t-35 -60.5q0 -49 81 -60l77 -10q102 -13 102 -82q0 -49 -43.5 -77
t-117.5 -28z" />
    <glyph glyph-name="gravecomb" unicode="&#x300;" 
d="M88 626h-18l-89 150h22z" />
    <glyph glyph-name="acutecomb" unicode="&#x301;" 
d="M35 626h-20l118 150h23z" />
    <glyph glyph-name="uni0302" unicode="&#x302;" 
d="M-52 614h-22l173 162h18l105 -162h-19l-96 147z" />
    <glyph glyph-name="tildecomb" unicode="&#x303;" 
d="M-85 634h-17q39 151 124 151q57 0 79 -67q22 -68 73 -68q34 0 58.5 31.5t44.5 103.5h17q-39 -151 -123 -151q-32 0 -52 21t-28 46.5t-26 46.5t-46 21q-68 0 -104 -135z" />
    <glyph glyph-name="uni0304" unicode="&#x304;" 
d="M229 663h-286l3 16h286z" />
    <glyph glyph-name="uni0306" unicode="&#x306;" 
d="M80 622q-136 0 -136 99q0 13 3 30h15q-2 -26 -2 -29q0 -84 121 -84q137 0 166 113h16q-35 -129 -183 -129z" />
    <glyph glyph-name="uni0307" unicode="&#x307;" 
d="M94 663h-18l11 49h18z" />
    <glyph glyph-name="uni0308" unicode="&#x308;" 
d="M8 664h-18l10 48h18zM182 664h-18l10 48h18z" />
    <glyph glyph-name="uni030A" unicode="&#x30a;" 
d="M172 628q-32 -30 -78 -30q-47 0 -77 31q-31 30 -31 76t31 77q30 30 77 30q46 0 78 -30q30 -30 30 -77t-30 -77zM94 614q40 0 66 25t26 66t-26 66t-66 25t-65.5 -25t-25.5 -66t25.5 -66t65.5 -25z" />
    <glyph glyph-name="uni030B" unicode="&#x30b;" 
d="M-21 612h-19l110 164h21zM154 612h-19l127 164h21z" />
    <glyph glyph-name="uni030C" unicode="&#x30c;" 
d="M76 612h-18l-106 162h20l96 -147l159 147h22z" />
    <glyph glyph-name="uni0312" unicode="&#x312;" 
d="M107 664h-43l19 91q6 30 33 30h17l-3 -14h-14q-17 0 -21 -22l-10 -49l31 3z" />
    <glyph glyph-name="uni0313" unicode="&#x313;" 
d="M82 664h-18l4 14h13q10 0 14.5 4.5t6.5 16.5l11 50l-31 -4l8 40h44l-20 -91q-6 -30 -32 -30z" />
    <glyph glyph-name="dotbelowcomb" unicode="&#x323;" 
d="M-73 -173h-37l13 60h37z" />
    <glyph glyph-name="uni0324" unicode="&#x324;" 
d="M-169 -172h-36l12 60h37zM23 -172h-37l13 60h37z" />
    <glyph glyph-name="uni0325" unicode="&#x325;" 
d="M-18 -266q-30 -30 -77 -30t-78 30q-30 30 -30 77t30 77q31 30 78 30t77 -31q31 -30 31 -76t-31 -77zM-95 -280q40 0 65.5 25t25.5 66t-25.5 66t-65.5 25t-66 -25t-26 -66t26 -66t66 -25z" />
    <glyph glyph-name="uni0326" unicode="&#x326;" 
d="M-101 -215h-17l3 14h13q10 0 14.5 4.5t6.5 16.5l13 60l-31 -4l8 39h44l-21 -100q-8 -30 -33 -30z" />
    <glyph glyph-name="uni0327" unicode="&#x327;" 
d="M-116 -213h-38l2 15h36q106 0 106 67q0 46 -63 46h-41l-8 13l59 72h18l-57 -69h33q37 0 56.5 -16.5t19.5 -44.5q0 -41 -33 -62t-90 -21z" />
    <glyph glyph-name="uni0328" unicode="&#x328;" 
d="M-116 -201h-37q-41 0 -64 19t-23 52q0 38 30 61q26 18 28 19l38 20l80 40l9 -10l-83 -42q-35 -17 -58 -34q-26 -20 -26 -53q0 -25 19 -40.5t52 -15.5h38z" />
    <glyph glyph-name="uni032E" unicode="&#x32e;" 
d="M-102 -233q-136 0 -136 99q0 14 3 30h15q-3 -15 -3 -29q0 -84 121 -84q138 0 167 113h16q-35 -129 -183 -129z" />
    <glyph glyph-name="uni0331" unicode="&#x331;" 
d="M54 -163h-286l3 16h286z" />
    <glyph glyph-name="uni0335" unicode="&#x335;" 
d="M157 364h-268l3 16h268z" />
    <glyph glyph-name="uni0337" unicode="&#x337;" 
d="M287 515l-562 -517l-11 11l562 517z" />
    <glyph glyph-name="uni0338" unicode="&#x338;" 
d="M409 702l-766 -704l-11 11l766 704z" />
    <glyph glyph-name="uni0394" unicode="&#x394;" horiz-adv-x="717" 
d="M297 717h15l310 -717h-637zM298 676l-287 -659h585l-285 659l-6 16z" />
    <glyph glyph-name="uni03A9" unicode="&#x3a9;" horiz-adv-x="901" 
d="M388 0h-274v17h238v2q-230 120 -230 361q0 159 87 252t228 93q142 0 228 -92q86 -94 86 -253q0 -239 -227 -361v-2h237v-17h-273v16q245 123 245 364q0 151 -80 240q-81 88 -216 88q-134 0 -215 -88q-82 -88 -82 -240q0 -241 248 -364v-16z" />
    <glyph glyph-name="uni03BC" unicode="&#x3bc;" horiz-adv-x="692" 
d="M167 -204h-18v720h18v-334q0 -85 42 -131t122 -46q90 0 142 59t52 173v279h18v-516h-18l1 137q-44 -149 -196 -149q-124 0 -164 103h-1l2 -175v-120z" />
    <glyph glyph-name="pi" unicode="&#x3c0;" horiz-adv-x="714" 
d="M649 516v-17h-144v-377q0 -58 22.5 -81.5t78.5 -23.5h12v-17h-13q-63 0 -90.5 28.5t-27.5 94.5v376h-268v-499h-17v499h-125v17h572z" />
    <glyph glyph-name="d.sups" unicode="&#x1d48;" horiz-adv-x="486" 
d="M451 614l49 228h16l-100 -470h-16l19 89q-25 -44 -67 -70.5t-93 -26.5q-64 0 -102.5 39t-38.5 107q0 88 57 149t142 61q56 0 90.5 -28.5t43.5 -77.5zM260 380q78 0 130 61q52 59 52 140q0 61 -33.5 92.5t-91.5 31.5q-79 0 -130 -57q-52 -58 -52 -137q0 -62 33.5 -96.5
t91.5 -34.5z" />
    <glyph glyph-name="t.sups" unicode="&#x1d57;" horiz-adv-x="282" 
d="M335 698h-106l-51 -244q-5 -25 -5 -32q0 -35 50 -35h44l-2 -15h-45q-64 0 -64 48q0 7 5 34l52 244h-97l2 14h98l21 98h16l-21 -98h105z" />
    <glyph glyph-name="Wgrave" unicode="&#x1e80;" horiz-adv-x="936" 
d="M493 972l85 -150h-18l-89 150h22zM673 124l302 588h19l-368 -718h-15l-56 689l-330 -689h-16l-72 718h18l58 -586l9 -102l330 688h17l48 -588l7 -100z" />
    <glyph glyph-name="wgrave" unicode="&#x1e81;" horiz-adv-x="763" 
d="M369 776l85 -150h-18l-89 150h22zM512 91l228 425h19l-278 -516h-17l-43 437l-4 58l-28 -58l-229 -437h-17l-60 516h19l48 -425l7 -69l33 69l223 425h17l43 -425l6 -67z" />
    <glyph glyph-name="Wacute" unicode="&#x1e82;" horiz-adv-x="936" 
d="M623 972h23l-121 -150h-20zM673 124l302 588h19l-368 -718h-15l-56 689l-330 -689h-16l-72 718h18l58 -586l9 -102l330 688h17l48 -588l7 -100z" />
    <glyph glyph-name="wacute" unicode="&#x1e83;" horiz-adv-x="763" 
d="M499 776h23l-121 -150h-20zM512 91l228 425h19l-278 -516h-17l-43 437l-4 58l-28 -58l-229 -437h-17l-60 516h19l48 -425l7 -69l33 69l223 425h17l43 -425l6 -67z" />
    <glyph glyph-name="Wdieresis" unicode="&#x1e84;" horiz-adv-x="936" 
d="M467 884h36l-12 -60h-37zM659 884h36l-13 -60h-36zM673 124l302 588h19l-368 -718h-15l-56 689l-330 -689h-16l-72 718h18l58 -586l9 -102l330 688h17l48 -588l7 -100z" />
    <glyph glyph-name="wdieresis" unicode="&#x1e85;" horiz-adv-x="763" 
d="M366 712h18l-10 -48h-18zM540 712h18l-10 -48h-18zM512 91l228 425h19l-278 -516h-17l-43 437l-4 58l-28 -58l-229 -437h-17l-60 516h19l48 -425l7 -69l33 69l223 425h17l43 -425l6 -67z" />
    <glyph glyph-name="uni1E9E" unicode="&#x1e9e;" horiz-adv-x="689" 
d="M697 702l-3 -16l-320 -296q34 2 41 2q97 0 151 -40t54 -112q0 -110 -80 -181q-79 -70 -208 -70q-64 0 -135 15l3 17q70 -15 134 -15q120 0 194 65t74 168q0 66 -50 100.5t-141 34.5q-42 0 -67 -4l4 17l322 301q-96 12 -210 12q-124 0 -191 -55.5t-90 -164.5l-103 -480
h-18l103 480q49 238 302 238q135 0 234 -16z" />
    <glyph glyph-name="Ygrave" unicode="&#x1ef2;" horiz-adv-x="669" 
d="M380 972l85 -150h-18l-89 150h22zM714 712h24l-387 -426l-62 -286h-18l62 286l-208 426h20l192 -397l6 -15l12 15z" />
    <glyph glyph-name="ygrave" unicode="&#x1ef3;" horiz-adv-x="545" 
d="M261 776l85 -150h-18l-89 150h22zM206 -4l315 520h20l-387 -635q-29 -50 -59 -68q-32 -17 -87 -17h-31l4 17h26q52 0 79.5 16t54.5 60l53 88l-111 539h19l101 -498z" />
    <glyph glyph-name="thinspace" unicode="&#x2009;" horiz-adv-x="205" 
 />
    <glyph glyph-name="uni2011" unicode="&#x2011;" horiz-adv-x="377" 
d="M325 241h-280l4 18h280z" />
    <glyph glyph-name="endash" unicode="&#x2013;" horiz-adv-x="532" 
d="M480 241h-435l4 18h435z" />
    <glyph glyph-name="emdash" unicode="&#x2014;" horiz-adv-x="826" 
d="M774 241h-729l4 18h729z" />
    <glyph glyph-name="quoteleft" unicode="&#x2018;" horiz-adv-x="249" 
d="M214 539h-58l28 138q12 55 63 55h8l-4 -15h-7q-20 0 -30 -10.5t-16 -36.5l-17 -89l43 5z" />
    <glyph glyph-name="quoteright" unicode="&#x2019;" horiz-adv-x="249" 
d="M159 523h-7l3 16h8q20 0 30 10.5t15 36.5l18 88l-43 -5l10 47h58l-29 -138q-10 -55 -63 -55z" />
    <glyph glyph-name="quotesinglbase" unicode="&#x201a;" horiz-adv-x="249" 
d="M16 -149h-7l4 16h7q20 0 30 10.5t15 36.5l18 88l-43 -5l10 48h58l-29 -139q-10 -55 -63 -55z" />
    <glyph glyph-name="quotedblleft" unicode="&#x201c;" horiz-adv-x="379" 
d="M214 539h-58l28 138q12 55 63 55h8l-4 -15h-7q-20 0 -30 -10.5t-16 -36.5l-17 -89l43 5zM344 539h-59l29 138q11 55 63 55h7l-3 -15h-7q-20 0 -30 -10.5t-16 -36.5l-18 -89l44 5z" />
    <glyph glyph-name="quotedblright" unicode="&#x201d;" horiz-adv-x="378" 
d="M158 521h-7l3 15h8q20 0 30 10.5t15 36.5l18 88l-43 -5l10 48h58l-29 -139q-11 -54 -63 -54zM288 521h-7l3 15h8q20 0 30 10.5t15 36.5l18 88l-43 -5l10 48h58l-29 -139q-12 -54 -63 -54z" />
    <glyph glyph-name="quotedblbase" unicode="&#x201e;" horiz-adv-x="379" 
d="M16 -149h-7l4 16h7q20 0 30 10.5t15 36.5l18 88l-43 -5l10 48h58l-29 -139q-10 -55 -63 -55zM146 -149h-7l4 16h7q20 0 30 10.5t15 36.5l18 88l-43 -5l10 48h58l-29 -139q-10 -55 -63 -55z" />
    <glyph glyph-name="dagger" unicode="&#x2020;" horiz-adv-x="655" 
d="M401 565l206 1l-4 -18l-205 1l-139 -654h-18l139 654l-205 -1l4 18l204 -1l61 285h18z" />
    <glyph glyph-name="daggerdbl" unicode="&#x2021;" horiz-adv-x="656" 
d="M607 566l-3 -18l-206 1l-74 -349l206 1l-4 -18l-206 1l-61 -289h-18l61 289l-204 -1l4 18l204 -1l74 349l-204 -1l3 18l204 -1l61 285h18l-61 -285z" />
    <glyph glyph-name="bullet" unicode="&#x2022;" horiz-adv-x="298" 
d="M182 249h-71l16 71h71z" />
    <glyph glyph-name="ellipsis" unicode="&#x2026;" horiz-adv-x="743" 
d="M98 0h-58l10 48h58zM346 0h-58l10 48h58zM594 0h-58l10 48h58z" />
    <glyph glyph-name="perthousand" unicode="&#x2030;" horiz-adv-x="1800" 
d="M306 314q-70 0 -106 37.5t-36 108.5q0 36 9 81q47 216 212 216q69 0 105 -37t36 -108q0 -37 -9 -82q-47 -216 -211 -216zM306 331q77 0 124 49t70 153q10 47 10 79q0 129 -126 129q-150 0 -194 -203q-10 -47 -10 -79q0 -128 126 -128zM377 -15h-21l603 742h22zM991 -7
q-142 0 -142 146q0 36 9 81q46 216 212 216q69 0 105 -37t36 -108q0 -37 -9 -82q-46 -216 -211 -216zM1466 -7q-142 0 -142 146q0 36 9 81q47 216 212 216q69 0 105 -37t36 -108q0 -37 -9 -82q-47 -216 -211 -216zM991 10q77 0 124 49.5t69 152.5q10 47 10 79
q0 129 -126 129q-149 0 -193 -203q-10 -47 -10 -79q0 -128 126 -128zM1466 10q77 0 124.5 49.5t69.5 152.5q10 47 10 79q0 129 -126 129q-150 0 -194 -203q-10 -47 -10 -79q0 -128 126 -128z" />
    <glyph glyph-name="guilsinglleft" unicode="&#x2039;" horiz-adv-x="439" 
d="M292 11l-5 -21l-196 257l5 22l305 255l-6 -26l-289 -243z" />
    <glyph glyph-name="guilsinglright" unicode="&#x203a;" horiz-adv-x="439" 
d="M341 245l-304 -255l5 26l289 243l-185 244l5 21l195 -257z" />
    <glyph glyph-name="uni203D" unicode="&#x203d;" horiz-adv-x="618" 
d="M388 719q95 0 150 -42t55 -118q0 -118 -154 -197l-33 -17q-54 -28 -80 -58q-25 -31 -40 -87l-7 -33h-15l56 271l25 116h18l-59 -274q31 48 113 88q83 43 120.5 86.5t37.5 104.5q0 69 -50 106t-137 37q-102 0 -167 -51.5t-82 -145.5h-18q17 102 87 158t180 56zM258 0h-41
l8 41h41z" />
    <glyph glyph-name="fraction" unicode="&#x2044;" horiz-adv-x="287" 
d="M-127 -15h-21l604 742h21z" />
    <glyph glyph-name="zero.sups" unicode="&#x2070;" horiz-adv-x="443" 
d="M253 365q-142 0 -142 146q0 36 9 81q46 216 211 216q142 0 142 -145q0 -35 -10 -82q-47 -216 -210 -216zM253 382q77 0 124 49.5t69 152.5q10 47 10 79q0 129 -126 129q-149 0 -193 -203q-10 -47 -10 -79q0 -128 126 -128z" />
    <glyph glyph-name="four.sups" unicode="&#x2074;" horiz-adv-x="414" 
d="M331 372h-17l26 119h-259l3 15l321 293h17l-61 -292h75l-4 -16h-75zM399 776l-293 -269h238l56 268z" />
    <glyph glyph-name="five.sups" unicode="&#x2075;" horiz-adv-x="427" 
d="M243 362q-61 0 -100.5 28t-48.5 75l17 4q7 -41 42.5 -66t90.5 -25q75 0 125 41q49 40 49 103q0 49 -32 77.5t-89 28.5q-87 0 -143 -63l-21 10l91 224h243l-4 -16h-229l-78 -194l1 -1q56 55 143 55q63 0 99 -32.5t36 -86.5q0 -70 -54 -116q-55 -46 -138 -46z" />
    <glyph glyph-name="six.sups" unicode="&#x2076;" horiz-adv-x="427" 
d="M263 366q-71 0 -111 41.5t-40 121.5q0 113 59 196t154 83q52 0 89.5 -27t51.5 -75l-16 -4q-27 90 -126 90q-83 0 -136 -71q-54 -72 -58 -174q62 99 168 99q63 0 100 -34t37 -90q0 -65 -47 -110q-46 -46 -125 -46zM263 382q69 0 112 39.5t43 99.5q0 51 -33 80t-90 29
q-111 0 -166 -109q1 -68 36 -103.5t98 -35.5z" />
    <glyph glyph-name="seven.sups" unicode="&#x2077;" horiz-adv-x="368" 
d="M145 372h-17q31 116 109 222.5t193 188.5h-293l3 16h318l-3 -15q-247 -172 -310 -412z" />
    <glyph glyph-name="eight.sups" unicode="&#x2078;" horiz-adv-x="445" 
d="M255 366q-71 0 -114 31.5t-43 83.5q0 48 36 81t97 42l1 2q-74 23 -74 85q0 52 48 84.5t125 32.5q67 0 105.5 -25.5t38.5 -69.5q0 -40 -32 -71t-83 -38l-1 -2q89 -23 89 -96q0 -61 -55 -100q-55 -40 -138 -40zM299 611q71 0 115 28t44 73q0 38 -34.5 59t-93.5 21
q-69 0 -112 -28t-43 -73q0 -37 33 -58.5t91 -21.5zM256 381q76 0 125 36q50 36 50 89q0 42 -37.5 66t-104.5 24q-79 0 -126.5 -31t-47.5 -83q0 -45 38.5 -73t102.5 -28z" />
    <glyph glyph-name="nine.sups" unicode="&#x2079;" horiz-adv-x="427" 
d="M242 365q-53 0 -90 27t-51 75l15 5q13 -44 46 -67.5t80 -23.5q83 0 137 71q54 72 58 174q-61 -99 -168 -99q-63 0 -100 33.5t-37 90.5q0 64 47 111q47 45 125 45q71 0 111 -41.5t40 -121.5q0 -114 -58 -196q-59 -83 -155 -83zM271 543q110 0 167 110q-1 66 -36 102
t-98 36q-69 0 -112 -39.5t-43 -99.5q0 -51 33 -80t89 -29z" />
    <glyph glyph-name="plus.sups" unicode="&#x207a;" horiz-adv-x="542" 
d="M274 560h196v-15h-196v-173h-16v173h-195v15h195v174h16v-174z" />
    <glyph glyph-name="minus.sups" unicode="&#x207b;" horiz-adv-x="527" 
d="M455 545h-392v15h392v-15z" />
    <glyph glyph-name="parenleft.sups" unicode="&#x207d;" horiz-adv-x="280" 
d="M211 237h-17q-114 217 -9 440q50 109 141 188h19q-92 -80 -143 -186.5t-51 -216.5q0 -112 60 -225z" />
    <glyph glyph-name="parenright.sups" unicode="&#x207e;" horiz-adv-x="281" 
d="M79 237h-19q92 80 143 186.5t51 216.5q0 112 -60 225h17q114 -217 10 -440q-52 -110 -142 -188z" />
    <glyph glyph-name="n.sups" unicode="&#x207f;" horiz-adv-x="483" 
d="M345 720q56 0 86 -27.5t30 -76.5q0 -25 -7 -49l-41 -195h-17l43 199q5 28 5 43q0 42 -26.5 66t-74.5 24q-58 0 -101.5 -34t-63.5 -98l-42 -200h-17l72 340h16l-18 -85q49 93 156 93z" />
    <glyph glyph-name="zero.subs" unicode="&#x2080;" horiz-adv-x="443" 
d="M137 -181q-142 0 -142 146q0 36 9 81q46 216 211 216q142 0 142 -145q0 -35 -10 -82q-47 -216 -210 -216zM137 -164q77 0 124 49.5t69 152.5q10 47 10 79q0 129 -126 129q-149 0 -193 -203q-10 -47 -10 -79q0 -128 126 -128z" />
    <glyph glyph-name="one.subs" unicode="&#x2081;" horiz-adv-x="308" 
d="M122 -174h-16l63 297h-152l4 16h107q24 0 35 7t16 28l18 79h16z" />
    <glyph glyph-name="two.subs" unicode="&#x2082;" horiz-adv-x="472" 
d="M301 -174h-310q21 110 177 174l62 26q121 51 121 130q0 40 -29 65t-84 25q-132 0 -162 -127h-18q15 71 63 107t118 36q62 0 95.5 -28.5t33.5 -76.5q0 -92 -130 -144l-63 -26q-135 -56 -162 -145h292z" />
    <glyph glyph-name="three.subs" unicode="&#x2083;" horiz-adv-x="427" 
d="M133 -181q-71 0 -109.5 35t-39.5 95h17q0 -54 34.5 -84t98.5 -30q72 0 116 34.5t44 89.5q0 41 -29.5 64t-84.5 23h-34l4 16h32q59 0 96.5 27.5t37.5 72.5q0 40 -30.5 62t-81.5 22q-60 0 -99 -27.5t-50 -77.5l-17 1q11 55 56 87.5t111 32.5q59 0 93.5 -25.5t34.5 -72.5
q0 -41 -28 -70.5t-74 -38.5v-1q38 -7 59.5 -31.5t21.5 -62.5q0 -61 -49 -101t-130 -40z" />
    <glyph glyph-name="four.subs" unicode="&#x2084;" horiz-adv-x="414" 
d="M215 -174h-17l26 119h-259l3 15l321 293h17l-61 -292h75l-4 -16h-75zM283 230l-293 -269h238l56 268z" />
    <glyph glyph-name="five.subs" unicode="&#x2085;" horiz-adv-x="427" 
d="M127 -184q-61 0 -100.5 28t-48.5 75l17 4q7 -41 42.5 -66t90.5 -25q75 0 125 41q49 40 49 103q0 49 -32 77.5t-89 28.5q-87 0 -143 -63l-21 10l91 224h243l-4 -16h-229l-78 -194l1 -1q56 55 143 55q63 0 99 -32.5t36 -86.5q0 -70 -54 -116q-55 -46 -138 -46z" />
    <glyph glyph-name="six.subs" unicode="&#x2086;" horiz-adv-x="427" 
d="M147 -180q-71 0 -111 41.5t-40 121.5q0 113 59 196t154 83q52 0 89.5 -27t51.5 -75l-16 -4q-27 90 -126 90q-83 0 -136 -71q-54 -72 -58 -174q60 99 168 99q63 0 100 -34t37 -90q0 -64 -47 -111q-46 -45 -125 -45zM147 -164q69 0 112 39.5t43 99.5q0 51 -33 80t-90 29
q-111 0 -166 -109q1 -68 36 -103.5t98 -35.5z" />
    <glyph glyph-name="seven.subs" unicode="&#x2087;" horiz-adv-x="368" 
d="M29 -174h-17q31 116 109 222.5t193 188.5h-293l3 16h318l-3 -15q-247 -172 -310 -412z" />
    <glyph glyph-name="eight.subs" unicode="&#x2088;" horiz-adv-x="445" 
d="M139 -180q-71 0 -114 31.5t-43 83.5q0 48 36 81t97 42l1 2q-74 23 -74 85q0 52 48 84.5t125 32.5q67 0 105.5 -25.5t38.5 -69.5q0 -40 -32 -71t-83 -38l-1 -2q89 -23 89 -96q0 -61 -55 -101q-55 -39 -138 -39zM183 65q71 0 115 28t44 73q0 38 -34.5 59t-93.5 21
q-69 0 -112 -28t-43 -73q0 -37 33 -58.5t91 -21.5zM140 -165q75 0 125 36t50 89q0 42 -37.5 66t-104.5 24q-79 0 -126.5 -31t-47.5 -83q0 -45 38.5 -73t102.5 -28z" />
    <glyph glyph-name="nine.subs" unicode="&#x2089;" horiz-adv-x="427" 
d="M126 -181q-53 0 -90 27t-51 75l15 5q13 -44 46 -67.5t80 -23.5q83 0 137 71q54 72 58 174q-61 -99 -168 -99q-63 0 -100 33.5t-37 90.5q0 64 47 111q47 45 125 45q71 0 111 -41.5t40 -121.5q0 -114 -58 -196q-59 -83 -155 -83zM155 -3q110 0 167 110q-1 66 -36 102
t-98 36q-69 0 -112 -39.5t-43 -99.5q0 -51 33 -80t89 -29z" />
    <glyph glyph-name="plus.subs" unicode="&#x208a;" horiz-adv-x="542" 
d="M163 38h196v-15h-196v-173h-16v173h-195v15h195v174h16v-174z" />
    <glyph glyph-name="minus.subs" unicode="&#x208b;" horiz-adv-x="527" 
d="M344 23h-392v15h392v-15z" />
    <glyph glyph-name="equal.subs" unicode="&#x208c;" horiz-adv-x="527" 
d="M344 96h-392v14h392v-14zM344 -50h-392v15h392v-15z" />
    <glyph glyph-name="uni208D" unicode="&#x208d;" horiz-adv-x="280" 
d="M95 -309h-17q-114 217 -9 440q50 109 141 188h19q-92 -80 -143 -186.5t-51 -216.5q0 -112 60 -225z" />
    <glyph glyph-name="uni208E" unicode="&#x208e;" horiz-adv-x="280" 
d="M-38 -309h-19q92 80 143 186.5t51 216.5q0 112 -60 225h17q114 -217 10 -440q-52 -110 -142 -188z" />
    <glyph glyph-name="n.subs" unicode="&#x2099;" horiz-adv-x="482" 
d="M228 174q56 0 86 -27.5t30 -76.5q0 -25 -7 -49l-41 -195h-17l43 199q5 28 5 43q0 42 -26.5 66t-74.5 24q-58 0 -101.5 -34t-63.5 -98l-42 -200h-17l72 340h16l-18 -85q50 93 156 93z" />
    <glyph glyph-name="Euro" unicode="&#x20ac;" horiz-adv-x="640" 
d="M523 701q-105 0 -187.5 -63.5t-128.5 -179.5h413l-4 -18h-416q-18 -53 -24 -85q-9 -40 -12 -76h418l-4 -18h-415q-1 -5 -1 -22q0 -109 56 -169t157 -60q82 0 157 34l-4 -19q-75 -32 -155 -32q-108 0 -168.5 65t-60.5 183v20h-123l4 18h120q3 37 12 79q7 35 23 82h-121
l4 18h124q48 125 136.5 193t200.5 68q84 0 145 -34l-4 -17q-61 33 -142 33z" />
    <glyph glyph-name="uni20B8" unicode="&#x20b8;" horiz-adv-x="642" 
d="M138 695l3 17h543l-3 -17h-543zM369 552h-261l4 17h543l-4 -17h-264l-117 -552h-18z" />
    <glyph glyph-name="uni20B9" unicode="&#x20b9;" horiz-adv-x="640" 
d="M155 712h524l-4 -18h-303q44 -18 68 -55.5t24 -85.5q0 -19 -1 -24h178l-4 -17h-176q-12 -68 -60.5 -113t-123.5 -60h-2q53 -4 78.5 -30.5t30.5 -90.5l17 -218h-18l-17 215q-5 69 -35 91q-32 23 -116 23h-142l3 18h134q91 0 154.5 45t77.5 120h-330l4 17h329q1 5 1 25
q0 63 -41.5 101.5t-110.5 38.5h-143z" />
    <glyph glyph-name="uni20BA" unicode="&#x20ba;" horiz-adv-x="640" 
d="M555 246h17q-27 -113 -119 -179q-92 -67 -217 -67h-122l57 274l-160 -76l4 19l161 76l37 171l-161 -76l3 19l162 76l49 229h18l-47 -219l277 130l-4 -18l-277 -131l-36 -172l277 131l-4 -18l-278 -131l-56 -267h102q115 0 202 63q86 61 115 166z" />
    <glyph glyph-name="uni20BC" unicode="&#x20bc;" horiz-adv-x="640" 
d="M366 525h7q99 0 145 -35t46 -112q0 -37 -10 -87l-63 -291h-18l63 294q11 52 11 84q0 69 -42 99.5t-136 30.5h-6l-85 -397h-18l85 397h-7q-117 0 -175 -49t-84 -167l-63 -292h-18l63 294q26 124 90 177.5t186 53.5h11l40 187h18z" />
    <glyph glyph-name="uni20BF" unicode="&#x20bf;" horiz-adv-x="741" 
d="M513 372q135 -24 135 -153q0 -93 -66 -156t-165 -63h-33l-30 -144h-17l30 144h-144l-30 -144h-17l30 144h-148l152 712h148l28 135h17l-28 -135h143l29 135h17l-29 -135q76 -4 115.5 -43t39.5 -101q0 -76 -48.5 -129t-128.5 -67zM517 695h-293l-67 -316h297q95 0 157 53
q61 52 61 135q0 59 -39 93.5t-116 34.5zM80 17h337q89 0 151 60q61 58 61 143q0 69 -44.5 106t-127.5 37h-304z" />
    <glyph glyph-name="uni2105" unicode="&#x2105;" horiz-adv-x="1290" 
d="M389 -15h-22l604 742h21zM331 366q-71 0 -114.5 41t-43.5 111q0 82 54 144q54 61 140 61q60 0 99.5 -32.5t46.5 -80.5l-16 -4q-9 44 -42 72.5t-88 28.5q-80 0 -128 -57q-49 -56 -49 -132q0 -63 38.5 -99.5t102.5 -36.5q90 0 142 85l15 -6q-56 -95 -157 -95zM970 -5
q-69 0 -111.5 43t-42.5 112q0 87 55 145q55 57 137 57q67 0 109 -43t42 -112q0 -87 -54 -144q-55 -58 -135 -58zM971 11q73 0 122 52t49 132q0 64 -37 102.5t-99 38.5q-74 0 -123 -52q-50 -53 -50 -132q0 -64 37.5 -102.5t100.5 -38.5z" />
    <glyph glyph-name="uni2113" unicode="&#x2113;" horiz-adv-x="507" 
d="M385 74l12 -13q-59 -68 -147 -68q-63 0 -98.5 35t-35.5 100v110l-98 -44l-7 16l105 45v326q0 66 33.5 102t96.5 36q138 0 138 -181q0 -120 -62 -179q-32 -32 -76 -58q-34 -20 -112 -55v-118q0 -56 30.5 -87t86.5 -31q83 0 134 64zM247 701q-55 0 -84 -31t-29 -89v-319
q131 59 182 114q51 56 51 161q0 164 -120 164z" />
    <glyph glyph-name="uni2116" unicode="&#x2116;" horiz-adv-x="1202" 
d="M1053 723q68 0 109.5 -43t41.5 -112q0 -87 -54 -144q-55 -58 -135 -58q-69 0 -111.5 43t-42.5 112q0 87 55 145q56 57 137 57zM226 712l348 -685l146 685h17l-152 -712h-16l-347 686l-146 -686h-18l152 712h16zM1016 382q73 0 122 52q49 50 49 132q0 64 -37.5 102.5
t-98.5 38.5q-74 0 -123 -52q-50 -53 -50 -132q0 -64 37.5 -102.5t100.5 -38.5z" />
    <glyph glyph-name="uni2117" unicode="&#x2117;" horiz-adv-x="893" 
d="M215 617q97 102 253 102t253 -102q98 -103 98 -260q0 -158 -98 -261q-97 -103 -253 -103t-253 103q-99 102 -99 261q0 158 99 260zM468 9q147 0 242 98q93 97 93 250q0 151 -93 249q-93 97 -242 97t-242 -97q-94 -97 -94 -249q0 -153 94 -250q93 -98 242 -98zM360 547
h142q57 0 90 -29.5t33 -80.5q0 -52 -33 -82.5t-91 -30.5h-125v-154h-16v377zM376 339h125q51 0 79.5 26.5t28.5 71.5t-28 70t-80 25h-125v-193z" />
    <glyph glyph-name="trademark" unicode="&#x2122;" horiz-adv-x="1040" 
d="M305 330h-16v367h-133v15h283v-15h-134v-367zM579 330h-16v382h42l152 -369h11l151 369h42v-382h-17v369h-15l-150 -369h-34l-151 369h-15v-369z" />
    <glyph glyph-name="uni2126" unicode="&#x2126;" horiz-adv-x="901" 
d="M388 0h-274v17h238v2q-230 120 -230 361q0 159 87 252t228 93q142 0 228 -92q86 -94 86 -253q0 -239 -227 -361v-2h237v-17h-273v16q245 123 245 364q0 151 -80 240q-81 88 -216 88q-134 0 -215 -88q-82 -88 -82 -240q0 -241 248 -364v-16z" />
    <glyph glyph-name="estimated" unicode="&#x212e;" horiz-adv-x="899" 
d="M449 718q184 0 293 -109q108 -109 108 -268h-639q-14 0 -14 -13v-174q0 -30 16 -45q98 -96 236 -96q74 0 140 31t110 84h72q-44 -62 -127.5 -101t-194.5 -39q-181 0 -290 102q-110 102 -110 261q0 160 109 263q109 104 291 104zM449 691q-138 0 -236 -98q-16 -15 -16 -42
v-174q0 -13 14 -13h475q14 0 14 13v174q0 27 -16 42q-100 98 -235 98z" />
    <glyph glyph-name="uni2153" unicode="&#x2153;" horiz-adv-x="1141" 
d="M295 321h-17l63 297h-151l4 16h107q24 0 35 7t16 28l17 79h17zM248 -15h-22l604 742h21zM821 -7q-73 0 -111 34.5t-39 95.5h18q0 -54 34 -84t98 -30q72 0 116.5 35t44.5 89q0 41 -29.5 64t-84.5 23h-34l4 16h32q58 0 95.5 27.5t37.5 72.5q0 41 -30 62.5t-82 21.5
q-60 0 -99 -27.5t-50 -77.5l-17 1q11 55 56 87.5t111 32.5q59 0 93.5 -25.5t34.5 -72.5q0 -41 -28 -70.5t-74 -38.5v-1q38 -7 59.5 -31.5t21.5 -62.5q0 -60 -49 -100q-50 -41 -129 -41z" />
    <glyph glyph-name="uni2154" unicode="&#x2154;" horiz-adv-x="1246" 
d="M436 321h-310q21 109 176 174l63 26q121 51 121 130q0 40 -29 65t-84 25q-132 0 -162 -127h-18q15 71 63 107t118 36q62 0 95.5 -28.5t33.5 -76.5q0 -92 -130 -144l-63 -26q-135 -56 -162 -145h292zM353 -15h-22l604 742h21zM926 -7q-73 0 -111 34.5t-39 95.5h18
q0 -54 34 -84t98 -30q72 0 116.5 35t44.5 89q0 41 -29.5 64t-84.5 23h-34l4 16h32q58 0 95.5 27.5t37.5 72.5q0 41 -30 62.5t-82 21.5q-60 0 -99 -27.5t-50 -77.5l-17 1q11 55 56 87.5t111 32.5q59 0 93.5 -25.5t34.5 -72.5q0 -41 -28 -70.5t-74 -38.5v-1q38 -7 59.5 -31.5
t21.5 -62.5q0 -60 -49 -100q-50 -41 -129 -41z" />
    <glyph glyph-name="uni2155" unicode="&#x2155;" horiz-adv-x="1162" 
d="M295 321h-17l63 297h-151l4 16h107q24 0 35 7t16 28l17 79h17zM248 -15h-22l604 742h21zM832 -10q-62 0 -101.5 28t-48.5 75l17 4q7 -41 42.5 -66t90.5 -25q75 0 125 41q49 40 49 103q0 49 -32 77.5t-89 28.5q-87 0 -143 -63l-21 10l91 224h243l-4 -16h-229l-78 -194
l1 -1q56 55 143 55q63 0 99 -32.5t36 -86.5q0 -70 -54 -116q-55 -46 -137 -46z" />
    <glyph glyph-name="uni2156" unicode="&#x2156;" horiz-adv-x="1260" 
d="M436 321h-310q21 109 176 174l63 26q121 51 121 130q0 40 -29 65t-84 25q-132 0 -162 -127h-18q15 71 63 107t118 36q62 0 95.5 -28.5t33.5 -76.5q0 -92 -130 -144l-63 -26q-135 -56 -162 -145h292zM346 -15h-22l604 742h21zM930 -10q-62 0 -101.5 28t-48.5 75l17 4
q7 -41 42.5 -66t90.5 -25q75 0 125 41q49 40 49 103q0 49 -32 77.5t-89 28.5q-87 0 -143 -63l-21 10l91 224h243l-4 -16h-229l-78 -194l1 -1q56 55 143 55q63 0 99 -32.5t36 -86.5q0 -70 -54 -116q-55 -46 -137 -46z" />
    <glyph glyph-name="uni2157" unicode="&#x2157;" horiz-adv-x="1253" 
d="M302 314q-71 0 -109.5 35t-39.5 95h17q0 -54 34.5 -84t98.5 -30q72 0 116.5 35t44.5 89q0 42 -29.5 64.5t-85.5 22.5h-34l4 16h32q59 0 96.5 27.5t37.5 72.5q0 40 -30.5 62t-81.5 22q-60 0 -99 -27.5t-50 -77.5l-17 1q11 55 56 87.5t111 32.5q59 0 93.5 -25.5t34.5 -72.5
q0 -41 -28 -70.5t-74 -38.5v-1q38 -7 59.5 -31.5t21.5 -62.5q0 -60 -49 -100q-50 -41 -130 -41zM338 -15h-21l603 742h21zM922 -10q-62 0 -101.5 28t-48.5 75l17 4q7 -41 42.5 -66t90.5 -25q75 0 125 41q49 40 49 103q0 49 -32 77.5t-89 28.5q-87 0 -143 -63l-21 10l91 224
h243l-4 -16h-229l-78 -194l1 -1q56 55 143 55q63 0 99 -32.5t36 -86.5q0 -70 -54 -116q-53 -46 -137 -46z" />
    <glyph glyph-name="uni2158" unicode="&#x2158;" horiz-adv-x="1290" 
d="M402 321h-17l26 119h-259l3 15l321 293h17l-62 -292h75l-4 -16h-75zM375 -15h-21l603 742h21zM470 725l-294 -269h238l57 268zM959 -10q-61 0 -101 28t-49 75l17 4q7 -41 42.5 -66t90.5 -25q75 0 125 41q49 40 49 103q0 49 -32 77.5t-89 28.5q-87 0 -143 -63l-21 10
l91 224h243l-4 -16h-229l-78 -194l1 -1q56 55 143 55q62 0 99 -32.5t37 -86.5q0 -70 -54 -116q-55 -46 -138 -46z" />
    <glyph glyph-name="uni2159" unicode="&#x2159;" horiz-adv-x="1134" 
d="M295 321h-17l63 297h-151l4 16h107q24 0 35 7t16 28l17 79h17zM248 -15h-22l604 742h21zM823 -6q-71 0 -111 41.5t-40 121.5q0 113 59 196t154 83q52 0 89.5 -27t51.5 -75l-16 -4q-27 90 -126 90q-83 0 -136 -71q-54 -72 -58 -174q62 99 168 99q63 0 100 -34t37 -90
q0 -65 -47 -110q-46 -46 -125 -46zM823 10q69 0 112 39.5t43 99.5q0 51 -33 80t-90 29q-111 0 -166 -109q1 -68 36 -103.5t98 -35.5z" />
    <glyph glyph-name="uni215A" unicode="&#x215a;" horiz-adv-x="1216" 
d="M296 311q-62 0 -101.5 28t-48.5 75l17 4q7 -41 42.5 -66t90.5 -25q75 0 125 41q49 40 49 103q0 49 -32 77.5t-89 28.5q-87 0 -143 -63l-21 10l91 224h243l-4 -16h-229l-78 -194l1 -1q56 55 143 55q63 0 99 -32.5t36 -86.5q0 -69 -54 -116q-53 -46 -137 -46zM330 -15h-21
l604 742h21zM905 -6q-71 0 -111 41.5t-40 121.5q0 113 59 196t154 83q53 0 90 -27t51 -75l-15 -4q-13 44 -46 67t-80 23q-83 0 -136 -71q-55 -71 -59 -174q62 99 168 99q63 0 100 -33.5t37 -90.5q0 -65 -47 -110q-46 -46 -125 -46zM905 10q69 0 112 39.5t43 99.5
q0 51 -33 80t-89 29q-110 0 -167 -109q1 -67 36.5 -103t97.5 -36z" />
    <glyph glyph-name="oneeighth" unicode="&#x215b;" horiz-adv-x="1163" 
d="M295 321h-17l63 297h-151l4 16h107q24 0 35 7t16 28l17 79h17zM248 -15h-22l604 742h21zM828 -6q-71 0 -114 31.5t-43 83.5q0 48 36 81t97 42l1 2q-74 23 -74 85q0 52 48 84.5t125 32.5q67 0 105.5 -25.5t38.5 -69.5q0 -40 -32 -71t-83 -38l-1 -2q89 -23 89 -96
q0 -61 -55 -100q-55 -40 -138 -40zM872 239q71 0 115 28t44 73q0 38 -34.5 59t-93.5 21q-69 0 -112 -28t-43 -73q0 -37 33 -58.5t91 -21.5zM829 9q75 0 125 36t50 89q0 42 -37.5 66t-104.5 24q-79 0 -126.5 -31t-47.5 -83q0 -45 38.5 -73t102.5 -28z" />
    <glyph glyph-name="threeeighths" unicode="&#x215c;" horiz-adv-x="1253" 
d="M302 314q-71 0 -109.5 35t-39.5 95h17q0 -54 34.5 -84t98.5 -30q72 0 116.5 35t44.5 89q0 42 -29.5 64.5t-85.5 22.5h-34l4 16h32q59 0 96.5 27.5t37.5 72.5q0 40 -30.5 62t-81.5 22q-60 0 -99 -27.5t-50 -77.5l-17 1q11 55 56 87.5t111 32.5q59 0 93.5 -25.5t34.5 -72.5
q0 -41 -28 -70.5t-74 -38.5v-1q38 -7 59.5 -31.5t21.5 -62.5q0 -60 -49 -100q-50 -41 -130 -41zM338 -15h-21l603 742h21zM919 -6q-72 0 -115 31.5t-43 83.5q0 48 36 81t97 42l1 2q-74 23 -74 85q0 52 48 84.5t125 32.5q67 0 106 -25.5t39 -69.5q0 -40 -32.5 -71t-83.5 -38
l-1 -2q89 -23 89 -96q0 -60 -55 -100t-137 -40zM962 239q72 0 116 28t44 73q0 38 -35 59t-94 21q-69 0 -112 -28t-43 -73q0 -37 33 -58.5t91 -21.5zM919 9q75 0 125 36t50 89q0 42 -37.5 66t-104.5 24q-79 0 -126.5 -31t-47.5 -83q0 -45 38.5 -73t102.5 -28z" />
    <glyph glyph-name="fiveeighths" unicode="&#x215d;" horiz-adv-x="1246" 
d="M296 311q-62 0 -101.5 28t-48.5 75l17 4q7 -41 42.5 -66t90.5 -25q75 0 125 41q49 40 49 103q0 49 -32 77.5t-89 28.5q-87 0 -143 -63l-21 10l91 224h243l-4 -16h-229l-78 -194l1 -1q56 55 143 55q63 0 99 -32.5t36 -86.5q0 -69 -54 -116q-53 -46 -137 -46zM330 -15h-21
l604 742h21zM911 -6q-72 0 -115 31.5t-43 83.5q0 48 36.5 81t97.5 42l1 2q-74 23 -74 85q0 52 48 84.5t124 32.5q67 0 106 -25.5t39 -69.5q0 -40 -32.5 -71t-83.5 -38l-1 -2q89 -23 89 -96q0 -60 -55 -100t-137 -40zM954 239q72 0 116 28t44 73q0 38 -34.5 59t-93.5 21
q-69 0 -112.5 -28t-43.5 -73q0 -37 33 -58.5t91 -21.5zM911 9q75 0 125 36t50 89q0 42 -37 66t-104 24q-79 0 -126.5 -31t-47.5 -83q0 -45 38.5 -73t101.5 -28z" />
    <glyph glyph-name="seveneighths" unicode="&#x215e;" horiz-adv-x="1118" 
d="M223 321h-18q31 116 109 222.5t193 188.5h-293l3 16h318l-3 -15q-247 -172 -309 -412zM202 -15h-21l604 742h21zM783 -6q-72 0 -114.5 31.5t-42.5 83.5q0 48 36 81t97 42l1 2q-74 23 -74 85q0 52 48 84.5t124 32.5q67 0 106 -25.5t39 -69.5q0 -40 -32.5 -71t-83.5 -38
l-1 -2q90 -22 90 -96q0 -61 -55 -100q-55 -40 -138 -40zM827 239q71 0 115 28t44 73q0 38 -34.5 59t-93.5 21q-69 0 -112 -27.5t-43 -73.5q0 -37 32.5 -58.5t91.5 -21.5zM784 9q74 0 125 36q50 36 50 89q0 42 -37.5 66t-104.5 24q-79 0 -126.5 -31t-47.5 -83q0 -45 38.5 -73
t102.5 -28z" />
    <glyph glyph-name="arrowleft" unicode="&#x2190;" horiz-adv-x="1000" 
d="M186 365h697v-18h-697l264 -347h-22l-270 356l270 356h22z" />
    <glyph glyph-name="arrowup" unicode="&#x2191;" horiz-adv-x="1000" 
d="M183 454l356 270l356 -270v-22l-166 126l-181 140v-698h-18v698l-181 -140l-166 -126v22z" />
    <glyph glyph-name="arrowright" unicode="&#x2192;" horiz-adv-x="1000" 
d="M593 712h22l269 -356l-269 -356h-22l125 166l139 181h-697v18h697l-139 181z" />
    <glyph glyph-name="arrowdown" unicode="&#x2193;" horiz-adv-x="1000" 
d="M512 15l347 265v-22l-356 -270l-356 270v22l347 -265v697h18v-697z" />
    <glyph glyph-name="arrowboth" unicode="&#x2194;" horiz-adv-x="1299" 
d="M892 712h21l270 -356l-270 -356h-21l125 166l139 181h-970l264 -347h-22l-270 356l270 356h22l-264 -347h970l-139 181z" />
    <glyph glyph-name="arrowupdn" unicode="&#x2195;" horiz-adv-x="1109" 
d="M598 -92l347 264v-22l-356 -270l-356 270v22l347 -264v1017l-348 -264v22l356 270l356 -270v-22l-346 264v-1017z" />
    <glyph glyph-name="uni2196" unicode="&#x2196;" horiz-adv-x="1005" 
d="M214 652l639 -640l-12 -12l-640 641l2 -88v-547h-18v662h662v-18h-546z" />
    <glyph glyph-name="uni2197" unicode="&#x2197;" horiz-adv-x="1000" 
d="M186 650v18h662v-662h-18v547l2 87l-639 -640l-13 12l639 640l-87 -2h-546z" />
    <glyph glyph-name="uni2198" unicode="&#x2198;" horiz-adv-x="1005" 
d="M833 115v547h18v-662h-661v18h545l88 -2l-640 640l13 12l640 -641z" />
    <glyph glyph-name="uni2199" unicode="&#x2199;" horiz-adv-x="1000" 
d="M852 656l-639 -640l87 2h546v-18h-662v662h18v-547l-2 -87l639 640z" />
    <glyph glyph-name="partialdiff" unicode="&#x2202;" horiz-adv-x="646" 
d="M329 718q236 0 236 -357q0 -180 -58 -273.5t-169 -93.5q-92 0 -148 62t-56 159q0 99 55.5 158t148.5 59q140 0 207 -130q2 48 2 57q0 342 -218 342q-78 0 -147 -34l-7 16q78 35 154 35zM339 10q179 0 204 262q-30 70 -83.5 106.5t-120.5 36.5q-84 0 -135.5 -54.5
t-51.5 -144.5q0 -91 51 -148q49 -58 136 -58z" />
    <glyph glyph-name="uni2206" unicode="&#x2206;" horiz-adv-x="717" 
d="M297 717h15l310 -717h-637zM298 676l-287 -659h585l-285 659l-6 16z" />
    <glyph glyph-name="product" unicode="&#x220f;" horiz-adv-x="947" 
d="M210 712h526v-916h-18v899h-490v-899h-18v916z" />
    <glyph glyph-name="summation" unicode="&#x2211;" horiz-adv-x="868" 
d="M528 259l-336 -445h493v-18h-515v17l336 446l-324 436v17h492v-18h-470z" />
    <glyph glyph-name="minus" unicode="&#x2212;" horiz-adv-x="640" 
d="M584 301h-529v18h529v-18z" />
    <glyph glyph-name="uni2215" unicode="&#x2215;" horiz-adv-x="287" 
d="M-127 -15h-21l604 742h21z" />
    <glyph glyph-name="uni2219" unicode="&#x2219;" horiz-adv-x="260" 
d="M163 249h-71l16 71h70z" />
    <glyph glyph-name="radical" unicode="&#x221a;" horiz-adv-x="640" 
d="M364 -204h-23l-143 380l-127 -51l-6 16l143 57l143 -381l228 930h18z" />
    <glyph glyph-name="infinity" unicode="&#x221e;" horiz-adv-x="826" 
d="M232 190q-69 0 -109 44t-40 114t40 113.5t109 43.5q56 0 102.5 -32.5t97.5 -111.5q52 79 98 111.5t102 32.5q69 0 109.5 -44t40.5 -113q0 -70 -40.5 -114t-109.5 -44q-56 0 -102 32t-98 111q-53 -79 -98 -111t-102 -32zM232 207q54 0 96.5 31.5t92.5 108.5
q-52 77 -94.5 109t-94.5 32q-60 0 -96 -40t-36 -101q0 -60 36 -100t96 -40zM632 207q60 0 96.5 40t36.5 100q0 61 -36.5 101t-96.5 40q-52 0 -95 -32t-94 -109q50 -77 93 -108.5t96 -31.5z" />
    <glyph glyph-name="integral" unicode="&#x222b;" horiz-adv-x="640" 
d="M204 -204h-21v17h20q54 0 81 27.5t27 90.5v680q0 136 125 136h21v-17h-20q-54 0 -81 -27.5t-27 -90.5v-680q0 -136 -125 -136z" />
    <glyph glyph-name="approxequal" unicode="&#x2248;" horiz-adv-x="640" 
d="M95 346h-16q0 85 34 130.5t90 45.5q32 0 58 -16.5t44 -40t36 -46.5t42.5 -39.5t53.5 -16.5q50 0 79 42t29 117h16q0 -85 -34 -130.5t-90 -45.5q-32 0 -58 16.5t-44 40t-36 46.5t-42.5 39.5t-53.5 16.5q-49 0 -78.5 -42.5t-29.5 -116.5zM95 113h-16q0 85 34 130.5t90 45.5
q32 0 58 -16.5t44 -39.5t36 -46.5t42.5 -40t53.5 -16.5q49 0 78.5 42.5t29.5 116.5h16q0 -85 -34 -130.5t-90 -45.5q-32 0 -58 16.5t-44 39.5t-36 46.5t-42.5 40t-53.5 16.5q-50 0 -79 -42t-29 -117z" />
    <glyph glyph-name="notequal" unicode="&#x2260;" horiz-adv-x="640" 
d="M584 428v-18h-214l-89 -201h303v-18h-311l-93 -208l-15 5l90 203h-200v18h209l89 201h-298v18h306l100 224l15 -5l-98 -219h206z" />
    <glyph glyph-name="lessequal" unicode="&#x2264;" horiz-adv-x="640" 
d="M56 373l529 193v-19l-508 -184l508 -183v-19l-529 192v20zM585 31h-529v18h529v-18z" />
    <glyph glyph-name="greaterequal" unicode="&#x2265;" horiz-adv-x="640" 
d="M56 547v19l529 -193v-20l-529 -192v19l508 183zM585 31h-529v18h529v-18z" />
    <glyph glyph-name="uni2460" unicode="&#x2460;" horiz-adv-x="1201" 
d="M988 31q-141 -140 -361 -140t-361 140q-143 140 -143 351q0 212 143 352q142 139 361 139t361 -139q143 -140 143 -352q0 -211 -143 -351zM627 -92q210 0 348 135q138 133 138 339q0 205 -138 340q-139 134 -348 134q-211 0 -348 -134q-138 -134 -138 -340t138 -340
q137 -134 348 -134zM662 167h-17v297h-151v16h107q23 0 33 7t11 28v79h17v-427z" />
    <glyph glyph-name="uni2461" unicode="&#x2461;" horiz-adv-x="1201" 
d="M988 31q-141 -140 -361 -140t-361 140q-143 140 -143 351q0 212 143 352q142 139 361 139t361 -139q143 -140 143 -352q0 -211 -143 -351zM627 -92q210 0 348 135q138 133 138 339q0 205 -138 340q-139 134 -348 134q-211 0 -348 -134q-138 -134 -138 -340t138 -340
q137 -134 348 -134zM786 183h-309q0 107 141 174l57 27q50 24 71.5 50.5t21.5 62.5q0 46 -35.5 76t-98.5 30q-132 0 -135 -127h-18q1 71 41.5 107t111.5 36q69 0 110 -34.5t41 -87.5q0 -41 -23.5 -71t-78.5 -56l-56 -27q-124 -59 -131 -144h290v-16z" />
    <glyph glyph-name="uni2462" unicode="&#x2462;" horiz-adv-x="1201" 
d="M988 31q-141 -140 -361 -140t-361 140q-143 140 -143 351q0 212 143 352q142 139 361 139t361 -139q143 -140 143 -352q0 -211 -143 -351zM627 -92q210 0 348 135q138 133 138 339q0 205 -138 340q-139 134 -348 134q-211 0 -348 -134q-138 -134 -138 -340t138 -340
q137 -134 348 -134zM638 166q-75 0 -120.5 36t-45.5 94h17q0 -51 40.5 -82.5t108.5 -31.5q67 0 105.5 29t38.5 80q0 46 -36.5 74t-98.5 28h-33v16h33q53 0 82.5 25.5t29.5 65.5q0 42 -35.5 67.5t-92.5 25.5q-60 0 -94 -27.5t-34 -77.5h-17q0 55 39.5 88t105.5 33
q65 0 105 -29t40 -79q0 -36 -21 -62.5t-58 -35.5v-2q46 -8 74 -38.5t28 -72.5q0 -56 -44 -90t-117 -34z" />
    <glyph glyph-name="uni2463" unicode="&#x2463;" horiz-adv-x="1201" 
d="M988 31q-141 -140 -361 -140t-361 140q-143 140 -143 351q0 212 143 352q142 139 361 139t361 -139q143 -140 143 -352q0 -211 -143 -351zM627 -92q210 0 348 135q138 133 138 339q0 205 -138 340q-139 134 -348 134q-211 0 -348 -134q-138 -134 -138 -340t138 -340
q137 -134 348 -134zM712 174h-17v120h-259v15l259 292h17v-292h75v-15h-75v-120zM694 577l-237 -268h238v268h-1z" />
    <glyph glyph-name="uni2464" unicode="&#x2464;" horiz-adv-x="1201" 
d="M988 31q-141 -140 -361 -140t-361 140q-143 140 -143 351q0 212 143 352q142 139 361 139t361 -139q143 -140 143 -352q0 -211 -143 -351zM627 -92q210 0 348 135q138 133 138 339q0 205 -138 340q-139 134 -348 134q-211 0 -348 -134q-138 -134 -138 -340t138 -340
q137 -134 348 -134zM630 168q-64 0 -106.5 28t-54.5 75l17 4q10 -40 49 -65t95 -25q68 0 108 34.5t40 91.5q0 56 -38.5 89.5t-104.5 33.5q-87 0 -131 -60l-23 5l44 227h243v-16h-230l-36 -194l1 -1q43 55 133 55q72 0 116 -38.5t44 -100.5q0 -63 -45.5 -103t-120.5 -40z" />
    <glyph glyph-name="uni2465" unicode="&#x2465;" horiz-adv-x="1201" 
d="M988 31q-141 -140 -361 -140t-361 140q-143 140 -143 351q0 212 143 352q142 139 361 139t361 -139q143 -140 143 -352q0 -211 -143 -351zM627 -92q210 0 348 135q138 133 138 339q0 205 -138 340q-139 134 -348 134q-211 0 -348 -134q-138 -134 -138 -340t138 -340
q137 -134 348 -134zM641 170q-171 0 -171 206q0 236 171 236q116 0 142 -104l-16 -4q-23 92 -126 92q-153 0 -155 -227q22 37 62.5 59t93.5 22q71 0 112.5 -37.5t41.5 -99.5q0 -63 -43 -103t-112 -40zM641 186q62 0 100 35t38 91q0 55 -37 88.5t-100 33.5q-55 0 -95 -24.5
t-59 -65.5q6 -78 45.5 -118t107.5 -40z" />
    <glyph glyph-name="uni2466" unicode="&#x2466;" horiz-adv-x="1201" 
d="M988 31q-141 -140 -361 -140t-361 140q-143 140 -143 351q0 212 143 352q142 139 361 139t361 -139q143 -140 143 -352q0 -211 -143 -351zM627 -92q210 0 348 135q138 133 138 339q0 205 -138 340q-139 134 -348 134q-211 0 -348 -134q-138 -134 -138 -340t138 -340
q137 -134 348 -134zM583 154h-17q7 116 62.5 223t151.5 188h-292v16h318v-15q-211 -172 -223 -412z" />
    <glyph glyph-name="uni2467" unicode="&#x2467;" horiz-adv-x="1201" 
d="M988 31q-141 -140 -361 -140t-361 140q-143 140 -143 351q0 212 143 352q142 139 361 139t361 -139q143 -140 143 -352q0 -211 -143 -351zM627 -92q210 0 348 135q138 133 138 339q0 205 -138 340q-139 134 -348 134q-211 0 -348 -134q-138 -134 -138 -340t138 -340
q137 -134 348 -134zM752 202q-49 -35 -125 -35t-125 35q-48 34 -48 92q0 42 28.5 71.5t79.5 39.5v2q-43 8 -67.5 34t-24.5 62q0 48 42.5 77t114.5 29t114.5 -29t42.5 -77q0 -35 -24.5 -61t-67.5 -35v-2q51 -10 79 -39.5t28 -71.5q0 -57 -47 -92zM525 437q37 -24 102 -24
t102 24q37 22 37 64q0 44 -37 68t-102 24t-102.5 -24t-37.5 -67q0 -42 38 -65zM627 183q71 0 113 30.5t42 81.5q0 49 -41 75.5t-114 26.5q-75 0 -115.5 -27t-40.5 -75q0 -51 42 -81.5t114 -30.5z" />
    <glyph glyph-name="uni2468" unicode="&#x2468;" horiz-adv-x="1201" 
d="M988 31q-141 -140 -361 -140t-361 140q-143 140 -143 351q0 212 143 352q142 139 361 139t361 -139q143 -140 143 -352q0 -211 -143 -351zM627 -92q210 0 348 135q138 133 138 339q0 205 -138 340q-139 134 -348 134q-211 0 -348 -134q-138 -134 -138 -340t138 -340
q137 -134 348 -134zM626 164q-117 0 -143 104l17 3q22 -91 125 -91q154 0 155 226q-22 -36 -62.5 -58t-93.5 -22q-71 0 -112.5 37.5t-41.5 99.5q0 63 43 103t112 40q172 0 172 -207q0 -115 -43.5 -175t-127.5 -60zM624 342q55 0 95 24.5t59 65.5q-6 78 -45.5 118t-107.5 40
q-62 0 -100 -35t-38 -91q0 -55 37 -88.5t100 -33.5z" />
    <glyph glyph-name="uni24EA" unicode="&#x24ea;" horiz-adv-x="1201" 
d="M988 31q-141 -140 -361 -140t-361 140q-143 140 -143 351q0 212 143 352q142 139 361 139t361 -139q143 -140 143 -352q0 -211 -143 -351zM627 -92q210 0 348 135q138 133 138 339q0 205 -138 340q-139 134 -348 134q-211 0 -348 -134q-138 -134 -138 -340t138 -340
q137 -134 348 -134zM799 388q0 -222 -172 -222t-172 222q0 221 172 221t172 -221zM627 183q154 0 154 205t-154 205q-155 0 -155 -205t155 -205z" />
    <glyph glyph-name="uni24FF" unicode="&#x24ff;" horiz-adv-x="1201" 
d="M988 31q-141 -140 -361 -140t-361 140q-143 140 -143 351q0 212 143 352q142 139 361 139t361 -139q143 -140 143 -352q0 -211 -143 -351zM455 388q0 -222 172 -222t172 222q0 221 -172 221t-172 -221zM627 183q-155 0 -155 205t155 205q154 0 154 -205t-154 -205z" />
    <glyph glyph-name="filledbox" unicode="&#x25a0;" horiz-adv-x="1323" 
d="M1136 -88h-908v888h908v-888z" />
    <glyph glyph-name="uni25A1" unicode="&#x25a1;" horiz-adv-x="1323" 
d="M1136 -88h-908v888h908v-888zM246 783v-854h872v854h-872z" />
    <glyph glyph-name="lozenge" unicode="&#x25ca;" horiz-adv-x="549" 
d="M287 712h18l208 -356l-208 -356h-18l-209 356zM98 356l198 -339l198 339l-198 339z" />
    <glyph glyph-name="circle" unicode="&#x25cb;" horiz-adv-x="1201" 
d="M988 31q-141 -140 -361 -140t-361 140q-143 140 -143 351q0 212 143 352q142 139 361 139t361 -139q143 -140 143 -352q0 -211 -143 -351zM627 -92q210 0 348 135q138 133 138 339q0 205 -138 340q-139 134 -348 134q-211 0 -348 -134q-138 -134 -138 -340t138 -340
q137 -134 348 -134z" />
    <glyph glyph-name="uni25CF" unicode="&#x25cf;" horiz-adv-x="1201" 
d="M988 31q-141 -140 -361 -140t-361 140q-143 140 -143 351q0 212 143 352q142 139 361 139t361 -139q143 -140 143 -352q0 -211 -143 -351z" />
    <glyph glyph-name="uni2776" unicode="&#x2776;" horiz-adv-x="1201" 
d="M988 31q-141 -140 -361 -140t-361 140q-143 140 -143 351q0 212 143 352q142 139 361 139t361 -139q143 -140 143 -352q0 -211 -143 -351zM644 465v-297h17v427h-17v-79q0 -21 -10 -28t-34 -7h-107v-16h151z" />
    <glyph glyph-name="uni2777" unicode="&#x2777;" horiz-adv-x="1201" 
d="M266 734q142 139 361 139t361 -139q143 -140 143 -352q0 -211 -143 -351q-141 -140 -361 -140t-361 140q-143 140 -143 351q0 212 143 352zM477 183h309v16h-290q7 85 131 144l56 27q55 26 78.5 56t23.5 71q0 53 -41 87.5t-110 34.5q-71 0 -111.5 -36t-41.5 -107h18
q3 127 135 127q63 0 98.5 -30t35.5 -76q0 -36 -21.5 -62.5t-71.5 -50.5l-57 -27q-141 -67 -141 -174z" />
    <glyph glyph-name="uni2778" unicode="&#x2778;" horiz-adv-x="1201" 
d="M988 31q-141 -140 -361 -140t-361 140q-143 140 -143 351q0 212 143 352q142 139 361 139t361 -139q143 -140 143 -352q0 -211 -143 -351zM631 166q73 0 117 34t44 90q0 42 -28 72.5t-74 38.5v2q37 9 58 35.5t21 62.5q0 50 -40 79t-105 29q-66 0 -105.5 -33t-39.5 -88h17
q0 50 34 77.5t94 27.5q57 0 92.5 -25.5t35.5 -67.5q0 -40 -29.5 -65.5t-82.5 -25.5h-33v-16h33q62 0 98.5 -28t36.5 -74q0 -51 -38.5 -80t-105.5 -29q-68 0 -108.5 31.5t-40.5 82.5h-17q0 -58 45.5 -94t120.5 -36z" />
    <glyph glyph-name="uni2779" unicode="&#x2779;" horiz-adv-x="1201" 
d="M988 31q-141 -140 -361 -140t-361 140q-143 140 -143 351q0 212 143 352q142 139 361 139t361 -139q143 -140 143 -352q0 -211 -143 -351zM685 303v-119h17v119h75v16h-75v292h-17l-259 -293v-15h259zM685 319h-238l237 268h1v-268z" />
    <glyph glyph-name="uni277A" unicode="&#x277a;" horiz-adv-x="1201" 
d="M266 734q142 139 361 139t361 -139q143 -140 143 -352q0 -211 -143 -351q-141 -140 -361 -140t-361 140q-143 140 -143 351q0 212 143 352zM631 168q74 0 119.5 40t45.5 103t-43.5 101t-115.5 38q-89 0 -133 -56l-1 2l36 194h230v16h-243l-44 -227l23 -5q42 59 131 59
q66 0 104.5 -33t38.5 -90t-40 -91t-108 -34q-56 0 -95 25t-49 65l-16 -4q12 -46 54 -74.5t106 -28.5z" />
    <glyph glyph-name="uni277B" unicode="&#x277b;" horiz-adv-x="1201" 
d="M988 31q-141 -140 -361 -140t-361 140q-143 140 -143 351q0 212 143 352q142 139 361 139t361 -139q143 -140 143 -352q0 -211 -143 -351zM643 170q69 0 112 40t43 103q0 61 -41.5 99t-112.5 38q-53 0 -93.5 -22t-62.5 -59q0 227 155 227q102 0 125 -92l17 4
q-26 104 -143 104q-171 0 -171 -236q0 -206 172 -206zM643 186q-67 0 -107 40t-47 118q20 41 60 65.5t95 24.5q63 0 100 -33.5t37 -88.5q0 -56 -38 -91t-100 -35z" />
    <glyph glyph-name="uni277C" unicode="&#x277c;" horiz-adv-x="1201" 
d="M988 31q-141 -140 -361 -140t-361 140q-143 140 -143 351q0 212 143 352q142 139 361 139t361 -139q143 -140 143 -352q0 -211 -143 -351zM567 157h17q11 239 222 412v15h-318v-16h293q-97 -82 -152.5 -188.5t-61.5 -222.5z" />
    <glyph glyph-name="uni277D" unicode="&#x277d;" horiz-adv-x="1201" 
d="M988 31q-141 -140 -361 -140t-361 140q-143 140 -143 351q0 212 143 352q142 139 361 139t361 -139q143 -140 143 -352q0 -211 -143 -351zM502 202q49 -35 125 -35t125 35q47 35 47 92q0 42 -28 71.5t-79 39.5v2q43 9 67.5 35t24.5 61q0 48 -42.5 77t-114.5 29
t-114.5 -29t-42.5 -77q0 -36 24.5 -62t67.5 -34v-2q-51 -10 -79.5 -39.5t-28.5 -71.5q0 -58 48 -92zM729 437q-37 -24 -102 -24t-102 24q-38 23 -38 65q0 43 37.5 67t102.5 24t102 -24t37 -68q0 -42 -37 -64zM627 183q-72 0 -114 30.5t-42 81.5q0 48 40.5 75t115.5 27
q73 0 114 -26.5t41 -75.5q0 -51 -42 -81.5t-113 -30.5z" />
    <glyph glyph-name="uni277E" unicode="&#x277e;" horiz-adv-x="1201" 
d="M988 31q-141 -140 -361 -140t-361 140q-143 140 -143 351q0 212 143 352q142 139 361 139t361 -139q143 -140 143 -352q0 -211 -143 -351zM629 168q171 0 171 235q0 207 -171 207q-69 0 -112 -40t-43 -104q0 -61 41.5 -98.5t112.5 -37.5q53 0 93.5 21.5t62.5 58.5
q-1 -226 -155 -226q-104 0 -126 91l-16 -3q26 -104 142 -104zM628 346q-63 0 -100 33t-37 88q0 56 38 91.5t100 35.5q68 0 107.5 -40t45.5 -118q-19 -41 -59 -65.5t-95 -24.5z" />
    <glyph glyph-name="uni2E18" unicode="&#x2e18;" horiz-adv-x="618" 
d="M360 516h41l-8 -41h-41zM479 11h18q-18 -102 -88 -158t-180 -56q-94 0 -149 42t-55 118q0 118 154 197l33 17q53 27 78 57t39 82l9 39h16l-57 -271l-24 -116h-18l24 116l34 156q-30 -45 -112 -87q-83 -41 -121 -85t-38 -105q0 -69 50.5 -106t136.5 -37q104 0 168.5 51.5
t81.5 145.5z" />
    <glyph glyph-name="uniF8FF" unicode="&#xf8ff;" horiz-adv-x="1091" 
d="M413 697q-21 24 -65 24q-48 0 -76 -31.5t-28 -92.5v-148h-9v380h9v-177q22 79 105 79q47 0 72 -28q24 -25 24 -75v-179h-10v178q0 48 -22 70zM833 829h9v-380h-9v380zM743 525h9q-10 -36 -38 -59t-73 -23q-57 0 -90 39.5t-33 105.5q0 65 32.5 104t87.5 39q54 0 87 -36.5
t33 -94.5v-8h-230v-2v-3q0 -62 30.5 -98.5t82.5 -36.5q77 0 102 73zM638 722q-48 0 -77.5 -33.5t-32.5 -88.5h220q-1 55 -30 88.5t-80 33.5zM766 137q-57 0 -90 39.5t-33 105.5q0 65 32.5 104t87.5 39q54 0 87 -36.5t33 -94.5v-8h-230v-2v-3q0 -62 30.5 -98.5t82.5 -36.5
q77 0 102 73h9q-10 -36 -38 -59t-73 -23zM506 151l8 25l101 242h10l-114 -275h-10l-115 275h11l99 -242q1 -4 5 -13t5 -12zM763 416q-48 0 -77.5 -33.5t-32.5 -88.5h220q-1 55 -30 88.5t-80 33.5zM302 183h-14v31h14v-31zM147 187v-78h77v-8h-77v-210q0 -48 45 -48h32v-9
h-33q-54 0 -54 55v212h-56v8h56v78h10zM498 106q-53 0 -82 -35.5t-29 -98.5t29.5 -99t81.5 -36q41 0 67.5 23.5t31.5 63.5h10q-5 -44 -34 -70t-75 -26q-57 0 -88.5 38.5t-31.5 105.5t31.5 105.5t88.5 38.5q48 0 76.5 -26.5t32.5 -64.5h-10q-3 34 -29.5 57.5t-69.5 23.5z
M888 -166h-9q-12 33 -12 73q-22 -79 -113 -79q-46 0 -70 21t-24 55q0 66 85 78l67 9q32 4 43.5 15.5t11.5 34.5v1q0 29 -23.5 47t-67.5 18q-46 0 -67.5 -17.5t-26.5 -54.5h-9q8 80 103 80q49 0 74.5 -19.5t25.5 -53.5v-135q0 -33 12 -73zM300 -166h-10v275h10v-275z
M755 -164q96 0 112 97v76q-11 -21 -53 -26l-68 -10q-76 -10 -76 -69q0 -30 22 -49t63 -19z" />
    <glyph glyph-name="uniFEFF" unicode="&#xfeff;" 
 />
    <glyph glyph-name="null" 
 />
    <glyph glyph-name="Adieresis.ss01" horiz-adv-x="717" 
d="M391 828q-12 0 -19 7.5t-7 18.5q0 25 26 25q25 0 25 -25.5t-25 -25.5zM598 836q-11 -13 -27.5 -6t-16.5 24q0 11 7.5 18t18.5 7q25 0 25 -25q0 -11 -7 -18zM622 0h-19l-53 240h-390l-155 -240h-20l463 717h15zM442 677l-270 -419h374l-91 417l-3 18z" />
    <glyph glyph-name="Cdotaccent.ss01" horiz-adv-x="745" 
d="M503 829q-12 0 -19 7.5t-7 18.5q0 25 26 25q25 0 25 -25.5t-25 -25.5zM358 -12q-121 0 -190 79t-69 206q0 44 11 101q35 165 134 257q99 93 239 93q114 0 182 -62t68 -166h-18q-1 98 -63.5 154.5t-170.5 56.5q-133 0 -226 -87.5t-126 -243.5q-12 -56 -12 -103
q0 -120 65 -194t178 -74q119 0 204 78q76 70 101 157h18q-31 -110 -121 -182q-88 -70 -204 -70z" />
    <glyph glyph-name="Edieresis.ss01" horiz-adv-x="674" 
d="M389 828q-12 0 -19 7.5t-7 18.5q0 25 26 25q25 0 25 -25.5t-25 -25.5zM596 836q-11 -13 -27.5 -6t-16.5 24q0 11 7.5 18t18.5 7q25 0 25 -25q0 -11 -7 -18zM677 712l-4 -17h-449l-66 -313h420l-3 -17h-421l-74 -348h468l-4 -17h-486l152 712h467z" />
    <glyph glyph-name="Edotaccent.ss01" horiz-adv-x="674" 
d="M473 828q-11 0 -18 7.5t-7 18.5q0 25 25 25q17 0 23.5 -12.5t0 -25.5t-23.5 -13zM677 712l-4 -17h-449l-66 -313h420l-3 -17h-421l-74 -348h468l-4 -17h-486l152 712h467z" />
    <glyph glyph-name="uni0122.ss01" horiz-adv-x="831" 
d="M494 707q-139 0 -237 -92q-98 -94 -131 -252q-11 -57 -11 -101q0 -120 65.5 -188.5t183.5 -68.5q122 0 217 77q94 76 127 212l8 38h-282l4 18h299l-74 -350h-16l38 187q-47 -95 -132 -147t-190 -52q-125 0 -196 75q-70 74 -70 200q0 46 11 104q34 164 137 261
q102 96 249 96q123 0 193 -60.5t70 -167.5h-18q0 99 -65.5 155t-179.5 56zM341 -80q10 0 16.5 -6.5t6.5 -16.5q0 -7 -4 -24l-12 -59q-8 -30 -41 -30h-10l3 14h6q23 0 28 20l13 59q-6 -2 -12 -2q-8 0 -13.5 6t-5.5 14q0 25 25 25z" />
    <glyph glyph-name="Gdotaccent.ss01" horiz-adv-x="831" 
d="M514 829q-12 0 -19 7.5t-7 18.5q0 25 26 25q16 0 22.5 -13t0 -25.5t-22.5 -12.5zM494 707q-139 0 -237 -92q-98 -94 -131 -252q-11 -57 -11 -101q0 -120 65.5 -188.5t183.5 -68.5q122 0 217 77q94 76 127 212l8 38h-282l4 18h299l-74 -350h-16l38 187q-47 -95 -132 -147
t-190 -52q-125 0 -196 75q-70 74 -70 200q0 46 11 104q34 164 137 261q102 96 249 96q123 0 193 -60.5t70 -167.5h-18q0 99 -65.5 155t-179.5 56z" />
    <glyph glyph-name="Idieresis.ss01" horiz-adv-x="244" 
d="M155 828q-12 0 -19 7.5t-7 18.5q0 25 26 25q16 0 22 -12.5t0 -25.5t-22 -13zM343 828q-16 0 -22 13t0 25.5t22 12.5q26 0 26 -25q0 -11 -7 -18.5t-19 -7.5zM76 0h-18l152 712h18z" />
    <glyph glyph-name="Idotaccent.ss01" horiz-adv-x="244" 
d="M269 836q-13 -13 -29.5 -6t-16.5 24q0 25 26 25q18 0 25 -15.5t-5 -27.5zM76 0h-18l152 712h18z" />
    <glyph glyph-name="uni0136.ss01" horiz-adv-x="706" 
d="M724 712h28l-380 -295l240 -417h-22l-233 406l-233 -180l-48 -226h-18l152 712h18l-99 -462zM307 -80q23 0 23 -23q0 -8 -4 -23l-12 -60q-8 -29 -41 -29h-10l3 14h6q23 0 28 20l13 59q-6 -2 -12 -2q-19 0 -19 19q0 25 25 25z" />
    <glyph glyph-name="uni013B.ss01" horiz-adv-x="618" 
d="M228 712l-148 -695h433l-4 -17h-451l152 712h18zM265 -80q23 0 23 -23q0 -8 -4 -23l-12 -60q-8 -29 -41 -29h-10l3 14h6q23 0 28 20l13 59q-6 -2 -12 -2q-19 0 -19 19q0 25 25 25z" />
    <glyph glyph-name="Ldot.ss01" horiz-adv-x="618" 
d="M228 712l-148 -695h433l-4 -17h-451l152 712h18zM403 352q-11 -10 -25.5 -5.5t-18 17t6.5 24.5q11 10 25 5.5t18 -17t-6 -24.5z" />
    <glyph glyph-name="uni0145.ss01" horiz-adv-x="753" 
d="M574 27l146 685h17l-152 -712h-16l-347 686l-146 -686h-18l152 712h16zM302 -80q23 0 23 -23q0 -8 -4 -23l-12 -60q-8 -29 -41 -29h-10l3 14h6q23 0 28 20l13 59q-6 -2 -12 -2q-19 0 -19 19q0 25 25 25z" />
    <glyph glyph-name="Odieresis.ss01" horiz-adv-x="825" 
d="M422 829q-12 0 -19 7.5t-7 18.5q0 25 26 25q16 0 22.5 -13t0 -25.5t-22.5 -12.5zM629 837q-11 -13 -27.5 -6t-16.5 24q0 11 7.5 18t18.5 7q25 0 25 -25q0 -11 -7 -18zM365 -12q-125 0 -195 78q-71 77 -71 205q0 51 10 98q32 160 138 257q106 98 253 98q128 0 198 -76
t70 -205q0 -53 -10 -100q-32 -160 -136 -257q-107 -98 -257 -98zM367 5q141 0 242 95q99 93 131 247q10 47 10 96q0 123 -66.5 193.5t-185.5 70.5q-140 0 -240 -94q-101 -95 -131 -248q-10 -44 -10 -93q0 -121 67 -194t183 -73z" />
    <glyph glyph-name="uni0156.ss01" horiz-adv-x="734" 
d="M686 566q0 -89 -55 -148t-148 -72q57 -9 83 -38t26 -83q0 -12 -2 -34l-18 -191h-19l19 188q2 26 2 37q0 62 -37 87.5t-124 25.5h-265l-72 -338h-18l152 712h297q86 0 132.5 -38.5t46.5 -107.5zM152 355h275q107 0 174 58q67 57 67 152q0 62 -42.5 96t-120.5 34h-281z
M308 -80q23 0 23 -23q0 -8 -4 -23l-12 -60q-8 -29 -41 -29h-10l3 14h6q23 0 28 20l13 59q-6 -2 -12 -2q-19 0 -19 19q0 25 25 25z" />
    <glyph glyph-name="uni0218.ss01" horiz-adv-x="672" 
d="M422 724q102 0 161.5 -42.5t59.5 -119.5q0 -16 -3 -33h-18q3 15 3 31q0 70 -55 108.5t-149 38.5q-111 0 -181 -48q-70 -49 -70 -138q0 -103 136 -131l140 -29q143 -29 143 -147q0 -108 -78 -167t-212 -59q-118 0 -181 47.5t-63 142.5q0 4 2 30h18q-2 -24 -2 -27
q0 -87 59 -131.5t168 -44.5q125 0 198.5 54t73.5 154q0 104 -131 131l-138 28q-150 30 -150 149q0 99 76 151q74 52 193 52zM277 -86q23 0 23 -23q0 -8 -4 -23l-12 -60q-8 -29 -41 -29h-10l3 14h6q23 0 28 20l13 59q-6 -2 -12 -2q-19 0 -19 19q0 25 25 25z" />
    <glyph glyph-name="uni021A.ss01" horiz-adv-x="641" 
d="M141 712h543l-4 -17h-263l-148 -695h-18l148 695h-262zM240 -80q23 0 23 -23q0 -8 -4 -23l-12 -60q-8 -29 -41 -29h-10l3 14h6q23 0 28 20l13 59q-6 -2 -12 -2q-19 0 -19 19q0 25 25 25z" />
    <glyph glyph-name="Udieresis.ss01" horiz-adv-x="750" 
d="M389 828q-12 0 -19 7.5t-7 18.5q0 25 26 25q25 0 25 -25.5t-25 -25.5zM596 836q-11 -13 -27.5 -6t-16.5 24q0 11 7.5 18t18.5 7q25 0 25 -25q0 -11 -7 -18zM331 -12q-108 0 -169 44.5t-61 135.5q0 32 9 72l100 472h18l-101 -476q-8 -40 -8 -66q0 -84 56 -124.5t156 -40.5
q235 0 284 231l101 476h18l-101 -476q-53 -248 -302 -248z" />
    <glyph glyph-name="Wdieresis.ss01" horiz-adv-x="936" 
d="M480 828q-12 0 -19 7.5t-7 18.5q0 25 26 25q16 0 22.5 -12.5t0 -25.5t-22.5 -13zM687 836q-11 -13 -27.5 -6t-16.5 24q0 11 7.5 18t18.5 7q25 0 25 -25q0 -11 -7 -18zM673 124l302 588h19l-368 -718h-15l-56 689l-330 -689h-16l-72 718h18l58 -586l9 -102l330 688h17
l48 -588l7 -100z" />
    <glyph glyph-name="Ydieresis.ss01" horiz-adv-x="669" 
d="M368 828q-12 0 -19 7.5t-7 18.5q0 25 26 25q16 0 22.5 -12.5t0 -25.5t-22.5 -13zM575 836q-11 -13 -27.5 -6t-16.5 24q0 11 7.5 18t18.5 7q25 0 25 -25q0 -11 -7 -18zM714 712h24l-387 -426l-62 -286h-18l62 286l-208 426h20l192 -397l6 -15l12 15z" />
    <glyph glyph-name="Zdotaccent.ss01" horiz-adv-x="689" 
d="M472 828q-12 0 -19 7.5t-7 18.5q0 25 26 25q16 0 22.5 -12.5t0 -25.5t-22.5 -13zM203 712h490l-4 -17l-636 -678h506l-4 -17h-530l4 18l636 677h-466z" />
    <glyph glyph-name="G.ss03" horiz-adv-x="803" 
d="M504 708q-140 0 -243 -94q-102 -93 -137 -258q-12 -56 -12 -103q0 -117 64 -183t180 -66q139 0 234 92q94 91 127 237h-290l4 17h307q-33 -171 -136 -266q-104 -96 -246 -96q-125 0 -193.5 69.5t-68.5 193.5q0 49 12 108q38 171 144 268t254 97q118 0 184.5 -62
t68.5 -166h-18q-2 97 -63.5 154.5t-171.5 57.5z" />
    <glyph glyph-name="uni01F4.ss03" horiz-adv-x="803" 
d="M584 984h23l-121 -150h-20zM504 708q-140 0 -243 -94q-102 -93 -137 -258q-12 -56 -12 -103q0 -117 64 -183t180 -66q139 0 234 92q94 91 127 237h-290l4 17h307q-33 -171 -136 -266q-104 -96 -246 -96q-125 0 -193.5 69.5t-68.5 193.5q0 49 12 108q38 171 144 268
t254 97q118 0 184.5 -62t68.5 -166h-18q-2 97 -63.5 154.5t-171.5 57.5z" />
    <glyph glyph-name="Gbreve.ss03" horiz-adv-x="803" 
d="M530 828q-136 0 -136 99q0 13 3 30h15q-2 -26 -2 -29q0 -84 121 -84q137 0 166 113h16q-35 -129 -183 -129zM504 708q-140 0 -243 -94q-102 -93 -137 -258q-12 -56 -12 -103q0 -117 64 -183t180 -66q139 0 234 92q94 91 127 237h-290l4 17h307q-33 -171 -136 -266
q-104 -96 -246 -96q-125 0 -193.5 69.5t-68.5 193.5q0 49 12 108q38 171 144 268t254 97q118 0 184.5 -62t68.5 -166h-18q-2 97 -63.5 154.5t-171.5 57.5z" />
    <glyph glyph-name="Gcircumflex.ss03" horiz-adv-x="803" 
d="M655 822l-96 147l-159 -147h-22l173 162h18l105 -162h-19zM504 708q-140 0 -243 -94q-102 -93 -137 -258q-12 -56 -12 -103q0 -117 64 -183t180 -66q139 0 234 92q94 91 127 237h-290l4 17h307q-33 -171 -136 -266q-104 -96 -246 -96q-125 0 -193.5 69.5t-68.5 193.5
q0 49 12 108q38 171 144 268t254 97q118 0 184.5 -62t68.5 -166h-18q-2 97 -63.5 154.5t-171.5 57.5z" />
    <glyph glyph-name="uni0122.ss03" horiz-adv-x="803" 
d="M504 708q-140 0 -243 -94q-102 -93 -137 -258q-12 -56 -12 -103q0 -117 64 -183t180 -66q139 0 234 92q94 91 127 237h-290l4 17h307q-33 -171 -136 -266q-104 -96 -246 -96q-125 0 -193.5 69.5t-68.5 193.5q0 49 12 108q38 171 144 268t254 97q118 0 184.5 -62
t68.5 -166h-18q-2 97 -63.5 154.5t-171.5 57.5zM348 -115l-31 -3l9 39h43l-21 -101q-6 -30 -33 -30h-17l3 14h14q10 0 14.5 4.5t6.5 16.5z" />
    <glyph glyph-name="Gdotaccent.ss03" horiz-adv-x="803" 
d="M538 920h18l-11 -49h-18zM504 708q-140 0 -243 -94q-102 -93 -137 -258q-12 -56 -12 -103q0 -117 64 -183t180 -66q139 0 234 92q94 91 127 237h-290l4 17h307q-33 -171 -136 -266q-104 -96 -246 -96q-125 0 -193.5 69.5t-68.5 193.5q0 49 12 108q38 171 144 268t254 97
q118 0 184.5 -62t68.5 -166h-18q-2 97 -63.5 154.5t-171.5 57.5z" />
    <glyph glyph-name="uni0122.ss01.ss03" horiz-adv-x="803" 
d="M504 708q-140 0 -243 -94q-102 -93 -137 -258q-12 -56 -12 -103q0 -117 64 -183t180 -66q139 0 234 92q94 91 127 237h-290l4 17h307q-33 -171 -136 -266q-104 -96 -246 -96q-125 0 -193.5 69.5t-68.5 193.5q0 49 12 108q38 171 144 268t254 97q118 0 184.5 -62
t68.5 -166h-18q-2 97 -63.5 154.5t-171.5 57.5zM342 -74q10 0 16.5 -6.5t6.5 -16.5q0 -7 -4 -24l-12 -59q-7 -30 -41 -30h-10l3 14h7q23 0 28 20l12 60q-4 -3 -12 -3t-13.5 6t-5.5 14q0 25 25 25z" />
    <glyph glyph-name="Gdotaccent.ss01.ss03" horiz-adv-x="803" 
d="M536 840q-12 0 -19 7.5t-7 18.5q0 25 26 25q16 0 22.5 -12.5t0 -25.5t-22.5 -13zM504 708q-140 0 -243 -94q-102 -93 -137 -258q-12 -56 -12 -103q0 -117 64 -183t180 -66q139 0 234 92q94 91 127 237h-290l4 17h307q-33 -171 -136 -266q-104 -96 -246 -96
q-125 0 -193.5 69.5t-68.5 193.5q0 49 12 108q38 171 144 268t254 97q118 0 184.5 -62t68.5 -166h-18q-2 97 -63.5 154.5t-171.5 57.5z" />
    <glyph glyph-name="R.ss04" horiz-adv-x="670" 
d="M665 544q0 -100 -71 -165q-73 -66 -183 -67l159 -312h-19l-160 312h-248l-67 -312h-18l152 712h267q90 0 139 -44.5t49 -123.5zM146 329h260q106 0 173 61q68 60 68 152q0 74 -43.5 113.5t-128.5 39.5h-251z" />
    <glyph glyph-name="Racute.ss04" horiz-adv-x="670" 
d="M505 972h23l-121 -150h-20zM665 544q0 -100 -71 -165q-73 -66 -183 -67l159 -312h-19l-160 312h-248l-67 -312h-18l152 712h267q90 0 139 -44.5t49 -123.5zM146 329h260q106 0 173 61q68 60 68 152q0 74 -43.5 113.5t-128.5 39.5h-251z" />
    <glyph glyph-name="Rcaron.ss04" horiz-adv-x="670" 
d="M621 970l-173 -162h-18l-106 162h20l96 -147l159 147h22zM665 544q0 -100 -71 -165q-73 -66 -183 -67l159 -312h-19l-160 312h-248l-67 -312h-18l152 712h267q90 0 139 -44.5t49 -123.5zM146 329h260q106 0 173 61q68 60 68 152q0 74 -43.5 113.5t-128.5 39.5h-251z" />
    <glyph glyph-name="uni0156.ss04" horiz-adv-x="670" 
d="M665 544q0 -100 -71 -165q-73 -66 -183 -67l159 -312h-19l-160 312h-248l-67 -312h-18l152 712h267q90 0 139 -44.5t49 -123.5zM146 329h260q106 0 173 61q68 60 68 152q0 74 -43.5 113.5t-128.5 39.5h-251zM285 -120l-31 -4l8 40h44l-21 -101q-7 -30 -33 -30h-17l3 14
h13q10 0 14.5 4.5t6.5 16.5z" />
    <glyph glyph-name="uni0156.ss01.ss04" horiz-adv-x="670" 
d="M665 544q0 -100 -71 -165q-73 -66 -183 -67l159 -312h-19l-160 312h-248l-67 -312h-18l152 712h267q90 0 139 -44.5t49 -123.5zM146 329h260q106 0 173 61q68 60 68 152q0 74 -43.5 113.5t-128.5 39.5h-251zM278 -80q23 0 23 -23q0 -8 -4 -23l-12 -60q-8 -29 -41 -29h-10
l3 14h6q23 0 28 20l13 59q-6 -2 -12 -2q-19 0 -19 19q0 25 25 25z" />
    <glyph glyph-name="i.loclTRK" horiz-adv-x="205" 
d="M198 664h-18l11 48h18zM57 0h-18l110 516h18z" />
    <glyph glyph-name="adieresis.ss01" horiz-adv-x="578" 
d="M293 669q-13 -13 -29 -6t-16 24q0 25 26 25t26 -25q0 -11 -7 -18zM463 661q-11 0 -18.5 7.5t-7.5 18.5q0 12 7.5 19t18.5 7q26 0 26 -26q0 -11 -7 -18.5t-19 -7.5zM500 16h16l-3 -16h-15q-56 0 -73.5 29t-3.5 95l1 6q-70 -142 -232 -142q-75 0 -115.5 35t-40.5 93
q0 135 188 161l132 18q61 9 86.5 30.5t34.5 63.5q14 61 -27 91.5t-125 30.5q-88 0 -134 -35.5t-65 -109.5l-18 1q39 161 220 161q84 0 127 -28.5t43 -77.5q0 -18 -3 -33l-56 -268q-12 -57 2 -81t61 -24zM195 4q171 0 238 181l30 145q-26 -40 -108 -50l-130 -19
q-173 -24 -173 -144q0 -52 36.5 -82.5t106.5 -30.5z" />
    <glyph glyph-name="cdotaccent.ss01" horiz-adv-x="547" 
d="M396 669q-13 -12 -28.5 -5.5t-15.5 23.5q0 26 25 26q11 0 18.5 -7t7.5 -19q0 -11 -7 -18zM240 -12q-83 0 -134 57.5t-51 153.5q0 37 7 71q24 124 94.5 191t174.5 67q91 0 135 -50q42 -50 42 -119h-18q0 60 -38 107q-38 45 -121 45q-98 0 -163.5 -63.5t-87.5 -180.5
q-7 -32 -7 -68q0 -89 46 -141.5t122 -52.5q80 0 134.5 43.5t81.5 121.5h18q-28 -86 -87.5 -134t-147.5 -48z" />
    <glyph glyph-name="edieresis.ss01" horiz-adv-x="573" 
d="M299 669q-13 -13 -29 -6t-16 24q0 25 26 25t26 -25q0 -11 -7 -18zM469 661q-11 0 -18.5 7.5t-7.5 18.5q0 12 7.5 19t18.5 7q26 0 26 -26q0 -11 -7 -18.5t-19 -7.5zM515 267h-435q-7 -32 -7 -69q0 -88 48 -140.5t127 -52.5q87 0 143 47q55 46 78 105l17 -1
q-22 -63 -84 -116q-61 -52 -154 -52q-87 0 -140 57.5t-53 153.5q0 38 8 76q26 117 100 185t175 68q87 0 137 -50t50 -134q0 -38 -10 -77zM338 511q-91 0 -161 -62q-68 -61 -94 -166h418q7 35 7 60q0 77 -45.5 122.5t-124.5 45.5z" />
    <glyph glyph-name="edotaccent.ss01" horiz-adv-x="573" 
d="M394 669q-13 -12 -28.5 -5.5t-15.5 23.5q0 26 25 26q11 0 18.5 -7t7.5 -19q0 -11 -7 -18zM515 267h-435q-7 -32 -7 -69q0 -88 48 -140.5t127 -52.5q87 0 143 47q55 46 78 105l17 -1q-22 -63 -84 -116q-61 -52 -154 -52q-87 0 -140 57.5t-53 153.5q0 38 8 76
q26 117 100 185t175 68q87 0 137 -50t50 -134q0 -38 -10 -77zM338 511q-91 0 -161 -62q-68 -61 -94 -166h418q7 35 7 60q0 77 -45.5 122.5t-124.5 45.5z" />
    <glyph glyph-name="uni0123.ss01" horiz-adv-x="599" 
d="M396 660q-23 0 -23 23q0 7 4 24l10 45q6 30 40 30h11l-4 -14h-6q-23 0 -28 -20l-9 -45q6 2 11 2q8 0 13.5 -6t5.5 -14q0 -25 -25 -25zM508 353l35 163h17l-111 -524q-44 -197 -247 -197q-54 0 -93 14.5t-57.5 37.5t-26.5 44t-8 40h18q1 -34 32 -73q36 -46 138 -46
q190 0 227 181l35 162q-34 -75 -95.5 -121t-134.5 -46q-87 0 -135 54t-48 148q-3 135 75 237t197 101q81 0 128.5 -47.5t53.5 -127.5zM239 5q72 0 134 50q61 50 92 123q31 72 31 153q0 84 -46.5 132t-122.5 48q-117 0 -186 -95q-69 -96 -69 -227q0 -86 43.5 -135t123.5 -49z
" />
    <glyph glyph-name="gdotaccent.ss01" horiz-adv-x="599" 
d="M415 669q-13 -12 -28.5 -5.5t-15.5 23.5q0 26 25 26q11 0 18.5 -7t7.5 -19q0 -11 -7 -18zM508 353l35 163h17l-111 -524q-44 -197 -247 -197q-54 0 -93 14.5t-57.5 37.5t-26.5 44t-8 40h18q1 -34 32 -73q36 -46 138 -46q190 0 227 181l35 162q-34 -75 -95.5 -121
t-134.5 -46q-87 0 -135 54t-48 148q-3 135 75 237t197 101q81 0 128.5 -47.5t53.5 -127.5zM239 5q72 0 134 50q61 50 92 123q31 72 31 153q0 84 -46.5 132t-122.5 48q-117 0 -186 -95q-69 -96 -69 -227q0 -86 43.5 -135t123.5 -49z" />
    <glyph glyph-name="i.ss01" horiz-adv-x="205" 
d="M213 669q-13 -13 -29 -6t-16 24q0 25 26 25t26 -25q0 -11 -7 -18zM57 0h-18l110 516h18z" />
    <glyph glyph-name="idieresis.ss01" horiz-adv-x="205" 
d="M100 661q-12 0 -19 7.5t-7 18.5q0 26 26 26q11 0 18.5 -7t7.5 -19q0 -11 -7.5 -18.5t-18.5 -7.5zM288 661q-11 0 -18 7.5t-7 18.5q0 26 25 26q26 0 26 -26q0 -11 -7 -18.5t-19 -7.5zM57 0h-18l110 516h18z" />
    <glyph glyph-name="i.loclTRK.ss01" horiz-adv-x="205" 
d="M213 669q-13 -13 -29 -6t-16 24q0 25 26 25t26 -25q0 -11 -7 -18zM57 0h-18l110 516h18z" />
    <glyph glyph-name="ij.ss01" horiz-adv-x="410" 
d="M213 669q-13 -13 -29 -6t-16 24q0 25 26 25t26 -25q0 -11 -7 -18zM400 661q-12 0 -19 7.5t-7 18.5q0 26 26 26q25 0 25 -26q0 -11 -7 -18.5t-18 -7.5zM57 0h-18l110 516h18zM102 -204h-29l3 17h26q101 0 124 104l128 599h18l-129 -601q-26 -119 -141 -119z" />
    <glyph glyph-name="iogonek.ss01" horiz-adv-x="205" 
d="M176 706q12 12 28 5.5t16 -24.5q0 -25 -26 -25t-26 25q0 11 8 19zM-62 -75l102 80l109 511h18l-110 -516l-106 -84q-30 -22 -30 -52q0 -22 18 -35.5t50 -13.5h28l-3 -16h-30q-38 0 -59.5 17.5t-21.5 45.5q0 36 35 63z" />
    <glyph glyph-name="j.ss01" horiz-adv-x="205" 
d="M195 661q-12 0 -19 7.5t-7 18.5q0 26 26 26q25 0 25 -26q0 -11 -7 -18.5t-18 -7.5zM-103 -204h-29l3 17h26q101 0 124 104l128 599h18l-129 -601q-26 -119 -141 -119z" />
    <glyph glyph-name="uni0137.ss01" horiz-adv-x="553" 
d="M530 516h26l-272 -205l176 -311h-20l-170 301l-178 -135l-35 -166h-18l152 712h18l-112 -523zM234 -80q23 0 23 -23q0 -8 -4 -23l-12 -60q-8 -29 -41 -29h-10l3 14h6q23 0 28 20l13 59q-6 -2 -12 -2q-19 0 -19 19q0 25 25 25z" />
    <glyph glyph-name="uni013C.ss01" horiz-adv-x="206" 
d="M39 0l152 712h18l-152 -712h-18zM28 -80q23 0 23 -23q0 -8 -4 -23l-12 -60q-8 -29 -41 -29h-10l3 14h6q23 0 28 20l13 59q-6 -2 -12 -2q-19 0 -19 19q0 25 25 25z" />
    <glyph glyph-name="ldot.ss01" horiz-adv-x="269" 
d="M57 0h-18l152 712h18zM252 337q-12 -10 -26.5 -5.5t-17.5 17t7 24.5q11 10 25.5 5.5t18.5 -17t-7 -24.5z" />
    <glyph glyph-name="napostrophe.ss01" horiz-adv-x="809" 
d="M217 717q27 0 27 -25q0 -10 -4 -27l-19 -89q-6 -27 -18 -39t-35 -12h-6l3 15h5q17 0 24 7.5t12 28.5l19 92h-9q-29 0 -29 24q0 25 30 25zM589 528q72 0 110.5 -37t38.5 -103q0 -22 -6 -54l-72 -334h-18l72 334q5 35 5 53q0 61 -34 92.5t-98 31.5q-86 0 -150 -55.5
t-90 -161.5l-63 -294h-18l110 516h18l-29 -138q34 72 91.5 111t132.5 39z" />
    <glyph glyph-name="uni0146.ss01" horiz-adv-x="582" 
d="M362 528q71 0 109.5 -36.5t38.5 -103.5q0 -22 -6 -54l-71 -334h-18l71 334q6 29 6 53q0 61 -34 92.5t-98 31.5q-86 0 -150 -54.5t-90 -159.5l-63 -297h-18l110 516h18l-30 -137q74 149 225 149zM225 -80q23 0 23 -23q0 -8 -4 -23l-12 -60q-8 -29 -41 -29h-10l3 14h6
q23 0 28 20l13 59q-6 -2 -12 -2q-19 0 -19 19q0 25 25 25z" />
    <glyph glyph-name="odieresis.ss01" horiz-adv-x="591" 
d="M311 669q-13 -13 -29 -6t-16 24q0 25 26 25t26 -25q0 -11 -7 -18zM481 661q-11 0 -18.5 7.5t-7.5 18.5q0 12 7.5 19t18.5 7q26 0 26 -26q0 -11 -7 -18.5t-19 -7.5zM251 -12q-90 0 -143 57t-53 153q0 39 7 73q23 119 99 188q75 69 180 69q90 0 143 -56.5t53 -151.5
q0 -29 -8 -74q-22 -120 -96.5 -189t-181.5 -69zM251 5q99 0 168.5 65t91.5 179q8 45 8 71q0 89 -48.5 140t-130.5 51q-96 0 -167 -65q-70 -66 -93 -179q-7 -32 -7 -69q0 -89 48.5 -141t129.5 -52z" />
    <glyph glyph-name="uni0157.ss01" horiz-adv-x="399" 
d="M345 529q37 0 61 -6l-4 -17q-33 5 -59 5q-79 0 -140 -56.5t-83 -163.5h-1l-61 -291h-18l109 516h17l-27 -131q33 69 87.5 106.5t118.5 37.5zM27 -80q23 0 23 -23q0 -8 -4 -23l-12 -60q-8 -29 -41 -29h-10l3 14h6q23 0 28 20l13 59q-6 -2 -12 -2q-19 0 -19 19q0 25 25 25z
" />
    <glyph glyph-name="uni0219.ss01" horiz-adv-x="529" 
d="M302 508q-82 0 -132.5 -35t-50.5 -95q0 -44 30 -67t92 -32l67 -11q68 -10 98.5 -38.5t30.5 -79.5q0 -79 -57 -120.5t-156 -41.5q-88 0 -137 38t-49 106h18q0 -61 44.5 -94t125.5 -33q90 0 141.5 37.5t51.5 106.5q0 44 -27.5 68t-89.5 34l-67 11q-66 12 -99.5 39t-33.5 76
q0 69 55.5 108t146.5 39q80 0 125.5 -37.5t45.5 -102.5h-18q0 59 -41 91.5t-114 32.5zM194 -80q23 0 23 -23q0 -8 -4 -23l-12 -60q-8 -29 -41 -29h-10l3 14h6q23 0 28 20l12 58q-3 -1 -11 -1q-19 0 -19 19q0 25 25 25z" />
    <glyph glyph-name="uni021B.ss01" horiz-adv-x="331" 
d="M197 500l-2 -10l-82 -382q-4 -23 -4 -37q0 -54 69 -54h59l-3 -17h-59q-85 0 -85 68q0 14 5 39l82 383l2 10h-105l2 16h106l2 8l29 139h18l-29 -139l-2 -8h144l-3 -16h-144zM75 -74q23 0 23 -23q0 -8 -4 -23l-12 -60q-8 -29 -41 -29h-10l3 14h6q23 0 28 20l13 59
q-6 -2 -12 -2q-19 0 -19 19q0 25 25 25z" />
    <glyph glyph-name="udieresis.ss01" horiz-adv-x="582" 
d="M296 669q-13 -13 -29 -6t-16 24q0 25 26 25t26 -25q0 -11 -7 -18zM466 661q-11 0 -18.5 7.5t-7.5 18.5q0 12 7.5 19t18.5 7q26 0 26 -26q0 -11 -7 -18.5t-19 -7.5zM462 219l63 297h18l-110 -516h-18l30 137q-74 -149 -225 -149q-71 0 -109.5 36.5t-38.5 103.5q0 22 6 54
l71 334h18l-71 -334q-6 -29 -6 -53q0 -61 34 -92.5t98 -31.5q86 0 150 54.5t90 159.5z" />
    <glyph glyph-name="wdieresis.ss01" horiz-adv-x="763" 
d="M381 669q-13 -13 -29 -6t-16 24q0 25 26 25t26 -25q0 -11 -7 -18zM551 661q-11 0 -18.5 7.5t-7.5 18.5q0 12 7.5 19t18.5 7q26 0 26 -26q0 -11 -7 -18.5t-19 -7.5zM512 91l228 425h19l-278 -516h-17l-43 437l-4 58l-28 -58l-229 -437h-17l-60 516h19l48 -425l7 -69l33 69
l223 425h17l43 -425l6 -67z" />
    <glyph glyph-name="ydieresis.ss01" horiz-adv-x="545" 
d="M273 669q-13 -13 -29 -6t-16 24q0 25 26 25t26 -25q0 -11 -7 -18zM443 661q-11 0 -18.5 7.5t-7.5 18.5q0 12 7.5 19t18.5 7q26 0 26 -26q0 -11 -7 -18.5t-19 -7.5zM206 -4l315 520h20l-387 -635q-29 -50 -59 -68q-32 -17 -87 -17h-31l4 17h26q52 0 79.5 16t54.5 60l53 88
l-111 539h19l101 -498z" />
    <glyph glyph-name="zdotaccent.ss01" horiz-adv-x="522" 
d="M371 669q-13 -12 -28.5 -5.5t-15.5 23.5q0 26 25 26q11 0 18.5 -7t7.5 -19q0 -11 -7 -18zM126 516h376l-3 -13l-466 -486h379l-4 -17h-404l3 14l465 485h-350z" />
    <glyph glyph-name="a.ss02" horiz-adv-x="596" 
d="M508 369l32 147h17l-110 -516h-17l32 153q-37 -75 -100.5 -120t-138.5 -45q-81 0 -126.5 50.5t-45.5 138.5q0 139 81 245q79 106 203 106q79 0 121.5 -42t51.5 -117zM227 5q115 0 191 103q75 102 75 231q0 83 -42.5 128t-117.5 45q-116 0 -189 -100q-74 -101 -74 -232
q0 -82 41 -128.5t116 -46.5z" />
    <glyph glyph-name="aacute.ss02" horiz-adv-x="596" 
d="M419 776h23l-121 -150h-20zM508 369l32 147h17l-110 -516h-17l32 153q-37 -75 -100.5 -120t-138.5 -45q-81 0 -126.5 50.5t-45.5 138.5q0 139 81 245q79 106 203 106q79 0 121.5 -42t51.5 -117zM227 5q115 0 191 103q75 102 75 231q0 83 -42.5 128t-117.5 45
q-116 0 -189 -100q-74 -101 -74 -232q0 -82 41 -128.5t116 -46.5z" />
    <glyph glyph-name="abreve.ss02" horiz-adv-x="596" 
d="M366 620q-136 0 -136 99q0 13 3 30h15q-2 -26 -2 -29q0 -84 121 -84q137 0 166 113h16q-35 -129 -183 -129zM508 369l32 147h17l-110 -516h-17l32 153q-37 -75 -100.5 -120t-138.5 -45q-81 0 -126.5 50.5t-45.5 138.5q0 139 81 245q79 106 203 106q79 0 121.5 -42
t51.5 -117zM227 5q115 0 191 103q75 102 75 231q0 83 -42.5 128t-117.5 45q-116 0 -189 -100q-74 -101 -74 -232q0 -82 41 -128.5t116 -46.5z" />
    <glyph glyph-name="acircumflex.ss02" horiz-adv-x="596" 
d="M490 614l-96 147l-159 -147h-22l173 162h18l105 -162h-19zM508 369l32 147h17l-110 -516h-17l32 153q-37 -75 -100.5 -120t-138.5 -45q-81 0 -126.5 50.5t-45.5 138.5q0 139 81 245q79 106 203 106q79 0 121.5 -42t51.5 -117zM227 5q115 0 191 103q75 102 75 231
q0 83 -42.5 128t-117.5 45q-116 0 -189 -100q-74 -101 -74 -232q0 -82 41 -128.5t116 -46.5z" />
    <glyph glyph-name="adieresis.ss02" horiz-adv-x="596" 
d="M286 712h18l-10 -48h-18zM460 712h18l-10 -48h-18zM508 369l32 147h17l-110 -516h-17l32 153q-37 -75 -100.5 -120t-138.5 -45q-81 0 -126.5 50.5t-45.5 138.5q0 139 81 245q79 106 203 106q79 0 121.5 -42t51.5 -117zM227 5q115 0 191 103q75 102 75 231q0 83 -42.5 128
t-117.5 45q-116 0 -189 -100q-74 -101 -74 -232q0 -82 41 -128.5t116 -46.5z" />
    <glyph glyph-name="agrave.ss02" horiz-adv-x="596" 
d="M289 776l85 -150h-18l-89 150h22zM508 369l32 147h17l-110 -516h-17l32 153q-37 -75 -100.5 -120t-138.5 -45q-81 0 -126.5 50.5t-45.5 138.5q0 139 81 245q79 106 203 106q79 0 121.5 -42t51.5 -117zM227 5q115 0 191 103q75 102 75 231q0 83 -42.5 128t-117.5 45
q-116 0 -189 -100q-74 -101 -74 -232q0 -82 41 -128.5t116 -46.5z" />
    <glyph glyph-name="amacron.ss02" horiz-adv-x="596" 
d="M232 679h286l-3 -16h-286zM508 369l32 147h17l-110 -516h-17l32 153q-37 -75 -100.5 -120t-138.5 -45q-81 0 -126.5 50.5t-45.5 138.5q0 139 81 245q79 106 203 106q79 0 121.5 -42t51.5 -117zM227 5q115 0 191 103q75 102 75 231q0 83 -42.5 128t-117.5 45
q-116 0 -189 -100q-74 -101 -74 -232q0 -82 41 -128.5t116 -46.5z" />
    <glyph glyph-name="aogonek.ss02" horiz-adv-x="600" 
d="M451 0l-105 -84q-31 -22 -31 -52q0 -22 18 -35.5t50 -13.5h29l-4 -16h-30q-38 0 -59.5 17.5t-21.5 45.5q0 34 35 63l103 81l32 151q-35 -71 -96 -114t-135 -43q-84 0 -133 52.5t-49 139.5q0 86 33 162q33 78 96 126t139 48q81 0 132 -47.5t56 -126.5l34 162h17zM238 17
q112 0 186 96q73 95 73 220q0 81 -47 129.5t-128 48.5q-108 1 -180.5 -98t-69.5 -221q0 -79 44.5 -127t121.5 -48z" />
    <glyph glyph-name="aring.ss02" horiz-adv-x="596" 
d="M459 628q-31 -30 -78 -30t-77 30q-31 30 -31 76q0 47 30.5 77.5t77.5 30.5t77.5 -30.5t30.5 -77.5q0 -46 -30 -76zM381 796q-40 0 -65.5 -25.5t-25.5 -66.5q0 -39 26 -64.5t65 -25.5q40 0 66 24.5t26 65.5t-26 66.5t-66 25.5zM508 369l32 147h17l-110 -516h-17l32 153
q-37 -75 -100.5 -120t-138.5 -45q-81 0 -126.5 50.5t-45.5 138.5q0 139 81 245q79 106 203 106q79 0 121.5 -42t51.5 -117zM227 5q115 0 191 103q75 102 75 231q0 83 -42.5 128t-117.5 45q-116 0 -189 -100q-74 -101 -74 -232q0 -82 41 -128.5t116 -46.5z" />
    <glyph glyph-name="aringacute.ss02" horiz-adv-x="596" 
d="M483 1014h23l-121 -149h-20zM455 620q-31 -30 -78 -30t-77 30q-31 30 -31 76q0 47 30.5 77.5t77.5 30.5t77.5 -30.5t30.5 -77.5q0 -46 -30 -76zM377 788q-40 0 -65.5 -25.5t-25.5 -66.5q0 -39 26 -64.5t65 -25.5q40 0 66 24.5t26 65.5t-26 66.5t-66 25.5zM508 369l32 147
h17l-110 -516h-17l32 153q-37 -75 -100.5 -120t-138.5 -45q-81 0 -126.5 50.5t-45.5 138.5q0 139 81 245q79 106 203 106q79 0 121.5 -42t51.5 -117zM227 5q115 0 191 103q75 102 75 231q0 83 -42.5 128t-117.5 45q-116 0 -189 -100q-74 -101 -74 -232q0 -82 41 -128.5
t116 -46.5z" />
    <glyph glyph-name="atilde.ss02" horiz-adv-x="596" 
d="M302 766q-68 0 -104 -135h-17q39 151 124 151q57 0 79 -67q22 -68 73 -68q34 0 58.5 31.5t44.5 103.5h17q-39 -151 -123 -151q-32 0 -52 21t-28 46.5t-26 46.5t-46 21zM508 369l32 147h17l-110 -516h-17l32 153q-37 -75 -100.5 -120t-138.5 -45q-81 0 -126.5 50.5
t-45.5 138.5q0 139 81 245q79 106 203 106q79 0 121.5 -42t51.5 -117zM227 5q115 0 191 103q75 102 75 231q0 83 -42.5 128t-117.5 45q-116 0 -189 -100q-74 -101 -74 -232q0 -82 41 -128.5t116 -46.5z" />
    <glyph glyph-name="adieresis.ss01.ss02" horiz-adv-x="596" 
d="M301 669q-13 -13 -29 -6t-16 24q0 25 26 25t26 -25q0 -11 -7 -18zM471 661q-11 0 -18.5 7.5t-7.5 18.5q0 12 7.5 19t18.5 7q26 0 26 -26q0 -11 -7 -18.5t-19 -7.5zM508 369l32 147h17l-110 -516h-17l32 153q-37 -75 -100.5 -120t-138.5 -45q-81 0 -126.5 50.5
t-45.5 138.5q0 139 81 245q79 106 203 106q79 0 121.5 -42t51.5 -117zM227 5q115 0 191 103q75 102 75 231q0 83 -42.5 128t-117.5 45q-116 0 -189 -100q-74 -101 -74 -232q0 -82 41 -128.5t116 -46.5z" />
    <glyph glyph-name="uni021B.ss01.ss05" horiz-adv-x="312" 
d="M220 516h125l-3 -16h-125l-106 -500h-18l106 500h-125l2 16h126l31 147h18zM82 -80q23 0 23 -23q0 -8 -4 -23l-12 -60q-8 -29 -41 -29h-10l3 14h6q23 0 28 20l13 59q-6 -2 -12 -2q-19 0 -19 19q0 25 25 25z" />
    <glyph glyph-name="udieresis.ss01.ss05" horiz-adv-x="582" 
d="M296 669q-13 -13 -29 -6t-16 24q0 25 26 25t26 -25q0 -11 -7 -18zM466 661q-11 0 -18.5 7.5t-7.5 18.5q0 12 7.5 19t18.5 7q26 0 26 -26q0 -11 -7 -18.5t-19 -7.5zM462 219l63 297h18l-110 -516h-18l30 137q-74 -149 -225 -149q-71 0 -109.5 36.5t-38.5 103.5q0 22 6 54
l71 334h18l-71 -334q-6 -29 -6 -53q0 -61 34 -92.5t98 -31.5q86 0 150 54.5t90 159.5z" />
    <glyph glyph-name="t.ss05" horiz-adv-x="312" 
d="M220 516h125l-3 -16h-125l-106 -500h-18l106 500h-125l3 16h125l31 147h18z" />
    <glyph glyph-name="tbar.ss05" horiz-adv-x="312" 
d="M345 516l-3 -16h-125l-50 -234h125l-3 -16h-125l-53 -250h-18l53 250h-125l3 16h125l50 234h-125l3 16h125l31 147h18l-31 -147h125z" />
    <glyph glyph-name="tcaron.ss05" horiz-adv-x="320" 
d="M327 623l109 198h20l-111 -198h-18zM233 663h18l-31 -147h125l-3 -16h-125l-106 -500h-18l106 500h-125l2 16h126z" />
    <glyph glyph-name="uni0163.ss05" horiz-adv-x="312" 
d="M345 516l-3 -16h-125l-106 -500h1l-57 -69h33q37 0 56.5 -16.5t19.5 -44.5q0 -41 -33 -62t-90 -21h-38l2 15h36q106 0 106 67q0 46 -63 46h-41l-8 13l59 72h-1l106 500h-125l2 16h126l31 147h18l-31 -147h125z" />
    <glyph glyph-name="uni021B.ss05" horiz-adv-x="312" 
d="M220 516h125l-3 -16h-125l-106 -500h-18l106 500h-125l2 16h126l31 147h18zM89 -120l-31 -4l8 40h44l-21 -101q-7 -30 -33 -30h-17l3 14h13q10 0 14.5 4.5t6.5 16.5z" />
    <glyph glyph-name="udieresis.ss01.ss06" horiz-adv-x="583" 
d="M296 669q-13 -13 -29 -6t-16 24q0 25 26 25t26 -25q0 -11 -7 -18zM466 661q-11 0 -18.5 7.5t-7.5 18.5q0 12 7.5 19t18.5 7q26 0 26 -26q0 -11 -7 -18.5t-19 -7.5zM240 -7q-79 0 -123 36.5t-44 104.5q0 24 6 51l70 331h18l-70 -331q-6 -25 -6 -50q0 -61 39 -93t111 -32
q86 0 141 45t73 130l70 331h18l-70 -334q-19 -91 -79.5 -140t-153.5 -49z" />
    <glyph glyph-name="u.ss06" horiz-adv-x="583" 
d="M240 -7q-79 0 -123 36.5t-44 104.5q0 24 6 51l70 331h18l-70 -331q-6 -25 -6 -50q0 -61 39 -93t111 -32q86 0 141 45t73 130l70 331h18l-70 -334q-19 -91 -79.5 -140t-153.5 -49z" />
    <glyph glyph-name="uacute.ss06" horiz-adv-x="583" 
d="M316 626h-20l118 150h23zM240 -7q-79 0 -123 36.5t-44 104.5q0 24 6 51l70 331h18l-70 -331q-6 -25 -6 -50q0 -61 39 -93t111 -32q86 0 141 45t73 130l70 331h18l-70 -334q-19 -91 -79.5 -140t-153.5 -49z" />
    <glyph glyph-name="ubreve.ss06" horiz-adv-x="583" 
d="M361 620q-136 0 -136 99q0 13 3 30h15q-2 -26 -2 -29q0 -84 121 -84q137 0 166 113h16q-34 -129 -183 -129zM240 -7q-79 0 -123 36.5t-44 104.5q0 24 6 51l70 331h18l-70 -331q-6 -25 -6 -50q0 -61 39 -93t111 -32q86 0 141 45t73 130l70 331h18l-70 -334
q-19 -91 -79.5 -140t-153.5 -49z" />
    <glyph glyph-name="ucircumflex.ss06" horiz-adv-x="583" 
d="M230 614h-22l173 162h18l105 -162h-19l-96 147zM240 -7q-79 0 -123 36.5t-44 104.5q0 24 6 51l70 331h18l-70 -331q-6 -25 -6 -50q0 -61 39 -93t111 -32q86 0 141 45t73 130l70 331h18l-70 -334q-19 -91 -79.5 -140t-153.5 -49z" />
    <glyph glyph-name="udieresis.ss06" horiz-adv-x="583" 
d="M289 664h-18l10 48h18zM463 664h-18l10 48h18zM240 -7q-79 0 -123 36.5t-44 104.5q0 24 6 51l70 331h18l-70 -331q-6 -25 -6 -50q0 -61 39 -93t111 -32q86 0 141 45t73 130l70 331h18l-70 -334q-19 -91 -79.5 -140t-153.5 -49z" />
    <glyph glyph-name="ugrave.ss06" horiz-adv-x="583" 
d="M369 626h-18l-89 150h22zM240 -7q-79 0 -123 36.5t-44 104.5q0 24 6 51l70 331h18l-70 -331q-6 -25 -6 -50q0 -61 39 -93t111 -32q86 0 141 45t73 130l70 331h18l-70 -334q-19 -91 -79.5 -140t-153.5 -49z" />
    <glyph glyph-name="uhungarumlaut.ss06" horiz-adv-x="583" 
d="M260 612h-19l110 164h21zM435 612h-19l127 164h21zM240 -7q-79 0 -123 36.5t-44 104.5q0 24 6 51l70 331h18l-70 -331q-6 -25 -6 -50q0 -61 39 -93t111 -32q86 0 141 45t73 130l70 331h18l-70 -334q-19 -91 -79.5 -140t-153.5 -49z" />
    <glyph glyph-name="umacron.ss06" horiz-adv-x="583" 
d="M510 663h-286l3 16h286zM240 -7q-79 0 -123 36.5t-44 104.5q0 24 6 51l70 331h18l-70 -331q-6 -25 -6 -50q0 -61 39 -93t111 -32q86 0 141 45t73 130l70 331h18l-70 -334q-19 -91 -79.5 -140t-153.5 -49z" />
    <glyph glyph-name="uogonek.ss06" horiz-adv-x="583" 
d="M455 185l70 331h18l-70 -334q-31 -148 -164 -181l-79 -40q-35 -17 -57 -34q-27 -19 -27 -53q0 -25 19 -40.5t52 -15.5h38l-3 -16h-37q-41 0 -64 19t-23 52q0 39 31 61q22 17 27 19l38 20l42 21q-5 -1 -26 -1q-79 0 -123 36.5t-44 104.5q0 24 6 51l70 331h18l-70 -331
q-6 -25 -6 -50q0 -61 39 -93t111 -32q86 0 141 45t73 130z" />
    <glyph glyph-name="uring.ss06" horiz-adv-x="583" 
d="M455 628q-31 -30 -78 -30t-77 30q-31 30 -31 76q0 47 30.5 77.5t77.5 30.5t77.5 -30.5t30.5 -77.5q0 -46 -30 -76zM377 614q40 0 66 24.5t26 65.5t-26 66.5t-66 25.5t-65.5 -25.5t-25.5 -66.5q0 -39 26 -64.5t65 -25.5zM240 -7q-79 0 -123 36.5t-44 104.5q0 24 6 51
l70 331h18l-70 -331q-6 -25 -6 -50q0 -61 39 -93t111 -32q86 0 141 45t73 130l70 331h18l-70 -334q-19 -91 -79.5 -140t-153.5 -49z" />
    <glyph glyph-name="utilde.ss06" horiz-adv-x="583" 
d="M193 631h-17q39 151 124 151q57 0 79 -67q22 -68 73 -68q34 0 58.5 31.5t44.5 103.5h17q-39 -151 -123 -151q-32 0 -52 21t-28 46.5t-26 46.5t-46 21q-68 0 -104 -135zM240 -7q-79 0 -123 36.5t-44 104.5q0 24 6 51l70 331h18l-70 -331q-6 -25 -6 -50q0 -61 39 -93
t111 -32q86 0 141 45t73 130l70 331h18l-70 -334q-19 -91 -79.5 -140t-153.5 -49z" />
    <glyph glyph-name="ydieresis.ss01.ss07" horiz-adv-x="545" 
d="M273 669q-13 -13 -29 -6t-16 24q0 25 26 25t26 -25q0 -11 -7 -18zM443 661q-11 0 -18.5 7.5t-7.5 18.5q0 12 7.5 19t18.5 7q26 0 26 -26q0 -11 -7 -18.5t-19 -7.5zM206 -4l315 520h20l-438 -720h-19l110 180l-111 540h19l101 -498q3 -12 3 -22z" />
    <glyph glyph-name="y.ss07" horiz-adv-x="545" 
d="M206 -4l315 520h20l-438 -720h-19l110 180l-110 540h18l101 -498q3 -12 3 -22z" />
    <glyph glyph-name="yacute.ss07" horiz-adv-x="545" 
d="M391 776h23l-121 -150h-20zM206 -4l315 520h20l-438 -720h-19l110 180l-111 540h19l101 -498q3 -12 3 -22z" />
    <glyph glyph-name="ycircumflex.ss07" horiz-adv-x="545" 
d="M462 614l-96 147l-159 -147h-22l173 162h18l105 -162h-19zM206 -4l315 520h20l-438 -720h-19l110 180l-111 540h19l101 -498q3 -12 3 -22z" />
    <glyph glyph-name="ydieresis.ss07" horiz-adv-x="545" 
d="M258 712h18l-10 -48h-18zM432 712h18l-10 -48h-18zM206 -4l315 520h20l-438 -720h-19l110 180l-111 540h19l101 -498q3 -12 3 -22z" />
    <glyph glyph-name="ygrave.ss07" horiz-adv-x="545" 
d="M261 776l85 -150h-18l-89 150h22zM206 -4l315 520h20l-438 -720h-19l110 180l-111 540h19l101 -498q3 -12 3 -22z" />
    <glyph glyph-name="l.ss08" horiz-adv-x="284" 
d="M199 0h-57q-85 0 -85 68q0 16 5 41l129 603h18l-129 -603q-5 -25 -5 -38q0 -54 70 -54h57z" />
    <glyph glyph-name="lacute.ss08" horiz-adv-x="284" 
d="M180 822h-20l118 150h23zM199 0h-57q-85 0 -85 68q0 16 5 41l129 603h18l-129 -603q-5 -25 -5 -38q0 -54 70 -54h57z" />
    <glyph glyph-name="lcaron.ss08" horiz-adv-x="313" 
d="M199 0h-57q-85 0 -85 68q0 16 5 41l129 603h18l-129 -603q-5 -25 -5 -38q0 -54 70 -54h57zM298 514h-18l110 198h20z" />
    <glyph glyph-name="uni013C.ss08" horiz-adv-x="284" 
d="M199 0h-57q-85 0 -85 68q0 16 5 41l129 603h18l-129 -603q-5 -25 -5 -38q0 -54 70 -54h57zM2 -215h-17l3 14h13q10 0 14.5 4.5t6.5 16.5l13 60l-31 -4l8 40h44l-21 -101q-7 -30 -33 -30z" />
    <glyph glyph-name="ldot.ss08" horiz-adv-x="269" 
d="M199 0h-57q-85 0 -85 68q0 16 5 41l129 603h18l-129 -603q-5 -25 -5 -38q0 -54 70 -54h57zM255 332h-58l10 47h58z" />
    <glyph glyph-name="lslash.ss08" horiz-adv-x="441" 
d="M423 452l-169 -80l-56 -263q-5 -25 -5 -38q0 -54 70 -54h57l-4 -17h-57q-85 0 -85 68q0 16 5 41l54 253l-167 -80l3 19l168 80l71 331h18l-68 -321l169 79z" />
    <glyph glyph-name="uni013C.ss01.ss08" horiz-adv-x="284" 
d="M75 71q0 -54 70 -54h57l-3 -17h-57q-85 0 -85 68q0 16 5 41l129 603h18l-129 -603q-5 -25 -5 -38zM28 -80q23 0 23 -23q0 -8 -4 -23l-12 -60q-8 -29 -41 -29h-10l3 14h6q23 0 28 20l13 59q-6 -2 -12 -2q-19 0 -19 19q0 25 25 25z" />
    <glyph glyph-name="ldot.ss01.ss08" horiz-adv-x="269" 
d="M199 0h-57q-85 0 -85 68q0 16 5 41l129 603h18l-129 -603q-5 -25 -5 -38q0 -54 70 -54h57zM252 337q-12 -10 -26.5 -5.5t-17.5 17t7 24.5q11 10 25.5 5.5t18.5 -17t-7 -24.5z" />
    <glyph glyph-name="fi.ss01" horiz-adv-x="522" 
d="M492 706q12 12 28 5.5t16 -24.5q0 -25 -26 -25t-26 25q0 11 8 19zM206 577l-13 -61h158l-4 -16h-157l-2 -10l-105 -490h-18l105 490l2 10h-99l3 16h99l13 61q15 73 51 104t100 31h54l-4 -17h-50q-55 0 -88 -27.5t-45 -90.5zM373 0h-18l110 516h18z" />
    <glyph glyph-name="fl.ss08" horiz-adv-x="600" 
d="M206 577l-13 -61h158l-4 -16h-157l-2 -10l-105 -490h-18l105 490l2 10h-99l3 16h99l13 61q15 73 51 104t100 31h54l-4 -17h-50q-55 0 -88 -27.5t-45 -90.5zM391 71q0 -54 70 -54h57l-3 -17h-57q-85 0 -85 68q0 16 5 41l129 603h18l-129 -603q-5 -25 -5 -38z" />
    <glyph glyph-name="ordfeminine.ss02" horiz-adv-x="486" 
d="M451 614l21 99h16l-72 -341h-16l19 89q-25 -44 -67 -70.5t-93 -26.5q-64 0 -102.5 39t-38.5 107q0 88 57 149t142 61q56 0 90.5 -28.5t43.5 -77.5zM260 380q78 0 130 61q52 59 52 140q0 61 -33.5 92.5t-91.5 31.5q-79 0 -130 -57q-52 -58 -52 -137q0 -62 33.5 -96.5
t91.5 -34.5z" />
    <glyph glyph-name="t.sups.ss05" horiz-adv-x="282" 
d="M246 712h111l-3 -14h-111l-69 -326h-17l69 326h-110l2 14h111l21 98h17z" />
    <glyph glyph-name="zero.ss09" horiz-adv-x="1323" 
d="M1136 -88h-908v888h908v-888zM510 375q0 -222 172 -222t172 222q0 221 -172 221t-172 -221zM837 375q0 -205 -155 -205t-155 205t155 205t155 -205z" />
    <glyph glyph-name="one.ss09" horiz-adv-x="1323" 
d="M1136 -88h-908v888h908v-888zM700 448v-297h17v427h-17v-79q0 -21 -10 -28t-34 -7h-107v-16h151z" />
    <glyph glyph-name="two.ss09" horiz-adv-x="1323" 
d="M228 -88v888h908v-888h-908zM527 160h310v16h-291q7 85 131 145l57 26q54 26 77.5 55.5t23.5 71.5q0 53 -40.5 87.5t-110.5 34.5t-110.5 -36t-41.5 -107h18q3 127 134 127q63 0 98.5 -30t35.5 -76q0 -36 -21.5 -62.5t-70.5 -50.5l-58 -27q-141 -68 -141 -174z" />
    <glyph glyph-name="three.ss09" horiz-adv-x="1323" 
d="M1136 -88h-908v888h908v-888zM687 150q73 0 117 34t44 90q0 42 -28.5 73t-74.5 39v1q37 9 58 35.5t21 62.5q0 50 -39.5 79t-104.5 29q-68 0 -107 -33t-39 -88h17q1 50 35 77.5t94 27.5q57 0 92 -25.5t35 -67.5q0 -40 -29.5 -65.5t-82.5 -25.5h-32v-16h32q63 0 99.5 -28
t36.5 -74q0 -51 -38.5 -80t-105.5 -29q-69 0 -109 31t-41 83h-17q0 -57 46 -93.5t121 -36.5z" />
    <glyph glyph-name="four.ss09" horiz-adv-x="1323" 
d="M1136 -88h-908v888h908v-888zM757 279v-119h17v119h75v16h-75v292h-17l-259 -293v-15h259zM757 295h-238l237 268h1v-268z" />
    <glyph glyph-name="five.ss09" horiz-adv-x="1323" 
d="M228 -88v888h908v-888h-908zM682 149q75 0 120.5 39.5t45.5 103.5q0 63 -43 101t-117 38q-87 0 -133 -55l-1 1l37 194h230v16h-243l-44 -227l22 -5q44 60 132 60q66 0 104.5 -33.5t38.5 -89.5q0 -57 -40.5 -91.5t-108.5 -34.5q-56 0 -94.5 25t-48.5 65l-17 -4
q12 -47 54.5 -75t105.5 -28z" />
    <glyph glyph-name="six.ss09" horiz-adv-x="1323" 
d="M1136 -88h-908v888h908v-888zM698 157q69 0 112 40t43 104q0 61 -41.5 98.5t-112.5 37.5q-53 0 -93.5 -21.5t-62.5 -58.5q0 226 155 226q103 0 125 -91l17 3q-26 104 -143 104q-171 0 -171 -235q0 -207 172 -207zM698 173q-68 0 -107.5 40t-45.5 118q19 41 59 65.5
t95 24.5q63 0 100 -33t37 -88q0 -56 -38 -91.5t-100 -35.5z" />
    <glyph glyph-name="seven.ss09" horiz-adv-x="1323" 
d="M1136 -88h-908v888h908v-888zM621 160h17q12 240 223 412v15h-318v-16h292q-96 -81 -151.5 -188t-62.5 -223z" />
    <glyph glyph-name="eight.ss09" horiz-adv-x="1323" 
d="M1136 -88h-908v888h908v-888zM558 189q47 -35 124 -35q76 0 125 35q48 35 48 92q0 42 -28.5 71.5t-79.5 39.5v2q44 9 68 34.5t24 61.5q0 48 -42.5 77t-114.5 29t-114.5 -29t-42.5 -77q0 -36 24.5 -62t67.5 -34v-2q-51 -10 -79 -39.5t-28 -71.5q0 -57 48 -92zM784 423
q-38 -24 -102 -24t-102 24q-37 24 -37 66q0 43 37.5 67t101.5 24q65 0 102 -24t37 -68q0 -41 -37 -65zM682 169q-71 0 -113 30.5t-42 81.5q0 49 40.5 76t114.5 27q73 0 114.5 -27t41.5 -76q0 -51 -42 -81.5t-114 -30.5z" />
    <glyph glyph-name="nine.ss09" horiz-adv-x="1323" 
d="M1136 -88h-908v888h908v-888zM681 150q84 0 127.5 60t43.5 176q0 206 -172 206q-69 0 -112 -40t-43 -103q0 -61 41.5 -99t112.5 -38q53 0 93.5 22t62.5 59q0 -227 -155 -227q-102 0 -125 92l-17 -4q26 -104 143 -104zM679 328q-63 0 -100 33.5t-37 88.5q0 56 38 91
t100 35q68 0 107.5 -40t45.5 -118q-19 -41 -59 -65.5t-95 -24.5z" />
    <glyph glyph-name="zero.ss10" horiz-adv-x="1323" 
d="M1136 -88h-908v888h908v-888zM246 783v-854h872v854h-872zM854 375q0 -222 -172 -222t-172 222q0 221 172 221t172 -221zM527 375q0 -205 155 -205t155 205t-155 205t-155 -205z" />
    <glyph glyph-name="one.ss10" horiz-adv-x="1323" 
d="M1136 -88h-908v888h908v-888zM246 783v-854h872v854h-872zM707 150h-16v297h-152v16h108q23 0 33 7t10 28l1 79h16v-427z" />
    <glyph glyph-name="two.ss10" horiz-adv-x="1323" 
d="M1136 -88h-908v888h908v-888zM246 783v-854h872v854h-872zM840 160h-310q0 106 141 174l57 27q50 24 71.5 50.5t21.5 62.5q0 46 -35.5 76t-98.5 30q-132 0 -135 -127h-18q1 71 41.5 107t111.5 36q70 0 110.5 -34.5t40.5 -87.5q0 -41 -23.5 -71t-77.5 -56l-57 -26
q-124 -61 -131 -145h291v-16z" />
    <glyph glyph-name="three.ss10" horiz-adv-x="1323" 
d="M1136 -88h-908v888h908v-888zM246 783v-854h872v854h-872zM687 153q-75 0 -120.5 36t-45.5 94h17q0 -52 40 -83t109 -31q67 0 105.5 29t38.5 80q0 46 -36.5 74t-98.5 28h-33v16h33q53 0 82.5 25t29.5 65q0 43 -35.5 68.5t-92.5 25.5q-60 0 -94 -27.5t-34 -77.5h-18
q0 55 39 88t107 33q64 0 104.5 -30t40.5 -78q0 -36 -21 -63t-58 -36v-1q46 -8 74 -38.5t28 -72.5q0 -56 -44 -90t-117 -34z" />
    <glyph glyph-name="four.ss10" horiz-adv-x="1323" 
d="M1136 -88h-908v888h908v-888zM246 783v-854h872v854h-872zM778 158h-17v119h-259v15l259 293h17v-292h75v-16h-75v-119zM760 561l-237 -268h238v268h-1z" />
    <glyph glyph-name="five.ss10" horiz-adv-x="1323" 
d="M1136 -88h-908v888h908v-888zM246 783v-854h872v854h-872zM690 149q-62 0 -105.5 28.5t-55.5 74.5l17 4q10 -40 49 -65t95 -25q68 0 108 34.5t40 91.5q0 56 -38.5 89.5t-104.5 33.5q-89 0 -132 -60l-22 5l44 227h243v-16h-230l-36 -194l1 -1q43 55 133 55q72 0 115.5 -38
t43.5 -101t-45.5 -103t-119.5 -40z" />
    <glyph glyph-name="six.ss10" horiz-adv-x="1323" 
d="M1136 -88h-908v888h908v-888zM246 783v-854h872v854h-872zM698 154q-172 0 -172 207q0 235 171 235q117 0 143 -104l-17 -3q-22 91 -125 91q-155 0 -155 -226q22 36 62.5 58t93.5 22q71 0 112.5 -38t41.5 -99q0 -63 -43 -103t-112 -40zM698 170q62 0 100 35t38 91
q0 55 -37 88.5t-100 33.5q-55 0 -95 -24.5t-60 -65.5q7 -78 47 -118t107 -40z" />
    <glyph glyph-name="seven.ss10" horiz-adv-x="1323" 
d="M1136 -88h-908v888h908v-888zM246 783v-854h872v854h-872zM634 149h-17q6 116 61.5 222.5t152.5 188.5h-293v16h318v-15q-211 -175 -222 -412z" />
    <glyph glyph-name="eight.ss10" horiz-adv-x="1323" 
d="M1136 -88h-908v888h908v-888zM246 783v-854h872v854h-872zM807 179q-49 -35 -125 -35q-77 0 -124 35q-48 34 -48 92q0 42 28 71.5t79 39.5v2q-43 9 -67.5 34.5t-24.5 61.5q0 48 42.5 77t114.5 29t114.5 -29t42.5 -77q0 -36 -24 -61.5t-68 -34.5v-2q51 -10 79.5 -39.5
t28.5 -71.5q0 -57 -48 -92zM580 414q38 -24 102 -24t102 24q37 22 37 64q0 44 -37.5 68.5t-101.5 24.5t-101.5 -24.5t-37.5 -67.5q0 -41 37 -65zM682 160q72 0 114 30.5t42 81.5q0 48 -41.5 75t-114.5 27q-74 0 -114.5 -27t-40.5 -75q0 -51 42 -81.5t113 -30.5z" />
    <glyph glyph-name="nine.ss10" horiz-adv-x="1323" 
d="M1136 -88h-908v888h908v-888zM246 783v-854h872v854h-872zM685 151q-117 0 -143 104l17 3q22 -91 125 -91q154 0 155 226q-22 -36 -62.5 -58t-93.5 -22q-71 0 -112.5 37.5t-41.5 99.5q0 63 43 103t112 40q172 0 172 -207q0 -115 -43.5 -175t-127.5 -60zM683 329
q55 0 95 24.5t59 65.5q-6 78 -45.5 118t-107.5 40q-62 0 -100 -35t-38 -91t36.5 -89t100.5 -33z" />
    <glyph glyph-name="zero.zero" horiz-adv-x="640" 
d="M410 718q177 0 177 -220q0 -69 -16 -146q-70 -358 -299 -358q-178 0 -178 214q0 67 17 152q38 182 111.5 270t187.5 88zM129 356q-17 -91 -17 -148q0 -94 36 -142l376 590q-41 45 -115 45q-213 0 -280 -345zM553 356q16 77 16 143q0 95 -36 145l-376 -589q41 -44 116 -44
q211 0 280 345z" />
    <glyph glyph-name="zero.dnom" horiz-adv-x="443" 
d="M174 -7q-142 0 -142 146q0 36 9 81q47 216 211 216q142 0 142 -145q0 -41 -10 -82q-46 -216 -210 -216zM174 10q77 0 124 49.5t69 152.5q10 47 10 79q0 129 -126 129q-149 0 -193 -203q-10 -47 -10 -79q0 -128 126 -128z" />
    <glyph glyph-name="one.dnom" horiz-adv-x="308" 
d="M159 0h-16l63 297h-152l4 16h107q24 0 35 7t16 28l18 79h16z" />
    <glyph glyph-name="two.dnom" horiz-adv-x="472" 
d="M338 0h-310q21 110 177 174l62 26q121 51 121 130q0 40 -29 65t-84 25q-132 0 -162 -127h-18q15 71 63 107t118 36q62 0 95.5 -28.5t33.5 -76.5q0 -92 -130 -144l-63 -26q-135 -56 -162 -145h292z" />
    <glyph glyph-name="three.dnom" horiz-adv-x="427" 
d="M170 -7q-71 0 -109.5 35t-39.5 95h17q0 -54 34.5 -84t98.5 -30q72 0 116 34.5t44 89.5q0 41 -29.5 64t-84.5 23h-34l4 16h32q59 0 96.5 27.5t37.5 72.5q0 40 -30.5 62t-81.5 22q-60 0 -99 -27.5t-50 -77.5l-17 1q11 55 56 87.5t111 32.5q59 0 93.5 -25.5t34.5 -72.5
q0 -41 -28 -70.5t-74 -38.5v-1q38 -7 59.5 -31.5t21.5 -62.5q0 -60 -49 -100q-50 -41 -130 -41z" />
    <glyph glyph-name="four.dnom" horiz-adv-x="414" 
d="M252 0h-17l26 119h-259l3 15l321 293h17l-61 -292h75l-4 -16h-75zM320 404l-293 -269h238l56 268z" />
    <glyph glyph-name="five.dnom" horiz-adv-x="427" 
d="M164 -10q-61 0 -100.5 28t-48.5 75l17 4q7 -41 42.5 -66t90.5 -25q75 0 125 41q49 40 49 103q0 49 -32 77.5t-89 28.5q-88 0 -143 -63l-21 10l91 224h243l-4 -16h-229l-78 -194l1 -1q56 55 143 55q63 0 99 -32.5t36 -86.5q0 -70 -54 -116q-55 -46 -138 -46z" />
    <glyph glyph-name="six.dnom" horiz-adv-x="427" 
d="M184 -6q-71 0 -111 41.5t-40 121.5q0 113 59 196t154 83q52 0 89.5 -27t51.5 -75l-16 -4q-27 90 -126 90q-83 0 -136 -71q-54 -72 -58 -174q60 99 168 99q63 0 100 -34t37 -90q0 -65 -47 -110q-46 -46 -125 -46zM184 10q69 0 112 39.5t43 99.5q0 51 -33 80t-90 29
q-111 0 -166 -109q1 -68 36 -103.5t98 -35.5z" />
    <glyph glyph-name="seven.dnom" horiz-adv-x="368" 
d="M66 0h-17q31 116 109 222.5t193 188.5h-293l3 16h318l-3 -15q-247 -172 -310 -412z" />
    <glyph glyph-name="eight.dnom" horiz-adv-x="445" 
d="M176 -6q-71 0 -114 31.5t-43 83.5q0 48 36 81t97 42l1 2q-74 23 -74 85q0 52 48 84.5t125 32.5q67 0 105.5 -25.5t38.5 -69.5q0 -40 -32 -71t-83 -38l-1 -2q89 -23 89 -96q0 -61 -55 -100q-55 -40 -138 -40zM220 239q71 0 115 28t44 73q0 38 -34.5 59t-93.5 21
q-69 0 -112 -28t-43 -73q0 -37 33 -58.5t91 -21.5zM177 9q76 0 125 36q50 36 50 89q0 42 -37.5 66t-104.5 24q-79 0 -126.5 -31t-47.5 -83q0 -45 38.5 -73t102.5 -28z" />
    <glyph glyph-name="nine.dnom" horiz-adv-x="427" 
d="M163 -7q-53 0 -90 27t-51 75l15 5q13 -44 46 -67.5t80 -23.5q83 0 137 71q54 72 58 174q-62 -99 -168 -99q-63 0 -100 33.5t-37 90.5q0 64 47 111q46 45 125 45q71 0 111 -41.5t40 -121.5q0 -114 -58 -196q-59 -83 -155 -83zM192 171q110 0 167 110q-1 66 -36 102t-98 36
q-69 0 -112 -39.5t-43 -99.5q0 -51 33 -80t89 -29z" />
    <glyph glyph-name="zero.numr" horiz-adv-x="443" 
d="M242 314q-142 0 -142 146q0 36 9 81q47 216 211 216q142 0 142 -145q0 -35 -10 -82q-46 -216 -210 -216zM242 331q77 0 124 49.5t69 152.5q10 47 10 79q0 129 -126 129q-149 0 -193 -203q-10 -47 -10 -79q0 -128 126 -128z" />
    <glyph glyph-name="one.numr" horiz-adv-x="308" 
d="M227 321h-16l63 297h-152l4 16h107q24 0 35 7t16 28l18 79h16z" />
    <glyph glyph-name="two.numr" horiz-adv-x="472" 
d="M406 321h-310q21 109 177 174l62 26q121 51 121 130q0 40 -29 65t-84 25q-132 0 -162 -127h-18q15 71 63 107t118 36q62 0 95.5 -28.5t33.5 -76.5q0 -92 -130 -144l-63 -26q-135 -56 -162 -145h292z" />
    <glyph glyph-name="three.numr" horiz-adv-x="427" 
d="M238 314q-71 0 -109.5 35t-39.5 95h17q0 -54 34.5 -84t98.5 -30q72 0 116 34.5t44 89.5q0 41 -29.5 64t-84.5 23h-34l4 16h32q59 0 96.5 27.5t37.5 72.5q0 40 -30.5 62t-81.5 22q-60 0 -99 -27.5t-50 -77.5l-17 1q11 55 56 87.5t111 32.5q59 0 93.5 -25.5t34.5 -72.5
q0 -41 -28 -70.5t-74 -38.5v-1q38 -7 59.5 -31.5t21.5 -62.5q0 -60 -49 -100q-50 -41 -130 -41z" />
    <glyph glyph-name="four.numr" horiz-adv-x="414" 
d="M320 321h-17l26 119h-259l3 15l321 293h17l-61 -292h75l-4 -16h-75zM388 725l-293 -269h238l56 268z" />
    <glyph glyph-name="five.numr" horiz-adv-x="427" 
d="M232 311q-61 0 -100.5 28t-48.5 75l17 4q7 -41 42.5 -66t90.5 -25q75 0 125 41q49 40 49 103q0 49 -32 77.5t-89 28.5q-88 0 -143 -63l-21 10l91 224h243l-4 -16h-229l-78 -194l1 -1q56 55 143 55q63 0 99 -32.5t36 -86.5q0 -69 -54 -116q-55 -46 -138 -46z" />
    <glyph glyph-name="six.numr" horiz-adv-x="427" 
d="M252 315q-71 0 -111 41.5t-40 121.5q0 113 59 196t154 83q52 0 89.5 -27t51.5 -75l-16 -4q-27 90 -126 90q-83 0 -136 -71q-54 -72 -58 -174q60 99 168 99q63 0 100 -34t37 -90q0 -65 -47 -110q-46 -46 -125 -46zM252 331q69 0 112 39.5t43 99.5q0 51 -33 80t-90 29
q-111 0 -166 -109q1 -68 36 -103.5t98 -35.5z" />
    <glyph glyph-name="seven.numr" horiz-adv-x="368" 
d="M134 321h-17q31 116 109 222.5t193 188.5h-293l3 16h318l-3 -15q-247 -172 -310 -412z" />
    <glyph glyph-name="eight.numr" horiz-adv-x="445" 
d="M244 315q-71 0 -114 31.5t-43 83.5q0 48 36 81t97 42l1 2q-74 23 -74 85q0 52 48 84.5t125 32.5q67 0 105.5 -25.5t38.5 -69.5q0 -40 -32 -71t-83 -38l-1 -2q89 -23 89 -96q0 -61 -55 -100q-55 -40 -138 -40zM288 560q71 0 115 28t44 73q0 38 -34.5 59t-93.5 21
q-69 0 -112 -28t-43 -73q0 -37 33 -58.5t91 -21.5zM245 330q76 0 125 36q50 36 50 89q0 42 -37.5 66t-104.5 24q-79 0 -126.5 -31t-47.5 -83q0 -45 38.5 -73t102.5 -28z" />
    <glyph glyph-name="nine.numr" horiz-adv-x="427" 
d="M231 314q-53 0 -90 27t-51 75l15 5q13 -44 46 -67.5t80 -23.5q83 0 137 71q54 72 58 174q-62 -99 -168 -99q-63 0 -100 33.5t-37 90.5q0 64 47 111q47 45 125 45q71 0 111 -41.5t40 -121.5q0 -114 -58 -196q-59 -83 -155 -83zM260 492q110 0 167 110q-1 66 -36 102
t-98 36q-69 0 -112 -39.5t-43 -99.5q0 -51 33 -80t89 -29z" />
    <glyph glyph-name="zero.tf" horiz-adv-x="640" 
d="M272 -6q-178 0 -178 214q0 67 17 152q38 182 111.5 270t187.5 88q177 0 177 -220q0 -69 -16 -146q-70 -358 -299 -358zM273 11q211 0 280 345q16 77 16 143q0 202 -160 202q-214 0 -280 -345q-17 -91 -17 -148q0 -197 161 -197z" />
    <glyph glyph-name="one.tf" horiz-adv-x="640" 
d="M445 712l-148 -695h253l-4 -17h-503l4 17h232l141 666q-43 -45 -106 -76q-66 -32 -123 -38l4 16q62 7 125 41t105 86h20z" />
    <glyph glyph-name="two.tf" horiz-adv-x="640" 
d="M485 0h-443q19 87 83.5 155.5t182.5 126.5l90 44q96 47 141 99t45 125q0 68 -44 109.5t-125 41.5q-95 0 -158.5 -54t-80.5 -162l-1 -6h-18l1 7q20 116 88 174t170 58q88 0 137 -46t49 -121q0 -79 -47 -134t-147 -104l-89 -44q-218 -108 -254 -252h423z" />
    <glyph glyph-name="three.tf" horiz-adv-x="640" 
d="M282 -7q-101 0 -164 48q-63 47 -63 128q0 16 4 37h18q-3 -20 -3 -36q0 -74 56.5 -116.5t151.5 -42.5q111 0 185 59q73 58 73 155q0 66 -46 105t-128 39h-54l3 17h51q94 0 153 51q58 49 58 130q0 62 -45 99t-123 37q-96 0 -158.5 -48.5t-80.5 -133.5h-18q20 94 87 146.5
t171 52.5q84 0 134.5 -41.5t50.5 -108.5q0 -74 -46.5 -126.5t-120.5 -64.5l-1 -2q62 -11 96.5 -51.5t34.5 -100.5q0 -107 -77 -169q-78 -63 -199 -63z" />
    <glyph glyph-name="four.tf" horiz-adv-x="640" 
d="M557 712l-105 -492h108l-4 -17h-108l-43 -203h-18l43 203h-371l3 17l480 492h15zM86 220h348l97 455h-1z" />
    <glyph glyph-name="five.tf" horiz-adv-x="640" 
d="M263 -16q-89 0 -139 49.5t-50 136.5h18q0 -78 44 -123.5t127 -45.5q116 0 190 77q72 76 72 191q0 77 -43.5 122t-122.5 45q-125 0 -207 -109l-23 6l142 379h337l-3 -17h-323l-130 -345l2 -1q81 103 207 103q86 0 134 -49.5t48 -132.5q0 -126 -78 -205q-78 -81 -202 -81z
" />
    <glyph glyph-name="six.tf" horiz-adv-x="640" 
d="M417 702q-127 0 -202 -127q-67 -113 -97 -285q89 158 244 158q85 0 133.5 -48.5t48.5 -131.5q0 -115 -70 -194q-70 -81 -181 -81q-97 0 -146.5 59.5t-49.5 166.5q0 55 12 117q37 187 115.5 285t193.5 98q170 0 170 -178h-17q0 161 -154 161zM360 431q-160 0 -244 -175
q-3 -16 -3 -40q0 -97 47.5 -151.5t133.5 -54.5q102 0 167 78q65 77 65 181q0 75 -44 118.5t-122 43.5z" />
    <glyph glyph-name="seven.tf" horiz-adv-x="640" 
d="M183 0h-20q49 195 168 377q118 181 284 317h-434l4 18h462l-3 -15q-176 -142 -292 -320q-119 -180 -169 -377z" />
    <glyph glyph-name="eight.tf" horiz-adv-x="640" 
d="M277 -6q-104 0 -163.5 47t-59.5 128q0 89 59 146t161 69v2q-59 11 -91 48.5t-32 89.5q0 92 73 143q74 51 181 51q97 0 151 -41t54 -110q0 -77 -51 -125t-141 -59v-2q70 -10 106 -51t36 -105q0 -108 -81 -169q-82 -62 -202 -62zM349 391q113 0 178.5 45t65.5 130
q0 64 -49 100t-139 36q-101 0 -169 -47q-67 -46 -67 -132q0 -62 47 -97t133 -35zM277 11q116 0 190 58q75 57 75 156q0 70 -50.5 109.5t-144.5 39.5q-126 0 -200.5 -53t-74.5 -151q0 -74 54 -116.5t151 -42.5z" />
    <glyph glyph-name="nine.tf" horiz-adv-x="640" 
d="M391 719q97 0 146.5 -59.5t49.5 -166.5q0 -55 -12 -117q-37 -187 -116 -285t-193 -98q-171 0 -171 178h18q0 -161 154 -161q127 0 202 127q66 113 97 286q-88 -159 -244 -159q-85 0 -133.5 48.5t-48.5 131.5q0 113 71 195q71 80 180 80zM568 456q2 30 2 40
q0 97 -47 151.5t-133 54.5q-102 0 -167 -77q-65 -79 -65 -182q0 -75 44 -118.5t121 -43.5q80 0 142.5 46t102.5 129z" />
    <glyph glyph-name="zero.tf.zero" horiz-adv-x="640" 
d="M414 718q86 0 131.5 -55.5t45.5 -164.5q0 -69 -16 -146q-70 -358 -299 -358q-178 0 -178 214q0 67 17 152q38 183 111.5 270.5t187.5 87.5zM133 356q-17 -91 -17 -148q0 -92 35 -142l377 590q-40 45 -115 45q-214 0 -280 -345zM557 356q16 77 16 143q0 94 -36 145
l-377 -589q41 -44 117 -44q209 0 280 345z" />
    <glyph glyph-name="period.ss01" horiz-adv-x="241" 
d="M88 1q-12 -10 -26.5 -5.5t-17.5 17t7 24.5q11 10 25.5 5.5t18.5 -17t-7 -24.5z" />
    <glyph glyph-name="comma.ss01" horiz-adv-x="247" 
d="M73 44q27 0 27 -25q0 -10 -4 -27l-19 -89q-6 -28 -18 -40t-35 -12h-5l3 16h4q17 0 24.5 7.5t11.5 28.5l20 91h-9q-29 0 -29 25q0 11 8 18t21 7z" />
    <glyph glyph-name="colon.ss01" horiz-adv-x="248" 
d="M176 405q-11 -10 -25.5 -5.5t-18 17t6.5 24.5q11 10 25 5.5t18 -17t-6 -24.5zM89 1q-11 -10 -25.5 -5.5t-18 17t6.5 24.5q11 10 25 5.5t18 -17t-6 -24.5z" />
    <glyph glyph-name="semicolon.ss01" horiz-adv-x="248" 
d="M138 441q11 10 25 5.5t18 -17t-6 -24.5q-11 -10 -25.5 -5.5t-18 17t6.5 24.5zM73 44q27 0 27 -25q0 -10 -4 -27l-19 -89q-6 -28 -18 -40t-35 -12h-5l3 16h4q17 0 24.5 7.5t11.5 28.5l20 91h-9q-29 0 -29 25q0 11 8 18t21 7z" />
    <glyph glyph-name="ellipsis.ss01" horiz-adv-x="723" 
d="M88 1q-12 -10 -26.5 -5.5t-17.5 17t7 24.5q11 10 25.5 5.5t18.5 -17t-7 -24.5zM330 1q-11 -10 -26 -5.5t-19 17t7 24.5q12 10 26.5 5.5t18 -17t-6.5 -24.5zM571 1q-11 -10 -25.5 -5.5t-18 17t6.5 24.5q11 10 25 5.5t18 -17t-6 -24.5z" />
    <glyph glyph-name="exclam.ss01" horiz-adv-x="257" 
d="M97 168h-14l70 339l43 205h18l-43 -205zM76 1q-11 -10 -25.5 -5.5t-18 17t6.5 24.5q11 10 25 5.5t18 -17t-6 -24.5z" />
    <glyph glyph-name="exclamdown.ss01" horiz-adv-x="257" 
d="M179 486q-13 -11 -29 -5t-16 22t13 22t26 0t13 -22q0 -10 -7 -17zM19 -204h-18l44 205l74 339h14l-70 -339z" />
    <glyph glyph-name="question.ss01" horiz-adv-x="618" 
d="M279 167h-17l4 20q13 64 43 105q29 38 108 77q81 41 119.5 85.5t38.5 103.5q0 70 -49.5 107t-137.5 37q-102 0 -167 -51.5t-82 -144.5h-18q19 101 88.5 157t178.5 56q95 0 150 -42t55 -118q0 -117 -153 -196l-34 -18q-58 -29 -84 -64t-39 -96zM268 1q-11 -11 -25 -6
t-17.5 17.5t6.5 24.5q11 11 25 6t17.5 -17.5t-6.5 -24.5z" />
    </font>
</defs>
</svg>
