<?xml version="1.0" standalone="no"?>
<!DOCTYPE svg PUBLIC "-//W3C//DTD SVG 1.1//EN" "http://www.w3.org/Graphics/SVG/1.1/DTD/svg11.dtd" >
<svg xmlns="http://www.w3.org/2000/svg" xmlns:xlink="http://www.w3.org/1999/xlink" version="1.1">
<metadata>
Created by FontForge 20190801 at Sun Apr 14 18:27:42 2019
 By www-data
Copyright (c) 2019 Monotype Imaging Inc. All rights reserved.
</metadata>
<defs>
<font id="HelveticaNowMicroMedIta" horiz-adv-x="0" >
  <font-face 
    font-family="HelveticaNowMicroMedIta"
    font-weight="500"
    font-style="italic"
    font-stretch="normal"
    units-per-em="1000"
    panose-1="2 11 6 4 3 2 2 9 2 4"
    ascent="875"
    descent="-125"
    x-height="548"
    cap-height="768"
    bbox="-411 -360 1862 1109"
    underline-thickness="50"
    underline-position="-300"
    slope="-12"
    unicode-range="U+000D-FEFF"
  />
<missing-glyph horiz-adv-x="1019" 
d="M852 0h-638v768h638v-768zM347 655v-542h372v542h-372z" />
    <glyph glyph-name="fi" unicode="fi" horiz-adv-x="809" 
d="M668 661l28 133h130l-28 -133h-130zM351 610l-23 -70l186 8l-19 -91l-181 8l-5 -55l-88 -410h-130l88 411l19 53l-133 -7l20 91l130 -7l5 63q19 89 62 127q41 37 134 37h147l-19 -89h-115q-35 0 -52.5 -16t-25.5 -53zM657 0h-130l117 548h130z" />
    <glyph glyph-name="fl" unicode="fl" horiz-adv-x="810" 
d="M351 610l-23 -70l186 8l-19 -91l-181 8l-5 -55l-88 -410h-130l88 411l19 53l-133 -7l20 91l130 -7l5 63q19 89 62 127q41 37 134 37h147l-19 -89h-115q-35 0 -52.5 -16t-25.5 -53zM528 0l164 768h130l-164 -768h-130z" />
    <glyph glyph-name=".notdef" horiz-adv-x="1019" 
d="M852 0h-638v768h638v-768zM347 655v-542h372v542h-372z" />
    <glyph glyph-name=".null" 
 />
    <glyph glyph-name="nonmarkingreturn" horiz-adv-x="333" 
 />
    <glyph glyph-name="NULL" 
 />
    <glyph glyph-name="NULL" 
 />
    <glyph glyph-name="CR" unicode="&#xd;" horiz-adv-x="300" 
 />
    <glyph glyph-name="space" unicode=" " horiz-adv-x="300" 
 />
    <glyph glyph-name="exclam" unicode="!" horiz-adv-x="358" 
d="M200 218h-65l35 314l50 236h129l-50 -236zM190 0h-139l29 138h140z" />
    <glyph glyph-name="quotedbl" unicode="&#x22;" horiz-adv-x="544" 
d="M238 411h-115l76 357h114zM479 411h-114l76 357h114z" />
    <glyph glyph-name="numbersign" unicode="#" horiz-adv-x="736" 
d="M743 562l-18 -85l-130 5l-69 -195l117 5l-18 -85l-125 5l-75 -212h-88l76 214h-162l-76 -214h-88l75 212l-122 -5l19 85l129 -5l69 195l-118 -5l19 85l125 -5l75 211h88l-75 -213h162l75 213h88l-75 -211zM346 484l-70 -199h162l70 199h-162z" />
    <glyph glyph-name="dollar" unicode="$" horiz-adv-x="719" 
d="M697 580v-9l-121 -11v6q0 102 -137 102q-157 0 -157 -119q0 -36 23 -57t74 -32l79 -18q184 -42 184 -191q0 -118 -80 -180q-81 -63 -213 -69l-31 -146h-102l32 151q-92 15 -143.5 68t-51.5 136v9l125 12v-8q0 -60 39 -91t112 -31q82 0 131 32t49 96q0 41 -25.5 64
t-82.5 36l-80 19q-84 20 -128 66.5t-44 114.5q0 106 69 166.5t191 69.5l31 146h102l-32 -149q89 -13 138 -61.5t49 -121.5z" />
    <glyph glyph-name="percent" unicode="%" horiz-adv-x="1445" 
d="M347 328q-85 0 -133 48.5t-48 134.5q0 29 6 62q21 109 84 166.5t159 57.5q84 0 132 -48.5t48 -132.5q0 -31 -6 -64q-21 -110 -83.5 -167t-158.5 -57zM465 -15h-110l665 798h108zM354 406q53 0 89.5 35t51.5 102q8 40 8 70q0 51 -25 78.5t-70 27.5q-57 0 -95 -40.5
t-50 -116.5q-5 -33 -5 -49q0 -53 25 -80t71 -27zM1082 -8q-85 0 -133 48.5t-48 134.5q0 29 6 62q21 109 84 166.5t159 57.5q84 0 132 -48.5t48 -132.5q0 -31 -6 -64q-20 -109 -82.5 -166.5t-159.5 -57.5zM1089 70q53 0 89.5 35t51.5 103q8 37 8 69q0 52 -25 79.5t-70 27.5
q-57 0 -95 -40.5t-50 -117.5q-5 -33 -5 -49q0 -53 25 -80t71 -27z" />
    <glyph glyph-name="ampersand" unicode="&#x26;" horiz-adv-x="893" 
d="M697 361l108 -22q-48 -91 -134 -165l131 -174h-156l-67 92q-112 -112 -268 -112q-109 0 -171.5 52.5t-62.5 142.5q0 91 67.5 158t189.5 95l-5 6q-61 82 -61 155q0 87 72 148q70 61 183 61q91 0 149 -45q57 -47 57 -122q0 -150 -232 -223l130 -174q43 63 70 127zM514 702
q-54 0 -89 -31.5t-35 -78.5q0 -40 36 -90l25 -33q73 23 116 64t43 89q0 38 -26 59t-70 21zM344 83q102 0 190 70l-156 214q-169 -61 -169 -175q0 -53 35 -81t100 -28z" />
    <glyph glyph-name="quotesingle" unicode="'" horiz-adv-x="302" 
d="M238 415h-114l75 353h114z" />
    <glyph glyph-name="parenleft" unicode="(" horiz-adv-x="407" 
d="M251 -204h-108q-70 177 -70 349q0 86 16 163q56 288 251 495h124q-198 -256 -248 -507q-17 -99 -17 -180q0 -146 52 -320z" />
    <glyph glyph-name="parenright" unicode=")" horiz-adv-x="406" 
d="M77 -204h-124q200 260 248 507q17 91 17 180q0 146 -52 320h108q70 -174 70 -349q0 -86 -16 -163q-56 -288 -251 -495z" />
    <glyph glyph-name="asterisk" unicode="*" horiz-adv-x="730" 
d="M404 438l-156 -189l-83 66l181 166l-196 56l51 99l183 -87l30 219h108l-64 -222l216 90l17 -106l-226 -52l111 -164l-96 -65z" />
    <glyph glyph-name="plus" unicode="+" horiz-adv-x="757" 
d="M430 391h229v-102h-229v-230h-106v230h-227v102h227v231h106v-231z" />
    <glyph glyph-name="comma" unicode="," horiz-adv-x="367" 
d="M13 -199h-19l16 71h23q80 0 96 76l17 84l-109 -27l32 151h178l-40 -193q-20 -91 -62 -126q-43 -36 -132 -36z" />
    <glyph glyph-name="hyphen" unicode="-" horiz-adv-x="390" 
d="M335 235h-296l22 104h296z" />
    <glyph glyph-name="period" unicode="." horiz-adv-x="358" 
d="M206 0h-170l33 156h171z" />
    <glyph glyph-name="slash" unicode="/" horiz-adv-x="541" 
d="M105 0h-131l484 768h131z" />
    <glyph glyph-name="zero" unicode="0" horiz-adv-x="757" 
d="M332 -16q-116 0 -180 71.5t-64 202.5q0 64 15 139q40 196 131 291t237 95q118 0 182 -71t64 -203q0 -67 -16 -138q-40 -197 -130.5 -292t-238.5 -95zM342 95q171 0 230 287q16 80 16 132q0 158 -128 158q-170 0 -228 -286q-15 -76 -15 -132q0 -159 125 -159z" />
    <glyph glyph-name="one" unicode="1" horiz-adv-x="527" 
d="M314 0h-132l111 523h-188l19 90h16q97 0 150 35q45 30 78 109l5 11h105z" />
    <glyph glyph-name="two" unicode="2" horiz-adv-x="757" 
d="M615 0h-586q23 108 86 180q63 73 194 141l123 63q81 41 116 81t35 99q0 49 -32 77t-89 28q-143 0 -177 -142l-3 -12h-128l3 12q61 256 321 256q108 0 175 -56q65 -56 65 -148q0 -105 -60 -169q-59 -64 -189 -130l-82 -42q-75 -40 -107 -66t-42 -56h402z" />
    <glyph glyph-name="three" unicode="3" horiz-adv-x="757" 
d="M339 -15q-121 0 -191.5 60.5t-70.5 165.5q0 19 1 25l130 11q-1 -5 -1 -22q0 -62 36 -95t106 -33q80 0 128.5 44t48.5 115q0 48 -33 74t-95 26h-69l22 100h69q72 0 115.5 34.5t43.5 93.5q0 43 -31.5 67t-87.5 24q-135 0 -180 -128l-124 13q35 110 115.5 167.5t200.5 57.5
q110 0 174 -50t64 -134q0 -149 -161 -193v-3q112 -34 112 -148q0 -129 -87 -200q-87 -72 -235 -72z" />
    <glyph glyph-name="four" unicode="4" horiz-adv-x="757" 
d="M676 768l-105 -492l116 12l-22 -106l-112 12l-41 -194h-122l41 194l-379 -12l23 105l445 481h156zM205 286l244 -10l76 354h-3z" />
    <glyph glyph-name="five" unicode="5" horiz-adv-x="757" 
d="M329 -13q-116 0 -186 59q-70 58 -70 159l134 12q1 -58 36.5 -88.5t96.5 -30.5q85 0 139 57t54 140q0 54 -33.5 84t-96.5 30q-81 0 -148 -58l-126 15l154 402h456l-25 -118h-347l-73 -186l2 -2q70 49 155 49q103 0 159.5 -55.5t56.5 -150.5q0 -144 -93 -231
q-94 -87 -245 -87z" />
    <glyph glyph-name="six" unicode="6" horiz-adv-x="757" 
d="M453 503q98 0 156 -56.5t58 -150.5q0 -140 -87 -225q-87 -87 -226 -87q-124 0 -192 73t-68 199q0 50 14 122q37 182 122 290q90 115 262 115q104 0 165.5 -46.5t68.5 -128.5l-121 -14q-11 84 -123 84q-88 0 -146 -63t-93 -204q83 92 210 92zM359 95q81 0 130 55
q48 54 48 134q0 57 -30.5 87.5t-87.5 30.5q-64 0 -117 -36.5t-80 -100.5q-2 -20 -2 -30q0 -66 37.5 -103t101.5 -37z" />
    <glyph glyph-name="seven" unicode="7" horiz-adv-x="757" 
d="M317 0h-143q116 381 399 646h-401l26 122h571l-22 -104q-312 -262 -430 -664z" />
    <glyph glyph-name="eight" unicode="8" horiz-adv-x="757" 
d="M332 -16q-116 0 -192 56q-76 55 -76 151q0 86 54 148t145 81l1 2q-95 39 -95 138q0 108 84 166q83 59 219 59q113 0 179.5 -49t66.5 -134q0 -69 -42.5 -118t-120.5 -73v-2q56 -17 86.5 -57.5t30.5 -97.5q0 -128 -97 -198q-97 -72 -243 -72zM420 458q75 0 123 37t48 96
q0 92 -126 92q-78 0 -125 -35.5t-47 -97.5q0 -92 127 -92zM339 91q86 0 143 45q56 45 56 118q0 50 -38 78.5t-106 28.5q-88 0 -141.5 -44t-53.5 -118q0 -52 36 -80t104 -28z" />
    <glyph glyph-name="nine" unicode="9" horiz-adv-x="757" 
d="M450 784q124 0 192 -74q68 -76 68 -198q0 -54 -15 -122q-37 -182 -121 -289q-92 -116 -262 -116q-104 0 -166 46.5t-68 128.5l121 14q11 -84 123 -84q88 0 145.5 62.5t92.5 203.5q-82 -91 -210 -91q-97 0 -155 56.5t-58 150.5q0 139 87 226q86 86 226 86zM582 503
q1 10 1 30q0 66 -37 103t-101 37q-81 0 -129 -54q-49 -55 -49 -135q0 -57 30.5 -87.5t87.5 -30.5q64 0 117 36.5t80 100.5z" />
    <glyph glyph-name="colon" unicode=":" horiz-adv-x="358" 
d="M285 366h-171l33 157h171zM206 0h-170l33 156h171z" />
    <glyph glyph-name="semicolon" unicode=";" horiz-adv-x="367" 
d="M285 366h-171l33 157h171zM13 -199h-19l16 71h23q80 0 96 76l17 84l-109 -27l32 151h178l-40 -193q-20 -91 -62 -126q-43 -36 -132 -36z" />
    <glyph glyph-name="less" unicode="&#x3c;" horiz-adv-x="757" 
d="M104 399l547 201v-113l-447 -154l447 -153v-113l-547 200v132z" />
    <glyph glyph-name="equal" unicode="=" horiz-adv-x="757" 
d="M652 409h-549v110h549v-110zM652 160h-549v110h549v-110z" />
    <glyph glyph-name="greater" unicode="&#x3e;" horiz-adv-x="757" 
d="M104 487v113l547 -201v-132l-547 -200v113l447 153z" />
    <glyph glyph-name="question" unicode="?" horiz-adv-x="735" 
d="M401 215h-131l8 36q15 71 54.5 115.5t122.5 79.5q68 30 96 58.5t28 67.5q0 99 -142 99q-76 0 -120.5 -32t-63.5 -100l-127 20q60 223 318 223q127 0 199 -51.5t72 -143.5q0 -131 -160 -210l-57 -28q-44 -21 -63.5 -44.5t-28.5 -66.5zM365 0h-149l28 135h150z" />
    <glyph glyph-name="at" unicode="@" horiz-adv-x="1160" 
d="M650 745q216 0 333 -123q117 -125 74 -326q-26 -113 -89 -182q-64 -70 -157 -70q-108 0 -136 85q-61 -81 -157 -81q-88 0 -133 68q-45 67 -22 180q21 100 84 157.5t148 57.5q89 0 127 -69l20 57h94l-58 -270q-21 -100 48 -100q47 0 83 48t54 126q35 161 -51 258
q-87 97 -270 97q-170 0 -281 -90.5t-145 -251.5q-40 -187 51 -299t270 -112q103 0 209 36l-18 -91q-102 -30 -205 -30q-223 0 -336 141q-114 143 -68 364q40 191 181 306q140 114 350 114zM549 135q44 -1 78 27.5t52 80.5l16 75q3 51 -20 79.5t-68 28.5q-53 0 -89 -36
t-50 -100q-14 -70 7 -112t74 -43z" />
    <glyph glyph-name="A" unicode="A" horiz-adv-x="785" 
d="M700 0h-135l-23 172h-343l-94 -172h-143l436 768h182zM448 625l-190 -347h270l-47 347l-5 60z" />
    <glyph glyph-name="B" unicode="B" horiz-adv-x="809" 
d="M602 404q56 -16 87.5 -59t31.5 -100q0 -115 -83 -180t-219 -65h-368l164 768h333q104 0 161.5 -46.5t57.5 -121.5q0 -72 -45 -125.5t-120 -70.5zM514 663h-186l-47 -217h188q72 0 115 36t43 98q0 83 -113 83zM208 105h219q69 0 112.5 40.5t43.5 104.5q0 96 -119 96h-204z
" />
    <glyph glyph-name="C" unicode="C" horiz-adv-x="854" 
d="M408 -18q-145 0 -227 85q-84 84 -84 228q0 57 13 115q37 176 155 276q117 99 280 99q127 0 204.5 -60.5t96.5 -174.5l-130 -15q-11 66 -58 102t-123 36q-110 0 -189.5 -74.5t-106.5 -207.5q-10 -49 -10 -92q0 -97 50 -149.5t142 -52.5q166 0 244 159l125 -15
q-51 -123 -152 -191t-230 -68z" />
    <glyph glyph-name="D" unicode="D" horiz-adv-x="838" 
d="M215 769h258q158 0 241 -73.5t83 -212.5q0 -53 -12 -113q-72 -370 -439 -370h-295zM653 383q11 61 11 99q0 95 -50.5 136.5t-149.5 41.5h-139l-118 -552h146q244 0 300 275z" />
    <glyph glyph-name="E" unicode="E" horiz-adv-x="721" 
d="M762 768l-24 -110h-415l-45 -210h382l-23 -107h-382l-50 -231h421l-24 -110h-551l164 768h547z" />
    <glyph glyph-name="F" unicode="F" horiz-adv-x="684" 
d="M735 768l-24 -110h-388l-45 -210h355l-22 -106h-356l-73 -342h-131l164 768h520z" />
    <glyph glyph-name="G" unicode="G" horiz-adv-x="902" 
d="M674 308h-205l22 101h331l-87 -409h-96l-1 90q-92 -107 -247 -107q-140 0 -216 85q-78 84 -78 223q0 53 11 106q39 185 152 286t291 101q122 0 198.5 -60t93.5 -171l-130 -21q-27 142 -176 142q-111 0 -190 -76t-107 -213q-9 -49 -9 -90q0 -96 49 -149.5t135 -53.5
q168 0 244 148z" />
    <glyph glyph-name="H" unicode="H" horiz-adv-x="857" 
d="M653 452l67 316h133l-164 -768h-133l73 340h-372l-73 -340h-133l164 768h133l-67 -316h372z" />
    <glyph glyph-name="I" unicode="I" horiz-adv-x="351" 
d="M184 0h-133l164 768h133z" />
    <glyph glyph-name="J" unicode="J" horiz-adv-x="683" 
d="M267 -14q-102 0 -163 52q-62 53 -62 138q0 37 14 90h130q-13 -46 -13 -77q0 -93 104 -93q123 0 152 135l114 537h136l-114 -537q-25 -118 -101 -181.5t-197 -63.5z" />
    <glyph glyph-name="K" unicode="K" horiz-adv-x="777" 
d="M666 769h171l-358 -338l222 -431h-145l-181 353l-144 -131l-47 -222h-133l164 769h133l-82 -385z" />
    <glyph glyph-name="L" unicode="L" horiz-adv-x="668" 
d="M350 768l-140 -657h380l-24 -111h-515l164 768h135z" />
    <glyph glyph-name="M" unicode="M" horiz-adv-x="1076" 
d="M553 236l314 532h206l-164 -768h-122l127 594l18 80l-44 -80l-352 -594h-115l-97 594l-11 83l-16 -83l-126 -594h-120l164 768h194l86 -532l9 -91z" />
    <glyph glyph-name="N" unicode="N" horiz-adv-x="872" 
d="M613 163l128 606h127l-164 -769h-148l-250 605l-128 -605h-127l164 769h150z" />
    <glyph glyph-name="O" unicode="O" horiz-adv-x="924" 
d="M420 -17q-151 0 -236 85q-86 86 -86 229q0 52 11 104q36 175 154 279q119 105 286 105q152 0 238 -85q86 -86 86 -230q0 -43 -11 -103q-36 -177 -153 -280q-118 -104 -289 -104zM431 92q114 0 193.5 78t105.5 214q9 45 9 82q0 99 -53 154.5t-148 55.5q-114 0 -192.5 -77
t-105.5 -215q-9 -44 -9 -82q0 -99 53 -154.5t147 -55.5z" />
    <glyph glyph-name="P" unicode="P" horiz-adv-x="742" 
d="M215 768h282q115 0 176.5 -53.5t61.5 -147.5q0 -132 -82 -208q-83 -77 -220 -77h-189l-60 -282h-133zM267 389h168q74 0 118.5 47t44.5 123q0 101 -118 101h-155z" />
    <glyph glyph-name="Q" unicode="Q" horiz-adv-x="951" 
d="M862 367q-41 -192 -169 -293l99 -125l-90 -62l-79 142q-89 -46 -203 -46q-151 0 -236 85q-86 86 -86 229q0 52 11 104q36 175 154 279q119 105 286 105q152 0 238 -85q86 -86 86 -230q0 -43 -11 -103zM231 302q0 -99 53 -154.5t147 -55.5q72 0 130 31l-110 139l89 62
l86 -153q77 80 104 213q9 45 9 82q0 99 -53 154.5t-148 55.5q-114 0 -192 -77t-106 -215q-9 -44 -9 -82z" />
    <glyph glyph-name="R" unicode="R" horiz-adv-x="800" 
d="M784 602q0 -88 -54.5 -150t-148.5 -87q93 -25 93 -130q0 -4 -2 -42l-15 -193h-129l16 188q2 26 2 39q0 45 -23 64.5t-77 19.5h-198l-66 -311h-131l164 768h361q99 0 153.5 -44.5t54.5 -121.5zM271 416h174q91 0 145.5 43.5t54.5 119.5q0 84 -126 84h-195z" />
    <glyph glyph-name="S" unicode="S" horiz-adv-x="783" 
d="M343 -19q-138 0 -214.5 55.5t-76.5 158.5v17l132 13v-17q0 -122 171 -122q99 0 154.5 34t55.5 103q0 41 -30.5 66t-93.5 38l-94 20q-192 43 -192 192q0 123 87.5 186.5t243.5 63.5q135 0 207 -50.5t72 -141.5v-14l-128 -13v15q0 101 -161 101q-181 0 -181 -127
q0 -37 26.5 -59t88.5 -35l91 -19q102 -21 153 -72t51 -125q0 -134 -97 -201t-265 -67z" />
    <glyph glyph-name="T" unicode="T" horiz-adv-x="681" 
d="M141 768h610l-24 -110h-239l-140 -658h-133l140 658h-238z" />
    <glyph glyph-name="U" unicode="U" horiz-adv-x="848" 
d="M376 -17q-133 0 -204.5 54t-71.5 158q0 33 12 90l102 483h137l-106 -498q-6 -32 -6 -57q0 -114 148 -114q93 0 144 41t70 130l106 498h137l-105 -495q-31 -149 -118.5 -219.5t-244.5 -70.5z" />
    <glyph glyph-name="V" unicode="V" horiz-adv-x="733" 
d="M355 179l310 589h146l-422 -768h-161l-103 768h134l65 -589l2 -63z" />
    <glyph glyph-name="W" unicode="W" horiz-adv-x="1140" 
d="M815 210l268 558h135l-384 -768h-156l-39 639l-286 -639h-156l-72 768h121l46 -557l-1 -108l42 107l248 558h165l28 -557l-3 -107z" />
    <glyph glyph-name="X" unicode="X" horiz-adv-x="746" 
d="M648 768h158l-339 -376l194 -392h-143l-120 259l-15 39l-31 -39l-229 -259h-161l363 400l-180 368h143l107 -234l13 -39l33 39z" />
    <glyph glyph-name="Y" unicode="Y" horiz-adv-x="723" 
d="M656 769h153l-375 -462h-1l-65 -307h-134l66 308l-181 461h133l116 -314l13 -43l30 43z" />
    <glyph glyph-name="Z" unicode="Z" horiz-adv-x="779" 
d="M200 768h600l-20 -91l-566 -569h454l-24 -108h-626l20 92l560 568h-421z" />
    <glyph glyph-name="bracketleft" unicode="[" horiz-adv-x="449" 
d="M293 -204h-286l214 1007h286l-23 -109h-161l-167 -789h160z" />
    <glyph glyph-name="backslash" unicode="\" horiz-adv-x="541" 
d="M430 0h-116l-156 768h116z" />
    <glyph glyph-name="bracketright" unicode="]" horiz-adv-x="450" 
d="M239 -204h-287l24 109h160l168 789h-160l23 109h286z" />
    <glyph glyph-name="asciicircum" unicode="^" horiz-adv-x="757" 
d="M302 768h149l205 -547h-139l-119 339q0 1 -25 84q-17 -50 -26 -85l-117 -338h-130z" />
    <glyph glyph-name="underscore" unicode="_" horiz-adv-x="500" 
d="M409 -154h-500l17 79h500z" />
    <glyph glyph-name="grave" unicode="`" horiz-adv-x="500" 
d="M458 657h-100l-116 172h142z" />
    <glyph glyph-name="a" unicode="a" horiz-adv-x="677" 
d="M380 564q107 0 160.5 -36t53.5 -101q0 -15 -5 -45l-58 -270q-8 -45 -8 -77q0 -5 2 -35h-120v65q-71 -81 -194 -81q-83 0 -129.5 38t-46.5 108q0 84 59.5 126.5t188.5 64.5l132 22q22 4 44 13l1 7q6 25 6 41q0 67 -102 67q-63 0 -96.5 -22t-49.5 -74l-112 11
q48 178 274 178zM261 71q48 0 88 22.5t65 64.5l25 117q-15 -6 -35 -9l-114 -21q-64 -12 -94 -35.5t-30 -64.5q0 -74 95 -74z" />
    <glyph glyph-name="b" unicode="b" horiz-adv-x="704" 
d="M447 564q92 0 145 -58.5t53 -158.5q0 -41 -9 -85q-25 -126 -101 -202q-77 -75 -182 -75q-121 0 -174 102l-28 -87h-115l163 768h130l-60 -283q73 79 178 79zM507 272q5 35 5 56q0 62 -29.5 97.5t-80.5 35.5q-57 0 -102 -36.5t-72 -107.5l-17 -92q1 -65 34 -101t87 -36
q65 0 111.5 49t63.5 135z" />
    <glyph glyph-name="c" unicode="c" horiz-adv-x="649" 
d="M293 -16q-111 0 -172 59.5t-61 165.5q0 37 9 79q26 131 107.5 203t204.5 72q100 0 159.5 -49t63.5 -136l-124 -15q-3 47 -31 73t-77 26q-137 0 -176 -186q-7 -29 -7 -63q0 -61 29.5 -93.5t84.5 -32.5q98 0 148 116l121 -13q-36 -99 -107.5 -152.5t-171.5 -53.5z" />
    <glyph glyph-name="d" unicode="d" horiz-adv-x="704" 
d="M522 471l63 297h130l-164 -768h-120l10 69q-79 -85 -183 -85q-91 0 -145 58.5t-54 159.5q0 40 9 86q26 129 101 201q77 74 179 74q124 0 174 -92zM304 87q55 0 100.5 36.5t71.5 106.5l16 62q1 6 1 27q0 68 -32 104.5t-90 36.5q-63 0 -110.5 -50.5t-63.5 -134.5
q-5 -37 -5 -56q0 -62 30.5 -97t81.5 -35z" />
    <glyph glyph-name="e" unicode="e" horiz-adv-x="684" 
d="M611 241h-424q-2 -26 -2 -30q0 -63 32.5 -96t92.5 -33q96 0 155 78l112 -21q-43 -74 -113.5 -114.5t-160.5 -40.5q-115 0 -179.5 60.5t-64.5 166.5q0 29 9 75q24 125 110 202q85 76 215 76q111 0 171.5 -59t60.5 -161q0 -50 -14 -103zM384 473q-64 0 -110.5 -38.5
t-69.5 -112.5h297q2 26 2 27q0 124 -119 124z" />
    <glyph glyph-name="f" unicode="f" horiz-adv-x="492" 
d="M544 679h-115q-35 0 -52.5 -16t-25.5 -53l-23 -70l186 8l-19 -91l-181 8l-5 -55l-88 -410h-130l88 411l19 53l-133 -7l20 91l130 -7l5 63q19 89 62 127q41 37 134 37h147z" />
    <glyph glyph-name="g" unicode="g" horiz-adv-x="692" 
d="M518 472l23 79h116l-111 -524q-49 -235 -285 -235q-110 0 -168.5 42.5t-63.5 121.5l122 13q9 -83 118 -83q62 0 98 33.5t52 106.5l15 72q-74 -68 -170 -68q-90 0 -144 55t-54 150q0 135 80 232q80 96 205 96q113 0 167 -91zM306 130q52 0 94 31t66 83l22 100
q-1 54 -33.5 86t-81.5 32q-78 0 -127 -64t-49 -149q0 -55 29 -87t80 -32z" />
    <glyph glyph-name="h" unicode="h" horiz-adv-x="677" 
d="M441 563q77 0 121 -42t44 -116q0 -29 -7 -56l-74 -349h-130l71 336q5 22 5 39q0 37 -21.5 58t-60.5 21q-93 0 -150 -110l-73 -344h-130l164 768h130l-60 -283q74 78 171 78z" />
    <glyph glyph-name="i" unicode="i" horiz-adv-x="317" 
d="M306 661h-130l28 133h130zM165 0h-130l117 548h130z" />
    <glyph glyph-name="j" unicode="j" horiz-adv-x="317" 
d="M305 661h-130l29 133h130zM-38 -208h-67l20 98h35q34 0 51 15t24 49l126 594h130l-127 -599q-17 -84 -61 -120.5t-131 -36.5z" />
    <glyph glyph-name="k" unicode="k" horiz-adv-x="661" 
d="M511 548h160l-263 -218l157 -330h-134l-115 262l-113 -88l-37 -174h-130l164 768h130l-97 -453z" />
    <glyph glyph-name="l" unicode="l" horiz-adv-x="318" 
d="M166 0h-130l164 768h130z" />
    <glyph glyph-name="m" unicode="m" horiz-adv-x="1037" 
d="M804 563q74 0 118.5 -42t44.5 -113q0 -25 -6 -52l-76 -356h-130l72 336q4 17 4 38q0 38 -21 59t-60 21q-98 0 -153 -118h-1l-71 -336h-130l72 336q4 17 4 38q0 80 -81 80q-96 0 -152 -113l-72 -341h-130l117 548h120l-11 -70q76 85 183 85q61 0 102.5 -29.5t54.5 -80.5
q81 110 202 110z" />
    <glyph glyph-name="n" unicode="n" horiz-adv-x="677" 
d="M441 563q77 0 121 -42t44 -116q0 -27 -7 -59l-74 -346h-130l71 336q5 22 5 39q0 37 -21.5 58t-60.5 21q-94 0 -151 -113l-72 -341h-130l117 548h119l-10 -71q77 86 179 86z" />
    <glyph glyph-name="o" unicode="o" horiz-adv-x="696" 
d="M297 -16q-111 0 -174.5 60t-63.5 163q0 30 8 76q28 133 113.5 207t217.5 74q113 0 176 -59.5t63 -164.5q0 -36 -9 -77q-27 -133 -112 -206t-219 -73zM308 88q150 0 191 185q7 29 7 64q0 59 -30 91t-88 32q-75 0 -124 -48.5t-68 -138.5q-6 -33 -6 -63q0 -59 30 -90.5
t88 -31.5z" />
    <glyph glyph-name="p" unicode="p" horiz-adv-x="705" 
d="M446 564q91 0 145 -58.5t54 -159.5q0 -144 -81 -252q-81 -109 -208 -109q-123 0 -174 93l-60 -282h-130l160 752h121l-10 -69q79 85 183 85zM333 88q80 0 130 74q49 73 49 167q0 62 -30.5 97t-81.5 35q-56 0 -101 -37t-69 -98l-17 -63q-2 -32 -2 -34q0 -68 32 -104.5
t90 -36.5z" />
    <glyph glyph-name="q" unicode="q" horiz-adv-x="705" 
d="M526 464l26 84h118l-160 -752h-130l57 268q-77 -80 -178 -80q-91 0 -145 58.5t-54 159.5q-4 141 80.5 252t208.5 109q127 0 177 -99zM307 87q49 0 91 31.5t69 85.5l27 127q-3 62 -35.5 95.5t-86.5 33.5q-79 0 -129 -74t-50 -167q0 -61 31 -96.5t83 -35.5z" />
    <glyph glyph-name="r" unicode="r" horiz-adv-x="497" 
d="M455 554h41l-24 -115h-31q-76 0 -125.5 -26.5t-81.5 -94.5l-68 -318h-130l117 548h119l-15 -102q71 108 198 108z" />
    <glyph glyph-name="s" unicode="s" horiz-adv-x="636" 
d="M276 -22q-112 0 -173 45.5t-63 129.5l124 12q1 -51 30 -74t90 -23q132 0 132 86q0 28 -19.5 44t-66.5 26l-72 17q-148 31 -148 145q0 90 69.5 136.5t187.5 46.5q106 0 164.5 -42.5t60.5 -119.5l-122 -13q-2 43 -32 65t-82 22q-56 0 -88 -19.5t-32 -57.5q0 -25 19.5 -40
t64.5 -24l70 -14q81 -16 117.5 -52t36.5 -101q0 -94 -70.5 -144.5t-197.5 -50.5z" />
    <glyph glyph-name="t" unicode="t" horiz-adv-x="515" 
d="M312 464l-4 -54l-46 -215q-8 -38 -8 -46q0 -44 57 -44h108l-23 -105h-126q-149 0 -149 116q0 14 5 46l53 249l19 52l-133 -7l20 92l130 -7l2 47l25 121h129l-24 -117l-19 -52l185 8l-19 -92z" />
    <glyph glyph-name="u" unicode="u" horiz-adv-x="677" 
d="M439 207l73 341h130l-117 -548h-120l10 71q-77 -86 -178 -86q-78 0 -121.5 42t-43.5 116q0 32 7 59l74 346h130l-72 -336q-5 -28 -5 -39q0 -37 21.5 -58t60.5 -21q95 0 151 113z" />
    <glyph glyph-name="v" unicode="v" horiz-adv-x="629" 
d="M309 209l189 339h136l-316 -548h-148l-92 548h132l48 -340l7 -89z" />
    <glyph glyph-name="w" unicode="w" horiz-adv-x="927" 
d="M624 214l169 334h139l-297 -548h-131l-25 278l-7 129l-60 -129l-136 -278h-130l-68 548h125l32 -332l4 -76l33 72l162 336h123l25 -330l3 -84z" />
    <glyph glyph-name="x" unicode="x" horiz-adv-x="620" 
d="M481 548h148l-258 -267l151 -281h-139l-94 194l-178 -194h-149l280 285l-142 263h138l85 -175z" />
    <glyph glyph-name="y" unicode="y" horiz-adv-x="616" 
d="M264 142l217 406h140l-347 -610q-47 -83 -95 -116q-46 -30 -131 -30h-85l21 102h74q36 0 58 15t47 56l12 21l-97 562h132l54 -404v-2z" />
    <glyph glyph-name="z" unicode="z" horiz-adv-x="628" 
d="M131 548h471l-18 -89l-389 -357h332l-22 -102h-497l18 86l392 360h-309z" />
    <glyph glyph-name="braceleft" unicode="{" horiz-adv-x="485" 
d="M328 -205h-124q-108 0 -108 83q0 20 10 66l35 167q9 42 9 59q0 39 -24.5 56.5t-77.5 18.5l24 108q65 0 98.5 27.5t46.5 90.5l44 205q14 66 52 96t106 30h124l-23 -109h-79q-32 0 -47 -12.5t-21 -43.5l-37 -172q-15 -70 -58.5 -112.5t-111.5 -52.5l-1 -2q106 -18 106 -118
q0 -19 -9 -62l-31 -143q-6 -35 -6 -39q0 -32 48 -32h79z" />
    <glyph glyph-name="bar" unicode="|" horiz-adv-x="561" 
d="M351 -204h-130v1007h130v-1007z" />
    <glyph glyph-name="braceright" unicode="}" horiz-adv-x="486" 
d="M77 -205h-125l24 109h80q32 0 46.5 12.5t21.5 44.5l37 171q30 143 170 166v2q-105 16 -105 117q0 20 8 62l31 144q6 25 6 39q0 17 -11 24t-37 7h-78l23 109h124q109 0 109 -83q0 -19 -10 -66l-36 -166q-9 -42 -9 -59q0 -39 24.5 -57t77.5 -18l-23 -109q-65 0 -98.5 -27
t-47.5 -90l-44 -205q-13 -66 -51 -96.5t-107 -30.5z" />
    <glyph glyph-name="asciitilde" unicode="~" horiz-adv-x="757" 
d="M211 261h-109q0 94 41 144.5t114 50.5q41 1 88.5 -21.5t85.5 -45t58 -20.5q56 0 56 87h109q0 -93 -40.5 -144t-113.5 -51q-41 -2 -88 21t-85.5 46t-59.5 21q-56 0 -56 -88z" />
    <glyph glyph-name="uni00A0" unicode="&#xa0;" horiz-adv-x="300" 
 />
    <glyph glyph-name="exclamdown" unicode="&#xa1;" horiz-adv-x="357" 
d="M277 410h-140l30 138h139zM141 -204h-130l50 231l96 303h65l-32 -303z" />
    <glyph glyph-name="cent" unicode="&#xa2;" horiz-adv-x="649" 
d="M303 87q98 0 148 116l121 -13q-67 -187 -247 -205l-30 -141h-102l31 147q-80 17 -122 73.5t-42 144.5q0 37 9 79q24 121 96 192t181 81l31 147h102l-32 -151q71 -15 112 -61.5t45 -117.5l-124 -15q-3 47 -31 73t-77 26q-137 0 -176 -186q-7 -29 -7 -63q0 -61 29.5 -93.5
t84.5 -32.5z" />
    <glyph glyph-name="sterling" unicode="&#xa3;" horiz-adv-x="739" 
d="M694 570l-126 -11q2 14 2 23q0 46 -32 70.5t-85 24.5q-68 0 -110 -37.5t-42 -99.5q0 -39 24 -106l16 -48l238 14l-22 -103l-192 14q16 -76 18 -202h266l-23 -109h-630l24 109h263q-2 129 -27 202l-197 -14l22 103l138 -12l-5 11q-43 93 -43 154q0 102 80 170
q79 66 210 66q109 0 172.5 -48t63.5 -132q0 -18 -3 -39z" />
    <glyph glyph-name="currency" unicode="&#xa4;" horiz-adv-x="757" 
d="M707 640l-117 -109q43 -64 43 -147t-43 -147l117 -109l-72 -73l-109 117q-67 -43 -149 -43q-85 0 -146 43l-109 -117l-72 73l116 109q-42 65 -42 147t42 147l-116 109l72 73l109 -117q61 43 146 43q82 0 149 -43l109 117zM271 274q42 -44 107 -44q64 0 108 44
q42 44 42 110q0 68 -42 111q-43 43 -108 43t-107 -43t-42 -111q0 -66 42 -110z" />
    <glyph glyph-name="yen" unicode="&#xa5;" horiz-adv-x="799" 
d="M705 768h145l-303 -345h174l-19 -88h-582l19 88h178l-158 345h144l118 -283l12 -39l33 49zM307 152h-226l19 88h582l-19 -88h-222l-32 -152h-134z" />
    <glyph glyph-name="brokenbar" unicode="&#xa6;" horiz-adv-x="561" 
d="M351 447h-130v356h130v-356zM351 -204h-130v356h130v-356z" />
    <glyph glyph-name="section" unicode="&#xa7;" horiz-adv-x="725" 
d="M407 527l103 -32q143 -47 143 -158q0 -60 -37 -105.5t-103 -70.5q23 -38 23 -84q0 -88 -68 -141q-67 -52 -178 -52q-96 0 -151.5 39t-57.5 110l121 12q1 -67 98 -67q54 0 85.5 24t31.5 65q0 56 -73 78l-103 32q-143 45 -143 157q0 60 37 105.5t103 70.5q-23 38 -23 84
q0 88 68 141q67 52 178 52q97 0 152 -39t56 -110l-120 -12q-1 67 -98 67q-54 0 -85.5 -24t-31.5 -65q0 -55 73 -77zM437 224q46 12 72 37.5t26 58.5q0 53 -76 78l-109 35q-14 4 -36 14q-46 -12 -72 -37.5t-26 -58.5q0 -53 76 -78l109 -35q14 -4 36 -14z" />
    <glyph glyph-name="dieresis" unicode="&#xa8;" horiz-adv-x="500" 
d="M265 661h-127l28 133h127zM527 661h-127l28 133h127z" />
    <glyph glyph-name="copyright" unicode="&#xa9;" horiz-adv-x="997" 
d="M814 95q-116 -114 -292 -114t-292 114q-115 114 -115 290q0 175 115 289q116 114 292 114t292 -114q115 -114 115 -289q0 -176 -115 -290zM292 150q90 -92 230 -92t230 92q90 91 90 235q0 143 -90 234q-90 92 -230 92t-230 -92q-90 -91 -90 -234t90 -235zM523 184
q-85 0 -135 54t-50 148q0 95 50 148.5t135 53.5q142 0 172 -123l-88 -17q-19 60 -83 60q-91 0 -91 -122q0 -121 91 -121q64 0 84 62l87 -15q-14 -62 -58.5 -95t-113.5 -33z" />
    <glyph glyph-name="ordfeminine" unicode="&#xaa;" horiz-adv-x="601" 
d="M397 776q90 0 138.5 -31.5t48.5 -86.5q0 -28 -9 -65l-49 -232h-96l2 56q-72 -57 -163 -57q-63 0 -97.5 29t-34.5 78q0 56 43 91t118 42l168 16q5 27 5 37q0 47 -81 47q-72 0 -96 -44l-101 26q29 49 77.5 71.5t126.5 22.5zM257 484q0 -43 60 -43q37 0 70.5 16t52.5 38
l12 57l-116 -12q-79 -7 -79 -56z" />
    <glyph glyph-name="guillemotleft" unicode="&#xab;" horiz-adv-x="794" 
d="M328 113l-26 -125l-223 217l30 138l314 217l-31 -147l-219 -150zM665 113l-26 -125l-223 217l29 138l315 217l-31 -147l-219 -150z" />
    <glyph glyph-name="logicalnot" unicode="&#xac;" horiz-adv-x="757" 
d="M637 186h-104v199h-415v102h519v-301z" />
    <glyph glyph-name="uni00AD" unicode="&#xad;" horiz-adv-x="390" 
d="M335 235h-296l22 104h296z" />
    <glyph glyph-name="registered" unicode="&#xae;" horiz-adv-x="679" 
d="M217 712q74 71 179 71t179 -71q73 -70 73 -174q0 -103 -73 -173q-74 -71 -179 -71t-179 71t-74 173q0 103 74 174zM255 401q56 -55 141 -55t141 55q56 56 56 137q0 83 -56 139q-56 55 -141 55q-83 0 -141 -56q-57 -56 -57 -138t57 -137zM497 485l3 -36q2 -23 11 -36h-55
q-8 9 -9 36l-2 30q-2 19 -11 27t-29 8h-56v-101h-52v256h115q91 0 91 -67q0 -50 -60 -63v-6q28 -3 40 -13.5t14 -34.5zM349 556h55q46 0 46 35q0 34 -42 34h-59v-69z" />
    <glyph glyph-name="overscore" unicode="&#xaf;" horiz-adv-x="500" 
d="M519 664h-371l19 91h371z" />
    <glyph glyph-name="degree" unicode="&#xb0;" horiz-adv-x="541" 
d="M480 440q-57 -57 -144 -57q-88 0 -143 57q-57 56 -57 143t57 144q56 56 143 56q86 0 144 -56q56 -58 56 -144q0 -87 -56 -143zM336 472q48 0 78.5 31.5t30.5 79.5t-30.5 79.5t-78.5 31.5q-47 0 -78 -31.5t-31 -79.5t31 -79.5t78 -31.5z" />
    <glyph glyph-name="plusminus" unicode="&#xb1;" horiz-adv-x="757" 
d="M431 623v-160h228v-103h-228v-159h-106v159h-228v103h228v160h106zM653 17h-549v109h549v-109z" />
    <glyph glyph-name="two.sups" unicode="&#xb2;" horiz-adv-x="511" 
d="M482 369h-400q18 161 177 210l105 33q85 28 85 80q0 29 -23.5 45.5t-67.5 16.5q-96 0 -126 -84l-84 22q25 66 81 102.5t138 36.5q80 0 127 -34.5t47 -94.5q0 -114 -162 -160l-83 -24q-84 -25 -93 -70h296z" />
    <glyph glyph-name="three.sups" unicode="&#xb3;" horiz-adv-x="508" 
d="M291 357q-87 0 -135 38t-52 106l89 15q6 -83 103 -83q51 0 82.5 22t31.5 56q0 53 -90 53h-38l16 75h34q52 0 81 17.5t29 47.5q0 55 -89 55t-119 -65l-85 13q21 58 77.5 91t136.5 33q76 0 123 -30t47 -83q0 -40 -26 -70.5t-68 -39.5l-1 -2q67 -22 67 -91q0 -70 -59 -114
t-155 -44z" />
    <glyph glyph-name="acute" unicode="&#xb4;" horiz-adv-x="500" 
d="M331 657h-114l111 172h155z" />
    <glyph glyph-name="uni00B5" unicode="&#xb5;" horiz-adv-x="793" 
d="M282 -204h-130v752h130v-335q0 -57 27 -87.5t77 -30.5q89 0 126 100v353h130v-548h-120l-5 73q-64 -88 -159 -88q-65 0 -106 37l-2 -1l32 -117v-108z" />
    <glyph glyph-name="paragraph" unicode="&#xb6;" horiz-adv-x="731" 
d="M320 -105h-103l106 477q-98 0 -149.5 39t-51.5 114q0 117 73 180t203 63h329l-186 -873h-103l164 770h-118z" />
    <glyph glyph-name="middot" unicode="&#xb7;" horiz-adv-x="327" 
d="M242 315h-140l30 138h140z" />
    <glyph glyph-name="cedilla" unicode="&#xb8;" horiz-adv-x="500" 
d="M94 -270h-85l14 68h74q86 0 86 46q0 29 -36 29h-108l13 62h124q104 0 104 -84q0 -59 -48.5 -90t-137.5 -31z" />
    <glyph glyph-name="one.sups" unicode="&#xb9;" horiz-adv-x="373" 
d="M300 369h-92l58 276h-140l16 77h67q74 0 87 61l8 39h92z" />
    <glyph glyph-name="ordmasculine" unicode="&#xba;" horiz-adv-x="583" 
d="M332 362q-93 0 -148.5 49t-55.5 130q0 105 69 169q67 64 179 64q95 0 149.5 -49t54.5 -131q0 -103 -68 -168q-68 -64 -180 -64zM342 448q123 0 123 144q0 98 -98 98q-123 0 -123 -146q0 -96 98 -96z" />
    <glyph glyph-name="guillemotright" unicode="&#xbb;" horiz-adv-x="794" 
d="M348 205l-314 -217l31 147l219 150l-155 150l26 125l223 -217zM685 205l-314 -217l31 147l218 150l-154 150l26 125l223 -217z" />
    <glyph glyph-name="onequarter" unicode="&#xbc;" horiz-adv-x="1266" 
d="M355 336h-93l58 276h-139l16 77h66q75 0 87 61l8 39h93zM334 -15h-110l665 798h108zM1028 0h-92l24 112l-264 -8l18 84l303 265h107l-59 -279l73 9l-17 -79l-69 8zM1009 358l-203 -177l167 -7l38 183z" />
    <glyph glyph-name="onehalf" unicode="&#xbd;" horiz-adv-x="1304" 
d="M355 336h-93l58 276h-139l16 77h66q75 0 87 61l8 39h93zM334 -15h-110l665 798h108zM1138 0h-401q18 161 178 210l105 33q85 28 85 80q0 62 -92 62q-95 0 -126 -84l-83 22q54 139 219 139q80 0 127 -34.5t47 -94.5q0 -112 -162 -160l-83 -24q-83 -26 -94 -70h296z" />
    <glyph glyph-name="threequarters" unicode="&#xbe;" horiz-adv-x="1363" 
d="M323 324q-88 0 -136 38t-52 106l89 15q6 -83 103 -83q51 0 82.5 22t31.5 56q0 53 -90 53h-38l16 74h35q51 0 80.5 18t29.5 48q0 55 -90 55q-87 0 -119 -65l-85 13q21 58 78 91t137 33q76 0 123 -30t47 -83q0 -40 -26.5 -71t-68.5 -39l-1 -2q67 -22 67 -91
q0 -70 -58.5 -114t-154.5 -44zM445 -15h-110l665 798h109zM1139 0h-92l24 112l-264 -8l19 84l303 265h106l-58 -279l73 9l-17 -79l-70 8zM1121 358l-203 -177l166 -7l39 183z" />
    <glyph glyph-name="questiondown" unicode="&#xbf;" horiz-adv-x="735" 
d="M491 416h-149l27 132h150zM291 -230q-127 0 -199 51t-72 143q0 133 161 210l56 28q44 21 63.5 44.5t29.5 66.5l5 24h131l-8 -36q-15 -71 -55 -116t-123 -80q-68 -30 -95.5 -58.5t-27.5 -67.5q0 -48 36.5 -73.5t104.5 -25.5q77 0 121 32t63 100l128 -20
q-60 -222 -319 -222z" />
    <glyph glyph-name="Agrave" unicode="&#xc0;" horiz-adv-x="785" 
d="M489 1049l75 -172h-101l-116 172h142zM700 0h-135l-23 172h-343l-94 -172h-143l436 768h182zM448 625l-190 -347h270l-47 347l-5 60z" />
    <glyph glyph-name="Aacute" unicode="&#xc1;" horiz-adv-x="785" 
d="M526 1049h155l-152 -172h-114zM700 0h-135l-23 172h-343l-94 -172h-143l436 768h182zM448 625l-190 -347h270l-47 347l-5 60z" />
    <glyph glyph-name="Acircumflex" unicode="&#xc2;" horiz-adv-x="785" 
d="M601 869l-65 116l-115 -116h-122l181 182h121l106 -182h-106zM-38 0l436 768h182l120 -768h-135l-23 172h-343l-94 -172h-143zM448 625l-190 -347h270l-47 347l-5 60z" />
    <glyph glyph-name="Atilde" unicode="&#xc3;" horiz-adv-x="785" 
d="M675 1033h97q-19 -87 -63.5 -134t-108.5 -47q-34 0 -58.5 13.5t-35.5 30t-26.5 30t-34.5 13.5q-23 0 -38.5 -20t-27.5 -64h-97q19 88 63 134.5t108 46.5t95 -43t60 -43q23 0 38.5 19.5t28.5 63.5zM-38 0l436 768h182l120 -768h-135l-23 172h-343l-94 -172h-143zM448 625
l-190 -347h270l-47 347l-5 60z" />
    <glyph glyph-name="Adieresis" unicode="&#xc4;" horiz-adv-x="785" 
d="M340 1013h134l-28 -131h-134zM581 882l28 131h133l-27 -131h-134zM-38 0l436 768h182l120 -768h-135l-23 172h-343l-94 -172h-143zM448 625l-190 -347h270l-47 347l-5 60z" />
    <glyph glyph-name="Aring" unicode="&#xc5;" horiz-adv-x="785" 
d="M700 0h-135l-23 172h-343l-94 -172h-143l421 742q-44 42 -44 110q0 67 43.5 110.5t110.5 43.5q68 0 111 -43q44 -44 44 -111q0 -80 -62 -125zM493 936q-36 0 -59 -23t-23 -61t23 -60.5t59 -22.5q37 0 60 22.5t23 60.5t-23 61t-60 23zM448 625l-190 -347h270l-47 347
l-5 60z" />
    <glyph glyph-name="AE" unicode="&#xc6;" horiz-adv-x="1223" 
d="M1264 768l-24 -110h-415l-45 -210h382l-23 -107h-382l-50 -231h421l-24 -110h-551l41 190h-339l-148 -190h-145l601 768h701zM619 658l-282 -362h279l78 362h-75z" />
    <glyph glyph-name="Ccedilla" unicode="&#xc7;" horiz-adv-x="854" 
d="M408 -18q-145 0 -227 85q-84 84 -84 228q0 57 13 115q37 176 155 276q117 99 280 99q127 0 204.5 -60.5t96.5 -174.5l-130 -15q-11 66 -58 102t-123 36q-110 0 -189.5 -74.5t-106.5 -207.5q-10 -49 -10 -92q0 -97 50 -149.5t142 -52.5q166 0 244 159l125 -15
q-51 -123 -152 -191t-230 -68zM317 -276h-85l14 68h74q86 0 86 46q0 29 -36 29h-108l13 62h124q104 0 104 -84q0 -59 -48.5 -90t-137.5 -31z" />
    <glyph glyph-name="Egrave" unicode="&#xc8;" horiz-adv-x="721" 
d="M488 1049l75 -172h-101l-116 172h142zM762 768l-24 -110h-415l-45 -210h382l-23 -107h-382l-50 -231h421l-24 -110h-551l164 768h547z" />
    <glyph glyph-name="Eacute" unicode="&#xc9;" horiz-adv-x="721" 
d="M525 1049h155l-152 -172h-114zM762 768l-24 -110h-415l-45 -210h382l-23 -107h-382l-50 -231h421l-24 -110h-551l164 768h547z" />
    <glyph glyph-name="Ecircumflex" unicode="&#xca;" horiz-adv-x="721" 
d="M600 869l-65 116l-115 -116h-122l181 182h121l106 -182h-106zM762 768l-24 -110h-415l-45 -210h382l-23 -107h-382l-50 -231h421l-24 -110h-551l164 768h547z" />
    <glyph glyph-name="Edieresis" unicode="&#xcb;" horiz-adv-x="721" 
d="M339 1013h134l-28 -131h-134zM608 1013h133l-27 -131h-134zM762 768l-24 -110h-415l-45 -210h382l-23 -107h-382l-50 -231h421l-24 -110h-551l164 768h547z" />
    <glyph glyph-name="Igrave" unicode="&#xcc;" horiz-adv-x="351" 
d="M356 877h-101l-116 172h142zM184 0h-133l164 768h133z" />
    <glyph glyph-name="Iacute" unicode="&#xcd;" horiz-adv-x="351" 
d="M321 877h-114l111 172h155zM184 0h-133l164 768h133z" />
    <glyph glyph-name="Icircumflex" unicode="&#xce;" horiz-adv-x="351" 
d="M213 869h-122l181 182h121l106 -182h-106l-65 116zM184 0h-133l164 768h133z" />
    <glyph glyph-name="Idieresis" unicode="&#xcf;" horiz-adv-x="351" 
d="M238 882h-134l28 131h134zM507 882h-134l28 131h134zM184 0h-133l164 768h133z" />
    <glyph glyph-name="Eth" unicode="&#xd0;" horiz-adv-x="918" 
d="M295 769h258q158 0 241 -73.5t83 -212.5q0 -53 -12 -113q-72 -370 -439 -370h-295l73 344l-165 -11l23 102l159 -11zM733 383q11 61 11 99q0 95 -50.5 136.5t-149.5 41.5h-139l-51 -236l178 11l-23 -102l-172 11l-50 -236h146q244 0 300 275z" />
    <glyph glyph-name="Ntilde" unicode="&#xd1;" horiz-adv-x="872" 
d="M496 939q-23 0 -38.5 -20t-27.5 -64h-97q19 88 63 134.5t108 46.5t95 -43t60 -43q23 0 38.5 19.5t28.5 63.5h97q-19 -87 -63.5 -134t-108.5 -47q-34 0 -58.5 13.5t-35.5 30t-26.5 30t-34.5 13.5zM613 163l128 606h127l-164 -769h-148l-250 605l-128 -605h-127l164 769
h150z" />
    <glyph glyph-name="Ograve" unicode="&#xd2;" horiz-adv-x="924" 
d="M620 887h-101l-116 172h142zM420 -17q-151 0 -236 85q-86 86 -86 229q0 52 11 104q36 175 154 279q119 105 286 105q152 0 238 -85q86 -86 86 -230q0 -43 -11 -103q-36 -177 -153 -280q-118 -104 -289 -104zM431 92q114 0 193.5 78t105.5 214q9 45 9 82q0 99 -53 154.5
t-148 55.5q-114 0 -192.5 -77t-105.5 -215q-9 -44 -9 -82q0 -99 53 -154.5t147 -55.5z" />
    <glyph glyph-name="Oacute" unicode="&#xd3;" horiz-adv-x="924" 
d="M585 887h-114l111 172h155zM420 -17q-151 0 -236 85q-86 86 -86 229q0 52 11 104q36 175 154 279q119 105 286 105q152 0 238 -85q86 -86 86 -230q0 -43 -11 -103q-36 -177 -153 -280q-118 -104 -289 -104zM431 92q114 0 193.5 78t105.5 214q9 45 9 82q0 99 -53 154.5
t-148 55.5q-114 0 -192.5 -77t-105.5 -215q-9 -44 -9 -82q0 -99 53 -154.5t147 -55.5z" />
    <glyph glyph-name="Ocircumflex" unicode="&#xd4;" horiz-adv-x="924" 
d="M477 879h-122l181 182h121l106 -182h-106l-65 116zM420 -17q-151 0 -236 85q-86 86 -86 229q0 52 11 104q36 175 154 279q119 105 286 105q152 0 238 -85q86 -86 86 -230q0 -43 -11 -103q-36 -177 -153 -280q-118 -104 -289 -104zM431 92q114 0 193.5 78t105.5 214
q9 45 9 82q0 99 -53 154.5t-148 55.5q-114 0 -192.5 -77t-105.5 -215q-9 -44 -9 -82q0 -99 53 -154.5t147 -55.5z" />
    <glyph glyph-name="Otilde" unicode="&#xd5;" horiz-adv-x="924" 
d="M436 865h-97q19 88 63 134.5t108 46.5t95 -43t60 -43q23 0 38.5 19.5t28.5 63.5h97q-19 -87 -63.5 -134t-108.5 -47q-34 0 -58.5 13.5t-35.5 30t-26.5 30t-34.5 13.5q-23 0 -38.5 -20t-27.5 -64zM420 -17q-151 0 -236 85q-86 86 -86 229q0 52 11 104q36 175 154 279
q119 105 286 105q152 0 238 -85q86 -86 86 -230q0 -43 -11 -103q-36 -177 -153 -280q-118 -104 -289 -104zM431 92q114 0 193.5 78t105.5 214q9 45 9 82q0 99 -53 154.5t-148 55.5q-114 0 -192.5 -77t-105.5 -215q-9 -44 -9 -82q0 -99 53 -154.5t147 -55.5z" />
    <glyph glyph-name="Odieresis" unicode="&#xd6;" horiz-adv-x="924" 
d="M503 892h-134l28 131h134zM772 892h-134l28 131h133zM420 -17q-151 0 -236 85q-86 86 -86 229q0 52 11 104q36 175 154 279q119 105 286 105q152 0 238 -85q86 -86 86 -230q0 -43 -11 -103q-36 -177 -153 -280q-118 -104 -289 -104zM431 92q114 0 193.5 78t105.5 214
q9 45 9 82q0 99 -53 154.5t-148 55.5q-114 0 -192.5 -77t-105.5 -215q-9 -44 -9 -82q0 -99 53 -154.5t147 -55.5z" />
    <glyph glyph-name="multiply" unicode="&#xd7;" horiz-adv-x="757" 
d="M378 272l-199 -198l-68 68l199 199l-199 198l68 68l199 -198l198 198l69 -68l-199 -198l199 -199l-69 -68z" />
    <glyph glyph-name="Oslash" unicode="&#xd8;" horiz-adv-x="924" 
d="M865 800l51 -51l-95 -91q52 -77 52 -188q0 -43 -11 -103q-36 -177 -153 -280q-118 -104 -289 -104q-137 0 -225 74l-96 -92l-51 51l100 96q-50 77 -50 185q0 52 11 104q36 175 154 279q119 105 286 105q139 0 224 -73zM231 302q0 -57 16 -95l435 418q-52 51 -144 51
q-114 0 -192.5 -77t-105.5 -215q-9 -44 -9 -82zM739 466q0 52 -17 97l-436 -418q56 -53 145 -53q114 0 193.5 78t105.5 214q9 45 9 82z" />
    <glyph glyph-name="Ugrave" unicode="&#xd9;" horiz-adv-x="848" 
d="M595 877h-101l-116 172h142zM376 -17q-133 0 -204.5 54t-71.5 158q0 33 12 90l102 483h137l-106 -498q-6 -32 -6 -57q0 -114 148 -114q93 0 144 41t70 130l106 498h137l-105 -495q-31 -149 -118.5 -219.5t-244.5 -70.5z" />
    <glyph glyph-name="Uacute" unicode="&#xda;" horiz-adv-x="848" 
d="M560 877h-114l111 172h155zM376 -17q-133 0 -204.5 54t-71.5 158q0 33 12 90l102 483h137l-106 -498q-6 -32 -6 -57q0 -114 148 -114q93 0 144 41t70 130l106 498h137l-105 -495q-31 -149 -118.5 -219.5t-244.5 -70.5z" />
    <glyph glyph-name="Ucircumflex" unicode="&#xdb;" horiz-adv-x="848" 
d="M452 869h-122l181 182h121l106 -182h-106l-65 116zM376 -17q-133 0 -204.5 54t-71.5 158q0 33 12 90l102 483h137l-106 -498q-6 -32 -6 -57q0 -114 148 -114q93 0 144 41t70 130l106 498h137l-105 -495q-31 -149 -118.5 -219.5t-244.5 -70.5z" />
    <glyph glyph-name="Udieresis" unicode="&#xdc;" horiz-adv-x="848" 
d="M478 882h-134l28 131h134zM747 882h-134l28 131h133zM376 -17q-133 0 -204.5 54t-71.5 158q0 33 12 90l102 483h137l-106 -498q-6 -32 -6 -57q0 -114 148 -114q93 0 144 41t70 130l106 498h137l-105 -495q-31 -149 -118.5 -219.5t-244.5 -70.5z" />
    <glyph glyph-name="Yacute" unicode="&#xdd;" horiz-adv-x="723" 
d="M498 1042h155l-152 -172h-114zM656 769h153l-375 -462h-1l-65 -307h-134l66 308l-181 461h133l116 -314l13 -43l30 43z" />
    <glyph glyph-name="Thorn" unicode="&#xde;" horiz-adv-x="753" 
d="M322 647h160q115 0 176 -54t61 -148q0 -132 -82 -208q-83 -77 -220 -77h-199l-34 -160h-133l164 768h133zM241 267h179q75 0 119 46.5t44 124.5q0 100 -118 100h-166z" />
    <glyph glyph-name="germandbls" unicode="&#xdf;" horiz-adv-x="727" 
d="M166 0h-130l117 554q24 112 91.5 165.5t189.5 53.5q118 0 183 -47.5t65 -129.5q0 -66 -41 -112t-113 -65v-3q124 -34 124 -160q0 -108 -83 -182q-85 -74 -213 -74h-69l23 104h44q79 0 123 42t44 112q0 104 -120 104h-37l22 104h30q62 0 101 31.5t39 81.5q0 90 -126 90
q-65 0 -99.5 -29t-48.5 -93z" />
    <glyph glyph-name="agrave" unicode="&#xe0;" horiz-adv-x="677" 
d="M390 829l75 -172h-101l-116 172h142zM380 564q107 0 160.5 -36t53.5 -101q0 -15 -5 -45l-58 -270q-8 -45 -8 -77q0 -5 2 -35h-120v65q-71 -81 -194 -81q-83 0 -129.5 38t-46.5 108q0 84 59.5 126.5t188.5 64.5l132 22q22 4 44 13l1 7q6 25 6 41q0 67 -102 67
q-63 0 -96.5 -22t-49.5 -74l-112 11q48 178 274 178zM261 71q48 0 88 22.5t65 64.5l25 117q-15 -6 -35 -9l-114 -21q-64 -12 -94 -35.5t-30 -64.5q0 -74 95 -74z" />
    <glyph glyph-name="aacute" unicode="&#xe1;" horiz-adv-x="677" 
d="M427 829h155l-152 -172h-114zM380 564q107 0 160.5 -36t53.5 -101q0 -15 -5 -45l-58 -270q-8 -45 -8 -77q0 -5 2 -35h-120v65q-71 -81 -194 -81q-83 0 -129.5 38t-46.5 108q0 84 59.5 126.5t188.5 64.5l132 22q22 4 44 13l1 7q6 25 6 41q0 67 -102 67q-63 0 -96.5 -22
t-49.5 -74l-112 11q48 178 274 178zM261 71q48 0 88 22.5t65 64.5l25 117q-15 -6 -35 -9l-114 -21q-64 -12 -94 -35.5t-30 -64.5q0 -74 95 -74z" />
    <glyph glyph-name="acircumflex" unicode="&#xe2;" horiz-adv-x="677" 
d="M502 649l-65 116l-114 -116h-122l180 182h121l106 -182h-106zM380 564q107 0 160.5 -36t53.5 -101q0 -15 -5 -45l-58 -270q-8 -45 -8 -77q0 -5 2 -35h-120v65q-71 -81 -194 -81q-83 0 -129.5 38t-46.5 108q0 84 59.5 126.5t188.5 64.5l132 22q22 4 44 13l1 7q6 25 6 41
q0 67 -102 67q-63 0 -96.5 -22t-49.5 -74l-112 11q48 178 274 178zM261 71q48 0 88 22.5t65 64.5l25 117q-15 -6 -35 -9l-114 -21q-64 -12 -94 -35.5t-30 -64.5q0 -74 95 -74z" />
    <glyph glyph-name="atilde" unicode="&#xe3;" horiz-adv-x="677" 
d="M576 813h97q-19 -87 -63.5 -134t-108.5 -47q-34 0 -58 13.5t-34.5 30t-26.5 30t-35 13.5q-23 0 -38.5 -20t-28.5 -64h-97q19 88 63 134.5t108 46.5t95 -43t60 -43q23 0 38.5 19.5t28.5 63.5zM380 564q107 0 160.5 -36t53.5 -101q0 -15 -5 -45l-58 -270q-8 -45 -8 -77
q0 -5 2 -35h-120v65q-71 -81 -194 -81q-83 0 -129.5 38t-46.5 108q0 84 59.5 126.5t188.5 64.5l132 22q22 4 44 13l1 7q6 25 6 41q0 67 -102 67q-63 0 -96.5 -22t-49.5 -74l-112 11q48 178 274 178zM261 71q48 0 88 22.5t65 64.5l25 117q-15 -6 -35 -9l-114 -21
q-64 -12 -94 -35.5t-30 -64.5q0 -74 95 -74z" />
    <glyph glyph-name="adieresis" unicode="&#xe4;" horiz-adv-x="677" 
d="M249 794h127l-28 -133h-127zM483 661l28 133h127l-28 -133h-127zM380 564q107 0 160.5 -36t53.5 -101q0 -15 -5 -45l-58 -270q-8 -45 -8 -77q0 -5 2 -35h-120v65q-71 -81 -194 -81q-83 0 -129.5 38t-46.5 108q0 84 59.5 126.5t188.5 64.5l132 22q22 4 44 13l1 7
q6 25 6 41q0 67 -102 67q-63 0 -96.5 -22t-49.5 -74l-112 11q48 178 274 178zM261 71q48 0 88 22.5t65 64.5l25 117q-15 -6 -35 -9l-114 -21q-64 -12 -94 -35.5t-30 -64.5q0 -74 95 -74z" />
    <glyph glyph-name="aring" unicode="&#xe5;" horiz-adv-x="677" 
d="M550 664q-44 -44 -111 -44t-111 44t-44 109q0 67 44 111q43 43 111 43t111 -43q44 -44 44 -111q0 -65 -44 -109zM498 834q-23 23 -59 23t-59 -23t-23 -61q0 -37 23 -60t59 -23t59 23t23 60q0 38 -23 61zM380 564q107 0 160.5 -36t53.5 -101q0 -15 -5 -45l-58 -270
q-8 -45 -8 -77q0 -5 2 -35h-120v65q-71 -81 -194 -81q-83 0 -129.5 38t-46.5 108q0 84 59.5 126.5t188.5 64.5l132 22q22 4 44 13l1 7q6 25 6 41q0 67 -102 67q-63 0 -96.5 -22t-49.5 -74l-112 11q48 178 274 178zM261 71q48 0 88 22.5t65 64.5l25 117q-15 -6 -35 -9
l-114 -21q-64 -12 -94 -35.5t-30 -64.5q0 -74 95 -74z" />
    <glyph glyph-name="ae" unicode="&#xe6;" horiz-adv-x="1059" 
d="M987 243l-420 12q-5 -25 -5 -50q0 -123 127 -123q99 0 157 78l104 -22q-46 -72 -120 -113t-161 -41q-79 0 -129 35.5t-68 99.5q-45 -65 -114.5 -100t-151.5 -35q-81 0 -127.5 34.5t-46.5 96.5q0 92 70 143.5t189 54.5l178 4l9 45q4 17 4 30q0 79 -122 79q-59 0 -91 -21.5
t-51 -74.5l-110 12q30 87 99.5 132t167.5 45q78 0 124 -29.5t56 -83.5q90 113 237 113q103 0 157 -54.5t54 -152.5q0 -50 -16 -114zM770 473q-67 0 -118 -42t-72 -117l304 6q2 16 2 33q0 120 -116 120zM252 74q57 0 107.5 28t80.5 79l16 78l-185 -22q-48 -5 -77.5 -33
t-29.5 -68q0 -62 88 -62z" />
    <glyph glyph-name="ccedilla" unicode="&#xe7;" horiz-adv-x="649" 
d="M293 -16q-111 0 -172 59.5t-61 165.5q0 37 9 79q26 131 107.5 203t204.5 72q100 0 159.5 -49t63.5 -136l-124 -15q-3 47 -31 73t-77 26q-137 0 -176 -186q-7 -29 -7 -63q0 -61 29.5 -93.5t84.5 -32.5q98 0 148 116l121 -13q-36 -99 -107.5 -152.5t-171.5 -53.5zM196 -276
h-85l14 68h74q86 0 86 46q0 29 -36 29h-108l13 62h124q104 0 104 -84q0 -59 -48.5 -90t-137.5 -31z" />
    <glyph glyph-name="egrave" unicode="&#xe8;" horiz-adv-x="684" 
d="M399 829l75 -172h-101l-116 172h142zM611 241h-424q-2 -26 -2 -30q0 -63 32.5 -96t92.5 -33q96 0 155 78l112 -21q-43 -74 -113.5 -114.5t-160.5 -40.5q-115 0 -179.5 60.5t-64.5 166.5q0 29 9 75q24 125 110 202q85 76 215 76q111 0 171.5 -59t60.5 -161q0 -50 -14 -103
zM384 473q-64 0 -110.5 -38.5t-69.5 -112.5h297q2 26 2 27q0 124 -119 124z" />
    <glyph glyph-name="eacute" unicode="&#xe9;" horiz-adv-x="684" 
d="M436 829h155l-152 -172h-114zM611 241h-424q-2 -26 -2 -30q0 -63 32.5 -96t92.5 -33q96 0 155 78l112 -21q-43 -74 -113.5 -114.5t-160.5 -40.5q-115 0 -179.5 60.5t-64.5 166.5q0 29 9 75q24 125 110 202q85 76 215 76q111 0 171.5 -59t60.5 -161q0 -50 -14 -103z
M384 473q-64 0 -110.5 -38.5t-69.5 -112.5h297q2 26 2 27q0 124 -119 124z" />
    <glyph glyph-name="ecircumflex" unicode="&#xea;" horiz-adv-x="684" 
d="M511 649l-65 116l-114 -116h-122l180 182h121l106 -182h-106zM611 241h-424q-2 -26 -2 -30q0 -63 32.5 -96t92.5 -33q96 0 155 78l112 -21q-43 -74 -113.5 -114.5t-160.5 -40.5q-115 0 -179.5 60.5t-64.5 166.5q0 29 9 75q24 125 110 202q85 76 215 76q111 0 171.5 -59
t60.5 -161q0 -50 -14 -103zM384 473q-64 0 -110.5 -38.5t-69.5 -112.5h297q2 26 2 27q0 124 -119 124z" />
    <glyph glyph-name="edieresis" unicode="&#xeb;" horiz-adv-x="684" 
d="M258 794h127l-28 -133h-127zM520 794h127l-28 -133h-127zM393 564q111 0 171.5 -59t60.5 -161q0 -50 -14 -103h-424q-2 -26 -2 -30q0 -63 32.5 -96t92.5 -33q96 0 155 78l112 -21q-43 -74 -113.5 -114.5t-160.5 -40.5q-115 0 -179.5 60.5t-64.5 166.5q0 29 9 75
q24 125 110 202q85 76 215 76zM384 473q-64 0 -110.5 -38.5t-69.5 -112.5h297q2 26 2 27q0 124 -119 124z" />
    <glyph glyph-name="igrave" unicode="&#xec;" horiz-adv-x="317" 
d="M291 657h-101l-116 172h142zM165 0h-130l117 548h130z" />
    <glyph glyph-name="iacute" unicode="&#xed;" horiz-adv-x="317" 
d="M256 657h-114l111 172h155zM165 0h-130l117 548h130z" />
    <glyph glyph-name="icircumflex" unicode="&#xee;" horiz-adv-x="317" 
d="M148 649h-122l180 182h121l106 -182h-106l-65 116zM165 0h-130l117 548h130z" />
    <glyph glyph-name="idieresis" unicode="&#xef;" horiz-adv-x="317" 
d="M170 661h-127l28 133h127zM439 661h-127l28 133h127zM166 0h-130l116 548h130z" />
    <glyph glyph-name="eth" unicode="&#xf0;" horiz-adv-x="687" 
d="M682 817l-177 -101q132 -122 132 -303q2 -117 -37.5 -214t-120 -156t-187.5 -59q-105 0 -170 61q-66 62 -66 151q0 128 86 220q86 90 213 90q116 0 164 -76v11q0 125 -108 217l-97 -73l-27 44l93 53q-49 33 -95 55l55 85q68 -29 134 -79l177 129zM308 86q145 0 185 196
l2 8q-7 55 -41 86.5t-88 31.5q-77 0 -127 -62t-50 -143q0 -53 31 -85t88 -32z" />
    <glyph glyph-name="ntilde" unicode="&#xf1;" horiz-adv-x="677" 
d="M586 828h97q-19 -87 -63.5 -134t-108.5 -47q-34 0 -58 13.5t-34.5 30t-26.5 30t-35 13.5q-23 0 -38.5 -20t-28.5 -64h-97q19 88 63 134.5t108 46.5t95 -43t60 -43q23 0 38.5 19.5t28.5 63.5zM441 563q77 0 121 -42t44 -116q0 -27 -7 -59l-74 -346h-130l71 336q5 22 5 39
q0 37 -21.5 58t-60.5 21q-94 0 -151 -113l-72 -341h-130l117 548h119l-10 -71q77 86 179 86z" />
    <glyph glyph-name="ograve" unicode="&#xf2;" horiz-adv-x="696" 
d="M481 657h-101l-116 172h142zM297 -16q-111 0 -174.5 60t-63.5 163q0 30 8 76q28 133 113.5 207t217.5 74q113 0 176 -59.5t63 -164.5q0 -36 -9 -77q-27 -133 -112 -206t-219 -73zM308 88q150 0 191 185q7 29 7 64q0 59 -30 91t-88 32q-75 0 -124 -48.5t-68 -138.5
q-6 -33 -6 -63q0 -59 30 -90.5t88 -31.5z" />
    <glyph glyph-name="oacute" unicode="&#xf3;" horiz-adv-x="696" 
d="M446 657h-114l111 172h155zM297 -16q-111 0 -174.5 60t-63.5 163q0 30 8 76q28 133 113.5 207t217.5 74q113 0 176 -59.5t63 -164.5q0 -36 -9 -77q-27 -133 -112 -206t-219 -73zM308 88q150 0 191 185q7 29 7 64q0 59 -30 91t-88 32q-75 0 -124 -48.5t-68 -138.5
q-6 -33 -6 -63q0 -59 30 -90.5t88 -31.5z" />
    <glyph glyph-name="ocircumflex" unicode="&#xf4;" horiz-adv-x="696" 
d="M339 649h-122l180 182h121l106 -182h-106l-65 116zM297 -16q-111 0 -174.5 60t-63.5 163q0 30 8 76q28 133 113.5 207t217.5 74q113 0 176 -59.5t63 -164.5q0 -36 -9 -77q-27 -133 -112 -206t-219 -73zM308 88q150 0 191 185q7 29 7 64q0 59 -30 91t-88 32
q-75 0 -124 -48.5t-68 -138.5q-6 -33 -6 -63q0 -59 30 -90.5t88 -31.5z" />
    <glyph glyph-name="otilde" unicode="&#xf5;" horiz-adv-x="696" 
d="M296 635h-97q19 88 63 134.5t108 46.5t95 -43t60 -43q23 0 38.5 19.5t28.5 63.5h97q-19 -87 -63.5 -134t-108.5 -47q-34 0 -58 13.5t-34.5 30t-26.5 30t-35 13.5q-23 0 -38.5 -20t-28.5 -64zM297 -16q-111 0 -174.5 60t-63.5 163q0 30 8 76q28 133 113.5 207t217.5 74
q113 0 176 -59.5t63 -164.5q0 -36 -9 -77q-27 -133 -112 -206t-219 -73zM308 88q150 0 191 185q7 29 7 64q0 59 -30 91t-88 32q-75 0 -124 -48.5t-68 -138.5q-6 -33 -6 -63q0 -59 30 -90.5t88 -31.5z" />
    <glyph glyph-name="odieresis" unicode="&#xf6;" horiz-adv-x="696" 
d="M364 661h-127l28 133h127zM626 661h-127l28 133h127zM297 -16q-111 0 -174.5 60t-63.5 163q0 30 8 76q28 133 113.5 207t217.5 74q113 0 176 -59.5t63 -164.5q0 -36 -9 -77q-27 -133 -112 -206t-219 -73zM308 88q150 0 191 185q7 29 7 64q0 59 -30 91t-88 32
q-75 0 -124 -48.5t-68 -138.5q-6 -33 -6 -63q0 -59 30 -90.5t88 -31.5z" />
    <glyph glyph-name="divide" unicode="&#xf7;" horiz-adv-x="757" 
d="M440 492h-124v125h124v-125zM675 285h-595v109h595v-109zM440 61h-124v125h124v-125z" />
    <glyph glyph-name="oslash" unicode="&#xf8;" horiz-adv-x="696" 
d="M638 575l42 -39l-75 -70q32 -53 32 -126q0 -36 -9 -77q-27 -133 -112 -206t-219 -73q-101 0 -162 48l-64 -59l-42 39l67 62q-37 55 -37 133q0 30 8 76q28 133 113.5 207t217.5 74q108 0 169 -54zM190 210q0 -19 5 -44l282 261q-30 33 -89 33q-75 0 -124 -48.5t-68 -138.5
q-6 -33 -6 -63zM506 337q0 19 -3 35l-278 -257q29 -27 83 -27q150 0 191 185q7 29 7 64z" />
    <glyph glyph-name="ugrave" unicode="&#xf9;" horiz-adv-x="677" 
d="M386 829l75 -172h-101l-116 172h142zM439 207l73 341h130l-117 -548h-120l10 71q-77 -86 -178 -86q-78 0 -121.5 42t-43.5 116q0 32 7 59l74 346h130l-72 -336q-5 -28 -5 -39q0 -37 21.5 -58t60.5 -21q95 0 151 113z" />
    <glyph glyph-name="uacute" unicode="&#xfa;" horiz-adv-x="677" 
d="M423 829h155l-152 -172h-114zM439 207l73 341h130l-117 -548h-120l10 71q-77 -86 -178 -86q-78 0 -121.5 42t-43.5 116q0 32 7 59l74 346h130l-72 -336q-5 -28 -5 -39q0 -37 21.5 -58t60.5 -21q95 0 151 113z" />
    <glyph glyph-name="ucircumflex" unicode="&#xfb;" horiz-adv-x="677" 
d="M497 649l-65 116l-114 -116h-122l180 182h121l106 -182h-106zM439 207l73 341h130l-117 -548h-120l10 71q-77 -86 -178 -86q-78 0 -121.5 42t-43.5 116q0 32 7 59l74 346h130l-72 -336q-5 -28 -5 -39q0 -37 21.5 -58t60.5 -21q95 0 151 113z" />
    <glyph glyph-name="udieresis" unicode="&#xfc;" horiz-adv-x="677" 
d="M245 794h127l-28 -133h-127zM507 794h127l-28 -133h-127zM439 207l73 341h130l-117 -548h-120l10 71q-77 -86 -178 -86q-78 0 -121.5 42t-43.5 116q0 32 7 59l74 346h130l-72 -336q-5 -28 -5 -39q0 -37 21.5 -58t60.5 -21q95 0 151 113z" />
    <glyph glyph-name="yacute" unicode="&#xfd;" horiz-adv-x="616" 
d="M386 829h155l-152 -172h-114zM264 142l217 406h140l-347 -610q-47 -83 -95 -116q-46 -30 -131 -30h-85l21 102h74q36 0 58 15t47 56l12 21l-97 562h132l54 -404v-2z" />
    <glyph glyph-name="thorn" unicode="&#xfe;" horiz-adv-x="706" 
d="M447 564q91 0 145 -58.5t54 -159.5q0 -144 -81 -252q-81 -109 -208 -109q-123 0 -174 93l-60 -282h-130l206 972h130l-59 -284q75 80 177 80zM334 88q80 0 130 74q49 73 49 167q0 62 -30.5 97t-81.5 35q-56 0 -101 -37t-69 -98l-17 -63q-2 -32 -2 -34q0 -68 32 -104.5
t90 -36.5z" />
    <glyph glyph-name="ydieresis" unicode="&#xff;" horiz-adv-x="616" 
d="M208 794h127l-28 -133h-127zM470 794h127l-28 -133h-127zM264 142l217 406h140l-347 -610q-47 -83 -95 -116q-46 -30 -131 -30h-85l21 102h74q36 0 58 15t47 56l12 21l-97 562h132l54 -404v-2z" />
    <glyph glyph-name="Amacron" unicode="&#x100;" horiz-adv-x="785" 
d="M329 884l19 91h372l-20 -91h-371zM-38 0l436 768h182l120 -768h-135l-23 172h-343l-94 -172h-143zM448 625l-190 -347h270l-47 347l-5 60z" />
    <glyph glyph-name="amacron" unicode="&#x101;" horiz-adv-x="677" 
d="M230 664l19 91h371l-19 -91h-371zM380 564q107 0 160.5 -36t53.5 -101q0 -15 -5 -45l-58 -270q-8 -45 -8 -77q0 -5 2 -35h-120v65q-71 -81 -194 -81q-83 0 -129.5 38t-46.5 108q0 84 59.5 126.5t188.5 64.5l132 22q22 4 44 13l1 7q6 25 6 41q0 67 -102 67
q-63 0 -96.5 -22t-49.5 -74l-112 11q48 178 274 178zM261 71q48 0 88 22.5t65 64.5l25 117q-15 -6 -35 -9l-114 -21q-64 -12 -94 -35.5t-30 -64.5q0 -74 95 -74z" />
    <glyph glyph-name="Abreve" unicode="&#x102;" horiz-adv-x="785" 
d="M521 868q-85 0 -129 30.5t-44 88.5q0 15 5 47h84q-2 -18 -2 -22q0 -62 91 -62q104 0 124 84h90q-21 -86 -72 -126t-147 -40zM-38 0l436 768h182l120 -768h-135l-23 172h-343l-94 -172h-143zM448 625l-190 -347h270l-47 347l-5 60z" />
    <glyph glyph-name="abreve" unicode="&#x103;" horiz-adv-x="677" 
d="M422 648q-172 0 -172 119q0 15 5 47h83l-2 -22q0 -62 91 -62q105 0 124 84h90q-21 -86 -72 -126t-147 -40zM380 564q107 0 160.5 -36t53.5 -101q0 -15 -5 -45l-58 -270q-8 -45 -8 -77q0 -5 2 -35h-120v65q-71 -81 -194 -81q-83 0 -129.5 38t-46.5 108q0 84 59.5 126.5
t188.5 64.5l132 22q22 4 44 13l1 7q6 25 6 41q0 67 -102 67q-63 0 -96.5 -22t-49.5 -74l-112 11q48 178 274 178zM261 71q48 0 88 22.5t65 64.5l25 117q-15 -6 -35 -9l-114 -21q-64 -12 -94 -35.5t-30 -64.5q0 -74 95 -74z" />
    <glyph glyph-name="Aogonek" unicode="&#x104;" horiz-adv-x="785" 
d="M535 -121q0 -40 55 -40h34l-16 -75h-66q-58 0 -90 26.5t-32 69.5q0 70 84 113l61 31l-23 168h-343l-94 -172h-143l436 768h182l120 -768l-112 -59q-53 -29 -53 -62zM448 625l-190 -347h270l-47 347l-5 60z" />
    <glyph glyph-name="aogonek" unicode="&#x105;" horiz-adv-x="677" 
d="M380 564q107 0 160.5 -36t53.5 -101q0 -15 -5 -45l-58 -270q-8 -45 -8 -77q0 -5 2 -35l-111 -59q-54 -29 -54 -62q0 -40 56 -40h33l-16 -75h-66q-58 0 -90 26.5t-32 69.5q0 70 84 113l76 38v54q-71 -81 -194 -81q-83 0 -129.5 38t-46.5 108q0 84 59.5 126.5t188.5 64.5
l132 22q22 4 44 13l1 7q6 25 6 41q0 67 -102 67q-63 0 -96.5 -22t-49.5 -74l-112 11q48 178 274 178zM261 71q48 0 88 22.5t65 64.5l25 117q-15 -6 -35 -9l-114 -21q-64 -12 -94 -35.5t-30 -64.5q0 -74 95 -74z" />
    <glyph glyph-name="Cacute" unicode="&#x106;" horiz-adv-x="854" 
d="M572 877h-114l111 172h155zM408 -18q-145 0 -227 85q-84 84 -84 228q0 57 13 115q37 176 155 276q117 99 280 99q127 0 204.5 -60.5t96.5 -174.5l-130 -15q-11 66 -58 102t-123 36q-110 0 -189.5 -74.5t-106.5 -207.5q-10 -49 -10 -92q0 -97 50 -149.5t142 -52.5
q166 0 244 159l125 -15q-51 -123 -152 -191t-230 -68z" />
    <glyph glyph-name="cacute" unicode="&#x107;" horiz-adv-x="649" 
d="M424 657h-114l111 172h155zM293 -16q-111 0 -172 59.5t-61 165.5q0 37 9 79q26 131 107.5 203t204.5 72q100 0 159.5 -49t63.5 -136l-124 -15q-3 47 -31 73t-77 26q-137 0 -176 -186q-7 -29 -7 -63q0 -61 29.5 -93.5t84.5 -32.5q98 0 148 116l121 -13
q-36 -99 -107.5 -152.5t-171.5 -53.5z" />
    <glyph glyph-name="Ccircumflex" unicode="&#x108;" horiz-adv-x="854" 
d="M465 869h-122l180 182h121l106 -182h-106l-65 116zM408 -18q-145 0 -227 85q-84 84 -84 228q0 57 13 115q37 176 155 276q117 99 280 99q127 0 204.5 -60.5t96.5 -174.5l-130 -15q-11 66 -58 102t-123 36q-110 0 -189.5 -74.5t-106.5 -207.5q-10 -49 -10 -92
q0 -97 50 -149.5t142 -52.5q166 0 244 159l125 -15q-51 -123 -152 -191t-230 -68z" />
    <glyph glyph-name="ccircumflex" unicode="&#x109;" horiz-adv-x="649" 
d="M316 649h-122l180 182h121l106 -182h-106l-65 116zM293 -16q-111 0 -172 59.5t-61 165.5q0 37 9 79q26 131 107.5 203t204.5 72q100 0 159.5 -49t63.5 -136l-124 -15q-3 47 -31 73t-77 26q-137 0 -176 -186q-7 -29 -7 -63q0 -61 29.5 -93.5t84.5 -32.5q98 0 148 116
l121 -13q-36 -99 -107.5 -152.5t-171.5 -53.5z" />
    <glyph glyph-name="Cdotaccent" unicode="&#x10a;" horiz-adv-x="854" 
d="M621 881h-127l28 133h127zM408 -18q-145 0 -227 85q-84 84 -84 228q0 57 13 115q37 176 155 276q117 99 280 99q127 0 204.5 -60.5t96.5 -174.5l-130 -15q-11 66 -58 102t-123 36q-110 0 -189.5 -74.5t-106.5 -207.5q-10 -49 -10 -92q0 -97 50 -149.5t142 -52.5
q166 0 244 159l125 -15q-51 -123 -152 -191t-230 -68z" />
    <glyph glyph-name="cdotaccent" unicode="&#x10b;" horiz-adv-x="649" 
d="M473 661h-127l28 133h127zM293 -16q-111 0 -172 59.5t-61 165.5q0 37 9 79q26 131 107.5 203t204.5 72q100 0 159.5 -49t63.5 -136l-124 -15q-3 47 -31 73t-77 26q-137 0 -176 -186q-7 -29 -7 -63q0 -61 29.5 -93.5t84.5 -32.5q98 0 148 116l121 -13
q-36 -99 -107.5 -152.5t-171.5 -53.5z" />
    <glyph glyph-name="Ccaron" unicode="&#x10c;" horiz-adv-x="854" 
d="M609 862h-121l-101 182h106l64 -116l115 116h123zM408 -18q-145 0 -227 85q-84 84 -84 228q0 57 13 115q37 176 155 276q117 99 280 99q127 0 204.5 -60.5t96.5 -174.5l-130 -15q-11 66 -58 102t-123 36q-110 0 -189.5 -74.5t-106.5 -207.5q-10 -49 -10 -92
q0 -97 50 -149.5t142 -52.5q166 0 244 159l125 -15q-51 -123 -152 -191t-230 -68z" />
    <glyph glyph-name="ccaron" unicode="&#x10d;" horiz-adv-x="649" 
d="M461 642h-121l-101 182h105l65 -116l115 116h122zM293 -16q-111 0 -172 59.5t-61 165.5q0 37 9 79q26 131 107.5 203t204.5 72q100 0 159.5 -49t63.5 -136l-124 -15q-3 47 -31 73t-77 26q-137 0 -176 -186q-7 -29 -7 -63q0 -61 29.5 -93.5t84.5 -32.5q98 0 148 116
l121 -13q-36 -99 -107.5 -152.5t-171.5 -53.5z" />
    <glyph glyph-name="Dcaron" unicode="&#x10e;" horiz-adv-x="838" 
d="M763 1044l-186 -182h-121l-101 182h106l64 -116l115 116h123zM215 769h258q158 0 241 -73.5t83 -212.5q0 -53 -12 -113q-72 -370 -439 -370h-295zM653 383q11 61 11 99q0 95 -50.5 136.5t-149.5 41.5h-139l-118 -552h146q244 0 300 275z" />
    <glyph glyph-name="dcaron" unicode="&#x10f;" horiz-adv-x="906" 
d="M522 471l63 297h130l-164 -768h-120l10 69q-79 -85 -183 -85q-91 0 -145 58.5t-54 159.5q0 40 9 86q26 129 101 201q77 74 179 74q124 0 174 -92zM753 476l120 292h138l-166 -292h-92zM304 87q55 0 100.5 36.5t71.5 106.5l16 62q1 6 1 27q0 68 -32 104.5t-90 36.5
q-63 0 -110.5 -50.5t-63.5 -134.5q-5 -37 -5 -56q0 -62 30.5 -97t81.5 -35z" />
    <glyph glyph-name="Dcroat" unicode="&#x110;" horiz-adv-x="918" 
d="M295 769h258q158 0 241 -73.5t83 -212.5q0 -53 -12 -113q-72 -370 -439 -370h-295l73 344l-165 -11l23 102l159 -11zM733 383q11 61 11 99q0 95 -50.5 136.5t-149.5 41.5h-139l-51 -236l178 11l-23 -102l-172 11l-50 -236h146q244 0 300 275z" />
    <glyph glyph-name="dslash" unicode="&#x111;" horiz-adv-x="817" 
d="M702 707l108 6l-20 -89l-104 6l-135 -630h-120l10 69q-79 -85 -183 -85q-91 0 -145 58.5t-54 159.5q0 40 9 86q26 129 101 201q77 74 179 74q124 0 174 -92l35 162l-158 1l19 89l155 -13l15 71h130zM304 87q55 0 100.5 36.5t71.5 106.5l16 62q1 6 1 27q0 68 -32 104.5
t-90 36.5q-63 0 -110.5 -50.5t-63.5 -134.5q-5 -37 -5 -56q0 -62 30.5 -97t81.5 -35z" />
    <glyph glyph-name="Emacron" unicode="&#x112;" horiz-adv-x="721" 
d="M347 975h372l-20 -91h-371zM762 768l-24 -110h-415l-45 -210h382l-23 -107h-382l-50 -231h421l-24 -110h-551l164 768h547z" />
    <glyph glyph-name="emacron" unicode="&#x113;" horiz-adv-x="684" 
d="M259 755h371l-19 -91h-371zM393 564q111 0 171.5 -59t60.5 -161q0 -50 -14 -103h-424q-2 -26 -2 -30q0 -63 32.5 -96t92.5 -33q96 0 155 78l112 -21q-43 -74 -113.5 -114.5t-160.5 -40.5q-115 0 -179.5 60.5t-64.5 166.5q0 29 9 75q24 125 110 202q85 76 215 76zM384 473
q-64 0 -110.5 -38.5t-69.5 -112.5h297q2 26 2 27q0 124 -119 124z" />
    <glyph glyph-name="Ebreve" unicode="&#x114;" horiz-adv-x="721" 
d="M520 868q-85 0 -129 30.5t-44 88.5q0 15 5 47h84q-2 -18 -2 -22q0 -62 91 -62q105 0 124 84h90q-21 -86 -72 -126t-147 -40zM762 768l-24 -110h-415l-45 -210h382l-23 -107h-382l-50 -231h421l-24 -110h-551l164 768h547z" />
    <glyph glyph-name="ebreve" unicode="&#x115;" horiz-adv-x="684" 
d="M431 648q-172 0 -172 119q0 15 5 47h83l-2 -22q0 -62 91 -62q104 0 124 84h90q-21 -86 -72 -126t-147 -40zM393 564q111 0 171.5 -59t60.5 -161q0 -50 -14 -103h-424q-2 -26 -2 -30q0 -63 32.5 -96t92.5 -33q96 0 155 78l112 -21q-43 -74 -113.5 -114.5t-160.5 -40.5
q-115 0 -179.5 60.5t-64.5 166.5q0 29 9 75q24 125 110 202q85 76 215 76zM384 473q-64 0 -110.5 -38.5t-69.5 -112.5h297q2 26 2 27q0 124 -119 124z" />
    <glyph glyph-name="Edotaccent" unicode="&#x116;" horiz-adv-x="721" 
d="M478 1014h127l-28 -133h-127zM762 768l-24 -110h-415l-45 -210h382l-23 -107h-382l-50 -231h421l-24 -110h-551l164 768h547z" />
    <glyph glyph-name="edotaccent" unicode="&#x117;" horiz-adv-x="684" 
d="M389 794h127l-28 -133h-127zM611 241h-424q-2 -26 -2 -30q0 -63 32.5 -96t92.5 -33q96 0 155 78l112 -21q-43 -74 -113.5 -114.5t-160.5 -40.5q-115 0 -179.5 60.5t-64.5 166.5q0 29 9 75q24 125 110 202q85 76 215 76q111 0 171.5 -59t60.5 -161q0 -50 -14 -103z
M384 473q-64 0 -110.5 -38.5t-69.5 -112.5h297q2 26 2 27q0 124 -119 124z" />
    <glyph glyph-name="Eogonek" unicode="&#x118;" horiz-adv-x="721" 
d="M762 768l-24 -110h-415l-45 -210h382l-23 -107h-382l-50 -231h421l-24 -110l-112 -59q-53 -29 -53 -62q0 -40 55 -40h34l-16 -75h-66q-58 0 -90 26.5t-32 69.5q0 70 84 113l53 27h-408l164 768h547z" />
    <glyph glyph-name="eogonek" unicode="&#x119;" horiz-adv-x="684" 
d="M611 241h-424q-2 -26 -2 -30q0 -63 32.5 -96t92.5 -33q96 0 155 78l112 -21q-51 -88 -141 -128l-102 -54q-53 -29 -53 -62q0 -40 55 -40h34l-16 -75h-66q-58 0 -90 26.5t-32 69.5q0 69 82 112q-90 14 -139.5 73t-49.5 150q0 29 9 75q24 125 110 202q85 76 215 76
q111 0 171.5 -59t60.5 -161q0 -50 -14 -103zM384 473q-64 0 -110.5 -38.5t-69.5 -112.5h297q2 26 2 27q0 124 -119 124z" />
    <glyph glyph-name="Ecaron" unicode="&#x11a;" horiz-adv-x="721" 
d="M751 1044l-186 -182h-121l-101 182h106l64 -116l115 116h123zM762 768l-24 -110h-415l-45 -210h382l-23 -107h-382l-50 -231h421l-24 -110h-551l164 768h547z" />
    <glyph glyph-name="ecaron" unicode="&#x11b;" horiz-adv-x="684" 
d="M662 824l-185 -182h-121l-101 182h105l65 -116l115 116h122zM393 564q111 0 171.5 -59t60.5 -161q0 -50 -14 -103h-424q-2 -26 -2 -30q0 -63 32.5 -96t92.5 -33q96 0 155 78l112 -21q-43 -74 -113.5 -114.5t-160.5 -40.5q-115 0 -179.5 60.5t-64.5 166.5q0 29 9 75
q24 125 110 202q85 76 215 76zM384 473q-64 0 -110.5 -38.5t-69.5 -112.5h297q2 26 2 27q0 124 -119 124z" />
    <glyph glyph-name="Gcircumflex" unicode="&#x11c;" horiz-adv-x="902" 
d="M642 869l-65 116l-114 -116h-122l180 182h121l106 -182h-106zM674 308h-205l22 101h331l-87 -409h-96l-1 90q-92 -107 -247 -107q-140 0 -216 85q-78 84 -78 223q0 53 11 106q39 185 152 286t291 101q122 0 198.5 -60t93.5 -171l-130 -21q-27 142 -176 142
q-111 0 -190 -76t-107 -213q-9 -49 -9 -90q0 -96 49 -149.5t135 -53.5q168 0 244 148z" />
    <glyph glyph-name="gcircumflex" unicode="&#x11d;" horiz-adv-x="692" 
d="M530 649l-65 116l-114 -116h-122l180 182h121l106 -182h-106zM518 472l23 79h116l-111 -524q-49 -235 -285 -235q-110 0 -168.5 42.5t-63.5 121.5l122 13q9 -83 118 -83q62 0 98 33.5t52 106.5l15 72q-74 -68 -170 -68q-90 0 -144 55t-54 150q0 135 80 232q80 96 205 96
q113 0 167 -91zM306 130q52 0 94 31t66 83l22 100q-1 54 -33.5 86t-81.5 32q-78 0 -127 -64t-49 -149q0 -55 29 -87t80 -32z" />
    <glyph glyph-name="Gbreve" unicode="&#x11e;" horiz-adv-x="902" 
d="M562 868q-85 0 -129 30.5t-44 88.5q0 15 5 47h84q-2 -18 -2 -22q0 -62 91 -62q105 0 124 84h90q-21 -86 -72 -126t-147 -40zM674 308h-205l22 101h331l-87 -409h-96l-1 90q-92 -107 -247 -107q-140 0 -216 85q-78 84 -78 223q0 53 11 106q39 185 152 286t291 101
q122 0 198.5 -60t93.5 -171l-130 -21q-27 142 -176 142q-111 0 -190 -76t-107 -213q-9 -49 -9 -90q0 -96 49 -149.5t135 -53.5q168 0 244 148z" />
    <glyph glyph-name="gbreve" unicode="&#x11f;" horiz-adv-x="692" 
d="M450 648q-172 0 -172 119q0 15 5 47h83l-2 -22q0 -62 91 -62q105 0 124 84h90q-21 -86 -72 -126t-147 -40zM518 472l23 79h116l-111 -524q-49 -235 -285 -235q-110 0 -168.5 42.5t-63.5 121.5l122 13q9 -83 118 -83q62 0 98 33.5t52 106.5l15 72q-74 -68 -170 -68
q-90 0 -144 55t-54 150q0 135 80 232q80 96 205 96q113 0 167 -91zM306 130q52 0 94 31t66 83l22 100q-1 54 -33.5 86t-81.5 32q-78 0 -127 -64t-49 -149q0 -55 29 -87t80 -32z" />
    <glyph glyph-name="Gdotaccent" unicode="&#x120;" horiz-adv-x="902" 
d="M520 1014h127l-28 -133h-127zM674 308h-205l22 101h331l-87 -409h-96l-1 90q-92 -107 -247 -107q-140 0 -216 85q-78 84 -78 223q0 53 11 106q39 185 152 286t291 101q122 0 198.5 -60t93.5 -171l-130 -21q-27 142 -176 142q-111 0 -190 -76t-107 -213q-9 -49 -9 -90
q0 -96 49 -149.5t135 -53.5q168 0 244 148z" />
    <glyph glyph-name="gdotaccent" unicode="&#x121;" horiz-adv-x="692" 
d="M408 794h127l-28 -133h-127zM518 472l23 79h116l-111 -524q-49 -235 -285 -235q-110 0 -168.5 42.5t-63.5 121.5l122 13q9 -83 118 -83q62 0 98 33.5t52 106.5l15 72q-74 -68 -170 -68q-90 0 -144 55t-54 150q0 135 80 232q80 96 205 96q113 0 167 -91zM306 130
q52 0 94 31t66 83l22 100q-1 54 -33.5 86t-81.5 32q-78 0 -127 -64t-49 -149q0 -55 29 -87t80 -32z" />
    <glyph glyph-name="uni0122" unicode="&#x122;" horiz-adv-x="902" 
d="M674 308h-205l22 101h331l-87 -409h-96l-1 90q-92 -107 -247 -107q-140 0 -216 85q-78 84 -78 223q0 53 11 106q39 185 152 286t291 101q122 0 198.5 -60t93.5 -171l-130 -21q-27 142 -176 142q-111 0 -190 -76t-107 -213q-9 -49 -9 -90q0 -96 49 -149.5t135 -53.5
q168 0 244 148zM366 -176l-107 -22l22 104h161l-22 -101q-12 -58 -45.5 -83t-101.5 -25h-36l11 53h41q60 0 71 44z" />
    <glyph glyph-name="uni0123" unicode="&#x123;" horiz-adv-x="692" 
d="M440 748l107 22l-23 -109h-161l23 106q12 58 46.5 84.5t100.5 26.5h37l-11 -52h-41q-60 0 -71 -44zM518 472l23 79h116l-111 -524q-49 -235 -285 -235q-110 0 -168.5 42.5t-63.5 121.5l122 13q9 -83 118 -83q62 0 98 33.5t52 106.5l15 72q-74 -68 -170 -68q-90 0 -144 55
t-54 150q0 135 80 232q80 96 205 96q113 0 167 -91zM306 130q52 0 94 31t66 83l22 100q-1 54 -33.5 86t-81.5 32q-78 0 -127 -64t-49 -149q0 -55 29 -87t80 -32z" />
    <glyph glyph-name="Hcircumflex" unicode="&#x124;" horiz-adv-x="857" 
d="M646 869l-65 116l-114 -116h-122l180 182h121l106 -182h-106zM653 452l67 316h133l-164 -768h-133l73 340h-372l-73 -340h-133l164 768h133l-67 -316h372z" />
    <glyph glyph-name="hcircumflex" unicode="&#x125;" horiz-adv-x="677" 
d="M375 869l-65 116l-114 -116h-122l180 182h121l106 -182h-106zM441 563q77 0 121 -42t44 -116q0 -29 -7 -56l-74 -349h-130l71 336q5 22 5 39q0 37 -21.5 58t-60.5 21q-93 0 -150 -110l-73 -344h-130l164 768h130l-60 -283q74 78 171 78z" />
    <glyph glyph-name="Hbar" unicode="&#x126;" horiz-adv-x="857" 
d="M691 634l29 134h133l-164 -768h-133l64 300h-372l-64 -300h-133l164 768h133l-29 -134h372zM297 531l-27 -128h372l27 128h-372z" />
    <glyph glyph-name="hbar" unicode="&#x127;" horiz-adv-x="710" 
d="M470 543q77 0 121 -42t44 -116q0 -29 -7 -56l-71 -329h-130l68 316q5 22 5 39q0 37 -21.5 58t-60.5 21q-94 0 -152 -112l-68 -322h-130l131 616l-114 -6l19 90l111 -6l21 97h130l-20 -94l160 13l-19 -90l-157 -1l-34 -156q75 80 174 80z" />
    <glyph glyph-name="Itilde" unicode="&#x128;" horiz-adv-x="351" 
d="M171 855h-97q19 88 63 134.5t108 46.5t95 -43t60 -43q23 0 38.5 19.5t28.5 63.5h97q-19 -87 -63.5 -134t-108.5 -47q-34 0 -58 13.5t-34.5 30t-26.5 30t-35 13.5q-23 0 -38.5 -20t-28.5 -64zM184 0h-133l164 768h133z" />
    <glyph glyph-name="itilde" unicode="&#x129;" horiz-adv-x="317" 
d="M106 635h-97q19 88 63 134.5t108 46.5t95 -43t60 -43q23 0 38.5 19.5t28.5 63.5h97q-19 -87 -63.5 -134t-108.5 -47q-34 0 -58 13.5t-34.5 30t-26.5 30t-35 13.5q-23 0 -38.5 -20t-28.5 -64zM165 0h-130l117 548h130z" />
    <glyph glyph-name="Imacron" unicode="&#x12a;" horiz-adv-x="351" 
d="M492 884h-371l19 91h372zM184 0h-133l164 768h133z" />
    <glyph glyph-name="imacron" unicode="&#x12b;" horiz-adv-x="317" 
d="M427 664h-371l19 91h371zM165 0h-130l117 548h130z" />
    <glyph glyph-name="Ibreve" unicode="&#x12c;" horiz-adv-x="351" 
d="M313 868q-85 0 -129 30.5t-44 88.5q0 15 5 47h84q-2 -18 -2 -22q0 -62 91 -62q104 0 124 84h90q-21 -86 -72 -126t-147 -40zM184 0h-133l164 768h133z" />
    <glyph glyph-name="ibreve" unicode="&#x12d;" horiz-adv-x="317" 
d="M248 648q-172 0 -172 119q0 15 5 47h83l-2 -22q0 -62 91 -62q105 0 124 84h90q-21 -86 -72 -126t-147 -40zM165 0h-130l117 548h130z" />
    <glyph glyph-name="Iogonek" unicode="&#x12e;" horiz-adv-x="351" 
d="M184 0l-74 -57q-27 -22 -36.5 -34t-9.5 -29q0 -41 56 -41h30l-16 -75h-57q-59 0 -92 26t-33 71q0 64 79 113l41 26h-21l164 768h133z" />
    <glyph glyph-name="iogonek" unicode="&#x12f;" horiz-adv-x="317" 
d="M176 661l28 133h130l-28 -133h-130zM53 0h-18l117 547h130l-117 -547l-74 -57q-27 -22 -36.5 -34t-9.5 -29q0 -41 56 -41h30l-16 -75h-57q-59 0 -92 26t-33 71q0 64 79 113z" />
    <glyph glyph-name="Idot" unicode="&#x130;" horiz-adv-x="351" 
d="M372 882h-133l28 131h134zM184 0h-133l164 768h133z" />
    <glyph glyph-name="dotlessi" unicode="&#x131;" horiz-adv-x="317" 
d="M165 0h-130l117 548h130z" />
    <glyph glyph-name="IJ" unicode="&#x132;" horiz-adv-x="1011" 
d="M184 0h-133l164 768h133zM595 -14q-102 0 -163 52q-62 53 -62 138q0 37 14 90h130q-13 -46 -13 -77q0 -93 104 -93q123 0 152 135l114 537h136l-114 -537q-25 -118 -101 -181.5t-197 -63.5z" />
    <glyph glyph-name="ij" unicode="&#x133;" horiz-adv-x="634" 
d="M306 661h-130l28 133h130zM622 661h-130l29 133h130zM165 0h-130l117 548h130zM279 -208h-67l20 98h35q34 0 51 15t24 49l126 594h130l-127 -599q-17 -84 -61 -120.5t-131 -36.5z" />
    <glyph glyph-name="Jcircumflex" unicode="&#x134;" horiz-adv-x="683" 
d="M543 869h-122l180 182h121l106 -182h-106l-65 116zM267 -14q-102 0 -163 52q-62 53 -62 138q0 37 14 90h130q-13 -46 -13 -77q0 -93 104 -93q123 0 152 135l114 537h136l-114 -537q-25 -118 -101 -181.5t-197 -63.5z" />
    <glyph glyph-name="jcircumflex" unicode="&#x135;" horiz-adv-x="317" 
d="M149 650h-122l180 182h121l106 -182h-106l-65 116zM-38 -208h-67l20 98h35q34 0 51 15t24 49l126 594h130l-127 -599q-17 -84 -61 -120.5t-131 -36.5z" />
    <glyph glyph-name="uni0136" unicode="&#x136;" horiz-adv-x="777" 
d="M666 769h171l-358 -338l222 -431h-145l-181 353l-144 -131l-47 -222h-133l164 769h133l-82 -385zM348 -176l-107 -22l22 104h161l-22 -101q-12 -58 -45.5 -83t-100.5 -25h-37l11 53h41q60 0 71 44z" />
    <glyph glyph-name="uni0137" unicode="&#x137;" horiz-adv-x="661" 
d="M511 548h160l-263 -218l157 -330h-134l-115 262l-113 -88l-37 -174h-130l164 768h130l-97 -453zM263 -176l-107 -22l22 104h161l-22 -101q-12 -58 -45.5 -83t-100.5 -25h-37l11 53h41q60 0 71 44z" />
    <glyph glyph-name="kgreenlandic" unicode="&#x138;" horiz-adv-x="661" 
d="M511 548h160l-263 -218l157 -330h-134l-115 262l-113 -89l-37 -173h-130l116 548h130l-49 -234z" />
    <glyph glyph-name="Lacute" unicode="&#x139;" horiz-adv-x="668" 
d="M332 1049h155l-152 -172h-114zM350 768l-140 -657h380l-24 -111h-515l164 768h135z" />
    <glyph glyph-name="lacute" unicode="&#x13a;" horiz-adv-x="318" 
d="M304 877h-114l111 172h155zM166 0h-130l164 768h130z" />
    <glyph glyph-name="uni013B" unicode="&#x13b;" horiz-adv-x="668" 
d="M350 768l-140 -657h380l-24 -111h-515l164 768h135zM302 -176l-107 -22l22 104h161l-22 -101q-12 -58 -45.5 -83t-100.5 -25h-37l11 53h41q60 0 71 44z" />
    <glyph glyph-name="uni013C" unicode="&#x13c;" horiz-adv-x="318" 
d="M166 0h-130l164 768h130zM-6 -303h-37l11 53h41q60 0 71 44l6 30l-107 -22l22 104h161l-22 -101q-12 -58 -45.5 -83t-100.5 -25z" />
    <glyph glyph-name="Lcaron" unicode="&#x13d;" horiz-adv-x="668" 
d="M215 768h135l-140 -657h380l-24 -111h-515zM535 768h138l-166 -292h-91z" />
    <glyph glyph-name="lcaron" unicode="&#x13e;" horiz-adv-x="510" 
d="M166 0h-130l164 768h130zM449 476h-92l120 292h138z" />
    <glyph glyph-name="Ldot" unicode="&#x13f;" horiz-adv-x="668" 
d="M350 768l-140 -657h380l-24 -111h-515l164 768h135zM431 481h140l-30 -138h-140z" />
    <glyph glyph-name="ldot" unicode="&#x140;" horiz-adv-x="510" 
d="M166 0h-130l164 768h130zM484 304h-157l33 157h156z" />
    <glyph glyph-name="Lslash" unicode="&#x141;" horiz-adv-x="805" 
d="M689 473l-288 -106l-54 -256h380l-24 -111h-515l65 306l-243 -110l50 116l210 74l82 382h135l-69 -322l320 142z" />
    <glyph glyph-name="lslash" unicode="&#x142;" horiz-adv-x="527" 
d="M364 463l155 82l-24 -116l-150 -56l-80 -373h-130l65 304l-144 -76l24 116l139 51l80 373h130z" />
    <glyph glyph-name="Nacute" unicode="&#x143;" horiz-adv-x="872" 
d="M576 1049h155l-152 -172h-114zM613 163l128 606h127l-164 -769h-148l-250 605l-128 -605h-127l164 769h150z" />
    <glyph glyph-name="nacute" unicode="&#x144;" horiz-adv-x="677" 
d="M436 844h155l-152 -172h-114zM441 563q77 0 121 -42t44 -116q0 -27 -7 -59l-74 -346h-130l71 336q5 22 5 39q0 37 -21.5 58t-60.5 21q-94 0 -151 -113l-72 -341h-130l117 548h119l-10 -71q77 86 179 86z" />
    <glyph glyph-name="uni0145" unicode="&#x145;" horiz-adv-x="872" 
d="M613 163l128 606h127l-164 -769h-148l-250 605l-128 -605h-127l164 769h150zM347 -176l-107 -22l22 104h161l-22 -101q-12 -58 -45.5 -83t-100.5 -25h-37l11 53h41q60 0 71 44z" />
    <glyph glyph-name="uni0146" unicode="&#x146;" horiz-adv-x="677" 
d="M441 563q77 0 121 -42t44 -116q0 -27 -7 -59l-74 -346h-130l71 336q5 22 5 39q0 37 -21.5 58t-60.5 21q-94 0 -151 -113l-72 -341h-130l117 548h119l-10 -71q77 86 179 86zM265 -176l-107 -22l22 104h161l-22 -101q-12 -58 -45.5 -83t-100.5 -25h-37l11 53h41q60 0 71 44
z" />
    <glyph glyph-name="Ncaron" unicode="&#x147;" horiz-adv-x="872" 
d="M802 1044l-186 -182h-121l-101 182h106l64 -116l115 116h123zM613 163l128 606h127l-164 -769h-148l-250 605l-128 -605h-127l164 769h150z" />
    <glyph glyph-name="ncaron" unicode="&#x148;" horiz-adv-x="677" 
d="M662 839l-185 -182h-121l-101 182h105l65 -116l115 116h122zM441 563q77 0 121 -42t44 -116q0 -27 -7 -59l-74 -346h-130l71 336q5 22 5 39q0 37 -21.5 58t-60.5 21q-94 0 -151 -113l-72 -341h-130l117 548h119l-10 -71q77 86 179 86z" />
    <glyph glyph-name="napostrophe" unicode="&#x149;" horiz-adv-x="907" 
d="M152 768h178l-40 -193q-20 -91 -62 -126q-44 -36 -132 -36h-19l16 71h23q80 0 96 76l17 83l-109 -26zM671 563q77 0 121 -42t44 -116q0 -27 -7 -59l-74 -346h-130l72 336q5 28 5 39q0 37 -21.5 58t-60.5 21q-95 0 -152 -113l-72 -341h-130l117 548h119l-10 -71
q77 86 179 86z" />
    <glyph glyph-name="Eng" unicode="&#x14a;" horiz-adv-x="865" 
d="M734 769h127l-163 -769l-9 -41q-35 -167 -204 -167h-97l21 98h77q34 0 51 15t24 49l12 58l-273 568l-123 -580h-126l163 769h131l270 -557z" />
    <glyph glyph-name="eng" unicode="&#x14b;" horiz-adv-x="677" 
d="M441 563q77 0 121 -42t44 -116q0 -27 -7 -59l-83 -387q-36 -167 -205 -167h-57l22 98h34q34 0 51 15t24 49l81 382q5 22 5 39q0 37 -21.5 58t-60.5 21q-94 0 -151 -113l-72 -341h-130l117 548h119l-10 -71q77 86 179 86z" />
    <glyph glyph-name="Omacron" unicode="&#x14c;" horiz-adv-x="924" 
d="M756 894h-371l19 91h372zM420 -17q-151 0 -236 85q-86 86 -86 229q0 52 11 104q36 175 154 279q119 105 286 105q152 0 238 -85q86 -86 86 -230q0 -43 -11 -103q-36 -177 -153 -280q-118 -104 -289 -104zM431 92q114 0 193.5 78t105.5 214q9 45 9 82q0 99 -53 154.5
t-148 55.5q-114 0 -192.5 -77t-105.5 -215q-9 -44 -9 -82q0 -99 53 -154.5t147 -55.5z" />
    <glyph glyph-name="omacron" unicode="&#x14d;" horiz-adv-x="696" 
d="M617 664h-371l19 91h371zM297 -16q-111 0 -174.5 60t-63.5 163q0 30 8 76q28 133 113.5 207t217.5 74q113 0 176 -59.5t63 -164.5q0 -36 -9 -77q-27 -133 -112 -206t-219 -73zM308 88q150 0 191 185q7 29 7 64q0 59 -30 91t-88 32q-75 0 -124 -48.5t-68 -138.5
q-6 -33 -6 -63q0 -59 30 -90.5t88 -31.5z" />
    <glyph glyph-name="Obreve" unicode="&#x14e;" horiz-adv-x="924" 
d="M577 878q-85 0 -129 30.5t-44 88.5q0 15 5 47h84q-2 -18 -2 -22q0 -62 91 -62q104 0 124 84h90q-21 -86 -72 -126t-147 -40zM420 -17q-151 0 -236 85q-86 86 -86 229q0 52 11 104q36 175 154 279q119 105 286 105q152 0 238 -85q86 -86 86 -230q0 -43 -11 -103
q-36 -177 -153 -280q-118 -104 -289 -104zM431 92q114 0 193.5 78t105.5 214q9 45 9 82q0 99 -53 154.5t-148 55.5q-114 0 -192.5 -77t-105.5 -215q-9 -44 -9 -82q0 -99 53 -154.5t147 -55.5z" />
    <glyph glyph-name="obreve" unicode="&#x14f;" horiz-adv-x="696" 
d="M438 648q-172 0 -172 119q0 15 5 47h83l-2 -22q0 -62 91 -62q105 0 124 84h90q-21 -86 -72 -126t-147 -40zM297 -16q-111 0 -174.5 60t-63.5 163q0 30 8 76q28 133 113.5 207t217.5 74q113 0 176 -59.5t63 -164.5q0 -36 -9 -77q-27 -133 -112 -206t-219 -73zM308 88
q150 0 191 185q7 29 7 64q0 59 -30 91t-88 32q-75 0 -124 -48.5t-68 -138.5q-6 -33 -6 -63q0 -59 30 -90.5t88 -31.5z" />
    <glyph glyph-name="Ohungarumlaut" unicode="&#x150;" horiz-adv-x="924" 
d="M483 870h-117l108 186h153zM737 870h-116l111 186h152zM420 -17q-151 0 -236 85q-86 86 -86 229q0 52 11 104q36 175 154 279q119 105 286 105q152 0 238 -85q86 -86 86 -230q0 -43 -11 -103q-36 -177 -153 -280q-118 -104 -289 -104zM431 92q114 0 193.5 78t105.5 214
q9 45 9 82q0 99 -53 154.5t-148 55.5q-114 0 -192.5 -77t-105.5 -215q-9 -44 -9 -82q0 -99 53 -154.5t147 -55.5z" />
    <glyph glyph-name="ohungarumlaut" unicode="&#x151;" horiz-adv-x="696" 
d="M343 640h-116l108 186h153zM598 640h-117l111 186h152zM297 -16q-111 0 -174.5 60t-63.5 163q0 30 8 76q28 133 113.5 207t217.5 74q113 0 176 -59.5t63 -164.5q0 -36 -9 -77q-27 -133 -112 -206t-219 -73zM308 88q150 0 191 185q7 29 7 64q0 59 -30 91t-88 32
q-75 0 -124 -48.5t-68 -138.5q-6 -33 -6 -63q0 -59 30 -90.5t88 -31.5z" />
    <glyph glyph-name="OE" unicode="&#x152;" horiz-adv-x="1320" 
d="M1361 768l-24 -110h-415l-45 -210h382l-23 -107h-382l-50 -231h420l-23 -110h-552l23 107q-111 -124 -271 -124q-135 0 -219 87t-84 227q0 52 11 104q34 171 151 279q116 105 269 105q93 0 158 -40.5t96 -116.5l30 140h548zM433 92q114 0 191.5 76t105.5 214q8 43 8 82
q0 99 -53.5 155.5t-148.5 56.5q-115 0 -192 -77.5t-104 -213.5q-9 -44 -9 -82q0 -99 53 -155t149 -56z" />
    <glyph glyph-name="oe" unicode="&#x153;" horiz-adv-x="1095" 
d="M1023 242l-419 11q-3 -24 -3 -47q0 -61 33 -92.5t95 -31.5q95 0 153 78l104 -22q-97 -154 -264 -154q-73 0 -124 33t-75 92q-92 -125 -242 -125q-102 0 -162 60t-60 159q0 148 92 255q91 106 234 106q74 0 126.5 -32.5t73.5 -90.5q93 123 244 123q99 0 153.5 -56.5
t54.5 -154.5q0 -57 -14 -111zM810 473q-68 0 -118.5 -44t-74.5 -118l303 9q2 32 2 33q0 120 -112 120zM301 88q90 0 146 74q55 73 55 172q0 60 -31.5 93t-91.5 33q-89 0 -141 -75q-53 -76 -53 -175q0 -58 30 -90t86 -32z" />
    <glyph glyph-name="Racute" unicode="&#x154;" horiz-adv-x="800" 
d="M519 1049h155l-152 -172h-114zM784 602q0 -88 -54.5 -150t-148.5 -87q93 -25 93 -130q0 -4 -2 -42l-15 -193h-129l16 188q2 26 2 39q0 45 -23 64.5t-77 19.5h-198l-66 -311h-131l164 768h361q99 0 153.5 -44.5t54.5 -121.5zM271 416h174q91 0 145.5 43.5t54.5 119.5
q0 84 -126 84h-195z" />
    <glyph glyph-name="racute" unicode="&#x155;" horiz-adv-x="497" 
d="M345 829h155l-152 -172h-114zM272 548l-15 -102q71 108 198 108h41l-24 -115h-31q-76 0 -125.5 -26.5t-81.5 -94.5l-68 -318h-130l117 548h119z" />
    <glyph glyph-name="uni0156" unicode="&#x156;" horiz-adv-x="800" 
d="M784 602q0 -88 -54.5 -150t-148.5 -87q93 -25 93 -130q0 -4 -2 -42l-15 -193h-129l16 188q2 26 2 39q0 45 -23 64.5t-77 19.5h-198l-66 -311h-131l164 768h361q99 0 153.5 -44.5t54.5 -121.5zM271 416h174q91 0 145.5 43.5t54.5 119.5q0 84 -126 84h-195zM343 -176
l-107 -22l22 104h161l-22 -101q-12 -58 -45.5 -83t-100.5 -25h-37l11 53h41q60 0 71 44z" />
    <glyph glyph-name="uni0157" unicode="&#x157;" horiz-adv-x="497" 
d="M455 554h41l-24 -115h-31q-76 0 -125.5 -26.5t-81.5 -94.5l-68 -318h-130l117 548h119l-15 -102q71 108 198 108zM85 -176l-107 -22l22 104h161l-22 -101q-12 -58 -45.5 -83t-100.5 -25h-37l11 53h41q60 0 71 44z" />
    <glyph glyph-name="Rcaron" unicode="&#x158;" horiz-adv-x="800" 
d="M745 1044l-186 -182h-121l-101 182h106l64 -116l115 116h123zM784 602q0 -88 -54.5 -150t-148.5 -87q93 -25 93 -130q0 -4 -2 -42l-15 -193h-129l16 188q2 26 2 39q0 45 -23 64.5t-77 19.5h-198l-66 -311h-131l164 768h361q99 0 153.5 -44.5t54.5 -121.5zM271 416h174
q91 0 145.5 43.5t54.5 119.5q0 84 -126 84h-195z" />
    <glyph glyph-name="rcaron" unicode="&#x159;" horiz-adv-x="497" 
d="M571 824l-185 -182h-121l-101 182h105l65 -116l115 116h122zM272 548l-15 -102q71 108 198 108h41l-24 -115h-31q-76 0 -125.5 -26.5t-81.5 -94.5l-68 -318h-130l117 548h119z" />
    <glyph glyph-name="Sacute" unicode="&#x15a;" horiz-adv-x="783" 
d="M525 892h-114l111 172h155zM343 -19q-138 0 -214.5 55.5t-76.5 158.5v17l132 13v-17q0 -122 171 -122q99 0 154.5 34t55.5 103q0 41 -30.5 66t-93.5 38l-94 20q-192 43 -192 192q0 123 87.5 186.5t243.5 63.5q135 0 207 -50.5t72 -141.5v-14l-128 -13v15q0 101 -161 101
q-181 0 -181 -127q0 -37 26.5 -59t88.5 -35l91 -19q102 -21 153 -72t51 -125q0 -134 -97 -201t-265 -67z" />
    <glyph glyph-name="sacute" unicode="&#x15b;" horiz-adv-x="636" 
d="M417 678h-114l111 172h155zM276 -22q-112 0 -173 45.5t-63 129.5l124 12q1 -51 30 -74t90 -23q132 0 132 86q0 28 -19.5 44t-66.5 26l-72 17q-148 31 -148 145q0 90 69.5 136.5t187.5 46.5q106 0 164.5 -42.5t60.5 -119.5l-122 -13q-2 43 -32 65t-82 22q-56 0 -88 -19.5
t-32 -57.5q0 -25 19.5 -40t64.5 -24l70 -14q81 -16 117.5 -52t36.5 -101q0 -94 -70.5 -144.5t-197.5 -50.5z" />
    <glyph glyph-name="Scircumflex" unicode="&#x15c;" horiz-adv-x="783" 
d="M418 884h-122l180 182h121l106 -182h-106l-65 116zM343 -19q-138 0 -214.5 55.5t-76.5 158.5v17l132 13v-17q0 -122 171 -122q99 0 154.5 34t55.5 103q0 41 -30.5 66t-93.5 38l-94 20q-192 43 -192 192q0 123 87.5 186.5t243.5 63.5q135 0 207 -50.5t72 -141.5v-14
l-128 -13v15q0 101 -161 101q-181 0 -181 -127q0 -37 26.5 -59t88.5 -35l91 -19q102 -21 153 -72t51 -125q0 -134 -97 -201t-265 -67z" />
    <glyph glyph-name="scircumflex" unicode="&#x15d;" horiz-adv-x="636" 
d="M310 670h-122l180 182h121l106 -182h-106l-65 116zM276 -22q-112 0 -173 45.5t-63 129.5l124 12q1 -51 30 -74t90 -23q132 0 132 86q0 28 -19.5 44t-66.5 26l-72 17q-148 31 -148 145q0 90 69.5 136.5t187.5 46.5q106 0 164.5 -42.5t60.5 -119.5l-122 -13q-2 43 -32 65
t-82 22q-56 0 -88 -19.5t-32 -57.5q0 -25 19.5 -40t64.5 -24l70 -14q81 -16 117.5 -52t36.5 -101q0 -94 -70.5 -144.5t-197.5 -50.5z" />
    <glyph glyph-name="Scedilla" unicode="&#x15e;" horiz-adv-x="783" 
d="M343 -19q-138 0 -214.5 55.5t-76.5 158.5v17l132 13v-17q0 -122 171 -122q99 0 154.5 34t55.5 103q0 41 -30.5 66t-93.5 38l-94 20q-192 43 -192 192q0 123 87.5 186.5t243.5 63.5q135 0 207 -50.5t72 -141.5v-14l-128 -13v15q0 101 -161 101q-181 0 -181 -127
q0 -37 26.5 -59t88.5 -35l91 -19q102 -21 153 -72t51 -125q0 -134 -97 -201t-265 -67zM269 -283h-85l14 68h74q86 0 86 47q0 28 -36 28h-108l13 62h124q104 0 104 -84q0 -59 -48.5 -90t-137.5 -31z" />
    <glyph glyph-name="scedilla" unicode="&#x15f;" horiz-adv-x="636" 
d="M276 -22q-112 0 -173 45.5t-63 129.5l124 12q1 -51 30 -74t90 -23q132 0 132 86q0 28 -19.5 44t-66.5 26l-72 17q-148 31 -148 145q0 90 69.5 136.5t187.5 46.5q106 0 164.5 -42.5t60.5 -119.5l-122 -13q-2 43 -32 65t-82 22q-56 0 -88 -19.5t-32 -57.5q0 -25 19.5 -40
t64.5 -24l70 -14q81 -16 117.5 -52t36.5 -101q0 -94 -70.5 -144.5t-197.5 -50.5zM198 -286h-85l14 68h74q86 0 86 47q0 28 -36 28h-108l13 62h124q104 0 104 -84q0 -59 -48.5 -90t-137.5 -31z" />
    <glyph glyph-name="Scaron" unicode="&#x160;" horiz-adv-x="783" 
d="M562 877h-121l-101 182h106l64 -116l115 116h123zM343 -19q-138 0 -214.5 55.5t-76.5 158.5v17l132 13v-17q0 -122 171 -122q99 0 154.5 34t55.5 103q0 41 -30.5 66t-93.5 38l-94 20q-192 43 -192 192q0 123 87.5 186.5t243.5 63.5q135 0 207 -50.5t72 -141.5v-14
l-128 -13v15q0 101 -161 101q-181 0 -181 -127q0 -37 26.5 -59t88.5 -35l91 -19q102 -21 153 -72t51 -125q0 -134 -97 -201t-265 -67z" />
    <glyph glyph-name="scaron" unicode="&#x161;" horiz-adv-x="636" 
d="M455 663h-121l-101 182h105l65 -116l115 116h122zM276 -22q-112 0 -173 45.5t-63 129.5l124 12q1 -51 30 -74t90 -23q132 0 132 86q0 28 -19.5 44t-66.5 26l-72 17q-148 31 -148 145q0 90 69.5 136.5t187.5 46.5q106 0 164.5 -42.5t60.5 -119.5l-122 -13q-2 43 -32 65
t-82 22q-56 0 -88 -19.5t-32 -57.5q0 -25 19.5 -40t64.5 -24l70 -14q81 -16 117.5 -52t36.5 -101q0 -94 -70.5 -144.5t-197.5 -50.5z" />
    <glyph glyph-name="uni0162" unicode="&#x162;" horiz-adv-x="681" 
d="M141 768h610l-24 -110h-239l-140 -658h-133l140 658h-238zM168 -71h124q104 0 104 -84q0 -59 -48.5 -90t-137.5 -31h-85l14 68h74q86 0 86 47q0 28 -36 28h-108z" />
    <glyph glyph-name="uni0163" unicode="&#x163;" horiz-adv-x="515" 
d="M312 464l-4 -54l-46 -215q-8 -38 -8 -46q0 -44 57 -44h108l-23 -105h-126q-149 0 -149 116q0 14 5 46l53 249l19 52l-133 -7l20 92l130 -7l2 47l25 121h129l-24 -117l-19 -52l185 8l-19 -92zM118 -60h124q103 0 103 -84q0 -59 -48.5 -90.5t-136.5 -31.5h-86l15 69h74
q86 0 86 46q0 28 -37 28h-108z" />
    <glyph glyph-name="Tcaron" unicode="&#x164;" horiz-adv-x="681" 
d="M708 1044l-186 -182h-121l-101 182h106l64 -116l115 116h123zM141 768h610l-24 -110h-239l-140 -658h-133l140 658h-238z" />
    <glyph glyph-name="tcaron" unicode="&#x165;" horiz-adv-x="533" 
d="M426 620l120 292h138l-166 -292h-92zM371 709l-24 -117l-19 -52l185 8l-19 -92l-182 8l-4 -54l-46 -215q-8 -38 -8 -46q0 -44 57 -44h108l-23 -105h-126q-149 0 -149 116q0 14 5 46l53 249l19 52l-133 -7l20 92l130 -7l2 47l25 121h129z" />
    <glyph glyph-name="Tbar" unicode="&#x166;" horiz-adv-x="681" 
d="M751 768l-24 -110h-239l-50 -236l204 7l-21 -97l-201 7l-72 -339h-133l72 339l-202 -7l21 97l199 -7l50 236h-238l24 110h610z" />
    <glyph glyph-name="tbar" unicode="&#x167;" horiz-adv-x="549" 
d="M547 548l-20 -92l-174 7l-28 -128l179 7l-19 -90l-176 7l-16 -75q-5 -22 -5 -35q0 -44 56 -44h108l-22 -105h-126q-150 0 -150 116q0 14 5 46l21 96l-124 -6l19 90l121 -6l27 127l-125 -7l20 92l122 -7l36 168h129l-36 -168z" />
    <glyph glyph-name="Utilde" unicode="&#x168;" horiz-adv-x="848" 
d="M410 855h-97q19 88 63 134.5t108 46.5t95 -43t60 -43q23 0 38.5 19.5t28.5 63.5h97q-19 -87 -63.5 -134t-108.5 -47q-34 0 -58 13.5t-34.5 30t-26.5 30t-35 13.5q-23 0 -38.5 -20t-28.5 -64zM376 -17q-133 0 -204.5 54t-71.5 158q0 33 12 90l102 483h137l-106 -498
q-6 -32 -6 -57q0 -114 148 -114q93 0 144 41t70 130l106 498h137l-105 -495q-31 -149 -118.5 -219.5t-244.5 -70.5z" />
    <glyph glyph-name="utilde" unicode="&#x169;" horiz-adv-x="677" 
d="M343 719q-23 0 -38.5 -20t-28.5 -64h-97q19 88 63 134.5t108 46.5t95 -43t60 -43q23 0 38.5 19.5t28.5 63.5h97q-19 -87 -63.5 -134t-108.5 -47q-34 0 -58 13.5t-34.5 30t-26.5 30t-35 13.5zM439 207l73 341h130l-117 -548h-120l10 71q-77 -86 -178 -86q-78 0 -121.5 42
t-43.5 116q0 32 7 59l74 346h130l-72 -336q-5 -28 -5 -39q0 -37 21.5 -58t60.5 -21q95 0 151 113z" />
    <glyph glyph-name="Umacron" unicode="&#x16a;" horiz-adv-x="848" 
d="M731 884h-371l19 91h372zM376 -17q-133 0 -204.5 54t-71.5 158q0 33 12 90l102 483h137l-106 -498q-6 -32 -6 -57q0 -114 148 -114q93 0 144 41t70 130l106 498h137l-105 -495q-31 -149 -118.5 -219.5t-244.5 -70.5z" />
    <glyph glyph-name="umacron" unicode="&#x16b;" horiz-adv-x="677" 
d="M245 755h371l-19 -91h-371zM439 207l73 341h130l-117 -548h-120l10 71q-77 -86 -178 -86q-78 0 -121.5 42t-43.5 116q0 32 7 59l74 346h130l-72 -336q-5 -28 -5 -39q0 -37 21.5 -58t60.5 -21q95 0 151 113z" />
    <glyph glyph-name="Ubreve" unicode="&#x16c;" horiz-adv-x="848" 
d="M552 868q-85 0 -129 30.5t-44 88.5q0 15 5 47h84q-2 -18 -2 -22q0 -62 91 -62q105 0 124 84h90q-21 -86 -72 -126t-147 -40zM376 -17q-133 0 -204.5 54t-71.5 158q0 33 12 90l102 483h137l-106 -498q-6 -32 -6 -57q0 -114 148 -114q93 0 144 41t70 130l106 498h137
l-105 -495q-31 -149 -118.5 -219.5t-244.5 -70.5z" />
    <glyph glyph-name="ubreve" unicode="&#x16d;" horiz-adv-x="677" 
d="M418 648q-172 0 -172 119q0 15 5 47h83l-2 -22q0 -62 91 -62q105 0 124 84h90q-21 -86 -72 -126t-147 -40zM439 207l73 341h130l-117 -548h-120l10 71q-77 -86 -178 -86q-78 0 -121.5 42t-43.5 116q0 32 7 59l74 346h130l-72 -336q-5 -28 -5 -39q0 -37 21.5 -58t60.5 -21
q95 0 151 113z" />
    <glyph glyph-name="Uring" unicode="&#x16e;" horiz-adv-x="848" 
d="M660 845q-44 -44 -111 -44t-111 44t-44 110q0 67 44 111q43 43 111 43t111 -43q44 -44 44 -111q0 -66 -44 -110zM490 895q23 -23 59 -23t59 23t23 60q0 38 -23 61t-59 23t-59 -23t-23 -61q0 -37 23 -60zM376 -17q-133 0 -204.5 54t-71.5 158q0 33 12 90l102 483h137
l-106 -498q-6 -32 -6 -57q0 -114 148 -114q93 0 144 41t70 130l106 498h137l-105 -495q-31 -149 -118.5 -219.5t-244.5 -70.5z" />
    <glyph glyph-name="uring" unicode="&#x16f;" horiz-adv-x="677" 
d="M546 664q-44 -44 -111 -44t-111 44t-44 109q0 67 44 111q43 43 111 43t111 -43q44 -44 44 -111q0 -65 -44 -109zM494 834q-23 23 -59 23t-59 -23t-23 -61q0 -37 23 -60t59 -23t59 23t23 60q0 38 -23 61zM439 207l73 341h130l-117 -548h-120l10 71q-77 -86 -178 -86
q-78 0 -121.5 42t-43.5 116q0 32 7 59l74 346h130l-72 -336q-5 -28 -5 -39q0 -37 21.5 -58t60.5 -21q95 0 151 113z" />
    <glyph glyph-name="Uhungarumlaut" unicode="&#x170;" horiz-adv-x="848" 
d="M458 860h-117l108 186h153zM712 860h-116l111 186h152zM376 -17q-133 0 -204.5 54t-71.5 158q0 33 12 90l102 483h137l-106 -498q-6 -32 -6 -57q0 -114 148 -114q93 0 144 41t70 130l106 498h137l-105 -495q-31 -149 -118.5 -219.5t-244.5 -70.5z" />
    <glyph glyph-name="uhungarumlaut" unicode="&#x171;" horiz-adv-x="677" 
d="M315 826h153l-145 -186h-116zM724 826l-146 -186h-117l111 186h152zM439 207l73 341h130l-117 -548h-120l10 71q-77 -86 -178 -86q-78 0 -121.5 42t-43.5 116q0 32 7 59l74 346h130l-72 -336q-5 -28 -5 -39q0 -37 21.5 -58t60.5 -21q95 0 151 113z" />
    <glyph glyph-name="Uogonek" unicode="&#x172;" horiz-adv-x="848" 
d="M601 270l106 498h137l-105 -495q-47 -227 -235 -275l-107 -57q-53 -29 -53 -62q0 -40 55 -40h34l-16 -75h-66q-58 0 -90 26.5t-32 69.5q0 70 84 113l23 11q-115 8 -175.5 62t-60.5 149q0 33 12 90l102 483h137l-106 -498q-6 -32 -6 -57q0 -114 148 -114q93 0 144 41
t70 130z" />
    <glyph glyph-name="uogonek" unicode="&#x173;" horiz-adv-x="677" 
d="M525 0l-112 -59q-53 -29 -53 -62q0 -40 55 -40h34l-16 -75h-66q-58 0 -90 26.5t-32 69.5q0 71 84 113l78 40l8 58q-77 -86 -178 -86q-78 0 -121.5 42t-43.5 116q0 32 7 59l74 346h130l-72 -336q-5 -28 -5 -39q0 -37 21.5 -58t60.5 -21q95 0 151 113l73 341h130z" />
    <glyph glyph-name="Wcircumflex" unicode="&#x174;" horiz-adv-x="1140" 
d="M757 869l-65 116l-115 -116h-122l181 182h121l106 -182h-106zM815 210l268 558h135l-384 -768h-156l-39 639l-286 -639h-156l-72 768h121l46 -557l-1 -108l42 107l248 558h165l28 -557l-3 -107z" />
    <glyph glyph-name="wcircumflex" unicode="&#x175;" horiz-adv-x="927" 
d="M616 649l-65 116l-114 -116h-122l180 182h121l106 -182h-106zM624 214l169 334h139l-297 -548h-131l-25 278l-7 129l-60 -129l-136 -278h-130l-68 548h125l32 -332l4 -76l33 72l162 336h123l25 -330l3 -84z" />
    <glyph glyph-name="Ycircumflex" unicode="&#x176;" horiz-adv-x="723" 
d="M573 862l-65 116l-115 -116h-122l181 182h121l106 -182h-106zM656 769h153l-375 -462h-1l-65 -307h-134l66 308l-181 461h133l116 -314l13 -43l30 43z" />
    <glyph glyph-name="ycircumflex" unicode="&#x177;" horiz-adv-x="616" 
d="M460 649l-65 116l-114 -116h-122l180 182h121l106 -182h-106zM264 142l217 406h140l-347 -610q-47 -83 -95 -116q-46 -30 -131 -30h-85l21 102h74q36 0 58 15t47 56l12 21l-97 562h132l54 -404v-2z" />
    <glyph glyph-name="Ydieresis" unicode="&#x178;" horiz-adv-x="723" 
d="M313 1006h134l-28 -131h-134zM582 1006h133l-27 -131h-134zM656 769h153l-375 -462h-1l-65 -307h-134l66 308l-181 461h133l116 -314l13 -43l30 43z" />
    <glyph glyph-name="Zacute" unicode="&#x179;" horiz-adv-x="779" 
d="M531 1049h155l-152 -172h-114zM200 768h600l-20 -91l-566 -569h454l-24 -108h-626l20 92l560 568h-421z" />
    <glyph glyph-name="zacute" unicode="&#x17a;" horiz-adv-x="628" 
d="M399 829h155l-152 -172h-114zM131 548h471l-18 -89l-389 -357h332l-22 -102h-497l18 86l392 360h-309z" />
    <glyph glyph-name="Zdotaccent" unicode="&#x17b;" horiz-adv-x="779" 
d="M484 1014h127l-28 -133h-127zM200 768h600l-20 -91l-566 -569h454l-24 -108h-626l20 92l560 568h-421z" />
    <glyph glyph-name="zdotaccent" unicode="&#x17c;" horiz-adv-x="628" 
d="M352 794h127l-28 -133h-127zM131 548h471l-18 -89l-389 -357h332l-22 -102h-497l18 86l392 360h-309z" />
    <glyph glyph-name="Zcaron" unicode="&#x17d;" horiz-adv-x="779" 
d="M757 1044l-186 -182h-121l-101 182h106l64 -116l115 116h123zM200 768h600l-20 -91l-566 -569h454l-24 -108h-626l20 92l560 568h-421z" />
    <glyph glyph-name="zcaron" unicode="&#x17e;" horiz-adv-x="628" 
d="M624 824l-185 -182h-121l-101 182h105l65 -116l115 116h122zM418 446h-309l22 102h471l-18 -89l-389 -357h332l-22 -102h-497l18 86z" />
    <glyph glyph-name="uni018F" unicode="&#x18f;" horiz-adv-x="923" 
d="M548 785q152 0 238 -85q86 -86 86 -230q0 -43 -11 -103q-36 -177 -153 -280q-118 -104 -289 -104q-151 0 -236 85q-86 86 -86 229q0 60 16 123h622q3 24 3 46q0 99 -53 154.5t-148 55.5q-145 0 -231 -126l-127 31q60 97 156 150.5t213 53.5zM430 92q98 0 171 57.5
t109 162.5h-480v-10q0 -99 53 -154.5t147 -55.5z" />
    <glyph glyph-name="florin" unicode="&#x192;" horiz-adv-x="757" 
d="M673 768h93l-39 -99h-62q-35 0 -55.5 -15t-35.5 -53l-59 -144l114 6l-37 -91l-109 6l-152 -375q-33 -82 -88.5 -121t-144.5 -39h-93l39 99h61q35 0 55.5 15t36.5 53l149 368l-118 -6l37 91l113 -6l61 151q33 82 88.5 121t145.5 39z" />
    <glyph glyph-name="uni01F4" unicode="&#x1f4;" horiz-adv-x="902" 
d="M567 1049h155l-152 -172h-114zM674 308h-205l22 101h331l-87 -409h-96l-1 90q-92 -107 -247 -107q-140 0 -216 85q-78 84 -78 223q0 53 11 106q39 185 152 286t291 101q122 0 198.5 -60t93.5 -171l-130 -21q-27 142 -176 142q-111 0 -190 -76t-107 -213q-9 -49 -9 -90
q0 -96 49 -149.5t135 -53.5q168 0 244 148z" />
    <glyph glyph-name="uni01F5" unicode="&#x1f5;" horiz-adv-x="692" 
d="M455 829h155l-152 -172h-114zM518 472l23 79h116l-111 -524q-49 -235 -285 -235q-110 0 -168.5 42.5t-63.5 121.5l122 13q9 -83 118 -83q62 0 98 33.5t52 106.5l15 72q-74 -68 -170 -68q-90 0 -144 55t-54 150q0 135 80 232q80 96 205 96q113 0 167 -91zM306 130
q52 0 94 31t66 83l22 100q-1 54 -33.5 86t-81.5 32q-78 0 -127 -64t-49 -149q0 -55 29 -87t80 -32z" />
    <glyph glyph-name="Aringacute" unicode="&#x1fa;" horiz-adv-x="785" 
d="M521 1109h156l-105 -136h-122zM700 0h-135l-29 172h-332l-99 -172h-143l411 689q-34 38 -34 95q0 62 41 103t104 41q61 0 104 -41q41 -41 41 -103q0 -80 -63 -120zM534 836q-19 19 -49.5 19t-49.5 -19t-19 -50.5t19 -51.5t49 -20t50 20t20 51.5t-20 50.5zM433 567
l-167 -289h252l-49 289l-5 70z" />
    <glyph glyph-name="aringacute" unicode="&#x1fb;" horiz-adv-x="677" 
d="M521 1109h155l-153 -173h-113zM543 641q-44 -44 -111 -44t-111 44t-44 110q0 67 44 111q43 43 111 43t111 -43t43 -111q0 -67 -43 -110zM432 834q-37 0 -60 -22.5t-23 -60.5t23 -60.5t60 -22.5q36 0 59 22.5t23 60.5t-23 60.5t-59 22.5zM380 564q107 0 160.5 -36
t53.5 -101q0 -15 -5 -45l-58 -270q-8 -45 -8 -77q0 -5 2 -35h-120v65q-71 -81 -194 -81q-83 0 -129.5 38t-46.5 108q0 84 59.5 126.5t188.5 64.5l132 22q22 4 44 13l1 7q6 25 6 41q0 67 -102 67q-63 0 -96.5 -22t-49.5 -74l-112 11q48 178 274 178zM261 71q48 0 88 22.5
t65 64.5l25 117q-15 -6 -35 -9l-114 -21q-64 -12 -94 -35.5t-30 -64.5q0 -74 95 -74z" />
    <glyph glyph-name="AEacute" unicode="&#x1fc;" horiz-adv-x="1223" 
d="M934 1049h155l-152 -172h-114zM1264 768l-24 -110h-415l-45 -210h382l-23 -107h-382l-50 -231h421l-24 -110h-551l41 190h-339l-148 -190h-145l601 768h701zM619 658l-282 -362h279l78 362h-75z" />
    <glyph glyph-name="aeacute" unicode="&#x1fd;" horiz-adv-x="1059" 
d="M627 829h155l-152 -172h-114zM987 243l-420 12q-5 -25 -5 -50q0 -123 127 -123q99 0 157 78l104 -22q-46 -72 -120 -113t-161 -41q-79 0 -129 35.5t-68 99.5q-45 -65 -114.5 -100t-151.5 -35q-81 0 -127.5 34.5t-46.5 96.5q0 92 70 143.5t189 54.5l178 4l9 45q4 17 4 30
q0 79 -122 79q-59 0 -91 -21.5t-51 -74.5l-110 12q30 87 99.5 132t167.5 45q78 0 124 -29.5t56 -83.5q90 113 237 113q103 0 157 -54.5t54 -152.5q0 -50 -16 -114zM770 473q-67 0 -118 -42t-72 -117l304 6q2 16 2 33q0 120 -116 120zM252 74q57 0 107.5 28t80.5 79l16 78
l-185 -22q-48 -5 -77.5 -33t-29.5 -68q0 -62 88 -62z" />
    <glyph glyph-name="Oslashacute" unicode="&#x1fe;" horiz-adv-x="924" 
d="M582 1059h155l-152 -172h-114zM865 800l51 -51l-95 -91q52 -77 52 -188q0 -43 -11 -103q-36 -177 -153 -280q-118 -104 -289 -104q-137 0 -225 74l-96 -92l-51 51l100 96q-50 77 -50 185q0 52 11 104q36 175 154 279q119 105 286 105q139 0 224 -73zM231 302
q0 -57 16 -95l435 418q-52 51 -144 51q-114 0 -192.5 -77t-105.5 -215q-9 -44 -9 -82zM739 466q0 52 -17 97l-436 -418q56 -53 145 -53q114 0 193.5 78t105.5 214q9 45 9 82z" />
    <glyph glyph-name="oslashacute" unicode="&#x1ff;" horiz-adv-x="696" 
d="M443 829h155l-152 -172h-114zM638 575l42 -39l-75 -70q32 -53 32 -126q0 -36 -9 -77q-27 -133 -112 -206t-219 -73q-101 0 -162 48l-64 -59l-42 39l67 62q-37 55 -37 133q0 30 8 76q28 133 113.5 207t217.5 74q108 0 169 -54zM190 210q0 -19 5 -44l282 261q-30 33 -89 33
q-75 0 -124 -48.5t-68 -138.5q-6 -33 -6 -63zM506 337q0 19 -3 35l-278 -257q29 -27 83 -27q150 0 191 185q7 29 7 64z" />
    <glyph glyph-name="uni0218" unicode="&#x218;" horiz-adv-x="783" 
d="M343 -19q-138 0 -214.5 55.5t-76.5 158.5v17l132 13v-17q0 -122 171 -122q99 0 154.5 34t55.5 103q0 41 -30.5 66t-93.5 38l-94 20q-192 43 -192 192q0 123 87.5 186.5t243.5 63.5q135 0 207 -50.5t72 -141.5v-14l-128 -13v15q0 101 -161 101q-181 0 -181 -127
q0 -37 26.5 -59t88.5 -35l91 -19q102 -21 153 -72t51 -125q0 -134 -97 -201t-265 -67zM234 -310h-37l11 53h41q60 0 71 44l6 30l-107 -22l22 104h161l-22 -101q-12 -58 -45.5 -83t-100.5 -25z" />
    <glyph glyph-name="uni0219" unicode="&#x219;" horiz-adv-x="636" 
d="M276 -22q-112 0 -173 45.5t-63 129.5l124 12q1 -51 30 -74t90 -23q132 0 132 86q0 28 -19.5 44t-66.5 26l-72 17q-148 31 -148 145q0 90 69.5 136.5t187.5 46.5q106 0 164.5 -42.5t60.5 -119.5l-122 -13q-2 43 -32 65t-82 22q-56 0 -88 -19.5t-32 -57.5q0 -25 19.5 -40
t64.5 -24l70 -14q81 -16 117.5 -52t36.5 -101q0 -94 -70.5 -144.5t-197.5 -50.5zM165 -303h-37l11 53h42q61 0 70 44l7 30l-107 -22l22 104h161l-22 -101q-12 -58 -45.5 -83t-101.5 -25z" />
    <glyph glyph-name="uni021A" unicode="&#x21a;" horiz-adv-x="681" 
d="M141 768h610l-24 -110h-239l-140 -658h-133l140 658h-238zM267 -176l-107 -22l22 104h161l-22 -101q-12 -58 -45.5 -83t-100.5 -25h-37l11 53h41q60 0 71 44z" />
    <glyph glyph-name="uni021B" unicode="&#x21b;" horiz-adv-x="515" 
d="M312 464l-4 -54l-46 -215q-8 -38 -8 -46q0 -44 57 -44h108l-23 -105h-126q-149 0 -149 116q0 14 5 46l53 249l19 52l-133 -7l20 92l130 -7l2 47l25 121h129l-24 -117l-19 -52l185 8l-19 -92zM160 -168l-107 -22l22 104h161l-22 -101q-12 -58 -45.5 -83t-100.5 -25h-37
l11 53h41q60 0 71 44z" />
    <glyph glyph-name="uni0237" unicode="&#x237;" horiz-adv-x="317" 
d="M-38 -208h-67l20 98h35q34 0 51 15t24 49l126 594h130l-127 -599q-17 -84 -61 -120.5t-131 -36.5z" />
    <glyph glyph-name="uni0259" unicode="&#x259;" horiz-adv-x="684" 
d="M381 564q115 0 179 -60.5t64 -166.5q0 -30 -8 -75q-26 -126 -110 -201q-86 -77 -216 -77q-111 0 -171.5 59t-60.5 161q0 48 15 103h424q2 26 2 30q0 62 -33 95.5t-92 33.5q-98 0 -156 -78l-111 21q43 74 113 114.5t161 40.5zM300 75q64 0 110.5 38.5t69.5 112.5h-297
q-2 -26 -2 -27q0 -124 119 -124z" />
    <glyph glyph-name="h.sups" unicode="&#x2b0;" horiz-adv-x="604" 
d="M450 779q62 0 99 -32t37 -94q0 -23 -6 -52l-49 -232h-115l48 226q3 15 3 25q0 29 -18 45t-49 16q-35 0 -67.5 -21t-54.5 -58l-49 -233h-115l118 558h115l-44 -206q67 58 147 58z" />
    <glyph glyph-name="r.sups" unicode="&#x2b3;" horiz-adv-x="447" 
d="M461 776h33l-21 -100h-46q-113 0 -152 -87l-46 -220h-115l85 399h106l-9 -65q63 73 165 73z" />
    <glyph glyph-name="circumflex" unicode="&#x2c6;" horiz-adv-x="500" 
d="M248 649h-122l180 182h121l106 -182h-105l-65 116z" />
    <glyph glyph-name="caron" unicode="&#x2c7;" horiz-adv-x="500" 
d="M385 642h-121l-100 182h105l64 -116l115 116h123z" />
    <glyph glyph-name="uni02C9" unicode="&#x2c9;" horiz-adv-x="500" 
d="M519 664h-371l19 91h371z" />
    <glyph glyph-name="breve" unicode="&#x2d8;" horiz-adv-x="500" 
d="M339 648q-172 0 -172 119q0 15 5 47h83l-2 -22q0 -62 91 -62q104 0 124 84h90q-21 -86 -72 -126t-147 -40z" />
    <glyph glyph-name="dotaccent" unicode="&#x2d9;" horiz-adv-x="500" 
d="M396 661h-127l28 133h127z" />
    <glyph glyph-name="ring" unicode="&#x2da;" horiz-adv-x="500" 
d="M467 664q-44 -44 -111 -44t-111 44t-44 109q0 67 44 111q43 43 111 43t111 -43q44 -44 44 -111q0 -65 -44 -109zM297 713q23 -23 59 -23t59 23t23 60q0 38 -23 61t-59 23t-59 -23t-23 -61q0 -37 23 -60z" />
    <glyph glyph-name="ogonek" unicode="&#x2db;" horiz-adv-x="500" 
d="M227 -236h-66q-58 0 -90 26.5t-32 69.5q0 71 84 113l98 50l98 -23l-112 -59q-53 -29 -53 -62q0 -40 55 -40h34z" />
    <glyph glyph-name="tilde" unicode="&#x2dc;" horiz-adv-x="500" 
d="M198 635h-97q19 88 63 134.5t108 46.5t95 -43t60 -43q23 0 38.5 19.5t28.5 63.5h97q-19 -87 -63.5 -134t-108.5 -47q-34 0 -58 13.5t-34.5 30t-26.5 30t-35 13.5q-23 0 -38.5 -20t-28.5 -64z" />
    <glyph glyph-name="hungarumlaut" unicode="&#x2dd;" horiz-adv-x="500" 
d="M232 640h-117l108 186h153zM486 640h-116l111 186h152z" />
    <glyph glyph-name="s.sups" unicode="&#x2e2;" horiz-adv-x="557" 
d="M320 352q-180 0 -209 123l105 14q13 -63 112 -63q101 0 101 51q0 34 -65 43l-79 12q-134 20 -134 111q0 63 54 100t147 37q83 0 134.5 -29.5t62.5 -83.5l-105 -12q-14 51 -100 51q-92 0 -92 -48q0 -32 55 -41l98 -15q130 -19 130 -108q0 -65 -58 -103.5t-157 -38.5z" />
    <glyph glyph-name="gravecomb" unicode="&#x300;" 
d="M132 657h-101l-116 172h142z" />
    <glyph glyph-name="acutecomb" unicode="&#x301;" 
d="M97 657h-114l111 172h155z" />
    <glyph glyph-name="uni0302" unicode="&#x302;" 
d="M-10 649h-122l180 182h121l106 -182h-106l-65 116z" />
    <glyph glyph-name="tildecomb" unicode="&#x303;" 
d="M-52 635h-97q19 88 63 134.5t108 46.5t95 -43t60 -43q23 0 38.5 19.5t28.5 63.5h97q-19 -87 -63.5 -134t-108.5 -47q-34 0 -58 13.5t-34.5 30t-26.5 30t-35 13.5q-23 0 -38.5 -20t-28.5 -64z" />
    <glyph glyph-name="uni0304" unicode="&#x304;" 
d="M269 664h-372l20 91h371z" />
    <glyph glyph-name="uni0306" unicode="&#x306;" 
d="M89 648q-172 0 -172 119q0 15 5 47h83l-2 -22q0 -62 91 -62q104 0 124 84h90q-21 -86 -72 -126t-147 -40z" />
    <glyph glyph-name="uni0307" unicode="&#x307;" 
d="M146 661h-127l28 133h127z" />
    <glyph glyph-name="uni0308" unicode="&#x308;" 
d="M15 661h-127l28 133h127zM277 661h-127l28 133h127z" />
    <glyph glyph-name="uni030A" unicode="&#x30a;" 
d="M217 664q-44 -44 -111 -44t-111 44t-44 109q0 67 44 111q43 43 111 43t111 -43q44 -44 44 -111q0 -65 -44 -109zM47 713q23 -23 59 -23t59 23t23 60q0 38 -23 61t-59 23t-59 -23t-23 -61q0 -37 23 -60z" />
    <glyph glyph-name="uni030B" unicode="&#x30b;" 
d="M-6 640h-116l108 186h153zM249 640h-117l111 186h152z" />
    <glyph glyph-name="uni030C" unicode="&#x30c;" 
d="M134 642h-121l-101 182h105l65 -116l115 116h122z" />
    <glyph glyph-name="uni0312" unicode="&#x312;" 
d="M163 661h-161l23 106q12 58 46.5 84.5t100.5 26.5h37l-11 -52h-41q-60 0 -71 -44l-7 -34l107 22z" />
    <glyph glyph-name="uni0313" unicode="&#x313;" 
d="M39 661h-36l11 53h41q60 0 71 44l7 34l-107 -22l23 108h161l-23 -105q-12 -59 -46.5 -85.5t-101.5 -26.5z" />
    <glyph glyph-name="dotbelowcomb" unicode="&#x323;" 
d="M-44 -245h-133l28 131h134z" />
    <glyph glyph-name="uni0324" unicode="&#x324;" 
d="M-178 -245h-133l28 131h133zM91 -245h-134l29 131h133z" />
    <glyph glyph-name="uni0325" unicode="&#x325;" 
d="M5 -318q-43 -42 -108 -42t-108 42q-42 44 -42 107q0 64 42 106q43 43 108 43t108 -42q42 -42 42 -107t-42 -107zM-161 -270q23 -22 58 -22t58 22q23 23 23 59t-23 59q-23 22 -58 22t-58 -22q-22 -22 -22 -59t22 -59z" />
    <glyph glyph-name="uni0326" unicode="&#x326;" 
d="M-165 -303h-37l11 53h41q60 0 71 44l6 30l-107 -22l22 104h161l-22 -101q-12 -58 -45.5 -83t-100.5 -25z" />
    <glyph glyph-name="uni0327" unicode="&#x327;" 
d="M-130 -276h-85l14 68h74q86 0 86 47q0 28 -36 28h-108l13 62h124q104 0 104 -84q0 -59 -48.5 -90t-137.5 -31z" />
    <glyph glyph-name="uni0328" unicode="&#x328;" 
d="M-150 -236h-66q-58 0 -90 26.5t-32 69.5q0 71 84 113l99 50l97 -23l-112 -59q-53 -29 -53 -62q0 -40 55 -40h34z" />
    <glyph glyph-name="uni032E" unicode="&#x32e;" 
d="M-106 -266q-171 0 -171 119q0 27 4 47h84q-3 -12 -3 -22q0 -63 91 -63q106 0 125 85h89q-21 -86 -71.5 -126t-147.5 -40z" />
    <glyph glyph-name="uni0331" unicode="&#x331;" 
d="M83 -207h-371l19 91h372z" />
    <glyph glyph-name="uni0335" unicode="&#x335;" 
d="M22 378l-216 -10l19 92l213 -10l216 10l-19 -92z" />
    <glyph glyph-name="uni0337" unicode="&#x337;" 
d="M320 530l-590 -564l-50 52l590 565z" />
    <glyph glyph-name="uni0338" unicode="&#x338;" 
d="M457 748l-818 -784l-50 52l818 784z" />
    <glyph glyph-name="uni0394" unicode="&#x394;" horiz-adv-x="785" 
d="M235 768h182l283 -768h-738zM310 625l-176 -519h388l-178 519l-17 61z" />
    <glyph glyph-name="uni03A9" unicode="&#x3a9;" horiz-adv-x="1015" 
d="M436 0h-318v121h173v5q-166 109 -166 307q0 159 102 256q101 96 270 96t270 -96q101 -98 101 -256q0 -198 -169 -307v-5h177v-121h-318v114q93 51 135.5 121.5t42.5 177.5q0 123 -63 193t-176 70q-115 0 -178 -69t-63 -193q0 -106 43.5 -177t136.5 -123v-114z" />
    <glyph glyph-name="uni03BC" unicode="&#x3bc;" horiz-adv-x="793" 
d="M282 -204h-130v752h130v-335q0 -57 27 -87.5t77 -30.5q89 0 126 100v353h130v-548h-120l-5 73q-64 -88 -159 -88q-65 0 -106 37l-2 -1l32 -117v-108z" />
    <glyph glyph-name="pi" unicode="&#x3c0;" horiz-adv-x="875" 
d="M790 548v-116h-126v-266q0 -33 13.5 -47t45.5 -14h34v-105h-68q-150 0 -150 158v274h-202v-432h-128v432h-124v116h705z" />
    <glyph glyph-name="d.sups" unicode="&#x1d48;" horiz-adv-x="622" 
d="M507 723l43 204h117l-118 -558h-95l-3 51q-61 -58 -154 -58q-79 0 -125.5 44.5t-46.5 121.5q0 107 73 180q72 74 179 74q89 0 130 -59zM337 453q83 0 129 66l23 107q-23 66 -103 66q-64 0 -104 -43t-40 -104q0 -44 25 -68t70 -24z" />
    <glyph glyph-name="t.sups" unicode="&#x1d57;" horiz-adv-x="451" 
d="M476 672l-143 5l-31 -144q-6 -28 -6 -40q0 -32 47 -32h88l-19 -92h-113q-59 0 -90 23t-31 65q0 20 10 70l32 150l-109 -5l21 96l106 -6l26 123h113l-26 -123l145 6z" />
    <glyph glyph-name="Wgrave" unicode="&#x1e80;" horiz-adv-x="1140" 
d="M645 1049l75 -172h-101l-116 172h142zM815 210l268 558h135l-384 -768h-156l-39 639l-286 -639h-156l-72 768h121l46 -557l-1 -108l42 107l248 558h165l28 -557l-3 -107z" />
    <glyph glyph-name="wgrave" unicode="&#x1e81;" horiz-adv-x="927" 
d="M505 829l75 -172h-101l-116 172h142zM624 214l169 334h139l-297 -548h-131l-25 278l-7 129l-60 -129l-136 -278h-130l-68 548h125l32 -332l4 -76l33 72l162 336h123l25 -330l3 -84z" />
    <glyph glyph-name="Wacute" unicode="&#x1e82;" horiz-adv-x="1140" 
d="M682 1049h155l-152 -172h-114zM815 210l268 558h135l-384 -768h-156l-39 639l-286 -639h-156l-72 768h121l46 -557l-1 -108l42 107l248 558h165l28 -557l-3 -107z" />
    <glyph glyph-name="wacute" unicode="&#x1e83;" horiz-adv-x="927" 
d="M542 829h155l-152 -172h-114zM624 214l169 334h139l-297 -548h-131l-25 278l-7 129l-60 -129l-136 -278h-130l-68 548h125l32 -332l4 -76l33 72l162 336h123l25 -330l3 -84z" />
    <glyph glyph-name="Wdieresis" unicode="&#x1e84;" horiz-adv-x="1140" 
d="M497 1013h134l-28 -131h-134zM766 1013h133l-27 -131h-134zM815 210l268 558h135l-384 -768h-156l-39 639l-286 -639h-156l-72 768h121l46 -557l-1 -108l42 107l248 558h165l28 -557l-3 -107z" />
    <glyph glyph-name="wdieresis" unicode="&#x1e85;" horiz-adv-x="927" 
d="M364 794h127l-28 -133h-127zM626 794h127l-28 -133h-127zM624 214l169 334h139l-297 -548h-131l-25 278l-7 129l-60 -129l-136 -278h-130l-68 548h125l32 -332l4 -76l33 72l162 336h123l25 -330l3 -84z" />
    <glyph glyph-name="uni1E9E" unicode="&#x1e9e;" horiz-adv-x="832" 
d="M833 763l-22 -103l-237 -203q90 -10 139 -54.5t49 -119.5q0 -130 -97 -211t-255 -81q-58 0 -123 13l24 109q61 -12 114 -12q96 0 149 41.5t53 118.5q0 91 -153 91q-2 0 -64 -2l20 93l251 224q-66 7 -141 7q-115 0 -174 -48t-80 -145l-103 -481h-132l101 473
q33 157 131 232.5t274 75.5q131 0 276 -18z" />
    <glyph glyph-name="Ygrave" unicode="&#x1ef2;" horiz-adv-x="723" 
d="M461 1042l75 -172h-101l-116 172h142zM656 769h153l-375 -462h-1l-65 -307h-134l66 308l-181 461h133l116 -314l13 -43l30 43z" />
    <glyph glyph-name="ygrave" unicode="&#x1ef3;" horiz-adv-x="616" 
d="M349 829l75 -172h-101l-116 172h142zM264 142l217 406h140l-347 -610q-47 -83 -95 -116q-46 -30 -131 -30h-85l21 102h74q36 0 58 15t47 56l12 21l-97 562h132l54 -404v-2z" />
    <glyph glyph-name="thinspace" unicode="&#x2009;" horiz-adv-x="317" 
 />
    <glyph glyph-name="uni2011" unicode="&#x2011;" horiz-adv-x="390" 
d="M335 235h-296l22 104h296z" />
    <glyph glyph-name="endash" unicode="&#x2013;" horiz-adv-x="594" 
d="M539 233h-500l22 106h500z" />
    <glyph glyph-name="emdash" unicode="&#x2014;" horiz-adv-x="834" 
d="M779 233h-740l22 106h740z" />
    <glyph glyph-name="quoteleft" unicode="&#x2018;" horiz-adv-x="366" 
d="M308 442h-178l40 193q20 91 62 126q44 36 132 36h19l-16 -71h-24q-79 0 -95 -76l-18 -83l110 26z" />
    <glyph glyph-name="quoteright" unicode="&#x2019;" horiz-adv-x="366" 
d="M143 413h-19l15 71h24q79 0 95 76l18 83l-110 -26l33 151h178l-40 -193q-20 -91 -62 -126q-43 -36 -132 -36z" />
    <glyph glyph-name="quotesinglbase" unicode="&#x201a;" horiz-adv-x="367" 
d="M13 -199h-19l16 71h23q80 0 96 76l17 84l-109 -27l32 151h178l-40 -193q-20 -91 -62 -126q-43 -36 -132 -36z" />
    <glyph glyph-name="quotedblleft" unicode="&#x201c;" horiz-adv-x="649" 
d="M308 442h-178l40 193q20 91 62 126q44 36 132 36h19l-16 -71h-24q-79 0 -95 -76l-18 -83l110 26zM592 442h-179l41 193q20 91 62 126q44 36 132 36h18l-15 -71h-24q-79 0 -95 -76l-18 -83l110 26z" />
    <glyph glyph-name="quotedblright" unicode="&#x201d;" horiz-adv-x="650" 
d="M143 413h-19l15 71h24q79 0 95 76l18 83l-110 -26l33 151h178l-40 -193q-20 -91 -62 -126q-43 -36 -132 -36zM426 413h-18l15 71h24q79 0 95 76l18 83l-110 -26l32 151h178l-40 -193q-20 -91 -62 -126q-44 -36 -132 -36z" />
    <glyph glyph-name="quotedblbase" unicode="&#x201e;" horiz-adv-x="650" 
d="M13 -199h-19l16 71h23q80 0 96 76l17 84l-109 -27l32 151h178l-40 -193q-20 -91 -62 -126q-43 -36 -132 -36zM297 -199h-19l15 71h24q79 0 95 76l18 84l-110 -27l32 151h179l-41 -193q-20 -91 -61 -126q-43 -36 -132 -36z" />
    <glyph glyph-name="dagger" unicode="&#x2020;" horiz-adv-x="725" 
d="M495 615l197 15l-23 -110l-191 15l-137 -645h-123l137 645l-194 -15l23 110l188 -14l59 277h123z" />
    <glyph glyph-name="daggerdbl" unicode="&#x2021;" horiz-adv-x="726" 
d="M694 636l-23 -109l-191 14l-62 -292l197 14l-23 -109l-191 14l-59 -278h-123l59 278l-195 -14l23 109l189 -14l62 292l-195 -14l24 109l189 -14l57 271h123l-57 -271z" />
    <glyph glyph-name="bullet" unicode="&#x2022;" horiz-adv-x="502" 
d="M371 165h-285l57 271h285z" />
    <glyph glyph-name="ellipsis" unicode="&#x2026;" horiz-adv-x="1074" 
d="M206 0h-170l33 156h171zM564 0h-170l33 156h171zM922 0h-170l33 156h171z" />
    <glyph glyph-name="perthousand" unicode="&#x2030;" horiz-adv-x="1977" 
d="M349 337q-84 0 -132 49t-48 134q0 30 6 63q20 109 83 166t159 57q86 0 133 -48t47 -133q0 -30 -6 -63q-20 -110 -83 -167.5t-159 -57.5zM463 -15h-110l665 798h108zM356 416q53 0 89.5 34.5t51.5 102.5q8 40 8 70q0 51 -25 78.5t-70 27.5q-56 0 -94 -40t-51 -117
q-4 -21 -4 -49q0 -53 24.5 -80t70.5 -27zM1080 -8q-85 0 -133 48.5t-48 134.5q0 29 6 62q21 109 84 166.5t159 57.5q84 0 132 -48.5t48 -132.5q0 -31 -6 -64q-20 -109 -82.5 -166.5t-159.5 -57.5zM1614 -8q-85 0 -133 48.5t-48 134.5q0 29 6 62q21 109 84 166.5t159 57.5
q84 0 132 -48.5t48 -132.5q0 -31 -6 -64q-20 -109 -82.5 -166.5t-159.5 -57.5zM1087 70q53 0 89.5 35t51.5 103q8 37 8 69q0 52 -25 79.5t-70 27.5q-57 0 -95 -40.5t-50 -117.5q-5 -33 -5 -49q0 -53 25 -80t71 -27zM1621 70q53 0 89.5 35t51.5 103q8 37 8 69q0 52 -25 79.5
t-70 27.5q-57 0 -95 -40.5t-50 -117.5q-5 -33 -5 -49q0 -53 25 -80t71 -27z" />
    <glyph glyph-name="guilsinglleft" unicode="&#x2039;" horiz-adv-x="457" 
d="M328 113l-26 -125l-223 217l30 138l314 217l-31 -147l-219 -150z" />
    <glyph glyph-name="guilsinglright" unicode="&#x203a;" horiz-adv-x="457" 
d="M348 205l-314 -217l31 147l219 150l-155 150l26 125l223 -217z" />
    <glyph glyph-name="uni203D" unicode="&#x203d;" horiz-adv-x="760" 
d="M459 781q132 0 207 -51t75 -142q0 -134 -169 -213l-53 -26q-57 -25 -80 -51q-24 -27 -44 -88h-74l34 251l23 105h112l-22 -105l-16 -56q17 11 35 19q126 60 126 145q0 53 -43 80.5t-120 27.5q-168 0 -200 -137l-125 16q27 110 113 167.5t221 57.5zM389 0h-150l29 135h149
z" />
    <glyph glyph-name="fraction" unicode="&#x2044;" horiz-adv-x="398" 
d="M-54 -15h-110l665 798h108z" />
    <glyph glyph-name="zero.sups" unicode="&#x2070;" horiz-adv-x="526" 
d="M299 361q-85 0 -133 48.5t-48 134.5q0 29 6 62q21 109 84 166.5t159 57.5q84 0 132 -48.5t48 -132.5q0 -31 -6 -64q-21 -109 -83.5 -166.5t-158.5 -57.5zM306 439q53 0 89.5 35t51.5 103q8 37 8 69q0 52 -25 79.5t-70 27.5q-57 0 -95 -40.5t-50 -117.5q-5 -33 -5 -49
q0 -52 25 -79.5t71 -27.5z" />
    <glyph glyph-name="four.sups" unicode="&#x2074;" horiz-adv-x="493" 
d="M408 369h-92l24 112l-264 -7l18 83l303 265h107l-59 -279l73 9l-16 -78l-70 7zM389 727l-203 -177l167 -7l38 183z" />
    <glyph glyph-name="five.sups" unicode="&#x2075;" horiz-adv-x="509" 
d="M288 360q-70 0 -119 26.5t-70 72.5l86 35q27 -58 107 -58q55 0 91 28t36 70q0 33 -24.5 51.5t-67.5 18.5q-67 0 -109 -39l-79 34l92 223h320l-16 -73h-253l-41 -101l1 -1q50 26 115 26q74 0 115 -35t41 -98q0 -80 -63 -129q-63 -51 -162 -51z" />
    <glyph glyph-name="six.sups" unicode="&#x2076;" horiz-adv-x="525" 
d="M306 359q-84 0 -133 47t-49 131q0 123 74 209q73 85 189 85q119 0 162 -84l-78 -34q-30 46 -93 46q-116 0 -155 -146q65 56 156 56q68 0 107 -35.5t39 -93.5q0 -77 -61 -129t-158 -52zM314 430q51 0 85.5 29t34.5 71q0 34 -23.5 53t-63.5 19t-76.5 -20.5t-57.5 -54.5
q1 -47 28 -72t73 -25z" />
    <glyph glyph-name="seven.sups" unicode="&#x2077;" horiz-adv-x="450" 
d="M242 369h-93q24 101 95 204q70 102 163 169h-275l17 80h386l-18 -81q-223 -144 -275 -372z" />
    <glyph glyph-name="eight.sups" unicode="&#x2078;" horiz-adv-x="528" 
d="M295 359q-91 0 -144 33.5t-53 90.5q0 46 32.5 80t84.5 44v1q-56 26 -56 84q0 63 59.5 101t159.5 38q84 0 131 -29t47 -79q0 -40 -27 -72.5t-71 -42.5v-1q71 -29 71 -95q0 -68 -65 -110q-65 -43 -169 -43zM344 640q122 0 122 66q0 54 -98 54q-58 0 -89.5 -18t-31.5 -51
q0 -51 97 -51zM302 431q61 0 97.5 21.5t36.5 57.5q0 60 -110 60q-63 0 -98.5 -19.5t-35.5 -54.5q0 -31 29 -48t81 -17z" />
    <glyph glyph-name="nine.sups" unicode="&#x2079;" horiz-adv-x="525" 
d="M289 358q-119 0 -162 84l79 34q30 -46 92 -46q116 0 155 146q-65 -56 -155 -56q-68 0 -107.5 35.5t-39.5 93.5q0 77 61 129t158 52q85 0 134 -47.5t49 -130.5q0 -123 -74 -209q-73 -85 -190 -85zM329 587q41 0 76.5 20.5t57.5 54.5q-1 47 -28 72.5t-73 25.5
q-51 0 -85 -29.5t-34 -71.5q0 -33 23 -52.5t63 -19.5z" />
    <glyph glyph-name="plus.sups" unicode="&#x207a;" horiz-adv-x="614" 
d="M344 621h190v-87h-190v-165h-91v165h-190v87h190v164h91v-164z" />
    <glyph glyph-name="minus.sups" unicode="&#x207b;" horiz-adv-x="605" 
d="M525 534h-462v87h462v-87z" />
    <glyph glyph-name="parenleft.sups" unicode="&#x207d;" horiz-adv-x="371" 
d="M299 221h-94q-64 122 -64 261q0 129 55 252t157 218h102q-101 -105 -154 -231.5t-53 -257.5q0 -127 51 -242z" />
    <glyph glyph-name="parenright.sups" unicode="&#x207e;" horiz-adv-x="371" 
d="M151 221h-102q101 105 154 231.5t53 257.5q0 126 -51 242h94q64 -122 64 -261q0 -129 -55 -252t-157 -218z" />
    <glyph glyph-name="n.sups" unicode="&#x207f;" horiz-adv-x="604" 
d="M450 779q62 0 99 -32t37 -94q0 -23 -6 -52l-49 -232h-115l48 226q3 15 3 25q0 29 -18 45t-49 16q-36 0 -68 -21.5t-54 -58.5l-49 -232h-115l85 399h106l-6 -51q67 62 151 62z" />
    <glyph glyph-name="zero.subs" unicode="&#x2080;" horiz-adv-x="526" 
d="M177 -213q-85 0 -133 48.5t-48 134.5q0 29 6 62q21 109 84 166.5t159 57.5q84 0 132 -48.5t48 -132.5q0 -31 -6 -64q-21 -109 -83.5 -166.5t-158.5 -57.5zM184 -135q53 0 89.5 35t51.5 103q8 37 8 69q0 52 -25 79.5t-70 27.5q-57 0 -95 -40.5t-50 -117.5q-5 -33 -5 -49
q0 -52 25 -79.5t71 -27.5z" />
    <glyph glyph-name="one.subs" unicode="&#x2081;" horiz-adv-x="373" 
d="M178 -205h-92l58 276h-140l16 77h67q74 0 87 61l8 39h92z" />
    <glyph glyph-name="two.subs" unicode="&#x2082;" horiz-adv-x="511" 
d="M360 -205h-400q16 159 177 210l105 33q85 28 85 80q0 29 -23.5 45.5t-67.5 16.5q-96 0 -126 -84l-84 22q25 66 81 102.5t138 36.5q80 0 127 -34.5t47 -94.5q0 -114 -162 -160l-83 -24q-82 -25 -93 -70h296z" />
    <glyph glyph-name="three.subs" unicode="&#x2083;" horiz-adv-x="508" 
d="M169 -217q-87 0 -135 38t-52 106l89 15q6 -83 103 -83q51 0 82.5 22t31.5 56q0 53 -90 53h-38l16 75h34q52 0 81 17.5t29 47.5q0 55 -89 55q-87 0 -119 -65l-85 13q21 58 77.5 91t136.5 33q76 0 123 -30t47 -83q0 -40 -26 -70.5t-68 -39.5l-1 -2q67 -22 67 -91
q0 -70 -59 -114t-155 -44z" />
    <glyph glyph-name="four.subs" unicode="&#x2084;" horiz-adv-x="493" 
d="M286 -205h-92l24 112l-264 -8l18 84l303 265h107l-59 -279l73 9l-17 -79l-69 8zM267 153l-203 -177l167 -7l38 183z" />
    <glyph glyph-name="five.subs" unicode="&#x2085;" horiz-adv-x="509" 
d="M166 -214q-70 0 -119 26.5t-70 72.5l86 35q27 -58 107 -58q55 0 91 28t36 70q0 33 -25 51.5t-67 18.5q-67 0 -109 -39l-79 34l92 223h320l-16 -73h-253l-41 -101l1 -1q50 26 115 26q74 0 115 -35t41 -98q0 -79 -63 -130q-64 -50 -162 -50z" />
    <glyph glyph-name="six.subs" unicode="&#x2086;" horiz-adv-x="525" 
d="M184 -215q-85 0 -134 47.5t-49 130.5q0 123 74 209q73 85 190 85q119 0 162 -84l-78 -34q-30 46 -93 46q-116 0 -155 -146q65 56 156 56q68 0 107 -35.5t39 -93.5q0 -77 -61 -129t-158 -52zM192 -145q51 0 85.5 29.5t34.5 71.5q0 33 -23.5 52.5t-63.5 19.5t-76.5 -20.5
t-57.5 -54.5q1 -47 28 -72.5t73 -25.5z" />
    <glyph glyph-name="seven.subs" unicode="&#x2087;" horiz-adv-x="450" 
d="M120 -205h-93q24 101 95 204q70 102 163 169h-275l17 80h386l-18 -81q-223 -144 -275 -372z" />
    <glyph glyph-name="eight.subs" unicode="&#x2088;" horiz-adv-x="528" 
d="M173 -215q-91 0 -144 33.5t-53 90.5q0 46 32.5 80t84.5 44v1q-56 26 -56 84q0 63 59.5 101t159.5 38q84 0 131 -29t47 -79q0 -40 -27 -72.5t-71 -42.5v-1q71 -29 71 -95q0 -67 -65 -111q-66 -42 -169 -42zM222 66q122 0 122 66q0 54 -98 54q-58 0 -89.5 -18t-31.5 -51
q0 -51 97 -51zM180 -143q61 0 97.5 21.5t36.5 57.5q0 60 -110 60q-63 0 -98.5 -19.5t-35.5 -54.5q0 -31 29 -48t81 -17z" />
    <glyph glyph-name="nine.subs" unicode="&#x2089;" horiz-adv-x="525" 
d="M153 -216q-119 0 -162 84l78 34q31 -46 93 -46q116 0 155 146q-65 -56 -156 -56q-68 0 -107 35.5t-39 93.5q0 77 61 129t158 52q85 0 134 -47.5t49 -130.5q0 -123 -74 -209q-73 -85 -190 -85zM130 33q34 -32 102 -14.5t95 69.5q-1 47 -28 72.5t-73 25.5
q-51 0 -85.5 -29.5t-34.5 -71.5q0 -33 24 -52z" />
    <glyph glyph-name="plus.subs" unicode="&#x208a;" horiz-adv-x="614" 
d="M230 86h190v-87h-190v-165h-91v165h-190v87h190v164h91v-164z" />
    <glyph glyph-name="minus.subs" unicode="&#x208b;" horiz-adv-x="605" 
d="M411 -1h-462v87h462v-87z" />
    <glyph glyph-name="equal.subs" unicode="&#x208c;" horiz-adv-x="605" 
d="M411 93h-462v87h462v-87zM411 -96h-462v87h462v-87z" />
    <glyph glyph-name="uni208D" unicode="&#x208d;" horiz-adv-x="371" 
d="M177 -353h-95q-64 122 -64 262q0 128 55 251t157 219h102q-100 -105 -153 -232t-53 -257q0 -128 51 -243z" />
    <glyph glyph-name="uni208E" unicode="&#x208e;" horiz-adv-x="371" 
d="M29 -353h-102q100 105 153 232t53 257q0 126 -51 243h95q64 -124 64 -262q0 -129 -55 -251.5t-157 -218.5z" />
    <glyph glyph-name="n.subs" unicode="&#x2099;" horiz-adv-x="605" 
d="M328 205q62 0 99.5 -32t37.5 -93q0 -24 -6 -53l-50 -232h-115l48 226q3 15 3 26q0 29 -18 44.5t-49 15.5q-76 0 -122 -81l-49 -231h-115l85 399h106l-7 -52q69 63 152 63z" />
    <glyph glyph-name="Euro" unicode="&#x20ac;" horiz-adv-x="799" 
d="M630 672q-162 0 -238 -142h353l-19 -91h-636l19 91h141q57 120 160 185t240 65q72 0 143 -23l-23 -110q-66 25 -140 25zM196 249h-147l20 91h635l-19 -91h-359q9 -78 52 -115t124 -37q72 0 156 27l-23 -111q-78 -23 -151 -23q-267 0 -288 259z" />
    <glyph glyph-name="uni20B8" unicode="&#x20b8;" horiz-adv-x="681" 
d="M118 664l23 104h610l-23 -104h-610zM314 464h-238l22 104h610l-22 -104h-238l-99 -464h-134z" />
    <glyph glyph-name="uni20B9" unicode="&#x20b9;" horiz-adv-x="768" 
d="M215 768h603l-19 -88l-231 11q25 -52 17 -122l192 9l-19 -88l-190 9q-44 -116 -167 -155q65 -10 93.5 -42t34.5 -102l15 -200h-127l-8 161q-5 77 -38 103q-35 27 -123 27h-135l20 94h147q83 0 123.5 25t60.5 90l-309 -10l19 88l306 -10q10 61 6 122l-290 -10z" />
    <glyph glyph-name="uni20BA" unicode="&#x20ba;" horiz-adv-x="719" 
d="M377 614l260 120l-21 -97l-565 -260l21 97l159 73l47 221h132zM560 279l111 -35q-57 -119 -158.5 -181.5t-231.5 -62.5h-167l53 248l-160 -74l21 98l566 260l-21 -98l-260 -119l-43 -200h36q176 0 254 164z" />
    <glyph glyph-name="uni20BC" unicode="&#x20bc;" horiz-adv-x="757" 
d="M516 768l-43 -203q213 -1 213 -187q0 -32 -11 -90l-61 -288h-126l67 312q8 40 8 62q0 47 -26 70.5t-84 27.5l-79 -370h-117l79 369q-141 -16 -174 -170l-64 -301h-118l64 303q30 135 102.5 198.5t202.5 63.5h7l43 203h117z" />
    <glyph glyph-name="uni20BF" unicode="&#x20bf;" horiz-adv-x="809" 
d="M602 404q56 -16 87.5 -59t31.5 -100q0 -103 -67.5 -167t-185.5 -76l-31 -146h-93l31 144h-93l-31 -144h-92l31 144h-139l164 768h137l31 144h92l-31 -144h93l31 144h93l-32 -153q67 -15 102.5 -57.5t35.5 -101.5q0 -72 -45 -125.5t-120 -70.5zM514 663h-186l-47 -217h188
q72 0 115 36t43 98q0 83 -113 83zM208 105h219q69 0 112.5 40.5t43.5 104.5q0 96 -119 96h-204z" />
    <glyph glyph-name="uni2105" unicode="&#x2105;" horiz-adv-x="1472" 
d="M488 -15h-110l665 798h108zM378 362q-97 0 -152 47t-55 133q0 102 68 167t183 65q82 0 133.5 -34.5t64.5 -99.5l-113 -14q-12 64 -88 64q-61 0 -96.5 -41.5t-35.5 -104.5q0 -47 26 -71.5t72 -24.5q78 0 108 74l109 -11q-56 -149 -224 -149zM1098 -16q-95 0 -150 48.5
t-55 130.5q0 105 69 169q68 64 180 64q95 0 149.5 -49t54.5 -131q0 -103 -68 -168q-68 -64 -180 -64zM1107 70q123 0 123 144q0 98 -98 98q-61 0 -92 -38t-31 -108q0 -96 98 -96z" />
    <glyph glyph-name="uni2113" unicode="&#x2113;" horiz-adv-x="631" 
d="M465 139l55 -83q-86 -72 -190 -72q-80 0 -125.5 42t-45.5 119v70l-100 -47l-34 99l134 35v314q0 83 44.5 126.5t130.5 43.5q91 0 136 -52.5t45 -163.5q0 -123 -54.5 -196t-171.5 -109v-113q0 -63 65 -63q58 0 111 50zM339 683q-50 0 -50 -65v-264q61 38 85.5 86.5
t24.5 125.5q0 64 -14.5 90.5t-45.5 26.5z" />
    <glyph glyph-name="uni2116" unicode="&#x2116;" horiz-adv-x="1441" 
d="M1234 774q95 0 149.5 -49t54.5 -131q0 -103 -68 -168q-68 -64 -180 -64q-95 0 -149.5 48.5t-54.5 130.5q0 105 69 169q67 64 179 64zM365 769l248 -606l128 606h127l-164 -769h-148l-250 605l-128 -605h-127l164 769h150zM1199 448q123 0 123 144q0 98 -97 98
q-62 0 -93 -38t-31 -108q0 -96 98 -96z" />
    <glyph glyph-name="uni2117" unicode="&#x2117;" horiz-adv-x="997" 
d="M230 674q116 114 292 114t292 -114q115 -114 115 -289q0 -176 -115 -290q-116 -114 -292 -114t-292 114q-115 114 -115 290q0 175 115 289zM292 150q90 -92 230 -92t230 92q90 91 90 235q0 143 -90 234q-90 92 -230 92t-230 -92q-90 -91 -90 -234t90 -235zM388 591h174
q66 0 104 -37t38 -98t-40 -98t-107 -37h-83v-136h-86v406zM474 393h76q68 0 68 63q0 62 -66 62h-78v-125z" />
    <glyph glyph-name="trademark" unicode="&#x2122;" horiz-adv-x="1209" 
d="M389 356h-95v336h-124v76h342v-76h-123v-336zM701 356h-82v412h165l83 -349h16l82 349h168v-412h-86v352h-17l-83 -352h-143l-86 352h-17v-352z" />
    <glyph glyph-name="uni2126" unicode="&#x2126;" horiz-adv-x="1015" 
d="M436 0h-318v121h173v5q-166 109 -166 307q0 159 102 256q101 96 270 96t270 -96q101 -98 101 -256q0 -198 -169 -307v-5h177v-121h-318v114q93 51 135.5 121.5t42.5 177.5q0 123 -63 193t-176 70q-115 0 -178 -69t-63 -193q0 -106 43.5 -177t136.5 -123v-114z" />
    <glyph glyph-name="estimated" unicode="&#x212e;" horiz-adv-x="982" 
d="M492 785q197 1 318.5 -120t117.5 -292h-697q-15 0 -15 -14v-190q0 -33 17 -50q107 -104 259 -104q80 0 153 34t119 91h78q-45 -63 -134 -108q-88 -46 -216 -46q-198 0 -317 112q-121 112 -121 286t119 288q119 113 319 113zM492 755q-152 0 -259 -106q-17 -17 -17 -47
v-189q0 -15 15 -15h519q15 0 15 15v189q0 30 -17 47q-106 106 -256 106z" />
    <glyph glyph-name="uni2153" unicode="&#x2153;" horiz-adv-x="1305" 
d="M355 336h-93l58 276h-139l16 77h66q75 0 87 61l8 39h93zM334 -15h-110l665 798h108zM952 -12q-87 0 -135 38t-52 106l89 15q6 -83 103 -83q51 0 82 22t31 56q0 53 -89 53h-38l16 75h34q52 0 81 17.5t29 47.5q0 55 -89 55q-87 0 -119 -65l-85 13q21 58 77.5 91t136.5 33
q76 0 123 -30t47 -83q0 -40 -26 -70.5t-68 -39.5l-1 -2q67 -22 67 -91q0 -70 -59 -114t-155 -44z" />
    <glyph glyph-name="uni2154" unicode="&#x2154;" horiz-adv-x="1468" 
d="M528 336h-400q18 160 177 210l106 33q84 27 84 80q0 29 -23.5 45.5t-67.5 16.5q-96 0 -126 -84l-84 22q25 66 81 102.5t138 36.5q80 0 127 -34.5t47 -94.5q0 -113 -162 -160l-83 -24q-82 -25 -93 -70h296zM498 -15h-111l665 798h109zM1116 -12q-86 0 -134.5 38t-53.5 106
l89 15q6 -83 103 -83q51 0 82.5 22t31.5 56q0 53 -89 53h-38l15 75h35q52 0 81 17.5t29 47.5q0 55 -89 55q-87 0 -119 -65l-85 13q20 58 77 91t137 33q76 0 123 -30t47 -83q0 -40 -26 -70.5t-68 -39.5l-1 -2q67 -22 67 -91q0 -70 -59 -114t-155 -44z" />
    <glyph glyph-name="uni2155" unicode="&#x2155;" horiz-adv-x="1311" 
d="M355 336h-93l58 276h-139l16 77h66q75 0 87 61l8 39h93zM334 -15h-110l665 798h108zM951 -9q-70 0 -119 26.5t-70 72.5l86 35q28 -58 107 -58q56 0 91.5 28t35.5 70q0 33 -24.5 51.5t-67.5 18.5q-67 0 -109 -39l-79 34l93 223h319l-16 -73h-253l-41 -101l2 -1
q49 26 114 26q74 0 115 -35t41 -98q0 -79 -63 -129q-63 -51 -162 -51z" />
    <glyph glyph-name="uni2156" unicode="&#x2156;" horiz-adv-x="1455" 
d="M528 336h-400q18 160 177 210l106 33q84 27 84 80q0 29 -23.5 45.5t-67.5 16.5q-96 0 -126 -84l-84 22q25 66 81 102.5t138 36.5q80 0 127 -34.5t47 -94.5q0 -113 -162 -160l-83 -24q-82 -25 -93 -70h296zM479 -15h-111l665 798h109zM1096 -9q-70 0 -119 26.5t-70 72.5
l86 35q27 -58 107 -58q55 0 91 28t36 70q0 33 -25 51.5t-67 18.5q-67 0 -109 -39l-79 34l92 223h320l-16 -73h-253l-41 -101l1 -1q50 26 115 26q74 0 115 -36t41 -97q0 -79 -63 -129q-63 -51 -162 -51z" />
    <glyph glyph-name="uni2157" unicode="&#x2157;" horiz-adv-x="1437" 
d="M338 324q-88 0 -136 38t-52 106l89 15q6 -83 103 -83q51 0 82.5 22t31.5 56q0 53 -90 53h-38l16 74h34q51 0 80.5 18t29.5 48q0 55 -89 55q-87 0 -119 -65l-85 13q21 58 78 91t137 33q74 0 121.5 -30.5t47.5 -82.5q0 -40 -26 -71t-68 -39l-1 -2q67 -22 67 -91
q0 -70 -58.5 -114t-154.5 -44zM460 -15h-110l665 798h108zM1078 -9q-70 0 -119.5 26.5t-70.5 72.5l87 35q27 -58 107 -58q55 0 91 28t36 70q0 33 -25 51.5t-68 18.5q-66 0 -108 -39l-79 34l92 223h320l-16 -73h-253l-41 -101l1 -1q50 26 115 26q74 0 115 -36t41 -97
q0 -79 -63 -129q-63 -51 -162 -51z" />
    <glyph glyph-name="uni2158" unicode="&#x2158;" horiz-adv-x="1472" 
d="M476 336h-92l24 112l-264 -8l18 84l303 265h107l-59 -279l74 9l-17 -79l-70 8zM496 -15h-111l665 798h109zM457 693l-203 -177l167 -6l38 182zM1113 -9q-70 0 -119 26.5t-70 72.5l86 35q27 -58 107 -58q55 0 91 28t36 70q0 33 -25 51.5t-67 18.5q-67 0 -109 -39l-79 34
l92 223h320l-16 -73h-253l-41 -101l1 -1q50 26 115 26q74 0 115 -36t41 -97q0 -79 -63 -129q-63 -51 -162 -51z" />
    <glyph glyph-name="uni2159" unicode="&#x2159;" horiz-adv-x="1306" 
d="M355 336h-93l58 276h-139l16 77h66q75 0 87 61l8 39h93zM334 -15h-110l665 798h108zM952 -10q-84 0 -133 47t-49 131q0 123 74 209q73 85 189 85q119 0 162 -84l-78 -34q-30 46 -93 46q-116 0 -155 -146q65 56 156 56q68 0 107 -35.5t39 -93.5q0 -77 -61 -129t-158 -52z
M960 60q51 0 85.5 29.5t34.5 71.5q0 33 -23.5 52.5t-62.5 19.5q-41 0 -77.5 -20.5t-57.5 -54.5q1 -47 28 -72.5t73 -25.5z" />
    <glyph glyph-name="uni215A" unicode="&#x215a;" horiz-adv-x="1415" 
d="M330 327q-70 0 -119 26.5t-70 72.5l86 35q27 -58 107 -58q55 0 91 28t36 70q0 33 -25 51.5t-67 18.5q-67 0 -109 -39l-79 33l92 224h320l-16 -73h-253l-41 -101l1 -1q50 26 115 26q74 0 115 -36t41 -97q0 -79 -63 -129q-63 -51 -162 -51zM443 -15h-111l666 798h108z
M1061 -10q-85 0 -134 47.5t-49 130.5q0 123 74 209q73 85 190 85q118 0 162 -84l-78 -34q-30 46 -93 46q-116 0 -155 -146q65 56 156 56q68 0 107 -35.5t39 -93.5q0 -77 -61 -129t-158 -52zM1069 60q51 0 85.5 29.5t34.5 71.5q0 33 -23.5 52.5t-63.5 19.5t-76.5 -20.5
t-57.5 -54.5q1 -47 28 -72.5t73 -25.5z" />
    <glyph glyph-name="oneeighth" unicode="&#x215b;" horiz-adv-x="1326" 
d="M355 336h-93l58 276h-139l16 77h66q75 0 87 61l8 39h93zM334 -15h-110l665 798h108zM954 -10q-91 0 -144 33.5t-53 90.5q0 46 32.5 80t84.5 44v1q-56 26 -56 84q0 63 59.5 101t158.5 38q84 0 131.5 -29t47.5 -79q0 -40 -27 -72.5t-71 -42.5v-1q70 -28 70 -95
q0 -69 -65 -111q-64 -42 -168 -42zM1002 271q123 0 123 66q0 54 -99 54q-57 0 -89 -18.5t-32 -50.5q0 -51 97 -51zM961 62q61 0 97.5 21.5t36.5 57.5q0 60 -110 60q-63 0 -98.5 -19.5t-35.5 -54.5q0 -31 29 -48t81 -17z" />
    <glyph glyph-name="threeeighths" unicode="&#x215c;" horiz-adv-x="1453" 
d="M338 324q-88 0 -136 38t-52 106l89 15q6 -83 103 -83q51 0 82.5 22t31.5 56q0 53 -90 53h-38l16 74h34q51 0 80.5 18t29.5 48q0 55 -89 55q-87 0 -119 -65l-85 13q21 58 78 91t137 33q74 0 121.5 -30.5t47.5 -82.5q0 -40 -26 -71t-68 -39l-1 -2q67 -22 67 -91
q0 -70 -58.5 -114t-154.5 -44zM460 -15h-110l665 798h108zM1080 -10q-91 0 -144 33.5t-53 90.5q0 45 33 79.5t84 44.5v1q-55 25 -55 84q0 63 59.5 101t158.5 38q84 0 131 -29t47 -79q0 -40 -27 -72.5t-71 -42.5v-1q71 -29 71 -95q0 -68 -65 -110q-65 -43 -169 -43zM1129 271
q122 0 122 66q0 54 -98 54q-58 0 -89.5 -18t-31.5 -51q0 -51 97 -51zM1087 62q61 0 97.5 21.5t36.5 57.5q0 60 -109 60q-64 0 -99.5 -19.5t-35.5 -54.5q0 -31 29 -48t81 -17z" />
    <glyph glyph-name="fiveeighths" unicode="&#x215d;" horiz-adv-x="1435" 
d="M330 327q-70 0 -119 26.5t-70 72.5l86 35q27 -58 107 -58q55 0 91 28t36 70q0 33 -25 51.5t-67 18.5q-67 0 -109 -39l-79 33l92 224h320l-16 -73h-253l-41 -101l1 -1q50 26 115 26q74 0 115 -36t41 -97q0 -79 -63 -129q-63 -51 -162 -51zM443 -15h-111l666 798h108z
M1063 -10q-91 0 -144 33.5t-53 90.5q0 46 32.5 80t84.5 44v1q-56 26 -56 84q0 63 59.5 101t158.5 38q84 0 131.5 -29t47.5 -79q0 -40 -27 -72.5t-71 -42.5v-1q70 -28 70 -95q0 -69 -65 -111t-168 -42zM1111 271q122 0 122 66q0 54 -98 54q-57 0 -89 -18.5t-32 -50.5
q0 -51 97 -51zM1070 62q61 0 97 21.5t36 57.5q0 60 -109 60q-63 0 -98.5 -19.5t-35.5 -54.5q0 -65 110 -65z" />
    <glyph glyph-name="seveneighths" unicode="&#x215e;" horiz-adv-x="1316" 
d="M311 336h-92q24 100 95 205q71 103 163 168h-276l18 80h385l-18 -81q-223 -144 -275 -372zM323 -15h-110l665 798h109zM943 -10q-91 0 -144 33.5t-53 90.5q0 45 33 79.5t84 44.5v1q-55 25 -55 84q0 63 59.5 101t158.5 38q84 0 131.5 -29t47.5 -79q0 -40 -27.5 -72.5
t-71.5 -42.5v-1q71 -29 71 -95q0 -69 -65 -111q-66 -42 -169 -42zM992 271q122 0 122 66q0 54 -98 54q-58 0 -89.5 -18t-31.5 -51q0 -51 97 -51zM951 62q61 0 97 21.5t36 57.5q0 60 -109 60q-64 0 -99.5 -19.5t-35.5 -54.5q0 -31 29 -48t82 -17z" />
    <glyph glyph-name="arrowleft" unicode="&#x2190;" horiz-adv-x="1000" 
d="M316 448h592v-130h-590l110 -139l134 -179h-148l-289 383l289 385h148l-134 -178z" />
    <glyph glyph-name="arrowup" unicode="&#x2191;" horiz-adv-x="1000" 
d="M148 494l382 289l384 -289v-148l-177 134l-142 112v-592h-130v590l-139 -110l-178 -134v148z" />
    <glyph glyph-name="arrowright" unicode="&#x2192;" horiz-adv-x="1000" 
d="M485 768h148l289 -385l-289 -383h-148l133 179l111 139h-590v130h591l-112 142z" />
    <glyph glyph-name="arrowdown" unicode="&#x2193;" horiz-adv-x="1000" 
d="M580 176l142 112l177 134v-148l-384 -289l-382 289v148l178 -134l139 -110v590h130v-592z" />
    <glyph glyph-name="arrowboth" unicode="&#x2194;" horiz-adv-x="1291" 
d="M776 768h148l289 -385l-289 -383h-148l133 179l111 139h-702l110 -139l134 -179h-148l-289 383l289 385h148l-134 -178l-112 -142h705l-112 142z" />
    <glyph glyph-name="arrowupdn" unicode="&#x2195;" horiz-adv-x="1080" 
d="M627 31l142 112l178 134v-148l-384 -290l-384 290v148l179 -134l139 -110v703l-140 -111l-179 -134v148l384 290l384 -290v-148l-178 134l-141 111v-705z" />
    <glyph glyph-name="uni2196" unicode="&#x2196;" horiz-adv-x="1035" 
d="M397 590l500 -500l-90 -90l-500 501l6 -194v-262h-123v663h663v-123h-253z" />
    <glyph glyph-name="uni2197" unicode="&#x2197;" horiz-adv-x="1000" 
d="M191 585v123h662v-663h-123v262l6 194l-499 -501l-91 90l501 500l-203 -5h-253z" />
    <glyph glyph-name="uni2198" unicode="&#x2198;" horiz-adv-x="1035" 
d="M756 401v262h123v-663h-663v123h254l202 -5l-500 500l90 90l500 -501z" />
    <glyph glyph-name="uni2199" unicode="&#x2199;" horiz-adv-x="1000" 
d="M888 618l-501 -500l203 5h253v-123h-662v663h123v-262l-6 -194l499 501z" />
    <glyph glyph-name="partialdiff" unicode="&#x2202;" horiz-adv-x="739" 
d="M375 785q287 0 287 -405q0 -191 -72 -293.5t-208 -102.5q-115 0 -183 71q-67 70 -67 186q0 115 66 182t171 67q87 0 160 -51q-9 125 -48.5 180.5t-116.5 55.5q-61 0 -143 -32l-39 102q99 40 193 40zM388 94q66 0 100.5 52.5t40.5 163.5q-53 77 -142 77q-60 0 -93.5 -37.5
t-33.5 -106.5t34 -109t94 -40z" />
    <glyph glyph-name="uni2206" unicode="&#x2206;" horiz-adv-x="785" 
d="M235 768h182l283 -768h-738zM310 625l-176 -519h388l-178 519l-17 61z" />
    <glyph glyph-name="product" unicode="&#x220f;" horiz-adv-x="1063" 
d="M214 768h638v-972h-133v859h-372v-859h-133v972z" />
    <glyph glyph-name="summation" unicode="&#x2211;" horiz-adv-x="955" 
d="M620 288l-299 -382h450v-110h-598v100l311 392l-298 380v100h573v-110h-424z" />
    <glyph glyph-name="minus" unicode="&#x2212;" horiz-adv-x="757" 
d="M652 285h-549v110h549v-110z" />
    <glyph glyph-name="uni2215" unicode="&#x2215;" horiz-adv-x="398" 
d="M-54 -15h-110l665 798h108z" />
    <glyph glyph-name="uni2219" unicode="&#x2219;" horiz-adv-x="473" 
d="M356 165h-285l58 271h284z" />
    <glyph glyph-name="radical" unicode="&#x221a;" horiz-adv-x="757" 
d="M510 -204h-166l-117 320l-114 -43l-35 95l212 79l129 -359l188 915h110z" />
    <glyph glyph-name="infinity" unicode="&#x221e;" horiz-adv-x="877" 
d="M257 163q-78 0 -124.5 50.5t-46.5 132.5q0 83 47 133.5t122 50.5q53 0 99.5 -29t99.5 -91q56 65 100 93t96 28q77 0 124.5 -50.5t47.5 -133.5t-47 -134t-125 -51q-95 0 -196 116q-60 -63 -102.5 -89t-94.5 -26zM649 259q35 0 56.5 23t21.5 63q0 42 -21.5 66t-59.5 24
q-56 0 -132 -90q69 -86 135 -86zM261 259q61 0 132 86q-75 88 -134 88q-35 0 -56.5 -24.5t-21.5 -63.5t21.5 -62.5t58.5 -23.5z" />
    <glyph glyph-name="integral" unicode="&#x222b;" horiz-adv-x="757" 
d="M268 -204h-58v111h35q38 0 53 16.5t15 58.5v643q0 178 175 178h59v-111h-36q-38 0 -53 -17t-15 -58v-643q0 -178 -175 -178z" />
    <glyph glyph-name="approxequal" unicode="&#x2248;" horiz-adv-x="757" 
d="M211 383h-109q0 94 41 144.5t114 50.5q41 1 88.5 -21.5t85.5 -45t58 -20.5q56 0 56 87h109q0 -93 -40.5 -144t-113.5 -51q-41 -2 -88 21t-85.5 46t-59.5 21q-56 0 -56 -88zM211 117h-109q0 94 40.5 144t114.5 50q70 0 133 -43q62 -44 99 -44q56 0 56 87h109
q0 -93 -40.5 -143.5t-113.5 -50.5q-41 -2 -88 21t-85.5 46t-59.5 21q-56 0 -56 -88z" />
    <glyph glyph-name="notequal" unicode="&#x2260;" horiz-adv-x="757" 
d="M652 512v-103h-201l-60 -139h261v-103h-305l-78 -184l-64 23l69 161h-171v103h214l60 139h-274v103h317l80 187l64 -24l-69 -163h157z" />
    <glyph glyph-name="lessequal" unicode="&#x2264;" horiz-adv-x="757" 
d="M103 495l549 164v-110l-451 -120l451 -119v-110l-549 163v132zM652 -3h-549v109h549v-109z" />
    <glyph glyph-name="greaterequal" unicode="&#x2265;" horiz-adv-x="757" 
d="M104 549v110l549 -164v-132l-549 -163v110l451 119zM653 -3h-549v109h549v-109z" />
    <glyph glyph-name="uni2460" unicode="&#x2460;" horiz-adv-x="1257" 
d="M656 -117q-230 0 -382 149t-152 375q0 227 152 376t382 149q231 0 383 -149q151 -148 151 -376q0 -227 -151 -375q-150 -149 -383 -149zM346 98q122 -123 310 -123t311 123q123 122 123 309q0 188 -123 311q-124 122 -311 122q-188 0 -310 -122q-123 -123 -123 -311
q0 -187 123 -309zM738 162h-101v303h-154v86h72q42 0 62 15.5t20 50.5v43h101v-498z" />
    <glyph glyph-name="uni2461" unicode="&#x2461;" horiz-adv-x="1257" 
d="M656 -117q-230 0 -382 149t-152 375q0 227 152 376t382 149q231 0 383 -149q151 -148 151 -376q0 -227 -151 -375q-150 -149 -383 -149zM346 98q122 -123 310 -123t311 123q123 122 123 309q0 188 -123 311q-124 122 -311 122q-188 0 -310 -122q-123 -123 -123 -311
q0 -187 123 -309zM885 173h-446q0 90 38.5 145.5t121.5 85.5l100 35q74 27 74 80q0 76 -111 76q-108 0 -121 -94l-99 13q9 77 67 122t156 45q99 0 154 -41.5t55 -117.5q0 -113 -139 -159l-85 -28q-85 -29 -86 -75h321v-87z" />
    <glyph glyph-name="uni2462" unicode="&#x2462;" horiz-adv-x="1257" 
d="M656 -117q-230 0 -382 149t-152 375q0 227 152 376t382 149q231 0 383 -149q151 -148 151 -376q0 -227 -151 -375q-150 -149 -383 -149zM346 98q122 -123 310 -123t311 123q123 122 123 309q0 188 -123 311q-124 122 -311 122q-188 0 -310 -122q-123 -123 -123 -311
q0 -187 123 -309zM661 149q-95 0 -151 41t-68 119l98 15q18 -92 124 -92q53 0 82.5 20t29.5 56q0 68 -111 68h-49v82h45q105 0 105 65q0 68 -107 68q-99 0 -119 -72l-95 15q17 65 73 100.5t144 35.5q91 0 147 -36.5t56 -101.5q0 -80 -80 -107v-2q95 -23 95 -117
q0 -72 -58.5 -114.5t-160.5 -42.5z" />
    <glyph glyph-name="uni2463" unicode="&#x2463;" horiz-adv-x="1257" 
d="M656 -117q-230 0 -382 149t-152 375q0 227 152 376t382 149q231 0 383 -149q151 -148 151 -376q0 -227 -151 -375q-150 -149 -383 -149zM346 98q122 -123 310 -123t311 123q123 122 123 309q0 188 -123 311q-124 122 -311 122q-188 0 -310 -122q-123 -123 -123 -311
q0 -187 123 -309zM797 167h-102v123l-287 -8v92l272 291h117v-306l79 10v-87l-79 8v-123zM693 559l-182 -194l184 -6v200h-2z" />
    <glyph glyph-name="uni2464" unicode="&#x2464;" horiz-adv-x="1257" 
d="M656 -117q-230 0 -382 149t-152 375q0 227 152 376t382 149q231 0 383 -149q151 -148 151 -376q0 -227 -151 -375q-150 -149 -383 -149zM346 98q122 -123 310 -123t311 123q123 122 123 309q0 188 -123 311q-124 122 -311 122q-188 0 -310 -122q-123 -123 -123 -311
q0 -187 123 -309zM655 150q-77 0 -133.5 28.5t-83.5 80.5l95 39q33 -62 124 -62q56 0 88.5 25.5t32.5 68.5q0 42 -31.5 65.5t-86.5 23.5q-71 0 -117 -43l-93 24l54 258h351v-80h-278l-23 -110l3 -1q50 28 124 28q93 0 145.5 -43.5t52.5 -121.5q0 -84 -59.5 -132t-164.5 -48z
" />
    <glyph glyph-name="uni2465" unicode="&#x2465;" horiz-adv-x="1257" 
d="M656 -117q-230 0 -382 149t-152 375q0 227 152 376t382 149q231 0 383 -149q151 -148 151 -376q0 -227 -151 -375q-150 -149 -383 -149zM346 98q122 -123 310 -123t311 123q123 122 123 309q0 188 -123 311q-124 122 -311 122q-188 0 -310 -122q-123 -123 -123 -311
q0 -187 123 -309zM668 150q-110 0 -172 67t-62 182q0 128 60.5 199t176.5 71q140 0 196 -101l-87 -30q-35 50 -109 50q-64 0 -96.5 -37.5t-36.5 -118.5q51 56 151 56q90 0 141 -43.5t51 -118.5q0 -80 -57.5 -128t-155.5 -48zM669 229q51 0 82.5 26.5t31.5 70.5
q0 42 -31 66.5t-83 24.5q-44 0 -78.5 -22t-49.5 -58q19 -108 128 -108z" />
    <glyph glyph-name="uni2466" unicode="&#x2466;" horiz-adv-x="1257" 
d="M656 -117q-230 0 -382 149t-152 375q0 227 152 376t382 149q231 0 383 -149q151 -148 151 -376q0 -227 -151 -375q-150 -149 -383 -149zM346 98q122 -123 310 -123t311 123q123 122 123 309q0 188 -123 311q-124 122 -311 122q-188 0 -310 -122q-123 -123 -123 -311
q0 -187 123 -309zM662 139h-102q3 113 57 225q51 110 140 185h-303v88h424v-89q-210 -157 -216 -409z" />
    <glyph glyph-name="uni2467" unicode="&#x2467;" horiz-adv-x="1257" 
d="M656 -117q-230 0 -382 149t-152 375q0 227 152 376t382 149q231 0 383 -149q151 -148 151 -376q0 -227 -151 -375q-150 -149 -383 -149zM346 98q122 -123 310 -123t311 123q123 122 123 309q0 188 -123 311q-124 122 -311 122q-188 0 -310 -122q-123 -123 -123 -311
q0 -187 123 -309zM664 153q-109 0 -171.5 40t-62.5 113q0 45 27.5 77t73.5 43v1q-37 11 -59.5 40.5t-22.5 67.5q0 66 56.5 101.5t158.5 35.5q103 0 159.5 -35.5t56.5 -101.5q0 -37 -22.5 -66t-59.5 -42v-1q45 -11 72 -43t27 -77q0 -72 -62.5 -112.5t-170.5 -40.5zM574 478
q28 -16 90 -16q63 0 91 16t28 51q0 65 -119 65t-119 -65q0 -34 29 -51zM664 232q63 0 97.5 20.5t34.5 56.5q0 77 -132 77q-133 0 -133 -77q0 -36 35.5 -56.5t97.5 -20.5z" />
    <glyph glyph-name="uni2468" unicode="&#x2468;" horiz-adv-x="1257" 
d="M656 -117q-230 0 -382 149t-152 375q0 227 152 376t382 149q231 0 383 -149q151 -148 151 -376q0 -227 -151 -375q-150 -149 -383 -149zM346 98q122 -123 310 -123t311 123q123 122 123 309q0 188 -123 311q-124 122 -311 122q-188 0 -310 -122q-123 -123 -123 -311
q0 -187 123 -309zM659 150q-141 0 -197 102l88 30q34 -51 109 -51q64 0 96.5 38t36.5 119q-54 -57 -153 -57q-87 0 -139.5 44.5t-52.5 117.5q0 80 58 128t157 48q110 0 171.5 -67t61.5 -182q0 -129 -60.5 -199.5t-175.5 -70.5zM661 402q42 0 77 22.5t50 58.5
q-20 107 -127 107q-51 0 -83 -26.5t-32 -70.5q0 -42 31 -66.5t84 -24.5z" />
    <glyph glyph-name="uni24EA" unicode="&#x24ea;" horiz-adv-x="1257" 
d="M656 -117q-230 0 -382 149t-152 375q0 227 152 376t382 149q231 0 383 -149q151 -148 151 -376q0 -227 -151 -375q-150 -149 -383 -149zM346 98q122 -123 310 -123t311 123q123 122 123 309q0 188 -123 311q-124 122 -311 122q-188 0 -310 -122q-123 -123 -123 -311
q0 -187 123 -309zM827 219q-60 -68 -170 -68t-170 68q-61 67 -61 192t61 192q60 67 170 67t170 -67t60 -192t-60 -192zM561 282q35 -44 96 -44t96 44q33 44 33 129t-33 130q-35 44 -96 44t-96 -44q-34 -44 -34 -130t34 -129z" />
    <glyph glyph-name="uni24FF" unicode="&#x24ff;" horiz-adv-x="1257" 
d="M656 -117q-230 0 -382 149t-152 375q0 227 152 376t382 149q231 0 383 -149q151 -148 151 -376q0 -227 -151 -375q-150 -149 -383 -149zM487 219q60 -68 170 -68t170 68q60 67 60 192t-60 192t-170 67t-170 -67q-61 -67 -61 -192t61 -192zM753 282q-35 -44 -96 -44
t-96 44q-34 43 -34 129t34 130q35 44 96 44t96 -44q33 -45 33 -130t-33 -129z" />
    <glyph glyph-name="filledbox" unicode="&#x25a0;" horiz-adv-x="1379" 
d="M1194 -88h-962v941h962v-941z" />
    <glyph glyph-name="uni25A1" unicode="&#x25a1;" horiz-adv-x="1379" 
d="M1194 -88h-962v941h962v-941zM334 760v-755h757v755h-757z" />
    <glyph glyph-name="lozenge" unicode="&#x25ca;" horiz-adv-x="659" 
d="M272 768h161l195 -384l-195 -384h-161l-195 384zM199 384l154 -320l154 320l-154 320z" />
    <glyph glyph-name="circle" unicode="&#x25cb;" horiz-adv-x="1257" 
d="M656 -117q-230 0 -382 149t-152 375q0 227 152 376t382 149q231 0 383 -149q151 -148 151 -376q0 -227 -151 -375q-150 -149 -383 -149zM346 98q122 -123 310 -123t311 123q123 122 123 309q0 188 -123 311q-124 122 -311 122q-188 0 -310 -122q-123 -123 -123 -311
q0 -187 123 -309z" />
    <glyph glyph-name="uni25CF" unicode="&#x25cf;" horiz-adv-x="1257" 
d="M656 -117q-230 0 -382 149t-152 375q0 227 152 376t382 149q231 0 383 -149q151 -148 151 -376q0 -227 -151 -375q-150 -149 -383 -149z" />
    <glyph glyph-name="uni2776" unicode="&#x2776;" horiz-adv-x="1257" 
d="M656 -117q-230 0 -382 149t-152 375q0 227 152 376t382 149q231 0 383 -149q151 -148 151 -376q0 -227 -151 -375q-150 -149 -383 -149zM635 465v-303h102v498h-102v-43q0 -66 -81 -66h-72v-86h153z" />
    <glyph glyph-name="uni2777" unicode="&#x2777;" horiz-adv-x="1257" 
d="M656 932q231 0 383 -149q151 -148 151 -376q0 -227 -151 -375q-150 -149 -383 -149q-230 0 -382 149t-152 375q0 227 152 376t382 149zM435 177h446v87h-321q2 45 87 75l84 28q140 47 140 159q0 75 -55.5 117t-154.5 42q-97 0 -155 -45t-67 -122l99 -13q13 94 121 94
q111 0 111 -76q0 -53 -74 -80l-101 -35q-83 -30 -121.5 -85.5t-38.5 -145.5z" />
    <glyph glyph-name="uni2778" unicode="&#x2778;" horiz-adv-x="1257" 
d="M656 -119q-230 0 -382 149t-152 375q0 227 152 376t382 149q231 0 383 -149q151 -148 151 -376q0 -227 -151 -375q-150 -149 -383 -149zM662 147q101 0 160 43t59 115q0 93 -95 116v2q80 27 80 108q0 65 -56 101.5t-147 36.5q-88 0 -144.5 -36t-72.5 -101l95 -14
q20 72 118 72q108 0 108 -68q0 -65 -105 -65h-45v-82h49q111 0 111 -69q0 -35 -29.5 -55t-83.5 -20q-55 0 -84.5 22t-39.5 70l-97 -15q12 -78 68 -119.5t151 -41.5z" />
    <glyph glyph-name="uni2779" unicode="&#x2779;" horiz-adv-x="1257" 
d="M656 -117q-230 0 -382 149t-152 375q0 227 152 376t382 149q231 0 383 -149q151 -148 151 -376q0 -227 -151 -375q-150 -149 -383 -149zM691 295v-124h102v124l79 -9v87l-79 -10v306h-118l-271 -291v-92zM691 363l-184 7l182 194h2v-201z" />
    <glyph glyph-name="uni277A" unicode="&#x277a;" horiz-adv-x="1257" 
d="M656 932q231 0 383 -149q151 -148 151 -376q0 -227 -151 -375q-150 -149 -383 -149q-230 0 -382 149t-152 375q0 227 152 376t382 149zM657 148q105 0 164 48.5t59 132.5q0 78 -52 121t-146 43q-74 0 -124 -28l-2 2l22 109h278v81h-351l-53 -258l92 -25q46 43 118 43
q55 0 86 -23t31 -66t-32.5 -68.5t-87.5 -25.5q-90 0 -125 62l-95 -39q28 -52 85 -80.5t133 -28.5z" />
    <glyph glyph-name="uni277B" unicode="&#x277b;" horiz-adv-x="1257" 
d="M656 -117q-230 0 -382 149t-152 375q0 227 152 376t382 149q231 0 383 -149q151 -148 151 -376q0 -227 -151 -375q-150 -149 -383 -149zM666 152q98 0 156 48t58 128q0 73 -51.5 117.5t-140.5 44.5q-98 0 -151 -57q4 81 36.5 119t96.5 38q74 0 109 -51l87 31
q-55 100 -196 100q-116 0 -176.5 -70t-60.5 -200q0 -115 61.5 -181.5t171.5 -66.5zM667 231q-107 0 -127 107q15 36 49.5 58t78.5 22q52 0 83 -24.5t31 -66.5q0 -44 -32 -70t-83 -26z" />
    <glyph glyph-name="uni277C" unicode="&#x277c;" horiz-adv-x="1257" 
d="M656 -117q-230 0 -382 149t-152 375q0 227 152 376t382 149q231 0 383 -149q151 -148 151 -376q0 -227 -151 -375q-150 -149 -383 -149zM556 144h101q6 251 216 410v88h-424v-87h303q-88 -74 -140 -186q-55 -114 -56 -225z" />
    <glyph glyph-name="uni277D" unicode="&#x277d;" horiz-adv-x="1257" 
d="M656 -117q-230 0 -382 149t-152 375q0 227 152 376t382 149q231 0 383 -149q151 -148 151 -376q0 -227 -151 -375q-150 -149 -383 -149zM487 192q62 -40 170 -40t170 40q63 41 63 113q0 46 -27 78t-72 42v1q37 13 59.5 42t22.5 67q0 66 -56.5 101t-159.5 35
q-102 0 -158 -35.5t-56 -100.5q0 -39 22.5 -68.5t58.5 -40.5v-1q-46 -10 -73.5 -42.5t-27.5 -77.5q0 -73 64 -113zM657 461q-119 0 -119 67q0 65 119 65t119 -65q0 -35 -28.5 -51t-90.5 -16zM657 231q-62 0 -97 20.5t-35 57.5q0 76 132 76q133 0 133 -76q0 -37 -35 -57.5
t-98 -20.5z" />
    <glyph glyph-name="uni277E" unicode="&#x277e;" horiz-adv-x="1257" 
d="M656 -117q-230 0 -382 149t-152 375q0 227 152 376t382 149q231 0 383 -149q151 -148 151 -376q0 -227 -151 -375q-150 -149 -383 -149zM656 150q115 0 175 71t60 199q0 115 -61.5 181.5t-171.5 66.5q-98 0 -156 -48t-58 -128q0 -73 51.5 -117.5t140.5 -44.5
q100 0 152 57q-4 -81 -36.5 -119t-96.5 -38q-75 0 -109 52l-87 -31q54 -101 197 -101zM657 402q-52 0 -83 24.5t-31 66.5q0 44 31.5 70t82.5 26q52 0 85.5 -27t42.5 -79q-15 -37 -49.5 -59t-78.5 -22z" />
    <glyph glyph-name="uni2E18" unicode="&#x2e18;" horiz-adv-x="761" 
d="M372 548h150l-29 -135h-149zM513 18l125 -16q-27 -110 -113 -167.5t-221 -57.5q-132 0 -207.5 51.5t-75.5 141.5q0 133 170 213l53 26q58 25 81 51q22 25 43 88h74l-34 -251l-23 -105h-112l22 105l16 56q-17 -11 -35 -19q-126 -60 -126 -145q0 -53 43 -80.5t120 -27.5
q168 0 200 137z" />
    <glyph glyph-name="uniF8FF" unicode="&#xf8ff;" horiz-adv-x="1377" 
d="M611 672v-191h-70v179q0 34 -15 47q-16 16 -39 16q-52 0 -68 -58v-184h-70v410h70v-152q35 42 87 42q49 0 77 -28t28 -81zM1085 891h70v-410h-70v410zM926 566l62 -12q-37 -82 -137 -82q-70 0 -110.5 42t-40.5 112q0 71 39.5 113.5t109.5 42.5t108 -43t38 -114v-15h-227
q6 -85 85 -85q52 0 73 41zM769 653h159q-9 80 -80 80t-79 -80zM1194 297v-15h-227q6 -86 85 -86q52 0 74 42l61 -12q-37 -82 -137 -82q-70 0 -110.5 42t-40.5 112q0 71 39.5 113.5t109.5 42.5q71 0 108.5 -42t37.5 -115zM719 261l61 184h69l-106 -292h-82l-108 292h73
l62 -184q2 -9 4.5 -18t4 -15t3 -11t2.5 -7.5t1 -3.5q14 49 16 55zM968 325h159q-9 80 -80 80t-79 -80zM463 175h-69v70h69v-70zM209 200v-66l-3 -25l97 5v-49l-98 4l4 -44v-109q0 -38 36 -38h58v-56h-73q-89 0 -89 84v119l4 44l-70 -4v49l69 -4l-3 24v66h68zM698 -130
q56 0 69 60l65 -7q-11 -52 -46 -80t-89 -28q-67 0 -106 41t-39 112q0 72 37.5 113t105.5 41q110 0 136 -98l-66 -8q-13 52 -69 52q-75 0 -75 -99t77 -99zM1049 122q124 0 124 -95v-146v-59h-56q0 3 -3 17.5t-4 19.5q-31 -46 -101 -46q-47 0 -76 23.5t-29 63.5t27 61t87 31
l66 13q13 1 22 7v13q0 25 -13 36.5t-47 11.5q-35 0 -50.5 -11.5t-19.5 -40.5l-60 7q12 94 133 94zM463 -178h-69v292h69v-292zM1029 -141q56 0 76 47v62q-7 -3 -19 -5l-55 -11q-58 -10 -58 -48q0 -45 56 -45z" />
    <glyph glyph-name="uniFEFF" unicode="&#xfeff;" 
 />
    <glyph glyph-name="null" 
 />
    <glyph glyph-name="Adieresis.ss01" horiz-adv-x="785" 
d="M454 897q-15 -16 -38 -19.5t-43.5 4t-34.5 26.5t-12 43q0 32 21.5 52.5t53.5 20.5t53 -20.5t21 -52.5q0 -33 -21 -54zM603 1004q24 19 53 19.5t52.5 -20.5t21.5 -52q0 -33 -21 -54t-53 -21t-53.5 21t-21.5 54q0 32 22 53zM-38 0l436 768h182l120 -768h-135l-23 172h-343
l-94 -172h-143zM448 625l-190 -347h270l-47 347l-5 60z" />
    <glyph glyph-name="Cdotaccent.ss01" horiz-adv-x="854" 
d="M572 876q-33 0 -54.5 21t-21.5 54q0 32 21.5 52.5t54.5 20.5q32 0 53 -20.5t21 -52.5q0 -33 -21 -54t-53 -21zM408 -18q-145 0 -227 85q-84 84 -84 228q0 57 13 115q37 176 155 276q117 99 280 99q127 0 204.5 -60.5t96.5 -174.5l-130 -15q-11 66 -58 102t-123 36
q-110 0 -189.5 -74.5t-106.5 -207.5q-10 -49 -10 -92q0 -97 50 -149.5t142 -52.5q166 0 244 159l125 -15q-51 -123 -152 -191t-230 -68z" />
    <glyph glyph-name="Edieresis.ss01" horiz-adv-x="721" 
d="M453 897q-15 -16 -38 -19.5t-43.5 4t-34.5 26.5t-12 43q0 32 21.5 52.5t53.5 20.5t53 -20.5t21 -52.5q0 -33 -21 -54zM708 897q-15 -16 -38 -19.5t-43.5 4t-34.5 26.5t-12 43q0 32 21.5 52.5t53.5 20.5t53 -20.5t21 -52.5q0 -33 -21 -54zM762 768l-24 -110h-415l-45 -210
h382l-23 -107h-382l-50 -231h421l-24 -110h-551l164 768h547z" />
    <glyph glyph-name="Edotaccent.ss01" horiz-adv-x="721" 
d="M574 897q-24 -20 -54 -21t-54 21t-21 54q0 32 21 52.5t54 20.5t54 -20.5t21 -52.5q0 -33 -21 -54zM762 768l-24 -110h-415l-45 -210h382l-23 -107h-382l-50 -231h421l-24 -110h-551l164 768h547z" />
    <glyph glyph-name="uni0122.ss01" horiz-adv-x="902" 
d="M674 308h-205l22 101h331l-87 -409h-96l-1 90q-92 -107 -247 -107q-140 0 -216 85q-78 84 -78 223q0 53 11 106q39 185 152 286t291 101q122 0 198.5 -60t93.5 -171l-130 -21q-27 142 -176 142q-111 0 -190 -76t-107 -213q-9 -49 -9 -90q0 -96 49 -149.5t135 -53.5
q168 0 244 148zM347 -81q39 0 61 -18.5t22 -52.5q0 -19 -4 -36l-5 -24q-19 -91 -144 -91h-29l11 51h31q36 0 52.5 10.5t22.5 38.5l1 8q-11 -4 -31 -4q-32 0 -50 15t-18 42q0 29 21 45t59 16z" />
    <glyph glyph-name="Gdotaccent.ss01" horiz-adv-x="902" 
d="M570 876q-33 0 -54.5 21t-21.5 54q0 32 21.5 52.5t54.5 20.5q32 0 53 -20.5t21 -52.5q0 -33 -21 -54t-53 -21zM674 308h-205l22 101h331l-87 -409h-96l-1 90q-92 -107 -247 -107q-140 0 -216 85q-78 84 -78 223q0 53 11 106q39 185 152 286t291 101q122 0 198.5 -60
t93.5 -171l-130 -21q-27 142 -176 142q-111 0 -190 -76t-107 -213q-9 -49 -9 -90q0 -96 49 -149.5t135 -53.5q168 0 244 148z" />
    <glyph glyph-name="Idieresis.ss01" horiz-adv-x="351" 
d="M247 897q-24 -20 -53.5 -21t-53 21t-21.5 54q0 32 21 52.5t53 20.5t53.5 -20.5t21.5 -52.5q0 -33 -21 -54zM501 897q-15 -16 -38 -19.5t-43.5 4t-34.5 26.5t-12 43q0 32 21.5 52.5t53.5 20.5t53 -20.5t21 -52.5q0 -33 -21 -54zM184 0h-133l164 768h133z" />
    <glyph glyph-name="Idotaccent.ss01" horiz-adv-x="351" 
d="M320 876q-33 0 -54 21t-21 54q0 32 21 52.5t54 20.5q32 0 53.5 -20.5t21.5 -52.5q0 -33 -21.5 -54t-53.5 -21zM184 0h-133l164 768h133z" />
    <glyph glyph-name="uni0136.ss01" horiz-adv-x="777" 
d="M666 769h171l-358 -338l222 -431h-145l-181 353l-144 -131l-47 -222h-133l164 769h133l-82 -385zM329 -81q39 0 61.5 -18.5t22.5 -52.5q0 -19 -4 -36l-6 -24q-19 -91 -144 -91h-29l11 51h32q36 0 52.5 11t21.5 38l2 8q-12 -4 -32 -4q-31 0 -49.5 15t-18.5 42q0 29 21 45
t59 16z" />
    <glyph glyph-name="uni013B.ss01" horiz-adv-x="668" 
d="M350 768l-140 -657h380l-24 -111h-515l164 768h135zM283 -81q39 0 61.5 -18.5t22.5 -52.5q0 -19 -4 -36l-6 -24q-19 -91 -144 -91h-29l11 51h32q36 0 52.5 11t21.5 38l2 8q-12 -4 -32 -4q-31 0 -49.5 15t-18.5 42q0 29 21 45t59 16z" />
    <glyph glyph-name="Ldot.ss01" horiz-adv-x="668" 
d="M350 768l-140 -657h380l-24 -111h-515l164 768h135zM550 350q-24 -22 -62 -22t-62 22t-24 60q0 36 24 59.5t62 23.5q37 0 61.5 -23.5t24.5 -59.5q0 -38 -24 -60z" />
    <glyph glyph-name="uni0145.ss01" horiz-adv-x="872" 
d="M613 163l128 606h127l-164 -769h-148l-250 605l-128 -605h-127l164 769h150zM328 -81q39 0 61.5 -18.5t22.5 -52.5q0 -19 -4 -36l-6 -24q-19 -91 -144 -91h-29l11 51h32q36 0 52.5 11t21.5 38l2 8q-12 -4 -32 -4q-31 0 -49.5 15t-18.5 42q0 29 21 45t59 16z" />
    <glyph glyph-name="Odieresis.ss01" horiz-adv-x="924" 
d="M511 907q-15 -16 -38 -19.5t-43.5 4t-34.5 26.5t-12 43q0 32 21.5 52.5t53.5 20.5t53 -20.5t21 -52.5q0 -33 -21 -54zM766 907q-15 -16 -38 -19.5t-43.5 4t-34.5 26.5t-12 43q0 32 21.5 52.5t53.5 20.5t53 -20.5t21 -52.5q0 -33 -21 -54zM420 -17q-151 0 -236 85
q-86 86 -86 229q0 52 11 104q36 175 154 279q119 105 286 105q152 0 238 -85q86 -86 86 -230q0 -43 -11 -103q-36 -177 -153 -280q-118 -104 -289 -104zM431 92q114 0 193.5 78t105.5 214q9 45 9 82q0 99 -53 154.5t-148 55.5q-114 0 -192.5 -77t-105.5 -215q-9 -44 -9 -82
q0 -99 53 -154.5t147 -55.5z" />
    <glyph glyph-name="uni0156.ss01" horiz-adv-x="800" 
d="M784 602q0 -88 -54.5 -150t-148.5 -87q93 -25 93 -130q0 -4 -2 -42l-15 -193h-129l16 188q2 26 2 39q0 45 -23 64.5t-77 19.5h-198l-66 -311h-131l164 768h361q99 0 153.5 -44.5t54.5 -121.5zM271 416h174q91 0 145.5 43.5t54.5 119.5q0 84 -126 84h-195zM324 -81
q39 0 61.5 -18.5t22.5 -52.5q0 -19 -4 -36l-6 -24q-19 -91 -144 -91h-29l11 51h32q36 0 52.5 11t21.5 38l2 8q-12 -4 -32 -4q-31 0 -49.5 15t-18.5 42q0 29 21 45t59 16z" />
    <glyph glyph-name="uni0218.ss01" horiz-adv-x="783" 
d="M765 597v-14l-128 -13v15q0 101 -161 101q-181 0 -181 -127q0 -37 26.5 -59t88.5 -35l91 -19q102 -21 153 -72t51 -125q0 -134 -97 -201t-265 -67q-138 0 -214.5 55.5t-76.5 158.5v17l132 13v-17q0 -122 171 -122q99 0 154.5 34t55.5 103q0 41 -30.5 66t-93.5 38l-94 20
q-192 43 -192 192q0 123 87.5 186.5t243.5 63.5q135 0 207 -50.5t72 -141.5zM307 -88q39 0 61.5 -18.5t22.5 -52.5q0 -19 -4 -36l-6 -24q-19 -91 -144 -91h-29l11 51h32q36 0 52.5 11t21.5 38l2 8q-12 -4 -32 -4q-31 0 -49.5 15t-18.5 42q0 29 21 45t59 16z" />
    <glyph glyph-name="uni021A.ss01" horiz-adv-x="681" 
d="M141 768h610l-24 -110h-239l-140 -658h-133l140 658h-238zM248 -81q39 0 61.5 -18.5t22.5 -52.5q0 -19 -4 -36l-6 -24q-19 -91 -144 -91h-29l11 51h32q36 0 52.5 11t21.5 38l2 8q-12 -4 -32 -4q-31 0 -49.5 15t-18.5 42q0 29 21 45t59 16z" />
    <glyph glyph-name="Udieresis.ss01" horiz-adv-x="848" 
d="M486 897q-15 -16 -38 -19.5t-43.5 4t-34.5 26.5t-12 43q0 32 21.5 52.5t53.5 20.5t53 -20.5t21 -52.5q0 -33 -21 -54zM741 897q-15 -16 -38 -19.5t-43.5 4t-34.5 26.5t-12 43q0 32 21.5 52.5t53.5 20.5t53 -20.5t21 -52.5q0 -33 -21 -54zM376 -17q-133 0 -204.5 54
t-71.5 158q0 33 12 90l102 483h137l-106 -498q-6 -32 -6 -57q0 -114 148 -114q93 0 144 41t70 130l106 498h137l-105 -495q-31 -149 -118.5 -219.5t-244.5 -70.5z" />
    <glyph glyph-name="Wdieresis.ss01" horiz-adv-x="1140" 
d="M611 897q-15 -16 -38 -19.5t-43.5 4t-34.5 26.5t-12 43q0 32 21.5 52.5t53.5 20.5t53 -20.5t21 -52.5q0 -33 -21 -54zM866 897q-15 -16 -38 -19.5t-43.5 4t-34.5 26.5t-12 43q0 32 21.5 52.5t53.5 20.5t53 -20.5t21 -52.5q0 -33 -21 -54zM815 210l268 558h135l-384 -768
h-156l-39 639l-286 -639h-156l-72 768h121l46 -557l-1 -108l42 107l248 558h165l28 -557l-3 -107z" />
    <glyph glyph-name="Ydieresis.ss01" horiz-adv-x="723" 
d="M427 890q-15 -16 -38 -19.5t-43.5 4t-34.5 26.5t-12 43q0 32 21.5 52.5t53.5 20.5t53 -20.5t21 -52.5q0 -33 -21 -54zM682 890q-15 -16 -38 -19.5t-43.5 4t-34.5 26.5t-12 43q0 32 21.5 52.5t53.5 20.5t53 -20.5t21 -52.5q0 -33 -21 -54zM656 769h153l-375 -462h-1
l-65 -307h-134l66 308l-181 461h133l116 -314l13 -43l30 43z" />
    <glyph glyph-name="Zdotaccent.ss01" horiz-adv-x="779" 
d="M534 876q-33 0 -54.5 21t-21.5 54q0 32 21.5 52.5t54.5 20.5q32 0 53 -20.5t21 -52.5q0 -33 -21 -54t-53 -21zM200 768h600l-20 -91l-566 -569h454l-24 -108h-626l20 92l560 568h-421z" />
    <glyph glyph-name="G.ss03" horiz-adv-x="877" 
d="M675 310h-224l23 108h351q-39 -208 -151 -321.5t-279 -113.5q-140 0 -219 79q-81 80 -81 219q0 53 12 114q37 177 155 284q115 106 282 106q127 0 202.5 -62.5t84.5 -169.5l-125 -19q-4 67 -47.5 104.5t-118.5 37.5q-111 0 -191 -80t-110 -219q-11 -50 -11 -97
q0 -91 45 -140.5t128 -49.5q93 0 165.5 57.5t108.5 162.5z" />
    <glyph glyph-name="uni01F4.ss03" horiz-adv-x="877" 
d="M589 1066h155l-152 -172h-114zM675 310h-224l23 108h351q-39 -208 -151 -321.5t-279 -113.5q-140 0 -219 79q-81 80 -81 219q0 53 12 114q37 177 155 284q115 106 282 106q127 0 202.5 -62.5t84.5 -169.5l-125 -19q-4 67 -47.5 104.5t-118.5 37.5q-111 0 -191 -80
t-110 -219q-11 -50 -11 -97q0 -91 45 -140.5t128 -49.5q93 0 165.5 57.5t108.5 162.5z" />
    <glyph glyph-name="Gbreve.ss03" horiz-adv-x="877" 
d="M584 885q-172 0 -172 119q0 15 5 47h83l-2 -22q0 -62 91 -62q105 0 124 84h90q-21 -86 -72 -126t-147 -40zM675 310h-224l23 108h351q-39 -208 -151 -321.5t-279 -113.5q-140 0 -219 79q-81 80 -81 219q0 53 12 114q37 177 155 284q115 106 282 106q127 0 202.5 -62.5
t84.5 -169.5l-125 -19q-4 67 -47.5 104.5t-118.5 37.5q-111 0 -191 -80t-110 -219q-11 -50 -11 -97q0 -91 45 -140.5t128 -49.5q93 0 165.5 57.5t108.5 162.5z" />
    <glyph glyph-name="Gcircumflex.ss03" horiz-adv-x="877" 
d="M664 886l-65 116l-114 -116h-122l180 182h121l106 -182h-106zM675 310h-224l23 108h351q-39 -208 -151 -321.5t-279 -113.5q-140 0 -219 79q-81 80 -81 219q0 53 12 114q37 177 155 284q115 106 282 106q127 0 202.5 -62.5t84.5 -169.5l-125 -19q-4 67 -47.5 104.5
t-118.5 37.5q-111 0 -191 -80t-110 -219q-11 -50 -11 -97q0 -91 45 -140.5t128 -49.5q93 0 165.5 57.5t108.5 162.5z" />
    <glyph glyph-name="uni0122.ss03" horiz-adv-x="877" 
d="M675 310h-224l23 108h351q-39 -208 -151 -321.5t-279 -113.5q-140 0 -219 79q-81 80 -81 219q0 53 12 114q37 177 155 284q115 106 282 106q127 0 202.5 -62.5t84.5 -169.5l-125 -19q-4 67 -47.5 104.5t-118.5 37.5q-111 0 -191 -80t-110 -219q-11 -50 -11 -97
q0 -91 45 -140.5t128 -49.5q93 0 165.5 57.5t108.5 162.5zM376 -170l-107 -22l22 104h161l-22 -100q-12 -58 -45.5 -83t-101.5 -25h-37l11 53h42q61 0 70 44z" />
    <glyph glyph-name="Gdotaccent.ss03" horiz-adv-x="877" 
d="M542 1031h127l-28 -133h-127zM675 310h-224l23 108h351q-39 -208 -151 -321.5t-279 -113.5q-140 0 -219 79q-81 80 -81 219q0 53 12 114q37 177 155 284q115 106 282 106q127 0 202.5 -62.5t84.5 -169.5l-125 -19q-4 67 -47.5 104.5t-118.5 37.5q-111 0 -191 -80
t-110 -219q-11 -50 -11 -97q0 -91 45 -140.5t128 -49.5q93 0 165.5 57.5t108.5 162.5z" />
    <glyph glyph-name="uni0122.ss01.ss03" horiz-adv-x="877" 
d="M675 310h-224l23 108h351q-39 -208 -151 -321.5t-279 -113.5q-140 0 -219 79q-81 80 -81 219q0 53 12 114q37 177 155 284q115 106 282 106q127 0 202.5 -62.5t84.5 -169.5l-125 -19q-4 67 -47.5 104.5t-118.5 37.5q-111 0 -191 -80t-110 -219q-11 -50 -11 -97
q0 -91 45 -140.5t128 -49.5q93 0 165.5 57.5t108.5 162.5zM355 -81q39 0 61.5 -18.5t22.5 -52.5q0 -19 -4 -36l-5 -24q-19 -91 -145 -91h-29l11 51h32q36 0 52.5 11t21.5 38l2 8q-11 -4 -32 -4q-31 0 -49.5 15t-18.5 42q0 29 21 45t59 16z" />
    <glyph glyph-name="Gdotaccent.ss01.ss03" horiz-adv-x="877" 
d="M592 893q-33 0 -54.5 21t-21.5 54q0 32 21.5 52.5t54.5 20.5q32 0 53 -20.5t21 -52.5q0 -33 -21 -54t-53 -21zM675 310h-224l23 108h351q-39 -208 -151 -321.5t-279 -113.5q-140 0 -219 79q-81 80 -81 219q0 53 12 114q37 177 155 284q115 106 282 106q127 0 202.5 -62.5
t84.5 -169.5l-125 -19q-4 67 -47.5 104.5t-118.5 37.5q-111 0 -191 -80t-110 -219q-11 -50 -11 -97q0 -91 45 -140.5t128 -49.5q93 0 165.5 57.5t108.5 162.5z" />
    <glyph glyph-name="R.ss04" horiz-adv-x="770" 
d="M770 565q0 -97 -62 -167q-63 -69 -166 -90l140 -308h-140l-132 294h-163l-63 -294h-133l164 768h318q115 0 176 -54t61 -149zM269 399h179q89 0 139.5 42t50.5 112q0 52 -31 80.5t-93 28.5h-189z" />
    <glyph glyph-name="Racute.ss04" horiz-adv-x="770" 
d="M522 1049h155l-152 -172h-114zM770 565q0 -97 -62 -167q-63 -69 -166 -90l140 -308h-140l-132 294h-163l-63 -294h-133l164 768h318q115 0 176 -54t61 -149zM269 399h179q89 0 139.5 42t50.5 112q0 52 -31 80.5t-93 28.5h-189z" />
    <glyph glyph-name="Rcaron.ss04" horiz-adv-x="770" 
d="M747 1044l-185 -182h-121l-101 182h105l65 -116l115 116h122zM770 565q0 -97 -62 -167q-63 -69 -166 -90l140 -308h-140l-132 294h-163l-63 -294h-133l164 768h318q115 0 176 -54t61 -149zM269 399h179q89 0 139.5 42t50.5 112q0 52 -31 80.5t-93 28.5h-189z" />
    <glyph glyph-name="uni0156.ss04" horiz-adv-x="770" 
d="M770 565q0 -97 -62 -167q-63 -69 -166 -90l140 -308h-140l-132 294h-163l-63 -294h-133l164 768h318q115 0 176 -54t61 -149zM269 399h179q89 0 139.5 42t50.5 112q0 52 -31 80.5t-93 28.5h-189zM334 -176l-107 -22l22 104h161l-22 -101q-12 -58 -45.5 -83t-100.5 -25
h-37l11 53h41q60 0 71 44z" />
    <glyph glyph-name="uni0156.ss01.ss04" horiz-adv-x="770" 
d="M770 565q0 -97 -62 -167q-63 -69 -166 -90l140 -308h-140l-132 294h-163l-63 -294h-133l164 768h318q115 0 176 -54t61 -149zM269 399h179q89 0 139.5 42t50.5 112q0 52 -31 80.5t-93 28.5h-189zM315 -81q39 0 61.5 -18.5t22.5 -52.5q0 -19 -4 -36l-6 -24
q-19 -91 -144 -91h-29l11 51h32q36 0 52.5 11t21.5 38l2 8q-12 -4 -32 -4q-31 0 -49.5 15t-18.5 42q0 29 21 45t59 16z" />
    <glyph glyph-name="i.loclTRK" horiz-adv-x="317" 
d="M306 661h-130l28 133h130zM165 0h-130l117 548h130z" />
    <glyph glyph-name="adieresis.ss01" horiz-adv-x="677" 
d="M302 655q-32 0 -53 20.5t-21 53.5t20.5 53t53.5 20t54 -20t21 -53t-21 -53.5t-54 -20.5zM504 782q24 19 53.5 20t53.5 -20t21 -53q0 -33 -21 -53.5t-54 -20.5q-32 0 -53 20.5t-21 53.5t21 53zM380 564q107 0 160.5 -36t53.5 -101q0 -15 -5 -45l-58 -270q-8 -45 -8 -77
q0 -5 2 -35h-120v65q-71 -81 -194 -81q-83 0 -129.5 38t-46.5 108q0 84 59.5 126.5t188.5 64.5l132 22q22 4 44 13l1 7q6 25 6 41q0 67 -102 67q-63 0 -96.5 -22t-49.5 -74l-112 11q48 178 274 178zM261 71q48 0 88 22.5t65 64.5l25 117q-15 -6 -35 -9l-114 -21
q-64 -12 -94 -35.5t-30 -64.5q0 -74 95 -74z" />
    <glyph glyph-name="cdotaccent.ss01" horiz-adv-x="649" 
d="M423 655q-32 0 -53 20.5t-21 53.5t20.5 53t53.5 20t54 -20t21 -53t-21 -53.5t-54 -20.5zM293 -16q-111 0 -172 59.5t-61 165.5q0 37 9 79q26 131 107.5 203t204.5 72q100 0 159.5 -49t63.5 -136l-124 -15q-3 47 -31 73t-77 26q-137 0 -176 -186q-7 -29 -7 -63
q0 -61 29.5 -93.5t84.5 -32.5q98 0 148 116l121 -13q-36 -99 -107.5 -152.5t-171.5 -53.5z" />
    <glyph glyph-name="edieresis.ss01" horiz-adv-x="684" 
d="M311 655q-32 0 -53 20.5t-21 53.5t20.5 53t53.5 20t54 -20t21 -53t-21 -53.5t-54 -20.5zM566 655q-32 0 -53 20.5t-21 53.5t20.5 53t53.5 20t54 -20t21 -53t-21 -53.5t-54 -20.5zM393 564q111 0 171.5 -59t60.5 -161q0 -50 -14 -103h-424q-2 -26 -2 -30q0 -63 32.5 -96
t92.5 -33q96 0 155 78l112 -21q-43 -74 -113.5 -114.5t-160.5 -40.5q-115 0 -179.5 60.5t-64.5 166.5q0 29 9 75q24 125 110 202q85 76 215 76zM384 473q-64 0 -110.5 -38.5t-69.5 -112.5h297q2 26 2 27q0 124 -119 124z" />
    <glyph glyph-name="edotaccent.ss01" horiz-adv-x="684" 
d="M438 655q-32 0 -53 20.5t-21 53.5t20.5 53t53.5 20t54 -20t21 -53t-21 -53.5t-54 -20.5zM611 241h-424q-2 -26 -2 -30q0 -63 32.5 -96t92.5 -33q96 0 155 78l112 -21q-43 -74 -113.5 -114.5t-160.5 -40.5q-115 0 -179.5 60.5t-64.5 166.5q0 29 9 75q24 125 110 202
q85 76 215 76q111 0 171.5 -59t60.5 -161q0 -50 -14 -103zM384 473q-64 0 -110.5 -38.5t-69.5 -112.5h297q2 26 2 27q0 124 -119 124z" />
    <glyph glyph-name="uni0123.ss01" horiz-adv-x="692" 
d="M454 655q-39 0 -61.5 18.5t-22.5 52.5q0 19 4 36l6 24q19 94 145 94h28l-11 -50h-34q-62 0 -72 -49l-2 -12q16 4 32 4q31 0 49.5 -15t18.5 -42q0 -29 -21 -45t-59 -16zM518 472l23 79h116l-111 -524q-49 -235 -285 -235q-110 0 -168.5 42.5t-63.5 121.5l122 13
q9 -83 118 -83q62 0 98 33.5t52 106.5l15 72q-74 -68 -170 -68q-90 0 -144 55t-54 150q0 135 80 232q80 96 205 96q113 0 167 -91zM306 130q52 0 94 31t66 83l22 100q-1 54 -33.5 86t-81.5 32q-78 0 -127 -64t-49 -149q0 -55 29 -87t80 -32z" />
    <glyph glyph-name="gdotaccent.ss01" horiz-adv-x="692" 
d="M457 655q-32 0 -53 20.5t-21 53.5t20.5 53t53.5 20t54 -20t21 -53t-21 -53.5t-54 -20.5zM518 472l23 79h116l-111 -524q-49 -235 -285 -235q-110 0 -168.5 42.5t-63.5 121.5l122 13q9 -83 118 -83q62 0 98 33.5t52 106.5l15 72q-74 -68 -170 -68q-90 0 -144 55t-54 150
q0 135 80 232q80 96 205 96q113 0 167 -91zM306 130q52 0 94 31t66 83l22 100q-1 54 -33.5 86t-81.5 32q-78 0 -127 -64t-49 -149q0 -55 29 -87t80 -32z" />
    <glyph glyph-name="i.ss01" horiz-adv-x="317" 
d="M314 677q-22 -22 -56.5 -22t-57.5 22q-23 23 -23 57t22.5 56t57.5 22t57 -22t22 -56q0 -35 -22 -57zM165 0h-130l117 548h130z" />
    <glyph glyph-name="idieresis.ss01" horiz-adv-x="317" 
d="M129 655q-33 0 -54 20.5t-21 53.5t21 53t54 20t53.5 -20t20.5 -53t-21 -53.5t-53 -20.5zM383 655q-32 0 -53 20.5t-21 53.5t20.5 53t53.5 20t54 -20t21 -53t-21 -53.5t-54 -20.5zM165 0h-130l117 548h130z" />
    <glyph glyph-name="i.loclTRK.ss01" horiz-adv-x="317" 
d="M314 677q-22 -22 -56.5 -22t-57.5 22q-23 23 -23 57t22.5 56t57.5 22t57 -22t22 -56q0 -35 -22 -57zM165 0h-130l117 548h130z" />
    <glyph glyph-name="ij.ss01" horiz-adv-x="634" 
d="M314 677q-22 -22 -56.5 -22t-57.5 22q-23 23 -23 57t22.5 56t57.5 22t57 -22t22 -56q0 -35 -22 -57zM631 677q-22 -22 -56.5 -22t-57.5 22q-23 23 -23 57t22.5 56t57.5 22t57 -22t22 -56q0 -35 -22 -57zM165 0h-130l117 548h130zM279 -208h-67l20 98h35q34 0 51 15t24 49
l126 594h130l-127 -599q-17 -84 -61 -120.5t-131 -36.5z" />
    <glyph glyph-name="iogonek.ss01" horiz-adv-x="317" 
d="M200 790q23 22 57.5 22t56.5 -22t22 -56q0 -35 -22 -57t-57 -22t-57.5 22t-22.5 57q0 33 23 56zM53 0h-18l117 548h130l-117 -548l-74 -57q-27 -22 -36.5 -34t-9.5 -29q0 -41 56 -41h30l-16 -75h-57q-59 0 -92 26t-33 71q0 64 79 113z" />
    <glyph glyph-name="j.ss01" horiz-adv-x="317" 
d="M314 677q-22 -22 -56.5 -22t-57.5 22q-23 23 -23 57t22.5 56t57.5 22t57 -22t22 -56q0 -35 -22 -57zM-38 -208h-67l20 98h35q34 0 51 15t24 49l126 594h130l-127 -599q-17 -84 -61 -120.5t-131 -36.5z" />
    <glyph glyph-name="uni0137.ss01" horiz-adv-x="661" 
d="M511 548h160l-263 -218l157 -330h-134l-115 262l-113 -88l-37 -174h-130l164 768h130l-97 -453zM244 -81q39 0 61.5 -18.5t22.5 -52.5q0 -19 -4 -36l-6 -24q-19 -91 -144 -91h-29l11 51h32q36 0 52.5 11t21.5 38l2 8q-12 -4 -32 -4q-31 0 -49.5 15t-18.5 42q0 29 21 45
t59 16z" />
    <glyph glyph-name="uni013C.ss01" horiz-adv-x="318" 
d="M36 0l164 768h130l-164 -768h-130zM67 -81q39 0 61.5 -18.5t22.5 -52.5q0 -19 -4 -36l-6 -24q-19 -91 -144 -91h-29l11 51h32q36 0 52.5 11t21.5 38l2 8q-12 -4 -32 -4q-31 0 -49.5 15t-18.5 42q0 29 21 45t59 16z" />
    <glyph glyph-name="ldot.ss01" horiz-adv-x="530" 
d="M166 0h-130l164 768h130zM432 300q-37 0 -61.5 23.5t-24.5 59.5q0 37 24 60t62 23t62.5 -23t24.5 -60q0 -36 -24.5 -59.5t-62.5 -23.5z" />
    <glyph glyph-name="napostrophe.ss01" horiz-adv-x="1010" 
d="M383 680q0 -26 -10 -72l-7 -33q-15 -75 -66 -117t-128 -42h-23l15 72h20q48 0 72.5 21t34.5 68l5 20h-16q-45 0 -71 22.5t-26 63.5q0 43 28 71t75 28t72 -27t25 -75zM774 563q77 0 121 -42t44 -116q0 -27 -7 -59l-74 -346h-130l71 336q5 22 5 39q0 37 -21 58t-60 21
q-95 0 -152 -113l-72 -341h-130l117 548h119l-10 -71q77 86 179 86z" />
    <glyph glyph-name="uni0146.ss01" horiz-adv-x="677" 
d="M441 563q77 0 121 -42t44 -116q0 -27 -7 -59l-74 -346h-130l71 336q5 22 5 39q0 37 -21.5 58t-60.5 21q-94 0 -151 -113l-72 -341h-130l117 548h119l-10 -71q77 86 179 86zM246 -81q39 0 61.5 -18.5t22.5 -52.5q0 -19 -4 -36l-6 -24q-19 -91 -144 -91h-29l11 51h32
q36 0 52.5 11t21.5 38l2 8q-12 -4 -32 -4q-31 0 -49.5 15t-18.5 42q0 29 21 45t59 16z" />
    <glyph glyph-name="odieresis.ss01" horiz-adv-x="696" 
d="M318 655q-32 0 -53 20.5t-21 53.5t20.5 53t53.5 20t54 -20t21 -53t-21 -53.5t-54 -20.5zM573 655q-32 0 -53 20.5t-21 53.5t20.5 53t53.5 20t54 -20t21 -53t-21 -53.5t-54 -20.5zM297 -16q-111 0 -174.5 60t-63.5 163q0 30 8 76q28 133 113.5 207t217.5 74
q113 0 176 -59.5t63 -164.5q0 -36 -9 -77q-27 -133 -112 -206t-219 -73zM308 88q150 0 191 185q7 29 7 64q0 59 -30 91t-88 32q-75 0 -124 -48.5t-68 -138.5q-6 -33 -6 -63q0 -59 30 -90.5t88 -31.5z" />
    <glyph glyph-name="uni0157.ss01" horiz-adv-x="497" 
d="M455 554h41l-24 -115h-31q-76 0 -125.5 -26.5t-81.5 -94.5l-68 -318h-130l117 548h119l-15 -102q71 108 198 108zM66 -81q39 0 61.5 -18.5t22.5 -52.5q0 -19 -4 -36l-6 -24q-19 -91 -144 -91h-29l11 51h32q36 0 52.5 11t21.5 38l2 8q-12 -4 -32 -4q-31 0 -49.5 15
t-18.5 42q0 29 21 45t59 16z" />
    <glyph glyph-name="uni0219.ss01" horiz-adv-x="636" 
d="M320 340l70 -14q81 -16 117.5 -52t36.5 -101q0 -94 -70.5 -144.5t-197.5 -50.5q-112 0 -173 45.5t-63 129.5l124 12q1 -51 30 -74t90 -23q132 0 132 86q0 28 -19.5 44t-66.5 26l-72 17q-148 31 -148 145q0 90 69.5 136.5t187.5 46.5q106 0 164.5 -42.5t60.5 -119.5
l-122 -13q-2 43 -32 65t-82 22q-56 0 -88 -19.5t-32 -57.5q0 -25 19.5 -40t64.5 -24zM238 -81q39 0 61.5 -18.5t22.5 -52.5q0 -19 -4 -36l-5 -24q-19 -91 -145 -91h-28l11 51h31q36 0 52.5 11t21.5 38l2 8q-11 -4 -32 -4q-31 0 -49 15t-18 42q0 61 79 61z" />
    <glyph glyph-name="uni021B.ss01" horiz-adv-x="515" 
d="M312 464l-4 -54l-46 -215q-8 -38 -8 -46q0 -44 57 -44h108l-23 -105h-126q-149 0 -149 116q0 14 5 46l53 249l19 52l-133 -7l20 92l130 -7l2 47l25 121h129l-24 -117l-19 -52l185 8l-19 -92zM141 -73q39 0 61.5 -18.5t22.5 -52.5q0 -19 -4 -36l-6 -24q-19 -91 -144 -91
h-29l11 51h32q36 0 52.5 11t21.5 38l2 8q-12 -4 -32 -4q-31 0 -49.5 15t-18.5 42q0 29 21 45t59 16z" />
    <glyph glyph-name="udieresis.ss01" horiz-adv-x="677" 
d="M298 655q-32 0 -53 20.5t-21 53.5t20.5 53t53.5 20t54 -20t21 -53t-21 -53.5t-54 -20.5zM553 655q-32 0 -53 20.5t-21 53.5t20.5 53t53.5 20t54 -20t21 -53t-21 -53.5t-54 -20.5zM439 207l73 341h130l-117 -548h-120l10 71q-77 -86 -178 -86q-78 0 -121.5 42t-43.5 116
q0 32 7 59l74 346h130l-72 -336q-5 -28 -5 -39q0 -37 21.5 -58t60.5 -21q95 0 151 113z" />
    <glyph glyph-name="wdieresis.ss01" horiz-adv-x="927" 
d="M417 655q-32 0 -53 20.5t-21 53.5t20.5 53t53.5 20t54 -20t21 -53t-21 -53.5t-54 -20.5zM672 655q-32 0 -53 20.5t-21 53.5t20.5 53t53.5 20t54 -20t21 -53t-21 -53.5t-54 -20.5zM624 214l169 334h139l-297 -548h-131l-25 278l-7 129l-60 -129l-136 -278h-130l-68 548
h125l32 -332l4 -76l33 72l162 336h123l25 -330l3 -84z" />
    <glyph glyph-name="ydieresis.ss01" horiz-adv-x="616" 
d="M261 655q-32 0 -53 20.5t-21 53.5t20.5 53t53.5 20t54 -20t21 -53t-21 -53.5t-54 -20.5zM516 655q-32 0 -53 20.5t-21 53.5t20.5 53t53.5 20t54 -20t21 -53t-21 -53.5t-54 -20.5zM264 142l217 406h140l-347 -610q-47 -83 -95 -116q-46 -30 -131 -30h-85l21 102h74
q36 0 58 15t47 56l12 21l-97 562h132l54 -404v-2z" />
    <glyph glyph-name="zdotaccent.ss01" horiz-adv-x="628" 
d="M401 655q-32 0 -53 20.5t-21 53.5t20.5 53t53.5 20t54 -20t21 -53t-21 -53.5t-54 -20.5zM131 548h471l-18 -89l-389 -357h332l-22 -102h-497l18 86l392 360h-309z" />
    <glyph glyph-name="a.ss02" horiz-adv-x="704" 
d="M527 470l24 78h118l-116 -548h-118l8 68q-77 -84 -185 -84q-93 0 -146 57t-53 158q0 136 80 246q39 54 98 86t126 32q117 0 164 -93zM307 89q105 0 158 111l29 135q-3 58 -34 92t-87 34q-44 0 -80 -23.5t-57 -60t-32 -77t-11 -77.5q0 -61 29 -97.5t85 -36.5z" />
    <glyph glyph-name="aacute.ss02" horiz-adv-x="704" 
d="M441 829h155l-152 -172h-114zM527 470l24 78h118l-116 -548h-118l8 68q-77 -84 -185 -84q-93 0 -146 57t-53 158q0 136 80 246q39 54 98 86t126 32q117 0 164 -93zM307 89q105 0 158 111l29 135q-3 58 -34 92t-87 34q-44 0 -80 -23.5t-57 -60t-32 -77t-11 -77.5
q0 -61 29 -97.5t85 -36.5z" />
    <glyph glyph-name="abreve.ss02" horiz-adv-x="704" 
d="M436 648q-172 0 -172 119q0 15 5 47h83l-2 -22q0 -62 91 -62q105 0 124 84h90q-21 -86 -72 -126t-147 -40zM527 470l24 78h118l-116 -548h-118l8 68q-77 -84 -185 -84q-93 0 -146 57t-53 158q0 136 80 246q39 54 98 86t126 32q117 0 164 -93zM307 89q105 0 158 111
l29 135q-3 58 -34 92t-87 34q-44 0 -80 -23.5t-57 -60t-32 -77t-11 -77.5q0 -61 29 -97.5t85 -36.5z" />
    <glyph glyph-name="acircumflex.ss02" horiz-adv-x="704" 
d="M516 649l-65 116l-114 -116h-122l180 182h121l106 -182h-106zM527 470l24 78h118l-116 -548h-118l8 68q-77 -84 -185 -84q-93 0 -146 57t-53 158q0 136 80 246q39 54 98 86t126 32q117 0 164 -93zM307 89q105 0 158 111l29 135q-3 58 -34 92t-87 34q-44 0 -80 -23.5
t-57 -60t-32 -77t-11 -77.5q0 -61 29 -97.5t85 -36.5z" />
    <glyph glyph-name="adieresis.ss02" horiz-adv-x="704" 
d="M263 794h127l-28 -133h-127zM525 794h127l-28 -133h-127zM527 470l24 78h118l-116 -548h-118l8 68q-77 -84 -185 -84q-93 0 -146 57t-53 158q0 136 80 246q39 54 98 86t126 32q117 0 164 -93zM307 89q105 0 158 111l29 135q-3 58 -34 92t-87 34q-44 0 -80 -23.5t-57 -60
t-32 -77t-11 -77.5q0 -61 29 -97.5t85 -36.5z" />
    <glyph glyph-name="agrave.ss02" horiz-adv-x="704" 
d="M404 829l75 -172h-101l-116 172h142zM527 470l24 78h118l-116 -548h-118l8 68q-77 -84 -185 -84q-93 0 -146 57t-53 158q0 136 80 246q39 54 98 86t126 32q117 0 164 -93zM307 89q105 0 158 111l29 135q-3 58 -34 92t-87 34q-44 0 -80 -23.5t-57 -60t-32 -77t-11 -77.5
q0 -61 29 -97.5t85 -36.5z" />
    <glyph glyph-name="amacron.ss02" horiz-adv-x="704" 
d="M263 755h371l-19 -91h-371zM527 470l24 78h118l-116 -548h-118l8 68q-77 -84 -185 -84q-93 0 -146 57t-53 158q0 136 80 246q39 54 98 86t126 32q117 0 164 -93zM307 89q105 0 158 111l29 135q-3 58 -34 92t-87 34q-44 0 -80 -23.5t-57 -60t-32 -77t-11 -77.5
q0 -61 29 -97.5t85 -36.5z" />
    <glyph glyph-name="aogonek.ss02" horiz-adv-x="706" 
d="M553 0l-73 -57q-27 -21 -37 -33.5t-10 -29.5q0 -41 56 -41h30l-15 -75h-57q-59 0 -92 26t-33 71q0 65 78 113l52 32l-1 78q-77 -84 -191 -84q-91 0 -145 57t-54 156q0 138 82 244q81 106 207 106q124 0 176 -102l27 87h117zM306 98q55 0 100.5 35.5t69.5 93.5l18 67
q1 6 1 25q0 66 -33.5 103.5t-88.5 37.5q-79 0 -129 -74t-50 -161q0 -61 29.5 -94t82.5 -33z" />
    <glyph glyph-name="aring.ss02" horiz-adv-x="704" 
d="M564 664q-44 -44 -111 -44t-111 44t-44 109q0 67 44 111q43 43 111 43t111 -43q44 -44 44 -111q0 -65 -44 -109zM512 834q-23 23 -59 23t-59 -23t-23 -61q0 -37 23 -60t59 -23t59 23t23 60q0 38 -23 61zM527 470l24 78h118l-116 -548h-118l8 68q-77 -84 -185 -84
q-93 0 -146 57t-53 158q0 136 80 246q39 54 98 86t126 32q117 0 164 -93zM307 89q105 0 158 111l29 135q-3 58 -34 92t-87 34q-44 0 -80 -23.5t-57 -60t-32 -77t-11 -77.5q0 -61 29 -97.5t85 -36.5z" />
    <glyph glyph-name="aringacute.ss02" horiz-adv-x="704" 
d="M539 1109h155l-152 -173h-114zM555 638q-44 -44 -111 -44t-111 44t-44 110q0 67 44 111q43 43 111 43t111 -43q44 -44 44 -111q0 -66 -44 -110zM503 809q-23 23 -59 23t-59 -23q-24 -23 -24 -61t24 -60q23 -22 59 -22t59 22q23 23 23 60q0 38 -23 61zM527 470l24 78h118
l-116 -548h-118l8 68q-77 -84 -185 -84q-93 0 -146 57t-53 158q0 136 80 246q39 54 98 86t126 32q117 0 164 -93zM307 89q105 0 158 111l29 135q-3 58 -34 92t-87 34q-44 0 -80 -23.5t-57 -60t-32 -77t-11 -77.5q0 -61 29 -97.5t85 -36.5z" />
    <glyph glyph-name="atilde.ss02" horiz-adv-x="704" 
d="M361 719q-23 0 -38.5 -20t-28.5 -64h-97q19 88 63 134.5t108 46.5t95 -43t60 -43q23 0 38.5 19.5t28.5 63.5h97q-19 -87 -63.5 -134t-108.5 -47q-34 0 -58 13.5t-34.5 30t-26.5 30t-35 13.5zM527 470l24 78h118l-116 -548h-118l8 68q-77 -84 -185 -84q-93 0 -146 57
t-53 158q0 136 80 246q39 54 98 86t126 32q117 0 164 -93zM307 89q105 0 158 111l29 135q-3 58 -34 92t-87 34q-44 0 -80 -23.5t-57 -60t-32 -77t-11 -77.5q0 -61 29 -97.5t85 -36.5z" />
    <glyph glyph-name="adieresis.ss01.ss02" horiz-adv-x="704" 
d="M316 655q-32 0 -53 20.5t-21 53.5t20.5 53t53.5 20t54 -20t21 -53t-21 -53.5t-54 -20.5zM571 655q-32 0 -53 20.5t-21 53.5t20.5 53t53.5 20t54 -20t21 -53t-21 -53.5t-54 -20.5zM527 470l24 78h118l-116 -548h-118l8 68q-77 -84 -185 -84q-93 0 -146 57t-53 158
q0 136 80 246q39 54 98 86t126 32q117 0 164 -93zM307 89q105 0 158 111l29 135q-3 58 -34 92t-87 34q-44 0 -80 -23.5t-57 -60t-32 -77t-11 -77.5q0 -61 29 -97.5t85 -36.5z" />
    <glyph glyph-name="uni021B.ss01.ss05" horiz-adv-x="482" 
d="M362 541l151 7l-19 -92l-148 7l-99 -463h-129l99 463l-152 -7l20 92l148 -7l36 168h129zM149 -80q39 0 61.5 -18.5t22.5 -52.5q0 -19 -4 -36l-6 -24q-19 -91 -144 -91h-29l11 51h32q36 0 52.5 11t21.5 38l2 8q-12 -4 -32 -4q-31 0 -49.5 15t-18.5 42q0 29 21 45t59 16z
" />
    <glyph glyph-name="udieresis.ss01.ss05" horiz-adv-x="677" 
d="M298 655q-32 0 -53 20.5t-21 53.5t20.5 53t53.5 20t54 -20t21 -53t-21 -53.5t-54 -20.5zM553 655q-32 0 -53 20.5t-21 53.5t20.5 53t53.5 20t54 -20t21 -53t-21 -53.5t-54 -20.5zM439 207l73 341h130l-117 -548h-120l10 71q-77 -86 -178 -86q-78 0 -121.5 42t-43.5 116
q0 32 7 59l74 346h130l-72 -336q-5 -28 -5 -39q0 -37 21.5 -58t60.5 -21q95 0 151 113z" />
    <glyph glyph-name="t.ss05" horiz-adv-x="482" 
d="M362 541l151 7l-19 -92l-148 7l-99 -463h-129l99 463l-152 -7l20 92l148 -7l36 168h129z" />
    <glyph glyph-name="tbar.ss05" horiz-adv-x="482" 
d="M513 548l-19 -92l-148 7l-33 -154l151 7l-19 -92l-149 7l-49 -231h-129l49 231l-151 -7l19 92l149 -7l33 154l-152 -7l20 92l148 -7l36 168h129l-36 -168z" />
    <glyph glyph-name="tcaron.ss05" horiz-adv-x="580" 
d="M456 620l120 292h138l-166 -292h-92zM269 709h129l-36 -168l151 7l-19 -92l-148 7l-99 -463h-129l99 463l-152 -7l20 92l148 -7z" />
    <glyph glyph-name="uni0163.ss05" horiz-adv-x="482" 
d="M362 541l151 7l-19 -92l-148 7l-99 -463h-129l99 463l-152 -7l20 92l148 -7l36 168h129zM69 -70h124q104 0 104 -84q0 -59 -48.5 -90t-137.5 -31h-85l14 68h74q86 0 86 47q0 28 -36 28h-108z" />
    <glyph glyph-name="uni021B.ss05" horiz-adv-x="482" 
d="M362 541l151 7l-19 -92l-148 7l-99 -463h-129l99 463l-152 -7l20 92l148 -7l36 168h129zM168 -175l-107 -22l22 104h161l-22 -101q-12 -58 -45.5 -83t-100.5 -25h-37l11 53h41q60 0 71 44z" />
    <glyph glyph-name="udieresis.ss01.ss06" horiz-adv-x="678" 
d="M298 655q-32 0 -53 20.5t-21 53.5t20.5 53t53.5 20t54 -20t21 -53t-21 -53.5t-54 -20.5zM553 655q-32 0 -53 20.5t-21 53.5t20.5 53t53.5 20t54 -20t21 -53t-21 -53.5t-54 -20.5zM292 -15q-105 0 -162 41t-57 119q0 28 8 71l71 332h130l-70 -333q-8 -37 -8 -52
q0 -74 98 -74q60 0 92 27.5t46 89.5l72 342h130l-73 -345q-24 -112 -90 -165t-187 -53z" />
    <glyph glyph-name="u.ss06" horiz-adv-x="678" 
d="M292 -15q-105 0 -162 41t-57 119q0 28 8 71l71 332h130l-70 -333q-8 -37 -8 -52q0 -74 98 -74q60 0 92 27.5t46 89.5l72 342h130l-73 -345q-24 -112 -90 -165t-187 -53z" />
    <glyph glyph-name="uacute.ss06" horiz-adv-x="678" 
d="M426 657h-114l111 172h155zM292 -15q-105 0 -162 41t-57 119q0 28 8 71l71 332h130l-70 -333q-8 -37 -8 -52q0 -74 98 -74q60 0 92 27.5t46 89.5l72 342h130l-73 -345q-24 -112 -90 -165t-187 -53z" />
    <glyph glyph-name="ubreve.ss06" horiz-adv-x="678" 
d="M418 648q-172 0 -172 119q0 15 5 47h83l-2 -22q0 -62 91 -62q105 0 124 84h90q-21 -86 -72 -126t-147 -40zM292 -15q-105 0 -162 41t-57 119q0 28 8 71l71 332h130l-70 -333q-8 -37 -8 -52q0 -74 98 -74q60 0 92 27.5t46 89.5l72 342h130l-73 -345q-24 -112 -90 -165
t-187 -53z" />
    <glyph glyph-name="ucircumflex.ss06" horiz-adv-x="678" 
d="M319 649h-122l180 182h121l106 -182h-106l-65 116zM292 -15q-105 0 -162 41t-57 119q0 28 8 71l71 332h130l-70 -333q-8 -37 -8 -52q0 -74 98 -74q60 0 92 27.5t46 89.5l72 342h130l-73 -345q-24 -112 -90 -165t-187 -53z" />
    <glyph glyph-name="udieresis.ss06" horiz-adv-x="678" 
d="M344 661h-127l28 133h127zM606 661h-127l28 133h127zM292 -15q-105 0 -162 41t-57 119q0 28 8 71l71 332h130l-70 -333q-8 -37 -8 -52q0 -74 98 -74q60 0 92 27.5t46 89.5l72 342h130l-73 -345q-24 -112 -90 -165t-187 -53z" />
    <glyph glyph-name="ugrave.ss06" horiz-adv-x="678" 
d="M461 657h-101l-116 172h142zM292 -15q-105 0 -162 41t-57 119q0 28 8 71l71 332h130l-70 -333q-8 -37 -8 -52q0 -74 98 -74q60 0 92 27.5t46 89.5l72 342h130l-73 -345q-24 -112 -90 -165t-187 -53z" />
    <glyph glyph-name="uhungarumlaut.ss06" horiz-adv-x="678" 
d="M323 640h-116l108 186h153zM578 640h-117l111 186h152zM292 -15q-105 0 -162 41t-57 119q0 28 8 71l71 332h130l-70 -333q-8 -37 -8 -52q0 -74 98 -74q60 0 92 27.5t46 89.5l72 342h130l-73 -345q-24 -112 -90 -165t-187 -53z" />
    <glyph glyph-name="umacron.ss06" horiz-adv-x="678" 
d="M598 664h-371l19 91h371zM292 -15q-105 0 -162 41t-57 119q0 28 8 71l71 332h130l-70 -333q-8 -37 -8 -52q0 -74 98 -74q60 0 92 27.5t46 89.5l72 342h130l-73 -345q-24 -112 -90 -165t-187 -53z" />
    <glyph glyph-name="uogonek.ss06" horiz-adv-x="678" 
d="M440 206l72 342h130l-73 -345q-35 -163 -164 -203l-101 -53q-53 -29 -53 -62q0 -40 55 -40h34l-16 -75h-66q-58 0 -90 26.5t-32 69.5q0 70 84 113l18 9q-80 10 -122.5 50t-42.5 107q0 28 8 71l71 332h130l-70 -333q-8 -37 -8 -52q0 -74 98 -74q60 0 92 27.5t46 89.5z" />
    <glyph glyph-name="uring.ss06" horiz-adv-x="678" 
d="M547 664q-44 -44 -111 -44t-111 44t-44 109q0 67 44 111q43 43 111 43t111 -43q44 -44 44 -111q0 -65 -44 -109zM377 713q23 -23 59 -23t59 23t23 60q0 38 -23 61t-59 23t-59 -23t-23 -61q0 -37 23 -60zM292 -15q-105 0 -162 41t-57 119q0 28 8 71l71 332h130l-70 -333
q-8 -37 -8 -52q0 -74 98 -74q60 0 92 27.5t46 89.5l72 342h130l-73 -345q-24 -112 -90 -165t-187 -53z" />
    <glyph glyph-name="utilde.ss06" horiz-adv-x="678" 
d="M277 635h-97q19 88 63 134.5t108 46.5t95 -43t60 -43q23 0 38.5 19.5t28.5 63.5h97q-19 -87 -63.5 -134t-108.5 -47q-34 0 -58 13.5t-34.5 30t-26.5 30t-35 13.5q-23 0 -38.5 -20t-28.5 -64zM292 -15q-105 0 -162 41t-57 119q0 28 8 71l71 332h130l-70 -333
q-8 -37 -8 -52q0 -74 98 -74q60 0 92 27.5t46 89.5l72 342h130l-73 -345q-24 -112 -90 -165t-187 -53z" />
    <glyph glyph-name="ydieresis.ss01.ss07" horiz-adv-x="616" 
d="M261 655q-32 0 -53 20.5t-21 53.5t20.5 53t53.5 20t54 -20t21 -53t-21 -53.5t-54 -20.5zM516 655q-32 0 -53 20.5t-21 53.5t20.5 53t53.5 20t54 -20t21 -53t-21 -53.5t-54 -20.5zM266 137l217 411h138l-439 -752h-123l119 191l-100 561h134l53 -405q0 -1 0.5 -3t0.5 -3z
" />
    <glyph glyph-name="y.ss07" horiz-adv-x="616" 
d="M266 137l217 411h138l-439 -752h-123l119 191l-100 561h134l53 -405q0 -1 0.5 -3t0.5 -3z" />
    <glyph glyph-name="yacute.ss07" horiz-adv-x="616" 
d="M386 829h155l-152 -172h-114zM266 137l217 411h138l-439 -752h-123l119 191l-100 561h134l53 -405q0 -1 0.5 -3t0.5 -3z" />
    <glyph glyph-name="ycircumflex.ss07" horiz-adv-x="616" 
d="M460 649l-65 116l-114 -116h-122l180 182h121l106 -182h-106zM266 137l217 411h138l-439 -752h-123l119 191l-100 561h134l53 -405q0 -1 0.5 -3t0.5 -3z" />
    <glyph glyph-name="ydieresis.ss07" horiz-adv-x="616" 
d="M208 794h127l-28 -133h-127zM470 794h127l-28 -133h-127zM266 137l217 411h138l-439 -752h-123l119 191l-100 561h134l53 -405q0 -1 0.5 -3t0.5 -3z" />
    <glyph glyph-name="ygrave.ss07" horiz-adv-x="616" 
d="M349 829l75 -172h-101l-116 172h142zM266 137l217 411h138l-439 -752h-123l119 191l-100 561h134l53 -405q0 -1 0.5 -3t0.5 -3z" />
    <glyph glyph-name="l.ss08" horiz-adv-x="415" 
d="M318 0h-104q-150 0 -150 116q0 20 6 47l129 605h130l-122 -571q-8 -40 -8 -48q0 -44 57 -44h85z" />
    <glyph glyph-name="lacute.ss08" horiz-adv-x="415" 
d="M303 877h-114l111 172h155zM318 0h-104q-150 0 -150 116q0 20 6 47l129 605h130l-122 -571q-8 -40 -8 -48q0 -44 57 -44h85z" />
    <glyph glyph-name="lcaron.ss08" horiz-adv-x="510" 
d="M318 0h-104q-150 0 -150 116q0 20 6 47l129 605h130l-122 -571q-8 -40 -8 -48q0 -44 57 -44h85zM449 476h-92l120 292h138z" />
    <glyph glyph-name="uni013C.ss08" horiz-adv-x="415" 
d="M318 0h-104q-150 0 -150 116q0 20 6 47l129 605h130l-122 -571q-8 -40 -8 -48q0 -44 57 -44h85zM-7 -303h-37l11 53h41q60 0 71 44l6 30l-107 -22l22 104h161l-22 -101q-12 -58 -45.5 -83t-100.5 -25z" />
    <glyph glyph-name="ldot.ss08" horiz-adv-x="514" 
d="M318 0h-104q-150 0 -150 116q0 20 6 47l129 605h130l-122 -571q-8 -40 -8 -48q0 -44 57 -44h85zM484 304h-156l33 157h156z" />
    <glyph glyph-name="lslash.ss08" horiz-adv-x="535" 
d="M495 429l-150 -56l-38 -176q-8 -40 -8 -48q0 -44 57 -44h85l-23 -105h-104q-150 0 -150 116q0 20 6 47l30 141l-144 -76l24 116l140 51l79 373h130l-65 -305l155 82z" />
    <glyph glyph-name="uni013C.ss01.ss08" horiz-adv-x="415" 
d="M256 105h85l-23 -105h-104q-150 0 -150 116q0 20 6 47l129 605h130l-122 -571q-8 -40 -8 -48q0 -44 57 -44zM66 -81q39 0 61.5 -18.5t22.5 -52.5q0 -19 -4 -36l-6 -24q-19 -91 -144 -91h-29l11 51h32q36 0 52.5 11t21.5 38l2 8q-12 -4 -32 -4q-31 0 -49.5 15t-18.5 42
q0 29 21 45t59 16z" />
    <glyph glyph-name="ldot.ss01.ss08" horiz-adv-x="529" 
d="M318 0h-104q-150 0 -150 116q0 20 6 47l129 605h130l-122 -571q-8 -40 -8 -48q0 -44 57 -44h85zM432 300q-38 0 -62 23.5t-24 59.5q0 37 24 60t62 23t62 -23t24 -60q0 -36 -24.5 -59.5t-61.5 -23.5z" />
    <glyph glyph-name="fi.ss01" horiz-adv-x="809" 
d="M692 790q23 22 57.5 22t56.5 -22t22 -56q0 -35 -22 -57t-57 -22t-57.5 22t-22.5 57q0 33 23 56zM351 610l-23 -70l186 8l-19 -91l-181 8l-5 -55l-88 -410h-130l88 411l19 53l-133 -7l20 91l130 -7l5 63q19 89 62 127q41 37 134 37h147l-19 -89h-115q-35 0 -52.5 -16
t-25.5 -53zM657 0h-130l117 548h130z" />
    <glyph glyph-name="fl.ss08" horiz-adv-x="907" 
d="M544 679h-115q-35 0 -52.5 -16t-25.5 -53l-23 -70l186 8l-19 -91l-181 8l-5 -55l-88 -410h-130l88 411l19 53l-133 -7l20 91l130 -7l5 63q19 89 62 127q41 37 134 37h147zM748 105h85l-23 -105h-104q-150 0 -150 116q0 20 6 47l129 605h130l-122 -571q-8 -40 -8 -48
q0 -44 57 -44z" />
    <glyph glyph-name="ordfeminine.ss02" horiz-adv-x="622" 
d="M511 717l20 51h103l-85 -399h-95l-3 51q-61 -58 -154 -58q-79 0 -125.5 44.5t-46.5 121.5q0 107 73 180q72 74 179 74q95 0 134 -65zM337 453q83 0 129 66l23 107q-23 66 -103 66q-64 0 -104 -43t-40 -104q0 -44 25 -68t70 -24z" />
    <glyph glyph-name="t.sups.ss05" horiz-adv-x="415" 
d="M368 762l125 6l-20 -96l-123 5l-65 -308h-114l66 308l-126 -5l21 96l123 -6l26 123h113z" />
    <glyph glyph-name="zero.ss09" horiz-adv-x="1379" 
d="M1194 -88h-962v941h962v-941zM543 203q60 -68 170 -68t170 68q60 67 60 192q0 123 -60 190.5t-170 67.5t-170.5 -67.5t-60.5 -190.5q0 -125 61 -192zM809 265q-35 -44 -96 -44t-96 44q-34 43 -34 130q0 84 33.5 128.5t96.5 44.5q62 0 95.5 -44.5t33.5 -128.5
q0 -87 -33 -130z" />
    <glyph glyph-name="one.ss09" horiz-adv-x="1379" 
d="M1194 -88h-962v941h962v-941zM701 449v-304h101v498h-101v-43q0 -35 -20 -50.5t-62 -15.5h-72v-85h154z" />
    <glyph glyph-name="two.ss09" horiz-adv-x="1379" 
d="M232 -88v941h962v-941h-962zM488 145h446v88h-321q1 47 87 75l84 28q139 46 139 158q0 77 -55 118t-154 41q-97 0 -154.5 -45t-67.5 -122l98 -12q13 94 121 94q54 0 83 -20t29 -56q0 -53 -74 -80l-101 -36q-83 -29 -121.5 -84.5t-38.5 -146.5z" />
    <glyph glyph-name="three.ss09" horiz-adv-x="1379" 
d="M1194 -88h-962v941h962v-941zM713 132q101 0 160 43t59 115q0 93 -95 116v2q80 27 80 108q0 65 -56 101.5t-147 36.5q-88 0 -144.5 -36t-72.5 -101l95 -14q20 72 118 72q108 0 108 -68q0 -65 -105 -65h-45v-82h49q111 0 111 -69q0 -35 -29.5 -55t-83.5 -20
q-55 0 -84.5 22t-39.5 70l-97 -15q12 -78 68 -119.5t151 -41.5z" />
    <glyph glyph-name="four.ss09" horiz-adv-x="1379" 
d="M1194 -88h-962v941h962v-941zM760 269v-124h102v124l79 -9v87l-79 -10v306h-118l-272 -291v-92zM760 337l-185 7l182 194h3v-201z" />
    <glyph glyph-name="five.ss09" horiz-adv-x="1379" 
d="M232 -88v941h962v-941h-962zM712 140q105 0 164.5 48.5t59.5 132.5q0 78 -52.5 121t-145.5 43q-75 0 -125 -28l-2 2l22 109h279v81h-352l-53 -258l93 -25q43 43 117 43q55 0 86.5 -23t31.5 -66t-33 -68.5t-88 -25.5q-91 0 -124 62l-96 -39q28 -52 85 -80.5t133 -28.5z
" />
    <glyph glyph-name="six.ss09" horiz-adv-x="1379" 
d="M1194 -88h-962v941h962v-941zM724 135q98 0 155.5 48t57.5 129q0 73 -51.5 117.5t-140.5 44.5q-99 0 -151 -57q4 81 36.5 119t96.5 38q75 0 109 -51l87 31q-55 100 -196 100q-116 0 -176.5 -71t-60.5 -199q0 -115 62 -182t172 -67zM725 214q-52 0 -85 27.5t-43 80.5
q15 36 49.5 58t78.5 22q52 0 83 -24.5t31 -66.5q0 -44 -31.5 -70.5t-82.5 -26.5z" />
    <glyph glyph-name="seven.ss09" horiz-adv-x="1379" 
d="M1194 -88h-962v941h962v-941zM611 142h101q6 253 216 410v88h-424v-87h303q-88 -74 -140 -186q-55 -114 -56 -225z" />
    <glyph glyph-name="eight.ss09" horiz-adv-x="1379" 
d="M1194 -88h-962v941h962v-941zM543 177q62 -40 170 -40t170 40q63 40 63 113q0 46 -27 78t-72 42v1q37 13 59.5 42t22.5 67q0 66 -56.5 101t-159.5 35q-102 0 -158 -35.5t-56 -100.5q0 -39 22.5 -68.5t58.5 -40.5v-1q-46 -10 -73.5 -42.5t-27.5 -77.5q0 -73 64 -113z
M713 446q-119 0 -119 67q0 65 119 65t119 -65q0 -35 -28.5 -51t-90.5 -16zM713 216q-62 0 -97 20.5t-35 57.5q0 76 132 76q133 0 133 -76q0 -37 -35 -57.5t-98 -20.5z" />
    <glyph glyph-name="nine.ss09" horiz-adv-x="1379" 
d="M1194 -88h-962v941h962v-941zM704 135q115 0 175.5 70.5t60.5 199.5q0 116 -61.5 182.5t-171.5 66.5q-98 0 -156 -48t-58 -128q0 -73 51.5 -117.5t140.5 -44.5q99 0 152 57q-4 -81 -36.5 -119t-96.5 -38q-74 0 -109 51l-88 -30q55 -102 197 -102zM706 387
q-52 0 -83.5 24.5t-31.5 66.5q0 44 32 70.5t83 26.5q107 0 127 -107q-14 -36 -48.5 -58.5t-78.5 -22.5z" />
    <glyph glyph-name="zero.ss10" horiz-adv-x="1379" 
d="M1194 -88h-962v941h962v-941zM334 760v-755h757v755h-757zM883 203q-60 -68 -170 -68t-170 68q-61 67 -61 192q0 123 60.5 190.5t170.5 67.5t170 -67.5t60 -190.5q0 -125 -60 -192zM617 265q35 -44 96 -44t96 44q33 43 33 130q0 84 -33.5 128.5t-95.5 44.5
q-63 0 -96.5 -44.5t-33.5 -128.5q0 -87 34 -130z" />
    <glyph glyph-name="one.ss10" horiz-adv-x="1379" 
d="M1194 -88h-962v941h962v-941zM334 760v-755h757v755h-757zM802 145h-102v304h-154v85h72q42 0 62 15.5t20 50.5v43h102v-498z" />
    <glyph glyph-name="two.ss10" horiz-adv-x="1379" 
d="M1194 -88h-962v941h962v-941zM334 760v-755h757v755h-757zM937 145h-446q0 91 38.5 146.5t121.5 84.5l100 36q74 27 74 80q0 76 -111 76q-108 0 -121 -94l-98 13q9 77 67 121.5t155 44.5q99 0 154 -41t55 -118q0 -112 -139 -158l-85 -28q-85 -29 -86 -75h321v-88z" />
    <glyph glyph-name="three.ss10" horiz-adv-x="1379" 
d="M1194 -88h-962v941h962v-941zM334 760v-755h757v755h-757zM709 132q-95 0 -151 41.5t-68 119.5l98 15q10 -48 39.5 -70t84.5 -22q54 0 83.5 20t29.5 55q0 69 -111 69h-50v82h45q106 0 106 65q0 68 -108 68q-98 0 -119 -72l-95 14q17 66 73 101.5t145 35.5q90 0 146 -36.5
t56 -101.5q0 -81 -79 -108v-2q94 -22 94 -116q0 -73 -58.5 -115.5t-160.5 -42.5z" />
    <glyph glyph-name="four.ss10" horiz-adv-x="1379" 
d="M1194 -88h-962v941h962v-941zM334 760v-755h757v755h-757zM865 144h-102v123l-288 -8v92l272 291h118v-306l79 10v-87l-79 8v-123zM761 536l-182 -194l184 -6v200h-2z" />
    <glyph glyph-name="five.ss10" horiz-adv-x="1379" 
d="M1194 -88h-962v941h962v-941zM334 760v-755h757v755h-757zM710 136q-77 0 -134 28.5t-84 80.5l95 39q35 -62 125 -62q55 0 88 25.5t33 68.5q0 42 -31.5 65.5t-86.5 23.5q-71 0 -117 -43l-93 24l53 258h352v-80h-279l-22 -110l2 -1q50 28 125 28q93 0 145.5 -43.5
t52.5 -121.5q0 -84 -59.5 -132t-164.5 -48z" />
    <glyph glyph-name="six.ss10" horiz-adv-x="1379" 
d="M1194 -88h-962v941h962v-941zM334 760v-755h757v755h-757zM726 130q-110 0 -171.5 66.5t-61.5 181.5q0 130 60.5 200t176.5 70q141 0 196 -100l-87 -31q-35 51 -109 51q-65 0 -97.5 -38t-35.5 -119q49 57 151 57q89 0 140.5 -44.5t51.5 -117.5q0 -80 -58 -128t-156 -48z
M727 209q51 0 82.5 26t31.5 70q0 42 -30.5 66.5t-82.5 24.5q-44 0 -78.5 -22t-49.5 -58q20 -107 127 -107z" />
    <glyph glyph-name="seven.ss10" horiz-adv-x="1379" 
d="M1194 -88h-962v941h962v-941zM334 760v-755h757v755h-757zM714 141h-102q1 111 56 225q54 112 141 186h-303v87h424v-88q-211 -159 -216 -410z" />
    <glyph glyph-name="eight.ss10" horiz-adv-x="1379" 
d="M1194 -88h-962v941h962v-941zM334 760v-755h757v755h-757zM883 173q-62 -40 -170 -40t-170 40q-64 40 -64 113q0 45 27.5 77t73.5 43v1q-36 11 -58.5 40.5t-22.5 67.5q0 66 56 101.5t158 35.5q103 0 159.5 -35.5t56.5 -101.5q0 -37 -22.5 -66t-59.5 -42v-1
q46 -11 72.5 -43t26.5 -77q0 -72 -63 -113zM713 442q62 0 90.5 16t28.5 51q0 65 -119 65t-119 -65q0 -67 119 -67zM713 212q63 0 98 20.5t35 56.5q0 77 -133 77q-132 0 -132 -77q0 -36 35 -56.5t97 -20.5z" />
    <glyph glyph-name="nine.ss10" horiz-adv-x="1379" 
d="M1194 -88h-962v941h962v-941zM334 760v-755h757v755h-757zM704 132q-141 0 -197 101l88 31q34 -52 109 -52q64 0 96.5 38t36.5 119q-54 -57 -153 -57q-87 0 -139.5 44.5t-52.5 117.5q0 80 58 128t157 48q110 0 171.5 -66.5t61.5 -181.5q0 -129 -60.5 -199.5t-175.5 -70.5
zM706 384q43 0 77.5 22t49.5 59q-19 106 -127 106q-51 0 -83 -26t-32 -70q0 -42 31 -66.5t84 -24.5z" />
    <glyph glyph-name="zero.zero" horiz-adv-x="757" 
d="M471 783q118 0 182 -71t64 -203q0 -67 -16 -138q-40 -197 -130.5 -292t-238.5 -95q-116 0 -180 71.5t-64 202.5q0 64 15 139q40 196 131 291t237 95zM232 386q-15 -76 -15 -132q0 -48 12 -83l307 480q-29 21 -76 21q-170 0 -228 -286zM572 382q16 80 16 132q0 53 -13 85
l-309 -482q28 -22 76 -22q171 0 230 287z" />
    <glyph glyph-name="zero.dnom" horiz-adv-x="526" 
d="M220 -8q-85 0 -133 48.5t-48 134.5q0 29 6 62q21 109 84 166.5t159 57.5q84 0 132 -48.5t48 -132.5q0 -31 -6 -64q-21 -109 -83.5 -166.5t-158.5 -57.5zM227 70q53 0 89.5 35t51.5 103q8 37 8 69q0 52 -25 79.5t-70 27.5q-57 0 -95 -40.5t-50 -117.5q-5 -33 -5 -49
q0 -53 25 -80t71 -27z" />
    <glyph glyph-name="one.dnom" horiz-adv-x="373" 
d="M221 0h-92l58 276h-140l16 77h67q74 0 87 61l8 39h92z" />
    <glyph glyph-name="two.dnom" horiz-adv-x="511" 
d="M403 0h-400q17 159 177 210l105 33q85 28 85 80q0 29 -23.5 45.5t-67.5 16.5q-96 0 -126 -84l-84 22q25 66 81 102.5t138 36.5q80 0 127 -34.5t47 -94.5q0 -113 -162 -160l-83 -24q-84 -25 -93 -70h296z" />
    <glyph glyph-name="three.dnom" horiz-adv-x="508" 
d="M212 -12q-87 0 -135 38t-52 106l89 15q6 -83 103 -83q51 0 82.5 22t31.5 56q0 53 -90 53h-38l16 75h34q52 0 81 17.5t29 47.5q0 55 -89 55q-87 0 -119 -65l-85 13q21 58 77.5 91t136.5 33q76 0 123 -30t47 -83q0 -40 -26 -70.5t-68 -39.5l-1 -2q67 -22 67 -91
q0 -70 -59 -114t-155 -44z" />
    <glyph glyph-name="four.dnom" horiz-adv-x="493" 
d="M329 0h-92l24 112l-264 -8l18 84l303 265h107l-59 -279l73 9l-17 -79l-69 8zM310 358l-203 -177l167 -7l38 183z" />
    <glyph glyph-name="five.dnom" horiz-adv-x="509" 
d="M209 -9q-70 0 -119 26.5t-70 72.5l86 35q27 -58 107 -58q55 0 91 28t36 70q0 33 -25 51.5t-67 18.5q-67 0 -109 -39l-79 34l92 223h320l-16 -73h-253l-41 -101l1 -1q50 26 115 26q74 0 115 -35t41 -98q0 -79 -63 -129q-63 -51 -162 -51z" />
    <glyph glyph-name="six.dnom" horiz-adv-x="525" 
d="M227 -10q-85 0 -134 47.5t-49 130.5q0 123 74 209q73 85 190 85q118 0 162 -84l-78 -34q-30 46 -93 46q-116 0 -155 -146q65 56 156 56q68 0 107 -35.5t39 -93.5q0 -77 -61 -129t-158 -52zM235 60q51 0 85.5 29.5t34.5 71.5q0 33 -23.5 52.5t-63.5 19.5t-76.5 -20.5
t-57.5 -54.5q1 -47 28 -72.5t73 -25.5z" />
    <glyph glyph-name="seven.dnom" horiz-adv-x="450" 
d="M163 0h-93q24 101 95 204q70 102 163 169h-275l17 80h386l-18 -81q-223 -144 -275 -372z" />
    <glyph glyph-name="eight.dnom" horiz-adv-x="528" 
d="M216 -10q-91 0 -144 33.5t-53 90.5q0 46 32.5 80t84.5 44v1q-56 26 -56 84q0 63 59.5 101t159.5 38q84 0 131 -29t47 -79q0 -40 -27 -72.5t-71 -42.5v-1q71 -29 71 -95q0 -68 -65 -110q-65 -43 -169 -43zM265 271q122 0 122 66q0 54 -98 54q-58 0 -89.5 -18t-31.5 -51
q0 -51 97 -51zM223 62q61 0 97.5 21.5t36.5 57.5q0 60 -110 60q-63 0 -98.5 -19.5t-35.5 -54.5q0 -31 29 -48t81 -17z" />
    <glyph glyph-name="nine.dnom" horiz-adv-x="525" 
d="M196 -11q-118 0 -162 84l78 34q31 -46 93 -46q116 0 155 146q-65 -56 -156 -56q-68 0 -107 35.5t-39 93.5q0 77 61 129t158 52q85 0 134 -47.5t49 -130.5q0 -123 -74 -209q-73 -85 -190 -85zM173 238q34 -32 102 -14t95 69q-1 47 -28 72.5t-73 25.5q-51 0 -85.5 -29.5
t-34.5 -71.5q0 -32 24 -52z" />
    <glyph glyph-name="zero.numr" horiz-adv-x="526" 
d="M292 328q-85 0 -133 48.5t-48 134.5q0 29 6 62q20 109 83 166.5t160 57.5q84 0 132 -48.5t48 -132.5q0 -31 -6 -64q-21 -109 -83.5 -166.5t-158.5 -57.5zM299 406q52 0 88.5 35t51.5 102q9 40 9 70q0 51 -25 78.5t-70 27.5q-57 0 -95 -40t-51 -117q-4 -21 -4 -49
q0 -53 25 -80t71 -27z" />
    <glyph glyph-name="one.numr" horiz-adv-x="373" 
d="M293 336h-93l59 276h-140l16 77h66q76 0 87 61l8 39h93z" />
    <glyph glyph-name="two.numr" horiz-adv-x="511" 
d="M475 336h-400q17 160 177 210l105 33q85 28 85 80q0 62 -92 62q-95 0 -125 -84l-84 22q25 66 81 102.5t138 36.5q80 0 127 -34.5t47 -94.5q0 -113 -162 -160l-83 -24q-82 -25 -94 -70h297z" />
    <glyph glyph-name="three.numr" horiz-adv-x="508" 
d="M284 324q-86 0 -134.5 38t-53.5 106l89 15q6 -83 103 -83q51 0 82.5 22t31.5 56q0 53 -89 53h-38l15 74h35q51 0 80.5 18t29.5 48q0 55 -89 55q-87 0 -119 -65l-85 13q20 58 77 91t137 33q76 0 123 -30t47 -83q0 -40 -26 -71t-68 -39l-1 -2q67 -22 67 -91q0 -70 -59 -114
t-155 -44z" />
    <glyph glyph-name="four.numr" horiz-adv-x="493" 
d="M401 336h-93l24 112l-264 -8l19 84l303 265h107l-59 -279l73 9l-17 -79l-69 8zM382 693l-203 -177l167 -6l38 182z" />
    <glyph glyph-name="five.numr" horiz-adv-x="509" 
d="M281 327q-70 0 -119.5 26.5t-70.5 72.5l87 35q27 -58 107 -58q55 0 91 28t36 70q0 33 -25 51.5t-68 18.5q-66 0 -108 -39l-79 33l92 224h320l-16 -73h-253l-41 -101l1 -1q50 26 115 26q74 0 115 -36t41 -97q0 -79 -63 -129q-63 -51 -162 -51z" />
    <glyph glyph-name="six.numr" horiz-adv-x="525" 
d="M299 326q-85 0 -134 47t-49 130q0 124 74 210q73 85 190 85q56 0 98.5 -22.5t63.5 -61.5l-79 -34q-30 46 -93 46q-115 0 -154 -146q65 56 155 56q68 0 107.5 -35.5t39.5 -93.5q0 -77 -61 -129t-158 -52zM307 396q51 0 85 29.5t34 71.5q0 33 -23 52t-63 19q-41 0 -77 -20
t-57 -54q1 -47 28 -72.5t73 -25.5z" />
    <glyph glyph-name="seven.numr" horiz-adv-x="450" 
d="M235 336h-93q24 100 95 205q71 103 163 168h-275l17 80h385l-17 -81q-222 -143 -275 -372z" />
    <glyph glyph-name="eight.numr" horiz-adv-x="528" 
d="M288 326q-91 0 -144 33.5t-53 90.5q0 45 32.5 79t84.5 45v1q-56 26 -56 84q0 63 59.5 101t158.5 38q84 0 131.5 -29t47.5 -79q0 -40 -27 -72.5t-71 -42.5v-1q70 -28 70 -96t-65 -110q-64 -42 -168 -42zM336 606q123 0 123 67q0 54 -99 54q-57 0 -89 -18.5t-32 -50.5
q0 -52 97 -52zM295 398q61 0 97.5 21t36.5 57q0 61 -110 61q-63 0 -98.5 -20t-35.5 -55q0 -64 110 -64z" />
    <glyph glyph-name="nine.numr" horiz-adv-x="525" 
d="M282 325q-118 0 -162 83l78 35q30 -46 93 -46q116 0 155 146q-65 -56 -156 -56q-68 0 -107 35t-39 93q0 78 61 130t158 52q84 0 133 -47t49 -131q0 -124 -73 -209t-190 -85zM321 554q41 0 77.5 20.5t57.5 54.5q-1 47 -28 72t-73 25q-52 0 -86 -29t-34 -72q0 -33 23.5 -52
t62.5 -19z" />
    <glyph glyph-name="zero.tf" horiz-adv-x="757" 
d="M331 -16q-116 0 -180 71.5t-64 202.5q0 64 15 139q40 196 131 291t237 95q118 0 182 -71t64 -203q0 -67 -16 -138q-40 -197 -130.5 -292t-238.5 -95zM341 95q171 0 230 287q16 80 16 132q0 158 -128 158q-170 0 -228 -286q-15 -76 -15 -132q0 -159 125 -159z" />
    <glyph glyph-name="one.tf" horiz-adv-x="757" 
d="M572 768l-140 -655h189l-24 -113h-509l24 113h188l88 410h-189l19 90h16q95 0 151 35q46 31 77 109l5 11h105z" />
    <glyph glyph-name="two.tf" horiz-adv-x="757" 
d="M616 0h-587q23 108 86 180q63 73 194 141l124 63q81 41 115.5 81t34.5 99q0 49 -32 77t-89 28q-143 0 -177 -142l-2 -12h-128l2 12q61 256 321 256q108 0 175 -56q65 -56 65 -148q0 -105 -60 -169q-59 -64 -189 -130l-82 -42q-75 -40 -107 -66t-42 -56h402z" />
    <glyph glyph-name="three.tf" horiz-adv-x="757" 
d="M340 -15q-122 0 -192.5 60.5t-70.5 165.5q0 19 1 25l130 11q-1 -5 -1 -22q0 -62 36.5 -95t106.5 -33q79 0 127.5 44t48.5 115q0 48 -32.5 74t-94.5 26h-69l21 100h69q72 0 115.5 34.5t43.5 93.5q0 43 -31.5 67t-87.5 24q-135 0 -180 -128l-124 13q35 110 115.5 167.5
t200.5 57.5q110 0 174 -50t64 -134q0 -149 -161 -193v-3q112 -34 112 -148q0 -129 -87 -200q-87 -72 -234 -72z" />
    <glyph glyph-name="four.tf" horiz-adv-x="757" 
d="M676 768l-105 -492l116 12l-22 -106l-112 12l-41 -194h-122l41 194l-379 -12l23 105l445 481h156zM205 286l244 -10l76 354h-3z" />
    <glyph glyph-name="five.tf" horiz-adv-x="757" 
d="M329 -13q-116 0 -186 59q-70 58 -70 159l134 12q1 -58 36.5 -88.5t96.5 -30.5q86 0 140 57t54 140q0 54 -33.5 84t-96.5 30q-82 0 -149 -58l-126 15l155 402h456l-25 -118h-348l-73 -186l2 -2q71 49 155 49q103 0 160 -56t57 -150q0 -144 -93 -231q-95 -87 -246 -87z" />
    <glyph glyph-name="six.tf" horiz-adv-x="757" 
d="M455 503q97 0 155 -56.5t58 -150.5q0 -139 -86 -225q-87 -87 -227 -87q-125 0 -192 75q-68 74 -68 197q0 54 15 122q37 182 122 290q90 115 261 115q104 0 166 -46.5t68 -128.5l-121 -14q-10 84 -123 84q-88 0 -145.5 -62.5t-92.5 -203.5q82 91 210 91zM360 95
q81 0 130 55q48 54 48 134q0 57 -30.5 87.5t-87.5 30.5q-64 0 -117 -36.5t-80 -100.5q-2 -20 -2 -30q0 -66 37.5 -103t101.5 -37z" />
    <glyph glyph-name="seven.tf" horiz-adv-x="757" 
d="M317 0h-143q116 381 399 646h-401l26 122h571l-22 -104q-312 -262 -430 -664z" />
    <glyph glyph-name="eight.tf" horiz-adv-x="757" 
d="M332 -16q-116 0 -192 56q-76 55 -76 151q0 87 54.5 148.5t145.5 80.5v2q-95 39 -95 138q0 108 84 166q85 59 220 59q113 0 179.5 -49.5t66.5 -133.5q0 -69 -42.5 -118t-121.5 -73v-2q56 -17 87 -57.5t31 -97.5q0 -128 -97 -198q-98 -72 -244 -72zM421 458q75 0 123 37
t48 96q0 92 -127 92q-78 0 -125 -35.5t-47 -97.5q0 -92 128 -92zM339 91q87 0 144 45q56 45 56 118q0 50 -38 78.5t-107 28.5q-88 0 -141.5 -44t-53.5 -118q0 -51 36 -79.5t104 -28.5z" />
    <glyph glyph-name="nine.tf" horiz-adv-x="757" 
d="M451 784q124 0 192 -74q68 -76 68 -198q0 -54 -15 -122q-37 -182 -121 -289q-92 -116 -262 -116q-104 0 -166 46.5t-68 128.5l121 14q10 -84 123 -84q88 0 145.5 62.5t92.5 203.5q-82 -91 -210 -91q-97 0 -155 56.5t-58 150.5q0 139 87 226q86 86 226 86zM583 503
q1 10 1 30q0 66 -37 103t-101 37q-81 0 -129 -54q-49 -55 -49 -135q0 -57 30.5 -87.5t87.5 -30.5q64 0 117 36.5t80 100.5z" />
    <glyph glyph-name="zero.tf.zero" horiz-adv-x="757" 
d="M461 783q118 0 182 -71t64 -203q0 -67 -16 -138q-40 -197 -130.5 -292t-238.5 -95q-116 0 -180 71.5t-64 202.5q0 64 15 139q40 196 131 291t237 95zM222 386q-15 -76 -15 -132q0 -48 12 -83l307 480q-28 21 -76 21q-170 0 -228 -286zM562 382q16 80 16 132q0 53 -13 85
l-309 -482q28 -22 76 -22q171 0 230 287z" />
    <glyph glyph-name="period.ss01" horiz-adv-x="372" 
d="M209 12q-25 -25 -64 -25t-65 25q-26 26 -26 63q0 39 25.5 63.5t64.5 24.5t64.5 -24.5t25.5 -63.5q0 -38 -25 -63z" />
    <glyph glyph-name="comma.ss01" horiz-adv-x="395" 
d="M156 166q47 0 71.5 -26.5t24.5 -74.5q0 -26 -10 -73l-7 -33q-15 -74 -66 -116t-128 -42h-23l16 71h19q48 0 72.5 21t34.5 68l4 20h-14q-45 0 -71.5 23t-26.5 63q0 43 28 71t76 28z" />
    <glyph glyph-name="colon.ss01" horiz-adv-x="358" 
d="M290 392q-26 -25 -65 -25t-64 25q-26 26 -26 64t25.5 62.5t64.5 24.5t64.5 -24.5t25.5 -62.5q0 -39 -25 -64zM145 -13q-40 0 -65 25t-25 63q0 39 25 63.5t65 24.5q39 0 64.5 -24.5t25.5 -63.5q0 -38 -25.5 -63t-64.5 -25z" />
    <glyph glyph-name="semicolon.ss01" horiz-adv-x="358" 
d="M161 519q25 24 64.5 24t64.5 -24q25 -25 25 -63q0 -39 -25.5 -64t-64.5 -25t-64.5 25t-25.5 64q0 37 26 63zM156 166q47 0 71.5 -26.5t24.5 -74.5q0 -26 -10 -73l-7 -33q-15 -74 -66 -116t-128 -42h-23l16 71h19q48 0 72.5 21t34.5 68l4 20h-14q-45 0 -71.5 23t-26.5 63
q0 43 28 71t76 28z" />
    <glyph glyph-name="ellipsis.ss01" horiz-adv-x="1116" 
d="M209 12q-25 -25 -64 -25t-65 25q-26 26 -26 63q0 39 25.5 63.5t64.5 24.5t64.5 -24.5t25.5 -63.5q0 -38 -25 -63zM581 12q-25 -25 -64 -25t-65 25q-26 26 -26 63q0 39 25.5 63.5t64.5 24.5t64.5 -24.5t25.5 -63.5q0 -38 -25 -63zM953 12q-25 -25 -64 -25t-65 25
q-26 26 -26 63q0 39 25.5 63.5t64.5 24.5t64.5 -24.5t25.5 -63.5q0 -38 -25 -63z" />
    <glyph glyph-name="exclam.ss01" horiz-adv-x="346" 
d="M172 218h-65l34 314l50 236h130l-50 -236zM109 -13q-37 0 -61 23t-24 60q0 36 24 58.5t61 22.5q36 0 59.5 -22.5t23.5 -58.5q0 -37 -23.5 -60t-59.5 -23z" />
    <glyph glyph-name="exclamdown.ss01" horiz-adv-x="346" 
d="M196 401q-36 0 -60 22.5t-24 58.5t24 59.5t60 23.5q37 0 60.5 -23t23.5 -60q0 -36 -23.5 -58.5t-60.5 -22.5zM114 -204h-130l51 236l96 302h65l-32 -302z" />
    <glyph glyph-name="question.ss01" horiz-adv-x="735" 
d="M401 215h-131l8 36q15 71 54.5 115.5t122.5 79.5q68 30 96 58.5t28 67.5q0 99 -142 99q-76 0 -120.5 -32t-63.5 -100l-127 20q60 223 318 223q127 0 199 -51.5t72 -143.5q0 -132 -160 -210l-57 -28q-43 -22 -63 -45.5t-29 -65.5zM306 -13q-37 0 -60.5 23t-23.5 60
q0 36 23.5 58.5t60.5 22.5q36 0 60 -22.5t24 -58.5t-24 -59.5t-60 -23.5z" />
    <glyph glyph-name="questiondown.ss01" horiz-adv-x="735" 
d="M420 401q-37 0 -60.5 22.5t-23.5 58.5q0 37 23.5 60t60.5 23q36 0 60 -23.5t24 -59.5t-24 -58.5t-60 -22.5zM292 -226q-127 0 -199 51t-72 143q0 132 160 210l57 28q44 21 63.5 44.5t28.5 66.5l5 24h131l-7 -36q-15 -71 -55 -116t-123 -80q-68 -30 -96 -58.5t-28 -67.5
q0 -48 37 -73.5t105 -25.5q76 0 120.5 32t63.5 100l127 -20q-61 -222 -318 -222z" />
    <glyph glyph-name="periodcentered.ss01" horiz-adv-x="364" 
d="M267 323q-24 -23 -62 -23t-62 23t-24 60q0 36 24 59.5t62 23.5q37 0 61.5 -23.5t24.5 -59.5q0 -37 -24 -60z" />
    <glyph glyph-name="bullet.ss01" horiz-adv-x="507" 
d="M370 187q-43 -43 -112 -43t-112 43q-44 42 -44 109q0 66 44 110q43 43 112 43t112 -43q44 -44 44 -110q0 -67 -44 -109z" />
    </font>
</defs>
</svg>
