<?xml version="1.0" standalone="no"?>
<!DOCTYPE svg PUBLIC "-//W3C//DTD SVG 1.1//EN" "http://www.w3.org/Graphics/SVG/1.1/DTD/svg11.dtd" >
<svg xmlns="http://www.w3.org/2000/svg" xmlns:xlink="http://www.w3.org/1999/xlink" version="1.1">
<metadata>
Created by FontForge 20190801 at Sun Apr 14 18:27:53 2019
 By www-data
Copyright (c) 2019 Monotype Imaging Inc. All rights reserved.
</metadata>
<defs>
<font id="HelveticaNowTextThin" horiz-adv-x="640" >
  <font-face 
    font-family="HelveticaNowTextThin"
    font-weight="265"
    font-stretch="normal"
    units-per-em="1000"
    panose-1="2 11 2 4 3 2 2 2 2 4"
    ascent="875"
    descent="-125"
    x-height="516"
    cap-height="712"
    bbox="-314 -323 1619 1098"
    underline-thickness="50"
    underline-position="-300"
    unicode-range="U+000D-FEFF"
  />
<missing-glyph horiz-adv-x="741" 
d="M633 0h-526v712h526v-712zM125 695v-678h490v678h-490z" />
    <glyph glyph-name="fi" unicode="fi" horiz-adv-x="522" 
d="M120 516v60q0 136 126 136h50v-17h-50q-54 0 -81 -27.5t-27 -90.5v-61h158v-16h-158v-500h-18v500h-99v16h99zM404 655v57h29v-57h-29zM428 0h-18v516h18v-516z" />
    <glyph glyph-name="fl" unicode="fl" horiz-adv-x="522" 
d="M120 516v60q0 136 126 136h50v-17h-50q-54 0 -81 -27.5t-27 -90.5v-61h158v-16h-158v-500h-18v500h-99v16h99zM410 0v712h18v-712h-18z" />
    <glyph glyph-name=".notdef" horiz-adv-x="741" 
d="M633 0h-526v712h526v-712zM125 695v-678h490v678h-490z" />
    <glyph glyph-name=".null" horiz-adv-x="0" 
 />
    <glyph glyph-name="nonmarkingreturn" horiz-adv-x="333" 
 />
    <glyph glyph-name="NULL" horiz-adv-x="0" 
 />
    <glyph glyph-name="NULL" horiz-adv-x="0" 
 />
    <glyph glyph-name="CR" unicode="&#xd;" horiz-adv-x="298" 
 />
    <glyph glyph-name="space" unicode=" " horiz-adv-x="298" 
 />
    <glyph glyph-name="exclam" unicode="!" horiz-adv-x="256" 
d="M135 168h-14l-2 339v205h18v-205zM148 0h-41v41h41v-41z" />
    <glyph glyph-name="quotedbl" unicode="&#x22;" horiz-adv-x="404" 
d="M111 436h-17v276h17v-276zM310 436h-17v276h17v-276z" />
    <glyph glyph-name="numbersign" unicode="#" horiz-adv-x="658" 
d="M604 497v-16h-133l-35 -249h130v-16h-133l-30 -216h-16l30 216h-216l-30 -216h-16l30 216h-131v16h134l35 249h-131v16h133l30 215h16l-30 -215h216l30 215h16l-30 -215h131zM239 481l-35 -249h216l35 249h-216z" />
    <glyph glyph-name="dollar" unicode="$" 
d="M556 191q0 -88 -58 -138.5t-163 -52.5v-144h-17v144q-212 5 -233 214h17q20 -197 224 -197q102 0 157.5 45.5t55.5 127.5q0 124 -144 156l-127 29q-161 35 -161 167q0 81 56 128.5t155 47.5v129h17v-129q91 -5 145.5 -56t58.5 -135h-17q-4 82 -58.5 128t-145.5 46
q-92 0 -142.5 -42t-50.5 -117q0 -118 146 -150l127 -28q158 -35 158 -173z" />
    <glyph glyph-name="percent" unicode="%" horiz-adv-x="1252" 
d="M451 536q0 -222 -172 -222t-172 222q0 221 172 221t172 -221zM279 331q155 0 155 205t-155 205q-154 0 -154 -205t154 -205zM396 -15h-19l448 742h19zM1144 215q0 -222 -172 -222t-172 222q0 221 172 221t172 -221zM817 215q0 -205 155 -205t155 205t-155 205t-155 -205z
" />
    <glyph glyph-name="ampersand" unicode="&#x26;" horiz-adv-x="733" 
d="M579 122l124 -122h-24l-111 108q-100 -115 -253 -115q-105 0 -163 51t-58 138q0 69 44 118t145 88q-62 64 -86.5 104.5t-24.5 83.5q0 63 45.5 103t120.5 40q76 0 121.5 -40t45.5 -105q0 -59 -46 -106t-146 -86l253 -248q59 74 70 170l18 -1q-11 -102 -75 -181zM338 702
q-68 0 -108.5 -34.5t-40.5 -91.5q0 -41 25 -81t87 -101q98 39 142.5 82t44.5 98q0 57 -40.5 92.5t-109.5 35.5zM315 10q146 0 241 110l-261 256q-100 -39 -142 -84.5t-42 -109.5q0 -81 54 -126.5t150 -45.5z" />
    <glyph glyph-name="quotesingle" unicode="'" horiz-adv-x="205" 
d="M111 436h-17v276h17v-276z" />
    <glyph glyph-name="parenleft" unicode="(" horiz-adv-x="308" 
d="M253 -204h-19q-153 206 -153 471q0 275 153 480h19q-154 -205 -154 -480q0 -266 154 -471z" />
    <glyph glyph-name="parenright" unicode=")" horiz-adv-x="308" 
d="M74 -204h-20q155 208 155 471q0 272 -155 480h20q153 -205 153 -480q0 -265 -153 -471z" />
    <glyph glyph-name="asterisk" unicode="*" horiz-adv-x="550" 
d="M276 516l-109 -144l-14 9l111 145l-170 59l6 16l168 -61l-1 172h17l-1 -172l168 61l6 -16l-169 -59l109 -145l-14 -9z" />
    <glyph glyph-name="plus" unicode="+" 
d="M328 319h266v-18h-266v-265h-17v265h-266v18h266v266h17v-266z" />
    <glyph glyph-name="comma" unicode="," horiz-adv-x="236" 
d="M97 -149h-7v15h8q34 0 34 34v102l-43 -5v48h58v-143q0 -51 -50 -51z" />
    <glyph glyph-name="hyphen" unicode="-" horiz-adv-x="376" 
d="M328 241h-280v18h280v-18z" />
    <glyph glyph-name="period" unicode="." horiz-adv-x="236" 
d="M147 0h-58v48h58v-48z" />
    <glyph glyph-name="slash" unicode="/" horiz-adv-x="431" 
d="M76 0h-18l296 712h18z" />
    <glyph glyph-name="zero" unicode="0" 
d="M550 356q0 -362 -230 -362t-230 362t230 362t230 -362zM161 96q52 -85 159 -85q108 0 160 85t52 260t-52 260t-160 85q-107 0 -159 -85q-53 -86 -53 -260t53 -260z" />
    <glyph glyph-name="one" unicode="1" horiz-adv-x="439" 
d="M257 712h20v-712h-18v684q-32 -45 -89.5 -77t-115.5 -38v16q60 7 116 41t87 86z" />
    <glyph glyph-name="two" unicode="2" 
d="M539 0h-442q0 169 206 282l81 44q75 41 108 87t33 106q0 77 -51 129q-51 53 -147 53q-93 0 -146 -54t-53 -162v-6h-18v6q0 116 58.5 174.5t158.5 58.5q103 0 160 -57q56 -59 56 -142q0 -124 -149 -207l-83 -46q-186 -103 -194 -249h422v-17z" />
    <glyph glyph-name="three" unicode="3" 
d="M324 -7q-114 0 -183 60q-70 59 -71 153h18q2 -86 66 -140q62 -55 170 -55q100 0 164 50q63 49 63 133q0 79 -57 127t-155 48h-52v17h50q83 0 129.5 43.5t46.5 113.5q0 74 -54.5 117t-145.5 43q-95 0 -147 -48.5t-53 -133.5h-18q1 93 58.5 146t159.5 53q99 0 158.5 -48
t59.5 -129q0 -61 -33.5 -104t-95.5 -59v-2q78 -13 122.5 -62.5t44.5 -121.5q0 -90 -68 -146q-67 -55 -177 -55z" />
    <glyph glyph-name="four" unicode="4" 
d="M461 712v-492h107v-17h-107v-203h-18v203h-372v17l377 492h13zM91 220h352v457h-1z" />
    <glyph glyph-name="five" unicode="5" 
d="M316 -16q-93 0 -154 53q-60 52 -70 133l18 1q10 -76 65.5 -123t140.5 -47q97 0 155 61q57 60 57 159q0 97 -55 156q-56 59 -149 59q-128 0 -189 -109l-24 6l62 379h337v-17h-323l-56 -345l2 -1q62 103 193 103q101 0 161 -64q59 -65 59 -167q0 -106 -62 -171
q-63 -66 -168 -66z" />
    <glyph glyph-name="six" unicode="6" 
d="M333 448q99 0 157 -61q57 -61 57 -160q0 -105 -60 -169q-60 -65 -156 -65q-120 0 -183 91q-56 80 -56 251q0 384 240 384q83 0 135.5 -47t60.5 -131h-18q-9 77 -55.5 119t-122.5 42q-223 0 -223 -364q0 -1 0.5 -7t0.5 -8q0 -27 1 -34q27 75 84.5 117t137.5 42zM331 10
q89 0 144 60q54 60 54 157q0 93 -53 148.5t-144 55.5q-83 0 -140 -48t-79 -132q7 -94 49 -157q27 -40 72.5 -62t96.5 -22z" />
    <glyph glyph-name="seven" unicode="7" 
d="M237 0h-19q8 195 88.5 376t219.5 318h-438v18h463v-15q-145 -139 -226 -319.5t-88 -377.5z" />
    <glyph glyph-name="eight" unicode="8" 
d="M503 50q-71 -56 -183 -56t-182 56q-69 56 -69 148q0 74 44.5 122t129.5 63v2q-74 14 -113 56.5t-39 102.5q0 80 61.5 127t167.5 47q105 0 167 -47t62 -127q0 -60 -39 -102t-113 -57v-2q85 -15 130 -63t45 -122q0 -92 -69 -148zM165 432q56 -41 155 -41q100 0 156 41
q55 40 55 111q0 74 -57 116.5t-154 42.5t-154 -42.5t-57 -116.5q0 -70 56 -111zM150 62q63 -51 170 -51t170 51t63 136q0 84 -61 130t-172 46q-112 0 -172.5 -46t-60.5 -130q0 -85 63 -136z" />
    <glyph glyph-name="nine" unicode="9" 
d="M492 628q56 -80 56 -251q0 -384 -240 -384q-83 0 -135.5 47t-60.5 131h18q9 -77 56 -119t122 -42q223 0 223 364q0 1 -0.5 7t-0.5 8q0 27 -1 34q-27 -75 -84.5 -117t-137.5 -42q-99 0 -156 61q-58 61 -58 160q0 105 60 169q60 65 156 65q120 0 183 -91zM527 461
q-7 97 -49 157q-27 41 -72 62.5t-97 21.5q-89 0 -143 -60q-55 -59 -55 -157q0 -93 53 -148.5t144 -55.5q83 0 140 48t79 132z" />
    <glyph glyph-name="colon" unicode=":" horiz-adv-x="236" 
d="M147 402h-58v48h58v-48zM147 0h-58v48h58v-48z" />
    <glyph glyph-name="semicolon" unicode=";" horiz-adv-x="245" 
d="M148 402h-59v48h59v-48zM105 -149h-7v15h8q34 0 34 34v102l-42 -5v48h57v-143q0 -51 -50 -51z" />
    <glyph glyph-name="less" unicode="&#x3c;" 
d="M64 313l511 230v-18l-493 -222l493 -221v-18l-511 229v20z" />
    <glyph glyph-name="equal" unicode="=" 
d="M584 410h-529v18h529v-18zM584 191h-529v18h529v-18z" />
    <glyph glyph-name="greater" unicode="&#x3e;" 
d="M64 525v18l511 -230v-20l-511 -229v18l493 221z" />
    <glyph glyph-name="question" unicode="?" horiz-adv-x="607" 
d="M295 167h-18v20q0 65 22 103q23 39 91 78q65 37 91.5 75.5t26.5 91.5q0 81 -55.5 124t-153.5 43q-102 0 -158 -51.5t-58 -145.5h-18q2 102 63 158t171 56q104 0 165.5 -48.5t61.5 -136.5q0 -55 -26 -94.5t-88 -77.5l-28 -17q-52 -32 -70.5 -65.5t-18.5 -94.5v-18zM308 0
h-41v41h41v-41z" />
    <glyph glyph-name="at" unicode="@" horiz-adv-x="1066" 
d="M533 719q198 0 311 -106q114 -107 114 -294q0 -129 -45 -201.5t-124 -72.5q-90 0 -91 97v30q-23 -64 -68.5 -95.5t-102.5 -31.5q-88 0 -138.5 61.5t-50.5 166.5q0 100 52 161t137 61q57 0 102.5 -31t68.5 -92v14l1 96h17v-341q0 -80 73 -80q72 0 112 67.5t40 189.5
q0 181 -109 283q-110 101 -299 101q-192 0 -300 -112t-108 -317q0 -202 110 -315q109 -112 303 -112q91 0 189 32v-19q-97 -30 -189 -30q-200 0 -316 117q-115 116 -115 327q0 210 113 329q112 117 313 117zM528 61q68 0 113 45t57 121v92q-12 74 -57 117t-113 43
q-78 0 -125 -56.5t-47 -149.5q0 -99 45.5 -155.5t126.5 -56.5z" />
    <glyph glyph-name="A" unicode="A" horiz-adv-x="716" 
d="M677 0h-20l-104 240h-390l-104 -240h-20l311 715h18zM353 676l-182 -418h375l-181 418l-6 16z" />
    <glyph glyph-name="B" unicode="B" horiz-adv-x="731" 
d="M481 372q83 -11 128 -59.5t45 -125.5q0 -86 -52.5 -136.5t-136.5 -50.5h-358v712h321q93 0 144 -48.5t51 -125.5q0 -63 -37.5 -108.5t-104.5 -57.5zM426 695h-301v-316h300q85 0 132.5 43t47.5 114q0 70 -46 114.5t-133 44.5zM125 17h339q77 0 124.5 45.5t47.5 124.5
q0 82 -54.5 129t-150.5 47h-306v-346z" />
    <glyph glyph-name="C" unicode="C" horiz-adv-x="738" 
d="M392 -12q-144 0 -227 104q-84 104 -84 266q0 166 85 266t225 100q114 0 196 -65q79 -64 93 -163h-19q-13 93 -88 152q-76 59 -181 59q-134 0 -213 -94q-80 -95 -80 -255q0 -158 79 -255q80 -98 215 -98q110 0 187 67q78 67 82 168h17q-5 -108 -87 -180t-200 -72z" />
    <glyph glyph-name="D" unicode="D" horiz-adv-x="732" 
d="M107 712h234q157 0 237.5 -93t80.5 -263q0 -171 -83 -263.5t-247 -92.5h-222v712zM125 17h205q155 0 233 88.5t78 250.5t-76 250.5t-224 88.5h-216v-678z" />
    <glyph glyph-name="E" unicode="E" horiz-adv-x="668" 
d="M125 365v-348h468v-17h-486v712h467v-17h-449v-313h421v-17h-421z" />
    <glyph glyph-name="F" unicode="F" horiz-adv-x="615" 
d="M580 712v-17h-455v-317h398v-17h-398v-361h-18v712h473z" />
    <glyph glyph-name="G" unicode="G" horiz-adv-x="821" 
d="M413 332v18h300v-350h-16l-2 199q-27 -100 -104.5 -155.5t-187.5 -55.5q-151 0 -236 103q-86 104 -86 267q0 170 85 268q86 98 236 98q126 0 207 -59t100 -164l-17 -2q-14 79 -78 140q-71 68 -211 68q-143 0 -223 -93q-81 -94 -81 -256q0 -158 81 -255q80 -98 223 -98
q129 0 209 78q80 79 83 217v32h-282z" />
    <glyph glyph-name="H" unicode="H" horiz-adv-x="741" 
d="M615 388v324h18v-712h-18v370h-490v-370h-18v712h18v-324h490z" />
    <glyph glyph-name="I" unicode="I" horiz-adv-x="233" 
d="M125 0h-18v712h18v-712z" />
    <glyph glyph-name="J" unicode="J" horiz-adv-x="567" 
d="M406 38q-55 -50 -146 -50t-146 50q-55 49 -55 153v46h18v-46q0 -94 48 -140t135 -46t134 46t47 140v521h18v-521q0 -103 -53 -153z" />
    <glyph glyph-name="K" unicode="K" horiz-adv-x="700" 
d="M661 0h-23l-318 407l-195 -181v-226h-18v712h18v-464l499 464h25l-317 -294z" />
    <glyph glyph-name="L" unicode="L" horiz-adv-x="612" 
d="M125 712v-695h433v-17h-451v712h18z" />
    <glyph glyph-name="M" unicode="M" horiz-adv-x="896" 
d="M460 52l305 660h23v-712h-17v655l2 37l-15 -37l-303 -655h-14l-304 656l-14 34l2 -35v-655h-18v712h24l305 -660l12 -30z" />
    <glyph glyph-name="N" unicode="N" horiz-adv-x="742" 
d="M617 29v683h17v-712h-17l-492 682v-682h-18v712h17z" />
    <glyph glyph-name="O" unicode="O" horiz-adv-x="816" 
d="M406 -12q-148 0 -236 103q-89 104 -89 265q0 165 88 266q89 102 237 102q152 0 240 -102q88 -101 88 -266q0 -164 -88 -265q-88 -103 -240 -103zM407 5q142 0 226 98q83 98 83 253q0 156 -83 254q-84 97 -226 97q-143 0 -225 -97q-83 -98 -83 -254t84 -253
q83 -98 224 -98z" />
    <glyph glyph-name="P" unicode="P" horiz-adv-x="644" 
d="M107 712h273q95 0 152.5 -50.5t57.5 -141.5q0 -93 -58 -144t-164 -51h-243v-325h-18v712zM125 342h243q98 0 151 46t53 132q0 82 -53.5 128.5t-139.5 46.5h-254v-353z" />
    <glyph glyph-name="Q" unicode="Q" horiz-adv-x="794" 
d="M734 356q0 -186 -111 -289l111 -94l-10 -13l-114 97q-82 -69 -204 -69q-148 0 -236 103q-89 104 -89 265q0 165 88 266q89 102 237 102q152 0 240 -102q88 -101 88 -266zM99 356q0 -156 84 -253q83 -98 224 -98q111 0 190 63l-137 115l10 14l139 -118q107 96 107 277
q0 156 -83 254q-84 97 -226 97q-143 0 -225 -97q-83 -98 -83 -254z" />
    <glyph glyph-name="R" unicode="R" horiz-adv-x="719" 
d="M598 192l23 -192h-19l-21 187q-7 67 -40 106q-38 45 -155 45h-261v-338h-18v712h310q93 0 147.5 -49.5t54.5 -135.5q0 -76 -42.5 -123.5t-120.5 -58.5q70 -9 101.5 -45t40.5 -108zM125 695v-340h276q94 0 147 45t53 126q0 80 -49 124.5t-136 44.5h-291z" />
    <glyph glyph-name="S" unicode="S" horiz-adv-x="665" 
d="M340 -12q-252 0 -276 220h18q23 -203 258 -203q117 0 179.5 46.5t62.5 131.5q0 66 -40 105t-124 56l-146 28q-181 34 -181 172q0 83 64 131.5t176 48.5q111 0 178.5 -52.5t71.5 -142.5h-18q-4 84 -66 131t-166 47q-105 0 -164 -43.5t-59 -119.5q0 -121 167 -154l146 -29
q179 -35 179 -178q0 -92 -68 -143.5t-192 -51.5z" />
    <glyph glyph-name="T" unicode="T" horiz-adv-x="650" 
d="M53 712h544v-17h-263v-695h-18v695h-263v17z" />
    <glyph glyph-name="U" unicode="U" horiz-adv-x="739" 
d="M631 712v-476q0 -248 -262 -248t-262 248v476h18v-476q0 -231 244 -231t244 231v476h18z" />
    <glyph glyph-name="V" unicode="V" horiz-adv-x="671" 
d="M374 116l238 596h19l-287 -718h-17l-288 718h20l238 -596l39 -100z" />
    <glyph glyph-name="W" unicode="W" horiz-adv-x="936" 
d="M698 124l180 588h18l-220 -718h-16l-192 685l-193 -685h-16l-220 718h18l180 -588l30 -102l27 102l165 588h17l165 -588l27 -102z" />
    <glyph glyph-name="X" unicode="X" horiz-adv-x="671" 
d="M610 712l-263 -342l285 -370h-23l-251 328l-22 29l-22 -29l-252 -328h-23l287 370l-265 342h23l231 -299l21 -30l22 29l230 300h22z" />
    <glyph glyph-name="Y" unicode="Y" horiz-adv-x="668" 
d="M619 712h22l-297 -426v-286h-18v286l-299 426h23l276 -397l9 -14l9 14z" />
    <glyph glyph-name="Z" unicode="Z" horiz-adv-x="681" 
d="M591 695l-495 -678h509v-17h-530v18l494 677h-468v17h490v-17z" />
    <glyph glyph-name="bracketleft" unicode="[" horiz-adv-x="335" 
d="M281 -204h-174v951h174v-17h-156v-917h156v-17z" />
    <glyph glyph-name="backslash" unicode="\" horiz-adv-x="431" 
d="M372 0h-18l-296 712h18z" />
    <glyph glyph-name="bracketright" unicode="]" horiz-adv-x="336" 
d="M228 -204h-174v17h157v917h-157v17h174v-951z" />
    <glyph glyph-name="asciicircum" unicode="^" 
d="M310 718h20l213 -516h-19l-187 454q-2 6 -8.5 22.5t-8.5 22.5q-14 -35 -17 -45l-187 -454h-19z" />
    <glyph glyph-name="underscore" unicode="_" horiz-adv-x="500" 
d="M500 -123h-500v17h500v-17z" />
    <glyph glyph-name="grave" unicode="`" horiz-adv-x="500" 
d="M339 626h-20l-121 150h24z" />
    <glyph glyph-name="a" unicode="a" horiz-adv-x="578" 
d="M552 16h16v-16h-12q-59 0 -83 27t-24 93l-1 14q-21 -71 -76 -108.5t-135 -37.5q-85 0 -130.5 39.5t-45.5 104.5q0 124 159 145l127 18q59 9 80 30.5t21 63.5v2q0 55 -43 87.5t-127 32.5q-85 0 -125.5 -32.5t-50.5 -100.5h-18q9 74 55.5 112t139.5 38q92 0 139.5 -37
t47.5 -101v-269q0 -57 19 -81t67 -24zM238 4q180 0 210 182v141q-23 -38 -98 -48l-128 -18q-143 -21 -143 -128q0 -59 40.5 -94t118.5 -35z" />
    <glyph glyph-name="b" unicode="b" horiz-adv-x="594" 
d="M318 528q101 0 159 -72t58 -193q0 -122 -59 -199q-58 -76 -160 -76q-76 0 -131 46.5t-74 121.5v-156h-17v712h18v-347q19 73 74 118t132 45zM315 5q94 0 148 71q54 70 54 187q0 115 -54 181.5t-146 66.5t-149 -67q-57 -68 -57 -186q0 -114 57 -183q55 -70 147 -70z" />
    <glyph glyph-name="c" unicode="c" horiz-adv-x="540" 
d="M283 -12q-105 0 -164.5 72t-59.5 198q0 127 59 198.5t166 71.5q92 0 145 -51q51 -50 59 -118h-17q-7 60 -54 107q-47 45 -133 45q-99 0 -153 -66.5t-54 -186.5q0 -119 55 -186t152 -67q79 0 128 44.5t58 120.5h18q-9 -83 -63 -132.5t-142 -49.5z" />
    <glyph glyph-name="d" unicode="d" horiz-adv-x="595" 
d="M483 363v349h18v-712h-17v159q-18 -76 -73.5 -123.5t-131.5 -47.5q-103 0 -161 76q-59 76 -59 198q0 120 59 194q58 72 159 72q78 0 133 -46t73 -119zM279 5q93 0 148 70q56 70 56 183q0 117 -56 185t-149 68t-147 -67t-54 -182q0 -116 54 -186q54 -71 148 -71z" />
    <glyph glyph-name="e" unicode="e" horiz-adv-x="566" 
d="M508 267h-431v-2v-6q0 -117 57 -185.5t156 -68.5q74 0 123 38.5t68 99.5l16 -4q-18 -61 -70 -106q-53 -45 -138 -45q-107 0 -168 75q-62 74 -62 198q0 123 60.5 195t165.5 72q103 0 163 -69t60 -175v-17zM285 511q-92 0 -147.5 -61.5t-60.5 -166.5h413
q-2 103 -56.5 165.5t-148.5 62.5z" />
    <glyph glyph-name="f" unicode="f" horiz-adv-x="316" 
d="M296 695h-50q-54 0 -81 -27.5t-27 -90.5v-61h158v-16h-158v-500h-18v500h-98v16h98v60q0 136 126 136h50v-17z" />
    <glyph glyph-name="g" unicode="g" horiz-adv-x="595" 
d="M483 363v153h18v-524q0 -97 -56.5 -147t-159.5 -50q-95 0 -143 39t-59 87h18q11 -41 54 -75t130 -34q96 0 147 45t51 134v164q-19 -75 -73.5 -121t-130.5 -46q-103 0 -161 76q-59 76 -59 198q0 120 59 194q58 72 159 72q78 0 133 -46t73 -119zM279 5q93 0 148 70
q56 70 56 183q0 117 -56 185t-149 68t-147 -67t-54 -182q0 -116 54 -186q54 -71 148 -71z" />
    <glyph glyph-name="h" unicode="h" horiz-adv-x="582" 
d="M308 528q87 0 133.5 -50t46.5 -143v-335h-18v334q0 85 -42 131t-122 46q-90 0 -142 -59t-52 -173v-279h-18v712h18v-331q21 70 71.5 108.5t124.5 38.5z" />
    <glyph glyph-name="i" unicode="i" horiz-adv-x="206" 
d="M117 655h-29v57h29v-57zM112 0h-18v516h18v-516z" />
    <glyph glyph-name="j" unicode="j" horiz-adv-x="206" 
d="M117 655h-29v57h29v-57zM-9 -204h-25v17h26q102 0 102 104v599h18v-597q0 -123 -121 -123z" />
    <glyph glyph-name="k" unicode="k" horiz-adv-x="553" 
d="M515 0h-22l-232 301l-149 -135v-166h-18v712h18v-524l364 328h25l-227 -204z" />
    <glyph glyph-name="l" unicode="l" horiz-adv-x="206" 
d="M112 0h-18v712h18v-712z" />
    <glyph glyph-name="m" unicode="m" horiz-adv-x="857" 
d="M606 528q76 0 116.5 -47.5t40.5 -136.5v-344h-18v344q0 167 -146 167q-71 0 -116.5 -57t-45.5 -161v-293h-18v344q0 167 -147 167q-71 0 -115.5 -57t-44.5 -161v-293h-18v516h18l-1 -113l1 -5v-9q18 66 61 102.5t106 36.5q67 0 107.5 -38t48.5 -108q17 69 61.5 107.5
t109.5 38.5z" />
    <glyph glyph-name="n" unicode="n" horiz-adv-x="582" 
d="M308 528q87 0 133.5 -50t46.5 -143v-335h-18v334q0 85 -42 131t-122 46q-90 0 -142 -59t-52 -173v-279h-18v516h17v-138q43 150 197 150z" />
    <glyph glyph-name="o" unicode="o" horiz-adv-x="584" 
d="M462 62q-65 -74 -170 -74q-104 0 -169 74q-64 73 -64 196q0 124 64 197t170 73q105 0 169 -73t64 -197q0 -123 -64 -196zM292 5q99 0 157.5 68t58.5 185t-58.5 185t-157.5 68q-97 0 -156 -68t-59 -185t59 -185t156 -68z" />
    <glyph glyph-name="p" unicode="p" horiz-adv-x="594" 
d="M318 528q101 0 159 -72t58 -193q0 -122 -59 -199q-58 -76 -160 -76q-75 0 -129 45t-75 119v-356h-18v720h17v-155q18 75 73.5 121t133.5 46zM315 5q94 0 148 71q54 70 54 187q0 115 -54 181.5t-146 66.5t-149 -67q-57 -68 -57 -186q0 -114 57 -183q55 -70 147 -70z" />
    <glyph glyph-name="q" unicode="q" horiz-adv-x="595" 
d="M484 359v157h17v-720h-18v359q-19 -75 -73.5 -121t-130.5 -46q-103 0 -161 76q-59 76 -59 198q0 120 59 194q58 72 159 72q79 0 134 -47t73 -122zM279 5q93 0 148 70q56 70 56 183q0 117 -56 185t-149 68t-147 -67t-54 -182q0 -116 54 -186q54 -71 148 -71z" />
    <glyph glyph-name="r" unicode="r" horiz-adv-x="374" 
d="M299 529q23 0 50 -5v-18q-27 5 -51 5q-86 0 -136 -56t-50 -164v-291h-18v516h17v-131q18 70 67 107t121 37z" />
    <glyph glyph-name="s" unicode="s" horiz-adv-x="530" 
d="M271 -12q-95 0 -148.5 43.5t-57.5 122.5h18q4 -72 52.5 -110.5t135.5 -38.5q84 0 130.5 33.5t46.5 95.5q0 98 -133 117l-80 12q-79 13 -117.5 41.5t-38.5 83.5q0 63 49 99.5t133 36.5t135.5 -40t56.5 -109h-18q-5 62 -51 97.5t-123 35.5q-75 0 -120 -31.5t-45 -87.5
q0 -49 35 -74t107 -35l80 -12q147 -21 147 -134q0 -68 -52 -107t-142 -39z" />
    <glyph glyph-name="t" unicode="t" horiz-adv-x="320" 
d="M290 500h-145v-393q0 -47 20.5 -68.5t63.5 -21.5h60v-17h-62q-100 0 -100 105v395h-105v16h105v147h18v-147h145v-16z" />
    <glyph glyph-name="u" unicode="u" horiz-adv-x="582" 
d="M470 237v279h18v-516h-17v138q-43 -150 -197 -150q-87 0 -133.5 50t-46.5 143v335h18v-334q0 -85 42 -131t122 -46q90 0 142 59t52 173z" />
    <glyph glyph-name="v" unicode="v" horiz-adv-x="534" 
d="M284 62l187 454h19l-213 -516h-20l-213 516h19l187 -454l17 -47z" />
    <glyph glyph-name="w" unicode="w" horiz-adv-x="763" 
d="M562 91l138 425h19l-169 -516h-17l-136 437l-15 59l-16 -59l-137 -437h-17l-168 516h19l137 -425l20 -68l20 68l133 425h17l133 -425l20 -66z" />
    <glyph glyph-name="x" unicode="x" horiz-adv-x="549" 
d="M285 272l221 -272h-24l-208 259l-208 -259h-22l221 272l-198 244h22l185 -231l185 231h23z" />
    <glyph glyph-name="y" unicode="y" horiz-adv-x="545" 
d="M277 -6l205 522h19l-251 -636q-19 -49 -47 -66.5t-85 -17.5h-27v17h26q52 0 76 15.5t42 58.5l35 89l-226 540h19l207 -497z" />
    <glyph glyph-name="z" unicode="z" horiz-adv-x="521" 
d="M446 503l-364 -486h380v-17h-403v14l364 485h-352v17h375v-13z" />
    <glyph glyph-name="braceleft" unicode="{" horiz-adv-x="385" 
d="M331 -205h-65q-103 0 -103 109v259q0 55 -23.5 77.5t-85.5 22.5v17q62 0 85.5 22.5t23.5 77.5v258q0 109 103 109h65v-17h-63q-45 0 -66 -22.5t-21 -70.5v-257q0 -95 -74 -108v-1q74 -13 74 -108v-258q0 -93 87 -93h63v-17z" />
    <glyph glyph-name="bar" unicode="|" horiz-adv-x="233" 
d="M125 -204h-18v951h18v-951z" />
    <glyph glyph-name="braceright" unicode="}" horiz-adv-x="385" 
d="M119 -205h-65v17h63q87 0 87 93v258q0 95 74 108v1q-74 13 -74 108v257q0 93 -87 93h-63v17h65q103 0 103 -109v-258q0 -55 23.5 -77.5t85.5 -22.5v-17q-62 0 -85.5 -22.5t-23.5 -77.5v-259q0 -109 -103 -109z" />
    <glyph glyph-name="asciitilde" unicode="~" 
d="M95 246h-16q0 85 34 130.5t90 45.5q32 0 58 -16.5t44 -40t36 -46.5t42.5 -39.5t53.5 -16.5q50 0 79 42t29 117h16q0 -85 -34 -130.5t-90 -45.5q-32 0 -58 16.5t-44 40t-36 46.5t-42.5 39.5t-53.5 16.5q-50 0 -79 -42t-29 -117z" />
    <glyph glyph-name="uni00A0" unicode="&#xa0;" horiz-adv-x="298" 
 />
    <glyph glyph-name="exclamdown" unicode="&#xa1;" horiz-adv-x="256" 
d="M148 475h-41v41h41v-41zM137 -196h-18v205l2 339h14l2 -339v-205z" />
    <glyph glyph-name="cent" unicode="&#xa2;" 
d="M330 5q80 0 128.5 44.5t58.5 120.5h17q-9 -80 -59.5 -129t-132.5 -53v-132h-17v132q-102 1 -160.5 73.5t-58.5 196.5q0 125 58 197t161 73v138h17v-138q87 -3 137 -53q49 -52 56 -116h-18q-7 59 -54 106q-46 46 -133 46q-99 0 -152.5 -66.5t-53.5 -186.5
q0 -119 54.5 -186t151.5 -67z" />
    <glyph glyph-name="sterling" unicode="&#xa3;" 
d="M159 17h416v-17h-509v17h10q87 0 149 53q61 52 61 127q0 66 -56 130h-164v16h149q-52 56 -73.5 97t-21.5 88q0 84 58 141q58 56 160 56t163.5 -54.5t71.5 -143.5h-18q-18 109 -89 148q-62 33 -128 33q-92 0 -146 -49.5t-54 -130.5q0 -45 20 -83q18 -35 79 -102h245v-16
h-231q52 -58 52 -129q0 -61 -39.5 -110.5t-104.5 -70.5z" />
    <glyph glyph-name="currency" unicode="&#xa4;" 
d="M612 641l-109 -109q65 -68 65 -171q0 -102 -65 -173l109 -109l-11 -11l-109 109q-68 -65 -172 -65t-172 65l-109 -109l-11 11l109 109q-65 71 -65 173q0 103 65 171l-109 109l11 11l109 -109q68 65 172 65t172 -65l109 109zM154 194q65 -65 166 -65t166 65t65 166
t-65 166t-166 65t-166 -65t-65 -166t65 -166z" />
    <glyph glyph-name="yen" unicode="&#xa5;" 
d="M605 712h22l-289 -405h237v-17h-245v-118h245v-18h-245v-154h-18v154h-245v18h245v118h-245v17h237l-290 405h22l277 -386l9 -14l8 14z" />
    <glyph glyph-name="brokenbar" unicode="&#xa6;" horiz-adv-x="233" 
d="M125 411h-18v336h18v-336zM125 -204h-18v336h18v-336z" />
    <glyph glyph-name="section" unicode="&#xa7;" horiz-adv-x="629" 
d="M547 285q0 -53 -32 -88t-91 -47q71 -38 71 -118q0 -67 -50 -105t-137 -38q-90 0 -140.5 42.5t-54.5 120.5h18q3 -71 48 -108.5t129 -37.5q80 0 125 33.5t45 92.5q0 102 -137 129l-95 19q-86 18 -125.5 53t-39.5 90q0 52 31.5 87.5t90.5 48.5q-70 37 -70 116q0 67 50 106
t137 39q90 0 140.5 -42.5t54.5 -120.5h-18q-3 70 -48.5 108t-128.5 38q-81 0 -125.5 -33.5t-44.5 -93.5q0 -101 136 -128l94 -19q87 -18 127 -53t40 -91zM402 160q61 9 94.5 41t33.5 83q0 50 -37.5 81.5t-120.5 48.5l-95 20q-30 6 -54 15q-125 -23 -125 -126q0 -99 156 -128
l96 -20q31 -6 52 -15z" />
    <glyph glyph-name="dieresis" unicode="&#xa8;" horiz-adv-x="500" 
d="M172 653h-36v60h36v-60zM364 653h-36v60h36v-60z" />
    <glyph glyph-name="copyright" unicode="&#xa9;" horiz-adv-x="866" 
d="M687 96q-99 -103 -254 -103q-156 0 -253 103q-99 102 -99 261q0 158 99 260q98 102 253 102t254 -102q98 -103 98 -260q0 -158 -98 -261zM433 9q147 0 242 98q93 97 93 250q0 151 -93 249q-93 97 -242 97t-242 -97q-94 -97 -94 -249q0 -153 94 -250q93 -98 242 -98z
M433 173q-71 0 -111 49.5t-40 136.5t40 135.5t112 48.5q59 0 96 -31t44 -78l-16 -3q-7 42 -39.5 69t-84.5 27q-66 0 -101 -43.5t-35 -124.5t35.5 -125.5t99.5 -44.5q49 0 82.5 25.5t43.5 71.5l16 -2q-11 -52 -48.5 -81.5t-93.5 -29.5z" />
    <glyph glyph-name="ordfeminine" unicode="&#xaa;" horiz-adv-x="488" 
d="M248 725q146 0 146 -128v-225h-15l-2 93q-18 -48 -58.5 -74.5t-97.5 -26.5q-58 0 -92.5 26.5t-34.5 74.5q0 91 115 98l168 11v28q0 107 -129 107q-103 0 -126 -74l-15 6q25 84 141 84zM222 380q68 0 109 40t46 110v29l-165 -11q-101 -8 -101 -83q0 -41 29.5 -63t81.5 -22
z" />
    <glyph glyph-name="guillemotleft" unicode="&#xab;" horiz-adv-x="718" 
d="M344 13v-23l-250 255v24l250 255v-23l-237 -244zM624 13v-23l-250 255v24l250 255v-23l-237 -244z" />
    <glyph glyph-name="logicalnot" unicode="&#xac;" 
d="M554 117h-17v230h-452v18h469v-248z" />
    <glyph glyph-name="uni00AD" unicode="&#xad;" horiz-adv-x="376" 
d="M328 241h-280v18h280v-18z" />
    <glyph glyph-name="registered" unicode="&#xae;" horiz-adv-x="651" 
d="M152 650q70 69 174 69t174 -69t70 -168t-70 -168t-174 -69t-174 69q-71 69 -71 168t71 168zM326 258q96 0 164 66q66 64 66 158t-66 158q-68 65 -164 65q-97 0 -164 -65q-67 -64 -67 -158q0 -95 67 -159q67 -65 164 -65zM427 423l3 -49q2 -18 11 -29h-14q-9 12 -10 29
l-3 48q-2 28 -16.5 40t-49.5 12h-99v-129h-14v279h111q41 0 63.5 -19.5t22.5 -55.5q0 -54 -50 -68q42 -9 45 -58zM249 487h97q73 0 73 62t-73 62h-97v-124z" />
    <glyph glyph-name="overscore" unicode="&#xaf;" horiz-adv-x="500" 
d="M393 663h-286v16h286v-16z" />
    <glyph glyph-name="degree" unicode="&#xb0;" horiz-adv-x="441" 
d="M337 447q-46 -46 -116 -46t-116 46t-46 116t46 116t116 46q71 0 116.5 -45.5t45.5 -116.5q0 -70 -46 -116zM117 459q41 -42 104 -42t105 42q41 41 41 104q0 62 -41 105q-43 41 -105 41q-63 0 -104 -41q-41 -43 -41 -105q0 -63 41 -104z" />
    <glyph glyph-name="plusminus" unicode="&#xb1;" 
d="M329 575v-196h265v-18h-265v-195h-18v195h-266v18h266v196h18zM585 31h-529v18h529v-18z" />
    <glyph glyph-name="two.sups" unicode="&#xb2;" horiz-adv-x="472" 
d="M393 372h-310q0 106 141 174l58 27q49 24 70.5 50.5t21.5 62.5q0 46 -35.5 76t-98.5 30q-133 0 -134 -127h-18q1 71 41 107t111 36q70 0 110.5 -34.5t40.5 -87.5q0 -42 -23.5 -71.5t-77.5 -55.5l-57 -26q-124 -60 -131 -145h291v-16z" />
    <glyph glyph-name="three.sups" unicode="&#xb3;" horiz-adv-x="427" 
d="M217 365q-76 0 -121.5 36t-45.5 94h17q0 -51 40.5 -82.5t109.5 -31.5q66 0 104.5 29t38.5 80q0 46 -36.5 74t-98.5 28h-33v16h33q53 0 82.5 25t29.5 66q0 42 -35 67.5t-92 25.5q-60 0 -94.5 -27.5t-34.5 -77.5h-17q0 55 39 88t107 33q63 0 103.5 -30t40.5 -78
q0 -36 -21 -63t-58 -36v-1q46 -8 74 -38.5t28 -72.5q0 -56 -43.5 -90t-116.5 -34z" />
    <glyph glyph-name="acute" unicode="&#xb4;" horiz-adv-x="500" 
d="M200 626h-20l118 150h23z" />
    <glyph glyph-name="uni00B5" unicode="&#xb5;" horiz-adv-x="582" 
d="M112 -204h-18v720h18v-334q0 -85 42 -131t122 -46q90 0 142 59t52 173v279h18v-516h-18l1 137q-44 -149 -196 -149q-124 0 -164 103h-1l2 -175v-120z" />
    <glyph glyph-name="paragraph" unicode="&#xb6;" horiz-adv-x="599" 
d="M288 -103h-18v458q-107 0 -161.5 46t-54.5 133t54.5 132.5t161.5 45.5h220v-815h-17v798h-185v-798z" />
    <glyph glyph-name="middot" unicode="&#xb7;" horiz-adv-x="325" 
d="M191 328h-57v47h57v-47z" />
    <glyph glyph-name="cedilla" unicode="&#xb8;" horiz-adv-x="500" 
d="M216 -213h-38v15h38q89 0 89 60q0 53 -71 53h-43l-9 13l44 72h16l-41 -69h34q42 0 64.5 -18t22.5 -51q0 -36 -27.5 -55.5t-78.5 -19.5z" />
    <glyph glyph-name="one.sups" unicode="&#xb9;" horiz-adv-x="309" 
d="M215 372h-17v297h-151v16h108q23 0 33 7t10 28l1 79h16v-427z" />
    <glyph glyph-name="ordmasculine" unicode="&#xba;" horiz-adv-x="455" 
d="M229 364q-75 0 -122 51q-48 49 -48 129t48 131q47 50 122 50q73 0 120 -50q47 -52 47 -131t-47 -129q-47 -51 -120 -51zM229 380q66 0 108 45.5t42 118.5t-42 119t-108 46q-68 0 -110.5 -46t-42.5 -119t42.5 -118.5t110.5 -45.5z" />
    <glyph glyph-name="guillemotright" unicode="&#xbb;" horiz-adv-x="718" 
d="M344 245l-250 -255v23l237 244l-237 244v23l250 -255v-24zM624 245l-250 -255v23l237 244l-237 244v23l250 -255v-24z" />
    <glyph glyph-name="onequarter" unicode="&#xbc;" horiz-adv-x="1061" 
d="M275 321h-17v297h-151v16h107q24 0 34 7t10 28v79h17v-427zM296 -15h-19l448 742h18zM878 0h-17v119h-259v15l259 293h17v-292h75v-16h-75v-119zM860 403l-237 -268h238v268h-1z" />
    <glyph glyph-name="onehalf" unicode="&#xbd;" horiz-adv-x="1114" 
d="M275 321h-17v297h-151v16h107q24 0 34 7t10 28v79h17v-427zM296 -15h-19l448 742h18zM1006 0h-310q0 106 141 174l57 27q50 24 71.5 50.5t21.5 62.5q0 46 -35.5 76t-98.5 30q-132 0 -135 -127h-18q1 71 41.5 107t111.5 36q69 0 110 -34.5t41 -87.5q0 -41 -23.5 -71
t-78.5 -56l-56 -26q-124 -61 -131 -145h291v-16z" />
    <glyph glyph-name="threequarters" unicode="&#xbe;" horiz-adv-x="1125" 
d="M260 314q-75 0 -120.5 36t-45.5 94h17q0 -51 40.5 -82.5t108.5 -31.5q67 0 105.5 29t38.5 80q0 46 -36.5 74t-98.5 28h-33v16h33q53 0 82.5 25t29.5 66q0 42 -35.5 67.5t-92.5 25.5q-60 0 -94 -27.5t-34 -77.5h-17q0 55 39.5 88t105.5 33q64 0 104.5 -30t40.5 -78
q0 -36 -21 -63t-58 -36v-1q46 -8 74 -38.5t28 -72.5q0 -56 -44 -90t-117 -34zM373 -15h-19l448 742h19zM956 0h-17v119h-259v15l259 293h17v-292h75v-16h-75v-119zM938 403l-237 -268h238v268h-1z" />
    <glyph glyph-name="questiondown" unicode="&#xbf;" horiz-adv-x="607" 
d="M341 475h-41v41h41v-41zM308 -203q-104 0 -165 48.5t-61 136.5q0 55 25.5 94.5t87.5 77.5l28 17q54 31 72 66q17 36 17 94v18h18v-20q0 -65 -22 -103q-23 -39 -91 -78q-65 -37 -91.5 -75.5t-26.5 -91.5q0 -80 56 -123.5t153 -43.5q102 0 158 51.5t58 145.5h18
q-2 -102 -63 -158t-171 -56z" />
    <glyph glyph-name="Agrave" unicode="&#xc0;" horiz-adv-x="716" 
d="M278 972l117 -150h-20l-120 150h23zM677 0h-20l-104 240h-390l-104 -240h-20l311 715h18zM353 676l-182 -418h375l-181 418l-6 16z" />
    <glyph glyph-name="Aacute" unicode="&#xc1;" horiz-adv-x="716" 
d="M436 972h23l-121 -150h-20zM677 0h-20l-104 240h-390l-104 -240h-20l311 715h18zM353 676l-182 -418h375l-181 418l-6 16z" />
    <glyph glyph-name="Acircumflex" unicode="&#xc2;" horiz-adv-x="716" 
d="M485 810l-127 147l-127 -147h-21l139 162h18l139 -162h-21zM677 0h-20l-104 240h-390l-104 -240h-20l311 715h18zM353 676l-182 -418h375l-181 418l-6 16z" />
    <glyph glyph-name="Atilde" unicode="&#xc3;" horiz-adv-x="716" 
d="M268 962q-70 0 -75 -135h-17q7 151 93 151q59 0 93 -67q34 -68 87 -68q69 0 74 135h17q-7 -151 -92 -151q-30 0 -55 20t-39 48q-34 67 -86 67zM677 0h-20l-104 240h-390l-104 -240h-20l311 715h18zM353 676l-182 -418h375l-181 418l-6 16z" />
    <glyph glyph-name="Adieresis" unicode="&#xc4;" horiz-adv-x="716" 
d="M244 884h36v-60h-36v60zM436 884h36v-60h-36v60zM677 0h-20l-104 240h-390l-104 -240h-20l311 715h18zM353 676l-182 -418h375l-181 418l-6 16z" />
    <glyph glyph-name="Aring" unicode="&#xc5;" horiz-adv-x="716" 
d="M677 0h-20l-104 240h-390l-104 -240h-20l306 703q-42 5 -68 34t-26 71q0 47 30 77.5t77 30.5t77 -30.5t30 -77.5q0 -42 -25.5 -71t-66.5 -34zM266 808q0 -39 26.5 -64.5t65.5 -25.5t65.5 25.5t26.5 64.5q0 41 -26 66.5t-66 25.5t-66 -25.5t-26 -66.5zM353 676l-182 -418
h375l-181 418l-6 16z" />
    <glyph glyph-name="AE" unicode="&#xc6;" horiz-adv-x="1133" 
d="M591 365v-348h468v-17h-486v239h-359l-155 -239h-20l463 712h538v-17h-449v-313h421v-17h-421zM511 695l-286 -439h348v439h-62z" />
    <glyph glyph-name="Ccedilla" unicode="&#xc7;" horiz-adv-x="738" 
d="M393 5q110 0 187 67q78 67 82 168h17q-4 -105 -85 -178q-80 -72 -197 -74l-38 -63h34q42 0 64.5 -18t22.5 -51q0 -36 -27.5 -55.5t-78.5 -19.5h-38v15h38q89 0 89 60q0 53 -71 53h-43l-9 13l40 66q-140 5 -219 107q-80 104 -80 263q0 166 85 266t225 100q114 0 196 -65
q79 -64 93 -163h-19q-13 93 -88 152q-76 59 -181 59q-134 0 -213 -94q-80 -95 -80 -255q0 -158 79 -255q80 -98 215 -98z" />
    <glyph glyph-name="Egrave" unicode="&#xc8;" horiz-adv-x="668" 
d="M271 972l117 -150h-20l-120 150h23zM125 365v-348h468v-17h-486v712h467v-17h-449v-313h421v-17h-421z" />
    <glyph glyph-name="Eacute" unicode="&#xc9;" horiz-adv-x="668" 
d="M429 972h23l-121 -150h-20zM125 365v-348h468v-17h-486v712h467v-17h-449v-313h421v-17h-421z" />
    <glyph glyph-name="Ecircumflex" unicode="&#xca;" horiz-adv-x="668" 
d="M478 810l-127 147l-127 -147h-21l139 162h18l139 -162h-21zM125 365v-348h468v-17h-486v712h467v-17h-449v-313h421v-17h-421z" />
    <glyph glyph-name="Edieresis" unicode="&#xcb;" horiz-adv-x="668" 
d="M237 884h36v-60h-36v60zM429 884h36v-60h-36v60zM125 365v-348h468v-17h-486v712h467v-17h-449v-313h421v-17h-421z" />
    <glyph glyph-name="Igrave" unicode="&#xcc;" horiz-adv-x="233" 
d="M153 822h-20l-120 150h23zM125 0h-18v712h18v-712z" />
    <glyph glyph-name="Iacute" unicode="&#xcd;" horiz-adv-x="233" 
d="M96 822h-20l118 150h23zM125 0h-18v712h18v-712z" />
    <glyph glyph-name="Icircumflex" unicode="&#xce;" horiz-adv-x="233" 
d="M-11 810h-21l139 162h18l139 -162h-21l-127 147zM125 0h-18v712h18v-712z" />
    <glyph glyph-name="Idieresis" unicode="&#xcf;" horiz-adv-x="233" 
d="M39 824h-37v60h37v-60zM230 824h-36v60h36v-60zM125 0h-18v712h18v-712z" />
    <glyph glyph-name="Eth" unicode="&#xd0;" horiz-adv-x="812" 
d="M187 712h234q157 0 237.5 -93t80.5 -263q0 -171 -83 -263.5t-247 -92.5h-222v355l-165 -1v17h165v341zM205 17h205q155 0 233 88.5t78 250.5t-75.5 250.5t-225.5 88.5h-215v-324h225v-17l-225 1v-338z" />
    <glyph glyph-name="Ntilde" unicode="&#xd1;" horiz-adv-x="742" 
d="M281 962q-71 0 -75 -135h-17q7 151 93 151q26 0 46.5 -14t33.5 -34t26 -39.5t31.5 -33.5t42.5 -14q70 0 74 135h17q-7 -151 -92 -151q-30 0 -55 20t-39 48q-33 67 -86 67zM617 29v683h17v-712h-17l-492 682v-682h-18v712h17z" />
    <glyph glyph-name="Ograve" unicode="&#xd2;" horiz-adv-x="816" 
d="M443 822h-20l-120 150h23zM406 -12q-148 0 -236 103q-89 104 -89 265q0 165 88 266q89 102 237 102q152 0 240 -102q88 -101 88 -266q0 -164 -88 -265q-88 -103 -240 -103zM407 5q142 0 226 98q83 98 83 253q0 156 -83 254q-84 97 -226 97q-143 0 -225 -97
q-83 -98 -83 -254t84 -253q83 -98 224 -98z" />
    <glyph glyph-name="Oacute" unicode="&#xd3;" horiz-adv-x="816" 
d="M386 822h-20l118 150h23zM406 -12q-148 0 -236 103q-89 104 -89 265q0 165 88 266q89 102 237 102q152 0 240 -102q88 -101 88 -266q0 -164 -88 -265q-88 -103 -240 -103zM407 5q142 0 226 98q83 98 83 253q0 156 -83 254q-84 97 -226 97q-143 0 -225 -97
q-83 -98 -83 -254t84 -253q83 -98 224 -98z" />
    <glyph glyph-name="Ocircumflex" unicode="&#xd4;" horiz-adv-x="816" 
d="M279 810h-21l139 162h18l139 -162h-21l-127 147zM406 -12q-148 0 -236 103q-89 104 -89 265q0 165 88 266q89 102 237 102q152 0 240 -102q88 -101 88 -266q0 -164 -88 -265q-88 -103 -240 -103zM407 5q142 0 226 98q83 98 83 253q0 156 -83 254q-84 97 -226 97
q-143 0 -225 -97q-83 -98 -83 -254t84 -253q83 -98 224 -98z" />
    <glyph glyph-name="Otilde" unicode="&#xd5;" horiz-adv-x="816" 
d="M241 827h-17q7 151 93 151q26 0 46.5 -14t33.5 -34t26 -39.5t31.5 -33.5t42.5 -14q69 0 74 135h17q-7 -151 -92 -151q-30 0 -55 20t-39 48q-34 67 -86 67q-70 0 -75 -135zM406 -12q-148 0 -236 103q-89 104 -89 265q0 165 88 266q89 102 237 102q152 0 240 -102
q88 -101 88 -266q0 -164 -88 -265q-88 -103 -240 -103zM407 5q142 0 226 98q83 98 83 253q0 156 -83 254q-84 97 -226 97q-143 0 -225 -97q-83 -98 -83 -254t84 -253q83 -98 224 -98z" />
    <glyph glyph-name="Odieresis" unicode="&#xd6;" horiz-adv-x="816" 
d="M328 824h-36v60h36v-60zM520 824h-36v60h36v-60zM406 -12q-148 0 -236 103q-89 104 -89 265q0 165 88 266q89 102 237 102q152 0 240 -102q88 -101 88 -266q0 -164 -88 -265q-88 -103 -240 -103zM407 5q142 0 226 98q83 98 83 253q0 156 -83 254q-84 97 -226 97
q-143 0 -225 -97q-83 -98 -83 -254t84 -253q83 -98 224 -98z" />
    <glyph glyph-name="multiply" unicode="&#xd7;" 
d="M319 298l-224 -225l-12 13l225 224l-225 223l12 13l224 -225l224 225l13 -12l-225 -224l225 -225l-13 -12z" />
    <glyph glyph-name="Oslash" unicode="&#xd8;" horiz-adv-x="816" 
d="M723 703l-74 -85q85 -100 85 -262q0 -164 -88 -265q-88 -103 -240 -103q-140 0 -228 93l-71 -82l-12 10l73 83q-87 104 -87 264q0 165 88 266q89 102 237 102q144 0 232 -94l73 83zM99 356q0 -152 81 -250l447 510q-85 91 -220 91q-143 0 -225 -97q-83 -98 -83 -254z
M407 5q142 0 226 98q83 98 83 253q0 154 -79 249l-447 -511q84 -89 217 -89z" />
    <glyph glyph-name="Ugrave" unicode="&#xd9;" horiz-adv-x="739" 
d="M406 822h-20l-120 150h23zM631 712v-476q0 -248 -262 -248t-262 248v476h18v-476q0 -231 244 -231t244 231v476h18z" />
    <glyph glyph-name="Uacute" unicode="&#xda;" horiz-adv-x="739" 
d="M349 822h-20l118 150h23zM631 712v-476q0 -248 -262 -248t-262 248v476h18v-476q0 -231 244 -231t244 231v476h18z" />
    <glyph glyph-name="Ucircumflex" unicode="&#xdb;" horiz-adv-x="739" 
d="M242 810h-21l139 162h18l139 -162h-21l-127 147zM631 712v-476q0 -248 -262 -248t-262 248v476h18v-476q0 -231 244 -231t244 231v476h18z" />
    <glyph glyph-name="Udieresis" unicode="&#xdc;" horiz-adv-x="739" 
d="M291 824h-36v60h36v-60zM483 824h-36v60h36v-60zM631 712v-476q0 -248 -262 -248t-262 248v476h18v-476q0 -231 244 -231t244 231v476h18z" />
    <glyph glyph-name="Yacute" unicode="&#xdd;" horiz-adv-x="668" 
d="M413 972h23l-121 -150h-20zM619 712h22l-297 -426v-286h-18v286l-299 426h23l276 -397l9 -14l9 14z" />
    <glyph glyph-name="Thorn" unicode="&#xde;" horiz-adv-x="644" 
d="M125 563h255q96 0 153 -50.5t57 -141.5q0 -93 -57.5 -144t-164.5 -51h-243v-176h-18v712h18v-149zM125 193h243q98 0 151 46.5t53 131.5q0 82 -53.5 128.5t-139.5 46.5h-254v-353z" />
    <glyph glyph-name="germandbls" unicode="&#xdf;" horiz-adv-x="596" 
d="M347 392q190 -24 190 -193q0 -96 -59 -147.5t-165 -51.5h-82v17h83q97 0 151 47.5t54 134.5q0 182 -234 182h-54v17h53q94 0 146 40.5t52 114.5q0 72 -49.5 113t-134.5 41q-90 0 -138 -47t-48 -132v-528h-18v527q0 94 52.5 145.5t151.5 51.5q93 0 147.5 -45.5
t54.5 -124.5q0 -67 -39.5 -109t-113.5 -53z" />
    <glyph glyph-name="agrave" unicode="&#xe0;" horiz-adv-x="578" 
d="M199 776l117 -150h-20l-120 150h23zM552 16h16v-16h-12q-59 0 -83 27t-24 93l-1 14q-21 -71 -76 -108.5t-135 -37.5q-85 0 -130.5 39.5t-45.5 104.5q0 124 159 145l127 18q59 9 80 30.5t21 63.5v2q0 55 -43 87.5t-127 32.5q-85 0 -125.5 -32.5t-50.5 -100.5h-18
q9 74 55.5 112t139.5 38q92 0 139.5 -37t47.5 -101v-269q0 -57 19 -81t67 -24zM238 4q180 0 210 182v141q-23 -38 -98 -48l-128 -18q-143 -21 -143 -128q0 -59 40.5 -94t118.5 -35z" />
    <glyph glyph-name="aacute" unicode="&#xe1;" horiz-adv-x="578" 
d="M357 776h23l-121 -150h-20zM552 16h16v-16h-12q-59 0 -83 27t-24 93l-1 14q-21 -71 -76 -108.5t-135 -37.5q-85 0 -130.5 39.5t-45.5 104.5q0 124 159 145l127 18q59 9 80 30.5t21 63.5v2q0 55 -43 87.5t-127 32.5q-85 0 -125.5 -32.5t-50.5 -100.5h-18q9 74 55.5 112
t139.5 38q92 0 139.5 -37t47.5 -101v-269q0 -57 19 -81t67 -24zM238 4q180 0 210 182v141q-23 -38 -98 -48l-128 -18q-143 -21 -143 -128q0 -59 40.5 -94t118.5 -35z" />
    <glyph glyph-name="acircumflex" unicode="&#xe2;" horiz-adv-x="578" 
d="M406 614l-127 147l-127 -147h-21l139 162h18l139 -162h-21zM552 16h16v-16h-12q-59 0 -83 27t-24 93l-1 14q-21 -71 -76 -108.5t-135 -37.5q-85 0 -130.5 39.5t-45.5 104.5q0 124 159 145l127 18q59 9 80 30.5t21 63.5v2q0 55 -43 87.5t-127 32.5q-85 0 -125.5 -32.5
t-50.5 -100.5h-18q9 74 55.5 112t139.5 38q92 0 139.5 -37t47.5 -101v-269q0 -57 19 -81t67 -24zM238 4q180 0 210 182v141q-23 -38 -98 -48l-128 -18q-143 -21 -143 -128q0 -59 40.5 -94t118.5 -35z" />
    <glyph glyph-name="atilde" unicode="&#xe3;" horiz-adv-x="578" 
d="M189 766q-71 0 -75 -135h-17q7 151 93 151q26 0 46.5 -14t33.5 -34t26 -39.5t31.5 -33.5t42.5 -14q70 0 74 135h17q-7 -151 -92 -151q-30 0 -55 20t-39 48q-33 67 -86 67zM552 16h16v-16h-12q-59 0 -83 27t-24 93l-1 14q-21 -71 -76 -108.5t-135 -37.5q-85 0 -130.5 39.5
t-45.5 104.5q0 124 159 145l127 18q59 9 80 30.5t21 63.5v2q0 55 -43 87.5t-127 32.5q-85 0 -125.5 -32.5t-50.5 -100.5h-18q9 74 55.5 112t139.5 38q92 0 139.5 -37t47.5 -101v-269q0 -57 19 -81t67 -24zM238 4q180 0 210 182v141q-23 -38 -98 -48l-128 -18
q-143 -21 -143 -128q0 -59 40.5 -94t118.5 -35z" />
    <glyph glyph-name="adieresis" unicode="&#xe4;" horiz-adv-x="578" 
d="M165 713h36v-60h-36v60zM357 713h36v-60h-36v60zM552 16h16v-16h-12q-59 0 -83 27t-24 93l-1 14q-21 -71 -76 -108.5t-135 -37.5q-85 0 -130.5 39.5t-45.5 104.5q0 124 159 145l127 18q59 9 80 30.5t21 63.5v2q0 55 -43 87.5t-127 32.5q-85 0 -125.5 -32.5t-50.5 -100.5
h-18q9 74 55.5 112t139.5 38q92 0 139.5 -37t47.5 -101v-269q0 -57 19 -81t67 -24zM238 4q180 0 210 182v141q-23 -38 -98 -48l-128 -18q-143 -21 -143 -128q0 -59 40.5 -94t118.5 -35z" />
    <glyph glyph-name="aring" unicode="&#xe5;" horiz-adv-x="578" 
d="M356 628q-32 -30 -77 -30q-46 0 -76 30q-31 30 -31 76q0 47 30 77.5t77 30.5t77 -30.5t30 -77.5q0 -46 -30 -76zM345 771q-19 19 -47.5 23.5t-53.5 -5t-42 -32.5t-15 -53q0 -39 26.5 -64.5t65.5 -25.5t65.5 25.5t26.5 64.5q0 41 -26 67zM552 16h16v-16h-12q-59 0 -83 27
t-24 93l-1 14q-21 -71 -76 -108.5t-135 -37.5q-85 0 -130.5 39.5t-45.5 104.5q0 124 159 145l127 18q59 9 80 30.5t21 63.5v2q0 55 -43 87.5t-127 32.5q-85 0 -125.5 -32.5t-50.5 -100.5h-18q9 74 55.5 112t139.5 38q92 0 139.5 -37t47.5 -101v-269q0 -57 19 -81t67 -24z
M238 4q180 0 210 182v141q-23 -38 -98 -48l-128 -18q-143 -21 -143 -128q0 -59 40.5 -94t118.5 -35z" />
    <glyph glyph-name="ae" unicode="&#xe6;" horiz-adv-x="954" 
d="M896 267h-431v-2v-6q0 -117 57 -185.5t156 -68.5q74 0 123 38.5t68 99.5l16 -4q-18 -61 -70 -106q-53 -45 -137 -45t-141 46.5t-78 130.5q-15 -85 -73 -131t-147 -46q-85 0 -131.5 41.5t-46.5 108.5t47.5 106t131.5 39h208v88q0 67 -45.5 103.5t-131.5 36.5
q-81 0 -120 -32.5t-49 -100.5h-18q16 150 188 150q92 0 141.5 -39.5t51.5 -112.5q23 72 77 112t131 40q103 0 163 -69t60 -175v-17zM673 511q-92 0 -147.5 -61.5t-60.5 -166.5h413q-2 103 -56.5 165.5t-148.5 62.5zM239 4q93 0 150 54.5t59 156.5v52h-210q-75 0 -117 -34.5
t-42 -94.5q0 -61 41.5 -97.5t118.5 -36.5z" />
    <glyph glyph-name="ccedilla" unicode="&#xe7;" horiz-adv-x="540" 
d="M284 5q79 0 128 44.5t58 120.5h18q-9 -80 -61.5 -130t-137.5 -52l-38 -63h34q42 0 64.5 -18t22.5 -51q0 -36 -27.5 -55.5t-78.5 -19.5h-38v15h38q89 0 89 60q0 53 -71 53h-43l-9 13l40 66q-100 4 -156.5 76t-56.5 194q0 127 59 198.5t166 71.5q92 0 145 -51
q51 -50 59 -118h-17q-7 60 -54 107q-47 45 -133 45q-99 0 -153 -66.5t-54 -186.5q0 -119 55 -186t152 -67z" />
    <glyph glyph-name="egrave" unicode="&#xe8;" horiz-adv-x="566" 
d="M204 776l117 -150h-20l-120 150h23zM508 267h-431v-2v-6q0 -117 57 -185.5t156 -68.5q74 0 123 38.5t68 99.5l16 -4q-18 -61 -70 -106q-53 -45 -138 -45q-107 0 -168 75q-62 74 -62 198q0 123 60.5 195t165.5 72q103 0 163 -69t60 -175v-17zM285 511q-92 0 -147.5 -61.5
t-60.5 -166.5h413q-2 103 -56.5 165.5t-148.5 62.5z" />
    <glyph glyph-name="eacute" unicode="&#xe9;" horiz-adv-x="566" 
d="M362 776h23l-121 -150h-20zM508 267h-431v-2v-6q0 -117 57 -185.5t156 -68.5q74 0 123 38.5t68 99.5l16 -4q-18 -61 -70 -106q-53 -45 -138 -45q-107 0 -168 75q-62 74 -62 198q0 123 60.5 195t165.5 72q103 0 163 -69t60 -175v-17zM285 511q-92 0 -147.5 -61.5
t-60.5 -166.5h413q-2 103 -56.5 165.5t-148.5 62.5z" />
    <glyph glyph-name="ecircumflex" unicode="&#xea;" horiz-adv-x="566" 
d="M411 614l-127 147l-127 -147h-21l139 162h18l139 -162h-21zM508 267h-431v-2v-6q0 -117 57 -185.5t156 -68.5q74 0 123 38.5t68 99.5l16 -4q-18 -61 -70 -106q-53 -45 -138 -45q-107 0 -168 75q-62 74 -62 198q0 123 60.5 195t165.5 72q103 0 163 -69t60 -175v-17z
M285 511q-92 0 -147.5 -61.5t-60.5 -166.5h413q-2 103 -56.5 165.5t-148.5 62.5z" />
    <glyph glyph-name="edieresis" unicode="&#xeb;" horiz-adv-x="566" 
d="M170 713h36v-60h-36v60zM362 713h36v-60h-36v60zM508 267h-431v-2v-6q0 -117 57 -185.5t156 -68.5q74 0 123 38.5t68 99.5l16 -4q-18 -61 -70 -106q-53 -45 -138 -45q-107 0 -168 75q-62 74 -62 198q0 123 60.5 195t165.5 72q103 0 163 -69t60 -175v-17zM285 511
q-92 0 -147.5 -61.5t-60.5 -166.5h413q-2 103 -56.5 165.5t-148.5 62.5z" />
    <glyph glyph-name="igrave" unicode="&#xec;" horiz-adv-x="206" 
d="M140 626h-20l-120 150h23zM112 0h-18v516h18v-516z" />
    <glyph glyph-name="iacute" unicode="&#xed;" horiz-adv-x="206" 
d="M83 626h-20l118 150h23zM112 0h-18v516h18v-516z" />
    <glyph glyph-name="icircumflex" unicode="&#xee;" horiz-adv-x="206" 
d="M-24 614h-21l139 162h18l139 -162h-21l-127 147zM112 0h-18v516h18v-516z" />
    <glyph glyph-name="idieresis" unicode="&#xef;" horiz-adv-x="206" 
d="M37 653h-37v60h37v-60zM206 653h-37v60h37v-60zM112 0h-18v516h18v-516z" />
    <glyph glyph-name="eth" unicode="&#xf0;" horiz-adv-x="561" 
d="M442 721l-130 -95q191 -153 191 -371q0 -123 -58.5 -192.5t-161.5 -69.5q-100 0 -162 65t-62 167q0 101 60 165q60 65 159 65q68 0 123 -33.5t79 -92.5q-27 168 -181 287l-116 -87l-10 13l113 84q-61 45 -145 85l8 14q89 -42 150 -89l132 98zM485 255v5q-8 83 -66 131
q-59 47 -140 47q-91 0 -147 -60q-55 -59 -55 -153q0 -97 57 -156t149 -59q95 0 148.5 64.5t53.5 180.5z" />
    <glyph glyph-name="ntilde" unicode="&#xf1;" horiz-adv-x="582" 
d="M207 766q-71 0 -75 -135h-17q7 151 93 151q26 0 46.5 -14t33.5 -34t26 -39.5t31.5 -33.5t42.5 -14q70 0 74 135h17q-7 -151 -92 -151q-30 0 -55 20t-39 48q-33 67 -86 67zM308 528q87 0 133.5 -50t46.5 -143v-335h-18v334q0 85 -42 131t-122 46q-90 0 -142 -59t-52 -173
v-279h-18v516h17v-138q43 150 197 150z" />
    <glyph glyph-name="ograve" unicode="&#xf2;" horiz-adv-x="584" 
d="M330 626h-20l-120 150h23zM462 62q-65 -74 -170 -74q-104 0 -169 74q-64 73 -64 196q0 124 64 197t170 73q105 0 169 -73t64 -197q0 -123 -64 -196zM292 5q99 0 157.5 68t58.5 185t-58.5 185t-157.5 68q-97 0 -156 -68t-59 -185t59 -185t156 -68z" />
    <glyph glyph-name="oacute" unicode="&#xf3;" horiz-adv-x="584" 
d="M273 626h-20l118 150h23zM462 62q-65 -74 -170 -74q-104 0 -169 74q-64 73 -64 196q0 124 64 197t170 73q105 0 169 -73t64 -197q0 -123 -64 -196zM292 5q99 0 157.5 68t58.5 185t-58.5 185t-157.5 68q-97 0 -156 -68t-59 -185t59 -185t156 -68z" />
    <glyph glyph-name="ocircumflex" unicode="&#xf4;" horiz-adv-x="584" 
d="M166 614h-21l139 162h18l139 -162h-21l-127 147zM462 62q-65 -74 -170 -74q-104 0 -169 74q-64 73 -64 196q0 124 64 197t170 73q105 0 169 -73t64 -197q0 -123 -64 -196zM292 5q99 0 157.5 68t58.5 185t-58.5 185t-157.5 68q-97 0 -156 -68t-59 -185t59 -185t156 -68z
" />
    <glyph glyph-name="otilde" unicode="&#xf5;" horiz-adv-x="584" 
d="M128 631h-17q7 151 93 151q26 0 46.5 -14t33.5 -34t26 -39.5t31.5 -33.5t42.5 -14q70 0 74 135h17q-7 -151 -92 -151q-30 0 -55 20t-39 48q-33 67 -86 67q-71 0 -75 -135zM462 62q-65 -74 -170 -74q-104 0 -169 74q-64 73 -64 196q0 124 64 197t170 73q105 0 169 -73
t64 -197q0 -123 -64 -196zM292 5q99 0 157.5 68t58.5 185t-58.5 185t-157.5 68q-97 0 -156 -68t-59 -185t59 -185t156 -68z" />
    <glyph glyph-name="odieresis" unicode="&#xf6;" horiz-adv-x="584" 
d="M215 653h-36v60h36v-60zM407 653h-36v60h36v-60zM462 62q-65 -74 -170 -74q-104 0 -169 74q-64 73 -64 196q0 124 64 197t170 73q105 0 169 -73t64 -197q0 -123 -64 -196zM292 5q99 0 157.5 68t58.5 185t-58.5 185t-157.5 68q-97 0 -156 -68t-59 -185t59 -185t156 -68z
" />
    <glyph glyph-name="divide" unicode="&#xf7;" 
d="M350 452h-60v50h60v-50zM587 300h-534v18h534v-18zM350 116h-60v50h60v-50z" />
    <glyph glyph-name="oslash" unicode="&#xf8;" horiz-adv-x="584" 
d="M513 519l-51 -64q64 -73 64 -197q0 -123 -64 -196q-65 -74 -170 -74q-96 0 -158 62l-50 -62l-13 9l52 64q-64 73 -64 197t64 197t170 73q96 0 158 -62l50 62zM77 258q0 -116 57 -183l306 378q-55 58 -148 58q-97 0 -156 -68t-59 -185zM292 5q99 0 157.5 68t58.5 185
q0 116 -58 183l-305 -378q55 -58 147 -58z" />
    <glyph glyph-name="ugrave" unicode="&#xf9;" horiz-adv-x="582" 
d="M212 776l117 -150h-20l-120 150h23zM470 237v279h18v-516h-17v138q-43 -150 -197 -150q-87 0 -133.5 50t-46.5 143v335h18v-334q0 -85 42 -131t122 -46q90 0 142 59t52 173z" />
    <glyph glyph-name="uacute" unicode="&#xfa;" horiz-adv-x="582" 
d="M370 776h23l-121 -150h-20zM470 237v279h18v-516h-17v138q-43 -150 -197 -150q-87 0 -133.5 50t-46.5 143v335h18v-334q0 -85 42 -131t122 -46q90 0 142 59t52 173z" />
    <glyph glyph-name="ucircumflex" unicode="&#xfb;" horiz-adv-x="582" 
d="M418 614l-127 147l-127 -147h-21l139 162h18l139 -162h-21zM470 237v279h18v-516h-17v138q-43 -150 -197 -150q-87 0 -133.5 50t-46.5 143v335h18v-334q0 -85 42 -131t122 -46q90 0 142 59t52 173z" />
    <glyph glyph-name="udieresis" unicode="&#xfc;" horiz-adv-x="582" 
d="M177 713h36v-60h-36v60zM369 713h36v-60h-36v60zM470 237v279h18v-516h-17v138q-43 -150 -197 -150q-87 0 -133.5 50t-46.5 143v335h18v-334q0 -85 42 -131t122 -46q90 0 142 59t52 173z" />
    <glyph glyph-name="yacute" unicode="&#xfd;" horiz-adv-x="545" 
d="M351 776h23l-121 -150h-20zM277 -6l205 522h19l-251 -635q-19 -49 -47 -67t-85 -18h-27v17h26q53 0 77 15.5t41 58.5l35 89l-227 540h20l207 -497z" />
    <glyph glyph-name="thorn" unicode="&#xfe;" horiz-adv-x="594" 
d="M318 528q101 0 159 -72t58 -193q0 -122 -59 -199q-58 -76 -160 -76q-75 0 -129 45t-75 119v-356h-18v916h18v-347q19 73 74 118t132 45zM315 5q94 0 148 71q54 70 54 187q0 115 -54 181.5t-146 66.5t-149 -67q-57 -68 -57 -186q0 -114 57 -183q55 -70 147 -70z" />
    <glyph glyph-name="ydieresis" unicode="&#xff;" horiz-adv-x="545" 
d="M159 713h36v-60h-36v60zM351 713h36v-60h-36v60zM277 -6l205 522h19l-251 -635q-19 -49 -47 -67t-85 -18h-27v17h26q53 0 77 15.5t41 58.5l35 89l-227 540h20l207 -497z" />
    <glyph glyph-name="Amacron" unicode="&#x100;" horiz-adv-x="716" 
d="M215 875h286v-16h-286v16zM677 0h-20l-104 240h-390l-104 -240h-20l311 715h18zM353 676l-182 -418h375l-181 418l-6 16z" />
    <glyph glyph-name="amacron" unicode="&#x101;" horiz-adv-x="578" 
d="M136 679h286v-16h-286v16zM552 16h16v-16h-12q-59 0 -83 27t-24 93l-1 14q-21 -71 -76 -108.5t-135 -37.5q-85 0 -130.5 39.5t-45.5 104.5q0 124 159 145l127 18q59 9 80 30.5t21 63.5v2q0 55 -43 87.5t-127 32.5q-85 0 -125.5 -32.5t-50.5 -100.5h-18q9 74 55.5 112
t139.5 38q92 0 139.5 -37t47.5 -101v-269q0 -57 19 -81t67 -24zM238 4q180 0 210 182v141q-23 -38 -98 -48l-128 -18q-143 -21 -143 -128q0 -59 40.5 -94t118.5 -35z" />
    <glyph glyph-name="Abreve" unicode="&#x102;" horiz-adv-x="716" 
d="M500 945h16q-4 -129 -158 -129t-158 129h16q5 -113 142 -113t142 113zM677 0h-20l-104 240h-390l-104 -240h-20l311 715h18zM353 676l-182 -418h375l-181 418l-6 16z" />
    <glyph glyph-name="abreve" unicode="&#x103;" horiz-adv-x="578" 
d="M421 749h16q-5 -129 -158 -129t-158 129h16q5 -113 142 -113t142 113zM552 16h16v-16h-12q-59 0 -83 27t-24 93l-1 14q-21 -71 -76 -108.5t-135 -37.5q-85 0 -130.5 39.5t-45.5 104.5q0 124 159 145l127 18q59 9 80 30.5t21 63.5v2q0 55 -43 87.5t-127 32.5
q-85 0 -125.5 -32.5t-50.5 -100.5h-18q9 74 55.5 112t139.5 38q92 0 139.5 -37t47.5 -101v-269q0 -57 19 -81t67 -24zM238 4q180 0 210 182v141q-23 -38 -98 -48l-128 -18q-143 -21 -143 -128q0 -59 40.5 -94t118.5 -35z" />
    <glyph glyph-name="Aogonek" unicode="&#x104;" horiz-adv-x="716" 
d="M538 -119q0 -31 21.5 -48.5t62.5 -17.5h37v-16h-37q-50 0 -76 21t-26 60q0 57 74 95l61 30l-102 235h-390l-104 -240h-20l311 715h18l309 -715l-75 -38q-64 -31 -64 -81zM353 676l-182 -418h375l-181 418l-6 16z" />
    <glyph glyph-name="aogonek" unicode="&#x105;" horiz-adv-x="578" 
d="M568 0l-76 -38q-64 -31 -64 -81q0 -31 21.5 -48.5t62.5 -17.5h38v-16h-37q-50 0 -76 21t-26 60q0 57 74 95l52 26q-48 4 -68 31.5t-20 87.5l-1 14q-21 -71 -76 -108.5t-135 -37.5q-85 0 -130.5 39.5t-45.5 104.5q0 124 159 145l127 18q59 9 80 30.5t21 63.5v2
q0 55 -43 87.5t-127 32.5q-85 0 -125.5 -32.5t-50.5 -100.5h-18q9 74 55.5 112t139.5 38q92 0 139.5 -37t47.5 -101v-269q0 -57 19 -81t67 -24h16v-16zM238 4q180 0 210 182v141q-23 -38 -98 -48l-128 -18q-143 -21 -143 -128q0 -59 40.5 -94t118.5 -35z" />
    <glyph glyph-name="Cacute" unicode="&#x106;" horiz-adv-x="738" 
d="M372 822h-20l118 150h23zM392 -12q-144 0 -227 104q-84 104 -84 266q0 166 85 266t225 100q114 0 196 -65q79 -64 93 -163h-19q-13 93 -88 152q-76 59 -181 59q-134 0 -213 -94q-80 -95 -80 -255q0 -158 79 -255q80 -98 215 -98q110 0 187 67q78 67 82 168h17
q-5 -108 -87 -180t-200 -72z" />
    <glyph glyph-name="cacute" unicode="&#x107;" horiz-adv-x="540" 
d="M262 626h-20l118 150h23zM283 -12q-105 0 -164.5 72t-59.5 198q0 127 59 198.5t166 71.5q92 0 145 -51q51 -50 59 -118h-17q-7 60 -54 107q-47 45 -133 45q-99 0 -153 -66.5t-54 -186.5q0 -119 55 -186t152 -67q79 0 128 44.5t58 120.5h18q-9 -83 -63 -132.5t-142 -49.5z
" />
    <glyph glyph-name="Ccircumflex" unicode="&#x108;" horiz-adv-x="738" 
d="M264 810h-21l139 162h18l139 -162h-21l-127 147zM392 -12q-144 0 -227 104q-84 104 -84 266q0 166 85 266t225 100q114 0 196 -65q79 -64 93 -163h-19q-13 93 -88 152q-76 59 -181 59q-134 0 -213 -94q-80 -95 -80 -255q0 -158 79 -255q80 -98 215 -98q110 0 187 67
q78 67 82 168h17q-5 -108 -87 -180t-200 -72z" />
    <glyph glyph-name="ccircumflex" unicode="&#x109;" horiz-adv-x="540" 
d="M155 614h-21l139 162h18l139 -162h-21l-127 147zM283 -12q-105 0 -164.5 72t-59.5 198q0 127 59 198.5t166 71.5q92 0 145 -51q51 -50 59 -118h-17q-7 60 -54 107q-47 45 -133 45q-99 0 -153 -66.5t-54 -186.5q0 -119 55 -186t152 -67q79 0 128 44.5t58 120.5h18
q-9 -83 -63 -132.5t-142 -49.5z" />
    <glyph glyph-name="Cdotaccent" unicode="&#x10a;" horiz-adv-x="738" 
d="M409 824h-36v60h36v-60zM392 -12q-144 0 -227 104q-84 104 -84 266q0 166 85 266t225 100q114 0 196 -65q79 -64 93 -163h-19q-13 93 -88 152q-76 59 -181 59q-134 0 -213 -94q-80 -95 -80 -255q0 -158 79 -255q80 -98 215 -98q110 0 187 67q78 67 82 168h17
q-5 -108 -87 -180t-200 -72z" />
    <glyph glyph-name="cdotaccent" unicode="&#x10b;" horiz-adv-x="540" 
d="M300 653h-36v60h36v-60zM283 -12q-105 0 -164.5 72t-59.5 198q0 127 59 198.5t166 71.5q92 0 145 -51q51 -50 59 -118h-17q-7 60 -54 107q-47 45 -133 45q-99 0 -153 -66.5t-54 -186.5q0 -119 55 -186t152 -67q79 0 128 44.5t58 120.5h18q-9 -83 -63 -132.5t-142 -49.5z
" />
    <glyph glyph-name="Ccaron" unicode="&#x10c;" horiz-adv-x="738" 
d="M400 809h-18l-139 162h21l127 -147l127 147h21zM392 -12q-144 0 -227 104q-84 104 -84 266q0 166 85 266t225 100q114 0 196 -65q79 -64 93 -163h-19q-13 93 -88 152q-76 59 -181 59q-134 0 -213 -94q-80 -95 -80 -255q0 -158 79 -255q80 -98 215 -98q110 0 187 67
q78 67 82 168h17q-5 -108 -87 -180t-200 -72z" />
    <glyph glyph-name="ccaron" unicode="&#x10d;" horiz-adv-x="540" 
d="M291 612h-18l-139 162h21l127 -147l127 147h21zM283 -12q-105 0 -164.5 72t-59.5 198q0 127 59 198.5t166 71.5q92 0 145 -51q51 -50 59 -118h-17q-7 60 -54 107q-47 45 -133 45q-99 0 -153 -66.5t-54 -186.5q0 -119 55 -186t152 -67q79 0 128 44.5t58 120.5h18
q-9 -83 -63 -132.5t-142 -49.5z" />
    <glyph glyph-name="Dcaron" unicode="&#x10e;" horiz-adv-x="732" 
d="M504 971l-139 -162h-18l-139 162h21l127 -147l127 147h21zM107 712h234q157 0 237.5 -93t80.5 -263q0 -171 -83 -263.5t-247 -92.5h-222v712zM125 17h205q155 0 233 88.5t78 250.5t-76 250.5t-224 88.5h-216v-678z" />
    <glyph glyph-name="dcaron" unicode="&#x10f;" horiz-adv-x="725" 
d="M483 363v349h18v-712h-17v159q-18 -76 -73.5 -123.5t-131.5 -47.5q-103 0 -161 76q-59 76 -59 198q0 120 59 194q58 72 159 72q78 0 133 -46t73 -119zM639 514l67 198h19l-69 -198h-17zM279 5q93 0 148 70q56 70 56 183q0 117 -56 185t-149 68t-147 -67t-54 -182
q0 -116 54 -186q54 -71 148 -71z" />
    <glyph glyph-name="Dcroat" unicode="&#x110;" horiz-adv-x="812" 
d="M187 712h234q157 0 237.5 -93t80.5 -263q0 -171 -83 -263.5t-247 -92.5h-222v355l-166 -1v17h166v341zM205 17h205q155 0 233 88.5t78 250.5t-75.5 250.5t-225.5 88.5h-215v-324h225v-17l-225 1v-338z" />
    <glyph glyph-name="dslash" unicode="&#x111;" horiz-adv-x="648" 
d="M501 637h137v-16h-137v-621h-17v159q-18 -76 -73.5 -123.5t-131.5 -47.5q-103 0 -161 76q-59 76 -59 198q0 120 59 194q58 72 159 72q78 0 133 -46t73 -119v258h-184v16h184v75h18v-75zM279 5q93 0 148 70q56 70 56 183q0 117 -56 185t-149 68t-147 -67t-54 -182
q0 -116 54 -186q54 -71 148 -71z" />
    <glyph glyph-name="Emacron" unicode="&#x112;" horiz-adv-x="668" 
d="M208 875h286v-16h-286v16zM125 365v-348h468v-17h-486v712h467v-17h-449v-313h421v-17h-421z" />
    <glyph glyph-name="emacron" unicode="&#x113;" horiz-adv-x="566" 
d="M141 679h286v-16h-286v16zM508 267h-431v-2v-6q0 -117 57 -185.5t156 -68.5q74 0 123 38.5t68 99.5l16 -4q-18 -61 -70 -106q-53 -45 -138 -45q-107 0 -168 75q-62 74 -62 198q0 123 60.5 195t165.5 72q103 0 163 -69t60 -175v-17zM285 511q-92 0 -147.5 -61.5
t-60.5 -166.5h413q-2 103 -56.5 165.5t-148.5 62.5z" />
    <glyph glyph-name="Ebreve" unicode="&#x114;" horiz-adv-x="668" 
d="M493 945h16q-5 -129 -158 -129t-158 129h16q5 -113 142 -113t142 113zM125 365v-348h468v-17h-486v712h467v-17h-449v-313h421v-17h-421z" />
    <glyph glyph-name="ebreve" unicode="&#x115;" horiz-adv-x="566" 
d="M426 749h16q-4 -129 -158 -129t-158 129h16q5 -113 142 -113t142 113zM508 267h-431v-2v-6q0 -117 57 -185.5t156 -68.5q74 0 123 38.5t68 99.5l16 -4q-18 -61 -70 -106q-53 -45 -138 -45q-107 0 -168 75q-62 74 -62 198q0 123 60.5 195t165.5 72q103 0 163 -69t60 -175
v-17zM285 511q-92 0 -147.5 -61.5t-60.5 -166.5h413q-2 103 -56.5 165.5t-148.5 62.5z" />
    <glyph glyph-name="Edotaccent" unicode="&#x116;" horiz-adv-x="668" 
d="M333 884h36v-60h-36v60zM125 365v-348h468v-17h-486v712h467v-17h-449v-313h421v-17h-421z" />
    <glyph glyph-name="edotaccent" unicode="&#x117;" horiz-adv-x="566" 
d="M266 713h36v-60h-36v60zM508 267h-431v-2v-6q0 -117 57 -185.5t156 -68.5q74 0 123 38.5t68 99.5l16 -4q-18 -61 -70 -106q-53 -45 -138 -45q-107 0 -168 75q-62 74 -62 198q0 123 60.5 195t165.5 72q103 0 163 -69t60 -175v-17zM285 511q-92 0 -147.5 -61.5
t-60.5 -166.5h413q-2 103 -56.5 165.5t-148.5 62.5z" />
    <glyph glyph-name="Eogonek" unicode="&#x118;" horiz-adv-x="668" 
d="M593 0l-75 -38q-64 -31 -64 -81q0 -31 21.5 -48.5t62.5 -17.5h37v-16h-37q-50 0 -76 21t-26 60q0 57 74 95l51 25h-454v712h467v-17h-449v-313h421v-17h-421v-348h468v-17z" />
    <glyph glyph-name="eogonek" unicode="&#x119;" horiz-adv-x="566" 
d="M508 267h-431v-2v-6q0 -117 57 -185.5t156 -68.5q74 0 123 38.5t68 99.5l16 -4q-27 -94 -112 -131l-64 -33q-64 -31 -64 -81q0 -31 21.5 -48.5t62.5 -17.5h37v-16h-37q-50 0 -76 21t-26 60q0 57 74 95l3 1q-6 -1 -27 -1q-107 0 -168 75q-62 74 -62 198q0 123 60.5 195
t165.5 72q103 0 163 -69t60 -175v-17zM285 511q-92 0 -147.5 -61.5t-60.5 -166.5h413q-2 103 -56.5 165.5t-148.5 62.5z" />
    <glyph glyph-name="Ecaron" unicode="&#x11a;" horiz-adv-x="668" 
d="M499 971l-139 -162h-18l-139 162h21l127 -147l127 147h21zM125 365v-348h468v-17h-486v712h467v-17h-449v-313h421v-17h-421z" />
    <glyph glyph-name="ecaron" unicode="&#x11b;" horiz-adv-x="566" 
d="M432 774l-139 -162h-18l-139 162h21l127 -147l127 147h21zM508 267h-431v-2v-6q0 -117 57 -185.5t156 -68.5q74 0 123 38.5t68 99.5l16 -4q-18 -61 -70 -106q-53 -45 -138 -45q-107 0 -168 75q-62 74 -62 198q0 123 60.5 195t165.5 72q103 0 163 -69t60 -175v-17z
M285 511q-92 0 -147.5 -61.5t-60.5 -166.5h413q-2 103 -56.5 165.5t-148.5 62.5z" />
    <glyph glyph-name="Gcircumflex" unicode="&#x11c;" horiz-adv-x="821" 
d="M529 810l-127 147l-127 -147h-21l139 162h18l139 -162h-21zM413 332v18h300v-350h-16l-2 199q-27 -100 -104.5 -155.5t-187.5 -55.5q-151 0 -236 103q-86 103 -86 267q0 170 85 268q86 98 236 98q126 0 207 -59t100 -164l-17 -2q-14 79 -78 140q-71 68 -211 68
q-143 0 -223 -93q-81 -94 -81 -256q0 -158 81 -255q80 -98 223 -98q129 0 209 78q80 79 83 217v32h-282z" />
    <glyph glyph-name="gcircumflex" unicode="&#x11d;" horiz-adv-x="595" 
d="M407 614l-127 147l-127 -147h-21l139 162h18l139 -162h-21zM483 363v153h18v-524q0 -97 -56.5 -147t-159.5 -50q-95 0 -143 39t-59 87h18q11 -41 54 -75t130 -34q96 0 147 45t51 134v164q-19 -75 -73.5 -121t-130.5 -46q-103 0 -161 76q-59 76 -59 198q0 120 59 194
q58 72 159 72q78 0 133 -46t73 -119zM279 5q93 0 148 70q56 70 56 183q0 117 -56 185t-149 68t-147 -67t-54 -182q0 -116 54 -186q54 -71 148 -71z" />
    <glyph glyph-name="Gbreve" unicode="&#x11e;" horiz-adv-x="821" 
d="M544 945h16q-4 -129 -158 -129t-158 129h16q5 -113 142 -113t142 113zM413 332v18h300v-350h-16l-2 199q-27 -100 -104.5 -155.5t-187.5 -55.5q-151 0 -236 103q-86 103 -86 267q0 170 85 268q86 98 236 98q126 0 207 -59t100 -164l-17 -2q-14 79 -78 140q-71 68 -211 68
q-143 0 -223 -93q-81 -94 -81 -256q0 -158 81 -255q80 -98 223 -98q129 0 209 78q80 79 83 217v32h-282z" />
    <glyph glyph-name="gbreve" unicode="&#x11f;" horiz-adv-x="595" 
d="M422 749h16q-4 -129 -158 -129t-158 129h16q5 -113 142 -113t142 113zM483 363v153h18v-524q0 -97 -56.5 -147t-159.5 -50q-95 0 -143 39t-59 87h18q11 -41 54 -75t130 -34q96 0 147 45t51 134v164q-19 -75 -73.5 -121t-130.5 -46q-103 0 -161 76q-59 76 -59 198
q0 120 59 194q58 72 159 72q78 0 133 -46t73 -119zM279 5q93 0 148 70q56 70 56 183q0 117 -56 185t-149 68t-147 -67t-54 -182q0 -116 54 -186q54 -71 148 -71z" />
    <glyph glyph-name="Gdotaccent" unicode="&#x120;" horiz-adv-x="821" 
d="M384 884h36v-60h-36v60zM413 332v18h300v-350h-16l-2 199q-27 -100 -104.5 -155.5t-187.5 -55.5q-151 0 -236 103q-86 103 -86 267q0 170 85 268q86 98 236 98q126 0 207 -59t100 -164l-17 -2q-14 79 -78 140q-71 68 -211 68q-143 0 -223 -93q-81 -94 -81 -256
q0 -158 81 -255q80 -98 223 -98q129 0 209 78q80 79 83 217v32h-282z" />
    <glyph glyph-name="gdotaccent" unicode="&#x121;" horiz-adv-x="595" 
d="M262 713h36v-60h-36v60zM483 363v153h18v-524q0 -97 -56.5 -147t-159.5 -50q-95 0 -143 39t-59 87h18q11 -41 54 -75t130 -34q96 0 147 45t51 134v164q-19 -75 -73.5 -121t-130.5 -46q-103 0 -161 76q-59 76 -59 198q0 120 59 194q58 72 159 72q78 0 133 -46t73 -119z
M279 5q93 0 148 70q56 70 56 183q0 117 -56 185t-149 68t-147 -67t-54 -182q0 -116 54 -186q54 -71 148 -71z" />
    <glyph glyph-name="uni0122" unicode="&#x122;" horiz-adv-x="821" 
d="M413 332v18h300v-350h-16l-2 199q-27 -100 -104.5 -155.5t-187.5 -55.5q-151 0 -236 103q-86 103 -86 267q0 170 85 268q86 98 236 98q126 0 207 -59t100 -164l-17 -2q-14 79 -78 140q-71 68 -211 68q-143 0 -223 -93q-81 -94 -81 -256q0 -158 81 -255q80 -98 223 -98
q129 0 209 78q80 79 83 217v32h-282zM417 -119l-28 -4v39h42v-100q0 -31 -32 -31h-10v14h9q19 0 19 17v65z" />
    <glyph glyph-name="uni0123" unicode="&#x123;" horiz-adv-x="595" 
d="M280 691l27 3v-39h-41v89q0 31 31 31h10v-14h-9q-18 0 -18 -17v-53zM483 363v153h18v-524q0 -97 -56.5 -147t-159.5 -50q-95 0 -143 39t-59 87h18q11 -41 54 -75t130 -34q96 0 147 45t51 134v164q-19 -75 -73.5 -121t-130.5 -46q-103 0 -161 76q-59 76 -59 198
q0 120 59 194q58 72 159 72q78 0 133 -46t73 -119zM279 5q93 0 148 70q56 70 56 183q0 117 -56 185t-149 68t-147 -67t-54 -182q0 -116 54 -186q54 -71 148 -71z" />
    <glyph glyph-name="Hcircumflex" unicode="&#x124;" horiz-adv-x="741" 
d="M498 810l-127 147l-127 -147h-21l139 162h18l139 -162h-21zM615 388v324h18v-712h-18v370h-490v-370h-18v712h18v-324h490z" />
    <glyph glyph-name="hcircumflex" unicode="&#x125;" horiz-adv-x="582" 
d="M251 810h-21l-127 147l-127 -147h-21l139 162h18zM308 528q87 0 133.5 -50t46.5 -143v-335h-18v334q0 85 -42 131t-122 46q-90 0 -142 -59t-52 -173v-279h-18v712h18v-331q21 70 71.5 108.5t124.5 38.5z" />
    <glyph glyph-name="Hbar" unicode="&#x126;" horiz-adv-x="741" 
d="M615 557v155h18v-712h-18v368h-490v-368h-18v712h18v-155h490zM125 539v-154h490v154h-490z" />
    <glyph glyph-name="hbar" unicode="&#x127;" horiz-adv-x="638" 
d="M363 528q87 0 134 -50t47 -143v-335h-18v334q0 85 -42 131t-122 46q-90 0 -142 -59t-52 -173v-279h-18v621h-140v16h140v75h18v-75h189v-16h-189v-240q21 71 71 109t124 38z" />
    <glyph glyph-name="Itilde" unicode="&#x128;" horiz-adv-x="233" 
d="M-49 827h-17q7 151 93 151q26 0 46.5 -14t33.5 -34t26 -39.5t31.5 -33.5t42.5 -14q69 0 74 135h17q-7 -151 -92 -151q-30 0 -55 20t-39 48q-34 67 -86 67q-70 0 -75 -135zM125 0h-18v712h18v-712z" />
    <glyph glyph-name="itilde" unicode="&#x129;" horiz-adv-x="206" 
d="M-62 631h-17q7 151 93 151q26 0 46.5 -14t33.5 -34t26 -39.5t31.5 -33.5t42.5 -14q70 0 74 135h17q-7 -151 -92 -151q-30 0 -55 20t-39 48q-33 67 -86 67q-71 0 -75 -135zM112 0h-18v516h18v-516z" />
    <glyph glyph-name="Imacron" unicode="&#x12a;" horiz-adv-x="233" 
d="M259 859h-286v16h286v-16zM125 0h-18v712h18v-712z" />
    <glyph glyph-name="imacron" unicode="&#x12b;" horiz-adv-x="206" 
d="M246 663h-286v16h286v-16zM112 0h-18v516h18v-516z" />
    <glyph glyph-name="Ibreve" unicode="&#x12c;" horiz-adv-x="233" 
d="M258 945h16q-4 -129 -158 -129t-158 129h16q5 -113 142 -113t142 113zM125 0h-18v712h18v-712z" />
    <glyph glyph-name="ibreve" unicode="&#x12d;" horiz-adv-x="206" 
d="M245 749h16q-5 -129 -158 -129t-158 129h16q5 -113 142 -113t142 113zM112 0h-18v516h18v-516z" />
    <glyph glyph-name="Iogonek" unicode="&#x12e;" horiz-adv-x="233" 
d="M125 0l-49 -36q-36 -25 -49.5 -42t-13.5 -41q0 -31 21.5 -48.5t62.5 -17.5h28v-16h-27q-48 0 -75 21.5t-27 58.5q0 28 15 48.5t55 48.5l41 28v708h18v-712z" />
    <glyph glyph-name="iogonek" unicode="&#x12f;" horiz-adv-x="206" 
d="M85 653v60h36v-60h-36zM53 -24l41 28v512h18v-516l-50 -36q-35 -25 -48.5 -42t-13.5 -41q0 -31 21.5 -48.5t62.5 -17.5h28v-16h-28q-48 0 -74.5 21.5t-26.5 58.5q0 28 15 48.5t55 48.5z" />
    <glyph glyph-name="Idot" unicode="&#x130;" horiz-adv-x="233" 
d="M135 824h-37v60h37v-60zM125 0h-18v712h18v-712z" />
    <glyph glyph-name="dotlessi" unicode="&#x131;" horiz-adv-x="206" 
d="M112 0h-18v516h18v-516z" />
    <glyph glyph-name="IJ" unicode="&#x132;" horiz-adv-x="791" 
d="M125 0h-18v712h18v-712zM629 38q-55 -50 -146 -50t-146 50q-55 49 -55 153v46h18v-46q0 -94 48 -140t135 -46t134 46t47 140v521h18v-521q0 -103 -53 -153z" />
    <glyph glyph-name="ij" unicode="&#x133;" horiz-adv-x="411" 
d="M117 655h-29v57h29v-57zM323 655h-29v57h29v-57zM112 0h-18v516h18v-516zM197 -204h-25v17h26q102 0 102 104v599h18v-597q0 -123 -121 -123z" />
    <glyph glyph-name="Jcircumflex" unicode="&#x134;" horiz-adv-x="567" 
d="M323 810h-21l139 162h18l139 -162h-21l-127 147zM406 38q-55 -50 -146 -50t-146 50q-55 49 -55 153v46h18v-46q0 -94 48 -140t135 -46t134 46t47 140v521h18v-521q0 -103 -53 -153z" />
    <glyph glyph-name="jcircumflex" unicode="&#x135;" horiz-adv-x="206" 
d="M-24 614h-21l139 162h18l139 -162h-21l-127 147zM-9 -204h-25v17h26q102 0 102 104v599h18v-597q0 -123 -121 -123z" />
    <glyph glyph-name="uni0136" unicode="&#x136;" horiz-adv-x="700" 
d="M649 712l-317 -294l329 -418h-23l-318 407l-195 -181v-226h-18v712h18v-464l499 464h25zM364 -119l-29 -4v39h43v-100q0 -31 -32 -31h-11v14h10q19 0 19 17v65z" />
    <glyph glyph-name="uni0137" unicode="&#x137;" horiz-adv-x="553" 
d="M501 516l-227 -204l241 -312h-22l-232 301l-149 -135v-166h-18v712h18v-524l364 328h25zM297 -119l-29 -4v39h43v-100q0 -31 -32 -31h-11v14h10q19 0 19 17v65z" />
    <glyph glyph-name="kgreenlandic" unicode="&#x138;" horiz-adv-x="553" 
d="M515 0h-22l-232 299l-149 -134v-165h-18v516h18v-329l364 329h25l-227 -205z" />
    <glyph glyph-name="Lacute" unicode="&#x139;" horiz-adv-x="612" 
d="M205 972h23l-121 -150h-20zM125 712v-695h433v-17h-451v712h18z" />
    <glyph glyph-name="lacute" unicode="&#x13a;" horiz-adv-x="206" 
d="M83 822h-20l118 150h23zM112 0h-18v712h18v-712z" />
    <glyph glyph-name="uni013B" unicode="&#x13b;" horiz-adv-x="612" 
d="M125 712v-695h433v-17h-451v712h18zM341 -119l-29 -4v39h43v-100q0 -31 -32 -31h-11v14h10q19 0 19 17v65z" />
    <glyph glyph-name="uni013C" unicode="&#x13c;" horiz-adv-x="206" 
d="M94 712h18v-712h-18v712zM82 -123v39h43v-100q0 -31 -32 -31h-11v14h10q19 0 19 17v65z" />
    <glyph glyph-name="Lcaron" unicode="&#x13d;" horiz-adv-x="612" 
d="M125 712v-695h433v-17h-451v712h18zM420 712h19l-70 -198h-16z" />
    <glyph glyph-name="lcaron" unicode="&#x13e;" horiz-adv-x="311" 
d="M112 0h-18v712h18v-712zM242 514h-16l66 198h19z" />
    <glyph glyph-name="Ldot" unicode="&#x13f;" horiz-adv-x="612" 
d="M125 712v-695h433v-17h-451v712h18zM325 394h57v-47h-57v47z" />
    <glyph glyph-name="ldot" unicode="&#x140;" horiz-adv-x="270" 
d="M112 0h-18v712h18v-712zM241 332h-58v47h58v-47z" />
    <glyph glyph-name="Lslash" unicode="&#x141;" horiz-adv-x="732" 
d="M245 327v-310h432v-17h-451v318l-167 -80v18l167 80v376h19v-367l293 143v-19z" />
    <glyph glyph-name="lslash" unicode="&#x142;" horiz-adv-x="361" 
d="M190 390l112 60v-19l-112 -59v-372h-18v363l-113 -61v19l113 60v331h18v-322z" />
    <glyph glyph-name="Nacute" unicode="&#x143;" horiz-adv-x="742" 
d="M449 972h23l-121 -150h-20zM617 29v683h17v-712h-17l-492 682v-682h-18v712h17z" />
    <glyph glyph-name="nacute" unicode="&#x144;" horiz-adv-x="582" 
d="M376 776h23l-121 -150h-20zM308 528q87 0 133.5 -50t46.5 -143v-335h-18v334q0 85 -42 131t-122 46q-90 0 -142 -59t-52 -173v-279h-18v516h17v-138q43 150 197 150z" />
    <glyph glyph-name="uni0145" unicode="&#x145;" horiz-adv-x="742" 
d="M617 29v683h17v-712h-17l-492 682v-682h-18v712h17zM379 -119l-29 -4v39h43v-100q0 -31 -32 -31h-11v14h10q19 0 19 17v65z" />
    <glyph glyph-name="uni0146" unicode="&#x146;" horiz-adv-x="582" 
d="M308 528q87 0 133.5 -50t46.5 -143v-335h-18v334q0 85 -42 131t-122 46q-90 0 -142 -59t-52 -173v-279h-18v516h17v-138q43 150 197 150zM299 -119l-29 -4v39h43v-100q0 -31 -32 -31h-11v14h10q19 0 19 17v65z" />
    <glyph glyph-name="Ncaron" unicode="&#x147;" horiz-adv-x="742" 
d="M519 971l-139 -162h-18l-139 162h21l127 -147l127 147h21zM617 29v683h17v-712h-17l-492 682v-682h-18v712h17z" />
    <glyph glyph-name="ncaron" unicode="&#x148;" horiz-adv-x="582" 
d="M445 774l-139 -162h-18l-139 162h21l127 -147l127 147h21zM308 528q87 0 133.5 -50t46.5 -143v-335h-18v334q0 85 -42 131t-122 46q-90 0 -142 -59t-52 -173v-279h-18v516h17v-138q43 150 197 150z" />
    <glyph glyph-name="napostrophe" unicode="&#x149;" horiz-adv-x="747" 
d="M90 670l-43 -5v47h58v-142q0 -51 -50 -51h-8v15h9q34 0 34 34v102zM473 528q87 0 133.5 -50t46.5 -143v-335h-18v334q0 85 -42 131t-122 46q-90 0 -142 -59.5t-52 -172.5v-279h-18v516h18v-135q21 70 71.5 108.5t124.5 38.5z" />
    <glyph glyph-name="Eng" unicode="&#x14a;" horiz-adv-x="742" 
d="M617 30v682h17v-793q0 -123 -120 -123h-26v17h27q102 0 102 104v86l-492 679v-682h-18v712h17z" />
    <glyph glyph-name="eng" unicode="&#x14b;" horiz-adv-x="582" 
d="M308 528q87 0 133.5 -50t46.5 -143v-416q0 -123 -121 -123h-25v17h26q52 0 77 25t25 79v417q0 85 -42 131t-122 46q-90 0 -142 -59t-52 -173v-279h-18v516h17v-138q43 150 197 150z" />
    <glyph glyph-name="Omacron" unicode="&#x14c;" horiz-adv-x="816" 
d="M549 859h-286v16h286v-16zM406 -12q-148 0 -236 103q-89 104 -89 265q0 165 88 266q89 102 237 102q152 0 240 -102q88 -101 88 -266q0 -164 -88 -265q-88 -103 -240 -103zM407 5q142 0 226 98q83 98 83 253q0 156 -83 254q-84 97 -226 97q-143 0 -225 -97
q-83 -98 -83 -254t84 -253q83 -98 224 -98z" />
    <glyph glyph-name="omacron" unicode="&#x14d;" horiz-adv-x="584" 
d="M436 663h-286v16h286v-16zM462 62q-65 -74 -170 -74q-104 0 -169 74q-64 73 -64 196q0 124 64 197t170 73q105 0 169 -73t64 -197q0 -123 -64 -196zM292 5q99 0 157.5 68t58.5 185t-58.5 185t-157.5 68q-97 0 -156 -68t-59 -185t59 -185t156 -68z" />
    <glyph glyph-name="Obreve" unicode="&#x14e;" horiz-adv-x="816" 
d="M548 945h16q-4 -129 -158 -129t-158 129h16q5 -113 142 -113t142 113zM406 -12q-148 0 -236 103q-89 104 -89 265q0 165 88 266q89 102 237 102q152 0 240 -102q88 -101 88 -266q0 -164 -88 -265q-88 -103 -240 -103zM407 5q142 0 226 98q83 98 83 253q0 156 -83 254
q-84 97 -226 97q-143 0 -225 -97q-83 -98 -83 -254t84 -253q83 -98 224 -98z" />
    <glyph glyph-name="obreve" unicode="&#x14f;" horiz-adv-x="584" 
d="M435 749h16q-5 -129 -158 -129t-158 129h16q5 -113 142 -113t142 113zM462 62q-65 -74 -170 -74q-104 0 -169 74q-64 73 -64 196q0 124 64 197t170 73q105 0 169 -73t64 -197q0 -123 -64 -196zM292 5q99 0 157.5 68t58.5 185t-58.5 185t-157.5 68q-97 0 -156 -68
t-59 -185t59 -185t156 -68z" />
    <glyph glyph-name="Ohungarumlaut" unicode="&#x150;" horiz-adv-x="816" 
d="M310 808h-19l109 164h21zM485 808h-19l127 164h21zM406 -12q-148 0 -236 103q-89 104 -89 265q0 165 88 266q89 102 237 102q152 0 240 -102q88 -101 88 -266q0 -164 -88 -265q-88 -103 -240 -103zM407 5q142 0 226 98q83 98 83 253q0 156 -83 254q-84 97 -226 97
q-143 0 -225 -97q-83 -98 -83 -254t84 -253q83 -98 224 -98z" />
    <glyph glyph-name="ohungarumlaut" unicode="&#x151;" horiz-adv-x="584" 
d="M197 612h-19l109 164h21zM372 612h-19l127 164h21zM462 62q-65 -74 -170 -74q-104 0 -169 74q-64 73 -64 196q0 124 64 197t170 73q105 0 169 -73t64 -197q0 -123 -64 -196zM292 5q99 0 157.5 68t58.5 185t-58.5 185t-157.5 68q-97 0 -156 -68t-59 -185t59 -185t156 -68z
" />
    <glyph glyph-name="OE" unicode="&#x152;" horiz-adv-x="1276" 
d="M733 365v-348h468v-17h-486v226q-31 -111 -112 -174.5t-197 -63.5q-148 0 -236 103q-89 104 -89 265q0 163 89 266q88 102 237 102q116 0 196.5 -63t111.5 -174v225h467v-17h-449v-313h421v-17h-421zM407 5q135 0 217 88q82 86 91 231v65q-9 145 -91 231q-82 87 -217 87
q-143 0 -225 -97q-83 -98 -83 -254t84 -253q83 -98 224 -98z" />
    <glyph glyph-name="oe" unicode="&#x153;" horiz-adv-x="1015" 
d="M956 267h-430v-2v-6q0 -117 56.5 -185.5t155.5 -68.5q74 0 122.5 37.5t67.5 96.5l17 -2q-19 -65 -73 -107t-134 -42q-86 0 -144 49.5t-77 137.5q-20 -87 -79.5 -137t-145.5 -50q-104 0 -169 74q-64 73 -64 196q0 124 64 197t170 73q85 0 144 -49t79 -135
q19 87 75.5 135.5t141.5 48.5q103 0 163 -69t60 -175v-17zM292 5q99 0 157.5 68t58.5 185t-58.5 185t-157.5 68q-97 0 -156 -68t-59 -185t59 -185t156 -68zM733 511q-92 0 -147 -61t-60 -167h413q-1 100 -56 165q-54 63 -150 63z" />
    <glyph glyph-name="Racute" unicode="&#x154;" horiz-adv-x="719" 
d="M430 972h23l-121 -150h-20zM598 192l23 -192h-19l-21 187q-7 67 -40 106q-38 45 -155 45h-261v-338h-18v712h310q93 0 147.5 -49.5t54.5 -135.5q0 -76 -42.5 -123.5t-120.5 -58.5q70 -9 101.5 -45t40.5 -108zM125 695v-340h276q94 0 147 45t53 126q0 80 -49 124.5
t-136 44.5h-291z" />
    <glyph glyph-name="racute" unicode="&#x155;" horiz-adv-x="374" 
d="M302 776h23l-121 -150h-20zM299 529q23 0 50 -5v-18q-27 5 -51 5q-86 0 -136 -56t-50 -164v-291h-18v516h17v-131q18 70 67 107t121 37z" />
    <glyph glyph-name="uni0156" unicode="&#x156;" horiz-adv-x="719" 
d="M598 192l23 -192h-19l-21 187q-7 67 -40 106q-38 45 -155 45h-261v-338h-18v712h310q93 0 147.5 -49.5t54.5 -135.5q0 -76 -42.5 -123.5t-120.5 -58.5q70 -9 101.5 -45t40.5 -108zM125 695v-340h276q94 0 147 45t53 126q0 80 -49 124.5t-136 44.5h-291zM377 -119l-29 -4
v39h43v-100q0 -31 -32 -31h-11v14h10q19 0 19 17v65z" />
    <glyph glyph-name="uni0157" unicode="&#x157;" horiz-adv-x="374" 
d="M299 529q23 0 50 -5v-18q-27 5 -51 5q-86 0 -136 -56t-50 -164v-291h-18v516h17v-131q18 70 67 107t121 37zM111 -119l-29 -4v39h43v-100q0 -31 -32 -31h-11v14h10q19 0 19 17v65z" />
    <glyph glyph-name="Rcaron" unicode="&#x158;" horiz-adv-x="719" 
d="M500 971l-139 -162h-18l-139 162h21l127 -147l127 147h21zM598 192l23 -192h-19l-21 187q-7 67 -40 106q-38 45 -155 45h-261v-338h-18v712h310q93 0 147.5 -49.5t54.5 -135.5q0 -76 -42.5 -123.5t-120.5 -58.5q70 -9 101.5 -45t40.5 -108zM125 695v-340h276q94 0 147 45
t53 126q0 80 -49 124.5t-136 44.5h-291z" />
    <glyph glyph-name="rcaron" unicode="&#x159;" horiz-adv-x="374" 
d="M372 774l-139 -162h-18l-139 162h21l127 -147l127 147h21zM111 516v-131q18 70 67 107t121 37q23 0 50 -5v-18q-27 5 -51 5q-86 0 -136 -56t-50 -164v-291h-18v516h17z" />
    <glyph glyph-name="Sacute" unicode="&#x15a;" horiz-adv-x="665" 
d="M311 822h-20l118 150h23zM340 -12q-252 0 -276 220h18q23 -203 258 -203q117 0 179.5 46.5t62.5 131.5q0 66 -40 105t-124 56l-146 28q-181 34 -181 172q0 83 64 131.5t176 48.5q111 0 178.5 -52.5t71.5 -142.5h-18q-4 84 -66 131t-166 47q-105 0 -164 -43.5t-59 -119.5
q0 -121 167 -154l146 -29q179 -35 179 -178q0 -92 -68 -143.5t-192 -51.5z" />
    <glyph glyph-name="sacute" unicode="&#x15b;" horiz-adv-x="530" 
d="M245 626h-20l118 150h23zM271 -12q-95 0 -148.5 43.5t-57.5 122.5h18q4 -72 52.5 -110.5t135.5 -38.5q84 0 130.5 33.5t46.5 95.5q0 98 -133 117l-80 12q-79 13 -117.5 41.5t-38.5 83.5q0 63 49 99.5t133 36.5t135.5 -40t56.5 -109h-18q-5 62 -51 97.5t-123 35.5
q-75 0 -120 -31.5t-45 -87.5q0 -49 35 -74t107 -35l80 -12q147 -22 147 -134q0 -68 -52 -107t-142 -39z" />
    <glyph glyph-name="Scircumflex" unicode="&#x15c;" horiz-adv-x="665" 
d="M204 810h-21l139 162h18l139 -162h-21l-127 147zM340 -12q-252 0 -276 220h18q23 -203 258 -203q117 0 179.5 46.5t62.5 131.5q0 66 -40 105t-124 56l-146 28q-181 34 -181 172q0 83 64 131.5t176 48.5q111 0 178.5 -52.5t71.5 -142.5h-18q-4 84 -66 131t-166 47
q-105 0 -164 -43.5t-59 -119.5q0 -121 167 -154l146 -29q179 -35 179 -178q0 -92 -68 -143.5t-192 -51.5z" />
    <glyph glyph-name="scircumflex" unicode="&#x15d;" horiz-adv-x="530" 
d="M137 614h-21l139 162h18l139 -162h-21l-127 147zM271 -12q-95 0 -148.5 43.5t-57.5 122.5h18q4 -72 52.5 -110.5t135.5 -38.5q84 0 130.5 33.5t46.5 95.5q0 98 -133 117l-80 12q-79 13 -117.5 41.5t-38.5 83.5q0 63 49 99.5t133 36.5t135.5 -40t56.5 -109h-18
q-5 62 -51 97.5t-123 35.5q-75 0 -120 -31.5t-45 -87.5q0 -49 35 -74t107 -35l80 -12q147 -22 147 -134q0 -68 -52 -107t-142 -39z" />
    <glyph glyph-name="Scedilla" unicode="&#x15e;" horiz-adv-x="665" 
d="M600 183q0 -91 -66.5 -142.5t-187.5 -52.5l-38 -63h34q42 0 64.5 -18t22.5 -51q0 -36 -27.5 -55.5t-78.5 -19.5h-38v15h38q89 0 89 60q0 53 -71 53h-43l-9 13l40 66q-241 4 -265 220h18q23 -203 258 -203q117 0 179.5 46.5t62.5 131.5q0 66 -40 105t-124 56l-146 28
q-181 34 -181 172q0 83 64 131.5t176 48.5q111 0 178.5 -52.5t71.5 -142.5h-18q-4 84 -66 131t-166 47q-105 0 -164 -43.5t-59 -119.5q0 -121 167 -154l146 -29q179 -35 179 -178z" />
    <glyph glyph-name="scedilla" unicode="&#x15f;" horiz-adv-x="530" 
d="M465 134q0 -66 -50.5 -105t-138.5 -41l-38 -63h34q42 0 64.5 -18t22.5 -51q0 -36 -27.5 -55.5t-78.5 -19.5h-38v15h38q89 0 89 60q0 53 -71 53h-43l-9 13l40 66q-89 3 -139.5 46t-54.5 120h18q4 -72 52.5 -110.5t135.5 -38.5q84 0 130.5 33.5t46.5 95.5q0 98 -133 117
l-80 12q-79 13 -117.5 41.5t-38.5 83.5q0 63 49 99.5t133 36.5t135.5 -40t56.5 -109h-18q-5 62 -51 97.5t-123 35.5q-75 0 -120 -31.5t-45 -87.5q0 -49 35 -74t107 -35l80 -12q147 -22 147 -134z" />
    <glyph glyph-name="Scaron" unicode="&#x160;" horiz-adv-x="665" 
d="M340 809h-18l-139 162h21l127 -147l127 147h21zM340 -12q-252 0 -276 220h18q23 -203 258 -203q117 0 179.5 46.5t62.5 131.5q0 66 -40 105t-124 56l-146 28q-181 34 -181 172q0 83 64 131.5t176 48.5q111 0 178.5 -52.5t71.5 -142.5h-18q-4 84 -66 131t-166 47
q-105 0 -164 -43.5t-59 -119.5q0 -121 167 -154l146 -29q179 -35 179 -178q0 -92 -68 -143.5t-192 -51.5z" />
    <glyph glyph-name="scaron" unicode="&#x161;" horiz-adv-x="530" 
d="M273 612h-18l-139 162h21l127 -147l127 147h21zM271 -12q-95 0 -148.5 43.5t-57.5 122.5h18q4 -72 52.5 -110.5t135.5 -38.5q84 0 130.5 33.5t46.5 95.5q0 98 -133 117l-80 12q-79 13 -117.5 41.5t-38.5 83.5q0 63 49 99.5t133 36.5t135.5 -40t56.5 -109h-18
q-5 62 -51 97.5t-123 35.5q-75 0 -120 -31.5t-45 -87.5q0 -49 35 -74t107 -35l80 -12q147 -22 147 -134q0 -68 -52 -107t-142 -39z" />
    <glyph glyph-name="uni0162" unicode="&#x162;" horiz-adv-x="650" 
d="M334 695v-695h-2l-41 -69h34q86 0 86 -69q0 -36 -27 -55.5t-78 -19.5h-38v15h37q90 0 90 60q0 53 -72 53h-42l-9 13l44 72v695h-263v17h544v-17h-263z" />
    <glyph glyph-name="uni0163" unicode="&#x163;" horiz-adv-x="320" 
d="M174 -63h34q87 0 87 -69q0 -36 -27.5 -55t-77.5 -19h-39v15h38q90 0 90 59q0 53 -72 53h-43l-8 13l42 69q-71 14 -71 102v395h-106v16h106v147h18v-147h145v-16h-145v-393q0 -47 20.5 -68.5t63.5 -21.5h60v-17h-62q-11 0 -14 1z" />
    <glyph glyph-name="Tcaron" unicode="&#x164;" horiz-adv-x="650" 
d="M474 971l-139 -162h-18l-139 162h21l127 -147l127 147h21zM53 712h544v-17h-263v-695h-18v695h-263v17z" />
    <glyph glyph-name="tcaron" unicode="&#x165;" horiz-adv-x="320" 
d="M307 820h19l-70 -198h-16zM145 663v-147h145v-16h-145v-393q0 -47 20.5 -68.5t63.5 -21.5h60v-17h-62q-100 0 -100 105v395h-106v16h106v147h18z" />
    <glyph glyph-name="Tbar" unicode="&#x166;" horiz-adv-x="650" 
d="M597 712v-17h-263v-323l244 1v-18l-244 1v-356h-18v356l-244 -1v18l244 -1v323h-263v17h544z" />
    <glyph glyph-name="tbar" unicode="&#x167;" horiz-adv-x="328" 
d="M298 516v-16h-145v-219h145v-16h-145l1 -15v-143q0 -47 20.5 -68.5t63.5 -21.5h59v-17h-61q-100 0 -100 105v160h-106v16h106v219h-106v16h106v147h18v-136l-1 -11h145z" />
    <glyph glyph-name="Utilde" unicode="&#x168;" horiz-adv-x="739" 
d="M204 827h-17q7 151 93 151q26 0 46.5 -14t33.5 -34t26 -39.5t31.5 -33.5t42.5 -14q70 0 74 135h17q-7 -151 -92 -151q-30 0 -55 20t-39 48q-33 67 -86 67q-71 0 -75 -135zM631 712v-476q0 -248 -262 -248t-262 248v476h18v-476q0 -231 244 -231t244 231v476h18z" />
    <glyph glyph-name="utilde" unicode="&#x169;" horiz-adv-x="582" 
d="M201 766q-71 0 -75 -135h-17q7 151 93 151q26 0 46.5 -14t33.5 -34t26 -39.5t31.5 -33.5t42.5 -14q70 0 74 135h17q-7 -151 -92 -151q-30 0 -55 20t-39 48q-33 67 -86 67zM470 237v279h18v-516h-17v138q-43 -150 -197 -150q-87 0 -133.5 50t-46.5 143v335h18v-334
q0 -85 42 -131t122 -46q90 0 142 59t52 173z" />
    <glyph glyph-name="Umacron" unicode="&#x16a;" horiz-adv-x="739" 
d="M512 859h-286v16h286v-16zM631 712v-476q0 -248 -262 -248t-262 248v476h18v-476q0 -231 244 -231t244 231v476h18z" />
    <glyph glyph-name="umacron" unicode="&#x16b;" horiz-adv-x="582" 
d="M148 679h286v-16h-286v16zM470 237v279h18v-516h-17v138q-43 -150 -197 -150q-87 0 -133.5 50t-46.5 143v335h18v-334q0 -85 42 -131t122 -46q90 0 142 59t52 173z" />
    <glyph glyph-name="Ubreve" unicode="&#x16c;" horiz-adv-x="739" 
d="M511 945h16q-5 -129 -158 -129t-158 129h16q5 -113 142 -113t142 113zM631 712v-476q0 -248 -262 -248t-262 248v476h18v-476q0 -231 244 -231t244 231v476h18z" />
    <glyph glyph-name="ubreve" unicode="&#x16d;" horiz-adv-x="582" 
d="M433 749h16q-5 -129 -158 -129t-158 129h16q5 -113 142 -113t142 113zM470 237v279h18v-516h-17v138q-43 -150 -197 -150q-87 0 -133.5 50t-46.5 143v335h18v-334q0 -85 42 -131t122 -46q90 0 142 59t52 173z" />
    <glyph glyph-name="Uring" unicode="&#x16e;" horiz-adv-x="739" 
d="M446 824q-32 -30 -77 -30q-46 0 -76 30q-31 30 -31 76q0 47 30 77.5t77 30.5t77 -30.5t30 -77.5q0 -46 -30 -76zM304 835q29 -24 65 -25t65.5 25t26.5 65q0 41 -26 66.5t-66 25.5t-66 -25.5t-26 -66.5q0 -40 27 -65zM631 712v-476q0 -248 -262 -248t-262 248v476h18v-476
q0 -231 244 -231t244 231v476h18z" />
    <glyph glyph-name="uring" unicode="&#x16f;" horiz-adv-x="582" 
d="M368 628q-32 -30 -77 -30q-46 0 -76 30q-31 30 -31 76q0 47 30 77.5t77 30.5t77 -30.5t30 -77.5q0 -46 -30 -76zM357 771q-19 19 -47.5 23.5t-53.5 -5t-42 -32.5t-15 -53q0 -39 26.5 -64.5t65.5 -25.5t65.5 25.5t26.5 64.5q0 41 -26 67zM470 237v279h18v-516h-17v138
q-43 -150 -197 -150q-87 0 -133.5 50t-46.5 143v335h18v-334q0 -85 42 -131t122 -46q90 0 142 59t52 173z" />
    <glyph glyph-name="Uhungarumlaut" unicode="&#x170;" horiz-adv-x="739" 
d="M273 808h-19l109 164h21zM448 808h-19l127 164h21zM631 712v-476q0 -248 -262 -248t-262 248v476h18v-476q0 -231 244 -231t244 231v476h18z" />
    <glyph glyph-name="uhungarumlaut" unicode="&#x171;" horiz-adv-x="582" 
d="M285 776h21l-111 -164h-19zM478 776h21l-129 -164h-19zM470 237v279h18v-516h-17v138q-43 -150 -197 -150q-87 0 -133.5 50t-46.5 143v335h18v-334q0 -85 42 -131t122 -46q90 0 142 59t52 173z" />
    <glyph glyph-name="Uogonek" unicode="&#x172;" horiz-adv-x="739" 
d="M613 236v476h18v-476q0 -214 -197 -243l-72 -37q-64 -31 -64 -81q0 -31 21.5 -48.5t62.5 -17.5h37v-16h-37q-50 0 -76 21t-26 60q0 57 74 95l40 20q-5 -1 -25 -1q-262 0 -262 248v476h18v-476q0 -231 244 -231t244 231z" />
    <glyph glyph-name="uogonek" unicode="&#x173;" horiz-adv-x="582" 
d="M488 -9l-75 -36q-64 -31 -64 -77q0 -63 84 -63h37v-16h-37q-48 0 -75 21t-27 57q0 57 75 90l66 31l-1 151q-20 -73 -70.5 -112t-125.5 -39q-86 0 -135 52q-46 49 -46 142v324h18v-324q0 -87 42 -130q42 -47 122 -47q90 0 142 59t52 173v269h18v-525z" />
    <glyph glyph-name="Wcircumflex" unicode="&#x174;" horiz-adv-x="936" 
d="M595 810l-127 147l-127 -147h-21l139 162h18l139 -162h-21zM698 124l180 588h18l-220 -718h-16l-192 685l-193 -685h-16l-220 718h18l180 -588l30 -102l27 102l165 588h17l165 -588l27 -102z" />
    <glyph glyph-name="wcircumflex" unicode="&#x175;" horiz-adv-x="763" 
d="M507 614l-127 147l-127 -147h-21l139 162h18l139 -162h-21zM562 91l138 425h19l-169 -516h-17l-136 437l-15 59l-16 -59l-137 -437h-17l-169 516h20l137 -425l20 -68l20 68l133 425h17l133 -425l20 -66z" />
    <glyph glyph-name="Ycircumflex" unicode="&#x176;" horiz-adv-x="668" 
d="M462 810l-127 147l-127 -147h-21l139 162h18l139 -162h-21zM619 712h22l-297 -426v-286h-18v286l-299 426h23l276 -397l9 -14l9 14z" />
    <glyph glyph-name="ycircumflex" unicode="&#x177;" horiz-adv-x="545" 
d="M400 614l-127 147l-127 -147h-21l139 162h18l139 -162h-21zM277 -6l205 522h19l-251 -635q-19 -49 -47 -67t-85 -18h-27v17h26q53 0 77 15.5t41 58.5l35 89l-227 540h20l207 -497z" />
    <glyph glyph-name="Ydieresis" unicode="&#x178;" horiz-adv-x="668" 
d="M221 884h36v-60h-36v60zM413 884h36v-60h-36v60zM619 712h22l-297 -426v-286h-18v286l-299 426h23l276 -397l9 -14l9 14z" />
    <glyph glyph-name="Zacute" unicode="&#x179;" horiz-adv-x="681" 
d="M418 972h23l-121 -150h-20zM591 695l-495 -678h509v-17h-530v18l494 677h-468v17h490v-17z" />
    <glyph glyph-name="zacute" unicode="&#x17a;" horiz-adv-x="521" 
d="M339 776h23l-121 -150h-20zM446 503l-364 -486h380v-17h-403v14l364 485h-352v17h375v-13z" />
    <glyph glyph-name="Zdotaccent" unicode="&#x17b;" horiz-adv-x="681" 
d="M322 884h36v-60h-36v60zM591 695l-495 -678h509v-17h-530v18l494 677h-468v17h490v-17z" />
    <glyph glyph-name="zdotaccent" unicode="&#x17c;" horiz-adv-x="521" 
d="M242 713h36v-60h-36v60zM446 503l-364 -486h380v-17h-403v14l364 485h-352v17h375v-13z" />
    <glyph glyph-name="Zcaron" unicode="&#x17d;" horiz-adv-x="681" 
d="M488 971l-139 -162h-18l-139 162h21l127 -147l127 147h21zM591 695l-495 -678h509v-17h-530v18l494 677h-468v17h490v-17z" />
    <glyph glyph-name="zcaron" unicode="&#x17e;" horiz-adv-x="521" 
d="M408 774l-139 -162h-18l-139 162h21l127 -147l127 147h21zM446 503l-364 -486h380v-17h-403v14l364 485h-352v17h375v-13z" />
    <glyph glyph-name="uni018F" unicode="&#x18f;" horiz-adv-x="816" 
d="M406 724q152 0 240 -102q88 -101 88 -266q0 -164 -88 -265q-88 -103 -240 -103q-146 0 -233 98q-88 98 -92 252v6h635v12q0 157 -83 255q-84 96 -227 96q-95 0 -165.5 -45.5t-106.5 -129.5h-20q37 91 112.5 141.5t179.5 50.5zM189 94q83 -89 218 -89t218 89t90 233h-616
q8 -145 90 -233z" />
    <glyph glyph-name="florin" unicode="&#x192;" 
d="M495 712h52l-3 -17h-51q-45 0 -69 -23.5t-35 -80.5l-38 -198h133l-3 -16h-133l-79 -407q-12 -64 -40.5 -91.5t-82.5 -27.5h-52l3 17h50q46 0 70 24t34 80l79 405h-129l3 16h129l39 200q12 64 40.5 91.5t82.5 27.5z" />
    <glyph glyph-name="uni01F4" unicode="&#x1f4;" horiz-adv-x="821" 
d="M480 972h23l-121 -150h-20zM413 332v18h300v-350h-16l-2 199q-27 -100 -104.5 -155.5t-187.5 -55.5q-151 0 -236 103q-86 103 -86 267q0 170 85 268q86 98 236 98q126 0 207 -59t100 -164l-17 -2q-14 79 -78 140q-71 68 -211 68q-143 0 -223 -93q-81 -94 -81 -256
q0 -158 81 -255q80 -98 223 -98q129 0 209 78q80 79 83 217v32h-282z" />
    <glyph glyph-name="uni01F5" unicode="&#x1f5;" horiz-adv-x="595" 
d="M358 776h23l-121 -150h-20zM483 363v153h18v-524q0 -97 -56.5 -147t-159.5 -50q-95 0 -143 39t-59 87h18q11 -41 54 -75t130 -34q96 0 147 45t51 134v164q-19 -75 -73.5 -121t-130.5 -46q-103 0 -161 76q-59 76 -59 198q0 120 59 194q58 72 159 72q78 0 133 -46t73 -119z
M279 5q93 0 148 70q56 70 56 183q0 117 -56 185t-149 68t-147 -67t-54 -182q0 -116 54 -186q54 -71 148 -71z" />
    <glyph glyph-name="Aringacute" unicode="&#x1fa;" horiz-adv-x="716" 
d="M435 1098h24l-121 -149h-20zM677 0h-20l-104 240h-390l-104 -240h-20l305 702q-42 4 -68 33.5t-26 71.5q0 47 30.5 77.5t77.5 30.5t77 -30.5t30 -77.5q0 -42 -25 -71t-66 -34zM266 807q0 -41 26 -65.5t66 -24.5q39 0 65 25.5t26 64.5q0 41 -25.5 66.5t-65.5 25.5
t-66 -25.5t-26 -66.5zM353 676l-182 -418h375l-181 418l-6 17z" />
    <glyph glyph-name="aringacute" unicode="&#x1fb;" horiz-adv-x="578" 
d="M356 996h24l-121 -149h-20zM356 612q-30 -30 -77 -30t-77 30q-31 30 -31 77t31 77q30 30 77 30t77 -30t30 -77t-30 -77zM279 780q-40 0 -66 -25t-26 -66t26 -66t66 -25t65.5 25t25.5 66t-25.5 66t-65.5 25zM552 16h16v-16h-12q-59 0 -83 27t-24 93l-1 14
q-21 -71 -76 -108.5t-135 -37.5q-85 0 -130.5 39.5t-45.5 104.5q0 124 159 145l127 18q59 9 80 30.5t21 63.5v2q0 55 -43 87.5t-127 32.5q-85 0 -125.5 -32.5t-50.5 -100.5h-18q9 74 55.5 112t139.5 38q92 0 139.5 -37t47.5 -101v-269q0 -57 19 -81t67 -24zM238 4
q180 0 210 182v141q-23 -38 -98 -48l-128 -18q-143 -21 -143 -128q0 -59 40.5 -94t118.5 -35z" />
    <glyph glyph-name="AEacute" unicode="&#x1fc;" horiz-adv-x="1133" 
d="M690 972h23l-121 -150h-20zM591 365v-348h468v-17h-486v239h-359l-155 -239h-20l463 712h538v-17h-449v-313h421v-17h-421zM511 695l-286 -439h348v439h-62z" />
    <glyph glyph-name="aeacute" unicode="&#x1fd;" horiz-adv-x="954" 
d="M556 776h23l-121 -150h-20zM896 267h-431v-2v-6q0 -117 57 -185.5t156 -68.5q74 0 123 38.5t68 99.5l16 -4q-18 -61 -70 -106q-53 -45 -137 -45t-141 46.5t-78 130.5q-15 -85 -73 -131t-147 -46q-85 0 -131.5 41.5t-46.5 108.5t47.5 106t131.5 39h208v88
q0 67 -45.5 103.5t-131.5 36.5q-81 0 -120 -32.5t-49 -100.5h-18q16 150 188 150q92 0 141.5 -39.5t51.5 -112.5q23 72 77 112t131 40q103 0 163 -69t60 -175v-17zM673 511q-92 0 -147.5 -61.5t-60.5 -166.5h413q-2 103 -56.5 165.5t-148.5 62.5zM239 4q93 0 150 54.5
t59 156.5v52h-210q-75 0 -117 -34.5t-42 -94.5q0 -61 41.5 -97.5t118.5 -36.5z" />
    <glyph glyph-name="Oslashacute" unicode="&#x1fe;" horiz-adv-x="816" 
d="M484 972h23l-121 -150h-20zM723 703l-74 -85q85 -100 85 -262q0 -164 -88 -265q-88 -103 -240 -103q-140 0 -228 93l-71 -82l-12 10l73 83q-87 104 -87 264q0 165 88 266q89 102 237 102q144 0 232 -94l73 83zM99 356q0 -152 81 -250l447 510q-85 91 -220 91
q-143 0 -225 -97q-83 -98 -83 -254zM407 5q142 0 226 98q83 98 83 253q0 154 -79 249l-447 -511q84 -89 217 -89z" />
    <glyph glyph-name="oslashacute" unicode="&#x1ff;" horiz-adv-x="584" 
d="M371 777h23l-121 -150h-20zM513 519l-51 -64q64 -73 64 -197q0 -123 -64 -196q-65 -74 -170 -74q-96 0 -158 62l-50 -62l-13 9l52 64q-64 73 -64 197t64 197t170 73q96 0 158 -62l50 62zM77 258q0 -116 57 -183l306 378q-55 58 -148 58q-97 0 -156 -68t-59 -185zM292 5
q99 0 157.5 68t58.5 185q0 116 -58 183l-305 -378q55 -58 147 -58z" />
    <glyph glyph-name="uni0218" unicode="&#x218;" horiz-adv-x="665" 
d="M275 390l146 -29q179 -35 179 -178q0 -92 -68 -143.5t-192 -51.5q-252 0 -276 220h18q23 -203 258 -203q117 0 179.5 46.5t62.5 131.5q0 66 -40 105t-124 56l-146 28q-181 34 -181 172q0 83 64 131.5t176 48.5q111 0 178.5 -52.5t71.5 -142.5h-18q-4 84 -66 131t-166 47
q-105 0 -164 -43.5t-59 -119.5q0 -121 167 -154zM348 -125l-29 -4v39h43v-100q0 -31 -32 -31h-11v14h10q19 0 19 17v65z" />
    <glyph glyph-name="uni0219" unicode="&#x219;" horiz-adv-x="530" 
d="M238 280l80 -12q147 -22 147 -134q0 -68 -52 -107t-142 -39q-95 0 -148.5 43.5t-57.5 122.5h18q4 -72 52.5 -110.5t135.5 -38.5q84 0 130.5 33.5t46.5 95.5q0 98 -133 117l-80 12q-79 13 -117.5 41.5t-38.5 83.5q0 63 49 99.5t133 36.5t135.5 -40t56.5 -109h-18
q-5 62 -51 97.5t-123 35.5q-75 0 -120 -31.5t-45 -87.5q0 -49 35 -74t107 -35zM277 -120l-29 -3v39h43v-101q0 -31 -32 -31h-11v14h10q19 0 19 18v64z" />
    <glyph glyph-name="uni021A" unicode="&#x21a;" horiz-adv-x="650" 
d="M53 695v17h544v-17h-263v-695h-18v695h-263zM334 -119l-29 -4v39h43v-100q0 -31 -32 -31h-11v14h10q19 0 19 17v65z" />
    <glyph glyph-name="uni021B" unicode="&#x21b;" horiz-adv-x="320" 
d="M290 500h-145v-393q0 -47 20.5 -68.5t63.5 -21.5h60v-17h-62q-100 0 -100 105v395h-106v16h106v147h18v-147h145v-16zM150 -113l-29 -4v39h43v-100q0 -31 -32 -31h-11v14h10q19 0 19 17v65z" />
    <glyph glyph-name="uni0237" unicode="&#x237;" horiz-adv-x="206" 
d="M-9 -204h-25v17h26q102 0 102 104v599h18v-597q0 -123 -121 -123z" />
    <glyph glyph-name="uni0259" unicode="&#x259;" horiz-adv-x="566" 
d="M277 528q106 0 168 -74q62 -76 62 -199t-60.5 -195t-165.5 -72q-103 0 -163 69t-60 175v17h431v2v6q0 117 -57 185.5t-156 68.5q-74 0 -123 -38.5t-68 -99.5l-16 4q18 61 70 106q53 45 138 45zM281 5q91 0 147 61.5t61 165.5h-413q2 -103 56.5 -165t148.5 -62z" />
    <glyph glyph-name="h.sups" unicode="&#x2b0;" horiz-adv-x="482" 
d="M254 720q64 0 99 -33t35 -95v-220h-17v218q0 56 -31.5 85.5t-88.5 29.5q-64 0 -102 -39t-38 -110v-184h-17v470h17v-215q31 93 143 93z" />
    <glyph glyph-name="r.sups" unicode="&#x2b3;" horiz-adv-x="308" 
d="M247 716h37v-16h-37q-64 0 -100 -38t-36 -114v-176h-17v340h16l1 -87q13 44 49 67.5t87 23.5z" />
    <glyph glyph-name="circumflex" unicode="&#x2c6;" horiz-adv-x="500" 
d="M123 614h-21l139 162h18l139 -162h-21l-127 147z" />
    <glyph glyph-name="caron" unicode="&#x2c7;" horiz-adv-x="500" 
d="M259 612h-18l-139 162h21l127 -147l127 147h21z" />
    <glyph glyph-name="uni02C9" unicode="&#x2c9;" horiz-adv-x="500" 
d="M393 663h-286v16h286v-16z" />
    <glyph glyph-name="breve" unicode="&#x2d8;" horiz-adv-x="500" 
d="M392 751h16q-4 -129 -158 -129t-158 129h16q5 -113 142 -113t142 113z" />
    <glyph glyph-name="dotaccent" unicode="&#x2d9;" horiz-adv-x="500" 
d="M268 653h-36v60h36v-60z" />
    <glyph glyph-name="ring" unicode="&#x2da;" horiz-adv-x="500" 
d="M327 628q-31 -30 -77 -30t-76 30q-31 30 -31 76q0 47 30 77.5t77 30.5t77 -30.5t30 -77.5q0 -46 -30 -76zM185 639q29 -24 65 -25t65.5 25t26.5 65q0 41 -26 66.5t-66 25.5t-66 -25.5t-26 -66.5q0 -40 27 -65z" />
    <glyph glyph-name="ogonek" unicode="&#x2db;" horiz-adv-x="500" 
d="M327 -201h-37q-50 0 -76 21t-26 60q0 57 74 95l67 33l16 -8l-75 -38q-64 -31 -64 -81q0 -31 21.5 -48.5t62.5 -17.5h37v-16z" />
    <glyph glyph-name="tilde" unicode="&#x2dc;" horiz-adv-x="500" 
d="M85 634h-17q7 151 93 151q59 0 93 -67q34 -68 87 -68q69 0 74 135h17q-7 -151 -92 -151q-30 0 -55 20t-39 48q-34 67 -86 67q-70 0 -75 -135z" />
    <glyph glyph-name="hungarumlaut" unicode="&#x2dd;" horiz-adv-x="500" 
d="M115 612h-19l109 164h21zM290 612h-19l127 164h21z" />
    <glyph glyph-name="s.sups" unicode="&#x2e2;" horiz-adv-x="428" 
d="M221 364q-148 0 -162 107l16 1q10 -93 146 -93q63 0 98 21t35 62q0 62 -101 73l-78 9q-105 12 -105 83q0 44 36 67.5t100 23.5q66 0 106 -25t48 -71l-16 -2q-14 83 -138 83q-56 0 -87.5 -20t-31.5 -56q0 -57 91 -67l78 -10q114 -13 114 -87q0 -48 -39.5 -73.5
t-109.5 -25.5z" />
    <glyph glyph-name="gravecomb" unicode="&#x300;" horiz-adv-x="0" 
d="M38 626h-20l-120 150h23z" />
    <glyph glyph-name="acutecomb" unicode="&#x301;" horiz-adv-x="0" 
d="M-19 626h-20l118 150h23z" />
    <glyph glyph-name="uni0302" unicode="&#x302;" horiz-adv-x="0" 
d="M-127 614h-21l139 162h18l139 -162h-21l-127 147z" />
    <glyph glyph-name="tildecomb" unicode="&#x303;" horiz-adv-x="0" 
d="M-165 634h-17q7 151 93 151q59 0 93 -67q34 -68 87 -68q69 0 74 135h17q-7 -151 -92 -151q-30 0 -55 20t-39 48q-34 67 -86 67q-70 0 -75 -135z" />
    <glyph glyph-name="uni0304" unicode="&#x304;" horiz-adv-x="0" 
d="M143 663h-286v16h286v-16z" />
    <glyph glyph-name="uni0306" unicode="&#x306;" horiz-adv-x="0" 
d="M142 751h16q-4 -129 -158 -129t-158 129h16q5 -113 142 -113t142 113z" />
    <glyph glyph-name="uni0307" unicode="&#x307;" horiz-adv-x="0" 
d="M18 653h-36v60h36v-60z" />
    <glyph glyph-name="uni0308" unicode="&#x308;" horiz-adv-x="0" 
d="M-78 653h-36v60h36v-60zM114 653h-36v60h36v-60z" />
    <glyph glyph-name="uni030A" unicode="&#x30a;" horiz-adv-x="0" 
d="M77 628q-31 -30 -77 -30t-77 30q-30 30 -30 77t30 77q31 30 77 30t77 -30q30 -30 30 -77t-30 -77zM-66 639q27 -25 66 -25t66 25q26 26 26 66t-26 66q-27 25 -66 25t-66 -25q-26 -26 -26 -66t26 -66z" />
    <glyph glyph-name="uni030B" unicode="&#x30b;" horiz-adv-x="0" 
d="M-96 612h-19l109 164h21zM79 612h-19l127 164h21z" />
    <glyph glyph-name="uni030C" unicode="&#x30c;" horiz-adv-x="0" 
d="M9 612h-18l-139 162h21l127 -147l127 147h21z" />
    <glyph glyph-name="uni0312" unicode="&#x312;" horiz-adv-x="0" 
d="M21 761h-10q-18 0 -18 -17v-53l28 3v-39h-42v89q0 31 31 31h11v-14z" />
    <glyph glyph-name="uni0313" unicode="&#x313;" horiz-adv-x="0" 
d="M-21 736v39h42v-89q0 -31 -31 -31h-11v14h10q18 0 18 17v53z" />
    <glyph glyph-name="dotbelowcomb" unicode="&#x323;" horiz-adv-x="0" 
d="M18 -173h-36v60h36v-60z" />
    <glyph glyph-name="uni0324" unicode="&#x324;" horiz-adv-x="0" 
d="M-78 -172h-36v60h36v-60zM114 -172h-36v60h36v-60z" />
    <glyph glyph-name="uni0325" unicode="&#x325;" horiz-adv-x="0" 
d="M77 -266q-32 -30 -77 -30q-46 0 -77 30q-30 30 -30 77t30 77q31 30 77 30t77 -30q30 -30 30 -77t-30 -77zM-66 -255q27 -25 66 -25t66 25q26 26 26 66t-26 66q-27 25 -66 25t-66 -25q-26 -26 -26 -66t26 -66z" />
    <glyph glyph-name="uni0326" unicode="&#x326;" horiz-adv-x="0" 
d="M-22 -123v39h43v-100q0 -31 -32 -31h-11v14h10q19 0 19 17v65z" />
    <glyph glyph-name="uni0327" unicode="&#x327;" horiz-adv-x="0" 
d="M-15 -213h-38v15h38q89 0 89 60q0 53 -71 53h-43l-9 13l44 72h17l-42 -69h34q42 0 64.5 -18t22.5 -51q0 -36 -27.5 -55.5t-78.5 -19.5z" />
    <glyph glyph-name="uni0328" unicode="&#x328;" horiz-adv-x="0" 
d="M-18 -201h-37q-50 0 -76 21t-26 60q0 57 74 95l67 33l16 -8l-75 -38q-64 -31 -64 -81q0 -31 21.5 -48.5t62.5 -17.5h37v-16z" />
    <glyph glyph-name="uni032E" unicode="&#x32e;" horiz-adv-x="0" 
d="M142 -104h16q-4 -129 -158 -129t-158 129h16q5 -113 142 -113t142 113z" />
    <glyph glyph-name="uni0331" unicode="&#x331;" horiz-adv-x="0" 
d="M143 -163h-286v16h286v-16z" />
    <glyph glyph-name="uni0335" unicode="&#x335;" horiz-adv-x="0" 
d="M134 364h-269v16h269v-16z" />
    <glyph glyph-name="uni0337" unicode="&#x337;" horiz-adv-x="0" 
d="M232 516l-452 -517l-12 10l452 517z" />
    <glyph glyph-name="uni0338" unicode="&#x338;" horiz-adv-x="0" 
d="M314 703l-616 -704l-12 10l616 704z" />
    <glyph glyph-name="uni0394" unicode="&#x394;" horiz-adv-x="716" 
d="M351 717h16l310 -717h-638zM353 676l-287 -659h584l-285 659l-6 16z" />
    <glyph glyph-name="uni03A9" unicode="&#x3a9;" horiz-adv-x="810" 
d="M355 0h-274v17h238v2q-230 120 -230 361q0 159 87 252t228 93q142 0 228 -92q86 -94 86 -253q0 -239 -227 -361v-2h237v-17h-273v16q245 123 245 364q0 151 -80 240q-81 88 -216 88q-134 0 -215 -88q-82 -88 -82 -240q0 -241 248 -364v-16z" />
    <glyph glyph-name="uni03BC" unicode="&#x3bc;" horiz-adv-x="582" 
d="M112 -204h-18v720h18v-334q0 -85 42 -131t122 -46q90 0 142 59t52 173v279h18v-516h-18l1 137q-44 -149 -196 -149q-124 0 -164 103h-1l2 -175v-120z" />
    <glyph glyph-name="pi" unicode="&#x3c0;" horiz-adv-x="624" 
d="M594 516v-17h-144v-377q0 -58 22.5 -81.5t78.5 -23.5h12v-17h-13q-63 0 -90.5 28.5t-27.5 94.5v376h-268v-499h-17v499h-125v17h572z" />
    <glyph glyph-name="d.sups" unicode="&#x1d48;" horiz-adv-x="482" 
d="M371 620v222h17v-470h-16l-1 95q-16 -46 -56 -74.5t-93 -28.5q-75 0 -119 49.5t-44 131.5q0 80 43.5 127.5t118.5 47.5q56 0 95.5 -27.5t54.5 -72.5zM224 380q66 0 107 44t41 118q0 76 -41 119.5t-109 43.5q-67 0 -106.5 -43t-39.5 -117q0 -75 39.5 -120t108.5 -45z" />
    <glyph glyph-name="t.sups" unicode="&#x1d57;" horiz-adv-x="270" 
d="M240 712v-14h-105v-254q0 -57 61 -57h44v-15h-47q-75 0 -75 71v255h-96v14h96v98h17v-98h105z" />
    <glyph glyph-name="Wgrave" unicode="&#x1e80;" horiz-adv-x="936" 
d="M388 972l117 -150h-20l-120 150h23zM698 124l180 588h18l-220 -718h-16l-192 685l-193 -685h-16l-220 718h18l180 -588l30 -102l27 102l165 588h17l165 -588l27 -102z" />
    <glyph glyph-name="wgrave" unicode="&#x1e81;" horiz-adv-x="763" 
d="M301 776l117 -150h-20l-120 150h23zM562 91l138 425h19l-169 -516h-17l-136 437l-15 59l-16 -59l-137 -437h-17l-169 516h20l137 -425l20 -68l20 68l133 425h17l133 -425l20 -66z" />
    <glyph glyph-name="Wacute" unicode="&#x1e82;" horiz-adv-x="936" 
d="M546 972h23l-121 -150h-20zM698 124l180 588h18l-220 -718h-16l-192 685l-193 -685h-16l-220 718h18l180 -588l30 -102l27 102l165 588h17l165 -588l27 -102z" />
    <glyph glyph-name="wacute" unicode="&#x1e83;" horiz-adv-x="763" 
d="M459 776h23l-121 -150h-20zM562 91l138 425h19l-169 -516h-17l-136 437l-15 59l-16 -59l-137 -437h-17l-169 516h20l137 -425l20 -68l20 68l133 425h17l133 -425l20 -66z" />
    <glyph glyph-name="Wdieresis" unicode="&#x1e84;" horiz-adv-x="936" 
d="M354 884h36v-60h-36v60zM546 884h36v-60h-36v60zM698 124l180 588h18l-220 -718h-16l-192 685l-193 -685h-16l-220 718h18l180 -588l30 -102l27 102l165 588h17l165 -588l27 -102z" />
    <glyph glyph-name="wdieresis" unicode="&#x1e85;" horiz-adv-x="763" 
d="M266 713h36v-60h-36v60zM458 713h36v-60h-36v60zM562 91l138 425h19l-169 -516h-17l-136 437l-15 59l-16 -59l-137 -437h-17l-169 516h20l137 -425l20 -68l20 68l133 425h17l133 -425l20 -66z" />
    <glyph glyph-name="uni1E9E" unicode="&#x1e9e;" horiz-adv-x="681" 
d="M381 392q112 0 177 -52.5t65 -144.5q0 -100 -62 -153t-178 -53q-65 0 -138 15v16q73 -15 137 -15q109 0 166 48.5t57 141.5q0 85 -60 132.5t-165 47.5q-41 0 -65 -4v16l259 302q-99 12 -213 12q-122 0 -179 -55t-57 -166v-480h-18v480q0 238 253 238q136 0 236 -16v-16
l-257 -297q19 3 42 3z" />
    <glyph glyph-name="Ygrave" unicode="&#x1ef2;" horiz-adv-x="668" 
d="M255 972l117 -150h-20l-120 150h23zM619 712h22l-297 -426v-286h-18v286l-299 426h23l276 -397l9 -14l9 14z" />
    <glyph glyph-name="ygrave" unicode="&#x1ef3;" horiz-adv-x="545" 
d="M193 776l117 -150h-20l-120 150h23zM277 -6l205 522h19l-251 -635q-19 -49 -47 -67t-85 -18h-27v17h26q53 0 77 15.5t41 58.5l35 89l-227 540h20l207 -497z" />
    <glyph glyph-name="thinspace" unicode="&#x2009;" horiz-adv-x="206" 
 />
    <glyph glyph-name="uni2011" unicode="&#x2011;" horiz-adv-x="376" 
d="M328 241h-280v18h280v-18z" />
    <glyph glyph-name="endash" unicode="&#x2013;" horiz-adv-x="531" 
d="M483 241h-435v18h435v-18z" />
    <glyph glyph-name="emdash" unicode="&#x2014;" horiz-adv-x="825" 
d="M777 241h-729v18h729v-18z" />
    <glyph glyph-name="quoteleft" unicode="&#x2018;" horiz-adv-x="159" 
d="M112 520h-57v143q0 50 50 50h7v-15h-8q-34 0 -34 -34v-102l42 5v-47z" />
    <glyph glyph-name="quoteright" unicode="&#x2019;" horiz-adv-x="159" 
d="M54 519h-7v15h8q34 0 34 34v102l-42 -5v47h57v-142q0 -51 -50 -51z" />
    <glyph glyph-name="quotesinglbase" unicode="&#x201a;" horiz-adv-x="236" 
d="M97 -149h-7v15h8q34 0 34 34v102l-43 -5v48h58v-143q0 -51 -50 -51z" />
    <glyph glyph-name="quotedblleft" unicode="&#x201c;" horiz-adv-x="288" 
d="M242 520h-57v143q0 50 50 50h7v-15h-8q-34 0 -34 -34v-101l42 5v-48zM112 518h-57v143q0 50 50 50h7v-14h-8q-34 0 -34 -34v-102l42 5v-48z" />
    <glyph glyph-name="quotedblright" unicode="&#x201d;" horiz-adv-x="288" 
d="M54 519h-7v15h8q34 0 34 34v102l-42 -5v47h57v-142q0 -51 -50 -51zM184 519h-7v15h8q34 0 34 34v102l-43 -5v47h58v-142q0 -51 -50 -51z" />
    <glyph glyph-name="quotedblbase" unicode="&#x201e;" horiz-adv-x="366" 
d="M97 -148h-7v14h8q34 0 34 34v102l-43 -5v48h58v-143q0 -50 -50 -50zM226 -149h-7v15h8q34 0 34 34v102l-42 -5v48h57v-143q0 -51 -50 -51z" />
    <glyph glyph-name="dagger" unicode="&#x2020;" horiz-adv-x="644" 
d="M330 565l206 1v-18l-206 1v-654h-18v654l-205 -1v18l205 -1v285h18v-285z" />
    <glyph glyph-name="daggerdbl" unicode="&#x2021;" horiz-adv-x="644" 
d="M536 566v-18l-206 1v-349l206 1v-18l-206 1v-289h-18v289l-205 -1v18l205 -1v349l-205 -1v18l205 -1v285h18v-285z" />
    <glyph glyph-name="bullet" unicode="&#x2022;" horiz-adv-x="317" 
d="M209 249h-102v84h102v-84z" />
    <glyph glyph-name="ellipsis" unicode="&#x2026;" horiz-adv-x="718" 
d="M152 0h-58v48h58v-48zM388 0h-58v48h58v-48zM624 0h-58v48h58v-48z" />
    <glyph glyph-name="perthousand" unicode="&#x2030;" horiz-adv-x="1727" 
d="M451 536q0 -222 -172 -222t-172 222q0 221 172 221t172 -221zM279 331q155 0 155 205t-155 205q-154 0 -154 -205t154 -205zM396 -15h-19l448 742h19zM1144 215q0 -222 -172 -222t-172 222q0 221 172 221t172 -221zM1619 215q0 -222 -172 -222t-172 222q0 221 172 221
t172 -221zM817 215q0 -205 155 -205t155 205t-155 205t-155 -205zM1447 10q155 0 155 205t-155 205q-154 0 -154 -205t154 -205z" />
    <glyph glyph-name="guilsinglleft" unicode="&#x2039;" horiz-adv-x="438" 
d="M344 13v-23l-250 255v24l250 255v-23l-237 -244z" />
    <glyph glyph-name="guilsinglright" unicode="&#x203a;" horiz-adv-x="438" 
d="M344 245l-250 -255v23l237 244l-237 244v23l250 -255v-24z" />
    <glyph glyph-name="uni203D" unicode="&#x203d;" horiz-adv-x="607" 
d="M299 719q104 0 165.5 -48.5t61.5 -136.5q0 -55 -26 -94.5t-88 -77.5l-28 -17q-49 -29 -67.5 -59t-21.5 -84v-35h-16l-1 271v116h18v-116l-1 -162q21 48 95 92q65 36 91.5 74.5t26.5 91.5q0 81 -56 124.5t-153 43.5q-102 0 -158 -51.5t-58 -145.5h-18q2 102 63 158t171 56
zM309 0h-41v41h41v-41z" />
    <glyph glyph-name="fraction" unicode="&#x2044;" horiz-adv-x="287" 
d="M-71 -15h-19l448 742h19z" />
    <glyph glyph-name="zero.sups" unicode="&#x2070;" horiz-adv-x="443" 
d="M394 587q0 -222 -172 -222t-172 222q0 221 172 221t172 -221zM222 382q154 0 154 205t-154 205q-155 0 -155 -205t155 -205z" />
    <glyph glyph-name="four.sups" unicode="&#x2074;" horiz-adv-x="414" 
d="M307 372h-17v119h-259v15l259 293h17v-292h75v-16h-75v-119zM289 775l-237 -268h238v268h-1z" />
    <glyph glyph-name="five.sups" unicode="&#x2075;" horiz-adv-x="427" 
d="M211 361q-62 0 -105.5 28.5t-55.5 74.5l17 4q10 -40 49 -65t95 -25q68 0 108 34.5t40 91.5q0 56 -38.5 89.5t-104.5 33.5q-88 0 -131 -60l-23 5l44 227h243v-16h-230l-36 -194l1 -1q43 55 133 55q72 0 116 -38.5t44 -100.5q0 -63 -45.5 -103t-120.5 -40z" />
    <glyph glyph-name="six.sups" unicode="&#x2076;" horiz-adv-x="427" 
d="M222 366q-172 0 -172 207q0 235 171 235q116 0 143 -104l-17 -3q-22 91 -125 91q-155 0 -155 -226q22 36 62.5 58t93.5 22q71 0 112.5 -37.5t41.5 -98.5q0 -64 -43 -104t-112 -40zM222 382q62 0 100 35t38 91q0 55 -37 88.5t-100 33.5q-55 0 -95 -24.5t-60 -65.5
q7 -78 46.5 -118t107.5 -40z" />
    <glyph glyph-name="seven.sups" unicode="&#x2077;" horiz-adv-x="368" 
d="M121 372h-18q7 116 62.5 223t151.5 188h-292v16h318v-15q-211 -174 -222 -412z" />
    <glyph glyph-name="eight.sups" unicode="&#x2078;" horiz-adv-x="445" 
d="M347 401q-49 -35 -125 -35q-77 0 -124 35q-48 35 -48 92q0 42 28 71.5t79 39.5v2q-42 8 -67 34t-25 62q0 48 42.5 77t114.5 29t115 -29t43 -77q0 -35 -24.5 -61t-67.5 -35v-2q51 -10 79 -39.5t28 -71.5q0 -57 -48 -92zM222 611q66 0 103 24t37 65q0 44 -37 68t-103 24
q-64 0 -101.5 -24t-37.5 -67q0 -42 37 -66t102 -24zM222 381q72 0 114 30.5t42 81.5q0 49 -41 76t-115 27t-114.5 -27t-40.5 -76q0 -51 42 -81.5t113 -30.5z" />
    <glyph glyph-name="nine.sups" unicode="&#x2079;" horiz-adv-x="427" 
d="M206 366q-117 0 -143 104l17 3q22 -91 125 -91q155 0 155 226q-22 -36 -62.5 -58t-93.5 -22q-71 0 -112.5 38t-41.5 99q0 63 43 103t112 40q172 0 172 -207q0 -115 -43.5 -175t-127.5 -60zM204 544q55 0 95 24.5t59 65.5q-6 78 -45.5 118t-107.5 40q-62 0 -100 -35
t-38 -91t36.5 -89t100.5 -33z" />
    <glyph glyph-name="plus.sups" unicode="&#x207a;" horiz-adv-x="542" 
d="M279 560h196v-15h-196v-173h-16v173h-195v15h195v174h16v-174z" />
    <glyph glyph-name="minus.sups" unicode="&#x207b;" horiz-adv-x="527" 
d="M460 545h-392v15h392v-15z" />
    <glyph glyph-name="parenleft.sups" unicode="&#x207d;" horiz-adv-x="280" 
d="M216 237h-19q-113 139 -113 311q0 180 113 317h19q-115 -136 -115 -317q0 -175 115 -311z" />
    <glyph glyph-name="parenright.sups" unicode="&#x207e;" horiz-adv-x="280" 
d="M82 237h-18q115 136 115 311q0 181 -115 317h18q114 -137 114 -317q0 -173 -114 -311z" />
    <glyph glyph-name="n.sups" unicode="&#x207f;" horiz-adv-x="482" 
d="M254 720q64 0 99 -33t35 -95v-220h-17v218q0 56 -31.5 85.5t-88.5 29.5q-64 0 -102 -39t-38 -110v-184h-17v340h16l1 -86q31 94 143 94z" />
    <glyph glyph-name="zero.subs" unicode="&#x2080;" horiz-adv-x="443" 
d="M394 41q0 -222 -172 -222t-172 222q0 221 172 221t172 -221zM222 -164q154 0 154 205t-154 205q-155 0 -155 -205t155 -205z" />
    <glyph glyph-name="one.subs" unicode="&#x2081;" horiz-adv-x="309" 
d="M215 -174h-17v297h-151v16h108q23 0 33 7t10 28l1 79h16v-427z" />
    <glyph glyph-name="two.subs" unicode="&#x2082;" horiz-adv-x="472" 
d="M393 -174h-310q0 106 141 174l58 27q49 24 70.5 50.5t21.5 62.5q0 46 -35.5 76t-98.5 30q-133 0 -134 -127h-18q1 71 41 107t111 36q70 0 110.5 -34.5t40.5 -87.5q0 -42 -23.5 -71.5t-77.5 -55.5l-57 -26q-124 -60 -131 -145h291v-16z" />
    <glyph glyph-name="three.subs" unicode="&#x2083;" horiz-adv-x="427" 
d="M217 -181q-76 0 -121.5 36t-45.5 94h17q0 -51 40.5 -82.5t109.5 -31.5q66 0 104.5 29t38.5 80q0 46 -36.5 74t-98.5 28h-33v16h33q53 0 82.5 25t29.5 66q0 42 -35 67.5t-92 25.5q-60 0 -94.5 -27.5t-34.5 -77.5h-17q0 55 39 88t107 33q63 0 103.5 -30t40.5 -78
q0 -36 -21 -63t-58 -36v-1q46 -8 74 -38.5t28 -72.5q0 -56 -43.5 -90t-116.5 -34z" />
    <glyph glyph-name="four.subs" unicode="&#x2084;" horiz-adv-x="414" 
d="M307 -174h-17v119h-259v15l259 293h17v-292h75v-16h-75v-119zM289 229l-237 -268h238v268h-1z" />
    <glyph glyph-name="five.subs" unicode="&#x2085;" horiz-adv-x="427" 
d="M211 -185q-62 0 -105.5 28.5t-55.5 74.5l17 4q10 -40 49 -65t95 -25q68 0 108 34.5t40 91.5q0 56 -38.5 89.5t-104.5 33.5q-88 0 -131 -60l-23 5l44 227h243v-16h-230l-36 -194l1 -1q43 55 133 55q72 0 116 -38.5t44 -100.5q0 -63 -45.5 -103t-120.5 -40z" />
    <glyph glyph-name="six.subs" unicode="&#x2086;" horiz-adv-x="427" 
d="M222 -180q-172 0 -172 207q0 235 171 235q116 0 143 -104l-17 -3q-22 91 -125 91q-155 0 -155 -226q22 37 62.5 58.5t93.5 21.5q71 0 112.5 -37.5t41.5 -98.5q0 -64 -43 -104t-112 -40zM222 -164q62 0 100 35t38 91q0 55 -37 88.5t-100 33.5q-55 0 -95 -24.5t-60 -65.5
q7 -78 46.5 -118t107.5 -40z" />
    <glyph glyph-name="seven.subs" unicode="&#x2087;" horiz-adv-x="368" 
d="M121 -174h-18q7 116 62.5 223t151.5 188h-292v16h318v-15q-211 -174 -222 -412z" />
    <glyph glyph-name="eight.subs" unicode="&#x2088;" horiz-adv-x="445" 
d="M347 -145q-49 -35 -125 -35q-77 0 -124 35q-48 35 -48 92q0 42 28 71.5t79 39.5v2q-42 8 -67 34t-25 62q0 48 42.5 77t114.5 29t115 -29t43 -77q0 -35 -24.5 -61t-67.5 -35v-2q51 -10 79 -39.5t28 -71.5q0 -57 -48 -92zM222 65q66 0 103 24t37 65q0 44 -37 68t-103 24
q-64 0 -101.5 -24t-37.5 -67q0 -42 37 -66t102 -24zM222 -165q72 0 114 30.5t42 81.5q0 49 -41 76t-115 27t-114.5 -27t-40.5 -76q0 -51 42 -81.5t113 -30.5z" />
    <glyph glyph-name="nine.subs" unicode="&#x2089;" horiz-adv-x="427" 
d="M206 -180q-117 0 -143 104l17 3q22 -91 125 -91q155 0 155 226q-22 -36 -62.5 -58t-93.5 -22q-71 0 -112.5 38t-41.5 99q0 63 43 103t112 40q172 0 172 -207q0 -115 -43.5 -175t-127.5 -60zM204 -2q55 0 95 24.5t59 65.5q-6 78 -45.5 118t-107.5 40q-62 0 -100 -35
t-38 -91t36.5 -89t100.5 -33z" />
    <glyph glyph-name="plus.subs" unicode="&#x208a;" horiz-adv-x="542" 
d="M279 38h196v-15h-196v-173h-16v173h-195v15h195v174h16v-174z" />
    <glyph glyph-name="minus.subs" unicode="&#x208b;" horiz-adv-x="527" 
d="M460 23h-392v15h392v-15z" />
    <glyph glyph-name="equal.subs" unicode="&#x208c;" horiz-adv-x="527" 
d="M460 96h-392v14h392v-14zM460 -50h-392v15h392v-15z" />
    <glyph glyph-name="uni208D" unicode="&#x208d;" horiz-adv-x="280" 
d="M216 -309h-19q-113 139 -113 311q0 180 113 317h19q-115 -136 -115 -317q0 -175 115 -311z" />
    <glyph glyph-name="uni208E" unicode="&#x208e;" horiz-adv-x="280" 
d="M82 -309h-18q115 136 115 311q0 181 -115 317h18q114 -137 114 -317q0 -173 -114 -311z" />
    <glyph glyph-name="n.subs" unicode="&#x2099;" horiz-adv-x="482" 
d="M254 174q64 0 99 -33t35 -95v-220h-17v218q0 56 -31.5 85.5t-88.5 29.5q-64 0 -102 -39t-38 -110v-184h-17v340h16l1 -86q31 94 143 94z" />
    <glyph glyph-name="Euro" unicode="&#x20ac;" 
d="M449 701q-104 0 -173.5 -63.5t-91.5 -179.5h415v-18h-418q-6 -39 -6 -84q0 -32 5 -77h419v-18h-416q20 -120 90 -185.5t175 -65.5q82 0 151 34v-18q-66 -33 -151 -33q-113 0 -188 70.5t-96 197.5h-123v18h121q-5 45 -5 77q0 45 6 84h-122v18h125q22 123 96.5 192
t185.5 69q82 0 151 -33v-19q-67 34 -150 34z" />
    <glyph glyph-name="uni20B8" unicode="&#x20b8;" horiz-adv-x="650" 
d="M53 695v17h544v-17h-544zM316 552h-263v17h544v-17h-263v-552h-18v552z" />
    <glyph glyph-name="uni20B9" unicode="&#x20b9;" 
d="M58 712h524v-18h-298q54 -20 85.5 -63.5t33.5 -101.5h179v-17h-179q-3 -66 -41.5 -112t-103.5 -60q55 -4 86 -31t49 -91l63 -218h-19l-61 214q-20 68 -56 91q-38 24 -121 24h-141v18h142q81 0 131.5 45t53.5 120h-327v17h327q-3 75 -54 120t-131 45h-142v18z" />
    <glyph glyph-name="uni20BA" unicode="&#x20ba;" 
d="M579 246h17q-4 -112 -83 -179t-202 -67h-121v274l-145 -76v19l145 76v171l-145 -76v19l145 76v229h18v-220l249 131v-18l-249 -131v-172l249 131v-18l-249 -131v-267h103q115 0 189 63q74 62 79 166z" />
    <glyph glyph-name="uni20BC" unicode="&#x20bc;" 
d="M330 525h9q122 0 175 -54t53 -178v-293h-18v293q0 117 -48.5 166t-164.5 49h-6v-397h-18v397h-7q-116 0 -164.5 -49t-48.5 -166v-293h-18v293q0 124 53 178t175 54h10v187h18v-187z" />
    <glyph glyph-name="uni20BF" unicode="&#x20bf;" 
d="M421 372q83 -11 128 -59.5t45 -125.5q0 -86 -52.5 -136.5t-137.5 -50.5h-9v-144h-17v144h-144v-144h-17v144h-132v712h132v135h17v-135h134h10v135h17v-136q81 -8 124.5 -55t43.5 -118q0 -63 -37.5 -108.5t-104.5 -57.5zM365 695h-262v-316h261q85 0 133 43t48 114
q0 70 -46.5 114.5t-133.5 44.5zM103 17h301q77 0 124.5 45.5t47.5 124.5q0 82 -55 129t-151 47h-267v-346z" />
    <glyph glyph-name="uni2105" unicode="&#x2105;" horiz-adv-x="1210" 
d="M394 -15h-19l448 742h18zM274 365q-78 0 -122.5 47.5t-44.5 130.5q0 81 44.5 128t122.5 47q63 0 102 -29.5t49 -76.5l-17 -2q-10 42 -43.5 67t-89.5 25q-72 0 -111.5 -42t-39.5 -117q0 -76 40 -119t111 -43q110 0 133 101l17 -2q-11 -54 -50.5 -84.5t-100.5 -30.5z
M934 -7q-74 0 -122 51q-48 50 -48 129t48 130t122 51q73 0 120 -50q47 -52 47 -131t-47 -129q-46 -51 -120 -51zM934 9q66 0 108 45.5t42 118.5q0 74 -42 119.5t-108 45.5q-68 0 -110.5 -45.5t-42.5 -119.5q0 -73 42.5 -118.5t110.5 -45.5z" />
    <glyph glyph-name="uni2113" unicode="&#x2113;" horiz-adv-x="473" 
d="M396 74l12 -13q-59 -68 -147 -68q-64 0 -99.5 35t-35.5 100v110l-97 -44l-7 16l104 45v326q0 66 34 102t97 36q138 0 138 -181q0 -120 -62 -179q-32 -32 -76 -58q-36 -21 -113 -55v-118q0 -56 30.5 -87t86.5 -31q83 0 135 64zM257 701q-55 0 -84 -31t-29 -89v-319
q131 59 182 114q51 56 51 161q0 84 -29 124t-91 40z" />
    <glyph glyph-name="uni2116" unicode="&#x2116;" horiz-adv-x="1197" 
d="M972 725q74 0 120 -51q47 -52 47 -130q0 -79 -47 -129q-46 -51 -120 -51q-76 0 -122 51q-48 49 -48 129t48 131q47 50 122 50zM124 712l493 -683v683h17v-712h-17l-492 682v-682h-18v712h17zM972 380q66 0 108 45.5t42 118.5t-42 119t-108 46q-68 0 -110.5 -46
t-42.5 -119t42.5 -118.5t110.5 -45.5z" />
    <glyph glyph-name="uni2117" unicode="&#x2117;" horiz-adv-x="866" 
d="M180 617q98 102 253 102t254 -102q98 -103 98 -260q0 -158 -98 -261q-99 -103 -254 -103q-156 0 -253 103q-99 102 -99 261q0 158 99 260zM433 9q147 0 242 98q93 97 93 250q0 151 -93 249q-93 97 -242 97t-242 -97q-94 -97 -94 -249q0 -153 94 -250q93 -98 242 -98z
M325 547h142q57 0 90 -29.5t33 -80.5q0 -52 -33 -82.5t-91 -30.5h-125v-154h-16v377zM341 339h125q51 0 79.5 26.5t28.5 71.5t-28 70t-80 25h-125v-193z" />
    <glyph glyph-name="trademark" unicode="&#x2122;" horiz-adv-x="958" 
d="M208 330h-16v367h-133v15h283v-15h-134v-367zM482 330h-16v382h42l152 -369h11l151 369h42v-382h-17v369h-15l-150 -369h-34l-151 369h-15v-369z" />
    <glyph glyph-name="uni2126" unicode="&#x2126;" horiz-adv-x="810" 
d="M355 0h-274v17h238v2q-230 120 -230 361q0 159 87 252t228 93q142 0 228 -92q86 -94 86 -253q0 -239 -227 -361v-2h237v-17h-273v16q245 123 245 364q0 151 -80 240q-81 88 -216 88q-134 0 -215 -88q-82 -88 -82 -240q0 -241 248 -364v-16z" />
    <glyph glyph-name="estimated" unicode="&#x212e;" horiz-adv-x="899" 
d="M449 718q184 0 293 -109q108 -109 108 -268h-639q-14 0 -14 -13v-174q0 -30 16 -45q98 -96 236 -96q74 0 140 31t110 84h72q-44 -62 -127.5 -101t-194.5 -39q-181 0 -290 102q-110 102 -110 261q0 160 109 263q109 104 291 104zM449 691q-138 0 -236 -98q-16 -15 -16 -42
v-174q0 -13 14 -13h475q14 0 14 13v174q0 27 -16 42q-100 98 -235 98z" />
    <glyph glyph-name="uni2153" unicode="&#x2153;" horiz-adv-x="1128" 
d="M275 321h-17v297h-151v16h107q24 0 34 7t10 28v79h17v-427zM296 -15h-19l448 742h18zM859 -7q-75 0 -121 36.5t-46 93.5h18q0 -52 40 -83t109 -31q67 0 105.5 29t38.5 80q0 46 -37 74t-99 28h-32v16h32q53 0 82.5 25t29.5 66q0 42 -35 67.5t-92 25.5q-60 0 -94 -27.5
t-35 -77.5h-17q0 55 39 88t107 33q64 0 104.5 -30t40.5 -78q0 -36 -21.5 -63t-58.5 -36v-1q46 -8 74.5 -38.5t28.5 -72.5q0 -56 -44 -90t-117 -34z" />
    <glyph glyph-name="uni2154" unicode="&#x2154;" horiz-adv-x="1235" 
d="M417 321h-310q0 107 141 174l58 27q49 24 70.5 50.5t21.5 62.5q0 46 -35.5 76t-98.5 30q-132 0 -135 -127h-18q1 71 41.5 107t111.5 36q70 0 110.5 -34.5t40.5 -87.5q0 -42 -23.5 -71.5t-77.5 -55.5l-57 -26q-124 -60 -131 -145h291v-16zM402 -15h-19l448 742h19zM966 -7
q-75 0 -121 36.5t-46 93.5h17q1 -52 41 -83t109 -31q67 0 105.5 29t38.5 80q0 46 -37 74t-99 28h-32v16h32q53 0 82.5 25t29.5 66q0 42 -35 67.5t-92 25.5q-60 0 -94 -27.5t-35 -77.5h-17q0 55 39 88t107 33q63 0 103.5 -30t40.5 -78q0 -36 -21 -63t-58 -36v-1
q46 -8 74.5 -38.5t28.5 -72.5q0 -56 -44 -90t-117 -34z" />
    <glyph glyph-name="uni2155" unicode="&#x2155;" horiz-adv-x="1144" 
d="M275 321h-17v297h-151v16h107q24 0 34 7t10 28v79h17v-427zM296 -15h-19l448 742h18zM870 -11q-63 0 -106 28.5t-54 74.5l17 4q9 -40 48 -65t95 -25q68 0 108.5 34.5t40.5 91.5q0 56 -38.5 89.5t-104.5 33.5q-88 0 -132 -60l-23 5l44 227h243v-16h-229l-37 -194l1 -1
q43 55 133 55q74 0 117 -38t43 -101t-45.5 -103t-120.5 -40z" />
    <glyph glyph-name="uni2156" unicode="&#x2156;" horiz-adv-x="1244" 
d="M417 321h-310q0 107 141 174l58 27q49 24 70.5 50.5t21.5 62.5q0 46 -35.5 76t-98.5 30q-132 0 -135 -127h-18q1 71 41.5 107t111.5 36q70 0 110.5 -34.5t40.5 -87.5q0 -42 -23.5 -71.5t-77.5 -55.5l-57 -26q-124 -60 -131 -145h291v-16zM395 -15h-19l448 742h19z
M970 -11q-62 0 -105.5 28.5t-55.5 74.5l18 4q9 -40 48 -65t95 -25q68 0 108.5 34.5t40.5 91.5q0 56 -39 89.5t-105 33.5q-87 0 -131 -60l-23 5l44 227h243v-16h-230l-36 -194l1 -1q43 55 133 55q74 0 117 -38t43 -101t-45.5 -103t-120.5 -40z" />
    <glyph glyph-name="uni2157" unicode="&#x2157;" horiz-adv-x="1235" 
d="M274 314q-75 0 -121 36.5t-46 93.5h17q0 -51 40.5 -82.5t109.5 -31.5q67 0 105.5 29t38.5 80q0 46 -37 74t-99 28h-32v16h32q53 0 82.5 25t29.5 66q0 42 -35 67.5t-92 25.5q-60 0 -94.5 -27.5t-34.5 -77.5h-17q0 55 39 88t107 33q63 0 103.5 -30t40.5 -78q0 -36 -21 -63
t-58 -36v-1q46 -8 74.5 -38.5t28.5 -72.5q0 -56 -44 -90t-117 -34zM387 -15h-19l448 742h19zM961 -11q-62 0 -105 28.5t-55 74.5l17 4q9 -40 48 -65t95 -25q68 0 108.5 34.5t40.5 91.5q0 56 -38.5 89.5t-104.5 33.5q-89 0 -132 -60l-23 5l44 227h244v-16h-230l-37 -194l1 -1
q46 55 133 55q74 0 117 -38t43 -101q0 -64 -45.5 -103.5t-120.5 -39.5z" />
    <glyph glyph-name="uni2158" unicode="&#x2158;" horiz-adv-x="1273" 
d="M383 321h-17v119h-259v15l259 293h17v-292h75v-16h-75v-119zM425 -15h-19l448 742h19zM365 724l-237 -268h238v268h-1zM999 -11q-62 0 -105 28.5t-55 74.5l17 4q9 -40 48 -65t95 -25q68 0 108.5 34.5t40.5 91.5q0 56 -38.5 89.5t-104.5 33.5q-89 0 -132 -60l-23 5l44 227
h244v-16h-230l-37 -194l1 -1q46 55 133 55q74 0 117 -38t43 -101q0 -64 -45.5 -103.5t-120.5 -39.5z" />
    <glyph glyph-name="uni2159" unicode="&#x2159;" horiz-adv-x="1116" 
d="M275 321h-17v297h-151v16h107q24 0 34 7t10 28v79h17v-427zM296 -15h-19l448 742h18zM853 -6q-172 0 -172 207q0 115 43.5 175t127.5 60q117 0 143 -104l-17 -3q-22 91 -125 91q-155 0 -155 -226q22 36 62.5 58t93.5 22q71 0 112.5 -37.5t41.5 -98.5q0 -64 -43 -104
t-112 -40zM853 10q62 0 100 35t38 91q0 55 -37 88.5t-100 33.5q-55 0 -95 -24.5t-59 -65.5q6 -78 45.5 -118t107.5 -40z" />
    <glyph glyph-name="uni215A" unicode="&#x215a;" horiz-adv-x="1200" 
d="M268 310q-62 0 -105.5 28.5t-55.5 74.5l18 4q9 -40 48 -65t95 -25q68 0 108.5 34.5t40.5 91.5q0 56 -39 89.5t-105 33.5q-87 0 -131 -60l-23 5l44 227h243v-16h-230l-36 -194l1 -1q43 55 133 55q74 0 117 -38t43 -101t-45.5 -103t-120.5 -40zM380 -15h-19l448 742h19z
M937 -6q-172 0 -172 207q0 115 43.5 175t127.5 60q117 0 143 -104l-17 -3q-22 91 -125 91q-155 0 -155 -226q22 36 62.5 58t93.5 22q71 0 112.5 -37.5t41.5 -98.5q0 -64 -43 -104t-112 -40zM937 10q62 0 100 35t38 91t-36.5 89t-100.5 33q-55 0 -95 -24.5t-59 -65.5
q6 -78 45.5 -118t107.5 -40z" />
    <glyph glyph-name="oneeighth" unicode="&#x215b;" horiz-adv-x="1147" 
d="M275 321h-17v297h-151v16h107q24 0 34 7t10 28v79h17v-427zM296 -15h-19l448 742h18zM992 29q-49 -35 -125 -35t-125 35q-48 34 -48 92q0 42 28.5 71.5t79.5 39.5v2q-43 8 -67.5 34t-24.5 62q0 48 42.5 77t114.5 29t114.5 -29t42.5 -77q0 -35 -24.5 -61t-67.5 -35v-2
q51 -10 79 -39.5t28 -71.5q0 -57 -47 -92zM867 239q65 0 102 24t37 65q0 44 -37 68t-102 24t-102.5 -24t-37.5 -67q0 -42 37 -66t103 -24zM867 9q71 0 113 30.5t42 81.5q0 49 -41 76t-114 27q-75 0 -115.5 -27t-40.5 -76q0 -51 42 -81.5t114 -30.5z" />
    <glyph glyph-name="threeeighths" unicode="&#x215c;" horiz-adv-x="1238" 
d="M274 314q-75 0 -121 36.5t-46 93.5h17q0 -51 40.5 -82.5t109.5 -31.5q67 0 105.5 29t38.5 80q0 46 -37 74t-99 28h-32v16h32q53 0 82.5 25t29.5 66q0 42 -35 67.5t-92 25.5q-60 0 -94.5 -27.5t-34.5 -77.5h-17q0 55 39 88t107 33q63 0 103.5 -30t40.5 -78q0 -36 -21 -63
t-58 -36v-1q46 -8 74.5 -38.5t28.5 -72.5q0 -56 -44 -90t-117 -34zM387 -15h-19l448 742h19zM1083 29q-49 -35 -125 -35t-125 35q-48 34 -48 92q0 42 28.5 71.5t79.5 39.5v2q-43 8 -67.5 34t-24.5 62q0 48 42.5 77t114.5 29t114.5 -29t42.5 -77q0 -35 -24.5 -61t-67.5 -35
v-2q51 -10 79 -39.5t28 -71.5q0 -57 -47 -92zM856 263q38 -24 102 -24t102 24q37 24 37 65q0 44 -37 68t-102 24t-102.5 -24t-37.5 -67q0 -42 38 -66zM958 9q71 0 113 30.5t42 81.5q0 49 -41 76t-114 27q-74 0 -115 -27t-41 -76q0 -51 42 -81.5t114 -30.5z" />
    <glyph glyph-name="fiveeighths" unicode="&#x215d;" horiz-adv-x="1232" 
d="M268 310q-62 0 -105.5 28.5t-55.5 74.5l18 4q9 -40 48 -65t95 -25q68 0 108.5 34.5t40.5 91.5q0 56 -39 89.5t-105 33.5q-87 0 -131 -60l-23 5l44 227h243v-16h-230l-36 -194l1 -1q43 55 133 55q74 0 117 -38t43 -101t-45.5 -103t-120.5 -40zM380 -15h-19l448 742h19z
M1076 29q-49 -35 -125 -35t-125 35q-48 34 -48 92q0 42 28.5 71.5t79.5 39.5v2q-43 8 -67.5 34t-24.5 62q0 48 42.5 77t114.5 29t114.5 -29t42.5 -77q0 -35 -24.5 -61t-67.5 -35v-2q51 -10 79 -39.5t28 -71.5q0 -57 -47 -92zM849 263q37 -24 102 -24t102 24t37 65
q0 44 -37 68t-102 24q-64 0 -101.5 -24t-37.5 -67q0 -42 37 -66zM951 9q71 0 113 30.5t42 81.5q0 49 -41 76t-114 27q-74 0 -115 -27t-41 -76q0 -51 42 -81.5t114 -30.5z" />
    <glyph glyph-name="seveneighths" unicode="&#x215e;" horiz-adv-x="1104" 
d="M203 321h-17q6 116 61.5 223t152.5 188h-293v16h318v-15q-211 -174 -222 -412zM252 -15h-19l448 742h19zM948 29q-49 -35 -125 -35q-77 0 -124 35q-48 34 -48 92q0 42 28 71.5t79 39.5v2q-42 8 -67 34t-25 62q0 48 42.5 77t114.5 29t114.5 -29t42.5 -77q0 -36 -24 -61.5
t-68 -34.5v-2q51 -10 79.5 -39.5t28.5 -71.5q0 -57 -48 -92zM721 263q37 -24 102 -24t103 24q37 24 37 65q0 44 -37 68t-103 24q-64 0 -101.5 -24t-37.5 -67q0 -42 37 -66zM823 9q72 0 114 30.5t42 81.5q0 49 -41 76t-115 27t-114.5 -27t-40.5 -76q0 -51 42 -81.5t113 -30.5
z" />
    <glyph glyph-name="arrowleft" unicode="&#x2190;" horiz-adv-x="887" 
d="M108 365h697v-18h-697l139 -181l125 -166h-21l-270 356l270 356h21l-125 -166z" />
    <glyph glyph-name="arrowup" unicode="&#x2191;" horiz-adv-x="867" 
d="M78 454l356 270l356 -270v-22l-166 126l-181 140v-698h-18v698l-181 -140l-166 -126v22z" />
    <glyph glyph-name="arrowright" unicode="&#x2192;" horiz-adv-x="887" 
d="M513 712h22l270 -356l-270 -356h-22l264 347h-696v18h696z" />
    <glyph glyph-name="arrowdown" unicode="&#x2193;" horiz-adv-x="867" 
d="M443 15l347 265v-22l-356 -270l-356 270v22l347 -265v697h18v-697z" />
    <glyph glyph-name="arrowboth" unicode="&#x2194;" horiz-adv-x="1187" 
d="M814 712h22l270 -356l-270 -356h-22l264 347h-970l139 -181l125 -166h-21l-270 356l270 356h21l-125 -166l-139 -181h970z" />
    <glyph glyph-name="arrowupdn" unicode="&#x2195;" horiz-adv-x="867" 
d="M790 661l-347 264v-1017l347 264v-22l-356 -270l-356 270v22l347 -264v1017l-347 -264v22l356 270l356 -270v-22z" />
    <glyph glyph-name="uni2196" unicode="&#x2196;" horiz-adv-x="783" 
d="M106 652l639 -640l-12 -12l-640 640l2 -87v-547h-18v662h662v-18h-546z" />
    <glyph glyph-name="uni2197" unicode="&#x2197;" horiz-adv-x="783" 
d="M45 650v18h661v-662h-18v547l3 88l-640 -641l-12 12l639 640l-88 -2h-545z" />
    <glyph glyph-name="uni2198" unicode="&#x2198;" horiz-adv-x="783" 
d="M688 115v547h18v-662h-661v18h545l88 -2l-639 640l12 12l640 -641z" />
    <glyph glyph-name="uni2199" unicode="&#x2199;" horiz-adv-x="783" 
d="M745 656l-639 -640l87 2h546v-18h-662v662h18v-547l-2 -87l640 640z" />
    <glyph glyph-name="partialdiff" unicode="&#x2202;" horiz-adv-x="593" 
d="M276 718q235 0 235 -357q0 -180 -57.5 -273.5t-168.5 -93.5q-92 0 -148 62t-56 159q0 99 55.5 158t148.5 59q139 0 206 -130q2 48 2 57q0 342 -218 342q-78 0 -147 -34l-7 16q78 35 155 35zM285 10q180 0 204 264q-30 69 -83.5 105t-120.5 36q-84 0 -135 -54t-51 -145
t51 -148q49 -58 135 -58z" />
    <glyph glyph-name="uni2206" unicode="&#x2206;" horiz-adv-x="716" 
d="M351 717h16l310 -717h-638zM353 676l-287 -659h584l-285 659l-6 16z" />
    <glyph glyph-name="product" unicode="&#x220f;" horiz-adv-x="741" 
d="M107 712h526v-916h-18v899h-490v-899h-18v916z" />
    <glyph glyph-name="summation" unicode="&#x2211;" horiz-adv-x="678" 
d="M439 259l-336 -445h494v-18h-516v17l336 446l-324 436v17h492v-18h-469z" />
    <glyph glyph-name="minus" unicode="&#x2212;" 
d="M584 301h-529v18h529v-18z" />
    <glyph glyph-name="uni2215" unicode="&#x2215;" horiz-adv-x="287" 
d="M-71 -15h-19l448 742h19z" />
    <glyph glyph-name="uni2219" unicode="&#x2219;" horiz-adv-x="289" 
d="M196 249h-102v84h102v-84z" />
    <glyph glyph-name="radical" unicode="&#x221a;" 
d="M364 -204h-23l-143 380l-127 -51l-6 16l143 57l143 -381l228 930h18z" />
    <glyph glyph-name="infinity" unicode="&#x221e;" horiz-adv-x="816" 
d="M209 190q-69 0 -109.5 44t-40.5 114t40 113.5t109 43.5q57 0 102.5 -32.5t98.5 -111.5q53 79 98 111.5t101 32.5q69 0 109.5 -44t40.5 -113q0 -70 -40.5 -114t-109.5 -44q-56 0 -102 32.5t-97 110.5q-53 -79 -98.5 -111t-101.5 -32zM209 207q52 0 95 31.5t93 108.5
q-51 77 -94 109t-95 32q-60 0 -96 -40t-36 -101q0 -60 36.5 -100t96.5 -40zM609 207q60 0 96 40t36 100q0 61 -36.5 101t-96.5 40q-52 0 -94.5 -32t-94.5 -109q50 -77 93 -108.5t97 -31.5z" />
    <glyph glyph-name="integral" unicode="&#x222b;" 
d="M204 -204h-21v17h20q54 0 81 27.5t27 90.5v680q0 136 125 136h21v-17h-20q-54 0 -81 -27.5t-27 -90.5v-680q0 -136 -125 -136z" />
    <glyph glyph-name="approxequal" unicode="&#x2248;" 
d="M95 346h-16q0 85 34 130.5t90 45.5q32 0 58 -16.5t44 -40t36 -46.5t42.5 -39.5t53.5 -16.5q50 0 79 42t29 117h16q0 -85 -34 -130.5t-90 -45.5q-32 0 -58 16.5t-44 40t-36 46.5t-42.5 39.5t-53.5 16.5q-49 0 -78.5 -42.5t-29.5 -116.5zM95 113h-16q0 85 34 130.5t90 45.5
q32 0 58 -16.5t44 -39.5t36 -46.5t42.5 -40t53.5 -16.5q49 0 78.5 42.5t29.5 116.5h16q0 -85 -34 -130.5t-90 -45.5q-32 0 -58 16.5t-44 39.5t-36 46.5t-42.5 40t-53.5 16.5q-50 0 -79 -42t-29 -117z" />
    <glyph glyph-name="notequal" unicode="&#x2260;" 
d="M584 428v-18h-214l-89 -201h303v-18h-311l-93 -208l-15 5l90 203h-200v18h209l89 201h-298v18h306l100 224l15 -5l-98 -219h206z" />
    <glyph glyph-name="lessequal" unicode="&#x2264;" 
d="M56 373l529 193v-19l-508 -184l508 -183v-19l-529 192v20zM585 31h-529v18h529v-18z" />
    <glyph glyph-name="greaterequal" unicode="&#x2265;" 
d="M56 547v19l529 -193v-20l-529 -192v19l508 183zM585 31h-529v18h529v-18z" />
    <glyph glyph-name="uni2460" unicode="&#x2460;" horiz-adv-x="1170" 
d="M946 31q-141 -140 -361 -140t-361 140q-143 140 -143 351q0 212 143 352q142 139 361 139t361 -139q143 -140 143 -352q0 -211 -143 -351zM585 -92q210 0 348 135q138 133 138 339q0 205 -138 340q-139 134 -348 134q-210 0 -349 -134q-138 -135 -138 -340
q0 -206 138 -339q138 -135 349 -135zM620 167h-17v297h-151v16h107q23 0 33 7t11 28v79h17v-427z" />
    <glyph glyph-name="uni2461" unicode="&#x2461;" horiz-adv-x="1170" 
d="M946 31q-141 -140 -361 -140t-361 140q-143 140 -143 351q0 212 143 352q142 139 361 139t361 -139q143 -140 143 -352q0 -211 -143 -351zM585 -92q210 0 348 135q138 133 138 339q0 205 -138 340q-139 134 -348 134q-210 0 -349 -134q-138 -135 -138 -340
q0 -206 138 -339q138 -135 349 -135zM744 183h-309q0 107 141 174l57 27q50 24 71.5 50.5t21.5 62.5q0 46 -35.5 76t-98.5 30q-132 0 -135 -127h-18q1 71 41.5 107t111.5 36q69 0 110 -34.5t41 -87.5q0 -41 -23.5 -71t-78.5 -56l-56 -27q-124 -59 -131 -144h290v-16z" />
    <glyph glyph-name="uni2462" unicode="&#x2462;" horiz-adv-x="1170" 
d="M946 31q-141 -140 -361 -140t-361 140q-143 140 -143 351q0 212 143 352q142 139 361 139t361 -139q143 -140 143 -352q0 -211 -143 -351zM585 -92q210 0 348 135q138 133 138 339q0 205 -138 340q-139 134 -348 134q-210 0 -349 -134q-138 -135 -138 -340
q0 -206 138 -339q138 -135 349 -135zM596 166q-75 0 -120.5 36t-45.5 94h17q0 -51 40.5 -82.5t108.5 -31.5q67 0 105.5 29t38.5 80q0 46 -36.5 74t-98.5 28h-33v16h33q53 0 82.5 25.5t29.5 65.5q0 42 -35.5 67.5t-92.5 25.5q-60 0 -94 -27.5t-34 -77.5h-17q0 55 39.5 88
t105.5 33q65 0 105 -29t40 -79q0 -36 -21 -62.5t-58 -35.5v-2q46 -8 74 -38.5t28 -72.5q0 -56 -44 -90t-117 -34z" />
    <glyph glyph-name="uni2463" unicode="&#x2463;" horiz-adv-x="1170" 
d="M946 31q-141 -140 -361 -140t-361 140q-143 140 -143 351q0 212 143 352q142 139 361 139t361 -139q143 -140 143 -352q0 -211 -143 -351zM585 -92q210 0 348 135q138 133 138 339q0 205 -138 340q-139 134 -348 134q-210 0 -349 -134q-138 -135 -138 -340
q0 -206 138 -339q138 -135 349 -135zM670 174h-17v120h-259v15l259 292h17v-292h75v-15h-75v-120zM415 309h238v268h-1z" />
    <glyph glyph-name="uni2464" unicode="&#x2464;" horiz-adv-x="1170" 
d="M946 31q-141 -140 -361 -140t-361 140q-143 140 -143 351q0 212 143 352q142 139 361 139t361 -139q143 -140 143 -352q0 -211 -143 -351zM585 -92q210 0 348 135q138 133 138 339q0 205 -138 340q-139 134 -348 134q-210 0 -349 -134q-138 -135 -138 -340
q0 -206 138 -339q138 -135 349 -135zM588 168q-64 0 -106.5 28t-54.5 75l17 4q10 -40 49 -65t95 -25q68 0 108 34.5t40 91.5q0 56 -38.5 89.5t-104.5 33.5q-89 0 -131 -60l-23 5l44 227h243v-16h-230l-36 -194l1 -1q43 55 133 55q72 0 116 -38.5t44 -100.5q0 -63 -45.5 -103
t-120.5 -40z" />
    <glyph glyph-name="uni2465" unicode="&#x2465;" horiz-adv-x="1170" 
d="M946 31q-141 -140 -361 -140t-361 140q-143 140 -143 351q0 212 143 352q142 139 361 139t361 -139q143 -140 143 -352q0 -211 -143 -351zM585 -92q210 0 348 135q138 133 138 339q0 205 -138 340q-139 134 -348 134q-210 0 -349 -134q-138 -135 -138 -340
q0 -206 138 -339q138 -135 349 -135zM599 170q-171 0 -171 206q0 236 171 236q116 0 142 -104l-16 -4q-23 92 -126 92q-153 0 -155 -227q22 37 62.5 59t93.5 22q71 0 112.5 -37.5t41.5 -99.5q0 -63 -43 -103t-112 -40zM599 186q62 0 100 35t38 91q0 55 -37 88.5t-100 33.5
q-55 0 -95 -24.5t-59 -65.5q6 -78 45.5 -118t107.5 -40z" />
    <glyph glyph-name="uni2466" unicode="&#x2466;" horiz-adv-x="1170" 
d="M946 31q-141 -140 -361 -140t-361 140q-143 140 -143 351q0 212 143 352q142 139 361 139t361 -139q143 -140 143 -352q0 -211 -143 -351zM585 -92q210 0 348 135q138 133 138 339q0 205 -138 340q-139 134 -348 134q-210 0 -349 -134q-138 -135 -138 -340
q0 -206 138 -339q138 -135 349 -135zM541 154h-17q7 116 62.5 223t151.5 188h-292v16h318v-15q-211 -172 -223 -412z" />
    <glyph glyph-name="uni2467" unicode="&#x2467;" horiz-adv-x="1170" 
d="M946 31q-141 -140 -361 -140t-361 140q-143 140 -143 351q0 212 143 352q142 139 361 139t361 -139q143 -140 143 -352q0 -211 -143 -351zM585 -92q210 0 348 135q138 133 138 339q0 205 -138 340q-139 134 -348 134q-210 0 -349 -134q-138 -135 -138 -340
q0 -206 138 -339q138 -135 349 -135zM710 202q-49 -35 -125 -35t-125 35q-48 34 -48 92q0 42 28.5 71.5t79.5 39.5v2q-43 8 -67.5 34t-24.5 62q0 48 42.5 77t114.5 29t114.5 -29t42.5 -77q0 -35 -24.5 -61t-67.5 -35v-2q51 -10 79 -39.5t28 -71.5q0 -57 -47 -92zM585 413
q65 0 102 23.5t37 64.5q0 44 -37 68t-102 24t-102.5 -24t-37.5 -67q0 -42 37 -65.5t103 -23.5zM585 183q71 0 113 30.5t42 81.5q0 49 -41 75.5t-114 26.5q-74 0 -115 -27t-41 -75q0 -51 42 -81.5t114 -30.5z" />
    <glyph glyph-name="uni2468" unicode="&#x2468;" horiz-adv-x="1170" 
d="M946 31q-141 -140 -361 -140t-361 140q-143 140 -143 351q0 212 143 352q142 139 361 139t361 -139q143 -140 143 -352q0 -211 -143 -351zM585 -92q210 0 348 135q138 133 138 339q0 205 -138 340q-139 134 -348 134q-210 0 -349 -134q-138 -135 -138 -340
q0 -206 138 -339q138 -135 349 -135zM584 164q-117 0 -143 104l17 3q22 -91 125 -91q154 0 155 226q-22 -36 -62.5 -58t-93.5 -22q-71 0 -112.5 37.5t-41.5 99.5q0 63 43 103t112 40q172 0 172 -207q0 -115 -43.5 -175t-127.5 -60zM582 342q55 0 95 24.5t59 65.5
q-6 78 -45.5 118t-107.5 40q-62 0 -100 -35t-38 -91q0 -55 37 -88.5t100 -33.5z" />
    <glyph glyph-name="uni24EA" unicode="&#x24ea;" horiz-adv-x="1170" 
d="M946 31q-141 -140 -361 -140t-361 140q-143 140 -143 351q0 212 143 352q142 139 361 139t361 -139q143 -140 143 -352q0 -211 -143 -351zM585 -92q210 0 348 135q138 133 138 339q0 205 -138 340q-139 134 -348 134q-210 0 -349 -134q-138 -135 -138 -340
q0 -206 138 -339q138 -135 349 -135zM757 388q0 -222 -172 -222t-172 222q0 221 172 221t172 -221zM585 183q154 0 154 205t-154 205q-155 0 -155 -205t155 -205z" />
    <glyph glyph-name="uni24FF" unicode="&#x24ff;" horiz-adv-x="1170" 
d="M946 31q-141 -140 -361 -140t-361 140q-143 140 -143 351q0 212 143 352q142 139 361 139t361 -139q143 -140 143 -352q0 -211 -143 -351zM413 388q0 -222 172 -222t172 222q0 221 -172 221t-172 -221zM585 183q-155 0 -155 205t155 205q154 0 154 -205t-154 -205z" />
    <glyph glyph-name="filledbox" unicode="&#x25a0;" horiz-adv-x="1123" 
d="M1015 -88h-908v888h908v-888z" />
    <glyph glyph-name="uni25A1" unicode="&#x25a1;" horiz-adv-x="1123" 
d="M1015 -88h-908v888h908v-888zM125 783v-854h872v854h-872z" />
    <glyph glyph-name="lozenge" unicode="&#x25ca;" horiz-adv-x="544" 
d="M263 712h18l208 -356l-208 -356h-18l-209 356zM74 356l198 -340l198 340l-198 340z" />
    <glyph glyph-name="circle" unicode="&#x25cb;" horiz-adv-x="1170" 
d="M946 31q-141 -140 -361 -140t-361 140q-143 140 -143 351q0 212 143 352q142 139 361 139t361 -139q143 -140 143 -352q0 -211 -143 -351zM585 -92q210 0 348 135q138 133 138 339q0 205 -138 340q-139 134 -348 134q-210 0 -349 -134q-138 -135 -138 -340
q0 -206 138 -339q138 -135 349 -135z" />
    <glyph glyph-name="uni25CF" unicode="&#x25cf;" horiz-adv-x="1170" 
d="M946 31q-141 -140 -361 -140t-361 140q-143 140 -143 351q0 212 143 352q142 139 361 139t361 -139q143 -140 143 -352q0 -211 -143 -351z" />
    <glyph glyph-name="uni2776" unicode="&#x2776;" horiz-adv-x="1170" 
d="M946 31q-141 -140 -361 -140t-361 140q-143 140 -143 351q0 212 143 352q142 139 361 139t361 -139q143 -140 143 -352q0 -211 -143 -351zM602 465v-297h17v427h-17v-79q-1 -21 -10.5 -28t-33.5 -7h-107v-16h151z" />
    <glyph glyph-name="uni2777" unicode="&#x2777;" horiz-adv-x="1170" 
d="M224 734q142 139 361 139t361 -139q143 -140 143 -352q0 -211 -143 -351q-141 -140 -361 -140t-361 140q-143 140 -143 351q0 212 143 352zM435 183h309v16h-290q7 85 131 144l56 27q55 26 78.5 56t23.5 71q0 53 -41 87.5t-110 34.5q-71 0 -111.5 -36t-41.5 -107h18
q3 127 135 127q63 0 98.5 -30t35.5 -76q0 -36 -21.5 -62.5t-71.5 -50.5l-57 -27q-141 -67 -141 -174z" />
    <glyph glyph-name="uni2778" unicode="&#x2778;" horiz-adv-x="1170" 
d="M946 31q-141 -140 -361 -140t-361 140q-143 140 -143 351q0 212 143 352q142 139 361 139t361 -139q143 -140 143 -352q0 -211 -143 -351zM589 166q73 0 117 34t44 90q0 42 -28 72.5t-74 38.5v2q37 9 58 35.5t21 62.5q0 50 -40 79t-105 29q-66 0 -105.5 -33t-39.5 -88h17
q0 50 34 77.5t94 27.5q57 0 92.5 -25.5t35.5 -67.5q0 -40 -29.5 -65.5t-82.5 -25.5h-33v-16h33q62 0 98.5 -28t36.5 -74q0 -51 -38.5 -80t-105.5 -29q-68 0 -108.5 31.5t-40.5 82.5h-17q0 -58 45.5 -94t120.5 -36z" />
    <glyph glyph-name="uni2779" unicode="&#x2779;" horiz-adv-x="1170" 
d="M946 31q-141 -140 -361 -140t-361 140q-143 140 -143 351q0 212 143 352q142 139 361 139t361 -139q143 -140 143 -352q0 -211 -143 -351zM643 303v-119h17v119h75v16h-75v292h-17l-259 -293v-15h259zM643 587v-268h-238l237 268h1z" />
    <glyph glyph-name="uni277A" unicode="&#x277a;" horiz-adv-x="1170" 
d="M224 734q142 139 361 139t361 -139q143 -140 143 -352q0 -211 -143 -351q-141 -140 -361 -140t-361 140q-143 140 -143 351q0 212 143 352zM589 168q74 0 119.5 40t45.5 103t-43.5 101t-115.5 38q-89 0 -133 -56l-1 2l36 194h230v16h-243l-44 -227l23 -5q42 59 131 59
q66 0 104.5 -33t38.5 -90t-40 -91t-108 -34q-56 0 -95 25t-49 65l-16 -4q12 -46 54 -74.5t106 -28.5z" />
    <glyph glyph-name="uni277B" unicode="&#x277b;" horiz-adv-x="1170" 
d="M946 31q-141 -140 -361 -140t-361 140q-143 140 -143 351q0 212 143 352q142 139 361 139t361 -139q143 -140 143 -352q0 -211 -143 -351zM601 170q69 0 112 40t43 103q0 61 -41.5 99t-112.5 38q-53 0 -93.5 -22t-62.5 -59q0 227 155 227q102 0 125 -92l17 4
q-26 104 -143 104q-171 0 -171 -236q0 -206 172 -206zM601 186q-67 0 -107 40t-47 118q20 41 60 65.5t95 24.5q63 0 100 -33.5t37 -88.5q0 -56 -38 -91t-100 -35z" />
    <glyph glyph-name="uni277C" unicode="&#x277c;" horiz-adv-x="1170" 
d="M946 31q-141 -140 -361 -140t-361 140q-143 140 -143 351q0 212 143 352q142 139 361 139t361 -139q143 -140 143 -352q0 -211 -143 -351zM525 157h17q11 239 222 412v15h-318v-16h293q-97 -82 -152.5 -188.5t-61.5 -222.5z" />
    <glyph glyph-name="uni277D" unicode="&#x277d;" horiz-adv-x="1170" 
d="M946 31q-141 -140 -361 -140t-361 140q-143 140 -143 351q0 212 143 352q142 139 361 139t361 -139q143 -140 143 -352q0 -211 -143 -351zM460 202q49 -35 125 -35t125 35q47 35 47 92q0 42 -28 71.5t-79 39.5v2q43 9 67.5 35t24.5 61q0 48 -42.5 77t-114.5 29
t-114.5 -29t-42.5 -77q0 -36 24.5 -62t67.5 -34v-2q-51 -10 -79.5 -39.5t-28.5 -71.5q0 -58 48 -92zM585 413q-66 0 -103 23.5t-37 65.5q0 43 37.5 67t102.5 24t102 -24t37 -68q0 -41 -37 -64.5t-102 -23.5zM585 183q-72 0 -114 30.5t-42 81.5q0 48 41 75t115 27
q73 0 114 -26.5t41 -75.5q0 -51 -42 -81.5t-113 -30.5z" />
    <glyph glyph-name="uni277E" unicode="&#x277e;" horiz-adv-x="1170" 
d="M946 31q-141 -140 -361 -140t-361 140q-143 140 -143 351q0 212 143 352q142 139 361 139t361 -139q143 -140 143 -352q0 -211 -143 -351zM587 168q171 0 171 235q0 207 -171 207q-69 0 -112 -40t-43 -104q0 -61 41.5 -98.5t112.5 -37.5q53 0 93.5 21.5t62.5 58.5
q-1 -226 -155 -226q-104 0 -126 91l-16 -3q26 -104 142 -104zM586 346q-63 0 -100 33t-37 88q0 56 38 91.5t100 35.5q68 0 107.5 -40t45.5 -118q-19 -41 -59 -65.5t-95 -24.5z" />
    <glyph glyph-name="uni2E18" unicode="&#x2e18;" horiz-adv-x="607" 
d="M299 516h41v-41h-41v41zM525 11h17q-2 -102 -63 -158t-171 -56q-104 0 -165 48.5t-61 136.5q0 55 25.5 94.5t87.5 77.5l28 17q48 28 66.5 57.5t22.5 80.5v40h16l1 -271v-116h-18v116l1 162q-21 -48 -95 -92q-65 -36 -91.5 -74.5t-26.5 -91.5q0 -81 56 -124.5t153 -43.5
q102 0 158.5 51.5t58.5 145.5z" />
    <glyph glyph-name="uniF8FF" unicode="&#xf8ff;" horiz-adv-x="1022" 
d="M439 697q-21 24 -65 24q-48 0 -76 -31.5t-28 -92.5v-148h-9v380h9v-177q22 79 105 79q47 0 72 -28q24 -25 24 -75v-179h-9v178q0 47 -23 70zM859 829h9v-380h-9v380zM769 525h9q-10 -36 -38 -59t-73 -23q-57 0 -90 39.5t-33 105.5q0 65 32.5 104t87.5 39q54 0 87 -36.5
t33 -94.5v-8h-230v-2v-3q0 -62 30.5 -98.5t82.5 -36.5q77 0 102 73zM664 722q-48 0 -77.5 -33.5t-32.5 -88.5h220q-1 55 -30 88.5t-80 33.5zM792 137q-56 0 -89 39.5t-33 105.5q0 65 32 104t87 39q54 0 87 -36.5t33 -94.5v-8h-230v-2v-3q0 -62 30.5 -98.5t82.5 -36.5
q40 0 66 20.5t36 52.5h9q-10 -36 -38 -59t-73 -23zM532 152l8 24l101 242h10l-114 -275h-10l-115 275h11l99 -242zM789 416q-48 0 -77.5 -33.5t-32.5 -88.5h220q-1 55 -30 88.5t-80 33.5zM328 183h-14v31h14v-31zM173 187v-78h77v-8h-77v-210q0 -48 45 -48h32v-9h-33
q-54 0 -54 55v212h-56v8h56v78h10zM524 106q-53 0 -82 -35.5t-29 -98.5t29.5 -99t81.5 -36q41 0 67.5 23.5t31.5 63.5h10q-5 -44 -34 -70t-75 -26q-57 0 -88.5 38.5t-31.5 105.5t31.5 105.5t88.5 38.5q48 0 76.5 -26.5t32.5 -64.5h-10q-3 34 -29.5 57.5t-69.5 23.5z
M914 -166h-9q-12 33 -12 73q-22 -79 -113 -79q-46 0 -69.5 21t-23.5 55q0 66 84 78l67 9q32 4 43.5 15.5t11.5 34.5v1q0 29 -23.5 47t-67.5 18q-46 0 -67.5 -17.5t-26.5 -54.5h-9q8 80 103 80q49 0 74.5 -19.5t25.5 -53.5v-135q0 -33 12 -73zM326 -166h-10v275h10v-275z
M781 -164q96 0 112 97v76q-11 -21 -53 -26l-68 -10q-76 -10 -76 -69q0 -30 22 -49t63 -19z" />
    <glyph glyph-name="uniFEFF" unicode="&#xfeff;" horiz-adv-x="0" 
 />
    <glyph glyph-name="null" horiz-adv-x="0" 
 />
    <glyph glyph-name="Adieresis.ss01" horiz-adv-x="716" 
d="M264 828q-12 0 -19 7.5t-7 18.5q0 25 26 25q16 0 22 -12.5t0 -25.5t-22 -13zM452 828q-16 0 -22 13t0 25.5t22 12.5q26 0 26 -25q0 -11 -7 -18.5t-19 -7.5zM677 0h-20l-104 240h-390l-104 -240h-20l311 715h18zM353 676l-182 -418h375l-181 418l-6 16z" />
    <glyph glyph-name="Cdotaccent.ss01" horiz-adv-x="738" 
d="M391 828q-25 0 -25 25.5t25 25.5q17 0 23.5 -12.5t0 -25.5t-23.5 -13zM392 -12q-144 0 -227 104q-84 104 -84 266q0 166 85 266t225 100q114 0 196 -65q79 -64 93 -163h-19q-13 93 -88 152q-76 59 -181 59q-134 0 -213 -94q-80 -95 -80 -255q0 -158 79 -255
q80 -98 215 -98q110 0 187 67q78 67 82 168h17q-5 -108 -87 -180t-200 -72z" />
    <glyph glyph-name="Edieresis.ss01" horiz-adv-x="668" 
d="M257 828q-12 0 -19 7.5t-7 18.5q0 25 26 25q16 0 22 -12.5t0 -25.5t-22 -13zM445 828q-16 0 -22 13t0 25.5t22 12.5q26 0 26 -25q0 -11 -7 -18.5t-19 -7.5zM125 365v-348h468v-17h-486v712h467v-17h-449v-313h421v-17h-421z" />
    <glyph glyph-name="Edotaccent.ss01" horiz-adv-x="668" 
d="M350 828q-16 0 -22.5 13t0 25.5t22.5 12.5q17 0 23.5 -12.5t0 -25.5t-23.5 -13zM125 365v-348h468v-17h-486v712h467v-17h-449v-313h421v-17h-421z" />
    <glyph glyph-name="uni0122.ss01" horiz-adv-x="821" 
d="M413 332v18h300v-350h-16l-2 199q-27 -100 -104.5 -155.5t-187.5 -55.5q-151 0 -236 103q-86 103 -86 267q0 170 85 268q86 98 236 98q126 0 207 -59t100 -164l-17 -2q-14 79 -78 140q-71 68 -211 68q-143 0 -223 -93q-81 -94 -81 -256q0 -158 81 -255q80 -98 223 -98
q129 0 209 78q80 79 83 217v32h-282zM409 -80q25 0 25 -31v-71q0 -33 -34 -33h-8v14h10q18 0 18 18v61q-6 -2 -11 -2q-23 0 -23 22t23 22z" />
    <glyph glyph-name="Gdotaccent.ss01" horiz-adv-x="821" 
d="M402 828q-16 0 -22.5 13t0 25.5t22.5 12.5q17 0 23.5 -12.5t0 -25.5t-23.5 -13zM413 332v18h300v-350h-16l-2 199q-27 -100 -104.5 -155.5t-187.5 -55.5q-151 0 -236 103q-86 103 -86 267q0 170 85 268q86 98 236 98q126 0 207 -59t100 -164l-17 -2q-14 79 -78 140
q-71 68 -211 68q-143 0 -223 -93q-81 -94 -81 -256q0 -158 81 -255q80 -98 223 -98q129 0 209 78q80 79 83 217v32h-282z" />
    <glyph glyph-name="Idieresis.ss01" horiz-adv-x="233" 
d="M22 828q-12 0 -19 7.5t-7 18.5q0 25 26 25q16 0 22.5 -12.5t0 -25.5t-22.5 -13zM229 836q-11 -13 -27.5 -6t-16.5 24q0 11 7.5 18t18.5 7q25 0 25 -25q0 -11 -7 -18zM125 0h-18v712h18v-712z" />
    <glyph glyph-name="Idotaccent.ss01" horiz-adv-x="233" 
d="M116 828q-16 0 -22.5 13t0 25.5t22.5 12.5q17 0 23.5 -12.5t0 -25.5t-23.5 -13zM125 0h-18v712h18v-712z" />
    <glyph glyph-name="uni0136.ss01" horiz-adv-x="700" 
d="M649 712l-317 -294l329 -418h-23l-318 407l-195 -181v-226h-18v712h18v-464l499 464h25zM355 -80q25 0 25 -31v-71q0 -33 -34 -33h-8v14h10q18 0 18 18v61q-6 -2 -11 -2q-23 0 -23 22t23 22z" />
    <glyph glyph-name="uni013B.ss01" horiz-adv-x="612" 
d="M125 712v-695h433v-17h-451v712h18zM332 -80q25 0 25 -31v-71q0 -33 -34 -33h-8v14h10q18 0 18 18v61q-6 -2 -11 -2q-23 0 -23 22t23 22z" />
    <glyph glyph-name="Ldot.ss01" horiz-adv-x="612" 
d="M125 712v-695h433v-17h-451v712h18zM374 352q-11 -10 -25.5 -5.5t-18 17t6.5 24.5q11 10 25 5.5t18 -17t-6 -24.5z" />
    <glyph glyph-name="uni0145.ss01" horiz-adv-x="742" 
d="M617 29v683h17v-712h-17l-492 682v-682h-18v712h17zM370 -80q25 0 25 -31v-71q0 -33 -34 -33h-8v14h10q18 0 18 18v61q-6 -2 -11 -2q-23 0 -23 22t23 22z" />
    <glyph glyph-name="Odieresis.ss01" horiz-adv-x="816" 
d="M312 828q-12 0 -19 7.5t-7 18.5q0 25 26 25q16 0 22 -12.5t0 -25.5t-22 -13zM500 828q-16 0 -22 13t0 25.5t22 12.5q26 0 26 -25q0 -11 -7 -18.5t-19 -7.5zM406 -12q-148 0 -236 103q-89 104 -89 265q0 165 88 266q89 102 237 102q152 0 240 -102q88 -101 88 -266
q0 -164 -88 -265q-88 -103 -240 -103zM407 5q142 0 226 98q83 98 83 253q0 156 -83 254q-84 97 -226 97q-143 0 -225 -97q-83 -98 -83 -254t84 -253q83 -98 224 -98z" />
    <glyph glyph-name="uni0156.ss01" horiz-adv-x="719" 
d="M598 192l23 -192h-19l-21 187q-7 67 -40 106q-38 45 -155 45h-261v-338h-18v712h310q93 0 147.5 -49.5t54.5 -135.5q0 -76 -42.5 -123.5t-120.5 -58.5q70 -9 101.5 -45t40.5 -108zM125 695v-340h276q94 0 147 45t53 126q0 80 -49 124.5t-136 44.5h-291zM368 -80
q25 0 25 -31v-71q0 -33 -34 -33h-8v14h10q18 0 18 18v61q-6 -2 -11 -2q-23 0 -23 22t23 22z" />
    <glyph glyph-name="uni0218.ss01" horiz-adv-x="665" 
d="M275 390l146 -29q179 -35 179 -178q0 -92 -68 -143.5t-192 -51.5q-252 0 -276 220h18q23 -203 258 -203q117 0 179.5 46.5t62.5 131.5q0 66 -40 105t-124 56l-146 28q-181 34 -181 172q0 83 64 131.5t176 48.5q111 0 178.5 -52.5t71.5 -142.5h-18q-4 84 -66 131t-166 47
q-105 0 -164 -43.5t-59 -119.5q0 -121 167 -154zM339 -86q25 0 25 -31v-71q0 -33 -34 -33h-8v14h10q18 0 18 18v61q-6 -2 -11 -2q-23 0 -23 22t23 22z" />
    <glyph glyph-name="uni021A.ss01" horiz-adv-x="650" 
d="M53 695v17h544v-17h-263v-695h-18v695h-263zM325 -80q25 0 25 -31v-71q0 -33 -34 -33h-8v14h10q18 0 18 18v61q-6 -2 -11 -2q-23 0 -23 22t23 22z" />
    <glyph glyph-name="Udieresis.ss01" horiz-adv-x="739" 
d="M275 828q-12 0 -19 7.5t-7 18.5q0 25 26 25q16 0 22 -12.5t0 -25.5t-22 -13zM463 828q-16 0 -22 13t0 25.5t22 12.5q26 0 26 -25q0 -11 -7 -18.5t-19 -7.5zM631 712v-476q0 -248 -262 -248t-262 248v476h18v-476q0 -231 244 -231t244 231v476h18z" />
    <glyph glyph-name="Wdieresis.ss01" horiz-adv-x="936" 
d="M374 828q-12 0 -19 7.5t-7 18.5q0 25 26 25q16 0 22 -12.5t0 -25.5t-22 -13zM562 828q-16 0 -22 13t0 25.5t22 12.5q26 0 26 -25q0 -11 -7 -18.5t-19 -7.5zM698 124l180 588h18l-220 -718h-16l-192 685l-193 -685h-16l-220 718h18l180 -588l30 -102l27 102l165 588h17
l165 -588l27 -102z" />
    <glyph glyph-name="Ydieresis.ss01" horiz-adv-x="668" 
d="M241 828q-12 0 -19 7.5t-7 18.5q0 25 26 25q16 0 22 -12.5t0 -25.5t-22 -13zM429 828q-16 0 -22 13t0 25.5t22 12.5q26 0 26 -25q0 -11 -7 -18.5t-19 -7.5zM619 712h22l-297 -426v-286h-18v286l-299 426h23l276 -397l9 -14l9 14z" />
    <glyph glyph-name="Zdotaccent.ss01" horiz-adv-x="681" 
d="M340 828q-16 0 -22.5 13t0 25.5t22.5 12.5q17 0 23.5 -12.5t0 -25.5t-23.5 -13zM591 695l-495 -678h509v-17h-530v18l494 677h-468v17h490v-17z" />
    <glyph glyph-name="G.ss03" horiz-adv-x="796" 
d="M407 332v18h307v-13q0 -155 -79 -252t-228 -97q-150 0 -238 100t-88 269q0 171 87 269t235 98q118 0 196 -61.5t103 -166.5h-18q-25 98 -98 155t-184 57q-139 0 -221 -94t-82 -257q0 -160 84 -256q82 -97 224 -97q138 0 213 90q75 91 76 238h-289z" />
    <glyph glyph-name="uni01F4.ss03" horiz-adv-x="796" 
d="M481 973h23l-121 -150h-20zM407 332v18h307v-13q0 -155 -79 -252t-228 -97q-150 0 -238 100t-88 269q0 171 87 269t235 98q118 0 196 -61.5t103 -166.5h-18q-25 98 -98 155t-184 57q-139 0 -221 -94t-82 -257q0 -160 84 -256q82 -97 224 -97q138 0 213 90q75 91 76 238
h-289z" />
    <glyph glyph-name="Gbreve.ss03" horiz-adv-x="796" 
d="M545 946h16q-5 -129 -158 -129t-158 129h16q5 -113 142 -113t142 113zM407 332v18h307v-13q0 -155 -79 -252t-228 -97q-150 0 -238 100t-88 269q0 171 87 269t235 98q118 0 196 -61.5t103 -166.5h-18q-25 98 -98 155t-184 57q-139 0 -221 -94t-82 -257q0 -160 84 -256
q82 -97 224 -97q138 0 213 90q75 91 76 238h-289z" />
    <glyph glyph-name="Gcircumflex.ss03" horiz-adv-x="796" 
d="M530 811l-127 147l-127 -147h-21l139 162h18l139 -162h-21zM407 332v18h307v-13q0 -155 -79 -252t-228 -97q-150 0 -238 100t-88 269q0 171 87 269t235 98q118 0 196 -61.5t103 -166.5h-18q-25 98 -98 155t-184 57q-139 0 -221 -94t-82 -257q0 -160 84 -256
q82 -97 224 -97q138 0 213 90q75 91 76 238h-289z" />
    <glyph glyph-name="uni0122.ss03" horiz-adv-x="796" 
d="M407 332v18h307v-13q0 -155 -79 -252t-228 -97q-150 0 -238 100t-88 269q0 171 87 269t235 98q118 0 196 -61.5t103 -166.5h-18q-25 98 -98 155t-184 57q-139 0 -221 -94t-82 -257q0 -160 84 -256q82 -97 224 -97q138 0 213 90q75 91 76 238h-289zM418 -119l-28 -4v39h42
v-100q0 -31 -31 -31h-11v14h10q18 0 18 17v65z" />
    <glyph glyph-name="Gdotaccent.ss03" horiz-adv-x="796" 
d="M385 885h36v-60h-36v60zM407 332v18h307v-13q0 -155 -79 -252t-228 -97q-150 0 -238 100t-88 269q0 171 87 269t235 98q118 0 196 -61.5t103 -166.5h-18q-25 98 -98 155t-184 57q-139 0 -221 -94t-82 -257q0 -160 84 -256q82 -97 224 -97q138 0 213 90q75 91 76 238h-289
z" />
    <glyph glyph-name="uni0122.ss01.ss03" horiz-adv-x="796" 
d="M407 332v18h307v-13q0 -155 -79 -252t-228 -97q-150 0 -238 100t-88 269q0 171 87 269t235 98q118 0 196 -61.5t103 -166.5h-18q-25 98 -98 155t-184 57q-139 0 -221 -94t-82 -257q0 -160 84 -256q82 -97 224 -97q138 0 213 90q75 91 76 238h-289zM410 -80q25 0 25 -31
v-71q0 -33 -34 -33h-7v14h9q18 0 18 18v61q-6 -2 -11 -2q-23 0 -23 22t23 22z" />
    <glyph glyph-name="Gdotaccent.ss01.ss03" horiz-adv-x="796" 
d="M402 829q-16 0 -22.5 12.5t0 25.5t22.5 13q17 0 23.5 -13t0 -25.5t-23.5 -12.5zM407 332v18h307v-13q0 -155 -79 -252t-228 -97q-150 0 -238 100t-88 269q0 171 87 269t235 98q118 0 196 -61.5t103 -166.5h-18q-25 98 -98 155t-184 57q-139 0 -221 -94t-82 -257
q0 -160 84 -256q82 -97 224 -97q138 0 213 90q75 91 76 238h-289z" />
    <glyph glyph-name="R.ss04" horiz-adv-x="664" 
d="M620 0h-21l-226 312h-248v-312h-18v712h279q99 0 156 -53.5t57 -146.5q0 -91 -55 -144.5t-150 -55.5zM385 696h-260v-368h260q91 0 143.5 48.5t52.5 135.5t-52.5 135.5t-143.5 48.5z" />
    <glyph glyph-name="Racute.ss04" horiz-adv-x="664" 
d="M403 972h23l-121 -150h-20zM620 0h-21l-226 312h-248v-312h-18v712h279q99 0 156 -53.5t57 -146.5q0 -91 -55 -144.5t-150 -55.5zM385 696h-260v-368h260q91 0 143.5 48.5t52.5 135.5t-52.5 135.5t-143.5 48.5z" />
    <glyph glyph-name="Rcaron.ss04" horiz-adv-x="664" 
d="M472 971l-139 -162h-18l-139 162h21l127 -147l127 147h21zM620 0h-21l-226 312h-248v-312h-18v712h279q99 0 156 -53.5t57 -146.5q0 -91 -55 -144.5t-150 -55.5zM385 696h-260v-368h260q91 0 143.5 48.5t52.5 135.5t-52.5 135.5t-143.5 48.5z" />
    <glyph glyph-name="uni0156.ss04" horiz-adv-x="664" 
d="M394 312l226 -312h-21l-226 312h-248v-312h-18v712h279q99 0 156 -53.5t57 -146.5q0 -91 -55 -144.5t-150 -55.5zM385 696h-260v-368h260q91 0 143.5 48.5t52.5 135.5t-52.5 135.5t-143.5 48.5zM332 -119l-29 -4v39h43v-100q0 -31 -32 -31h-11v14h10q19 0 19 17v65z" />
    <glyph glyph-name="uni0156.ss01.ss04" horiz-adv-x="664" 
d="M394 312l226 -312h-21l-226 312h-248v-312h-18v712h279q99 0 156 -53.5t57 -146.5q0 -91 -55 -144.5t-150 -55.5zM385 696h-260v-368h260q91 0 143.5 48.5t52.5 135.5t-52.5 135.5t-143.5 48.5zM323 -80q25 0 25 -31v-71q0 -33 -34 -33h-8v14h10q18 0 18 18v61
q-6 -2 -11 -2q-23 0 -23 22t23 22z" />
    <glyph glyph-name="i.loclTRK" horiz-adv-x="206" 
d="M117 655h-29v57h29v-57zM112 0h-18v516h18v-516z" />
    <glyph glyph-name="adieresis.ss01" horiz-adv-x="578" 
d="M185 654q-12 0 -19 7.5t-7 18.5q0 25 26 25q16 0 22 -12.5t0 -25.5t-22 -13zM373 654q-16 0 -22 13t0 25.5t22 12.5q26 0 26 -25q0 -11 -7 -18.5t-19 -7.5zM552 16h16v-16h-12q-59 0 -83 27t-24 93l-1 14q-21 -71 -76 -108.5t-135 -37.5q-85 0 -130.5 39.5t-45.5 104.5
q0 124 159 145l127 18q59 9 80 30.5t21 63.5v2q0 55 -43 87.5t-127 32.5q-85 0 -125.5 -32.5t-50.5 -100.5h-18q9 74 55.5 112t139.5 38q92 0 139.5 -37t47.5 -101v-269q0 -57 19 -81t67 -24zM238 4q180 0 210 182v141q-23 -38 -98 -48l-128 -18q-143 -21 -143 -128
q0 -59 40.5 -94t118.5 -35z" />
    <glyph glyph-name="cdotaccent.ss01" horiz-adv-x="540" 
d="M303 662q-13 -13 -29.5 -6t-16.5 24q0 25 26 25q18 0 25 -15.5t-5 -27.5zM283 -12q-105 0 -164.5 72t-59.5 198q0 127 59 198.5t166 71.5q92 0 145 -51q51 -50 59 -118h-17q-7 60 -54 107q-47 45 -133 45q-99 0 -153 -66.5t-54 -186.5q0 -119 55 -186t152 -67
q79 0 128 44.5t58 120.5h18q-9 -83 -63 -132.5t-142 -49.5z" />
    <glyph glyph-name="edieresis.ss01" horiz-adv-x="566" 
d="M190 654q-12 0 -19 7.5t-7 18.5q0 25 26 25q16 0 22 -12.5t0 -25.5t-22 -13zM378 654q-16 0 -22 13t0 25.5t22 12.5q26 0 26 -25q0 -11 -7 -18.5t-19 -7.5zM508 267h-431v-2v-6q0 -117 57 -185.5t156 -68.5q74 0 123 38.5t68 99.5l16 -4q-18 -61 -70 -106
q-53 -45 -138 -45q-107 0 -168 75q-62 74 -62 198q0 123 60.5 195t165.5 72q103 0 163 -69t60 -175v-17zM285 511q-92 0 -147.5 -61.5t-60.5 -166.5h413q-2 103 -56.5 165.5t-148.5 62.5z" />
    <glyph glyph-name="edotaccent.ss01" horiz-adv-x="566" 
d="M305 662q-13 -13 -29.5 -6t-16.5 24q0 25 26 25q18 0 25 -15.5t-5 -27.5zM508 267h-431v-2v-6q0 -117 57 -185.5t156 -68.5q74 0 123 38.5t68 99.5l16 -4q-18 -61 -70 -106q-53 -45 -138 -45q-107 0 -168 75q-62 74 -62 198q0 123 60.5 195t165.5 72q103 0 163 -69
t60 -175v-17zM285 511q-92 0 -147.5 -61.5t-60.5 -166.5h413q-2 103 -56.5 165.5t-148.5 62.5z" />
    <glyph glyph-name="uni0123.ss01" horiz-adv-x="595" 
d="M283 653q-25 0 -25 31v57q0 33 34 33h8v-14h-10q-18 0 -18 -18v-47q6 2 11 2q23 0 23 -22t-23 -22zM483 363v153h18v-524q0 -97 -56.5 -147t-159.5 -50q-95 0 -143 39t-59 87h18q11 -41 54 -75t130 -34q96 0 147 45t51 134v164q-19 -75 -73.5 -121t-130.5 -46
q-103 0 -161 76q-59 76 -59 198q0 120 59 194q58 72 159 72q78 0 133 -46t73 -119zM279 5q93 0 148 70q56 70 56 183q0 117 -56 185t-149 68t-147 -67t-54 -182q0 -116 54 -186q54 -71 148 -71z" />
    <glyph glyph-name="gdotaccent.ss01" horiz-adv-x="595" 
d="M301 662q-13 -13 -29.5 -6t-16.5 24q0 25 26 25q18 0 25 -15.5t-5 -27.5zM483 363v153h18v-524q0 -97 -56.5 -147t-159.5 -50q-95 0 -143 39t-59 87h18q11 -41 54 -75t130 -34q96 0 147 45t51 134v164q-19 -75 -73.5 -121t-130.5 -46q-103 0 -161 76q-59 76 -59 198
q0 120 59 194q58 72 159 72q78 0 133 -46t73 -119zM279 5q93 0 148 70q56 70 56 183q0 117 -56 185t-149 68t-147 -67t-54 -182q0 -116 54 -186q54 -71 148 -71z" />
    <glyph glyph-name="i.ss01" horiz-adv-x="206" 
d="M103 654q-13 0 -21 8t-8 20q0 29 29 29q12 0 20.5 -8t8.5 -21q0 -12 -8.5 -20t-20.5 -8zM112 0h-18v516h18v-516z" />
    <glyph glyph-name="idieresis.ss01" horiz-adv-x="206" 
d="M27 662q-13 -12 -28.5 -5.5t-15.5 23.5q0 25 25 25q17 0 24 -15.5t-5 -27.5zM197 654q-25 0 -25 25.5t25 25.5q26 0 26 -25q0 -11 -7 -18.5t-19 -7.5zM112 0h-18v516h18v-516z" />
    <glyph glyph-name="i.loclTRK.ss01" horiz-adv-x="206" 
d="M103 654q-13 0 -21 8t-8 20q0 29 29 29q12 0 20.5 -8t8.5 -21q0 -12 -8.5 -20t-20.5 -8zM112 0h-18v516h18v-516z" />
    <glyph glyph-name="ij.ss01" horiz-adv-x="411" 
d="M103 654q-13 0 -21 8t-8 20q0 29 29 29q12 0 20 -8t8 -21q0 -12 -8 -20t-20 -8zM309 654q-13 0 -21 8t-8 20q0 29 29 29q12 0 20.5 -8t8.5 -21q0 -12 -8.5 -20t-20.5 -8zM112 0h-18v516h18v-516zM197 -204h-25v17h26q102 0 102 104v599h18v-597q0 -123 -121 -123z" />
    <glyph glyph-name="iogonek.ss01" horiz-adv-x="206" 
d="M103 705q17 0 23.5 -12.5t0 -25.5t-23.5 -13q-12 0 -19 7.5t-7 18.5q0 25 26 25zM53 -24l41 28v512h18v-516l-50 -36q-35 -25 -48.5 -42t-13.5 -41q0 -31 21.5 -48.5t62.5 -17.5h28v-16h-28q-48 0 -74.5 21.5t-26.5 58.5q0 28 15 48.5t55 48.5z" />
    <glyph glyph-name="j.ss01" horiz-adv-x="206" 
d="M103 654q-13 0 -21 8t-8 20q0 29 29 29q12 0 20.5 -8t8.5 -21q0 -12 -8.5 -20t-20.5 -8zM-9 -204h-25v17h26q102 0 102 104v599h18v-597q0 -123 -121 -123z" />
    <glyph glyph-name="uni0137.ss01" horiz-adv-x="553" 
d="M501 516l-227 -204l241 -312h-22l-232 301l-149 -135v-166h-18v712h18v-524l364 328h25zM288 -80q25 0 25 -31v-71q0 -33 -34 -33h-8v14h10q18 0 18 18v61q-6 -2 -11 -2q-23 0 -23 22t23 22z" />
    <glyph glyph-name="uni013C.ss01" horiz-adv-x="206" 
d="M94 712h18v-712h-18v712zM102 -80q25 0 25 -31v-71q0 -33 -34 -33h-8v14h10q18 0 18 18v61q-6 -2 -11 -2q-23 0 -23 22t23 22z" />
    <glyph glyph-name="ldot.ss01" horiz-adv-x="268" 
d="M112 0h-18v712h18v-712zM232 337q-11 -10 -26 -5.5t-19 17t7 24.5q12 10 26.5 5.5t18 -17t-6.5 -24.5z" />
    <glyph glyph-name="napostrophe.ss01" horiz-adv-x="808" 
d="M119 712q12 0 20 -8t8 -22v-112q0 -51 -50 -51h-6v15h7q34 0 34 34v94h-13q-30 0 -30 25q0 11 8.5 18t21.5 7zM534 528q87 0 133.5 -50t46.5 -143v-335h-18v334q0 85 -42 131t-122 46q-90 0 -142 -59.5t-52 -172.5v-279h-18v516h18v-135q21 70 71.5 108.5t124.5 38.5z
" />
    <glyph glyph-name="uni0146.ss01" horiz-adv-x="582" 
d="M308 528q87 0 133.5 -50t46.5 -143v-335h-18v334q0 85 -42 131t-122 46q-90 0 -142 -59t-52 -173v-279h-18v516h17v-138q43 150 197 150zM290 -80q25 0 25 -31v-71q0 -33 -34 -33h-8v14h10q18 0 18 18v61q-6 -2 -11 -2q-23 0 -23 22t23 22z" />
    <glyph glyph-name="odieresis.ss01" horiz-adv-x="584" 
d="M199 654q-12 0 -19 7.5t-7 18.5q0 25 26 25q16 0 22 -12.5t0 -25.5t-22 -13zM387 654q-16 0 -22 13t0 25.5t22 12.5q26 0 26 -25q0 -11 -7 -18.5t-19 -7.5zM462 62q-65 -74 -170 -74q-104 0 -169 74q-64 73 -64 196q0 124 64 197t170 73q105 0 169 -73t64 -197
q0 -123 -64 -196zM292 5q99 0 157.5 68t58.5 185t-58.5 185t-157.5 68q-97 0 -156 -68t-59 -185t59 -185t156 -68z" />
    <glyph glyph-name="uni0157.ss01" horiz-adv-x="374" 
d="M299 529q23 0 50 -5v-18q-27 5 -51 5q-86 0 -136 -56t-50 -164v-291h-18v516h17v-131q18 70 67 107t121 37zM102 -80q25 0 25 -31v-71q0 -33 -34 -33h-8v14h10q18 0 18 18v61q-6 -2 -11 -2q-23 0 -23 22t23 22z" />
    <glyph glyph-name="uni0219.ss01" horiz-adv-x="530" 
d="M238 280l80 -12q147 -22 147 -134q0 -68 -52 -107t-142 -39q-95 0 -148.5 43.5t-57.5 122.5h18q4 -72 52.5 -110.5t135.5 -38.5q84 0 130.5 33.5t46.5 95.5q0 98 -133 117l-80 12q-79 13 -117.5 41.5t-38.5 83.5q0 63 49 99.5t133 36.5t135.5 -40t56.5 -109h-18
q-5 62 -51 97.5t-123 35.5q-75 0 -120 -31.5t-45 -87.5q0 -49 35 -74t107 -35zM269 -80q25 0 25 -31v-71q0 -33 -35 -33h-7v14h9q19 0 19 18v61q-6 -2 -11 -2q-23 0 -23 22t23 22z" />
    <glyph glyph-name="uni021B.ss01" horiz-adv-x="320" 
d="M290 500h-145v-393q0 -47 20.5 -68.5t63.5 -21.5h60v-17h-62q-100 0 -100 105v395h-106v16h106v147h18v-147h145v-16zM141 -74q25 0 25 -31v-71q0 -33 -34 -33h-8v14h10q18 0 18 18v61q-6 -2 -11 -2q-23 0 -23 22t23 22z" />
    <glyph glyph-name="udieresis.ss01" horiz-adv-x="582" 
d="M197 654q-12 0 -19 7.5t-7 18.5q0 25 26 25q16 0 22 -12.5t0 -25.5t-22 -13zM385 654q-16 0 -22 13t0 25.5t22 12.5q26 0 26 -25q0 -11 -7 -18.5t-19 -7.5zM470 237v279h18v-516h-17v138q-43 -150 -197 -150q-87 0 -133.5 50t-46.5 143v335h18v-334q0 -85 42 -131
t122 -46q90 0 142 59t52 173z" />
    <glyph glyph-name="wdieresis.ss01" horiz-adv-x="763" 
d="M286 654q-12 0 -19 7.5t-7 18.5q0 25 26 25q16 0 22 -12.5t0 -25.5t-22 -13zM474 654q-16 0 -22 13t0 25.5t22 12.5q26 0 26 -25q0 -11 -7 -18.5t-19 -7.5zM562 91l138 425h19l-169 -516h-17l-136 437l-15 59l-16 -59l-137 -437h-17l-169 516h20l137 -425l20 -68l20 68
l133 425h17l133 -425l20 -66z" />
    <glyph glyph-name="ydieresis.ss01" horiz-adv-x="545" 
d="M179 654q-12 0 -19 7.5t-7 18.5q0 25 26 25q16 0 22 -12.5t0 -25.5t-22 -13zM367 654q-16 0 -22 13t0 25.5t22 12.5q26 0 26 -25q0 -11 -7 -18.5t-19 -7.5zM277 -6l205 522h19l-251 -635q-19 -49 -47 -67t-85 -18h-27v17h26q53 0 77 15.5t41 58.5l35 89l-227 540h20
l207 -497z" />
    <glyph glyph-name="zdotaccent.ss01" horiz-adv-x="521" 
d="M281 662q-13 -13 -29.5 -6t-16.5 24q0 25 26 25q18 0 25 -15.5t-5 -27.5zM446 503l-364 -486h380v-17h-403v14l364 485h-352v17h375v-13z" />
    <glyph glyph-name="a.ss02" horiz-adv-x="595" 
d="M483 365l1 151h17v-516h-17v155q-21 -75 -75.5 -121t-129.5 -46q-102 0 -160 76q-60 75 -60 197q0 121 59 195q58 72 159 72q78 0 132.5 -44.5t73.5 -118.5zM280 4q92 0 147 70q56 71 56 184q0 118 -56 185.5t-149 67.5t-147 -67t-54 -182q0 -116 54 -187t149 -71z" />
    <glyph glyph-name="aacute.ss02" horiz-adv-x="595" 
d="M363 776h23l-121 -150h-20zM483 365l1 151h17v-516h-17v155q-21 -75 -75.5 -121t-129.5 -46q-102 0 -160 76q-60 75 -60 197q0 121 59 195q58 72 159 72q78 0 132.5 -44.5t73.5 -118.5zM280 4q92 0 147 70q56 71 56 184q0 118 -56 185.5t-149 67.5t-147 -67t-54 -182
q0 -116 54 -187t149 -71z" />
    <glyph glyph-name="abreve.ss02" horiz-adv-x="595" 
d="M427 749h16q-5 -129 -158 -129t-158 129h16q5 -113 142 -113t142 113zM483 365l1 151h17v-516h-17v155q-21 -75 -75.5 -121t-129.5 -46q-102 0 -160 76q-60 75 -60 197q0 121 59 195q58 72 159 72q78 0 132.5 -44.5t73.5 -118.5zM280 4q92 0 147 70q56 71 56 184
q0 118 -56 185.5t-149 67.5t-147 -67t-54 -182q0 -116 54 -187t149 -71z" />
    <glyph glyph-name="acircumflex.ss02" horiz-adv-x="595" 
d="M412 614l-127 147l-127 -147h-21l139 162h18l139 -162h-21zM483 365l1 151h17v-516h-17v155q-21 -75 -75.5 -121t-129.5 -46q-102 0 -160 76q-60 75 -60 197q0 121 59 195q58 72 159 72q78 0 132.5 -44.5t73.5 -118.5zM280 4q92 0 147 70q56 71 56 184q0 118 -56 185.5
t-149 67.5t-147 -67t-54 -182q0 -116 54 -187t149 -71z" />
    <glyph glyph-name="adieresis.ss02" horiz-adv-x="595" 
d="M171 713h36v-60h-36v60zM363 713h36v-60h-36v60zM483 365l1 151h17v-516h-17v155q-21 -75 -75.5 -121t-129.5 -46q-102 0 -160 76q-60 75 -60 197q0 121 59 195q58 72 159 72q78 0 132.5 -44.5t73.5 -118.5zM280 4q92 0 147 70q56 71 56 184q0 118 -56 185.5t-149 67.5
t-147 -67t-54 -182q0 -116 54 -187t149 -71z" />
    <glyph glyph-name="agrave.ss02" horiz-adv-x="595" 
d="M205 776l117 -150h-20l-120 150h23zM483 365l1 151h17v-516h-17v155q-21 -75 -75.5 -121t-129.5 -46q-102 0 -160 76q-60 75 -60 197q0 121 59 195q58 72 159 72q78 0 132.5 -44.5t73.5 -118.5zM280 4q92 0 147 70q56 71 56 184q0 118 -56 185.5t-149 67.5t-147 -67
t-54 -182q0 -116 54 -187t149 -71z" />
    <glyph glyph-name="amacron.ss02" horiz-adv-x="595" 
d="M142 679h286v-16h-286v16zM483 365l1 151h17v-516h-17v155q-21 -75 -75.5 -121t-129.5 -46q-102 0 -160 76q-60 75 -60 197q0 121 59 195q58 72 159 72q78 0 132.5 -44.5t73.5 -118.5zM280 4q92 0 147 70q56 71 56 184q0 118 -56 185.5t-149 67.5t-147 -67t-54 -182
q0 -116 54 -187t149 -71z" />
    <glyph glyph-name="aogonek.ss02" horiz-adv-x="595" 
d="M501 0l-50 -36q-35 -25 -48.5 -42t-13.5 -41q0 -31 22 -48.5t61 -17.5h29v-16h-28q-48 0 -74.5 21.5t-26.5 58.5q0 28 15 48.5t55 48.5l43 30l-1 154q-19 -70 -74.5 -115t-130.5 -45q-101 0 -160 74q-60 74 -60 188q0 120 59 194q58 72 159 72q78 0 132.5 -44.5
t73.5 -118.5l1 151h17v-516zM280 16q90 0 147 68q56 68 56 174q0 118 -56 185.5t-149 67.5t-147 -67t-54 -182q0 -109 55 -177q54 -69 148 -69z" />
    <glyph glyph-name="aring.ss02" horiz-adv-x="595" 
d="M362 628q-32 -30 -77 -30q-46 0 -76 30q-31 30 -31 76q0 47 30 77.5t77 30.5t77 -30.5t30 -77.5q0 -46 -30 -76zM351 771q-19 19 -47.5 23.5t-53.5 -5t-42 -32.5t-15 -53q0 -39 26.5 -64.5t65.5 -25.5t65.5 25.5t26.5 64.5q0 41 -26 67zM483 365l1 151h17v-516h-17v155
q-21 -75 -75.5 -121t-129.5 -46q-102 0 -160 76q-60 75 -60 197q0 121 59 195q58 72 159 72q78 0 132.5 -44.5t73.5 -118.5zM280 4q92 0 147 70q56 71 56 184q0 118 -56 185.5t-149 67.5t-147 -67t-54 -182q0 -116 54 -187t149 -71z" />
    <glyph glyph-name="aringacute.ss02" horiz-adv-x="595" 
d="M363 996h23l-121 -149h-20zM285 584q-46 0 -76.5 30t-30.5 76q0 47 30 77.5t77 30.5t77.5 -30.5t30.5 -77.5q0 -46 -30.5 -76t-77.5 -30zM351 757q-19 19 -47.5 23.5t-53.5 -5t-42 -32.5t-15 -53q0 -39 26.5 -64.5t65.5 -25.5t65.5 25.5t26.5 64.5q0 41 -26 67zM483 365
l1 151h17v-516h-17v155q-21 -75 -75.5 -121t-129.5 -46q-102 0 -160 76q-60 75 -60 197q0 121 59 195q58 72 159 72q78 0 132.5 -44.5t73.5 -118.5zM280 4q92 0 147 70q56 71 56 184q0 118 -56 185.5t-149 67.5t-147 -67t-54 -182q0 -116 54 -187t149 -71z" />
    <glyph glyph-name="atilde.ss02" horiz-adv-x="595" 
d="M195 766q-71 0 -75 -135h-17q7 151 93 151q26 0 46.5 -14t33.5 -34t26 -39.5t31.5 -33.5t42.5 -14q70 0 74 135h17q-7 -151 -92 -151q-30 0 -55 20t-39 48q-33 67 -86 67zM483 365l1 151h17v-516h-17v155q-21 -75 -75.5 -121t-129.5 -46q-102 0 -160 76q-60 75 -60 197
q0 121 59 195q58 72 159 72q78 0 132.5 -44.5t73.5 -118.5zM280 4q92 0 147 70q56 71 56 184q0 118 -56 185.5t-149 67.5t-147 -67t-54 -182q0 -116 54 -187t149 -71z" />
    <glyph glyph-name="adieresis.ss01.ss02" horiz-adv-x="595" 
d="M191 654q-12 0 -19 7.5t-7 18.5q0 25 26 25q16 0 22 -12.5t0 -25.5t-22 -13zM379 654q-16 0 -22 13t0 25.5t22 12.5q26 0 26 -25q0 -11 -7 -18.5t-19 -7.5zM483 365l1 151h17v-516h-17v155q-21 -75 -75.5 -121t-129.5 -46q-102 0 -160 76q-60 75 -60 197q0 121 59 195
q58 72 159 72q78 0 132.5 -44.5t73.5 -118.5zM280 4q92 0 147 70q56 71 56 184q0 118 -56 185.5t-149 67.5t-147 -67t-54 -182q0 -116 54 -187t149 -71z" />
    <glyph glyph-name="uni021B.ss01.ss05" horiz-adv-x="311" 
d="M165 663v-147h125v-16h-125v-500h-18v500h-126v16h126v147h18zM155 -80q25 0 25 -31v-71q0 -33 -34 -33h-8v14h10q18 0 18 18v61q-6 -2 -11 -2q-23 0 -23 22t23 22z" />
    <glyph glyph-name="udieresis.ss01.ss05" horiz-adv-x="582" 
d="M197 654q-12 0 -19 7.5t-7 18.5q0 25 26 25q16 0 22 -12.5t0 -25.5t-22 -13zM385 654q-16 0 -22 13t0 25.5t22 12.5q26 0 26 -25q0 -11 -7 -18.5t-19 -7.5zM470 237v279h18v-516h-17v138q-43 -150 -197 -150q-87 0 -133.5 50t-46.5 143v335h18v-334q0 -85 42 -131
t122 -46q90 0 142 59t52 173z" />
    <glyph glyph-name="t.ss05" horiz-adv-x="311" 
d="M165 516h125v-16h-125v-500h-18v500h-125v16h125v147h18v-147z" />
    <glyph glyph-name="tbar.ss05" horiz-adv-x="311" 
d="M165 266h126v-16h-126v-250h-18v250h-125v16h125v234h-125v16h125v147h18v-147h125v-16h-125v-234z" />
    <glyph glyph-name="tcaron.ss05" horiz-adv-x="311" 
d="M308 820h19l-69 -198h-16zM147 663h18v-147h125v-16h-125v-500h-18v500h-126v16h126v147z" />
    <glyph glyph-name="uni0163.ss05" horiz-adv-x="311" 
d="M165 500v-500h-1l-42 -69h34q87 0 87 -69q0 -36 -27.5 -55.5t-77.5 -19.5h-39v15h38q90 0 90 60q0 53 -72 53h-43l-8 13l44 72h-1v500h-126v16h126v147h18v-147h125v-16h-125z" />
    <glyph glyph-name="uni021B.ss05" horiz-adv-x="311" 
d="M165 663v-147h125v-16h-125v-500h-18v500h-126v16h126v147h18zM164 -119l-29 -4v39h43v-100q0 -31 -32 -31h-11v14h10q19 0 19 17v65z" />
    <glyph glyph-name="udieresis.ss01.ss06" horiz-adv-x="582" 
d="M197 654q-12 0 -19 7.5t-7 18.5q0 25 26 25q16 0 22 -12.5t0 -25.5t-22 -13zM385 654q-16 0 -22 13t0 25.5t22 12.5q26 0 26 -25q0 -11 -7 -18.5t-19 -7.5zM436 43q-53 -50 -145 -50t-145 50q-52 49 -52 142v331h18v-331q0 -84 47 -129.5t132 -45.5q87 0 133 45t46 130
v331h18v-331q0 -93 -52 -142z" />
    <glyph glyph-name="u.ss06" horiz-adv-x="582" 
d="M436 43q-53 -50 -145 -50t-145 50q-52 49 -52 142v331h18v-331q0 -84 47 -129.5t132 -45.5q87 0 133 45t46 130v331h18v-331q0 -93 -52 -142z" />
    <glyph glyph-name="uacute.ss06" horiz-adv-x="582" 
d="M272 626h-20l118 150h23zM436 43q-53 -50 -145 -50t-145 50q-52 49 -52 142v331h18v-331q0 -84 47 -129.5t132 -45.5q87 0 133 45t46 130v331h18v-331q0 -93 -52 -142z" />
    <glyph glyph-name="ubreve.ss06" horiz-adv-x="582" 
d="M433 749h16q-5 -129 -158 -129t-158 129h16q5 -113 142 -113t142 113zM436 43q-53 -50 -145 -50t-145 50q-52 49 -52 142v331h18v-331q0 -84 47 -129.5t132 -45.5q87 0 133 45t46 130v331h18v-331q0 -93 -52 -142z" />
    <glyph glyph-name="ucircumflex.ss06" horiz-adv-x="582" 
d="M164 614h-21l139 162h18l139 -162h-21l-127 147zM436 43q-53 -50 -145 -50t-145 50q-52 49 -52 142v331h18v-331q0 -84 47 -129.5t132 -45.5q87 0 133 45t46 130v331h18v-331q0 -93 -52 -142z" />
    <glyph glyph-name="udieresis.ss06" horiz-adv-x="582" 
d="M213 653h-36v60h36v-60zM405 653h-36v60h36v-60zM436 43q-53 -50 -145 -50t-145 50q-52 49 -52 142v331h18v-331q0 -84 47 -129.5t132 -45.5q87 0 133 45t46 130v331h18v-331q0 -93 -52 -142z" />
    <glyph glyph-name="ugrave.ss06" horiz-adv-x="582" 
d="M329 626h-20l-120 150h23zM436 43q-53 -50 -145 -50t-145 50q-52 49 -52 142v331h18v-331q0 -84 47 -129.5t132 -45.5q87 0 133 45t46 130v331h18v-331q0 -93 -52 -142z" />
    <glyph glyph-name="uhungarumlaut.ss06" horiz-adv-x="582" 
d="M195 612h-19l109 164h21zM370 612h-19l127 164h21zM436 43q-53 -50 -145 -50t-145 50q-52 49 -52 142v331h18v-331q0 -84 47 -129.5t132 -45.5q87 0 133 45t46 130v331h18v-331q0 -93 -52 -142z" />
    <glyph glyph-name="umacron.ss06" horiz-adv-x="582" 
d="M434 663h-286v16h286v-16zM436 43q-53 -50 -145 -50t-145 50q-52 49 -52 142v331h18v-331q0 -84 47 -129.5t132 -45.5q87 0 133 45t46 130v331h18v-331q0 -93 -52 -142z" />
    <glyph glyph-name="uogonek.ss06" horiz-adv-x="582" 
d="M470 185v331h18v-331q0 -152 -131 -184l-66 -34q-64 -31 -64 -81q0 -31 21.5 -48.5t62.5 -17.5h37v-16h-37q-50 0 -76 21t-26 60q0 57 74 95l28 14q-5 -1 -20 -1q-94 0 -145.5 50t-51.5 142v331h18v-331q0 -84 47 -129.5t132 -45.5q87 0 133 45t46 130z" />
    <glyph glyph-name="uring.ss06" horiz-adv-x="582" 
d="M368 628q-32 -30 -77 -30q-46 0 -76 30q-31 30 -31 76q0 47 30 77.5t77 30.5t77 -30.5t30 -77.5q0 -46 -30 -76zM226 639q29 -24 65 -25t65.5 25t26.5 65q0 41 -26 66.5t-66 25.5t-66 -25.5t-26 -66.5q0 -40 27 -65zM436 43q-53 -50 -145 -50t-145 50q-52 49 -52 142v331
h18v-331q0 -84 47 -129.5t132 -45.5q87 0 133 45t46 130v331h18v-331q0 -93 -52 -142z" />
    <glyph glyph-name="utilde.ss06" horiz-adv-x="582" 
d="M126 631h-17q7 151 93 151q26 0 46.5 -14t33.5 -34t26 -39.5t31.5 -33.5t42.5 -14q70 0 74 135h17q-7 -151 -92 -151q-30 0 -55 20t-39 48q-33 67 -86 67q-71 0 -75 -135zM436 43q-53 -50 -145 -50t-145 50q-52 49 -52 142v331h18v-331q0 -84 47 -129.5t132 -45.5
q87 0 133 45t46 130v331h18v-331q0 -93 -52 -142z" />
    <glyph glyph-name="ydieresis.ss01.ss07" horiz-adv-x="545" 
d="M179 654q-12 0 -19 7.5t-7 18.5q0 25 26 25q16 0 22 -12.5t0 -25.5t-22 -13zM367 654q-16 0 -22 13t0 25.5t22 12.5q26 0 26 -25q0 -11 -7 -18.5t-19 -7.5zM278 -4l204 520h19l-285 -720h-18l72 180l-227 540h20l207 -497q8 -21 8 -23z" />
    <glyph glyph-name="y.ss07" horiz-adv-x="545" 
d="M278 -4l204 520h19l-285 -720h-18l72 180l-226 540h19l207 -497q8 -21 8 -23z" />
    <glyph glyph-name="yacute.ss07" horiz-adv-x="545" 
d="M351 776h23l-121 -150h-20zM278 -4l204 520h19l-285 -720h-18l72 180l-227 540h20l207 -497q8 -21 8 -23z" />
    <glyph glyph-name="ycircumflex.ss07" horiz-adv-x="545" 
d="M400 614l-127 147l-127 -147h-21l139 162h18l139 -162h-21zM278 -4l204 520h19l-285 -720h-18l72 180l-227 540h20l207 -497q8 -21 8 -23z" />
    <glyph glyph-name="ydieresis.ss07" horiz-adv-x="545" 
d="M159 713h36v-60h-36v60zM351 713h36v-60h-36v60zM278 -4l204 520h19l-285 -720h-18l72 180l-227 540h20l207 -497q8 -21 8 -23z" />
    <glyph glyph-name="ygrave.ss07" horiz-adv-x="545" 
d="M193 776l117 -150h-20l-120 150h23zM278 -4l204 520h19l-285 -720h-18l72 180l-227 540h20l207 -497q8 -21 8 -23z" />
    <glyph glyph-name="l.ss08" horiz-adv-x="284" 
d="M254 0h-60q-100 0 -100 105v607h18v-605q0 -47 20.5 -68.5t63.5 -21.5h58v-17z" />
    <glyph glyph-name="lacute.ss08" horiz-adv-x="284" 
d="M83 822h-20l118 150h23zM254 0h-60q-100 0 -100 105v607h18v-605q0 -47 20.5 -68.5t63.5 -21.5h58v-17z" />
    <glyph glyph-name="lcaron.ss08" horiz-adv-x="311" 
d="M254 0h-60q-100 0 -100 105v607h18v-605q0 -47 20.5 -68.5t63.5 -21.5h58v-17zM242 514h-16l66 198h19z" />
    <glyph glyph-name="uni013C.ss08" horiz-adv-x="284" 
d="M196 17h58v-17h-60q-100 0 -100 105v607h18v-605q0 -47 20.5 -68.5t63.5 -21.5zM111 -119l-29 -4v39h43v-100q0 -31 -32 -31h-11v14h10q19 0 19 17v65z" />
    <glyph glyph-name="ldot.ss08" horiz-adv-x="290" 
d="M254 0h-60q-100 0 -100 105v607h18v-605q0 -47 20.5 -68.5t63.5 -21.5h58v-17zM241 332h-58v47h58v-47z" />
    <glyph glyph-name="lslash.ss08" horiz-adv-x="364" 
d="M274 17h58v-17h-60q-100 0 -100 105v258l-113 -61v19l113 60v331h18v-322l112 60v-19l-112 -59v-265q0 -47 20.5 -68.5t63.5 -21.5z" />
    <glyph glyph-name="uni013C.ss01.ss08" horiz-adv-x="284" 
d="M196 17h58v-17h-60q-100 0 -100 105v607h18v-605q0 -47 20.5 -68.5t63.5 -21.5zM102 -80q25 0 25 -31v-71q0 -33 -34 -33h-8v14h10q18 0 18 18v61q-6 -2 -11 -2q-23 0 -23 22t23 22z" />
    <glyph glyph-name="ldot.ss01.ss08" horiz-adv-x="291" 
d="M254 0h-60q-100 0 -100 105v607h18v-605q0 -47 20.5 -68.5t63.5 -21.5h58v-17zM232 337q-11 -10 -26 -5.5t-19 17t7 24.5q12 10 26.5 5.5t18 -17t-6.5 -24.5z" />
    <glyph glyph-name="fi.ss01" horiz-adv-x="522" 
d="M120 516v60q0 136 126 136h50v-17h-50q-54 0 -81 -27.5t-27 -90.5v-61h158v-16h-158v-500h-18v500h-99v16h99zM419 711q12 0 20.5 -8t8.5 -21q0 -12 -8.5 -20t-20.5 -8q-13 0 -21 8t-8 20q0 29 29 29zM428 0h-18v516h18v-516z" />
    <glyph glyph-name="fl.ss08" horiz-adv-x="600" 
d="M120 516v60q0 136 126 136h50v-17h-50q-54 0 -81 -27.5t-27 -90.5v-61h158v-16h-158v-500h-18v500h-99v16h99zM512 17h58v-17h-60q-100 0 -100 105v607h18v-605q0 -47 20.5 -68.5t63.5 -21.5z" />
    <glyph glyph-name="ordfeminine.ss02" horiz-adv-x="482" 
d="M371 619l1 94h16v-341h-16l-1 95q-16 -46 -56 -74.5t-93 -28.5q-75 0 -119 49.5t-44 131.5q0 80 43.5 127.5t118.5 47.5q56 0 95.5 -27.5t54.5 -73.5zM224 380q66 0 107 44t41 118q0 76 -41 119.5t-109 43.5q-67 0 -106.5 -43t-39.5 -117q0 -75 39.5 -120t108.5 -45z" />
    <glyph glyph-name="t.sups.ss05" horiz-adv-x="281" 
d="M149 712h111v-14h-111v-326h-17v326h-110v14h110v98h17v-98z" />
    <glyph glyph-name="zero.ss09" horiz-adv-x="1123" 
d="M1015 -88h-908v888h908v-888zM389 375q0 -222 172 -222t172 222q0 221 -172 221t-172 -221zM561 170q-154 0 -154 205t154 205q155 0 155 -205t-155 -205z" />
    <glyph glyph-name="one.ss09" horiz-adv-x="1123" 
d="M1015 -88h-908v888h908v-888zM579 448v-297h17v427h-17v-79q0 -21 -10 -28t-34 -7h-107v-16h151z" />
    <glyph glyph-name="two.ss09" horiz-adv-x="1123" 
d="M107 -88v888h908v-888h-908zM406 160h310v16h-291q9 85 131 145l57 26q54 26 77.5 55.5t23.5 71.5q0 53 -40.5 87.5t-110.5 34.5t-110.5 -36t-41.5 -107h18q3 127 134 127q63 0 98.5 -30t35.5 -76q0 -36 -21.5 -62.5t-70.5 -50.5l-58 -27q-141 -68 -141 -174z" />
    <glyph glyph-name="three.ss09" horiz-adv-x="1123" 
d="M1015 -88h-908v888h908v-888zM566 150q73 0 117 34t44 90q0 42 -28.5 73t-74.5 39v1q37 9 58 35.5t21 62.5q0 50 -39.5 79t-104.5 29q-68 0 -107 -33t-39 -88h17q1 50 35 77.5t94 27.5q57 0 92 -25.5t35 -67.5q0 -40 -29.5 -65.5t-82.5 -25.5h-32v-16h32q63 0 99.5 -28
t36.5 -74q0 -51 -38.5 -80t-105.5 -29q-69 0 -109 31t-41 83h-17q0 -57 46 -93.5t121 -36.5z" />
    <glyph glyph-name="four.ss09" horiz-adv-x="1123" 
d="M1015 -88h-908v888h908v-888zM636 279v-119h17v119h75v16h-75v292h-17l-258 -293v-15h258zM636 295h-238l237 268h1v-268z" />
    <glyph glyph-name="five.ss09" horiz-adv-x="1123" 
d="M107 -88v888h908v-888h-908zM561 149q75 0 120.5 39.5t45.5 103.5q0 63 -43.5 101t-115.5 38q-90 0 -133 -55l-2 1l37 194h230v16h-243l-44 -227l22 -5q43 60 132 60q66 0 104.5 -33.5t38.5 -89.5q0 -57 -40 -91.5t-108 -34.5q-56 0 -95 25t-49 65l-17 -4
q12 -47 54.5 -75t105.5 -28z" />
    <glyph glyph-name="six.ss09" horiz-adv-x="1123" 
d="M1015 -88h-908v888h908v-888zM577 157q69 0 112 40t43 104q0 61 -41.5 98.5t-112.5 37.5q-53 0 -93.5 -21.5t-62.5 -58.5q0 226 155 226q103 0 125 -91l17 3q-26 104 -143 104q-171 0 -171 -235q0 -207 172 -207zM577 173q-68 0 -107.5 40t-45.5 118q19 41 59 65.5
t95 24.5q63 0 100 -33t37 -88q0 -56 -38 -91.5t-100 -35.5z" />
    <glyph glyph-name="seven.ss09" horiz-adv-x="1123" 
d="M1015 -88h-908v888h908v-888zM500 160h17q12 240 223 412v15h-318v-16h292q-96 -81 -151.5 -188t-62.5 -223z" />
    <glyph glyph-name="eight.ss09" horiz-adv-x="1123" 
d="M1015 -88h-908v888h908v-888zM437 189q47 -35 124 -35q76 0 125 35q48 35 48 92q0 42 -28.5 71.5t-79.5 39.5v2q44 9 68 34.5t24 61.5q0 48 -42.5 77t-114.5 29t-114.5 -29t-42.5 -77q0 -36 24.5 -62t67.5 -34v-2q-51 -10 -79 -39.5t-28 -71.5q0 -57 48 -92zM663 423
q-37 -24 -102 -24t-102 24t-37 66q0 43 37.5 67t101.5 24q66 0 102.5 -24t36.5 -68q0 -41 -37 -65zM561 169q-71 0 -113 30.5t-42 81.5q0 49 40.5 76t114.5 27t115 -27t41 -76q0 -51 -42 -81.5t-114 -30.5z" />
    <glyph glyph-name="nine.ss09" horiz-adv-x="1123" 
d="M1015 -88h-908v888h908v-888zM560 150q171 0 171 236q0 206 -172 206q-69 0 -112 -40t-43 -103q0 -61 41.5 -99t112.5 -38q53 0 93.5 22t62.5 59q0 -227 -155 -227q-102 0 -125 92l-17 -4q26 -104 143 -104zM558 328q-63 0 -100 33.5t-37 88.5q0 56 38 91t100 35
q68 0 107.5 -40t45.5 -118q-19 -41 -59 -65.5t-95 -24.5z" />
    <glyph glyph-name="zero.ss10" horiz-adv-x="1123" 
d="M1015 -88h-908v888h908v-888zM125 783v-854h872v854h-872zM733 375q0 -222 -172 -222t-172 222q0 221 172 221t172 -221zM561 170q155 0 155 205t-155 205q-154 0 -154 -205t154 -205z" />
    <glyph glyph-name="one.ss10" horiz-adv-x="1123" 
d="M1015 -88h-908v888h908v-888zM125 783v-854h872v854h-872zM587 150h-17v297h-151v16h107q23 0 33 7t10 28l1 79h17v-427z" />
    <glyph glyph-name="two.ss10" horiz-adv-x="1123" 
d="M1015 -88h-908v888h908v-888zM125 783v-854h872v854h-872zM719 160h-310q0 106 141 174l57 27q50 24 71.5 50.5t21.5 62.5q0 46 -35.5 76t-98.5 30q-132 0 -135 -127h-18q1 71 41.5 107t111.5 36q70 0 110.5 -34.5t40.5 -87.5q0 -41 -23.5 -71t-77.5 -56l-57 -26
q-124 -61 -131 -145h291v-16z" />
    <glyph glyph-name="three.ss10" horiz-adv-x="1123" 
d="M1015 -88h-908v888h908v-888zM125 783v-854h872v854h-872zM566 153q-75 0 -120.5 36t-45.5 94h17q0 -51 40.5 -82.5t108.5 -31.5q67 0 105.5 29t38.5 80q0 46 -36.5 74t-98.5 28h-33v16h33q53 0 82.5 25t29.5 65q0 43 -35.5 68.5t-92.5 25.5q-60 0 -94 -27.5t-34 -77.5
h-17q0 55 38.5 88t106.5 33q64 0 104.5 -30t40.5 -78q0 -36 -21 -63t-58 -36v-1q46 -8 74 -38.5t28 -72.5q0 -56 -44 -90t-117 -34z" />
    <glyph glyph-name="four.ss10" horiz-adv-x="1123" 
d="M1015 -88h-908v888h908v-888zM125 783v-854h872v854h-872zM657 158h-17v119h-259v15l259 293h17v-292h75v-16h-75v-119zM639 561l-237 -268h238v268h-1z" />
    <glyph glyph-name="five.ss10" horiz-adv-x="1123" 
d="M1015 -88h-908v888h908v-888zM125 783v-854h872v854h-872zM569 149q-62 0 -105.5 28.5t-55.5 74.5l17 4q10 -40 49 -65t95 -25q68 0 108 34.5t40 91.5q0 56 -38.5 89.5t-104.5 33.5q-89 0 -131 -60l-23 5l44 227h243v-16h-230l-36 -194l1 -1q43 55 133 55q72 0 115.5 -38
t43.5 -101t-45.5 -103t-119.5 -40z" />
    <glyph glyph-name="six.ss10" horiz-adv-x="1123" 
d="M1015 -88h-908v888h908v-888zM125 783v-854h872v854h-872zM577 154q-172 0 -172 207q0 115 43.5 175t127.5 60q117 0 143 -104l-17 -3q-22 91 -125 91q-155 0 -155 -226q22 36 62.5 58t93.5 22q71 0 112.5 -38t41.5 -99q0 -63 -43 -103t-112 -40zM577 170q62 0 100 35
t38 91q0 55 -37 88.5t-100 33.5q-55 0 -95 -24.5t-59 -65.5q6 -78 45.5 -118t107.5 -40z" />
    <glyph glyph-name="seven.ss10" horiz-adv-x="1123" 
d="M1015 -88h-908v888h908v-888zM125 783v-854h872v854h-872zM513 149h-17q6 116 61.5 222.5t152.5 188.5h-293v16h318v-15q-210 -174 -222 -412z" />
    <glyph glyph-name="eight.ss10" horiz-adv-x="1123" 
d="M1015 -88h-908v888h908v-888zM125 783v-854h872v854h-872zM686 179q-49 -35 -125 -35q-77 0 -124 35q-48 34 -48 92q0 42 28 71.5t79 39.5v2q-43 9 -67.5 34.5t-24.5 61.5q0 48 42.5 77t114.5 29t114.5 -29t42.5 -77q0 -36 -24 -61.5t-68 -34.5v-2q51 -10 79.5 -39.5
t28.5 -71.5q0 -57 -48 -92zM459 414q37 -24 102 -24t102 24q37 22 37 64q0 44 -37.5 68.5t-101.5 24.5t-101.5 -24.5t-37.5 -67.5q0 -41 37 -65zM561 160q72 0 114 30.5t42 81.5q0 49 -41 75.5t-115 26.5t-114.5 -27t-40.5 -75q0 -51 42 -81.5t113 -30.5z" />
    <glyph glyph-name="nine.ss10" horiz-adv-x="1123" 
d="M1015 -88h-908v888h908v-888zM125 783v-854h872v854h-872zM564 151q-117 0 -143 104l17 3q22 -91 125 -91q155 0 155 226q-22 -36 -62.5 -58t-93.5 -22q-71 0 -112.5 37.5t-41.5 99.5q0 63 43 103t112 40q172 0 172 -207q0 -115 -43.5 -175t-127.5 -60zM562 329
q55 0 95 24.5t59 65.5q-6 78 -45.5 118t-107.5 40q-62 0 -100 -35t-38 -91t36.5 -89t100.5 -33z" />
    <glyph glyph-name="zero.zero" 
d="M90 356q0 362 230 362t230 -362t-230 -362t-230 362zM320 701q-107 0 -159.5 -85t-52.5 -260q0 -204 72 -287l255 597q-46 35 -115 35zM320 11q107 0 159.5 85t52.5 260q0 222 -85 300l-256 -599q49 -46 129 -46z" />
    <glyph glyph-name="zero.dnom" horiz-adv-x="443" 
d="M394 215q0 -222 -172 -222t-172 222q0 221 172 221t172 -221zM222 10q154 0 154 205t-154 205q-155 0 -155 -205t155 -205z" />
    <glyph glyph-name="one.dnom" horiz-adv-x="309" 
d="M215 0h-17v297h-151v16h108q23 0 33 7t10 28l1 79h16v-427z" />
    <glyph glyph-name="two.dnom" horiz-adv-x="472" 
d="M393 0h-310q0 106 141 174l58 27q49 24 70.5 50.5t21.5 62.5q0 46 -35.5 76t-98.5 30q-133 0 -134 -127h-18q1 71 41 107t111 36q70 0 110.5 -34.5t40.5 -87.5q0 -42 -23.5 -71.5t-77.5 -55.5l-57 -26q-124 -60 -131 -145h291v-16z" />
    <glyph glyph-name="three.dnom" horiz-adv-x="427" 
d="M217 -7q-76 0 -121.5 36t-45.5 94h17q0 -51 40.5 -82.5t109.5 -31.5q66 0 104.5 29t38.5 80q0 46 -36.5 74t-98.5 28h-33v16h33q53 0 82.5 25t29.5 66q0 42 -35 67.5t-92 25.5q-60 0 -94.5 -27.5t-34.5 -77.5h-17q0 55 39 88t107 33q63 0 103.5 -30t40.5 -78
q0 -36 -21 -63t-58 -36v-1q46 -8 74 -38.5t28 -72.5q0 -56 -43.5 -90t-116.5 -34z" />
    <glyph glyph-name="four.dnom" horiz-adv-x="414" 
d="M307 0h-17v119h-259v15l259 293h17v-292h75v-16h-75v-119zM289 403l-237 -268h238v268h-1z" />
    <glyph glyph-name="five.dnom" horiz-adv-x="427" 
d="M211 -11q-62 0 -105.5 28.5t-55.5 74.5l17 4q10 -40 49 -65t95 -25q68 0 108 34.5t40 91.5q0 56 -38.5 89.5t-104.5 33.5q-88 0 -131 -60l-23 5l44 227h243v-16h-230l-36 -194l1 -1q43 55 133 55q72 0 116 -38.5t44 -100.5q0 -63 -45.5 -103t-120.5 -40z" />
    <glyph glyph-name="six.dnom" horiz-adv-x="427" 
d="M222 -6q-172 0 -172 207q0 235 171 235q116 0 143 -104l-17 -3q-22 91 -125 91q-155 0 -155 -226q22 37 62.5 58.5t93.5 21.5q71 0 112.5 -37.5t41.5 -98.5q0 -64 -43 -104t-112 -40zM222 10q62 0 100 35t38 91q0 55 -37 88.5t-100 33.5q-55 0 -95 -24.5t-60 -65.5
q7 -78 46.5 -118t107.5 -40z" />
    <glyph glyph-name="seven.dnom" horiz-adv-x="368" 
d="M121 0h-18q7 116 62.5 223t151.5 188h-292v16h318v-15q-211 -174 -222 -412z" />
    <glyph glyph-name="eight.dnom" horiz-adv-x="445" 
d="M347 29q-49 -35 -125 -35q-77 0 -124 35q-48 35 -48 92q0 42 28 71.5t79 39.5v2q-42 8 -67 34t-25 62q0 48 42.5 77t114.5 29t115 -29t43 -77q0 -35 -24.5 -61t-67.5 -35v-2q51 -10 79 -39.5t28 -71.5q0 -57 -48 -92zM222 239q66 0 103 24t37 65q0 44 -37 68t-103 24
q-64 0 -101.5 -24t-37.5 -67q0 -42 37 -66t102 -24zM222 9q72 0 114 30.5t42 81.5q0 49 -41 76t-115 27t-114.5 -27t-40.5 -76q0 -51 42 -81.5t113 -30.5z" />
    <glyph glyph-name="nine.dnom" horiz-adv-x="427" 
d="M206 -6q-117 0 -143 104l17 3q22 -91 125 -91q155 0 155 226q-22 -36 -62.5 -58t-93.5 -22q-71 0 -112.5 38t-41.5 99q0 63 43 103t112 40q172 0 172 -207q0 -115 -43.5 -175t-127.5 -60zM204 172q55 0 95 24.5t59 65.5q-6 78 -45.5 118t-107.5 40q-62 0 -100 -35
t-38 -91t36.5 -89t100.5 -33z" />
    <glyph glyph-name="zero.numr" horiz-adv-x="443" 
d="M394 536q0 -222 -172 -222t-172 222q0 221 172 221t172 -221zM222 331q154 0 154 205t-154 205q-155 0 -155 -205t155 -205z" />
    <glyph glyph-name="one.numr" horiz-adv-x="309" 
d="M215 321h-17v297h-151v16h108q23 0 33 7t10 28l1 79h16v-427z" />
    <glyph glyph-name="two.numr" horiz-adv-x="472" 
d="M393 321h-310q0 107 141 174l58 27q49 24 70.5 50.5t21.5 62.5q0 46 -35.5 76t-98.5 30q-133 0 -134 -127h-18q1 71 41 107t111 36q70 0 110.5 -34.5t40.5 -87.5q0 -42 -23.5 -71.5t-77.5 -55.5l-57 -26q-124 -60 -131 -145h291v-16z" />
    <glyph glyph-name="three.numr" horiz-adv-x="427" 
d="M217 314q-76 0 -121.5 36t-45.5 94h17q0 -51 40.5 -82.5t109.5 -31.5q66 0 104.5 29t38.5 80q0 46 -36.5 74t-98.5 28h-33v16h33q53 0 82.5 25t29.5 66q0 42 -35 67.5t-92 25.5q-60 0 -94.5 -27.5t-34.5 -77.5h-17q0 55 39 88t107 33q63 0 103.5 -30t40.5 -78
q0 -36 -21 -63t-58 -36v-1q46 -8 74 -38.5t28 -72.5q0 -56 -43.5 -90t-116.5 -34z" />
    <glyph glyph-name="four.numr" horiz-adv-x="414" 
d="M307 321h-17v119h-259v15l259 293h17v-292h75v-16h-75v-119zM289 724l-237 -268h238v268h-1z" />
    <glyph glyph-name="five.numr" horiz-adv-x="427" 
d="M211 310q-62 0 -105.5 28.5t-55.5 74.5l17 4q10 -40 49 -65t95 -25q68 0 108 34.5t40 91.5q0 56 -38.5 89.5t-104.5 33.5q-88 0 -131 -60l-23 5l44 227h243v-16h-230l-36 -194l1 -1q43 55 133 55q72 0 116 -38.5t44 -100.5q0 -63 -45.5 -103t-120.5 -40z" />
    <glyph glyph-name="six.numr" horiz-adv-x="427" 
d="M222 315q-172 0 -172 207q0 235 171 235q116 0 143 -104l-17 -3q-22 91 -125 91q-155 0 -155 -226q22 37 62.5 58.5t93.5 21.5q71 0 112.5 -37.5t41.5 -98.5q0 -64 -43 -104t-112 -40zM222 331q62 0 100 35t38 91q0 55 -37 88.5t-100 33.5q-55 0 -95 -24.5t-60 -65.5
q7 -78 46.5 -118t107.5 -40z" />
    <glyph glyph-name="seven.numr" horiz-adv-x="368" 
d="M121 321h-18q7 116 62.5 223t151.5 188h-292v16h318v-15q-211 -174 -222 -412z" />
    <glyph glyph-name="eight.numr" horiz-adv-x="445" 
d="M347 350q-49 -35 -125 -35q-77 0 -124 35q-48 35 -48 92q0 42 28 71.5t79 39.5v2q-42 8 -67 34t-25 62q0 48 42.5 77t114.5 29t115 -29t43 -77q0 -35 -24.5 -61t-67.5 -35v-2q51 -10 79 -39.5t28 -71.5q0 -57 -48 -92zM222 560q66 0 103 24t37 65q0 44 -37 68t-103 24
q-64 0 -101.5 -24t-37.5 -67q0 -42 37 -66t102 -24zM222 330q72 0 114 30.5t42 81.5q0 49 -41 76t-115 27t-114.5 -27t-40.5 -76q0 -51 42 -81.5t113 -30.5z" />
    <glyph glyph-name="nine.numr" horiz-adv-x="427" 
d="M206 315q-117 0 -143 104l17 3q22 -91 125 -91q155 0 155 226q-22 -36 -62.5 -58t-93.5 -22q-71 0 -112.5 38t-41.5 99q0 63 43 103t112 40q172 0 172 -207q0 -115 -43.5 -175t-127.5 -60zM204 493q55 0 95 24.5t59 65.5q-6 78 -45.5 118t-107.5 40q-62 0 -100 -35
t-38 -91t36.5 -89t100.5 -33z" />
    <glyph glyph-name="zero.tf" 
d="M550 356q0 -362 -230 -362t-230 362t230 362t230 -362zM161 96q52 -85 159 -85q108 0 160 85t52 260t-52 260t-160 85q-107 0 -159 -85q-53 -86 -53 -260t53 -260z" />
    <glyph glyph-name="one.tf" 
d="M358 712v-695h243v-17h-503v17h242v666q-33 -45 -89.5 -76.5t-114.5 -37.5v16q59 7 115 41t87 86h20z" />
    <glyph glyph-name="two.tf" 
d="M539 0h-442q0 169 206 282l81 44q75 41 108 87t33 106q0 77 -51 129q-51 53 -147 53q-93 0 -146 -54t-53 -162v-6h-18v6q0 116 58.5 174.5t158.5 58.5q103 0 160 -57q56 -59 56 -142q0 -124 -149 -207l-83 -46q-186 -103 -194 -249h422v-17z" />
    <glyph glyph-name="three.tf" 
d="M324 -7q-114 0 -183 60q-70 59 -71 153h18q2 -86 66 -140q62 -55 170 -55q100 0 164 50q63 49 63 133q0 79 -57 127t-155 48h-52v17h50q83 0 129.5 43.5t46.5 113.5q0 74 -54.5 117t-145.5 43q-95 0 -147 -48.5t-53 -133.5h-18q1 93 58.5 146t159.5 53q99 0 158.5 -48
t59.5 -129q0 -61 -33.5 -104t-95.5 -59v-2q78 -13 122.5 -62.5t44.5 -121.5q0 -90 -68 -146q-67 -55 -177 -55z" />
    <glyph glyph-name="four.tf" 
d="M461 712v-492h107v-17h-107v-203h-18v203h-372v17l377 492h13zM91 220h352v457h-1z" />
    <glyph glyph-name="five.tf" 
d="M316 -16q-93 0 -154 53q-60 52 -70 133l18 1q10 -76 65.5 -123t140.5 -47q97 0 155 61q57 60 57 159q0 97 -55 156q-56 59 -149 59q-128 0 -189 -109l-24 6l62 379h337v-17h-323l-56 -345l2 -1q62 103 193 103q101 0 161 -64q59 -65 59 -167q0 -106 -62 -171
q-63 -66 -168 -66z" />
    <glyph glyph-name="six.tf" 
d="M333 448q99 0 157 -61q57 -61 57 -160q0 -105 -60 -169q-60 -65 -156 -65q-120 0 -183 91q-56 80 -56 251q0 384 240 384q83 0 135.5 -47t60.5 -131h-18q-9 77 -55.5 119t-122.5 42q-223 0 -223 -364q0 -1 0.5 -7t0.5 -8q0 -27 1 -34q27 75 84.5 117t137.5 42zM331 10
q89 0 144 60q54 60 54 157q0 93 -53 148.5t-144 55.5q-83 0 -140 -48t-79 -132q7 -94 49 -157q27 -40 72.5 -62t96.5 -22z" />
    <glyph glyph-name="seven.tf" 
d="M237 0h-19q8 195 88.5 376t219.5 318h-438v18h463v-15q-145 -139 -226 -319.5t-88 -377.5z" />
    <glyph glyph-name="eight.tf" 
d="M502 50q-70 -56 -182 -56t-182 56q-70 55 -70 148q0 73 45 121.5t129 63.5v2q-74 15 -112.5 57t-38.5 102q0 80 61.5 127t167.5 47q105 0 167 -47t62 -127q0 -60 -39 -102t-113 -57v-2q85 -15 129.5 -63t44.5 -122q0 -92 -69 -148zM165 432q56 -41 155 -41q100 0 156 41
q55 40 55 111q0 74 -57 116.5t-154 42.5t-154 -42.5t-57 -116.5q0 -70 56 -111zM150 62q63 -51 170 -51t170 51t63 136q0 84 -61 130t-172 46q-112 0 -172.5 -46t-60.5 -130q0 -85 63 -136z" />
    <glyph glyph-name="nine.tf" 
d="M492 628q56 -80 56 -251q0 -384 -240 -384q-83 0 -135.5 47t-60.5 131h18q9 -77 55.5 -119t122.5 -42q223 0 223 364q0 2 -0.5 7.5t-0.5 6.5q0 28 -1 35q-27 -75 -84.5 -117t-137.5 -42q-99 0 -156 61q-58 61 -58 160q0 105 60 169q58 64 156 64q121 0 183 -90zM527 461
q-7 94 -49 157q-27 40 -72.5 62t-96.5 22q-89 0 -143 -60q-55 -59 -55 -157q0 -93 53 -148.5t144 -55.5q83 0 140 48t79 132z" />
    <glyph glyph-name="zero.tf.zero" 
d="M90 356q0 362 230 362t230 -362t-230 -362t-230 362zM108 356q0 -213 78 -294l256 599q-46 40 -122 40q-107 0 -159.5 -85t-52.5 -260zM320 11q107 0 159.5 85t52.5 260q0 212 -78 293l-255 -598q46 -40 121 -40z" />
    <glyph glyph-name="period.ss01" horiz-adv-x="240" 
d="M139 1q-11 -10 -25.5 -5.5t-18 17t6.5 24.5q11 10 25 5.5t18 -17t-6 -24.5z" />
    <glyph glyph-name="comma.ss01" horiz-adv-x="235" 
d="M118 44q28 0 28 -30v-112q0 -51 -50 -51h-5v15h6q34 0 34 34v94h-13q-29 0 -29 25t29 25z" />
    <glyph glyph-name="colon.ss01" horiz-adv-x="230" 
d="M134 405q-11 -10 -25.5 -5.5t-18 17t6.5 24.5q11 10 25 5.5t18 -17t-6 -24.5zM134 1q-11 -10 -25.5 -5.5t-18 17t6.5 24.5q11 10 25 5.5t18 -17t-6 -24.5z" />
    <glyph glyph-name="semicolon.ss01" horiz-adv-x="236" 
d="M139 405q-13 -11 -29 -4.5t-16 22.5t16 22.5t29 -4.5q7 -7 7 -18t-7 -18zM118 44q28 0 28 -30v-112q0 -51 -50 -51h-5v15h6q34 0 34 34v94h-13q-29 0 -29 25t29 25z" />
    <glyph glyph-name="ellipsis.ss01" horiz-adv-x="720" 
d="M139 1q-11 -10 -25.5 -5.5t-18 17t6.5 24.5q11 10 25 5.5t18 -17t-6 -24.5zM379 1q-11 -10 -25.5 -5.5t-18 17t6.5 24.5q11 10 25 5.5t18 -17t-6 -24.5zM619 1q-11 -10 -25.5 -5.5t-18 17t6.5 24.5q11 10 25 5.5t18 -17t-6 -24.5z" />
    <glyph glyph-name="exclam.ss01" horiz-adv-x="257" 
d="M136 168h-14l-2 339v205h18v-205zM147 1q-11 -11 -25 -6t-17.5 17.5t6.5 24.5q11 11 25 6t17.5 -17.5t-6.5 -24.5z" />
    <glyph glyph-name="exclamdown.ss01" horiz-adv-x="257" 
d="M147 486q-11 -11 -27.5 -5t-16.5 22t12.5 22t25.5 0t13 -22q0 -10 -7 -17zM138 -204h-18v205l2 339h14l2 -339v-205z" />
    <glyph glyph-name="question.ss01" horiz-adv-x="607" 
d="M295 167h-18v20q0 65 22 103q23 39 91 78q65 37 91.5 75.5t26.5 91.5q0 81 -55.5 124t-153.5 43q-102 0 -158 -51.5t-58 -145.5h-18q2 102 63 158t171 56q104 0 165.5 -48.5t61.5 -136.5q0 -55 -26 -94.5t-88 -77.5l-28 -17q-52 -32 -70.5 -65.5t-18.5 -94.5v-18zM306 1
q-11 -10 -25.5 -5.5t-18 17t6.5 24.5q11 10 25 5.5t18 -17t-6 -24.5z" />
    <glyph glyph-name="questiondown.ss01" horiz-adv-x="607" 
d="M339 479q-13 -11 -29 -4.5t-16 22.5q0 23 26 23t26 -23q0 -11 -7 -18zM308 -209q-104 0 -165 48t-61 136q0 55 25.5 94.5t87.5 77.5l28 17q54 32 72 66q17 36 17 94v25h18v-27q0 -65 -22 -103q-23 -39 -91 -78q-66 -38 -92 -75.5t-26 -90.5q0 -81 56 -124.5t153 -43.5
q102 0 158 51.5t58 145.5h18q-2 -102 -63 -157.5t-171 -55.5z" />
    <glyph glyph-name="periodcentered.ss01" horiz-adv-x="240" 
d="M139 331q-11 -10 -25.5 -5.5t-18 17t6.5 24.5q11 10 25 5.5t18 -17t-6 -24.5z" />
    <glyph glyph-name="bullet.ss01" horiz-adv-x="277" 
d="M138 244q-27 -2 -38 20.5t0 45.5t38 21q28 2 40 -21t0 -45.5t-40 -20.5z" />
    <glyph glyph-name="uni203D.ss01" horiz-adv-x="607" 
d="M299 719q104 0 165.5 -48.5t61.5 -136.5q0 -55 -26 -94.5t-88 -77.5l-28 -17q-49 -29 -67.5 -59t-21.5 -84v-35h-16l-1 271v116h18v-116l-1 -162q21 48 95 92q65 36 91.5 74.5t26.5 91.5q0 81 -56 124.5t-153 43.5q-102 0 -158 -51.5t-58 -145.5h-18q2 102 63 158t171 56
zM270 37q11 10 25 5.5t18 -17t-6 -24.5q-11 -10 -25.5 -5.5t-18 17t6.5 24.5z" />
    <glyph glyph-name="uni2E18.ss01" horiz-adv-x="607" 
d="M338 486q-13 -11 -29 -5t-16 22t13 22t26 0t13 -22q0 -10 -7 -17zM525 11h17q-2 -102 -63 -158t-171 -56q-104 0 -165 48.5t-61 136.5q0 55 25.5 94.5t87.5 77.5l28 17q48 28 66.5 57.5t22.5 80.5v40h16l1 -271v-116h-18v116l1 162q-21 -48 -95 -92q-65 -36 -91.5 -74.5
t-26.5 -91.5q0 -81 56 -124.5t153 -43.5q102 0 158.5 51.5t58.5 145.5z" />
    <glyph glyph-name="period.tf.ss01" 
d="M339 1q-11 -10 -25.5 -5.5t-18 17t6.5 24.5q11 10 25 5.5t18 -17t-6 -24.5z" />
    <glyph glyph-name="comma.tf.ss01" 
d="M321 44q28 0 28 -30v-112q0 -51 -50 -51h-5v15h6q34 0 34 34v94h-13q-29 0 -29 25t29 25z" />
    <glyph glyph-name="colon.tf.ss01" 
d="M339 405q-11 -10 -25.5 -5.5t-18 17t6.5 24.5q11 10 25 5.5t18 -17t-6 -24.5zM339 1q-11 -10 -25.5 -5.5t-18 17t6.5 24.5q11 10 25 5.5t18 -17t-6 -24.5z" />
    <glyph glyph-name="semicolon.tf.ss01" 
d="M341 405q-13 -11 -29 -4.5t-16 22.5t16 22.5t29 -4.5q7 -7 7 -18t-7 -18zM320 44q28 0 28 -30v-112q0 -51 -50 -51h-5v15h6q34 0 34 34v94h-13q-29 0 -29 25t29 25z" />
    <glyph glyph-name="period.tf" 
d="M349 0h-58v48h58v-48z" />
    <glyph glyph-name="comma.tf" 
d="M299 -149h-7v15h8q34 0 34 34v102l-42 -5v47h57v-142q0 -51 -50 -51z" />
    <glyph glyph-name="colon.tf" 
d="M349 402h-58v48h58v-48zM349 0h-58v48h58v-48z" />
    <glyph glyph-name="semicolon.tf" 
d="M346 402h-59v48h59v-48zM303 -149h-7v15h8q34 0 34 34v102l-42 -5v47h57v-142q0 -51 -50 -51z" />
    <glyph glyph-name="parenleft.case" horiz-adv-x="247" 
d="M204 -35h-19q-121 169 -121 387q0 226 121 395h19q-122 -172 -122 -395q0 -215 122 -387z" />
    <glyph glyph-name="parenright.case" horiz-adv-x="247" 
d="M62 -35h-19q122 172 122 387q0 223 -122 395h19q122 -170 122 -395q0 -217 -122 -387z" />
    <glyph glyph-name="braceleft.case" horiz-adv-x="308" 
d="M265 -36h-54q-82 0 -82 91v211q0 44 -18.5 63t-67.5 19v16q49 0 67.5 19t18.5 63v210q0 91 82 91h54v-17h-50q-34 0 -51 -17t-17 -58v-209q0 -78 -60 -89v-1q32 -6 46 -27t14 -63v-209q0 -76 68 -76h50v-17z" />
    <glyph glyph-name="braceright.case" horiz-adv-x="308" 
d="M97 -36h-54v17h50q69 0 69 76v209q0 79 59 90v1q-32 5 -45.5 26t-13.5 63v209q0 75 -69 75h-50v17h54q82 0 82 -91v-210q0 -44 18.5 -63t67.5 -19v-16q-49 0 -67.5 -19t-18.5 -63v-211q0 -91 -82 -91z" />
    <glyph glyph-name="bracketleft.case" horiz-adv-x="269" 
d="M227 -35h-142v782h142v-17h-125v-748h125v-17z" />
    <glyph glyph-name="bracketright.case" horiz-adv-x="269" 
d="M185 -35h-142v17h124v748h-124v17h142v-782z" />
    <glyph glyph-name="hyphen.case" horiz-adv-x="376" 
d="M328 351h-280v17h280v-17z" />
    <glyph glyph-name="endash.case" horiz-adv-x="531" 
d="M483 351h-435v17h435v-17z" />
    <glyph glyph-name="emdash.case" horiz-adv-x="825" 
d="M777 351h-729v17h729v-17z" />
    <glyph glyph-name="hyphen.tf" 
d="M460 241h-280v18h280v-18z" />
    <glyph glyph-name="guillemotleft.case" horiz-adv-x="718" 
d="M344 104v-23l-250 255v24l250 255v-24l-237 -243zM624 104v-23l-250 255v24l250 255v-24l-237 -243z" />
    <glyph glyph-name="guillemotright.case" horiz-adv-x="718" 
d="M344 336l-250 -255v23l237 244l-237 243v24l250 -255v-24zM624 336l-250 -255v23l237 244l-237 243v24l250 -255v-24z" />
    <glyph glyph-name="guilsinglleft.case" horiz-adv-x="438" 
d="M344 104v-23l-250 255v24l250 255v-24l-237 -243z" />
    <glyph glyph-name="guilsinglright.case" horiz-adv-x="438" 
d="M344 336l-250 -255v23l237 244l-237 243v24l250 -255v-24z" />
    <glyph glyph-name="quotesinglbase.ss01" horiz-adv-x="236" 
d="M119 44q28 0 28 -30v-112q0 -51 -50 -51h-6v15h7q34 0 34 34v94h-13q-30 0 -30 25t30 25z" />
    <glyph glyph-name="quotedblbase.ss01" horiz-adv-x="356" 
d="M119 44q28 0 28 -30v-112q0 -51 -50 -51h-6v15h7q34 0 34 34v94h-13q-30 0 -30 25t30 25zM239 44q28 0 28 -30v-112q0 -51 -50 -51h-5v15h6q34 0 34 34v94h-13q-29 0 -29 25t29 25z" />
    <glyph glyph-name="quotedblleft.ss01" horiz-adv-x="279" 
d="M70 570h13q29 0 29 -24q0 -25 -29 -25q-28 0 -28 29v113q0 50 50 50h5v-15h-6q-34 0 -34 -34v-94zM190 570h13q29 0 29 -24q0 -25 -29 -25q-28 0 -28 29v113q0 50 50 50h5v-15h-6q-34 0 -34 -34v-94z" />
    <glyph glyph-name="quotedblright.ss01" horiz-adv-x="279" 
d="M76 712q28 0 28 -30v-112q0 -51 -50 -51h-5v15h6q34 0 34 34v94h-13q-29 0 -29 25q0 11 8 18t21 7zM196 712q28 0 28 -30v-112q0 -51 -50 -51h-5v15h6q34 0 34 34v94h-13q-29 0 -29 25q0 11 8 18t21 7z" />
    <glyph glyph-name="quoteleft.ss01" horiz-adv-x="159" 
d="M70 570h13q29 0 29 -24q0 -25 -29 -25q-28 0 -28 29v113q0 50 50 50h5v-15h-6q-34 0 -34 -34v-94z" />
    <glyph glyph-name="quoteright.ss01" horiz-adv-x="159" 
d="M76 712q28 0 28 -30v-112q0 -51 -50 -51h-5v15h6q34 0 34 34v94h-13q-29 0 -29 25q0 11 8 18t21 7z" />
    <glyph glyph-name="hyphen.dnom" horiz-adv-x="330" 
d="M268 159h-207v16h207v-16z" />
    <glyph glyph-name="parenleft.dnom" horiz-adv-x="280" 
d="M216 -135h-19q-113 139 -113 311q0 180 113 317h19q-115 -136 -115 -317q0 -175 115 -311z" />
    <glyph glyph-name="parenright.dnom" horiz-adv-x="280" 
d="M82 -135h-18q115 136 115 311q0 181 -115 317h18q114 -137 114 -317q0 -173 -114 -311z" />
    <glyph glyph-name="braceleft.dnom" horiz-adv-x="335" 
d="M271 -135h-50q-76 0 -76 73v169q0 35 -17 49.5t-64 15.5v15q46 0 63.5 15t17.5 50v168q0 73 76 73h50v-15h-47q-64 0 -64 -61v-166q0 -64 -55 -71v-1q31 -5 43 -22.5t12 -49.5v-166q0 -61 64 -61h47v-15z" />
    <glyph glyph-name="braceright.dnom" horiz-adv-x="335" 
d="M115 -135h-51v15h47q64 0 64 61v166q0 65 55 72v1q-55 7 -55 71v166q0 62 -64 62h-47v14h51q77 0 77 -73v-168q0 -35 16.5 -50t62.5 -15v-15q-45 0 -62 -15t-17 -50v-169q0 -73 -77 -73z" />
    <glyph glyph-name="bracketleft.dnom" horiz-adv-x="299" 
d="M235 -135h-131v628h131v-15h-115v-597h115v-16z" />
    <glyph glyph-name="bracketright.dnom" horiz-adv-x="299" 
d="M196 -135h-132v16h116v597h-116v15h132v-628z" />
    <glyph glyph-name="period.dnom" horiz-adv-x="221" 
d="M127 0h-33v31h33v-31z" />
    <glyph glyph-name="comma.dnom" horiz-adv-x="223" 
d="M98 -87h-4v14h4q17 0 17 17v60l-21 -3v28h35v-85q0 -31 -31 -31z" />
    <glyph glyph-name="hyphen.numr" horiz-adv-x="330" 
d="M268 531h-207v16h207v-16z" />
    <glyph glyph-name="parenleft.numr" horiz-adv-x="280" 
d="M216 237h-19q-113 139 -113 311q0 180 113 317h19q-115 -136 -115 -317q0 -175 115 -311z" />
    <glyph glyph-name="parenright.numr" horiz-adv-x="280" 
d="M82 237h-18q115 136 115 311q0 181 -115 317h18q114 -137 114 -317q0 -173 -114 -311z" />
    <glyph glyph-name="braceleft.numr" horiz-adv-x="335" 
d="M271 237h-50q-76 0 -76 73v169q0 35 -17 49.5t-64 15.5v15q46 0 63.5 15t17.5 50v168q0 73 76 73h50v-15h-47q-64 0 -64 -61v-166q0 -64 -55 -71v-1q31 -5 43 -22.5t12 -49.5v-166q0 -61 64 -61h47v-15z" />
    <glyph glyph-name="braceright.numr" horiz-adv-x="335" 
d="M115 237h-51v15h47q64 0 64 61v166q0 65 55 72v1q-55 7 -55 71v166q0 62 -64 62h-47v14h51q77 0 77 -73v-168q0 -35 16.5 -50t62.5 -15v-15q-45 0 -62 -15t-17 -50v-169q0 -73 -77 -73z" />
    <glyph glyph-name="bracketleft.numr" horiz-adv-x="299" 
d="M235 237h-131v628h131v-15h-115v-597h115v-16z" />
    <glyph glyph-name="bracketright.numr" horiz-adv-x="299" 
d="M196 237h-132v16h116v597h-116v15h132v-628z" />
    <glyph glyph-name="period.numr" horiz-adv-x="221" 
d="M127 372h-33v31h33v-31z" />
    <glyph glyph-name="comma.numr" horiz-adv-x="223" 
d="M98 285h-4v14h4q17 0 17 17v60l-21 -3v28h35v-85q0 -31 -31 -31z" />
    <glyph glyph-name="period.dnom.ss01" horiz-adv-x="230" 
d="M136 13q0 -19 -21 -19t-21 19q0 18 21 18t21 -18z" />
    <glyph glyph-name="comma.dnom.ss01" horiz-adv-x="224" 
d="M113 31q17 0 17 -19v-70q0 -31 -30 -31h-5v14h4q17 0 17 17v57h-3q-19 0 -19 16t19 16z" />
    <glyph glyph-name="period.numr.ss01" horiz-adv-x="230" 
d="M136 387q0 -19 -21 -19t-21 19q0 18 21 18t21 -18z" />
    <glyph glyph-name="comma.numr.ss01" horiz-adv-x="224" 
d="M113 405q17 0 17 -19v-70q0 -31 -30 -31h-5v14h4q17 0 17 17v57h-3q-19 0 -19 16t19 16z" />
    <glyph glyph-name="period.subs.ss01" horiz-adv-x="230" 
d="M136 -159q0 -19 -21 -19t-21 19q0 18 21 18t21 -18z" />
    <glyph glyph-name="comma.subs.ss01" horiz-adv-x="224" 
d="M113 -141q17 0 17 -19v-70q0 -31 -30 -31h-5v14h4q17 0 17 17v57h-3q-19 0 -19 16t19 16z" />
    <glyph glyph-name="period.sups.ss01" horiz-adv-x="230" 
d="M136 387q0 -19 -21 -19t-21 19q0 18 21 18t21 -18z" />
    <glyph glyph-name="comma.sups.ss01" horiz-adv-x="224" 
d="M113 405q17 0 17 -19v-70q0 -31 -30 -31h-5v14h4q17 0 17 17v57h-3q-19 0 -19 16t19 16z" />
    <glyph glyph-name="hyphen.subs" horiz-adv-x="330" 
d="M268 -15h-207v16h207v-16z" />
    <glyph glyph-name="braceleft.subs" horiz-adv-x="335" 
d="M271 -309h-50q-76 0 -76 73v169q0 35 -17 49.5t-64 15.5v15q46 0 63.5 15t17.5 50v168q0 73 76 73h50v-15h-47q-64 0 -64 -61v-166q0 -64 -55 -71v-1q31 -5 43 -22.5t12 -49.5v-166q0 -61 64 -61h47v-15z" />
    <glyph glyph-name="braceright.subs" horiz-adv-x="335" 
d="M115 -309h-51v15h47q64 0 64 61v166q0 65 55 72v1q-55 7 -55 71v166q0 62 -64 62h-47v14h51q77 0 77 -73v-168q0 -35 16.5 -50t62.5 -15v-15q-45 0 -62 -15t-17 -50v-169q0 -73 -77 -73z" />
    <glyph glyph-name="bracketleft.subs" horiz-adv-x="299" 
d="M235 -309h-131v628h131v-15h-115v-597h115v-16z" />
    <glyph glyph-name="bracketright.subs" horiz-adv-x="299" 
d="M196 -309h-132v16h116v597h-116v15h132v-628z" />
    <glyph glyph-name="period.subs" horiz-adv-x="221" 
d="M127 -174h-33v31h33v-31z" />
    <glyph glyph-name="comma.subs" horiz-adv-x="223" 
d="M98 -261h-4v14h4q17 0 17 17v60l-21 -3v28h35v-85q0 -31 -31 -31z" />
    <glyph glyph-name="hyphen.sups" horiz-adv-x="330" 
d="M268 531h-207v16h207v-16z" />
    <glyph glyph-name="braceleft.sups" horiz-adv-x="335" 
d="M271 237h-50q-76 0 -76 73v169q0 35 -17 49.5t-64 15.5v15q46 0 63.5 15t17.5 50v168q0 73 76 73h50v-15h-47q-64 0 -64 -61v-166q0 -64 -55 -71v-1q31 -5 43 -22.5t12 -49.5v-166q0 -61 64 -61h47v-15z" />
    <glyph glyph-name="braceright.sups" horiz-adv-x="335" 
d="M115 237h-51v15h47q64 0 64 61v166q0 65 55 72v1q-55 7 -55 71v166q0 62 -64 62h-47v14h51q77 0 77 -73v-168q0 -35 16.5 -50t62.5 -15v-15q-45 0 -62 -15t-17 -50v-169q0 -73 -77 -73z" />
    <glyph glyph-name="bracketleft.sups" horiz-adv-x="299" 
d="M235 237h-131v628h131v-15h-115v-597h115v-16z" />
    <glyph glyph-name="bracketright.sups" horiz-adv-x="299" 
d="M196 237h-132v16h116v597h-116v15h132v-628z" />
    <glyph glyph-name="period.sups" horiz-adv-x="221" 
d="M127 372h-33v31h33v-31z" />
    <glyph glyph-name="comma.sups" horiz-adv-x="223" 
d="M98 285h-4v14h4q17 0 17 17v60l-21 -3v28h35v-85q0 -31 -31 -31z" />
    <glyph glyph-name="Euro.micro" 
d="M466 701q-112 0 -183 -62.5t-93 -178.5h409v-18h-558v18h130q22 124 98 191.5t197 67.5q76 0 133 -25v-18q-57 25 -133 25zM167 266h-126v17h558v-17h-413q20 -123 92.5 -189t187.5 -66q77 0 133 25v-19q-63 -24 -133 -24q-126 0 -202.5 71t-96.5 202z" />
    <glyph glyph-name="uni20BA.micro" 
d="M208 492l249 131v-18l-412 -217v19l145 76v229h18v-220zM579 246h17q-4 -112 -83 -179t-202 -67h-121v274l-145 -76v19l412 216v-18l-249 -131v-267h103q115 0 189 63q74 62 79 166z" />
    <glyph glyph-name="uni20B9.micro" 
d="M582 712v-18h-206q26 -82 27 -165h179v-17h-179q-3 -66 -41.5 -112t-103.5 -60q55 -4 86 -31t49 -91l63 -218h-19l-61 214q-20 68 -56 91q-38 24 -121 24h-141v18h142q81 0 131.5 45t53.5 120h-327v17h327q-1 83 -27 165h-300v18h524z" />
    <glyph glyph-name="sterling.micro" 
d="M314 17h261v-17h-509v17h231q-1 175 -78 297l-153 -1v15h144l-41 63q-53 83 -53 154q0 81 55 130t146 49t146.5 -50t57.5 -133h-17q-3 76 -53.5 121t-133.5 45t-133 -44t-50 -118q0 -66 51 -148l44 -69h220v-15l-211 1q75 -119 76 -297z" />
    <glyph glyph-name="yen.micro" 
d="M605 712h22l-289 -405h237v-17h-508v17h237l-290 405h22l277 -386l9 -14l8 14zM312 154h-245v18h508v-18h-245v-154h-18v154z" />
    <glyph glyph-name="equal.sups" horiz-adv-x="527" 
d="M460 618h-392v14h392v-14zM460 472h-392v15h392v-15z" />
    <glyph glyph-name="uni2219.ss01" horiz-adv-x="277" 
d="M138 244q-27 -2 -38 20.5t0 45.5t38 21q28 2 40 -21t0 -45.5t-40 -20.5z" />
    <glyph glyph-name="divide.ss01" 
d="M339 455q-11 -11 -25.5 -6.5t-18 17.5t6.5 25q11 10 25 5.5t18 -16.5t-6 -25zM566 300h-493v18h493v-18zM339 127q-18 -17 -36.5 1t-0.5 36q11 11 25 6t18 -18t-6 -25z" />
    <glyph glyph-name="plus.tf" 
d="M328 319h267v-18h-267v-265h-17v265h-265v18h265v266h17v-266z" />
    <glyph glyph-name="minus.tf" 
d="M585 301h-529v18h529v-18z" />
    <glyph glyph-name="cent.dnom" horiz-adv-x="450" 
d="M233 -17q54 0 89 27t41 73h17q-7 -51 -43.5 -82t-94.5 -33v-83h-15v83q-73 2 -114.5 48t-41.5 123t41 122t115 47v87h15v-87q60 -2 96 -32.5t42 -74.5h-17q-4 39 -38 65.5t-92 26.5q-69 0 -107 -41.5t-38 -113.5t38.5 -113.5t106.5 -41.5z" />
    <glyph glyph-name="dollar.dnom" horiz-adv-x="416" 
d="M376 61q0 -56 -43.5 -88.5t-116.5 -33.5v-88h-14v88q-75 2 -116.5 38.5t-44.5 99.5h16q3 -59 43 -91.5t112 -32.5q68 0 107.5 28.5t39.5 78.5q0 83 -110 97l-67 10q-65 9 -97.5 32.5t-32.5 72.5q0 51 40.5 81.5t109.5 31.5v81h14v-81q66 -3 105.5 -36.5t43.5 -87.5h-16
q-4 51 -42.5 80t-103.5 29q-60 0 -97.5 -26.5t-37.5 -71.5q0 -40 28.5 -60.5t88.5 -29.5l67 -10q60 -8 92 -36.5t32 -74.5z" />
    <glyph glyph-name="Euro.dnom" horiz-adv-x="418" 
d="M295 415q-67 0 -111.5 -36.5t-58.5 -103.5h266v-14h-363v14h80q15 74 64 114.5t122 40.5q55 0 97 -18v-17q-46 20 -96 20zM107 157h-79v15h363v-15h-267q13 -70 58 -108.5t113 -38.5q51 0 96 20v-17q-42 -18 -97 -18q-75 0 -124.5 42.5t-62.5 119.5z" />
    <glyph glyph-name="plus.dnom" horiz-adv-x="542" 
d="M279 188h196v-15h-196v-173h-16v173h-195v15h195v174h16v-174z" />
    <glyph glyph-name="minus.dnom" horiz-adv-x="527" 
d="M460 173h-392v15h392v-15z" />
    <glyph glyph-name="equal.dnom" horiz-adv-x="527" 
d="M460 246h-392v14h392v-14zM460 100h-392v15h392v-15z" />
    <glyph glyph-name="cent.numr" horiz-adv-x="450" 
d="M233 353q54 0 89 27.5t41 73.5h17q-7 -51 -43.5 -82t-94.5 -33v-83h-15v83q-73 2 -114.5 47.5t-41.5 122.5t41 122t115 47v87h15v-87q60 -2 96 -32.5t42 -74.5h-17q-4 39 -38 66t-92 27q-69 0 -107 -41.5t-38 -113.5t38.5 -114t106.5 -42z" />
    <glyph glyph-name="dollar.numr" horiz-adv-x="448" 
d="M392 433q0 -56 -43.5 -88.5t-116.5 -33.5v-88h-14v88q-75 2 -116.5 38.5t-44.5 99.5h16q3 -59 43 -91t112 -32q68 0 107.5 28.5t39.5 78.5q0 80 -110 97l-67 9q-65 10 -97.5 33t-32.5 72q0 51 40.5 81.5t109.5 31.5v81h14v-81q66 -3 105.5 -36.5t43.5 -87.5h-16
q-4 51 -42.5 80t-103.5 29q-61 0 -98 -26.5t-37 -71.5q0 -40 28.5 -60.5t88.5 -29.5l67 -9q124 -18 124 -112z" />
    </font>
</defs>
</svg>
