<?xml version="1.0" standalone="no"?>
<!DOCTYPE svg PUBLIC "-//W3C//DTD SVG 1.1//EN" "http://www.w3.org/Graphics/SVG/1.1/DTD/svg11.dtd" >
<svg xmlns="http://www.w3.org/2000/svg" xmlns:xlink="http://www.w3.org/1999/xlink" version="1.1">
<metadata>
Created by FontForge 20170924 at Sun Apr 14 18:27:17 2019
 By www-data
Copyright (c) 2019 Monotype Imaging Inc. All rights reserved.
</metadata>
<defs>
<font id="HelveticaNowDisplay-Bold" horiz-adv-x="0" >
  <font-face 
    font-family="HelveticaNowDisplay Bold"
    font-weight="700"
    font-stretch="normal"
    units-per-em="1000"
    panose-1="2 11 8 4 3 2 2 2 2 4"
    ascent="875"
    descent="-125"
    x-height="515.999"
    cap-height="712"
    bbox="-384 -334 1269 1047"
    underline-thickness="50"
    underline-position="-250"
    unicode-range="U+000D-FEFF"
  />
<missing-glyph horiz-adv-x="651" 
d="M592 0h-534v712h534v-712zM180 604v-496h290v496h-290z" />
    <glyph glyph-name="fi" unicode="fi" horiz-adv-x="572" 
d="M93 516v39c0 50 14 89.167 42 117.5s70.333 42.5 127 42.5c25.333 0 47 -1 65 -3v-97h-44c-43.333 0 -65 -20.667 -65 -62v-37h106v-96h-106v-420h-125v420h-80v96h80zM395 701h124v-118h-124v118zM394 0v516h126v-516h-126z" />
    <glyph glyph-name="fl" unicode="fl" horiz-adv-x="565" 
d="M93 516v39c0 50 14 89.167 42 117.5s70.333 42.5 127 42.5c25.333 0 47 -1 65 -3v-97h-44c-43.333 0 -65 -20.667 -65 -62v-37h106v-96h-106v-420h-125v420h-80v96h80zM387 0v712h126v-712h-126z" />
    <glyph glyph-name=".notdef" horiz-adv-x="651" 
d="M592 0h-534v712h534v-712zM180 604v-496h290v496h-290z" />
    <glyph glyph-name="NULL" 
 />
    <glyph glyph-name="NULL" 
 />
    <glyph glyph-name="CR" unicode="&#xd;" horiz-adv-x="216" 
 />
    <glyph glyph-name="space" unicode=" " horiz-adv-x="216" 
 />
    <glyph glyph-name="exclam" unicode="!" horiz-adv-x="223" 
d="M146 217h-71l-31 312v183h135v-183zM185 0h-147v143h147v-143z" />
    <glyph glyph-name="quotedbl" unicode="&#x22;" horiz-adv-x="466" 
d="M173 409h-94l-21 303h135zM387 409h-94l-20 303h135z" />
    <glyph glyph-name="numbersign" unicode="#" horiz-adv-x="679" 
d="M653 526l-21 -103h-94l-27 -134h94l-21 -103h-94l-38 -186h-116l38 186h-139l-38 -186h-116l38 186h-93l21 103h93l27 134h-93l21 103h93l38 186h116l-38 -186h139l38 186h116l-38 -186h94zM256 289h139l27 134h-139z" />
    <glyph glyph-name="dollar" unicode="$" horiz-adv-x="637" 
d="M617 203c0 -65.333 -22.6641 -117 -67.9971 -155s-109 -59 -191 -63v-101h-72v102c-82.667 6 -146.834 30.5 -192.501 73.5s-68.834 101.5 -69.501 175.5h133c2 -82.667 45 -129 129 -139v212l-15 3c-152.667 28.667 -229 100.667 -229 216c0 58.667 21.5 106 64.5 142
s102.833 55.667 179.5 59v100h72v-102c77.333 -8 135.666 -31.333 174.999 -70s60.333 -90.667 63 -156h-131c-4 66 -39.667 104.667 -107 116v-198l23 -4c83.333 -16.667 143.5 -41.5 180.5 -74.5s55.5 -78.5 55.5 -136.5zM180.003 531c0 -26 7.83301 -46.167 23.5 -60.5
s43.167 -26.5 82.5 -36.5v184c-70.667 -5.33301 -106 -34.333 -106 -87zM358.003 293v-198.999c79.333 6 119 40 119 102c0 25.333 -8.83301 45.166 -26.5 59.499s-48.5 26.833 -92.5 37.5z" />
    <glyph glyph-name="percent" unicode="%" horiz-adv-x="901" 
d="M324 346c-29.333 -37.333 -72.666 -56 -129.999 -56s-100.666 18.667 -129.999 56s-44 90.333 -44 159c0 70 14.667 123.5 44 160.5s72.666 55.5 129.999 55.5s100.666 -18.5 129.999 -55.5s44 -90.5 44 -160.5c0 -68.667 -14.667 -121.667 -44 -159zM306 0h-91l380 712
h91zM119 505c0 -90 25 -135 75 -135s75 45 75 135c0 90.667 -25 136 -75 136s-75 -45.333 -75 -136zM837 47c-29.333 -37.333 -72.666 -56 -129.999 -56s-100.666 18.667 -129.999 56s-44 90.333 -44 159c0 70 14.667 123.5 44 160.5s72.666 55.5 129.999 55.5
s100.666 -18.5 129.999 -55.5s44 -90.5 44 -160.5c0 -68.667 -14.667 -121.667 -44 -159zM707 71c50 0 75 45 75 135c0 90.667 -25 136 -75 136c-50.667 0 -76 -45.333 -76 -136c0 -90 25.333 -135 76 -135z" />
    <glyph glyph-name="ampersand" unicode="&#x26;" horiz-adv-x="693" 
d="M560 148l132.998 -148.004h-158l-52 59c-60.667 -50 -131.667 -75 -213 -75c-75.333 0 -134.666 19.667 -177.999 59c-44 38.667 -66 88.334 -66 149.001c0 45.333 12.5 84.333 37.5 117s64.167 62.334 117.5 89.001c-28 32 -47.833 60 -59.5 84s-17.5 49 -17.5 75
c0 48.667 18 89.334 54 122.001c35.333 32.667 84 49 146 49c58.667 0 106.334 -15 143.001 -45c37.333 -30 56 -70 56 -120c0 -75.333 -49 -138.333 -147 -189l124 -138c14.667 36 22.667 74 24 114h116c-2.66699 -73.333 -22.667 -140.666 -60 -201.999zM307.998 626.996
c-22 0 -40.332 -6.5 -54.999 -19.5s-22 -29.833 -22 -50.5c0 -29.333 20.333 -66.333 61 -111l2 -2c61.333 34 92 71.667 92 113c0 20 -7.33301 36.667 -22 50s-33.334 20 -56.001 20zM280.999 91.9961c48.667 0 92.332 15.667 130.999 47l-167 186
c-58 -32 -87 -73 -87 -123c0 -30.667 11.333 -56.667 34 -78s52.334 -32 89.001 -32z" />
    <glyph glyph-name="quotesingle" unicode="'" horiz-adv-x="252" 
d="M173 409h-94l-21 303h135z" />
    <glyph glyph-name="parenleft" unicode="(" horiz-adv-x="290" 
d="M284 -196h-116c-83.333 144.667 -125 307.667 -125 489c0 184.667 41.667 348.667 125 492h116c-39.333 -74 -67.666 -149.833 -84.999 -227.5s-26 -165.834 -26 -264.501c0 -95.333 8.66699 -181.666 26 -258.999s45.666 -154 84.999 -230z" />
    <glyph glyph-name="parenright" unicode=")" horiz-adv-x="290" 
d="M121 -196h-115c39.333 76 67.666 152.667 84.999 230s26 163.666 26 258.999c0 98.667 -8.66699 186.834 -26 264.501s-45.666 153.5 -84.999 227.5h115c84 -143.333 126 -307.333 126 -492c0 -183.333 -42 -346.333 -126 -489z" />
    <glyph glyph-name="asterisk" unicode="*" horiz-adv-x="464" 
d="M232 429l-86 -116l-67 53l88 119l-140 45l28 80l134 -43v145h86v-145l135 43l28 -80l-140 -45l87 -119l-67 -53z" />
    <glyph glyph-name="plus" unicode="+" horiz-adv-x="528" 
d="M323 410h172v-108h-172v-172h-117v172h-173v108h173v173h117v-173z" />
    <glyph glyph-name="comma" unicode="," horiz-adv-x="223" 
d="M38 0v143h147v-154c0 -94 -43 -142.667 -129 -146h-18v72l17 1c30.667 2 46 24.333 46 67v17h-63z" />
    <glyph glyph-name="hyphen" unicode="-" horiz-adv-x="364" 
d="M330 227h-297v108h297v-108z" />
    <glyph glyph-name="period" unicode="." horiz-adv-x="223" 
d="M185 0h-147v143h147v-143z" />
    <glyph glyph-name="slash" unicode="/" horiz-adv-x="389" 
d="M128 0h-122l255 712h122z" />
    <glyph glyph-name="zero" unicode="0" horiz-adv-x="653" 
d="M326 -16c-93.333 0 -164.166 32 -212.499 96s-72.5 156 -72.5 276s24.167 212 72.5 276s119.166 96 212.499 96s164.333 -32 213 -96s73 -156 73 -276s-24.333 -212 -73 -276s-119.667 -96 -213 -96zM326 98c96.667 0 145 86 145 258s-48.333 258 -145 258
c-96 0 -144 -86 -144 -258s48 -258 144 -258z" />
    <glyph glyph-name="one" unicode="1" horiz-adv-x="393" 
d="M227 712l107 0.000976562v-712h-135v480h-164v95l16 1c52 3.33301 91.833 15.166 119.5 35.499s46.5 53.833 56.5 100.5z" />
    <glyph glyph-name="two" unicode="2" horiz-adv-x="590" 
d="M190 114l367.003 0.00195312v-114h-518l3 53c2.66699 54.667 14 103.667 34 147c24.667 54 75.667 98.667 153 134l70 36c41.333 20 70.666 40.333 87.999 61s26 46.334 26 77.001c0 32.667 -10.333 58.5 -31 77.5s-49.334 28.5 -86.001 28.5
c-82 0 -123 -43.333 -123 -130h-130c-0.666992 76.667 21.166 136.5 65.499 179.5s108.166 64.5 191.499 64.5c76.667 0 137.334 -19.333 182.001 -58s67 -89.334 67 -152.001c0 -54 -15 -99.833 -45 -137.5s-77.667 -72.834 -143 -105.501l-66 -35
c-37.333 -20 -63.5 -38.833 -78.5 -56.5s-23.833 -40.834 -26.5 -69.501z" />
    <glyph glyph-name="three" unicode="3" horiz-adv-x="614" 
d="M463 380c37.333 -16 66.834 -39.166 88.501 -69.499s32.5 -65.833 32.5 -106.5c0 -66 -24 -119 -72 -159c-48.667 -40.667 -113.667 -61 -195 -61c-90.667 0 -159.834 22.167 -207.501 66.5s-71.5 106.166 -71.5 185.499h131c2 -92 50 -138 144 -138
c40.667 0 72.667 10 96 30s35 47 35 81c0 36.667 -12 65 -36 85s-57.333 30 -100 30h-53v99h52c83.333 0 125 33 125 99c0 30 -10.667 53.5 -32 70.5s-50.666 25.5 -87.999 25.5c-80.667 0 -123 -37.667 -127 -113h-130c1.33301 71.333 24.166 126.333 68.499 165
s107.5 58 189.5 58c76.667 0 137.5 -17.5 182.5 -52.5s67.5 -82.5 67.5 -142.5c0 -68 -33.333 -119 -100 -153z" />
    <glyph glyph-name="four" unicode="4" horiz-adv-x="629" 
d="M510 278h95v-114h-95v-164h-135v164h-346v128l333 420h148v-434zM378 278v289l-229 -289h229z" />
    <glyph glyph-name="five" unicode="5" horiz-adv-x="604" 
d="M326 468c77.333 0 137.667 -22.6699 181 -68.0029c42 -45.333 63 -101.666 63 -168.999c0 -74 -24.667 -133.667 -74 -179s-113.333 -68 -192 -68c-72.667 0 -133.667 19.667 -183 59c-48 38.667 -74.667 92 -80 160h129c4.66699 -34 19.167 -60.833 43.5 -80.5
s54.5 -29.5 90.5 -29.5c40.667 0 73.5 12.833 98.5 38.5s37.5 58.834 37.5 99.501s-12.5 73.834 -37.5 99.501s-57.833 38.5 -98.5 38.5c-60 0 -101.667 -24 -125 -72h-124l66 415h412v-114h-306l-31 -177c38.667 31.333 82 47 130 47z" />
    <glyph glyph-name="six" unicode="6" horiz-adv-x="623" 
d="M345 468c75.333 0 134.667 -22.667 178 -68c42.667 -45.333 64 -101.666 64 -168.999c0 -74.667 -24.333 -134.334 -73 -179.001c-49.333 -45.333 -113 -68 -191 -68c-66.667 0 -123 17 -169 51c-75.333 57.333 -113 161 -113 311c0 122.667 24.333 217 73 283
s119 99 211 99c68.667 0 125.334 -17.5 170.001 -52.5s72 -83.5 82 -145.5h-127c-12.667 62.667 -54 94 -124 94c-52 0 -90.833 -19.667 -116.5 -59s-39.834 -101.333 -42.501 -186c40 59.333 99.333 89 178 89zM226.001 131c25.333 -25.333 57.668 -38.001 97.001 -38.001
s71.666 12.667 96.999 38c24 24.667 36 57.334 36 98.001c0 40 -12.333 72.667 -37 98s-56.667 38 -96 38c-40 0 -72.5 -12.667 -97.5 -38s-37.5 -58 -37.5 -98s12.667 -72.667 38 -98z" />
    <glyph glyph-name="seven" unicode="7" horiz-adv-x="519" 
d="M16 598v113.999h487v-108c-80.667 -85.333 -139 -174.666 -175 -267.999c-37.333 -96 -57 -208 -59 -336h-140c4 230 82.667 429.333 236 598h-349z" />
    <glyph glyph-name="eight" unicode="8" horiz-adv-x="611" 
d="M461 378c82.667 -32 124 -90.667 124 -176c0 -66.667 -25 -119.334 -75 -158.001c-50.667 -40 -118.667 -60 -204 -60s-153 20 -203 60c-50 38.667 -75 91.334 -75 158.001c0 84 41 142.667 123 176c-62.667 32.667 -94 83.667 -94 153c0 60.667 23 108.667 69 144
c46.667 35.333 106.667 53 180 53s133.333 -17.667 180 -53c46 -35.333 69 -83.333 69 -144c0 -69.333 -31.333 -120.333 -94 -153zM398 599c-22.667 18 -53.3359 27 -92.0029 27c-37.333 0 -67.666 -9 -90.999 -27s-35 -43.333 -35 -76c0 -31.333 11.333 -56 34 -74
s53.334 -27 92.001 -27s69.334 9 92.001 27s34 42.667 34 74c0 32.667 -11.333 58 -34 76zM305.998 92c46 0 81.499 10.333 106.499 31s37.5 49.667 37.5 87c0 38 -12.667 67.333 -38 88s-60.666 31 -105.999 31s-80.666 -10.333 -105.999 -31s-38 -50 -38 -88
c0 -37.333 12.667 -66.333 38 -87s60.666 -31 105.999 -31z" />
    <glyph glyph-name="nine" unicode="9" horiz-adv-x="623" 
d="M469 673c75.333 -57.333 113 -161 113 -311c0 -121.333 -23.833 -215.333 -71.5 -282s-116.5 -100 -206.5 -100c-70.667 0 -128.834 17.5 -174.501 52.5s-73.167 83.5 -82.5 145.5h126c12.667 -62.667 56 -94 130 -94c50 0 87.333 19.667 112 59
s38.334 101.333 41.001 186c-40 -59.333 -99.333 -89 -178 -89c-74.667 0 -133.667 23 -177 69c-43.333 45.333 -65 101 -65 167c0 74 24.667 134 74 180c49.333 45.333 113 68 191 68c66 0 122 -17 168 -51zM204 381c25.333 -25.333 57.668 -38 97.001 -38
s71.666 12.667 96.999 38c24.667 24.667 37 57.334 37 98.001c0 40 -12.333 72.667 -37 98s-57 38 -97 38c-39.333 0 -71.5 -12.833 -96.5 -38.5s-37.5 -58.167 -37.5 -97.5c0 -40.667 12.333 -73.334 37 -98.001z" />
    <glyph glyph-name="colon" unicode=":" horiz-adv-x="223" 
d="M185 348h-147v143h147v-143zM185 0h-147v143h147v-143z" />
    <glyph glyph-name="semicolon" unicode=";" horiz-adv-x="223" 
d="M38 347v143h147v-143h-147zM101 0h-63v143h147v-154c0 -94 -43 -142.667 -129 -146h-18v72l17 1c30.667 2 46 24.333 46 67v17z" />
    <glyph glyph-name="less" unicode="&#x3c;" horiz-adv-x="528" 
d="M495 605v-126l-92 -37c-130.667 -46 -213.334 -74.667 -248.001 -86c44.667 -14 127.334 -42.333 248.001 -85l92 -37v-126l-462 186v125z" />
    <glyph glyph-name="equal" unicode="=" horiz-adv-x="528" 
d="M495 398h-462v103h462v-103zM495 211h-462v103h462v-103z" />
    <glyph glyph-name="greater" unicode="&#x3e;" horiz-adv-x="528" 
d="M33 479v126l462 -186v-125l-462 -186v126l92 37c120.667 42.667 203.334 71 248.001 85c-34.667 11.333 -117.334 40 -248.001 86z" />
    <glyph glyph-name="question" unicode="?" horiz-adv-x="531" 
d="M317 217l-122.002 0.000976562c0 52.667 7.33301 93.334 22 122.001c10.667 22.667 36.334 49.667 77.001 81c13.333 10 23 17.5 29 22.5s12.333 11.167 19 18.5s12.667 15.666 18 24.999c8.66699 13.333 13 27.666 13 42.999c0 60.667 -35 91 -105 91
c-40 0 -69.5 -9.83301 -88.5 -29.5s-29.5 -52.5 -31.5 -98.5h-127c0 78 21.333 136.833 64 176.5s104.334 59.5 185.001 59.5c73.333 0 131.333 -16.5 174 -49.5s64 -79.5 64 -139.5c0 -64.667 -34.667 -123 -104 -175c-38 -28 -62.333 -51.333 -73 -70
c-9.33301 -15.333 -14 -41 -14 -77zM328.998 0.000976562h-146v143h146v-143z" />
    <glyph glyph-name="at" unicode="@" horiz-adv-x="923" 
d="M464 728c126.667 0 230.337 -35.3359 311.004 -106.003c80 -71.333 120 -162.666 120 -273.999c0 -78.667 -17 -143 -51 -193c-34.667 -50 -82.667 -75 -144 -75c-34.667 0 -63.834 7.66699 -87.501 23s-39.5 36.666 -47.5 63.999c-26 -56.667 -72 -85 -138 -85
c-54.667 0 -98.334 19.667 -131.001 59s-49 94.333 -49 165c0 68.667 16.667 122.834 50 162.501s76.666 59.5 129.999 59.5c54 0 94 -21 120 -63v51h113v-268c0 -47.333 17.333 -71 52 -71c27.333 0 48.333 15 63 45s22 70.667 22 122c0 86.667 -29.667 157.667 -89 213
c-58.667 54.667 -140.334 82 -245.001 82c-102 0 -183.333 -31 -244 -93c-61.333 -62.667 -92 -143.667 -92 -243c0 -103.333 31.667 -185.666 95 -246.999c62.667 -60.667 145.334 -91 248.001 -91c74 0 140 12 198 36v-87c-60.667 -23.333 -127.334 -35 -200.001 -35
c-132 0 -238.333 39 -319 117c-80.667 78.667 -121 181 -121 307c0 122.667 40.333 224.334 121 305.001c80 80 185 120 315 120zM361.003 305.997c0 -88 31.333 -132 94 -132s94 44 94 132c0 40.667 -8.16699 72.5 -24.5 95.5s-39.5 34.5 -69.5 34.5
c-62.667 0 -94 -43.333 -94 -130z" />
    <glyph glyph-name="A" unicode="A" horiz-adv-x="718" 
d="M711 0h-143l-56 157h-312l-55 -157h-139l271 712h158zM268 349l-27.001 -76.999h230l-28 77c-23.333 59.333 -52.666 140.666 -87.999 243.999c-28 -82.667 -57 -164 -87 -244z" />
    <glyph glyph-name="B" unicode="B" horiz-adv-x="659" 
d="M515 375c39.333 -14 69.833 -36.3311 91.5 -66.998s32.5 -65.334 32.5 -104.001c0 -64.667 -21.167 -114.834 -63.5 -150.501s-103.833 -53.5 -184.5 -53.5h-333v712h322c74.667 0 131.667 -17 171 -51s59 -78.333 59 -133c0 -70 -31.667 -121 -95 -153zM370 601.002
h-177v-186h177c34 0 60.167 8.5 78.5 25.5s27.5 40.5 27.5 70.5c0 28 -9.33301 50 -28 66s-44.667 24 -78 24zM193 112.002h191c38 0 67 8.5 87 25.5s30 41.167 30 72.5c0 66 -39 99 -117 99h-191v-197z" />
    <glyph glyph-name="C" unicode="C" horiz-adv-x="725" 
d="M373 -16c-102.667 0 -185.669 33.6689 -249.002 101.002c-64 67.333 -96 157.666 -96 270.999c0 114 31.667 204.667 95 272c62.667 66.667 146 100 250 100c83.333 0 154.333 -22.333 213 -67s95.334 -109.334 110.001 -194.001h-137
c-12 46.667 -34.167 82.167 -66.5 106.5s-72.166 36.5 -119.499 36.5c-63.333 0 -113.166 -22.5 -149.499 -67.5s-54.5 -107.167 -54.5 -186.5c0 -80 18 -142.333 54 -187s86 -67 150 -67c49.333 0 91.666 14.667 126.999 44s56.666 70 63.999 122h135
c-8.66699 -90.667 -44 -160.667 -106 -210c-61.333 -49.333 -134.666 -74 -219.999 -74z" />
    <glyph glyph-name="D" unicode="D" horiz-adv-x="716" 
d="M58 712h272c114 0 202 -31.667 264 -95c62 -64 93 -151 93 -261s-31 -196.667 -93 -260c-62 -64 -150 -96 -264 -96h-272v712zM193 116h135c70 0 124 20.5 162 61.5s57 100.5 57 178.5s-19 137.5 -57 178.5s-92 61.5 -162 61.5h-135v-480z" />
    <glyph glyph-name="E" unicode="E" horiz-adv-x="608" 
d="M583 712v-121h-390v-168h353v-116h-353v-186h388v-121h-523v712h525z" />
    <glyph glyph-name="F" unicode="F" horiz-adv-x="576" 
d="M561 712v-121h-368v-168h335v-116h-335v-307h-135v712h503z" />
    <glyph glyph-name="G" unicode="G" horiz-adv-x="765" 
d="M399 275l0.000976562 109h318v-384h-98l-19 94c-51.333 -73.333 -128.666 -110 -231.999 -110c-102.667 0 -185 34 -247 102s-93 158 -93 270s31.667 202.333 95 271c63.333 67.333 149 101 257 101c89.333 0 163.666 -22.667 222.999 -68
c58.667 -45.333 94 -107 106 -185h-139c-10 42 -31.833 75 -65.5 99s-74.834 36 -123.501 36c-65.333 0 -117 -22.667 -155 -68s-57 -107.333 -57 -186s19.333 -140.667 58 -186s91.667 -68 159 -68c53.333 0 99 16 137 48s58.667 73.667 62 125h-186z" />
    <glyph glyph-name="H" unicode="H" horiz-adv-x="717" 
d="M524 426v286h135v-712h-135v304h-331v-304h-135v712h135v-286h331z" />
    <glyph glyph-name="I" unicode="I" horiz-adv-x="252" 
d="M193 0h-135v712h135v-712z" />
    <glyph glyph-name="J" unicode="J" horiz-adv-x="549" 
d="M261 -16c-73.333 0 -130.834 20.166 -172.501 60.499s-62.5 94.833 -62.5 163.5v46h129v-46c0 -34 9.33301 -60.5 28 -79.5s44.334 -28.5 77.001 -28.5c33.333 0 59.333 9.33301 78 28s28 45.334 28 80.001v504h134v-504c0 -67.333 -21.167 -121.5 -63.5 -162.5
s-100.833 -61.5 -175.5 -61.5z" />
    <glyph glyph-name="K" unicode="K" horiz-adv-x="700" 
d="M526 712h168l-293 -290l293 -422h-161l-228 332l-112 -109v-223h-135v712h135v-336z" />
    <glyph glyph-name="L" unicode="L" horiz-adv-x="548" 
d="M193 712v-591h339v-121h-474v712h135z" />
    <glyph glyph-name="M" unicode="M" horiz-adv-x="875" 
d="M501 373l119 338.999h196v-712h-129v217c0 133.333 1.33301 251 4 353c-14.667 -50 -32.667 -104.667 -54 -164l-144 -406h-111l-145 406c-25.333 74 -43 128 -53 162c2.66699 -101.333 4 -218.333 4 -351v-217h-130v712h196l123 -346
c8 -23.333 28.333 -87.666 61 -192.999c21.333 74 42.333 140.667 63 200z" />
    <glyph glyph-name="N" unicode="N" horiz-adv-x="718" 
d="M529 526v186h130v-712h-150l-198 317c-54 84.667 -96.333 156 -127 214c2.66699 -74.667 4 -189.667 4 -345v-186h-130v712h150l199 -317c59.333 -96 101.333 -167.333 126 -214c-2.66699 99.333 -4 214.333 -4 345z" />
    <glyph glyph-name="O" unicode="O" horiz-adv-x="768" 
d="M384 -16c-106.667 0 -192.667 34 -258 102c-65.333 68.667 -98 158.667 -98 270s32.667 201.333 98 270c65.333 68 151.333 102 258 102s192.667 -34 258 -102c64.667 -67.333 97 -157.333 97 -270s-32.333 -202.667 -97 -270c-65.333 -68 -151.333 -102 -258 -102z
M228 171c39.333 -45.333 91.333 -68.002 156 -68.002c65.333 0 117.666 22.667 156.999 68c38.667 44.667 58 106.334 58 185.001s-19.333 140.334 -58 185.001c-39.333 45.333 -91.666 68 -156.999 68c-64.667 0 -116.667 -22.667 -156 -68s-59 -107 -59 -185
s19.667 -139.667 59 -185z" />
    <glyph glyph-name="P" unicode="P" horiz-adv-x="651" 
d="M58 712l313 0.000976562c79.333 0 141.166 -20.833 185.499 -62.5s66.5 -98.167 66.5 -169.5c0 -70.667 -22.167 -126.834 -66.5 -168.501s-106.166 -62.5 -185.499 -62.5h-178v-249h-135v712zM193 365.001h172c39.333 0 69.5 9.83301 90.5 29.5s31.5 48.167 31.5 85.5
s-10.5 66 -31.5 86s-51.167 30 -90.5 30h-172v-231z" />
    <glyph glyph-name="Q" unicode="Q" horiz-adv-x="768" 
d="M739 356c0 -110.667 -32 -200 -96 -268l84 -91l-70 -67l-91 98c-53.333 -29.333 -114 -44 -182 -44c-106.667 0 -192.667 34 -258 102c-65.333 68.667 -98 158.667 -98 270s32.667 201.333 98 270c65.333 68 151.333 102 258 102s192.667 -34 258 -102
c64.667 -67.333 97 -157.333 97 -270zM384 103c34 0 65.333 6.66699 94 20l-82 89l71 67l85 -93c31.333 45.333 47 102 47 170c0 78 -19.333 139.667 -58 185s-91 68 -157 68c-64.667 0 -116.667 -22.667 -156 -68s-59 -107 -59 -185s19.667 -139.667 59 -185
s91.333 -68 156 -68z" />
    <glyph glyph-name="R" unicode="R" horiz-adv-x="665" 
d="M616 189l6.00098 -106.002c0.666992 -34 8 -61.667 22 -83h-139c-12 20 -18.333 48.333 -19 85l-3 78c-2 43.333 -11.833 73.5 -29.5 90.5s-45.834 25.5 -84.501 25.5h-176v-279h-135v712h323c79.333 0 141 -18 185 -54s66 -85 66 -147c0 -85.333 -39.667 -142 -119 -170
c36 -11.333 61.833 -29.166 77.5 -53.499s24.167 -57.166 25.5 -98.499zM193.001 600.998v-216h180c38 0 67.5 9.5 88.5 28.5s31.5 46.5 31.5 82.5c0 34 -10.833 60 -32.5 78s-52.5 27 -92.5 27h-175z" />
    <glyph glyph-name="S" unicode="S" horiz-adv-x="637" 
d="M329 -16c-96.667 0 -171.503 21.667 -224.503 65s-79.833 105.333 -80.5 186h133c0.666992 -50.667 15.834 -87 45.501 -109s73.167 -33 130.5 -33c46.667 0 82.334 8.83301 107.001 26.5s37 43.167 37 76.5c0 28 -10.5 49.333 -31.5 64s-59.167 27.667 -114.5 39l-60 12
c-152.667 28.667 -229 100.667 -229 216c0 61.333 23.333 110.166 70 146.499s111.334 54.5 194.001 54.5c94 0 165.167 -20 213.5 -60s73.833 -96 76.5 -168h-131c-2.66699 40.667 -16.167 70.667 -40.5 90s-63.166 29 -116.499 29c-41.333 0 -73 -7.66699 -95 -23
s-33 -37 -33 -65c0 -28.667 10.167 -50.667 30.5 -66s56.5 -28.333 108.5 -39l62 -12c83.333 -16.667 143.5 -41.5 180.5 -74.5s55.5 -78.5 55.5 -136.5c0 -69.333 -25.333 -123.166 -76 -161.499s-121.334 -57.5 -212.001 -57.5z" />
    <glyph glyph-name="T" unicode="T" horiz-adv-x="624" 
d="M16 712h592v-121h-228v-591h-136v591h-228v121z" />
    <glyph glyph-name="U" unicode="U" horiz-adv-x="692" 
d="M346 -15c-92.667 0 -165.5 24.833 -218.5 74.5s-79.5 119.167 -79.5 208.5v444h135v-445c0 -54 14 -95 42 -123s68.333 -42 121 -42s93 14 121 42s42 69 42 123v445h135v-444c0 -90.667 -26.333 -160.5 -79 -209.5s-125.667 -73.5 -219 -73.5z" />
    <glyph glyph-name="V" unicode="V" horiz-adv-x="686" 
d="M414 344l126.001 368h140l-255 -712h-158l-261 712h144l129 -368c30 -90.667 52.667 -164.667 68 -222c17.333 66 39.666 140 66.999 222z" />
    <glyph glyph-name="W" unicode="W" horiz-adv-x="978" 
d="M757 425l74.999 287h140l-197 -712h-152l-76 296c-31.333 130 -50.666 214 -57.999 252c-18.667 -88.667 -38 -172.667 -58 -252l-76 -296h-151l-198 712h141l74 -287c34.667 -138.667 56.334 -229 65.001 -271c21.333 100 41.666 190.667 60.999 272l73 286h139l73 -286
c18.667 -76 38.667 -167 60 -273c14 62 35.667 152.667 65 272z" />
    <glyph glyph-name="X" unicode="X" horiz-adv-x="669" 
d="M649 712l-234.999 -346.001l249 -366h-157l-78 115c-35.333 52.667 -67 101 -95 145c-28 -44 -59.667 -92.333 -95 -145l-79 -115h-153l251 363l-236 349h156l71 -106c18 -26 47.333 -71.667 88 -137c13.333 20.667 27 41.834 41 63.501s24.667 38.167 32 49.5
s12.666 19.333 15.999 24l72 106h152z" />
    <glyph glyph-name="Y" unicode="Y" horiz-adv-x="683" 
d="M450 584l78 128h149l-267 -431v-281h-135v281l-269 431h153l79 -129c64 -106.667 99.667 -166.667 107 -180c18 32 53 92.333 105 181z" />
    <glyph glyph-name="Z" unicode="Z" horiz-adv-x="627" 
d="M402 121h200v-121h-577v110l268 329c60 72.667 103.333 124 130 154c-122.667 -1.33301 -191.334 -2 -206.001 -2h-178v121h557v-109l-270 -330c-60 -72.667 -103.333 -124 -130 -154c122.667 1.33301 191.334 2 206.001 2z" />
    <glyph glyph-name="bracketleft" unicode="[" horiz-adv-x="346" 
d="M330 -196h-272v981h272v-106h-151v-769h151v-106z" />
    <glyph glyph-name="backslash" unicode="\" horiz-adv-x="389" 
d="M383 0h-122l-255 712h122z" />
    <glyph glyph-name="bracketright" unicode="]" horiz-adv-x="346" 
d="M287 -196h-271v106h151v769h-151v106h271v-981z" />
    <glyph glyph-name="asciicircum" unicode="^" horiz-adv-x="431" 
d="M154 712h122l152 -293h-116l-75 151c-10 21.333 -17 37.333 -21 48c-2 -4.66699 -5.5 -12.5 -10.5 -23.5s-8.83301 -19.167 -11.5 -24.5l-75 -151h-116z" />
    <glyph glyph-name="underscore" unicode="_" horiz-adv-x="462" 
d="M463 -170h-464v96h464v-96z" />
    <glyph glyph-name="grave" unicode="`" horiz-adv-x="400" 
d="M316 583h-103l-129 144h145z" />
    <glyph glyph-name="a" unicode="a" horiz-adv-x="539" 
d="M515 0h-125.998c-6 10.667 -10.667 31.667 -14 63c-34.667 -50 -90 -75 -166 -75c-56.667 0 -101.834 13.667 -135.501 41s-50.5 65.333 -50.5 114c0 94 66 147.667 198 161l78 7c26 3.33301 44.667 9.5 56 18.5s17 22.5 17 40.5c0 22 -7.16699 38.167 -21.5 48.5
s-38.5 15.5 -72.5 15.5c-36.667 0 -63 -6.16699 -79 -18.5s-25.333 -33.5 -28 -63.5h-124c7.33301 117.333 84.666 176 231.999 176c143.333 0 215 -51.667 215 -155v-275c0 -45.333 7 -78 21 -98zM239.002 78c39.333 0 71.332 10.832 95.999 32.499s37 52.834 37 93.501v47
c-12 -10.667 -31.667 -17.667 -59 -21l-68 -8c-33.333 -4 -57.166 -11.833 -71.499 -23.5s-21.5 -28.5 -21.5 -50.5s7.5 -39.167 22.5 -51.5s36.5 -18.5 64.5 -18.5z" />
    <glyph glyph-name="b" unicode="b" horiz-adv-x="596" 
d="M337 528c70.667 0 127 -24.334 169 -73.001c41.333 -49.333 62 -115 62 -197c0 -81.333 -20.667 -146.666 -62 -195.999c-42 -49.333 -98.333 -74 -169 -74c-72.667 0 -127.667 28.667 -165 86v-74h-121v712h126v-263c36.667 52.667 90 79 160 79zM210 134.999
c22.667 -28.667 55 -43.001 97 -43.001c41.333 0 74 15 98 45c23.333 29.333 35 71 35 125c0 52.667 -11.5 92.834 -34.5 120.501s-55.833 41.5 -98.5 41.5c-42 0 -74.667 -14.333 -98 -43s-35 -69.667 -35 -123c0 -54 12 -95 36 -123z" />
    <glyph glyph-name="c" unicode="c" horiz-adv-x="543" 
d="M283 -12c-76 0 -137.669 24.665 -185.002 73.998c-46.667 48.667 -70 114 -70 196c0 82.667 23.333 148.334 70 197.001c46 48.667 107.667 73 185 73c67.333 0 122.333 -17.833 165 -53.5s67.667 -83.834 75 -144.501h-126c-6 30 -19 53 -39 69s-45 24 -75 24
c-39.333 0 -70.166 -14.167 -92.499 -42.5s-33.5 -69.166 -33.5 -122.499s11.333 -94.166 34 -122.499s53.334 -42.5 92.001 -42.5c30.667 0 56.5 8.5 77.5 25.5s33.833 41.5 38.5 73.5h126c-6.66699 -62 -32 -111.5 -76 -148.5s-99.333 -55.5 -166 -55.5z" />
    <glyph glyph-name="d" unicode="d" horiz-adv-x="596" 
d="M419 449l-0.000976562 263h126v-712h-122v72c-38 -56 -92.333 -84 -163 -84c-71.333 0 -127.666 24.667 -168.999 74c-42 49.333 -63 114.666 -63 195.999c0 82.667 21 148.334 63 197.001c40.667 48.667 97 73 169 73c69.333 0 122.333 -26.333 159 -79zM191.999 133
c23.333 -27.333 55.668 -41.001 97.001 -41.001s74 14.333 98 43c23.333 28.667 35 69.667 35 123s-11.667 94.333 -35 123s-56 43 -98 43c-40.667 0 -72.834 -15 -96.501 -45s-35.5 -71.667 -35.5 -125s11.667 -93.666 35 -120.999z" />
    <glyph glyph-name="e" unicode="e" horiz-adv-x="568" 
d="M538 249l0.000976562 -29.999h-386c4.66699 -44 18.5 -77.167 41.5 -99.5s53.833 -33.5 92.5 -33.5c57.333 0 96.666 24.667 117.999 74h121c-13.333 -52.667 -41.333 -94.5 -84 -125.5s-94.667 -46.5 -156 -46.5c-76.667 0 -138.667 24.667 -186 74
s-71 114.666 -71 195.999s23.333 146.666 70 195.999c47.333 49.333 109 74 185 74c78 0 140 -25.667 186 -77s69 -118.666 69 -201.999zM282.001 430.001c-74 0 -117 -41 -129 -123h259c-5.33301 38 -19.333 68 -42 90s-52 33 -88 33z" />
    <glyph glyph-name="f" unicode="f" horiz-adv-x="349" 
d="M327 615h-44c-43.333 0 -65 -20.667 -65 -62v-37h106v-96h-106v-420h-125v420h-80v96h80v39c0 50 14 89.167 42 117.5s70.333 42.5 127 42.5c25.333 0 47 -1 65 -3v-97z" />
    <glyph glyph-name="g" unicode="g" horiz-adv-x="596" 
d="M423 445l-0.000976562 71.001h122v-499c0 -70 -22.167 -125 -66.5 -165s-107.166 -60 -188.499 -60c-72 0 -128.5 16 -169.5 48s-63.5 76 -67.5 132h124c6 -55.333 44.333 -83 115 -83c41.333 0 72.833 10.667 94.5 32s32.5 52.333 32.5 93v65
c-37.333 -51.333 -90 -77 -158 -77c-70 0 -126.333 24.333 -169 73c-42.667 47.333 -64 110.666 -64 189.999c0 80 21.333 143.667 64 191c42 48 98 72 168 72c72.667 0 127 -27.667 163 -83zM288.999 106.001c42 0 74.667 14 98 42s35 67 35 117s-11.667 89 -35 117
s-56 42 -98 42c-40.667 0 -72.834 -14.167 -96.501 -42.5s-35.5 -67.5 -35.5 -117.5c0 -49.333 11.833 -88 35.5 -116s55.834 -42 96.501 -42z" />
    <glyph glyph-name="h" unicode="h" horiz-adv-x="566" 
d="M334 528c56 0 100.168 -16.168 132.501 -48.501s48.5 -78.166 48.5 -137.499v-342h-126v321c0 65.333 -32.333 98 -97 98c-32 0 -59.167 -11.5 -81.5 -34.5s-33.5 -54.833 -33.5 -95.5v-289h-126v712h126v-265c39.333 54 91.666 81 156.999 81z" />
    <glyph glyph-name="i" unicode="i" horiz-adv-x="228" 
d="M176 583h-124v118h124v-118zM177 0h-126v516h126v-516z" />
    <glyph glyph-name="j" unicode="j" horiz-adv-x="228" 
d="M176 583h-124v118h124v-118zM25 -199c-4 0 -20 0.666992 -48 2v99h25c32.667 0 49 15 49 45v569h126v-583c0 -46 -12.5 -79.5 -37.5 -100.5s-63.167 -31.5 -114.5 -31.5z" />
    <glyph glyph-name="k" unicode="k" horiz-adv-x="550" 
d="M547 0h-144l-150 240l-78 -78v-162h-124v712h124v-410l210 214h150l-195 -195z" />
    <glyph glyph-name="l" unicode="l" horiz-adv-x="228" 
d="M177 0h-126v712h126v-712z" />
    <glyph glyph-name="m" unicode="m" horiz-adv-x="871" 
d="M640 528c56.667 0 100.833 -16.667 132.5 -50s47.5 -79 47.5 -137v-341h-126v321c0 65.333 -29.667 98 -89 98c-32 0 -57.833 -11.5 -77.5 -34.5s-29.5 -56.5 -29.5 -100.5v-284h-125v321c0 65.333 -30 98 -90 98c-31.333 0 -56.833 -11.5 -76.5 -34.5
s-29.5 -56.5 -29.5 -100.5v-284h-126v516h122v-74c35.333 57.333 84.333 86 147 86c78.667 0 132 -32 160 -96c38.667 64 92 96 160 96z" />
    <glyph glyph-name="n" unicode="n" horiz-adv-x="566" 
d="M334 528c56 0 100.167 -16.168 132.5 -48.501s48.5 -78.166 48.5 -137.499v-342h-126v321c0 65.333 -32.333 98 -97 98c-32 0 -59.167 -11.5 -81.5 -34.5s-33.5 -54.833 -33.5 -95.5v-289h-126v516h122v-74c39.333 57.333 93 86 161 86z" />
    <glyph glyph-name="o" unicode="o" horiz-adv-x="581" 
d="M481 62c-48 -49.333 -111.333 -74 -190 -74s-142 24.667 -190 74c-48.667 48.667 -73 114 -73 196s24.333 147.333 73 196c48 49.333 111.333 74 190 74s142 -24.333 190 -73s72 -114.334 72 -197.001c0 -81.333 -24 -146.666 -72 -195.999zM291 92
c42 0 74.833 14.5 98.5 43.5s35.5 69.833 35.5 122.5s-11.833 93.5 -35.5 122.5s-56.5 43.5 -98.5 43.5s-74.833 -14.333 -98.5 -43s-35.5 -69.667 -35.5 -123s11.833 -94.333 35.5 -123s56.5 -43 98.5 -43z" />
    <glyph glyph-name="p" unicode="p" horiz-adv-x="596" 
d="M337 528c70.667 0 127 -24.334 169 -73.001c41.333 -49.333 62 -115 62 -197c0 -81.333 -20.667 -146.666 -62 -195.999c-42 -49.333 -98.333 -74 -169 -74c-70 0 -123.333 26.333 -160 79v-263h-126v712h121v-74c37.333 57.333 92.333 86 165 86zM210 134.999
c22.667 -28.667 55 -43.001 97 -43.001c41.333 0 74 15 98 45c23.333 29.333 35 71 35 125c0 52.667 -11.5 92.834 -34.5 120.501s-55.833 41.5 -98.5 41.5c-42 0 -74.667 -14.333 -98 -43s-35 -69.667 -35 -123c0 -54 12 -95 36 -123z" />
    <glyph glyph-name="q" unicode="q" horiz-adv-x="596" 
d="M423 444l-0.000976562 72h122v-712h-126v263c-36.667 -52.667 -89.667 -79 -159 -79c-71.333 0 -127.666 24.667 -168.999 74c-42 49.333 -63 114.666 -63 195.999c0 82.667 21 148.334 63 197.001c40.667 48.667 97 73 169 73c70.667 0 125 -28 163 -84zM191.999 133
c23.333 -27.333 55.668 -41.001 97.001 -41.001s74 14.333 98 43c23.333 28.667 35 69.667 35 123s-11.667 94.333 -35 123s-56 43 -98 43c-40.667 0 -72.834 -15 -96.501 -45s-35.5 -71.667 -35.5 -125s11.667 -93.666 35 -120.999z" />
    <glyph glyph-name="r" unicode="r" horiz-adv-x="381" 
d="M327 524c11.333 0 21.667 -0.667969 31 -2.00098v-116h-32c-48 0 -84.833 -12.167 -110.5 -36.5s-38.5 -60.166 -38.5 -107.499v-262h-126v516h122v-92c28.667 66.667 80 100 154 100z" />
    <glyph glyph-name="s" unicode="s" horiz-adv-x="499" 
d="M254 -14c-150.667 0 -229.333 59.332 -236 177.999h123c3.33301 -32 13.833 -54.667 31.5 -68s45.5 -20 83.5 -20c68 0 102 20.667 102 62c0 18.667 -7.33301 33 -22 43s-41 18.333 -79 25l-59 10c-112.667 18.667 -169 70.667 -169 156
c0 48.667 18.667 86.834 56 114.501s90 41.5 158 41.5c147.333 0 223.333 -58.333 228 -175h-119c-1.33301 30.667 -11 52.5 -29 65.5s-44.667 19.5 -80 19.5c-60 0 -90 -20 -90 -60c0 -17.333 6.66699 -30.833 20 -40.5s35.333 -17.167 66 -22.5l65 -10
c62.667 -11.333 108.167 -29.333 136.5 -54s42.5 -59 42.5 -103c0 -52 -20 -92 -60 -120s-96.333 -42 -169 -42z" />
    <glyph glyph-name="t" unicode="t" horiz-adv-x="343" 
d="M320 516v-95.999h-102v-279c0 -16.667 4.5 -28.334 13.5 -35.001s24.167 -10 45.5 -10h43v-96c-27.333 -2.66699 -49.333 -4 -66 -4c-56 0 -96.833 10.5 -122.5 31.5s-38.5 54.5 -38.5 100.5v292h-80v96h80v150h125v-150h102z" />
    <glyph glyph-name="u" unicode="u" horiz-adv-x="566" 
d="M389 227l-0.000976562 289.001h126v-516h-122v75c-39.333 -58 -93.333 -87 -162 -87c-55.333 0 -99.166 16.167 -131.499 48.5s-48.5 78.166 -48.5 137.499v342h126v-321c0 -65.333 32.333 -98 97 -98c32 0 59.167 11.5 81.5 34.5s33.5 54.833 33.5 95.5z" />
    <glyph glyph-name="v" unicode="v" horiz-adv-x="534" 
d="M350 378l50 138.001h131l-192 -516h-145l-191 516h135l50 -139c23.333 -72.667 50.333 -160.334 81 -263.001c24.667 82.667 51.667 170.667 81 264z" />
    <glyph glyph-name="w" unicode="w" horiz-adv-x="826" 
d="M630 323l58.001 192.999h135l-170 -516h-132l-65 212c-24.667 86.667 -39.334 138 -44.001 154c-2 -7.33301 -16.333 -58.666 -43 -153.999l-64 -212h-132l-170 516h135l58 -193c14.667 -46 31.667 -105.667 51 -179c18.667 74 35 134 49 180l57 192h120l57 -192
c14 -46 30.333 -106 49 -180c17.333 66 34.333 125.667 51 179z" />
    <glyph glyph-name="x" unicode="x" horiz-adv-x="530" 
d="M517 516l-182 -250.999l192 -265h-144l-19 27c-32.667 48 -50.667 74.333 -54 79c-26 36.667 -41.333 59 -46 67c-47.333 -68.667 -81 -117.334 -101 -146.001l-19 -27h-141l192 264l-182 252h144l27 -38c35.333 -50 63 -90.667 83 -122c32.667 49.333 60 90 82 122
l27 38h141z" />
    <glyph glyph-name="y" unicode="y" horiz-adv-x="522" 
d="M346 386l42.001 129.999h132l-199 -558c-21.333 -58.667 -48 -99 -80 -121c-32.667 -22.667 -80 -34 -142 -34c-20.667 0 -39 1 -55 3v99h48c27.333 0 48.333 7.66699 63 23s22 35.333 22 60s-8 59.334 -24 104.001l-150 424h136l42 -129
c29.333 -92 56.666 -188 81.999 -288c20 75.333 47.667 171 83 287z" />
    <glyph glyph-name="z" unicode="z" horiz-adv-x="499" 
d="M294 98h175v-98h-438v83l204 257c9.33301 11.333 21.166 25.666 35.499 42.999s24.166 29.333 29.499 36c-16 -0.666992 -51.333 -1 -106 -1h-158v98h421v-83l-204 -257c-9.33301 -11.333 -21.166 -25.666 -35.499 -42.999s-24.166 -29.333 -29.499 -36
c16 0.666992 51.333 1 106 1z" />
    <glyph glyph-name="braceleft" unicode="{" horiz-adv-x="363" 
d="M348 -196h-65c-112 0 -168 52 -168 156v218c0 20.667 -6.33301 36.167 -19 46.5s-33.667 15.833 -63 16.5v106c29.333 0.666992 50.333 6.16699 63 16.5s19 25.833 19 46.5v218c0 104.667 56 157 168 157h65v-105h-52c-23.333 0 -39.5 -5 -48.5 -15
s-13.5 -25.667 -13.5 -47v-233c0 -56.667 -32 -86.667 -96 -90v-2c64 -3.33301 96 -33 96 -89v-234c0 -21.333 4.5 -37 13.5 -47s25.167 -15 48.5 -15h52v-104z" />
    <glyph glyph-name="bar" unicode="|" horiz-adv-x="223" 
d="M165 -200h-107v997h107v-997z" />
    <glyph glyph-name="braceright" unicode="}" horiz-adv-x="363" 
d="M81 -196l-65 -0.000976562v104h52c23.333 0 39.5 5 48.5 15s13.5 25.667 13.5 47v234c0 28.667 7.5 50.334 22.5 65.001s39.167 22.667 72.5 24v2c-63.333 3.33301 -95 33.333 -95 90v233c0 21.333 -4.5 37 -13.5 47s-25.167 15 -48.5 15h-52v105h65
c111.333 0 167 -52.333 167 -157v-218c0 -20.667 6.33301 -36.167 19 -46.5s33.667 -15.833 63 -16.5v-106c-29.333 -0.666992 -50.333 -6.16699 -63 -16.5s-19 -25.833 -19 -46.5v-218c0 -104 -55.667 -156 -167 -156z" />
    <glyph glyph-name="asciitilde" unicode="~" horiz-adv-x="528" 
d="M358 275c-28 0 -63.667 11.667 -107 35c-33.333 17.333 -57.666 26 -72.999 26c-29.333 0 -47 -19.333 -53 -58h-92c2 50.667 15 90.5 39 119.5s57 43.5 99 43.5c27.333 0 63.666 -11.667 108.999 -35c32.667 -17.333 56 -26 70 -26c29.333 0 47 19.333 53 58h92
c-2 -50.667 -15 -90.5 -39 -119.5s-56.667 -43.5 -98 -43.5z" />
    <glyph glyph-name="uni00A0" unicode="&#xa0;" horiz-adv-x="216" 
 />
    <glyph glyph-name="exclamdown" unicode="&#xa1;" horiz-adv-x="223" 
d="M185 443h-147v143h147v-143zM179 -126h-135v183l31 312h71l33 -312v-183z" />
    <glyph glyph-name="cent" unicode="&#xa2;" horiz-adv-x="543" 
d="M399 192l125.999 0.000976562c-6.66699 -56.667 -28.5 -102.834 -65.5 -138.501s-84.167 -56.834 -141.5 -63.501v-106h-70v106c-68 7.33301 -121.667 35 -161 83s-59 109.667 -59 185s19.667 137 59 185s93 75.667 161 83v102h70v-102c57.333 -6 104 -26.167 140 -60.5
s57.667 -79.5 65 -135.5h-126c-9.33301 48.667 -35.666 78.334 -78.999 89.001v-322c47.333 13.333 74.333 45 81 95zM156.999 258.001c0 -90 30.333 -143.666 91 -160.999v322c-60.667 -16.667 -91 -70.334 -91 -161.001z" />
    <glyph glyph-name="sterling" unicode="&#xa3;" horiz-adv-x="564" 
d="M274 255c0 -50 -22.666 -94.668 -67.999 -134.001h338v-121h-507v110c36 18 62.167 37.833 78.5 59.5s24.5 48.167 24.5 79.5c0 14.667 -2 29 -6 43h-113v73h85c0 0.666992 -1.66699 4.33398 -5 11.001c-30 64 -45 115 -45 153c0 60.667 22 109 66 145
c42.667 36 100.334 54 173.001 54c80 0 140.667 -19.667 182 -59s63.666 -95.666 66.999 -168.999h-131c-2 39.333 -12.333 68.666 -31 87.999s-48.334 29 -89.001 29c-32 0 -56.667 -7.83301 -74 -23.5s-26 -37.167 -26 -64.5c0 -24 11.667 -62 35 -114
c5.33301 -13.333 12.333 -30 21 -50h204v-73h-182c2 -12 3 -24.333 3 -37z" />
    <glyph glyph-name="currency" unicode="&#xa4;" horiz-adv-x="584" 
d="M556 575l-75 -75c33.333 -41.333 50 -89.333 50 -144s-16.667 -102.667 -50 -144l75 -75l-54 -54l-77 77c-39.333 -24.667 -82.666 -37 -129.999 -37c-50 0 -94.333 13.333 -133 40l-80 -80l-54 54l78 78c-31.333 41.333 -47 88.333 -47 141s15.667 99.667 47 141l-78 78
l54 54l80 -80c38.667 26.667 83 40 133 40c47.333 0 90.666 -12.333 129.999 -37l77 77zM206 445c-24 -23.333 -36 -53 -36 -89s12 -65.667 36 -89c23.333 -23.333 53 -35 89 -35c35.333 0 65.333 11.667 90 35c23.333 23.333 35 53 35 89s-11.667 65.667 -35 89
c-24.667 23.333 -54.667 35 -90 35c-36 0 -65.667 -11.667 -89 -35z" />
    <glyph glyph-name="yen" unicode="&#xa5;" horiz-adv-x="683" 
d="M528 712h149l-230 -372h124v-73h-161v-74h161v-73h-161v-120h-135v120h-163v73h163v74h-163v73h126l-232 372h153l79 -129c64 -106.667 99.667 -166.667 107 -180c18 32 53 92.333 105 181z" />
    <glyph glyph-name="brokenbar" unicode="&#xa6;" horiz-adv-x="223" 
d="M165 398h-107v399h107v-399zM165 -204h-107v399h107v-399z" />
    <glyph glyph-name="section" unicode="&#xa7;" horiz-adv-x="590" 
d="M569 216c0 -67.333 -39.666 -116.665 -118.999 -147.998c38.667 -32.667 58 -70.667 58 -114c0 -50.667 -18 -90 -54 -118s-87.667 -42 -155 -42c-68.667 0 -121 15.167 -157 45.5s-54.667 73.166 -56 128.499h119c3.33301 -56 35.333 -84 96 -84
c55.333 0 83 21.333 83 64c0 16.667 -6 31 -18 43s-34 27.667 -66 47l-104 61c-62 35.333 -106.333 68.333 -133 99s-40 66.667 -40 108c0 67.333 39.667 116.666 119 147.999c-38 33.333 -57 71.333 -57 114c0 50.667 18.167 90 54.5 118s87.5 42 153.5 42
c138 0 209.333 -58.333 214 -175h-119c-2.66699 56.667 -34.667 85 -96 85c-55.333 0 -83 -21.333 -83 -64c0 -17.333 6.16699 -32.333 18.5 -45s34.166 -27.667 65.499 -45l103 -61c62 -35.333 106.333 -68.333 133 -99s40 -66.667 40 -108zM241.001 199.001l105 -62.001
c1.33301 -0.666992 4.5 -2.5 9.5 -5.5s8.16699 -4.83301 9.5 -5.5c54 14.667 81 44 81 88c0 20 -7.33301 38.167 -22 54.5s-38.667 34.5 -72 54.5l-105 61l-20 12c-26 -7.33301 -45.833 -19 -59.5 -35s-20.5 -34 -20.5 -54c0 -19.333 7.33301 -37.166 22 -53.499
s38.667 -34.5 72 -54.5z" />
    <glyph glyph-name="dieresis" unicode="&#xa8;" horiz-adv-x="400" 
d="M164 583h-124v118h124v-118zM360 583h-124v118h124v-118z" />
    <glyph glyph-name="copyright" unicode="&#xa9;" horiz-adv-x="813" 
d="M676 92c-72 -72 -162 -108 -270 -108s-198 36 -270 108s-108 160 -108 264c0 104.667 36 193 108 265s162 108 270 108s198 -36 270 -108s108 -160.333 108 -265c0 -105.333 -36 -193.333 -108 -264zM406 72c82 0 149.999 27.333 203.999 82c53.333 54.667 80 122 80 202
s-26.667 147.667 -80 203c-54 54 -122 81 -204 81c-81.333 0 -148.666 -27 -201.999 -81c-53.333 -55.333 -80 -123 -80 -203s26.667 -147.333 80 -202c52.667 -54.667 120 -82 202 -82zM408.999 145c-59.333 0 -106.831 19.167 -142.498 57.5s-53.5 89.5 -53.5 153.5
c0 64.667 17.833 116 53.5 154s83.167 57 142.5 57c52 0 94.667 -14.167 128 -42.5s52.666 -66.833 57.999 -115.5h-100c-7.33301 50 -36 75 -86 75c-30.667 0 -54.334 -11 -71.001 -33s-25 -53.667 -25 -95c0 -40.667 8.33301 -72 25 -94s40.334 -33 71.001 -33
c24.667 0 44.834 6.66699 60.501 20s25.167 32.666 28.5 57.999h98c-4.66699 -49.333 -23.834 -88.666 -57.501 -117.999s-76.834 -44 -129.501 -44z" />
    <glyph glyph-name="ordfeminine" unicode="&#xaa;" horiz-adv-x="471" 
d="M441 262l-112.001 -0.00195312c-6 18.667 -9.33301 37.334 -10 56.001c-30 -44 -78 -66 -144 -66c-49.333 0 -88.666 11.833 -117.999 35.5s-44 56.167 -44 97.5c0 42.667 13.833 75.5 41.5 98.5s71.5 37.5 131.5 43.5l66 7c22.667 2 38.667 6.66699 48 14s14 19 14 35
c0 18.667 -6 32.334 -18 41.001s-32 13 -60 13c-30.667 0 -52.834 -5.33301 -66.501 -16s-21.5 -29 -23.5 -55h-113c3.33301 51.333 21.333 90 54 116s82.334 39 149.001 39c126.667 0 190 -45 190 -135v-232c0 -36 5 -66.667 15 -92zM202.999 333.998
c32.667 0 59.332 9.33301 79.999 28s31 45 31 79v37c-9.33301 -8.66699 -25.666 -14 -48.999 -16l-57 -6c-52 -5.33301 -78 -26.333 -78 -63c0 -18 6.33301 -32.333 19 -43s30.667 -16 54 -16z" />
    <glyph glyph-name="guillemotleft" unicode="&#xab;" horiz-adv-x="492" 
d="M228 57l-170 139v130l170 139v-124l-98 -80l98 -80v-124zM263 326l170 139v-124l-98 -80l98 -80v-124l-170 139v130z" />
    <glyph glyph-name="logicalnot" unicode="&#xac;" horiz-adv-x="528" 
d="M33 332v108h462v-280h-117v172h-345z" />
    <glyph glyph-name="uni00AD" unicode="&#xad;" horiz-adv-x="364" 
d="M330 227h-297v108h297v-108z" />
    <glyph glyph-name="registered" unicode="&#xae;" horiz-adv-x="564" 
d="M282 728c72 0 132.667 -24 182 -72c48.667 -48 73 -106.667 73 -176c0 -68.667 -24.333 -127 -73 -175c-49.333 -48 -110 -72 -182 -72c-71.333 0 -131.666 24 -180.999 72s-74 106.333 -74 175c0 69.333 24.667 128 74 176s109.666 72 180.999 72zM282 287
c57.333 0 104.667 18.335 142 55.002c37.333 37.333 56 83.333 56 138c0 55.333 -18.667 101.666 -56 138.999c-38.667 37.333 -86 56 -142 56c-55.333 0 -102.333 -18.667 -141 -56c-38 -36.667 -57 -83 -57 -139c0 -54.667 19 -100.334 57 -137.001
c38.667 -37.333 85.667 -56 141 -56zM385.001 425.002l2.99805 -35.001c1.33301 -16 5 -27.667 11 -35h-61c-4.66699 6.66699 -7.66699 18.334 -9 35.001l-2 27c-1.33301 12.667 -4.16602 21.334 -8.49902 26.001s-12.166 7 -23.499 7h-54v-95h-58v256h116
c28.667 0 51.167 -6.5 67.5 -19.5s24.5 -31.167 24.5 -54.5c0 -28.667 -12 -48.334 -36 -59.001c19.333 -9.33301 29.333 -27 30 -53zM240.999 561.001v-63h55c23.333 0 35 10.667 35 32c0 20.667 -12.333 31 -37 31h-53z" />
    <glyph glyph-name="overscore" unicode="&#xaf;" horiz-adv-x="400" 
d="M359 583h-318v88h318v-88z" />
    <glyph glyph-name="degree" unicode="&#xb0;" horiz-adv-x="347" 
d="M278 482c-29.333 -27.333 -64.332 -41 -104.999 -41s-75.334 13.667 -104.001 41c-28 26.667 -42 59.667 -42 99s14 72.666 42 99.999c27.333 26.667 62 40 104 40c42.667 0 77.667 -13.333 105 -40c28 -27.333 42 -60.666 42 -99.999s-14 -72.333 -42 -99zM173.001 518
c18 0 33.001 6 45.001 18s18 27 18 45s-6 32.833 -18 44.5s-27 17.5 -45 17.5s-33 -5.83301 -45 -17.5s-18 -26.5 -18 -44.5s6.16699 -33 18.5 -45s27.166 -18 44.499 -18z" />
    <glyph glyph-name="plusminus" unicode="&#xb1;" horiz-adv-x="528" 
d="M322 583v-147h173v-108h-173v-146h-117v146h-172v108h172v147h117zM495 0h-462v108h462v-108z" />
    <glyph glyph-name="two.sups" unicode="&#xb2;" horiz-adv-x="347" 
d="M121 608l211 -0.00195312v-80h-320l2 36c4.66699 82 47.334 140.333 128.001 175l30 13c42.667 18.667 64 41.334 64 68.001c0 33.333 -20 50 -60 50c-20 0 -35.667 -5.66699 -47 -17s-17 -27.666 -17 -48.999h-93c2.66699 46 17.334 81.833 44.001 107.5
s64.667 38.5 114 38.5c47.333 0 84.666 -11.667 111.999 -35s41 -53.333 41 -90c0 -33.333 -9.33301 -61 -28 -83s-49 -42 -91 -60l-28 -13c-36.667 -16.667 -57.334 -37 -62.001 -61z" />
    <glyph glyph-name="three.sups" unicode="&#xb3;" horiz-adv-x="360" 
d="M279 748c20.667 -7.33301 36.833 -19.8359 48.5 -37.5029s17.5 -38.167 17.5 -61.5c0 -38.667 -14.5 -70 -43.5 -94s-68.5 -36 -118.5 -36c-55.333 0 -97.666 13.333 -126.999 40s-44 64.334 -44 113.001h92c1.33301 -50 27 -75 77 -75c21.333 0 38 5 50 15
s18 23.667 18 41c0 36.667 -24 55 -72 55h-30v69h32c42.667 0 64 16.667 64 50c0 31.333 -20.333 47 -61 47s-62.334 -18.333 -65.001 -55h-92c2 42 16.333 74.333 43 97s65 34 115 34c47.333 0 84.5 -10.167 111.5 -30.5s40.5 -48.166 40.5 -83.499
c0 -37.333 -18.667 -66.666 -56 -87.999z" />
    <glyph glyph-name="acute" unicode="&#xb4;" horiz-adv-x="400" 
d="M189 583h-103l87 144h145z" />
    <glyph glyph-name="uni00B5" unicode="&#xb5;" horiz-adv-x="566" 
d="M389 227v289h126v-516h-122v75c-38 -58 -90.667 -87 -158 -87c-20 0 -40 4.66699 -60 14v-198h-124v712h126v-321c0 -65.333 32.333 -98 97 -98c33.333 0 60.833 11.5 82.5 34.5s32.5 54.833 32.5 95.5z" />
    <glyph glyph-name="paragraph" unicode="&#xb6;" horiz-adv-x="569" 
d="M347 0h-99.999v363c-66.667 0 -119.834 15.167 -159.501 45.5s-59.5 72.5 -59.5 126.5c0 118 78.667 177 236 177h247v-712h-101v615h-63v-615z" />
    <glyph glyph-name="middot" unicode="&#xb7;" horiz-adv-x="223" 
d="M185 284h-147v144h147v-144z" />
    <glyph glyph-name="cedilla" unicode="&#xb8;" horiz-adv-x="400" 
d="M196 -43h11.999c30 0 54 -7.5 72 -22.5s27 -33.833 27 -56.5c0 -64 -49 -96 -147 -96c-18.667 0 -40.667 2 -66 6v53c16.667 -2.66699 35.667 -4 57 -4c40.667 0 61 14 61 42c0 25.333 -19 38 -57 38c-11.333 0 -19.666 -0.333008 -24.999 -1v38l40 51h67z" />
    <glyph glyph-name="one.sups" unicode="&#xb9;" horiz-adv-x="231" 
d="M128 941h78.002v-413h-96v276h-95v67c31.333 0 55.666 5 72.999 15s30.666 28.333 39.999 55z" />
    <glyph glyph-name="ordmasculine" unicode="&#xba;" horiz-adv-x="513" 
d="M256 252c-68.667 0 -124 21.333 -166 64s-63 99.334 -63 170.001s21 127.667 63 171c42 42.667 97.333 64 166 64c69.333 0 125 -21.333 167 -64c42 -43.333 63 -100.333 63 -171s-21 -127.334 -63 -170.001s-97.667 -64 -167 -64zM174 382
c20 -24.667 47.332 -37 81.999 -37s62.334 12.333 83.001 37c20 25.333 30 60 30 104c0 45.333 -9.83301 80.333 -29.5 105s-47.5 37 -83.5 37c-34.667 0 -62 -12.333 -82 -37s-30 -59.667 -30 -105s10 -80 30 -104z" />
    <glyph glyph-name="guillemotright" unicode="&#xbb;" horiz-adv-x="492" 
d="M156 261l-98 80v124l170 -139v-130l-170 -139v124zM263 341v124l170 -139v-130l-170 -139v124l98 80z" />
    <glyph glyph-name="onequarter" unicode="&#xbc;" horiz-adv-x="726" 
d="M206 299h-95.998v276h-95v67c31.333 0 55.666 5 72.999 15s30.666 28.333 39.999 55h78v-413zM107.002 0l380 712h89l-380 -712h-89zM657.002 169h54v-78h-54v-91h-96v91h-196v91l194 231h98v-244zM563.002 169v143l-120 -143h120z" />
    <glyph glyph-name="onehalf" unicode="&#xbd;" horiz-adv-x="767" 
d="M206 712l0.00195312 -413h-96v276h-95v67c31.333 0 55.666 5 72.999 15s30.666 28.333 39.999 55h78zM113.002 0l380 712h89l-380 -712h-89zM541.002 80h211.002v-80h-320l2 36c3.33301 81.333 45.666 139.666 126.999 174.999l31 13c42.667 18.667 64 41.334 64 68.001
c0 33.333 -20 50 -60 50c-42 0 -63.667 -22 -65 -66h-92c2.66699 46 17.334 81.833 44.001 107.5s64.667 38.5 114 38.5c47.333 0 84.666 -11.667 111.999 -35s41 -53.333 41 -90c0 -33.333 -9.33301 -61 -28 -83s-49 -42 -91 -60l-28 -13
c-36.667 -16.667 -57.334 -37 -62.001 -61z" />
    <glyph glyph-name="threequarters" unicode="&#xbe;" horiz-adv-x="835" 
d="M345 420c0 -38.667 -14.501 -70.0029 -43.501 -94.0029s-68.5 -36 -118.5 -36c-55.333 0 -97.666 13.333 -126.999 40s-44 64.334 -44 113.001h92c1.33301 -50 27 -75 77 -75c21.333 0 38 5 50 15s18 23.667 18 41c0 36.667 -24 55 -72 55h-30v69h32
c42.667 0 64 16.667 64 50c0 31.333 -20.333 47 -61 47s-62.334 -18.333 -65.001 -55h-92c2 42 16.333 74.333 43 97s65 34 115 34c47.333 0 84.5 -10.167 111.5 -30.5s40.5 -48.166 40.5 -83.499c0 -37.333 -18.667 -66.666 -56 -87.999
c20.667 -7.33301 36.834 -19.833 48.501 -37.5s17.5 -38.167 17.5 -61.5zM213.999 -0.00292969l380 712h89l-380 -712h-89zM764.999 168.997h55v-78h-55v-91h-96v91h-196v91l195 231h97v-244zM671.999 168.997v144l-121 -144h121z" />
    <glyph glyph-name="questiondown" unicode="&#xbf;" horiz-adv-x="531" 
d="M348 443h-146v143h146v-143zM261 -142c-73.333 0 -131.332 16.5029 -173.999 49.5029s-64 79.5 -64 139.5c0 64.667 35 123 105 175c39.333 30 63.333 53.333 72 70c9.33301 15.333 14 41 14 77h122c0 -52.667 -7.33301 -93.334 -22 -122.001
c-10.667 -22.667 -36.334 -49.667 -77.001 -81c-32.667 -24.667 -54.667 -46.334 -66 -65.001c-8.66699 -14.667 -13 -29.334 -13 -44.001c0 -60.667 35 -91 105 -91c40.667 0 70.334 9.83301 89.001 29.5s29 52.5 31 98.5h127c0 -78 -21.333 -136.833 -64 -176.5
s-104.334 -59.5 -185.001 -59.5z" />
    <glyph glyph-name="Agrave" unicode="&#xc0;" horiz-adv-x="718" 
d="M317 899l87 -144h-103l-129 144h145zM711 0h-143l-56 157h-312l-55 -157h-139l271 712h158zM268 349l-27.001 -76.999h230l-28 77c-23.333 59.333 -52.666 140.666 -87.999 243.999c-28 -82.667 -57 -164 -87 -244z" />
    <glyph glyph-name="Aacute" unicode="&#xc1;" horiz-adv-x="718" 
d="M391 899h145l-129 -144h-103zM711 0h-143l-56 157h-312l-55 -157h-139l271 712h158zM268 349l-27.001 -76.999h230l-28 77c-23.333 59.333 -52.666 140.666 -87.999 243.999c-28 -82.667 -57 -164 -87 -244z" />
    <glyph glyph-name="Acircumflex" unicode="&#xc2;" horiz-adv-x="718" 
d="M432 755l-77 80l-77 -80h-115l116 144h151l117 -144h-115zM711 0h-143l-56 157h-312l-55 -157h-139l271 712h158zM268 349l-27.001 -76.999h230l-28 77c-23.333 59.333 -52.666 140.666 -87.999 243.999c-28 -82.667 -57 -164 -87 -244z" />
    <glyph glyph-name="Atilde" unicode="&#xc3;" horiz-adv-x="718" 
d="M287 797c-18 0 -27.333 -14 -28 -42h-84c0 88 33.333 132 100 132c21.333 0 50.333 -7.66699 87 -23c26 -12.667 46.333 -19 61 -19c18 0 27.333 14 28 42h84c0 -88 -33.333 -132 -100 -132c-22 0 -51.667 8 -89 24c-28 12 -47.667 18 -59 18zM711 0h-143l-56 157h-312
l-55 -157h-139l271 712h158zM268 349l-27.001 -76.999h230l-28 77c-23.333 59.333 -52.666 140.666 -87.999 243.999c-28 -82.667 -57 -164 -87 -244z" />
    <glyph glyph-name="Adieresis" unicode="&#xc4;" horiz-adv-x="718" 
d="M195 873h124v-118h-124v118zM391 873h124v-118h-124v118zM711 0h-143l-56 157h-312l-55 -157h-139l271 712h158zM268 349l-27.001 -76.999h230l-28 77c-23.333 59.333 -52.666 140.666 -87.999 243.999c-28 -82.667 -57 -164 -87 -244z" />
    <glyph glyph-name="Aring" unicode="&#xc5;" horiz-adv-x="718" 
d="M711 0l-143 -0.000976562l-56 157h-312l-55 -157h-139l254 668c-32 26.667 -48 61.334 -48 104.001c0 39.333 13.667 72 41 98s61.333 39 102 39s74.667 -13 102 -39s41 -58.667 41 -98c0 -42 -15.667 -76 -47 -102zM399 815.999
c-17.333 18.667 -39.667 22.499 -67 11.499s-40 -29.5 -38 -55.5c0 -16.667 5.83301 -30.834 17.5 -42.501s26.167 -17.5 43.5 -17.5s31.833 5.83301 43.5 17.5s17.5 25.834 17.5 42.501s-5.66699 31.334 -17 44.001zM267.999 348.998l-27.001 -76.999h230l-28 77
c-23.333 59.333 -52.666 140.666 -87.999 243.999c-28 -82.667 -57 -164 -87 -244z" />
    <glyph glyph-name="AE" unicode="&#xc6;" horiz-adv-x="1049" 
d="M1024 712v-121h-355v-168h318v-116h-318v-186h352v-121h-485v175h-300l-88 -175h-142l363 712h655zM449 597l-155 -307h242v307h-87z" />
    <glyph glyph-name="Ccedilla" unicode="&#xc7;" horiz-adv-x="725" 
d="M564 268l134.998 0.000976562c-9.33301 -84 -40 -150 -92 -198c-52.667 -49.333 -117.667 -77.333 -195 -84l-39 -45h13c30 0 54 -7.5 72 -22.5s27 -33.833 27 -56.5c0 -30 -12.333 -53.5 -37 -70.5s-61.667 -25.5 -111 -25.5c-19.333 0 -41.333 2 -66 6v53
c16.667 -2.66699 35.667 -4 57 -4c41.333 0 62 14 62 42c0 25.333 -19 38 -57 38c-12 0 -20.667 -0.333008 -26 -1v38l37 47c-95.333 7.33301 -171.666 44 -228.999 110c-58 66 -87 153 -87 261c0 114 31.667 204.667 95 272c62.667 66.667 146 100 250 100
c83.333 0 154.333 -22.333 213 -67s95.334 -109.334 110.001 -194.001h-137c-12 46.667 -34.167 82.167 -66.5 106.5s-72.166 36.5 -119.499 36.5c-63.333 0 -113.166 -22.5 -149.499 -67.5s-54.5 -107.167 -54.5 -186.5c0 -80 18 -142.333 54 -187s86 -67 150 -67
c49.333 0 91.666 14.667 126.999 44s56.666 70 63.999 122z" />
    <glyph glyph-name="Egrave" unicode="&#xc8;" horiz-adv-x="608" 
d="M283 899l87 -144h-103l-129 144h145zM583 712v-121h-390v-168h353v-116h-353v-186h388v-121h-523v712h525z" />
    <glyph glyph-name="Eacute" unicode="&#xc9;" horiz-adv-x="608" 
d="M357 899h145l-129 -144h-103zM583 712v-121h-390v-168h353v-116h-353v-186h388v-121h-523v712h525z" />
    <glyph glyph-name="Ecircumflex" unicode="&#xca;" horiz-adv-x="608" 
d="M397 755l-77 80l-77 -80h-115l116 144h151l117 -144h-115zM583 712v-121h-390v-168h353v-116h-353v-186h388v-121h-523v712h525z" />
    <glyph glyph-name="Edieresis" unicode="&#xcb;" horiz-adv-x="608" 
d="M160 873h124v-118h-124v118zM356 873h124v-118h-124v118zM583 712v-121h-390v-168h353v-116h-353v-186h388v-121h-523v712h525z" />
    <glyph glyph-name="Igrave" unicode="&#xcc;" horiz-adv-x="252" 
d="M172 755h-93l-93 144h133zM193 0h-135v712h135v-712z" />
    <glyph glyph-name="Iacute" unicode="&#xcd;" horiz-adv-x="252" 
d="M266 899l-93 -144h-93l53 144h133zM193 0h-135v712h135v-712z" />
    <glyph glyph-name="Icircumflex" unicode="&#xce;" horiz-adv-x="252" 
d="M185 755l-60 80l-61 -80h-107l96 144h143l97 -144h-108zM193 0h-135v712h135v-712z" />
    <glyph glyph-name="Idieresis" unicode="&#xcf;" horiz-adv-x="252" 
d="M97 755h-115v118h115v-118zM269 755h-115v118h115v-118zM193 0h-135v712h135v-712z" />
    <glyph glyph-name="Eth" unicode="&#xd0;" horiz-adv-x="737" 
d="M79 712h271c114.667 0 203 -31.667 265 -95c62 -64 93 -151 93 -261s-31 -196.667 -93 -260c-62 -64 -150.333 -96 -265 -96h-271v326h-79v78h79v308zM214 116h135c70 0 123.833 20.5 161.5 61.5s56.5 100.5 56.5 178.5s-18.833 137.5 -56.5 178.5
s-91.5 61.5 -161.5 61.5h-135v-192h171v-78h-171v-210z" />
    <glyph glyph-name="Ntilde" unicode="&#xd1;" horiz-adv-x="718" 
d="M290 797c-17.333 0 -26.665 -14 -27.998 -42h-84c0 88 33.333 132 100 132c21.333 0 50.333 -7.66699 87 -23c26 -12.667 46.333 -19 61 -19c17.333 0 26.666 14 27.999 42h84c0 -88 -33.333 -132 -100 -132c-22.667 0 -52.334 8 -89.001 24c-28 12 -47.667 18 -59 18z
M529.001 526v186h130v-712h-150l-198 317c-54 84.667 -96.333 156 -127 214c2.66699 -74.667 4 -189.667 4 -345v-186h-130v712h150l199 -317c59.333 -96 101.333 -167.333 126 -214c-2.66699 99.333 -4 214.333 -4 345z" />
    <glyph glyph-name="Ograve" unicode="&#xd2;" horiz-adv-x="768" 
d="M433 771h-103l-129 144h145zM384 -16c-106.667 0 -192.667 34 -258 102c-65.333 68.667 -98 158.667 -98 270s32.667 201.333 98 270c65.333 68 151.333 102 258 102s192.667 -34 258 -102c64.667 -67.333 97 -157.333 97 -270s-32.333 -202.667 -97 -270
c-65.333 -68 -151.333 -102 -258 -102zM228 171c39.333 -45.333 91.333 -68.002 156 -68.002c65.333 0 117.666 22.667 156.999 68c38.667 44.667 58 106.334 58 185.001s-19.333 140.334 -58 185.001c-39.333 45.333 -91.666 68 -156.999 68
c-64.667 0 -116.667 -22.667 -156 -68s-59 -107 -59 -185s19.667 -139.667 59 -185z" />
    <glyph glyph-name="Oacute" unicode="&#xd3;" horiz-adv-x="768" 
d="M436 771h-103l87 144h145zM384 -16c-106.667 0 -192.667 34 -258 102c-65.333 68.667 -98 158.667 -98 270s32.667 201.333 98 270c65.333 68 151.333 102 258 102s192.667 -34 258 -102c64.667 -67.333 97 -157.333 97 -270s-32.333 -202.667 -97 -270
c-65.333 -68 -151.333 -102 -258 -102zM228 171c39.333 -45.333 91.333 -68.002 156 -68.002c65.333 0 117.666 22.667 156.999 68c38.667 44.667 58 106.334 58 185.001s-19.333 140.334 -58 185.001c-39.333 45.333 -91.666 68 -156.999 68
c-64.667 0 -116.667 -22.667 -156 -68s-59 -107 -59 -185s19.667 -139.667 59 -185z" />
    <glyph glyph-name="Ocircumflex" unicode="&#xd4;" horiz-adv-x="768" 
d="M460 771l-77 80l-77 -80h-115l116 144h151l117 -144h-115zM384 728c106.667 0 192.667 -34 258 -102c64.667 -67.333 97 -157.333 97 -270s-32.333 -202.667 -97 -270c-65.333 -68 -151.333 -102 -258 -102s-192.667 34 -258 102c-65.333 68.667 -98 158.667 -98 270
s32.667 201.333 98 270c65.333 68 151.333 102 258 102zM228 171c39.333 -45.333 91.333 -68.002 156 -68.002c65.333 0 117.666 22.667 156.999 68c38.667 44.667 58 106.334 58 185.001s-19.333 140.334 -58 185.001c-39.333 45.333 -91.666 68 -156.999 68
c-64.667 0 -116.667 -22.667 -156 -68s-59 -107 -59 -185s19.667 -139.667 59 -185z" />
    <glyph glyph-name="Otilde" unicode="&#xd5;" horiz-adv-x="768" 
d="M287 771h-84c0 88 33.333 132 100 132c21.333 0 50.333 -7.66699 87 -23c26 -12.667 46.333 -19 61 -19c18 0 27.333 14 28 42h84c0 -88 -33.333 -132 -100 -132c-22 0 -51.667 8 -89 24c-28 12 -47.667 18 -59 18c-18 0 -27.333 -14 -28 -42zM384 -16
c-106.667 0 -192.667 34 -258 102c-65.333 68.667 -98 158.667 -98 270s32.667 201.333 98 270c65.333 68 151.333 102 258 102s192.667 -34 258 -102c64.667 -67.333 97 -157.333 97 -270s-32.333 -202.667 -97 -270c-65.333 -68 -151.333 -102 -258 -102zM228 171
c39.333 -45.333 91.333 -68.002 156 -68.002c65.333 0 117.666 22.667 156.999 68c38.667 44.667 58 106.334 58 185.001s-19.333 140.334 -58 185.001c-39.333 45.333 -91.666 68 -156.999 68c-64.667 0 -116.667 -22.667 -156 -68s-59 -107 -59 -185
s19.667 -139.667 59 -185z" />
    <glyph glyph-name="Odieresis" unicode="&#xd6;" horiz-adv-x="768" 
d="M347 771h-124v118h124v-118zM543 771h-124v118h124v-118zM384 -16c-106.667 0 -192.667 34 -258 102c-65.333 68.667 -98 158.667 -98 270s32.667 201.333 98 270c65.333 68 151.333 102 258 102s192.667 -34 258 -102c64.667 -67.333 97 -157.333 97 -270
s-32.333 -202.667 -97 -270c-65.333 -68 -151.333 -102 -258 -102zM228 171c39.333 -45.333 91.333 -68.002 156 -68.002c65.333 0 117.666 22.667 156.999 68c38.667 44.667 58 106.334 58 185.001s-19.333 140.334 -58 185.001c-39.333 45.333 -91.666 68 -156.999 68
c-64.667 0 -116.667 -22.667 -156 -68s-59 -107 -59 -185s19.667 -139.667 59 -185z" />
    <glyph glyph-name="multiply" unicode="&#xd7;" horiz-adv-x="528" 
d="M404 571l76 -76l-139 -138l139 -139l-76 -76l-139 139l-140 -139l-76 76l139 139l-139 138l76 76l140 -139z" />
    <glyph glyph-name="Oslash" unicode="&#xd8;" horiz-adv-x="768" 
d="M686 760l61.999 -56l-88 -99c52.667 -65.333 79 -148.333 79 -249c0 -112.667 -32.333 -202.667 -97 -270c-65.333 -68 -151.333 -102 -258 -102c-85.333 0 -157.666 22 -216.999 66l-86 -98l-62 55l88 100c-52.667 66.667 -79 149.667 -79 249
c0 111.333 32.667 201.333 98 270c65.333 68 151.333 102 258 102c83.333 0 155.333 -21.667 216 -65zM168.999 356c0 -56.667 10.333 -104.667 31 -144l314 354c-34.667 28.667 -78 43 -130 43c-66 0 -118.333 -22.667 -157 -68s-58 -107 -58 -185zM598.999 356
c0 56 -10.333 104.333 -31 145l-315 -355c35.333 -28.667 79 -43 131 -43c66 0 118.333 22.667 157 68s58 107 58 185z" />
    <glyph glyph-name="Ugrave" unicode="&#xd9;" horiz-adv-x="692" 
d="M395 755h-103l-129 144h145zM346 -15c-92.667 0 -165.5 24.833 -218.5 74.5s-79.5 119.167 -79.5 208.5v444h135v-445c0 -54 14 -95 42 -123s68.333 -42 121 -42s93 14 121 42s42 69 42 123v445h135v-444c0 -90.667 -26.333 -160.5 -79 -209.5s-125.667 -73.5 -219 -73.5
z" />
    <glyph glyph-name="Uacute" unicode="&#xda;" horiz-adv-x="692" 
d="M398 755h-103l87 144h145zM346 -15c-92.667 0 -165.5 24.833 -218.5 74.5s-79.5 119.167 -79.5 208.5v444h135v-445c0 -54 14 -95 42 -123s68.333 -42 121 -42s93 14 121 42s42 69 42 123v445h135v-444c0 -90.667 -26.333 -160.5 -79 -209.5s-125.667 -73.5 -219 -73.5z
" />
    <glyph glyph-name="Ucircumflex" unicode="&#xdb;" horiz-adv-x="692" 
d="M423 755l-77 80l-77 -80h-115l116 144h151l117 -144h-115zM509 267v445h135v-444c0 -90.667 -26.333 -160.5 -79 -209.5s-125.667 -73.5 -219 -73.5c-92.667 0 -165.5 24.833 -218.5 74.5s-79.5 119.167 -79.5 208.5v444h135v-445c0 -54 14 -95 42 -123
s68.333 -42 121 -42s93 14 121 42s42 69 42 123z" />
    <glyph glyph-name="Udieresis" unicode="&#xdc;" horiz-adv-x="692" 
d="M309 755h-124v118h124v-118zM505 755h-124v118h124v-118zM346 -15c-92.667 0 -165.5 24.833 -218.5 74.5s-79.5 119.167 -79.5 208.5v444h135v-445c0 -54 14 -95 42 -123s68.333 -42 121 -42s93 14 121 42s42 69 42 123v445h135v-444
c0 -90.667 -26.333 -160.5 -79 -209.5s-125.667 -73.5 -219 -73.5z" />
    <glyph glyph-name="Yacute" unicode="&#xdd;" horiz-adv-x="683" 
d="M378 899h145l-129 -144h-103zM450 584l78 128h149l-267 -431v-281h-135v281l-269 431h153l79 -129c64 -106.667 99.667 -166.667 107 -180c18 32 53 92.333 105 181z" />
    <glyph glyph-name="Thorn" unicode="&#xde;" horiz-adv-x="651" 
d="M193 588h178c79.333 0 141.166 -20.833 185.499 -62.5s66.5 -98.167 66.5 -169.5s-22.167 -127.833 -66.5 -169.5s-106.166 -62.5 -185.499 -62.5h-178v-124h-135v712h135v-124zM193 241h172c39.333 0 69.5 9.83301 90.5 29.5s31.5 48.167 31.5 85.5
s-10.5 65.833 -31.5 85.5s-51.167 29.5 -90.5 29.5h-172v-230z" />
    <glyph glyph-name="germandbls" unicode="&#xdf;" horiz-adv-x="575" 
d="M422 393c39.333 -16.667 69.834 -40.499 91.501 -71.499s32.5 -65.833 32.5 -104.5c0 -68 -23.167 -121.667 -69.5 -161s-108.5 -59 -186.5 -59c-16 0 -33 1 -51 3v102c25.333 -1.33301 39.666 -2 42.999 -2c42 0 75 10.167 99 30.5s36 48.5 36 84.5
s-11.833 64.167 -35.5 84.5s-57.167 30.5 -100.5 30.5h-32v92h30c31.333 0 57 9.16699 77 27.5s30 42.5 30 72.5c0 29.333 -9.5 53.166 -28.5 71.499s-44.5 27.5 -76.5 27.5c-33.333 0 -59 -9.83301 -77 -29.5s-27 -46.5 -27 -80.5v-511h-126v505c0 70 20 124.667 60 164
s96 59 168 59c66.667 0 120.667 -18.333 162 -55c41.333 -37.333 62 -81.333 62 -132c0 -66 -27 -115.333 -81 -148z" />
    <glyph glyph-name="agrave" unicode="&#xe0;" horiz-adv-x="539" 
d="M245 727l87 -144h-103l-129 144h145zM515 0h-125.998c-6 10.667 -10.667 31.667 -14 63c-34.667 -50 -90 -75 -166 -75c-56.667 0 -101.834 13.667 -135.501 41s-50.5 65.333 -50.5 114c0 94 66 147.667 198 161l78 7c26 3.33301 44.667 9.5 56 18.5s17 22.5 17 40.5
c0 22 -7.16699 38.167 -21.5 48.5s-38.5 15.5 -72.5 15.5c-36.667 0 -63 -6.16699 -79 -18.5s-25.333 -33.5 -28 -63.5h-124c7.33301 117.333 84.666 176 231.999 176c143.333 0 215 -51.667 215 -155v-275c0 -45.333 7 -78 21 -98zM239.002 78
c39.333 0 71.332 10.832 95.999 32.499s37 52.834 37 93.501v47c-12 -10.667 -31.667 -17.667 -59 -21l-68 -8c-33.333 -4 -57.166 -11.833 -71.499 -23.5s-21.5 -28.5 -21.5 -50.5s7.5 -39.167 22.5 -51.5s36.5 -18.5 64.5 -18.5z" />
    <glyph glyph-name="aacute" unicode="&#xe1;" horiz-adv-x="539" 
d="M318 727h145l-129 -144h-103zM515 0h-125.998c-6 10.667 -10.667 31.667 -14 63c-34.667 -50 -90 -75 -166 -75c-56.667 0 -101.834 13.667 -135.501 41s-50.5 65.333 -50.5 114c0 94 66 147.667 198 161l78 7c26 3.33301 44.667 9.5 56 18.5s17 22.5 17 40.5
c0 22 -7.16699 38.167 -21.5 48.5s-38.5 15.5 -72.5 15.5c-36.667 0 -63 -6.16699 -79 -18.5s-25.333 -33.5 -28 -63.5h-124c7.33301 117.333 84.666 176 231.999 176c143.333 0 215 -51.667 215 -155v-275c0 -45.333 7 -78 21 -98zM239.002 78
c39.333 0 71.332 10.832 95.999 32.499s37 52.834 37 93.501v47c-12 -10.667 -31.667 -17.667 -59 -21l-68 -8c-33.333 -4 -57.166 -11.833 -71.499 -23.5s-21.5 -28.5 -21.5 -50.5s7.5 -39.167 22.5 -51.5s36.5 -18.5 64.5 -18.5z" />
    <glyph glyph-name="acircumflex" unicode="&#xe2;" horiz-adv-x="539" 
d="M355 583l-77 79l-77 -79h-115l116 144h151l117 -144h-115zM515 0h-125.998c-6 10.667 -10.667 31.667 -14 63c-34.667 -50 -90 -75 -166 -75c-56.667 0 -101.834 13.667 -135.501 41s-50.5 65.333 -50.5 114c0 94 66 147.667 198 161l78 7c26 3.33301 44.667 9.5 56 18.5
s17 22.5 17 40.5c0 22 -7.16699 38.167 -21.5 48.5s-38.5 15.5 -72.5 15.5c-36.667 0 -63 -6.16699 -79 -18.5s-25.333 -33.5 -28 -63.5h-124c7.33301 117.333 84.666 176 231.999 176c143.333 0 215 -51.667 215 -155v-275c0 -45.333 7 -78 21 -98zM239.002 78
c39.333 0 71.332 10.832 95.999 32.499s37 52.834 37 93.501v47c-12 -10.667 -31.667 -17.667 -59 -21l-68 -8c-33.333 -4 -57.166 -11.833 -71.499 -23.5s-21.5 -28.5 -21.5 -50.5s7.5 -39.167 22.5 -51.5s36.5 -18.5 64.5 -18.5z" />
    <glyph glyph-name="atilde" unicode="&#xe3;" horiz-adv-x="539" 
d="M210 625c-17.333 0 -26.665 -14 -27.998 -42h-84c0 88 33.333 132 100 132c22.667 0 51.667 -8 87 -24c28 -12 48.333 -18 61 -18c17.333 0 26.666 14 27.999 42h84c0 -88 -33.333 -132 -100 -132c-22.667 0 -52.334 8 -89.001 24c-28 12 -47.667 18 -59 18zM515.001 0
h-125.998c-6 10.667 -10.667 31.667 -14 63c-34.667 -50 -90 -75 -166 -75c-56.667 0 -101.834 13.667 -135.501 41s-50.5 65.333 -50.5 114c0 94 66 147.667 198 161l78 7c26 3.33301 44.667 9.5 56 18.5s17 22.5 17 40.5c0 22 -7.16699 38.167 -21.5 48.5
s-38.5 15.5 -72.5 15.5c-36.667 0 -63 -6.16699 -79 -18.5s-25.333 -33.5 -28 -63.5h-124c7.33301 117.333 84.666 176 231.999 176c143.333 0 215 -51.667 215 -155v-275c0 -45.333 7 -78 21 -98zM239.003 78c39.333 0 71.332 10.832 95.999 32.499s37 52.834 37 93.501v47
c-12 -10.667 -31.667 -17.667 -59 -21l-68 -8c-33.333 -4 -57.166 -11.833 -71.499 -23.5s-21.5 -28.5 -21.5 -50.5s7.5 -39.167 22.5 -51.5s36.5 -18.5 64.5 -18.5z" />
    <glyph glyph-name="adieresis" unicode="&#xe4;" horiz-adv-x="539" 
d="M118 701h124v-118h-124v118zM314 701h124v-118h-124v118zM515 0h-125.998c-6 10.667 -10.667 31.667 -14 63c-34.667 -50 -90 -75 -166 -75c-56.667 0 -101.834 13.667 -135.501 41s-50.5 65.333 -50.5 114c0 94 66 147.667 198 161l78 7c26 3.33301 44.667 9.5 56 18.5
s17 22.5 17 40.5c0 22 -7.16699 38.167 -21.5 48.5s-38.5 15.5 -72.5 15.5c-36.667 0 -63 -6.16699 -79 -18.5s-25.333 -33.5 -28 -63.5h-124c7.33301 117.333 84.666 176 231.999 176c143.333 0 215 -51.667 215 -155v-275c0 -45.333 7 -78 21 -98zM239.002 78
c39.333 0 71.332 10.832 95.999 32.499s37 52.834 37 93.501v47c-12 -10.667 -31.667 -17.667 -59 -21l-68 -8c-33.333 -4 -57.166 -11.833 -71.499 -23.5s-21.5 -28.5 -21.5 -50.5s7.5 -39.167 22.5 -51.5s36.5 -18.5 64.5 -18.5z" />
    <glyph glyph-name="aring" unicode="&#xe5;" horiz-adv-x="539" 
d="M381 617c-27.333 -26 -61.333 -39 -102 -39s-74.667 13 -102 39s-41 58.667 -41 98s13.667 72 41 98c27.333 25.333 61.333 38 102 38s74.667 -12.667 102 -38c27.333 -26 41 -58.667 41 -98s-13.667 -72 -41 -98zM323 758c-17.333 19.333 -39.667 23.5 -67 12.5
s-40 -29.5 -38 -55.5c0 -17.333 5.83301 -31.833 17.5 -43.5s26.167 -17.5 43.5 -17.5s31.833 5.83301 43.5 17.5s17.5 26.167 17.5 43.5c0 16 -5.66699 30.333 -17 43zM514.999 0h-125.998c-6 10.667 -10.667 31.667 -14 63c-34.667 -50 -90 -75 -166 -75
c-56.667 0 -101.834 13.667 -135.501 41s-50.5 65.333 -50.5 114c0 94 66 147.667 198 161l78 7c26 3.33301 44.667 9.5 56 18.5s17 22.5 17 40.5c0 22 -7.16699 38.167 -21.5 48.5s-38.5 15.5 -72.5 15.5c-36.667 0 -63 -6.16699 -79 -18.5s-25.333 -33.5 -28 -63.5h-124
c7.33301 117.333 84.666 176 231.999 176c143.333 0 215 -51.667 215 -155v-275c0 -45.333 7 -78 21 -98zM239.001 78c39.333 0 71.332 10.832 95.999 32.499s37 52.834 37 93.501v47c-12 -10.667 -31.667 -17.667 -59 -21l-68 -8c-33.333 -4 -57.166 -11.833 -71.499 -23.5
s-21.5 -28.5 -21.5 -50.5s7.5 -39.167 22.5 -51.5s36.5 -18.5 64.5 -18.5z" />
    <glyph glyph-name="ae" unicode="&#xe6;" horiz-adv-x="886" 
d="M856 249l0.00292969 -30.001h-367c4.66699 -43.333 18 -76.333 40 -99s51.333 -34 88 -34c56 0 93 24.667 111 74h116c-12.667 -52.667 -39.5 -94.5 -80.5 -125.5s-90.5 -46.5 -148.5 -46.5c-82 0 -145.333 30 -190 90c-48.667 -60 -117.667 -90 -207 -90
c-60.667 0 -108.334 13.5 -143.001 40.5s-52 65.167 -52 114.5c0 94 66 147.667 198 161l78 7c26 3.33301 44.667 9.5 56 18.5s17 22.5 17 40.5c0 22 -7.16699 38.167 -21.5 48.5s-38.5 15.5 -72.5 15.5c-36.667 0 -63 -6.16699 -79 -18.5s-25.333 -33.5 -28 -63.5h-124
c7.33301 117.333 84.666 176 231.999 176c84 0 141 -20.667 171 -62c43.333 41.333 97.666 62 162.999 62c74.667 0 134 -25.667 178 -77c43.333 -51.333 65 -118.666 65 -201.999zM613.003 429.999c-34 0 -61.667 -10.5 -83 -31.5s-34.666 -51.5 -39.999 -91.5h246
c-4.66699 38 -17.834 68 -39.501 90s-49.5 33 -83.5 33zM239.003 77.999c39.333 0 71.332 10.832 95.999 32.499s37 52.834 37 93.501v47c-12 -10.667 -31.667 -17.667 -59 -21l-68 -8c-33.333 -4 -57.166 -11.833 -71.499 -23.5s-21.5 -28.5 -21.5 -50.5
s7.5 -39.167 22.5 -51.5s36.5 -18.5 64.5 -18.5z" />
    <glyph glyph-name="ccedilla" unicode="&#xe7;" horiz-adv-x="543" 
d="M399 192l125.998 -0.000976562c-6 -54 -26.5 -98.833 -61.5 -134.5s-79.5 -57.834 -133.5 -66.501l-41 -46h13c30 0 54 -7.5 72 -22.5s27 -33.833 27 -56.5c0 -30 -12.333 -53.5 -37 -70.5s-61.667 -25.5 -111 -25.5c-19.333 0 -41.333 2 -66 6v53
c16.667 -2.66699 35.667 -4 57 -4c41.333 0 62 14 62 42c0 25.333 -19 38 -57 38c-12 0 -20.667 -0.333008 -26 -1v38l37 47c-70.667 4.66699 -127 31.667 -169 81c-42 48 -63 110.667 -63 188c0 82.667 23.333 148.334 70 197.001c46 48.667 107.667 73 185 73
c67.333 0 122.333 -17.833 165 -53.5s67.667 -83.834 75 -144.501h-126c-6 30 -19 53 -39 69s-45 24 -75 24c-39.333 0 -70.166 -14.167 -92.499 -42.5s-33.5 -69.166 -33.5 -122.499s11.333 -94.166 34 -122.499s53.334 -42.5 92.001 -42.5c30.667 0 56.5 8.5 77.5 25.5
s33.833 41.5 38.5 73.5z" />
    <glyph glyph-name="egrave" unicode="&#xe8;" horiz-adv-x="568" 
d="M249 727l87 -144h-103l-129 144h145zM538 249l0.000976562 -29.999h-386c4.66699 -44 18.5 -77.167 41.5 -99.5s53.833 -33.5 92.5 -33.5c57.333 0 96.666 24.667 117.999 74h121c-13.333 -52.667 -41.333 -94.5 -84 -125.5s-94.667 -46.5 -156 -46.5
c-76.667 0 -138.667 24.667 -186 74s-71 114.666 -71 195.999s23.333 146.666 70 195.999c47.333 49.333 109 74 185 74c78 0 140 -25.667 186 -77s69 -118.666 69 -201.999zM282.001 430.001c-74 0 -117 -41 -129 -123h259c-5.33301 38 -19.333 68 -42 90s-52 33 -88 33z
" />
    <glyph glyph-name="eacute" unicode="&#xe9;" horiz-adv-x="568" 
d="M323 727h145l-129 -144h-103zM538 249l0.000976562 -29.999h-386c4.66699 -44 18.5 -77.167 41.5 -99.5s53.833 -33.5 92.5 -33.5c57.333 0 96.666 24.667 117.999 74h121c-13.333 -52.667 -41.333 -94.5 -84 -125.5s-94.667 -46.5 -156 -46.5
c-76.667 0 -138.667 24.667 -186 74s-71 114.666 -71 195.999s23.333 146.666 70 195.999c47.333 49.333 109 74 185 74c78 0 140 -25.667 186 -77s69 -118.666 69 -201.999zM282.001 430.001c-74 0 -117 -41 -129 -123h259c-5.33301 38 -19.333 68 -42 90s-52 33 -88 33z
" />
    <glyph glyph-name="ecircumflex" unicode="&#xea;" horiz-adv-x="568" 
d="M360 583l-77 79l-77 -79h-115l116 144h151l117 -144h-115zM538 249l0.000976562 -29.999h-386c4.66699 -44 18.5 -77.167 41.5 -99.5s53.833 -33.5 92.5 -33.5c57.333 0 96.666 24.667 117.999 74h121c-13.333 -52.667 -41.333 -94.5 -84 -125.5
s-94.667 -46.5 -156 -46.5c-76.667 0 -138.667 24.667 -186 74s-71 114.666 -71 195.999s23.333 146.666 70 195.999c47.333 49.333 109 74 185 74c78 0 140 -25.667 186 -77s69 -118.666 69 -201.999zM282.001 430.001c-74 0 -117 -41 -129 -123h259
c-5.33301 38 -19.333 68 -42 90s-52 33 -88 33z" />
    <glyph glyph-name="edieresis" unicode="&#xeb;" horiz-adv-x="568" 
d="M123 701h124v-118h-124v118zM319 701h124v-118h-124v118zM538 249l0.000976562 -29.999h-386c4.66699 -44 18.5 -77.167 41.5 -99.5s53.833 -33.5 92.5 -33.5c57.333 0 96.666 24.667 117.999 74h121c-13.333 -52.667 -41.333 -94.5 -84 -125.5s-94.667 -46.5 -156 -46.5
c-76.667 0 -138.667 24.667 -186 74s-71 114.666 -71 195.999s23.333 146.666 70 195.999c47.333 49.333 109 74 185 74c78 0 140 -25.667 186 -77s69 -118.666 69 -201.999zM282.001 430.001c-74 0 -117 -41 -129 -123h259c-5.33301 38 -19.333 68 -42 90s-52 33 -88 33z
" />
    <glyph glyph-name="igrave" unicode="&#xec;" horiz-adv-x="228" 
d="M160 583h-93l-93 144h133zM177 0h-126v516h126v-516z" />
    <glyph glyph-name="iacute" unicode="&#xed;" horiz-adv-x="228" 
d="M161 583h-93l53 144h133zM177 0h-126v516h126v-516z" />
    <glyph glyph-name="icircumflex" unicode="&#xee;" horiz-adv-x="228" 
d="M174 583l-60 80l-61 -80h-107l96 144h143l97 -144h-108zM177 0h-126v516h126v-516z" />
    <glyph glyph-name="idieresis" unicode="&#xef;" horiz-adv-x="228" 
d="M85 583h-115v118h115v-118zM257 583h-114v118h114v-118zM177 0h-126v516h126v-516z" />
    <glyph glyph-name="eth" unicode="&#xf0;" horiz-adv-x="580" 
d="M496 638l-95 -28c100 -118 150 -232.667 150 -344c0 -87.333 -23.667 -155.666 -71 -204.999c-48 -48.667 -111 -73 -189 -73c-76.667 0 -139.667 24 -189 72c-49.333 47.333 -74 110.666 -74 189.999c0 76.667 23.667 138.667 71 186
c46.667 46.667 109.334 70 188.001 70c26.667 0 55 -6.66699 85 -20c-20.667 28.667 -45.334 59.667 -74.001 93l-157 -47v79l99 29l-72 72h138l38 -40l152 45v-79zM193 133c24 -27.333 56.667 -41 98 -41s74 13.667 98 41s36 65.333 36 114c0 50 -11.833 88.667 -35.5 116
s-56.5 41 -98.5 41s-74.833 -13.667 -98.5 -41s-35.5 -66 -35.5 -116c0 -48.667 12 -86.667 36 -114z" />
    <glyph glyph-name="ntilde" unicode="&#xf1;" horiz-adv-x="566" 
d="M215 625c-18 0 -27.333 -14 -28 -42h-84c0 88 33.333 132 100 132c23.333 0 52.333 -8 87 -24c28 -12 48.333 -18 61 -18c18 0 27.333 14 28 42h84c0 -88 -33.333 -132 -100 -132c-22 0 -51.667 8 -89 24c-28 12 -47.667 18 -59 18zM334 528
c56 0 100.167 -16.168 132.5 -48.501s48.5 -78.166 48.5 -137.499v-342h-126v321c0 65.333 -32.333 98 -97 98c-32 0 -59.167 -11.5 -81.5 -34.5s-33.5 -54.833 -33.5 -95.5v-289h-126v516h122v-74c39.333 57.333 93 86 161 86z" />
    <glyph glyph-name="ograve" unicode="&#xf2;" horiz-adv-x="581" 
d="M344 583h-103l-129 144h145zM481 62c-48 -49.333 -111.333 -74 -190 -74s-142 24.667 -190 74c-48.667 48.667 -73 114 -73 196s24.333 147.333 73 196c48 49.333 111.333 74 190 74s142 -24.333 190 -73s72 -114.334 72 -197.001c0 -81.333 -24 -146.666 -72 -195.999z
M291 92c42 0 74.833 14.5 98.5 43.5s35.5 69.833 35.5 122.5s-11.833 93.5 -35.5 122.5s-56.5 43.5 -98.5 43.5s-74.833 -14.333 -98.5 -43s-35.5 -69.667 -35.5 -123s11.833 -94.333 35.5 -123s56.5 -43 98.5 -43z" />
    <glyph glyph-name="oacute" unicode="&#xf3;" horiz-adv-x="581" 
d="M347 583h-103l87 144h145zM481 62c-48 -49.333 -111.333 -74 -190 -74s-142 24.667 -190 74c-48.667 48.667 -73 114 -73 196s24.333 147.333 73 196c48 49.333 111.333 74 190 74s142 -24.333 190 -73s72 -114.334 72 -197.001c0 -81.333 -24 -146.666 -72 -195.999z
M291 92c42 0 74.833 14.5 98.5 43.5s35.5 69.833 35.5 122.5s-11.833 93.5 -35.5 122.5s-56.5 43.5 -98.5 43.5s-74.833 -14.333 -98.5 -43s-35.5 -69.667 -35.5 -123s11.833 -94.333 35.5 -123s56.5 -43 98.5 -43z" />
    <glyph glyph-name="ocircumflex" unicode="&#xf4;" horiz-adv-x="581" 
d="M367 583l-77 79l-77 -79h-115l116 144h151l117 -144h-115zM101 454c48 49.333 111.333 74 190 74s142 -24.333 190 -73s72 -114.334 72 -197.001c0 -81.333 -24 -146.666 -72 -195.999s-111.333 -74 -190 -74s-142 24.667 -190 74c-48.667 48.667 -73 114 -73 196
s24.333 147.333 73 196zM291 92c42 0 74.833 14.5 98.5 43.5s35.5 69.833 35.5 122.5s-11.833 93.5 -35.5 122.5s-56.5 43.5 -98.5 43.5s-74.833 -14.333 -98.5 -43s-35.5 -69.667 -35.5 -123s11.833 -94.333 35.5 -123s56.5 -43 98.5 -43z" />
    <glyph glyph-name="otilde" unicode="&#xf5;" horiz-adv-x="581" 
d="M194 583h-83.999c0 88 33.333 132 100 132c22.667 0 51.667 -8 87 -24c28 -12 48.333 -18 61 -18c17.333 0 26.666 14 27.999 42h84c0 -88 -33.333 -132 -100 -132c-22.667 0 -52.334 8 -89.001 24c-28 12 -47.667 18 -59 18c-17.333 0 -26.666 -14 -27.999 -42z
M481.001 62c-48 -49.333 -111.333 -74 -190 -74s-142 24.667 -190 74c-48.667 48.667 -73 114 -73 196s24.333 147.333 73 196c48 49.333 111.333 74 190 74s142 -24.333 190 -73s72 -114.334 72 -197.001c0 -81.333 -24 -146.666 -72 -195.999zM291.001 92
c42 0 74.833 14.5 98.5 43.5s35.5 69.833 35.5 122.5s-11.833 93.5 -35.5 122.5s-56.5 43.5 -98.5 43.5s-74.833 -14.333 -98.5 -43s-35.5 -69.667 -35.5 -123s11.833 -94.333 35.5 -123s56.5 -43 98.5 -43z" />
    <glyph glyph-name="odieresis" unicode="&#xf6;" horiz-adv-x="581" 
d="M254 583h-124v118h124v-118zM450 583h-124v118h124v-118zM481 62c-48 -49.333 -111.333 -74 -190 -74s-142 24.667 -190 74c-48.667 48.667 -73 114 -73 196s24.333 147.333 73 196c48 49.333 111.333 74 190 74s142 -24.333 190 -73s72 -114.334 72 -197.001
c0 -81.333 -24 -146.666 -72 -195.999zM291 92c42 0 74.833 14.5 98.5 43.5s35.5 69.833 35.5 122.5s-11.833 93.5 -35.5 122.5s-56.5 43.5 -98.5 43.5s-74.833 -14.333 -98.5 -43s-35.5 -69.667 -35.5 -123s11.833 -94.333 35.5 -123s56.5 -43 98.5 -43z" />
    <glyph glyph-name="divide" unicode="&#xf7;" horiz-adv-x="528" 
d="M323 483h-117v113h117v-113zM495 302h-462v108h462v-108zM323 116h-117v113h117v-113z" />
    <glyph glyph-name="oslash" unicode="&#xf8;" horiz-adv-x="581" 
d="M505 557l54.001 -48.002l-63 -72c38 -46 57 -105.667 57 -179c0 -81.333 -24 -146.666 -72 -195.999s-111.333 -74 -190 -74c-58.667 0 -109.334 14 -152.001 42l-63 -72l-55 48l64 73c-38 48.667 -57 108.334 -57 179.001c0 82 24.333 147.333 73 196
c48 49.333 111.333 74 190 74c58 0 108.667 -14 152 -42zM153.001 257.998c0 -31.333 4.66797 -60 14.001 -86l205 233c-20.667 16.667 -47.667 25 -81 25c-42.667 0 -76.334 -15 -101.001 -45s-37 -72.333 -37 -127zM429.002 257.998c0 32 -4.66797 61 -14.001 87
l-205 -234c20.667 -16.667 47.667 -25 81 -25c42.667 0 76.334 15 101.001 45s37 72.333 37 127z" />
    <glyph glyph-name="ugrave" unicode="&#xf9;" horiz-adv-x="566" 
d="M245 727l87 -144h-103l-129 144h145zM389 227l-0.000976562 289.001h126v-516h-122v75c-39.333 -58 -93.333 -87 -162 -87c-55.333 0 -99.166 16.167 -131.499 48.5s-48.5 78.166 -48.5 137.499v342h126v-321c0 -65.333 32.333 -98 97 -98c32 0 59.167 11.5 81.5 34.5
s33.5 54.833 33.5 95.5z" />
    <glyph glyph-name="uacute" unicode="&#xfa;" horiz-adv-x="566" 
d="M318 727h145l-129 -144h-103zM389 227l-0.000976562 289.001h126v-516h-122v75c-39.333 -58 -93.333 -87 -162 -87c-55.333 0 -99.166 16.167 -131.499 48.5s-48.5 78.166 -48.5 137.499v342h126v-321c0 -65.333 32.333 -98 97 -98c32 0 59.167 11.5 81.5 34.5
s33.5 54.833 33.5 95.5z" />
    <glyph glyph-name="ucircumflex" unicode="&#xfb;" horiz-adv-x="566" 
d="M355 583l-77 79l-77 -79h-115l116 144h151l117 -144h-115zM389 227l-0.000976562 289.001h126v-516h-122v75c-39.333 -58 -93.333 -87 -162 -87c-55.333 0 -99.166 16.167 -131.499 48.5s-48.5 78.166 -48.5 137.499v342h126v-321c0 -65.333 32.333 -98 97 -98
c32 0 59.167 11.5 81.5 34.5s33.5 54.833 33.5 95.5z" />
    <glyph glyph-name="udieresis" unicode="&#xfc;" horiz-adv-x="566" 
d="M118 701h124v-118h-124v118zM314 701h124v-118h-124v118zM389 227l-0.000976562 289.001h126v-516h-122v75c-39.333 -58 -93.333 -87 -162 -87c-55.333 0 -99.166 16.167 -131.499 48.5s-48.5 78.166 -48.5 137.499v342h126v-321c0 -65.333 32.333 -98 97 -98
c32 0 59.167 11.5 81.5 34.5s33.5 54.833 33.5 95.5z" />
    <glyph glyph-name="yacute" unicode="&#xfd;" horiz-adv-x="522" 
d="M301 727h145l-129 -144h-103zM346 386l42.001 129.999h132l-199 -558c-21.333 -58.667 -48 -99 -80 -121c-32.667 -22.667 -80 -34 -142 -34c-20.667 0 -39 1 -55 3v99h48c27.333 0 48.333 7.66699 63 23s22 35.333 22 60s-8 59.334 -24 104.001l-150 424h136l42 -129
c29.333 -92 56.666 -188 81.999 -288c20 75.333 47.667 171 83 287z" />
    <glyph glyph-name="thorn" unicode="&#xfe;" horiz-adv-x="597" 
d="M337 528c72 0 128.333 -24.333 169 -73c41.333 -49.333 62 -115 62 -197s-20.667 -147.667 -62 -197c-40.667 -48.667 -97 -73 -169 -73c-69.333 0 -122.666 26.667 -159.999 80v-264h-126v908h126v-264c37.333 53.333 90.666 80 159.999 80zM210 135
c22.667 -28.667 55 -43.001 97 -43.001c41.333 0 74 15 98 45c23.333 29.333 35 71 35 125c0 52.667 -11.5 92.834 -34.5 120.501s-55.833 41.5 -98.5 41.5c-42 0 -74.5 -14.333 -97.5 -43s-34.5 -69.667 -34.5 -123c0 -52.667 11.667 -93.667 35 -123z" />
    <glyph glyph-name="ydieresis" unicode="&#xff;" horiz-adv-x="522" 
d="M101 701h124v-118h-124v118zM297 701h124v-118h-124v118zM346 386l42.001 129.999h132l-199 -558c-21.333 -58.667 -48 -99 -80 -121c-32.667 -22.667 -80 -34 -142 -34c-20.667 0 -39 1 -55 3v99h48c27.333 0 48.333 7.66699 63 23s22 35.333 22 60
s-8 59.334 -24 104.001l-150 424h136l42 -129c29.333 -92 56.666 -188 81.999 -288c20 75.333 47.667 171 83 287z" />
    <glyph glyph-name="Amacron" unicode="&#x100;" horiz-adv-x="718" 
d="M196 843h318v-88h-318v88zM711 0h-143l-56 157h-312l-55 -157h-139l271 712h158zM268 349l-27.001 -76.999h230l-28 77c-23.333 59.333 -52.666 140.666 -87.999 243.999c-28 -82.667 -57 -164 -87 -244z" />
    <glyph glyph-name="amacron" unicode="&#x101;" horiz-adv-x="539" 
d="M120 671h318v-88h-318v88zM515 0h-125.998c-6 10.667 -10.667 31.667 -14 63c-34.667 -50 -90 -75 -166 -75c-56.667 0 -101.834 13.667 -135.501 41s-50.5 65.333 -50.5 114c0 94 66 147.667 198 161l78 7c26 3.33301 44.667 9.5 56 18.5s17 22.5 17 40.5
c0 22 -7.16699 38.167 -21.5 48.5s-38.5 15.5 -72.5 15.5c-36.667 0 -63 -6.16699 -79 -18.5s-25.333 -33.5 -28 -63.5h-124c7.33301 117.333 84.666 176 231.999 176c143.333 0 215 -51.667 215 -155v-275c0 -45.333 7 -78 21 -98zM239.002 78
c39.333 0 71.332 10.832 95.999 32.499s37 52.834 37 93.501v47c-12 -10.667 -31.667 -17.667 -59 -21l-68 -8c-33.333 -4 -57.166 -11.833 -71.499 -23.5s-21.5 -28.5 -21.5 -50.5s7.5 -39.167 22.5 -51.5s36.5 -18.5 64.5 -18.5z" />
    <glyph glyph-name="Abreve" unicode="&#x102;" horiz-adv-x="718" 
d="M355 750c-46 0 -84.167 13.333 -114.5 40s-48.166 63 -53.499 109h95c5.33301 -45.333 29.666 -68 72.999 -68c20 0 36.5 5.83301 49.5 17.5s20.833 28.5 23.5 50.5h95c-6.66699 -46 -25 -82.333 -55 -109s-67.667 -40 -113 -40zM711 0h-143l-56 157h-312l-55 -157h-139
l271 712h158zM268 349l-27.001 -76.999h230l-28 77c-23.333 59.333 -52.666 140.666 -87.999 243.999c-28 -82.667 -57 -164 -87 -244z" />
    <glyph glyph-name="abreve" unicode="&#x103;" horiz-adv-x="539" 
d="M279 578c-46 0 -84.166 13.333 -114.499 40s-48.166 63 -53.499 109h95c5.33301 -45.333 29.666 -68 72.999 -68s67.666 22.667 72.999 68h95c-6.66699 -46.667 -25 -83.167 -55 -109.5s-67.667 -39.5 -113 -39.5zM515.001 0h-125.998c-6 10.667 -10.667 31.667 -14 63
c-34.667 -50 -90 -75 -166 -75c-56.667 0 -101.834 13.667 -135.501 41s-50.5 65.333 -50.5 114c0 94 66 147.667 198 161l78 7c26 3.33301 44.667 9.5 56 18.5s17 22.5 17 40.5c0 22 -7.16699 38.167 -21.5 48.5s-38.5 15.5 -72.5 15.5c-36.667 0 -63 -6.16699 -79 -18.5
s-25.333 -33.5 -28 -63.5h-124c7.33301 117.333 84.666 176 231.999 176c143.333 0 215 -51.667 215 -155v-275c0 -45.333 7 -78 21 -98zM239.003 78c39.333 0 71.332 10.832 95.999 32.499s37 52.834 37 93.501v47c-12 -10.667 -31.667 -17.667 -59 -21l-68 -8
c-33.333 -4 -57.166 -11.833 -71.499 -23.5s-21.5 -28.5 -21.5 -50.5s7.5 -39.167 22.5 -51.5s36.5 -18.5 64.5 -18.5z" />
    <glyph glyph-name="Aogonek" unicode="&#x104;" horiz-adv-x="718" 
d="M612 -93c0 -25.333 16.668 -38 50.001 -38c12 0 28.667 2.66699 50 8v-75c-19.333 -6.66699 -43 -10 -71 -10c-38.667 0 -69.834 8.5 -93.501 25.5s-35.5 40.5 -35.5 70.5c0 22 9 43.333 27 64s43.333 36.667 76 48h-47l-56 157h-312l-55 -157h-139l271 712h158l276 -712
h1c-66.667 -30.667 -100 -61.667 -100 -93zM268.001 349l-27.001 -76.999h230l-28 77c-23.333 59.333 -52.666 140.666 -87.999 243.999c-28 -82.667 -57 -164 -87 -244z" />
    <glyph glyph-name="aogonek" unicode="&#x105;" horiz-adv-x="539" 
d="M416 -93c0 -25.333 16.668 -37.998 50.001 -37.998c12.667 0 29 2.66699 49 8v-75c-19.333 -6.66699 -42.666 -10 -69.999 -10c-38.667 0 -69.834 8.5 -93.501 25.5s-35.5 40.5 -35.5 70.5c0 19.333 7 38.666 21 57.999s34 35.666 60 48.999
c-11.333 15.333 -18.666 38 -21.999 68c-34.667 -50 -90 -75 -166 -75c-56.667 0 -101.834 13.667 -135.501 41s-50.5 65.333 -50.5 114c0 94 66 147.667 198 161l78 7c26 3.33301 44.667 9.5 56 18.5s17 22.5 17 40.5c0 22 -7.16699 38.167 -21.5 48.5
s-38.5 15.5 -72.5 15.5c-36.667 0 -63 -6.16699 -79 -18.5s-25.333 -33.5 -28 -63.5h-124c7.33301 117.333 84.666 176 231.999 176c143.333 0 215 -51.667 215 -155v-275c0 -45.333 7 -78 21 -98c-66 -30.667 -99 -61.667 -99 -93zM239.001 78.002
c39.333 0 71.332 10.832 95.999 32.499s37 52.834 37 93.501v47c-12 -10.667 -31.667 -17.667 -59 -21l-68 -8c-33.333 -4 -57.166 -11.833 -71.499 -23.5s-21.5 -28.5 -21.5 -50.5s7.5 -39.167 22.5 -51.5s36.5 -18.5 64.5 -18.5z" />
    <glyph glyph-name="Cacute" unicode="&#x106;" horiz-adv-x="725" 
d="M426 771h-103l87 144h145zM373 -16c-102.667 0 -185.669 33.6689 -249.002 101.002c-64 67.333 -96 157.666 -96 270.999c0 114 31.667 204.667 95 272c62.667 66.667 146 100 250 100c83.333 0 154.333 -22.333 213 -67s95.334 -109.334 110.001 -194.001h-137
c-12 46.667 -34.167 82.167 -66.5 106.5s-72.166 36.5 -119.499 36.5c-63.333 0 -113.166 -22.5 -149.499 -67.5s-54.5 -107.167 -54.5 -186.5c0 -80 18 -142.333 54 -187s86 -67 150 -67c49.333 0 91.666 14.667 126.999 44s56.666 70 63.999 122h135
c-8.66699 -90.667 -44 -160.667 -106 -210c-61.333 -49.333 -134.666 -74 -219.999 -74z" />
    <glyph glyph-name="cacute" unicode="&#x107;" horiz-adv-x="543" 
d="M339 583h-103l87 144h145zM283 -12c-76 0 -137.669 24.665 -185.002 73.998c-46.667 48.667 -70 114 -70 196c0 82.667 23.333 148.334 70 197.001c46 48.667 107.667 73 185 73c67.333 0 122.333 -17.833 165 -53.5s67.667 -83.834 75 -144.501h-126
c-6 30 -19 53 -39 69s-45 24 -75 24c-39.333 0 -70.166 -14.167 -92.499 -42.5s-33.5 -69.166 -33.5 -122.499s11.333 -94.166 34 -122.499s53.334 -42.5 92.001 -42.5c30.667 0 56.5 8.5 77.5 25.5s33.833 41.5 38.5 73.5h126c-6.66699 -62 -32 -111.5 -76 -148.5
s-99.333 -55.5 -166 -55.5z" />
    <glyph glyph-name="Ccircumflex" unicode="&#x108;" horiz-adv-x="725" 
d="M450 771l-77 80l-77 -80h-115l116 144h151l117 -144h-115zM564 268l134.998 0.00195312c-8.66699 -90.667 -44 -160.667 -106 -210c-61.333 -49.333 -134.666 -74 -219.999 -74c-102.667 0 -185.667 33.667 -249 101c-64 67.333 -96 157.666 -96 270.999
c0 114 31.667 204.667 95 272c62.667 66.667 146 100 250 100c83.333 0 154.333 -22.333 213 -67s95.334 -109.334 110.001 -194.001h-137c-12 46.667 -34.167 82.167 -66.5 106.5s-72.166 36.5 -119.499 36.5c-63.333 0 -113.166 -22.5 -149.499 -67.5
s-54.5 -107.167 -54.5 -186.5c0 -80 18 -142.333 54 -187s86 -67 150 -67c49.333 0 91.666 14.667 126.999 44s56.666 70 63.999 122z" />
    <glyph glyph-name="ccircumflex" unicode="&#x109;" horiz-adv-x="543" 
d="M360 583l-77 79l-77 -79h-115l116 144h151l117 -144h-115zM399 192l125.998 -0.00195312c-6.66699 -62 -32 -111.5 -76 -148.5s-99.333 -55.5 -166 -55.5c-76 0 -137.667 24.667 -185 74c-46.667 48.667 -70 114 -70 196c0 82.667 23.333 148.334 70 197.001
c46 48.667 107.667 73 185 73c67.333 0 122.333 -17.833 165 -53.5s67.667 -83.834 75 -144.501h-126c-6 30 -19 53 -39 69s-45 24 -75 24c-39.333 0 -70.166 -14.167 -92.499 -42.5s-33.5 -69.166 -33.5 -122.499s11.333 -94.166 34 -122.499s53.334 -42.5 92.001 -42.5
c30.667 0 56.5 8.5 77.5 25.5s33.833 41.5 38.5 73.5z" />
    <glyph glyph-name="Cdotaccent" unicode="&#x10a;" horiz-adv-x="725" 
d="M434 771h-124v118h124v-118zM373 -16c-102.667 0 -185.669 33.6689 -249.002 101.002c-64 67.333 -96 157.666 -96 270.999c0 114 31.667 204.667 95 272c62.667 66.667 146 100 250 100c83.333 0 154.333 -22.333 213 -67s95.334 -109.334 110.001 -194.001h-137
c-12 46.667 -34.167 82.167 -66.5 106.5s-72.166 36.5 -119.499 36.5c-63.333 0 -113.166 -22.5 -149.499 -67.5s-54.5 -107.167 -54.5 -186.5c0 -80 18 -142.333 54 -187s86 -67 150 -67c49.333 0 91.666 14.667 126.999 44s56.666 70 63.999 122h135
c-8.66699 -90.667 -44 -160.667 -106 -210c-61.333 -49.333 -134.666 -74 -219.999 -74z" />
    <glyph glyph-name="cdotaccent" unicode="&#x10b;" horiz-adv-x="543" 
d="M345 583h-124v118h124v-118zM283 -12c-76 0 -137.669 24.665 -185.002 73.998c-46.667 48.667 -70 114 -70 196c0 82.667 23.333 148.334 70 197.001c46 48.667 107.667 73 185 73c67.333 0 122.333 -17.833 165 -53.5s67.667 -83.834 75 -144.501h-126
c-6 30 -19 53 -39 69s-45 24 -75 24c-39.333 0 -70.166 -14.167 -92.499 -42.5s-33.5 -69.166 -33.5 -122.499s11.333 -94.166 34 -122.499s53.334 -42.5 92.001 -42.5c30.667 0 56.5 8.5 77.5 25.5s33.833 41.5 38.5 73.5h126c-6.66699 -62 -32 -111.5 -76 -148.5
s-99.333 -55.5 -166 -55.5z" />
    <glyph glyph-name="Ccaron" unicode="&#x10c;" horiz-adv-x="725" 
d="M565 915l-116 -144h-151l-117 144h115l77 -80l77 80h115zM564 268l134.998 0.00195312c-8.66699 -90.667 -44 -160.667 -106 -210c-61.333 -49.333 -134.666 -74 -219.999 -74c-102.667 0 -185.667 33.667 -249 101c-64 67.333 -96 157.666 -96 270.999
c0 114 31.667 204.667 95 272c62.667 66.667 146 100 250 100c83.333 0 154.333 -22.333 213 -67s95.334 -109.334 110.001 -194.001h-137c-12 46.667 -34.167 82.167 -66.5 106.5s-72.166 36.5 -119.499 36.5c-63.333 0 -113.166 -22.5 -149.499 -67.5
s-54.5 -107.167 -54.5 -186.5c0 -80 18 -142.333 54 -187s86 -67 150 -67c49.333 0 91.666 14.667 126.999 44s56.666 70 63.999 122z" />
    <glyph glyph-name="ccaron" unicode="&#x10d;" horiz-adv-x="543" 
d="M475 726l-116 -144h-151l-117 144h115l77 -80l77 80h115zM399 192l125.998 -0.00195312c-6.66699 -62 -32 -111.5 -76 -148.5s-99.333 -55.5 -166 -55.5c-76 0 -137.667 24.667 -185 74c-46.667 48.667 -70 114 -70 196c0 82.667 23.333 148.334 70 197.001
c46 48.667 107.667 73 185 73c67.333 0 122.333 -17.833 165 -53.5s67.667 -83.834 75 -144.501h-126c-6 30 -19 53 -39 69s-45 24 -75 24c-39.333 0 -70.166 -14.167 -92.499 -42.5s-33.5 -69.166 -33.5 -122.499s11.333 -94.166 34 -122.499s53.334 -42.5 92.001 -42.5
c30.667 0 56.5 8.5 77.5 25.5s33.833 41.5 38.5 73.5z" />
    <glyph glyph-name="Dcaron" unicode="&#x10e;" horiz-adv-x="716" 
d="M538 899l-116 -144h-151l-117 144h115l77 -80l77 80h115zM58 712h272c114 0 202 -31.667 264 -95c62 -64 93 -151 93 -261s-31 -196.667 -93 -260c-62 -64 -150 -96 -264 -96h-272v712zM193 116h135c70 0 124 20.5 162 61.5s57 100.5 57 178.5s-19 137.5 -57 178.5
s-92 61.5 -162 61.5h-135v-480z" />
    <glyph glyph-name="dcaron" unicode="&#x10f;" horiz-adv-x="731" 
d="M419 449l-0.000976562 263h126v-712h-122v72c-38 -56 -92.333 -84 -163 -84c-71.333 0 -127.666 24.667 -168.999 74c-42 49.333 -63 114.666 -63 195.999c0 82.667 21 148.334 63 197.001c40.667 48.667 97 73 169 73c69.333 0 122.333 -26.333 159 -79zM580.999 546
l31 166h129l-74 -166h-86zM191.999 133c23.333 -27.333 55.668 -41.001 97.001 -41.001s74 14.333 98 43c23.333 28.667 35 69.667 35 123s-11.667 94.333 -35 123s-56 43 -98 43c-40.667 0 -72.834 -15 -96.501 -45s-35.5 -71.667 -35.5 -125s11.667 -93.666 35 -120.999z
" />
    <glyph glyph-name="Dcroat" unicode="&#x110;" horiz-adv-x="737" 
d="M79 712h271c114.667 0 203 -31.667 265 -95c62 -64 93 -151 93 -261s-31 -196.667 -93 -260c-62 -64 -150.333 -96 -265 -96h-271v326h-79v78h79v308zM214 116h135c70 0 123.833 20.5 161.5 61.5s56.5 100.5 56.5 178.5s-18.833 137.5 -56.5 178.5
s-91.5 61.5 -161.5 61.5h-135v-192h171v-78h-171v-210z" />
    <glyph glyph-name="dslash" unicode="&#x111;" horiz-adv-x="625" 
d="M545 656h79.999v-78h-80v-578h-122v72c-38 -56 -92.333 -84 -163 -84c-71.333 0 -127.666 24.667 -168.999 74c-42 49.333 -63 114.666 -63 195.999c0 82.667 21 148.334 63 197.001c40.667 48.667 97 73 169 73c69.333 0 122.333 -26.333 159 -79v129h-112v78h112v56
h126v-56zM191.999 133c23.333 -27.333 55.668 -41.001 97.001 -41.001s74 14.333 98 43c23.333 28.667 35 69.667 35 123s-11.667 94.333 -35 123s-56 43 -98 43c-40.667 0 -72.834 -15 -96.501 -45s-35.5 -71.667 -35.5 -125s11.667 -93.666 35 -120.999z" />
    <glyph glyph-name="Emacron" unicode="&#x112;" horiz-adv-x="608" 
d="M162 843h318v-88h-318v88zM583 712v-121h-390v-168h353v-116h-353v-186h388v-121h-523v712h525z" />
    <glyph glyph-name="emacron" unicode="&#x113;" horiz-adv-x="568" 
d="M124 671h318v-88h-318v88zM538 249l0.000976562 -29.999h-386c4.66699 -44 18.5 -77.167 41.5 -99.5s53.833 -33.5 92.5 -33.5c57.333 0 96.666 24.667 117.999 74h121c-13.333 -52.667 -41.333 -94.5 -84 -125.5s-94.667 -46.5 -156 -46.5
c-76.667 0 -138.667 24.667 -186 74s-71 114.666 -71 195.999s23.333 146.666 70 195.999c47.333 49.333 109 74 185 74c78 0 140 -25.667 186 -77s69 -118.666 69 -201.999zM282.001 430.001c-74 0 -117 -41 -129 -123h259c-5.33301 38 -19.333 68 -42 90s-52 33 -88 33z
" />
    <glyph glyph-name="Ebreve" unicode="&#x114;" horiz-adv-x="608" 
d="M321 750c-46 0 -84.167 13.333 -114.5 40s-48.166 63 -53.499 109h95c5.33301 -45.333 29.666 -68 72.999 -68c20 0 36.5 5.83301 49.5 17.5s20.833 28.5 23.5 50.5h95c-6.66699 -46 -25 -82.333 -55 -109s-67.667 -40 -113 -40zM583 712v-121h-390v-168h353v-116h-353
v-186h388v-121h-523v712h525z" />
    <glyph glyph-name="ebreve" unicode="&#x115;" horiz-adv-x="568" 
d="M283 578c-46 0 -84.166 13.333 -114.499 40s-48.166 63 -53.499 109h95c5.33301 -45.333 29.666 -68 72.999 -68s67.666 22.667 72.999 68h95c-6.66699 -46.667 -25 -83.167 -55 -109.5s-67.667 -39.5 -113 -39.5zM538.001 249l0.000976562 -29.999h-386
c4.66699 -44 18.5 -77.167 41.5 -99.5s53.833 -33.5 92.5 -33.5c57.333 0 96.666 24.667 117.999 74h121c-13.333 -52.667 -41.333 -94.5 -84 -125.5s-94.667 -46.5 -156 -46.5c-76.667 0 -138.667 24.667 -186 74s-71 114.666 -71 195.999s23.333 146.666 70 195.999
c47.333 49.333 109 74 185 74c78 0 140 -25.667 186 -77s69 -118.666 69 -201.999zM282.002 430.001c-74 0 -117 -41 -129 -123h259c-5.33301 38 -19.333 68 -42 90s-52 33 -88 33z" />
    <glyph glyph-name="Edotaccent" unicode="&#x116;" horiz-adv-x="608" 
d="M258 873h124v-118h-124v118zM583 712v-121h-390v-168h353v-116h-353v-186h388v-121h-523v712h525z" />
    <glyph glyph-name="edotaccent" unicode="&#x117;" horiz-adv-x="568" 
d="M221 701h124v-118h-124v118zM538 249l0.000976562 -29.999h-386c4.66699 -44 18.5 -77.167 41.5 -99.5s53.833 -33.5 92.5 -33.5c57.333 0 96.666 24.667 117.999 74h121c-13.333 -52.667 -41.333 -94.5 -84 -125.5s-94.667 -46.5 -156 -46.5
c-76.667 0 -138.667 24.667 -186 74s-71 114.666 -71 195.999s23.333 146.666 70 195.999c47.333 49.333 109 74 185 74c78 0 140 -25.667 186 -77s69 -118.666 69 -201.999zM282.001 430.001c-74 0 -117 -41 -129 -123h259c-5.33301 38 -19.333 68 -42 90s-52 33 -88 33z
" />
    <glyph glyph-name="Eogonek" unicode="&#x118;" horiz-adv-x="608" 
d="M583 712l0.000976562 -121h-390v-168h353v-116h-353v-186h388v-121c-66.667 -30.667 -100 -61.667 -100 -93c0 -25.333 16.667 -38 50 -38c12 0 28.667 2.66699 50 8v-75c-19.333 -6.66699 -43 -10 -71 -10c-38.667 0 -69.834 8.5 -93.501 25.5s-35.5 40.5 -35.5 70.5
c0 22 9 43.333 27 64s43.333 36.667 76 48h-426v712h525z" />
    <glyph glyph-name="eogonek" unicode="&#x119;" horiz-adv-x="568" 
d="M538 249l0.00195312 -30h-386c4.66699 -44 18.5 -77.167 41.5 -99.5s53.833 -33.5 92.5 -33.5c57.333 0 96.666 24.667 117.999 74h121c-10 -40 -29 -74.167 -57 -102.5s-62 -47.833 -102 -58.5c-64.667 -30.667 -97 -61.334 -97 -92.001c0 -25.333 16.667 -38 50 -38
c12 0 28.667 2.66699 50 8v-75c-19.333 -6.66699 -43 -10 -71 -10c-38.667 0 -69.834 8.5 -93.501 25.5s-35.5 40.5 -35.5 70.5c0 18.667 7 37.334 21 56.001s33.333 34 58 46c-66.667 8 -120 36 -160 84s-60 109.333 -60 184c0 81.333 23.333 146.666 70 195.999
c47.333 49.333 109 74 185 74c78 0 140 -25.667 186 -77s69 -118.666 69 -201.999zM282.002 430c-74 0 -117 -41 -129 -123h259c-5.33301 38 -19.333 68 -42 90s-52 33 -88 33z" />
    <glyph glyph-name="Ecaron" unicode="&#x11a;" horiz-adv-x="608" 
d="M512 899l-116 -144h-151l-117 144h115l77 -80l77 80h115zM583 712v-121h-390v-168h353v-116h-353v-186h388v-121h-523v712h525z" />
    <glyph glyph-name="ecaron" unicode="&#x11b;" horiz-adv-x="568" 
d="M475 726l-116 -144h-151l-117 144h115l77 -80l77 80h115zM538 249l0.000976562 -29.999h-386c4.66699 -44 18.5 -77.167 41.5 -99.5s53.833 -33.5 92.5 -33.5c57.333 0 96.666 24.667 117.999 74h121c-13.333 -52.667 -41.333 -94.5 -84 -125.5s-94.667 -46.5 -156 -46.5
c-76.667 0 -138.667 24.667 -186 74s-71 114.666 -71 195.999s23.333 146.666 70 195.999c47.333 49.333 109 74 185 74c78 0 140 -25.667 186 -77s69 -118.666 69 -201.999zM282.001 430.001c-74 0 -117 -41 -129 -123h259c-5.33301 38 -19.333 68 -42 90s-52 33 -88 33z
" />
    <glyph glyph-name="Gcircumflex" unicode="&#x11c;" horiz-adv-x="765" 
d="M457 771l-77 80l-77 -80h-115l116 144h151l117 -144h-115zM399 275l0.000976562 109h318v-384h-98l-19 94c-51.333 -73.333 -128.666 -110 -231.999 -110c-102.667 0 -185 34 -247 102s-93 158 -93 270s31.667 202.333 95 271c63.333 67.333 149 101 257 101
c89.333 0 163.666 -22.667 222.999 -68c58.667 -45.333 94 -107 106 -185h-139c-10 42 -31.833 75 -65.5 99s-74.834 36 -123.501 36c-65.333 0 -117 -22.667 -155 -68s-57 -107.333 -57 -186s19.333 -140.667 58 -186s91.667 -68 159 -68c53.333 0 99 16 137 48
s58.667 73.667 62 125h-186z" />
    <glyph glyph-name="gcircumflex" unicode="&#x11d;" horiz-adv-x="596" 
d="M373 583l-77 79l-77 -79h-115l116 144h151l117 -144h-115zM423 445l-0.000976562 71.001h122v-499c0 -70 -22.167 -125 -66.5 -165s-107.166 -60 -188.499 -60c-72 0 -128.5 16 -169.5 48s-63.5 76 -67.5 132h124c6 -55.333 44.333 -83 115 -83
c41.333 0 72.833 10.667 94.5 32s32.5 52.333 32.5 93v65c-37.333 -51.333 -90 -77 -158 -77c-70 0 -126.333 24.333 -169 73c-42.667 47.333 -64 110.666 -64 189.999c0 80 21.333 143.667 64 191c42 48 98 72 168 72c72.667 0 127 -27.667 163 -83zM288.999 106.001
c42 0 74.667 14 98 42s35 67 35 117s-11.667 89 -35 117s-56 42 -98 42c-40.667 0 -72.834 -14.167 -96.501 -42.5s-35.5 -67.5 -35.5 -117.5c0 -49.333 11.833 -88 35.5 -116s55.834 -42 96.501 -42z" />
    <glyph glyph-name="Gbreve" unicode="&#x11e;" horiz-adv-x="765" 
d="M380 766c-46 0 -84.167 13.333 -114.5 40s-48.166 63 -53.499 109h95c5.33301 -45.333 29.666 -68 72.999 -68c20 0 36.5 5.83301 49.5 17.5s20.833 28.5 23.5 50.5h95c-6.66699 -46 -25 -82.333 -55 -109s-67.667 -40 -113 -40zM399 275l0.000976562 109h318v-384h-98
l-19 94c-51.333 -73.333 -128.666 -110 -231.999 -110c-102.667 0 -185 34 -247 102s-93 158 -93 270s31.667 202.333 95 271c63.333 67.333 149 101 257 101c89.333 0 163.666 -22.667 222.999 -68c58.667 -45.333 94 -107 106 -185h-139c-10 42 -31.833 75 -65.5 99
s-74.834 36 -123.501 36c-65.333 0 -117 -22.667 -155 -68s-57 -107.333 -57 -186s19.333 -140.667 58 -186s91.667 -68 159 -68c53.333 0 99 16 137 48s58.667 73.667 62 125h-186z" />
    <glyph glyph-name="gbreve" unicode="&#x11f;" horiz-adv-x="596" 
d="M296 578c-46 0 -84.166 13.333 -114.499 40s-48.166 63 -53.499 109h95c5.33301 -45.333 29.666 -68 72.999 -68s67.666 22.667 72.999 68h95c-6.66699 -46.667 -25 -83.167 -55 -109.5s-67.667 -39.5 -113 -39.5zM423.001 445l-0.000976562 71.001h122v-499
c0 -70 -22.167 -125 -66.5 -165s-107.166 -60 -188.499 -60c-72 0 -128.5 16 -169.5 48s-63.5 76 -67.5 132h124c6 -55.333 44.333 -83 115 -83c41.333 0 72.833 10.667 94.5 32s32.5 52.333 32.5 93v65c-37.333 -51.333 -90 -77 -158 -77c-70 0 -126.333 24.333 -169 73
c-42.667 47.333 -64 110.666 -64 189.999c0 80 21.333 143.667 64 191c42 48 98 72 168 72c72.667 0 127 -27.667 163 -83zM289 106.001c42 0 74.667 14 98 42s35 67 35 117s-11.667 89 -35 117s-56 42 -98 42c-40.667 0 -72.834 -14.167 -96.501 -42.5
s-35.5 -67.5 -35.5 -117.5c0 -49.333 11.833 -88 35.5 -116s55.834 -42 96.501 -42z" />
    <glyph glyph-name="Gdotaccent" unicode="&#x120;" horiz-adv-x="765" 
d="M317 889h124v-118h-124v118zM399 275l0.000976562 109h318v-384h-98l-19 94c-51.333 -73.333 -128.666 -110 -231.999 -110c-102.667 0 -185 34 -247 102s-93 158 -93 270s31.667 202.333 95 271c63.333 67.333 149 101 257 101c89.333 0 163.666 -22.667 222.999 -68
c58.667 -45.333 94 -107 106 -185h-139c-10 42 -31.833 75 -65.5 99s-74.834 36 -123.501 36c-65.333 0 -117 -22.667 -155 -68s-57 -107.333 -57 -186s19.333 -140.667 58 -186s91.667 -68 159 -68c53.333 0 99 16 137 48s58.667 73.667 62 125h-186z" />
    <glyph glyph-name="gdotaccent" unicode="&#x121;" horiz-adv-x="596" 
d="M234 701h124v-118h-124v118zM423 445l-0.000976562 71.001h122v-499c0 -70 -22.167 -125 -66.5 -165s-107.166 -60 -188.499 -60c-72 0 -128.5 16 -169.5 48s-63.5 76 -67.5 132h124c6 -55.333 44.333 -83 115 -83c41.333 0 72.833 10.667 94.5 32s32.5 52.333 32.5 93
v65c-37.333 -51.333 -90 -77 -158 -77c-70 0 -126.333 24.333 -169 73c-42.667 47.333 -64 110.666 -64 189.999c0 80 21.333 143.667 64 191c42 48 98 72 168 72c72.667 0 127 -27.667 163 -83zM288.999 106.001c42 0 74.667 14 98 42s35 67 35 117s-11.667 89 -35 117
s-56 42 -98 42c-40.667 0 -72.834 -14.167 -96.501 -42.5s-35.5 -67.5 -35.5 -117.5c0 -49.333 11.833 -88 35.5 -116s55.834 -42 96.501 -42z" />
    <glyph glyph-name="uni0122" unicode="&#x122;" horiz-adv-x="765" 
d="M399 275l0.000976562 109h318v-384h-98l-19 94c-51.333 -73.333 -128.666 -110 -231.999 -110c-102.667 0 -185 34 -247 102s-93 158 -93 270s31.667 202.333 95 271c63.333 67.333 149 101 257 101c89.333 0 163.666 -22.667 222.999 -68
c58.667 -45.333 94 -107 106 -185h-139c-10 42 -31.833 75 -65.5 99s-74.834 36 -123.501 36c-65.333 0 -117 -22.667 -155 -68s-57 -107.333 -57 -186s19.333 -140.667 58 -186s91.667 -68 159 -68c53.333 0 99 16 137 48s58.667 73.667 62 125h-186zM378.001 -157h-56v99
h122v-111c0 -30 -8 -51.833 -24 -65.5s-42 -21.167 -78 -22.5l-20 -1v49l18 1c25.333 1.33301 38 13.333 38 36v15z" />
    <glyph glyph-name="uni0123" unicode="&#x123;" horiz-adv-x="596" 
d="M301 682l56.001 -0.000976562v-99h-122v111c0 29.333 8.16699 51 24.5 65s42.166 21.667 77.499 23l20 1v-50h-18c-25.333 -1.33301 -38 -13.666 -38 -36.999v-14zM423.001 444.999l-0.000976562 71.001h122v-499c0 -70 -22.167 -125 -66.5 -165
s-107.166 -60 -188.499 -60c-72 0 -128.5 16 -169.5 48s-63.5 76 -67.5 132h124c6 -55.333 44.333 -83 115 -83c41.333 0 72.833 10.667 94.5 32s32.5 52.333 32.5 93v65c-37.333 -51.333 -90 -77 -158 -77c-70 0 -126.333 24.333 -169 73
c-42.667 47.333 -64 110.666 -64 189.999c0 80 21.333 143.667 64 191c42 48 98 72 168 72c72.667 0 127 -27.667 163 -83zM289 106c42 0 74.667 14 98 42s35 67 35 117s-11.667 89 -35 117s-56 42 -98 42c-40.667 0 -72.834 -14.167 -96.501 -42.5
s-35.5 -67.5 -35.5 -117.5c0 -49.333 11.833 -88 35.5 -116s55.834 -42 96.501 -42z" />
    <glyph glyph-name="Hcircumflex" unicode="&#x124;" horiz-adv-x="717" 
d="M436 755l-77 80l-77 -80h-115l116 144h151l117 -144h-115zM524 426v286h135v-712h-135v304h-331v-304h-135v712h135v-286h331z" />
    <glyph glyph-name="hcircumflex" unicode="&#x125;" horiz-adv-x="566" 
d="M174 755l-60 80l-61 -80h-107l96 144h143l97 -144h-108zM334 528c56 0 100.168 -16.168 132.501 -48.501s48.5 -78.166 48.5 -137.499v-342h-126v321c0 65.333 -32.333 98 -97 98c-32 0 -59.167 -11.5 -81.5 -34.5s-33.5 -54.833 -33.5 -95.5v-289h-126v712h126v-265
c39.333 54 91.666 81 156.999 81z" />
    <glyph glyph-name="Hbar" unicode="&#x126;" horiz-adv-x="760" 
d="M680 607h80v-78h-80v-529h-135v304h-330v-304h-135v529h-80v78h80v105h135v-105h330v105h135v-105zM215 426h330v103h-330v-103z" />
    <glyph glyph-name="hbar" unicode="&#x127;" horiz-adv-x="594" 
d="M363 528c55.333 0 99.166 -16.168 131.499 -48.501s48.5 -78.166 48.5 -137.499v-342h-125v321c0 65.333 -32.333 98 -97 98c-33.333 0 -61 -11.5 -83 -34.5s-33 -54.833 -33 -95.5v-289h-125v578h-80v78h80v56h125v-56h112v-78h-112v-132
c38.667 54.667 91.334 82 158.001 82z" />
    <glyph glyph-name="Itilde" unicode="&#x128;" horiz-adv-x="252" 
d="M49 755h-67.999c0 87.333 26.667 131 80 131c19.333 0 43 -8 71 -24c21.333 -11.333 37.333 -17 48 -17c15.333 0 23 13.667 23 41h68c0 -87.333 -26.667 -131 -80 -131c-16.667 0 -40.667 8 -72 24c-24.667 11.333 -40.334 17 -47.001 17c-15.333 0 -23 -13.667 -23 -41
zM193.001 0h-135v712h135v-712z" />
    <glyph glyph-name="itilde" unicode="&#x129;" horiz-adv-x="228" 
d="M37 583h-67.999c0 86.667 26.667 130 80 130c18 0 41.667 -7.66699 71 -23c21.333 -12 37.333 -18 48 -18c15.333 0 23 13.667 23 41h68c0 -86.667 -26.667 -130 -80 -130c-20 0 -44 8 -72 24c-24.667 11.333 -40.334 17 -47.001 17c-15.333 0 -23 -13.667 -23 -41z
M177.001 0h-126v516h126v-516z" />
    <glyph glyph-name="Imacron" unicode="&#x12a;" horiz-adv-x="252" 
d="M257 755h-262v88h262v-88zM193 0h-135v712h135v-712z" />
    <glyph glyph-name="imacron" unicode="&#x12b;" horiz-adv-x="228" 
d="M245 583h-262v88h262v-88zM177 0h-126v516h126v-516z" />
    <glyph glyph-name="Ibreve" unicode="&#x12c;" horiz-adv-x="252" 
d="M231 790c-26.667 -26.667 -61.667 -40 -105 -40s-78.666 13.333 -105.999 40c-28.667 26.667 -44.334 61 -47.001 103h91c3.33301 -41.333 24 -62 62 -62s58.667 20.667 62 62h91c-4.66699 -42.667 -20.667 -77 -48 -103zM193 0h-135v712h135v-712z" />
    <glyph glyph-name="ibreve" unicode="&#x12d;" horiz-adv-x="228" 
d="M219 618c-26.667 -26.667 -61.667 -40 -105 -40s-78.666 13.333 -105.999 40c-28.667 26.667 -44.334 61 -47.001 103h91c3.33301 -41.333 24 -62 62 -62s58.667 20.667 62 62h91c-4.66699 -42.667 -20.667 -77 -48 -103zM177 0h-126v516h126v-516z" />
    <glyph glyph-name="Iogonek" unicode="&#x12e;" horiz-adv-x="252" 
d="M165 -132c15.333 0 27.668 2.33203 37.001 6.99902v-74c-18 -6 -36.333 -9 -55 -9c-34.667 0 -61.834 8.16699 -81.501 24.5s-29.5 39.5 -29.5 69.5c0 22 6.83301 43.5 20.5 64.5s32.167 37.5 55.5 49.5h-54v712h135v-712h1c-48 -29.333 -72 -59.666 -72 -90.999
c0 -27.333 14.333 -41 43 -41z" />
    <glyph glyph-name="iogonek" unicode="&#x12f;" horiz-adv-x="228" 
d="M52 701h124v-118h-124v118zM148 -132c15.333 0 27.668 2.33203 37.001 6.99902v-74c-18 -6 -36.333 -9 -55 -9c-34.667 0 -61.834 8.16699 -81.501 24.5s-29.5 39.5 -29.5 69.5c0 22 6.83301 43.5 20.5 64.5s32.167 37.5 55.5 49.5h-44v516h126v-516
c-48 -29.333 -72 -59.666 -72 -90.999c0 -27.333 14.333 -41 43 -41z" />
    <glyph glyph-name="Idot" unicode="&#x130;" horiz-adv-x="252" 
d="M187 755h-123v118h123v-118zM193 0h-135v712h135v-712z" />
    <glyph glyph-name="dotlessi" unicode="&#x131;" horiz-adv-x="228" 
d="M177 0h-126v516h126v-516z" />
    <glyph glyph-name="IJ" unicode="&#x132;" horiz-adv-x="801" 
d="M193 0h-135v712h135v-712zM513 -16c-73.333 0 -130.834 20.166 -172.501 60.499s-62.5 94.833 -62.5 163.5v46h129v-46c0 -34 9.33301 -60.5 28 -79.5s44.334 -28.5 77.001 -28.5c33.333 0 59.333 9.33301 78 28s28 45.334 28 80.001v504h134v-504
c0 -67.333 -21.167 -121.5 -63.5 -162.5s-100.833 -61.5 -175.5 -61.5z" />
    <glyph glyph-name="ij" unicode="&#x133;" horiz-adv-x="456" 
d="M176 583h-124v118h124v-118zM404 583h-124v118h124v-118zM177 0h-126v516h126v-516zM253 -199c-4 0 -20 0.666992 -48 2v99h25c32.667 0 49 15 49 45v569h126v-583c0 -46 -12.5 -79.5 -37.5 -100.5s-63.167 -31.5 -114.5 -31.5z" />
    <glyph glyph-name="Jcircumflex" unicode="&#x134;" horiz-adv-x="549" 
d="M493 755l-60 80l-61 -80h-107l96 144h143l97 -144h-108zM366 208l-0.000976562 503.999h134v-504c0 -67.333 -21.167 -121.5 -63.5 -162.5s-100.833 -61.5 -175.5 -61.5c-73.333 0 -130.833 20.167 -172.5 60.5s-62.5 94.833 -62.5 163.5v46h129v-46
c0 -34 9.33301 -60.5 28 -79.5s44.334 -28.5 77.001 -28.5c33.333 0 59.333 9.33301 78 28s28 45.334 28 80.001z" />
    <glyph glyph-name="jcircumflex" unicode="&#x135;" horiz-adv-x="228" 
d="M174 583l-60 80l-61 -80h-107l96 144h143l97 -144h-108zM51 -53v569h126v-583c0 -46 -12.5 -79.5 -37.5 -100.5s-63.167 -31.5 -114.5 -31.5c-4 0 -20 0.666992 -48 2v99h25c32.667 0 49 15 49 45z" />
    <glyph glyph-name="uni0136" unicode="&#x136;" horiz-adv-x="700" 
d="M526 712h168l-293 -290l293 -422h-161l-228 332l-112 -109v-223h-135v712h135v-336zM355 -142h-56v99h122v-111c0 -30 -8 -51.833 -24 -65.5s-42 -21.167 -78 -22.5l-20 -1v49l18 1c25.333 1.33301 38 13.333 38 36v15z" />
    <glyph glyph-name="uni0137" unicode="&#x137;" horiz-adv-x="550" 
d="M535 516l-195 -195l207 -321h-144l-150 240l-78 -78v-162h-124v712h124v-410l210 214h150zM284 -166l-56.001 0.000976562v99h122v-111c0 -29.333 -8.16699 -51 -24.5 -65s-42.166 -21.667 -77.499 -23l-20 -1v50h18c25.333 1.33301 38 13.666 38 36.999v14z" />
    <glyph glyph-name="kgreenlandic" unicode="&#x138;" horiz-adv-x="550" 
d="M547 0h-144l-150 240l-78 -78v-162h-124v516h124v-214l210 214h150l-195 -195z" />
    <glyph glyph-name="Lacute" unicode="&#x139;" horiz-adv-x="548" 
d="M162 899h145l-129 -144h-103zM193 712v-591h339v-121h-474v712h135z" />
    <glyph glyph-name="lacute" unicode="&#x13a;" horiz-adv-x="228" 
d="M254 899l-93 -144h-93l53 144h133zM177 0h-126v712h126v-712z" />
    <glyph glyph-name="uni013B" unicode="&#x13b;" horiz-adv-x="548" 
d="M193 712v-591h339v-121h-474v712h135zM292 -142h-56v99h122v-111c0 -30 -8 -51.833 -24 -65.5s-42 -21.167 -78 -22.5l-20 -1v49l18 1c25.333 1.33301 38 13.333 38 36v15z" />
    <glyph glyph-name="uni013C" unicode="&#x13c;" horiz-adv-x="228" 
d="M51 0v712h126v-712h-126zM110 -166l-56.001 0.000976562v99h122v-111c0 -29.333 -8.16699 -51 -24.5 -65s-42.166 -21.667 -77.499 -23l-20 -1v50h18c25.333 1.33301 38 13.666 38 36.999v14z" />
    <glyph glyph-name="Lcaron" unicode="&#x13d;" horiz-adv-x="548" 
d="M193 712v-591h339v-121h-474v712h135zM291 712h129l-73 -166h-86z" />
    <glyph glyph-name="lcaron" unicode="&#x13e;" horiz-adv-x="364" 
d="M177 0h-126v712h126v-712zM300 546h-86l31 166h129z" />
    <glyph glyph-name="Ldot" unicode="&#x13f;" horiz-adv-x="548" 
d="M193 712v-591h339v-121h-474v712h135zM327 445h147v-144h-147v144z" />
    <glyph glyph-name="ldot" unicode="&#x140;" horiz-adv-x="454" 
d="M177 0h-126v712h126v-712zM416 282h-146v144h146v-144z" />
    <glyph glyph-name="Lslash" unicode="&#x141;" horiz-adv-x="569" 
d="M214 375v-254h339v-121h-474v318l-79 -34v86l79 34v308h135v-250l181 77v-87z" />
    <glyph glyph-name="lslash" unicode="&#x142;" horiz-adv-x="285" 
d="M205 433l80 39v-90l-80 -39v-343h-125v281l-80 -39v90l80 39v341h125v-279z" />
    <glyph glyph-name="Nacute" unicode="&#x143;" horiz-adv-x="718" 
d="M395 899h145l-129 -144h-103zM529 526v186h130v-712h-150l-198 317c-54 84.667 -96.333 156 -127 214c2.66699 -74.667 4 -189.667 4 -345v-186h-130v712h150l199 -317c59.333 -96 101.333 -167.333 126 -214c-2.66699 99.333 -4 214.333 -4 345z" />
    <glyph glyph-name="nacute" unicode="&#x144;" horiz-adv-x="566" 
d="M323 727h145l-129 -144h-103zM334 528c56 0 100.167 -16.168 132.5 -48.501s48.5 -78.166 48.5 -137.499v-342h-126v321c0 65.333 -32.333 98 -97 98c-32 0 -59.167 -11.5 -81.5 -34.5s-33.5 -54.833 -33.5 -95.5v-289h-126v516h122v-74c39.333 57.333 93 86 161 86z" />
    <glyph glyph-name="uni0145" unicode="&#x145;" horiz-adv-x="718" 
d="M529 526v186h130v-712h-150l-198 317c-54 84.667 -96.333 156 -127 214c2.66699 -74.667 4 -189.667 4 -345v-186h-130v712h150l199 -317c59.333 -96 101.333 -167.333 126 -214c-2.66699 99.333 -4 214.333 -4 345zM355 -142h-56v99h122v-111
c0 -30 -8 -51.833 -24 -65.5s-42 -21.167 -78 -22.5l-20 -1v49l18 1c25.333 1.33301 38 13.333 38 36v15z" />
    <glyph glyph-name="uni0146" unicode="&#x146;" horiz-adv-x="566" 
d="M334 528c56 0 100.167 -16.168 132.5 -48.501s48.5 -78.166 48.5 -137.499v-342h-126v321c0 65.333 -32.333 98 -97 98c-32 0 -59.167 -11.5 -81.5 -34.5s-33.5 -54.833 -33.5 -95.5v-289h-126v516h122v-74c39.333 57.333 93 86 161 86zM277 -166.001
l-56.001 0.000976562v99h122v-111c0 -29.333 -8.16699 -51 -24.5 -65s-42.166 -21.667 -77.499 -23l-20 -1v50h18c25.333 1.33301 38 13.666 38 36.999v14z" />
    <glyph glyph-name="Ncaron" unicode="&#x147;" horiz-adv-x="718" 
d="M551 899l-116 -144h-151l-117 144h115l77 -80l77 80h115zM529 526v186h130v-712h-150l-198 317c-54 84.667 -96.333 156 -127 214c2.66699 -74.667 4 -189.667 4 -345v-186h-130v712h150l199 -317c59.333 -96 101.333 -167.333 126 -214
c-2.66699 99.333 -4 214.333 -4 345z" />
    <glyph glyph-name="ncaron" unicode="&#x148;" horiz-adv-x="566" 
d="M475 726l-116 -144h-151l-117 144h115l77 -80l77 80h115zM334 528c56 0 100.167 -16.168 132.5 -48.501s48.5 -78.166 48.5 -137.499v-342h-126v321c0 65.333 -32.333 98 -97 98c-32 0 -59.167 -11.5 -81.5 -34.5s-33.5 -54.833 -33.5 -95.5v-289h-126v516h122v-74
c39.333 57.333 93 86 161 86z" />
    <glyph glyph-name="napostrophe" unicode="&#x149;" horiz-adv-x="742" 
d="M97 578h-59v134h138v-145c0 -89.333 -40.333 -135.333 -121 -138l-17 -1v69l16 1c28.667 2 43 23.333 43 64v16zM510 528c56 0 100 -16.168 132 -48.501s48 -78.166 48 -137.499v-342h-125v321c0 65.333 -32.333 98 -97 98c-33.333 0 -61 -11.5 -83 -34.5
s-33 -54.833 -33 -95.5v-289h-125v516h121v-76c38 58.667 92 88 162 88z" />
    <glyph glyph-name="Eng" unicode="&#x14a;" horiz-adv-x="718" 
d="M529 526l0.000976562 185.999h130v-721c0 -127.333 -67.667 -191 -203 -191c-18.667 0 -40.334 1.33301 -65.001 4v99c14 -2 28.667 -3 44 -3c65.333 0 98 31.333 98 94v9l-216 326c-56 84 -100.333 156 -133 216c2.66699 -77.333 4 -197 4 -359v-186h-130v712h150
l206 -311c39.333 -59.333 79 -123.333 119 -192c-2.66699 90.667 -4 196.334 -4 317.001z" />
    <glyph glyph-name="eng" unicode="&#x14b;" horiz-adv-x="566" 
d="M334 528c56 0 100.167 -16.168 132.5 -48.501s48.5 -78.166 48.5 -137.499v-410c0 -46 -12.5 -79.5 -37.5 -100.5s-63.167 -31.5 -114.5 -31.5c-5.33301 0 -21.333 0.666992 -48 2v98h25c32.667 0 49 15 49 45v376c0 65.333 -32.333 98 -97 98
c-32 0 -59.167 -11.5 -81.5 -34.5s-33.5 -54.833 -33.5 -95.5v-289h-126v516h122v-74c39.333 57.333 93 86 161 86z" />
    <glyph glyph-name="Omacron" unicode="&#x14c;" horiz-adv-x="768" 
d="M543 771h-318v88h318v-88zM384 -16c-106.667 0 -192.667 34 -258 102c-65.333 68.667 -98 158.667 -98 270s32.667 201.333 98 270c65.333 68 151.333 102 258 102s192.667 -34 258 -102c64.667 -67.333 97 -157.333 97 -270s-32.333 -202.667 -97 -270
c-65.333 -68 -151.333 -102 -258 -102zM228 171c39.333 -45.333 91.333 -68.002 156 -68.002c65.333 0 117.666 22.667 156.999 68c38.667 44.667 58 106.334 58 185.001s-19.333 140.334 -58 185.001c-39.333 45.333 -91.666 68 -156.999 68
c-64.667 0 -116.667 -22.667 -156 -68s-59 -107 -59 -185s19.667 -139.667 59 -185z" />
    <glyph glyph-name="omacron" unicode="&#x14d;" horiz-adv-x="581" 
d="M450 583h-318v88h318v-88zM481 62c-48 -49.333 -111.333 -74 -190 -74s-142 24.667 -190 74c-48.667 48.667 -73 114 -73 196s24.333 147.333 73 196c48 49.333 111.333 74 190 74s142 -24.333 190 -73s72 -114.334 72 -197.001c0 -81.333 -24 -146.666 -72 -195.999z
M291 92c42 0 74.833 14.5 98.5 43.5s35.5 69.833 35.5 122.5s-11.833 93.5 -35.5 122.5s-56.5 43.5 -98.5 43.5s-74.833 -14.333 -98.5 -43s-35.5 -69.667 -35.5 -123s11.833 -94.333 35.5 -123s56.5 -43 98.5 -43z" />
    <glyph glyph-name="Obreve" unicode="&#x14e;" horiz-adv-x="768" 
d="M384 766c-46 0 -84.167 13.333 -114.5 40s-48.166 63 -53.499 109h95c5.33301 -45.333 29.666 -68 72.999 -68c20 0 36.5 5.83301 49.5 17.5s20.833 28.5 23.5 50.5h95c-6.66699 -46 -25 -82.333 -55 -109s-67.667 -40 -113 -40zM384 -16
c-106.667 0 -192.667 34 -258 102c-65.333 68.667 -98 158.667 -98 270s32.667 201.333 98 270c65.333 68 151.333 102 258 102s192.667 -34 258 -102c64.667 -67.333 97 -157.333 97 -270s-32.333 -202.667 -97 -270c-65.333 -68 -151.333 -102 -258 -102zM228 171
c39.333 -45.333 91.333 -68.002 156 -68.002c65.333 0 117.666 22.667 156.999 68c38.667 44.667 58 106.334 58 185.001s-19.333 140.334 -58 185.001c-39.333 45.333 -91.666 68 -156.999 68c-64.667 0 -116.667 -22.667 -156 -68s-59 -107 -59 -185
s19.667 -139.667 59 -185z" />
    <glyph glyph-name="obreve" unicode="&#x14f;" horiz-adv-x="581" 
d="M291 578c-46 0 -84.166 13.333 -114.499 40s-48.166 63 -53.499 109h95c5.33301 -45.333 29.666 -68 72.999 -68s67.666 22.667 72.999 68h95c-6.66699 -46.667 -25 -83.167 -55 -109.5s-67.667 -39.5 -113 -39.5zM481.001 62c-48 -49.333 -111.333 -74 -190 -74
s-142 24.667 -190 74c-48.667 48.667 -73 114 -73 196s24.333 147.333 73 196c48 49.333 111.333 74 190 74s142 -24.333 190 -73s72 -114.334 72 -197.001c0 -81.333 -24 -146.666 -72 -195.999zM291.001 92c42 0 74.833 14.5 98.5 43.5s35.5 69.833 35.5 122.5
s-11.833 93.5 -35.5 122.5s-56.5 43.5 -98.5 43.5s-74.833 -14.333 -98.5 -43s-35.5 -69.667 -35.5 -123s11.833 -94.333 35.5 -123s56.5 -43 98.5 -43z" />
    <glyph glyph-name="Ohungarumlaut" unicode="&#x150;" horiz-adv-x="768" 
d="M331 771h-99l88 144h144zM531 771h-99l88 144h144zM384 -16c-106.667 0 -192.667 34 -258 102c-65.333 68.667 -98 158.667 -98 270s32.667 201.333 98 270c65.333 68 151.333 102 258 102s192.667 -34 258 -102c64.667 -67.333 97 -157.333 97 -270
s-32.333 -202.667 -97 -270c-65.333 -68 -151.333 -102 -258 -102zM228 171c39.333 -45.333 91.333 -68.002 156 -68.002c65.333 0 117.666 22.667 156.999 68c38.667 44.667 58 106.334 58 185.001s-19.333 140.334 -58 185.001c-39.333 45.333 -91.666 68 -156.999 68
c-64.667 0 -116.667 -22.667 -156 -68s-59 -107 -59 -185s19.667 -139.667 59 -185z" />
    <glyph glyph-name="ohungarumlaut" unicode="&#x151;" horiz-adv-x="581" 
d="M247 583h-99l88 144h144zM447 583h-99l88 144h144zM481 62c-48 -49.333 -111.333 -74 -190 -74s-142 24.667 -190 74c-48.667 48.667 -73 114 -73 196s24.333 147.333 73 196c48 49.333 111.333 74 190 74s142 -24.333 190 -73s72 -114.334 72 -197.001
c0 -81.333 -24 -146.666 -72 -195.999zM291 92c42 0 74.833 14.5 98.5 43.5s35.5 69.833 35.5 122.5s-11.833 93.5 -35.5 122.5s-56.5 43.5 -98.5 43.5s-74.833 -14.333 -98.5 -43s-35.5 -69.667 -35.5 -123s11.833 -94.333 35.5 -123s56.5 -43 98.5 -43z" />
    <glyph glyph-name="OE" unicode="&#x152;" horiz-adv-x="1148" 
d="M1123 712v-121h-389v-169h353v-115h-353v-187h387v-120h-522v78c-54.667 -62.667 -130.667 -94 -228 -94c-102 0 -184.333 34.333 -247 103c-64 68 -96 157.667 -96 269c0 110.667 32 200.667 96 270c62.667 68 145 102 247 102c97.333 0 173.333 -31.333 228 -94v78h524
zM228 171c39.333 -45.333 91.333 -68.002 156 -68.002c65.333 0 117.666 22.667 156.999 68c38.667 44.667 58 106.334 58 185.001s-19.333 140.334 -58 185.001c-39.333 45.333 -91.666 68 -156.999 68c-64.667 0 -116.667 -22.667 -156 -68s-59 -107 -59 -185
s19.667 -139.667 59 -185z" />
    <glyph glyph-name="oe" unicode="&#x153;" horiz-adv-x="965" 
d="M934 249l-0.00292969 -30.001h-385c4.66699 -43.333 18.5 -76.333 41.5 -99s53.5 -34 91.5 -34c58.667 0 97.667 24.667 117 74h121c-13.333 -52.667 -41.166 -94.5 -83.499 -125.5s-94.166 -46.5 -155.499 -46.5c-81.333 0 -145.666 30.667 -192.999 92
c-47.333 -61.333 -113 -92 -197 -92c-78.667 0 -142 24.667 -190 74c-48.667 48.667 -73 114 -73 196s24.333 147.333 73 196c48 49.333 111.333 74 190 74c85.333 0 151 -31 197 -93c45.333 62 109.333 93 192 93c78 0 140 -25.667 186 -77
c45.333 -51.333 68 -118.666 68 -201.999zM678.997 429.999c-34.667 0 -63.332 -10.5 -85.999 -31.5s-37 -51.5 -43 -91.5h258c-4.66699 38 -18.334 68 -41.001 90s-52 33 -88 33zM290.999 91.999c42 0 74.833 14.5 98.5 43.5s35.5 69.833 35.5 122.5
s-11.833 93.5 -35.5 122.5s-56.5 43.5 -98.5 43.5s-74.833 -14.333 -98.5 -43s-35.5 -69.667 -35.5 -123s11.833 -94.333 35.5 -123s56.5 -43 98.5 -43z" />
    <glyph glyph-name="Racute" unicode="&#x154;" horiz-adv-x="665" 
d="M366 899h145l-129 -144h-103zM616 189l6.00098 -106.002c0.666992 -34 8 -61.667 22 -83h-139c-12 20 -18.333 48.333 -19 85l-3 78c-2 43.333 -11.833 73.5 -29.5 90.5s-45.834 25.5 -84.501 25.5h-176v-279h-135v712h323c79.333 0 141 -18 185 -54s66 -85 66 -147
c0 -85.333 -39.667 -142 -119 -170c36 -11.333 61.833 -29.166 77.5 -53.499s24.167 -57.166 25.5 -98.499zM193.001 600.998v-216h180c38 0 67.5 9.5 88.5 28.5s31.5 46.5 31.5 82.5c0 34 -10.833 60 -32.5 78s-52.5 27 -92.5 27h-175z" />
    <glyph glyph-name="racute" unicode="&#x155;" horiz-adv-x="381" 
d="M219 727h133l-93 -144h-93zM327 524c11.333 0 21.667 -0.667969 31 -2.00098v-116h-32c-48 0 -84.833 -12.167 -110.5 -36.5s-38.5 -60.166 -38.5 -107.499v-262h-126v516h122v-92c28.667 66.667 80 100 154 100z" />
    <glyph glyph-name="uni0156" unicode="&#x156;" horiz-adv-x="665" 
d="M616 189l6.00098 -106.002c0.666992 -34 8 -61.667 22 -83h-139c-12 20 -18.333 48.333 -19 85l-3 78c-2 43.333 -11.833 73.5 -29.5 90.5s-45.834 25.5 -84.501 25.5h-176v-279h-135v712h323c79.333 0 141 -18 185 -54s66 -85 66 -147c0 -85.333 -39.667 -142 -119 -170
c36 -11.333 61.833 -29.166 77.5 -53.499s24.167 -57.166 25.5 -98.499zM193.001 600.998v-216h180c38 0 67.5 9.5 88.5 28.5s31.5 46.5 31.5 82.5c0 34 -10.833 60 -32.5 78s-52.5 27 -92.5 27h-175zM349.001 -142.002h-56v99h122v-111c0 -30 -8 -51.833 -24 -65.5
s-42 -21.167 -78 -22.5l-20 -1v49l18 1c25.333 1.33301 38 13.333 38 36v15z" />
    <glyph glyph-name="uni0157" unicode="&#x157;" horiz-adv-x="381" 
d="M327 524c11.333 0 21.667 -0.667969 31 -2.00098v-116h-32c-48 0 -84.833 -12.167 -110.5 -36.5s-38.5 -60.166 -38.5 -107.499v-262h-126v516h122v-92c28.667 66.667 80 100 154 100zM110.001 -166.001l-56.001 0.000976562v99h122v-111
c0 -29.333 -8.16699 -51 -24.5 -65s-42.166 -21.667 -77.499 -23l-20 -1v50h18c25.333 1.33301 38 13.666 38 36.999v14z" />
    <glyph glyph-name="Rcaron" unicode="&#x158;" horiz-adv-x="665" 
d="M521 899l-116 -144h-151l-117 144h115l77 -80l77 80h115zM616 189l6.00098 -106.002c0.666992 -34 8 -61.667 22 -83h-139c-12 20 -18.333 48.333 -19 85l-3 78c-2 43.333 -11.833 73.5 -29.5 90.5s-45.834 25.5 -84.501 25.5h-176v-279h-135v712h323
c79.333 0 141 -18 185 -54s66 -85 66 -147c0 -85.333 -39.667 -142 -119 -170c36 -11.333 61.833 -29.166 77.5 -53.499s24.167 -57.166 25.5 -98.499zM193.001 600.998v-216h180c38 0 67.5 9.5 88.5 28.5s31.5 46.5 31.5 82.5c0 34 -10.833 60 -32.5 78s-52.5 27 -92.5 27
h-175z" />
    <glyph glyph-name="rcaron" unicode="&#x159;" horiz-adv-x="381" 
d="M380 726l-97 -144h-143l-96 144h107l61 -80l60 80h108zM173 516l0.000976562 -92.001c28.667 66.667 80 100 154 100c11.333 0 21.666 -0.666992 30.999 -2v-116h-32c-48 0 -84.833 -12.167 -110.5 -36.5s-38.5 -60.166 -38.5 -107.499v-262h-126v516h122z" />
    <glyph glyph-name="Sacute" unicode="&#x15a;" horiz-adv-x="637" 
d="M359 771h-103l87 144h145zM329 -16c-96.667 0 -171.503 21.667 -224.503 65s-79.833 105.333 -80.5 186h133c0.666992 -50.667 15.834 -87 45.501 -109s73.167 -33 130.5 -33c46.667 0 82.334 8.83301 107.001 26.5s37 43.167 37 76.5c0 28 -10.5 49.333 -31.5 64
s-59.167 27.667 -114.5 39l-60 12c-152.667 28.667 -229 100.667 -229 216c0 61.333 23.333 110.166 70 146.499s111.334 54.5 194.001 54.5c94 0 165.167 -20 213.5 -60s73.833 -96 76.5 -168h-131c-2.66699 40.667 -16.167 70.667 -40.5 90s-63.166 29 -116.499 29
c-41.333 0 -73 -7.66699 -95 -23s-33 -37 -33 -65c0 -28.667 10.167 -50.667 30.5 -66s56.5 -28.333 108.5 -39l62 -12c83.333 -16.667 143.5 -41.5 180.5 -74.5s55.5 -78.5 55.5 -136.5c0 -69.333 -25.333 -123.166 -76 -161.499s-121.334 -57.5 -212.001 -57.5z" />
    <glyph glyph-name="sacute" unicode="&#x15b;" horiz-adv-x="499" 
d="M304 583h-103l87 144h145zM254 -14c-150.667 0 -229.333 59.332 -236 177.999h123c3.33301 -32 13.833 -54.667 31.5 -68s45.5 -20 83.5 -20c68 0 102 20.667 102 62c0 18.667 -7.33301 33 -22 43s-41 18.333 -79 25l-59 10c-112.667 18.667 -169 70.667 -169 156
c0 48.667 18.667 86.834 56 114.501s90 41.5 158 41.5c147.333 0 223.333 -58.333 228 -175h-119c-1.33301 30.667 -11 52.5 -29 65.5s-44.667 19.5 -80 19.5c-60 0 -90 -20 -90 -60c0 -17.333 6.66699 -30.833 20 -40.5s35.333 -17.167 66 -22.5l65 -10
c62.667 -11.333 108.167 -29.333 136.5 -54s42.5 -59 42.5 -103c0 -52 -20 -92 -60 -120s-96.333 -42 -169 -42z" />
    <glyph glyph-name="Scircumflex" unicode="&#x15c;" horiz-adv-x="637" 
d="M383 771l-77 80l-77 -80h-115l116 144h151l117 -144h-115zM319 426l61.9971 -12c83.333 -16.667 143.5 -41.5 180.5 -74.5s55.5 -78.5 55.5 -136.5c0 -69.333 -25.333 -123.166 -76 -161.499s-121.334 -57.5 -212.001 -57.5c-96.667 0 -171.5 21.667 -224.5 65
s-79.833 105.333 -80.5 186h133c0.666992 -50.667 15.834 -87 45.501 -109s73.167 -33 130.5 -33c46.667 0 82.334 8.83301 107.001 26.5s37 43.167 37 76.5c0 28 -10.5 49.333 -31.5 64s-59.167 27.667 -114.5 39l-60 12c-152.667 28.667 -229 100.667 -229 216
c0 61.333 23.333 110.166 70 146.499s111.334 54.5 194.001 54.5c94 0 165.167 -20 213.5 -60s73.833 -96 76.5 -168h-131c-2.66699 40.667 -16.167 70.667 -40.5 90s-63.166 29 -116.499 29c-41.333 0 -73 -7.66699 -95 -23s-33 -37 -33 -65
c0 -28.667 10.167 -50.667 30.5 -66s56.5 -28.333 108.5 -39z" />
    <glyph glyph-name="scircumflex" unicode="&#x15d;" horiz-adv-x="499" 
d="M325 583l-77 79l-77 -79h-115l116 144h151l117 -144h-115zM239 315l65.001 -10.001c62.667 -11.333 108.167 -29.333 136.5 -54s42.5 -59 42.5 -103c0 -52 -20 -92 -60 -120s-96.333 -42 -169 -42c-150.667 0 -229.334 59.333 -236.001 178h123
c3.33301 -32 13.833 -54.667 31.5 -68s45.5 -20 83.5 -20c68 0 102 20.667 102 62c0 18.667 -7.33301 33 -22 43s-41 18.333 -79 25l-59 10c-112.667 18.667 -169 70.667 -169 156c0 48.667 18.667 86.834 56 114.501s90 41.5 158 41.5c147.333 0 223.333 -58.333 228 -175
h-119c-1.33301 30.667 -11 52.5 -29 65.5s-44.667 19.5 -80 19.5c-60 0 -90 -20 -90 -60c0 -17.333 6.66699 -30.833 20 -40.5s35.333 -17.167 66 -22.5z" />
    <glyph glyph-name="Scedilla" unicode="&#x15e;" horiz-adv-x="637" 
d="M617 203c0 -63.333 -21.335 -113.832 -64.002 -151.499s-102.667 -59.5 -180 -65.5l-39 -45h13c30 0 54 -7.5 72 -22.5s27 -33.833 27 -56.5c0 -30 -12.333 -53.5 -37 -70.5s-61.667 -25.5 -111 -25.5c-18.667 0 -40.667 2 -66 6v53c16.667 -2.66699 35.667 -4 57 -4
c41.333 0 62 14 62 42c0 25.333 -19 38 -57 38c-12 0 -20.667 -0.333008 -26 -1v38l36 47c-88.667 3.33301 -157.334 26.5 -206.001 69.5s-73.334 103.167 -74.001 180.5h133c0.666992 -50.667 15.834 -87 45.501 -109s73.167 -33 130.5 -33
c46.667 0 82.334 8.83301 107.001 26.5s37 43.167 37 76.5c0 28 -10.5 49.333 -31.5 64s-59.167 27.667 -114.5 39l-60 12c-152.667 28.667 -229 100.667 -229 216c0 61.333 23.333 110.166 70 146.499s111.334 54.5 194.001 54.5c94 0 165.167 -20 213.5 -60
s73.833 -96 76.5 -168h-131c-2.66699 40.667 -16.167 70.667 -40.5 90s-63.166 29 -116.499 29c-41.333 0 -73 -7.66699 -95 -23s-33 -37 -33 -65c0 -28.667 10.167 -50.667 30.5 -66s56.5 -28.333 108.5 -39l62 -12c83.333 -16.667 143.5 -41.5 180.5 -74.5
s55.5 -78.5 55.5 -136.5z" />
    <glyph glyph-name="scedilla" unicode="&#x15f;" horiz-adv-x="499" 
d="M483 148c0 -46 -16.333 -82.834 -49 -110.501s-79.334 -44.167 -140.001 -49.5l-39 -45h13c30 0 54 -7.5 72 -22.5s27 -33.833 27 -56.5c0 -30 -12.333 -53.5 -37 -70.5s-61.667 -25.5 -111 -25.5c-19.333 0 -41.333 2 -66 6v53c16.667 -2.66699 35.667 -4 57 -4
c41.333 0 62 14 62 42c0 25.333 -19 38 -57 38c-12 0 -20.667 -0.333008 -26 -1v38l37 47c-131.333 6 -200.666 65 -207.999 177h123c3.33301 -32 13.833 -54.667 31.5 -68s45.5 -20 83.5 -20c68 0 102 20.667 102 62c0 18.667 -7.33301 33 -22 43s-41 18.333 -79 25l-59 10
c-112.667 18.667 -169 70.667 -169 156c0 48.667 18.667 86.834 56 114.501s90 41.5 158 41.5c147.333 0 223.333 -58.333 228 -175h-119c-1.33301 30.667 -11 52.5 -29 65.5s-44.667 19.5 -80 19.5c-60 0 -90 -20 -90 -60c0 -17.333 6.66699 -30.833 20 -40.5
s35.333 -17.167 66 -22.5l65 -10c62.667 -11.333 108.167 -29.333 136.5 -54s42.5 -59 42.5 -103z" />
    <glyph glyph-name="Scaron" unicode="&#x160;" horiz-adv-x="637" 
d="M498 915l-116 -144h-151l-117 144h115l77 -80l77 80h115zM319 426l61.9971 -12c83.333 -16.667 143.5 -41.5 180.5 -74.5s55.5 -78.5 55.5 -136.5c0 -69.333 -25.333 -123.166 -76 -161.499s-121.334 -57.5 -212.001 -57.5c-96.667 0 -171.5 21.667 -224.5 65
s-79.833 105.333 -80.5 186h133c0.666992 -50.667 15.834 -87 45.501 -109s73.167 -33 130.5 -33c46.667 0 82.334 8.83301 107.001 26.5s37 43.167 37 76.5c0 28 -10.5 49.333 -31.5 64s-59.167 27.667 -114.5 39l-60 12c-152.667 28.667 -229 100.667 -229 216
c0 61.333 23.333 110.166 70 146.499s111.334 54.5 194.001 54.5c94 0 165.167 -20 213.5 -60s73.833 -96 76.5 -168h-131c-2.66699 40.667 -16.167 70.667 -40.5 90s-63.166 29 -116.499 29c-41.333 0 -73 -7.66699 -95 -23s-33 -37 -33 -65
c0 -28.667 10.167 -50.667 30.5 -66s56.5 -28.333 108.5 -39z" />
    <glyph glyph-name="scaron" unicode="&#x161;" horiz-adv-x="499" 
d="M440 726l-116 -144h-151l-117 144h115l77 -80l77 80h115zM239 315l65.001 -10.001c62.667 -11.333 108.167 -29.333 136.5 -54s42.5 -59 42.5 -103c0 -52 -20 -92 -60 -120s-96.333 -42 -169 -42c-150.667 0 -229.334 59.333 -236.001 178h123
c3.33301 -32 13.833 -54.667 31.5 -68s45.5 -20 83.5 -20c68 0 102 20.667 102 62c0 18.667 -7.33301 33 -22 43s-41 18.333 -79 25l-59 10c-112.667 18.667 -169 70.667 -169 156c0 48.667 18.667 86.834 56 114.501s90 41.5 158 41.5c147.333 0 223.333 -58.333 228 -175
h-119c-1.33301 30.667 -11 52.5 -29 65.5s-44.667 19.5 -80 19.5c-60 0 -90 -20 -90 -60c0 -17.333 6.66699 -30.833 20 -40.5s35.333 -17.167 66 -22.5z" />
    <glyph glyph-name="uni0162" unicode="&#x162;" horiz-adv-x="624" 
d="M380 591v-591h-30l-38 -43h13c30 0 54 -7.5 72 -22.5s27 -33.833 27 -56.5c0 -30 -12.333 -53.5 -37 -70.5s-61.667 -25.5 -111 -25.5c-18.667 0 -40.667 2 -66 6v53c16.667 -2.66699 35.667 -4 57 -4c41.333 0 62 14 62 42c0 25.333 -19 38 -57 38
c-12 0 -20.667 -0.333008 -26 -1v38l36 46h-38v591h-228v121h592v-121h-228z" />
    <glyph glyph-name="uni0163" unicode="&#x163;" horiz-adv-x="343" 
d="M320 516v-95.999h-102v-279c0 -16.667 4.5 -28.334 13.5 -35.001s24.167 -10 45.5 -10h43v-96c-27.333 -2.66699 -49.333 -4 -66 -4h-14l-34 -39h13c30 0 54 -7.5 72 -22.5s27 -33.833 27 -56.5c0 -30 -12.333 -53.5 -37 -70.5s-61.667 -25.5 -111 -25.5
c-18.667 0 -40.667 2 -66 6v53c16.667 -2.66699 35.667 -4 57 -4c41.333 0 62 14 62 42c0 25.333 -19 38 -57 38c-12 0 -20.667 -0.333008 -26 -1v38l39 50c-57.333 16 -86 57.333 -86 124v292h-80v96h80v150h125v-150h102z" />
    <glyph glyph-name="Tcaron" unicode="&#x164;" horiz-adv-x="624" 
d="M504 899l-116 -144h-151l-117 144h115l77 -80l77 80h115zM16 712h592v-121h-228v-591h-136v591h-228v121z" />
    <glyph glyph-name="tcaron" unicode="&#x165;" horiz-adv-x="343" 
d="M250 546l31 166h129l-74 -166h-86zM93 666l125 0.000976562v-150h102v-96h-102v-279c0 -16.667 4.5 -28.334 13.5 -35.001s24.167 -10 45.5 -10h43v-96c-27.333 -2.66699 -49.333 -4 -66 -4c-56 0 -96.833 10.5 -122.5 31.5s-38.5 54.5 -38.5 100.5v292h-80v96h80v150z
" />
    <glyph glyph-name="Tbar" unicode="&#x166;" horiz-adv-x="624" 
d="M608 712v-121h-228v-202h130v-78h-130v-311h-136v311h-130v78h130v202h-228v121h592z" />
    <glyph glyph-name="tbar" unicode="&#x167;" horiz-adv-x="343" 
d="M320 516v-95.999h-102v-114h102v-78h-102v-87c0 -16.667 4.5 -28.334 13.5 -35.001s24.167 -10 45.5 -10h43v-96c-27.333 -2.66699 -49.333 -4 -66 -4c-56 0 -96.833 10.5 -122.5 31.5s-38.5 54.5 -38.5 100.5v100h-80v78h80v114h-80v96h80v150h125v-150h102z" />
    <glyph glyph-name="Utilde" unicode="&#x168;" horiz-adv-x="692" 
d="M249 755h-83.999c0 88 33.333 132 100 132c21.333 0 50.333 -7.66699 87 -23c26 -12.667 46.333 -19 61 -19c18 0 27.333 14 28 42h84c0 -88 -33.333 -132 -100 -132c-22.667 0 -52.334 8 -89.001 24c-28 12 -47.667 18 -59 18c-18 0 -27.333 -14 -28 -42zM346.001 -15
c-92.667 0 -165.5 24.833 -218.5 74.5s-79.5 119.167 -79.5 208.5v444h135v-445c0 -54 14 -95 42 -123s68.333 -42 121 -42s93 14 121 42s42 69 42 123v445h135v-444c0 -90.667 -26.333 -160.5 -79 -209.5s-125.667 -73.5 -219 -73.5z" />
    <glyph glyph-name="utilde" unicode="&#x169;" horiz-adv-x="566" 
d="M210 625c-17.333 0 -26.665 -14 -27.998 -42h-84c0 88 33.333 132 100 132c22.667 0 51.667 -8 87 -24c28 -12 48.333 -18 61 -18c17.333 0 26.666 14 27.999 42h84c0 -88 -33.333 -132 -100 -132c-22.667 0 -52.334 8 -89.001 24c-28 12 -47.667 18 -59 18zM389.001 227
l-0.000976562 289.001h126v-516h-122v75c-39.333 -58 -93.333 -87 -162 -87c-55.333 0 -99.166 16.167 -131.499 48.5s-48.5 78.166 -48.5 137.499v342h126v-321c0 -65.333 32.333 -98 97 -98c32 0 59.167 11.5 81.5 34.5s33.5 54.833 33.5 95.5z" />
    <glyph glyph-name="Umacron" unicode="&#x16a;" horiz-adv-x="692" 
d="M505 755h-318v88h318v-88zM346 -15c-92.667 0 -165.5 24.833 -218.5 74.5s-79.5 119.167 -79.5 208.5v444h135v-445c0 -54 14 -95 42 -123s68.333 -42 121 -42s93 14 121 42s42 69 42 123v445h135v-444c0 -90.667 -26.333 -160.5 -79 -209.5s-125.667 -73.5 -219 -73.5z
" />
    <glyph glyph-name="umacron" unicode="&#x16b;" horiz-adv-x="566" 
d="M119 671h318v-88h-318v88zM389 227l-0.000976562 289.001h126v-516h-122v75c-39.333 -58 -93.333 -87 -162 -87c-55.333 0 -99.166 16.167 -131.499 48.5s-48.5 78.166 -48.5 137.499v342h126v-321c0 -65.333 32.333 -98 97 -98c32 0 59.167 11.5 81.5 34.5
s33.5 54.833 33.5 95.5z" />
    <glyph glyph-name="Ubreve" unicode="&#x16c;" horiz-adv-x="692" 
d="M346 750c-46 0 -84.167 13.333 -114.5 40s-48.166 63 -53.499 109h95c5.33301 -45.333 29.666 -68 72.999 -68c20 0 36.5 5.83301 49.5 17.5s20.833 28.5 23.5 50.5h95c-6.66699 -46 -25 -82.333 -55 -109s-67.667 -40 -113 -40zM346 -15
c-92.667 0 -165.5 24.833 -218.5 74.5s-79.5 119.167 -79.5 208.5v444h135v-445c0 -54 14 -95 42 -123s68.333 -42 121 -42s93 14 121 42s42 69 42 123v445h135v-444c0 -90.667 -26.333 -160.5 -79 -209.5s-125.667 -73.5 -219 -73.5z" />
    <glyph glyph-name="ubreve" unicode="&#x16d;" horiz-adv-x="566" 
d="M278 578c-46 0 -84.166 13.333 -114.499 40s-48.166 63 -53.499 109h95c5.33301 -45.333 29.666 -68 72.999 -68s67.666 22.667 72.999 68h95c-6.66699 -46.667 -25 -83.167 -55 -109.5s-67.667 -39.5 -113 -39.5zM389.001 227l-0.000976562 289.001h126v-516h-122v75
c-39.333 -58 -93.333 -87 -162 -87c-55.333 0 -99.166 16.167 -131.499 48.5s-48.5 78.166 -48.5 137.499v342h126v-321c0 -65.333 32.333 -98 97 -98c32 0 59.167 11.5 81.5 34.5s33.5 54.833 33.5 95.5z" />
    <glyph glyph-name="Uring" unicode="&#x16e;" horiz-adv-x="692" 
d="M448 675c-26.667 -26 -60.667 -39 -102 -39s-75.333 13 -102 39c-27.333 25.333 -41 57.666 -41 96.999s13.667 72 41 98c26.667 26 60.667 39 102 39s75.333 -13 102 -39c27.333 -26 41 -58.667 41 -98s-13.667 -71.666 -41 -96.999zM302 730
c18 -19.333 40.5 -23.667 67.5 -13s39.5 29 37.5 55c0 17.333 -5.83301 31.833 -17.5 43.5s-26.167 17.5 -43.5 17.5s-32 -5.83301 -44 -17.5s-18 -26.167 -18 -43.5s6 -31.333 18 -42zM346 -15.001c-92.667 0 -165.5 24.833 -218.5 74.5s-79.5 119.167 -79.5 208.5v444h135
v-445c0 -54 14 -95 42 -123s68.333 -42 121 -42s93 14 121 42s42 69 42 123v445h135v-444c0 -90.667 -26.333 -160.5 -79 -209.5s-125.667 -73.5 -219 -73.5z" />
    <glyph glyph-name="uring" unicode="&#x16f;" horiz-adv-x="566" 
d="M380 617c-26.667 -26 -60.667 -39 -102 -39s-75.333 13 -102 39c-27.333 26 -41 58.667 -41 98s13.667 72 41 98c27.333 25.333 61.333 38 102 38s74.667 -12.667 102 -38c27.333 -26 41 -58.667 41 -98s-13.667 -72 -41 -98zM322 758
c-17.333 19.333 -39.667 23.5 -67 12.5s-40 -29.5 -38 -55.5c0 -17.333 5.83301 -31.833 17.5 -43.5s26.167 -17.5 43.5 -17.5s31.833 5.83301 43.5 17.5s17.5 26.167 17.5 43.5c0 16 -5.66699 30.333 -17 43zM388.999 227l-0.000976562 289.001h126v-516h-122v75
c-39.333 -58 -93.333 -87 -162 -87c-55.333 0 -99.166 16.167 -131.499 48.5s-48.5 78.166 -48.5 137.499v342h126v-321c0 -65.333 32.333 -98 97 -98c32 0 59.167 11.5 81.5 34.5s33.5 54.833 33.5 95.5z" />
    <glyph glyph-name="Uhungarumlaut" unicode="&#x170;" horiz-adv-x="692" 
d="M293 755h-99l88 144h144zM493 755h-99l88 144h144zM346 -15c-92.667 0 -165.5 24.833 -218.5 74.5s-79.5 119.167 -79.5 208.5v444h135v-445c0 -54 14 -95 42 -123s68.333 -42 121 -42s93 14 121 42s42 69 42 123v445h135v-444c0 -90.667 -26.333 -160.5 -79 -209.5
s-125.667 -73.5 -219 -73.5z" />
    <glyph glyph-name="uhungarumlaut" unicode="&#x171;" horiz-adv-x="566" 
d="M224 727h144l-133 -144h-99zM568 727l-133 -144h-99l88 144h144zM389 227l-0.000976562 289.001h126v-516h-122v75c-39.333 -58 -93.333 -87 -162 -87c-55.333 0 -99.166 16.167 -131.499 48.5s-48.5 78.166 -48.5 137.499v342h126v-321c0 -65.333 32.333 -98 97 -98
c32 0 59.167 11.5 81.5 34.5s33.5 54.833 33.5 95.5z" />
    <glyph glyph-name="Uogonek" unicode="&#x172;" horiz-adv-x="692" 
d="M509 267l0.000976562 445h135v-444c0 -70 -16 -127.667 -48 -173s-77.667 -77 -137 -95h2c-66.667 -30.667 -100 -61.667 -100 -93c0 -25.333 16.667 -38 50 -38c12 0 28.667 2.66699 50 8v-75c-19.333 -6.66699 -43 -10 -71 -10c-38.667 0 -69.834 8.5 -93.501 25.5
s-35.5 40.5 -35.5 70.5c0 38.667 23.333 71 70 97c-88.667 3.33301 -158 29.5 -208 78.5s-75 117.167 -75 204.5v444h135v-445c0 -54 14 -95 42 -123s68.333 -42 121 -42s93 14 121 42s42 69 42 123z" />
    <glyph glyph-name="uogonek" unicode="&#x173;" horiz-adv-x="566" 
d="M515 516v-515.999c-66.667 -30.667 -100 -61.667 -100 -93c0 -25.333 16.667 -38 50 -38c12 0 28.667 2.66699 50 8v-75c-19.333 -6.66699 -43 -10 -71 -10c-38.667 0 -69.834 8.5 -93.501 25.5s-35.5 40.5 -35.5 70.5c0 22 9 43.333 27 64s43.333 36.667 76 48h-25v75
c-39.333 -58 -93.333 -87 -162 -87c-55.333 0 -99.166 16.167 -131.499 48.5s-48.5 78.166 -48.5 137.499v342h126v-321c0 -65.333 32.333 -98 97 -98c32 0 59.167 11.5 81.5 34.5s33.5 54.833 33.5 95.5v289h126z" />
    <glyph glyph-name="Wcircumflex" unicode="&#x174;" horiz-adv-x="978" 
d="M566 755l-77 80l-77 -80h-115l116 144h151l117 -144h-115zM757 425l74.999 287h140l-197 -712h-152l-76 296c-31.333 130 -50.666 214 -57.999 252c-18.667 -88.667 -38 -172.667 -58 -252l-76 -296h-151l-198 712h141l74 -287c34.667 -138.667 56.334 -229 65.001 -271
c21.333 100 41.666 190.667 60.999 272l73 286h139l73 -286c18.667 -76 38.667 -167 60 -273c14 62 35.667 152.667 65 272z" />
    <glyph glyph-name="wcircumflex" unicode="&#x175;" horiz-adv-x="826" 
d="M490 583l-77 79l-77 -79h-115l116 144h151l117 -144h-115zM630 323l58.001 192.999h135l-170 -516h-132l-65 212c-24.667 86.667 -39.334 138 -44.001 154c-2 -7.33301 -16.333 -58.666 -43 -153.999l-64 -212h-132l-170 516h135l58 -193
c14.667 -46 31.667 -105.667 51 -179c18.667 74 35 134 49 180l57 192h120l57 -192c14 -46 30.333 -106 49 -180c17.333 66 34.333 125.667 51 179z" />
    <glyph glyph-name="Ycircumflex" unicode="&#x176;" horiz-adv-x="683" 
d="M418 755l-77 80l-77 -80h-115l116 144h151l117 -144h-115zM450 584l78 128h149l-267 -431v-281h-135v281l-269 431h153l79 -129c64 -106.667 99.667 -166.667 107 -180c18 32 53 92.333 105 181z" />
    <glyph glyph-name="ycircumflex" unicode="&#x177;" horiz-adv-x="522" 
d="M338 583l-77 79l-77 -79h-115l116 144h151l117 -144h-115zM346 386l42.001 129.999h132l-199 -558c-21.333 -58.667 -48 -99 -80 -121c-32.667 -22.667 -80 -34 -142 -34c-20.667 0 -39 1 -55 3v99h48c27.333 0 48.333 7.66699 63 23s22 35.333 22 60
s-8 59.334 -24 104.001l-150 424h136l42 -129c29.333 -92 56.666 -188 81.999 -288c20 75.333 47.667 171 83 287z" />
    <glyph glyph-name="Ydieresis" unicode="&#x178;" horiz-adv-x="683" 
d="M181 873h124v-118h-124v118zM377 873h124v-118h-124v118zM450 584l78 128h149l-267 -431v-281h-135v281l-269 431h153l79 -129c64 -106.667 99.667 -166.667 107 -180c18 32 53 92.333 105 181z" />
    <glyph glyph-name="Zacute" unicode="&#x179;" horiz-adv-x="627" 
d="M353 899h145l-129 -144h-103zM402 121h200v-121h-577v110l268 329c60 72.667 103.333 124 130 154c-122.667 -1.33301 -191.334 -2 -206.001 -2h-178v121h557v-109l-270 -330c-60 -72.667 -103.333 -124 -130 -154c122.667 1.33301 191.334 2 206.001 2z" />
    <glyph glyph-name="zacute" unicode="&#x17a;" horiz-adv-x="499" 
d="M290 727h145l-129 -144h-103zM294 98h175v-98h-438v83l204 257c9.33301 11.333 21.166 25.666 35.499 42.999s24.166 29.333 29.499 36c-16 -0.666992 -51.333 -1 -106 -1h-158v98h421v-83l-204 -257c-9.33301 -11.333 -21.166 -25.666 -35.499 -42.999
s-24.166 -29.333 -29.499 -36c16 0.666992 51.333 1 106 1z" />
    <glyph glyph-name="Zdotaccent" unicode="&#x17b;" horiz-adv-x="627" 
d="M253 873h124v-118h-124v118zM402 121h200v-121h-577v110l268 329c60 72.667 103.333 124 130 154c-122.667 -1.33301 -191.334 -2 -206.001 -2h-178v121h557v-109l-270 -330c-60 -72.667 -103.333 -124 -130 -154c122.667 1.33301 191.334 2 206.001 2z" />
    <glyph glyph-name="zdotaccent" unicode="&#x17c;" horiz-adv-x="499" 
d="M188 701h124v-118h-124v118zM294 98h175v-98h-438v83l204 257c9.33301 11.333 21.166 25.666 35.499 42.999s24.166 29.333 29.499 36c-16 -0.666992 -51.333 -1 -106 -1h-158v98h421v-83l-204 -257c-9.33301 -11.333 -21.166 -25.666 -35.499 -42.999
s-24.166 -29.333 -29.499 -36c16 0.666992 51.333 1 106 1z" />
    <glyph glyph-name="Zcaron" unicode="&#x17d;" horiz-adv-x="627" 
d="M508 899l-116 -144h-151l-117 144h115l77 -80l77 80h115zM402 121h200v-121h-577v110l268 329c60 72.667 103.333 124 130 154c-122.667 -1.33301 -191.334 -2 -206.001 -2h-178v121h557v-109l-270 -330c-60 -72.667 -103.333 -124 -130 -154
c122.667 1.33301 191.334 2 206.001 2z" />
    <glyph glyph-name="zcaron" unicode="&#x17e;" horiz-adv-x="499" 
d="M442 726l-116 -144h-151l-117 144h115l77 -80l77 80h115zM294 98h175v-98h-438v83l204 257c9.33301 11.333 21.166 25.666 35.499 42.999s24.166 29.333 29.499 36c-16 -0.666992 -51.333 -1 -106 -1h-158v98h421v-83l-204 -257
c-9.33301 -11.333 -21.166 -25.666 -35.499 -42.999s-24.166 -29.333 -29.499 -36c16 0.666992 51.333 1 106 1z" />
    <glyph glyph-name="uni018F" unicode="&#x18f;" horiz-adv-x="737" 
d="M361 728c106 0 190.666 -33.666 253.999 -100.999c62 -68 93 -158.667 93 -272c0 -110.667 -31 -200 -93 -268c-62 -68.667 -144.667 -103 -248 -103c-105.333 0 -188 35.333 -248 106c-60.667 70.667 -91 160.667 -91 270v35h540
c-5.33301 70 -25.666 123.333 -60.999 160s-84 55 -146 55c-44 0 -81.5 -10.833 -112.5 -32.5s-53.167 -51.834 -66.5 -90.501h-136c16.667 72.667 52.667 131 108 175c54.667 44 123.667 66 207 66zM364.999 101.001c56.667 0 102.668 17.333 138.001 52
s56.666 84 63.999 148h-400c5.33301 -61.333 25.333 -110 60 -146s80.667 -54 138 -54z" />
    <glyph glyph-name="florin" unicode="&#x192;" horiz-adv-x="504" 
d="M438 615c-24.667 0 -42.5 -5.66699 -53.5 -17s-18.5 -31.333 -22.5 -60l-19 -130h102v-96h-116l-52 -348c-8.66699 -60 -27.167 -103.5 -55.5 -130.5s-70.5 -40.5 -126.5 -40.5c-29.333 0 -53.333 1.33301 -72 4v101c18 -2 32.333 -3 43 -3
c24.667 0 42.5 5.66699 53.5 17s18.833 31.333 23.5 60l50 340h-95v96h110l20 138c8.66699 60 27 103.5 55 130.5s70 40.5 126 40.5c30 0 54.333 -1.33301 73 -4v-102c-14 2.66699 -28.667 4 -44 4z" />
    <glyph glyph-name="uni01F4" unicode="&#x1f4;" horiz-adv-x="765" 
d="M416 915h145l-129 -144h-103zM399 275l0.000976562 109h318v-384h-98l-19 94c-51.333 -73.333 -128.666 -110 -231.999 -110c-102.667 0 -185 34 -247 102s-93 158 -93 270s31.667 202.333 95 271c63.333 67.333 149 101 257 101c89.333 0 163.666 -22.667 222.999 -68
c58.667 -45.333 94 -107 106 -185h-139c-10 42 -31.833 75 -65.5 99s-74.834 36 -123.501 36c-65.333 0 -117 -22.667 -155 -68s-57 -107.333 -57 -186s19.333 -140.667 58 -186s91.667 -68 159 -68c53.333 0 99 16 137 48s58.667 73.667 62 125h-186z" />
    <glyph glyph-name="uni01F5" unicode="&#x1f5;" horiz-adv-x="596" 
d="M336 727h145l-129 -144h-103zM423 445l-0.000976562 71.001h122v-499c0 -70 -22.167 -125 -66.5 -165s-107.166 -60 -188.499 -60c-72 0 -128.5 16 -169.5 48s-63.5 76 -67.5 132h124c6 -55.333 44.333 -83 115 -83c41.333 0 72.833 10.667 94.5 32s32.5 52.333 32.5 93
v65c-37.333 -51.333 -90 -77 -158 -77c-70 0 -126.333 24.333 -169 73c-42.667 47.333 -64 110.666 -64 189.999c0 80 21.333 143.667 64 191c42 48 98 72 168 72c72.667 0 127 -27.667 163 -83zM288.999 106.001c42 0 74.667 14 98 42s35 67 35 117s-11.667 89 -35 117
s-56 42 -98 42c-40.667 0 -72.834 -14.167 -96.501 -42.5s-35.5 -67.5 -35.5 -117.5c0 -49.333 11.833 -88 35.5 -116s55.834 -42 96.501 -42z" />
    <glyph glyph-name="Aringacute" unicode="&#x1fa;" horiz-adv-x="718" 
d="M711 0h-143l-56 157h-312l-55 -157h-139l254 668c-32 26.667 -48 61.334 -48 104.001c0 32.667 9.83301 61.167 29.5 85.5s45.167 40.166 76.5 47.499l73 120h145l-116 -130c24 -10.667 43 -27 57 -49s21 -46.667 21 -74c0 -42 -15.667 -76 -47 -102zM399 816
c-18 18.667 -40.5 22.5 -67.5 11.5s-39.5 -29.5 -37.5 -55.5c0 -16.667 5.83301 -30.834 17.5 -42.501s26.167 -17.5 43.5 -17.5s32 5.83301 44 17.5s18 25.834 18 42.501c0 17.333 -6 32 -18 44zM268 349l-27.001 -76.999h230l-28 77
c-23.333 59.333 -52.666 140.666 -87.999 243.999c-28 -82.667 -57 -164 -87 -244z" />
    <glyph glyph-name="aringacute" unicode="&#x1fb;" horiz-adv-x="539" 
d="M318 1047h145l-129 -144h-103zM381 617c-27.333 -26 -61.333 -39 -102 -39s-74.667 13 -102 39s-41 58.667 -41 98s13.667 72 41 98c27.333 25.333 61.333 38 102 38s74.667 -12.667 102 -38c27.333 -26 41 -58.667 41 -98s-13.667 -72 -41 -98zM323 758
c-17.333 19.333 -39.667 23.5 -67 12.5s-40 -29.5 -38 -55.5c0 -17.333 5.83301 -31.833 17.5 -43.5s26.167 -17.5 43.5 -17.5s31.833 5.83301 43.5 17.5s17.5 26.167 17.5 43.5c0 16 -5.66699 30.333 -17 43zM514.999 0h-125.998c-6 10.667 -10.667 31.667 -14 63
c-34.667 -50 -90 -75 -166 -75c-56.667 0 -101.834 13.667 -135.501 41s-50.5 65.333 -50.5 114c0 94 66 147.667 198 161l78 7c26 3.33301 44.667 9.5 56 18.5s17 22.5 17 40.5c0 22 -7.16699 38.167 -21.5 48.5s-38.5 15.5 -72.5 15.5c-36.667 0 -63 -6.16699 -79 -18.5
s-25.333 -33.5 -28 -63.5h-124c7.33301 117.333 84.666 176 231.999 176c143.333 0 215 -51.667 215 -155v-275c0 -45.333 7 -78 21 -98zM239.001 78c39.333 0 71.332 10.832 95.999 32.499s37 52.834 37 93.501v47c-12 -10.667 -31.667 -17.667 -59 -21l-68 -8
c-33.333 -4 -57.166 -11.833 -71.499 -23.5s-21.5 -28.5 -21.5 -50.5s7.5 -39.167 22.5 -51.5s36.5 -18.5 64.5 -18.5z" />
    <glyph glyph-name="AEacute" unicode="&#x1fc;" horiz-adv-x="1049" 
d="M732 899h145l-129 -144h-103zM1024 712v-121h-355v-168h318v-116h-318v-186h352v-121h-485v175h-300l-88 -175h-142l363 712h655zM449 597l-155 -307h242v307h-87z" />
    <glyph glyph-name="aeacute" unicode="&#x1fd;" horiz-adv-x="886" 
d="M488 727h145l-129 -144h-103zM856 249l0.00292969 -30.001h-367c4.66699 -43.333 18 -76.333 40 -99s51.333 -34 88 -34c56 0 93 24.667 111 74h116c-12.667 -52.667 -39.5 -94.5 -80.5 -125.5s-90.5 -46.5 -148.5 -46.5c-82 0 -145.333 30 -190 90
c-48.667 -60 -117.667 -90 -207 -90c-60.667 0 -108.334 13.5 -143.001 40.5s-52 65.167 -52 114.5c0 94 66 147.667 198 161l78 7c26 3.33301 44.667 9.5 56 18.5s17 22.5 17 40.5c0 22 -7.16699 38.167 -21.5 48.5s-38.5 15.5 -72.5 15.5
c-36.667 0 -63 -6.16699 -79 -18.5s-25.333 -33.5 -28 -63.5h-124c7.33301 117.333 84.666 176 231.999 176c84 0 141 -20.667 171 -62c43.333 41.333 97.666 62 162.999 62c74.667 0 134 -25.667 178 -77c43.333 -51.333 65 -118.666 65 -201.999zM613.003 429.999
c-34 0 -61.667 -10.5 -83 -31.5s-34.666 -51.5 -39.999 -91.5h246c-4.66699 38 -17.834 68 -39.501 90s-49.5 33 -83.5 33zM239.003 77.999c39.333 0 71.332 10.832 95.999 32.499s37 52.834 37 93.501v47c-12 -10.667 -31.667 -17.667 -59 -21l-68 -8
c-33.333 -4 -57.166 -11.833 -71.499 -23.5s-21.5 -28.5 -21.5 -50.5s7.5 -39.167 22.5 -51.5s36.5 -18.5 64.5 -18.5z" />
    <glyph glyph-name="Oslashacute" unicode="&#x1fe;" horiz-adv-x="768" 
d="M420 915h145l-129 -144h-103zM686 760l61.999 -56l-88 -99c52.667 -65.333 79 -148.333 79 -249c0 -112.667 -32.333 -202.667 -97 -270c-65.333 -68 -151.333 -102 -258 -102c-85.333 0 -157.666 22 -216.999 66l-86 -98l-62 55l88 100
c-52.667 66.667 -79 149.667 -79 249c0 111.333 32.667 201.333 98 270c65.333 68 151.333 102 258 102c83.333 0 155.333 -21.667 216 -65zM168.999 356c0 -56.667 10.333 -104.667 31 -144l314 354c-34.667 28.667 -78 43 -130 43c-66 0 -118.333 -22.667 -157 -68
s-58 -107 -58 -185zM598.999 356c0 56 -10.333 104.333 -31 145l-315 -355c35.333 -28.667 79 -43 131 -43c66 0 118.333 22.667 157 68s58 107 58 185z" />
    <glyph glyph-name="oslashacute" unicode="&#x1ff;" horiz-adv-x="581" 
d="M331 727h145l-129 -144h-103zM505 557l54.001 -48.002l-63 -72c38 -46 57 -105.667 57 -179c0 -81.333 -24 -146.666 -72 -195.999s-111.333 -74 -190 -74c-58.667 0 -109.334 14 -152.001 42l-63 -72l-55 48l64 73c-38 48.667 -57 108.334 -57 179.001
c0 82 24.333 147.333 73 196c48 49.333 111.333 74 190 74c58 0 108.667 -14 152 -42zM153.001 257.998c0 -31.333 4.66797 -60 14.001 -86l205 233c-20.667 16.667 -47.667 25 -81 25c-42.667 0 -76.334 -15 -101.001 -45s-37 -72.333 -37 -127zM429.002 257.998
c0 32 -4.66797 61 -14.001 87l-205 -234c20.667 -16.667 47.667 -25 81 -25c42.667 0 76.334 15 101.001 45s37 72.333 37 127z" />
    <glyph glyph-name="uni0218" unicode="&#x218;" horiz-adv-x="637" 
d="M319 426l61.9971 -12c83.333 -16.667 143.5 -41.5 180.5 -74.5s55.5 -78.5 55.5 -136.5c0 -69.333 -25.333 -123.166 -76 -161.499s-121.334 -57.5 -212.001 -57.5c-96.667 0 -171.5 21.667 -224.5 65s-79.833 105.333 -80.5 186h133
c0.666992 -50.667 15.834 -87 45.501 -109s73.167 -33 130.5 -33c46.667 0 82.334 8.83301 107.001 26.5s37 43.167 37 76.5c0 28 -10.5 49.333 -31.5 64s-59.167 27.667 -114.5 39l-60 12c-152.667 28.667 -229 100.667 -229 216c0 61.333 23.333 110.166 70 146.499
s111.334 54.5 194.001 54.5c94 0 165.167 -20 213.5 -60s73.833 -96 76.5 -168h-131c-2.66699 40.667 -16.167 70.667 -40.5 90s-63.166 29 -116.499 29c-41.333 0 -73 -7.66699 -95 -23s-33 -37 -33 -65c0 -28.667 10.167 -50.667 30.5 -66s56.5 -28.333 108.5 -39z
M329.997 -158h-56v99h122v-111c0 -30 -8 -51.833 -24 -65.5s-42 -21.167 -78 -22.5l-20 -1v49l18 1c25.333 1.33301 38 13.333 38 36v15z" />
    <glyph glyph-name="uni0219" unicode="&#x219;" horiz-adv-x="499" 
d="M239 315l65.001 -10.001c62.667 -11.333 108.167 -29.333 136.5 -54s42.5 -59 42.5 -103c0 -52 -20 -92 -60 -120s-96.333 -42 -169 -42c-150.667 0 -229.334 59.333 -236.001 178h123c3.33301 -32 13.833 -54.667 31.5 -68s45.5 -20 83.5 -20c68 0 102 20.667 102 62
c0 18.667 -7.33301 33 -22 43s-41 18.333 -79 25l-59 10c-112.667 18.667 -169 70.667 -169 156c0 48.667 18.667 86.834 56 114.501s90 41.5 158 41.5c147.333 0 223.333 -58.333 228 -175h-119c-1.33301 30.667 -11 52.5 -29 65.5s-44.667 19.5 -80 19.5
c-60 0 -90 -20 -90 -60c0 -17.333 6.66699 -30.833 20 -40.5s35.333 -17.167 66 -22.5zM251.001 -180.001l-56.001 0.000976562v99h122v-111c0 -29.333 -8.16699 -51 -24.5 -65s-42.166 -21.667 -77.499 -23l-20 -1v50h18c25.333 1.33301 38 13.666 38 36.999v14z" />
    <glyph glyph-name="uni021A" unicode="&#x21a;" horiz-adv-x="624" 
d="M16 712h592v-121h-228v-591h-136v591h-228v121zM308 -142h-56v99h122v-111c0 -30 -8 -51.833 -24 -65.5s-42 -21.167 -78 -22.5l-20 -1v49l18 1c25.333 1.33301 38 13.333 38 36v15z" />
    <glyph glyph-name="uni021B" unicode="&#x21b;" horiz-adv-x="343" 
d="M320 516v-95.999h-102v-279c0 -16.667 4.5 -28.334 13.5 -35.001s24.167 -10 45.5 -10h43v-96c-27.333 -2.66699 -49.333 -4 -66 -4c-56 0 -96.833 10.5 -122.5 31.5s-38.5 54.5 -38.5 100.5v292h-80v96h80v150h125v-150h102zM202 -165.999l-56.001 0.000976562v99h122
v-111c0 -29.333 -8.16699 -51 -24.5 -65s-42.166 -21.667 -77.499 -23l-20 -1v50h18c25.333 1.33301 38 13.666 38 36.999v14z" />
    <glyph glyph-name="uni0237" unicode="&#x237;" horiz-adv-x="228" 
d="M25 -199c-4 0 -20 0.666992 -48 2v99h25c32.667 0 49 15 49 45v569h126v-583c0 -46 -12.5 -79.5 -37.5 -100.5s-63.167 -31.5 -114.5 -31.5z" />
    <glyph glyph-name="uni0259" unicode="&#x259;" horiz-adv-x="568" 
d="M282 528c78 0 140.333 -24.332 187 -72.999c47.333 -49.333 71 -115 71 -197s-23.333 -147.333 -70 -196c-47.333 -49.333 -109 -74 -185 -74c-78 0 -139.667 25.667 -185 77c-46 51.333 -69 118.666 -69 201.999v30h385c-8.66699 88.667 -53.667 133 -135 133
c-57.333 0 -96.666 -24.667 -117.999 -74h-122c13.333 52.667 41.666 94.5 84.999 125.5s95.333 46.5 156 46.5zM286 86.001c74 0 116.999 41 128.999 123h-258c4.66699 -38 18.334 -68 41.001 -90s52 -33 88 -33z" />
    <glyph glyph-name="h.sups" unicode="&#x2b0;" horiz-adv-x="468" 
d="M281 721c48.667 0 86.999 -14.5 114.999 -43.5s42 -69.5 42 -121.5v-294h-115v277c0 56 -27.333 84 -82 84c-27.333 0 -50.333 -9.66699 -69 -29s-28 -46 -28 -80v-252h-114v619h114v-233c32.667 48.667 78.334 73 137.001 73z" />
    <glyph glyph-name="r.sups" unicode="&#x2b3;" horiz-adv-x="322" 
d="M274 719c14.667 0 23.668 -0.333008 27.001 -1v-106h-29c-40.667 0 -72.167 -10.5 -94.5 -31.5s-33.5 -52.5 -33.5 -94.5v-224h-114v450h111v-79c25.333 57.333 69.666 86 132.999 86z" />
    <glyph glyph-name="circumflex" unicode="&#x2c6;" horiz-adv-x="400" 
d="M275 727l117 -144h-115l-77 79l-77 -79h-115l116 144h151z" />
    <glyph glyph-name="caron" unicode="&#x2c7;" horiz-adv-x="400" 
d="M200 646l77 80h116l-116 -144h-152l-117 144h115z" />
    <glyph glyph-name="uni02C9" unicode="&#x2c9;" horiz-adv-x="400" 
d="M359 583h-318v88h318v-88z" />
    <glyph glyph-name="breve" unicode="&#x2d8;" horiz-adv-x="400" 
d="M200 578c-46 0 -84.166 13.333 -114.499 40s-48.166 63 -53.499 109h95c5.33301 -45.333 29.666 -68 72.999 -68s67.666 22.667 72.999 68h95c-6.66699 -46.667 -25 -83.167 -55 -109.5s-67.667 -39.5 -113 -39.5z" />
    <glyph glyph-name="dotaccent" unicode="&#x2d9;" horiz-adv-x="400" 
d="M263 583h-125v118h125v-118z" />
    <glyph glyph-name="ring" unicode="&#x2da;" horiz-adv-x="400" 
d="M302 617c-26.667 -26 -60.667 -39 -102 -39s-75.333 13 -102 39c-27.333 26 -41 58.667 -41 98s13.667 72 41 98c27.333 25.333 61.333 38 102 38s74.667 -12.667 102 -38c27.333 -26 41 -58.667 41 -98s-13.667 -72 -41 -98zM157 672
c17.333 -19.333 39.5 -23.668 66.5 -13.001s39.5 29.334 37.5 56.001c0 16.667 -5.83301 30.834 -17.5 42.501s-26.167 17.5 -43.5 17.5s-31.833 -5.83301 -43.5 -17.5s-17.5 -25.834 -17.5 -42.501c0 -18 6 -32.333 18 -43z" />
    <glyph glyph-name="ogonek" unicode="&#x2db;" horiz-adv-x="400" 
d="M229 -208c-38.667 0 -69.833 8.5 -93.5 25.5s-35.5 40.5 -35.5 70.5c0 22 9 43.333 27 64s43.333 36.667 76 48h97c-66.667 -30.667 -100 -61.667 -100 -93c0 -25.333 16.667 -38 50 -38c12 0 28.667 2.66699 50 8v-75c-19.333 -6.66699 -43 -10 -71 -10z" />
    <glyph glyph-name="tilde" unicode="&#x2dc;" horiz-adv-x="400" 
d="M104 583h-83.999c0 88 33.333 132 100 132c22.667 0 51.667 -8 87 -24c28 -12 48.333 -18 61 -18c17.333 0 26.666 14 27.999 42h84c0 -88 -33.333 -132 -100 -132c-22.667 0 -52.334 8 -89.001 24c-28 12 -47.667 18 -59 18c-17.333 0 -26.666 -14 -27.999 -42z" />
    <glyph glyph-name="hungarumlaut" unicode="&#x2dd;" horiz-adv-x="400" 
d="M83 583h-98l87 144h145zM283 583h-99l88 144h144z" />
    <glyph glyph-name="s.sups" unicode="&#x2e2;" horiz-adv-x="446" 
d="M226 250c-68 0 -118.668 12.335 -152.001 37.002s-51.666 63.667 -54.999 117h112c3.33301 -28 11.833 -47.167 25.5 -57.5s37.5 -15.5 71.5 -15.5c56.667 0 85 17 85 51c0 16 -6 28.167 -18 36.5s-34.333 15.166 -67 20.499l-58 9
c-95.333 15.333 -143 60.666 -143 135.999c0 44 16.667 77.833 50 101.5s81 35.5 143 35.5c128 0 193.667 -50.667 197 -152h-108c-1.33301 26 -9.5 44.5 -24.5 55.5s-36.833 16.5 -65.5 16.5c-52.667 0 -79 -17 -79 -51c0 -16 5.66699 -28.167 17 -36.5
s30 -14.166 56 -17.499l58 -8c53.333 -8 92.833 -22.833 118.5 -44.5s38.5 -52.5 38.5 -92.5c0 -44.667 -17.833 -79.334 -53.5 -104.001s-85.167 -37 -148.5 -37z" />
    <glyph glyph-name="gravecomb" unicode="&#x300;" 
d="M116 583h-103l-129 144h145z" />
    <glyph glyph-name="acutecomb" unicode="&#x301;" 
d="M-13 583h-103l87 144h145z" />
    <glyph glyph-name="uni0302" unicode="&#x302;" 
d="M75 727l117 -144h-115l-77 79l-77 -79h-115l116 144h151z" />
    <glyph glyph-name="tildecomb" unicode="&#x303;" 
d="M-96 583h-83.999c0 88 33.333 132 100 132c22.667 0 51.667 -8 87 -24c28 -12 48.333 -18 61 -18c17.333 0 26.666 14 27.999 42h84c0 -88 -33.333 -132 -100 -132c-22.667 0 -52.334 8 -89.001 24c-28 12 -47.667 18 -59 18c-17.333 0 -26.666 -14 -27.999 -42z" />
    <glyph glyph-name="uni0304" unicode="&#x304;" 
d="M159 583h-318v88h318v-88z" />
    <glyph glyph-name="uni0306" unicode="&#x306;" 
d="M-168 578c-46 0 -84.166 13.333 -114.499 40s-48.166 63 -53.499 109h95c5.33301 -45.333 29.666 -68 72.999 -68s67.666 22.667 72.999 68h95c-6.66699 -46.667 -25 -83.167 -55 -109.5s-67.667 -39.5 -113 -39.5z" />
    <glyph glyph-name="uni0307" unicode="&#x307;" 
d="M62 583h-124v118h124v-118z" />
    <glyph glyph-name="uni0308" unicode="&#x308;" 
d="M-36 583h-124v118h124v-118zM160 583h-124v118h124v-118z" />
    <glyph glyph-name="uni030A" unicode="&#x30a;" 
d="M102 617c-26.667 -26 -60.667 -39 -102 -39s-75.333 13 -102 39c-27.333 26 -41 58.667 -41 98s13.667 72 41 98c27.333 25.333 61.333 38 102 38s74.667 -12.667 102 -38c27.333 -26 41 -58.667 41 -98s-13.667 -72 -41 -98zM-44 672
c17.333 -19.333 39.667 -23.6689 67 -13.002s40 29.334 38 56.001c0 16.667 -5.83301 30.834 -17.5 42.501s-26.167 17.5 -43.5 17.5s-31.833 -5.83301 -43.5 -17.5s-17.5 -25.834 -17.5 -42.501c0 -17.333 5.66699 -31.666 17 -42.999z" />
    <glyph glyph-name="uni030B" unicode="&#x30b;" 
d="M-117 583h-99l88 144h144zM83 583h-99l88 144h144z" />
    <glyph glyph-name="uni030C" unicode="&#x30c;" 
d="M-192 646l77 80h115l-116 -144h-151l-117 144h115z" />
    <glyph glyph-name="uni0312" unicode="&#x312;" 
d="M61 733l-17.999 -0.000976562c-25.333 -1.33301 -38 -13.666 -38 -36.999v-14h56v-99h-122v111c0 29.333 8.16699 51 24.5 65s42.166 21.667 77.499 23l20 1v-50z" />
    <glyph glyph-name="uni0313" unicode="&#x313;" 
d="M-61 680l-0.000976562 100h122v-112c0 -29.333 -8.16699 -51 -24.5 -65s-42.166 -21.667 -77.499 -23h-20v49h18c25.333 2 38 14.333 38 37v14h-56z" />
    <glyph glyph-name="dotbelowcomb" unicode="&#x323;" 
d="M62 -185h-124v118h124v-118z" />
    <glyph glyph-name="uni0324" unicode="&#x324;" 
d="M-36 -185h-124v118h124v-118zM160 -185h-124v118h124v-118z" />
    <glyph glyph-name="uni0325" unicode="&#x325;" 
d="M101 -296c-27.333 -25.333 -61 -38 -101 -38s-73.667 12.667 -101 38c-26.667 24.667 -40 56.667 -40 96c0 38.667 13.333 70.334 40 95.001c27.333 25.333 61 38 101 38s73.667 -12.667 101 -38c26.667 -24.667 40 -56.334 40 -95.001
c0 -39.333 -13.333 -71.333 -40 -96zM-44 -243c17.333 -18.667 39.667 -22.668 67 -12.001s40 29 38 55c0 16.667 -5.83301 30.834 -17.5 42.501s-26.167 17.5 -43.5 17.5s-31.833 -5.83301 -43.5 -17.5s-17.5 -25.834 -17.5 -42.501c0 -17.333 5.66699 -31.666 17 -42.999z
" />
    <glyph glyph-name="uni0326" unicode="&#x326;" 
d="M-61 -166l-0.000976562 99.001h122v-111c0 -29.333 -8.16699 -51 -24.5 -65s-42.166 -21.667 -77.499 -23l-20 -1v50h18c25.333 1.33301 38 13.666 38 36.999v14h-56z" />
    <glyph glyph-name="uni0327" unicode="&#x327;" 
d="M-5 -43h13c30 0 54 -7.5 72 -22.5s27 -33.833 27 -56.5c0 -30 -12.333 -53.5 -37 -70.5s-61.667 -25.5 -111 -25.5c-19.333 0 -41.333 2 -66 6v53c16.667 -2.66699 35.667 -4 57 -4c41.333 0 62 14 62 42c0 25.333 -19 38 -57 38c-12 0 -20.667 -0.333008 -26 -1v38
l40 51h68z" />
    <glyph glyph-name="uni0328" unicode="&#x328;" 
d="M29 -208c-38.667 0 -69.833 8.5 -93.5 25.5s-35.5 40.5 -35.5 70.5c0 22 9 43.333 27 64s43.333 36.667 76 48h97c-66.667 -30.667 -100 -61.667 -100 -93c0 -25.333 16.667 -38 50 -38c12 0 28.667 2.66699 50 8v-75c-19.333 -6.66699 -43 -10 -71 -10z" />
    <glyph glyph-name="uni032E" unicode="&#x32e;" 
d="M-168 -216c-46 0 -84.168 13.333 -114.501 40s-48.166 63 -53.499 109h95c4.66699 -44.667 29 -67 73 -67s68.333 22.333 73 67h95c-6.66699 -46 -25 -82.333 -55 -109s-67.667 -40 -113 -40z" />
    <glyph glyph-name="uni0331" unicode="&#x331;" 
d="M159 -155h-318v88h318v-88z" />
    <glyph glyph-name="uni0335" unicode="&#x335;" 
d="M159 233h-318v78h318v-78z" />
    <glyph glyph-name="uni0337" unicode="&#x337;" 
d="M269 508l-484 -551l-54 48l484 551z" />
    <glyph glyph-name="uni0338" unicode="&#x338;" 
d="M365 699l-668 -753l-62 55l668 753z" />
    <glyph glyph-name="uni0394" unicode="&#x394;" horiz-adv-x="677" 
d="M257 712h158l237 -597v-115h-627v115zM335 591c-31.333 -94 -60 -174.668 -86 -242.001l-86 -230h347l-87 230c-30 78.667 -59.333 159.334 -88 242.001z" />
    <glyph glyph-name="uni03A9" unicode="&#x3a9;" horiz-adv-x="778" 
d="M344 0l-315.999 -0.000976562v118h155v2c-98 66.667 -147 159.667 -147 279c0 100.667 32 180.334 96 239.001c63.333 59.333 148.666 89 255.999 89c108.667 0 194.667 -29.333 258 -88c63.333 -59.333 95 -139.333 95 -240c0 -118.667 -48.667 -211.667 -146 -279v-2
h155v-118h-314v105c54.667 27.333 96.334 64.666 125.001 111.999s43 101.333 43 162c0 74.667 -18.833 131.667 -56.5 171s-90.167 59 -157.5 59s-120.333 -19.667 -159 -59s-58 -96.333 -58 -171c0 -60.667 14.667 -114.667 44 -162s71.666 -84.666 126.999 -111.999v-105
z" />
    <glyph glyph-name="uni03BC" unicode="&#x3bc;" horiz-adv-x="566" 
d="M389 227v289h126v-516h-122v75c-38 -58 -90.667 -87 -158 -87c-20 0 -40 4.66699 -60 14v-198h-124v712h126v-321c0 -65.333 32.333 -98 97 -98c33.333 0 60.833 11.5 82.5 34.5s32.5 54.833 32.5 95.5z" />
    <glyph glyph-name="pi" unicode="&#x3c0;" horiz-adv-x="612" 
d="M589 516l0.00195312 -95.999h-79v-288c0 -13.333 2.5 -23 7.5 -29s13.833 -9 26.5 -9h34v-94c-24.667 -2.66699 -46.334 -4 -65.001 -4c-46.667 0 -79.834 9.66699 -99.501 29s-29.5 51.666 -29.5 96.999v298h-166v-420h-125v420h-80v96h576z" />
    <glyph glyph-name="d.sups" unicode="&#x1d48;" horiz-adv-x="509" 
d="M364 652l-0.000976562 229h115v-619h-111v65c-30.667 -50 -77.667 -75 -141 -75c-62 0 -110.833 21 -146.5 63s-53.5 99 -53.5 171s17.833 129.167 53.5 171.5s84.5 63.5 146.5 63.5c60.667 0 106.334 -23 137.001 -69zM254.999 345
c35.333 0 62.835 12.1689 82.502 36.502s29.5 59.166 29.5 104.499c0 46 -9.66699 81.167 -29 105.5s-47 36.5 -83 36.5c-34.667 0 -61.834 -12.667 -81.501 -38s-29.5 -61 -29.5 -107c0 -44.667 9.66699 -78.834 29 -102.501s46.666 -35.5 81.999 -35.5z" />
    <glyph glyph-name="t.sups" unicode="&#x1d57;" horiz-adv-x="310" 
d="M291 712v-87h-88v-234c0 -14.667 3.66699 -25 11 -31s20.333 -9 39 -9h38v-87c-16.667 -2.66699 -36.334 -4 -59.001 -4c-51.333 0 -88.166 9.5 -110.499 28.5s-33.5 48.833 -33.5 89.5v247h-69v87h69v131h115v-131h88z" />
    <glyph glyph-name="Wgrave" unicode="&#x1e80;" horiz-adv-x="978" 
d="M452 899l87 -144h-103l-129 144h145zM757 425l74.999 287h140l-197 -712h-152l-76 296c-31.333 130 -50.666 214 -57.999 252c-18.667 -88.667 -38 -172.667 -58 -252l-76 -296h-151l-198 712h141l74 -287c34.667 -138.667 56.334 -229 65.001 -271
c21.333 100 41.666 190.667 60.999 272l73 286h139l73 -286c18.667 -76 38.667 -167 60 -273c14 62 35.667 152.667 65 272z" />
    <glyph glyph-name="wgrave" unicode="&#x1e81;" horiz-adv-x="826" 
d="M380 727l87 -144h-103l-129 144h145zM630 323l58.001 192.999h135l-170 -516h-132l-65 212c-24.667 86.667 -39.334 138 -44.001 154c-2 -7.33301 -16.333 -58.666 -43 -153.999l-64 -212h-132l-170 516h135l58 -193c14.667 -46 31.667 -105.667 51 -179
c18.667 74 35 134 49 180l57 192h120l57 -192c14 -46 30.333 -106 49 -180c17.333 66 34.333 125.667 51 179z" />
    <glyph glyph-name="Wacute" unicode="&#x1e82;" horiz-adv-x="978" 
d="M526 899h145l-129 -144h-103zM757 425l74.999 287h140l-197 -712h-152l-76 296c-31.333 130 -50.666 214 -57.999 252c-18.667 -88.667 -38 -172.667 -58 -252l-76 -296h-151l-198 712h141l74 -287c34.667 -138.667 56.334 -229 65.001 -271
c21.333 100 41.666 190.667 60.999 272l73 286h139l73 -286c18.667 -76 38.667 -167 60 -273c14 62 35.667 152.667 65 272z" />
    <glyph glyph-name="wacute" unicode="&#x1e83;" horiz-adv-x="826" 
d="M453 727h145l-129 -144h-103zM630 323l58.001 192.999h135l-170 -516h-132l-65 212c-24.667 86.667 -39.334 138 -44.001 154c-2 -7.33301 -16.333 -58.666 -43 -153.999l-64 -212h-132l-170 516h135l58 -193c14.667 -46 31.667 -105.667 51 -179
c18.667 74 35 134 49 180l57 192h120l57 -192c14 -46 30.333 -106 49 -180c17.333 66 34.333 125.667 51 179z" />
    <glyph glyph-name="Wdieresis" unicode="&#x1e84;" horiz-adv-x="978" 
d="M329 873h124v-118h-124v118zM525 873h124v-118h-124v118zM757 425l74.999 287h140l-197 -712h-152l-76 296c-31.333 130 -50.666 214 -57.999 252c-18.667 -88.667 -38 -172.667 -58 -252l-76 -296h-151l-198 712h141l74 -287c34.667 -138.667 56.334 -229 65.001 -271
c21.333 100 41.666 190.667 60.999 272l73 286h139l73 -286c18.667 -76 38.667 -167 60 -273c14 62 35.667 152.667 65 272z" />
    <glyph glyph-name="wdieresis" unicode="&#x1e85;" horiz-adv-x="826" 
d="M253 701h124v-118h-124v118zM449 701h124v-118h-124v118zM630 323l58.001 192.999h135l-170 -516h-132l-65 212c-24.667 86.667 -39.334 138 -44.001 154c-2 -7.33301 -16.333 -58.666 -43 -153.999l-64 -212h-132l-170 516h135l58 -193
c14.667 -46 31.667 -105.667 51 -179c18.667 74 35 134 49 180l57 192h120l57 -192c14 -46 30.333 -106 49 -180c17.333 66 34.333 125.667 51 179z" />
    <glyph glyph-name="uni1E9E" unicode="&#x1e9e;" horiz-adv-x="691" 
d="M637 610l-160.999 -188.998c61.333 -10.667 109.166 -34.334 143.499 -71.001s51.5 -82 51.5 -136c0 -68.667 -24.333 -122.834 -73 -162.501s-117 -59.5 -205 -59.5c-32 0 -70.667 3.66699 -116 11v110c35.333 -6 71 -9 107 -9c99.333 0 149 36.333 149 109
c0 34 -13.167 60.167 -39.5 78.5s-63.5 27.5 -111.5 27.5c-8 0 -28.667 -0.666992 -62 -2v93l165 200c-34.667 3.33301 -73.334 5 -116.001 5c-67.333 0 -115.333 -14 -144 -42s-43 -70 -43 -126v-447h-134v444c0 92 27.333 162.167 82 210.5s134 72.5 238 72.5
c84.667 0 174.334 -5.66699 269.001 -17v-100z" />
    <glyph glyph-name="Ygrave" unicode="&#x1ef2;" horiz-adv-x="683" 
d="M304 899l87 -144h-103l-129 144h145zM450 584l78 128h149l-267 -431v-281h-135v281l-269 431h153l79 -129c64 -106.667 99.667 -166.667 107 -180c18 32 53 92.333 105 181z" />
    <glyph glyph-name="ygrave" unicode="&#x1ef3;" horiz-adv-x="522" 
d="M228 727l87 -144h-103l-129 144h145zM346 386l42.001 129.999h132l-199 -558c-21.333 -58.667 -48 -99 -80 -121c-32.667 -22.667 -80 -34 -142 -34c-20.667 0 -39 1 -55 3v99h48c27.333 0 48.333 7.66699 63 23s22 35.333 22 60s-8 59.334 -24 104.001l-150 424h136
l42 -129c29.333 -92 56.666 -188 81.999 -288c20 75.333 47.667 171 83 287z" />
    <glyph glyph-name="thinspace" unicode="&#x2009;" horiz-adv-x="228" 
 />
    <glyph glyph-name="uni2011" unicode="&#x2011;" horiz-adv-x="364" 
d="M330 227h-297v108h297v-108z" />
    <glyph glyph-name="endash" unicode="&#x2013;" horiz-adv-x="528" 
d="M495 227h-462v108h462v-108z" />
    <glyph glyph-name="emdash" unicode="&#x2014;" horiz-adv-x="972" 
d="M939 227h-906v108h906v-108z" />
    <glyph glyph-name="quoteleft" unicode="&#x2018;" horiz-adv-x="214" 
d="M176 644l-16 -1c-28.667 -2 -43 -23.333 -43 -64v-16h59v-134h-138v145c0 89.333 40.333 135.333 121 138l17 1v-69z" />
    <glyph glyph-name="quoteright" unicode="&#x2019;" horiz-adv-x="214" 
d="M38 578v134h138v-145c0 -89.333 -40.333 -135.333 -121 -138l-17 -1v69l16 1c28.667 2 43 23.333 43 64v16h-59z" />
    <glyph glyph-name="quotesinglbase" unicode="&#x201a;" horiz-adv-x="214" 
d="M38 0v134h138v-145c0 -88 -40.333 -134 -121 -138h-17v69h16c28.667 2 43 23.333 43 64v16h-59z" />
    <glyph glyph-name="quotedblleft" unicode="&#x201c;" horiz-adv-x="395" 
d="M38 429v144c0 89.333 40.333 135.333 121 138l17 1v-69h-16c-28.667 -2.66699 -43 -24 -43 -64v-16h59v-134h-138zM357 643h-16c-28.667 -2.66699 -43 -24 -43 -64v-16h59v-134h-137v144c0 88.667 40 134.667 120 138l17 1v-69z" />
    <glyph glyph-name="quotedblright" unicode="&#x201d;" horiz-adv-x="395" 
d="M97 578h-59v134h138v-145c0 -88 -40.333 -134 -121 -138h-17v69h16c28.667 2 43 23.333 43 64v16zM220 578v134h137v-145c0 -88 -40.333 -134 -121 -138h-16v69h16c28.667 2 43 23.333 43 64v16h-59z" />
    <glyph glyph-name="quotedblbase" unicode="&#x201e;" horiz-adv-x="395" 
d="M97 0h-59v134h138v-145c0 -88 -40.333 -134 -121 -138h-17v69h16c28.667 2 43 23.333 43 64v16zM220 0v134h137v-145c0 -88 -40.333 -134 -121 -138h-16v69h16c28.667 2 43 23.333 43 64v16h-59z" />
    <glyph glyph-name="dagger" unicode="&#x2020;" horiz-adv-x="593" 
d="M365 516h212v-116h-212v-546h-137v546h-212v116h212v196h137v-196z" />
    <glyph glyph-name="daggerdbl" unicode="&#x2021;" horiz-adv-x="593" 
d="M577 516v-116h-212v-234h212v-116h-212v-196h-137v196h-212v116h212v234h-212v116h212v196h137v-196h212z" />
    <glyph glyph-name="bullet" unicode="&#x2022;" horiz-adv-x="370" 
d="M312 161h-254v247h254v-247z" />
    <glyph glyph-name="ellipsis" unicode="&#x2026;" horiz-adv-x="721" 
d="M185 0h-147v143h147v-143zM437 0h-147v143h147v-143zM683 0h-146v143h146v-143z" />
    <glyph glyph-name="perthousand" unicode="&#x2030;" horiz-adv-x="1289" 
d="M324 346c-29.333 -37.333 -72.666 -56 -129.999 -56s-100.666 18.667 -129.999 56s-44 90.333 -44 159c0 70 14.667 123.5 44 160.5s72.666 55.5 129.999 55.5s100.666 -18.5 129.999 -55.5s44 -90.5 44 -160.5c0 -68.667 -14.667 -121.667 -44 -159zM306 0h-91l380 712
h91zM119 505c0 -90 25 -135 75 -135s75 45 75 135c0 90.667 -25 136 -75 136s-75 -45.333 -75 -136zM837 47c-29.333 -37.333 -72.666 -56 -129.999 -56s-100.666 18.667 -129.999 56s-44 90.333 -44 159c0 70 14.667 123.5 44 160.5s72.666 55.5 129.999 55.5
s100.666 -18.5 129.999 -55.5s44 -90.5 44 -160.5c0 -68.667 -14.667 -121.667 -44 -159zM1225 47c-29.333 -37.333 -72.666 -56 -129.999 -56s-100.666 18.667 -129.999 56s-44 90.333 -44 159c0 70 14.667 123.5 44 160.5s72.666 55.5 129.999 55.5
s100.666 -18.5 129.999 -55.5s44 -90.5 44 -160.5c0 -68.667 -14.667 -121.667 -44 -159zM707 71c50 0 75 45 75 135c0 90.667 -25 136 -75 136c-50.667 0 -76 -45.333 -76 -136c0 -90 25.333 -135 76 -135zM1095 71c50 0 75 45 75 135c0 90.667 -25 136 -75 136
c-50.667 0 -76 -45.333 -76 -136c0 -90 25.333 -135 76 -135z" />
    <glyph glyph-name="guilsinglleft" unicode="&#x2039;" horiz-adv-x="287" 
d="M58 326l170 139v-124l-98 -80l98 -80v-124l-170 139v130z" />
    <glyph glyph-name="guilsinglright" unicode="&#x203a;" horiz-adv-x="287" 
d="M58 341v124l170 -139v-130l-170 -139v124l98 80z" />
    <glyph glyph-name="uni203D" unicode="&#x203d;" horiz-adv-x="531" 
d="M270 728c73.333 0 131.332 -16.5 173.999 -49.5s64 -79.5 64 -139.5c0 -64.667 -34.667 -123 -104 -175c-38 -28 -62.333 -51.333 -73 -70c-9.33301 -15.333 -14 -41 -14 -77h-115l-3 208l25 133h81l17 -116c34 29.333 51 58.333 51 87c0 60.667 -35 91 -105 91
c-40 0 -69.5 -9.83301 -88.5 -29.5s-29.5 -52.5 -31.5 -98.5h-127c0 78 21.333 136.833 64 176.5s104.334 59.5 185.001 59.5zM331.999 0h-146v143h146v-143z" />
    <glyph glyph-name="fraction" unicode="&#x2044;" horiz-adv-x="311" 
d="M10 0h-89l380 712h89z" />
    <glyph glyph-name="zero.sups" unicode="&#x2070;" horiz-adv-x="388" 
d="M324 575c-29.333 -37.333 -72.666 -56 -129.999 -56s-100.666 18.667 -129.999 56s-44 90.333 -44 159c0 70 14.667 123.5 44 160.5s72.666 55.5 129.999 55.5s100.666 -18.5 129.999 -55.5s44 -90.5 44 -160.5c0 -68.667 -14.667 -121.667 -44 -159zM119 734
c0 -90 25 -135 75 -135s75 45 75 135c0 90.667 -25 136 -75 136s-75 -45.333 -75 -136z" />
    <glyph glyph-name="four.sups" unicode="&#x2074;" horiz-adv-x="381" 
d="M311 697h55v-78h-55v-91h-96v91h-196v91l195 231h97v-244zM218 697v144l-121 -144h121z" />
    <glyph glyph-name="five.sups" unicode="&#x2075;" horiz-adv-x="356" 
d="M198 806c43.333 0 77.8311 -13.168 103.498 -39.501s38.5 -60.166 38.5 -101.499c0 -44 -15.167 -79.333 -45.5 -106s-69.166 -40 -116.499 -40c-44 0 -80.833 11.5 -110.5 34.5s-46.5 54.167 -50.5 93.5h91c3.33301 -16 11.333 -28.833 24 -38.5s28 -14.5 46 -14.5
c22 0 39.5 6.66699 52.5 20s19.5 30.333 19.5 51s-6.5 37.667 -19.5 51s-30.5 20 -52.5 20c-32 0 -53.667 -12.667 -65 -38h-90l41 243h257v-80h-183l-14 -76c20.667 14 45.334 21 74.001 21z" />
    <glyph glyph-name="six.sups" unicode="&#x2076;" horiz-adv-x="367" 
d="M206 806c43.333 0 78.667 -13.668 106 -41.001c26.667 -27.333 40 -60.666 40 -99.999c0 -44 -15 -79.333 -45 -106s-68.667 -40 -116 -40c-39.333 0 -73.333 10 -102 30c-45.333 34 -68 93.667 -68 179c0 72 14.667 127 44 165s72 57 128 57
c42 0 76.5 -10.167 103.5 -30.5s43.5 -48.833 49.5 -85.5h-90c-8.66699 28.667 -29.667 43 -63 43c-26 0 -45.667 -8.5 -59 -25.5s-21.666 -44.833 -24.999 -83.5c25.333 25.333 57.666 38 96.999 38zM140.001 613.999c12.667 -13.333 29.667 -20 51 -20
s38.333 6.66699 51 20c12.667 12.667 19 28.667 19 48c0 20.667 -6.33301 37.5 -19 50.5s-29.667 19.5 -51 19.5s-38.333 -6.5 -51 -19.5s-19 -29.833 -19 -50.5c0 -19.333 6.33301 -35.333 19 -48z" />
    <glyph glyph-name="seven.sups" unicode="&#x2077;" horiz-adv-x="325" 
d="M15 861l0.000976562 79.999h295v-78c-44 -43.333 -76.667 -90.666 -98 -141.999c-20.667 -50 -31 -114.333 -31 -193h-102c0.666992 63.333 13.167 124.333 37.5 183s57.166 108.667 98.499 150h-200z" />
    <glyph glyph-name="eight.sups" unicode="&#x2078;" horiz-adv-x="371" 
d="M286 746c44.667 -18.667 67 -52.334 67 -101.001c0 -38 -15 -68.5 -45 -91.5s-71 -34.5 -123 -34.5c-51.333 0 -92 11.5 -122 34.5s-45 53.5 -45 91.5c0 48.667 22.333 82.334 67 101.001c-32.667 20.667 -49 50 -49 88c0 36 13.333 64.333 40 85s63 31 109 31
s82.333 -10.333 109 -31s40 -49 40 -85c0 -36.667 -16 -66 -48 -88zM232 867c-12 9.33301 -27.667 14 -47 14s-34.666 -4.66699 -45.999 -14s-17 -22.333 -17 -39c0 -16 5.66699 -28.833 17 -38.5s26.666 -14.5 45.999 -14.5c20 0 35.667 4.83301 47 14.5s17 22.5 17 38.5
c0 16.667 -5.66699 29.667 -17 39zM185 593c24 0 42.5 5.33301 55.5 16s19.5 25.334 19.5 44.001s-6.5 33.334 -19.5 44.001s-31.5 16 -55.5 16c-23.333 0 -41.5 -5.33301 -54.5 -16s-19.5 -25.334 -19.5 -44.001s6.33301 -33.334 19 -44.001s31 -16 55 -16z" />
    <glyph glyph-name="nine.sups" unicode="&#x2079;" horiz-adv-x="367" 
d="M278 919c46 -32.667 68.9971 -92 68.9971 -178c0 -72 -14.667 -127 -44 -165s-71.333 -57 -126 -57c-43.333 0 -78.666 10.167 -105.999 30.5s-44 48.833 -50 85.5h91c8.66699 -28.667 30.334 -43 65.001 -43c49.333 0 76.333 36.333 81 109
c-25.333 -25.333 -57.666 -38 -96.999 -38c-44 0 -79 14 -105 42c-26.667 26.667 -40 59.667 -40 99c0 44 14.833 79.333 44.5 106s68.167 40 115.5 40c39.333 0 73.333 -10.333 102 -31zM124.997 757c12.667 -13.333 29.667 -20 51 -20s38.333 6.66699 51 20
c12.667 12.667 19 29.334 19 50.001c0 20 -6.33301 36.333 -19 49s-29.667 19 -51 19s-38.333 -6.33301 -51 -19s-19 -29 -19 -49c0 -20.667 6.33301 -37.334 19 -50.001z" />
    <glyph glyph-name="plus.sups" unicode="&#x207a;" horiz-adv-x="309" 
d="M196 771h95v-75h-95v-96h-84v96h-94v75h94v97h84v-97z" />
    <glyph glyph-name="minus.sups" unicode="&#x207b;" horiz-adv-x="309" 
d="M291 696h-273v75h273v-75z" />
    <glyph glyph-name="parenleft.sups" unicode="&#x207d;" horiz-adv-x="173" 
d="M173 450l-88 0.000976562c-21.333 48 -36.333 93.333 -45 136c-9.33301 44.667 -14 94 -14 148c0 56 4.66699 106.333 14 151c8.66699 41.333 23.667 86.666 45 135.999h88c-38.667 -90 -58 -185.667 -58 -287c0 -92 19.333 -186.667 58 -284z" />
    <glyph glyph-name="parenright.sups" unicode="&#x207e;" horiz-adv-x="173" 
d="M88 450l-88 0.00195312c39.333 98 59 192.667 59 284c0 97.333 -19.667 193 -59 287h88c22.667 -52.667 38 -98.334 46 -137.001c9.33301 -44.667 14 -94.667 14 -150c0 -54.667 -4.66699 -103.667 -14 -147c-8 -38.667 -23.333 -84.334 -46 -137.001z" />
    <glyph glyph-name="n.sups" unicode="&#x207f;" horiz-adv-x="468" 
d="M281 721c48.667 0 86.999 -14.5 114.999 -43.5s42 -69.5 42 -121.5v-294h-115v277c0 56 -27.333 84 -82 84c-27.333 0 -50.333 -9.66699 -69 -29s-28 -46 -28 -80v-252h-114v450h111v-69c32.667 52 79.334 78 140.001 78z" />
    <glyph glyph-name="zero.subs" unicode="&#x2080;" horiz-adv-x="388" 
d="M324 -149c-29.333 -37.333 -72.666 -56 -129.999 -56s-100.666 18.667 -129.999 56s-44 90.333 -44 159c0 70 14.667 123.5 44 160.5s72.666 55.5 129.999 55.5s100.666 -18.5 129.999 -55.5s44 -90.5 44 -160.5c0 -68.667 -14.667 -121.667 -44 -159zM119 10
c0 -90 25 -135 75 -135s75 45 75 135c0 90.667 -25 136 -75 136s-75 -45.333 -75 -136z" />
    <glyph glyph-name="one.subs" unicode="&#x2081;" horiz-adv-x="231" 
d="M128 217h78.002v-413h-96v276h-95v67c31.333 0 55.666 5 72.999 15s30.666 28.333 39.999 55z" />
    <glyph glyph-name="two.subs" unicode="&#x2082;" horiz-adv-x="347" 
d="M121 -116l211 -0.00195312v-80h-320l2 36c4.66699 82 47.334 140.333 128.001 175l30 13c42.667 18.667 64 41.334 64 68.001c0 33.333 -20 50 -60 50c-20 0 -35.667 -5.66699 -47 -17s-17 -27.666 -17 -48.999h-93c2.66699 46 17.334 81.833 44.001 107.5
s64.667 38.5 114 38.5c47.333 0 84.666 -11.667 111.999 -35s41 -53.333 41 -90c0 -33.333 -9.33301 -61 -28 -83s-49 -42 -91 -60l-28 -13c-36.667 -16.667 -57.334 -37 -62.001 -61z" />
    <glyph glyph-name="three.subs" unicode="&#x2083;" horiz-adv-x="360" 
d="M279 24c20.667 -7.33301 36.833 -19.8359 48.5 -37.5029s17.5 -38.167 17.5 -61.5c0 -38.667 -14.5 -70 -43.5 -94s-68.5 -36 -118.5 -36c-55.333 0 -97.666 13.333 -126.999 40s-44 64.334 -44 113.001h92c1.33301 -50 27 -75 77 -75c21.333 0 38 5 50 15
s18 23.667 18 41c0 36.667 -24 55 -72 55h-30v69h32c42.667 0 64 16.667 64 50c0 31.333 -20.333 47 -61 47s-62.334 -18.333 -65.001 -55h-92c2 42 16.333 74.333 43 97s65 34 115 34c47.333 0 84.5 -10.167 111.5 -30.5s40.5 -48.166 40.5 -83.499
c0 -37.333 -18.667 -66.666 -56 -87.999z" />
    <glyph glyph-name="four.subs" unicode="&#x2084;" horiz-adv-x="381" 
d="M311 -27h55v-78h-55v-91h-96v91h-196v91l195 231h97v-244zM218 -27v144l-121 -144h121z" />
    <glyph glyph-name="five.subs" unicode="&#x2085;" horiz-adv-x="356" 
d="M198 82c43.333 0 77.832 -13.168 103.499 -39.501s38.5 -60.166 38.5 -101.499c0 -44 -15.167 -79.333 -45.5 -106s-69.166 -40 -116.499 -40c-44 0 -80.833 11.5 -110.5 34.5s-46.5 54.167 -50.5 93.5h91c3.33301 -16 11.333 -28.833 24 -38.5s28 -14.5 46 -14.5
c22 0 39.5 6.66699 52.5 20s19.5 30.333 19.5 51s-6.5 37.667 -19.5 51s-30.5 20 -52.5 20c-32 0 -53.667 -12.667 -65 -38h-90l41 243h257v-80h-183l-14 -76c21.333 14 46 21 74 21z" />
    <glyph glyph-name="six.subs" unicode="&#x2086;" horiz-adv-x="367" 
d="M206 82c43.333 0 78.667 -13.668 106 -41.001c26.667 -27.333 40 -60.666 40 -99.999c0 -44 -15 -79.333 -45 -106s-68.667 -40 -116 -40c-39.333 0 -73.333 10 -102 30c-45.333 34 -68 93.667 -68 179c0 72 14.667 127 44 165s72 57 128 57
c42 0 76.5 -10.167 103.5 -30.5s43.5 -48.833 49.5 -85.5h-90c-8.66699 28.667 -29.667 43 -63 43c-26 0 -45.667 -8.5 -59 -25.5s-21.666 -44.833 -24.999 -83.5c25.333 25.333 57.666 38 96.999 38zM140.001 -111.001c12.667 -12.667 29.667 -19 51 -19
s38.333 6.33301 51 19s19 29 19 49c0 20.667 -6.33301 37.5 -19 50.5s-29.667 19.5 -51 19.5s-38.333 -6.5 -51 -19.5s-19 -29.833 -19 -50.5c0 -20 6.33301 -36.333 19 -49z" />
    <glyph glyph-name="seven.subs" unicode="&#x2087;" horiz-adv-x="325" 
d="M15 137l0.00195312 80h295v-78c-44.667 -43.333 -77.334 -91 -98.001 -143c-20.667 -50 -31 -114 -31 -192h-102c0.666992 63.333 13.167 124.333 37.5 183s57.166 108.667 98.499 150h-200z" />
    <glyph glyph-name="eight.subs" unicode="&#x2088;" horiz-adv-x="371" 
d="M286 22c44.667 -18.667 67 -52.334 67 -101.001c0 -38 -15 -68.5 -45 -91.5s-71 -34.5 -123 -34.5c-51.333 0 -92 11.5 -122 34.5s-45 53.5 -45 91.5c0 48.667 22.333 82.334 67 101.001c-32.667 20.667 -49 50 -49 88c0 36 13.333 64.333 40 85s63 31 109 31
s82.333 -10.333 109 -31s40 -49 40 -85c0 -36.667 -16 -66 -48 -88zM232 143c-12 9.33301 -27.667 14 -47 14s-34.666 -4.66699 -45.999 -14s-17 -22.333 -17 -39c0 -16 5.66699 -28.833 17 -38.5s26.666 -14.5 45.999 -14.5c20 0 35.667 4.83301 47 14.5s17 22.5 17 38.5
c0 16.667 -5.66699 29.667 -17 39zM185 -131c24 0 42.5 5.33301 55.5 16s19.5 25.334 19.5 44.001s-6.5 33.334 -19.5 44.001s-31.5 16 -55.5 16c-23.333 0 -41.5 -5.33301 -54.5 -16s-19.5 -25.334 -19.5 -44.001s6.33301 -33.334 19 -44.001s31 -16 55 -16z" />
    <glyph glyph-name="nine.subs" unicode="&#x2089;" horiz-adv-x="367" 
d="M278 195c46 -33.333 68.9971 -92.666 68.9971 -177.999c0 -72 -14.667 -127 -44 -165s-71.333 -57 -126 -57c-43.333 0 -78.666 10.167 -105.999 30.5s-44 48.833 -50 85.5h91c8.66699 -28.667 30.334 -43 65.001 -43c49.333 0 76.333 36.333 81 109
c-25.333 -25.333 -57.666 -38 -96.999 -38c-44 0 -79 13.667 -105 41c-26.667 27.333 -40 60.666 -40 99.999c0 44 14.833 79.333 44.5 106s68.167 40 115.5 40c39.333 0 73.333 -10.333 102 -31zM124.997 33c12.667 -13.333 29.667 -20 51 -20s38.333 6.66699 51 20
c12.667 12.667 19 29.334 19 50.001c0 20 -6.33301 36.333 -19 49s-29.667 19 -51 19s-38.333 -6.33301 -51 -19s-19 -29 -19 -49c0 -20.667 6.33301 -37.334 19 -50.001z" />
    <glyph glyph-name="plus.subs" unicode="&#x208a;" horiz-adv-x="309" 
d="M196 47h95v-75h-95v-96h-84v96h-94v75h94v97h84v-97z" />
    <glyph glyph-name="minus.subs" unicode="&#x208b;" horiz-adv-x="309" 
d="M291 -28h-273v75h273v-75z" />
    <glyph glyph-name="equal.subs" unicode="&#x208c;" horiz-adv-x="309" 
d="M291 34h-273v73h273v-73zM291 -87h-273v73h273v-73z" />
    <glyph glyph-name="uni208D" unicode="&#x208d;" horiz-adv-x="173" 
d="M173 -275l-88 0.00195312c-21.333 49.333 -36.333 94.666 -45 135.999c-9.33301 43.333 -14 92.666 -14 147.999s4.66699 105.333 14 150c8.66699 42.667 23.667 88 45 136h88c-38.667 -90 -58 -185.333 -58 -286c0 -92 19.333 -186.667 58 -284z" />
    <glyph glyph-name="uni208E" unicode="&#x208e;" horiz-adv-x="173" 
d="M88 -276l-88 0.000976562c39.333 98 59 192.667 59 284c0 97.333 -19.667 193 -59 287h88c22.667 -52.667 38 -98.334 46 -137.001c9.33301 -44.667 14 -94.667 14 -150c0 -54 -4.66699 -103.333 -14 -148c-8 -38 -23.333 -83.333 -46 -136z" />
    <glyph glyph-name="n.subs" unicode="&#x2099;" horiz-adv-x="468" 
d="M281 263c48.667 0 86.999 -14.5 114.999 -43.5s42 -69.5 42 -121.5v-294h-115v277c0 56 -27.333 84 -82 84c-27.333 0 -50.333 -9.66699 -69 -29s-28 -46 -28 -80v-252h-114v450h111v-69c32.667 52 79.334 78 140.001 78z" />
    <glyph glyph-name="Euro" unicode="&#x20ac;" horiz-adv-x="721" 
d="M563 247l131.997 -0.000976562c-12.667 -77.333 -44.667 -140.666 -96 -189.999s-119.333 -74 -204 -74c-81.333 0 -149.166 23.833 -203.499 71.5s-89.5 113.5 -105.5 197.5h-86v72h77c-0.666992 4.66699 -1 15.334 -1 32.001c0 3.33301 0.666992 17.666 2 42.999h-78
v73h88c18 80.667 53.667 143.5 107 188.5s119.333 67.5 198 67.5c86 0 153.667 -23.667 203 -71c50 -48 82.333 -108 97 -180h-135c-25.333 90 -80.666 135 -165.999 135c-86.667 0 -142 -46.667 -166 -140h192v-73h-203c-0.666992 -6 -1 -19.667 -1 -41
c0 -18 0.333008 -29.333 1 -34h203v-72h-194c22.667 -102 79.334 -153 170.001 -153c94 0 150.333 49.333 169 148z" />
    <glyph glyph-name="uni20B8" unicode="&#x20b8;" horiz-adv-x="624" 
d="M16 591v121h592v-121h-592zM244 375h-228v121h592v-121h-228v-375h-136v375z" />
    <glyph glyph-name="uni20B9" unicode="&#x20b9;" horiz-adv-x="625" 
d="M58 712l540.001 0.000976562v-72h-126c28.667 -26.667 46 -61.334 52 -104.001h74v-71h-74c-8 -55.333 -34.833 -98.833 -80.5 -130.5s-102.834 -47.5 -171.501 -47.5h-33l292 -287h-173l-300 296v83h185c80.667 0 128.667 28.667 144 86h-329v71h329
c-14 58 -62 87 -144 87h-185v89z" />
    <glyph glyph-name="uni20BA" unicode="&#x20ba;" horiz-adv-x="613" 
d="M448 372h139c0 -113.333 -34.333 -203.333 -103 -270c-69.333 -68 -162 -102 -278 -102h-135v309l-71 -31v77l71 31v71l-71 -31v77l71 31v178h135v-119l179 79v-77l-179 -79v-71l179 79v-77l-179 -79v-249c75.333 0 134.5 22.5 177.5 67.5s64.5 106.833 64.5 185.5z" />
    <glyph glyph-name="uni20BC" unicode="&#x20bc;" horiz-adv-x="754" 
d="M442 535l11.002 -0.000976562c83.333 0 146.166 -21.333 188.499 -64s63.5 -105 63.5 -187v-284h-131v287c0 46 -10.5 79.833 -31.5 101.5s-54.5 32.834 -100.5 33.501v-339h-132v339c-44.667 -0.666992 -77.334 -12 -98.001 -34s-31 -55.667 -31 -101v-287h-133v284
c0 80.667 21.5 142.667 64.5 186s105.167 65 186.5 65h11v177h132v-177z" />
    <glyph glyph-name="uni20BF" unicode="&#x20bf;" horiz-adv-x="659" 
d="M639 204c0 -59.333 -18.666 -106.831 -55.999 -142.498s-91.333 -55.834 -162 -60.501v-117h-74v116h-78v-116h-74v116h-137v712h137v116h74v-116h78v116h74v-118c61.333 -6 108.166 -25.5 140.499 -58.5s48.5 -74.167 48.5 -123.5c0 -70 -31.667 -121 -95 -153
c39.333 -14 69.833 -36.333 91.5 -67s32.5 -65.334 32.5 -104.001zM370.001 601.002h-177v-186h177c34 0 60.167 8.5 78.5 25.5s27.5 40.5 27.5 70.5c0 28 -9.33301 50 -28 66s-44.667 24 -78 24zM193.001 112.002h191c38 0 67 8.5 87 25.5s30 41.167 30 72.5
c0 66 -39 99 -117 99h-191v-197z" />
    <glyph glyph-name="uni2105" unicode="&#x2105;" horiz-adv-x="1001" 
d="M226 293c-62 0 -111.832 19.4971 -149.499 58.4971s-56.5 91.167 -56.5 156.5c0 66 18.333 118.5 55 157.5s87 58.5 151 58.5c52 0 95.667 -14.333 131 -43s57 -68 65 -118h-98c-5.33301 24.667 -16.666 43.834 -33.999 57.501s-38.666 20.5 -63.999 20.5
c-33.333 0 -59.166 -11.667 -77.499 -35s-27.5 -56 -27.5 -98c0 -41.333 9.16699 -73.666 27.5 -96.999s44.166 -35 77.499 -35c24.667 0 46.167 7.33301 64.5 22s30.166 34.667 35.499 60h96c-6.66699 -51.333 -27.834 -91.666 -63.501 -120.999s-79.834 -44 -132.501 -44z
M351.001 -0.00292969h-90l380 712h90zM769.001 -9.00293c-62 0 -112.667 19.668 -152 59.001s-59 91.333 -59 156c0 65.333 19.667 117.666 59 156.999s90 59 152 59c63.333 0 114.666 -19.667 153.999 -59c38.667 -38.667 58 -91 58 -157
c0 -65.333 -19.333 -117.333 -58 -156c-39.333 -39.333 -90.666 -59 -153.999 -59zM769.001 74.998c34 0 61 11.667 81 35s30 55.333 30 96s-10 72.834 -30 96.501s-47 35.5 -81 35.5c-33.333 0 -60 -11.833 -80 -35.5s-30 -55.834 -30 -96.501s10 -72.667 30 -96
s46.667 -35 80 -35z" />
    <glyph glyph-name="uni2113" unicode="&#x2113;" horiz-adv-x="467" 
d="M281 88c32.667 0 62.334 10.333 89.001 31l35 -73c-41.333 -37.333 -92 -56 -152 -56c-47.333 0 -84.5 14.333 -111.5 43s-40.5 67.334 -40.5 116.001v54c-9.33301 -2 -33 -4.66699 -71 -8l-14 77c30.667 2 59 6 85 12v253c0 61.333 14.667 108.5 44 141.5
s71.666 49.5 126.999 49.5c100 0 150 -58.333 150 -175c0 -70.667 -16.667 -132.834 -50 -186.501s-82 -95.5 -146 -125.5v-84c0 -22 5 -39 15 -51s23.333 -18 40 -18zM226 538v-200c68.667 48.667 103 119 103 211c0 52.667 -16 79 -48 79c-36.667 0 -55 -30 -55 -90z" />
    <glyph glyph-name="uni2116" unicode="&#x2116;" horiz-adv-x="1136" 
d="M917 722c56.667 0 103 -18.335 139 -55.002c35.333 -37.333 53 -85.666 53 -144.999s-17.667 -107.666 -53 -144.999c-36 -36.667 -82.333 -55 -139 -55c-58.667 0 -105.334 18.333 -140.001 55c-36 36.667 -54 85 -54 145s18 108.333 54 145
c34.667 36.667 81.334 55 140.001 55zM529 525.998v186h130v-712h-150l-198 317c-54 84.667 -96.333 156 -127 214c2.66699 -74.667 4 -189.667 4 -345v-186h-130v712h150l199 -317c59.333 -96 101.333 -167.333 126 -214c-2.66699 99.333 -4 214.333 -4 345zM917 420.998
c26 0 46.667 9 62 27s23 42.667 23 74s-7.66699 56.333 -23 75s-36 28 -62 28c-26.667 0 -47.834 -9.33301 -63.501 -28s-23.5 -43.667 -23.5 -75s7.83301 -56 23.5 -74s36.834 -27 63.501 -27z" />
    <glyph glyph-name="uni2117" unicode="&#x2117;" horiz-adv-x="810" 
d="M135 621c71.333 72 161 108 269 108s198.333 -36 271 -108c72 -72 108 -160.333 108 -265c0 -104 -36 -192 -108 -264c-72.667 -72 -163 -108 -271 -108s-197.667 36 -269 108c-72 72 -108 160 -108 264c0 104.667 36 193 108 265zM202 154
c52.667 -54.667 120.332 -82 202.999 -82s150.334 27.333 203.001 82c53.333 54.667 80 122 80 202s-26.667 147.667 -80 203c-53.333 54 -121 81 -203 81s-149.667 -27 -203 -81c-53.333 -55.333 -80 -123 -80 -203s26.667 -147.333 80 -202zM270.998 555h168
c46 0 82.667 -12.667 110 -38s41 -58.333 41 -99s-13.667 -73.667 -41 -99s-64 -38 -110 -38h-78v-125h-90v399zM360.998 362h75.001c19.333 0 34.666 5.16699 45.999 15.5s17 23.833 17 40.5c0 37.333 -21 56 -63 56h-75v-112z" />
    <glyph glyph-name="trademark" unicode="&#x2122;" horiz-adv-x="563" 
d="M101 658h-78v54h214v-54h-77v-202h-59v202zM420 592l42 120h78v-256h-57v80c0 41.333 0.333008 68.333 1 81c-2 -4.66699 -4 -10.667 -6 -18l-50 -143h-47l-50 143c-2 7.33301 -4 13.333 -6 18c0.666992 -12.667 1 -39.667 1 -81v-80h-57v256h78l43 -122l15 -48
c4.66699 19.333 9.66699 36 15 50z" />
    <glyph glyph-name="uni2126" unicode="&#x2126;" horiz-adv-x="778" 
d="M344 0l-315.999 -0.000976562v118h155v2c-98 66.667 -147 159.667 -147 279c0 100.667 32 180.334 96 239.001c63.333 59.333 148.666 89 255.999 89c108.667 0 194.667 -29.333 258 -88c63.333 -59.333 95 -139.333 95 -240c0 -118.667 -48.667 -211.667 -146 -279v-2
h155v-118h-314v105c54.667 27.333 96.334 64.666 125.001 111.999s43 101.333 43 162c0 74.667 -18.833 131.667 -56.5 171s-90.167 59 -157.5 59s-120.333 -19.667 -159 -59s-58 -96.333 -58 -171c0 -60.667 14.667 -114.667 44 -162s71.666 -84.666 126.999 -111.999v-105
z" />
    <glyph glyph-name="estimated" unicode="&#x212e;" horiz-adv-x="911" 
d="M161 623c72.667 70 171 105 295 105c123.333 0 221.666 -36.667 294.999 -110c72.667 -73.333 109 -164 109 -272h-646c-9.33301 0 -14 -4.33301 -14 -13v-176c0 -21.333 5.33301 -37 16 -47c65.333 -64 145.333 -96 240 -96c49.333 0 96.5 10.5 141.5 31.5
s81.833 48.833 110.5 83.5h73c-29.333 -41.333 -72.166 -75.333 -128.499 -102s-121.833 -40 -196.5 -40c-121.333 0 -219.333 34.667 -294 104c-74.667 68.667 -112 157 -112 265c0 106.667 37 195.667 111 267zM456 700c-94.667 0 -174.667 -32.667 -240 -98
c-10.667 -10 -16 -24.667 -16 -44v-176c0 -8.66699 4.66699 -13 14 -13h481c9.33301 0 14 4.33301 14 13v176c0 19.333 -5.33301 34 -16 44c-66.667 65.333 -145.667 98 -237 98z" />
    <glyph glyph-name="uni2153" unicode="&#x2153;" horiz-adv-x="776" 
d="M206 299h-95.998v276h-95v67c31.333 0 55.666 5 72.999 15s30.666 28.333 39.999 55h78v-413zM107.002 0l380 712h89l-380 -712h-89zM695.002 220c44 -17.333 66.001 -50.3359 66.001 -99.0029c0 -38.667 -14.667 -70 -44 -94s-69 -36 -119 -36
c-55.333 0 -97.5 13.333 -126.5 40s-43.5 64.334 -43.5 113.001h92c1.33301 -50 27 -75 77 -75c21.333 0 38 5 50 15s18 23.667 18 41c0 36.667 -24 55 -72 55h-30v69h32c42.667 0 64 16.667 64 50c0 31.333 -20.333 47 -61 47s-62.334 -18.333 -65.001 -55h-93
c5.33301 87.333 58.333 131 159 131c47.333 0 84.5 -10.167 111.5 -30.5s40.5 -48.166 40.5 -83.499c0 -37.333 -18.667 -66.666 -56 -87.999z" />
    <glyph glyph-name="uni2154" unicode="&#x2154;" horiz-adv-x="916" 
d="M121 379l211 -0.00195312v-80h-320l2 36c4.66699 82 47.334 140.333 128.001 175l30 13c42.667 18.667 64 41.334 64 68.001c0 33.333 -20 50 -60 50c-20 0 -35.667 -5.66699 -47 -17s-17 -27.666 -17 -48.999h-93c2.66699 46 17.334 81.833 44.001 107.5
s64.667 38.5 114 38.5c47.333 0 84.666 -11.667 111.999 -35s41 -53.333 41 -90c0 -33.333 -9.33301 -61 -28 -83s-49 -42 -91 -60l-28 -13c-36.667 -16.667 -57.334 -37 -62.001 -61zM247 -0.00195312l380 712h90l-380 -712h-90zM835 219.998
c20.667 -8 37 -20.6709 49 -38.0039s18 -37.666 18 -60.999c0 -38.667 -14.667 -70 -44 -94s-69 -36 -119 -36c-55.333 0 -97.5 13.333 -126.5 40s-43.833 64.334 -44.5 113.001h93c0 -50 25.333 -75 76 -75c21.333 0 38 5 50 15s18 23.667 18 41
c0 36.667 -23.667 55 -71 55h-30v69h31c43.333 0 65 16.667 65 50c0 14.667 -5.5 26.167 -16.5 34.5s-25.833 12.5 -44.5 12.5c-41.333 0 -63.333 -18.333 -66 -55h-92c2 42 16.333 74.333 43 97s65 34 115 34c47.333 0 84.5 -10.167 111.5 -30.5s40.5 -48.166 40.5 -83.499
c0 -37.333 -18.667 -66.666 -56 -87.999z" />
    <glyph glyph-name="uni2155" unicode="&#x2155;" horiz-adv-x="783" 
d="M206 712l0.00195312 -413h-96v276h-95v67c31.333 0 55.666 5 72.999 15s30.666 28.333 39.999 55h78zM115.002 0l380 712h90l-380 -712h-90zM625.002 278c43.333 0 78 -13.332 104 -39.999s39 -60.334 39 -101.001c0 -44 -15.167 -79.333 -45.5 -106
s-69.166 -40 -116.499 -40c-44.667 0 -81.667 11.5 -111 34.5s-46 54.167 -50 93.5h91c8 -35.333 31.333 -53 70 -53c21.333 0 38.5 6.66699 51.5 20s19.5 30.333 19.5 51s-6.5 37.667 -19.5 51s-30.167 20 -51.5 20c-32 0 -53.667 -12.667 -65 -38h-90l41 243h257v-80h-183
l-14 -75c19.333 13.333 43.666 20 72.999 20z" />
    <glyph glyph-name="uni2156" unicode="&#x2156;" horiz-adv-x="907" 
d="M121 379l211 -0.00195312v-80h-320l2 36c4.66699 82 47.334 140.333 128.001 175l30 13c42.667 18.667 64 41.334 64 68.001c0 33.333 -20 50 -60 50c-20 0 -35.667 -5.66699 -47 -17s-17 -27.666 -17 -48.999h-93c2.66699 46 17.334 81.833 44.001 107.5
s64.667 38.5 114 38.5c47.333 0 84.666 -11.667 111.999 -35s41 -53.333 41 -90c0 -33.333 -9.33301 -61 -28 -83s-49 -42 -91 -60l-28 -13c-36.667 -16.667 -57.334 -37 -62.001 -61zM239 -0.00195312l380 712h90l-380 -712h-90zM750 277.998
c43.333 0 77.832 -13.168 103.499 -39.501s38.5 -60.166 38.5 -101.499c0 -44 -15.167 -79.333 -45.5 -106s-69.166 -40 -116.499 -40c-44.667 0 -81.667 11.5 -111 34.5s-46 54.167 -50 93.5h92c7.33301 -35.333 30.333 -53 69 -53c22 0 39.5 6.66699 52.5 20
s19.5 30.333 19.5 51s-6.5 37.667 -19.5 51s-30.5 20 -52.5 20c-30 0 -51.667 -12.667 -65 -38h-90l42 243h256v-80h-183l-14 -75c19.333 13.333 44 20 74 20z" />
    <glyph glyph-name="uni2157" unicode="&#x2157;" horiz-adv-x="879" 
d="M345 420c0 -38.667 -14.501 -70.0029 -43.501 -94.0029s-68.5 -36 -118.5 -36c-55.333 0 -97.666 13.333 -126.999 40s-44 64.334 -44 113.001h92c1.33301 -50 27 -75 77 -75c21.333 0 38 5 50 15s18 23.667 18 41c0 36.667 -24 55 -72 55h-30v69h32
c42.667 0 64 16.667 64 50c0 31.333 -20.333 47 -61 47s-62.334 -18.333 -65.001 -55h-92c2 42 16.333 74.333 43 97s65 34 115 34c47.333 0 84.5 -10.167 111.5 -30.5s40.5 -48.166 40.5 -83.499c0 -37.333 -18.667 -66.666 -56 -87.999
c20.667 -7.33301 36.834 -19.833 48.501 -37.5s17.5 -38.167 17.5 -61.5zM213.999 -0.00292969l380 712h89l-380 -712h-89zM722.999 277.997c43.333 0 77.832 -13.168 103.499 -39.501s38.5 -60.166 38.5 -101.499c0 -44 -15.167 -79.333 -45.5 -106
s-69.166 -40 -116.499 -40c-44.667 0 -81.667 11.5 -111 34.5s-46 54.167 -50 93.5h92c7.33301 -35.333 30.333 -53 69 -53c22 0 39.5 6.66699 52.5 20s19.5 30.333 19.5 51s-6.5 37.667 -19.5 51s-30.5 20 -52.5 20c-30 0 -51.667 -12.667 -65 -38h-90l41 243h257v-80h-183
l-14 -75c19.333 13.333 44 20 74 20z" />
    <glyph glyph-name="uni2158" unicode="&#x2158;" horiz-adv-x="900" 
d="M311 390v-91h-96v91h-196v91l195 231h97v-244h55v-78h-55zM234 0l380 712h89l-380 -712h-89zM218 468v144l-121 -144h121zM743 278c43.333 0 77.832 -13.168 103.499 -39.501s38.5 -60.166 38.5 -101.499c0 -44 -15.167 -79.333 -45.5 -106s-69.166 -40 -116.499 -40
c-44.667 0 -81.667 11.5 -111 34.5s-46 54.167 -50 93.5h92c7.33301 -35.333 30.333 -53 69 -53c22 0 39.5 6.66699 52.5 20s19.5 30.333 19.5 51s-6.5 37.667 -19.5 51s-30.5 20 -52.5 20c-30 0 -51.667 -12.667 -65 -38h-90l41 243h257v-80h-183l-14 -75
c19.333 13.333 44 20 74 20z" />
    <glyph glyph-name="uni2159" unicode="&#x2159;" horiz-adv-x="770" 
d="M206 299h-95.998v276h-95v67c31.333 0 55.666 5 72.999 15s30.666 28.333 39.999 55h78v-413zM109.002 0l380 712h89l-380 -712h-89zM609.002 278c43.333 0 78.667 -13.668 106 -41.001c26.667 -27.333 40 -60.666 40 -99.999c0 -44 -15 -79.333 -45 -106
s-68.667 -40 -116 -40c-38.667 0 -72.667 10 -102 30c-45.333 34 -68 93.667 -68 179c0 72 14.667 127 44 165s72 57 128 57c42 0 76.5 -10.167 103.5 -30.5s43.5 -48.833 49.5 -85.5h-90c-8.66699 28.667 -29.667 43 -63 43c-26 0 -45.667 -8.5 -59 -25.5
s-21.666 -44.833 -24.999 -83.5c25.333 25.333 57.666 38 96.999 38zM543.003 85.999c12.667 -13.333 29.667 -20 51 -20s38.333 6.66699 51 20c12.667 12.667 19 28.667 19 48c0 20.667 -6.33301 37.5 -19 50.5s-29.667 19.5 -51 19.5s-38.333 -6.5 -51 -19.5
s-19 -29.833 -19 -50.5c0 -19.333 6.33301 -35.333 19 -48z" />
    <glyph glyph-name="uni215A" unicode="&#x215a;" horiz-adv-x="861" 
d="M340 436c0 -44 -15.1689 -79.334 -45.502 -106.001s-69.166 -40 -116.499 -40c-44 0 -80.833 11.5 -110.5 34.5s-46.5 54.167 -50.5 93.5h91c3.33301 -16 11.333 -28.833 24 -38.5s28 -14.5 46 -14.5c22 0 39.5 6.66699 52.5 20s19.5 30.333 19.5 51
s-6.5 37.667 -19.5 51s-30.5 20 -52.5 20c-32 0 -53.667 -12.667 -65 -38h-90l41 243h257v-80h-183l-14 -76c20.667 14 45.334 21 74.001 21c43.333 0 77.833 -13.167 103.5 -39.5s38.5 -60.166 38.5 -101.499zM200.998 -0.000976562l380 712h89l-380 -712h-89z
M699.998 277.999c43.333 0 78.667 -13.668 106 -41.001c26.667 -27.333 40 -60.666 40 -99.999c0 -44 -15 -79.333 -45 -106s-68.667 -40 -116 -40c-39.333 0 -73.333 10 -102 30c-45.333 34 -68 93.667 -68 179c0 72 14.667 127 44 165s72 57 128 57
c42 0 76.5 -10.167 103.5 -30.5s43.5 -48.833 49.5 -85.5h-90c-8.66699 28.667 -29.667 43 -63 43c-26 0 -45.667 -8.5 -59 -25.5s-21.666 -44.833 -24.999 -83.5c25.333 25.333 57.666 38 96.999 38zM633.999 85.998c12.667 -13.333 29.667 -20 51 -20
s38.333 6.66699 51 20c12.667 12.667 19 28.667 19 48c0 20.667 -6.33301 37.5 -19 50.5s-29.667 19.5 -51 19.5s-38.333 -6.5 -51 -19.5s-19 -29.833 -19 -50.5c0 -19.333 6.33301 -35.333 19 -48z" />
    <glyph glyph-name="oneeighth" unicode="&#x215b;" horiz-adv-x="784" 
d="M206 299h-95.998v276h-95v67c31.333 0 55.666 5 72.999 15s30.666 28.333 39.999 55h78v-413zM107.002 0l380 712h89l-380 -712h-89zM699.002 218c44.667 -18.667 67 -52.334 67 -101.001c0 -38 -15 -68.5 -45 -91.5s-71 -34.5 -123 -34.5c-51.333 0 -92 11.5 -122 34.5
s-45 53.5 -45 91.5c0 48.667 22.333 82.334 67 101.001c-32.667 20.667 -49 50 -49 88c0 36 13.333 64.333 40 85s63 31 109 31s82.333 -10.333 109 -31s40 -49 40 -85c0 -36.667 -16 -66 -48 -88zM645.002 339c-12 9.33301 -27.667 14 -47 14s-34.666 -4.66699 -45.999 -14
s-17 -22.333 -17 -39c0 -16 5.66699 -28.833 17 -38.5s26.666 -14.5 45.999 -14.5c20 0 35.667 4.83301 47 14.5s17 22.5 17 38.5c0 16.667 -5.66699 29.667 -17 39zM598.002 65c24 0 42.5 5.33301 55.5 16s19.5 25.334 19.5 44.001s-6.5 33.334 -19.5 44.001
s-31.5 16 -55.5 16c-23.333 0 -41.5 -5.33301 -54.5 -16s-19.5 -25.334 -19.5 -44.001s6.5 -33.334 19.5 -44.001s31.167 -16 54.5 -16z" />
    <glyph glyph-name="threeeighths" unicode="&#x215c;" horiz-adv-x="889" 
d="M345 420c0 -38.667 -14.501 -70.0029 -43.501 -94.0029s-68.5 -36 -118.5 -36c-55.333 0 -97.666 13.333 -126.999 40s-44 64.334 -44 113.001h92c1.33301 -50 27 -75 77 -75c21.333 0 38 5 50 15s18 23.667 18 41c0 36.667 -24 55 -72 55h-30v69h32
c42.667 0 64 16.667 64 50c0 31.333 -20.333 47 -61 47s-62.334 -18.333 -65.001 -55h-92c2 42 16.333 74.333 43 97s65 34 115 34c47.333 0 84.5 -10.167 111.5 -30.5s40.5 -48.166 40.5 -83.499c0 -37.333 -18.667 -66.666 -56 -87.999
c20.667 -7.33301 36.834 -19.833 48.501 -37.5s17.5 -38.167 17.5 -61.5zM210.999 -0.00292969l380 712h90l-380 -712h-90zM802.999 217.997c45.333 -19.333 67.998 -53 67.998 -101c0 -38 -15.167 -68.5 -45.5 -91.5s-71.166 -34.5 -122.499 -34.5
s-92.166 11.5 -122.499 34.5s-45.5 53.5 -45.5 91.5c0 47.333 22.667 81 68 101c-32.667 20.667 -49 50 -49 88c0 36 13.333 64.333 40 85s63 31 109 31s82.333 -10.333 109 -31s40 -49 40 -85c0 -38 -16.333 -67.333 -49 -88zM749.997 338.997
c-14 8.66699 -29.667 13.3311 -47 13.998s-32.833 -4.16602 -46.5 -14.499s-19.5 -23.166 -17.5 -38.499c0 -16 5.83301 -28.833 17.5 -38.5s27.167 -14.5 46.5 -14.5c20 0 35.667 4.83301 47 14.5s17 22.5 17 38.5c0 16.667 -5.66699 29.667 -17 39zM647.997 80.9941
c12.667 -10.667 31 -16 55 -16s42.333 5.33301 55 16s19 25.334 19 44.001s-6.33301 33.334 -19 44.001s-31 16 -55 16c-23.333 0 -41.5 -5.33301 -54.5 -16s-19.5 -25.334 -19.5 -44.001s6.33301 -33.334 19 -44.001z" />
    <glyph glyph-name="fiveeighths" unicode="&#x215d;" horiz-adv-x="879" 
d="M340 436c0 -44 -15.1689 -79.334 -45.502 -106.001s-69.166 -40 -116.499 -40c-44 0 -80.833 11.5 -110.5 34.5s-46.5 54.167 -50.5 93.5h91c3.33301 -16 11.333 -28.833 24 -38.5s28 -14.5 46 -14.5c22 0 39.5 6.66699 52.5 20s19.5 30.333 19.5 51
s-6.5 37.667 -19.5 51s-30.5 20 -52.5 20c-32 0 -53.667 -12.667 -65 -38h-90l41 243h257v-80h-183l-14 -76c20.667 14 45.334 21 74.001 21c43.333 0 77.833 -13.167 103.5 -39.5s38.5 -60.166 38.5 -101.499zM201.998 -0.000976562l380 712h89l-380 -712h-89z
M792.998 217.999c45.333 -19.333 67.999 -53.001 67.999 -101.001c0 -38 -15.167 -68.5 -45.5 -91.5s-71.166 -34.5 -122.499 -34.5s-92 11.5 -122 34.5s-45 53.5 -45 91.5c0 48.667 22.333 82.334 67 101.001c-32.667 20.667 -49 50 -49 88c0 36 13.333 64.333 40 85
s63 31 109 31s82.333 -10.333 109 -31s40 -49 40 -85c0 -38 -16.333 -67.333 -49 -88zM739.997 338.998c-12 9.33301 -27.667 14 -47 14s-34.666 -4.66699 -45.999 -14s-17 -22.333 -17 -39c0 -16 5.66699 -28.833 17 -38.5s26.666 -14.5 45.999 -14.5
c20 0 35.667 4.83301 47 14.5s17 22.5 17 38.5c0 16.667 -5.66699 29.667 -17 39zM637.997 80.998c12.667 -10.667 30.999 -16 54.999 -16c24.667 0 43.334 5.33301 56.001 16s19 25.334 19 44.001s-6.5 33.334 -19.5 44.001s-31.5 16 -55.5 16
c-23.333 0 -41.5 -5.33301 -54.5 -16s-19.5 -25.334 -19.5 -44.001s6.33301 -33.334 19 -44.001z" />
    <glyph glyph-name="seveneighths" unicode="&#x215e;" horiz-adv-x="782" 
d="M181 299l-101.999 -0.000976562c0.666992 63.333 13.167 124.333 37.5 183s57.166 108.667 98.499 150h-200v80h295v-78c-44 -43.333 -76.667 -90.666 -98 -141.999c-20.667 -50 -31 -114.333 -31 -193zM103.001 -0.000976562l380 712h89l-380 -712h-89zM697.001 217.999
c45.333 -19.333 67.998 -53 67.998 -101c0 -38 -15.167 -68.5 -45.5 -91.5s-71.166 -34.5 -122.499 -34.5s-92.166 11.5 -122.499 34.5s-45.5 53.5 -45.5 91.5c0 48 22.667 81.667 68 101c-32.667 20.667 -49 50 -49 88c0 36 13.333 64.333 40 85s63 31 109 31
s82.167 -10.333 108.5 -31s39.5 -49 39.5 -85c0 -36.667 -16 -66 -48 -88zM642.999 338.999c-18 15.333 -41.666 18.667 -70.999 10s-42.333 -25 -39 -49c0 -16 5.66699 -28.833 17 -38.5s27 -14.5 47 -14.5c19.333 0 34.666 4.83301 45.999 14.5s17 22.5 17 38.5
c0 16.667 -5.66699 29.667 -17 39zM542 81c12.667 -10.667 31 -16 55 -16s42.333 5.33301 55 16s19 25.334 19 44.001s-6.5 33.334 -19.5 44.001s-31.167 16 -54.5 16c-24 0 -42.333 -5.33301 -55 -16s-19 -25.334 -19 -44.001s6.33301 -33.334 19 -44.001z" />
    <glyph glyph-name="arrowleft" unicode="&#x2190;" horiz-adv-x="956" 
d="M316 416h526.001v-119h-527c29.333 -35.333 63.666 -79.333 102.999 -132l125 -165h-160l-269 356l269 356h160l-125 -165c-28.667 -38 -62.667 -81.667 -102 -131z" />
    <glyph glyph-name="arrowup" unicode="&#x2191;" horiz-adv-x="956" 
d="M122 459l355.999 269l356 -269v-155l-165 125c-61.333 46.667 -103.666 79.667 -126.999 99v-528h-130v526c-61.333 -48 -103 -80.333 -125 -97l-165 -125v155z" />
    <glyph glyph-name="arrowright" unicode="&#x2192;" horiz-adv-x="956" 
d="M413 712h160.001l269 -356l-269 -356h-160l125 165c39.333 52.667 73.666 96.667 102.999 132h-527v119h526c-39.333 49.333 -73.333 93 -102 131z" />
    <glyph glyph-name="arrowdown" unicode="&#x2193;" horiz-adv-x="956" 
d="M669 283l165.001 125v-155l-356 -269l-356 269v155l165 -125c22 -16.667 63.667 -49 125 -97v526h130v-528c23.333 19.333 65.666 52.333 126.999 99z" />
    <glyph glyph-name="arrowboth" unicode="&#x2194;" horiz-adv-x="956" 
d="M562 712h146.998l247 -356l-247 -356h-147l115 163c38.667 56 70.334 101 95.001 135h-588c24.667 -34 56.334 -79 95.001 -135l113 -163h-144l-248 356l247 356h146l-114 -165l-93 -131h584l-93 130z" />
    <glyph glyph-name="arrowupdn" unicode="&#x2195;" horiz-adv-x="956" 
d="M542 670v-628c23.333 19.333 65.666 52.333 126.999 99l165 125v-155l-356 -269l-356 269v155l165 -125c22 -16.667 63.667 -49 125 -97v624c-61.333 -48 -103 -80.333 -125 -97l-165 -125v155l356 269l356 -269v-155l-165 125
c-61.333 46.667 -103.666 79.667 -126.999 99z" />
    <glyph glyph-name="uni2196" unicode="&#x2196;" horiz-adv-x="956" 
d="M813 551h-276c-64.667 0 -123 0.666992 -175 2l439 -425l-87 -93l-439 425c1.33301 -52 2 -110 2 -174v-263l-125 115v531h548z" />
    <glyph glyph-name="uni2197" unicode="&#x2197;" horiz-adv-x="956" 
d="M143 551l113 118h548v-531l-125 -115v263c0 64 0.666992 122 2 174l-439 -425l-87 93l439 425c-52 -1.33301 -110.333 -2 -175 -2h-276z" />
    <glyph glyph-name="uni2198" unicode="&#x2198;" horiz-adv-x="956" 
d="M679 427v262l125 -115v-531h-548l-113 119h276c64 0 122 -0.666992 174 -2l-438 424l87 94l439 -426c-1.33301 52 -2 110.333 -2 175z" />
    <glyph glyph-name="uni2199" unicode="&#x2199;" horiz-adv-x="956" 
d="M537 156h276l-113 -118h-548v531l125 114v-262c0 -64 -0.666992 -122 -2 -174l439 425l87 -93l-439 -425c52 1.33301 110.333 2 175 2z" />
    <glyph glyph-name="partialdiff" unicode="&#x2202;" horiz-adv-x="646" 
d="M383 728c70 0 124.333 -20.333 163 -61s58 -98.334 58 -173.001c0 -98 -15.333 -188 -46 -270c-30.667 -82.667 -75.667 -145 -135 -187c-49.333 -35.333 -105 -53 -167 -53c-64 0 -116.667 18.667 -158 56s-62 87 -62 149c0 76.667 26.667 142.667 80 198
c53.333 54 117.666 81 192.999 81c77.333 0 130.333 -29 159 -87c7.33301 50 11 86.667 11 110c0 88.667 -36 133 -108 133c-27.333 0 -52.166 -8 -74.499 -24s-39.5 -39.333 -51.5 -70h-129c21.333 62.667 55.333 111.334 102 146.001s101.667 52 165 52zM264 93
c42.667 0 79 17.667 109 53c30 34.667 45 74.667 45 120c0 30 -8.33301 54 -25 72s-40 27 -70 27c-41.333 0 -77.333 -17.333 -108 -52s-46 -75 -46 -121c0 -30 8.5 -54 25.5 -72s40.167 -27 69.5 -27z" />
    <glyph glyph-name="uni2206" unicode="&#x2206;" horiz-adv-x="677" 
d="M257 712h158l237 -597v-115h-627v115zM335 591c-31.333 -94 -60 -174.668 -86 -242.001l-86 -230h347l-87 230c-30 78.667 -59.333 159.334 -88 242.001z" />
    <glyph glyph-name="product" unicode="&#x220f;" horiz-adv-x="717" 
d="M58 -196v908h601v-908h-135v788h-331v-788h-135z" />
    <glyph glyph-name="summation" unicode="&#x2211;" horiz-adv-x="606" 
d="M404 -77l177 0.00195312v-120h-556v109l288 346l-288 346v109h546v-120h-167c-76 0 -144.667 0.666992 -206 2c48.667 -56.667 91.667 -108.334 129 -155.001l117 -144v-76l-117 -144c-36 -44.667 -79 -96.334 -129 -155.001c61.333 1.33301 130 2 206 2z" />
    <glyph glyph-name="minus" unicode="&#x2212;" horiz-adv-x="528" 
d="M495 302h-462v108h462v-108z" />
    <glyph glyph-name="uni2215" unicode="&#x2215;" horiz-adv-x="528" 
d="M159 0h-126l336 712h126z" />
    <glyph glyph-name="uni2219" unicode="&#x2219;" horiz-adv-x="527" 
d="M351 270h-175v172h175v-172z" />
    <glyph glyph-name="radical" unicode="&#x221a;" horiz-adv-x="726" 
d="M414 191l169.999 521.002h135l-303 -908h-159l-139 395h-105v119h198l43 -128c2.66699 -8.66699 6 -19.334 10 -32.001s9 -29 15 -49s11.333 -37 16 -51c13.333 -44.667 26.333 -86.334 39 -125.001c4.66699 14.667 17.667 56 39 124c4.66699 16 11.834 39.5 21.501 70.5
s16.167 52.167 19.5 63.5z" />
    <glyph glyph-name="infinity" unicode="&#x221e;" horiz-adv-x="819" 
d="M599 556c56.667 0 102 -18.334 136 -55.001c34 -37.333 51 -85.666 51 -144.999c0 -58.667 -17 -106.667 -51 -144s-79.333 -56 -136 -56c-72.667 0 -135.667 38 -189 114c-54 -76 -117.333 -114 -190 -114c-56.667 0 -102 18.667 -136 56s-51 85.333 -51 144
c0 60 17 108.333 51 145s79.333 55 136 55c72.667 0 136 -38.333 190 -115c52.667 76.667 115.667 115 189 115zM225 250.999c44.667 0 87.999 34.998 129.999 104.998c-43.333 70 -86.666 105 -129.999 105c-24.667 0 -45.167 -9.66699 -61.5 -29
s-24.5 -44.666 -24.5 -75.999s8.16699 -56.666 24.5 -75.999s36.833 -29 61.5 -29zM594.999 250.997c24.667 0 44.999 9.66895 60.999 29.002s24 44.666 24 75.999s-8 56.666 -24 75.999s-36.333 29 -61 29c-43.333 0 -86.666 -35 -129.999 -105
c42 -70 85.333 -105 130 -105z" />
    <glyph glyph-name="integral" unicode="&#x222b;" horiz-adv-x="409" 
d="M98 -201c-18 0 -39.667 1.66699 -65 5v99c14 -2 28.667 -3 44 -3c43.333 0 65 20.667 65 62v594c0 51.333 14 91 42 119s70.333 42 127 42c18 0 39.667 -1.66699 65 -5v-99c-14 2 -28.333 3 -43 3c-44 0 -66 -20.667 -66 -62v-594c0 -51.333 -14 -91 -42 -119
s-70.333 -42 -127 -42z" />
    <glyph glyph-name="approxequal" unicode="&#x2248;" horiz-adv-x="528" 
d="M121 373h-87.999c2 48 15.167 86 39.5 114s57.166 42 98.499 42c28 0 65 -9.33301 111 -28c33.333 -14.667 57.333 -22 72 -22c30 0 47.667 17.667 53 53h88c-2 -48 -15.333 -86 -40 -114s-57 -42 -97 -42c-26.667 0 -63 9.66699 -109 29c-35.333 14 -60.333 21 -75 21
c-29.333 0 -47 -17.667 -53 -53zM121.001 171h-87.999c2 48 15.167 86 39.5 114s57.166 42 98.499 42c28 0 65 -9.33301 111 -28c33.333 -14.667 57.333 -22 72 -22c30 0 47.667 17.667 53 53h88c-2 -48 -15.333 -86 -40 -114s-57 -42 -97 -42
c-26.667 0 -63 9.66699 -109 29c-35.333 14 -60.333 21 -75 21c-29.333 0 -47 -17.667 -53 -53z" />
    <glyph glyph-name="notequal" unicode="&#x2260;" horiz-adv-x="528" 
d="M495 501v-96h-169l-35 -98h204v-96h-238l-40 -111l-80 27l30 84h-134v96h168l36 98h-204v96h238l40 112l79 -28l-30 -84h135z" />
    <glyph glyph-name="lessequal" unicode="&#x2264;" horiz-adv-x="528" 
d="M495 605v-113l-92 -36c-111.333 -38 -192.666 -65 -243.999 -81c51.333 -16 132.666 -43 243.999 -81l92 -36v-112l-462 171v116zM495 0h-462v99h462v-99z" />
    <glyph glyph-name="greaterequal" unicode="&#x2265;" horiz-adv-x="528" 
d="M33 492v113l462 -172v-116l-462 -171v112l92 36c111.333 38 192.666 65 243.999 81c-51.333 16 -132.666 43 -243.999 81zM495 0h-462v99h462v-99z" />
    <glyph glyph-name="uni2460" unicode="&#x2460;" horiz-adv-x="956" 
d="M139 685c92.667 89.333 205.667 133.999 339 133.999s246.666 -44.667 339.999 -134c92 -90 138 -199.667 138 -329s-46 -238.666 -138 -327.999c-93.333 -90 -206.666 -135 -339.999 -135c-134 0 -247 45 -339 135c-92.667 88.667 -139 198 -139 328
c-0 129.333 46.333 239 139 329zM478 -5.00098c104 0 191.667 34.665 263 103.998c70.667 68.667 106 154.334 106 257.001s-35.333 188.334 -106 257.001c-71.333 69.333 -159 104 -263 104c-102.667 0 -189.667 -34.667 -261 -104s-107 -155 -107 -257
s35.667 -187.667 107 -257s158.333 -104 261 -104zM462 583.997l85 -0.000976562v-455h-104v312c-24.667 -5.33301 -59.667 -8 -105 -8v74c35.333 1.33301 62.333 7.33301 81 18s33 30.334 43 59.001z" />
    </font>
</defs>
</svg>
