<?xml version="1.0" standalone="no"?>
<!DOCTYPE svg PUBLIC "-//W3C//DTD SVG 1.1//EN" "http://www.w3.org/Graphics/SVG/1.1/DTD/svg11.dtd" >
<svg xmlns="http://www.w3.org/2000/svg" xmlns:xlink="http://www.w3.org/1999/xlink" version="1.1">
<metadata>
Created by FontForge 20190801 at Sun Apr 14 18:27:42 2019
 By www-data
Copyright (c) 2019 Monotype Imaging Inc. All rights reserved.
</metadata>
<defs>
<font id="HelveticaNowMicroMedium" horiz-adv-x="757" >
  <font-face 
    font-family="HelveticaNowMicroMedium"
    font-weight="500"
    font-stretch="normal"
    units-per-em="1000"
    panose-1="2 11 6 4 3 2 2 2 2 4"
    ascent="875"
    descent="-125"
    x-height="548"
    cap-height="768"
    bbox="-428 -360 1819 1109"
    underline-thickness="50"
    underline-position="-300"
    unicode-range="U+000D-FEFF"
  />
<missing-glyph horiz-adv-x="845" 
d="M742 0h-638v768h638v-768zM237 655v-542h372v542h-372z" />
    <glyph glyph-name="fi" unicode="fi" horiz-adv-x="809" 
d="M586 661v133h130v-133h-130zM159 539l-9 78q0 74 41.5 112.5t119.5 38.5h147v-89l-142 13q-40 -5 -57 -23t-17 -59l18 -73l196 11v-91l-186 10l10 -120v-347h-130v347l10 119l-133 -9v91zM716 0h-130v548h130v-548z" />
    <glyph glyph-name="fl" unicode="fl" horiz-adv-x="809" 
d="M159 539l-9 78q0 74 41.5 112.5t119.5 38.5h147v-89l-142 13q-40 -5 -57 -23t-17 -59l18 -73l196 11v-91l-186 10l10 -120v-347h-130v347l10 119l-133 -9v91zM586 0v768h130v-768h-130z" />
    <glyph glyph-name=".notdef" horiz-adv-x="845" 
d="M742 0h-638v768h638v-768zM237 655v-542h372v542h-372z" />
    <glyph glyph-name=".null" horiz-adv-x="0" 
 />
    <glyph glyph-name="nonmarkingreturn" horiz-adv-x="333" 
 />
    <glyph glyph-name="NULL" horiz-adv-x="0" 
 />
    <glyph glyph-name="NULL" horiz-adv-x="0" 
 />
    <glyph glyph-name="CR" unicode="&#xd;" horiz-adv-x="300" 
 />
    <glyph glyph-name="space" unicode=" " horiz-adv-x="300" 
 />
    <glyph glyph-name="exclam" unicode="!" horiz-adv-x="346" 
d="M206 218h-65l-32 314v236h129v-236zM243 0h-139v138h139v-138z" />
    <glyph glyph-name="quotedbl" unicode="&#x22;" horiz-adv-x="543" 
d="M208 411h-114v357h114v-357zM449 411h-113v357h113v-357z" />
    <glyph glyph-name="numbersign" unicode="#" horiz-adv-x="731" 
d="M679 562v-85l-131 5l-28 -195l116 5v-85l-126 5l-30 -212h-87l30 214h-163l-30 -214h-87l30 212l-121 -5v85l131 -5l28 195l-117 -5v85l127 -5l30 211h87l-30 -213h163l30 213h87l-30 -211zM298 484l-28 -199h163l28 199h-163z" />
    <glyph glyph-name="dollar" unicode="$" 
d="M663 231q0 -97 -62 -157t-171 -71v-147h-102v147q-203 21 -234 220l130 14q11 -69 49 -101.5t111 -32.5q147 0 147 114q0 47 -28 73t-89 39l-89 18q-209 42 -209 209q0 87 55 142t157 67v147h102v-146q187 -21 215 -196l-128 -13q-20 110 -143 110q-127 0 -127 -104
q0 -40 24.5 -63.5t89.5 -37.5l83 -18q115 -26 167 -78t52 -135z" />
    <glyph glyph-name="percent" unicode="%" horiz-adv-x="1394" 
d="M469 388q-56 -62 -155 -62t-155 62q-55 61 -55 174q0 114 55 175t155 61t155 -61q54 -62 54 -175q0 -112 -54 -174zM500 -15h-115l496 798h113zM314 405q57 0 87 40t30 117q0 78 -30 118t-87 40t-87.5 -40t-30.5 -118q0 -157 118 -157zM1237 52q-56 -62 -155 -62t-155 62
q-55 61 -55 174t55 174.5t155 61.5t155 -61q54 -62 54 -175q0 -112 -54 -174zM1082 69q57 0 87 40t30 117q0 78 -30 118t-87 40t-87.5 -40t-30.5 -118q0 -157 118 -157z" />
    <glyph glyph-name="ampersand" unicode="&#x26;" horiz-adv-x="896" 
d="M698 172l165 -172h-162l-84 89q-96 -109 -248 -109q-122 0 -199 62q-76 61 -76 164q0 79 50.5 137.5t148.5 88.5l-2 2q-54 58 -75.5 97t-21.5 82q0 84 61 134.5t165 50.5q103 0 166 -50.5t63 -134.5q0 -141 -178 -205l159 -165q35 68 45 118l111 -22q-27 -94 -88 -167z
M423 702q-46 0 -74.5 -23.5t-28.5 -66.5q0 -46 53 -102l35 -37q56 18 90.5 55t34.5 82q0 42 -31 67t-79 25zM385 84q98 0 166 74l-192 204q-134 -42 -134 -147q0 -60 43 -95.5t117 -35.5z" />
    <glyph glyph-name="quotesingle" unicode="'" horiz-adv-x="301" 
d="M207 415h-113v353h113v-353z" />
    <glyph glyph-name="parenleft" unicode="(" horiz-adv-x="400" 
d="M348 -204h-115q-155 221 -155 502q0 284 155 505h115q-140 -227 -140 -507q0 -273 140 -500z" />
    <glyph glyph-name="parenright" unicode=")" horiz-adv-x="400" 
d="M167 -204h-115q140 230 140 500q0 277 -140 507h115q155 -221 155 -505q0 -281 -155 -502z" />
    <glyph glyph-name="asterisk" unicode="*" horiz-adv-x="733" 
d="M364 438l-117 -189l-87 66l145 164l-211 55l36 102l199 -87l-16 219h106l-15 -219l198 87l38 -102l-214 -55l141 -164l-87 -66z" />
    <glyph glyph-name="plus" unicode="+" 
d="M430 391h229v-102h-229v-230h-106v230h-227v102h227v231h106v-231z" />
    <glyph glyph-name="comma" unicode="," horiz-adv-x="378" 
d="M122 -199h-21v71h21q45 0 64 18t19 60v77l-105 -27v156h178v-204q0 -78 -38 -114.5t-118 -36.5z" />
    <glyph glyph-name="hyphen" unicode="-" horiz-adv-x="463" 
d="M406 235h-349v104h349v-104z" />
    <glyph glyph-name="period" unicode="." horiz-adv-x="371" 
d="M271 0h-171v156h171v-156z" />
    <glyph glyph-name="slash" unicode="/" horiz-adv-x="541" 
d="M167 0h-114l320 768h114z" />
    <glyph glyph-name="zero" unicode="0" 
d="M604 86q-76 -102 -225 -102t-225 102q-77 101 -77 298q0 196 76.5 297.5t225.5 101.5q148 0 224.5 -101.5t76.5 -297.5q0 -197 -76 -298zM379 95q87 0 128.5 71.5t41.5 217.5t-41 217t-129 71t-129.5 -71t-41.5 -217t41.5 -217.5t129.5 -71.5z" />
    <glyph glyph-name="one" unicode="1" horiz-adv-x="527" 
d="M372 0h-132v523h-188v90h9q89 0 136 35q42 33 57 109l2 11h116v-768z" />
    <glyph glyph-name="two" unicode="2" 
d="M669 0h-582q0 103 50 177q49 73 168 144l104 63q62 37 87.5 72t25.5 83q0 61 -37.5 95.5t-105.5 34.5q-70 0 -108.5 -37t-38.5 -106v-11h-128v9q0 122 75 190.5t205 68.5q125 0 198.5 -63t73.5 -174q0 -81 -46 -144t-149 -122l-73 -42q-65 -38 -90 -63t-29 -55h400v-120z
" />
    <glyph glyph-name="three" unicode="3" 
d="M379 -15q-131 0 -206.5 65t-86.5 186l132 11q16 -150 163 -150q74 0 113.5 35.5t39.5 95.5q0 62 -38.5 95t-110.5 33h-73v100h69q63 0 98.5 29.5t35.5 80.5q0 52 -37 80.5t-102 28.5q-136 0 -153 -128l-127 13q15 108 87.5 166.5t194.5 58.5q120 0 193 -55
q72 -56 72 -150q0 -121 -121 -164v-3q149 -35 149 -188q0 -113 -80 -176q-79 -64 -212 -64z" />
    <glyph glyph-name="four" unicode="4" 
d="M571 768v-492l114 12v-106l-114 12v-194h-122v194l-377 -12v105l309 481h190zM195 286l254 -10v403h-3z" />
    <glyph glyph-name="five" unicode="5" 
d="M373 -13q-120 0 -196.5 58t-89.5 160l135 12q10 -58 51.5 -88.5t103.5 -30.5q74 0 115 42t41 115t-40.5 113.5t-116.5 40.5q-83 0 -138 -58l-130 15l77 402h450v-118h-347l-38 -186l2 -2q65 49 159 49q122 0 190 -71q67 -70 67 -183q0 -117 -77 -194q-76 -76 -218 -76z
" />
    <glyph glyph-name="six" unicode="6" 
d="M415 503q114 0 185 -68q70 -67 70 -184q0 -121 -75 -194q-76 -73 -207 -73q-133 0 -214 90q-87 92 -87 280q0 429 312 429q102 0 169.5 -45t91.5 -128l-127 -17q-27 85 -137 85q-88 0 -130.5 -61.5t-46.5 -203.5q66 90 196 90zM390 95q70 0 110.5 41t40.5 110
q0 71 -41 113.5t-109 42.5q-65 0 -111 -37.5t-58 -103.5q8 -73 42 -111q49 -55 126 -55z" />
    <glyph glyph-name="seven" unicode="7" 
d="M369 0h-142q19 179 94 352q73 170 186 294h-414v122h571v-104q-263 -254 -295 -664z" />
    <glyph glyph-name="eight" unicode="8" 
d="M377 -16q-132 0 -216 63q-85 61 -85 176q0 72 40.5 122.5t111.5 66.5v3q-59 20 -91.5 63t-32.5 102q0 96 73 150.5t200 54.5q129 0 203 -54.5t74 -150.5q0 -58 -32.5 -101t-91.5 -64v-3q73 -21 112.5 -69t39.5 -120q0 -114 -86 -176q-86 -63 -219 -63zM269 488
q39 -30 109 -30t110 30t40 84q0 53 -39.5 82t-110.5 29q-70 0 -109 -28.5t-39 -82.5t39 -84zM254 128q43 -37 124 -37q80 0 126 37q45 36 45 100q0 61 -45.5 97t-125.5 36t-124 -35t-44 -98q0 -64 44 -100z" />
    <glyph glyph-name="nine" unicode="9" 
d="M583 694q87 -93 87 -280q0 -429 -312 -429q-102 0 -169.5 45t-91.5 128l126 17q27 -85 137 -85q88 0 131 62t47 204q-64 -91 -196 -91q-113 0 -184 68t-71 184q0 121 75 194q74 73 206 73q133 0 215 -90zM366 366q64 0 110.5 37.5t58.5 103.5q-7 69 -43 111
q-49 55 -125 55q-70 0 -111 -41t-41 -110q0 -71 41.5 -113.5t109.5 -42.5z" />
    <glyph glyph-name="colon" unicode=":" horiz-adv-x="371" 
d="M271 366h-171v157h171v-157zM271 0h-171v156h171v-156z" />
    <glyph glyph-name="semicolon" unicode=";" horiz-adv-x="378" 
d="M274 366h-171v157h171v-157zM122 -199h-21v71h21q45 0 64 18t19 60v77l-105 -27v156h178v-204q0 -78 -38 -114.5t-118 -36.5z" />
    <glyph glyph-name="less" unicode="&#x3c;" 
d="M104 399l547 201v-113l-447 -154l447 -153v-113l-547 200v132z" />
    <glyph glyph-name="equal" unicode="=" 
d="M652 409h-549v110h549v-110zM652 160h-549v110h549v-110z" />
    <glyph glyph-name="greater" unicode="&#x3e;" 
d="M104 487v113l547 -201v-132l-547 -200v113l447 153z" />
    <glyph glyph-name="question" unicode="?" horiz-adv-x="720" 
d="M408 215h-131v29q0 76 31 122q31 44 111 82q91 46 91 115q0 53 -40.5 80.5t-114.5 27.5q-78 0 -116.5 -32.5t-46.5 -103.5l-130 14q11 113 85.5 173t208.5 60q135 0 211 -57t76 -159q0 -123 -121 -192l-45 -27q-40 -24 -54.5 -47t-14.5 -69v-16zM417 0h-149v135h149v-135
z" />
    <glyph glyph-name="at" unicode="@" horiz-adv-x="1148" 
d="M583 745q215 0 339 -117q123 -117 123 -294q0 -125 -60 -206q-61 -82 -163 -82q-103 0 -134 82q-45 -82 -142 -82q-88 0 -139.5 63t-51.5 171q0 107 52.5 169.5t138.5 62.5q89 0 135 -70l8 57h95v-309q0 -56 54 -56q52 0 83 49.5t31 139.5q0 151 -98 243q-98 91 -273 91
q-179 0 -277 -99t-98 -277t97.5 -276.5t276.5 -98.5q108 0 202 36v-89q-92 -33 -199 -33q-221 0 -350 123t-129 338q0 211 130 338q129 126 349 126zM572 136q82 0 103 93v108q-21 89 -103 89q-51 0 -78 -37.5t-27 -106.5q0 -70 27 -108t78 -38z" />
    <glyph glyph-name="A" unicode="A" horiz-adv-x="791" 
d="M765 0h-142l-59 172h-343l-58 -172h-136l273 768h182zM375 625l-118 -347h270l-119 347l-16 62z" />
    <glyph glyph-name="B" unicode="B" horiz-adv-x="799" 
d="M573 411q73 -18 113.5 -69t40.5 -121q0 -101 -69.5 -161t-197.5 -60h-356v768h352q118 0 179.5 -51.5t61.5 -141.5q0 -58 -33.5 -102.5t-90.5 -61.5zM435 667h-199v-221h197q132 0 132 115q0 50 -33.5 78t-96.5 28zM236 101h226q61 0 95.5 32t34.5 91t-37.5 90.5
t-104.5 31.5h-214v-245z" />
    <glyph glyph-name="C" unicode="C" horiz-adv-x="845" 
d="M445 -18q-163 0 -265 109t-102 294q0 187 103 293q104 107 266 107q131 0 218.5 -61t120.5 -175l-128 -14q-52 138 -211 138q-109 0 -171.5 -74t-62.5 -210q0 -138 63 -215t171 -77q175 0 219 159l124 -14q-31 -123 -122 -191.5t-223 -68.5z" />
    <glyph glyph-name="D" unicode="D" horiz-adv-x="828" 
d="M104 769h273q189 0 285.5 -97.5t96.5 -288.5q0 -185 -96.5 -284t-278.5 -99h-280v769zM237 108h148q113 0 177 63q64 61 64 212q0 153 -65 215q-67 62 -183 62h-141v-552z" />
    <glyph glyph-name="E" unicode="E" horiz-adv-x="715" 
d="M235 341v-231h420v-110h-551v768h547v-110h-416v-210h382v-107h-382z" />
    <glyph glyph-name="F" unicode="F" horiz-adv-x="678" 
d="M624 768v-110h-389v-210h356v-106h-356v-342h-131v768h520z" />
    <glyph glyph-name="G" unicode="G" horiz-adv-x="891" 
d="M457 309v100h331v-409h-76l-30 131q-67 -148 -249 -148q-163 0 -259 112q-96 111 -96 289q0 182 97 291q96 110 277 110q123 0 208.5 -59t120.5 -168l-129 -22q-57 139 -205 139q-109 0 -171 -76.5t-62 -213.5q0 -139 62.5 -215.5t178.5 -76.5q82 0 137 39t76 113v76z
" />
    <glyph glyph-name="H" unicode="H" horiz-adv-x="845" 
d="M609 452v316h133v-768h-133v340h-372v-340h-133v768h133v-316h372z" />
    <glyph glyph-name="I" unicode="I" horiz-adv-x="340" 
d="M237 0h-133v768h133v-768z" />
    <glyph glyph-name="J" unicode="J" horiz-adv-x="676" 
d="M313 -14q-119 0 -187 67q-69 68 -69 176v37h129v-35q0 -66 33 -100.5t94 -34.5q124 0 124 135v537h136v-537q0 -112 -70 -178q-70 -67 -190 -67z" />
    <glyph glyph-name="K" unicode="K" horiz-adv-x="772" 
d="M754 0h-157l-243 367l-117 -131v-236h-133v769h133v-395l328 395h161l-289 -327z" />
    <glyph glyph-name="L" unicode="L" horiz-adv-x="662" 
d="M239 768v-657h380v-111h-515v768h135z" />
    <glyph glyph-name="M" unicode="M" horiz-adv-x="1080" 
d="M581 233l199 535h197v-768h-124v594l1 82l-26 -82l-225 -594h-125l-224 594l-27 85l1 -85v-594h-124v768h206l192 -535l39 -125z" />
    <glyph glyph-name="N" unicode="N" horiz-adv-x="901" 
d="M674 120v649h124v-769h-184l-387 648v-648h-123v769h185z" />
    <glyph glyph-name="O" unicode="O" horiz-adv-x="914" 
d="M457 -17q-171 0 -275 111q-104 110 -104 290q0 179 104 291q104 110 275 110q173 0 277 -110q103 -110 103 -291t-103 -290q-104 -111 -277 -111zM457 92q116 0 181 78t65 214t-65 214t-181 78t-181 -78t-65 -214t65.5 -214t180.5 -78z" />
    <glyph glyph-name="P" unicode="P" horiz-adv-x="737" 
d="M104 768h307q125 0 194.5 -66.5t69.5 -179.5q0 -107 -70 -173q-70 -67 -192 -67h-176v-282h-133v768zM237 389h169q63 0 98 35t35 98q0 67 -34.5 102.5t-100.5 35.5h-167v-271z" />
    <glyph glyph-name="Q" unicode="Q" horiz-adv-x="930" 
d="M722 82l134 -133l-76 -62l-116 150q-88 -54 -207 -54q-171 0 -275 111q-104 110 -104 290q0 179 104 291q104 110 275 110q173 0 277 -110q103 -110 103 -291q0 -193 -115 -302zM276 598q-65 -79 -65 -214q0 -136 66 -214q65 -78 180 -78q74 0 129 34l-137 136l76 62
l116 -150q62 79 62 210q0 136 -65 214t-181 78q-117 0 -181 -78z" />
    <glyph glyph-name="R" unicode="R" horiz-adv-x="794" 
d="M678 225l39 -225h-129l-28 180q-11 72 -41.5 101.5t-94.5 29.5h-189v-311h-131v768h381q108 0 167.5 -52t59.5 -145q0 -147 -162 -203q107 -24 128 -143zM235 416h174q82 0 126 34.5t44 100.5q0 112 -142 112h-202v-247z" />
    <glyph glyph-name="S" unicode="S" horiz-adv-x="776" 
d="M389 -19q-285 0 -327 229l132 15q25 -139 200 -139q90 0 138 31.5t48 89.5q0 50 -35.5 77t-114.5 43l-101 20q-121 24 -177 76t-56 142q0 106 78 165t221 59q269 0 309 -204l-129 -15q-12 60 -56 88t-127 28q-78 0 -119.5 -28t-41.5 -81q0 -48 29.5 -72t110.5 -40l94 -19
q132 -28 191 -80.5t59 -139.5q0 -117 -86.5 -181t-239.5 -64z" />
    <glyph glyph-name="T" unicode="T" horiz-adv-x="680" 
d="M35 768h610v-110h-238v-658h-134v658h-238v110z" />
    <glyph glyph-name="U" unicode="U" horiz-adv-x="837" 
d="M734 768v-495q0 -290 -315 -290t-315 290v495h137v-498q0 -89 42.5 -130t135.5 -41t135.5 41t42.5 130v498h137z" />
    <glyph glyph-name="V" unicode="V" horiz-adv-x="740" 
d="M388 176l187 592h138l-262 -768h-159l-265 768h142l188 -591l16 -61z" />
    <glyph glyph-name="W" unicode="W" horiz-adv-x="1169" 
d="M858 210l157 558h127l-227 -768h-163l-171 658l-164 -658h-162l-228 768h128l156 -558l26 -124l22 124l137 558h178l136 -558l22 -124z" />
    <glyph glyph-name="X" unicode="X" horiz-adv-x="752" 
d="M707 768l-261 -370l280 -398h-157l-173 259l-22 39l-23 -39l-176 -259h-148l279 394l-260 374h156l154 -234l22 -39l24 39l159 234h146z" />
    <glyph glyph-name="Y" unicode="Y" horiz-adv-x="727" 
d="M388 455l180 314h141l-277 -462v-307h-134v307l-279 462h145l180 -315l22 -42z" />
    <glyph glyph-name="Z" unicode="Z" horiz-adv-x="770" 
d="M691 677l-448 -568h456v-109h-626v92l440 566h-422v110h600v-91z" />
    <glyph glyph-name="bracketleft" unicode="[" horiz-adv-x="441" 
d="M389 -204h-285v1007h285v-109h-159v-789h159v-109z" />
    <glyph glyph-name="backslash" unicode="\" horiz-adv-x="541" 
d="M487 0h-114l-320 768h114z" />
    <glyph glyph-name="bracketright" unicode="]" horiz-adv-x="440" 
d="M337 -204h-285v109h159v789h-159v109h285v-1007z" />
    <glyph glyph-name="asciicircum" unicode="^" 
d="M302 768h149l205 -547h-139l-119 339q0 1 -25 84q-17 -50 -26 -85l-117 -338h-130z" />
    <glyph glyph-name="underscore" unicode="_" horiz-adv-x="500" 
d="M500 -154h-500v79h500v-79z" />
    <glyph glyph-name="grave" unicode="`" horiz-adv-x="500" 
d="M384 657h-114l-153 172h156z" />
    <glyph glyph-name="a" unicode="a" horiz-adv-x="659" 
d="M332 564q122 0 178 -44.5t56 -133.5v-274v-112h-106q-10 48 -13 69q-61 -85 -189 -85q-89 0 -143 43.5t-54 118.5q0 74 51.5 114t162.5 61l123 22q24 4 42 14v25q0 47 -24.5 68t-88.5 21q-66 0 -96 -21.5t-36 -75.5l-113 14q23 176 250 176zM296 71q48 0 86.5 23.5
t55.5 65.5v115q-27 -7 -35 -9l-105 -21q-107 -21 -107 -91q0 -40 27.5 -61.5t77.5 -21.5z" />
    <glyph glyph-name="b" unicode="b" horiz-adv-x="704" 
d="M394 564q113 0 179 -79q66 -80 66 -211q0 -129 -68 -209t-177 -80q-116 0 -177 90l-8 -75h-115v768h130v-288q63 84 170 84zM368 90q66 0 103 50t37 135q0 87 -37 137t-103 50q-57 0 -97 -37t-52 -105l3 -101q14 -63 53 -96t93 -33z" />
    <glyph glyph-name="c" unicode="c" horiz-adv-x="648" 
d="M335 -13q-125 0 -197 78q-73 76 -73 210q0 135 70.5 211.5t197.5 76.5q207 0 254 -185l-124 -14q-23 98 -128 98q-140 0 -140 -186q0 -91 36.5 -138.5t105.5 -47.5q106 0 131 112l121 -12q-21 -97 -86.5 -150t-167.5 -53z" />
    <glyph glyph-name="d" unicode="d" horiz-adv-x="704" 
d="M480 480v288h130v-768h-115l-8 75q-61 -90 -177 -90q-109 0 -177 80t-68 209q0 131 66 211q66 79 179 79q107 0 170 -84zM336 90q54 0 93.5 33.5t53.5 96.5l3 96q-12 70 -52 108t-98 38q-66 0 -103 -50t-37 -137q0 -85 37 -135t103 -50z" />
    <glyph glyph-name="e" unicode="e" horiz-adv-x="684" 
d="M618 271v-30h-425q12 -159 158 -159q97 0 138 78l115 -22q-31 -73 -98 -113.5t-159 -40.5q-135 0 -208 79q-74 80 -74 209q0 132 73 212q72 80 205 80q135 0 205 -81q70 -80 70 -212zM342 473q-64 0 -103 -39t-46 -112h299q-15 151 -150 151z" />
    <glyph glyph-name="f" unicode="f" horiz-adv-x="492" 
d="M458 679l-142 13q-40 -5 -57 -23t-17 -59l18 -73l196 11v-91l-186 10l10 -120v-347h-130v347l10 119l-133 -9v91l132 -9l-9 78q0 74 41.5 112.5t119.5 38.5h147v-89z" />
    <glyph glyph-name="g" unicode="g" horiz-adv-x="693" 
d="M476 488l6 63h117v-521q0 -115 -67 -176.5t-189 -61.5q-206 0 -248 163l120 14q32 -83 130 -83q125 0 125 130v90q-62 -66 -165 -66q-105 0 -172 70q-68 71 -68 190q0 124 66 196q65 71 175 71q107 0 170 -79zM332 140q107 0 138 110v108q-15 52 -51 79.5t-87 27.5
q-65 0 -102 -44t-37 -119q0 -74 37 -118t102 -44z" />
    <glyph glyph-name="h" unicode="h" horiz-adv-x="677" 
d="M389 563q89 0 142 -52t53 -140v-371h-130v340q0 54 -27 84t-75 30q-93 0 -128 -110v-344h-130v768h130v-286q62 81 165 81z" />
    <glyph glyph-name="i" unicode="i" horiz-adv-x="317" 
d="M224 661h-130v133h130v-133zM224 0h-130v548h130v-548z" />
    <glyph glyph-name="j" unicode="j" horiz-adv-x="317" 
d="M224 661h-130v133h130v-133zM55 -208h-96v98h73q33 0 47.5 15t14.5 49v594h130v-589q0 -81 -43 -124t-126 -43z" />
    <glyph glyph-name="k" unicode="k" horiz-adv-x="661" 
d="M623 0h-145l-164 274l-90 -88v-186h-130v768h130v-472l233 252h155l-219 -211z" />
    <glyph glyph-name="l" unicode="l" horiz-adv-x="317" 
d="M224 0h-130v768h130v-768z" />
    <glyph glyph-name="m" unicode="m" horiz-adv-x="1037" 
d="M749 563q90 0 142.5 -51.5t52.5 -138.5v-373h-130v336q0 56 -26.5 87t-75.5 31q-93 0 -128 -110v-344h-130v336q0 56 -26.5 87t-75.5 31q-93 0 -128 -110v-344h-130v548h120l5 -73q64 88 172 88q132 0 177 -104q65 104 181 104z" />
    <glyph glyph-name="n" unicode="n" horiz-adv-x="677" 
d="M389 563q89 0 142 -52t53 -140v-371h-130v340q0 54 -27 84t-75 30q-93 0 -128 -110v-344h-130v548h119l5 -73q64 88 171 88z" />
    <glyph glyph-name="o" unicode="o" horiz-adv-x="696" 
d="M348 -16q-132 0 -207 79q-76 79 -76 212q0 131 76 210t207 79q132 0 208 -78q75 -80 75 -211q0 -132 -76 -211q-77 -80 -207 -80zM235 137q37 -49 113 -49t113 49q38 50 38 138q0 89 -38.5 137t-112.5 48t-113 -48t-39 -137t39 -138z" />
    <glyph glyph-name="p" unicode="p" horiz-adv-x="704" 
d="M394 564q113 0 179 -79q66 -80 66 -211q0 -129 -68 -209t-177 -80q-107 0 -170 83v-272h-130v752h118l6 -73q62 89 176 89zM368 89q66 0 103 50t37 135q0 87 -37 137t-103 50q-52 0 -90.5 -30.5t-53.5 -87.5v-135q15 -58 53.5 -88.5t90.5 -30.5z" />
    <glyph glyph-name="q" unicode="q" horiz-adv-x="704" 
d="M486 489l6 59h118v-752h-130v261q-58 -73 -157 -73q-118 0 -188 79t-70 211q0 130 73 209q72 80 188 80q104 0 160 -74zM346 88q90 0 134 77v218q-44 77 -134 77q-69 0 -109.5 -50.5t-40.5 -135.5t40.5 -135.5t109.5 -50.5z" />
    <glyph glyph-name="r" unicode="r" horiz-adv-x="467" 
d="M399 554h38v-115h-35q-73 0 -116.5 -27t-61.5 -96v-316h-130v548h120l6 -104q47 110 179 110z" />
    <glyph glyph-name="s" unicode="s" horiz-adv-x="635" 
d="M324 -22q-222 0 -259 175l124 12q13 -51 45.5 -74t91.5 -23q116 0 116 78q0 31 -23 50t-78 28l-89 18q-165 30 -165 160q0 78 60 122.5t168 44.5q217 0 251 -162l-120 -12q-21 86 -129 86q-107 0 -107 -70q0 -28 22.5 -44.5t73.5 -26.5l80 -14q93 -16 137.5 -56
t44.5 -111q0 -86 -63.5 -133.5t-180.5 -47.5z" />
    <glyph glyph-name="t" unicode="t" horiz-adv-x="514" 
d="M272 540l183 8v-92l-184 8l8 -82v-206q0 -71 68 -71h108v-105h-136q-169 0 -169 158v224l8 81l-131 -7v92l129 -7l-6 45v123h129v-123z" />
    <glyph glyph-name="u" unicode="u" horiz-adv-x="677" 
d="M454 207v341h130v-548h-120l-5 73q-64 -88 -170 -88q-89 0 -142 52t-53 140v371h130v-340q0 -54 27 -84t75 -30q95 0 128 113z" />
    <glyph glyph-name="v" unicode="v" horiz-adv-x="639" 
d="M353 203l115 345h130l-199 -548h-154l-203 548h138l115 -345l29 -107z" />
    <glyph glyph-name="w" unicode="w" horiz-adv-x="968" 
d="M696 214l98 334h132l-183 -548h-137l-83 278l-39 136l-38 -136l-82 -278h-140l-182 548h137l99 -335l25 -93l22 92l90 336h135l93 -334l26 -100z" />
    <glyph glyph-name="x" unicode="x" horiz-adv-x="643" 
d="M388 289l213 -289h-149l-136 192l-138 -192h-136l215 276l-200 272h150l121 -174l122 174h136z" />
    <glyph glyph-name="y" unicode="y" horiz-adv-x="627" 
d="M320 133l131 415h134l-225 -607q-30 -81 -76.5 -115t-124.5 -34h-72v102h75q35 0 53 14.5t33 55.5l8 23l-214 561h138l139 -405z" />
    <glyph glyph-name="z" unicode="z" horiz-adv-x="628" 
d="M544 459l-318 -354h337v-105h-498v86l321 357h-313v105h471v-89z" />
    <glyph glyph-name="braceleft" unicode="{" horiz-adv-x="479" 
d="M427 -205h-124q-68 0 -99 30.5t-31 96.5v206q0 62 -28 89t-93 28v108q65 0 93 27.5t28 90.5v205q0 66 31 96t99 30h124v-109h-79q-32 0 -44 -12.5t-12 -43.5v-172q0 -69 -34.5 -112t-100.5 -53v-2q65 -10 100 -52t35 -109v-176q0 -32 12.5 -44.5t44.5 -12.5h78v-109z" />
    <glyph glyph-name="bar" unicode="|" horiz-adv-x="337" 
d="M234 -204h-130v1007h130v-1007z" />
    <glyph glyph-name="braceright" unicode="}" horiz-adv-x="479" 
d="M176 -205h-124v109h78q32 0 44.5 12.5t12.5 44.5v176q0 67 35 109t100 52v2q-66 10 -100.5 53t-34.5 112v172q0 31 -12.5 43.5t-43.5 12.5h-79v109h124q68 0 99.5 -30t31.5 -96v-205q0 -63 28 -90.5t92 -27.5v-108q-65 -1 -92.5 -28t-27.5 -89v-206q0 -66 -31.5 -96.5
t-99.5 -30.5z" />
    <glyph glyph-name="asciitilde" unicode="~" 
d="M211 261h-109q0 94 41 144.5t114 50.5q41 1 88.5 -21.5t85.5 -45t58 -20.5q56 0 56 87h109q0 -93 -40.5 -144t-113.5 -51q-41 -2 -88 21t-85.5 46t-59.5 21q-56 0 -56 -88z" />
    <glyph glyph-name="uni00A0" unicode="&#xa0;" horiz-adv-x="300" 
 />
    <glyph glyph-name="exclamdown" unicode="&#xa1;" horiz-adv-x="346" 
d="M243 410h-139v138h139v-138zM238 -204h-130v231l33 303h65l32 -303v-231z" />
    <glyph glyph-name="cent" unicode="&#xa2;" 
d="M519 202l121 -12q-18 -84 -70 -135.5t-133 -63.5v-147h-102v147q-103 15 -161 90.5t-58 193.5q0 120 57 195t162 90v148h102v-148q161 -23 201 -182l-124 -14q-23 98 -128 98q-140 0 -140 -186q0 -91 36.5 -138.5t105.5 -47.5q106 0 131 112z" />
    <glyph glyph-name="sterling" unicode="&#xa3;" 
d="M430 109h264v-109h-630v109h249q-7 97 -66 202l-183 -14v103l132 -11l-7 10q-37 58 -52 96.5t-15 79.5q0 99 68 156.5t188 57.5q114 0 182 -56.5t83 -160.5l-125 -16q-19 121 -139 121q-58 0 -91.5 -30t-33.5 -86q0 -54 47 -127l30 -47l230 13v-103l-183 13
q46 -89 52 -201z" />
    <glyph glyph-name="currency" unicode="&#xa4;" 
d="M707 640l-117 -109q43 -64 43 -147t-43 -147l117 -109l-72 -73l-109 117q-67 -43 -149 -43q-85 0 -146 43l-109 -117l-72 73l116 109q-42 65 -42 147t42 147l-116 109l72 73l109 -117q61 43 146 43q82 0 149 -43l109 117zM271 274q42 -44 107 -44q64 0 108 44
q42 44 42 110q0 68 -42 111q-43 43 -108 43t-107 -43t-42 -111q0 -66 42 -110z" />
    <glyph glyph-name="yen" unicode="&#xa5;" 
d="M582 768h142l-247 -355l193 15v-93h-583v93l196 -15l-249 355h146l167 -278l34 -73l35 74zM313 152h-226v88h583v-88h-223v-152h-134v152z" />
    <glyph glyph-name="brokenbar" unicode="&#xa6;" horiz-adv-x="337" 
d="M234 447h-130v356h130v-356zM234 -204h-130v356h130v-356z" />
    <glyph glyph-name="section" unicode="&#xa7;" horiz-adv-x="713" 
d="M636 319q0 -102 -99 -150q36 -45 36 -108q0 -84 -59 -130.5t-164 -46.5q-100 0 -159 43.5t-70 124.5l123 10q12 -84 111 -84t99 76q0 60 -84 86l-135 39q-157 46 -157 173q0 102 99 150q-37 43 -37 109q0 83 59.5 129.5t164.5 46.5q99 0 158.5 -43.5t70.5 -124.5
l-123 -10q-12 84 -111 84t-99 -76q0 -60 83 -86l135 -39q158 -47 158 -173zM284 278l146 -44l27 -9q60 19 60 78q0 65 -87 90l-146 44l-27 9q-60 -20 -60 -78q0 -64 87 -90z" />
    <glyph glyph-name="dieresis" unicode="&#xa8;" horiz-adv-x="500" 
d="M182 661h-133v130h133v-130zM451 661h-133v130h133v-130z" />
    <glyph glyph-name="copyright" unicode="&#xa9;" horiz-adv-x="968" 
d="M776 95q-116 -114 -292 -114q-177 0 -291 114q-115 114 -115 290t115 290q115 113 291 113t292 -114q115 -114 115 -289q0 -176 -115 -290zM254 150q90 -92 230 -92t230 92q90 91 90 235q0 143 -90 234q-90 92 -230 92t-230 -92q-90 -91 -90 -234t90 -235zM485 184
q-85 0 -135 54t-50 148q0 95 50 148.5t135 53.5q141 0 173 -123l-89 -17q-19 60 -83 60q-91 0 -91 -122q0 -121 91 -121q64 0 84 62l87 -15q-14 -62 -58.5 -95t-113.5 -33z" />
    <glyph glyph-name="ordfeminine" unicode="&#xaa;" horiz-adv-x="598" 
d="M300 776q107 0 156 -38.5t49 -118.5v-258h-96l-10 58q-62 -59 -161 -59q-68 0 -106 32.5t-38 88.5q0 105 135 119l161 17v18q0 33 -21.5 47.5t-68.5 14.5q-73 0 -92 -40l-101 24q21 49 66.5 72t126.5 23zM275 441q39 0 70 16t45 38v57l-113 -12q-67 -6 -67 -52
q0 -47 65 -47z" />
    <glyph glyph-name="guillemotleft" unicode="&#xab;" horiz-adv-x="793" 
d="M362 124v-136l-268 217v138l268 217v-136l-186 -150zM699 124v-136l-268 217v138l268 217v-136l-186 -150z" />
    <glyph glyph-name="logicalnot" unicode="&#xac;" 
d="M637 186h-104v199h-415v102h519v-301z" />
    <glyph glyph-name="uni00AD" unicode="&#xad;" horiz-adv-x="463" 
d="M406 235h-349v104h349v-104z" />
    <glyph glyph-name="registered" unicode="&#xae;" horiz-adv-x="660" 
d="M151 712q74 71 179 71q106 0 180 -71q73 -70 73 -174q0 -103 -73 -173q-74 -71 -180 -71q-105 0 -179 71q-73 70 -73 173q0 104 73 174zM190 401q55 -55 140 -55t141 55q56 56 56 137q0 83 -56 139q-56 55 -141 55t-140 -55q-57 -55 -57 -139q0 -82 57 -137zM431 485
l3 -36q2 -23 11 -36h-55q-8 11 -9 36l-2 30q-2 19 -11 27t-29 8h-55v-101h-52v256h114q92 0 92 -67q0 -50 -61 -63v-6q30 -3 41.5 -13.5t12.5 -34.5zM284 556h54q46 0 46 35q0 34 -42 34h-58v-69z" />
    <glyph glyph-name="overscore" unicode="&#xaf;" horiz-adv-x="500" 
d="M436 664h-372v91h372v-91z" />
    <glyph glyph-name="degree" unicode="&#xb0;" horiz-adv-x="530" 
d="M409 440q-57 -57 -144 -57t-143 57q-57 56 -57 143t57 144q56 56 143 56q86 0 144 -56q56 -58 56 -144q0 -87 -56 -143zM265 472q48 0 78.5 31.5t30.5 79.5t-30.5 79.5t-78.5 31.5q-47 0 -78 -31.5t-31 -79.5t31 -79.5t78 -31.5z" />
    <glyph glyph-name="plusminus" unicode="&#xb1;" 
d="M431 623v-160h228v-103h-228v-159h-106v159h-228v103h228v160h106zM653 17h-549v109h549v-109z" />
    <glyph glyph-name="two.sups" unicode="&#xb2;" horiz-adv-x="511" 
d="M461 369h-406q0 82 35 133t110 77l92 32q67 24 67 73q0 69 -101 69q-100 0 -110 -85l-90 11q9 71 61.5 111.5t140.5 40.5q90 0 140.5 -38t50.5 -107q0 -102 -127 -144l-77 -25q-78 -27 -79 -69h293v-79z" />
    <glyph glyph-name="three.sups" unicode="&#xb3;" horiz-adv-x="508" 
d="M255 357q-86 0 -136.5 37.5t-62.5 108.5l89 13q17 -83 112 -83q49 0 76 18t27 50q0 63 -101 63h-45v75h41q96 0 96 59q0 61 -98 61q-88 0 -108 -65l-86 13q14 59 65.5 91.5t131.5 32.5q83 0 134 -33t51 -92q0 -74 -73 -98v-2q86 -20 86 -106q0 -66 -53 -104.5t-146 -38.5
z" />
    <glyph glyph-name="acute" unicode="&#xb4;" horiz-adv-x="500" 
d="M231 657h-114l111 172h156z" />
    <glyph glyph-name="uni00B5" unicode="&#xb5;" horiz-adv-x="677" 
d="M224 -204h-130v752h130v-335q0 -57 27 -87.5t77 -30.5q89 0 126 100v353h130v-548h-120l-5 73q-64 -88 -159 -88q-65 0 -106 37l-2 -1l32 -117v-108z" />
    <glyph glyph-name="paragraph" unicode="&#xb6;" horiz-adv-x="723" 
d="M399 -105h-103v477q-115 0 -174.5 50t-59.5 148t59.5 148t174.5 50h324v-873h-103v770h-118v-770z" />
    <glyph glyph-name="middot" unicode="&#xb7;" horiz-adv-x="438" 
d="M288 314h-138v138h138v-138z" />
    <glyph glyph-name="cedilla" unicode="&#xb8;" horiz-adv-x="500" 
d="M219 -270h-81v68h70q79 0 79 41q0 34 -46 34h-103v62h130q57 0 87 -24.5t30 -69.5q0 -111 -166 -111z" />
    <glyph glyph-name="one.sups" unicode="&#xb9;" horiz-adv-x="373" 
d="M279 369h-92v276h-140v77h66q74 0 74 61v39h92v-453z" />
    <glyph glyph-name="ordmasculine" unicode="&#xba;" horiz-adv-x="576" 
d="M451 417q-61 -57 -163 -57t-162 57q-61 57 -61 151t61 151q60 57 162 57q101 0 163 -56q60 -57 60 -152q0 -96 -60 -151zM288 447q108 0 108 121q0 123 -108 123q-109 0 -109 -123q0 -121 109 -121z" />
    <glyph glyph-name="guillemotright" unicode="&#xbb;" horiz-adv-x="793" 
d="M362 205l-268 -217v136l186 150l-186 150v136l268 -217v-138zM699 205l-268 -217v136l186 150l-186 150v136l268 -217v-138z" />
    <glyph glyph-name="onequarter" unicode="&#xbc;" horiz-adv-x="1255" 
d="M336 336h-93v276h-139v77h66q38 0 55.5 14t17.5 47v39h93v-453zM393 -15h-115l495 798h113zM1080 0h-92v112l-262 -8v84l248 265h106v-279l72 9v-79l-72 8v-112zM986 357l-166 -176l168 -7v183h-2z" />
    <glyph glyph-name="onehalf" unicode="&#xbd;" horiz-adv-x="1293" 
d="M336 336h-93v276h-139v77h66q38 0 55.5 14t17.5 47v39h93v-453zM393 -15h-115l495 798h113zM1190 0h-405q0 82 35 133t110 77l91 32q68 24 68 73q0 33 -26 51t-75 18q-98 0 -110 -85l-90 11q9 71 61.5 111.5t140.5 40.5q90 0 140.5 -38t50.5 -107q0 -102 -127 -144
l-77 -25q-78 -27 -79 -69h292v-79z" />
    <glyph glyph-name="threequarters" unicode="&#xbe;" horiz-adv-x="1361" 
d="M293 324q-175 0 -199 146l88 13q17 -83 113 -83q49 0 76 18t27 50q0 63 -102 63h-44v74h41q96 0 96 60q0 61 -98 61q-90 0 -108 -65l-87 13q15 59 66.5 91.5t131.5 32.5q82 0 133 -33t51 -92q0 -74 -72 -98v-2q86 -20 86 -106q0 -66 -53 -104.5t-146 -38.5zM508 -15h-115
l495 798h113zM1196 0h-93v112l-261 -8v84l247 265h107v-279l72 9v-79l-72 8v-112zM1101 357l-165 -176l167 -7v183h-2z" />
    <glyph glyph-name="questiondown" unicode="&#xbf;" horiz-adv-x="720" 
d="M452 416h-149v132h149v-132zM364 -224q-135 0 -211 57t-76 159q0 123 121 192l45 27q41 24 55 46.5t14 66.5v13h131v-23q0 -77 -31 -121q-31 -45 -111 -83q-91 -46 -91 -115q0 -108 155 -108q78 0 116.5 32.5t46.5 103.5l130 -14q-11 -113 -85.5 -173t-208.5 -60z" />
    <glyph glyph-name="Agrave" unicode="&#xc0;" horiz-adv-x="791" 
d="M366 1049l111 -172h-114l-152 172h155zM765 0h-142l-59 172h-343l-58 -172h-136l273 768h182zM375 625l-118 -347h270l-119 347l-16 62z" />
    <glyph glyph-name="Aacute" unicode="&#xc1;" horiz-adv-x="791" 
d="M432 1049h155l-152 -172h-114zM765 0h-142l-59 172h-343l-58 -172h-136l273 768h182zM375 625l-118 -347h270l-119 347l-16 62z" />
    <glyph glyph-name="Acircumflex" unicode="&#xc2;" horiz-adv-x="791" 
d="M486 869l-90 116l-90 -116h-113l140 182h121l146 -182h-114zM765 0h-142l-59 172h-343l-58 -172h-136l273 768h182zM375 625l-118 -347h270l-119 347l-16 62z" />
    <glyph glyph-name="Atilde" unicode="&#xc3;" horiz-adv-x="791" 
d="M312 939q-44 0 -47 -84h-95q0 87 35 134t98 47q39 2 73 -20.5t59.5 -45t43.5 -20.5q23 0 34 19.5t13 63.5h95q0 -87 -35 -134t-99 -47q-65 0 -103 44q-39 43 -72 43zM765 0h-142l-59 172h-343l-58 -172h-136l273 768h182zM375 625l-118 -347h270l-119 347l-16 62z" />
    <glyph glyph-name="Adieresis" unicode="&#xc4;" horiz-adv-x="791" 
d="M195 1013h133v-131h-133v131zM464 1013h133v-131h-133v131zM765 0h-142l-59 172h-343l-58 -172h-136l273 768h182zM375 625l-118 -347h270l-119 347l-16 62z" />
    <glyph glyph-name="Aring" unicode="&#xc5;" horiz-adv-x="791" 
d="M765 0h-142l-59 172h-343l-58 -172h-136l264 744q-52 43 -52 117q0 67 44 111q43 43 111 43q67 0 110.5 -43.5t43.5 -110.5q0 -76 -56 -120zM394 945q-37 0 -60 -23t-23 -61t23 -60.5t60 -22.5q36 0 59 22.5t23 60.5t-23 61t-59 23zM375 625l-118 -347h270l-119 347
l-16 62z" />
    <glyph glyph-name="AE" unicode="&#xc6;" horiz-adv-x="1235" 
d="M755 341v-231h420v-110h-552v190h-344l-107 -190h-145l437 768h707v-110h-416v-210h382v-107h-382zM544 658l-205 -362h284v362h-79z" />
    <glyph glyph-name="Ccedilla" unicode="&#xc7;" horiz-adv-x="845" 
d="M445 -18q-163 0 -265 109t-102 294q0 187 103 293q104 107 266 107q131 0 218.5 -61t120.5 -175l-128 -14q-52 138 -211 138q-109 0 -171.5 -74t-62.5 -210q0 -138 63 -215t171 -77q175 0 219 159l124 -14q-31 -123 -122 -191.5t-223 -68.5zM421 -285h-81v68h69
q79 0 79 42q0 33 -46 33h-102v62h129q118 0 118 -93q0 -112 -166 -112z" />
    <glyph glyph-name="Egrave" unicode="&#xc8;" horiz-adv-x="715" 
d="M348 1049l111 -172h-114l-152 172h155zM235 341v-231h420v-110h-551v768h547v-110h-416v-210h382v-107h-382z" />
    <glyph glyph-name="Eacute" unicode="&#xc9;" horiz-adv-x="715" 
d="M414 1049h155l-152 -172h-114zM235 341v-231h420v-110h-551v768h547v-110h-416v-210h382v-107h-382z" />
    <glyph glyph-name="Ecircumflex" unicode="&#xca;" horiz-adv-x="715" 
d="M468 869l-90 116l-90 -116h-113l140 182h121l146 -182h-114zM235 341v-231h420v-110h-551v768h547v-110h-416v-210h382v-107h-382z" />
    <glyph glyph-name="Edieresis" unicode="&#xcb;" horiz-adv-x="715" 
d="M177 1013h133v-131h-133v131zM446 1013h133v-131h-133v131zM235 341v-231h420v-110h-551v768h547v-110h-416v-210h382v-107h-382z" />
    <glyph glyph-name="Igrave" unicode="&#xcc;" horiz-adv-x="340" 
d="M252 877h-114l-153 172h156zM237 0h-133v768h133v-768z" />
    <glyph glyph-name="Iacute" unicode="&#xcd;" horiz-adv-x="340" 
d="M210 877h-114l111 172h155zM237 0h-133v768h133v-768z" />
    <glyph glyph-name="Icircumflex" unicode="&#xce;" horiz-adv-x="340" 
d="M81 869h-113l140 182h121l146 -182h-114l-90 116zM237 0h-133v768h133v-768z" />
    <glyph glyph-name="Idieresis" unicode="&#xcf;" horiz-adv-x="340" 
d="M103 882h-134v131h134v-131zM372 882h-134v131h134v-131zM237 0h-133v768h133v-768z" />
    <glyph glyph-name="Eth" unicode="&#xd0;" horiz-adv-x="908" 
d="M183 769h273q190 0 286.5 -97.5t96.5 -288.5q0 -185 -96.5 -284t-278.5 -99h-281v343l-156 -10v102l156 -10v344zM317 108h147q112 0 177 63q64 61 64 212q0 153 -65 215q-67 62 -182 62h-141v-236l180 11v-102l-180 11v-236z" />
    <glyph glyph-name="Ntilde" unicode="&#xd1;" horiz-adv-x="901" 
d="M380 939q-44 0 -47 -84h-95q0 87 35 134t98 47q39 2 73 -20.5t59.5 -45t43.5 -20.5q23 0 34 19.5t13 63.5h95q0 -87 -35 -134t-99 -47q-65 0 -103 44q-39 43 -72 43zM674 120v649h124v-769h-184l-387 648v-648h-123v769h185z" />
    <glyph glyph-name="Ograve" unicode="&#xd2;" horiz-adv-x="914" 
d="M539 887h-114l-152 172h155zM457 -17q-171 0 -275 111q-104 110 -104 290q0 179 104 291q104 110 275 110q173 0 277 -110q103 -110 103 -291t-103 -290q-104 -111 -277 -111zM457 92q116 0 181 78t65 214t-65 214t-181 78t-181 -78t-65 -214t65.5 -214t180.5 -78z" />
    <glyph glyph-name="Oacute" unicode="&#xd3;" horiz-adv-x="914" 
d="M496 887h-114l111 172h155zM457 -17q-171 0 -275 111q-104 110 -104 290q0 179 104 291q104 110 275 110q173 0 277 -110q103 -110 103 -291t-103 -290q-104 -111 -277 -111zM457 92q116 0 181 78t65 214t-65 214t-181 78t-181 -78t-65 -214t65.5 -214t180.5 -78z" />
    <glyph glyph-name="Ocircumflex" unicode="&#xd4;" horiz-adv-x="914" 
d="M367 879h-113l140 182h121l146 -182h-114l-90 116zM457 -17q-171 0 -275 111q-104 110 -104 290q0 179 104 291q104 110 275 110q173 0 277 -110q103 -110 103 -291t-103 -290q-104 -111 -277 -111zM457 92q116 0 181 78t65 214t-65 214t-181 78t-181 -78t-65 -214
t65.5 -214t180.5 -78z" />
    <glyph glyph-name="Otilde" unicode="&#xd5;" horiz-adv-x="914" 
d="M326 865h-95q0 87 35 134t98 47q64 0 105 -43t71 -43q23 0 34 19.5t13 63.5h95q0 -87 -35 -134t-99 -47q-65 0 -103 44q-39 43 -72 43q-44 0 -47 -84zM457 -17q-171 0 -275 111q-104 110 -104 290q0 179 104 291q104 110 275 110q173 0 277 -110q103 -110 103 -291
t-103 -290q-104 -111 -277 -111zM457 92q116 0 181 78t65 214t-65 214t-181 78t-181 -78t-65 -214t65.5 -214t180.5 -78z" />
    <glyph glyph-name="Odieresis" unicode="&#xd6;" horiz-adv-x="914" 
d="M389 892h-133v131h133v-131zM658 892h-133v131h133v-131zM457 -17q-171 0 -275 111q-104 110 -104 290q0 179 104 291q104 110 275 110q173 0 277 -110q103 -110 103 -291t-103 -290q-104 -111 -277 -111zM457 92q116 0 181 78t65 214t-65 214t-181 78t-181 -78t-65 -214
t65.5 -214t180.5 -78z" />
    <glyph glyph-name="multiply" unicode="&#xd7;" 
d="M378 272l-199 -198l-68 68l199 199l-199 198l68 68l199 -198l198 198l69 -68l-199 -198l199 -199l-69 -68z" />
    <glyph glyph-name="Oslash" unicode="&#xd8;" horiz-adv-x="914" 
d="M812 752l-71 -85q96 -108 96 -283q0 -181 -103 -290q-104 -111 -277 -111q-133 0 -227 67l-68 -82l-58 48l70 85q-96 109 -96 283q0 179 104 291q104 110 275 110q133 0 228 -68l69 83zM211 384q0 -112 45 -185l354 427q-62 50 -153 50q-116 0 -181 -78t-65 -214zM457 92
q116 0 181 78t65 214q0 110 -44 184l-353 -427q59 -49 151 -49z" />
    <glyph glyph-name="Ugrave" unicode="&#xd9;" horiz-adv-x="837" 
d="M500 877h-114l-152 172h155zM734 768v-495q0 -290 -315 -290t-315 290v495h137v-498q0 -89 42.5 -130t135.5 -41t135.5 41t42.5 130v498h137z" />
    <glyph glyph-name="Uacute" unicode="&#xda;" horiz-adv-x="837" 
d="M458 877h-114l111 172h155zM734 768v-495q0 -290 -315 -290t-315 290v495h137v-498q0 -89 42.5 -130t135.5 -41t135.5 41t42.5 130v498h137z" />
    <glyph glyph-name="Ucircumflex" unicode="&#xdb;" horiz-adv-x="837" 
d="M329 869h-113l140 182h121l146 -182h-114l-90 116zM734 768v-495q0 -290 -315 -290t-315 290v495h137v-498q0 -89 42.5 -130t135.5 -41t135.5 41t42.5 130v498h137z" />
    <glyph glyph-name="Udieresis" unicode="&#xdc;" horiz-adv-x="837" 
d="M351 882h-133v131h133v-131zM620 882h-133v131h133v-131zM734 768v-495q0 -290 -315 -290t-315 290v495h137v-498q0 -89 42.5 -130t135.5 -41t135.5 41t42.5 130v498h137z" />
    <glyph glyph-name="Yacute" unicode="&#xdd;" horiz-adv-x="727" 
d="M400 1049h155l-152 -172h-114zM388 455l180 314h141l-277 -462v-307h-134v307l-279 462h145l180 -315l22 -42z" />
    <glyph glyph-name="Thorn" unicode="&#xde;" horiz-adv-x="737" 
d="M237 647h174q125 0 194.5 -66.5t69.5 -179.5q0 -108 -70 -174q-70 -67 -192 -67h-176v-160h-133v768h133v-121zM237 267h169q63 0 98 35.5t35 98.5q0 137 -135 137h-167v-271z" />
    <glyph glyph-name="germandbls" unicode="&#xdf;" horiz-adv-x="722" 
d="M224 0h-130v554q0 111 62 165t193 54q129 0 197.5 -49t68.5 -139q0 -60 -33 -102t-93 -59v-4q82 -12 125 -62t43 -134q0 -104 -62.5 -164t-173.5 -60h-76v104h51q128 0 128 129q0 66 -34.5 97.5t-106.5 31.5h-38v104h30q54 0 85 27t31 75q0 101 -137 101
q-70 0 -100 -28.5t-30 -93.5v-547z" />
    <glyph glyph-name="agrave" unicode="&#xe0;" horiz-adv-x="659" 
d="M299 824l111 -172h-114l-152 172h155zM332 564q122 0 178 -44.5t56 -133.5v-274v-112h-106q-10 48 -13 69q-61 -85 -189 -85q-89 0 -143 43.5t-54 118.5q0 74 51.5 114t162.5 61l123 22q24 4 42 14v25q0 47 -24.5 68t-88.5 21q-66 0 -96 -21.5t-36 -75.5l-113 14
q23 176 250 176zM296 71q48 0 86.5 23.5t55.5 65.5v115q-27 -7 -35 -9l-105 -21q-107 -21 -107 -91q0 -40 27.5 -61.5t77.5 -21.5z" />
    <glyph glyph-name="aacute" unicode="&#xe1;" horiz-adv-x="659" 
d="M365 824h155l-152 -172h-114zM332 564q122 0 178 -44.5t56 -133.5v-274v-112h-106q-10 48 -13 69q-61 -85 -189 -85q-89 0 -143 43.5t-54 118.5q0 74 51.5 114t162.5 61l123 22q24 4 42 14v25q0 47 -24.5 68t-88.5 21q-66 0 -96 -21.5t-36 -75.5l-113 14q23 176 250 176z
M296 71q48 0 86.5 23.5t55.5 65.5v115q-27 -7 -35 -9l-105 -21q-107 -21 -107 -91q0 -40 27.5 -61.5t77.5 -21.5z" />
    <glyph glyph-name="acircumflex" unicode="&#xe2;" horiz-adv-x="659" 
d="M419 644l-90 116l-90 -116h-113l140 182h121l146 -182h-114zM332 564q122 0 178 -44.5t56 -133.5v-274v-112h-106q-10 48 -13 69q-61 -85 -189 -85q-89 0 -143 43.5t-54 118.5q0 74 51.5 114t162.5 61l123 22q24 4 42 14v25q0 47 -24.5 68t-88.5 21q-66 0 -96 -21.5
t-36 -75.5l-113 14q23 176 250 176zM296 71q48 0 86.5 23.5t55.5 65.5v115q-27 -7 -35 -9l-105 -21q-107 -21 -107 -91q0 -40 27.5 -61.5t77.5 -21.5z" />
    <glyph glyph-name="atilde" unicode="&#xe3;" horiz-adv-x="659" 
d="M245 714q-44 0 -47 -84h-95q0 87 35 134t98 47q64 0 105 -43t71 -43q23 0 34 19.5t13 63.5h95q0 -87 -35 -134t-99 -47q-65 0 -103 44q-39 43 -72 43zM332 564q122 0 178 -44.5t56 -133.5v-274v-112h-106q-10 48 -13 69q-61 -85 -189 -85q-89 0 -143 43.5t-54 118.5
q0 74 51.5 114t162.5 61l123 22q24 4 42 14v25q0 47 -24.5 68t-88.5 21q-66 0 -96 -21.5t-36 -75.5l-113 14q23 176 250 176zM296 71q48 0 86.5 23.5t55.5 65.5v115q-27 -7 -35 -9l-105 -21q-107 -21 -107 -91q0 -40 27.5 -61.5t77.5 -21.5z" />
    <glyph glyph-name="adieresis" unicode="&#xe4;" horiz-adv-x="659" 
d="M128 786h133v-130h-133v130zM397 786h133v-130h-133v130zM332 564q122 0 178 -44.5t56 -133.5v-274v-112h-106q-10 48 -13 69q-61 -85 -189 -85q-89 0 -143 43.5t-54 118.5q0 74 51.5 114t162.5 61l123 22q24 4 42 14v25q0 47 -24.5 68t-88.5 21q-66 0 -96 -21.5
t-36 -75.5l-113 14q23 176 250 176zM296 71q48 0 86.5 23.5t55.5 65.5v115q-27 -7 -35 -9l-105 -21q-107 -21 -107 -91q0 -40 27.5 -61.5t77.5 -21.5z" />
    <glyph glyph-name="aring" unicode="&#xe5;" horiz-adv-x="659" 
d="M440 659q-44 -44 -111 -44t-111 44t-44 109q0 67 44 111q43 43 111 43t111 -43q44 -44 44 -111q0 -65 -44 -109zM388 829q-23 23 -59 23t-59 -23t-23 -61q0 -37 23 -60q23 -22 59 -22t59 22q23 23 23 60q0 38 -23 61zM332 564q122 0 178 -44.5t56 -133.5v-274v-112h-106
q-10 48 -13 69q-61 -85 -189 -85q-89 0 -143 43.5t-54 118.5q0 74 51.5 114t162.5 61l123 22q24 4 42 14v25q0 47 -24.5 68t-88.5 21q-66 0 -96 -21.5t-36 -75.5l-113 14q23 176 250 176zM296 71q48 0 86.5 23.5t55.5 65.5v115q-27 -7 -35 -9l-105 -21q-107 -21 -107 -91
q0 -40 27.5 -61.5t77.5 -21.5z" />
    <glyph glyph-name="ae" unicode="&#xe6;" horiz-adv-x="1058" 
d="M993 271v-30l-423 14q2 -85 44 -129t115 -44q97 0 141 78l109 -22q-31 -72 -96.5 -113t-152.5 -41q-162 0 -226 135q-31 -65 -93 -100t-144 -35q-94 0 -150 45t-56 123q0 155 221 161l176 4v49q0 105 -141 105q-60 0 -88 -22t-34 -75l-112 14q12 86 71.5 131t157.5 45
q77 0 130 -29.5t74 -83.5q68 113 213 113q127 0 196 -81q68 -82 68 -212zM727 473q-67 0 -108.5 -42t-47.5 -117l302 7q-15 152 -146 152zM293 74q57 0 101 27.5t64 77.5v80l-180 -22q-42 -5 -64.5 -27t-22.5 -56q0 -38 27 -59t75 -21z" />
    <glyph glyph-name="ccedilla" unicode="&#xe7;" horiz-adv-x="648" 
d="M335 -13q-125 0 -197 78q-73 76 -73 210q0 135 70.5 211.5t197.5 76.5q207 0 254 -185l-124 -14q-23 98 -128 98q-140 0 -140 -186q0 -91 36.5 -138.5t105.5 -47.5q106 0 131 112l121 -12q-21 -97 -86.5 -150t-167.5 -53zM309 -283h-81v68h69q79 0 79 42q0 33 -46 33
h-102v62h129q118 0 118 -93q0 -112 -166 -112z" />
    <glyph glyph-name="egrave" unicode="&#xe8;" horiz-adv-x="684" 
d="M313 829l111 -172h-114l-152 172h155zM618 271v-30h-425q12 -159 158 -159q97 0 138 78l115 -22q-31 -73 -98 -113.5t-159 -40.5q-135 0 -208 79q-74 80 -74 209q0 132 73 212q72 80 205 80q135 0 205 -81q70 -80 70 -212zM342 473q-64 0 -103 -39t-46 -112h299
q-15 151 -150 151z" />
    <glyph glyph-name="eacute" unicode="&#xe9;" horiz-adv-x="684" 
d="M378 829h155l-152 -172h-114zM618 271v-30h-425q12 -159 158 -159q97 0 138 78l115 -22q-31 -73 -98 -113.5t-159 -40.5q-135 0 -208 79q-74 80 -74 209q0 132 73 212q72 80 205 80q135 0 205 -81q70 -80 70 -212zM342 473q-64 0 -103 -39t-46 -112h299q-15 151 -150 151
z" />
    <glyph glyph-name="ecircumflex" unicode="&#xea;" horiz-adv-x="684" 
d="M432 649l-90 116l-90 -116h-113l140 182h121l146 -182h-114zM618 271v-30h-425q12 -159 158 -159q97 0 138 78l115 -22q-31 -73 -98 -113.5t-159 -40.5q-135 0 -208 79q-74 80 -74 209q0 132 73 212q72 80 205 80q135 0 205 -81q70 -80 70 -212zM342 473q-64 0 -103 -39
t-46 -112h299q-15 151 -150 151z" />
    <glyph glyph-name="edieresis" unicode="&#xeb;" horiz-adv-x="684" 
d="M141 791h133v-130h-133v130zM410 791h133v-130h-133v130zM618 271v-30h-425q12 -159 158 -159q97 0 138 78l115 -22q-31 -73 -98 -113.5t-159 -40.5q-135 0 -208 79q-74 80 -74 209q0 132 73 212q72 80 205 80q135 0 205 -81q70 -80 70 -212zM342 473q-64 0 -103 -39
t-46 -112h299q-15 151 -150 151z" />
    <glyph glyph-name="igrave" unicode="&#xec;" horiz-adv-x="317" 
d="M240 657h-114l-153 172h156zM224 0h-130v548h130v-548z" />
    <glyph glyph-name="iacute" unicode="&#xed;" horiz-adv-x="317" 
d="M198 657h-114l111 172h155zM224 0h-130v548h130v-548z" />
    <glyph glyph-name="icircumflex" unicode="&#xee;" horiz-adv-x="317" 
d="M69 649h-113l140 182h121l146 -182h-114l-90 116zM224 0h-130v548h130v-548z" />
    <glyph glyph-name="idieresis" unicode="&#xef;" horiz-adv-x="317" 
d="M104 663h-127v130h127v-130zM340 663h-127v130h127v-130zM224 0h-130v548h130v-548z" />
    <glyph glyph-name="eth" unicode="&#xf0;" horiz-adv-x="679" 
d="M545 789l-144 -80q213 -157 213 -410q0 -151 -73.5 -233t-203.5 -82q-122 0 -197 72t-75 188t67 189q66 73 176 73t173 -75q-23 132 -148 225l-117 -100l-39 55l130 74q-55 31 -124 53l37 84q84 -34 156 -83l129 106zM341 86q145 0 145 196v9q-17 55 -57.5 86t-95.5 31
q-65 0 -101 -45t-36 -116q0 -72 38 -116.5t107 -44.5z" />
    <glyph glyph-name="ntilde" unicode="&#xf1;" horiz-adv-x="677" 
d="M255 734q-44 0 -47 -84h-95q0 87 35 134t98 47q64 0 105 -43t71 -43q23 0 34 19.5t13 63.5h95q0 -87 -35 -134t-99 -47q-65 0 -103 44q-39 43 -72 43zM389 563q89 0 142 -52t53 -140v-371h-130v340q0 54 -27 84t-75 30q-93 0 -128 -110v-344h-130v548h119l5 -73
q64 88 171 88z" />
    <glyph glyph-name="ograve" unicode="&#xf2;" horiz-adv-x="696" 
d="M430 657h-114l-152 172h155zM348 -16q-132 0 -207 79q-76 79 -76 212q0 131 76 210t207 79q132 0 208 -78q75 -80 75 -211q0 -132 -76 -211q-77 -80 -207 -80zM235 137q37 -49 113 -49t113 49q38 50 38 138q0 89 -38.5 137t-112.5 48t-113 -48t-39 -137t39 -138z" />
    <glyph glyph-name="oacute" unicode="&#xf3;" horiz-adv-x="696" 
d="M388 657h-114l111 172h155zM348 -16q-132 0 -207 79q-76 79 -76 212q0 131 76 210t207 79q132 0 208 -78q75 -80 75 -211q0 -132 -76 -211q-77 -80 -207 -80zM235 137q37 -49 113 -49t113 49q38 50 38 138q0 89 -38.5 137t-112.5 48t-113 -48t-39 -137t39 -138z" />
    <glyph glyph-name="ocircumflex" unicode="&#xf4;" horiz-adv-x="696" 
d="M259 649h-113l140 182h121l146 -182h-114l-90 116zM348 -16q-132 0 -207 79q-76 79 -76 212q0 131 76 210t207 79q132 0 208 -78q75 -80 75 -211q0 -132 -76 -211q-77 -80 -207 -80zM235 137q37 -49 113 -49t113 49q38 50 38 138q0 89 -38.5 137t-112.5 48t-113 -48
t-39 -137t39 -138z" />
    <glyph glyph-name="otilde" unicode="&#xf5;" horiz-adv-x="696" 
d="M218 635h-95q0 87 35 134t98 47q64 0 105 -43t71 -43q23 0 34 19.5t13 63.5h95q0 -87 -35 -134t-99 -47q-65 0 -103 44q-39 43 -72 43q-44 0 -47 -84zM348 -16q-132 0 -207 79q-76 79 -76 212q0 131 76 210t207 79q132 0 208 -78q75 -80 75 -211q0 -132 -76 -211
q-77 -80 -207 -80zM235 137q37 -49 113 -49t113 49q38 50 38 138q0 89 -38.5 137t-112.5 48t-113 -48t-39 -137t39 -138z" />
    <glyph glyph-name="odieresis" unicode="&#xf6;" horiz-adv-x="696" 
d="M281 661h-133v130h133v-130zM550 661h-133v130h133v-130zM348 -16q-132 0 -207 79q-76 79 -76 212q0 131 76 210t207 79q132 0 208 -78q75 -80 75 -211q0 -132 -76 -211q-77 -80 -207 -80zM235 137q37 -49 113 -49t113 49q38 50 38 138q0 89 -38.5 137t-112.5 48
t-113 -48t-39 -137t39 -138z" />
    <glyph glyph-name="divide" unicode="&#xf7;" 
d="M440 492h-124v125h124v-125zM675 285h-595v109h595v-109zM440 61h-124v125h124v-125z" />
    <glyph glyph-name="oslash" unicode="&#xf8;" horiz-adv-x="696" 
d="M620 536l-54 -62q65 -77 65 -199q0 -132 -76 -211q-77 -80 -207 -80q-98 0 -169 47l-50 -58l-50 39l53 61q-67 77 -67 202q0 131 76 210t207 79q100 0 171 -48l51 59zM196 275q0 -66 19 -107l228 262q-37 30 -95 30q-74 0 -113 -48t-39 -137zM348 88q74 0 112.5 48.5
t38.5 138.5q0 60 -18 102l-227 -260q38 -29 94 -29z" />
    <glyph glyph-name="ugrave" unicode="&#xf9;" horiz-adv-x="677" 
d="M309 829l111 -172h-114l-152 172h155zM454 207v341h130v-548h-120l-5 73q-64 -88 -170 -88q-89 0 -142 52t-53 140v371h130v-340q0 -54 27 -84t75 -30q95 0 128 113z" />
    <glyph glyph-name="uacute" unicode="&#xfa;" horiz-adv-x="677" 
d="M375 829h155l-152 -172h-114zM454 207v341h130v-548h-120l-5 73q-64 -88 -170 -88q-89 0 -142 52t-53 140v371h130v-340q0 -54 27 -84t75 -30q95 0 128 113z" />
    <glyph glyph-name="ucircumflex" unicode="&#xfb;" horiz-adv-x="677" 
d="M429 649l-90 116l-90 -116h-113l140 182h121l146 -182h-114zM454 207v341h130v-548h-120l-5 73q-64 -88 -170 -88q-89 0 -142 52t-53 140v371h130v-340q0 -54 27 -84t75 -30q95 0 128 113z" />
    <glyph glyph-name="udieresis" unicode="&#xfc;" horiz-adv-x="677" 
d="M138 791h133v-130h-133v130zM407 791h133v-130h-133v130zM454 207v341h130v-548h-120l-5 73q-64 -88 -170 -88q-89 0 -142 52t-53 140v371h130v-340q0 -54 27 -84t75 -30q95 0 128 113z" />
    <glyph glyph-name="yacute" unicode="&#xfd;" horiz-adv-x="627" 
d="M349 829h155l-152 -172h-114zM320 133l131 415h134l-225 -607q-30 -81 -76.5 -115t-124.5 -34h-72v102h75q35 0 53 14.5t33 55.5l8 23l-214 561h138l139 -405z" />
    <glyph glyph-name="thorn" unicode="&#xfe;" horiz-adv-x="704" 
d="M394 564q113 0 179 -79q66 -80 66 -211q0 -129 -68 -209t-177 -80q-107 0 -170 80v-269h-130v972h130v-288q63 84 170 84zM368 90q66 0 103 50t37 135q0 87 -37 137t-103 50q-52 0 -90.5 -30.5t-53.5 -87.5v-135q15 -58 53.5 -88.5t90.5 -30.5z" />
    <glyph glyph-name="ydieresis" unicode="&#xff;" horiz-adv-x="627" 
d="M112 791h133v-130h-133v130zM381 791h133v-130h-133v130zM320 133l131 415h134l-225 -607q-30 -81 -76.5 -115t-124.5 -34h-72v102h75q35 0 53 14.5t33 55.5l8 23l-214 561h138l139 -405z" />
    <glyph glyph-name="Amacron" unicode="&#x100;" horiz-adv-x="791" 
d="M210 975h372v-91h-372v91zM765 0h-142l-59 172h-343l-58 -172h-136l273 768h182zM375 625l-118 -347h270l-119 347l-16 62z" />
    <glyph glyph-name="amacron" unicode="&#x101;" horiz-adv-x="659" 
d="M143 750h372v-91h-372v91zM332 564q122 0 178 -44.5t56 -133.5v-274v-112h-106q-10 48 -13 69q-61 -85 -189 -85q-89 0 -143 43.5t-54 118.5q0 74 51.5 114t162.5 61l123 22q24 4 42 14v25q0 47 -24.5 68t-88.5 21q-66 0 -96 -21.5t-36 -75.5l-113 14q23 176 250 176z
M296 71q48 0 86.5 23.5t55.5 65.5v115q-27 -7 -35 -9l-105 -21q-107 -21 -107 -91q0 -40 27.5 -61.5t77.5 -21.5z" />
    <glyph glyph-name="Abreve" unicode="&#x102;" horiz-adv-x="791" 
d="M395 868q-98 0 -144 41t-48 125h86q3 -84 107 -84t107 84h86q-2 -84 -48.5 -125t-145.5 -41zM765 0h-142l-59 172h-343l-58 -172h-136l273 768h182zM375 625l-118 -347h270l-119 347l-16 62z" />
    <glyph glyph-name="abreve" unicode="&#x103;" horiz-adv-x="659" 
d="M328 643q-98 0 -144 41t-48 125h86q3 -84 107 -84t107 84h86q-2 -84 -48.5 -125t-145.5 -41zM332 564q122 0 178 -44.5t56 -133.5v-274v-112h-106q-10 48 -13 69q-61 -85 -189 -85q-89 0 -143 43.5t-54 118.5q0 74 51.5 114t162.5 61l123 22q24 4 42 14v25q0 47 -24.5 68
t-88.5 21q-66 0 -96 -21.5t-36 -75.5l-113 14q23 176 250 176zM296 71q48 0 86.5 23.5t55.5 65.5v115q-27 -7 -35 -9l-105 -21q-107 -21 -107 -91q0 -40 27.5 -61.5t77.5 -21.5z" />
    <glyph glyph-name="Aogonek" unicode="&#x104;" horiz-adv-x="791" 
d="M602 -118q0 -48 63 -48h90v-67h-103q-71 0 -108 26.5t-37 75.5q0 62 61 93l75 38h-20l-59 172h-343l-58 -172h-136l273 768h182l283 -768l-125 -66q-38 -20 -38 -52zM375 625l-118 -347h270l-119 347l-16 62z" />
    <glyph glyph-name="aogonek" unicode="&#x105;" horiz-adv-x="659" 
d="M332 564q122 0 178 -44.5t56 -133.5v-274v-112l-126 -66q-37 -19 -37 -52q0 -48 63 -48h90v-67h-103q-70 0 -108 27t-38 75q0 61 62 93l90 45q-7 33 -12 62q-61 -85 -189 -85q-89 0 -143 43.5t-54 118.5q0 74 51.5 114t162.5 61l123 22q24 4 42 14v25q0 47 -24.5 68
t-88.5 21q-66 0 -96 -21.5t-36 -75.5l-113 14q23 176 250 176zM296 71q48 0 86.5 23.5t55.5 65.5v115q-27 -7 -35 -9l-105 -21q-107 -21 -107 -91q0 -40 27.5 -61.5t77.5 -21.5z" />
    <glyph glyph-name="Cacute" unicode="&#x106;" horiz-adv-x="845" 
d="M482 877h-114l111 172h155zM445 -18q-163 0 -265 109t-102 294q0 187 103 293q104 107 266 107q131 0 218.5 -61t120.5 -175l-128 -14q-52 138 -211 138q-109 0 -171.5 -74t-62.5 -210q0 -138 63 -215t171 -77q175 0 219 159l124 -14q-31 -123 -122 -191.5t-223 -68.5z
" />
    <glyph glyph-name="cacute" unicode="&#x107;" horiz-adv-x="648" 
d="M376 657h-114l111 172h155zM335 -13q-125 0 -197 78q-73 76 -73 210q0 135 70.5 211.5t197.5 76.5q207 0 254 -185l-124 -14q-23 98 -128 98q-140 0 -140 -186q0 -91 36.5 -138.5t105.5 -47.5q106 0 131 112l121 -12q-21 -97 -86.5 -150t-167.5 -53z" />
    <glyph glyph-name="Ccircumflex" unicode="&#x108;" horiz-adv-x="845" 
d="M353 869h-113l140 182h121l146 -182h-114l-90 116zM445 -18q-163 0 -265 109t-102 294q0 187 103 293q104 107 266 107q131 0 218.5 -61t120.5 -175l-128 -14q-52 138 -211 138q-109 0 -171.5 -74t-62.5 -210q0 -138 63 -215t171 -77q175 0 219 159l124 -14
q-31 -123 -122 -191.5t-223 -68.5z" />
    <glyph glyph-name="ccircumflex" unicode="&#x109;" horiz-adv-x="648" 
d="M247 649h-113l140 182h121l146 -182h-114l-90 116zM335 -13q-125 0 -197 78q-73 76 -73 210q0 135 70.5 211.5t197.5 76.5q207 0 254 -185l-124 -14q-23 98 -128 98q-140 0 -140 -186q0 -91 36.5 -138.5t105.5 -47.5q106 0 131 112l121 -12q-21 -97 -86.5 -150
t-167.5 -53z" />
    <glyph glyph-name="Cdotaccent" unicode="&#x10a;" horiz-adv-x="845" 
d="M510 882h-134v131h134v-131zM445 -18q-163 0 -265 109t-102 294q0 187 103 293q104 107 266 107q131 0 218.5 -61t120.5 -175l-128 -14q-52 138 -211 138q-109 0 -171.5 -74t-62.5 -210q0 -138 63 -215t171 -77q175 0 219 159l124 -14q-31 -123 -122 -191.5t-223 -68.5z
" />
    <glyph glyph-name="cdotaccent" unicode="&#x10b;" horiz-adv-x="648" 
d="M404 663h-134v130h134v-130zM335 -13q-125 0 -197 78q-73 76 -73 210q0 135 70.5 211.5t197.5 76.5q207 0 254 -185l-124 -14q-23 98 -128 98q-140 0 -140 -186q0 -91 36.5 -138.5t105.5 -47.5q106 0 131 112l121 -12q-21 -97 -86.5 -150t-167.5 -53z" />
    <glyph glyph-name="Ccaron" unicode="&#x10c;" horiz-adv-x="845" 
d="M501 862h-121l-140 182h113l90 -116l90 116h114zM445 -18q-163 0 -265 109t-102 294q0 187 103 293q104 107 266 107q131 0 218.5 -61t120.5 -175l-128 -14q-52 138 -211 138q-109 0 -171.5 -74t-62.5 -210q0 -138 63 -215t171 -77q175 0 219 159l124 -14
q-31 -123 -122 -191.5t-223 -68.5z" />
    <glyph glyph-name="ccaron" unicode="&#x10d;" horiz-adv-x="648" 
d="M395 642h-121l-140 182h113l90 -116l90 116h114zM335 -13q-125 0 -197 78q-73 76 -73 210q0 135 70.5 211.5t197.5 76.5q207 0 254 -185l-124 -14q-23 98 -128 98q-140 0 -140 -186q0 -91 36.5 -138.5t105.5 -47.5q106 0 131 112l121 -12q-21 -97 -86.5 -150t-167.5 -53z
" />
    <glyph glyph-name="Dcaron" unicode="&#x10e;" horiz-adv-x="828" 
d="M617 1044l-146 -182h-121l-140 182h113l90 -116l90 116h114zM104 769h273q189 0 285.5 -97.5t96.5 -288.5q0 -185 -96.5 -284t-278.5 -99h-280v769zM237 108h148q113 0 177 63q64 61 64 212q0 153 -65 215q-67 62 -183 62h-141v-552z" />
    <glyph glyph-name="dcaron" unicode="&#x10f;" horiz-adv-x="909" 
d="M480 480v288h130v-768h-115l-8 75q-61 -90 -177 -90q-109 0 -177 80t-68 209q0 131 66 211q66 79 179 79q107 0 170 -84zM713 476l58 292h138l-104 -292h-92zM336 90q54 0 93.5 33.5t53.5 96.5l3 96q-12 70 -52 108t-98 38q-66 0 -103 -50t-37 -137q0 -85 37 -135
t103 -50z" />
    <glyph glyph-name="Dcroat" unicode="&#x110;" horiz-adv-x="908" 
d="M183 769h273q190 0 286.5 -97.5t96.5 -288.5q0 -185 -96.5 -284t-278.5 -99h-281v343l-156 -10v102l156 -10v344zM317 108h147q112 0 177 63q64 61 64 212q0 153 -65 215q-67 62 -182 62h-141v-236l180 11v-102l-180 11v-236z" />
    <glyph glyph-name="dslash" unicode="&#x111;" horiz-adv-x="726" 
d="M610 696l106 7v-90l-106 9v-622h-115l-8 73q-63 -88 -177 -88q-110 0 -177 79q-68 80 -68 204q0 126 66 203q66 76 179 76q105 0 170 -80v163l-157 -3v86l157 -16v76h130v-77zM336 90q53 0 92.5 32.5t54.5 90.5l3 92q-12 65 -53 101t-97 36q-65 0 -102.5 -48.5
t-37.5 -128.5q0 -79 37.5 -127t102.5 -48z" />
    <glyph glyph-name="Emacron" unicode="&#x112;" horiz-adv-x="715" 
d="M192 975h372v-91h-372v91zM235 341v-231h420v-110h-551v768h547v-110h-416v-210h382v-107h-382z" />
    <glyph glyph-name="emacron" unicode="&#x113;" horiz-adv-x="684" 
d="M156 755h372v-91h-372v91zM618 271v-30h-425q12 -159 158 -159q97 0 138 78l115 -22q-31 -73 -98 -113.5t-159 -40.5q-135 0 -208 79q-74 80 -74 209q0 132 73 212q72 80 205 80q135 0 205 -81q70 -80 70 -212zM342 473q-64 0 -103 -39t-46 -112h299q-15 151 -150 151z
" />
    <glyph glyph-name="Ebreve" unicode="&#x114;" horiz-adv-x="715" 
d="M377 868q-98 0 -144 41t-48 125h86q3 -84 107 -84t107 84h86q-2 -84 -48.5 -125t-145.5 -41zM235 341v-231h420v-110h-551v768h547v-110h-416v-210h382v-107h-382z" />
    <glyph glyph-name="ebreve" unicode="&#x115;" horiz-adv-x="684" 
d="M341 648q-98 0 -144 41t-48 125h86q3 -84 107 -84t107 84h86q-2 -84 -48.5 -125t-145.5 -41zM618 271v-30h-425q12 -159 158 -159q97 0 138 78l115 -22q-31 -73 -98 -113.5t-159 -40.5q-135 0 -208 79q-74 80 -74 209q0 132 73 212q72 80 205 80q135 0 205 -81
q70 -80 70 -212zM342 473q-64 0 -103 -39t-46 -112h299q-15 151 -150 151z" />
    <glyph glyph-name="Edotaccent" unicode="&#x116;" horiz-adv-x="715" 
d="M311 1013h134v-131h-134v131zM235 341v-231h420v-110h-551v768h547v-110h-416v-210h382v-107h-382z" />
    <glyph glyph-name="edotaccent" unicode="&#x117;" horiz-adv-x="684" 
d="M275 793h134v-130h-134v130zM618 271v-30h-425q12 -159 158 -159q97 0 138 78l115 -22q-31 -73 -98 -113.5t-159 -40.5q-135 0 -208 79q-74 80 -74 209q0 132 73 212q72 80 205 80q135 0 205 -81q70 -80 70 -212zM342 473q-64 0 -103 -39t-46 -112h299q-15 151 -150 151z
" />
    <glyph glyph-name="Eogonek" unicode="&#x118;" horiz-adv-x="715" 
d="M655 0l-125 -66q-38 -20 -38 -52q0 -48 63 -48h90v-67h-103q-71 0 -108 26.5t-37 75.5q0 62 61 93l75 38h-429v768h547v-110h-416v-210h382v-107h-382v-231h420v-110z" />
    <glyph glyph-name="eogonek" unicode="&#x119;" horiz-adv-x="684" 
d="M618 271v-30h-425q12 -159 158 -159q97 0 138 78l115 -22q-40 -92 -132 -130l-109 -58q-38 -20 -38 -52q0 -48 63 -48h90v-67h-103q-71 0 -108 26.5t-37 75.5q0 62 61 93l16 8q-115 12 -178.5 88.5t-63.5 197.5q0 132 73 212q72 80 205 80q135 0 205 -81q70 -80 70 -212z
M342 473q-64 0 -103 -39t-46 -112h299q-15 151 -150 151z" />
    <glyph glyph-name="Ecaron" unicode="&#x11a;" horiz-adv-x="715" 
d="M582 1044l-146 -182h-121l-140 182h113l90 -116l90 116h114zM235 341v-231h420v-110h-551v768h547v-110h-416v-210h382v-107h-382z" />
    <glyph glyph-name="ecaron" unicode="&#x11b;" horiz-adv-x="684" 
d="M546 824l-146 -182h-121l-140 182h113l90 -116l90 116h114zM618 271v-30h-425q12 -159 158 -159q97 0 138 78l115 -22q-31 -73 -98 -113.5t-159 -40.5q-135 0 -208 79q-74 80 -74 209q0 132 73 212q72 80 205 80q135 0 205 -81q70 -80 70 -212zM342 473q-64 0 -103 -39
t-46 -112h299q-15 151 -150 151z" />
    <glyph glyph-name="Gcircumflex" unicode="&#x11c;" horiz-adv-x="891" 
d="M534 869l-90 116l-90 -116h-113l140 182h121l146 -182h-114zM457 309v100h331v-409h-76l-30 131q-67 -148 -249 -148q-163 0 -259 112q-96 111 -96 289q0 182 97 291q96 110 277 110q123 0 208.5 -59t120.5 -168l-129 -22q-57 139 -205 139q-109 0 -171 -76.5t-62 -213.5
q0 -139 62.5 -215.5t178.5 -76.5q82 0 137 39t76 113v76z" />
    <glyph glyph-name="gcircumflex" unicode="&#x11d;" horiz-adv-x="693" 
d="M430 649l-90 116l-90 -116h-113l140 182h121l146 -182h-114zM476 488l6 63h117v-521q0 -115 -67 -176.5t-189 -61.5q-206 0 -248 163l120 14q32 -83 130 -83q125 0 125 130v90q-62 -66 -165 -66q-105 0 -172 70q-68 71 -68 190q0 124 66 196q65 71 175 71q107 0 170 -79z
M332 140q107 0 138 110v108q-15 52 -51 79.5t-87 27.5q-65 0 -102 -44t-37 -119q0 -74 37 -118t102 -44z" />
    <glyph glyph-name="Gbreve" unicode="&#x11e;" horiz-adv-x="891" 
d="M443 868q-98 0 -144 41t-48 125h86q3 -84 107 -84t107 84h86q-2 -84 -48.5 -125t-145.5 -41zM457 309v100h331v-409h-76l-30 131q-67 -148 -249 -148q-163 0 -259 112q-96 111 -96 289q0 182 97 291q96 110 277 110q123 0 208.5 -59t120.5 -168l-129 -22
q-57 139 -205 139q-109 0 -171 -76.5t-62 -213.5q0 -139 62.5 -215.5t178.5 -76.5q82 0 137 39t76 113v76z" />
    <glyph glyph-name="gbreve" unicode="&#x11f;" horiz-adv-x="693" 
d="M339 648q-98 0 -144 41t-48 125h86q3 -84 107 -84t107 84h86q-2 -84 -48.5 -125t-145.5 -41zM476 488l6 63h117v-521q0 -115 -67 -176.5t-189 -61.5q-206 0 -248 163l120 14q32 -83 130 -83q125 0 125 130v90q-62 -66 -165 -66q-105 0 -172 70q-68 71 -68 190
q0 124 66 196q65 71 175 71q107 0 170 -79zM332 140q107 0 138 110v108q-15 52 -51 79.5t-87 27.5q-65 0 -102 -44t-37 -119q0 -74 37 -118t102 -44z" />
    <glyph glyph-name="Gdotaccent" unicode="&#x120;" horiz-adv-x="891" 
d="M377 1013h134v-131h-134v131zM457 309v100h331v-409h-76l-30 131q-67 -148 -249 -148q-163 0 -259 112q-96 111 -96 289q0 182 97 291q96 110 277 110q123 0 208.5 -59t120.5 -168l-129 -22q-57 139 -205 139q-109 0 -171 -76.5t-62 -213.5q0 -139 62.5 -215.5
t178.5 -76.5q82 0 137 39t76 113v76z" />
    <glyph glyph-name="gdotaccent" unicode="&#x121;" horiz-adv-x="693" 
d="M273 793h134v-130h-134v130zM476 488l6 63h117v-521q0 -115 -67 -176.5t-189 -61.5q-206 0 -248 163l120 14q32 -83 130 -83q125 0 125 130v90q-62 -66 -165 -66q-105 0 -172 70q-68 71 -68 190q0 124 66 196q65 71 175 71q107 0 170 -79zM332 140q107 0 138 110v108
q-15 52 -51 79.5t-87 27.5q-65 0 -102 -44t-37 -119q0 -74 37 -118t102 -44z" />
    <glyph glyph-name="uni0122" unicode="&#x122;" horiz-adv-x="891" 
d="M457 309v100h331v-409h-76l-30 131q-67 -148 -249 -148q-163 0 -259 112q-96 111 -96 289q0 182 97 291q96 110 277 110q123 0 208.5 -59t120.5 -168l-129 -22q-57 139 -205 139q-109 0 -171 -76.5t-62 -213.5q0 -139 62.5 -215.5t178.5 -76.5q82 0 137 39t76 113v76z
M471 -177l-104 -23v106h162v-99q0 -58 -31 -84t-98 -26h-33v54h36q38 0 53 13t15 47v12z" />
    <glyph glyph-name="uni0123" unicode="&#x123;" horiz-adv-x="693" 
d="M316 747l104 23v-109h-161v108q0 57 30.5 83t96.5 26h34v-53h-37q-38 0 -52.5 -13.5t-14.5 -47.5v-17zM476 488l6 63h117v-521q0 -115 -67 -176.5t-189 -61.5q-206 0 -248 163l120 14q32 -83 130 -83q125 0 125 130v90q-62 -66 -165 -66q-105 0 -172 70q-68 71 -68 190
q0 124 66 196q65 71 175 71q107 0 170 -79zM332 140q107 0 138 110v108q-15 52 -51 79.5t-87 27.5q-65 0 -102 -44t-37 -119q0 -74 37 -118t102 -44z" />
    <glyph glyph-name="Hcircumflex" unicode="&#x124;" horiz-adv-x="845" 
d="M514 869l-90 116l-90 -116h-113l140 182h121l146 -182h-114zM609 452v316h133v-768h-133v340h-372v-340h-133v768h133v-316h372z" />
    <glyph glyph-name="hcircumflex" unicode="&#x125;" horiz-adv-x="677" 
d="M363 869h-114l-90 116l-90 -116h-113l140 182h121zM389 563q89 0 142 -52t53 -140v-371h-130v340q0 54 -27 84t-75 30q-93 0 -128 -110v-344h-130v768h130v-286q62 81 165 81z" />
    <glyph glyph-name="Hbar" unicode="&#x126;" horiz-adv-x="845" 
d="M609 634v134h133v-768h-133v300h-372v-300h-133v768h133v-134h372zM237 531v-128h372v128h-372z" />
    <glyph glyph-name="hbar" unicode="&#x127;" horiz-adv-x="705" 
d="M417 543q89 0 142 -52t53 -140v-351h-130v320q0 54 -27 84t-75 30q-93 0 -128 -110v-324h-130v616l-112 -6v90l112 -6v97h130v-94l158 13v-90h-158v-157q62 80 165 80z" />
    <glyph glyph-name="Itilde" unicode="&#x128;" horiz-adv-x="340" 
d="M40 855h-95q0 87 35 134t98 47q64 0 105 -43t71 -43q23 0 34 19.5t13 63.5h95q0 -87 -35 -134t-99 -47q-65 0 -103 44q-39 43 -72 43q-44 0 -47 -84zM237 0h-133v768h133v-768z" />
    <glyph glyph-name="itilde" unicode="&#x129;" horiz-adv-x="317" 
d="M28 635h-95q0 87 35 134t98 47q64 0 105 -43t71 -43q23 0 34 19.5t13 63.5h95q0 -87 -35 -134t-99 -47q-65 0 -103 44q-39 43 -72 43q-44 0 -47 -84zM224 0h-130v548h130v-548z" />
    <glyph glyph-name="Imacron" unicode="&#x12a;" horiz-adv-x="340" 
d="M357 884h-372v91h372v-91zM237 0h-133v768h133v-768z" />
    <glyph glyph-name="imacron" unicode="&#x12b;" horiz-adv-x="317" 
d="M345 664h-372v91h372v-91zM224 0h-130v548h130v-548z" />
    <glyph glyph-name="Ibreve" unicode="&#x12c;" horiz-adv-x="340" 
d="M170 868q-98 0 -144 41t-48 125h86q3 -84 107 -84t107 84h86q-2 -84 -48.5 -125t-145.5 -41zM237 0h-133v768h133v-768z" />
    <glyph glyph-name="ibreve" unicode="&#x12d;" horiz-adv-x="317" 
d="M158 648q-98 0 -144 41t-48 125h86q3 -84 107 -84t107 84h86q-2 -84 -48.5 -125t-145.5 -41zM224 0h-130v548h130v-548z" />
    <glyph glyph-name="Iogonek" unicode="&#x12e;" horiz-adv-x="340" 
d="M237 0l-76 -47q-38 -24 -38 -47q0 -34 44 -34h67v-67h-90q-59 0 -89 24t-30 64q0 55 61 89l33 18h-15v768h133v-768z" />
    <glyph glyph-name="iogonek" unicode="&#x12f;" horiz-adv-x="317" 
d="M92 663v130h133v-130h-133zM106 0h-12v548h130v-548l-77 -47q-37 -25 -37 -47q0 -34 44 -34h66v-67h-89q-59 0 -89.5 24t-30.5 64q0 54 62 89z" />
    <glyph glyph-name="Idot" unicode="&#x130;" horiz-adv-x="340" 
d="M237 882h-133v131h133v-131zM237 0h-133v768h133v-768z" />
    <glyph glyph-name="dotlessi" unicode="&#x131;" horiz-adv-x="317" 
d="M224 0h-130v548h130v-548z" />
    <glyph glyph-name="IJ" unicode="&#x132;" horiz-adv-x="993" 
d="M237 0h-133v768h133v-768zM630 -14q-119 0 -187 67q-69 68 -69 176v37h129v-35q0 -66 33 -100.5t94 -34.5q124 0 124 135v537h136v-537q0 -112 -70 -178q-70 -67 -190 -67z" />
    <glyph glyph-name="ij" unicode="&#x133;" horiz-adv-x="634" 
d="M224 661h-130v133h130v-133zM541 661h-130v133h130v-133zM224 0h-130v548h130v-548zM372 -208h-96v98h73q33 0 47.5 15t14.5 49v594h130v-589q0 -81 -43 -124t-126 -43z" />
    <glyph glyph-name="Jcircumflex" unicode="&#x134;" horiz-adv-x="676" 
d="M416 869h-113l140 182h121l146 -182h-114l-90 116zM313 -14q-119 0 -187 67q-69 68 -69 176v37h129v-35q0 -66 33 -100.5t94 -34.5q124 0 124 135v537h136v-537q0 -112 -70 -178q-70 -67 -190 -67z" />
    <glyph glyph-name="jcircumflex" unicode="&#x135;" horiz-adv-x="317" 
d="M69 649h-113l140 182h121l146 -182h-114l-90 116zM55 -208h-96v98h73q33 0 47.5 15t14.5 49v594h130v-589q0 -81 -43 -124t-126 -43z" />
    <glyph glyph-name="uni0136" unicode="&#x136;" horiz-adv-x="772" 
d="M726 769l-289 -327l317 -442h-157l-243 367l-117 -131v-236h-133v769h133v-395l328 395h161zM430 -177l-104 -23v106h162v-99q0 -58 -31 -84t-98 -26h-33v54h36q38 0 53 13t15 47v12z" />
    <glyph glyph-name="uni0137" unicode="&#x137;" horiz-adv-x="661" 
d="M612 548l-219 -211l230 -337h-145l-164 274l-90 -88v-186h-130v768h130v-472l233 252h155zM360 -177l-104 -23v106h162v-99q0 -58 -31 -84t-98 -26h-33v54h36q38 0 53 13t15 47v12z" />
    <glyph glyph-name="kgreenlandic" unicode="&#x138;" horiz-adv-x="661" 
d="M623 0h-145l-161 261l-93 -88v-173h-130v548h130v-242l233 242h155l-211 -206z" />
    <glyph glyph-name="Lacute" unicode="&#x139;" horiz-adv-x="662" 
d="M221 1049h155l-152 -172h-114zM239 768v-657h380v-111h-515v768h135z" />
    <glyph glyph-name="lacute" unicode="&#x13a;" horiz-adv-x="317" 
d="M198 877h-114l111 172h155zM224 0h-130v768h130v-768z" />
    <glyph glyph-name="uni013B" unicode="&#x13b;" horiz-adv-x="662" 
d="M239 768v-657h380v-111h-515v768h135zM394 -177l-104 -23v106h162v-99q0 -58 -31 -84t-98 -26h-33v54h36q38 0 53 13t15 47v12z" />
    <glyph glyph-name="uni013C" unicode="&#x13c;" horiz-adv-x="317" 
d="M94 768h130v-768h-130v768zM78 -200v106h162v-99q0 -58 -31 -84t-98 -26h-33v54h36q38 0 53 13t15 47v12z" />
    <glyph glyph-name="Lcaron" unicode="&#x13d;" horiz-adv-x="662" 
d="M239 768v-657h380v-111h-515v768h135zM438 768h138l-103 -292h-92z" />
    <glyph glyph-name="lcaron" unicode="&#x13e;" horiz-adv-x="512" 
d="M224 0h-130v768h130v-768zM409 476h-92l57 292h138z" />
    <glyph glyph-name="Ldot" unicode="&#x13f;" horiz-adv-x="662" 
d="M239 768v-657h380v-111h-515v768h135zM391 480h138v-138h-138v138z" />
    <glyph glyph-name="ldot" unicode="&#x140;" horiz-adv-x="517" 
d="M224 0h-130v768h130v-768zM483 304h-156v157h156v-157z" />
    <glyph glyph-name="Lslash" unicode="&#x141;" horiz-adv-x="801" 
d="M377 365v-254h380v-111h-515v296l-177 -100v116l177 73v383h135v-316l248 136v-115z" />
    <glyph glyph-name="lslash" unicode="&#x142;" horiz-adv-x="462" 
d="M296 466l132 79v-116l-132 -54v-375h-130v307l-133 -79v116l133 53v371h130v-302z" />
    <glyph glyph-name="Nacute" unicode="&#x143;" horiz-adv-x="901" 
d="M500 1049h155l-152 -172h-114zM674 120v649h124v-769h-184l-387 648v-648h-123v769h185z" />
    <glyph glyph-name="nacute" unicode="&#x144;" horiz-adv-x="677" 
d="M375 844h155l-152 -172h-114zM389 563q89 0 142 -52t53 -140v-371h-130v340q0 54 -27 84t-75 30q-93 0 -128 -110v-344h-130v548h119l5 -73q64 88 171 88z" />
    <glyph glyph-name="uni0145" unicode="&#x145;" horiz-adv-x="901" 
d="M674 120v649h124v-769h-184l-387 648v-648h-123v769h185zM475 -177l-104 -23v106h162v-99q0 -58 -31 -84t-98 -26h-33v54h36q38 0 53 13t15 47v12z" />
    <glyph glyph-name="uni0146" unicode="&#x146;" horiz-adv-x="677" 
d="M389 563q89 0 142 -52t53 -140v-371h-130v340q0 54 -27 84t-75 30q-93 0 -128 -110v-344h-130v548h119l5 -73q64 88 171 88zM362 -177l-104 -23v106h162v-99q0 -58 -31 -84t-98 -26h-33v54h36q38 0 53 13t15 47v12z" />
    <glyph glyph-name="Ncaron" unicode="&#x147;" horiz-adv-x="901" 
d="M668 1044l-146 -182h-121l-140 182h113l90 -116l90 116h114zM674 120v649h124v-769h-184l-387 648v-648h-123v769h185z" />
    <glyph glyph-name="ncaron" unicode="&#x148;" horiz-adv-x="677" 
d="M543 839l-146 -182h-121l-140 182h113l90 -116l90 116h114zM389 563q89 0 142 -52t53 -140v-371h-130v340q0 54 -27 84t-75 30q-93 0 -128 -110v-344h-130v548h119l5 -73q64 88 171 88z" />
    <glyph glyph-name="napostrophe" unicode="&#x149;" horiz-adv-x="924" 
d="M151 638l-104 -26v156h177v-205q0 -78 -37.5 -114t-117.5 -36h-22v71h22q44 0 63 17.5t19 60.5v76zM635 563q90 0 143 -52t53 -140v-371h-130v340q0 54 -27 84t-75 30q-96 0 -129 -114v-340h-130v548h120l5 -73q64 88 170 88z" />
    <glyph glyph-name="Eng" unicode="&#x14a;" horiz-adv-x="854" 
d="M624 211v558h127v-810q0 -81 -42.5 -124t-126.5 -43h-97v98h77q33 0 47.5 15t14.5 49v58l-394 567v-579h-126v769h131z" />
    <glyph glyph-name="eng" unicode="&#x14b;" horiz-adv-x="677" 
d="M389 563q89 0 142 -52t53 -140v-412q0 -81 -42.5 -124t-126.5 -43h-57v98h34q33 0 47.5 15t14.5 49v386q0 54 -27 84t-75 30q-93 0 -128 -110v-344h-130v548h119l5 -73q64 88 171 88z" />
    <glyph glyph-name="Omacron" unicode="&#x14c;" horiz-adv-x="914" 
d="M643 894h-372v91h372v-91zM457 -17q-171 0 -275 111q-104 110 -104 290q0 179 104 291q104 110 275 110q173 0 277 -110q103 -110 103 -291t-103 -290q-104 -111 -277 -111zM457 92q116 0 181 78t65 214t-65 214t-181 78t-181 -78t-65 -214t65.5 -214t180.5 -78z" />
    <glyph glyph-name="omacron" unicode="&#x14d;" horiz-adv-x="696" 
d="M535 664h-372v91h372v-91zM348 -16q-132 0 -207 79q-76 79 -76 212q0 131 76 210t207 79q132 0 208 -78q75 -80 75 -211q0 -132 -76 -211q-77 -80 -207 -80zM235 137q37 -49 113 -49t113 49q38 50 38 138q0 89 -38.5 137t-112.5 48t-113 -48t-39 -137t39 -138z" />
    <glyph glyph-name="Obreve" unicode="&#x14e;" horiz-adv-x="914" 
d="M456 878q-98 0 -144 41t-48 125h86q3 -84 107 -84t107 84h86q-2 -84 -48.5 -125t-145.5 -41zM457 -17q-171 0 -275 111q-104 110 -104 290q0 179 104 291q104 110 275 110q173 0 277 -110q103 -110 103 -291t-103 -290q-104 -111 -277 -111zM457 92q116 0 181 78t65 214
t-65 214t-181 78t-181 -78t-65 -214t65.5 -214t180.5 -78z" />
    <glyph glyph-name="obreve" unicode="&#x14f;" horiz-adv-x="696" 
d="M348 648q-98 0 -144 41t-48 125h86q3 -84 107 -84t107 84h86q-2 -84 -48.5 -125t-145.5 -41zM348 -16q-132 0 -207 79q-76 79 -76 212q0 131 76 210t207 79q132 0 208 -78q75 -80 75 -211q0 -132 -76 -211q-77 -80 -207 -80zM235 137q37 -49 113 -49t113 49q38 50 38 138
q0 89 -38.5 137t-112.5 48t-113 -48t-39 -137t39 -138z" />
    <glyph glyph-name="Ohungarumlaut" unicode="&#x150;" horiz-adv-x="914" 
d="M368 870h-117l108 186h152zM621 870h-116l111 186h152zM457 -17q-171 0 -275 111q-104 110 -104 290q0 179 104 291q104 110 275 110q173 0 277 -110q103 -110 103 -291t-103 -290q-104 -111 -277 -111zM457 92q116 0 181 78t65 214t-65 214t-181 78t-181 -78t-65 -214
t65.5 -214t180.5 -78z" />
    <glyph glyph-name="ohungarumlaut" unicode="&#x151;" horiz-adv-x="696" 
d="M260 640h-117l108 186h152zM513 640h-116l111 186h152zM348 -16q-132 0 -207 79q-76 79 -76 212q0 131 76 210t207 79q132 0 208 -78q75 -80 75 -211q0 -132 -76 -211q-77 -80 -207 -80zM235 137q37 -49 113 -49t113 49q38 50 38 138q0 89 -38.5 137t-112.5 48t-113 -48
t-39 -137t39 -138z" />
    <glyph glyph-name="OE" unicode="&#x152;" horiz-adv-x="1295" 
d="M815 341v-231h420v-110h-551v95q-81 -112 -246 -112q-162 0 -261 112q-99 113 -99 289t99 289q99 112 261 112q166 0 246 -111v94h547v-110h-416v-210h383v-107h-383zM456 92q190 0 228 195v194q-38 195 -228 195q-116 0 -180 -79q-65 -80 -65 -213q0 -132 65 -212
t180 -80z" />
    <glyph glyph-name="oe" unicode="&#x153;" horiz-adv-x="1090" 
d="M1025 271v-30l-420 12q4 -84 45.5 -127.5t113.5 -43.5q94 0 138 78l108 -22q-30 -72 -94 -113t-148 -41q-150 0 -218 125q-68 -125 -220 -125q-122 0 -193 80q-72 79 -72 211q0 131 73 210q72 79 193 79q150 0 219 -124q67 124 218 124q122 0 190 -81q67 -82 67 -212z
M763 473q-68 0 -110 -43t-47 -119l299 9q-15 153 -142 153zM336 88q74 0 115.5 50t41.5 137t-41.5 136t-115.5 49q-71 0 -108.5 -48.5t-37.5 -136.5q0 -90 37.5 -138.5t108.5 -48.5z" />
    <glyph glyph-name="Racute" unicode="&#x154;" horiz-adv-x="794" 
d="M432 1049h155l-152 -172h-114zM678 225l39 -225h-129l-28 180q-11 72 -41.5 101.5t-94.5 29.5h-189v-311h-131v768h381q108 0 167.5 -52t59.5 -145q0 -147 -162 -203q107 -24 128 -143zM235 416h174q82 0 126 34.5t44 100.5q0 112 -142 112h-202v-247z" />
    <glyph glyph-name="racute" unicode="&#x155;" horiz-adv-x="467" 
d="M288 829h155l-152 -172h-114zM214 548l6 -104q47 110 179 110h38v-115h-35q-73 0 -116.5 -27t-61.5 -96v-316h-130v548h120z" />
    <glyph glyph-name="uni0156" unicode="&#x156;" horiz-adv-x="794" 
d="M678 225l39 -225h-129l-28 180q-11 72 -41.5 101.5t-94.5 29.5h-189v-311h-131v768h381q108 0 167.5 -52t59.5 -145q0 -147 -162 -203q107 -24 128 -143zM235 416h174q82 0 126 34.5t44 100.5q0 112 -142 112h-202v-247zM435 -177l-104 -23v106h162v-99q0 -58 -31 -84
t-98 -26h-33v54h36q38 0 53 13t15 47v12z" />
    <glyph glyph-name="uni0157" unicode="&#x157;" horiz-adv-x="467" 
d="M399 554h38v-115h-35q-73 0 -116.5 -27t-61.5 -96v-316h-130v548h120l6 -104q47 110 179 110zM182 -177l-104 -23v106h162v-99q0 -58 -31 -84t-98 -26h-33v54h36q38 0 53 13t15 47v12z" />
    <glyph glyph-name="Rcaron" unicode="&#x158;" horiz-adv-x="794" 
d="M600 1044l-146 -182h-121l-140 182h113l90 -116l90 116h114zM678 225l39 -225h-129l-28 180q-11 72 -41.5 101.5t-94.5 29.5h-189v-311h-131v768h381q108 0 167.5 -52t59.5 -145q0 -147 -162 -203q107 -24 128 -143zM235 416h174q82 0 126 34.5t44 100.5q0 112 -142 112
h-202v-247z" />
    <glyph glyph-name="rcaron" unicode="&#x159;" horiz-adv-x="467" 
d="M456 824l-146 -182h-121l-140 182h113l90 -116l90 116h114zM214 548l6 -104q47 110 179 110h38v-115h-35q-73 0 -116.5 -27t-61.5 -96v-316h-130v548h120z" />
    <glyph glyph-name="Sacute" unicode="&#x15a;" horiz-adv-x="776" 
d="M439 877h-114l111 172h155zM389 -19q-285 0 -327 229l132 15q25 -139 200 -139q90 0 138 31.5t48 89.5q0 50 -35.5 77t-114.5 43l-101 20q-121 24 -177 76t-56 142q0 106 78 165t221 59q269 0 309 -204l-129 -15q-12 60 -56 88t-127 28q-78 0 -119.5 -28t-41.5 -81
q0 -48 29.5 -72t110.5 -40l94 -19q132 -28 191 -80.5t59 -139.5q0 -117 -86.5 -181t-239.5 -64z" />
    <glyph glyph-name="sacute" unicode="&#x15b;" horiz-adv-x="635" 
d="M354 657h-114l111 172h155zM324 -22q-222 0 -259 175l124 12q13 -51 45.5 -74t91.5 -23q116 0 116 78q0 31 -23 50t-78 28l-89 18q-165 30 -165 160q0 78 60 122.5t168 44.5q217 0 251 -162l-120 -12q-21 86 -129 86q-107 0 -107 -70q0 -28 22.5 -44.5t73.5 -26.5l80 -14
q93 -16 137.5 -56t44.5 -111q0 -86 -63.5 -133.5t-180.5 -47.5z" />
    <glyph glyph-name="Scircumflex" unicode="&#x15c;" horiz-adv-x="776" 
d="M310 869h-113l140 182h121l146 -182h-114l-90 116zM389 -19q-285 0 -327 229l132 15q25 -139 200 -139q90 0 138 31.5t48 89.5q0 50 -35.5 77t-114.5 43l-101 20q-121 24 -177 76t-56 142q0 106 78 165t221 59q269 0 309 -204l-129 -15q-12 60 -56 88t-127 28
q-78 0 -119.5 -28t-41.5 -81q0 -48 29.5 -72t110.5 -40l94 -19q132 -28 191 -80.5t59 -139.5q0 -117 -86.5 -181t-239.5 -64z" />
    <glyph glyph-name="scircumflex" unicode="&#x15d;" horiz-adv-x="635" 
d="M225 649h-113l140 182h121l146 -182h-114l-90 116zM324 -22q-222 0 -259 175l124 12q13 -51 45.5 -74t91.5 -23q116 0 116 78q0 31 -23 50t-78 28l-89 18q-165 30 -165 160q0 78 60 122.5t168 44.5q217 0 251 -162l-120 -12q-21 86 -129 86q-107 0 -107 -70
q0 -28 22.5 -44.5t73.5 -26.5l80 -14q93 -16 137.5 -56t44.5 -111q0 -86 -63.5 -133.5t-180.5 -47.5z" />
    <glyph glyph-name="Scedilla" unicode="&#x15e;" horiz-adv-x="776" 
d="M389 -19q-285 0 -327 229l132 15q25 -139 200 -139q90 0 138 31.5t48 89.5q0 50 -35.5 77t-114.5 43l-101 20q-121 24 -177 76t-56 142q0 106 78 165t221 59q269 0 309 -204l-129 -15q-12 60 -56 88t-127 28q-78 0 -119.5 -28t-41.5 -81q0 -48 29.5 -72t110.5 -40l94 -19
q132 -28 191 -80.5t59 -139.5q0 -117 -86.5 -181t-239.5 -64zM388 -285h-81v68h69q79 0 79 42q0 33 -46 33h-102v62h129q118 0 118 -93q0 -112 -166 -112z" />
    <glyph glyph-name="scedilla" unicode="&#x15f;" horiz-adv-x="635" 
d="M324 -22q-222 0 -259 175l124 12q13 -51 45.5 -74t91.5 -23q116 0 116 78q0 31 -23 50t-78 28l-89 18q-165 30 -165 160q0 78 60 122.5t168 44.5q217 0 251 -162l-120 -12q-21 86 -129 86q-107 0 -107 -70q0 -28 22.5 -44.5t73.5 -26.5l80 -14q93 -16 137.5 -56
t44.5 -111q0 -86 -63.5 -133.5t-180.5 -47.5zM312 -286h-81v68h69q79 0 79 42q0 33 -46 33h-102v62h129q118 0 118 -93q0 -112 -166 -112z" />
    <glyph glyph-name="Scaron" unicode="&#x160;" horiz-adv-x="776" 
d="M458 862h-121l-140 182h113l90 -116l90 116h114zM389 -19q-285 0 -327 229l132 15q25 -139 200 -139q90 0 138 31.5t48 89.5q0 50 -35.5 77t-114.5 43l-101 20q-121 24 -177 76t-56 142q0 106 78 165t221 59q269 0 309 -204l-129 -15q-12 60 -56 88t-127 28
q-78 0 -119.5 -28t-41.5 -81q0 -48 29.5 -72t110.5 -40l94 -19q132 -28 191 -80.5t59 -139.5q0 -117 -86.5 -181t-239.5 -64z" />
    <glyph glyph-name="scaron" unicode="&#x161;" horiz-adv-x="635" 
d="M373 642h-121l-140 182h113l90 -116l90 116h114zM324 -22q-222 0 -259 175l124 12q13 -51 45.5 -74t91.5 -23q116 0 116 78q0 31 -23 50t-78 28l-89 18q-165 30 -165 160q0 78 60 122.5t168 44.5q217 0 251 -162l-120 -12q-21 86 -129 86q-107 0 -107 -70
q0 -28 22.5 -44.5t73.5 -26.5l80 -14q93 -16 137.5 -56t44.5 -111q0 -86 -63.5 -133.5t-180.5 -47.5z" />
    <glyph glyph-name="uni0162" unicode="&#x162;" horiz-adv-x="680" 
d="M35 658v110h610v-110h-238v-658h-134v658h-238zM241 -71h129q118 0 118 -93q0 -112 -166 -112h-81v68h69q79 0 79 42q0 33 -46 33h-102v62z" />
    <glyph glyph-name="uni0163" unicode="&#x163;" horiz-adv-x="514" 
d="M272 540l183 8v-92l-184 8l8 -82v-206q0 -71 68 -71h108v-105h-136q-169 0 -169 158v224l8 81l-131 -7v92l129 -7l-6 45v123h129v-123zM197 -63h130q57 0 87 -24.5t30 -69.5q0 -111 -166 -111h-81v68h70q79 0 79 41q0 34 -46 34h-103v62z" />
    <glyph glyph-name="Tcaron" unicode="&#x164;" horiz-adv-x="680" 
d="M544 1044l-146 -182h-121l-140 182h113l90 -116l90 116h114zM35 768h610v-110h-238v-658h-134v658h-238v110z" />
    <glyph glyph-name="tcaron" unicode="&#x165;" horiz-adv-x="530" 
d="M414 912h138l-103 -292h-92zM279 709v-123l-7 -46l183 8v-92l-184 8l8 -82v-206q0 -71 68 -71h108v-105h-136q-169 0 -169 158v224l8 81l-131 -7v92l129 -7l-6 45v123h129z" />
    <glyph glyph-name="Tbar" unicode="&#x166;" horiz-adv-x="680" 
d="M645 768v-110h-238v-236l202 7v-97l-202 7v-339h-134v339l-200 -7v97l200 -7v236h-238v110h610z" />
    <glyph glyph-name="tbar" unicode="&#x167;" horiz-adv-x="545" 
d="M487 555v-91l-189 8v-137l189 7v-90l-185 8l3 -37v-47q0 -71 68 -71h113v-105h-136q-169 0 -169 158v60l6 41l-129 -7v90l135 -6v135l-135 -7v91l129 -7l-6 41v120h129v-120l-6 -42z" />
    <glyph glyph-name="Utilde" unicode="&#x168;" horiz-adv-x="837" 
d="M288 855h-95q0 87 35 134t98 47q64 0 105 -43t71 -43q23 0 34 19.5t13 63.5h95q0 -87 -35 -134t-99 -47q-65 0 -103 44q-39 43 -72 43q-44 0 -47 -84zM734 768v-495q0 -290 -315 -290t-315 290v495h137v-498q0 -89 42.5 -130t135.5 -41t135.5 41t42.5 130v498h137z" />
    <glyph glyph-name="utilde" unicode="&#x169;" horiz-adv-x="677" 
d="M255 719q-44 0 -47 -84h-95q0 87 35 134t98 47q64 0 105 -43t71 -43q23 0 34 19.5t13 63.5h95q0 -87 -35 -134t-99 -47q-65 0 -103 44q-39 43 -72 43zM454 207v341h130v-548h-120l-5 73q-64 -88 -170 -88q-89 0 -142 52t-53 140v371h130v-340q0 -54 27 -84t75 -30
q95 0 128 113z" />
    <glyph glyph-name="Umacron" unicode="&#x16a;" horiz-adv-x="837" 
d="M605 884h-372v91h372v-91zM734 768v-495q0 -290 -315 -290t-315 290v495h137v-498q0 -89 42.5 -130t135.5 -41t135.5 41t42.5 130v498h137z" />
    <glyph glyph-name="umacron" unicode="&#x16b;" horiz-adv-x="677" 
d="M153 755h372v-91h-372v91zM454 207v341h130v-548h-120l-5 73q-64 -88 -170 -88q-89 0 -142 52t-53 140v371h130v-340q0 -54 27 -84t75 -30q95 0 128 113z" />
    <glyph glyph-name="Ubreve" unicode="&#x16c;" horiz-adv-x="837" 
d="M418 868q-98 0 -144 41t-48 125h86q3 -84 107 -84t107 84h86q-2 -84 -48.5 -125t-145.5 -41zM734 768v-495q0 -290 -315 -290t-315 290v495h137v-498q0 -89 42.5 -130t135.5 -41t135.5 41t42.5 130v498h137z" />
    <glyph glyph-name="ubreve" unicode="&#x16d;" horiz-adv-x="677" 
d="M338 648q-98 0 -144 41t-48 125h86q3 -84 107 -84t107 84h86q-2 -84 -48.5 -125t-145.5 -41zM454 207v341h130v-548h-120l-5 73q-64 -88 -170 -88q-89 0 -142 52t-53 140v371h130v-340q0 -54 27 -84t75 -30q95 0 128 113z" />
    <glyph glyph-name="Uring" unicode="&#x16e;" horiz-adv-x="837" 
d="M530 845q-44 -44 -111 -44t-111 44t-44 110q0 67 44 111q43 43 111 43t111 -43q44 -44 44 -111q0 -66 -44 -110zM360 895q23 -23 59 -23t59 23t23 60q0 38 -23 61t-59 23t-59 -23t-23 -61q0 -37 23 -60zM734 768v-495q0 -290 -315 -290t-315 290v495h137v-498
q0 -89 42.5 -130t135.5 -41t135.5 41t42.5 130v498h137z" />
    <glyph glyph-name="uring" unicode="&#x16f;" horiz-adv-x="677" 
d="M450 664q-44 -44 -111 -44t-111 44t-44 109q0 67 44 111q43 43 111 43t111 -43q44 -44 44 -111q0 -65 -44 -109zM398 834q-23 23 -59 23t-59 -23t-23 -61q0 -37 23 -60t59 -23t59 23t23 60q0 38 -23 61zM454 207v341h130v-548h-120l-5 73q-64 -88 -170 -88q-89 0 -142 52
t-53 140v371h130v-340q0 -54 27 -84t75 -30q95 0 128 113z" />
    <glyph glyph-name="Uhungarumlaut" unicode="&#x170;" horiz-adv-x="837" 
d="M330 860h-117l108 186h152zM583 860h-116l111 186h152zM734 768v-495q0 -290 -315 -290t-315 290v495h137v-498q0 -89 42.5 -130t135.5 -41t135.5 41t42.5 130v498h137z" />
    <glyph glyph-name="uhungarumlaut" unicode="&#x171;" horiz-adv-x="677" 
d="M241 826h152l-143 -186h-117zM650 826l-147 -186h-116l111 186h152zM454 207v341h130v-548h-120l-5 73q-64 -88 -170 -88q-89 0 -142 52t-53 140v371h130v-340q0 -54 27 -84t75 -30q95 0 128 113z" />
    <glyph glyph-name="Uogonek" unicode="&#x172;" horiz-adv-x="837" 
d="M597 270v498h137v-495q0 -241 -217 -281l-103 -55q-38 -20 -38 -52q0 -48 63 -48h90v-67h-103q-71 0 -108 26.5t-37 75.5q0 62 61 93l38 19q-276 18 -276 289v495h137v-498q0 -89 42.5 -130t135.5 -41t135.5 41t42.5 130z" />
    <glyph glyph-name="uogonek" unicode="&#x173;" horiz-adv-x="677" 
d="M584 -37l-126 -51q-37 -15 -37 -43q0 -35 44 -35h109v-67h-130q-59 0 -89 24t-30 65q0 58 62 84l99 42l-21 110q-64 -97 -176 -97q-88 0 -144 53q-51 49 -51 152v348h130v-326q0 -61 28 -89q29 -29 74 -29q95 0 128 113v331h130v-585z" />
    <glyph glyph-name="Wcircumflex" unicode="&#x174;" horiz-adv-x="1169" 
d="M667 869l-90 116l-90 -116h-113l140 182h121l146 -182h-114zM858 210l157 558h127l-227 -768h-163l-171 658l-164 -658h-162l-228 768h128l156 -558l26 -124l22 124l137 558h178l136 -558l22 -124z" />
    <glyph glyph-name="wcircumflex" unicode="&#x175;" horiz-adv-x="968" 
d="M569 649l-90 116l-90 -116h-113l140 182h121l146 -182h-114zM696 214l98 334h132l-183 -548h-137l-83 278l-39 136l-38 -136l-82 -278h-140l-182 548h137l99 -335l25 -93l22 92l90 336h135l93 -334l26 -100z" />
    <glyph glyph-name="Ycircumflex" unicode="&#x176;" horiz-adv-x="727" 
d="M454 869l-90 116l-90 -116h-113l140 182h121l146 -182h-114zM388 455l180 314h141l-277 -462v-307h-134v307l-279 462h145l180 -315l22 -42z" />
    <glyph glyph-name="ycircumflex" unicode="&#x177;" horiz-adv-x="627" 
d="M403 649l-90 116l-90 -116h-113l140 182h121l146 -182h-114zM320 133l131 415h134l-225 -607q-30 -81 -76.5 -115t-124.5 -34h-72v102h75q35 0 53 14.5t33 55.5l8 23l-214 561h138l139 -405z" />
    <glyph glyph-name="Ydieresis" unicode="&#x178;" horiz-adv-x="727" 
d="M163 1013h133v-131h-133v131zM432 1013h133v-131h-133v131zM388 455l180 314h141l-277 -462v-307h-134v307l-279 462h145l180 -315l22 -42z" />
    <glyph glyph-name="Zacute" unicode="&#x179;" horiz-adv-x="770" 
d="M422 1049h155l-152 -172h-114zM691 677l-448 -568h456v-109h-626v92l440 566h-422v110h600v-91z" />
    <glyph glyph-name="zacute" unicode="&#x17a;" horiz-adv-x="628" 
d="M340 829h155l-152 -172h-114zM544 459l-318 -354h337v-105h-498v86l321 357h-313v105h471v-89z" />
    <glyph glyph-name="Zdotaccent" unicode="&#x17b;" horiz-adv-x="770" 
d="M319 1013h134v-131h-134v131zM691 677l-448 -568h456v-109h-626v92l440 566h-422v110h600v-91z" />
    <glyph glyph-name="zdotaccent" unicode="&#x17c;" horiz-adv-x="628" 
d="M237 793h134v-130h-134v130zM544 459l-318 -354h337v-105h-498v86l321 357h-313v105h471v-89z" />
    <glyph glyph-name="Zcaron" unicode="&#x17d;" horiz-adv-x="770" 
d="M590 1044l-146 -182h-121l-140 182h113l90 -116l90 116h114zM691 677l-448 -568h456v-109h-626v92l440 566h-422v110h600v-91z" />
    <glyph glyph-name="zcaron" unicode="&#x17e;" horiz-adv-x="628" 
d="M508 824l-146 -182h-121l-140 182h113l90 -116l90 116h114zM544 459l-318 -354h337v-105h-498v86l321 357h-313v105h471v-89z" />
    <glyph glyph-name="uni018F" unicode="&#x18f;" horiz-adv-x="894" 
d="M434 785q175 0 279 -107q104 -109 104 -295q0 -187 -102 -293q-104 -107 -269 -107q-166 0 -267 104t-101 268q0 40 4 65h599q-10 125 -73 189.5t-171 64.5q-149 0 -207 -121l-130 31q43 98 128.5 149.5t205.5 51.5zM441 94q207 0 237 218h-471q11 -106 70.5 -162
t163.5 -56z" />
    <glyph glyph-name="florin" unicode="&#x192;" 
d="M646 669h-70q-35 0 -51.5 -15t-24.5 -53l-28 -145l121 7l-18 -91l-118 6l-73 -375q-16 -82 -63 -121t-136 -39h-94l19 99h70q35 0 51.5 15t24.5 53l71 368l-117 -6l18 91l115 -6l29 151q16 82 63 121t136 39h94z" />
    <glyph glyph-name="uni01F4" unicode="&#x1f4;" horiz-adv-x="891" 
d="M480 1049h155l-152 -172h-114zM457 309v100h331v-409h-76l-30 131q-67 -148 -249 -148q-163 0 -259 112q-96 111 -96 289q0 182 97 291q96 110 277 110q123 0 208.5 -59t120.5 -168l-129 -22q-57 139 -205 139q-109 0 -171 -76.5t-62 -213.5q0 -139 62.5 -215.5
t178.5 -76.5q82 0 137 39t76 113v76z" />
    <glyph glyph-name="uni01F5" unicode="&#x1f5;" horiz-adv-x="693" 
d="M376 829h155l-152 -172h-114zM476 488l6 63h117v-521q0 -115 -67 -176.5t-189 -61.5q-206 0 -248 163l120 14q32 -83 130 -83q125 0 125 130v90q-62 -66 -165 -66q-105 0 -172 70q-68 71 -68 190q0 124 66 196q65 71 175 71q107 0 170 -79zM332 140q107 0 138 110v108
q-15 52 -51 79.5t-87 27.5q-65 0 -102 -44t-37 -119q0 -74 37 -118t102 -44z" />
    <glyph glyph-name="Aringacute" unicode="&#x1fa;" horiz-adv-x="791" 
d="M388 1109h153l-110 -136h-117zM765 0h-142l-66 172h-329l-65 -172h-136l267 680q-47 41 -47 107q0 61 40 101t102 40q61 0 101 -40t40 -101q0 -64 -43 -104zM389 855q-29 0 -47.5 -18.5t-18.5 -49.5q0 -30 18.5 -48.5t47.5 -18.5q28 0 47 18.5t19 48.5t-19 49t-47 19z
M375 560l-107 -282h248l-108 282l-16 61z" />
    <glyph glyph-name="aringacute" unicode="&#x1fb;" horiz-adv-x="659" 
d="M365 1109h155l-152 -173h-114zM440 641q-44 -44 -111 -44t-111 44t-44 110q0 67 44 111q43 43 111 43t111 -43t43 -111q0 -67 -43 -110zM329 834q-37 0 -60 -22.5t-23 -60.5t23 -60.5t60 -22.5q36 0 59 22.5t23 60.5t-23 60.5t-59 22.5zM332 564q122 0 178 -44.5
t56 -133.5v-274v-112h-106q-10 48 -13 69q-61 -85 -189 -85q-89 0 -143 43.5t-54 118.5q0 74 51.5 114t162.5 61l123 22q24 4 42 14v25q0 47 -24.5 68t-88.5 21q-66 0 -96 -21.5t-36 -75.5l-113 14q23 176 250 176zM296 71q48 0 86.5 23.5t55.5 65.5v115q-27 -7 -35 -9
l-105 -21q-107 -21 -107 -91q0 -40 27.5 -61.5t77.5 -21.5z" />
    <glyph glyph-name="AEacute" unicode="&#x1fc;" horiz-adv-x="1235" 
d="M746 1049h155l-152 -172h-114zM755 341v-231h420v-110h-552v190h-344l-107 -190h-145l437 768h707v-110h-416v-210h382v-107h-382zM544 658l-205 -362h284v362h-79z" />
    <glyph glyph-name="aeacute" unicode="&#x1fd;" horiz-adv-x="1058" 
d="M557 829h155l-152 -172h-114zM993 271v-30l-423 14q2 -85 44 -129t115 -44q97 0 141 78l109 -22q-31 -72 -96.5 -113t-152.5 -41q-162 0 -226 135q-31 -65 -93 -100t-144 -35q-94 0 -150 45t-56 123q0 155 221 161l176 4v49q0 105 -141 105q-60 0 -88 -22t-34 -75
l-112 14q12 86 71.5 131t157.5 45q77 0 130 -29.5t74 -83.5q68 113 213 113q127 0 196 -81q68 -82 68 -212zM727 473q-67 0 -108.5 -42t-47.5 -117l302 7q-15 152 -146 152zM293 74q57 0 101 27.5t64 77.5v80l-180 -22q-42 -5 -64.5 -27t-22.5 -56q0 -38 27 -59t75 -21z" />
    <glyph glyph-name="Oslashacute" unicode="&#x1fe;" horiz-adv-x="914" 
d="M493 1059h155l-152 -172h-114zM812 752l-71 -85q96 -108 96 -283q0 -181 -103 -290q-104 -111 -277 -111q-133 0 -227 67l-68 -82l-58 48l70 85q-96 109 -96 283q0 179 104 291q104 110 275 110q133 0 228 -68l69 83zM211 384q0 -112 45 -185l354 427q-62 50 -153 50
q-116 0 -181 -78t-65 -214zM457 92q116 0 181 78t65 214q0 110 -44 184l-353 -427q59 -49 151 -49z" />
    <glyph glyph-name="oslashacute" unicode="&#x1ff;" horiz-adv-x="696" 
d="M385 829h155l-152 -172h-114zM620 536l-54 -62q65 -77 65 -199q0 -132 -76 -211q-77 -80 -207 -80q-98 0 -169 47l-50 -58l-50 39l53 61q-67 77 -67 202q0 131 76 210t207 79q100 0 171 -48l51 59zM196 275q0 -66 19 -107l228 262q-37 30 -95 30q-74 0 -113 -48t-39 -137
zM348 88q74 0 112.5 48.5t38.5 138.5q0 60 -18 102l-227 -260q38 -29 94 -29z" />
    <glyph glyph-name="uni0218" unicode="&#x218;" horiz-adv-x="776" 
d="M371 465l94 -19q132 -28 191 -80.5t59 -139.5q0 -117 -86.5 -181t-239.5 -64q-285 0 -327 229l132 15q25 -139 200 -139q90 0 138 31.5t48 89.5q0 50 -35.5 77t-114.5 43l-101 20q-121 24 -177 76t-56 142q0 106 78 165t221 59q269 0 309 -204l-129 -15q-12 60 -56 88
t-127 28q-78 0 -119.5 -28t-41.5 -81q0 -48 29.5 -72t110.5 -40zM429 -186l-104 -23v106h162v-99q0 -58 -31 -84t-98 -26h-33v54h36q38 0 53 13t15 47v12z" />
    <glyph glyph-name="uni0219" unicode="&#x219;" horiz-adv-x="635" 
d="M306 340l80 -14q93 -16 137.5 -56t44.5 -111q0 -86 -63.5 -133.5t-180.5 -47.5q-222 0 -259 175l124 12q13 -51 45.5 -74t91.5 -23q116 0 116 78q0 31 -23 50t-78 28l-89 18q-165 30 -165 160q0 78 60 122.5t168 44.5q217 0 251 -162l-120 -12q-21 86 -129 86
q-107 0 -107 -70q0 -28 22.5 -44.5t73.5 -26.5zM354 -177l-105 -23v106h162v-99q0 -59 -31 -84.5t-98 -25.5h-33v54h36q38 0 53.5 13t15.5 47v12z" />
    <glyph glyph-name="uni021A" unicode="&#x21a;" horiz-adv-x="680" 
d="M35 658v110h610v-110h-238v-658h-134v658h-238zM364 -177l-104 -23v106h162v-99q0 -58 -31 -84t-98 -26h-33v54h36q38 0 53 13t15 47v12z" />
    <glyph glyph-name="uni021B" unicode="&#x21b;" horiz-adv-x="514" 
d="M272 540l183 8v-92l-184 8l8 -82v-206q0 -71 68 -71h108v-105h-136q-169 0 -169 158v224l8 81l-131 -7v92l129 -7l-6 45v123h129v-123zM248 -172l-104 -23v106h162v-99q0 -58 -31 -84t-98 -26h-33v54h36q38 0 53 13t15 47v12z" />
    <glyph glyph-name="uni0237" unicode="&#x237;" horiz-adv-x="317" 
d="M55 -208h-96v98h73q33 0 47.5 15t14.5 49v594h130v-589q0 -81 -43 -124t-126 -43z" />
    <glyph glyph-name="uni0259" unicode="&#x259;" horiz-adv-x="684" 
d="M336 564q135 0 208 -79q74 -80 74 -209q0 -132 -72 -211q-74 -81 -206 -81q-134 0 -204 81q-71 82 -71 212v30h426q-12 159 -158 159q-99 0 -139 -78l-114 22q31 73 98 113.5t158 40.5zM341 75q65 0 104 39t46 112h-299q15 -151 149 -151z" />
    <glyph glyph-name="h.sups" unicode="&#x2b0;" horiz-adv-x="604" 
d="M351 779q76 0 117.5 -37.5t41.5 -109.5v-263h-114v234q0 38 -22.5 58.5t-60.5 20.5q-80 0 -105 -82v-231h-114v558h114v-206q52 58 143 58z" />
    <glyph glyph-name="r.sups" unicode="&#x2b3;" horiz-adv-x="417" 
d="M354 776h33v-100h-45q-60 0 -92 -21t-42 -69v-217h-114v399h106l5 -65q48 73 149 73z" />
    <glyph glyph-name="circumflex" unicode="&#x2c6;" horiz-adv-x="500" 
d="M160 649h-113l140 182h121l146 -182h-114l-90 116z" />
    <glyph glyph-name="caron" unicode="&#x2c7;" horiz-adv-x="500" 
d="M308 642h-121l-140 182h113l90 -116l90 116h114z" />
    <glyph glyph-name="uni02C9" unicode="&#x2c9;" horiz-adv-x="500" 
d="M436 664h-372v91h372v-91z" />
    <glyph glyph-name="breve" unicode="&#x2d8;" horiz-adv-x="500" 
d="M249 648q-98 0 -144 41t-48 125h86q3 -84 107 -84t107 84h86q-2 -84 -48.5 -125t-145.5 -41z" />
    <glyph glyph-name="dotaccent" unicode="&#x2d9;" horiz-adv-x="500" 
d="M317 663h-134v130h134v-130z" />
    <glyph glyph-name="ring" unicode="&#x2da;" horiz-adv-x="500" 
d="M361 664q-44 -44 -111 -44t-111 44t-44 109q0 67 44 111q43 43 111 43t111 -43q44 -44 44 -111q0 -65 -44 -109zM191 713q23 -23 59 -23t59 23t23 60q0 38 -23 61t-59 23t-59 -23t-23 -61q0 -37 23 -60z" />
    <glyph glyph-name="ogonek" unicode="&#x2db;" horiz-adv-x="500" 
d="M365 -233h-103q-71 0 -108 26.5t-37 75.5q0 62 61 93l164 83l33 -45l-125 -66q-38 -20 -38 -52q0 -48 63 -48h90v-67z" />
    <glyph glyph-name="tilde" unicode="&#x2dc;" horiz-adv-x="500" 
d="M119 635h-95q0 87 35 134t98 47q64 0 105 -43t71 -43q23 0 34 19.5t13 63.5h95q0 -87 -35 -134t-99 -47q-65 0 -103 44q-39 43 -72 43q-44 0 -47 -84z" />
    <glyph glyph-name="hungarumlaut" unicode="&#x2dd;" horiz-adv-x="500" 
d="M109 640h-117l108 186h152zM362 640h-116l111 186h152z" />
    <glyph glyph-name="s.sups" unicode="&#x2e2;" horiz-adv-x="552" 
d="M276 352q-177 0 -212 114l106 18q19 -58 113 -58q98 0 98 50q0 38 -70 45l-83 8q-150 17 -150 122q0 62 51.5 96t142.5 34q165 0 198 -105l-101 -17q-18 48 -101 48q-42 0 -65 -12.5t-23 -34.5q0 -34 61 -43l104 -11q71 -9 106 -36.5t35 -80.5q0 -66 -55.5 -101.5
t-154.5 -35.5z" />
    <glyph glyph-name="gravecomb" unicode="&#x300;" horiz-adv-x="0" 
d="M82 657h-114l-153 172h156z" />
    <glyph glyph-name="acutecomb" unicode="&#x301;" horiz-adv-x="0" 
d="M39 657h-114l111 172h155z" />
    <glyph glyph-name="uni0302" unicode="&#x302;" horiz-adv-x="0" 
d="M-90 649h-113l140 182h121l146 -182h-114l-90 116z" />
    <glyph glyph-name="tildecomb" unicode="&#x303;" horiz-adv-x="0" 
d="M-131 635h-95q0 87 35 134t98 47q64 0 105 -43t71 -43q23 0 34 19.5t13 63.5h95q0 -87 -35 -134t-99 -47t-104 44q-37 43 -71 43q-44 0 -47 -84z" />
    <glyph glyph-name="uni0304" unicode="&#x304;" horiz-adv-x="0" 
d="M186 664h-372v91h372v-91z" />
    <glyph glyph-name="uni0306" unicode="&#x306;" horiz-adv-x="0" 
d="M-1 648q-98 0 -144 41t-48 125h86q3 -84 107 -84t107 84h86q-2 -84 -48.5 -125t-145.5 -41z" />
    <glyph glyph-name="uni0307" unicode="&#x307;" horiz-adv-x="0" 
d="M67 663h-134v130h134v-130z" />
    <glyph glyph-name="uni0308" unicode="&#x308;" horiz-adv-x="0" 
d="M-68 661h-133v130h133v-130zM201 661h-133v130h133v-130z" />
    <glyph glyph-name="uni030A" unicode="&#x30a;" horiz-adv-x="0" 
d="M111 664q-44 -44 -111 -44t-111 44t-44 109q0 67 44 111q43 43 111 43t111 -43q44 -44 44 -111q0 -65 -44 -109zM-59 713q23 -23 59 -23t59 23t23 60q0 38 -23 61t-59 23t-59 -23t-23 -61q0 -37 23 -60z" />
    <glyph glyph-name="uni030B" unicode="&#x30b;" horiz-adv-x="0" 
d="M-89 640h-117l108 186h152zM164 640h-116l111 186h152z" />
    <glyph glyph-name="uni030C" unicode="&#x30c;" horiz-adv-x="0" 
d="M58 642h-121l-140 182h113l90 -116l90 116h114z" />
    <glyph glyph-name="uni0312" unicode="&#x312;" horiz-adv-x="0" 
d="M80 825h-36q-38 0 -52.5 -13.5t-14.5 -47.5v-17l103 23v-109h-161v108q0 57 31 83t97 26h33v-53z" />
    <glyph glyph-name="uni0313" unicode="&#x313;" horiz-adv-x="0" 
d="M-81 769v109h161v-107q0 -58 -30.5 -84t-96.5 -26h-34v54h37q38 0 52.5 13t14.5 47v17z" />
    <glyph glyph-name="dotbelowcomb" unicode="&#x323;" horiz-adv-x="0" 
d="M67 -245h-134v131h134v-131z" />
    <glyph glyph-name="uni0324" unicode="&#x324;" horiz-adv-x="0" 
d="M-68 -245h-133v131h133v-131zM201 -245h-133v131h133v-131z" />
    <glyph glyph-name="uni0325" unicode="&#x325;" horiz-adv-x="0" 
d="M108 -318q-44 -42 -108 -42t-108 42q-42 42 -42 107t42 107q44 42 108 42t108 -42q42 -42 42 -107t-42 -107zM-58 -270q23 -22 58 -22t58 22q22 22 22 59t-22 59q-23 22 -58 22t-58 -22q-22 -22 -22 -59t22 -59z" />
    <glyph glyph-name="uni0326" unicode="&#x326;" horiz-adv-x="0" 
d="M-81 -200v106h162v-99q0 -58 -31 -84t-98 -26h-33v54h36q38 0 53 13t15 47v12z" />
    <glyph glyph-name="uni0327" unicode="&#x327;" horiz-adv-x="0" 
d="M-18 -276h-81v68h69q79 0 79 42q0 33 -46 33h-102v62h129q118 0 118 -93q0 -112 -166 -112z" />
    <glyph glyph-name="uni0328" unicode="&#x328;" horiz-adv-x="0" 
d="M-10 -233h-103q-71 0 -108 26.5t-37 75.5q0 62 61 93l164 83l33 -45l-125 -66q-38 -20 -38 -52q0 -48 63 -48h90v-67z" />
    <glyph glyph-name="uni032E" unicode="&#x32e;" horiz-adv-x="0" 
d="M-1 -266q-98 0 -144 41t-48 125h86q3 -85 107 -85t107 85h86q-2 -84 -48.5 -125t-145.5 -41z" />
    <glyph glyph-name="uni0331" unicode="&#x331;" horiz-adv-x="0" 
d="M186 -207h-372v91h372v-91z" />
    <glyph glyph-name="uni0335" unicode="&#x335;" horiz-adv-x="0" 
d="M-214 378l-214 -10v92l214 -10l214 10v-92z" />
    <glyph glyph-name="uni0337" unicode="&#x337;" horiz-adv-x="0" 
d="M264 533l-470 -565l-58 48l470 565z" />
    <glyph glyph-name="uni0338" unicode="&#x338;" horiz-adv-x="0" 
d="M354 752l-650 -784l-58 48l650 784z" />
    <glyph glyph-name="uni0394" unicode="&#x394;" horiz-adv-x="791" 
d="M300 768h182l283 -768h-738zM375 625l-176 -519h388l-179 519l-16 59z" />
    <glyph glyph-name="uni03A9" unicode="&#x3a9;" horiz-adv-x="913" 
d="M395 0h-317v121h172v5q-165 108 -165 307q0 159 102 256q101 96 270 96t269 -96q101 -98 101 -256q0 -197 -168 -307v-5h176v-121h-317v114q93 51 135.5 121.5t42.5 177.5q0 123 -63 193t-176 70q-115 0 -178 -69t-63 -193q0 -106 43 -177.5t136 -122.5v-114z" />
    <glyph glyph-name="uni03BC" unicode="&#x3bc;" horiz-adv-x="677" 
d="M224 -204h-130v752h130v-335q0 -57 27 -87.5t77 -30.5q89 0 126 100v353h130v-548h-120l-5 73q-64 -88 -159 -88q-65 0 -106 37l-2 -1l32 -117v-108z" />
    <glyph glyph-name="pi" unicode="&#x3c0;" horiz-adv-x="791" 
d="M732 548v-116h-126v-266q0 -33 13.5 -47t45.5 -14h34v-105h-68q-150 0 -150 158v274h-202v-432h-128v432h-124v116h705z" />
    <glyph glyph-name="d.sups" unicode="&#x1d48;" horiz-adv-x="619" 
d="M411 725v202h114v-558h-103l-6 46q-50 -57 -142 -57q-98 0 -153.5 57t-55.5 154q0 96 56.5 152.5t153.5 56.5q88 0 136 -53zM298 452q82 0 113 61v114q-30 61 -113 61q-57 0 -87.5 -30.5t-30.5 -87.5q0 -55 31 -86.5t87 -31.5z" />
    <glyph glyph-name="t.sups" unicode="&#x1d57;" horiz-adv-x="450" 
d="M391 768v-96l-144 5v-169q0 -47 57 -47h87v-92h-112q-145 0 -145 115v193l-107 -5v96l107 -6v123h113v-123z" />
    <glyph glyph-name="Wgrave" unicode="&#x1e80;" horiz-adv-x="1169" 
d="M548 1049l111 -172h-114l-152 172h155zM858 210l157 558h127l-227 -768h-163l-171 658l-164 -658h-162l-228 768h128l156 -558l26 -124l22 124l137 558h178l136 -558l22 -124z" />
    <glyph glyph-name="wgrave" unicode="&#x1e81;" horiz-adv-x="968" 
d="M450 829l111 -172h-114l-152 172h155zM696 214l98 334h132l-183 -548h-137l-83 278l-39 136l-38 -136l-82 -278h-140l-182 548h137l99 -335l25 -93l22 92l90 336h135l93 -334l26 -100z" />
    <glyph glyph-name="Wacute" unicode="&#x1e82;" horiz-adv-x="1169" 
d="M613 1049h155l-152 -172h-114zM858 210l157 558h127l-227 -768h-163l-171 658l-164 -658h-162l-228 768h128l156 -558l26 -124l22 124l137 558h178l136 -558l22 -124z" />
    <glyph glyph-name="wacute" unicode="&#x1e83;" horiz-adv-x="968" 
d="M515 829h155l-152 -172h-114zM696 214l98 334h132l-183 -548h-137l-83 278l-39 136l-38 -136l-82 -278h-140l-182 548h137l99 -335l25 -93l22 92l90 336h135l93 -334l26 -100z" />
    <glyph glyph-name="Wdieresis" unicode="&#x1e84;" horiz-adv-x="1169" 
d="M376 1013h133v-131h-133v131zM645 1013h133v-131h-133v131zM858 210l157 558h127l-227 -768h-163l-171 658l-164 -658h-162l-228 768h128l156 -558l26 -124l22 124l137 558h178l136 -558l22 -124z" />
    <glyph glyph-name="wdieresis" unicode="&#x1e85;" horiz-adv-x="968" 
d="M278 791h133v-130h-133v130zM547 791h133v-130h-133v130zM696 214l98 334h132l-183 -548h-137l-83 278l-39 136l-38 -136l-82 -278h-140l-182 548h137l99 -335l25 -93l22 92l90 336h135l93 -334l26 -100z" />
    <glyph glyph-name="uni1E9E" unicode="&#x1e9e;" horiz-adv-x="826" 
d="M724 660l-194 -203q109 -11 169.5 -71t60.5 -159q0 -119 -81 -177q-82 -59 -214 -59q-60 0 -125 13v109q64 -12 116 -12q172 0 172 127q0 64 -43.5 94t-132.5 30q-1 0 -63 -2v93l204 224q-66 7 -143 7q-112 0 -163 -47t-51 -146v-481h-132v473q0 158 83 233t257 75
q128 0 280 -18v-103z" />
    <glyph glyph-name="Ygrave" unicode="&#x1ef2;" horiz-adv-x="727" 
d="M334 1049l111 -172h-114l-152 172h155zM388 455l180 314h141l-277 -462v-307h-134v307l-279 462h145l180 -315l22 -42z" />
    <glyph glyph-name="ygrave" unicode="&#x1ef3;" horiz-adv-x="627" 
d="M284 829l111 -172h-114l-152 172h155zM320 133l131 415h134l-225 -607q-30 -81 -76.5 -115t-124.5 -34h-72v102h75q35 0 53 14.5t33 55.5l8 23l-214 561h138l139 -405z" />
    <glyph glyph-name="thinspace" unicode="&#x2009;" horiz-adv-x="317" 
 />
    <glyph glyph-name="uni2011" unicode="&#x2011;" horiz-adv-x="463" 
d="M406 235h-349v104h349v-104z" />
    <glyph glyph-name="endash" unicode="&#x2013;" horiz-adv-x="613" 
d="M557 233h-500v106h500v-106z" />
    <glyph glyph-name="emdash" unicode="&#x2014;" horiz-adv-x="853" 
d="M797 233h-740v106h740v-106z" />
    <glyph glyph-name="quoteleft" unicode="&#x2018;" horiz-adv-x="324" 
d="M251 429h-178v204q0 78 38 114.5t118 36.5h21v-71h-21q-44 0 -63 -17.5t-19 -60.5v-77l104 27v-156z" />
    <glyph glyph-name="quoteright" unicode="&#x2019;" horiz-adv-x="324" 
d="M95 413h-21v71h21q45 0 64 18t19 60v76l-105 -26v156h178v-205q0 -78 -38 -114t-118 -36z" />
    <glyph glyph-name="quotesinglbase" unicode="&#x201a;" horiz-adv-x="378" 
d="M122 -199h-21v71h21q45 0 64 18t19 60v77l-105 -27v156h178v-204q0 -78 -38 -114.5t-118 -36.5z" />
    <glyph glyph-name="quotedblleft" unicode="&#x201c;" horiz-adv-x="608" 
d="M251 429h-178v204q0 78 38 114.5t118 36.5h21v-71h-21q-44 0 -63 -17.5t-19 -60.5v-77l104 27v-156zM535 429h-178v204q0 78 38 114.5t118 36.5h21v-71h-21q-45 0 -64 -18t-19 -60v-77l105 27v-156z" />
    <glyph glyph-name="quotedblright" unicode="&#x201d;" horiz-adv-x="608" 
d="M95 413h-21v71h21q45 0 64 18t19 60v76l-105 -26v156h178v-205q0 -78 -38 -114t-118 -36zM379 413h-21v71h21q44 0 63 17.5t19 60.5v76l-104 -26v156h178v-205q0 -78 -38 -114t-118 -36z" />
    <glyph glyph-name="quotedblbase" unicode="&#x201e;" horiz-adv-x="661" 
d="M122 -199h-21v71h21q45 0 64 18t19 60v77l-105 -27v156h178v-204q0 -78 -38 -114.5t-118 -36.5zM406 -199h-22v71h22q44 0 63 17.5t19 60.5v77l-104 -27v156h177v-204q0 -78 -37.5 -114.5t-117.5 -36.5z" />
    <glyph glyph-name="dagger" unicode="&#x2020;" horiz-adv-x="715" 
d="M418 615l194 15v-110l-194 15v-645h-123v645l-191 -15v110l191 -14v277h123v-278z" />
    <glyph glyph-name="daggerdbl" unicode="&#x2021;" horiz-adv-x="715" 
d="M612 636v-109l-194 14v-292l194 14v-109l-194 14v-278h-123v278l-191 -14v109l191 -14v292l-191 -14v109l191 -14v271h123v-271z" />
    <glyph glyph-name="bullet" unicode="&#x2022;" horiz-adv-x="502" 
d="M399 165h-295v271h295v-271z" />
    <glyph glyph-name="ellipsis" unicode="&#x2026;" horiz-adv-x="1100" 
d="M264 0h-170v156h170v-156zM636 0h-171v156h171v-156zM1007 0h-171v156h171v-156z" />
    <glyph glyph-name="perthousand" unicode="&#x2030;" horiz-adv-x="1922" 
d="M469 398q-56 -62 -155 -62t-155 62q-55 61 -55 174q0 112 55 174t155 62t154.5 -62t54.5 -174t-54 -174zM494 -15h-115l496 798h113zM314 415q57 0 87 40t30 117q0 78 -30 118t-87 40t-87.5 -40t-30.5 -118q0 -157 118 -157zM1231 52q-56 -62 -155 -62t-155 62
q-55 61 -55 174q0 114 55 175t155 61t155 -61q54 -62 54 -175q0 -112 -54 -174zM1765 52q-56 -62 -155 -62t-155 62q-55 61 -55 174q0 114 55 175t155 61t155 -61q54 -62 54 -175q0 -112 -54 -174zM1076 69q57 0 87 40t30 117q0 78 -30 118t-87 40t-87.5 -40t-30.5 -118
q0 -157 118 -157zM1610 69q57 0 87 40t30 117q0 78 -30 118t-87 40t-87.5 -40t-30.5 -118q0 -157 118 -157z" />
    <glyph glyph-name="guilsinglleft" unicode="&#x2039;" horiz-adv-x="456" 
d="M362 124v-136l-268 217v138l268 217v-136l-186 -150z" />
    <glyph glyph-name="guilsinglright" unicode="&#x203a;" horiz-adv-x="456" 
d="M362 205l-268 -217v136l186 150l-186 150v136l268 -217v-138z" />
    <glyph glyph-name="uni203D" unicode="&#x203d;" horiz-adv-x="748" 
d="M368 781q142 0 222 -57t80 -161q0 -122 -125 -188l-48 -26q-53 -25 -69 -51q-17 -25 -25 -88h-74l-19 251v105h113v-105l-5 -58q21 14 32 20q52 29 73.5 59.5t21.5 70.5q0 124 -176 124q-89 0 -132 -34.5t-48 -105.5l-127 9q23 235 306 235zM441 0h-149v135h149v-135z
" />
    <glyph glyph-name="fraction" unicode="&#x2044;" horiz-adv-x="398" 
d="M10 -15h-115l495 798h113z" />
    <glyph glyph-name="zero.sups" unicode="&#x2070;" horiz-adv-x="518" 
d="M414 421q-56 -62 -155 -62t-155 62q-55 61 -55 174t55 174.5t155 61.5t155 -61.5t55 -174.5t-55 -174zM259 438q57 0 87.5 40t30.5 117t-30.5 117.5t-87.5 40.5t-87.5 -40t-30.5 -118q0 -77 30.5 -117t87.5 -40z" />
    <glyph glyph-name="four.sups" unicode="&#x2074;" horiz-adv-x="493" 
d="M386 369h-92v112l-262 -7v83l248 265h106v-279l72 9v-78l-72 7v-112zM292 726l-166 -176l168 -7v183h-2z" />
    <glyph glyph-name="five.sups" unicode="&#x2075;" horiz-adv-x="509" 
d="M255 360q-70 0 -121.5 25.5t-76.5 72.5l87 36q32 -56 113 -56q50 0 79.5 23t29.5 62t-28.5 60t-78.5 21q-63 0 -106 -39l-84 22l48 235h320v-73h-253l-21 -100l2 -1q46 25 114 25q84 0 131.5 -39.5t47.5 -109.5q0 -77 -53.5 -120.5t-149.5 -43.5z" />
    <glyph glyph-name="six.sups" unicode="&#x2076;" horiz-adv-x="504" 
d="M260 359q-100 0 -156 60.5t-56 166.5q0 116 55 180.5t160 64.5q129 0 179 -92l-80 -28q-32 47 -98 47q-59 0 -88.5 -34.5t-33.5 -108.5q49 52 139 52q80 0 127 -40t47 -107q0 -73 -52.5 -117t-142.5 -44zM185 456q29 -25 76 -25t75 24q29 24 29 64q0 39 -27.5 61
t-75.5 22q-40 0 -71.5 -20t-44.5 -53q7 -47 39 -73z" />
    <glyph glyph-name="seven.sups" unicode="&#x2077;" horiz-adv-x="450" 
d="M221 369h-92q1 101 51 205q50 103 128 168h-276v80h386v-81q-191 -143 -197 -372z" />
    <glyph glyph-name="eight.sups" unicode="&#x2078;" horiz-adv-x="528" 
d="M419 395q-59 -36 -155 -36q-97 0 -154 36q-58 36 -58 103q0 41 25 70.5t66 38.5v1q-34 11 -54 37.5t-20 61.5q0 59 51.5 91.5t143.5 32.5q94 0 145.5 -32t51.5 -92q0 -34 -20.5 -60.5t-54.5 -38.5v-1q40 -9 65 -38.5t25 -70.5q0 -67 -57 -103zM264 640q109 0 109 61
q0 59 -109 59q-108 0 -108 -59q0 -61 108 -61zM175 450q31 -19 89 -19t89 19q32 18 32 51q0 69 -121 69t-121 -69q0 -33 32 -51z" />
    <glyph glyph-name="nine.sups" unicode="&#x2079;" horiz-adv-x="504" 
d="M241 359q-128 0 -179 92l80 28q31 -46 99 -46q58 0 87.5 34t33.5 108q-49 -52 -138 -52q-81 0 -128 40.5t-47 107.5q0 72 53 116t142 44q100 0 156 -60.5t56 -165.5q0 -117 -55 -181.5t-160 -64.5zM243 589q40 0 71 20t44 53q-8 47 -38.5 72t-76.5 25t-75 -23.5
t-29 -64.5q0 -38 28 -60t76 -22z" />
    <glyph glyph-name="plus.sups" unicode="&#x207a;" horiz-adv-x="614" 
d="M352 620h190v-87h-190v-164h-91v164h-190v87h190v165h91v-165z" />
    <glyph glyph-name="minus.sups" unicode="&#x207b;" horiz-adv-x="605" 
d="M533 533h-462v87h462v-87z" />
    <glyph glyph-name="parenleft.sups" unicode="&#x207d;" horiz-adv-x="371" 
d="M310 221h-101q-127 161 -127 366q0 207 127 365h101q-114 -166 -114 -367q0 -198 114 -364z" />
    <glyph glyph-name="parenright.sups" unicode="&#x207e;" horiz-adv-x="371" 
d="M162 221h-102q115 166 115 364q0 201 -115 367h102q127 -158 127 -365q0 -205 -127 -366z" />
    <glyph glyph-name="n.sups" unicode="&#x207f;" horiz-adv-x="604" 
d="M351 779q76 0 117.5 -37.5t41.5 -109.5v-263h-114v234q0 38 -22.5 58.5t-60.5 20.5q-80 0 -105 -82v-231h-114v399h106l4 -52q54 63 147 63z" />
    <glyph glyph-name="zero.subs" unicode="&#x2080;" horiz-adv-x="518" 
d="M414 -153q-56 -62 -155 -62t-155 62q-55 61 -55 174t55 174.5t155 61.5t155 -61.5t55 -174.5t-55 -174zM259 -136q57 0 87.5 40t30.5 117t-30.5 117.5t-87.5 40.5t-87.5 -40t-30.5 -118q0 -157 118 -157z" />
    <glyph glyph-name="one.subs" unicode="&#x2081;" horiz-adv-x="373" 
d="M279 -205h-92v276h-140v77h66q38 0 56 14t18 47v39h92v-453z" />
    <glyph glyph-name="two.subs" unicode="&#x2082;" horiz-adv-x="511" 
d="M461 -205h-406q0 82 35 133t110 77l92 32q67 24 67 73q0 69 -101 69q-98 0 -110 -85l-90 11q9 71 61.5 111.5t140.5 40.5q90 0 140.5 -38t50.5 -107q0 -102 -127 -144l-77 -25q-78 -27 -79 -69h293v-79z" />
    <glyph glyph-name="three.subs" unicode="&#x2083;" horiz-adv-x="508" 
d="M255 -217q-86 0 -136.5 37.5t-62.5 108.5l89 13q17 -83 112 -83q49 0 76 18t27 50q0 63 -101 63h-45v75h41q96 0 96 59q0 61 -98 61q-88 0 -108 -65l-86 13q14 59 65.5 91.5t131.5 32.5q83 0 134 -33t51 -92q0 -74 -73 -98v-2q86 -20 86 -106q0 -66 -53 -104.5
t-146 -38.5z" />
    <glyph glyph-name="four.subs" unicode="&#x2084;" horiz-adv-x="493" 
d="M386 -205h-92v112l-262 -8v84l248 265h106v-279l72 9v-79l-72 8v-112zM292 152l-166 -176l168 -7v183h-2z" />
    <glyph glyph-name="five.subs" unicode="&#x2085;" horiz-adv-x="509" 
d="M255 -214q-70 0 -121.5 25.5t-76.5 72.5l87 36q32 -56 113 -56q50 0 79.5 23t29.5 62t-28.5 60t-78.5 21q-63 0 -106 -39l-84 22l48 235h320v-73h-253l-21 -100l2 -1q46 25 114 25q84 0 131.5 -39.5t47.5 -109.5q0 -77 -53.5 -120.5t-149.5 -43.5z" />
    <glyph glyph-name="six.subs" unicode="&#x2086;" horiz-adv-x="504" 
d="M260 -215q-100 0 -156 60.5t-56 166.5q0 116 55 180.5t160 64.5q129 0 179 -92l-80 -28q-32 47 -98 47q-59 0 -88.5 -34.5t-33.5 -108.5q49 52 139 52q80 0 127 -40t47 -107q0 -73 -52.5 -117t-142.5 -44zM185 -119q30 -24 76 -24q47 0 75 24q29 24 29 64q0 38 -28 60.5
t-75 22.5q-40 0 -71.5 -20t-44.5 -53q7 -48 39 -74z" />
    <glyph glyph-name="seven.subs" unicode="&#x2087;" horiz-adv-x="450" 
d="M221 -205h-92q1 102 51 204q50 104 128 169h-276v80h386v-81q-191 -143 -197 -372z" />
    <glyph glyph-name="eight.subs" unicode="&#x2088;" horiz-adv-x="528" 
d="M419 -179q-59 -36 -155 -36q-97 0 -154 36q-58 36 -58 103q0 41 25 70.5t66 38.5v1q-34 11 -54 37.5t-20 61.5q0 59 51.5 91.5t143.5 32.5q94 0 145.5 -32t51.5 -92q0 -34 -20.5 -60.5t-54.5 -38.5v-1q40 -9 65 -38.5t25 -70.5q0 -67 -57 -103zM264 66q109 0 109 61
q0 59 -109 59q-108 0 -108 -59q0 -61 108 -61zM175 -125q31 -18 89 -18t89 18q32 20 32 52q0 69 -121 69t-121 -69q0 -32 32 -52z" />
    <glyph glyph-name="nine.subs" unicode="&#x2089;" horiz-adv-x="504" 
d="M241 -215q-128 0 -179 92l80 28q32 -47 99 -47q58 0 87.5 34.5t33.5 108.5q-49 -52 -138 -52q-81 0 -128 40.5t-47 107.5q0 72 53 116t142 44q100 0 156 -60.5t56 -165.5q0 -117 -55 -181.5t-160 -64.5zM243 14q39 0 70.5 20.5t44.5 53.5q-8 47 -38.5 72t-76.5 25
t-75 -24t-29 -64q0 -38 28 -60.5t76 -22.5z" />
    <glyph glyph-name="plus.subs" unicode="&#x208a;" horiz-adv-x="614" 
d="M352 86h190v-87h-190v-164h-91v164h-190v87h190v165h91v-165z" />
    <glyph glyph-name="minus.subs" unicode="&#x208b;" horiz-adv-x="605" 
d="M533 -1h-462v87h462v-87z" />
    <glyph glyph-name="equal.subs" unicode="&#x208c;" horiz-adv-x="605" 
d="M533 93h-462v87h462v-87zM533 -96h-462v87h462v-87z" />
    <glyph glyph-name="uni208D" unicode="&#x208d;" horiz-adv-x="371" 
d="M310 -353h-101q-127 163 -127 366q0 206 127 366h101q-114 -167 -114 -368q0 -197 114 -364z" />
    <glyph glyph-name="uni208E" unicode="&#x208e;" horiz-adv-x="371" 
d="M162 -353h-102q115 166 115 364q0 202 -115 368h102q127 -160 127 -366q0 -205 -127 -366z" />
    <glyph glyph-name="n.subs" unicode="&#x2099;" horiz-adv-x="604" 
d="M351 206q76 0 117.5 -37t41.5 -109v-263h-114v233q0 38 -22.5 58.5t-60.5 20.5q-79 0 -105 -81v-231h-114v399h106l4 -52q53 62 147 62z" />
    <glyph glyph-name="Euro" unicode="&#x20ac;" 
d="M552 670q-157 0 -207 -140h352v-91h-636v91h142q33 120 122 185t224 65q73 0 148 -23v-112q-71 25 -145 25zM201 249h-140v91h636v-91h-356q48 -150 209 -150q74 0 147 26v-112q-75 -23 -148 -23q-138 0 -228 67.5t-120 191.5z" />
    <glyph glyph-name="uni20B8" unicode="&#x20b8;" horiz-adv-x="680" 
d="M35 664v104h610v-104h-610zM273 464h-238v104h610v-104h-238v-464h-134v464z" />
    <glyph glyph-name="uni20B9" unicode="&#x20b9;" 
d="M680 768v-88l-234 11q37 -53 43 -122l191 9v-88l-193 9q-19 -116 -135 -154q69 -10 104.5 -42.5t55.5 -102.5l59 -200h-135l-42 161q-19 76 -60 103q-40 27 -129 27h-128v94h147q85 0 119 25q33 23 41 90l-307 -10v88l309 -10q-3 55 -20 122l-289 -10v88h603z" />
    <glyph glyph-name="uni20BA" unicode="&#x20ba;" 
d="M325 593l235 141v-97l-509 -260v97l143 73v221h131v-175zM583 288l123 -13q-27 -134 -116.5 -204.5t-228.5 -70.5h-167v265l-143 -91v98l509 260v-98l-235 -121v-198h36q181 0 222 173z" />
    <glyph glyph-name="uni20BC" unicode="&#x20bc;" 
d="M434 565h3q259 0 259 -268v-297h-126v306q0 81 -32 120t-104 46v-370h-117v369q-72 -7 -104.5 -46.5t-32.5 -118.5v-306h-118v297q0 135 62 201.5t192 66.5h1v203h117v-203z" />
    <glyph glyph-name="uni20BF" unicode="&#x20bf;" 
d="M701 221q0 -86 -52.5 -144t-149.5 -73v-148h-93v144h-93v-144h-92v144h-137v768h137v144h92v-144h93v144h93v-149q85 -15 128.5 -63.5t43.5 -124.5q0 -58 -33.5 -102.5t-90.5 -61.5q73 -18 113.5 -69t40.5 -121zM413 667h-200v-221h198q131 0 131 115q0 50 -33 78t-96 28
zM213 101h226q61 0 95.5 32t34.5 91t-37 90.5t-104 31.5h-215v-245z" />
    <glyph glyph-name="uni2105" unicode="&#x2105;" horiz-adv-x="1425" 
d="M534 -15h-115l496 798h113zM329 360q-105 0 -165 57t-60 154q0 99 59 154.5t166 55.5q172 0 213 -131l-109 -18q-24 63 -102 63q-113 0 -113 -123q0 -60 30 -93t84 -33q83 0 105 73l107 -15q-20 -69 -76 -106.5t-139 -37.5zM1262 39q-62 -57 -163 -57q-102 0 -162 57
q-61 57 -61 151t61 151q60 57 162 57q101 0 163 -56q60 -57 60 -152q0 -96 -60 -151zM1099 69q109 0 109 121q0 123 -109 123q-108 0 -108 -123q0 -121 108 -121z" />
    <glyph glyph-name="uni2113" unicode="&#x2113;" horiz-adv-x="588" 
d="M467 139l54 -83q-84 -72 -189 -72q-80 0 -125.5 42t-45.5 119v70l-100 -47l-34 99l134 35v314q0 83 44.5 126.5t129.5 43.5q92 0 137 -52.5t45 -163.5q0 -123 -54.5 -196t-171.5 -109v-113q0 -63 65 -63q58 0 111 50zM341 683q-50 0 -50 -65v-264q61 38 85.5 86.5
t24.5 125.5q0 117 -60 117z" />
    <glyph glyph-name="uni2116" unicode="&#x2116;" horiz-adv-x="1477" 
d="M1189 776q101 0 161.5 -56.5t60.5 -151.5t-60.5 -151.5t-161.5 -56.5q-102 0 -162.5 57t-60.5 151t60.5 151t162.5 57zM289 769l385 -649v649h124v-769h-184l-387 648v-648h-123v769h185zM1189 447q108 0 108 121q0 123 -108 123q-109 0 -109 -123q0 -121 109 -121z" />
    <glyph glyph-name="uni2117" unicode="&#x2117;" horiz-adv-x="968" 
d="M193 675q115 113 291 113t292 -114q115 -114 115 -289q0 -176 -115 -290q-116 -114 -292 -114q-177 0 -291 114q-115 114 -115 290t115 290zM254 150q90 -92 230 -92t230 92q90 91 90 235q0 143 -90 234q-90 92 -230 92t-230 -92q-90 -91 -90 -234t90 -235zM350 591h174
q66 0 104 -37t38 -98t-40 -98t-106 -37h-84v-136h-86v406zM436 393h76q68 0 68 63q0 62 -66 62h-78v-125z" />
    <glyph glyph-name="trademark" unicode="&#x2122;" horiz-adv-x="1121" 
d="M284 356h-95v336h-124v76h342v-76h-123v-336zM596 356h-82v412h165l83 -349h16l82 349h168v-412h-86v352h-17l-83 -352h-143l-86 352h-17v-352z" />
    <glyph glyph-name="uni2126" unicode="&#x2126;" horiz-adv-x="913" 
d="M395 0h-317v121h172v5q-165 108 -165 307q0 159 102 256q101 96 270 96t269 -96q101 -98 101 -256q0 -197 -168 -307v-5h176v-121h-317v114q93 51 135.5 121.5t42.5 177.5q0 123 -63 193t-176 70q-115 0 -178 -69t-63 -193q0 -106 43 -177.5t136 -122.5v-114z" />
    <glyph glyph-name="estimated" unicode="&#x212e;" horiz-adv-x="982" 
d="M492 785q197 1 318.5 -120t117.5 -292h-697q-15 0 -15 -14v-190q0 -33 17 -50q107 -104 259 -104q80 0 153 34t119 91h78q-45 -63 -134 -108q-88 -46 -216 -46q-198 0 -317 112q-121 112 -121 286t119 288q119 113 319 113zM492 755q-152 0 -259 -106q-17 -17 -17 -47
v-189q0 -15 15 -15h519q15 0 15 15v189q0 30 -17 47q-106 106 -256 106z" />
    <glyph glyph-name="uni2153" unicode="&#x2153;" horiz-adv-x="1292" 
d="M336 336h-93v276h-139v77h66q38 0 55.5 14t17.5 47v39h93v-453zM393 -15h-115l495 798h113zM990 -12q-86 0 -136.5 37.5t-62.5 108.5l89 13q17 -83 112 -83q49 0 76 18t27 50q0 63 -101 63h-45v75h41q96 0 96 59q0 61 -98 61q-88 0 -108 -65l-86 13q14 59 65.5 91.5
t131.5 32.5q83 0 134 -33t51 -92q0 -74 -73 -98v-2q86 -20 86 -106q0 -66 -53 -104.5t-146 -38.5z" />
    <glyph glyph-name="uni2154" unicode="&#x2154;" horiz-adv-x="1457" 
d="M510 336h-406q0 82 35 133t110 77l92 32q67 24 67 73q0 69 -101 69q-97 0 -110 -85l-89 11q9 70 61 111t140 41q90 0 140.5 -38t50.5 -107q0 -102 -127 -144l-77 -25q-76 -27 -78 -69h292v-79zM557 -15h-115l496 798h113zM1155 -12q-175 0 -199 146l88 13q17 -83 113 -83
q49 0 76 18t27 50q0 63 -102 63h-44v75h41q96 0 96 59q0 61 -99 61q-89 0 -107 -65l-87 13q15 59 66.5 91.5t131.5 32.5q82 0 133 -33t51 -92q0 -74 -72 -98v-2q86 -20 86 -106q0 -66 -53 -104.5t-146 -38.5z" />
    <glyph glyph-name="uni2155" unicode="&#x2155;" horiz-adv-x="1299" 
d="M336 336h-93v276h-139v77h66q38 0 55.5 14t17.5 47v39h93v-453zM393 -15h-115l495 798h113zM992 -9q-69 0 -121 25.5t-77 72.5l87 36q32 -56 114 -56q50 0 79.5 23t29.5 62t-28.5 60t-78.5 21q-63 0 -107 -39l-84 22l48 235h320v-73h-253l-20 -100l2 -1q44 25 113 25
q85 0 132.5 -39.5t47.5 -109.5q0 -77 -54 -120.5t-150 -43.5z" />
    <glyph glyph-name="uni2156" unicode="&#x2156;" horiz-adv-x="1444" 
d="M510 336h-406q0 82 35 133t110 77l92 32q67 24 67 73q0 69 -101 69q-97 0 -110 -85l-89 11q9 70 61 111t140 41q90 0 140.5 -38t50.5 -107q0 -102 -127 -144l-77 -25q-76 -27 -78 -69h292v-79zM538 -15h-115l495 798h113zM1138 -9q-70 0 -121.5 25.5t-76.5 72.5l86 36
q32 -56 114 -56q50 0 79.5 23t29.5 62t-28.5 60t-78.5 21q-64 0 -107 -39l-84 22l49 235h319v-73h-253l-20 -100l2 -1q44 25 113 25q85 0 132.5 -39.5t47.5 -109.5q0 -77 -54 -120.5t-149 -43.5z" />
    <glyph glyph-name="uni2157" unicode="&#x2157;" horiz-adv-x="1424" 
d="M303 324q-175 0 -199 146l88 13q17 -83 113 -83q49 0 76 18t27 50q0 63 -102 63h-44v74h41q96 0 96 60q0 61 -98 61q-90 0 -108 -65l-87 13q15 59 66.5 91.5t131.5 32.5q82 0 133 -33t51 -92q0 -74 -72 -98v-2q86 -20 86 -106q0 -66 -53 -104.5t-146 -38.5zM518 -15h-115
l496 798h113zM1118 -9q-70 0 -121.5 25.5t-76.5 72.5l87 36q32 -56 113 -56q50 0 79.5 23t29.5 62t-28.5 60t-78.5 21q-62 0 -107 -39l-84 22l49 235h319v-73h-252l-21 -100l2 -1q46 25 113 25q85 0 132.5 -39.5t47.5 -109.5q0 -77 -53.5 -120.5t-149.5 -43.5z" />
    <glyph glyph-name="uni2158" unicode="&#x2158;" horiz-adv-x="1461" 
d="M457 336h-92v112l-261 -8v84l247 265h106v-279l72 9v-79l-72 8v-112zM555 -15h-115l495 798h114zM363 692l-166 -176l168 -6v182h-2zM1155 -9q-70 0 -121.5 25.5t-76.5 72.5l86 36q33 -56 114 -56q50 0 79.5 23t29.5 62t-28.5 60t-78.5 21q-62 0 -107 -39l-84 22l49 235
h319v-73h-252l-21 -100l2 -1q46 25 113 25q85 0 132.5 -39.5t47.5 -109.5q0 -77 -53.5 -120.5t-149.5 -43.5z" />
    <glyph glyph-name="uni2159" unicode="&#x2159;" horiz-adv-x="1278" 
d="M336 336h-93v276h-139v77h66q38 0 55.5 14t17.5 47v39h93v-453zM393 -15h-115l495 798h113zM980 -10q-99 0 -155 61t-56 166q0 116 55 180.5t159 64.5q129 0 179 -92l-79 -28q-32 47 -99 47q-58 0 -88 -34.5t-33 -108.5q46 52 138 52q80 0 127 -40t47 -107
q0 -73 -52.5 -117t-142.5 -44zM981 62q46 0 75.5 24.5t29.5 63.5q0 38 -28.5 60.5t-75.5 22.5q-39 0 -70.5 -20t-45.5 -53q18 -98 115 -98z" />
    <glyph glyph-name="uni215A" unicode="&#x215a;" horiz-adv-x="1388" 
d="M300 327q-69 0 -121 25.5t-77 72.5l87 36q32 -56 114 -56q50 0 79.5 23t29.5 62t-28 59.5t-79 20.5q-64 0 -107 -38l-84 22l48 235h320v-73h-253l-20 -101l2 -1q46 26 113 26q85 0 132.5 -39.5t47.5 -109.5q0 -77 -54 -120.5t-150 -43.5zM503 -15h-115l495 798h113z
M1090 -10q-100 0 -156 60.5t-56 166.5q0 116 55 180.5t160 64.5q129 0 179 -92l-80 -28q-32 47 -98 47q-114 0 -122 -143q49 52 139 52q80 0 127 -40t47 -107q0 -73 -52.5 -117t-142.5 -44zM1015 87q29 -25 76 -25q46 0 76 24q29 24 29 64q0 38 -28.5 60.5t-75.5 22.5
q-40 0 -71.5 -20t-44.5 -53q7 -49 39 -73z" />
    <glyph glyph-name="oneeighth" unicode="&#x215b;" horiz-adv-x="1312" 
d="M336 336h-93v276h-139v77h66q38 0 55.5 14t17.5 47v39h93v-453zM393 -15h-115l495 798h113zM997 -10q-99 0 -155.5 36.5t-56.5 102.5q0 41 25 70.5t66 38.5v1q-34 11 -54 37.5t-20 61.5q0 59 51 91.5t144 32.5t144.5 -32t51.5 -92q0 -35 -20 -61t-54 -38v-1
q40 -9 65 -38.5t25 -70.5q0 -66 -57 -102.5t-155 -36.5zM889 332q0 -61 108 -61t108 61q0 59 -108 59t-108 -59zM908 81q31 -19 89 -19t89 19q31 18 31 51q0 69 -120 69q-121 0 -121 -69q0 -33 32 -51z" />
    <glyph glyph-name="threeeighths" unicode="&#x215c;" horiz-adv-x="1437" 
d="M303 324q-175 0 -199 146l88 13q17 -83 113 -83q49 0 76 18t27 50q0 63 -102 63h-44v74h41q96 0 96 60q0 61 -98 61q-90 0 -108 -65l-87 13q15 59 66.5 91.5t131.5 32.5q82 0 133 -33t51 -92q0 -74 -72 -98v-2q86 -20 86 -106q0 -66 -53 -104.5t-146 -38.5zM518 -15h-115
l496 798h113zM1123 -10q-99 0 -156 36.5t-57 102.5q0 41 25 70.5t66 38.5v1q-34 11 -54 37.5t-20 61.5q0 59 51.5 91.5t144.5 32.5t144.5 -32t51.5 -92q0 -34 -20.5 -60.5t-54.5 -38.5v-1q41 -9 66 -38.5t25 -70.5q0 -66 -57.5 -102.5t-154.5 -36.5zM1123 271q108 0 108 61
q0 59 -108 59q-109 0 -109 -59q0 -61 109 -61zM1123 62q56 0 88 18.5t32 51.5q0 69 -120 69q-121 0 -121 -69q0 -33 32 -51.5t89 -18.5z" />
    <glyph glyph-name="fiveeighths" unicode="&#x215d;" horiz-adv-x="1422" 
d="M300 327q-69 0 -121 25.5t-77 72.5l87 36q32 -56 114 -56q50 0 79.5 23t29.5 62t-28 59.5t-79 20.5q-64 0 -107 -38l-84 22l48 235h320v-73h-253l-20 -101l2 -1q46 26 113 26q85 0 132.5 -39.5t47.5 -109.5q0 -77 -54 -120.5t-150 -43.5zM503 -15h-115l495 798h113z
M1107 -10q-99 0 -156 36.5t-57 102.5q0 41 25 70.5t66 38.5v1q-33 11 -53 37.5t-20 61.5q0 59 51 91.5t144 32.5t144.5 -32t51.5 -92q0 -35 -20 -61t-54 -38v-1q40 -9 65 -38.5t25 -70.5q0 -66 -57 -102.5t-155 -36.5zM999 332q0 -61 108 -61t108 61q0 59 -108 59t-108 -59z
M1018 81q31 -19 89 -19t89 19q31 18 31 51q0 69 -120 69q-121 0 -121 -69q0 -33 32 -51z" />
    <glyph glyph-name="seveneighths" unicode="&#x215e;" horiz-adv-x="1301" 
d="M293 336h-93q1 101 51 205q50 103 128 168h-275v80h385v-81q-191 -144 -196 -372zM382 -15h-115l495 798h113zM1141 26q-59 -36 -155 -36q-97 0 -154 36q-58 36 -58 103q0 41 25 70.5t66 38.5v1q-34 11 -54 37.5t-20 61.5q0 59 51.5 91.5t143.5 32.5q94 0 145.5 -32
t51.5 -92q0 -34 -20.5 -60.5t-54.5 -38.5v-1q40 -9 65 -38.5t25 -70.5q0 -67 -57 -103zM986 271q109 0 109 61q0 59 -109 59q-108 0 -108 -59q0 -61 108 -61zM986 62q57 0 89 18.5t32 51.5q0 69 -121 69t-121 -69q0 -33 32.5 -51.5t88.5 -18.5z" />
    <glyph glyph-name="arrowleft" unicode="&#x2190;" horiz-adv-x="938" 
d="M269 448h592v-130h-590l110 -139l134 -179h-148l-289 383l289 385h148l-134 -178z" />
    <glyph glyph-name="arrowup" unicode="&#x2191;" horiz-adv-x="913" 
d="M73 494l383 289l383 -289v-148l-177 134l-142 112v-592h-130v590l-139 -110l-178 -134v148z" />
    <glyph glyph-name="arrowright" unicode="&#x2192;" horiz-adv-x="938" 
d="M424 768h148l289 -385l-289 -383h-148l133 179l110 139h-589v130h591l-112 142z" />
    <glyph glyph-name="arrowdown" unicode="&#x2193;" horiz-adv-x="913" 
d="M520 176l142 112l177 134v-148l-383 -289l-383 289v148l178 -134l139 -110v590h130v-592z" />
    <glyph glyph-name="arrowboth" unicode="&#x2194;" horiz-adv-x="1243" 
d="M729 768h148l289 -385l-289 -383h-148l133 179l111 139h-702l110 -139l134 -179h-148l-289 383l289 385h148l-134 -178l-112 -142h705l-112 142z" />
    <glyph glyph-name="arrowupdn" unicode="&#x2195;" horiz-adv-x="915" 
d="M841 491l-178 134l-142 112v-706l142 112l178 134v-148l-384 -290l-384 290v148l179 -134l139 -110v702l-139 -110l-179 -134v148l384 290l384 -290v-148z" />
    <glyph glyph-name="uni2196" unicode="&#x2196;" horiz-adv-x="817" 
d="M280 590l500 -500l-90 -90l-499 501l6 -194v-262h-124v663h663v-123h-253z" />
    <glyph glyph-name="uni2197" unicode="&#x2197;" horiz-adv-x="817" 
d="M81 585v123h663v-663h-123v262l6 194l-500 -501l-90 90l500 500l-203 -5h-253z" />
    <glyph glyph-name="uni2198" unicode="&#x2198;" horiz-adv-x="817" 
d="M621 401v262h123v-663h-663v123h253l203 -5l-500 500l90 90l500 -501z" />
    <glyph glyph-name="uni2199" unicode="&#x2199;" horiz-adv-x="817" 
d="M780 618l-500 -500l203 5h253v-123h-663v663h124v-262l-6 -194l499 501z" />
    <glyph glyph-name="partialdiff" unicode="&#x2202;" horiz-adv-x="685" 
d="M321 785q287 0 287 -405q0 -191 -72 -293.5t-208 -102.5q-115 0 -183 71q-67 70 -67 186q0 115 66 182t171 67q87 0 160 -51q-9 125 -48.5 180.5t-116.5 55.5q-61 0 -143 -32l-39 102q99 40 193 40zM334 94q66 0 100.5 52.5t40.5 163.5q-53 77 -142 77q-60 0 -93.5 -37.5
t-33.5 -106.5t34 -109t94 -40z" />
    <glyph glyph-name="uni2206" unicode="&#x2206;" horiz-adv-x="791" 
d="M300 768h182l283 -768h-738zM375 625l-176 -519h388l-179 519l-16 59z" />
    <glyph glyph-name="product" unicode="&#x220f;" horiz-adv-x="845" 
d="M104 768h638v-972h-133v859h-372v-859h-133v972z" />
    <glyph glyph-name="summation" unicode="&#x2211;" horiz-adv-x="752" 
d="M525 288l-300 -382h450v-110h-597v100l310 392l-297 380v100h572v-110h-424z" />
    <glyph glyph-name="minus" unicode="&#x2212;" 
d="M652 285h-549v110h549v-110z" />
    <glyph glyph-name="uni2215" unicode="&#x2215;" horiz-adv-x="398" 
d="M10 -15h-115l495 798h113z" />
    <glyph glyph-name="uni2219" unicode="&#x2219;" horiz-adv-x="483" 
d="M389 165h-295v271h295v-271z" />
    <glyph glyph-name="radical" unicode="&#x221a;" 
d="M510 -204h-166l-117 320l-114 -43l-35 95l212 79l129 -359l188 915h110z" />
    <glyph glyph-name="infinity" unicode="&#x221e;" horiz-adv-x="866" 
d="M237 163q-78 0 -125 50.5t-47 132.5q0 83 47 133.5t123 50.5q53 0 99 -29t99 -91q57 64 101 92.5t96 28.5q76 0 123.5 -50.5t47.5 -133.5q0 -84 -46.5 -134.5t-124.5 -50.5q-52 0 -98 28.5t-99 87.5q-56 -62 -100 -88.5t-96 -26.5zM628 259q35 0 56.5 23t21.5 63
q0 42 -21.5 66t-59.5 24q-55 0 -131 -90q68 -86 134 -86zM240 259q62 0 133 86q-76 88 -135 88q-35 0 -56 -24.5t-21 -63.5t21.5 -62.5t57.5 -23.5z" />
    <glyph glyph-name="integral" unicode="&#x222b;" 
d="M268 -204h-58v111h35q38 0 53 16.5t15 58.5v643q0 178 175 178h59v-111h-36q-38 0 -53 -17t-15 -58v-643q0 -178 -175 -178z" />
    <glyph glyph-name="approxequal" unicode="&#x2248;" 
d="M211 383h-109q0 94 41 144.5t114 50.5q41 1 88.5 -21.5t85.5 -45t58 -20.5q56 0 56 87h109q0 -93 -40.5 -144t-113.5 -51q-41 -2 -88 21t-85.5 46t-59.5 21q-56 0 -56 -88zM211 117h-109q0 94 40.5 144t114.5 50q70 0 133 -43q62 -44 99 -44q56 0 56 87h109
q0 -93 -40.5 -143.5t-113.5 -50.5q-41 -2 -88 21t-85.5 46t-59.5 21q-56 0 -56 -88z" />
    <glyph glyph-name="notequal" unicode="&#x2260;" 
d="M652 512v-103h-201l-60 -139h261v-103h-305l-78 -184l-64 23l69 161h-171v103h214l60 139h-274v103h317l80 187l64 -24l-69 -163h157z" />
    <glyph glyph-name="lessequal" unicode="&#x2264;" 
d="M103 495l549 164v-110l-451 -120l451 -119v-110l-549 163v132zM652 -3h-549v109h549v-109z" />
    <glyph glyph-name="greaterequal" unicode="&#x2265;" 
d="M104 549v110l549 -164v-132l-549 -163v110l451 119zM653 -3h-549v109h549v-109z" />
    <glyph glyph-name="uni2460" unicode="&#x2460;" horiz-adv-x="1223" 
d="M612 -117q-230 0 -382 149t-152 375q0 227 152 376t382 149q231 0 383 -149q151 -148 151 -376q0 -227 -151 -375q-150 -149 -383 -149zM301 98q123 -123 311 -123t311 123q122 122 122 309t-122 311q-124 122 -311 122t-311 -122q-123 -123 -123 -311q0 -187 123 -309z
M693 162h-101v303h-154v86h72q42 0 62 15.5t20 50.5v43h101v-498z" />
    <glyph glyph-name="uni2461" unicode="&#x2461;" horiz-adv-x="1223" 
d="M612 -117q-230 0 -382 149t-152 375q0 227 152 376t382 149q231 0 383 -149q151 -148 151 -376q0 -227 -151 -375q-150 -149 -383 -149zM301 98q123 -123 311 -123t311 123q122 122 122 309t-122 311q-124 122 -311 122t-311 -122q-123 -123 -123 -311q0 -187 123 -309z
M840 173h-446q0 90 38.5 145.5t121.5 85.5l100 35q75 27 75 80q0 76 -112 76q-108 0 -121 -94l-99 13q9 77 67 122t156 45q99 0 154 -41.5t55 -117.5q0 -113 -139 -159l-85 -28q-85 -29 -86 -75h321v-87z" />
    <glyph glyph-name="uni2462" unicode="&#x2462;" horiz-adv-x="1223" 
d="M612 -117q-230 0 -382 149t-152 375q0 227 152 376t382 149q231 0 383 -149q151 -148 151 -376q0 -227 -151 -375q-150 -149 -383 -149zM301 98q123 -123 311 -123t311 123q122 122 122 309t-122 311q-124 122 -311 122t-311 -122q-123 -123 -123 -311q0 -187 123 -309z
M616 149q-95 0 -151 41t-68 119l98 15q18 -92 124 -92q53 0 83 20t30 56q0 68 -112 68h-49v82h45q106 0 106 65q0 68 -108 68q-100 0 -119 -72l-95 15q17 65 73 100.5t144 35.5q91 0 147 -36.5t56 -101.5q0 -80 -80 -107v-2q95 -23 95 -117q0 -72 -58.5 -114.5t-160.5 -42.5
z" />
    <glyph glyph-name="uni2463" unicode="&#x2463;" horiz-adv-x="1223" 
d="M612 -117q-230 0 -382 149t-152 375q0 227 152 376t382 149q231 0 383 -149q151 -148 151 -376q0 -227 -151 -375q-150 -149 -383 -149zM301 98q123 -123 311 -123t311 123q122 122 122 309t-122 311q-124 122 -311 122t-311 -122q-123 -123 -123 -311q0 -187 123 -309z
M752 167h-102v123l-287 -8v92l272 291h117v-306l79 10v-87l-79 8v-123zM466 365l184 -6v200h-2z" />
    <glyph glyph-name="uni2464" unicode="&#x2464;" horiz-adv-x="1223" 
d="M612 -117q-230 0 -382 149t-152 375q0 227 152 376t382 149q231 0 383 -149q151 -148 151 -376q0 -227 -151 -375q-150 -149 -383 -149zM301 98q123 -123 311 -123t311 123q122 122 122 309t-122 311q-124 122 -311 122t-311 -122q-123 -123 -123 -311q0 -187 123 -309z
M610 150q-77 0 -133.5 28.5t-83.5 80.5l95 39q35 -62 124 -62q56 0 88.5 25.5t32.5 68.5q0 42 -31.5 65.5t-86.5 23.5q-71 0 -117 -43l-93 24l54 258h351v-80h-278l-23 -110l3 -1q50 28 124 28q93 0 145.5 -43.5t52.5 -121.5q0 -84 -59.5 -132t-164.5 -48z" />
    <glyph glyph-name="uni2465" unicode="&#x2465;" horiz-adv-x="1223" 
d="M612 -117q-230 0 -382 149t-152 375q0 227 152 376t382 149q231 0 383 -149q151 -148 151 -376q0 -227 -151 -375q-150 -149 -383 -149zM301 98q123 -123 311 -123t311 123q122 122 122 309t-122 311q-124 122 -311 122t-311 -122q-123 -123 -123 -311q0 -187 123 -309z
M623 150q-110 0 -172 67t-62 182q0 128 60.5 199t176.5 71q142 0 196 -101l-87 -30q-35 50 -109 50q-64 0 -96.5 -37.5t-36.5 -118.5q51 56 151 56q90 0 141 -43.5t51 -118.5q0 -80 -57.5 -128t-155.5 -48zM624 229q51 0 82.5 26.5t31.5 70.5q0 42 -31 66.5t-83 24.5
q-44 0 -78.5 -22t-49.5 -58q20 -108 128 -108z" />
    <glyph glyph-name="uni2466" unicode="&#x2466;" horiz-adv-x="1223" 
d="M612 -117q-230 0 -382 149t-152 375q0 227 152 376t382 149q231 0 383 -149q151 -148 151 -376q0 -227 -151 -375q-150 -149 -383 -149zM301 98q123 -123 311 -123t311 123q122 122 122 309t-122 311q-124 122 -311 122t-311 -122q-123 -123 -123 -311q0 -187 123 -309z
M617 139h-102q3 113 57 225q51 110 140 185h-303v88h424v-89q-210 -157 -216 -409z" />
    <glyph glyph-name="uni2467" unicode="&#x2467;" horiz-adv-x="1223" 
d="M612 -117q-230 0 -382 149t-152 375q0 227 152 376t382 149q231 0 383 -149q151 -148 151 -376q0 -227 -151 -375q-150 -149 -383 -149zM301 98q123 -123 311 -123t311 123q122 122 122 309t-122 311q-124 122 -311 122t-311 -122q-123 -123 -123 -311q0 -187 123 -309z
M619 153q-109 0 -171.5 40t-62.5 113q0 45 27.5 77t73.5 43v1q-37 11 -59.5 40.5t-22.5 67.5q0 66 56.5 101.5t158.5 35.5q103 0 159.5 -35.5t56.5 -101.5q0 -37 -22.5 -66t-59.5 -42v-1q45 -11 72 -43t27 -77q0 -72 -62.5 -112.5t-170.5 -40.5zM529 478q28 -16 90 -16
q63 0 91 16t28 51q0 65 -119 65t-119 -65q0 -34 29 -51zM619 232q63 0 98 20.5t35 56.5q0 77 -133 77t-133 -77q0 -36 35.5 -56.5t97.5 -20.5z" />
    <glyph glyph-name="uni2468" unicode="&#x2468;" horiz-adv-x="1223" 
d="M612 -117q-230 0 -382 149t-152 375q0 227 152 376t382 149q231 0 383 -149q151 -148 151 -376q0 -227 -151 -375q-150 -149 -383 -149zM301 98q123 -123 311 -123t311 123q122 122 122 309t-122 311q-124 122 -311 122t-311 -122q-123 -123 -123 -311q0 -187 123 -309z
M614 150q-142 0 -197 102l88 30q35 -51 109 -51q64 0 96.5 38t36.5 119q-54 -57 -153 -57q-87 0 -139.5 44.5t-52.5 117.5q0 80 58 128t157 48q110 0 171.5 -66.5t61.5 -182.5q0 -129 -60.5 -199.5t-175.5 -70.5zM616 402q43 0 78 22.5t49 58.5q-20 107 -127 107
q-51 0 -83 -26.5t-32 -70.5q0 -42 31 -66.5t84 -24.5z" />
    <glyph glyph-name="uni24EA" unicode="&#x24ea;" horiz-adv-x="1223" 
d="M612 -117q-230 0 -382 149t-152 375q0 227 152 376t382 149q231 0 383 -149q151 -148 151 -376q0 -227 -151 -375q-150 -149 -383 -149zM301 98q123 -123 311 -123t311 123q122 122 122 309t-122 311q-124 122 -311 122t-311 -122q-123 -123 -123 -311q0 -187 123 -309z
M782 219q-60 -68 -170 -68t-170 68q-61 67 -61 192t61 192q60 67 170 67t170 -67t60 -192t-60 -192zM516 282q35 -44 96 -44t96 44q33 44 33 129t-33 130q-35 44 -96 44t-96 -44q-34 -44 -34 -130t34 -129z" />
    <glyph glyph-name="uni24FF" unicode="&#x24ff;" horiz-adv-x="1223" 
d="M612 -117q-230 0 -382 149t-152 375q0 227 152 376t382 149q231 0 383 -149q151 -148 151 -376q0 -227 -151 -375q-150 -149 -383 -149zM442 219q60 -68 170 -68t170 68q60 67 60 192t-60 192t-170 67t-170 -67q-61 -67 -61 -192t61 -192zM708 282q-35 -44 -96 -44
t-96 44q-34 43 -34 129t34 130q35 44 96 44t96 -44q33 -45 33 -130t-33 -129z" />
    <glyph glyph-name="filledbox" unicode="&#x25a0;" horiz-adv-x="1169" 
d="M1066 -88h-962v941h962v-941z" />
    <glyph glyph-name="uni25A1" unicode="&#x25a1;" horiz-adv-x="1169" 
d="M1066 -88h-962v941h962v-941zM206 760v-755h757v755h-757z" />
    <glyph glyph-name="lozenge" unicode="&#x25ca;" horiz-adv-x="654" 
d="M246 768h162l194 -384l-194 -384h-162l-194 384zM173 384l154 -320l154 320l-154 320z" />
    <glyph glyph-name="circle" unicode="&#x25cb;" horiz-adv-x="1223" 
d="M612 -117q-230 0 -382 149t-152 375q0 227 152 376t382 149q231 0 383 -149q151 -148 151 -376q0 -227 -151 -375q-150 -149 -383 -149zM301 98q123 -123 311 -123t311 123q122 122 122 309t-122 311q-124 122 -311 122t-311 -122q-123 -123 -123 -311q0 -187 123 -309z
" />
    <glyph glyph-name="uni25CF" unicode="&#x25cf;" horiz-adv-x="1223" 
d="M612 -117q-230 0 -382 149t-152 375q0 227 152 376t382 149q231 0 383 -149q151 -148 151 -376q0 -227 -151 -375q-150 -149 -383 -149z" />
    <glyph glyph-name="uni2776" unicode="&#x2776;" horiz-adv-x="1223" 
d="M612 -117q-230 0 -382 149t-152 375q0 227 152 376t382 149q231 0 383 -149q151 -148 151 -376q0 -227 -151 -375q-150 -149 -383 -149zM590 465v-303h102v498h-102v-43q0 -35 -19.5 -50.5t-61.5 -15.5h-72v-86h153z" />
    <glyph glyph-name="uni2777" unicode="&#x2777;" horiz-adv-x="1223" 
d="M612 932q231 0 383 -149q151 -148 151 -376q0 -227 -151 -375q-150 -149 -383 -149q-230 0 -382 149t-152 375q0 227 152 376t382 149zM390 177h446v87h-321q1 45 87 75l84 28q140 47 140 159q0 76 -55.5 117.5t-154.5 41.5q-97 0 -155 -45t-67 -122l99 -13q13 94 121 94
q111 0 111 -76q0 -53 -74 -80l-101 -35q-82 -30 -121 -85.5t-39 -145.5z" />
    <glyph glyph-name="uni2778" unicode="&#x2778;" horiz-adv-x="1223" 
d="M612 -119q-230 0 -382 149t-152 375q0 227 152 376t382 149q231 0 383 -149q151 -148 151 -376q0 -227 -151 -375q-150 -149 -383 -149zM617 147q102 0 160.5 42.5t58.5 115.5q0 93 -95 116v2q80 27 80 108q0 65 -56 101.5t-147 36.5q-88 0 -144 -35.5t-73 -101.5l95 -14
q21 72 119 72q51 0 79.5 -17.5t28.5 -50.5q0 -65 -106 -65h-45v-82h49q112 0 112 -69q0 -35 -30 -55t-83 -20q-56 0 -85.5 22t-38.5 70l-98 -15q12 -78 68 -119.5t151 -41.5z" />
    <glyph glyph-name="uni2779" unicode="&#x2779;" horiz-adv-x="1223" 
d="M612 -117q-230 0 -382 149t-152 375q0 227 152 376t382 149q231 0 383 -149q151 -148 151 -376q0 -227 -151 -375q-150 -149 -383 -149zM646 295v-124h102v124l79 -9v87l-79 -10v306h-117l-272 -291v-92zM646 564v-201l-184 7l182 194h2z" />
    <glyph glyph-name="uni277A" unicode="&#x277a;" horiz-adv-x="1223" 
d="M612 932q231 0 383 -149q151 -148 151 -376q0 -227 -151 -375q-150 -149 -383 -149q-230 0 -382 149t-152 375q0 227 152 376t382 149zM612 148q105 0 164 48.5t59 132.5q0 78 -52 121t-146 43q-74 0 -124 -28l-2 2l22 109h278v81h-351l-53 -258l92 -25q46 43 118 43
q55 0 86.5 -23t31.5 -66t-33 -68.5t-88 -25.5q-90 0 -125 62l-95 -39q28 -52 85 -80.5t133 -28.5z" />
    <glyph glyph-name="uni277B" unicode="&#x277b;" horiz-adv-x="1223" 
d="M612 -117q-230 0 -382 149t-152 375q0 227 152 376t382 149q231 0 383 -149q151 -148 151 -376q0 -227 -151 -375q-150 -149 -383 -149zM622 152q98 0 155.5 48t57.5 128q0 73 -51.5 117.5t-140.5 44.5q-99 0 -151 -57q4 81 36.5 119t96.5 38q75 0 109 -51l87 31
q-55 100 -196 100q-116 0 -176.5 -70t-60.5 -200q0 -115 61.5 -181.5t172.5 -66.5zM623 231q-108 0 -128 107q15 36 49.5 58t78.5 22q52 0 83 -24.5t31 -66.5q0 -44 -31.5 -70t-82.5 -26z" />
    <glyph glyph-name="uni277C" unicode="&#x277c;" horiz-adv-x="1223" 
d="M612 -117q-230 0 -382 149t-152 375q0 227 152 376t382 149q231 0 383 -149q151 -148 151 -376q0 -227 -151 -375q-150 -149 -383 -149zM511 144h101q6 251 216 410v88h-424v-87h303q-88 -74 -140 -186q-55 -114 -56 -225z" />
    <glyph glyph-name="uni277D" unicode="&#x277d;" horiz-adv-x="1223" 
d="M612 -117q-230 0 -382 149t-152 375q0 227 152 376t382 149q231 0 383 -149q151 -148 151 -376q0 -227 -151 -375q-150 -149 -383 -149zM442 192q62 -40 170 -40t170 40q63 40 63 113q0 46 -27 78t-72 42v1q37 13 59.5 42t22.5 67q0 66 -56.5 101t-159.5 35
q-102 0 -158 -35.5t-56 -100.5q0 -39 22.5 -68.5t58.5 -40.5v-1q-46 -10 -73.5 -42.5t-27.5 -77.5q0 -73 64 -113zM612 461q-119 0 -119 67q0 65 119 65t119 -65q0 -35 -28.5 -51t-90.5 -16zM612 231q-62 0 -97 20.5t-35 57.5q0 76 132 76q133 0 133 -76q0 -37 -35 -57.5
t-98 -20.5z" />
    <glyph glyph-name="uni277E" unicode="&#x277e;" horiz-adv-x="1223" 
d="M612 -117q-230 0 -382 149t-152 375q0 227 152 376t382 149q231 0 383 -149q151 -148 151 -376q0 -227 -151 -375q-150 -149 -383 -149zM611 150q115 0 175 71t60 199q0 115 -61 181.5t-171 66.5q-99 0 -157 -48t-58 -128q0 -73 51.5 -117.5t140.5 -44.5q99 0 152 57
q-4 -81 -36.5 -119t-96.5 -38q-75 0 -109 52l-87 -31q54 -101 197 -101zM612 402q-52 0 -83 24.5t-31 66.5q0 44 32 70t83 26t84.5 -27t42.5 -79q-15 -37 -49.5 -59t-78.5 -22z" />
    <glyph glyph-name="uni2E18" unicode="&#x2e18;" horiz-adv-x="748" 
d="M306 548h150v-135h-150v135zM559 21l126 -9q-21 -235 -306 -235q-142 0 -222 57t-80 161q0 123 126 188l48 26q52 25 70 51q17 26 24 88h74l18 -251v-105h-112v105l5 58q-9 -6 -33 -20q-52 -29 -73 -59.5t-21 -70.5q0 -124 176 -124q89 0 132 34.5t48 105.5z" />
    <glyph glyph-name="uniF8FF" unicode="&#xf8ff;" horiz-adv-x="1327" 
d="M640 672v-191h-70v179q0 34 -15 47q-16 16 -39 16q-52 0 -68 -58v-184h-70v410h70v-152q34 42 87 42q49 0 77 -28t28 -81zM1115 891h69v-410h-69v410zM956 566l61 -12q-37 -82 -137 -82q-70 0 -110.5 42t-40.5 112q0 71 39.5 113.5t109.5 42.5q71 0 108.5 -42t37.5 -115
v-15h-227q6 -85 85 -85q51 0 74 41zM798 653h159q-9 80 -80 80t-79 -80zM1224 297v-7q-1 -6 -1 -8h-227q6 -86 85 -86q51 0 74 42l61 -12q-37 -82 -137 -82q-70 0 -110 42t-40 112q0 71 39 113.5t109 42.5t108.5 -42.5t38.5 -114.5zM748 261l61 184h69l-106 -292h-82
l-108 292h73l62 -184l16 -55q1 6 15 55zM997 325h159q-9 80 -80 80t-79 -80zM492 175h-69v70h69v-70zM238 200v-66l-3 -25l97 5v-49l-98 4l4 -44v-109q0 -38 36 -38h58v-56h-73q-89 0 -89 84v119l4 44l-70 -4v49l69 -4l-3 24v66h68zM727 -130q55 0 69 60l65 -7
q-11 -52 -46 -80t-89 -28q-67 0 -105.5 41t-38.5 112q0 72 37 113t105 41q112 0 136 -98l-66 -8q-13 52 -69 52q-74 0 -74 -99t76 -99zM1078 122q124 0 124 -95v-146v-59h-56q0 4 -3 18t-4 18q-33 -45 -101 -45q-47 0 -76 23.5t-29 63.5t27 61t88 31l65 13q13 1 22 7v13
q0 25 -12.5 36.5t-47.5 11.5t-50.5 -11.5t-19.5 -40.5l-60 7q12 94 133 94zM492 -178h-69v292h69v-292zM1058 -141q56 0 76 47v62q-7 -3 -19 -5l-55 -11q-58 -10 -58 -48q0 -45 56 -45z" />
    <glyph glyph-name="uniFEFF" unicode="&#xfeff;" horiz-adv-x="0" 
 />
    <glyph glyph-name="null" horiz-adv-x="0" 
 />
    <glyph glyph-name="Adieresis.ss01" horiz-adv-x="791" 
d="M269 876q-33 0 -54 21t-21 54q0 32 21 52.5t54 20.5q32 0 53 -20.5t21 -52.5q0 -33 -21 -54t-53 -21zM523 876q-32 0 -53 21t-21 54q0 32 21 52.5t53 20.5q33 0 54 -20.5t21 -52.5q0 -33 -21 -54t-54 -21zM765 0h-142l-59 172h-343l-58 -172h-136l273 768h182zM375 625
l-118 -347h270l-119 347l-16 62z" />
    <glyph glyph-name="Cdotaccent.ss01" horiz-adv-x="845" 
d="M443 876q-33 0 -54 21t-21 54q0 32 21 52.5t54 20.5q32 0 53 -20.5t21 -52.5q0 -33 -21 -54t-53 -21zM445 -18q-163 0 -265 109t-102 294q0 187 103 293q104 107 266 107q131 0 218.5 -61t120.5 -175l-128 -14q-52 138 -211 138q-109 0 -171.5 -74t-62.5 -210
q0 -138 63 -215t171 -77q175 0 219 159l124 -14q-31 -123 -122 -191.5t-223 -68.5z" />
    <glyph glyph-name="Edieresis.ss01" horiz-adv-x="715" 
d="M251 876q-33 0 -54 21t-21 54q0 32 21 52.5t54 20.5q32 0 53 -20.5t21 -52.5q0 -33 -21 -54t-53 -21zM505 876q-32 0 -53 21t-21 54q0 32 21 52.5t53 20.5q33 0 54 -20.5t21 -52.5q0 -33 -21 -54t-54 -21zM235 341v-231h420v-110h-551v768h547v-110h-416v-210h382v-107
h-382z" />
    <glyph glyph-name="Edotaccent.ss01" horiz-adv-x="715" 
d="M378 876q-33 0 -54 21t-21 54q0 32 21 52.5t54 20.5q32 0 53 -20.5t21 -52.5q0 -33 -21 -54t-53 -21zM235 341v-231h420v-110h-551v768h547v-110h-416v-210h382v-107h-382z" />
    <glyph glyph-name="uni0122.ss01" horiz-adv-x="891" 
d="M457 309v100h331v-409h-76l-30 131q-67 -148 -249 -148q-163 0 -259 112q-96 111 -96 289q0 182 97 291q96 110 277 110q123 0 208.5 -59t120.5 -168l-129 -22q-57 139 -205 139q-109 0 -171 -76.5t-62 -213.5q0 -139 62.5 -215.5t178.5 -76.5q82 0 137 39t76 113v76z
M441 -82q88 0 88 -89v-27q0 -104 -120 -104h-30v48h40q57 0 57 48v8q-14 -3 -33 -3q-78 0 -78 59q0 28 20 44t56 16z" />
    <glyph glyph-name="Gdotaccent.ss01" horiz-adv-x="891" 
d="M444 876q-33 0 -54 21t-21 54q0 32 21 52.5t54 20.5q32 0 53 -20.5t21 -52.5q0 -33 -21 -54t-53 -21zM457 309v100h331v-409h-76l-30 131q-67 -148 -249 -148q-163 0 -259 112q-96 111 -96 289q0 182 97 291q96 110 277 110q123 0 208.5 -59t120.5 -168l-129 -22
q-57 139 -205 139q-109 0 -171 -76.5t-62 -213.5q0 -139 62.5 -215.5t178.5 -76.5q82 0 137 39t76 113v76z" />
    <glyph glyph-name="Idieresis.ss01" horiz-adv-x="340" 
d="M97 897q-24 -20 -54 -21t-53.5 21t-20.5 54q0 32 21 52.5t53 20.5t53.5 -20.5t21.5 -52.5q0 -33 -21 -54zM352 897q-24 -20 -54 -21t-53.5 21t-20.5 54q0 32 21 52.5t53 20.5t53.5 -20.5t21.5 -52.5q0 -33 -21 -54zM237 0h-133v768h133v-768z" />
    <glyph glyph-name="Idotaccent.ss01" horiz-adv-x="340" 
d="M171 876q-34 0 -55 21t-21 54q0 32 21 52.5t55 20.5q32 0 53 -20.5t21 -52.5q0 -33 -21 -54t-53 -21zM237 0h-133v768h133v-768z" />
    <glyph glyph-name="uni0136.ss01" horiz-adv-x="772" 
d="M726 769l-289 -327l317 -442h-157l-243 367l-117 -131v-236h-133v769h133v-395l328 395h161zM399 -82q89 0 89 -89v-27q0 -104 -120 -104h-31v48h40q58 0 58 48v9q-11 -4 -33 -4q-78 0 -78 59q0 60 75 60z" />
    <glyph glyph-name="uni013B.ss01" horiz-adv-x="662" 
d="M239 768v-657h380v-111h-515v768h135zM363 -82q89 0 89 -89v-27q0 -104 -120 -104h-31v48h40q58 0 58 48v9q-11 -4 -33 -4q-78 0 -78 59q0 60 75 60z" />
    <glyph glyph-name="Ldot.ss01" horiz-adv-x="662" 
d="M239 768v-657h380v-111h-515v768h135zM520 351q-24 -23 -62 -23t-62 23t-24 60q0 36 24 59.5t62 23.5q37 0 61.5 -23.5t24.5 -59.5q0 -37 -24 -60z" />
    <glyph glyph-name="uni0145.ss01" horiz-adv-x="901" 
d="M674 120v649h124v-769h-184l-387 648v-648h-123v769h185zM444 -82q89 0 89 -89v-27q0 -104 -120 -104h-31v48h40q58 0 58 48v9q-11 -4 -33 -4q-78 0 -78 59q0 60 75 60z" />
    <glyph glyph-name="Odieresis.ss01" horiz-adv-x="914" 
d="M330 886q-33 0 -54 21t-21 54q0 32 21 52.5t54 20.5q32 0 53 -20.5t21 -52.5q0 -33 -21 -54t-53 -21zM584 886q-32 0 -53 21t-21 54q0 32 21 52.5t53 20.5q33 0 54 -20.5t21 -52.5q0 -33 -21 -54t-54 -21zM457 -17q-171 0 -275 111q-104 110 -104 290q0 179 104 291
q104 110 275 110q173 0 277 -110q103 -110 103 -291t-103 -290q-104 -111 -277 -111zM457 92q116 0 181 78t65 214t-65 214t-181 78t-181 -78t-65 -214t65.5 -214t180.5 -78z" />
    <glyph glyph-name="uni0156.ss01" horiz-adv-x="794" 
d="M678 225l39 -225h-129l-28 180q-11 72 -41.5 101.5t-94.5 29.5h-189v-311h-131v768h381q108 0 167.5 -52t59.5 -145q0 -147 -162 -203q107 -24 128 -143zM235 416h174q82 0 126 34.5t44 100.5q0 112 -142 112h-202v-247zM404 -82q89 0 89 -89v-27q0 -104 -120 -104h-31
v48h40q58 0 58 48v9q-11 -4 -33 -4q-78 0 -78 59q0 60 75 60z" />
    <glyph glyph-name="uni0218.ss01" horiz-adv-x="776" 
d="M371 465l94 -19q132 -28 191 -80.5t59 -139.5q0 -117 -86.5 -181t-239.5 -64q-285 0 -327 229l132 15q25 -139 200 -139q90 0 138 31.5t48 89.5q0 50 -35.5 77t-114.5 43l-101 20q-121 24 -177 76t-56 142q0 106 78 165t221 59q269 0 309 -204l-129 -15q-12 60 -56 88
t-127 28q-78 0 -119.5 -28t-41.5 -81q0 -48 29.5 -72t110.5 -40zM399 -91q89 0 89 -89v-27q0 -104 -120 -104h-31v48h40q58 0 58 48v9q-11 -4 -33 -4q-78 0 -78 59q0 60 75 60z" />
    <glyph glyph-name="uni021A.ss01" horiz-adv-x="680" 
d="M35 658v110h610v-110h-238v-658h-134v658h-238zM333 -82q89 0 89 -89v-27q0 -104 -120 -104h-31v48h40q58 0 58 48v9q-11 -4 -33 -4q-78 0 -78 59q0 60 75 60z" />
    <glyph glyph-name="Udieresis.ss01" horiz-adv-x="837" 
d="M292 876q-33 0 -54 21t-21 54q0 32 21 52.5t54 20.5q32 0 53 -20.5t21 -52.5q0 -33 -21 -54t-53 -21zM546 876q-32 0 -53 21t-21 54q0 32 21 52.5t53 20.5q33 0 54 -20.5t21 -52.5q0 -33 -21 -54t-54 -21zM734 768v-495q0 -290 -315 -290t-315 290v495h137v-498
q0 -89 42.5 -130t135.5 -41t135.5 41t42.5 130v498h137z" />
    <glyph glyph-name="Wdieresis.ss01" horiz-adv-x="1169" 
d="M450 876q-33 0 -54 21t-21 54q0 32 21 52.5t54 20.5q32 0 53 -20.5t21 -52.5q0 -33 -21 -54t-53 -21zM704 876q-32 0 -53 21t-21 54q0 32 21 52.5t53 20.5q33 0 54 -20.5t21 -52.5q0 -33 -21 -54t-54 -21zM858 210l157 558h127l-227 -768h-163l-171 658l-164 -658h-162
l-228 768h128l156 -558l26 -124l22 124l137 558h178l136 -558l22 -124z" />
    <glyph glyph-name="Ydieresis.ss01" horiz-adv-x="727" 
d="M237 876q-33 0 -54 21t-21 54q0 32 21 52.5t54 20.5q32 0 53 -20.5t21 -52.5q0 -33 -21 -54t-53 -21zM491 876q-32 0 -53 21t-21 54q0 32 21 52.5t53 20.5q33 0 54 -20.5t21 -52.5q0 -33 -21 -54t-54 -21zM388 455l180 314h141l-277 -462v-307h-134v307l-279 462h145
l180 -315l22 -42z" />
    <glyph glyph-name="Zdotaccent.ss01" horiz-adv-x="770" 
d="M386 876q-33 0 -54 21t-21 54q0 32 21 52.5t54 20.5q32 0 53 -20.5t21 -52.5q0 -33 -21 -54t-53 -21zM691 677l-448 -568h456v-109h-626v92l440 566h-422v110h600v-91z" />
    <glyph glyph-name="G.ss03" horiz-adv-x="868" 
d="M440 310v108h350v-34q0 -188 -94 -294q-95 -107 -253 -107q-164 0 -264 109q-101 109 -101 292t97 292q96 109 266 109q126 0 212.5 -62t116.5 -169l-125 -21q-19 67 -73.5 105t-130.5 38q-107 0 -167.5 -76.5t-60.5 -211.5q0 -139 62.5 -218.5t169.5 -79.5
q92 0 150.5 57.5t69.5 162.5h-225z" />
    <glyph glyph-name="uni01F4.ss03" horiz-adv-x="868" 
d="M477 1049h155l-152 -172h-114zM440 310v108h350v-34q0 -188 -94 -294q-95 -107 -253 -107q-164 0 -264 109q-101 109 -101 292t97 292q96 109 266 109q126 0 212.5 -62t116.5 -169l-125 -21q-19 67 -73.5 105t-130.5 38q-107 0 -167.5 -76.5t-60.5 -211.5
q0 -139 62.5 -218.5t169.5 -79.5q92 0 150.5 57.5t69.5 162.5h-225z" />
    <glyph glyph-name="Gbreve.ss03" horiz-adv-x="868" 
d="M440 868q-98 0 -144 41t-48 125h86q3 -84 107 -84t107 84h86q-2 -84 -48.5 -125t-145.5 -41zM440 310v108h350v-34q0 -188 -94 -294q-95 -107 -253 -107q-164 0 -264 109q-101 109 -101 292t97 292q96 109 266 109q126 0 212.5 -62t116.5 -169l-125 -21q-19 67 -73.5 105
t-130.5 38q-107 0 -167.5 -76.5t-60.5 -211.5q0 -139 62.5 -218.5t169.5 -79.5q92 0 150.5 57.5t69.5 162.5h-225z" />
    <glyph glyph-name="Gcircumflex.ss03" horiz-adv-x="868" 
d="M531 869l-90 116l-90 -116h-113l140 182h121l146 -182h-114zM440 310v108h350v-34q0 -188 -94 -294q-95 -107 -253 -107q-164 0 -264 109q-101 109 -101 292t97 292q96 109 266 109q126 0 212.5 -62t116.5 -169l-125 -21q-19 67 -73.5 105t-130.5 38q-107 0 -167.5 -76.5
t-60.5 -211.5q0 -139 62.5 -218.5t169.5 -79.5q92 0 150.5 57.5t69.5 162.5h-225z" />
    <glyph glyph-name="uni0122.ss03" horiz-adv-x="868" 
d="M440 310v108h350v-34q0 -188 -94 -294q-95 -107 -253 -107q-164 0 -264 109q-101 109 -101 292t97 292q96 109 266 109q126 0 212.5 -62t116.5 -169l-125 -21q-19 67 -73.5 105t-130.5 38q-107 0 -167.5 -76.5t-60.5 -211.5q0 -139 62.5 -218.5t169.5 -79.5
q92 0 150.5 57.5t69.5 162.5h-225zM458 -177l-105 -23v106h162v-99q0 -59 -30.5 -84.5t-97.5 -25.5h-34v54h36q38 0 53.5 13t15.5 47v12z" />
    <glyph glyph-name="Gdotaccent.ss03" horiz-adv-x="868" 
d="M374 1013h134v-131h-134v131zM440 310v108h350v-34q0 -188 -94 -294q-95 -107 -253 -107q-164 0 -264 109q-101 109 -101 292t97 292q96 109 266 109q126 0 212.5 -62t116.5 -169l-125 -21q-19 67 -73.5 105t-130.5 38q-107 0 -167.5 -76.5t-60.5 -211.5
q0 -139 62.5 -218.5t169.5 -79.5q92 0 150.5 57.5t69.5 162.5h-225z" />
    <glyph glyph-name="uni0122.ss01.ss03" horiz-adv-x="868" 
d="M440 310v108h350v-34q0 -188 -94 -294q-95 -107 -253 -107q-164 0 -264 109q-101 109 -101 292t97 292q96 109 266 109q126 0 212.5 -62t116.5 -169l-125 -21q-19 67 -73.5 105t-130.5 38q-107 0 -167.5 -76.5t-60.5 -211.5q0 -139 62.5 -218.5t169.5 -79.5
q92 0 150.5 57.5t69.5 162.5h-225zM426 -82q89 0 89 -89v-27q0 -104 -120 -104h-30v48h39q58 0 58 48v9q-11 -4 -33 -4q-78 0 -78 59q0 28 20 44t55 16z" />
    <glyph glyph-name="Gdotaccent.ss01.ss03" horiz-adv-x="868" 
d="M441 876q-33 0 -54 21t-21 54q0 32 21 52.5t54 20.5q32 0 53 -20.5t21 -52.5q0 -33 -21 -54t-53 -21zM440 310v108h350v-34q0 -188 -94 -294q-95 -107 -253 -107q-164 0 -264 109q-101 109 -101 292t97 292q96 109 266 109q126 0 212.5 -62t116.5 -169l-125 -21
q-19 67 -73.5 105t-130.5 38q-107 0 -167.5 -76.5t-60.5 -211.5q0 -139 62.5 -218.5t169.5 -79.5q92 0 150.5 57.5t69.5 162.5h-225z" />
    <glyph glyph-name="R.ss04" horiz-adv-x="766" 
d="M736 0h-151l-195 294h-153v-294h-133v768h334q125 0 196 -64t71 -171q0 -84 -46 -143t-130 -80zM428 662h-191v-263h191q68 0 106 35t38 96t-38 96.5t-106 35.5z" />
    <glyph glyph-name="Racute.ss04" horiz-adv-x="766" 
d="M411 1049h155l-152 -172h-114zM736 0h-151l-195 294h-153v-294h-133v768h334q125 0 196 -64t71 -171q0 -84 -46 -143t-130 -80zM428 662h-191v-263h191q68 0 106 35t38 96t-38 96.5t-106 35.5z" />
    <glyph glyph-name="Rcaron.ss04" horiz-adv-x="766" 
d="M579 1044l-146 -182h-121l-140 182h113l90 -116l90 116h114zM736 0h-151l-195 294h-153v-294h-133v768h334q125 0 196 -64t71 -171q0 -84 -46 -143t-130 -80zM428 662h-191v-263h191q68 0 106 35t38 96t-38 96.5t-106 35.5z" />
    <glyph glyph-name="uni0156.ss04" horiz-adv-x="766" 
d="M529 310l207 -310h-151l-195 294h-153v-294h-133v768h334q125 0 196 -64t71 -171q0 -84 -46 -143t-130 -80zM428 662h-191v-263h191q68 0 106 35t38 96t-38 96.5t-106 35.5zM399 -177l-104 -23v106h162v-99q0 -58 -31 -84t-98 -26h-33v54h36q38 0 53 13t15 47v12z" />
    <glyph glyph-name="uni0156.ss01.ss04" horiz-adv-x="766" 
d="M529 310l207 -310h-151l-195 294h-153v-294h-133v768h334q125 0 196 -64t71 -171q0 -84 -46 -143t-130 -80zM428 662h-191v-263h191q68 0 106 35t38 96t-38 96.5t-106 35.5zM368 -82q89 0 89 -89v-27q0 -104 -120 -104h-31v48h40q58 0 58 48v9q-11 -4 -33 -4
q-78 0 -78 59q0 60 75 60z" />
    <glyph glyph-name="i.loclTRK" horiz-adv-x="317" 
d="M224 661h-130v133h130v-133zM224 0h-130v548h130v-548z" />
    <glyph glyph-name="adieresis.ss01" horiz-adv-x="659" 
d="M202 651q-33 0 -54 21t-21 54q0 32 21 52.5t54 20.5q32 0 53 -20.5t21 -52.5q0 -33 -21 -54t-53 -21zM456 651q-32 0 -53 21t-21 54q0 32 21 52.5t53 20.5q33 0 54 -20.5t21 -52.5q0 -33 -21 -54t-54 -21zM332 564q122 0 178 -44.5t56 -133.5v-274v-112h-106
q-10 48 -13 69q-61 -85 -189 -85q-89 0 -143 43.5t-54 118.5q0 74 51.5 114t162.5 61l123 22q24 4 42 14v25q0 47 -24.5 68t-88.5 21q-66 0 -96 -21.5t-36 -75.5l-113 14q23 176 250 176zM296 71q48 0 86.5 23.5t55.5 65.5v115q-27 -7 -35 -9l-105 -21q-107 -21 -107 -91
q0 -40 27.5 -61.5t77.5 -21.5z" />
    <glyph glyph-name="cdotaccent.ss01" horiz-adv-x="648" 
d="M337 656q-33 0 -54 21t-21 54q0 32 21 52.5t54 20.5q32 0 53 -20.5t21 -52.5q0 -33 -21 -54t-53 -21zM335 -13q-125 0 -197 78q-73 76 -73 210q0 135 70.5 211.5t197.5 76.5q207 0 254 -185l-124 -14q-23 98 -128 98q-140 0 -140 -186q0 -91 36.5 -138.5t105.5 -47.5
q106 0 131 112l121 -12q-21 -97 -86.5 -150t-167.5 -53z" />
    <glyph glyph-name="edieresis.ss01" horiz-adv-x="684" 
d="M215 656q-33 0 -54 21t-21 54q0 32 21 52.5t54 20.5q32 0 53 -20.5t21 -52.5q0 -33 -21 -54t-53 -21zM469 656q-32 0 -53 21t-21 54q0 32 21 52.5t53 20.5q33 0 54 -20.5t21 -52.5q0 -33 -21 -54t-54 -21zM618 271v-30h-425q12 -159 158 -159q97 0 138 78l115 -22
q-31 -73 -98 -113.5t-159 -40.5q-135 0 -208 79q-74 80 -74 209q0 132 73 212q72 80 205 80q135 0 205 -81q70 -80 70 -212zM342 473q-64 0 -103 -39t-46 -112h299q-15 151 -150 151z" />
    <glyph glyph-name="edotaccent.ss01" horiz-adv-x="684" 
d="M342 656q-33 0 -54 21t-21 54q0 32 21 52.5t54 20.5q32 0 53 -20.5t21 -52.5q0 -33 -21 -54t-53 -21zM618 271v-30h-425q12 -159 158 -159q97 0 138 78l115 -22q-31 -73 -98 -113.5t-159 -40.5q-135 0 -208 79q-74 80 -74 209q0 132 73 212q72 80 205 80q135 0 205 -81
q70 -80 70 -212zM342 473q-64 0 -103 -39t-46 -112h299q-15 151 -150 151z" />
    <glyph glyph-name="uni0123.ss01" horiz-adv-x="693" 
d="M343 654q-88 0 -88 90v31q0 104 120 104h30v-48h-40q-56 0 -56 -48v-13q12 3 31 3q78 0 78 -59q0 -60 -75 -60zM476 488l6 63h117v-521q0 -115 -67 -176.5t-189 -61.5q-206 0 -248 163l120 14q32 -83 130 -83q125 0 125 130v90q-62 -66 -165 -66q-105 0 -172 70
q-68 71 -68 190q0 124 66 196q65 71 175 71q107 0 170 -79zM332 140q107 0 138 110v108q-15 52 -51 79.5t-87 27.5q-65 0 -102 -44t-37 -119q0 -74 37 -118t102 -44z" />
    <glyph glyph-name="gdotaccent.ss01" horiz-adv-x="693" 
d="M340 656q-33 0 -54 21t-21 54q0 32 21 52.5t54 20.5q32 0 53 -20.5t21 -52.5q0 -33 -21 -54t-53 -21zM476 488l6 63h117v-521q0 -115 -67 -176.5t-189 -61.5q-206 0 -248 163l120 14q32 -83 130 -83q125 0 125 130v90q-62 -66 -165 -66q-105 0 -172 70q-68 71 -68 190
q0 124 66 196q65 71 175 71q107 0 170 -79zM332 140q107 0 138 110v108q-15 52 -51 79.5t-87 27.5q-65 0 -102 -44t-37 -119q0 -74 37 -118t102 -44z" />
    <glyph glyph-name="i.ss01" horiz-adv-x="317" 
d="M217 679q-26 -22 -58 -23t-57.5 22.5t-22.5 57.5q0 34 22.5 56t57.5 22t57.5 -22t22.5 -56q0 -35 -22 -57zM224 0h-130v548h130v-548z" />
    <glyph glyph-name="idieresis.ss01" horiz-adv-x="317" 
d="M85 677q-24 -20 -53.5 -21t-53 21t-21.5 54q0 32 21 52.5t53 20.5t53.5 -20.5t21.5 -52.5q0 -33 -21 -54zM340 677q-24 -20 -54 -21t-53.5 21t-20.5 54q0 32 21 52.5t53 20.5t53.5 -20.5t21.5 -52.5q0 -33 -21 -54zM224 0h-130v548h130v-548z" />
    <glyph glyph-name="i.loclTRK.ss01" horiz-adv-x="317" 
d="M217 679q-26 -22 -58 -23t-57.5 22.5t-22.5 57.5q0 34 22.5 56t57.5 22t57.5 -22t22.5 -56q0 -35 -22 -57zM224 0h-130v548h130v-548z" />
    <glyph glyph-name="ij.ss01" horiz-adv-x="634" 
d="M217 679q-26 -22 -58 -23t-57.5 22.5t-22.5 57.5q0 34 22.5 56t57.5 22t57.5 -22t22.5 -56q0 -35 -22 -57zM534 679q-26 -22 -58 -23t-57.5 22.5t-22.5 57.5q0 34 22.5 56t57.5 22t57.5 -22t22.5 -56q0 -35 -22 -57zM224 0h-130v548h130v-548zM372 -208h-95v98h73
q33 0 47 15t14 49v594h130v-589q0 -81 -42.5 -124t-126.5 -43z" />
    <glyph glyph-name="iogonek.ss01" horiz-adv-x="317" 
d="M159 656q-34 0 -55 21t-21 54q0 32 21 52.5t55 20.5q32 0 53 -20.5t21 -52.5q0 -33 -21 -54t-53 -21zM106 0h-12v548h130v-548l-77 -47q-37 -25 -37 -47q0 -34 44 -34h66v-67h-89q-59 0 -89.5 24t-30.5 64q0 54 62 89z" />
    <glyph glyph-name="j.ss01" horiz-adv-x="317" 
d="M217 679q-26 -22 -58 -23t-57.5 22.5t-22.5 57.5q0 34 22.5 56t57.5 22t57.5 -22t22.5 -56q0 -35 -22 -57zM55 -208h-95v98h73q33 0 47 15t14 49v594h130v-589q0 -81 -42.5 -124t-126.5 -43z" />
    <glyph glyph-name="uni0137.ss01" horiz-adv-x="661" 
d="M612 548l-219 -211l230 -337h-145l-164 274l-90 -88v-186h-130v768h130v-472l233 252h155zM329 -82q89 0 89 -89v-27q0 -104 -120 -104h-31v48h40q58 0 58 48v9q-11 -4 -33 -4q-78 0 -78 59q0 60 75 60z" />
    <glyph glyph-name="uni013C.ss01" horiz-adv-x="317" 
d="M94 768h130v-768h-130v768zM152 -82q89 0 89 -89v-27q0 -104 -120 -104h-31v48h40q58 0 58 48v9q-11 -4 -33 -4q-78 0 -78 59q0 60 75 60z" />
    <glyph glyph-name="ldot.ss01" horiz-adv-x="528" 
d="M224 0h-130v768h130v-768zM408 300q-37 0 -61.5 23.5t-24.5 59.5q0 37 24 60t62 23t62.5 -23t24.5 -60q0 -36 -24.5 -59.5t-62.5 -23.5z" />
    <glyph glyph-name="napostrophe.ss01" horiz-adv-x="995" 
d="M196 778q42 0 68 -28t26 -75v-112q0 -78 -38 -114t-118 -36h-21v71h21q45 0 64 18t19 60v36h-21q-42 0 -69 25.5t-27 64.5t27 64.5t69 25.5zM706 563q89 0 142 -52t53 -140v-371h-130v340q0 54 -27 84t-75 30q-95 0 -128 -113v-341h-130v548h119l6 -72q64 87 170 87z" />
    <glyph glyph-name="uni0146.ss01" horiz-adv-x="677" 
d="M389 563q89 0 142 -52t53 -140v-371h-130v340q0 54 -27 84t-75 30q-93 0 -128 -110v-344h-130v548h119l5 -73q64 88 171 88zM332 -82q89 0 89 -89v-27q0 -104 -120 -104h-31v48h40q58 0 58 48v9q-11 -4 -33 -4q-78 0 -78 59q0 60 75 60z" />
    <glyph glyph-name="odieresis.ss01" horiz-adv-x="696" 
d="M222 656q-33 0 -54 21t-21 54q0 32 21 52.5t54 20.5q32 0 53 -20.5t21 -52.5q0 -33 -21 -54t-53 -21zM476 656q-32 0 -53 21t-21 54q0 32 21 52.5t53 20.5q33 0 54 -20.5t21 -52.5q0 -33 -21 -54t-54 -21zM348 -16q-132 0 -207 79q-76 79 -76 212q0 131 76 210t207 79
q132 0 208 -78q75 -80 75 -211q0 -132 -76 -211q-77 -80 -207 -80zM235 137q37 -49 113 -49t113 49q38 50 38 138q0 89 -38.5 137t-112.5 48t-113 -48t-39 -137t39 -138z" />
    <glyph glyph-name="uni0157.ss01" horiz-adv-x="467" 
d="M399 554h38v-115h-35q-73 0 -116.5 -27t-61.5 -96v-316h-130v548h120l6 -104q47 110 179 110zM152 -82q89 0 89 -89v-27q0 -104 -120 -104h-31v48h40q58 0 58 48v9q-11 -4 -33 -4q-78 0 -78 59q0 60 75 60z" />
    <glyph glyph-name="uni0219.ss01" horiz-adv-x="635" 
d="M306 340l80 -14q93 -16 137.5 -56t44.5 -111q0 -86 -63.5 -133.5t-180.5 -47.5q-222 0 -259 175l124 12q13 -51 45.5 -74t91.5 -23q116 0 116 78q0 31 -23 50t-78 28l-89 18q-165 30 -165 160q0 78 60 122.5t168 44.5q217 0 251 -162l-120 -12q-21 86 -129 86
q-107 0 -107 -70q0 -28 22.5 -44.5t73.5 -26.5zM323 -82q89 0 89 -89v-27q0 -104 -121 -104h-30v48h40q57 0 57 48v8q-14 -3 -32 -3q-78 0 -78 59q0 60 75 60z" />
    <glyph glyph-name="uni021B.ss01" horiz-adv-x="514" 
d="M272 540l183 8v-92l-184 8l8 -82v-206q0 -71 68 -71h108v-105h-136q-169 0 -169 158v224l8 81l-131 -7v92l129 -7l-6 45v123h129v-123zM218 -77q89 0 89 -89v-27q0 -104 -120 -104h-31v48h40q58 0 58 48v9q-11 -4 -33 -4q-78 0 -78 59q0 60 75 60z" />
    <glyph glyph-name="udieresis.ss01" horiz-adv-x="677" 
d="M212 656q-33 0 -54 21t-21 54q0 32 21 52.5t54 20.5q32 0 53 -20.5t21 -52.5q0 -33 -21 -54t-53 -21zM466 656q-32 0 -53 21t-21 54q0 32 21 52.5t53 20.5q33 0 54 -20.5t21 -52.5q0 -33 -21 -54t-54 -21zM454 207v341h130v-548h-120l-5 73q-64 -88 -170 -88
q-89 0 -142 52t-53 140v371h130v-340q0 -54 27 -84t75 -30q95 0 128 113z" />
    <glyph glyph-name="wdieresis.ss01" horiz-adv-x="968" 
d="M352 656q-33 0 -54 21t-21 54q0 32 21 52.5t54 20.5q32 0 53 -20.5t21 -52.5q0 -33 -21 -54t-53 -21zM606 656q-32 0 -53 21t-21 54q0 32 21 52.5t53 20.5q33 0 54 -20.5t21 -52.5q0 -33 -21 -54t-54 -21zM696 214l98 334h132l-183 -548h-137l-83 278l-39 136l-38 -136
l-82 -278h-140l-182 548h137l99 -335l25 -93l22 92l90 336h135l93 -334l26 -100z" />
    <glyph glyph-name="ydieresis.ss01" horiz-adv-x="627" 
d="M186 656q-33 0 -54 21t-21 54q0 32 21 52.5t54 20.5q32 0 53 -20.5t21 -52.5q0 -33 -21 -54t-53 -21zM440 656q-32 0 -53 21t-21 54q0 32 21 52.5t53 20.5q33 0 54 -20.5t21 -52.5q0 -33 -21 -54t-54 -21zM320 133l131 415h134l-225 -607q-30 -81 -76.5 -115t-124.5 -34
h-72v102h75q35 0 53 14.5t33 55.5l8 23l-214 561h138l139 -405z" />
    <glyph glyph-name="zdotaccent.ss01" horiz-adv-x="628" 
d="M304 656q-33 0 -54 21t-21 54q0 32 21 52.5t54 20.5q32 0 53 -20.5t21 -52.5q0 -33 -21 -54t-53 -21zM544 459l-318 -354h337v-105h-498v86l321 357h-313v105h471v-89z" />
    <glyph glyph-name="a.ss02" horiz-adv-x="704" 
d="M486 487l6 61h118v-548h-118l-5 63q-58 -79 -164 -79q-123 0 -190 79q-68 79 -68 211q0 130 71 210q70 79 190 79q105 0 160 -76zM346 89q90 0 134 77v218q-44 77 -134 77q-72 0 -111 -49.5t-39 -136.5q0 -88 39 -137t111 -49z" />
    <glyph glyph-name="aacute.ss02" horiz-adv-x="704" 
d="M383 829h155l-152 -172h-114zM486 487l6 61h118v-548h-118l-5 63q-58 -79 -164 -79q-123 0 -190 79q-68 79 -68 211q0 130 71 210q70 79 190 79q105 0 160 -76zM346 89q90 0 134 77v218q-44 77 -134 77q-72 0 -111 -49.5t-39 -136.5q0 -88 39 -137t111 -49z" />
    <glyph glyph-name="abreve.ss02" horiz-adv-x="704" 
d="M346 648q-98 0 -144 41t-48 125h86q3 -84 107 -84t107 84h86q-2 -84 -48.5 -125t-145.5 -41zM486 487l6 61h118v-548h-118l-5 63q-58 -79 -164 -79q-123 0 -190 79q-68 79 -68 211q0 130 71 210q70 79 190 79q105 0 160 -76zM346 89q90 0 134 77v218q-44 77 -134 77
q-72 0 -111 -49.5t-39 -136.5q0 -88 39 -137t111 -49z" />
    <glyph glyph-name="acircumflex.ss02" horiz-adv-x="704" 
d="M437 649l-90 116l-90 -116h-113l140 182h121l146 -182h-114zM486 487l6 61h118v-548h-118l-5 63q-58 -79 -164 -79q-123 0 -190 79q-68 79 -68 211q0 130 71 210q70 79 190 79q105 0 160 -76zM346 89q90 0 134 77v218q-44 77 -134 77q-72 0 -111 -49.5t-39 -136.5
q0 -88 39 -137t111 -49z" />
    <glyph glyph-name="adieresis.ss02" horiz-adv-x="704" 
d="M146 791h133v-130h-133v130zM415 791h133v-130h-133v130zM486 487l6 61h118v-548h-118l-5 63q-58 -79 -164 -79q-123 0 -190 79q-68 79 -68 211q0 130 71 210q70 79 190 79q105 0 160 -76zM346 89q90 0 134 77v218q-44 77 -134 77q-72 0 -111 -49.5t-39 -136.5
q0 -88 39 -137t111 -49z" />
    <glyph glyph-name="agrave.ss02" horiz-adv-x="704" 
d="M317 829l111 -172h-114l-152 172h155zM486 487l6 61h118v-548h-118l-5 63q-58 -79 -164 -79q-123 0 -190 79q-68 79 -68 211q0 130 71 210q70 79 190 79q105 0 160 -76zM346 89q90 0 134 77v218q-44 77 -134 77q-72 0 -111 -49.5t-39 -136.5q0 -88 39 -137t111 -49z" />
    <glyph glyph-name="amacron.ss02" horiz-adv-x="704" 
d="M161 755h372v-91h-372v91zM486 487l6 61h118v-548h-118l-5 63q-58 -79 -164 -79q-123 0 -190 79q-68 79 -68 211q0 130 71 210q70 79 190 79q105 0 160 -76zM346 89q90 0 134 77v218q-44 77 -134 77q-72 0 -111 -49.5t-39 -136.5q0 -88 39 -137t111 -49z" />
    <glyph glyph-name="aogonek.ss02" horiz-adv-x="704" 
d="M610 -37l-76 -47q-37 -24 -37 -47q0 -35 44 -35h66v-67h-89q-60 0 -90 24t-30 65q0 55 61 88l62 34l-27 108q-60 -88 -171 -88q-121 0 -189 77q-69 76 -69 206q0 125 71 204q70 78 190 78q103 0 160 -75l6 60h118v-585zM346 102q91 0 134 76v208q-44 75 -134 75
q-72 0 -111 -48.5t-39 -130.5q0 -83 39 -131.5t111 -48.5z" />
    <glyph glyph-name="aring.ss02" horiz-adv-x="704" 
d="M458 664q-44 -44 -111 -44t-111 44t-44 109q0 67 44 111q43 43 111 43t111 -43q44 -44 44 -111q0 -65 -44 -109zM406 834q-23 23 -59 23t-59 -23t-23 -61q0 -37 23 -60t59 -23t59 23t23 60q0 38 -23 61zM486 487l6 61h118v-548h-118l-5 63q-58 -79 -164 -79
q-123 0 -190 79q-68 79 -68 211q0 130 71 210q70 79 190 79q105 0 160 -76zM346 89q90 0 134 77v218q-44 77 -134 77q-72 0 -111 -49.5t-39 -136.5q0 -88 39 -137t111 -49z" />
    <glyph glyph-name="aringacute.ss02" horiz-adv-x="704" 
d="M383 1109h155l-152 -173h-114zM458 639q-44 -44 -111 -44t-111 44t-44 110q0 67 44 111q43 43 111 43t111 -43q44 -44 44 -111q0 -66 -44 -110zM406 810q-23 23 -59 23t-59 -23t-23 -61q0 -37 23 -60t59 -23t59 23t23 60q0 38 -23 61zM486 487l6 61h118v-548h-118l-5 63
q-58 -79 -164 -79q-123 0 -190 79q-68 79 -68 211q0 130 71 210q70 79 190 79q105 0 160 -76zM346 89q90 0 134 77v218q-44 77 -134 77q-72 0 -111 -49.5t-39 -136.5q0 -88 39 -137t111 -49z" />
    <glyph glyph-name="atilde.ss02" horiz-adv-x="704" 
d="M263 719q-44 0 -47 -84h-95q0 87 35 134t98 47q64 0 105 -43t71 -43q23 0 34 19.5t13 63.5h95q0 -87 -35 -134t-99 -47q-65 0 -103 44q-39 43 -72 43zM486 487l6 61h118v-548h-118l-5 63q-58 -79 -164 -79q-123 0 -190 79q-68 79 -68 211q0 130 71 210q70 79 190 79
q105 0 160 -76zM346 89q90 0 134 77v218q-44 77 -134 77q-72 0 -111 -49.5t-39 -136.5q0 -88 39 -137t111 -49z" />
    <glyph glyph-name="adieresis.ss01.ss02" horiz-adv-x="704" 
d="M220 656q-33 0 -54 21t-21 54q0 32 21 52.5t54 20.5q32 0 53 -20.5t21 -52.5q0 -33 -21 -54t-53 -21zM474 656q-32 0 -53 21t-21 54q0 32 21 52.5t53 20.5q33 0 54 -20.5t21 -52.5q0 -33 -21 -54t-54 -21zM486 487l6 61h118v-548h-118l-5 63q-58 -79 -164 -79
q-123 0 -190 79q-68 79 -68 211q0 130 71 210q70 79 190 79q105 0 160 -76zM346 89q90 0 134 77v218q-44 77 -134 77q-72 0 -111 -49.5t-39 -136.5q0 -88 39 -137t111 -49z" />
    <glyph glyph-name="uni021B.ss01.ss05" horiz-adv-x="482" 
d="M306 709v-168l149 7v-92l-149 7v-463h-129v463l-150 -7v92l150 -7v168h129zM234 -82q89 0 89 -89v-27q0 -104 -120 -104h-31v48h40q58 0 58 48v9q-11 -4 -33 -4q-78 0 -78 59q0 60 75 60z" />
    <glyph glyph-name="udieresis.ss01.ss05" horiz-adv-x="677" 
d="M212 656q-33 0 -54 21t-21 54q0 32 21 52.5t54 20.5q32 0 53 -20.5t21 -52.5q0 -33 -21 -54t-53 -21zM466 656q-32 0 -53 21t-21 54q0 32 21 52.5t53 20.5q33 0 54 -20.5t21 -52.5q0 -33 -21 -54t-54 -21zM454 207v341h130v-548h-120l-5 73q-64 -88 -170 -88
q-89 0 -142 52t-53 140v371h130v-340q0 -54 27 -84t75 -30q95 0 128 113z" />
    <glyph glyph-name="t.ss05" horiz-adv-x="482" 
d="M306 541l149 7v-92l-149 7v-463h-129v463l-150 -7v92l150 -7v168h129v-168z" />
    <glyph glyph-name="tbar.ss05" horiz-adv-x="482" 
d="M306 309l150 7v-92l-150 7v-231h-129v231l-150 -7v92l150 -7v154l-150 -7v92l150 -7v168h129v-168l149 7v-92l-149 7v-154z" />
    <glyph glyph-name="tcaron.ss05" horiz-adv-x="517" 
d="M386 620l57 292h138l-103 -292h-92zM177 709h129v-168l149 7v-92l-149 7v-463h-129v463l-150 -7v92l150 -7v168z" />
    <glyph glyph-name="uni0163.ss05" horiz-adv-x="482" 
d="M306 709v-168l149 7v-92l-149 7v-463h-129v463l-150 -7v92l150 -7v168h129zM142 -71h129q118 0 118 -93q0 -112 -166 -112h-81v68h69q79 0 79 42q0 33 -46 33h-102v62z" />
    <glyph glyph-name="uni021B.ss05" horiz-adv-x="482" 
d="M306 709v-168l149 7v-92l-149 7v-463h-129v463l-150 -7v92l150 -7v168h129zM265 -177l-104 -23v106h162v-99q0 -58 -31 -84t-98 -26h-33v54h36q38 0 53 13t15 47v12z" />
    <glyph glyph-name="udieresis.ss01.ss06" horiz-adv-x="677" 
d="M212 656q-33 0 -54 21t-21 54q0 32 21 52.5t54 20.5q32 0 53 -20.5t21 -52.5q0 -33 -21 -54t-53 -21zM466 656q-32 0 -53 21t-21 54q0 32 21 52.5t53 20.5q33 0 54 -20.5t21 -52.5q0 -33 -21 -54t-54 -21zM584 548v-345q0 -218 -245 -218t-245 218v345h130v-342
q0 -117 115 -117t115 117v342h130z" />
    <glyph glyph-name="u.ss06" horiz-adv-x="677" 
d="M584 548v-345q0 -218 -245 -218t-245 218v345h130v-342q0 -117 115 -117t115 117v342h130z" />
    <glyph glyph-name="uacute.ss06" horiz-adv-x="677" 
d="M378 657h-114l111 172h155zM584 548v-345q0 -218 -245 -218t-245 218v345h130v-342q0 -117 115 -117t115 117v342h130z" />
    <glyph glyph-name="ubreve.ss06" horiz-adv-x="677" 
d="M338 648q-98 0 -144 41t-48 125h86q3 -84 107 -84t107 84h86q-2 -84 -48.5 -125t-145.5 -41zM584 548v-345q0 -218 -245 -218t-245 218v345h130v-342q0 -117 115 -117t115 117v342h130z" />
    <glyph glyph-name="ucircumflex.ss06" horiz-adv-x="677" 
d="M249 649h-113l140 182h121l146 -182h-114l-90 116zM584 548v-345q0 -218 -245 -218t-245 218v345h130v-342q0 -117 115 -117t115 117v342h130z" />
    <glyph glyph-name="udieresis.ss06" horiz-adv-x="677" 
d="M271 661h-133v130h133v-130zM540 661h-133v130h133v-130zM584 548v-345q0 -218 -245 -218t-245 218v345h130v-342q0 -117 115 -117t115 117v342h130z" />
    <glyph glyph-name="ugrave.ss06" horiz-adv-x="677" 
d="M420 657h-114l-152 172h155zM584 548v-345q0 -218 -245 -218t-245 218v345h130v-342q0 -117 115 -117t115 117v342h130z" />
    <glyph glyph-name="uhungarumlaut.ss06" horiz-adv-x="677" 
d="M250 640h-117l108 186h152zM503 640h-116l111 186h152zM584 548v-345q0 -218 -245 -218t-245 218v345h130v-342q0 -117 115 -117t115 117v342h130z" />
    <glyph glyph-name="umacron.ss06" horiz-adv-x="677" 
d="M525 664h-372v91h372v-91zM584 548v-345q0 -218 -245 -218t-245 218v345h130v-342q0 -117 115 -117t115 117v342h130z" />
    <glyph glyph-name="uogonek.ss06" horiz-adv-x="677" 
d="M454 206v342h130v-345q0 -160 -133 -203l-114 -60q-38 -20 -38 -52q0 -48 63 -48h90v-67h-103q-71 0 -108 26.5t-37 75.5q0 62 61 93l36 18q-207 17 -207 217v345h130v-342q0 -117 115 -117t115 117z" />
    <glyph glyph-name="uring.ss06" horiz-adv-x="677" 
d="M450 664q-44 -44 -111 -44t-111 44t-44 109q0 67 44 111q43 43 111 43t111 -43q44 -44 44 -111q0 -65 -44 -109zM280 713q23 -23 59 -23t59 23t23 60q0 38 -23 61t-59 23t-59 -23t-23 -61q0 -37 23 -60zM584 548v-345q0 -218 -245 -218t-245 218v345h130v-342
q0 -117 115 -117t115 117v342h130z" />
    <glyph glyph-name="utilde.ss06" horiz-adv-x="677" 
d="M208 635h-95q0 87 35 134t98 47q64 0 105 -43t71 -43q23 0 34 19.5t13 63.5h95q0 -87 -35 -134t-99 -47q-65 0 -103 44q-39 43 -72 43q-44 0 -47 -84zM584 548v-345q0 -218 -245 -218t-245 218v345h130v-342q0 -117 115 -117t115 117v342h130z" />
    <glyph glyph-name="ydieresis.ss01.ss07" horiz-adv-x="627" 
d="M186 656q-33 0 -54 21t-21 54q0 32 21 52.5t54 20.5q32 0 53 -20.5t21 -52.5q0 -33 -21 -54t-53 -21zM440 656q-32 0 -53 21t-21 54q0 32 21 52.5t53 20.5q33 0 54 -20.5t21 -52.5q0 -33 -21 -54t-54 -21zM321 136l130 412h134l-279 -752h-121l76 191l-219 561h138
l139 -405q2 -6 2 -7z" />
    <glyph glyph-name="y.ss07" horiz-adv-x="627" 
d="M321 136l130 412h134l-279 -752h-121l76 191l-219 561h138l139 -405q2 -6 2 -7z" />
    <glyph glyph-name="yacute.ss07" horiz-adv-x="627" 
d="M349 829h155l-152 -172h-114zM321 136l130 412h134l-279 -752h-121l76 191l-219 561h138l139 -405q2 -6 2 -7z" />
    <glyph glyph-name="ycircumflex.ss07" horiz-adv-x="627" 
d="M403 649l-90 116l-90 -116h-113l140 182h121l146 -182h-114zM321 136l130 412h134l-279 -752h-121l76 191l-219 561h138l139 -405q2 -6 2 -7z" />
    <glyph glyph-name="ydieresis.ss07" horiz-adv-x="627" 
d="M112 791h133v-130h-133v130zM381 791h133v-130h-133v130zM321 136l130 412h134l-279 -752h-121l76 191l-219 561h138l139 -405q2 -6 2 -7z" />
    <glyph glyph-name="ygrave.ss07" horiz-adv-x="627" 
d="M284 829l111 -172h-114l-152 172h155zM321 136l130 412h134l-279 -752h-121l76 191l-219 561h138l139 -405q2 -6 2 -7z" />
    <glyph glyph-name="l.ss08" horiz-adv-x="415" 
d="M377 0h-115q-168 0 -168 158v610h130v-592q0 -71 67 -71h86v-105z" />
    <glyph glyph-name="lacute.ss08" horiz-adv-x="415" 
d="M198 877h-114l111 172h155zM377 0h-115q-168 0 -168 158v610h130v-592q0 -71 67 -71h86v-105z" />
    <glyph glyph-name="lcaron.ss08" horiz-adv-x="512" 
d="M377 0h-115q-168 0 -168 158v610h130v-592q0 -71 67 -71h86v-105zM409 476h-92l57 292h138z" />
    <glyph glyph-name="uni013C.ss08" horiz-adv-x="415" 
d="M291 105h86v-105h-115q-168 0 -168 158v610h130v-592q0 -71 67 -71zM182 -177l-104 -23v106h162v-99q0 -58 -31 -84t-98 -26h-33v54h36q38 0 53 13t15 47v12z" />
    <glyph glyph-name="ldot.ss08" horiz-adv-x="517" 
d="M377 0h-115q-168 0 -168 158v610h130v-592q0 -71 67 -71h86v-105zM483 304h-156v157h156v-157z" />
    <glyph glyph-name="lslash.ss08" horiz-adv-x="491" 
d="M363 105h86v-105h-115q-168 0 -168 158v149l-133 -79v116l133 53v371h130v-302l132 79v-116l-132 -54v-199q0 -71 67 -71z" />
    <glyph glyph-name="uni013C.ss01.ss08" horiz-adv-x="415" 
d="M291 105h86v-105h-115q-168 0 -168 158v610h130v-592q0 -71 67 -71zM152 -82q89 0 89 -89v-27q0 -104 -120 -104h-31v48h40q58 0 58 48v9q-11 -4 -33 -4q-78 0 -78 59q0 60 75 60z" />
    <glyph glyph-name="ldot.ss01.ss08" horiz-adv-x="528" 
d="M377 0h-115q-168 0 -168 158v610h130v-592q0 -71 67 -71h86v-105zM408 300q-37 0 -61.5 23.5t-24.5 59.5q0 37 24 60t62 23t62.5 -23t24.5 -60q0 -36 -24.5 -59.5t-62.5 -23.5z" />
    <glyph glyph-name="fi.ss01" horiz-adv-x="809" 
d="M709 679q-26 -22 -58 -23t-57.5 22.5t-22.5 57.5q0 34 22.5 56t57.5 22t57.5 -22t22.5 -56q0 -35 -22 -57zM159 539l-9 78q0 74 41.5 112.5t119.5 38.5h147v-89l-142 13q-40 -5 -57 -23t-17 -59l18 -73l196 11v-91l-186 10l10 -120v-347h-130v347l10 119l-133 -9v91z
M716 0h-130v548h130v-548z" />
    <glyph glyph-name="fl.ss08" horiz-adv-x="907" 
d="M159 539l-9 78q0 74 41.5 112.5t119.5 38.5h147v-89l-142 13q-40 -5 -57 -23t-17 -59l18 -73l196 11v-91l-186 10l10 -120v-347h-130v347l10 119l-133 -9v91zM783 105h86v-105h-115q-168 0 -168 158v610h130v-592q0 -71 67 -71z" />
    <glyph glyph-name="ordfeminine.ss02" horiz-adv-x="619" 
d="M416 720l6 48h103v-399h-103l-6 46q-50 -57 -142 -57q-98 0 -153.5 57t-55.5 154q0 96 56.5 152.5t153.5 56.5q92 0 141 -58zM298 452q82 0 113 61v114q-30 61 -113 61q-57 0 -87.5 -30.5t-30.5 -87.5q0 -55 31 -86.5t87 -31.5z" />
    <glyph glyph-name="t.sups.ss05" horiz-adv-x="415" 
d="M264 762l124 6v-96l-124 5v-308h-113v308l-124 -5v96l124 -6v123h113v-123z" />
    <glyph glyph-name="zero.ss09" horiz-adv-x="1169" 
d="M1066 -88h-962v941h962v-941zM415 203q60 -68 170 -68t170 68q60 67 60 192q0 123 -59.5 190.5t-170.5 67.5q-110 0 -170.5 -67.5t-60.5 -190.5q0 -125 61 -192zM681 265q-35 -44 -96 -44t-96 44q-34 43 -34 130q0 84 33.5 128.5t96.5 44.5q62 0 95.5 -44.5t33.5 -128.5
q0 -87 -33 -130z" />
    <glyph glyph-name="one.ss09" horiz-adv-x="1169" 
d="M1066 -88h-962v941h962v-941zM573 449v-304h102v498h-102v-43q0 -35 -20 -50.5t-62 -15.5h-72v-85h154z" />
    <glyph glyph-name="two.ss09" horiz-adv-x="1169" 
d="M104 -88v941h962v-941h-962zM360 145h446v88h-321q1 47 87 75l84 28q139 46 139 158q0 77 -55 118t-154 41q-97 0 -154.5 -45t-67.5 -122l98 -12q13 94 122 94q54 0 82.5 -20t28.5 -56q0 -53 -74 -80l-101 -36q-83 -29 -121.5 -84.5t-38.5 -146.5z" />
    <glyph glyph-name="three.ss09" horiz-adv-x="1169" 
d="M1066 -88h-962v941h962v-941zM585 132q102 0 160.5 42.5t58.5 115.5q0 93 -95 116v2q80 27 80 108q0 65 -56 101.5t-147 36.5q-88 0 -144.5 -36t-72.5 -101l95 -14q20 72 118 72q108 0 108 -68q0 -65 -105 -65h-45v-82h49q111 0 111 -69q0 -35 -29.5 -55t-83.5 -20
q-55 0 -84.5 22t-39.5 70l-97 -15q12 -78 68 -119.5t151 -41.5z" />
    <glyph glyph-name="four.ss09" horiz-adv-x="1169" 
d="M1066 -88h-962v941h962v-941zM632 269v-124h102v124l79 -9v87l-79 -10v306h-118l-272 -291v-92zM632 337l-185 7l183 194h2v-201z" />
    <glyph glyph-name="five.ss09" horiz-adv-x="1169" 
d="M104 -88v941h962v-941h-962zM584 140q105 0 164.5 48.5t59.5 132.5q0 78 -52.5 121t-145.5 43q-73 0 -125 -28l-2 2l23 109h278v81h-352l-53 -258l93 -25q43 43 117 43q55 0 86.5 -23t31.5 -66t-32.5 -68.5t-88.5 -25.5q-89 0 -124 62l-95 -39q27 -52 84 -80.5t133 -28.5
z" />
    <glyph glyph-name="six.ss09" horiz-adv-x="1169" 
d="M1066 -88h-962v941h962v-941zM596 135q98 0 155.5 48t57.5 129q0 73 -51.5 117.5t-139.5 44.5q-100 0 -152 -57q4 81 36.5 119t96.5 38q75 0 109 -51l87 31q-54 100 -196 100q-116 0 -176.5 -71t-60.5 -199q0 -115 62 -182t172 -67zM597 214q-52 0 -85 27.5t-43 80.5
q15 36 49.5 58t78.5 22q52 0 83 -24.5t31 -66.5q0 -44 -31.5 -70.5t-82.5 -26.5z" />
    <glyph glyph-name="seven.ss09" horiz-adv-x="1169" 
d="M1066 -88h-962v941h962v-941zM483 142h101q6 253 217 410v88h-425v-87h303q-88 -74 -140 -186q-55 -114 -56 -225z" />
    <glyph glyph-name="eight.ss09" horiz-adv-x="1169" 
d="M1066 -88h-962v941h962v-941zM415 177q62 -40 170 -40q107 0 171 40q63 40 63 113q0 45 -27.5 77.5t-72.5 42.5v1q37 13 59.5 42t22.5 67q0 66 -56.5 101t-159.5 35q-102 0 -158 -35.5t-56 -100.5q0 -39 22.5 -68.5t58.5 -40.5v-1q-46 -10 -73.5 -42.5t-27.5 -77.5
q0 -73 64 -113zM585 446q-119 0 -119 67q0 65 119 65t119 -65q0 -35 -28.5 -51t-90.5 -16zM585 216q-62 0 -97 20.5t-35 57.5q0 76 132 76q133 0 133 -76q0 -37 -35 -57.5t-98 -20.5z" />
    <glyph glyph-name="nine.ss09" horiz-adv-x="1169" 
d="M1066 -88h-962v941h962v-941zM576 135q115 0 175.5 70.5t60.5 199.5q0 116 -61.5 182.5t-171.5 66.5q-98 0 -156 -48t-58 -128q0 -73 51.5 -117.5t140.5 -44.5q99 0 152 57q-4 -81 -36.5 -119t-96.5 -38q-74 0 -109 51l-88 -30q55 -102 197 -102zM578 387
q-52 0 -83.5 24.5t-31.5 66.5q0 44 32 70.5t83 26.5q107 0 128 -107q-15 -36 -49.5 -58.5t-78.5 -22.5z" />
    <glyph glyph-name="zero.ss10" horiz-adv-x="1169" 
d="M1066 -88h-962v941h962v-941zM206 760v-755h757v755h-757zM755 203q-60 -68 -170 -68t-170 68q-61 67 -61 192q0 123 60.5 190.5t170.5 67.5q111 0 170.5 -67.5t59.5 -190.5q0 -125 -60 -192zM489 265q35 -44 96 -44t96 44q33 43 33 130q0 84 -33.5 128.5t-95.5 44.5
q-63 0 -96.5 -44.5t-33.5 -128.5q0 -87 34 -130z" />
    <glyph glyph-name="one.ss10" horiz-adv-x="1169" 
d="M1066 -88h-962v941h962v-941zM206 760v-755h757v755h-757zM674 145h-102v304h-154v85h72q42 0 62 15.5t20 50.5v43h102v-498z" />
    <glyph glyph-name="two.ss10" horiz-adv-x="1169" 
d="M1066 -88h-962v941h962v-941zM206 760v-755h757v755h-757zM809 145h-446q0 91 38.5 146.5t121.5 84.5l100 36q75 27 75 80q0 36 -29 56t-83 20q-108 0 -121 -94l-98 13q10 77 67.5 121.5t154.5 44.5q99 0 154 -41t55 -118q0 -112 -139 -158l-85 -28q-85 -29 -86 -75h321
v-88z" />
    <glyph glyph-name="three.ss10" horiz-adv-x="1169" 
d="M1066 -88h-962v941h962v-941zM206 760v-755h757v755h-757zM581 132q-95 0 -151 41.5t-68 119.5l98 15q10 -48 39.5 -70t84.5 -22q54 0 83.5 20t29.5 55q0 69 -111 69h-50v82h45q106 0 106 65q0 68 -108 68q-98 0 -119 -72l-95 14q17 66 73 101.5t145 35.5q91 0 147 -36.5
t56 -101.5q0 -81 -80 -108v-2q94 -22 94 -116q0 -73 -58.5 -115.5t-160.5 -42.5z" />
    <glyph glyph-name="four.ss10" horiz-adv-x="1169" 
d="M1066 -88h-962v941h962v-941zM206 760v-755h757v755h-757zM737 144h-102v123l-288 -8v92l272 291h118v-306l79 10v-87l-79 8v-123zM633 536l-182 -194l184 -6v200h-2z" />
    <glyph glyph-name="five.ss10" horiz-adv-x="1169" 
d="M1066 -88h-962v941h962v-941zM206 760v-755h757v755h-757zM582 136q-77 0 -133.5 28.5t-84.5 80.5l95 39q35 -62 125 -62q56 0 88.5 25.5t32.5 68.5q0 42 -31.5 65.5t-86.5 23.5q-71 0 -117 -43l-93 24l53 258h352v-80h-278l-23 -110l2 -1q52 28 125 28q93 0 145.5 -43.5
t52.5 -121.5q0 -84 -59.5 -132t-164.5 -48z" />
    <glyph glyph-name="six.ss10" horiz-adv-x="1169" 
d="M1066 -88h-962v941h962v-941zM206 760v-755h757v755h-757zM598 130q-110 0 -171.5 66.5t-61.5 181.5q0 130 60.5 200t176.5 70q141 0 196 -100l-87 -31q-35 51 -109 51q-65 0 -97.5 -38t-35.5 -119q49 57 151 57q89 0 140.5 -44.5t51.5 -117.5q0 -80 -58 -128t-156 -48z
M599 209q51 0 83 26t32 70q0 42 -31 66.5t-83 24.5q-44 0 -78.5 -22t-49.5 -58q20 -107 127 -107z" />
    <glyph glyph-name="seven.ss10" horiz-adv-x="1169" 
d="M1066 -88h-962v941h962v-941zM206 760v-755h757v755h-757zM586 141h-102q1 111 56 225q54 112 141 186h-303v87h424v-88q-211 -159 -216 -410z" />
    <glyph glyph-name="eight.ss10" horiz-adv-x="1169" 
d="M1066 -88h-962v941h962v-941zM206 760v-755h757v755h-757zM756 173q-64 -40 -171 -40q-108 0 -170 40q-64 40 -64 113q0 45 27.5 77t73.5 43v1q-36 11 -58.5 40.5t-22.5 67.5q0 66 56 101.5t158 35.5q103 0 159.5 -35.5t56.5 -101.5q0 -38 -22.5 -67t-59.5 -41v-1
q46 -11 73 -43t27 -77q0 -72 -63 -113zM585 442q62 0 90.5 16t28.5 51q0 65 -119 65t-119 -65q0 -67 119 -67zM585 212q63 0 98 20.5t35 56.5q0 77 -133 77q-132 0 -132 -77q0 -36 35 -56.5t97 -20.5z" />
    <glyph glyph-name="nine.ss10" horiz-adv-x="1169" 
d="M1066 -88h-962v941h962v-941zM206 760v-755h757v755h-757zM576 132q-141 0 -197 101l88 31q34 -52 109 -52q64 0 96.5 38t36.5 119q-53 -57 -153 -57q-87 0 -139.5 44.5t-52.5 117.5q0 80 58 128t157 48q110 0 171.5 -66.5t61.5 -181.5q0 -129 -60.5 -199.5t-175.5 -70.5
zM578 384q43 0 78 22t49 59q-19 106 -127 106q-51 0 -83 -26t-32 -70q0 -42 31 -66.5t84 -24.5z" />
    <glyph glyph-name="zero.zero" 
d="M379 783q148 0 224.5 -101.5t76.5 -297.5q0 -197 -76 -298q-76 -102 -225 -102t-225 102q-77 101 -77 298q0 196 76.5 297.5t225.5 101.5zM379 672q-88 0 -129.5 -71t-41.5 -217q0 -147 42 -218l209 486q-35 20 -80 20zM379 95q87 0 128.5 71.5t41.5 217.5t-41 217
l-208 -487q31 -19 79 -19z" />
    <glyph glyph-name="zero.dnom" horiz-adv-x="518" 
d="M414 52q-56 -62 -155 -62t-155 62q-55 61 -55 174t55 174.5t155 61.5t155 -61.5t55 -174.5t-55 -174zM259 69q57 0 87.5 40t30.5 117t-30.5 117.5t-87.5 40.5t-87.5 -40t-30.5 -118q0 -157 118 -157z" />
    <glyph glyph-name="one.dnom" horiz-adv-x="373" 
d="M279 0h-92v276h-140v77h66q38 0 56 14t18 47v39h92v-453z" />
    <glyph glyph-name="two.dnom" horiz-adv-x="511" 
d="M461 0h-406q0 82 35 133t110 77l92 32q67 24 67 73q0 69 -101 69q-98 0 -110 -85l-90 11q9 71 61.5 111.5t140.5 40.5q90 0 140.5 -38t50.5 -107q0 -102 -127 -144l-77 -25q-78 -27 -79 -69h293v-79z" />
    <glyph glyph-name="three.dnom" horiz-adv-x="508" 
d="M255 -12q-86 0 -136.5 37.5t-62.5 108.5l89 13q17 -83 112 -83q49 0 76 18t27 50q0 63 -101 63h-45v75h41q96 0 96 59q0 61 -98 61q-88 0 -108 -65l-86 13q14 59 65.5 91.5t131.5 32.5q83 0 134 -33t51 -92q0 -74 -73 -98v-2q86 -20 86 -106q0 -66 -53 -104.5t-146 -38.5
z" />
    <glyph glyph-name="four.dnom" horiz-adv-x="493" 
d="M386 0h-92v112l-262 -8v84l248 265h106v-279l72 9v-79l-72 8v-112zM292 357l-166 -176l168 -7v183h-2z" />
    <glyph glyph-name="five.dnom" horiz-adv-x="509" 
d="M255 -9q-70 0 -121.5 25.5t-76.5 72.5l87 36q32 -56 113 -56q50 0 79.5 23t29.5 62t-28.5 60t-78.5 21q-63 0 -106 -39l-84 22l48 235h320v-73h-253l-21 -100l2 -1q46 25 114 25q84 0 131.5 -39.5t47.5 -109.5q0 -77 -53.5 -120.5t-149.5 -43.5z" />
    <glyph glyph-name="six.dnom" horiz-adv-x="504" 
d="M260 -10q-100 0 -156 60.5t-56 166.5q0 116 55 180.5t160 64.5q129 0 179 -92l-80 -28q-32 47 -98 47q-59 0 -88.5 -34.5t-33.5 -108.5q49 52 139 52q80 0 127 -40t47 -107q0 -73 -52.5 -117t-142.5 -44zM185 87q29 -25 76 -25t75 24q29 24 29 64q0 38 -28 60.5t-75 22.5
q-40 0 -71.5 -20t-44.5 -53q7 -49 39 -73z" />
    <glyph glyph-name="seven.dnom" horiz-adv-x="450" 
d="M221 0h-92q1 101 51 205q50 103 128 168h-276v80h386v-81q-191 -143 -197 -372z" />
    <glyph glyph-name="eight.dnom" horiz-adv-x="528" 
d="M419 26q-59 -36 -155 -36q-97 0 -154 36q-58 36 -58 103q0 41 25 70.5t66 38.5v1q-34 11 -54 37.5t-20 61.5q0 59 51.5 91.5t143.5 32.5q94 0 145.5 -32t51.5 -92q0 -34 -20.5 -60.5t-54.5 -38.5v-1q40 -9 65 -38.5t25 -70.5q0 -67 -57 -103zM264 271q109 0 109 61
q0 59 -109 59q-108 0 -108 -59q0 -61 108 -61zM175 81q31 -19 89 -19t89 19q32 18 32 51q0 69 -121 69t-121 -69q0 -33 32 -51z" />
    <glyph glyph-name="nine.dnom" horiz-adv-x="504" 
d="M241 -10q-128 0 -179 92l80 28q32 -47 99 -47q58 0 87.5 34.5t33.5 108.5q-49 -52 -138 -52q-81 0 -128 40.5t-47 107.5q0 72 53 116t142 44q100 0 156 -60.5t56 -165.5q0 -117 -55 -181.5t-160 -64.5zM243 219q39 0 70.5 20.5t44.5 53.5q-8 47 -38.5 72t-76.5 25
t-75 -24t-29 -64q0 -38 28 -60.5t76 -22.5z" />
    <glyph glyph-name="zero.numr" horiz-adv-x="518" 
d="M414 388q-56 -62 -155 -62t-155 62q-55 61 -55 174t55 174.5t155 61.5t155 -61.5t55 -174.5t-55 -174zM259 405q57 0 87.5 40t30.5 117t-30.5 117.5t-87.5 40.5t-87.5 -40t-30.5 -118q0 -157 118 -157z" />
    <glyph glyph-name="one.numr" horiz-adv-x="373" 
d="M279 336h-92v276h-140v77h66q38 0 56 14t18 47v39h92v-453z" />
    <glyph glyph-name="two.numr" horiz-adv-x="511" 
d="M461 336h-406q0 82 35 133t110 77l92 32q67 24 67 73q0 69 -101 69q-98 0 -110 -85l-90 11q9 70 61.5 111t140.5 41q90 0 140.5 -38t50.5 -107q0 -102 -127 -144l-77 -25q-78 -27 -79 -69h293v-79z" />
    <glyph glyph-name="three.numr" horiz-adv-x="508" 
d="M255 324q-86 0 -136.5 37.5t-62.5 108.5l89 13q17 -83 112 -83q49 0 76 18t27 50q0 63 -101 63h-45v74h41q96 0 96 60q0 61 -98 61q-88 0 -108 -65l-86 13q14 59 65.5 91.5t131.5 32.5q83 0 134 -33t51 -92q0 -74 -73 -98v-2q86 -20 86 -106q0 -66 -53 -104.5t-146 -38.5
z" />
    <glyph glyph-name="four.numr" horiz-adv-x="493" 
d="M386 336h-92v112l-262 -8v84l248 265h106v-279l72 9v-79l-72 8v-112zM292 692l-166 -176l168 -6v182h-2z" />
    <glyph glyph-name="five.numr" horiz-adv-x="509" 
d="M255 327q-70 0 -121.5 25.5t-76.5 72.5l87 36q32 -56 113 -56q50 0 79.5 22.5t29.5 62.5q0 39 -28 59.5t-79 20.5q-63 0 -106 -38l-84 22l48 235h320v-73h-253l-21 -101l2 -1q47 26 114 26q84 0 131.5 -39.5t47.5 -109.5q0 -77 -53.5 -120.5t-149.5 -43.5z" />
    <glyph glyph-name="six.numr" horiz-adv-x="504" 
d="M260 326q-100 0 -156 60.5t-56 165.5q0 117 55 181.5t160 64.5q129 0 179 -92l-80 -28q-32 47 -98 47q-59 0 -88.5 -34.5t-33.5 -108.5q49 52 139 52q80 0 127 -40t47 -107q0 -73 -52.5 -117t-142.5 -44zM185 423q29 -25 76 -25t75 24q29 24 29 64q0 38 -28 60.5
t-75 22.5q-40 0 -71.5 -20.5t-44.5 -53.5q8 -48 39 -72z" />
    <glyph glyph-name="seven.numr" horiz-adv-x="450" 
d="M221 336h-92q1 101 51 205q50 103 128 168h-276v80h386v-81q-191 -143 -197 -372z" />
    <glyph glyph-name="eight.numr" horiz-adv-x="528" 
d="M419 362q-59 -36 -155 -36q-97 0 -154 36q-58 36 -58 103q0 41 25 70.5t66 38.5v1q-34 11 -54 37.5t-20 61.5q0 59 51.5 91.5t143.5 32.5q94 0 145.5 -32t51.5 -92q0 -34 -20.5 -60.5t-54.5 -38.5v-1q40 -9 65 -38.5t25 -70.5q0 -67 -57 -103zM264 606q109 0 109 62
q0 59 -109 59q-108 0 -108 -59q0 -62 108 -62zM175 417q31 -19 89 -19t89 19q32 18 32 51q0 69 -121 69t-121 -69q0 -33 32 -51z" />
    <glyph glyph-name="nine.numr" horiz-adv-x="504" 
d="M241 326q-128 0 -179 92l80 28q32 -47 99 -47q58 0 87.5 34.5t33.5 108.5q-49 -52 -138 -52q-81 0 -128 40.5t-47 107.5q0 72 53 116t142 44q100 0 156 -60.5t56 -165.5q0 -117 -55 -181.5t-160 -64.5zM243 555q39 0 70.5 20.5t44.5 53.5q-8 47 -38.5 72t-76.5 25
t-75 -24t-29 -64q0 -38 28 -60.5t76 -22.5z" />
    <glyph glyph-name="zero.tf" 
d="M604 86q-76 -102 -225 -102t-225 102q-77 101 -77 298q0 196 76.5 297.5t225.5 101.5q148 0 224.5 -101.5t76.5 -297.5q0 -197 -76 -298zM379 95q87 0 128.5 71.5t41.5 217.5t-41 217t-129 71t-129.5 -71t-41.5 -217t41.5 -217.5t129.5 -71.5z" />
    <glyph glyph-name="one.tf" 
d="M466 768v-657h189v-111h-509v111h188v412h-188v90h9q88 0 135 35q44 33 57 109l2 11h117z" />
    <glyph glyph-name="two.tf" 
d="M669 0h-582q0 103 50 177q49 73 168 144l104 63q62 37 87.5 72t25.5 83q0 61 -37.5 95.5t-105.5 34.5q-70 0 -108.5 -37t-38.5 -106v-11h-128v9q0 122 75 190.5t205 68.5q125 0 198.5 -63t73.5 -174q0 -81 -46 -144t-149 -122l-73 -42q-65 -38 -90 -63t-29 -55h400v-120z
" />
    <glyph glyph-name="three.tf" 
d="M379 -15q-131 0 -206.5 65t-86.5 186l132 11q16 -150 163 -150q74 0 113.5 35.5t39.5 95.5q0 62 -38.5 95t-110.5 33h-73v100h69q63 0 98.5 29.5t35.5 80.5q0 52 -37 80.5t-102 28.5q-136 0 -153 -128l-127 13q15 108 87.5 166.5t194.5 58.5q120 0 193 -55
q72 -56 72 -150q0 -121 -121 -164v-3q149 -35 149 -188q0 -113 -80 -176q-79 -64 -212 -64z" />
    <glyph glyph-name="four.tf" 
d="M571 768v-492l114 12v-106l-114 12v-194h-122v194l-377 -12v105l309 481h190zM195 286l254 -10v403h-3z" />
    <glyph glyph-name="five.tf" 
d="M373 -13q-120 0 -196.5 58t-89.5 160l135 12q10 -58 51.5 -88.5t103.5 -30.5q74 0 115 42t41 115t-40.5 113.5t-116.5 40.5q-83 0 -138 -58l-130 15l77 402h450v-118h-347l-38 -186l2 -2q65 49 159 49q122 0 190 -71q67 -70 67 -183q0 -117 -77 -194q-76 -76 -218 -76z
" />
    <glyph glyph-name="six.tf" 
d="M415 503q114 0 185 -68q70 -67 70 -184q0 -121 -75 -194q-76 -73 -207 -73q-133 0 -214 90q-87 92 -87 280q0 429 312 429q102 0 169.5 -45t91.5 -128l-127 -17q-27 85 -137 85q-88 0 -130.5 -61.5t-46.5 -203.5q66 90 196 90zM390 95q70 0 110.5 41t40.5 110
q0 71 -41 113.5t-109 42.5q-65 0 -111 -37.5t-58 -103.5q8 -73 42 -111q49 -55 126 -55z" />
    <glyph glyph-name="seven.tf" 
d="M369 0h-142q19 179 94 352q73 170 186 294h-414v122h571v-104q-263 -254 -295 -664z" />
    <glyph glyph-name="eight.tf" 
d="M377 -16q-132 0 -216 63q-85 61 -85 176q0 72 40.5 122.5t111.5 66.5v3q-59 20 -91.5 63t-32.5 102q0 96 73 150.5t200 54.5q129 0 203 -54.5t74 -150.5q0 -58 -32.5 -101t-91.5 -64v-3q73 -21 112.5 -69t39.5 -120q0 -114 -86 -176q-86 -63 -219 -63zM269 488
q39 -30 109 -30t110 30t40 84q0 53 -39.5 82t-110.5 29q-70 0 -109 -28.5t-39 -82.5t39 -84zM254 128q43 -37 124 -37q80 0 126 37q45 36 45 100q0 61 -45.5 97t-125.5 36t-124 -35t-44 -98q0 -64 44 -100z" />
    <glyph glyph-name="nine.tf" 
d="M583 695q87 -93 87 -281q0 -429 -312 -429q-102 0 -169.5 45.5t-91.5 128.5l126 17q26 -86 137 -86q88 0 131 62.5t47 204.5q-63 -91 -196 -91q-114 0 -185 68q-70 67 -70 184q0 121 76 194q74 73 205 73q133 0 215 -90zM366 367q64 0 110.5 37.5t58.5 102.5
q-7 70 -43 112q-48 54 -125 54q-70 0 -111 -40.5t-41 -110.5t41.5 -112.5t109.5 -42.5z" />
    <glyph glyph-name="zero.tf.zero" 
d="M379 783q148 0 224.5 -101.5t76.5 -297.5q0 -197 -76 -298q-76 -102 -225 -102t-225 102q-77 101 -77 298q0 196 76.5 297.5t225.5 101.5zM379 672q-88 0 -129.5 -71t-41.5 -217t41 -217l209 486q-31 19 -79 19zM379 95q87 0 128.5 71.5t41.5 217.5q0 147 -41 218
l-209 -487q35 -20 80 -20z" />
    <glyph glyph-name="period.ss01" horiz-adv-x="367" 
d="M249 12q-25 -25 -64 -25t-65 25q-26 26 -26 63q0 39 25.5 63.5t64.5 24.5t64.5 -24.5t25.5 -63.5q0 -38 -25 -63z" />
    <glyph glyph-name="comma.ss01" horiz-adv-x="390" 
d="M196 167q42 0 68 -28.5t26 -75.5v-111q0 -78 -38 -114.5t-118 -36.5h-21v71h21q45 0 64 18t19 60v36h-21q-42 0 -69 25.5t-27 64.5t27 65t69 26z" />
    <glyph glyph-name="colon.ss01" horiz-adv-x="380" 
d="M255 392q-25 -25 -64.5 -25t-64.5 25q-26 26 -26 64t25.5 62.5t64.5 24.5t64.5 -24.5t25.5 -62.5q0 -39 -25 -64zM255 12q-25 -25 -64 -25t-65 25q-26 26 -26 63q0 39 25.5 63.5t64.5 24.5t64.5 -24.5t25.5 -63.5q0 -38 -25 -63z" />
    <glyph glyph-name="semicolon.ss01" horiz-adv-x="396" 
d="M255 392q-25 -25 -64.5 -25t-64.5 25q-26 26 -26 64t25.5 62.5t64.5 24.5t64.5 -24.5t25.5 -62.5q0 -39 -25 -64zM134 141q26 26 68 26q43 0 68 -28q26 -29 26 -76v-111q0 -78 -37.5 -114.5t-117.5 -36.5h-22v71h22q44 0 63 17.5t19 60.5v36h-21q-42 0 -68.5 25.5
t-26.5 64.5t27 65z" />
    <glyph glyph-name="ellipsis.ss01" horiz-adv-x="1102" 
d="M249 12q-25 -25 -64 -25t-65 25q-26 26 -26 63q0 39 25.5 63.5t64.5 24.5t64.5 -24.5t25.5 -63.5q0 -38 -25 -63zM616 12q-26 -25 -65 -25t-64 25q-26 26 -26 63q0 39 25.5 63.5t64.5 24.5t64.5 -24.5t25.5 -63.5q0 -38 -25 -63zM983 12q-25 -25 -64 -25t-65 25
q-26 26 -26 63q0 39 25.5 63.5t64.5 24.5t64.5 -24.5t25.5 -63.5q0 -38 -25 -63z" />
    <glyph glyph-name="exclam.ss01" horiz-adv-x="346" 
d="M206 218h-65l-33 314v236h130v-236zM173 -13q-36 0 -60 23.5t-24 59.5t24 58.5t60 22.5q37 0 60.5 -22.5t23.5 -58.5q0 -37 -23.5 -60t-60.5 -23z" />
    <glyph glyph-name="exclamdown.ss01" horiz-adv-x="346" 
d="M173 401q-36 0 -60 22.5t-24 58.5t24 59.5t60 23.5q37 0 60.5 -23t23.5 -60q0 -36 -23.5 -58.5t-60.5 -22.5zM238 -204h-130v236l33 302h65l32 -302v-236z" />
    <glyph glyph-name="question.ss01" horiz-adv-x="720" 
d="M408 221h-131v23q0 76 31 122q31 44 111 82q91 46 91 115q0 53 -40.5 80.5t-114.5 27.5q-78 0 -116.5 -32.5t-46.5 -103.5l-130 14q11 113 85.5 173t208.5 60q135 0 211 -57t76 -159q0 -123 -121 -192l-45 -27q-40 -24 -54.5 -47t-14.5 -69v-10zM343 -13q-37 0 -61 23
t-24 60q0 36 24 58.5t61 22.5q36 0 59.5 -22.5t23.5 -58.5q0 -37 -23.5 -60t-59.5 -23z" />
    <glyph glyph-name="questiondown.ss01" horiz-adv-x="720" 
d="M377 401q-36 0 -60 22.5t-24 58.5t24 59.5t60 23.5q37 0 61 -23t24 -60q0 -36 -24 -58.5t-61 -22.5zM364 -217q-135 0 -211 57t-76 159q0 122 121 191l45 27q41 25 55 48t14 69v7h131v-20q0 -77 -31 -121q-31 -45 -111 -83q-49 -24 -70 -51.5t-21 -63.5q0 -53 40.5 -81
t114.5 -28q77 0 116 33t47 103l130 -13q-11 -113 -85.5 -173t-208.5 -60z" />
    <glyph glyph-name="periodcentered.ss01" horiz-adv-x="360" 
d="M242 323q-24 -23 -62 -23t-62 23t-24 60q0 36 24 59.5t62 23.5q37 0 61.5 -23.5t24.5 -59.5q0 -37 -24 -60z" />
    <glyph glyph-name="bullet.ss01" horiz-adv-x="499" 
d="M362 187q-44 -43 -113 -43q-68 0 -111 43q-44 42 -44 109q0 66 44 110q43 43 111 43q69 0 113 -43q44 -44 44 -110q0 -67 -44 -109z" />
    <glyph glyph-name="uni203D.ss01" horiz-adv-x="748" 
d="M368 781q142 0 222 -57t80 -161q0 -122 -125 -188l-48 -26q-53 -25 -69 -51q-17 -25 -25 -88h-74l-19 251v105h113v-105l-5 -58q21 14 32 20q52 29 73.5 59.5t21.5 70.5q0 124 -176 124q-89 0 -132 -34.5t-48 -105.5l-127 9q23 235 306 235zM367 151q36 0 60 -22.5
t24 -58.5t-24 -59.5t-60 -23.5q-37 0 -61 23t-24 60q0 36 24 58.5t61 22.5z" />
    <glyph glyph-name="uni2E18.ss01" horiz-adv-x="748" 
d="M381 401q-36 0 -60 22.5t-24 58.5t24 59.5t60 23.5q37 0 60.5 -23t23.5 -60q0 -36 -23.5 -58.5t-60.5 -22.5zM559 21l126 -9q-21 -235 -306 -235q-142 0 -222 57t-80 161q0 123 126 188l48 26q52 25 70 51q17 26 24 88h74l18 -251v-105h-112v105l5 58q-9 -6 -33 -20
q-52 -29 -73 -59.5t-21 -70.5q0 -124 176 -124q89 0 132 34.5t48 105.5z" />
    <glyph glyph-name="period.tf.ss01" 
d="M443 12q-25 -25 -64 -25t-65 25q-26 26 -26 63q0 39 25.5 63.5t64.5 24.5t64.5 -24.5t25.5 -63.5q0 -38 -25 -63z" />
    <glyph glyph-name="comma.tf.ss01" 
d="M311 141q26 26 68 26q43 0 68 -28q26 -29 26 -76v-111q0 -78 -37.5 -114.5t-118.5 -36.5h-21v71h21q45 0 64 18t19 60v36h-21q-42 0 -68.5 25.5t-26.5 64.5t27 65z" />
    <glyph glyph-name="colon.tf.ss01" 
d="M443 392q-25 -25 -64 -25t-65 25q-26 26 -26 64t25.5 62.5t64.5 24.5t64.5 -24.5t25.5 -62.5q0 -39 -25 -64zM443 12q-25 -25 -64 -25t-65 25q-26 26 -26 63q0 39 25.5 63.5t64.5 24.5t64.5 -24.5t25.5 -63.5q0 -38 -25 -63z" />
    <glyph glyph-name="semicolon.tf.ss01" 
d="M435 392q-25 -25 -64 -25t-65 25q-26 26 -26 64t25.5 62.5t64.5 24.5t64.5 -24.5t25.5 -62.5q0 -39 -25 -64zM314 141q26 26 68 26q43 0 68 -28q26 -29 26 -76v-111q0 -78 -37.5 -114.5t-117.5 -36.5h-22v71h22q44 0 63 17.5t19 60.5v36h-21q-42 0 -68.5 25.5t-26.5 64.5
t27 65z" />
    <glyph glyph-name="period.tf" 
d="M464 0h-171v156h171v-156z" />
    <glyph glyph-name="comma.tf" 
d="M311 -199h-21v71h21q45 0 64 18t19 60v77l-104 -27v156h177v-204q0 -78 -37.5 -114.5t-118.5 -36.5z" />
    <glyph glyph-name="colon.tf" 
d="M464 366h-171v157h171v-157zM464 0h-171v156h171v-156z" />
    <glyph glyph-name="semicolon.tf" 
d="M463 366h-171v157h171v-157zM311 -199h-21v71h21q45 0 64 18t19 60v77l-104 -27v156h177v-204q0 -78 -37.5 -114.5t-118.5 -36.5z" />
    <glyph glyph-name="parenleft.case" horiz-adv-x="364" 
d="M320 -35h-117q-138 188 -138 419q0 236 138 418h117q-123 -192 -123 -420q0 -224 123 -417z" />
    <glyph glyph-name="parenright.case" horiz-adv-x="364" 
d="M161 -35h-117q122 194 122 417q0 229 -122 420h117q138 -186 138 -418q0 -230 -138 -419z" />
    <glyph glyph-name="braceleft.case" horiz-adv-x="434" 
d="M390 -35h-113q-62 0 -92.5 26.5t-30.5 85.5v153q0 52 -24.5 75t-85.5 23v111q62 0 86 23t24 75v153q0 57 28.5 84.5t94.5 27.5h113v-110h-65q-28 0 -39.5 -10.5t-11.5 -37.5v-118q0 -60 -32.5 -96.5t-94.5 -45.5v-1q62 -9 94.5 -44t32.5 -92v-123q0 -26 11.5 -37
t40.5 -11h64v-111z" />
    <glyph glyph-name="braceright.case" horiz-adv-x="434" 
d="M156 -35h-112v111h63q29 0 41 10.5t12 37.5v123q0 57 32.5 92t94.5 44v1q-62 9 -94.5 45.5t-32.5 96.5v118q0 27 -11 37.5t-41 10.5h-64v110h112q62 0 93 -26.5t31 -85.5v-153q0 -52 24 -75t86 -23v-111q-61 0 -85.5 -22.5t-24.5 -75.5v-153q0 -57 -29 -84.5t-95 -27.5z
" />
    <glyph glyph-name="bracketleft.case" horiz-adv-x="402" 
d="M358 -35h-271v837h271v-110h-144v-616h144v-111z" />
    <glyph glyph-name="bracketright.case" horiz-adv-x="401" 
d="M315 -35h-271v111h144v616h-144v110h271v-837z" />
    <glyph glyph-name="hyphen.case" horiz-adv-x="463" 
d="M406 332h-349v104h349v-104z" />
    <glyph glyph-name="endash.case" horiz-adv-x="613" 
d="M557 333h-500v106h500v-106z" />
    <glyph glyph-name="emdash.case" horiz-adv-x="853" 
d="M797 333h-740v106h740v-106z" />
    <glyph glyph-name="hyphen.tf" 
d="M553 235h-349v104h349v-104z" />
    <glyph glyph-name="guillemotleft.case" horiz-adv-x="793" 
d="M362 220v-135l-268 216v139l268 216v-135l-186 -150zM699 220v-135l-268 216v139l268 216v-135l-186 -150z" />
    <glyph glyph-name="guillemotright.case" horiz-adv-x="793" 
d="M362 301l-268 -216v135l186 151l-186 150v135l268 -216v-139zM699 301l-268 -216v135l186 151l-186 150v135l268 -216v-139z" />
    <glyph glyph-name="guilsinglleft.case" horiz-adv-x="456" 
d="M362 220v-135l-268 216v139l268 216v-135l-186 -150z" />
    <glyph glyph-name="guilsinglright.case" horiz-adv-x="456" 
d="M362 301l-268 -216v135l186 151l-186 150v135l268 -216v-139z" />
    <glyph glyph-name="quotesinglbase.ss01" horiz-adv-x="390" 
d="M196 167q42 0 68 -28.5t26 -75.5v-111q0 -78 -38 -114.5t-118 -36.5h-21v71h21q45 0 64 18t19 60v36h-21q-42 0 -69 25.5t-27 64.5t27 65t69 26z" />
    <glyph glyph-name="quotedblbase.ss01" horiz-adv-x="673" 
d="M196 167q42 0 68 -28.5t26 -75.5v-111q0 -78 -38 -114.5t-118 -36.5h-21v71h21q45 0 64 18t19 60v36h-21q-42 0 -69 25.5t-27 64.5t27 65t69 26zM410 141q26 26 68 26t69 -28q26 -29 26 -76v-111q0 -78 -38 -114.5t-118 -36.5h-21v71h21q44 0 63 17.5t19 60.5v36h-21
q-42 0 -68.5 25.5t-26.5 64.5t27 65z" />
    <glyph glyph-name="quotedblleft.ss01" horiz-adv-x="619" 
d="M147 599h21q42 0 68.5 -25.5t26.5 -64.5t-26 -65q-28 -26 -69 -26q-43 0 -68 28q-27 28 -27 76v111q0 78 38 114.5t118 36.5h21v-71h-21q-44 0 -63 -17.5t-19 -60.5v-36zM429 599h21q42 0 69 -25.5t27 -64.5t-27 -65t-69 -26t-68 28.5t-26 75.5v111q0 78 38 114.5
t118 36.5h21v-71h-21q-45 0 -64 -18t-19 -60v-36z" />
    <glyph glyph-name="quotedblright.ss01" horiz-adv-x="619" 
d="M100 753q26 25 69 25t68 -27q26 -29 26 -76v-112q0 -78 -38 -114t-118 -36h-21v71h21q45 0 64 18t19 60v36h-21q-42 0 -69 25.5t-27 64.5q0 40 27 65zM383 753q26 25 69 25q42 0 68 -27q26 -29 26 -76v-112q0 -78 -38 -114t-118 -36h-21v71h21q45 0 64 18t19 60v36h-21
q-42 0 -69 25.5t-27 64.5q0 40 27 65z" />
    <glyph glyph-name="quoteleft.ss01" horiz-adv-x="336" 
d="M147 599h21q42 0 68.5 -25.5t26.5 -64.5t-26 -65q-28 -26 -69 -26q-43 0 -68 28q-27 28 -27 76v111q0 78 38 114.5t118 36.5h21v-71h-21q-44 0 -63 -17.5t-19 -60.5v-36z" />
    <glyph glyph-name="quoteright.ss01" horiz-adv-x="336" 
d="M100 753q26 25 69 25t68 -27q26 -29 26 -76v-112q0 -78 -38 -114t-118 -36h-21v71h21q45 0 64 18t19 60v36h-21q-42 0 -69 25.5t-27 64.5q0 40 27 65z" />
    <glyph glyph-name="hyphen.dnom" horiz-adv-x="360" 
d="M304 161h-248v91h248v-91z" />
    <glyph glyph-name="parenleft.dnom" horiz-adv-x="371" 
d="M310 -148h-101q-127 161 -127 366q0 207 127 365h101q-114 -167 -114 -367q0 -197 114 -364z" />
    <glyph glyph-name="parenright.dnom" horiz-adv-x="371" 
d="M162 -148h-102q115 166 115 364q0 201 -115 367h102q127 -158 127 -365q0 -205 -127 -366z" />
    <glyph glyph-name="braceleft.dnom" horiz-adv-x="440" 
d="M380 -148h-103q-58 0 -85.5 22.5t-27.5 75.5v133q0 45 -23 65.5t-81 21.5v95q58 0 81 20.5t23 66.5v132q0 50 27 74.5t86 24.5h103v-95h-60q-28 0 -40 -9.5t-12 -35.5v-101q0 -52 -30 -84.5t-86 -39.5v-1q57 -8 86.5 -39t29.5 -80v-106q0 -25 11.5 -35t40.5 -10h60v-95z
" />
    <glyph glyph-name="braceright.dnom" horiz-adv-x="440" 
d="M162 -148h-102v95h60q28 0 40 9.5t12 35.5v106q0 102 116 119v1q-56 7 -86 39.5t-30 84.5v101q0 24 -11.5 34.5t-40.5 10.5h-60v95h102q58 0 86 -23t28 -76v-132q0 -46 23 -66.5t81 -20.5v-95q-58 -1 -81 -21t-23 -66v-133q0 -50 -26.5 -74t-87.5 -24z" />
    <glyph glyph-name="bracketleft.dnom" horiz-adv-x="410" 
d="M350 -148h-248v731h248v-95h-139v-541h139v-95z" />
    <glyph glyph-name="bracketright.dnom" horiz-adv-x="410" 
d="M308 -148h-248v95h138v541h-138v95h248v-731z" />
    <glyph glyph-name="period.dnom" horiz-adv-x="328" 
d="M234 0h-140v127h140v-127z" />
    <glyph glyph-name="comma.dnom" horiz-adv-x="328" 
d="M115 -145h-21v55h21q34 0 48.5 13.5t14.5 46.5v57l-84 -20v120h140v-156q0 -61 -28.5 -88.5t-90.5 -27.5z" />
    <glyph glyph-name="hyphen.numr" horiz-adv-x="360" 
d="M304 530h-248v91h248v-91z" />
    <glyph glyph-name="parenleft.numr" horiz-adv-x="371" 
d="M310 221h-101q-127 161 -127 366q0 207 127 365h101q-114 -166 -114 -367q0 -198 114 -364z" />
    <glyph glyph-name="parenright.numr" horiz-adv-x="371" 
d="M162 221h-102q115 166 115 364q0 201 -115 367h102q127 -158 127 -365q0 -205 -127 -366z" />
    <glyph glyph-name="braceleft.numr" horiz-adv-x="440" 
d="M380 221h-103q-58 0 -85.5 22.5t-27.5 75.5v133q0 45 -23 65.5t-81 21.5v95q58 0 81 20.5t23 66.5v132q0 50 27 74.5t86 24.5h103v-95h-60q-28 0 -40 -9.5t-12 -35.5v-101q0 -52 -30 -84.5t-86 -39.5v-1q57 -8 86.5 -39t29.5 -80v-106q0 -24 11.5 -34.5t40.5 -10.5h60
v-95z" />
    <glyph glyph-name="braceright.numr" horiz-adv-x="440" 
d="M162 221h-102v95h60q28 0 40 9.5t12 35.5v106q0 102 116 119v1q-56 7 -86 39.5t-30 84.5v101q0 25 -11.5 35t-40.5 10h-60v95h102q58 0 86 -23t28 -76v-132q0 -46 23 -66.5t81 -20.5v-95q-58 -1 -81 -21t-23 -66v-133q0 -50 -26.5 -74t-87.5 -24z" />
    <glyph glyph-name="bracketleft.numr" horiz-adv-x="410" 
d="M350 221h-248v731h248v-95h-139v-541h139v-95z" />
    <glyph glyph-name="bracketright.numr" horiz-adv-x="410" 
d="M308 221h-248v95h138v541h-138v95h248v-731z" />
    <glyph glyph-name="period.numr" horiz-adv-x="328" 
d="M234 369h-140v127h140v-127z" />
    <glyph glyph-name="comma.numr" horiz-adv-x="328" 
d="M115 224h-21v55h21q34 0 48.5 13.5t14.5 46.5v57l-84 -20v120h140v-156q0 -61 -28.5 -88.5t-90.5 -27.5z" />
    <glyph glyph-name="period.dnom.ss01" horiz-adv-x="340" 
d="M170 -13q-33 0 -54.5 20.5t-21.5 52.5q0 31 21.5 51.5t54.5 20.5q34 0 55.5 -20t21.5 -52t-21.5 -52.5t-55.5 -20.5z" />
    <glyph glyph-name="comma.dnom.ss01" horiz-adv-x="331" 
d="M114 120q23 18 52 19t52 -21.5t20 -57.5v-84q0 -60 -29 -87.5t-89 -27.5h-17v54h17q33 0 47.5 13.5t14.5 45.5v28h-16q-48 -4 -66.5 42t14.5 76z" />
    <glyph glyph-name="period.numr.ss01" horiz-adv-x="340" 
d="M170 358q-33 0 -54.5 20.5t-21.5 52.5q0 31 21.5 51.5t54.5 20.5q34 0 55.5 -20t21.5 -52t-21.5 -52.5t-55.5 -20.5z" />
    <glyph glyph-name="comma.numr.ss01" horiz-adv-x="331" 
d="M114 491q23 18 52 19t52 -21.5t20 -57.5v-84q0 -60 -29 -87.5t-89 -27.5h-17v54h17q33 0 47.5 13.5t14.5 45.5v28h-16q-48 -4 -66.5 42t14.5 76z" />
    <glyph glyph-name="period.subs.ss01" horiz-adv-x="340" 
d="M170 -216q-33 0 -54.5 20.5t-21.5 52.5q0 31 21.5 51.5t54.5 20.5q34 0 55.5 -20t21.5 -52t-21.5 -52.5t-55.5 -20.5z" />
    <glyph glyph-name="comma.subs.ss01" horiz-adv-x="331" 
d="M114 -82q23 19 52 20t52 -21.5t20 -57.5v-84q0 -60 -29 -87.5t-89 -27.5h-17v54h17q33 0 47.5 13.5t14.5 45.5v28h-16q-48 -4 -66.5 42t14.5 75z" />
    <glyph glyph-name="period.sups.ss01" horiz-adv-x="340" 
d="M170 358q-33 0 -54.5 20.5t-21.5 52.5q0 31 21.5 51.5t54.5 20.5q34 0 55.5 -20t21.5 -52t-21.5 -52.5t-55.5 -20.5z" />
    <glyph glyph-name="comma.sups.ss01" horiz-adv-x="331" 
d="M114 491q23 18 52 19t52 -21.5t20 -57.5v-84q0 -60 -29 -87.5t-89 -27.5h-17v54h17q33 0 47.5 13.5t14.5 45.5v28h-16q-48 -4 -66.5 42t14.5 76z" />
    <glyph glyph-name="hyphen.subs" horiz-adv-x="360" 
d="M304 -44h-248v91h248v-91z" />
    <glyph glyph-name="braceleft.subs" horiz-adv-x="440" 
d="M380 -353h-103q-58 0 -85.5 22.5t-27.5 75.5v133q0 45 -23 65.5t-81 21.5v95q58 0 81 20.5t23 66.5v132q0 50 27 74.5t86 24.5h103v-95h-60q-28 0 -40 -9.5t-12 -35.5v-101q0 -52 -30 -84.5t-86 -39.5v-1q57 -8 86.5 -39t29.5 -80v-106q0 -24 11.5 -34.5t40.5 -10.5h60
v-95z" />
    <glyph glyph-name="braceright.subs" horiz-adv-x="440" 
d="M162 -353h-102v95h60q28 0 40 9.5t12 35.5v106q0 102 116 119v1q-56 7 -86 39.5t-30 84.5v101q0 25 -11.5 35t-40.5 10h-60v95h102q58 0 86 -23t28 -76v-132q0 -46 23 -66.5t81 -20.5v-95q-58 -1 -81 -21t-23 -66v-133q0 -50 -26.5 -74t-87.5 -24z" />
    <glyph glyph-name="bracketleft.subs" horiz-adv-x="410" 
d="M350 -353h-248v731h248v-95h-139v-541h139v-95z" />
    <glyph glyph-name="bracketright.subs" horiz-adv-x="410" 
d="M308 -353h-248v95h138v541h-138v95h248v-731z" />
    <glyph glyph-name="period.subs" horiz-adv-x="328" 
d="M234 -205h-140v127h140v-127z" />
    <glyph glyph-name="comma.subs" horiz-adv-x="328" 
d="M115 -343h-21v55h21q34 0 48.5 13.5t14.5 46.5v57l-84 -20v120h140v-156q0 -61 -28.5 -88.5t-90.5 -27.5z" />
    <glyph glyph-name="hyphen.sups" horiz-adv-x="360" 
d="M304 530h-248v91h248v-91z" />
    <glyph glyph-name="braceleft.sups" horiz-adv-x="440" 
d="M380 221h-103q-58 0 -85.5 22.5t-27.5 75.5v133q0 45 -23 65.5t-81 21.5v95q58 0 81 20.5t23 66.5v132q0 50 27 74.5t86 24.5h103v-95h-60q-28 0 -40 -9.5t-12 -35.5v-101q0 -52 -30 -84.5t-86 -39.5v-1q57 -8 86.5 -39t29.5 -80v-106q0 -24 11.5 -34.5t40.5 -10.5h60
v-95z" />
    <glyph glyph-name="braceright.sups" horiz-adv-x="440" 
d="M162 221h-102v95h60q28 0 40 9.5t12 35.5v106q0 102 116 119v1q-56 7 -86 39.5t-30 84.5v101q0 25 -11.5 35t-40.5 10h-60v95h102q58 0 86 -23t28 -76v-132q0 -46 23 -66.5t81 -20.5v-95q-58 -1 -81 -21t-23 -66v-133q0 -50 -26.5 -74t-87.5 -24z" />
    <glyph glyph-name="bracketleft.sups" horiz-adv-x="410" 
d="M350 221h-248v731h248v-95h-139v-541h139v-95z" />
    <glyph glyph-name="bracketright.sups" horiz-adv-x="410" 
d="M308 221h-248v95h138v541h-138v95h248v-731z" />
    <glyph glyph-name="period.sups" horiz-adv-x="328" 
d="M234 369h-140v127h140v-127z" />
    <glyph glyph-name="comma.sups" horiz-adv-x="328" 
d="M115 224h-21v55h21q34 0 48.5 13.5t14.5 46.5v57l-84 -20v120h140v-156q0 -61 -28.5 -88.5t-90.5 -27.5z" />
    <glyph glyph-name="Euro.micro" 
d="M552 669q-161 0 -215 -144h360v-89h-379q-3 -25 -3 -53q0 -9 2 -51h380v-88h-363q51 -155 216 -155q74 0 147 27v-112q-74 -23 -154 -23q-131 0 -221 69.5t-123 193.5h-138v88h123q-2 46 -2 51q0 7 2 53h-123v89h140q33 120 122.5 186.5t218.5 66.5q83 0 155 -23v-111
q-69 25 -145 25z" />
    <glyph glyph-name="uni20BA.micro" 
d="M583 288l123 -13q-27 -134 -116.5 -204.5t-228.5 -70.5h-167v247l-143 -73v98l143 73v105l-143 -73v97l143 73v221h131v-154l235 120v-97l-235 -120v-105l235 120v-98l-235 -120v-199h36q181 0 222 173z" />
    <glyph glyph-name="uni20B9.micro" 
d="M77 768h603v-85h-231q47 -36 59 -99h172v-85h-174q-12 -52 -50.5 -88.5t-96.5 -50.5q60 -8 92 -38.5t51 -95.5l69 -226h-131l-58 201q-16 59 -48 85q-32 24 -109 24h-148v91h158q65 0 100.5 22.5t44.5 75.5h-303v85h304q-9 53 -44.5 76t-101.5 23h-158v85z" />
    <glyph glyph-name="sterling.micro" 
d="M330 103h364v-103h-630v103h33q95 0 153 42q57 41 57 100q0 35 -24 68l-219 -5v100l148 -5q-88 70 -88 168q0 91 71 153t201 62q129 0 204.5 -63.5t82.5 -168.5l-129 -1q-6 63 -47.5 93.5t-105.5 30.5q-69 0 -107 -33t-38 -90q0 -35 20 -69.5t72 -81.5l258 5v-100l-192 6
q15 -32 15 -64q0 -43 -26 -82t-73 -65z" />
    <glyph glyph-name="yen.micro" 
d="M582 768h142l-230 -345h176v-88h-223v-95h223v-88h-223v-152h-134v152h-226v88h226v95h-226v88h178l-231 345h146l179 -278l23 -43l22 44z" />
    <glyph glyph-name="equal.sups" horiz-adv-x="605" 
d="M533 627h-462v88h462v-88zM533 438h-462v88h462v-88z" />
    <glyph glyph-name="uni2219.ss01" horiz-adv-x="499" 
d="M362 187q-44 -43 -113 -43q-68 0 -111 43q-44 42 -44 109q0 66 44 110q43 43 111 43q69 0 113 -43q44 -44 44 -110q0 -67 -44 -109z" />
    <glyph glyph-name="divide.ss01" 
d="M433 501q-33 -36 -84.5 -16t-47.5 71q0 33 22 54.5t55 21.5t55 -21.5t22 -54.5q0 -34 -22 -55zM655 288h-555v103h555v-103zM433 68q-25 -21 -55.5 -21.5t-55 21.5t-21.5 55q0 33 22 55t55 22t55 -22t22 -55q0 -34 -22 -55z" />
    <glyph glyph-name="plus.tf" 
d="M431 391h229v-102h-229v-230h-106v230h-227v102h227v231h106v-231z" />
    <glyph glyph-name="minus.tf" 
d="M653 285h-549v110h549v-110z" />
    <glyph glyph-name="cent.dnom" horiz-adv-x="580" 
d="M409 129l89 -15q-38 -118 -166 -135v-93h-72v93q-81 10 -129 63t-48 135q0 83 46 134.5t131 61.5v95h72v-95q129 -14 163 -120l-90 -18q-19 70 -111 70q-120 0 -120 -128q0 -62 31.5 -95.5t89.5 -33.5q93 0 114 81z" />
    </font>
</defs>
</svg>
