<svg id="Layer_1" data-name="Layer 1" xmlns="http://www.w3.org/2000/svg" viewBox="0 0 575 575">
  <defs>
    <style>
      .cls-1 {
        fill: #c5c7c6;
        stroke: #c5c7c6;
        stroke-miterlimit: 10;
        stroke-width: 14px;
      }

      .cls-2 {
        font-size: 372.7475px;
        fill: #003675;
      }

      .cls-2, .cls-3, .cls-4 {
        font-family: MinionPro-BoldCn, Minion Pro;
        font-weight: 700;
      }

      .cls-3 {
        font-size: 377.11755px;
        fill: #426c4f;
      }

      .cls-4 {
        font-size: 239.00136px;
      }
    </style>
  </defs>
  <g>
    <text/>    <g>
      <path class="cls-1" d="M290.83049,37.97756C320.21331,37.46184,343.4,52.92833,362.117,76.80781c15.84052,20.20964,30.9556,47.82388,45.80154,78.329,15.65874,32.17526,30.41821,64.81922,49.88354,94.98869,12.35414,19.14774,26.14131,37.04283,45.07029,50.31144a99.9485,99.9485,0,0,0,39.209,16.66946,49.2024,49.2024,0,0,1,5.82776,1.37884,11.48638,11.48638,0,0,1,8.10648,13.64387c-1.09311,5.496-6.211,9.9386-12.10145,8.78871-9.91711-1.93591-19.90731-4.19066-29.35836-7.68576-24.66889-9.12285-43.43156-26.18873-59.46381-46.51158-20.34324-25.78771-35.38089-54.74482-50.10476-83.911-14.92042-29.55558-29.62595-59.24384-45.5534-88.255a155.43092,155.43092,0,0,0-23.86705-31.891c-27.8996-29.24082-67.38662-28.88993-95.53118.03274-13.6104,13.98667-24.00841,30.32561-32.87973,47.514-14.80608,28.6871-28.72064,57.83284-43.3632,86.60608-13.99368,27.49811-29.21415,54.27164-49.49433,77.79893C93.604,318.623,68.24,334.75663,36.73182,340.39684a23.52868,23.52868,0,0,1-9.34656.037c-4.94356-1.18249-7.912-6.23254-7.6484-11.55212.25737-5.19441,3.541-9.70163,9.01435-10.57812,39.2583-6.28631,64.72928-31.30391,85.67818-62.567,18.69495-27.89943,33.11667-58.10118,47.59773-88.276,13.257-27.62427,26.29662-55.4347,44.32568-80.35672a195.04447,195.04447,0,0,1,25.34682-28.78228C247.55018,43.66329,267.08826,37.616,290.83049,37.97756Z"/>
      <path class="cls-1" d="M286.94082,436.20738q-125.73577,0-251.47152-.00373c-1.999-.00012-4.00651.0521-5.99531-.10575a11.20168,11.20168,0,0,1-10.74222-11.02572,11.43,11.43,0,0,1,10.29788-12.02376,38.311,38.311,0,0,1,4.49523-.0908q253.47132-.00473,506.9427-.00061c9.7778.00018,15.02064,4.34948,14.73926,12.18119a11.21348,11.21348,0,0,1-9.8057,10.87271,53.02662,53.02662,0,0,1-6.48882.18972Q412.92656,436.21263,286.94082,436.20738Z"/>
    </g>
    <text class="cls-2" transform="matrix(0.98614, 0.16457, -0.16461, 0.98636, 157.23989, 343.94171)">J</text>
    <text class="cls-3" transform="translate(258.51359 412.28405) rotate(-8.99085) scale(1.00594 1)">S</text>
    <text class="cls-4" transform="matrix(0.91919, -0.02111, 0.02296, 0.99974, 213.56434, 406.43278)">R</text>
  </g>
</svg>
