<svg width="1945" height="1858" xmlns="http://www.w3.org/2000/svg" xmlns:xlink="http://www.w3.org/1999/xlink" overflow="hidden"><defs><clipPath id="clip0"><rect x="2245" y="345" width="1945" height="1858"/></clipPath></defs><g clip-path="url(#clip0)" transform="translate(-2245 -345)"><path d="M2505.61 1538.76 3297.22 1538.76 3079.41 1756.72C3030.03 1805.99 3002.74 1871.73 3002.74 1941.59 3002.74 2011.44 3030.03 2077.19 3079.41 2126.51 3181.31 2228.5 3347.28 2228.5 3449.24 2126.51L4113.29 1462.19C4162.77 1412.96 4190 1347.27 4190 1277.21L4190 1271.17C4190 1201.3 4162.92 1135.71 4113.7 1086.5L3449.3 421.903C3399.94 372.35 3334.23 345 3264.23 345 3194.33 345 3128.57 372.35 3079.59 421.46 3030.09 470.889 3002.71 536.603 3002.71 606.571 3002.71 676.415 3029.91 742.047 3079.37 791.624L3297.03 1009.47 2505.57 1009.47C2361.89 1009.47 2245 1128.18 2245 1274.17 2245.03 1420.03 2361.91 1538.75 2505.59 1538.75Z" fill="#003675" fill-rule="evenodd"/></g></svg>