<svg width="1945" height="1858" xmlns="http://www.w3.org/2000/svg" xmlns:xlink="http://www.w3.org/1999/xlink" overflow="hidden"><defs><clipPath id="clip0"><rect x="137" y="345" width="1945" height="1858"/></clipPath></defs><g clip-path="url(#clip0)" transform="translate(-137 -345)"><path d="M1821.39 1009.24 1029.79 1009.24 1247.6 791.281C1296.97 742.005 1324.26 676.267 1324.26 606.408 1324.26 536.564 1296.97 470.808 1247.6 421.493 1145.69 319.503 979.721 319.503 877.761 421.493L213.714 1085.81C164.233 1135.04 137 1200.73 137 1270.79L137 1276.83C137 1346.7 164.082 1412.29 213.3 1461.5L877.701 2126.1C927.058 2175.65 992.766 2203 1062.77 2203 1132.67 2203 1198.43 2175.65 1247.41 2126.54 1296.91 2077.11 1324.29 2011.4 1324.29 1941.43 1324.29 1871.59 1297.09 1805.95 1247.63 1756.38L1029.97 1538.53 1821.43 1538.53C1965.11 1538.53 2082 1419.82 2082 1273.83 2081.97 1127.97 1965.09 1009.25 1821.41 1009.25Z" fill="#003675" fill-rule="evenodd"/></g></svg>